<?xml version="1.0" encoding="utf-8"?>
<!-- Generator: Adobe Illustrator 22.1.0, SVG Export Plug-In . SVG Version: 6.00 Build 0)  -->
<svg version="1.1" xmlns="http://www.w3.org/2000/svg" xmlns:xlink="http://www.w3.org/1999/xlink" x="0px" y="0px"
	 viewBox="0 0 119.0707397 72.2855835" style="enable-background:new 0 0 119.0707397 72.2855835;" xml:space="preserve">
<style type="text/css">
	.st0{fill:#19191A;}
	.st1{fill:#E9A854;}
	.st2{fill:#9E9B9C;}
	.st3{fill:#FFFFFF;}
	.st4{fill:#363331;}
	.st5{fill:#CDC7BC;}
	.st6{fill:#907747;}
	.st7{fill:#B5B4B3;}
	.st8{fill:#735846;}
	.st9{fill:#CEC7BD;}
	.st10{fill:#918C84;}
	.st11{fill:#46433E;stroke:#46433E;stroke-width:0.5;stroke-miterlimit:10;}
	.st12{fill:#C9C8C8;stroke:#000000;stroke-width:0.25;stroke-miterlimit:10;}
</style>
<g id="Фон">
	<path class="st0" d="M17.1172485,72.2855835h102.0472412V0H17.1172485V72.2855835z M111.822937,65.4528809
		c0,0.7827759-0.6345215,1.4173584-1.4172974,1.4173584s-1.4173584-0.6345825-1.4173584-1.4173584
		c0-0.7827148,0.6345825-1.4172974,1.4173584-1.4172974S111.822937,64.670166,111.822937,65.4528809z M108.7387695,65.4528809
		c0,0.7827759-0.6345825,1.4173584-1.4172974,1.4173584c-0.7827759,0-1.4173584-0.6345825-1.4173584-1.4173584
		c0-0.7827148,0.6345825-1.4172974,1.4173584-1.4172974C108.104187,64.0355835,108.7387695,64.670166,108.7387695,65.4528809z
		 M105.6546021,65.4528809c0,0.7827759-0.6345825,1.4173584-1.4172974,1.4173584
		c-0.7827759,0-1.4173584-0.6345825-1.4173584-1.4173584c0-0.7827148,0.6345825-1.4172974,1.4173584-1.4172974
		C105.0200195,64.0355835,105.6546021,64.670166,105.6546021,65.4528809z M111.822937,62.3643188
		c0,0.7827759-0.6345215,1.4172974-1.4172974,1.4172974s-1.4173584-0.6345215-1.4173584-1.4172974
		s0.6345825-1.4172974,1.4173584-1.4172974S111.822937,61.581543,111.822937,62.3643188z M108.7387695,62.3643188
		c0,0.7827759-0.6345825,1.4172974-1.4172974,1.4172974c-0.7827759,0-1.4173584-0.6345215-1.4173584-1.4172974
		s0.6345825-1.4172974,1.4173584-1.4172974C108.104187,60.9470215,108.7387695,61.581543,108.7387695,62.3643188z
		 M105.6546021,62.3643188c0,0.7827759-0.6345825,1.4172974-1.4172974,1.4172974
		c-0.7827759,0-1.4173584-0.6345215-1.4173584-1.4172974s0.6345825-1.4172974,1.4173584-1.4172974
		C105.0200195,60.9470215,105.6546021,61.581543,105.6546021,62.3643188z M31.4328613,63.7805786
		c0,2.4279175-1.9668579,4.3947754-4.3927002,4.3947754c-2.4259033,0-4.3947144-1.9668579-4.3947144-4.3947754
		c0-2.4258423,1.968811-4.3926392,4.3947144-4.3926392C29.4660034,59.3879395,31.4328613,61.3547363,31.4328613,63.7805786z
		 M31.4328613,8.5039063c0,2.4264526-1.9668579,4.3936768-4.3947754,4.3936768
		c-2.4258423,0-4.3926392-1.9672241-4.3926392-4.3936768s1.9667969-4.3936768,4.3926392-4.3936768
		C29.4660034,4.1102295,31.4328613,6.0774536,31.4328613,8.5039063z"/>
	<g>
		<path class="st1" d="M0.09375,22.042387v-0.4271221c0.2769843-0.2769833,0.4322783-0.4322777,0.7092626-0.7092609h16.2986107
			v1.8456459H0.8030126C0.5260283,22.4746666,0.3707343,22.3193722,0.09375,22.042387z"/>
	</g>
	<g>
		<path class="st1" d="M0.09375,29.2423878v-0.4271221c0.2769843-0.2769833,0.4322783-0.4322777,0.7092626-0.7092628h16.2986107
			v1.8456478H0.8030126C0.5260283,29.6746655,0.3707343,29.5193729,0.09375,29.2423878z"/>
	</g>
	<g>
		<path class="st1" d="M0.09375,36.4423866v-0.4271202c0.2769843-0.2769852,0.4322783-0.4322777,0.7092626-0.7092628h16.2986107
			v1.8456459H0.8030126C0.5260283,36.8746643,0.3707343,36.7193718,0.09375,36.4423866z"/>
	</g>
	<g>
		<path class="st1" d="M0.09375,43.6423874v-0.4271202c0.2769843-0.2769852,0.4322783-0.4322815,0.7092626-0.7092628h16.2986107
			v1.8456459H0.8030126C0.5260283,44.0746651,0.3707343,43.9193726,0.09375,43.6423874z"/>
	</g>
	<g>
		<path class="st1" d="M0.09375,50.8707352v-0.427124c0.2769843-0.2769814,0.4322783-0.4322777,0.7092626-0.7092628h16.2986107
			v1.8456497H0.8030126C0.5260283,51.3030128,0.3707343,51.1477203,0.09375,50.8707352z"/>
	</g>
	<path class="st2" d="M32.9989624,63.779541c0-3.300293-2.6751709-5.9754028-5.9754639-5.9754028
		c-3.3002319,0-5.9754028,2.6751099-5.9754028,5.9754028s2.6751709,5.9754639,5.9754028,5.9754639
		C30.3237915,69.7550049,32.9989624,67.079834,32.9989624,63.779541z M22.6298218,63.7805786
		c0-2.4279175,1.9667969-4.3947144,4.3927002-4.3947144c2.4279175,0,4.3947144,1.9667969,4.3947144,4.3947144
		c0,2.4258423-1.9667969,4.3927002-4.3947144,4.3927002C24.5966187,68.1732788,22.6298218,66.2064209,22.6298218,63.7805786z"/>
	<path class="st2" d="M111.9646606,62.3639565c0-0.861084-0.6979752-1.5590477-1.5590591-1.5590477
		c-0.8610687,0-1.5590439,0.6979637-1.5590439,1.5590477c0,0.8610802,0.6979752,1.559063,1.5590439,1.559063
		C111.2666855,63.9230194,111.9646606,63.2250366,111.9646606,62.3639565z M108.9882889,62.3642883
		c0-0.7831993,0.6344452-1.4176483,1.4169922-1.4176483c0.7832031,0,1.4176483,0.634449,1.4176483,1.4176483
		c0,0.7825279-0.6344452,1.4169998-1.4176483,1.4169998C109.6227341,63.7812881,108.9882889,63.1468163,108.9882889,62.3642883z"/>
	<path class="st2" d="M108.8804932,62.3639565c0-0.861084-0.6979752-1.5590477-1.5590591-1.5590477
		c-0.8610687,0-1.5590439,0.6979637-1.5590439,1.5590477c0,0.8610802,0.6979752,1.559063,1.5590439,1.559063
		C108.182518,63.9230194,108.8804932,63.2250366,108.8804932,62.3639565z M105.9041214,62.3642883
		c0-0.7831993,0.6344452-1.4176483,1.4169922-1.4176483c0.7832031,0,1.4176483,0.634449,1.4176483,1.4176483
		c0,0.7825279-0.6344452,1.4169998-1.4176483,1.4169998C106.5385666,63.7812881,105.9041214,63.1468163,105.9041214,62.3642883z"/>
	<path class="st2" d="M105.7963257,65.4525452c0-0.8610764-0.6979752-1.5590439-1.5590591-1.5590439
		c-0.8610687,0-1.5590439,0.6979675-1.5590439,1.5590439c0,0.861084,0.6979752,1.5590668,1.5590439,1.5590668
		C105.0983505,67.0116119,105.7963257,66.3136292,105.7963257,65.4525452z M102.8199539,65.4528809
		c0-0.7831955,0.6344452-1.4176483,1.4169922-1.4176483c0.7832031,0,1.4176483,0.6344528,1.4176483,1.4176483
		c0,0.7825317-0.6344452,1.4169998-1.4176483,1.4169998C103.4543991,66.8698807,102.8199539,66.2354126,102.8199539,65.4528809z"/>
	<path class="st2" d="M105.7963257,62.3639565c0-0.861084-0.6979752-1.5590477-1.5590591-1.5590477
		c-0.8610687,0-1.5590439,0.6979637-1.5590439,1.5590477c0,0.8610802,0.6979752,1.559063,1.5590439,1.559063
		C105.0983505,63.9230194,105.7963257,63.2250366,105.7963257,62.3639565z M102.8199539,62.3642883
		c0-0.7831993,0.6344452-1.4176483,1.4169922-1.4176483c0.7832031,0,1.4176483,0.634449,1.4176483,1.4176483
		c0,0.7825279-0.6344452,1.4169998-1.4176483,1.4169998C103.4543991,63.7812881,102.8199539,63.1468163,102.8199539,62.3642883z"/>
	<path class="st2" d="M108.8804932,65.4525452c0-0.8610764-0.6979752-1.5590439-1.5590591-1.5590439
		c-0.8610687,0-1.5590439,0.6979675-1.5590439,1.5590439c0,0.861084,0.6979752,1.5590668,1.5590439,1.5590668
		C108.182518,67.0116119,108.8804932,66.3136292,108.8804932,65.4525452z M105.9041214,65.4528809
		c0-0.7831955,0.6344452-1.4176483,1.4169922-1.4176483c0.7832031,0,1.4176483,0.6344528,1.4176483,1.4176483
		c0,0.7825317-0.6344452,1.4169998-1.4176483,1.4169998C106.5385666,66.8698807,105.9041214,66.2354126,105.9041214,65.4528809z"/>
	<path class="st2" d="M111.9646606,65.4525452c0-0.8610764-0.6979752-1.5590439-1.5590591-1.5590439
		c-0.8610687,0-1.5590439,0.6979675-1.5590439,1.5590439c0,0.861084,0.6979752,1.5590668,1.5590439,1.5590668
		C111.2666855,67.0116119,111.9646606,66.3136292,111.9646606,65.4525452z M108.9882889,65.4528809
		c0-0.7831955,0.6344452-1.4176483,1.4169922-1.4176483c0.7832031,0,1.4176483,0.6344528,1.4176483,1.4176483
		c0,0.7825317-0.6344452,1.4169998-1.4176483,1.4169998C109.6227341,66.8698807,108.9882889,66.2354126,108.9882889,65.4528809z"/>
	<path class="st2" d="M32.9989624,8.5028687c0-3.2877808-2.6751709-5.9527588-5.9754639-5.9527588
		c-3.3002319,0-5.9754028,2.664978-5.9754028,5.9527588c0,3.2877197,2.6751709,5.9527588,5.9754028,5.9527588
		C30.3237915,14.4556274,32.9989624,11.7905884,32.9989624,8.5028687z M22.6298218,8.5039063
		c0-2.4279175,1.9667969-4.3947144,4.3927002-4.3947144c2.4279175,0,4.3947144,1.9667969,4.3947144,4.3947144
		c0,2.4258423-1.9667969,4.3926392-4.3947144,4.3926392C24.5966187,12.8965454,22.6298218,10.9297485,22.6298218,8.5039063z"/>
</g>
<g id="Режим_изоляции">
	<g>
		<path class="st3" d="M21.1132813,51.7158203L24.3037109,50.4375l-3.1904297-1.2783203v-0.6689453h3.9101563v0.515625h-1.5224609
			l-1.6435547-0.0478516l3.1660156,1.2841797v0.3945313l-3.1582031,1.28125l1.6357422-0.0517578h1.5224609v0.515625h-3.9101563
			V51.7158203z"/>
		<path class="st3" d="M25.0234375,45.8642578c-0.0571289,0.0283203-0.1591797,0.0517578-0.3061523,0.0693359
			c0.2397461,0.2314453,0.3598633,0.5078125,0.3598633,0.828125c0,0.2861328-0.0810547,0.5214844-0.2431641,0.7050781
			s-0.3671875,0.2744141-0.6162109,0.2744141c-0.3027344,0-0.5375977-0.1142578-0.7050781-0.3447266
			s-0.2509766-0.5537109-0.2509766-0.9707031v-0.4833984h-0.2285156c-0.1733398,0-0.3115234,0.0517578-0.4145508,0.1552734
			s-0.1547852,0.2578125-0.1547852,0.4589844c0,0.1777344,0.0449219,0.3261719,0.1347656,0.4462891
			c0.0893555,0.1201172,0.1977539,0.1796875,0.324707,0.1796875v0.5c-0.1450195,0-0.2851563-0.0517578-0.4204102-0.1552734
			c-0.1352539-0.1025391-0.2421875-0.2421875-0.3208008-0.4179688c-0.0786133-0.1767578-0.1181641-0.3710938-0.1181641-0.5820313
			c0-0.3339844,0.0834961-0.5966797,0.2509766-0.7871094c0.1674805-0.1894531,0.3979492-0.2871094,0.6918945-0.2949219H24.34375
			c0.2670898,0,0.4790039-0.0341797,0.6367188-0.1015625h0.0429688V45.8642578z M24.6445313,46.6884766
			c0-0.1552734-0.0400391-0.3037109-0.1206055-0.4423828c-0.0805664-0.140625-0.1850586-0.2412109-0.3139648-0.3037109h-0.5966797
			v0.3896484c0,0.6083984,0.1782227,0.9121094,0.534668,0.9121094c0.1557617,0,0.2773438-0.0507813,0.3652344-0.1552734
			S24.6445313,46.8515625,24.6445313,46.6884766z"/>
		<path class="st3" d="M22.5205078,42.5507813v0.9746094h2.5029297v0.4960938h-2.5029297v0.9570313h-0.402832v-2.4277344H22.5205078
			z"/>
		<path class="st3" d="M23.6025391,39.6123047c0.4423828,0,0.7988281,0.1005859,1.0693359,0.3037109
			c0.2700195,0.2021484,0.4052734,0.4765625,0.4052734,0.8222656c0,0.3515625-0.1118164,0.6289063-0.3359375,0.8320313h1.3994141
			v0.4960938h-4.0229492v-0.453125l0.3222656-0.0244141c-0.2504883-0.2021484-0.3759766-0.4833984-0.3759766-0.8427734
			c0-0.3496094,0.1313477-0.6259766,0.3950195-0.8291016c0.2626953-0.203125,0.6289063-0.3046875,1.0981445-0.3046875H23.6025391z
			 M23.5463867,40.109375c-0.3276367,0-0.5864258,0.0703125-0.7758789,0.2089844
			c-0.1899414,0.140625-0.2851563,0.3320313-0.2851563,0.5742188c0,0.3007813,0.1337891,0.5273438,0.4003906,0.6777344h1.3886719
			c0.2646484-0.1484375,0.3974609-0.3769531,0.3974609-0.6816406c0-0.2382813-0.0947266-0.4277344-0.2836914-0.5683594
			S23.9189453,40.109375,23.5463867,40.109375z"/>
		<path class="st3" d="M22.1176758,37.1015625v-0.4970703h2.9057617v0.4970703h-2.1191406l2.1191406,1.3398438v0.4970703h-2.9057617
			v-0.4970703h2.121582L22.1176758,37.1015625z"/>
		<path class="st3" d="M22.1176758,35.7636719v-0.4995117h2.5004883v-1.3374023h-2.5004883v-0.4970703h2.5004883v-0.3461914
			l1.2675781,0.0483398v0.4458008h-0.8623047v2.1860352H22.1176758z"/>
		<path class="st3" d="M25.0234375,30.7553711c-0.0571289,0.0288086-0.1591797,0.0517578-0.3061523,0.0698242
			c0.2397461,0.230957,0.3598633,0.5068359,0.3598633,0.8271484c0,0.2866211-0.0810547,0.5214844-0.2431641,0.7050781
			s-0.3671875,0.2749023-0.6162109,0.2749023c-0.3027344,0-0.5375977-0.1147461-0.7050781-0.3447266
			s-0.2509766-0.5537109-0.2509766-0.9707031v-0.4833984h-0.2285156c-0.1733398,0-0.3115234,0.0517578-0.4145508,0.1552734
			c-0.1030273,0.1040039-0.1547852,0.2573242-0.1547852,0.4594727c0,0.1772461,0.0449219,0.3256836,0.1347656,0.4458008
			c0.0893555,0.1201172,0.1977539,0.1796875,0.324707,0.1796875v0.5c-0.1450195,0-0.2851563-0.0517578-0.4204102-0.1547852
			S22.2607422,32.1762695,22.1821289,32s-0.1181641-0.3701172-0.1181641-0.581543
			c0-0.3344727,0.0834961-0.5966797,0.2509766-0.7866211s0.3979492-0.2880859,0.6918945-0.2954102H24.34375
			c0.2670898,0,0.4790039-0.0341797,0.6367188-0.1020508h0.0429688V30.7553711z M24.6445313,31.5795898
			c0-0.1552734-0.0400391-0.3032227-0.1206055-0.4428711s-0.1850586-0.2407227-0.3139648-0.3032227h-0.5966797v0.3891602
			c0,0.6088867,0.1782227,0.9130859,0.534668,0.9130859c0.1557617,0,0.2773438-0.0517578,0.3652344-0.1557617
			S24.6445313,31.7426758,24.6445313,31.5795898z"/>
		<path class="st3" d="M22.1337891,25.8759766c0.1953125,0,0.3686523,0.0512695,0.5209961,0.1542969
			s0.2709961,0.2421875,0.3569336,0.4179688c0.0878906-0.2041016,0.2158203-0.3657227,0.3842773-0.4848633
			s0.3588867-0.1787109,0.5717773-0.1787109c0.3388672,0,0.6079102,0.1142578,0.8085938,0.3422852
			c0.2006836,0.2285156,0.3007813,0.5288086,0.3007813,0.9013672c0,0.3759766-0.1005859,0.6767578-0.3022461,0.9033203
			c-0.2011719,0.2265625-0.4702148,0.3398438-0.8071289,0.3398438c-0.2109375,0-0.4018555-0.0576172-0.5717773-0.1733398
			c-0.1699219-0.1152344-0.2988281-0.2749023-0.3867188-0.4790039c-0.0859375,0.1733398-0.2050781,0.3105469-0.3569336,0.4106445
			C22.5,28.1298828,22.3271484,28.1801758,22.1337891,28.1801758c-0.3295898,0-0.5908203-0.1054688-0.7841797-0.3168945
			s-0.2900391-0.4897461-0.2900391-0.8349609c0-0.34375,0.0966797-0.6220703,0.2900391-0.8339844
			C21.5429688,25.9819336,21.8041992,25.8759766,22.1337891,25.8759766z M21.4677734,27.0283203
			c0,0.1948242,0.0605469,0.3530273,0.1811523,0.4736328c0.1210938,0.1210938,0.2851563,0.1816406,0.4926758,0.1816406
			c0.1992188,0,0.3598633-0.0595703,0.4824219-0.1787109s0.1835938-0.2783203,0.1835938-0.4765625
			c0-0.1992188-0.0610352-0.3579102-0.1835938-0.4770508s-0.2832031-0.1782227-0.4824219-0.1782227
			c-0.1982422,0-0.3603516,0.0615234-0.4858398,0.1850586S21.4677734,26.8383789,21.4677734,27.0283203z M23.9570313,26.28125
			c-0.2182617,0-0.3964844,0.0698242-0.5341797,0.2084961s-0.2070313,0.3198242-0.2070313,0.543457
			c0,0.2241211,0.0683594,0.4033203,0.2041016,0.5385742c0.1362305,0.1352539,0.3154297,0.2026367,0.5371094,0.2026367
			c0.222168,0,0.3969727-0.0654297,0.5239258-0.1972656c0.1269531-0.1313477,0.190918-0.3144531,0.190918-0.5488281
			c0-0.2329102-0.0644531-0.4155273-0.1923828-0.5478516C24.3515625,26.3476563,24.1777344,26.28125,23.9570313,26.28125z"/>
		<path class="st3" d="M23.1787109,24.1328125l-1.0610352-0.6445313v-0.5800781l1.4370117,0.9501953l1.46875-0.9804688v0.5751953
			l-1.0878906,0.6708984l1.0878906,0.671875v0.5771484l-1.46875-0.9794922L22.1176758,25.34375v-0.5751953L23.1787109,24.1328125z"
			/>
		<path class="st3" d="M22.1337891,20.0615234c0.1953125,0,0.3686523,0.0517578,0.5209961,0.1542969
			c0.1523438,0.1035156,0.2709961,0.2421875,0.3569336,0.4179688c0.0878906-0.2041016,0.2158203-0.3662109,0.3842773-0.4853516
			s0.3588867-0.1777344,0.5717773-0.1777344c0.3388672,0,0.6079102,0.1132813,0.8085938,0.3417969
			s0.3007813,0.5283203,0.3007813,0.9013672c0,0.3759766-0.1005859,0.6767578-0.3022461,0.9033203
			c-0.2011719,0.2265625-0.4702148,0.3398438-0.8071289,0.3398438c-0.2109375,0-0.4018555-0.0576172-0.5717773-0.1728516
			c-0.1699219-0.1162109-0.2988281-0.2753906-0.3867188-0.4794922c-0.0859375,0.1738281-0.2050781,0.3105469-0.3569336,0.4101563
			C22.5,22.3154297,22.3271484,22.3652344,22.1337891,22.3652344c-0.3295898,0-0.5908203-0.1054688-0.7841797-0.3164063
			s-0.2900391-0.4892578-0.2900391-0.8349609c0-0.34375,0.0966797-0.6220703,0.2900391-0.8339844
			S21.8041992,20.0615234,22.1337891,20.0615234z M21.4677734,21.2138672c0,0.1953125,0.0605469,0.3525391,0.1811523,0.4736328
			c0.1210938,0.1210938,0.2851563,0.1816406,0.4926758,0.1816406c0.1992188,0,0.3598633-0.0595703,0.4824219-0.1787109
			s0.1835938-0.2783203,0.1835938-0.4765625c0-0.1992188-0.0610352-0.3574219-0.1835938-0.4765625
			s-0.2832031-0.1787109-0.4824219-0.1787109c-0.1982422,0-0.3603516,0.0615234-0.4858398,0.1855469
			C21.5302734,20.8671875,21.4677734,21.0234375,21.4677734,21.2138672z M23.9570313,20.4667969
			c-0.2182617,0-0.3964844,0.0693359-0.5341797,0.2080078s-0.2070313,0.3203125-0.2070313,0.5439453
			s0.0683594,0.4033203,0.2041016,0.5390625c0.1362305,0.1347656,0.3154297,0.2021484,0.5371094,0.2021484
			c0.222168,0,0.3969727-0.0654297,0.5239258-0.1972656s0.190918-0.3144531,0.190918-0.5488281
			c0-0.2333984-0.0644531-0.4160156-0.1923828-0.5478516C24.3515625,20.5332031,24.1777344,20.4667969,23.9570313,20.4667969z"/>
	</g>
	<g>
		<g id="XMLID_6_">
			<g>
				<rect x="104.1927719" y="4.9038467" class="st4" width="3.662437" height="8.5589418"/>
			</g>
			<g>
			</g>
		</g>
		<g id="XMLID_18_">
			<g>
				<rect x="107.9588242" y="8.2517452" class="st2" width="2.9478152" height="1.6072793"/>
			</g>
			<g>
			</g>
		</g>
		<g id="XMLID_16_">
			<g>
				<rect x="100.6786194" y="10.9852009" class="st2" width="3.5123663" height="1.6811564"/>
			</g>
			<g>
			</g>
		</g>
		<g id="XMLID_17_">
			<g>
				<rect x="100.6786194" y="5.4966664" class="st2" width="3.5123663" height="1.6811564"/>
			</g>
			<g>
			</g>
		</g>
		<g>
		</g>
	</g>
	<g>
		<g id="XMLID_50_">
			<g>
				<rect x="104.3035202" y="31.9743404" class="st4" width="3.662437" height="8.5589418"/>
			</g>
			<g>
			</g>
		</g>
		<g id="XMLID_49_">
			<g>
				<rect x="107.9659576" y="35.3222389" class="st2" width="3.0514352" height="1.6072793"/>
			</g>
			<g>
			</g>
		</g>
		<g id="XMLID_52_">
			<g>
				<rect x="107.9659576" y="38.0926323" class="st2" width="3.0514352" height="1.6072793"/>
			</g>
			<g>
			</g>
		</g>
		<g id="XMLID_51_">
			<g>
				<rect x="107.9659576" y="32.6040955" class="st2" width="3.0514352" height="1.6072793"/>
			</g>
			<g>
			</g>
		</g>
		<g id="XMLID_48_">
			<g>
				<rect x="100.7893677" y="38.0556946" class="st2" width="3.5123663" height="1.6811564"/>
			</g>
			<g>
			</g>
		</g>
		<g id="XMLID_47_">
			<g>
				<rect x="100.7893677" y="32.5671577" class="st2" width="3.5123663" height="1.6811564"/>
			</g>
			<g>
			</g>
		</g>
	</g>
	<g id="ГРУППА_3_">
		<g>
			<polygon class="st5" points="107.6074677,44.5321541 111.0451279,44.5321541 111.0451279,48.787632 107.6074677,48.787632 
				107.6074677,48.4778519 108.3119965,48.4778519 108.3119965,44.8720284 107.6074677,44.8720284 			"/>
			<polygon class="st5" points="100.4790115,44.5728683 103.9166718,44.5728683 103.9166718,44.8720284 103.1501923,44.8720284 
				103.1501923,48.4778519 103.9166718,48.4778519 103.9166718,48.8283463 100.4790115,48.8283463 			"/>
			<rect x="107.6074677" y="44.8720284" class="st6" width="0.7045258" height="3.6058266"/>
			<rect x="103.9166718" y="44.8720284" class="st6" width="3.6907945" height="3.6058266"/>
			<rect x="103.1501923" y="44.8720284" class="st6" width="0.7664815" height="3.6058266"/>
		</g>
		<g>
		</g>
	</g>
	<g id="ГРУППА_6_">
		<g>
			<polygon class="st5" points="107.6074677,17.4616623 111.0451279,17.4616623 111.0451279,21.7171402 107.6074677,21.7171402 
				107.6074677,21.4073601 108.3119965,21.4073601 108.3119965,17.8015347 107.6074677,17.8015347 			"/>
			<polygon class="st5" points="100.4790115,17.5023766 103.9166718,17.5023766 103.9166718,17.8015347 103.1501923,17.8015347 
				103.1501923,21.4073601 103.9166718,21.4073601 103.9166718,21.7578526 100.4790115,21.7578526 			"/>
			<rect x="107.6074677" y="17.8015347" class="st6" width="0.7045258" height="3.6058266"/>
			<rect x="103.9166718" y="17.8015347" class="st6" width="3.6907945" height="3.6058266"/>
			<rect x="103.1501923" y="17.8015347" class="st6" width="0.7664815" height="3.6058266"/>
		</g>
		<g>
		</g>
	</g>
	<g>
		<g id="XMLID_43_">
			<g>
				<rect x="35.4852638" y="34.1456985" class="st5" width="3.4358907" height="4.255477"/>
			</g>
			<g>
			</g>
		</g>
		<g id="XMLID_42_">
			<g>
				<rect x="42.6137161" y="34.1049881" class="st5" width="3.4376609" height="4.255477"/>
			</g>
			<g>
			</g>
		</g>
		<g id="XMLID_41_">
			<g>
				<rect x="38.2167206" y="34.4554787" class="st4" width="5.1633434" height="3.6058266"/>
			</g>
			<g>
			</g>
		</g>
		<g>
			<path class="st7" d="M40.2246094,36.394043c0,0.0595703-0.0107422,0.1171875-0.0327148,0.171875
				s-0.0517578,0.1010742-0.0898438,0.1381836c-0.0415039,0.0405273-0.0908203,0.0712891-0.1484375,0.0927734
				c-0.0571289,0.0219727-0.1235352,0.0327148-0.1992188,0.0327148c-0.0703125,0-0.1381836-0.0073242-0.203125-0.0219727
				s-0.1201172-0.0327148-0.1650391-0.0532227v-0.1826172h0.012207c0.0473633,0.0302734,0.1025391,0.0556641,0.1660156,0.0766602
				c0.0629883,0.0209961,0.1254883,0.0317383,0.1865234,0.0317383c0.0410156,0,0.0805664-0.0058594,0.1186523-0.0175781
				c0.0385742-0.0112305,0.0727539-0.0317383,0.1025391-0.0605469c0.0253906-0.0244141,0.0444336-0.0541992,0.0576172-0.0888672
				c0.0126953-0.034668,0.0195313-0.074707,0.0195313-0.1201172c0-0.0444336-0.0078125-0.0820313-0.0229492-0.1123047
				c-0.0151367-0.0307617-0.0366211-0.0551758-0.0634766-0.0737305c-0.0302734-0.0214844-0.0664063-0.0371094-0.109375-0.0458984
				c-0.0429688-0.0092773-0.0908203-0.0136719-0.144043-0.0136719c-0.0507813,0-0.0996094,0.003418-0.1464844,0.0102539
				c-0.046875,0.0073242-0.0874023,0.0141602-0.121582,0.0209961V35.515625h0.7744141v0.1513672h-0.6074219v0.3422852
				c0.0249023-0.0024414,0.050293-0.0039063,0.0761719-0.0053711c0.0258789-0.0009766,0.0483398-0.0014648,0.0673828-0.0014648
				c0.0698242,0,0.1308594,0.0058594,0.1831055,0.0175781s0.1005859,0.0327148,0.1445313,0.0625
				c0.0458984,0.0317383,0.081543,0.0727539,0.1069336,0.1230469C40.2119141,36.2553711,40.2246094,36.3183594,40.2246094,36.394043
				z"/>
			<path class="st7" d="M41.1816406,36.1586914c0,0.230957-0.0361328,0.4008789-0.1083984,0.5087891
				s-0.1845703,0.1621094-0.3369141,0.1621094c-0.1542969,0-0.2670898-0.0546875-0.3383789-0.1640625
				c-0.0712891-0.1098633-0.1064453-0.277832-0.1064453-0.5048828c0-0.2290039,0.0356445-0.3979492,0.1079102-0.5068359
				c0.0717773-0.109375,0.184082-0.1640625,0.3369141-0.1640625c0.1542969,0,0.2670898,0.0556641,0.3383789,0.1665039
				S41.1816406,35.9345703,41.1816406,36.1586914z M40.9541016,36.5512695
				c0.0205078-0.046875,0.0341797-0.1015625,0.0410156-0.1645508c0.0073242-0.0634766,0.0107422-0.1391602,0.0107422-0.2280273
				c0-0.0874023-0.003418-0.1635742-0.0107422-0.2280273c-0.0068359-0.0644531-0.0209961-0.1191406-0.0419922-0.1640625
				c-0.0200195-0.0444336-0.0473633-0.078125-0.0825195-0.1005859c-0.034668-0.0224609-0.0795898-0.0336914-0.1342773-0.0336914
				c-0.0541992,0-0.0991211,0.0112305-0.1342773,0.0336914c-0.0356445,0.0224609-0.0634766,0.0566406-0.0844727,0.1020508
				c-0.0195313,0.0424805-0.0327148,0.0981445-0.0400391,0.1669922c-0.0073242,0.0683594-0.0107422,0.1435547-0.0107422,0.2255859
				c0,0.0898438,0.0029297,0.1650391,0.0092773,0.2255859s0.0200195,0.1147461,0.0410156,0.1625977
				c0.0185547,0.0449219,0.0458984,0.0791016,0.0805664,0.1025391c0.034668,0.0239258,0.0810547,0.0356445,0.1386719,0.0356445
				c0.0541992,0,0.0991211-0.0112305,0.1347656-0.0336914S40.9345703,36.5966797,40.9541016,36.5512695z"/>
			<path class="st7" d="M42.1298828,36.1586914c0,0.230957-0.0361328,0.4008789-0.1083984,0.5087891
				s-0.1845703,0.1621094-0.3369141,0.1621094c-0.1542969,0-0.2670898-0.0546875-0.3383789-0.1640625
				c-0.0712891-0.1098633-0.1064453-0.277832-0.1064453-0.5048828c0-0.2290039,0.0356445-0.3979492,0.1079102-0.5068359
				c0.0717773-0.109375,0.184082-0.1640625,0.3369141-0.1640625c0.1542969,0,0.2670898,0.0556641,0.3383789,0.1665039
				S42.1298828,35.9345703,42.1298828,36.1586914z M41.9023438,36.5512695
				c0.0205078-0.046875,0.0341797-0.1015625,0.0410156-0.1645508c0.0073242-0.0634766,0.0107422-0.1391602,0.0107422-0.2280273
				c0-0.0874023-0.003418-0.1635742-0.0107422-0.2280273c-0.0068359-0.0644531-0.0209961-0.1191406-0.0419922-0.1640625
				c-0.0200195-0.0444336-0.0473633-0.078125-0.0825195-0.1005859c-0.034668-0.0224609-0.0795898-0.0336914-0.1342773-0.0336914
				c-0.0541992,0-0.0991211,0.0112305-0.1342773,0.0336914c-0.0356445,0.0224609-0.0634766,0.0566406-0.0844727,0.1020508
				c-0.0195313,0.0424805-0.0327148,0.0981445-0.0400391,0.1669922c-0.0073242,0.0683594-0.0107422,0.1435547-0.0107422,0.2255859
				c0,0.0898438,0.0029297,0.1650391,0.0092773,0.2255859s0.0200195,0.1147461,0.0410156,0.1625977
				c0.0185547,0.0449219,0.0458984,0.0791016,0.0805664,0.1025391c0.034668,0.0239258,0.0810547,0.0356445,0.1386719,0.0356445
				c0.0541992,0,0.0991211-0.0112305,0.1347656-0.0336914S41.8828125,36.5966797,41.9023438,36.5512695z"/>
		</g>
	</g>
	<g>
		<g id="XMLID_46_">
			<g>
				<rect x="35.4852638" y="21.6341534" class="st5" width="3.4358907" height="4.255477"/>
			</g>
			<g>
			</g>
		</g>
		<g id="XMLID_45_">
			<g>
				<rect x="42.6137161" y="21.5934391" class="st5" width="3.4376609" height="4.255477"/>
			</g>
			<g>
			</g>
		</g>
		<g id="XMLID_44_">
			<g>
				<rect x="38.2167206" y="21.9439316" class="st4" width="5.1633434" height="3.6058266"/>
			</g>
			<g>
			</g>
		</g>
		<g>
			<path class="st7" d="M40.2246094,23.8823242c0,0.0595703-0.0107422,0.1171875-0.0327148,0.171875
				s-0.0517578,0.1010742-0.0898438,0.1381836c-0.0415039,0.0405273-0.0908203,0.0712891-0.1484375,0.0927734
				c-0.0571289,0.0219727-0.1235352,0.0327148-0.1992188,0.0327148c-0.0703125,0-0.1381836-0.0073242-0.203125-0.0219727
				s-0.1201172-0.0327148-0.1650391-0.0532227v-0.1826172h0.012207c0.0473633,0.0302734,0.1025391,0.0556641,0.1660156,0.0766602
				c0.0629883,0.0209961,0.1254883,0.0317383,0.1865234,0.0317383c0.0410156,0,0.0805664-0.0058594,0.1186523-0.0175781
				c0.0385742-0.0112305,0.0727539-0.0317383,0.1025391-0.0605469c0.0253906-0.0244141,0.0444336-0.0541992,0.0576172-0.0888672
				c0.0126953-0.034668,0.0195313-0.074707,0.0195313-0.1201172c0-0.0444336-0.0078125-0.0820313-0.0229492-0.1123047
				c-0.0151367-0.0307617-0.0366211-0.0551758-0.0634766-0.0737305c-0.0302734-0.0214844-0.0664063-0.0371094-0.109375-0.0458984
				c-0.0429688-0.0092773-0.0908203-0.0136719-0.144043-0.0136719c-0.0507813,0-0.0996094,0.003418-0.1464844,0.0102539
				c-0.046875,0.0073242-0.0874023,0.0141602-0.121582,0.0209961v-0.6630859h0.7744141v0.1513672h-0.6074219v0.3422852
				c0.0249023-0.0024414,0.050293-0.0039063,0.0761719-0.0053711c0.0258789-0.0009766,0.0483398-0.0014648,0.0673828-0.0014648
				c0.0698242,0,0.1308594,0.0058594,0.1831055,0.0175781s0.1005859,0.0327148,0.1445313,0.0625
				c0.0458984,0.0317383,0.081543,0.0727539,0.1069336,0.1230469
				C40.2119141,23.7436523,40.2246094,23.8066406,40.2246094,23.8823242z"/>
			<path class="st7" d="M41.1816406,23.6469727c0,0.230957-0.0361328,0.4008789-0.1083984,0.5087891
				s-0.1845703,0.1621094-0.3369141,0.1621094c-0.1542969,0-0.2670898-0.0546875-0.3383789-0.1640625
				c-0.0712891-0.1098633-0.1064453-0.277832-0.1064453-0.5048828c0-0.2290039,0.0356445-0.3979492,0.1079102-0.5068359
				c0.0717773-0.109375,0.184082-0.1640625,0.3369141-0.1640625c0.1542969,0,0.2670898,0.0556641,0.3383789,0.1665039
				S41.1816406,23.4228516,41.1816406,23.6469727z M40.9541016,24.0395508
				c0.0205078-0.046875,0.0341797-0.1015625,0.0410156-0.1645508c0.0073242-0.0634766,0.0107422-0.1391602,0.0107422-0.2280273
				c0-0.0874023-0.003418-0.1635742-0.0107422-0.2280273c-0.0068359-0.0644531-0.0209961-0.1191406-0.0419922-0.1640625
				c-0.0200195-0.0444336-0.0473633-0.078125-0.0825195-0.1005859c-0.034668-0.0224609-0.0795898-0.0336914-0.1342773-0.0336914
				c-0.0541992,0-0.0991211,0.0112305-0.1342773,0.0336914c-0.0356445,0.0224609-0.0634766,0.0566406-0.0844727,0.1020508
				c-0.0195313,0.0424805-0.0327148,0.0981445-0.0400391,0.1669922c-0.0073242,0.0683594-0.0107422,0.1435547-0.0107422,0.2255859
				c0,0.0898438,0.0029297,0.1650391,0.0092773,0.2255859s0.0200195,0.1147461,0.0410156,0.1625977
				c0.0185547,0.0449219,0.0458984,0.0791016,0.0805664,0.1025391c0.034668,0.0239258,0.0810547,0.0356445,0.1386719,0.0356445
				c0.0541992,0,0.0991211-0.0112305,0.1347656-0.0336914S40.9345703,24.0849609,40.9541016,24.0395508z"/>
			<path class="st7" d="M42.1298828,23.6469727c0,0.230957-0.0361328,0.4008789-0.1083984,0.5087891
				s-0.1845703,0.1621094-0.3369141,0.1621094c-0.1542969,0-0.2670898-0.0546875-0.3383789-0.1640625
				c-0.0712891-0.1098633-0.1064453-0.277832-0.1064453-0.5048828c0-0.2290039,0.0356445-0.3979492,0.1079102-0.5068359
				c0.0717773-0.109375,0.184082-0.1640625,0.3369141-0.1640625c0.1542969,0,0.2670898,0.0556641,0.3383789,0.1665039
				S42.1298828,23.4228516,42.1298828,23.6469727z M41.9023438,24.0395508
				c0.0205078-0.046875,0.0341797-0.1015625,0.0410156-0.1645508c0.0073242-0.0634766,0.0107422-0.1391602,0.0107422-0.2280273
				c0-0.0874023-0.003418-0.1635742-0.0107422-0.2280273c-0.0068359-0.0644531-0.0209961-0.1191406-0.0419922-0.1640625
				c-0.0200195-0.0444336-0.0473633-0.078125-0.0825195-0.1005859c-0.034668-0.0224609-0.0795898-0.0336914-0.1342773-0.0336914
				c-0.0541992,0-0.0991211,0.0112305-0.1342773,0.0336914c-0.0356445,0.0224609-0.0634766,0.0566406-0.0844727,0.1020508
				c-0.0195313,0.0424805-0.0327148,0.0981445-0.0400391,0.1669922c-0.0073242,0.0683594-0.0107422,0.1435547-0.0107422,0.2255859
				c0,0.0898438,0.0029297,0.1650391,0.0092773,0.2255859s0.0200195,0.1147461,0.0410156,0.1625977
				c0.0185547,0.0449219,0.0458984,0.0791016,0.0805664,0.1025391c0.034668,0.0239258,0.0810547,0.0356445,0.1386719,0.0356445
				c0.0541992,0,0.0991211-0.0112305,0.1347656-0.0336914S41.8828125,24.0849609,41.9023438,24.0395508z"/>
		</g>
	</g>
	<g>
		<g id="XMLID_40_">
			<g>
				<rect x="47.3163414" y="5.8398108" class="st5" width="3.4358907" height="4.255477"/>
			</g>
			<g>
			</g>
		</g>
		<g id="XMLID_39_">
			<g>
				<rect x="54.4447975" y="5.7990971" class="st5" width="3.4376609" height="4.255477"/>
			</g>
			<g>
			</g>
		</g>
		<g id="XMLID_38_">
			<g>
				<rect x="50.047802" y="6.1495895" class="st4" width="5.1633434" height="3.6058266"/>
			</g>
			<g>
			</g>
		</g>
		<g>
			<path class="st7" d="M52.0556641,8.0883789c0,0.0595703-0.0107422,0.1171875-0.0327148,0.171875
				s-0.0517578,0.1010742-0.0898438,0.1381836c-0.0415039,0.0405273-0.0908203,0.0712891-0.1484375,0.0927734
				c-0.0571289,0.0219727-0.1235352,0.0327148-0.1992188,0.0327148c-0.0703125,0-0.1381836-0.0073242-0.203125-0.0219727
				s-0.1201172-0.0327148-0.1650391-0.0532227V8.2661133h0.012207c0.0473633,0.0302734,0.1025391,0.0556641,0.1660156,0.0766602
				c0.0629883,0.0209961,0.1254883,0.0317383,0.1865234,0.0317383c0.0410156,0,0.0805664-0.0058594,0.1186523-0.0175781
				c0.0385742-0.0112305,0.0727539-0.0317383,0.1025391-0.0605469c0.0253906-0.0244141,0.0444336-0.0541992,0.0576172-0.0888672
				c0.0126953-0.034668,0.0195313-0.074707,0.0195313-0.1201172c0-0.0444336-0.0078125-0.0820313-0.0229492-0.1123047
				c-0.0151367-0.0307617-0.0366211-0.0551758-0.0634766-0.0737305c-0.0302734-0.0214844-0.0664063-0.0371094-0.109375-0.0458984
				c-0.0429688-0.0092773-0.0908203-0.0136719-0.144043-0.0136719c-0.0507813,0-0.0996094,0.003418-0.1464844,0.0102539
				c-0.046875,0.0073242-0.0874023,0.0141602-0.121582,0.0209961V7.2099609h0.7744141v0.1513672h-0.6074219v0.3422852
				c0.0249023-0.0024414,0.050293-0.0039063,0.0761719-0.0053711c0.0258789-0.0009766,0.0483398-0.0014648,0.0673828-0.0014648
				c0.0698242,0,0.1308594,0.0058594,0.1831055,0.0175781s0.1005859,0.0327148,0.1445313,0.0625
				c0.0458984,0.0317383,0.081543,0.0727539,0.1069336,0.1230469C52.0429688,7.949707,52.0556641,8.0126953,52.0556641,8.0883789z"
				/>
			<path class="st7" d="M53.0126953,7.8530273c0,0.230957-0.0361328,0.4008789-0.1083984,0.5087891
				s-0.1845703,0.1621094-0.3369141,0.1621094c-0.1542969,0-0.2670898-0.0546875-0.3383789-0.1640625
				C52.1577148,8.25,52.1225586,8.0820313,52.1225586,7.8549805c0-0.2290039,0.0356445-0.3979492,0.1079102-0.5068359
				c0.0717773-0.109375,0.184082-0.1640625,0.3369141-0.1640625c0.1542969,0,0.2670898,0.0556641,0.3383789,0.1665039
				S53.0126953,7.6289063,53.0126953,7.8530273z M52.7851563,8.2456055c0.0205078-0.046875,0.0341797-0.1015625,0.0410156-0.1645508
				c0.0073242-0.0634766,0.0107422-0.1391602,0.0107422-0.2280273c0-0.0874023-0.003418-0.1635742-0.0107422-0.2280273
				c-0.0068359-0.0644531-0.0209961-0.1191406-0.0419922-0.1640625c-0.0200195-0.0444336-0.0473633-0.078125-0.0825195-0.1005859
				c-0.034668-0.0224609-0.0795898-0.0336914-0.1342773-0.0336914c-0.0541992,0-0.0991211,0.0112305-0.1342773,0.0336914
				c-0.0356445,0.0224609-0.0634766,0.0566406-0.0844727,0.1020508c-0.0195313,0.0424805-0.0327148,0.0981445-0.0400391,0.1669922
				c-0.0073242,0.0683594-0.0107422,0.1435547-0.0107422,0.2255859c0,0.0898438,0.0029297,0.1650391,0.0092773,0.2255859
				s0.0200195,0.1147461,0.0410156,0.1625977c0.0185547,0.0449219,0.0458984,0.0791016,0.0805664,0.1025391
				c0.034668,0.0239258,0.0810547,0.0356445,0.1386719,0.0356445c0.0541992,0,0.0991211-0.0112305,0.1347656-0.0336914
				S52.765625,8.2910156,52.7851563,8.2456055z"/>
			<path class="st7" d="M53.9609375,7.8530273c0,0.230957-0.0361328,0.4008789-0.1083984,0.5087891
				s-0.1845703,0.1621094-0.3369141,0.1621094c-0.1542969,0-0.2670898-0.0546875-0.3383789-0.1640625
				C53.105957,8.25,53.0708008,8.0820313,53.0708008,7.8549805c0-0.2290039,0.0356445-0.3979492,0.1079102-0.5068359
				c0.0717773-0.109375,0.184082-0.1640625,0.3369141-0.1640625c0.1542969,0,0.2670898,0.0556641,0.3383789,0.1665039
				S53.9609375,7.6289063,53.9609375,7.8530273z M53.7333984,8.2456055c0.0205078-0.046875,0.0341797-0.1015625,0.0410156-0.1645508
				c0.0073242-0.0634766,0.0107422-0.1391602,0.0107422-0.2280273c0-0.0874023-0.003418-0.1635742-0.0107422-0.2280273
				c-0.0068359-0.0644531-0.0209961-0.1191406-0.0419922-0.1640625c-0.0200195-0.0444336-0.0473633-0.078125-0.0825195-0.1005859
				c-0.034668-0.0224609-0.0795898-0.0336914-0.1342773-0.0336914c-0.0541992,0-0.0991211,0.0112305-0.1342773,0.0336914
				c-0.0356445,0.0224609-0.0634766,0.0566406-0.0844727,0.1020508c-0.0195313,0.0424805-0.0327148,0.0981445-0.0400391,0.1669922
				c-0.0073242,0.0683594-0.0107422,0.1435547-0.0107422,0.2255859c0,0.0898438,0.0029297,0.1650391,0.0092773,0.2255859
				s0.0200195,0.1147461,0.0410156,0.1625977c0.0185547,0.0449219,0.0458984,0.0791016,0.0805664,0.1025391
				c0.034668,0.0239258,0.0810547,0.0356445,0.1386719,0.0356445c0.0541992,0,0.0991211-0.0112305,0.1347656-0.0336914
				S53.7138672,8.2910156,53.7333984,8.2456055z"/>
		</g>
	</g>
	<g>
		<g id="XMLID_37_">
			<g>
				<rect x="62.882019" y="5.799243" class="st5" width="3.4358907" height="4.255477"/>
			</g>
			<g>
			</g>
		</g>
		<g id="XMLID_36_">
			<g>
				<rect x="70.0104752" y="5.7585292" class="st5" width="3.4376609" height="4.255477"/>
			</g>
			<g>
			</g>
		</g>
		<g id="XMLID_32_">
			<g>
				<rect x="65.6134796" y="6.1090217" class="st4" width="5.1633434" height="3.6058266"/>
			</g>
			<g>
			</g>
		</g>
		<g>
			<path class="st7" d="M67.6220703,8.0463867c0,0.0595703-0.0107422,0.1171875-0.0322266,0.171875
				C67.5673828,8.2729492,67.5371094,8.3193359,67.5,8.3564453c-0.0419922,0.0405273-0.0917969,0.0712891-0.1484375,0.0927734
				c-0.0576172,0.0219727-0.1240234,0.0327148-0.1992188,0.0327148c-0.0703125,0-0.1386719-0.0073242-0.203125-0.0219727
				c-0.0654297-0.0146484-0.1210938-0.0327148-0.1660156-0.0532227V8.2241211h0.0126953
				c0.0478516,0.0302734,0.1025391,0.0556641,0.1660156,0.0766602s0.1259766,0.0317383,0.1865234,0.0317383
				c0.0410156,0,0.0800781-0.0058594,0.1191406-0.0175781c0.0380859-0.0112305,0.0722656-0.0317383,0.1015625-0.0605469
				c0.0253906-0.0244141,0.0449219-0.0541992,0.0585938-0.0888672c0.0117188-0.034668,0.0195313-0.074707,0.0195313-0.1201172
				c0-0.0444336-0.0078125-0.0820313-0.0234375-0.1123047c-0.015625-0.0307617-0.0371094-0.0551758-0.0634766-0.0737305
				c-0.0302734-0.0214844-0.0664063-0.0371094-0.109375-0.0458984c-0.0429688-0.0092773-0.0908203-0.0136719-0.1435547-0.0136719
				c-0.0507813,0-0.0996094,0.003418-0.1464844,0.0102539c-0.046875,0.0073242-0.0878906,0.0141602-0.1220703,0.0209961V7.1679688
				h0.7744141v0.1513672h-0.6074219v0.3422852C67.03125,7.6591797,67.0566406,7.6577148,67.0820313,7.65625
				c0.0253906-0.0009766,0.0488281-0.0014648,0.0673828-0.0014648c0.0693359,0,0.1308594,0.0058594,0.1826172,0.0175781
				c0.0527344,0.0117188,0.1015625,0.0327148,0.1445313,0.0625c0.046875,0.0317383,0.0820313,0.0727539,0.1074219,0.1230469
				C67.609375,7.9077148,67.6220703,7.9707031,67.6220703,8.0463867z"/>
			<path class="st7" d="M68.5791016,7.8110352c0,0.230957-0.0361328,0.4008789-0.1083984,0.5087891
				s-0.1845703,0.1621094-0.3369141,0.1621094c-0.1542969,0-0.2666016-0.0546875-0.3388672-0.1640625
				c-0.0703125-0.1098633-0.1054688-0.277832-0.1054688-0.5048828c0-0.2290039,0.0351563-0.3979492,0.1074219-0.5068359
				c0.0722656-0.109375,0.1835938-0.1640625,0.3369141-0.1640625c0.1542969,0,0.2666016,0.0556641,0.3388672,0.1665039
				C68.5429688,7.4194336,68.5791016,7.5869141,68.5791016,7.8110352z M68.3515625,8.2036133
				c0.0205078-0.046875,0.0341797-0.1015625,0.0410156-0.1645508c0.0078125-0.0634766,0.0107422-0.1391602,0.0107422-0.2280273
				c0-0.0874023-0.0029297-0.1635742-0.0107422-0.2280273c-0.0068359-0.0644531-0.0214844-0.1191406-0.0419922-0.1640625
				c-0.0205078-0.0444336-0.0478516-0.078125-0.0830078-0.1005859c-0.0341797-0.0224609-0.0791016-0.0336914-0.1337891-0.0336914
				c-0.0537109,0-0.0986328,0.0112305-0.1337891,0.0336914C67.9638672,7.3408203,67.9355469,7.375,67.9150391,7.4204102
				C67.8955078,7.4628906,67.8828125,7.5185547,67.875,7.5874023c-0.0078125,0.0683594-0.0107422,0.1435547-0.0107422,0.2255859
				c0,0.0898438,0.0029297,0.1650391,0.0087891,0.2255859c0.0068359,0.0605469,0.0205078,0.1147461,0.0410156,0.1625977
				c0.0195313,0.0449219,0.046875,0.0791016,0.0810547,0.1025391c0.0341797,0.0239258,0.0810547,0.0356445,0.1386719,0.0356445
				c0.0537109,0,0.0986328-0.0112305,0.1347656-0.0336914S68.3320313,8.2490234,68.3515625,8.2036133z"/>
			<path class="st7" d="M69.5273438,7.8110352c0,0.230957-0.0361328,0.4008789-0.1083984,0.5087891
				s-0.1845703,0.1621094-0.3369141,0.1621094c-0.1542969,0-0.2675781-0.0546875-0.3378906-0.1640625
				c-0.0722656-0.1098633-0.1074219-0.277832-0.1074219-0.5048828c0-0.2290039,0.0361328-0.3979492,0.1083984-0.5068359
				c0.0712891-0.109375,0.1845703-0.1640625,0.3369141-0.1640625c0.1542969,0,0.2675781,0.0556641,0.3378906,0.1665039
				C69.4921875,7.4194336,69.5273438,7.5869141,69.5273438,7.8110352z M69.2998047,8.2036133
				c0.0205078-0.046875,0.0341797-0.1015625,0.0410156-0.1645508c0.0068359-0.0634766,0.0107422-0.1391602,0.0107422-0.2280273
				c0-0.0874023-0.0039063-0.1635742-0.0107422-0.2280273s-0.0205078-0.1191406-0.0419922-0.1640625
				c-0.0195313-0.0444336-0.046875-0.078125-0.0820313-0.1005859S69.1367188,7.284668,69.0820313,7.284668
				s-0.0996094,0.0112305-0.1347656,0.0336914s-0.0625,0.0566406-0.0839844,0.1020508
				c-0.0195313,0.0424805-0.0332031,0.0981445-0.0400391,0.1669922C68.8164063,7.6557617,68.8125,7.730957,68.8125,7.8129883
				c0,0.0898438,0.0029297,0.1650391,0.0097656,0.2255859c0.0058594,0.0605469,0.0195313,0.1147461,0.0410156,0.1625977
				c0.0175781,0.0449219,0.0449219,0.0791016,0.0800781,0.1025391c0.0351563,0.0239258,0.0810547,0.0356445,0.1386719,0.0356445
				c0.0546875,0,0.0996094-0.0112305,0.1347656-0.0336914S69.2802734,8.2490234,69.2998047,8.2036133z"/>
		</g>
	</g>
	<g>
		<g id="XMLID_31_">
			<g>
				<rect x="78.4476929" y="5.7586765" class="st5" width="3.4358907" height="4.255477"/>
			</g>
			<g>
			</g>
		</g>
		<g id="XMLID_30_">
			<g>
				<rect x="85.576149" y="5.7179627" class="st5" width="3.4376609" height="4.255477"/>
			</g>
			<g>
			</g>
		</g>
		<g id="XMLID_29_">
			<g>
				<rect x="81.1791534" y="6.0684557" class="st4" width="5.1633434" height="3.6058266"/>
			</g>
			<g>
			</g>
		</g>
		<g>
			<path class="st7" d="M83.1884766,8.0063477c0,0.0595703-0.0107422,0.1171875-0.0322266,0.171875
				c-0.0224609,0.0546875-0.0527344,0.1010742-0.0898438,0.1381836c-0.0419922,0.0405273-0.0917969,0.0712891-0.1484375,0.0927734
				c-0.0576172,0.0219727-0.1240234,0.0327148-0.1992188,0.0327148c-0.0703125,0-0.1386719-0.0073242-0.203125-0.0219727
				c-0.0654297-0.0146484-0.1210938-0.0327148-0.1660156-0.0532227V8.184082h0.0126953
				c0.0478516,0.0302734,0.1025391,0.0556641,0.1660156,0.0766602s0.1259766,0.0317383,0.1865234,0.0317383
				c0.0410156,0,0.0800781-0.0058594,0.1191406-0.0175781c0.0380859-0.0112305,0.0722656-0.0317383,0.1015625-0.0605469
				c0.0253906-0.0244141,0.0449219-0.0541992,0.0585938-0.0888672c0.0117188-0.034668,0.0195313-0.074707,0.0195313-0.1201172
				c0-0.0444336-0.0078125-0.0820313-0.0234375-0.1123047c-0.015625-0.0307617-0.0371094-0.0551758-0.0634766-0.0737305
				c-0.0302734-0.0214844-0.0664063-0.0371094-0.109375-0.0458984c-0.0429688-0.0092773-0.0908203-0.0136719-0.1435547-0.0136719
				c-0.0507813,0-0.0996094,0.003418-0.1464844,0.0102539c-0.046875,0.0073242-0.0878906,0.0141602-0.1220703,0.0209961V7.1279297
				h0.7744141v0.1513672h-0.6074219V7.621582c0.0253906-0.0024414,0.0507813-0.0039063,0.0761719-0.0053711
				c0.0253906-0.0009766,0.0488281-0.0014648,0.0673828-0.0014648c0.0693359,0,0.1308594,0.0058594,0.1826172,0.0175781
				C82.9511719,7.644043,83,7.6650391,83.0429688,7.6948242c0.046875,0.0317383,0.0820313,0.0727539,0.1074219,0.1230469
				C83.1757813,7.8676758,83.1884766,7.9306641,83.1884766,8.0063477z"/>
			<path class="st7" d="M84.1455078,7.7709961c0,0.230957-0.0361328,0.4008789-0.1083984,0.5087891
				s-0.1845703,0.1621094-0.3369141,0.1621094c-0.1542969,0-0.2666016-0.0546875-0.3388672-0.1640625
				C83.2910156,8.1679688,83.2558594,8,83.2558594,7.7729492c0-0.2290039,0.0351563-0.3979492,0.1074219-0.5068359
				c0.0722656-0.109375,0.1835938-0.1640625,0.3369141-0.1640625c0.1542969,0,0.2666016,0.0556641,0.3388672,0.1665039
				C84.109375,7.3793945,84.1455078,7.546875,84.1455078,7.7709961z M83.9179688,8.1635742
				c0.0205078-0.046875,0.0341797-0.1015625,0.0410156-0.1645508c0.0078125-0.0634766,0.0107422-0.1391602,0.0107422-0.2280273
				c0-0.0874023-0.0029297-0.1635742-0.0107422-0.2280273C83.9521484,7.4785156,83.9375,7.4238281,83.9169922,7.3789063
				c-0.0205078-0.0444336-0.0478516-0.078125-0.0830078-0.1005859c-0.0341797-0.0224609-0.0791016-0.0336914-0.1337891-0.0336914
				c-0.0537109,0-0.0986328,0.0112305-0.1337891,0.0336914c-0.0361328,0.0224609-0.0644531,0.0566406-0.0849609,0.1020508
				c-0.0195313,0.0424805-0.0322266,0.0981445-0.0400391,0.1669922c-0.0078125,0.0683594-0.0107422,0.1435547-0.0107422,0.2255859
				c0,0.0898438,0.0029297,0.1650391,0.0087891,0.2255859c0.0068359,0.0605469,0.0205078,0.1147461,0.0410156,0.1625977
				C83.5,8.2060547,83.5273438,8.2402344,83.5615234,8.2636719c0.0341797,0.0239258,0.0810547,0.0356445,0.1386719,0.0356445
				c0.0537109,0,0.0986328-0.0112305,0.1347656-0.0336914S83.8984375,8.2089844,83.9179688,8.1635742z"/>
			<path class="st7" d="M85.09375,7.7709961c0,0.230957-0.0361328,0.4008789-0.1083984,0.5087891
				s-0.1845703,0.1621094-0.3369141,0.1621094c-0.1542969,0-0.2675781-0.0546875-0.3378906-0.1640625
				C84.2382813,8.1679688,84.203125,8,84.203125,7.7729492c0-0.2290039,0.0361328-0.3979492,0.1083984-0.5068359
				c0.0712891-0.109375,0.1845703-0.1640625,0.3369141-0.1640625c0.1542969,0,0.2675781,0.0556641,0.3378906,0.1665039
				C85.0585938,7.3793945,85.09375,7.546875,85.09375,7.7709961z M84.8662109,8.1635742
				c0.0205078-0.046875,0.0341797-0.1015625,0.0410156-0.1645508c0.0068359-0.0634766,0.0107422-0.1391602,0.0107422-0.2280273
				c0-0.0874023-0.0039063-0.1635742-0.0107422-0.2280273s-0.0205078-0.1191406-0.0419922-0.1640625
				c-0.0195313-0.0444336-0.046875-0.078125-0.0820313-0.1005859s-0.0800781-0.0336914-0.1347656-0.0336914
				s-0.0996094,0.0112305-0.1347656,0.0336914s-0.0625,0.0566406-0.0839844,0.1020508
				c-0.0195313,0.0424805-0.0332031,0.0981445-0.0400391,0.1669922c-0.0068359,0.0683594-0.0107422,0.1435547-0.0107422,0.2255859
				c0,0.0898438,0.0029297,0.1650391,0.0097656,0.2255859c0.0058594,0.0605469,0.0195313,0.1147461,0.0410156,0.1625977
				c0.0175781,0.0449219,0.0449219,0.0791016,0.0800781,0.1025391c0.0351563,0.0239258,0.0810547,0.0356445,0.1386719,0.0356445
				c0.0546875,0,0.0996094-0.0112305,0.1347656-0.0336914S84.8466797,8.2089844,84.8662109,8.1635742z"/>
		</g>
	</g>
	<g>
		<g id="XMLID_22_">
			<g>
				<rect x="85.576622" y="62.4111671" class="st5" width="3.4358907" height="4.255477"/>
			</g>
			<g>
			</g>
		</g>
		<g id="XMLID_21_">
			<g>
				<rect x="78.4463959" y="62.4518814" class="st5" width="3.4376609" height="4.255477"/>
			</g>
			<g>
			</g>
		</g>
		<g id="XMLID_20_">
			<g>
				<rect x="81.1177063" y="62.7510414" class="st4" width="5.1633434" height="3.6058266"/>
			</g>
			<g>
			</g>
		</g>
		<g>
			<path class="st7" d="M84.2734375,64.4179688c0-0.0595703,0.0107422-0.1171875,0.0322266-0.171875
				c0.0224609-0.0546875,0.0517578-0.1015625,0.0898438-0.1386719c0.0419922-0.0400391,0.0908203-0.0703125,0.1484375-0.0917969
				c0.0576172-0.0224609,0.1240234-0.0332031,0.1992188-0.0332031c0.0703125,0,0.1386719,0.0078125,0.203125,0.0214844
				c0.0654297,0.015625,0.1201172,0.0332031,0.1650391,0.0537109v0.1826172h-0.0117188
				c-0.0478516-0.0302734-0.1025391-0.0556641-0.1660156-0.0761719c-0.0634766-0.0214844-0.1259766-0.0322266-0.1865234-0.0322266
				c-0.0410156,0-0.0810547,0.0058594-0.1191406,0.0175781c-0.0380859,0.0107422-0.0722656,0.0322266-0.1025391,0.0605469
				C84.5,64.234375,84.4814453,64.2636719,84.4677734,64.2988281c-0.0126953,0.0351563-0.0195313,0.0742188-0.0195313,0.1201172
				c0,0.0439453,0.0078125,0.0820313,0.0234375,0.1123047c0.0146484,0.03125,0.0361328,0.0546875,0.0634766,0.0742188
				c0.0302734,0.0214844,0.0664063,0.0371094,0.109375,0.0449219c0.0429688,0.0097656,0.0908203,0.0136719,0.1435547,0.0136719
				c0.0507813,0,0.0996094-0.0029297,0.1464844-0.0097656c0.046875-0.0078125,0.0878906-0.0136719,0.1220703-0.0214844v0.6640625
				h-0.7744141v-0.1523438h0.6074219v-0.3417969c-0.0253906,0.0019531-0.0507813,0.0039063-0.0761719,0.0058594
				c-0.0263672,0-0.0488281,0.0009766-0.0673828,0.0009766c-0.0703125,0-0.1308594-0.0058594-0.1835938-0.0175781
				c-0.0517578-0.0117188-0.1005859-0.0322266-0.1445313-0.0625c-0.0458984-0.0322266-0.0810547-0.0732422-0.1064453-0.1230469
				S84.2734375,64.4941406,84.2734375,64.4179688z"/>
			<path class="st7" d="M83.3164063,64.6533203c0-0.2314453,0.0361328-0.4013672,0.1083984-0.5087891
				s0.1845703-0.1621094,0.3369141-0.1621094c0.1542969,0,0.2666016,0.0546875,0.3378906,0.1640625
				s0.1064453,0.2773438,0.1064453,0.5048828c0,0.2294922-0.0351563,0.3974609-0.1074219,0.5068359
				s-0.1845703,0.1640625-0.3369141,0.1640625c-0.1542969,0-0.2675781-0.0556641-0.3388672-0.1660156
				C83.3515625,65.0449219,83.3164063,64.8769531,83.3164063,64.6533203z M83.5439453,64.2607422
				c-0.0205078,0.046875-0.0341797,0.1015625-0.0410156,0.1650391c-0.0078125,0.0625-0.0107422,0.1386719-0.0107422,0.2275391
				c0,0.0869141,0.0029297,0.1630859,0.0107422,0.2275391C83.5097656,64.9453125,83.5234375,65,83.5449219,65.0449219
				c0.0195313,0.0449219,0.046875,0.078125,0.0820313,0.1015625c0.0351563,0.0214844,0.0800781,0.0332031,0.1347656,0.0332031
				c0.0537109,0,0.0986328-0.0117188,0.1337891-0.0332031c0.0361328-0.0234375,0.0634766-0.0566406,0.0849609-0.1025391
				C84,65.0019531,84.0126953,64.9453125,84.0205078,64.8769531c0.0068359-0.0683594,0.0107422-0.1435547,0.0107422-0.2255859
				c0-0.0898438-0.0029297-0.1650391-0.0097656-0.2255859c-0.0058594-0.0605469-0.0195313-0.1152344-0.0410156-0.1621094
				c-0.0185547-0.0449219-0.0458984-0.0800781-0.0800781-0.1035156C83.8652344,64.1367188,83.8193359,64.125,83.7617188,64.125
				c-0.0546875,0-0.0996094,0.0117188-0.1347656,0.0332031C83.5908203,64.1816406,83.5634766,64.2148438,83.5439453,64.2607422z"/>
			<path class="st7" d="M82.3681641,64.6533203c0-0.2314453,0.0361328-0.4013672,0.1083984-0.5087891
				s0.1845703-0.1621094,0.3369141-0.1621094c0.1542969,0,0.2666016,0.0546875,0.3378906,0.1640625
				s0.1064453,0.2773438,0.1064453,0.5048828c0,0.2294922-0.0351563,0.3974609-0.1074219,0.5068359
				s-0.1845703,0.1640625-0.3369141,0.1640625c-0.1542969,0-0.2675781-0.0556641-0.3388672-0.1660156
				C82.4033203,65.0449219,82.3681641,64.8769531,82.3681641,64.6533203z M82.5957031,64.2607422
				c-0.0205078,0.046875-0.0341797,0.1015625-0.0410156,0.1650391c-0.0078125,0.0625-0.0107422,0.1386719-0.0107422,0.2275391
				c0,0.0869141,0.0029297,0.1630859,0.0107422,0.2275391C82.5615234,64.9453125,82.5751953,65,82.5966797,65.0449219
				c0.0195313,0.0449219,0.046875,0.078125,0.0820313,0.1015625c0.0351563,0.0214844,0.0800781,0.0332031,0.1347656,0.0332031
				c0.0537109,0,0.0986328-0.0117188,0.1337891-0.0332031c0.0361328-0.0234375,0.0634766-0.0566406,0.0849609-0.1025391
				c0.0195313-0.0419922,0.0322266-0.0986328,0.0400391-0.1669922c0.0068359-0.0683594,0.0107422-0.1435547,0.0107422-0.2255859
				c0-0.0898438-0.0029297-0.1650391-0.0097656-0.2255859c-0.0058594-0.0605469-0.0195313-0.1152344-0.0410156-0.1621094
				c-0.0185547-0.0449219-0.0458984-0.0800781-0.0800781-0.1035156C82.9169922,64.1367188,82.8710938,64.125,82.8134766,64.125
				c-0.0546875,0-0.0996094,0.0117188-0.1347656,0.0332031C82.6425781,64.1816406,82.6152344,64.2148438,82.5957031,64.2607422z"/>
		</g>
	</g>
	<g>
		<g id="XMLID_19_">
			<g>
				<rect x="70.0109406" y="62.4517365" class="st5" width="3.4358907" height="4.255477"/>
			</g>
			<g>
			</g>
		</g>
		<g id="XMLID_15_">
			<g>
				<rect x="62.8807182" y="62.4924507" class="st5" width="3.4376609" height="4.255477"/>
			</g>
			<g>
			</g>
		</g>
		<g id="XMLID_14_">
			<g>
				<rect x="65.5520325" y="62.7916069" class="st4" width="5.1633434" height="3.6058266"/>
			</g>
			<g>
			</g>
		</g>
		<g>
			<path class="st7" d="M68.7070313,64.4599609c0-0.0595703,0.0107422-0.1171875,0.0322266-0.171875
				c0.0224609-0.0546875,0.0517578-0.1005859,0.0898438-0.1376953c0.0419922-0.0410156,0.0908203-0.0722656,0.1484375-0.09375
				s0.1240234-0.0322266,0.1992188-0.0322266c0.0703125,0,0.1386719,0.0068359,0.203125,0.0224609
				c0.0654297,0.0136719,0.1201172,0.0322266,0.1650391,0.0527344v0.1826172h-0.0117188
				c-0.0478516-0.0302734-0.1025391-0.0556641-0.1660156-0.0771484c-0.0634766-0.0205078-0.1259766-0.03125-0.1865234-0.03125
				c-0.0410156,0-0.0810547,0.0058594-0.1191406,0.0175781s-0.0722656,0.03125-0.1025391,0.0605469
				c-0.0253906,0.0244141-0.0439453,0.0546875-0.0576172,0.0888672c-0.0126953,0.0341797-0.0195313,0.0751953-0.0195313,0.1201172
				s0.0078125,0.0820313,0.0234375,0.1123047c0.0146484,0.0302734,0.0361328,0.0556641,0.0634766,0.0732422
				c0.0302734,0.0214844,0.0664063,0.0371094,0.109375,0.046875c0.0429688,0.0087891,0.0908203,0.0136719,0.1435547,0.0136719
				c0.0507813,0,0.0996094-0.0039063,0.1464844-0.0107422s0.0878906-0.0146484,0.1220703-0.0205078v0.6621094h-0.7744141V65.1875
				h0.6074219v-0.3427734c-0.0253906,0.0029297-0.0507813,0.0039063-0.0761719,0.0048828
				c-0.0263672,0.0019531-0.0488281,0.0019531-0.0673828,0.0019531c-0.0703125,0-0.1308594-0.0058594-0.1835938-0.0175781
				c-0.0517578-0.0117188-0.1005859-0.0332031-0.1445313-0.0625c-0.0458984-0.03125-0.0810547-0.0722656-0.1064453-0.1230469
				C68.7197266,64.5986328,68.7070313,64.5351563,68.7070313,64.4599609z"/>
			<path class="st7" d="M67.75,64.6953125c0-0.2304688,0.0361328-0.4003906,0.1083984-0.5087891
				s0.1845703-0.1621094,0.3369141-0.1621094c0.1542969,0,0.2666016,0.0546875,0.3378906,0.1640625
				c0.0712891,0.1103516,0.1064453,0.2783203,0.1064453,0.5048828c0,0.2285156-0.0351563,0.3984375-0.1074219,0.5068359
				c-0.0722656,0.109375-0.1845703,0.1640625-0.3369141,0.1640625c-0.1542969,0-0.2675781-0.0556641-0.3388672-0.1669922
				C67.7851563,65.0869141,67.75,64.9199219,67.75,64.6953125z M67.9775391,64.3027344
				c-0.0205078,0.046875-0.0341797,0.1015625-0.0410156,0.1640625c-0.0078125,0.0644531-0.0107422,0.1396484-0.0107422,0.2285156
				c0,0.0878906,0.0029297,0.1640625,0.0107422,0.2285156c0.0068359,0.0644531,0.0205078,0.1191406,0.0419922,0.1640625
				c0.0195313,0.0439453,0.046875,0.078125,0.0820313,0.0996094c0.0351563,0.0234375,0.0800781,0.0341797,0.1347656,0.0341797
				c0.0537109,0,0.0986328-0.0107422,0.1337891-0.0341797c0.0361328-0.0214844,0.0634766-0.0566406,0.0849609-0.1015625
				c0.0195313-0.0429688,0.0322266-0.0976563,0.0400391-0.1669922c0.0068359-0.0683594,0.0107422-0.1435547,0.0107422-0.2255859
				c0-0.0898438-0.0029297-0.1650391-0.0097656-0.2255859c-0.0058594-0.0605469-0.0195313-0.1142578-0.0410156-0.1630859
				c-0.0185547-0.0449219-0.0458984-0.078125-0.0800781-0.1015625c-0.0351563-0.0244141-0.0810547-0.0361328-0.1386719-0.0361328
				c-0.0546875,0-0.0996094,0.0107422-0.1347656,0.0341797C68.0244141,64.2226563,67.9970703,64.2578125,67.9775391,64.3027344z"/>
			<path class="st7" d="M66.8017578,64.6953125c0-0.2304688,0.0361328-0.4003906,0.1083984-0.5087891
				s0.1845703-0.1621094,0.3369141-0.1621094c0.1542969,0,0.2666016,0.0546875,0.3378906,0.1640625
				c0.0712891,0.1103516,0.1064453,0.2783203,0.1064453,0.5048828c0,0.2285156-0.0351563,0.3984375-0.1074219,0.5068359
				c-0.0722656,0.109375-0.1845703,0.1640625-0.3369141,0.1640625c-0.1542969,0-0.2675781-0.0556641-0.3388672-0.1669922
				C66.8369141,65.0869141,66.8017578,64.9199219,66.8017578,64.6953125z M67.0292969,64.3027344
				c-0.0205078,0.046875-0.0341797,0.1015625-0.0410156,0.1640625c-0.0078125,0.0644531-0.0107422,0.1396484-0.0107422,0.2285156
				c0,0.0878906,0.0029297,0.1640625,0.0107422,0.2285156c0.0068359,0.0644531,0.0205078,0.1191406,0.0419922,0.1640625
				c0.0195313,0.0439453,0.046875,0.078125,0.0820313,0.0996094c0.0351563,0.0234375,0.0800781,0.0341797,0.1347656,0.0341797
				c0.0537109,0,0.0986328-0.0107422,0.1337891-0.0341797c0.0361328-0.0214844,0.0634766-0.0566406,0.0849609-0.1015625
				c0.0195313-0.0429688,0.0322266-0.0976563,0.0400391-0.1669922c0.0068359-0.0683594,0.0107422-0.1435547,0.0107422-0.2255859
				c0-0.0898438-0.0029297-0.1650391-0.0097656-0.2255859c-0.0058594-0.0605469-0.0195313-0.1142578-0.0410156-0.1630859
				c-0.0185547-0.0449219-0.0458984-0.078125-0.0800781-0.1015625c-0.0351563-0.0244141-0.0810547-0.0361328-0.1386719-0.0361328
				c-0.0546875,0-0.0996094,0.0107422-0.1347656,0.0341797C67.0761719,64.2226563,67.0488281,64.2578125,67.0292969,64.3027344z"/>
		</g>
	</g>
	<g>
		<g id="XMLID_3_">
			<g>
				<rect x="54.4452667" y="62.4923019" class="st5" width="3.4358907" height="4.255477"/>
			</g>
			<g>
			</g>
		</g>
		<g id="XMLID_2_">
			<g>
				<rect x="47.3150406" y="62.5330162" class="st5" width="3.4376609" height="4.255477"/>
			</g>
			<g>
			</g>
		</g>
		<g id="XMLID_1_">
			<g>
				<rect x="49.986351" y="62.8321762" class="st4" width="5.1633434" height="3.6058266"/>
			</g>
			<g>
			</g>
		</g>
		<g>
			<path class="st7" d="M53.1401367,64.5c0-0.0595703,0.0107422-0.1171875,0.0327148-0.171875
				s0.0517578-0.1015625,0.0898438-0.1386719c0.0415039-0.0400391,0.0908203-0.0703125,0.1484375-0.0917969
				c0.0571289-0.0224609,0.1235352-0.0332031,0.1992188-0.0332031c0.0703125,0,0.1381836,0.0078125,0.203125,0.0214844
				c0.0649414,0.015625,0.1201172,0.0332031,0.1650391,0.0537109v0.1826172h-0.012207
				c-0.0473633-0.0302734-0.1025391-0.0556641-0.1660156-0.0761719c-0.0629883-0.0214844-0.1254883-0.0322266-0.1865234-0.0322266
				c-0.0410156,0-0.0805664,0.0058594-0.1186523,0.0175781c-0.0385742,0.0107422-0.0727539,0.0322266-0.1025391,0.0605469
				c-0.0253906,0.0244141-0.0444336,0.0537109-0.0576172,0.0888672c-0.0126953,0.0351563-0.0195313,0.0742188-0.0195313,0.1201172
				c0,0.0439453,0.0078125,0.0820313,0.0229492,0.1123047c0.0151367,0.03125,0.0366211,0.0546875,0.0634766,0.0742188
				c0.0302734,0.0214844,0.0664063,0.0371094,0.109375,0.0449219c0.0429688,0.0097656,0.0908203,0.0136719,0.144043,0.0136719
				c0.0507813,0,0.0996094-0.0029297,0.1464844-0.0097656c0.046875-0.0078125,0.0874023-0.0136719,0.121582-0.0214844v0.6640625
				h-0.7744141v-0.1523438h0.6074219v-0.3417969c-0.0249023,0.0019531-0.050293,0.0039063-0.0761719,0.0058594
				c-0.0258789,0-0.0483398,0.0009766-0.0673828,0.0009766c-0.0698242,0-0.1308594-0.0058594-0.1831055-0.0175781
				s-0.1005859-0.0322266-0.1445313-0.0625c-0.0458984-0.0322266-0.081543-0.0732422-0.1069336-0.1230469
				S53.1401367,64.5761719,53.1401367,64.5z"/>
			<path class="st7" d="M52.1831055,64.7353516c0-0.2314453,0.0361328-0.4013672,0.1083984-0.5087891
				s0.1845703-0.1621094,0.3369141-0.1621094c0.1542969,0,0.2670898,0.0546875,0.3383789,0.1640625
				s0.1064453,0.2773438,0.1064453,0.5048828c0,0.2294922-0.0356445,0.3974609-0.1079102,0.5068359
				c-0.0717773,0.109375-0.184082,0.1640625-0.3369141,0.1640625c-0.1542969,0-0.2670898-0.0556641-0.3383789-0.1660156
				C52.21875,65.1269531,52.1831055,64.9589844,52.1831055,64.7353516z M52.4106445,64.3427734
				c-0.0205078,0.046875-0.0341797,0.1015625-0.0410156,0.1650391c-0.0073242,0.0625-0.0107422,0.1386719-0.0107422,0.2275391
				c0,0.0869141,0.003418,0.1630859,0.0107422,0.2275391c0.0068359,0.0644531,0.0209961,0.1191406,0.0419922,0.1640625
				c0.0200195,0.0449219,0.0473633,0.078125,0.0825195,0.1015625c0.034668,0.0214844,0.0795898,0.0332031,0.1342773,0.0332031
				c0.0541992,0,0.0991211-0.0117188,0.1342773-0.0332031c0.0356445-0.0234375,0.0634766-0.0566406,0.0844727-0.1025391
				c0.0195313-0.0419922,0.0327148-0.0986328,0.0400391-0.1669922s0.0107422-0.1435547,0.0107422-0.2255859
				c0-0.0898438-0.0029297-0.1650391-0.0092773-0.2255859s-0.0200195-0.1152344-0.0410156-0.1621094
				c-0.0185547-0.0449219-0.0458984-0.0800781-0.0805664-0.1035156s-0.0810547-0.0351563-0.1386719-0.0351563
				c-0.0541992,0-0.0991211,0.0117188-0.1347656,0.0332031C52.4580078,64.2636719,52.4301758,64.296875,52.4106445,64.3427734z"/>
			<path class="st7" d="M51.2348633,64.7353516c0-0.2314453,0.0361328-0.4013672,0.1083984-0.5087891
				s0.1845703-0.1621094,0.3369141-0.1621094c0.1542969,0,0.2670898,0.0546875,0.3383789,0.1640625
				S52.125,64.5058594,52.125,64.7333984c0,0.2294922-0.0356445,0.3974609-0.1079102,0.5068359
				c-0.0717773,0.109375-0.184082,0.1640625-0.3369141,0.1640625c-0.1542969,0-0.2670898-0.0556641-0.3383789-0.1660156
				C51.2705078,65.1269531,51.2348633,64.9589844,51.2348633,64.7353516z M51.4624023,64.3427734
				c-0.0205078,0.046875-0.0341797,0.1015625-0.0410156,0.1650391c-0.0073242,0.0625-0.0107422,0.1386719-0.0107422,0.2275391
				c0,0.0869141,0.003418,0.1630859,0.0107422,0.2275391c0.0068359,0.0644531,0.0209961,0.1191406,0.0419922,0.1640625
				c0.0200195,0.0449219,0.0473633,0.078125,0.0825195,0.1015625c0.034668,0.0214844,0.0795898,0.0332031,0.1342773,0.0332031
				c0.0541992,0,0.0991211-0.0117188,0.1342773-0.0332031c0.0356445-0.0234375,0.0634766-0.0566406,0.0844727-0.1025391
				c0.0195313-0.0419922,0.0327148-0.0986328,0.0400391-0.1669922s0.0107422-0.1435547,0.0107422-0.2255859
				c0-0.0898438-0.0029297-0.1650391-0.0092773-0.2255859s-0.0200195-0.1152344-0.0410156-0.1621094
				c-0.0185547-0.0449219-0.0458984-0.0800781-0.0805664-0.1035156s-0.0810547-0.0351563-0.1386719-0.0351563
				c-0.0541992,0-0.0991211,0.0117188-0.1347656,0.0332031C51.5097656,64.2636719,51.4819336,64.296875,51.4624023,64.3427734z"/>
		</g>
	</g>
	<g>
		<g id="XMLID_13_">
			<g>
				<rect x="35.4852638" y="27.8899269" class="st5" width="3.4358907" height="4.255477"/>
			</g>
			<g>
			</g>
		</g>
		<g id="XMLID_12_">
			<g>
				<rect x="42.6137161" y="27.8492126" class="st5" width="3.4376609" height="4.255477"/>
			</g>
			<g>
			</g>
		</g>
		<g id="XMLID_11_">
			<g>
				<rect x="38.2167206" y="28.1997051" class="st4" width="5.1633434" height="3.6058266"/>
			</g>
			<g>
			</g>
		</g>
		<g>
			<path class="st7" d="M40.1625977,30.546875h-0.6967773v-0.1313477h0.2680664v-0.862793h-0.2680664v-0.1171875
				c0.0361328,0,0.0751953-0.003418,0.1166992-0.0092773s0.0727539-0.0146484,0.0942383-0.0263672
				c0.0263672-0.0141602,0.0473633-0.0327148,0.0625-0.0546875c0.015625-0.0224609,0.0244141-0.0522461,0.0263672-0.0898438
				h0.1342773v1.1601563h0.2626953V30.546875z"/>
			<path class="st7" d="M41.1826172,29.902832c0,0.230957-0.0361328,0.4008789-0.1083984,0.5087891
				s-0.1845703,0.1621094-0.3369141,0.1621094c-0.1542969,0-0.2670898-0.0546875-0.3383789-0.1640625
				c-0.0712891-0.1098633-0.1064453-0.277832-0.1064453-0.5048828c0-0.2290039,0.0356445-0.3979492,0.1079102-0.5068359
				c0.0717773-0.109375,0.184082-0.1640625,0.3369141-0.1640625c0.1542969,0,0.2670898,0.0556641,0.3383789,0.1665039
				S41.1826172,29.6787109,41.1826172,29.902832z M40.9550781,30.2954102
				c0.0205078-0.046875,0.0341797-0.1015625,0.0410156-0.1645508c0.0073242-0.0634766,0.0107422-0.1391602,0.0107422-0.2280273
				c0-0.0874023-0.003418-0.1635742-0.0107422-0.2280273c-0.0068359-0.0644531-0.0209961-0.1191406-0.0419922-0.1640625
				c-0.0200195-0.0444336-0.0473633-0.078125-0.0825195-0.1005859c-0.034668-0.0224609-0.0795898-0.0336914-0.1342773-0.0336914
				c-0.0541992,0-0.0991211,0.0112305-0.1342773,0.0336914c-0.0356445,0.0224609-0.0634766,0.0566406-0.0844727,0.1020508
				c-0.0195313,0.0424805-0.0327148,0.0981445-0.0400391,0.1669922c-0.0073242,0.0683594-0.0107422,0.1435547-0.0107422,0.2255859
				c0,0.0898438,0.0029297,0.1650391,0.0092773,0.2255859s0.0200195,0.1147461,0.0410156,0.1625977
				c0.0185547,0.0449219,0.0458984,0.0791016,0.0805664,0.1025391c0.034668,0.0239258,0.0810547,0.0356445,0.1386719,0.0356445
				c0.0541992,0,0.0991211-0.0112305,0.1347656-0.0336914S40.9355469,30.3408203,40.9550781,30.2954102z"/>
			<path class="st7" d="M42.1621094,30.1845703h-0.1914063v0.3623047h-0.1660156v-0.3623047h-0.6162109v-0.1987305
				l0.6235352-0.7260742h0.1586914v0.7866211h0.1914063V30.1845703z M41.8046875,30.0463867v-0.5805664l-0.4985352,0.5805664
				H41.8046875z"/>
		</g>
	</g>
	<g>
		<g id="XMLID_7_">
			<g>
				<rect x="35.4852638" y="46.6572456" class="st5" width="3.4358907" height="4.255477"/>
			</g>
			<g>
			</g>
		</g>
		<g id="XMLID_5_">
			<g>
				<rect x="42.6137161" y="46.6165352" class="st5" width="3.4376609" height="4.255477"/>
			</g>
			<g>
			</g>
		</g>
		<g id="XMLID_4_">
			<g>
				<rect x="38.2167206" y="46.9670258" class="st4" width="5.1633434" height="3.6058266"/>
			</g>
			<g>
			</g>
		</g>
		<g>
			<path class="st7" d="M40.1625977,49.3144531h-0.6967773v-0.1318359h0.2680664v-0.8623047h-0.2680664V48.203125
				c0.0361328,0,0.0751953-0.0039063,0.1166992-0.0097656s0.0727539-0.0146484,0.0942383-0.0263672
				c0.0263672-0.0136719,0.0473633-0.0322266,0.0625-0.0546875c0.015625-0.0224609,0.0244141-0.0517578,0.0263672-0.0898438
				h0.1342773v1.1601563h0.2626953V49.3144531z"/>
			<path class="st7" d="M41.1826172,48.6699219c0,0.2314453-0.0361328,0.4013672-0.1083984,0.5087891
				c-0.0722656,0.1083984-0.1845703,0.1621094-0.3369141,0.1621094c-0.1542969,0-0.2670898-0.0546875-0.3383789-0.1640625
				s-0.1064453-0.2773438-0.1064453-0.5048828c0-0.2285156,0.0356445-0.3974609,0.1079102-0.5068359
				c0.0717773-0.109375,0.184082-0.1640625,0.3369141-0.1640625c0.1542969,0,0.2670898,0.0556641,0.3383789,0.1669922
				C41.1469727,48.2783203,41.1826172,48.4462891,41.1826172,48.6699219z M40.9550781,49.0625
				c0.0205078-0.046875,0.0341797-0.1015625,0.0410156-0.1640625c0.0073242-0.0634766,0.0107422-0.1396484,0.0107422-0.2285156
				c0-0.0869141-0.003418-0.1630859-0.0107422-0.2275391c-0.0068359-0.0644531-0.0209961-0.1191406-0.0419922-0.1640625
				c-0.0200195-0.0449219-0.0473633-0.078125-0.0825195-0.1005859c-0.034668-0.0224609-0.0795898-0.0341797-0.1342773-0.0341797
				c-0.0541992,0-0.0991211,0.0117188-0.1342773,0.0341797c-0.0356445,0.0224609-0.0634766,0.0566406-0.0844727,0.1015625
				c-0.0195313,0.0429688-0.0327148,0.0986328-0.0400391,0.1669922s-0.0107422,0.1435547-0.0107422,0.2255859
				c0,0.0898438,0.0029297,0.1650391,0.0092773,0.2255859s0.0200195,0.1152344,0.0410156,0.1630859
				c0.0185547,0.0449219,0.0458984,0.0791016,0.0805664,0.1025391s0.0810547,0.0351563,0.1386719,0.0351563
				c0.0541992,0,0.0991211-0.0107422,0.1347656-0.0332031S40.9355469,49.1083984,40.9550781,49.0625z"/>
			<path class="st7" d="M42.1323242,49.3144531h-0.8710938v-0.1806641c0.0605469-0.0517578,0.1210938-0.1035156,0.1821289-0.15625
				c0.0605469-0.0517578,0.1171875-0.1025391,0.1694336-0.1542969c0.1108398-0.1074219,0.1865234-0.1923828,0.2275391-0.2558594
				c0.0410156-0.0625,0.0615234-0.1308594,0.0615234-0.2041016c0-0.0664063-0.0219727-0.1191406-0.0664063-0.15625
				c-0.0439453-0.0380859-0.1054688-0.0566406-0.1845703-0.0566406c-0.0522461,0-0.1088867,0.0087891-0.1699219,0.0273438
				s-0.1210938,0.046875-0.1791992,0.0849609h-0.0087891v-0.1816406c0.0410156-0.0205078,0.0957031-0.0390625,0.1640625-0.0556641
				S41.5913086,48,41.6552734,48c0.1318359,0,0.2353516,0.0322266,0.3105469,0.0957031
				c0.074707,0.0634766,0.1123047,0.1503906,0.1123047,0.2587891c0,0.0488281-0.0063477,0.0947266-0.0185547,0.1376953
				c-0.0126953,0.0419922-0.0307617,0.0820313-0.0551758,0.1201172c-0.0224609,0.0361328-0.0488281,0.0712891-0.0791016,0.1054688
				s-0.0668945,0.0732422-0.1098633,0.1152344c-0.0620117,0.0605469-0.1254883,0.1191406-0.1914063,0.1757813
				c-0.0654297,0.0566406-0.1269531,0.109375-0.184082,0.1572266h0.6923828V49.3144531z"/>
		</g>
	</g>
	<g>
		<g id="XMLID_10_">
			<g>
				<rect x="35.4852638" y="40.401474" class="st5" width="3.4358907" height="4.255477"/>
			</g>
			<g>
			</g>
		</g>
		<g id="XMLID_9_">
			<g>
				<rect x="42.6137161" y="40.3607597" class="st5" width="3.4376609" height="4.255477"/>
			</g>
			<g>
			</g>
		</g>
		<g id="XMLID_8_">
			<g>
				<rect x="38.2167206" y="40.7112541" class="st4" width="5.1633434" height="3.6058266"/>
			</g>
			<g>
			</g>
		</g>
		<g>
			<path class="st7" d="M40.1625977,43.0585938h-0.6967773v-0.1318359h0.2680664v-0.8623047h-0.2680664v-0.1171875
				c0.0361328,0,0.0751953-0.0039063,0.1166992-0.0097656s0.0727539-0.0146484,0.0942383-0.0263672
				c0.0263672-0.0136719,0.0473633-0.0322266,0.0625-0.0546875c0.015625-0.0224609,0.0244141-0.0517578,0.0263672-0.0898438
				h0.1342773v1.1601563h0.2626953V43.0585938z"/>
			<path class="st7" d="M41.1826172,42.4140625c0,0.2314453-0.0361328,0.4013672-0.1083984,0.5087891
				c-0.0722656,0.1083984-0.1845703,0.1621094-0.3369141,0.1621094c-0.1542969,0-0.2670898-0.0546875-0.3383789-0.1640625
				s-0.1064453-0.2773438-0.1064453-0.5048828c0-0.2285156,0.0356445-0.3974609,0.1079102-0.5068359
				c0.0717773-0.109375,0.184082-0.1640625,0.3369141-0.1640625c0.1542969,0,0.2670898,0.0556641,0.3383789,0.1669922
				C41.1469727,42.0224609,41.1826172,42.1904297,41.1826172,42.4140625z M40.9550781,42.8066406
				c0.0205078-0.046875,0.0341797-0.1015625,0.0410156-0.1640625c0.0073242-0.0634766,0.0107422-0.1396484,0.0107422-0.2285156
				c0-0.0869141-0.003418-0.1630859-0.0107422-0.2275391c-0.0068359-0.0644531-0.0209961-0.1191406-0.0419922-0.1640625
				c-0.0200195-0.0449219-0.0473633-0.078125-0.0825195-0.1005859c-0.034668-0.0224609-0.0795898-0.0341797-0.1342773-0.0341797
				c-0.0541992,0-0.0991211,0.0117188-0.1342773,0.0341797c-0.0356445,0.0224609-0.0634766,0.0566406-0.0844727,0.1015625
				c-0.0195313,0.0429688-0.0327148,0.0986328-0.0400391,0.1669922s-0.0107422,0.1435547-0.0107422,0.2255859
				c0,0.0898438,0.0029297,0.1650391,0.0092773,0.2255859s0.0200195,0.1152344,0.0410156,0.1630859
				c0.0185547,0.0449219,0.0458984,0.0791016,0.0805664,0.1025391s0.0810547,0.0351563,0.1386719,0.0351563
				c0.0541992,0,0.0991211-0.0107422,0.1347656-0.0332031S40.9355469,42.8525391,40.9550781,42.8066406z"/>
			<path class="st7" d="M42.1323242,43.0585938h-0.8710938v-0.1806641c0.0605469-0.0517578,0.1210938-0.1035156,0.1821289-0.15625
				c0.0605469-0.0517578,0.1171875-0.1025391,0.1694336-0.1542969c0.1108398-0.1074219,0.1865234-0.1923828,0.2275391-0.2558594
				c0.0410156-0.0625,0.0615234-0.1308594,0.0615234-0.2041016c0-0.0664063-0.0219727-0.1191406-0.0664063-0.15625
				c-0.0439453-0.0380859-0.1054688-0.0566406-0.1845703-0.0566406c-0.0522461,0-0.1088867,0.0087891-0.1699219,0.0273438
				s-0.1210938,0.046875-0.1791992,0.0849609h-0.0087891v-0.1816406c0.0410156-0.0205078,0.0957031-0.0390625,0.1640625-0.0556641
				s0.1342773-0.0253906,0.1982422-0.0253906c0.1318359,0,0.2353516,0.0322266,0.3105469,0.0957031
				c0.074707,0.0634766,0.1123047,0.1503906,0.1123047,0.2587891c0,0.0488281-0.0063477,0.0947266-0.0185547,0.1376953
				c-0.0126953,0.0419922-0.0307617,0.0820313-0.0551758,0.1201172c-0.0224609,0.0361328-0.0488281,0.0712891-0.0791016,0.1054688
				s-0.0668945,0.0732422-0.1098633,0.1152344c-0.0620117,0.0605469-0.1254883,0.1191406-0.1914063,0.1757813
				c-0.0654297,0.0566406-0.1269531,0.109375-0.184082,0.1572266h0.6923828V43.0585938z"/>
		</g>
	</g>
	<g id="ГРУППА_4_">
		<g>
			<polygon class="st5" points="103.917305,55.0853615 100.4796448,55.0853615 100.4796448,50.8298836 103.917305,50.8298836 
				103.917305,51.1396637 103.2127762,51.1396637 103.2127762,54.7454872 103.917305,54.7454872 			"/>
			<polygon class="st5" points="111.0457611,55.0446472 107.6081009,55.0446472 107.6081009,54.7454872 108.3745804,54.7454872 
				108.3745804,51.1396637 107.6081009,51.1396637 107.6081009,50.7891693 111.0457611,50.7891693 			"/>
			<rect x="103.2127762" y="51.1396637" class="st8" width="0.7045258" height="3.6058266"/>
			<rect x="103.917305" y="51.1396637" class="st8" width="3.6907945" height="3.6058266"/>
			<rect x="107.6081009" y="51.1396637" class="st8" width="0.7664815" height="3.6058266"/>
		</g>
		<g>
		</g>
	</g>
	<g id="ГРУППА_5_">
		<g>
			<polygon class="st5" points="103.917305,28.0148678 100.4796448,28.0148678 100.4796448,23.7593899 103.917305,23.7593899 
				103.917305,24.06917 103.2127762,24.06917 103.2127762,27.6749954 103.917305,27.6749954 			"/>
			<polygon class="st5" points="111.0457611,27.9741535 107.6081009,27.9741535 107.6081009,27.6749954 108.3745804,27.6749954 
				108.3745804,24.06917 107.6081009,24.06917 107.6081009,23.7186775 111.0457611,23.7186775 			"/>
			<rect x="103.2127762" y="24.06917" class="st8" width="0.7045258" height="3.6058266"/>
			<rect x="103.917305" y="24.06917" class="st8" width="3.6907945" height="3.6058266"/>
			<rect x="107.6081009" y="24.06917" class="st8" width="0.7664815" height="3.6058266"/>
		</g>
		<g>
		</g>
	</g>
	<g>
		<path class="st9" d="M90.09375,48.4165344c1.2273636,0,2.2224731,1.0018463,2.2224731,2.2397385
			s-0.9951096,2.241539-2.2224731,2.241539s-2.2224731-1.0036469-2.2224731-2.241539S88.8663864,48.4165344,90.09375,48.4165344z"/>
		<ellipse class="st10" cx="90.09375" cy="50.6571732" rx="1.5185714" ry="1.5316002"/>
		<path class="st9" d="M90.09375,41.1881866c1.2273636,0,2.2224731,1.0018463,2.2224731,2.2397385
			s-0.9951096,2.2415428-2.2224731,2.2415428s-2.2224731-1.0036507-2.2224731-2.2415428S88.8663864,41.1881866,90.09375,41.1881866z
			"/>
		<ellipse class="st10" cx="90.09375" cy="43.4288254" rx="1.5185714" ry="1.5316002"/>
		<path class="st9" d="M90.09375,33.9881859c1.2273636,0,2.2224731,1.0018463,2.2224731,2.2397385
			s-0.9951096,2.2415428-2.2224731,2.2415428s-2.2224731-1.0036507-2.2224731-2.2415428S88.8663864,33.9881859,90.09375,33.9881859z
			"/>
		<ellipse class="st10" cx="90.09375" cy="36.2288284" rx="1.5185714" ry="1.5316002"/>
		<path class="st9" d="M88.4648285,27.4007568c2.0229111-1.5395126,4.2713089,0.1709862,3.7840042,2.1831684
			c-0.1875381,0.7743721-0.8210831,1.4096432-1.5950623,1.5987854
			C88.6421432,31.674305,86.9244308,29.4252434,88.4648285,27.4007568z"/>
		<ellipse class="st10" cx="90.09375" cy="29.0288277" rx="1.5185714" ry="1.5316002"/>
		<path class="st9" d="M88.4648285,20.2007561c2.0229187-1.5395107,4.2713089,0.1709862,3.7840042,2.1831703
			c-0.1875381,0.7743702-0.8210754,1.4096413-1.5950623,1.5987835
			C88.6421432,24.4743061,86.9244308,22.2252445,88.4648285,20.2007561z"/>
		<ellipse class="st10" cx="90.09375" cy="21.8288269" rx="1.5185714" ry="1.5316002"/>
	</g>
	<g>
		<path class="st9" d="M29.1644936,48.4165344c1.2273617,0,2.2224731,1.0018463,2.2224731,2.2397385
			s-0.9951115,2.241539-2.2224731,2.241539c-1.2273636,0-2.2224751-1.0036469-2.2224751-2.241539
			S27.93713,48.4165344,29.1644936,48.4165344z"/>
		<ellipse class="st10" cx="29.1644936" cy="50.6571732" rx="1.5185714" ry="1.5316002"/>
		<path class="st9" d="M29.1644936,41.1881866c1.2273617,0,2.2224731,1.0018463,2.2224731,2.2397385
			s-0.9951115,2.2415428-2.2224731,2.2415428c-1.2273636,0-2.2224751-1.0036507-2.2224751-2.2415428
			S27.93713,41.1881866,29.1644936,41.1881866z"/>
		<ellipse class="st10" cx="29.1644936" cy="43.4288254" rx="1.5185714" ry="1.5316002"/>
		<path class="st9" d="M29.1644936,33.9881859c1.2273617,0,2.2224731,1.0018463,2.2224731,2.2397385
			s-0.9951115,2.2415428-2.2224731,2.2415428c-1.2273636,0-2.2224751-1.0036507-2.2224751-2.2415428
			S27.93713,33.9881859,29.1644936,33.9881859z"/>
		<ellipse class="st10" cx="29.1644936" cy="36.2288284" rx="1.5185714" ry="1.5316002"/>
		<path class="st9" d="M27.5355721,27.4007568c2.022913-1.5395126,4.2713051,0.1709862,3.7840004,2.1831684
			c-0.1875343,0.7743721-0.8210773,1.4096432-1.5950565,1.5987854
			C27.7128849,31.674305,25.9951725,29.4252434,27.5355721,27.4007568z"/>
		<ellipse class="st10" cx="29.1644936" cy="29.0288277" rx="1.5185714" ry="1.5316002"/>
		<path class="st9" d="M27.5355721,20.2007561c2.0229149-1.5395107,4.2713051,0.1709862,3.7840004,2.1831703
			c-0.1875343,0.7743702-0.8210754,1.4096413-1.5950565,1.5987835
			C27.7128849,24.4743061,25.9951725,22.2252445,27.5355721,20.2007561z"/>
		<ellipse class="st10" cx="29.1644936" cy="21.8288269" rx="1.5185714" ry="1.5316002"/>
	</g>
	<g>
		<rect x="39.8179703" y="7.9067717" class="st11" width="56.6929131" height="56.6929131"/>
		<circle class="st12" cx="44.7907791" cy="59.645195" r="2.8346457"/>
		<circle class="st12" cx="44.7907791" cy="52.9759026" r="2.8346457"/>
		<circle class="st12" cx="44.7907791" cy="46.3066101" r="2.8346457"/>
		<circle class="st12" cx="44.7907791" cy="39.6373177" r="2.8346457"/>
		<circle class="st12" cx="44.7907791" cy="32.9680252" r="2.8346457"/>
		<circle class="st12" cx="44.7907791" cy="26.2987347" r="2.8346457"/>
		<circle class="st12" cx="44.7907791" cy="19.6294422" r="2.8346457"/>
		<circle class="st12" cx="44.7907791" cy="12.9601507" r="2.8346457"/>
		<circle class="st12" cx="51.4600716" cy="59.645195" r="2.8346457"/>
		<circle class="st12" cx="51.4600716" cy="52.9759026" r="2.8346457"/>
		<circle class="st12" cx="51.4600716" cy="46.3066101" r="2.8346457"/>
		<circle class="st12" cx="51.4600716" cy="39.6373177" r="2.8346457"/>
		<circle class="st12" cx="51.4600716" cy="32.9680252" r="2.8346457"/>
		<circle class="st12" cx="51.4600716" cy="26.2987347" r="2.8346457"/>
		<circle class="st12" cx="51.4600716" cy="19.6294422" r="2.8346457"/>
		<circle class="st12" cx="51.4600716" cy="12.9601507" r="2.8346457"/>
		<circle class="st12" cx="58.129364" cy="59.645195" r="2.8346457"/>
		<circle class="st12" cx="58.129364" cy="52.9759026" r="2.8346457"/>
		<circle class="st12" cx="58.129364" cy="46.3066101" r="2.8346457"/>
		<circle class="st12" cx="58.129364" cy="39.6373177" r="2.8346457"/>
		<circle class="st12" cx="58.129364" cy="32.9680252" r="2.8346457"/>
		<circle class="st12" cx="58.129364" cy="26.2987347" r="2.8346457"/>
		<circle class="st12" cx="58.129364" cy="19.6294422" r="2.8346457"/>
		<circle class="st12" cx="58.129364" cy="12.9601507" r="2.8346457"/>
		<circle class="st12" cx="64.7986526" cy="59.645195" r="2.8346457"/>
		<circle class="st12" cx="64.7986526" cy="52.9759026" r="2.8346457"/>
		<circle class="st12" cx="64.7986526" cy="46.3066101" r="2.8346457"/>
		<circle class="st12" cx="64.7986526" cy="39.6373177" r="2.8346457"/>
		<circle class="st12" cx="64.7986526" cy="32.9680252" r="2.8346457"/>
		<circle class="st12" cx="64.7986526" cy="26.2987347" r="2.8346457"/>
		<circle class="st12" cx="64.7986526" cy="19.6294422" r="2.8346457"/>
		<circle class="st12" cx="64.7986526" cy="12.9601507" r="2.8346457"/>
		<circle class="st12" cx="71.4679489" cy="59.645195" r="2.8346457"/>
		<circle class="st12" cx="71.4679489" cy="52.9759026" r="2.8346457"/>
		<circle class="st12" cx="71.4679489" cy="46.3066101" r="2.8346457"/>
		<circle class="st12" cx="71.4679489" cy="39.6373177" r="2.8346457"/>
		<circle class="st12" cx="71.4679489" cy="32.9680252" r="2.8346457"/>
		<circle class="st12" cx="71.4679489" cy="26.2987347" r="2.8346457"/>
		<circle class="st12" cx="71.4679489" cy="19.6294422" r="2.8346457"/>
		<circle class="st12" cx="71.4679489" cy="12.9601507" r="2.8346457"/>
		<circle class="st12" cx="78.1372375" cy="59.645195" r="2.8346457"/>
		<circle class="st12" cx="78.1372375" cy="52.9759026" r="2.8346457"/>
		<circle class="st12" cx="78.1372375" cy="46.3066101" r="2.8346457"/>
		<circle class="st12" cx="78.1372375" cy="39.6373177" r="2.8346457"/>
		<circle class="st12" cx="78.1372375" cy="32.9680252" r="2.8346457"/>
		<circle class="st12" cx="78.1372375" cy="26.2987347" r="2.8346457"/>
		<circle class="st12" cx="78.1372375" cy="19.6294422" r="2.8346457"/>
		<circle class="st12" cx="78.1372375" cy="12.9601507" r="2.8346457"/>
		<circle class="st12" cx="84.8065338" cy="59.645195" r="2.8346457"/>
		<circle class="st12" cx="84.8065338" cy="52.9759026" r="2.8346457"/>
		<circle class="st12" cx="84.8065338" cy="46.3066101" r="2.8346457"/>
		<circle class="st12" cx="84.8065338" cy="39.6373177" r="2.8346457"/>
		<circle class="st12" cx="84.8065338" cy="32.9680252" r="2.8346457"/>
		<circle class="st12" cx="84.8065338" cy="26.2987347" r="2.8346457"/>
		<circle class="st12" cx="84.8065338" cy="19.6294422" r="2.8346457"/>
		<circle class="st12" cx="84.8065338" cy="12.9601507" r="2.8346457"/>
		<circle class="st12" cx="91.4758224" cy="59.645195" r="2.8346457"/>
		<circle class="st12" cx="91.4758224" cy="52.9759026" r="2.8346457"/>
		<circle class="st12" cx="91.4758224" cy="46.3066101" r="2.8346457"/>
		<circle class="st12" cx="91.4758224" cy="39.6373177" r="2.8346457"/>
		<circle class="st12" cx="91.4758224" cy="32.9680252" r="2.8346457"/>
		<circle class="st12" cx="91.4758224" cy="26.2987347" r="2.8346457"/>
		<circle class="st12" cx="91.4758224" cy="19.6294422" r="2.8346457"/>
		<circle class="st12" cx="91.4758224" cy="12.9601507" r="2.8346457"/>
	</g>
	<g>
	</g>
	<g>
	</g>
	<g>
	</g>
	<g>
	</g>
	<g>
	</g>
	<g>
	</g>
</g>
</svg>
