<?xml version="1.0" encoding="utf-8"?>
<!-- Generator: Adobe Illustrator 22.0.1, SVG Export Plug-In . SVG Version: 6.00 Build 0)  -->
<svg version="1.1" xmlns="http://www.w3.org/2000/svg" xmlns:xlink="http://www.w3.org/1999/xlink" x="0px" y="0px"
	 viewBox="0 0 85.0400009 85.0400009" style="enable-background:new 0 0 85.0400009 85.0400009;" xml:space="preserve">
<style type="text/css">
	.st0{fill:#19191A;}
	.st1{fill:#9E9B9C;}
	.st2{fill:#E5E4E0;}
	.st3{fill:none;stroke:#F6F6F6;stroke-width:0.75;stroke-miterlimit:10;}
	.st4{fill:none;stroke:#F2F2F2;stroke-width:0.75;stroke-miterlimit:10;}
	.st5{fill:none;}
	.st6{fill:#CEC7BD;}
	.st7{fill:#918C84;}
	.st8{fill:#151616;}
	.st9{fill:url(#SVGID_1_);}
	.st10{fill:#B5B4B3;}
	.st11{fill:#CDC7BC;}
	.st12{fill:#363331;}
	.st13{fill:none;stroke:#FFFFFF;stroke-width:0.25;stroke-miterlimit:10;}
	.st14{fill:#B3B3B3;}
	.st15{opacity:0.4;}
	.st16{fill:#CCCCCC;}
	.st17{fill:#D76543;stroke:#0D0E0F;stroke-width:0.2525776;stroke-miterlimit:10;}
</style>
<g id="Макет_TREMA">
	<g id="Креп._отверстия">
		<path class="st0" d="M0,0v85.039978h85.039978V0H0z M9.9223022,79.5117798c-2.4279175,0-4.3947144-1.9667969-4.3947144-4.3927002
			c0-2.4279175,1.9667969-4.3947144,4.3947144-4.3947144c2.4258423,0,4.3926392,1.9667969,4.3926392,4.3947144
			C14.3149414,77.5449829,12.3481445,79.5117798,9.9223022,79.5117798z M9.9223022,14.3149414
			c-2.4279175,0-4.3947144-1.9667969-4.3947144-4.3927002c0-2.4279175,1.9667969-4.3947144,4.3947144-4.3947144
			c2.4258423,0,4.3926392,1.9667969,4.3926392,4.3947144C14.3149414,12.3481445,12.3481445,14.3149414,9.9223022,14.3149414z
			 M75.1191406,79.5117798c-2.4279175,0-4.3947144-1.9667969-4.3947144-4.3927002
			c0-2.4279175,1.9667969-4.3947144,4.3947144-4.3947144c2.4258423,0,4.3926392,1.9667969,4.3926392,4.3947144
			C79.5117798,77.5449829,77.5449829,79.5117798,75.1191406,79.5117798z M75.1191406,14.3149414
			c-2.4279175,0-4.3947144-1.9667969-4.3947144-4.3927002c0-2.4279175,1.9667969-4.3947144,4.3947144-4.3947144
			c2.4258423,0,4.3926392,1.9667969,4.3926392,4.3947144C79.5117798,12.3481445,77.5449829,14.3149414,75.1191406,14.3149414z"/>
		<path class="st1" d="M9.9212646,3.9458008c-3.2877808,0-5.9527588,2.6751709-5.9527588,5.9754639
			c0,3.3002319,2.664978,5.9754028,5.9527588,5.9754028c3.2877197,0,5.9527588-2.6751709,5.9527588-5.9754028
			C15.8740234,6.6209717,13.2089844,3.9458008,9.9212646,3.9458008z M9.9223022,14.3149414
			c-2.4279175,0-4.3947144-1.9667969-4.3947144-4.3927002c0-2.4279175,1.9667969-4.3947144,4.3947144-4.3947144
			c2.4258423,0,4.3926392,1.9667969,4.3926392,4.3947144C14.3149414,12.3481445,12.3481445,14.3149414,9.9223022,14.3149414z"/>
		<path class="st1" d="M75.1181107,3.9458008c-3.2877808,0-5.9527588,2.6751709-5.9527588,5.9754639
			c0,3.3002319,2.664978,5.9754028,5.9527588,5.9754028c3.2877197,0,5.9527588-2.6751709,5.9527588-5.9754028
			C81.0708694,6.6209717,78.4058304,3.9458008,75.1181107,3.9458008z M75.1191483,14.3149414
			c-2.4279175,0-4.3947144-1.9667969-4.3947144-4.3927002c0-2.4279175,1.9667969-4.3947144,4.3947144-4.3947144
			c2.4258423,0,4.3926392,1.9667969,4.3926392,4.3947144C79.5117874,12.3481445,77.5449905,14.3149414,75.1191483,14.3149414z"/>
		<path class="st1" d="M9.9212646,69.1426773c-3.2877808,0-5.9527588,2.6751709-5.9527588,5.9754639
			c0,3.3002319,2.664978,5.9754028,5.9527588,5.9754028c3.2877197,0,5.9527588-2.6751709,5.9527588-5.9754028
			C15.8740234,71.8178482,13.2089844,69.1426773,9.9212646,69.1426773z M9.9223022,79.5118179
			c-2.4279175,0-4.3947144-1.9667969-4.3947144-4.3927002c0-2.4279175,1.9667969-4.3947144,4.3947144-4.3947144
			c2.4258423,0,4.3926392,1.9667969,4.3926392,4.3947144C14.3149414,77.5450211,12.3481445,79.5118179,9.9223022,79.5118179z"/>
		<path class="st1" d="M75.1181107,69.1426773c-3.2877808,0-5.9527588,2.6751709-5.9527588,5.9754639
			c0,3.3002319,2.664978,5.9754028,5.9527588,5.9754028c3.2877197,0,5.9527588-2.6751709,5.9527588-5.9754028
			C81.0708694,71.8178482,78.4058304,69.1426773,75.1181107,69.1426773z M75.1191483,79.5118179
			c-2.4279175,0-4.3947144-1.9667969-4.3947144-4.3927002c0-2.4279175,1.9667969-4.3947144,4.3947144-4.3947144
			c2.4258423,0,4.3926392,1.9667969,4.3926392,4.3947144C79.5117874,77.5450211,77.5449905,79.5118179,75.1191483,79.5118179z"/>
		<g>
			<path class="st2" d="M27.2314453,56.6982422v0.390625l-0.5053711,0.0859375v3.5253906h0.6201172l-0.0620117,1.5703125h-0.5483398
				v-1.0966797h-3.2553711v1.1035156h-0.5209961l-0.0898438-1.5771484h0.3876953
				c0.1567383-0.1806641,0.3017578-0.4423828,0.434082-0.7871094c0.1323242-0.34375,0.2045898-0.8125,0.2167969-1.4042969
				l0.074707-1.3369141l-0.4775391-0.0830078v-0.390625h3.2207031H27.2314453z M24.5253906,58.5087891
				c-0.0185547,0.4873047-0.0805664,0.9169922-0.1860352,1.2880859c-0.1054688,0.3701172-0.2407227,0.671875-0.40625,0.9033203
				h2.1826172v-3.5253906h-1.519043L24.5253906,58.5087891z"/>
			<path class="st2" d="M30.03125,61.1738281c-0.019043-0.0908203-0.0332031-0.1708984-0.043457-0.2431641
				c-0.0107422-0.0712891-0.0175781-0.1435547-0.0219727-0.2148438c-0.1176758,0.1494141-0.2651367,0.2734375-0.4418945,0.3730469
				c-0.1762695,0.0996094-0.3652344,0.1494141-0.5654297,0.1494141c-0.3496094,0-0.6152344-0.0849609-0.796875-0.2539063
				s-0.2729492-0.4072266-0.2729492-0.7148438c0-0.3154297,0.1289063-0.5585938,0.3862305-0.7294922
				s0.6098633-0.2568359,1.0585938-0.2568359h0.6293945v-0.3876953c0-0.1943359-0.0620117-0.3486328-0.1860352-0.4619141
				c-0.1240234-0.1142578-0.296875-0.1708984-0.5175781-0.1708984c-0.1533203,0-0.2880859,0.0195313-0.4047852,0.0585938
				s-0.2114258,0.0917969-0.2836914,0.1591797l-0.0649414,0.3505859H28.034668v-0.6455078
				c0.152832-0.1201172,0.3378906-0.2177734,0.5546875-0.2900391c0.2172852-0.0732422,0.4526367-0.109375,0.7070313-0.109375
				c0.3803711,0,0.6879883,0.0966797,0.9238281,0.2890625c0.2353516,0.1923828,0.3535156,0.46875,0.3535156,0.8271484v1.6015625
				c0,0.0429688,0.0004883,0.0849609,0.0014648,0.1259766s0.003418,0.0820313,0.0078125,0.1230469l0.2480469,0.0332031v0.3876953
				H30.03125z M29.0483398,60.7314453c0.2026367,0,0.3876953-0.0488281,0.5546875-0.1445313
				c0.1674805-0.0966797,0.2875977-0.2128906,0.3598633-0.3476563v-0.546875h-0.6508789
				c-0.2504883,0-0.4482422,0.0566406-0.59375,0.171875c-0.1459961,0.1142578-0.21875,0.2539063-0.21875,0.4179688
				c0,0.1455078,0.0454102,0.2568359,0.1362305,0.3330078C28.7270508,60.6923828,28.8642578,60.7314453,29.0483398,60.7314453z"/>
			<path class="st2" d="M34.4799805,57.8476563v0.9902344h-0.5239258l-0.046875-0.5195313h-0.7192383v2.3818359l0.5053711,0.0859375
				v0.3876953h-1.6210938v-0.3876953l0.5053711-0.0859375v-2.3818359h-0.7070313l-0.0463867,0.5195313h-0.5209961v-0.9902344
				H34.4799805z"/>
			<path class="st2" d="M36.5629883,57.8447266v0.3876953l-0.5053711,0.0859375v0.5039063
				c0,0.2666016,0.0576172,0.4619141,0.1723633,0.5869141s0.2856445,0.1875,0.5131836,0.1875
				c0.1362305,0,0.2666016-0.0078125,0.390625-0.0234375c0.1235352-0.0146484,0.246582-0.0380859,0.3686523-0.0683594v-1.1806641
				l-0.5053711-0.0859375v-0.390625h1.621582v0.390625l-0.5053711,0.0859375v2.3759766l0.5053711,0.0859375v0.3876953h-1.621582
				v-0.3876953l0.5053711-0.0859375v-0.7128906c-0.1196289,0.0302734-0.2416992,0.0527344-0.3657227,0.0673828
				s-0.2553711,0.0214844-0.3935547,0.0214844c-0.4052734,0-0.7226563-0.1054688-0.9521484-0.3164063
				c-0.2290039-0.2109375-0.34375-0.5234375-0.34375-0.9375v-0.5039063l-0.5053711-0.0859375v-0.3876953h1.1157227H36.5629883z"/>
			<path class="st2" d="M40.8598633,57.8476563v0.390625l-0.5053711,0.0859375v1.8779297l0.0185547,0.0058594l1.4790039-2.3603516
				h0.6108398h0.5048828v0.390625l-0.5048828,0.0859375v2.3759766l0.5048828,0.0859375v0.3876953h-1.6210938v-0.3876953
				l0.5053711-0.0859375v-1.8808594L41.8334961,58.8125l-1.4790039,2.3613281h-1.112793v-0.3876953l0.5053711-0.0859375v-2.3759766
				l-0.5053711-0.0859375v-0.390625h1.112793H40.8598633z"/>
			<path class="st2" d="M43.5693359,58.2382813v-0.390625h1.6201172v0.390625l-0.5039063,0.0859375v0.9287109h0.3222656
				l0.6992188-0.9316406c0.1269531-0.1748047,0.25-0.3066406,0.3710938-0.3964844
				c0.1210938-0.0908203,0.2578125-0.1357422,0.4082031-0.1357422c0.0957031,0,0.1738281,0.0117188,0.234375,0.0351563
				c0.0625,0.0244141,0.1328125,0.0605469,0.2109375,0.109375l-0.0859375,0.4121094
				c-0.0898438-0.0146484-0.140625-0.0224609-0.1542969-0.0244141c-0.0117188-0.0019531-0.0410156-0.0029297-0.0820313-0.0029297
				c-0.0761719,0-0.1503906,0.0273438-0.2246094,0.0830078c-0.0722656,0.0546875-0.1367188,0.1201172-0.1933594,0.1962891
				l-0.6484375,0.8330078l1.0585938,1.2783203l0.4296875,0.0771484v0.3876953h-0.8144531l-1.1347656-1.4111328h-0.3964844v0.9375
				l0.5039063,0.0859375v0.3876953h-1.6201172v-0.3876953l0.5048828-0.0859375v-2.3759766L43.5693359,58.2382813z"/>
			<path class="st2" d="M49.4931641,58.3242188l-0.5048828-0.0859375v-0.390625h2.6376953v0.0058594h0.0996094v0.8515625H51.328125
				l-0.0429688-0.3779297h-1.1816406v2.3730469l0.5058594,0.0859375v0.3876953h-1.6210938v-0.3876953l0.5048828-0.0859375
				V58.3242188z"/>
			<path class="st2" d="M54.5625,61.1738281c-0.0185547-0.0908203-0.0332031-0.1708984-0.0439453-0.2431641
				c-0.0097656-0.0712891-0.0175781-0.1435547-0.0214844-0.2148438c-0.1181641,0.1494141-0.2646484,0.2734375-0.4414063,0.3730469
				s-0.3652344,0.1494141-0.5664063,0.1494141c-0.3486328,0-0.6142578-0.0849609-0.7958984-0.2539063
				c-0.1826172-0.1689453-0.2734375-0.4072266-0.2734375-0.7148438c0-0.3154297,0.1289063-0.5585938,0.3857422-0.7294922
				c0.2578125-0.1708984,0.6103516-0.2568359,1.0585938-0.2568359h0.6298828v-0.3876953
				c0-0.1943359-0.0625-0.3486328-0.1865234-0.4619141c-0.1240234-0.1142578-0.2958984-0.1708984-0.5175781-0.1708984
				c-0.1523438,0-0.2871094,0.0195313-0.4042969,0.0585938s-0.2109375,0.0917969-0.2832031,0.1591797l-0.0654297,0.3505859
				h-0.4716797v-0.6455078c0.1533203-0.1201172,0.3378906-0.2177734,0.5556641-0.2900391
				c0.2167969-0.0732422,0.4521484-0.109375,0.7060547-0.109375c0.3808594,0,0.6884766,0.0966797,0.9238281,0.2890625
				c0.2363281,0.1923828,0.3535156,0.46875,0.3535156,0.8271484v1.6015625c0,0.0429688,0.0009766,0.0849609,0.0019531,0.1259766
				s0.0039063,0.0820313,0.0078125,0.1230469l0.2480469,0.0332031v0.3876953H54.5625z M53.5791016,60.7314453
				c0.203125,0,0.3876953-0.0488281,0.5556641-0.1445313c0.1669922-0.0966797,0.2871094-0.2128906,0.359375-0.3476563v-0.546875
				h-0.6513672c-0.25,0-0.4472656,0.0566406-0.59375,0.171875c-0.1455078,0.1142578-0.2177734,0.2539063-0.2177734,0.4179688
				c0,0.1455078,0.0449219,0.2568359,0.1357422,0.3330078C53.2578125,60.6923828,53.3955078,60.7314453,53.5791016,60.7314453z"/>
			<path class="st2" d="M57.2285156,59.2304688c0.2148438,0,0.3681641-0.0400391,0.4599609-0.1210938
				c0.0927734-0.0810547,0.1386719-0.1982422,0.1386719-0.3515625c0-0.1396484-0.0527344-0.2578125-0.1582031-0.3535156
				c-0.1054688-0.0966797-0.265625-0.1445313-0.4804688-0.1445313c-0.1923828,0-0.3535156,0.0498047-0.484375,0.1503906
				c-0.1298828,0.1005859-0.1953125,0.2226563-0.1953125,0.3662109h-0.5791016l-0.0058594-0.0185547
				c-0.0126953-0.2851563,0.1035156-0.5175781,0.3496094-0.6962891c0.2460938-0.1796875,0.5507813-0.2695313,0.9150391-0.2695313
				c0.3925781,0,0.6992188,0.0839844,0.9208984,0.2509766c0.2207031,0.1669922,0.3310547,0.4052734,0.3310547,0.7148438
				c0,0.1494141-0.0449219,0.2871094-0.1357422,0.4121094c-0.0917969,0.125-0.21875,0.2226563-0.3818359,0.2949219
				c0.1884766,0.0654297,0.3320313,0.1630859,0.4306641,0.2929688c0.0996094,0.1308594,0.1494141,0.2900391,0.1494141,0.4785156
				c0,0.3115234-0.1210938,0.5546875-0.3613281,0.7314453c-0.2412109,0.1757813-0.5585938,0.2646484-0.953125,0.2646484
				c-0.3662109,0-0.6796875-0.0878906-0.9414063-0.2636719c-0.2617188-0.1748047-0.3867188-0.4287109-0.3759766-0.7607422
				l0.0058594-0.0175781h0.5800781c0,0.1552734,0.0673828,0.2910156,0.2041016,0.4052734
				c0.1367188,0.1152344,0.3125,0.171875,0.5273438,0.171875c0.2207031,0,0.3925781-0.0507813,0.5146484-0.1523438
				c0.1220703-0.1005859,0.1826172-0.2275391,0.1826172-0.3789063c0-0.1787109-0.0537109-0.3085938-0.1591797-0.390625
				c-0.1074219-0.0820313-0.2724609-0.1230469-0.4980469-0.1230469h-0.5830078v-0.4921875H57.2285156z"/>
			<path class="st2" d="M61.3085938,61.1738281c-0.0185547-0.0908203-0.0332031-0.1708984-0.0439453-0.2431641
				c-0.0097656-0.0712891-0.0175781-0.1435547-0.0214844-0.2148438c-0.1181641,0.1494141-0.2646484,0.2734375-0.4414063,0.3730469
				s-0.3652344,0.1494141-0.5664063,0.1494141c-0.3486328,0-0.6142578-0.0849609-0.7958984-0.2539063
				c-0.1826172-0.1689453-0.2734375-0.4072266-0.2734375-0.7148438c0-0.3154297,0.1289063-0.5585938,0.3857422-0.7294922
				c0.2578125-0.1708984,0.6103516-0.2568359,1.0585938-0.2568359h0.6298828v-0.3876953
				c0-0.1943359-0.0625-0.3486328-0.1865234-0.4619141c-0.1240234-0.1142578-0.2958984-0.1708984-0.5175781-0.1708984
				c-0.1523438,0-0.2871094,0.0195313-0.4042969,0.0585938s-0.2109375,0.0917969-0.2832031,0.1591797l-0.0654297,0.3505859
				h-0.4716797v-0.6455078c0.1533203-0.1201172,0.3378906-0.2177734,0.5556641-0.2900391
				c0.2167969-0.0732422,0.4521484-0.109375,0.7060547-0.109375c0.3808594,0,0.6884766,0.0966797,0.9238281,0.2890625
				c0.2363281,0.1923828,0.3535156,0.46875,0.3535156,0.8271484v1.6015625c0,0.0429688,0.0009766,0.0849609,0.0019531,0.1259766
				s0.0039063,0.0820313,0.0078125,0.1230469l0.2480469,0.0332031v0.3876953H61.3085938z M60.3251953,60.7314453
				c0.203125,0,0.3876953-0.0488281,0.5556641-0.1445313c0.1669922-0.0966797,0.2871094-0.2128906,0.359375-0.3476563v-0.546875
				h-0.6513672c-0.25,0-0.4472656,0.0566406-0.59375,0.171875c-0.1455078,0.1142578-0.2177734,0.2539063-0.2177734,0.4179688
				c0,0.1455078,0.0449219,0.2568359,0.1357422,0.3330078C60.0039063,60.6923828,60.1416016,60.7314453,60.3251953,60.7314453z"/>
		</g>
		<path class="st3" d="M31.7870636,78.9163361c-0.0916157-0.0001984-0.1396866-0.0003052-0.1396866-0.0003052l-0.0391407-15.5419617
			c0,0-0.0000668-0.0264893-0.0001335-0.0529785c0.0282974,0.000061,0.0565948,0.0001221,0.0565948,0.0001221l21.6945515,0.0478134
			c0,0,0.0124245,0.0000267,0.034481,0.0000763c0.0053062,2.1060257,0.0384293,15.2590637,0.0384293,15.2590637
			s0.0004234,0.1679382,0.0008469,0.3358765c-0.045536-0.0000992-0.0910759-0.0001984-0.0910759-0.0001984
			S33.6417198,78.9204254,31.7870636,78.9163361z"/>
		<g>
			<path class="st2" d="M37.7871094,69.5566406c-0.152832,0.1582031-0.3779297,0.3076172-0.6757813,0.4482422
				s-0.6845703,0.2109375-1.1611328,0.2109375c-0.6958008,0-1.2631836-0.2421875-1.7026367-0.7265625
				c-0.4394531-0.4833984-0.6591797-1.1123047-0.6591797-1.8847656v-0.0849609c0-0.7763672,0.2172852-1.40625,0.6518555-1.8876953
				c0.4345703-0.4824219,1.0131836-0.7236328,1.7348633-0.7236328c0.3862305,0,0.7246094,0.0605469,1.0166016,0.1796875
				s0.5380859,0.2763672,0.737793,0.4726563v0.9355469h-0.4931641l-0.1713867-0.7119141
				c-0.1166992-0.0947266-0.2578125-0.1728516-0.4233398-0.234375s-0.3637695-0.0917969-0.5952148-0.0917969
				c-0.5620117,0-0.9951172,0.1904297-1.2988281,0.5722656c-0.3037109,0.3808594-0.4555664,0.875-0.4555664,1.4824219v0.0917969
				c0,0.6171875,0.1469727,1.1152344,0.4414063,1.4951172c0.2944336,0.3808594,0.699707,0.5703125,1.2167969,0.5703125
				c0.2832031,0,0.515625-0.0292969,0.6967773-0.0878906c0.1811523-0.0595703,0.3261719-0.1240234,0.4360352-0.1953125v-1.1298828
				l-0.8540039-0.0351563v-0.5136719h1.5581055V69.5566406z"/>
		</g>
		<g>
			<path class="st2" d="M41.7050781,65.5419922l-0.4750977,0.0751953l1.1650391,3.3515625l0.1176758,0.4072266h0.0214844
				l0.1181641-0.4072266l1.1611328-3.3554688l-0.4682617-0.0712891v-0.4492188h1.6401367v0.4492188l-0.4179688,0.0566406
				l-1.7436523,4.6523438h-0.6040039l-1.7436523-4.6523438l-0.4145508-0.0566406v-0.4492188h1.6435547V65.5419922z"/>
		</g>
		<g>
			<path class="st2" d="M51.5175781,66.6162109h-0.5322266l-0.1328125-0.7373047
				c-0.1074219-0.0898438-0.25-0.1640625-0.4287109-0.2236328c-0.1787109-0.0585938-0.3857422-0.0878906-0.6220703-0.0878906
				c-0.3740234,0-0.6611328,0.078125-0.8603516,0.2353516c-0.2001953,0.1572266-0.3007813,0.3623047-0.3007813,0.6142578
				c0,0.2246094,0.1015625,0.4121094,0.3056641,0.5625c0.2041016,0.1494141,0.5332031,0.28125,0.9882813,0.3945313
				c0.5478516,0.1347656,0.9638672,0.3330078,1.2490234,0.5957031c0.2841797,0.2617188,0.4267578,0.5869141,0.4267578,0.9736328
				c0,0.4160156-0.1708984,0.75-0.5126953,1.0029297s-0.7890625,0.3789063-1.3417969,0.3789063
				c-0.4003906,0-0.7558594-0.0644531-1.0664063-0.1943359c-0.3115234-0.1298828-0.5644531-0.2998047-0.7597656-0.5107422
				v-0.9599609h0.5292969l0.1357422,0.7402344c0.1357422,0.1113281,0.2978516,0.2021484,0.4853516,0.2734375
				c0.1884766,0.0703125,0.4130859,0.1054688,0.6757813,0.1054688c0.3544922,0,0.6357422-0.0742188,0.8417969-0.2226563
				s0.3085938-0.3505859,0.3085938-0.6054688c0-0.2363281-0.0888672-0.4345703-0.2675781-0.59375
				s-0.4951172-0.2939453-0.9472656-0.4023438c-0.5507813-0.1298828-0.9804688-0.3212891-1.2900391-0.5742188
				c-0.3095703-0.2519531-0.4648438-0.5703125-0.4648438-0.953125c0-0.4033203,0.1728516-0.7392578,0.5185547-1.0078125
				c0.3457031-0.2675781,0.7939453-0.4023438,1.3466797-0.4023438c0.3652344,0,0.6962891,0.0625,0.9951172,0.1865234
				c0.2998047,0.1240234,0.5390625,0.2744141,0.7207031,0.4511719V66.6162109z"/>
		</g>
		<line class="st3" x1="46.1379547" y1="63.3535767" x2="46.1379547" y2="78.9475021"/>
		<line class="st3" x1="38.901413" y1="63.3376312" x2="38.901413" y2="78.9304962"/>
	</g>
	<g id="Слой_11">
		<path class="st4" d="M31.6355934,78.9161072h-7.3102989c0-1.0103149,0-15.5386581,0-15.5386581s0-0.0281792,0-0.0563583
			c0.678524,0,1.357048,0,1.357048,0h5.8794937"/>
		<path class="st4" d="M53.4330063,63.3690262h7.3102989c0,1.0103149,0,15.5386581,0,15.5386581s0,0.0281754,0,0.0563583
			c-0.678524,0-1.357048,0-1.357048,0h-5.8794937"/>
		<g>
			<rect x="54.6982269" y="61.1330185" class="st5" width="8.3896484" height="9.9697266"/>
			<path class="st2" d="M58.9755859,70.9287109h-0.3076172l-0.0683594-0.4013672h-2.7998047l-0.0683594,0.4013672h-0.3105469
				v-2.7529297h0.8544922v0.4160156l-0.4755859,0.0390625v1.4121094h1.1494141v-1.3720703h0.3779297v1.3720703h1.2724609v-1.4414063
				L58.1240234,68.5625v-0.4140625h0.8515625V70.9287109z"/>
			<path class="st2" d="M55.4208984,64.2011719h0.3105469l0.0683594,0.4023438h3.1757813v0.484375l-2.7441406,1.7236328
				l0.0048828,0.0146484h2.3632813l0.0683594-0.4003906h0.3076172v1.2871094h-0.3076172l-0.0683594-0.4013672h-2.7998047
				l-0.0683594,0.4013672h-0.3105469v-0.4013672v-0.4853516l2.7421875-1.7236328l-0.0058594-0.0146484h-2.3574219
				l-0.0683594,0.4013672h-0.3105469v-0.8857422V64.2011719z"/>
		</g>
		<path class="st6" d="M30.3328495,74.9196472c0,1.2273636-1.0018463,2.2224808-2.2397404,2.2224808
			c-1.2378922,0-2.2415409-0.9951172-2.2415409-2.2224808c0-1.227356,1.0036488-2.2224731,2.2415409-2.2224731
			C29.3310032,72.6971741,30.3328495,73.6922913,30.3328495,74.9196472z"/>
		<g>
			<path class="st2" d="M35.7832031,80.0625c0.3588867,0,0.640625,0.0810547,0.8447266,0.2441406
				c0.2045898,0.1630859,0.3066406,0.3876953,0.3066406,0.6748047c0,0.1582031-0.0429688,0.2958984-0.128418,0.4121094
				s-0.2104492,0.2099609-0.3754883,0.2822266c0.1865234,0.0546875,0.3208008,0.1455078,0.402832,0.2724609
				c0.081543,0.1269531,0.1225586,0.2841797,0.1225586,0.4726563v0.1591797c0,0.0693359,0.0136719,0.1220703,0.0415039,0.1601563
				c0.0273438,0.0380859,0.0732422,0.0605469,0.1367188,0.0683594l0.078125,0.0107422v0.3789063h-0.328125
				c-0.2070313,0-0.3525391-0.0556641-0.4365234-0.1660156s-0.1259766-0.2529297-0.1259766-0.4287109v-0.1787109
				c0-0.1523438-0.0410156-0.2714844-0.1225586-0.3583984c-0.0820313-0.0869141-0.1972656-0.1328125-0.3466797-0.1367188h-0.519043
				v0.8271484l0.3388672,0.0644531v0.3769531h-1.3100586v-0.3769531l0.3369141-0.0644531v-2.2509766l-0.3369141-0.0644531V80.0625
				h0.3369141H35.7832031z M35.3334961,81.4453125h0.4389648c0.1762695,0,0.309082-0.0380859,0.3974609-0.1123047
				s0.1323242-0.1826172,0.1323242-0.3232422s-0.0439453-0.2529297-0.1313477-0.3369141
				c-0.0878906-0.0839844-0.2167969-0.1259766-0.3876953-0.1259766h-0.449707V81.4453125z"/>
			<path class="st2" d="M38.6938477,80.0625v0.3789063l-0.3388672,0.0644531v1.6367188
				c0,0.2070313,0.0561523,0.3613281,0.168457,0.4648438c0.1123047,0.1025391,0.2661133,0.1533203,0.4614258,0.1533203
				c0.1987305,0,0.3544922-0.0507813,0.4672852-0.1523438c0.112793-0.1025391,0.1694336-0.2578125,0.1694336-0.4658203v-1.6367188
				l-0.3369141-0.0644531V80.0625h1.3100586v0.3789063l-0.3388672,0.0644531v1.6367188
				c0,0.3525391-0.1166992,0.6230469-0.3505859,0.8144531s-0.5410156,0.2861328-0.9204102,0.2861328
				c-0.3779297,0-0.6831055-0.0947266-0.9155273-0.2861328s-0.3486328-0.4619141-0.3486328-0.8144531v-1.6367188
				l-0.3364258-0.0644531V80.0625h0.3364258h0.6342773H38.6938477z"/>
			<path class="st2" d="M43.1845703,81.0634766h-0.4760742l-0.0825195-0.4306641
				c-0.0546875-0.0341797-0.1352539-0.0644531-0.2407227-0.0898438c-0.105957-0.0263672-0.2182617-0.0390625-0.3369141-0.0390625
				c-0.1738281,0-0.3081055,0.0361328-0.402832,0.1083984c-0.0952148,0.0722656-0.1425781,0.1660156-0.1425781,0.28125
				c0,0.1064453,0.0498047,0.1933594,0.1489258,0.2617188s0.2705078,0.140625,0.5136719,0.2167969
				c0.3491211,0.0957031,0.6137695,0.2226563,0.7939453,0.3808594c0.1806641,0.1582031,0.2705078,0.3652344,0.2705078,0.6220703
				c0,0.2685547-0.1069336,0.4804688-0.3212891,0.6357422s-0.4970703,0.2324219-0.847168,0.2324219
				c-0.2509766,0-0.4770508-0.0390625-0.6791992-0.1181641c-0.2016602-0.0791016-0.3701172-0.1884766-0.5048828-0.3271484
				v-0.6552734h0.4907227l0.0673828,0.4462891c0.0639648,0.0517578,0.1503906,0.0947266,0.2597656,0.1279297
				c0.109375,0.0341797,0.2314453,0.0507813,0.3662109,0.0507813c0.1738281,0,0.3056641-0.0351563,0.3964844-0.1054688
				c0.090332-0.0703125,0.1357422-0.1650391,0.1357422-0.2822266c0-0.1210938-0.043457-0.2177734-0.1293945-0.2910156
				c-0.0864258-0.0732422-0.2373047-0.1416016-0.453125-0.2070313c-0.375-0.1074219-0.6586914-0.2353516-0.8515625-0.3828125
				c-0.1923828-0.1484375-0.2885742-0.3505859-0.2885742-0.6074219c0-0.2539063,0.1083984-0.4619141,0.3256836-0.6240234
				c0.2172852-0.1611328,0.4902344-0.2441406,0.8188477-0.2480469c0.2431641,0,0.4648438,0.0361328,0.6650391,0.109375
				c0.199707,0.0732422,0.3676758,0.1708984,0.5039063,0.2929688V81.0634766z"/>
			<path class="st2" d="M45.8828125,81.0634766h-0.4746094l-0.0839844-0.4306641
				c-0.0546875-0.0341797-0.1347656-0.0644531-0.2402344-0.0898438c-0.1054688-0.0263672-0.21875-0.0390625-0.3378906-0.0390625
				c-0.1738281,0-0.3066406,0.0361328-0.4023438,0.1083984c-0.0947266,0.0722656-0.1425781,0.1660156-0.1425781,0.28125
				c0,0.1064453,0.0507813,0.1933594,0.1494141,0.2617188s0.2705078,0.140625,0.5146484,0.2167969
				c0.3476563,0.0957031,0.6132813,0.2226563,0.7929688,0.3808594s0.2714844,0.3652344,0.2714844,0.6220703
				c0,0.2685547-0.1074219,0.4804688-0.3222656,0.6357422s-0.4960938,0.2324219-0.8476563,0.2324219
				c-0.25,0-0.4765625-0.0390625-0.6787109-0.1181641s-0.3706055-0.1884766-0.5053711-0.3271484v-0.6552734h0.4907227
				l0.0673828,0.4462891c0.0644531,0.0517578,0.1513672,0.0947266,0.2607422,0.1279297
				c0.109375,0.0341797,0.2304688,0.0507813,0.3652344,0.0507813c0.1738281,0,0.3066406-0.0351563,0.3964844-0.1054688
				s0.1367188-0.1650391,0.1367188-0.2822266c0-0.1210938-0.0429688-0.2177734-0.1308594-0.2910156
				c-0.0859375-0.0732422-0.2363281-0.1416016-0.4511719-0.2070313c-0.3759766-0.1074219-0.6601563-0.2353516-0.8530273-0.3828125
				c-0.1923828-0.1484375-0.2885742-0.3505859-0.2885742-0.6074219c0-0.2539063,0.1083984-0.4619141,0.3256836-0.6240234
				c0.2172852-0.1611328,0.4897461-0.2441406,0.8198242-0.2480469c0.2421875,0,0.4648438,0.0361328,0.6640625,0.109375
				s0.3671875,0.1708984,0.5039063,0.2929688V81.0634766z"/>
			<path class="st2" d="M46.1757813,80.4414063V80.0625h1.3105469v0.3789063l-0.3388672,0.0644531v2.2509766l0.3388672,0.0644531
				v0.3769531h-1.3105469v-0.3769531l0.3388672-0.0644531v-2.2509766L46.1757813,80.4414063z"/>
			<path class="st2" d="M47.6943359,82.8212891l0.2265625-0.0322266L48.8828125,80.0625h0.6494141l0.9560547,2.7265625
				l0.2255859,0.0322266v0.3769531h-1.0771484v-0.3769531l0.2197266-0.0390625l-0.1396484-0.4306641h-1.0253906
				l-0.1386719,0.4306641l0.2197266,0.0390625v0.3769531h-1.078125V82.8212891z M48.8417969,81.8886719h0.7255859
				l-0.3564453-1.1044922h-0.0126953L48.8417969,81.8886719z"/>
		</g>
		<ellipse class="st7" cx="28.0922089" cy="74.9196472" rx="1.5316002" ry="1.5185714"/>
		<rect x="18.4177265" y="63.022377" class="st2" width="4.706789" height="4.706789"/>
		<g>
			<path class="st8" d="M19.324707,66.7578125l0.2255859-0.03125l1.0629883-2.7226563h0.3530273l1.0439453,2.7226563
				l0.2236328,0.03125v0.2607422h-0.8730469v-0.2607422L21.590332,66.71875l-0.2001953-0.5556641h-1.2172852L19.9658203,66.71875
				l0.2299805,0.0390625v0.2607422H19.324707V66.7578125z M20.2998047,65.8222656h0.9648438l-0.4716797-1.2949219h-0.0126953
				L20.2998047,65.8222656z"/>
		</g>
		<path class="st3" d="M45.590477,66.8795624"/>
		<path class="st3" d="M45.5454292,49.0140152"/>
		<path class="st6" d="M37.5611954,74.9196472c0,1.2273636-1.0018463,2.2224808-2.2397385,2.2224808
			s-2.2415428-0.9951172-2.2415428-2.2224808c0-1.227356,1.0036507-2.2224731,2.2415428-2.2224731
			S37.5611954,73.6922913,37.5611954,74.9196472z"/>
		<ellipse class="st7" cx="35.3205528" cy="74.9196472" rx="1.5316002" ry="1.5185714"/>
		<path class="st6" d="M44.7611961,74.9196472c0,1.2273636-1.0018463,2.2224808-2.2397385,2.2224808
			s-2.2415428-0.9951172-2.2415428-2.2224808c0-1.227356,1.0036507-2.2224731,2.2415428-2.2224731
			S44.7611961,73.6922913,44.7611961,74.9196472z"/>
		<ellipse class="st7" cx="42.5205536" cy="74.9196472" rx="1.5316002" ry="1.5185714"/>
		<path class="st6" d="M51.3486252,73.2907333c1.5395126,2.0229111-0.1709862,4.2713013-2.1831703,3.7839966
			c-0.7743721-0.1875305-1.4096413-0.8210754-1.5987854-1.5950546
			C47.0750771,73.4680405,49.3241386,71.7503281,51.3486252,73.2907333z"/>
		<ellipse class="st7" cx="49.7205544" cy="74.9196472" rx="1.5316002" ry="1.5185714"/>
		<path class="st6" d="M58.5486259,73.2907333c1.5395088,2.0229111-0.1709862,4.2713013-2.1831703,3.7839966
			c-0.7743721-0.1875305-1.4096413-0.8210754-1.5987854-1.5950546
			C54.275074,73.4680405,56.5241356,71.7503281,58.5486259,73.2907333z"/>
		<ellipse class="st7" cx="56.9205551" cy="74.9196472" rx="1.5316002" ry="1.5185714"/>
	</g>
</g>
<g id="J3y">
	<g id="XMLID_6_">
		<g>
			<linearGradient id="SVGID_1_" gradientUnits="userSpaceOnUse" x1="6.0409555" y1="41.0974541" x2="14.5998974" y2="41.0974541">
				<stop  offset="0" style="stop-color:#313131"/>
				<stop  offset="0.0640988" style="stop-color:#313131"/>
				<stop  offset="0.55211" style="stop-color:#313131"/>
				<stop  offset="0.994382" style="stop-color:#666566"/>
			</linearGradient>
			<rect x="6.0409555" y="39.2662354" class="st9" width="8.5589418" height="3.662437"/>
		</g>
		<g>
		</g>
	</g>
	<g id="XMLID_18_">
		<g>
			<rect x="9.3888531" y="36.2130127" class="st1" width="1.6072793" height="2.9478152"/>
		</g>
		<g>
		</g>
	</g>
	<g id="XMLID_16_">
		<g>
			<rect x="12.1223087" y="42.9286728" class="st1" width="1.6811564" height="3.5123663"/>
		</g>
		<g>
		</g>
	</g>
	<g id="XMLID_17_">
		<g>
			<rect x="6.6337748" y="42.9286728" class="st1" width="1.6811564" height="3.5123663"/>
		</g>
		<g>
		</g>
	</g>
	<g>
		<path class="st10" d="M9.3710938,41.4365234c0,0.1591797-0.0493164,0.2822266-0.1474609,0.3691406
			c-0.0981445,0.0859375-0.2294922,0.1289063-0.3945313,0.1289063c-0.0395508,0-0.0917969-0.0029297-0.1577148-0.0097656
			s-0.1206055-0.015625-0.1650391-0.0253906v-0.2255859h0.0136719c0.0336914,0.0107422,0.0751953,0.0224609,0.1245117,0.0351563
			c0.0488281,0.0117188,0.0996094,0.0185547,0.1513672,0.0185547c0.0756836,0,0.1357422-0.0087891,0.1801758-0.0263672
			c0.0449219-0.0166016,0.078125-0.0410156,0.0991211-0.0732422c0.0224609-0.0322266,0.0366211-0.0722656,0.0424805-0.1191406
			c0.0063477-0.0478516,0.0092773-0.1015625,0.0092773-0.1640625v-1.0615234H8.7392578v-0.1923828h0.6318359V41.4365234z"/>
		<path class="st10" d="M10.8779297,41.0332031c0.0390625,0.0351563,0.0717773,0.0791016,0.097168,0.1318359
			c0.0253906,0.0537109,0.0380859,0.1220703,0.0380859,0.2050781c0,0.0839844-0.0151367,0.1591797-0.0454102,0.2285156
			c-0.0307617,0.0693359-0.0732422,0.1298828-0.128418,0.1806641c-0.0615234,0.0576172-0.1337891,0.0996094-0.2172852,0.1269531
			s-0.1748047,0.0410156-0.2739258,0.0410156c-0.1020508,0-0.2021484-0.0126953-0.3007813-0.0361328
			c-0.0986328-0.0244141-0.1791992-0.0507813-0.2426758-0.0791016v-0.2548828h0.0185547
			c0.0698242,0.0458984,0.1518555,0.0830078,0.246582,0.1132813c0.0942383,0.0302734,0.1855469,0.0449219,0.2734375,0.0449219
			c0.0517578,0,0.1064453-0.0078125,0.1650391-0.0253906c0.0581055-0.0166016,0.1054688-0.0419922,0.1416016-0.0751953
			c0.0375977-0.0361328,0.065918-0.0751953,0.0844727-0.1191406c0.0180664-0.0429688,0.0273438-0.0976563,0.0273438-0.1630859
			s-0.0102539-0.1191406-0.03125-0.1621094s-0.0498047-0.0761719-0.0869141-0.1005859
			c-0.0366211-0.0253906-0.081543-0.0429688-0.1342773-0.0517578c-0.0522461-0.0097656-0.1088867-0.0146484-0.1699219-0.0146484
			h-0.1108398v-0.2021484h0.0864258c0.1245117,0,0.2241211-0.0263672,0.2983398-0.078125
			c0.074707-0.0517578,0.1118164-0.1269531,0.1118164-0.2265625c0-0.0439453-0.0097656-0.0820313-0.0283203-0.1152344
			c-0.019043-0.0332031-0.0454102-0.0595703-0.0791016-0.0810547c-0.0351563-0.0214844-0.0727539-0.0361328-0.1132813-0.0439453
			c-0.0400391-0.0078125-0.0859375-0.0126953-0.1367188-0.0126953c-0.078125,0-0.1611328,0.0146484-0.2485352,0.0419922
			c-0.0878906,0.0273438-0.1708984,0.0664063-0.2490234,0.1171875h-0.012207v-0.2548828
			c0.0581055-0.0292969,0.1362305-0.0546875,0.2333984-0.0791016s0.1914063-0.0361328,0.2827148-0.0361328
			c0.0893555,0,0.1679688,0.0078125,0.2363281,0.0244141s0.1298828,0.0419922,0.1845703,0.078125
			c0.0595703,0.0390625,0.1040039,0.0869141,0.1342773,0.1416016c0.0307617,0.0556641,0.0458984,0.1201172,0.0458984,0.1943359
			c0,0.1005859-0.0361328,0.1894531-0.1079102,0.2646484s-0.1567383,0.1230469-0.2543945,0.1425781v0.0166016
			c0.0395508,0.0068359,0.0844727,0.0205078,0.1357422,0.0410156
			C10.7993164,40.9765625,10.8422852,41.0029297,10.8779297,41.0332031z"/>
		<path class="st10" d="M12.7470703,40.0908203l-0.6450195,1.0205078v0.7978516h-0.2441406v-0.7714844l-0.6479492-1.046875
			h0.2700195l0.5009766,0.8134766l0.5063477-0.8134766H12.7470703z"/>
	</g>
</g>
<g id="Резистор">
	<g>
		<g id="XMLID_22_">
			<g>
				<rect x="6.705811" y="56.9186974" class="st11" width="3.4358907" height="4.255477"/>
			</g>
			<g>
			</g>
		</g>
		<g id="XMLID_21_">
			<g>
				<rect x="13.8342667" y="56.8779831" class="st11" width="3.4376609" height="4.255477"/>
			</g>
			<g>
			</g>
		</g>
		<g id="XMLID_20_">
			<g>
				<rect x="9.4380226" y="57.2284737" class="st12" width="5.1633434" height="3.6058266"/>
			</g>
			<g>
			</g>
		</g>
		<g>
			<path class="st10" d="M11.0800781,59.5761719h-0.6967773v-0.1318359h0.2680664v-0.8623047h-0.2680664v-0.1171875
				c0.0361328,0,0.0751953-0.0039063,0.1166992-0.0097656s0.0727539-0.0146484,0.0942383-0.0263672
				c0.0263672-0.0136719,0.0473633-0.0322266,0.0625-0.0546875c0.015625-0.0224609,0.0244141-0.0517578,0.0263672-0.0898438
				h0.1342773v1.1601563h0.2626953V59.5761719z"/>
			<path class="st10" d="M12.1000977,58.9316406c0,0.2314453-0.0361328,0.4013672-0.1083984,0.5087891
				c-0.0722656,0.1083984-0.1845703,0.1621094-0.3369141,0.1621094c-0.1542969,0-0.2670898-0.0546875-0.3383789-0.1640625
				s-0.1064453-0.2773438-0.1064453-0.5048828c0-0.2285156,0.0356445-0.3974609,0.1079102-0.5068359
				c0.0717773-0.109375,0.184082-0.1640625,0.3369141-0.1640625c0.1542969,0,0.2670898,0.0556641,0.3383789,0.1669922
				C12.0644531,58.5400391,12.1000977,58.7080078,12.1000977,58.9316406z M11.8725586,59.3242188
				c0.0205078-0.046875,0.0341797-0.1015625,0.0410156-0.1640625c0.0073242-0.0634766,0.0107422-0.1396484,0.0107422-0.2285156
				c0-0.0869141-0.003418-0.1630859-0.0107422-0.2275391c-0.0068359-0.0644531-0.0209961-0.1191406-0.0419922-0.1640625
				c-0.0200195-0.0449219-0.0473633-0.078125-0.0825195-0.1005859c-0.034668-0.0224609-0.0795898-0.0341797-0.1342773-0.0341797
				c-0.0541992,0-0.0991211,0.0117188-0.1342773,0.0341797c-0.0356445,0.0224609-0.0634766,0.0566406-0.0844727,0.1015625
				c-0.0195313,0.0429688-0.0327148,0.0986328-0.0400391,0.1669922s-0.0107422,0.1435547-0.0107422,0.2255859
				c0,0.0898438,0.0029297,0.1650391,0.0092773,0.2255859s0.0200195,0.1152344,0.0410156,0.1630859
				c0.0185547,0.0449219,0.0458984,0.0791016,0.0805664,0.1025391s0.0810547,0.0351563,0.1386719,0.0351563
				c0.0541992,0,0.0991211-0.0107422,0.1347656-0.0332031S11.8530273,59.3701172,11.8725586,59.3242188z"/>
			<path class="st10" d="M13.0488281,58.9316406c0,0.2314453-0.0361328,0.4013672-0.1083984,0.5087891
				c-0.0722656,0.1083984-0.1845703,0.1621094-0.3369141,0.1621094c-0.1542969,0-0.2670898-0.0546875-0.3383789-0.1640625
				s-0.1064453-0.2773438-0.1064453-0.5048828c0-0.2285156,0.0356445-0.3974609,0.1079102-0.5068359
				c0.0717773-0.109375,0.184082-0.1640625,0.3369141-0.1640625c0.1542969,0,0.2670898,0.0556641,0.3383789,0.1669922
				C13.0131836,58.5400391,13.0488281,58.7080078,13.0488281,58.9316406z M12.8212891,59.3242188
				c0.0205078-0.046875,0.0341797-0.1015625,0.0410156-0.1640625c0.0073242-0.0634766,0.0107422-0.1396484,0.0107422-0.2285156
				c0-0.0869141-0.003418-0.1630859-0.0107422-0.2275391c-0.0068359-0.0644531-0.0209961-0.1191406-0.0419922-0.1640625
				c-0.0200195-0.0449219-0.0473633-0.078125-0.0825195-0.1005859c-0.034668-0.0224609-0.0795898-0.0341797-0.1342773-0.0341797
				c-0.0541992,0-0.0991211,0.0117188-0.1342773,0.0341797c-0.0356445,0.0224609-0.0634766,0.0566406-0.0844727,0.1015625
				c-0.0195313,0.0429688-0.0327148,0.0986328-0.0400391,0.1669922s-0.0107422,0.1435547-0.0107422,0.2255859
				c0,0.0898438,0.0029297,0.1650391,0.0092773,0.2255859s0.0200195,0.1152344,0.0410156,0.1630859
				c0.0185547,0.0449219,0.0458984,0.0791016,0.0805664,0.1025391s0.0810547,0.0351563,0.1386719,0.0351563
				c0.0541992,0,0.0991211-0.0107422,0.1347656-0.0332031S12.8017578,59.3701172,12.8212891,59.3242188z"/>
			<path class="st10" d="M13.9985352,59.5761719h-0.8710938v-0.1806641c0.0605469-0.0517578,0.1210938-0.1035156,0.1821289-0.15625
				c0.0605469-0.0517578,0.1171875-0.1025391,0.1694336-0.1542969c0.1108398-0.1074219,0.1865234-0.1923828,0.2275391-0.2558594
				c0.0410156-0.0625,0.0615234-0.1308594,0.0615234-0.2041016c0-0.0664063-0.0219727-0.1191406-0.0664063-0.15625
				c-0.0439453-0.0380859-0.1054688-0.0566406-0.1845703-0.0566406c-0.0522461,0-0.1088867,0.0087891-0.1699219,0.0273438
				s-0.1210938,0.046875-0.1791992,0.0849609h-0.0087891v-0.1816406c0.0410156-0.0205078,0.0957031-0.0390625,0.1640625-0.0556641
				s0.1342773-0.0253906,0.1982422-0.0253906c0.1318359,0,0.2353516,0.0322266,0.3105469,0.0957031
				c0.074707,0.0634766,0.1123047,0.1503906,0.1123047,0.2587891c0,0.0488281-0.0063477,0.0947266-0.0185547,0.1376953
				c-0.0126953,0.0419922-0.0307617,0.0820313-0.0551758,0.1201172c-0.0224609,0.0361328-0.0488281,0.0712891-0.0791016,0.1054688
				s-0.0668945,0.0732422-0.1098633,0.1152344c-0.0620117,0.0605469-0.1254883,0.1191406-0.1914063,0.1757813
				c-0.0654297,0.0566406-0.1269531,0.109375-0.184082,0.1572266h0.6923828V59.5761719z"/>
		</g>
	</g>
	<g>
		<g id="XMLID_25_">
			<g>
				<rect x="6.67483" y="49.6914482" class="st11" width="3.4358907" height="4.255477"/>
			</g>
			<g>
			</g>
		</g>
		<g id="XMLID_24_">
			<g>
				<rect x="13.8032856" y="49.6507339" class="st11" width="3.4376609" height="4.255477"/>
			</g>
			<g>
			</g>
		</g>
		<g id="XMLID_23_">
			<g>
				<rect x="9.4070415" y="50.0012245" class="st12" width="5.1633434" height="3.6058266"/>
			</g>
			<g>
			</g>
		</g>
		<g>
			<path class="st10" d="M11.0498047,52.3486328h-0.6967773v-0.1318359h0.2680664v-0.8623047h-0.2680664v-0.1171875
				c0.0361328,0,0.0751953-0.0039063,0.1166992-0.0097656s0.0727539-0.0146484,0.0942383-0.0263672
				c0.0263672-0.0136719,0.0473633-0.0322266,0.0625-0.0546875c0.015625-0.0224609,0.0244141-0.0517578,0.0263672-0.0898438
				h0.1342773v1.1601563h0.2626953V52.3486328z"/>
			<path class="st10" d="M12.0698242,51.7041016c0,0.2314453-0.0361328,0.4013672-0.1083984,0.5087891
				C11.8891602,52.3212891,11.7768555,52.375,11.6245117,52.375c-0.1542969,0-0.2670898-0.0546875-0.3383789-0.1640625
				s-0.1064453-0.2773438-0.1064453-0.5048828c0-0.2285156,0.0356445-0.3974609,0.1079102-0.5068359
				c0.0717773-0.109375,0.184082-0.1640625,0.3369141-0.1640625c0.1542969,0,0.2670898,0.0556641,0.3383789,0.1669922
				C12.0341797,51.3125,12.0698242,51.4804688,12.0698242,51.7041016z M11.8422852,52.0966797
				c0.0205078-0.046875,0.0341797-0.1015625,0.0410156-0.1640625c0.0073242-0.0634766,0.0107422-0.1396484,0.0107422-0.2285156
				c0-0.0869141-0.003418-0.1630859-0.0107422-0.2275391c-0.0068359-0.0644531-0.0209961-0.1191406-0.0419922-0.1640625
				c-0.0200195-0.0449219-0.0473633-0.078125-0.0825195-0.1005859c-0.034668-0.0224609-0.0795898-0.0341797-0.1342773-0.0341797
				c-0.0541992,0-0.0991211,0.0117188-0.1342773,0.0341797c-0.0356445,0.0224609-0.0634766,0.0566406-0.0844727,0.1015625
				c-0.0195313,0.0429688-0.0327148,0.0986328-0.0400391,0.1669922s-0.0107422,0.1435547-0.0107422,0.2255859
				c0,0.0898438,0.0029297,0.1650391,0.0092773,0.2255859s0.0200195,0.1152344,0.0410156,0.1630859
				c0.0185547,0.0449219,0.0458984,0.0791016,0.0805664,0.1025391s0.0810547,0.0351563,0.1386719,0.0351563
				c0.0541992,0,0.0991211-0.0107422,0.1347656-0.0332031S11.8227539,52.1425781,11.8422852,52.0966797z"/>
			<path class="st10" d="M13.0185547,51.7041016c0,0.2314453-0.0361328,0.4013672-0.1083984,0.5087891
				C12.8378906,52.3212891,12.7255859,52.375,12.5732422,52.375c-0.1542969,0-0.2670898-0.0546875-0.3383789-0.1640625
				s-0.1064453-0.2773438-0.1064453-0.5048828c0-0.2285156,0.0356445-0.3974609,0.1079102-0.5068359
				c0.0717773-0.109375,0.184082-0.1640625,0.3369141-0.1640625c0.1542969,0,0.2670898,0.0556641,0.3383789,0.1669922
				C12.9829102,51.3125,13.0185547,51.4804688,13.0185547,51.7041016z M12.7910156,52.0966797
				c0.0205078-0.046875,0.0341797-0.1015625,0.0410156-0.1640625c0.0073242-0.0634766,0.0107422-0.1396484,0.0107422-0.2285156
				c0-0.0869141-0.003418-0.1630859-0.0107422-0.2275391c-0.0068359-0.0644531-0.0209961-0.1191406-0.0419922-0.1640625
				c-0.0200195-0.0449219-0.0473633-0.078125-0.0825195-0.1005859c-0.034668-0.0224609-0.0795898-0.0341797-0.1342773-0.0341797
				c-0.0541992,0-0.0991211,0.0117188-0.1342773,0.0341797c-0.0356445,0.0224609-0.0634766,0.0566406-0.0844727,0.1015625
				c-0.0195313,0.0429688-0.0327148,0.0986328-0.0400391,0.1669922s-0.0107422,0.1435547-0.0107422,0.2255859
				c0,0.0898438,0.0029297,0.1650391,0.0092773,0.2255859s0.0200195,0.1152344,0.0410156,0.1630859
				c0.0185547,0.0449219,0.0458984,0.0791016,0.0805664,0.1025391s0.0810547,0.0351563,0.1386719,0.0351563
				c0.0541992,0,0.0991211-0.0107422,0.1347656-0.0332031S12.7714844,52.1425781,12.7910156,52.0966797z"/>
			<path class="st10" d="M13.9682617,52.3486328H13.097168v-0.1806641c0.0605469-0.0517578,0.1210938-0.1035156,0.1821289-0.15625
				c0.0605469-0.0517578,0.1171875-0.1025391,0.1694336-0.1542969c0.1108398-0.1074219,0.1865234-0.1923828,0.2275391-0.2558594
				c0.0410156-0.0625,0.0615234-0.1308594,0.0615234-0.2041016c0-0.0664063-0.0219727-0.1191406-0.0664063-0.15625
				c-0.0439453-0.0380859-0.1054688-0.0566406-0.1845703-0.0566406c-0.0522461,0-0.1088867,0.0087891-0.1699219,0.0273438
				s-0.1210938,0.046875-0.1791992,0.0849609h-0.0087891v-0.1816406c0.0410156-0.0205078,0.0957031-0.0390625,0.1640625-0.0556641
				s0.1342773-0.0253906,0.1982422-0.0253906c0.1318359,0,0.2353516,0.0322266,0.3105469,0.0957031
				c0.074707,0.0634766,0.1123047,0.1503906,0.1123047,0.2587891c0,0.0488281-0.0063477,0.0947266-0.0185547,0.1376953
				c-0.0126953,0.0419922-0.0307617,0.0820313-0.0551758,0.1201172c-0.0224609,0.0361328-0.0488281,0.0712891-0.0791016,0.1054688
				s-0.0668945,0.0732422-0.1098633,0.1152344c-0.0620117,0.0605469-0.1254883,0.1191406-0.1914063,0.1757813
				c-0.0654297,0.0566406-0.1269531,0.109375-0.184082,0.1572266h0.6923828V52.3486328z"/>
		</g>
	</g>
</g>
<g id="MQ">
	<circle class="st13" cx="42.5198402" cy="29.2302914" r="27.6469574"/>
	<circle class="st14" cx="42.5205536" cy="29.2302914" r="22.4722767"/>
	<g class="st15">
		<g>
			<g>
				<g>
					<path class="st16" d="M57.940773,44.8812637c-8.7840729,8.2344666-22.5056877,8.7258682-31.2315559,0
						c-8.5072441-8.5072441-8.5070648-22.7244911,0-31.2315559c8.3813095-8.3813076,22.0319977-8.4442883,30.6940002-0.5039215
						C66.7064056,21.6739178,66.2990952,35.965065,57.940773,44.8812637
						c-0.263916,0.2815323,0.1595078,0.7066917,0.4242668,0.424263c8.4555931-9.0199585,8.9378777-23.1422043,0-32.0800858
						c-8.7501793-8.7501793-23.3357735-8.7443132-32.0800858,0c-8.7424374,8.7424374-8.749424,23.3306637,0,32.0800858
						c8.9380798,8.9380836,23.0611038,8.45467,32.0800858,0C58.6473427,45.0408859,58.2224274,44.6172333,57.940773,44.8812637z"/>
				</g>
			</g>
			<g>
				<g>
					<path class="st16" d="M55.7270546,15.8634281c-7.5966988-7.0343895-19.2628899-7.4859934-26.8041153,0
						c-7.3298988,7.2762146-7.282692,19.5214252,0,26.8041134c7.3019791,7.3019791,19.5009308,7.3031845,26.8041153,0
						C63.2449303,35.1496658,62.7437363,23.4410076,55.7270546,15.8634281
						c-0.2629204-0.2839355-0.6864395,0.1411343-0.4242668,0.4242649c6.8012123,7.3448792,7.254261,18.7013245,0,25.9555855
						c-7.0848923,7.0848923-18.878006,7.0775795-25.9555855,0c-7.0750675-7.0750656-7.0884895-18.8670959,0-25.9555855
						c7.2571754-7.2571745,18.6111069-6.8008423,25.9555855,0C55.5857964,16.5497532,56.0111122,16.1264591,55.7270546,15.8634281z"
						/>
				</g>
			</g>
			<g>
				<g>
					<path class="st16" d="M52.6648026,39.6052933c-5.860096,5.405529-14.873909,5.805706-20.679615,0
						c-5.636879-5.636879-5.6339531-15.0456619,0-20.679615c5.5842171-5.584218,15.1052971-5.7049637,20.679615,0
						C58.4131546,24.8087482,58.1286697,33.6819572,52.6648026,39.6052933
						c-0.2614746,0.2834663,0.1617775,0.708828,0.4242668,0.424263c5.6355858-6.1094971,6.0154686-15.4661083,0-21.5281429
						c-5.8253326-5.8704243-15.7028122-5.8704243-21.5281448,0c-5.8397045,5.8849068-5.879015,15.6491299,0,21.5281429
						c6.0408669,6.0408707,15.4354172,5.6201172,21.5281448,0C53.3735085,39.7671814,52.948391,39.3437042,52.6648026,39.6052933z"
						/>
				</g>
			</g>
			<g>
				<g>
					<path class="st16" d="M50.4510841,21.1393986c-4.6118736-4.2541294-11.6761284-4.5408955-16.2521744,0
						c-4.4312935,4.3972549-4.4312935,11.8549213,0,16.2521763c4.4423141,4.4081879,11.8143005,4.43787,16.2521744,0
						C55.0112038,32.8314514,54.6935844,25.7386608,50.4510841,21.1393986
						c-0.2623787-0.284441-0.6858521,0.1406765-0.4242668,0.4242649c4.0265694,4.3651695,4.3246346,11.0790138,0,15.4036446
						c-4.198864,4.1988678-11.2069511,4.1966934-15.4036446,0c-4.1601028-4.1601028-4.249054-11.2507763,0-15.4036446
						c4.3816185-4.2824345,10.9919167-4.0695152,15.4036446,0C50.3102837,21.82514,50.7356453,21.4018879,50.4510841,21.1393986z"/>
				</g>
			</g>
			<g>
				<g>
					<path class="st16" d="M47.3888359,34.3293228c-2.8702507,2.6476059-7.2841148,2.8435631-10.1276779,0
						c-2.7608566-2.7608547-2.7594376-7.3682384,0-10.127676c2.7359886-2.7359867,7.3962593-2.7931499,10.1276779,0
						C50.205349,27.0818214,50.064003,31.4291916,47.3888359,34.3293228
						c-0.2614784,0.2834663,0.1617737,0.708828,0.424263,0.4242668c2.8726807-3.1142559,3.0663338-7.886137,0-10.9762058
						c-2.9691849-2.9921703-8.007019-2.9921703-10.9762039,0c-2.9766884,2.9997311-2.9967461,7.9794598,0,10.9762058
						c3.07938,3.07938,7.8703957,2.8648911,10.9762039,0C48.097538,34.4912109,47.6724205,34.0677338,47.3888359,34.3293228z"/>
				</g>
			</g>
			<g>
				<g>
					<path class="st16" d="M45.1751137,26.415369c-1.6166801-1.4912739-4.0960999-1.591814-5.7002335,0
						c-1.5530815,1.5411491-1.5530815,4.1590843,0,5.7002354c1.5571861,1.5452232,4.144577,1.5556526,5.7002335,0
						C46.7737885,30.5169258,46.6624298,28.0277576,45.1751137,26.415369
						c-0.2623749-0.284441-0.6858521,0.1406765-0.424263,0.424263c1.2686501,1.3753395,1.3625031,3.4892025,0,4.8517075
						c-1.3228607,1.3228588-3.5295181,1.3221912-4.8517075,0c-1.3118706-1.3118687-1.3372841-3.54175,0-4.8517075
						c1.3787651-1.3505898,3.4631386-1.2808571,4.8517075,0C45.0343132,27.1011105,45.4596748,26.6778584,45.1751137,26.415369z"/>
				</g>
			</g>
		</g>
		<g>
			<g>
				<g>
					<path class="st16" d="M42.1128654,29.4776173c5.2759705,5.2759724,10.5519371,10.551939,15.8279076,15.8279095
						c0.2733841,0.2733841,0.6977654-0.1507607,0.4242668-0.424263
						c-5.2759705-5.2759705-10.5519409-10.5519409-15.8279114-15.8279095
						C42.2637444,28.7799702,41.8393631,29.2041168,42.1128654,29.4776173L42.1128654,29.4776173z"/>
				</g>
			</g>
			<g>
				<g>
					<path class="st16" d="M42.4764099,29.5245266c6.6481133-3.3873806,13.2962227-6.7747631,19.9443321-10.1621437
						c0.3441353-0.1753464,0.0408478-0.6931953-0.3028297-0.5180817
						c-6.6481133,3.3873806-13.2962227,6.7747612-19.9443321,10.1621437
						C41.8294449,29.1817894,42.1327362,29.6996384,42.4764099,29.5245266L42.4764099,29.5245266z"/>
				</g>
			</g>
			<g>
				<g>
					<path class="st16" d="M42.6142807,29.1857338c-1.1672134-7.3694878-2.3344269-14.7389736-3.5016365-22.1084614
						c-0.0602341-0.3802991-0.6384926-0.218854-0.5785675,0.1595039c1.1672096,7.3694873,2.3344231,14.7389736,3.5016365,22.1084614
						C42.0959473,29.7255363,42.6742058,29.5640907,42.6142807,29.1857338L42.6142807,29.1857338z"/>
				</g>
			</g>
			<g>
				<g>
					<path class="st16" d="M42.404747,28.976202c-7.3694878-1.1672115-14.7389736-2.334425-22.1084595-3.5016365
						c-0.3777428-0.0598278-0.5404072,0.5182381-0.1595039,0.5785675c7.3694859,1.1672115,14.7389717,2.334425,22.1084595,3.5016365
						C42.6229858,29.6145973,42.7856522,29.0365314,42.404747,28.976202L42.404747,28.976202z"/>
				</g>
			</g>
			<g>
				<g>
					<path class="st16" d="M42.0659561,29.1140709c-3.3873825,6.6481094-6.774765,13.2962189-10.1621456,19.9443283
						c-0.174942,0.3433418,0.3425465,0.6473389,0.5180836,0.3028336
						c3.3873787-6.6481094,6.7747612-13.2962227,10.1621437-19.9443321
						C42.7589798,29.0735588,42.2414894,28.7695618,42.0659561,29.1140709L42.0659561,29.1140709z"/>
				</g>
			</g>
		</g>
	</g>
	<g class="st15">
		<g>
			<g>
				<g>
					<path class="st16" d="M42.5196877,51.2745323c-11.9777985-0.3582191-22.0090466-9.7416458-22.0090466-22.0090466
						c0-12.0678501,10.0206909-21.914402,22.0090466-22.0090446c11.7589684-0.0928326,21.6066017,9.6648111,21.988636,21.3267403
						C64.9188843,41.1156807,54.7519226,50.9087029,42.5196877,51.2745323c-0.4815369,0.0144005-0.4835815,0.7644615,0,0.75
						c20.8023682-0.6221352,30.9516029-27.104538,14.1925888-40.543766
						c-15.852005-12.7118855-39.7753143,1.2335901-36.6772385,21.2512436
						c1.7340336,11.2041512,11.3493805,18.9594994,22.4846516,19.2925224
						C43.0024681,52.0389709,43.0020218,51.2889557,42.5196877,51.2745323z"/>
				</g>
			</g>
			<g>
				<g>
					<path class="st16" d="M61.5480576,29.2654858c-0.3799782-10.3567467-8.3777122-19.0283699-19.0283699-19.0283699
						c-10.3688622,0-19.0283718,8.6580229-19.0283718,19.0283699c0,10.3418293,8.6600819,19.0647793,19.0283718,19.0283718
						C53.1691513,48.2564583,61.1670113,39.6512871,61.5480576,29.2654858c0.0177116-0.4827023-0.7323151-0.4819736-0.75,0
						c-0.365593,9.9646473-8.0248451,18.2783718-18.2783699,18.2783718c-9.9743347,0-18.2783718-8.304039-18.2783718-18.2783718
						s8.3040371-18.2783699,18.2783718-18.2783699c10.2535248,0,17.9127769,8.3137217,18.2783699,18.2783699
						C60.815712,29.746664,61.5657997,29.7489891,61.5480576,29.2654858z"/>
				</g>
			</g>
			<g>
				<g>
					<path class="st16" d="M42.5196877,43.8131828c-7.9176559-0.3548889-14.5476971-6.3526154-14.5476971-14.5476971
						c0-7.9192276,6.6284695-14.5476971,14.5476971-14.5476971c7.9310608,0,14.5476952,6.6180058,14.5476952,14.5476971
						C57.0673828,37.4716644,50.452034,43.4576378,42.5196877,43.8131828c-0.48069,0.0215454-0.4833527,0.7716637,0,0.75
						c8.3246307-0.3731308,15.2976952-6.6887894,15.2976952-15.2976971c0-8.330267-6.9674263-15.2976971-15.2976952-15.2976971
						c-8.3567276,0-15.2647839,6.9645729-15.2976971,15.2976971c-0.033987,8.6051388,7.0014935,14.9258404,15.2976971,15.2976971
						C43.0022392,44.5848122,43.0011749,43.8347626,42.5196877,43.8131828z"/>
				</g>
			</g>
			<g>
				<g>
					<path class="st16" d="M54.0867119,29.2654858c-0.3379707-6.2862663-5.0065842-11.5670223-11.5670242-11.5670223
						c-6.280529,0-11.5961018,5.2661381-11.5670223,11.5670223c0.0280609,6.0805264,4.8750362,11.2174015,10.9568348,11.5342159
						C48.7046394,41.1536789,53.7355957,35.7962799,54.0867119,29.2654858c0.0259285-0.4823132-0.7241478-0.4808769-0.75,0
						c-0.7443886,13.8457623-21.6340466,13.9769497-21.6340466,0c0-13.9753742,20.8889294-13.8593054,21.6340466,0
						C53.3625221,29.7455692,54.1126823,29.7486,54.0867119,29.2654858z"/>
				</g>
			</g>
			<g>
				<g>
					<path class="st16" d="M42.5196877,36.3518333c-9.0709534-0.4876785-9.1565208-14.1726971,0-14.1726971
						C51.6754608,22.1791363,51.5991974,35.8636932,42.5196877,36.3518333c-0.4800835,0.0258102-0.4831161,0.7759743,0,0.75
						c4.2578735-0.2289162,7.8363495-3.392868,7.8363495-7.8363476c0-4.2540188-3.5686417-7.8559227-7.8363495-7.8363495
						c-4.1206551,0.0189018-7.6036606,3.3075581-7.8144798,7.4295597c-0.2352676,4.6000824,3.3929443,8.0054245,7.8144798,8.2431374
						C43.0019989,37.1277657,43.0005646,36.3776894,42.5196877,36.3518333z"/>
				</g>
			</g>
			<g>
				<g>
					<path class="st16" d="M46.6253624,29.2654858c-0.1198692-2.2295456-1.7790833-4.1056747-4.1056747-4.1056747
						c-2.227562,0-4.1157646,1.8710766-4.1056747,4.1056747c0.009758,2.1609955,1.7400055,3.9897327,3.9022789,4.0947399
						C44.7213821,33.4770203,46.5010529,31.5776539,46.6253624,29.2654858c0.0259285-0.4823132-0.7241478-0.4808769-0.75,0
						c-0.2309761,4.2961559-6.7113495,4.3361034-6.7113495,0c0-4.3361874,6.4801826-4.2997284,6.7113495,0
						C45.9011726,29.7455692,46.6513367,29.7486,46.6253624,29.2654858z"/>
				</g>
			</g>
		</g>
		<g>
			<g>
				<g>
					<path class="st16" d="M42.1446877,29.2654858c0,7.4613476,0,14.9226971,0,22.3840466c0,0.4825897,0.75,0.483387,0.75,0
						c0-7.4613495,0-14.922699,0-22.3840466C42.8946877,28.782896,42.1446877,28.7820969,42.1446877,29.2654858
						L42.1446877,29.2654858z"/>
				</g>
			</g>
			<g>
				<g>
					<path class="st16" d="M42.4199982,29.6270905c7.0961647,2.3056831,14.1923294,4.6113663,21.2884903,6.9170494
						c0.4601059,0.149498,0.6572113-0.5744514,0.1993828-0.7232094c-7.0961647-2.3056831-14.1923294-4.6113663-21.2884941-6.9170494
						C42.1592712,28.7543831,41.9621658,29.4783325,42.4199982,29.6270905L42.4199982,29.6270905z"/>
				</g>
			</g>
			<g>
				<g>
					<path class="st16" d="M42.8434906,29.4547558C47.2291603,23.4183979,51.61483,17.38204,56.0004997,11.3456821
						c0.2840729-0.3909931-0.3663254-0.7656813-0.6476021-0.3785391
						C50.9672279,17.0035,46.5815582,23.0398579,42.1958847,29.0762157
						C41.9118118,29.4672089,42.5622139,29.841898,42.8434906,29.4547558L42.8434906,29.4547558z"/>
				</g>
			</g>
			<g>
				<g>
					<path class="st16" d="M42.8434906,29.0762157C38.4578171,23.0398579,34.0721474,17.0035,29.6864777,10.9671431
						c-0.2809715-0.3867226-0.931963-0.0128489-0.647604,0.3785391c4.3856716,6.0363579,8.7713413,12.0727158,13.157011,18.1090736
						C42.4768562,29.8414783,43.1278496,29.4676037,42.8434906,29.0762157L42.8434906,29.0762157z"/>
				</g>
			</g>
			<g>
				<g>
					<path class="st16" d="M42.4199982,28.9038811c-7.0961647,2.3056831-14.1923294,4.6113663-21.2884922,6.9170494
						c-0.4570942,0.1485214-0.2615089,0.872963,0.199379,0.7232094c7.0961647-2.3056831,14.1923275-4.6113663,21.2884922-6.9170494
						C43.0764694,29.4785709,42.8808861,28.7541294,42.4199982,28.9038811L42.4199982,28.9038811z"/>
				</g>
			</g>
		</g>
	</g>
	<path class="st17" d="M42.4522476,6.5531259c-12.5242367,0-22.677166,10.1529293-22.677166,22.677166
		c0,12.5242977,10.1529293,22.6771641,22.677166,22.6771641s22.6771622-10.1528664,22.6771622-22.6771641
		C65.1294098,16.7060547,54.9764824,6.5531259,42.4522476,6.5531259z M42.4522476,47.0581627
		c-9.8460884,0-17.8278732-7.9817848-17.8278732-17.8278713c0-9.8460255,7.9817848-17.8278732,17.8278732-17.8278732
		c9.8460236,0,17.8278732,7.9818468,17.8278732,17.8278732C60.2801208,39.0763779,52.2982712,47.0581627,42.4522476,47.0581627z"/>
	<g>
	</g>
	<g>
	</g>
	<g>
	</g>
	<g>
	</g>
	<g>
	</g>
</g>
</svg>
