<?xml version="1.0" encoding="utf-8"?>
<!-- Generator: Adobe Illustrator 22.0.1, SVG Export Plug-In . SVG Version: 6.00 Build 0)  -->
<svg version="1.1" id="Штекер_питания"
	 xmlns="http://www.w3.org/2000/svg" xmlns:xlink="http://www.w3.org/1999/xlink" x="0px" y="0px"
	 viewBox="0 0 134.9291382 26.4110241" style="enable-background:new 0 0 134.9291382 26.4110241;" xml:space="preserve">
<style type="text/css">
	.st0{fill:#FFFFFF;}
	.st1{fill:url(#SVGID_1_);}
	.st2{fill:url(#SVGID_2_);}
	.st3{fill:url(#SVGID_3_);}
	.st4{fill:url(#SVGID_4_);}
	.st5{fill:url(#SVGID_5_);}
</style>
<g>
	<rect x="31.7480316" class="st0" width="38.6929169" height="25.7952747"/>
	<polyline class="st0" points="134.9291382,8.8407335 134.9291382,18.0488186 106.5826797,18.0488186 106.5826797,8.8407335 	"/>
	<linearGradient id="SVGID_1_" gradientUnits="userSpaceOnUse" x1="15.8740158" y1="21.2377949" x2="15.8740158" y2="5.7889762">
		<stop  offset="0" style="stop-color:#BFBFBF"/>
		<stop  offset="0.1235047" style="stop-color:#808080;stop-opacity:0.8726557"/>
		<stop  offset="0.2460767" style="stop-color:#494949;stop-opacity:0.7462733"/>
		<stop  offset="0.3509606" style="stop-color:#212121;stop-opacity:0.6381287"/>
		<stop  offset="0.4340287" style="stop-color:#090909;stop-opacity:0.5524782"/>
		<stop  offset="0.4849246" style="stop-color:#000000;stop-opacity:0.5"/>
		<stop  offset="0.5990248" style="stop-color:#47443F;stop-opacity:0.5841781"/>
		<stop  offset="0.7340798" style="stop-color:#6E6C69;stop-opacity:0.6838157"/>
		<stop  offset="0.8508468" style="stop-color:#908F8E;stop-opacity:0.7699614"/>
		<stop  offset="0.9433283" style="stop-color:#A7A6A6;stop-opacity:0.8381901"/>
		<stop  offset="1" style="stop-color:#B0AFAF;stop-opacity:0.88"/>
	</linearGradient>
	<rect y="5.7889762" class="st1" width="31.7480316" height="15.4488192"/>
	<linearGradient id="SVGID_2_" gradientUnits="userSpaceOnUse" x1="2.0692914" y1="21.2377949" x2="2.0692914" y2="5.7889762">
		<stop  offset="0" style="stop-color:#BFBFBF"/>
		<stop  offset="0.0598624" style="stop-color:#959595;stop-opacity:0.976055"/>
		<stop  offset="0.1344214" style="stop-color:#686868;stop-opacity:0.9462314"/>
		<stop  offset="0.2095495" style="stop-color:#424242;stop-opacity:0.9161802"/>
		<stop  offset="0.2840329" style="stop-color:#252525;stop-opacity:0.8863869"/>
		<stop  offset="0.3576858" style="stop-color:#111111;stop-opacity:0.8569257"/>
		<stop  offset="0.430127" style="stop-color:#040404;stop-opacity:0.8279492"/>
		<stop  offset="0.5" style="stop-color:#000000;stop-opacity:0.8"/>
		<stop  offset="0.5722182" style="stop-color:#0B0B0B;stop-opacity:0.8115549"/>
		<stop  offset="0.6470854" style="stop-color:#1D1C1B;stop-opacity:0.8235337"/>
		<stop  offset="0.7231959" style="stop-color:#353330;stop-opacity:0.8357114"/>
		<stop  offset="0.8001447" style="stop-color:#53504B;stop-opacity:0.8480232"/>
		<stop  offset="0.877761" style="stop-color:#6C6A68;stop-opacity:0.8604417"/>
		<stop  offset="0.9548306" style="stop-color:#939291;stop-opacity:0.8727729"/>
		<stop  offset="1" style="stop-color:#B0AFAF;stop-opacity:0.88"/>
	</linearGradient>
	<rect y="5.7889762" class="st2" width="4.1385827" height="15.4488192"/>
	<linearGradient id="SVGID_3_" gradientUnits="userSpaceOnUse" x1="51.0944901" y1="26.4110241" x2="51.0944901" y2="0.615748">
		<stop  offset="0.0050251" style="stop-color:#4C4C4C"/>
		<stop  offset="0.4849246" style="stop-color:#4C4C4C;stop-opacity:0.8"/>
		<stop  offset="1" style="stop-color:#4C4C4C;stop-opacity:0.88"/>
	</linearGradient>
	<rect x="31.7480316" y="0.615748" class="st3" width="38.6929131" height="25.7952747"/>
	<rect x="106.5826797" y="8.977953" class="st0" width="28.3464565" height="9.0708666"/>
	<linearGradient id="SVGID_4_" gradientUnits="userSpaceOnUse" x1="120.7559052" y1="18.0488186" x2="120.7559052" y2="8.977953">
		<stop  offset="0.0050251" style="stop-color:#4C4C4C"/>
		<stop  offset="0.4849246" style="stop-color:#4C4C4C;stop-opacity:0.8"/>
		<stop  offset="1" style="stop-color:#4C4C4C;stop-opacity:0.88"/>
	</linearGradient>
	<rect x="106.5826797" y="8.977953" class="st4" width="28.3464565" height="9.0708666"/>
	<path class="st0" d="M101.4617004,5.0553956c-0.1402588-0.0200806-0.2904053-0.0415649-0.4349365-0.0622559v6.252502h-3.6850586
		V4.465735c-1.7381592-0.2487793-3.6213989-0.5182495-5.5559082-0.795105v7.5750117h-3.6849976v-8.102417
		c-1.8861694-0.2699585-3.7639771-0.5387573-5.5559082-0.795166v8.897583h-3.6850586V1.8206544
		c-4.8704224-0.6970215-8.4188843-1.204895-8.4188843-1.204895v25.7952271l8.4188843-1.2052002v-9.4246826h3.6850586v8.8971558
		l5.5559082-0.7953491v-8.1018066h3.6849976v7.5742188l5.5559082-0.7953491v-6.7788696h3.6850586v6.2513428l5.5559082-0.7953491
		V5.7883058C106.5826721,5.7883058,104.5556335,5.4982057,101.4617004,5.0553956z"/>
	<linearGradient id="SVGID_5_" gradientUnits="userSpaceOnUse" x1="88.5118103" y1="26.4109859" x2="88.5118103" y2="0.6157594">
		<stop  offset="0.0050251" style="stop-color:#4C4C4C"/>
		<stop  offset="0.4849246" style="stop-color:#4C4C4C;stop-opacity:0.8"/>
		<stop  offset="1" style="stop-color:#4C4C4C;stop-opacity:0.88"/>
	</linearGradient>
	<path class="st5" d="M101.4617004,5.0553956c-0.1402588-0.0200806-0.2904053-0.0415649-0.4349365-0.0622559v6.252502h-3.6850586
		V4.465735c-1.7381592-0.2487793-3.6213989-0.5182495-5.5559082-0.795105v7.5750117h-3.6849976v-8.102417
		c-1.8861694-0.2699585-3.7639771-0.5387573-5.5559082-0.795166v8.897583h-3.6850586V1.8206544
		c-4.8704224-0.6970215-8.4188843-1.204895-8.4188843-1.204895v25.7952271l8.4188843-1.2052002v-9.4246826h3.6850586v8.8971558
		l5.5559082-0.7953491v-8.1018066h3.6849976v7.5742188l5.5559082-0.7953491v-6.7788696h3.6850586v6.2513428l5.5559082-0.7953491
		V5.7883058C106.5826721,5.7883058,104.5556335,5.4982057,101.4617004,5.0553956z"/>
</g>
<g>
</g>
<g>
</g>
<g>
</g>
<g>
</g>
<g>
</g>
</svg>
