<?xml version="1.0" encoding="utf-8"?>
<!-- Generator: Adobe Illustrator 22.0.1, SVG Export Plug-In . SVG Version: 6.00 Build 0)  -->
<svg version="1.2" baseProfile="tiny" xmlns="http://www.w3.org/2000/svg" xmlns:xlink="http://www.w3.org/1999/xlink" x="0px"
	 y="0px" viewBox="0 0 85.04 85.04" xml:space="preserve">
<g id="Макет_TREMA">
	<g id="Фон_черный">
		<g>
			<rect x="0" y="0" fill="#151616" width="85.04" height="85.04"/>
		</g>
		<g>
		</g>
	</g>
	<g>
		<path fill="#E5E4E0" d="M22.21045,6.26611V5.66699h2.06885v0.59912l-0.53516,0.10205v3.55518l0.53516,0.10205v0.59521h-2.06885
			v-0.59521l0.53516-0.10205V6.36816L22.21045,6.26611z"/>
		<path fill="#E5E4E0" d="M29.48096,6.95654l-0.02051-0.00342l-1.33838,3.66748h-0.67236L26.11816,6.9668l-0.02051,0.00342
			l0.09619,2.17383v0.7793l0.53516,0.10205v0.59521h-2.06885v-0.59521l0.53174-0.10205V6.36816l-0.53174-0.10205V5.66699h0.53174
			h1.30713l1.27295,3.65039h0.02051l1.28369-3.65039h1.8457v0.59912l-0.53516,0.10205v3.55518l0.53516,0.10205v0.59521h-2.06885
			v-0.59521l0.53174-0.10205v-0.7793L29.48096,6.95654z"/>
		<path fill="#E5E4E0" d="M33.29004,5.66699v0.59912l-0.53564,0.10205v2.58545c0,0.32666,0.08887,0.5708,0.26611,0.73291
			c0.17725,0.1626,0.42041,0.24365,0.729,0.24365c0.31348,0,0.55957-0.08057,0.73779-0.2417
			c0.17871-0.16113,0.26758-0.40625,0.26758-0.73486V6.36816l-0.53174-0.10205V5.66699h2.06885v0.59912l-0.53516,0.10205v2.58545
			c0,0.55566-0.18457,0.98438-0.5542,1.28613c-0.36914,0.30127-0.85352,0.45215-1.45313,0.45215
			c-0.59717,0-1.0791-0.15088-1.44629-0.45215c-0.36719-0.30176-0.55078-0.73047-0.55078-1.28613V6.36816L31.2207,6.26611V5.66699
			h0.53174h1.00195H33.29004z"/>
		<path fill="#E5E4E0" d="M40.50244,8.88574h-1.93506V8.12012h1.93506V8.88574z"/>
		<path fill="#E5E4E0" d="M44.35547,9.93018c0.26758,0,0.48438-0.10156,0.64844-0.30469
			c0.16504-0.20313,0.24707-0.50732,0.24707-0.91357V8.63721c-0.11133,0.14307-0.24512,0.25098-0.40137,0.32471
			c-0.15527,0.07373-0.32227,0.11084-0.5,0.11084c-0.46729,0-0.8335-0.15137-1.09863-0.4541
			c-0.26563-0.30322-0.39795-0.7207-0.39795-1.25391c0-0.50098,0.1582-0.92139,0.4751-1.26025
			c0.31689-0.33936,0.71777-0.50879,1.20313-0.50879c0.50977,0,0.92383,0.17383,1.24121,0.52197
			C46.09082,6.46631,46.25,6.95557,46.25,7.58594v1.0752c0,0.6416-0.17676,1.14063-0.53027,1.49658
			c-0.35352,0.35645-0.80762,0.53418-1.36426,0.53418c-0.17383,0-0.35254-0.01758-0.53662-0.05273s-0.354-0.08643-0.50977-0.15479
			l0.11328-0.71777c0.15332,0.05664,0.30225,0.09814,0.44629,0.12402C44.0127,9.91699,44.17578,9.93018,44.35547,9.93018z
			 M44.51758,8.34473c0.16602,0,0.3125-0.03125,0.43652-0.09375c0.125-0.0625,0.22363-0.14551,0.29688-0.25V7.47021
			c0-0.36279-0.06348-0.63818-0.19141-0.82666c-0.12891-0.18848-0.30273-0.28223-0.52246-0.28223
			c-0.20117,0-0.36523,0.09814-0.49219,0.29395c-0.12646,0.19629-0.18994,0.43262-0.18994,0.70947
			c0,0.29932,0.05664,0.5376,0.17041,0.71436C44.1377,8.25635,44.30273,8.34473,44.51758,8.34473z"/>
		<path fill="#E5E4E0" d="M50.71387,5.66699c0.61133,0,1.11426,0.19336,1.50977,0.58008s0.59375,0.88281,0.59375,1.48877v0.81982
			c0,0.60791-0.19824,1.104-0.59375,1.48828s-0.89844,0.57666-1.50977,0.57666H48.4668v-0.59521l0.53125-0.10205V6.36816
			L48.4668,6.26611V5.66699h0.53125H50.71387z M50,6.43262V9.8584h0.66309c0.3584,0,0.63965-0.12012,0.84375-0.36035
			c0.20313-0.24072,0.30566-0.55469,0.30566-0.94238V7.729c0-0.3833-0.10254-0.69531-0.30566-0.93604
			c-0.2041-0.24023-0.48535-0.36035-0.84375-0.36035H50z"/>
		<path fill="#E5E4E0" d="M57.875,8.18115c0,0.72607-0.20898,1.32568-0.62793,1.7998
			c-0.41797,0.47412-0.96582,0.71094-1.64355,0.71094c-0.6748,0-1.21973-0.23682-1.63477-0.71094s-0.62305-1.07373-0.62305-1.7998
			V8.10645c0-0.72119,0.20703-1.31982,0.62109-1.79639c0.41406-0.47607,0.95898-0.71436,1.63379-0.71436
			c0.67676,0,1.22559,0.23828,1.64551,0.71436c0.41992,0.47656,0.62891,1.0752,0.62891,1.79639V8.18115z M56.87695,8.09961
			c0-0.5127-0.10742-0.92871-0.32227-1.24854c-0.21582-0.31982-0.5332-0.47949-0.9541-0.47949s-0.73535,0.15869-0.94238,0.47607
			s-0.31055,0.73486-0.31055,1.25195v0.08154c0,0.52197,0.10547,0.94189,0.31445,1.26074
			c0.20898,0.31836,0.52344,0.47803,0.94141,0.47803c0.42383,0,0.74121-0.15967,0.9541-0.47803
			c0.21289-0.31885,0.31934-0.73877,0.31934-1.26074V8.09961z"/>
		<path fill="#E5E4E0" d="M58.27734,10.02539l0.53125-0.10205V6.36816l-0.53125-0.10205V5.66699h3.97656v1.35742h-0.76855
			l-0.04492-0.5918h-1.62988v1.36426h1.75V8.5625h-1.75v1.36084l0.53613,0.10205v0.59521h-2.06934V10.02539z"/>
	</g>
	<g id="Колодка_i2c">
		<path fill="#CEC7BD" d="M33.96033,74.91969c0,1.22736-1.00185,2.22247-2.23974,2.22247
			c-1.23789,0-2.24154-0.99511-2.24154-2.22247s1.00365-2.22247,2.24154-2.22247
			C32.95848,72.69721,33.96033,73.69232,33.96033,74.91969z"/>
		<g>
			<path fill="#E5E4E0" d="M35.5376,79.97949c0.35889,0,0.64063,0.08105,0.84473,0.24414
				c0.20459,0.16309,0.30664,0.3877,0.30664,0.6748c0,0.1582-0.04297,0.2959-0.12842,0.41211s-0.21045,0.20996-0.37549,0.28223
				c0.18652,0.05469,0.3208,0.14551,0.40283,0.27246c0.08154,0.12695,0.12256,0.28418,0.12256,0.47266v0.15918
				c0,0.06934,0.01367,0.12207,0.0415,0.16016c0.02734,0.03809,0.07324,0.06055,0.13672,0.06836l0.07813,0.01074v0.37891h-0.32813
				c-0.20703,0-0.35254-0.05566-0.43652-0.16602s-0.12598-0.25293-0.12598-0.42871V82.3418
				c0-0.15234-0.04102-0.27148-0.12256-0.3584c-0.08203-0.08691-0.19727-0.13281-0.34668-0.13672h-0.51904v0.82715l0.33887,0.06445
				v0.37695H34.1167v-0.37695l0.33691-0.06445v-2.25098L34.1167,80.3584v-0.37891h0.33691H35.5376z M35.08789,81.3623h0.43896
				c0.17627,0,0.30908-0.03809,0.39746-0.1123s0.13232-0.18262,0.13232-0.32324s-0.04395-0.25293-0.13135-0.33691
				c-0.08789-0.08398-0.2168-0.12598-0.3877-0.12598h-0.44971V81.3623z"/>
			<path fill="#E5E4E0" d="M38.44824,79.97949v0.37891l-0.33887,0.06445v1.63672c0,0.20703,0.05615,0.36133,0.16846,0.46484
				c0.1123,0.10254,0.26611,0.15332,0.46143,0.15332c0.19873,0,0.35449-0.05078,0.46729-0.15234
				c0.11279-0.10254,0.16943-0.25781,0.16943-0.46582v-1.63672l-0.33691-0.06445v-0.37891h1.31006v0.37891l-0.33887,0.06445v1.63672
				c0,0.35254-0.1167,0.62305-0.35059,0.81445s-0.54102,0.28613-0.92041,0.28613c-0.37793,0-0.68311-0.09473-0.91553-0.28613
				s-0.34863-0.46191-0.34863-0.81445v-1.63672l-0.33643-0.06445v-0.37891h0.33643h0.63428H38.44824z"/>
			<path fill="#E5E4E0" d="M42.93896,80.98047h-0.47607l-0.08252-0.43066c-0.05469-0.03418-0.13525-0.06445-0.24072-0.08984
				c-0.10596-0.02637-0.21826-0.03906-0.33691-0.03906c-0.17383,0-0.30811,0.03613-0.40283,0.1084
				c-0.09521,0.07227-0.14258,0.16602-0.14258,0.28125c0,0.10645,0.0498,0.19336,0.14893,0.26172s0.27051,0.14063,0.51367,0.2168
				c0.34912,0.0957,0.61377,0.22266,0.79395,0.38086c0.18066,0.1582,0.27051,0.36523,0.27051,0.62207
				c0,0.26855-0.10693,0.48047-0.32129,0.63574s-0.49707,0.23242-0.84717,0.23242c-0.25098,0-0.47705-0.03906-0.6792-0.11816
				c-0.20166-0.0791-0.37012-0.18848-0.50488-0.32715v-0.65527h0.49072l0.06738,0.44629
				c0.06396,0.05176,0.15039,0.09473,0.25977,0.12793c0.10938,0.03418,0.23145,0.05078,0.36621,0.05078
				c0.17383,0,0.30566-0.03516,0.39648-0.10547c0.09033-0.07031,0.13574-0.16504,0.13574-0.28223
				c0-0.12109-0.04346-0.21777-0.12939-0.29102c-0.08643-0.07324-0.2373-0.1416-0.45313-0.20703
				c-0.375-0.10742-0.65869-0.23535-0.85156-0.38281c-0.19238-0.14844-0.28857-0.35059-0.28857-0.60742
				c0-0.25391,0.1084-0.46191,0.32568-0.62402c0.21729-0.16113,0.49023-0.24414,0.81885-0.24805
				c0.24316,0,0.46484,0.03613,0.66504,0.10938c0.19971,0.07324,0.36768,0.1709,0.50391,0.29297V80.98047z"/>
			<path fill="#E5E4E0" d="M45.63672,80.98047h-0.47461l-0.08398-0.43066c-0.05469-0.03418-0.13477-0.06445-0.24023-0.08984
				C44.73242,80.43359,44.61914,80.4209,44.5,80.4209c-0.17383,0-0.30664,0.03613-0.40234,0.1084
				c-0.09473,0.07227-0.14209,0.16602-0.14209,0.28125c0,0.10645,0.05029,0.19336,0.14893,0.26172s0.27051,0.14063,0.51465,0.2168
				c0.34766,0.0957,0.61328,0.22266,0.79297,0.38086s0.27148,0.36523,0.27148,0.62207c0,0.26855-0.10742,0.48047-0.32227,0.63574
				s-0.49609,0.23242-0.84766,0.23242c-0.25,0-0.47656-0.03906-0.67871-0.11816c-0.20166-0.0791-0.37012-0.18848-0.50488-0.32715
				v-0.65527h0.49072l0.06738,0.44629c0.06396,0.05176,0.15088,0.09473,0.26025,0.12793
				c0.10938,0.03418,0.23047,0.05078,0.36523,0.05078c0.17383,0,0.30664-0.03516,0.39648-0.10547s0.13672-0.16504,0.13672-0.28223
				c0-0.12109-0.04297-0.21777-0.13086-0.29102c-0.08594-0.07324-0.23633-0.1416-0.45117-0.20703
				c-0.37598-0.10742-0.65967-0.23535-0.85254-0.38281c-0.19238-0.14844-0.28857-0.35059-0.28857-0.60742
				c0-0.25391,0.1084-0.46191,0.32568-0.62402c0.21729-0.16113,0.48926-0.24414,0.81934-0.24805
				c0.24219,0,0.46484,0.03613,0.66406,0.10938s0.36719,0.1709,0.50391,0.29297V80.98047z"/>
			<path fill="#E5E4E0" d="M45.92969,80.3584v-0.37891h1.31055v0.37891l-0.33887,0.06445v2.25098l0.33887,0.06445v0.37695h-1.31055
				v-0.37695l0.33887-0.06445v-2.25098L45.92969,80.3584z"/>
			<path fill="#E5E4E0" d="M47.44824,82.73828l0.22656-0.03223l0.96191-2.72656h0.64941l0.95605,2.72656l0.22559,0.03223v0.37695
				h-1.07715v-0.37695l0.21973-0.03906l-0.13965-0.43066h-1.02539l-0.13867,0.43066l0.21973,0.03906v0.37695h-1.07813V82.73828z
				 M48.5957,81.80566h0.72559l-0.35645-1.10449h-0.0127L48.5957,81.80566z"/>
		</g>
		<ellipse fill="#918C84" cx="31.71968" cy="74.91969" rx="1.5316" ry="1.51857"/>
		<rect x="38.32003" y="54.69341" fill="#E5E4E0" width="8.1385" height="4.40683"/>
		<g>
			<path fill="#151616" d="M39.18701,55.54883v-0.2627h1.09229v0.2627l-0.34033,0.05859v2.37402l0.34033,0.05859v0.26074h-1.09229
				v-0.26074l0.34033-0.05859v-2.37402L39.18701,55.54883z"/>
			<path fill="#151616" d="M40.62598,58.30078v-0.2793l0.99609-1.09766c0.17822-0.19727,0.29883-0.35352,0.3623-0.46973
				s0.09473-0.23438,0.09473-0.35645c0-0.15039-0.04443-0.27734-0.1333-0.37988c-0.08936-0.10254-0.20703-0.1543-0.35303-0.1543
				c-0.21045,0-0.36475,0.05371-0.46338,0.15918c-0.09912,0.10645-0.14844,0.25684-0.14844,0.45215h-0.39453l-0.00439-0.0127
				c-0.00684-0.25977,0.07959-0.47754,0.25977-0.6543c0.18066-0.17676,0.43066-0.26465,0.75098-0.26465
				c0.27441,0,0.49268,0.07813,0.65479,0.23633s0.24316,0.35938,0.24316,0.60352c0,0.16504-0.04932,0.3291-0.14746,0.49316
				s-0.23633,0.3418-0.41406,0.53223l-0.7998,0.86328l0.00391,0.00977h1.07959l0.03369-0.3457h0.34863v0.66504H40.62598z"/>
			<path fill="#151616" d="M45.29102,56.21191h-0.29004l-0.07715-0.42676c-0.06738-0.06445-0.14941-0.11816-0.24609-0.15918
				c-0.09766-0.04199-0.21484-0.0625-0.34961-0.0625c-0.31641,0-0.55859,0.11328-0.72852,0.34082
				c-0.16992,0.22656-0.25488,0.51563-0.25488,0.86426v0.04785c0,0.34863,0.08301,0.6377,0.24951,0.86621
				s0.39697,0.34277,0.69287,0.34277c0.13672,0,0.2627-0.02148,0.375-0.06445c0.11328-0.04297,0.2002-0.09473,0.26172-0.15723
				l0.07715-0.42676h0.29004v0.53711c-0.08789,0.11133-0.21973,0.21094-0.39453,0.29883
				c-0.17578,0.08789-0.37891,0.13184-0.60938,0.13184c-0.396,0-0.72021-0.14551-0.97363-0.43555s-0.37988-0.6543-0.37988-1.09277
				v-0.04395c0-0.44141,0.12451-0.80664,0.37354-1.0957c0.24951-0.28906,0.57568-0.43359,0.97998-0.43359
				c0.23047,0,0.43359,0.04395,0.60938,0.13281c0.1748,0.08887,0.30664,0.18945,0.39453,0.2998V56.21191z"/>
		</g>
		<path fill="none" stroke="#F6F6F6" stroke-width="0.75" stroke-miterlimit="10" d="M28.06017,78.08376
			c-0.1227-0.00019-0.18708-0.00029-0.18708-0.00029l-0.04505-17.86554c0,0-0.00008-0.03045-0.00015-0.0609
			c0.0379,0.00006,0.0758,0.00011,0.0758,0.00011l29.05536,0.04467c0,0,0.01664,0.00002,0.04618,0.00007
			c0.0061,2.42089,0.04423,17.54036,0.04423,17.54036s0.00049,0.19304,0.00097,0.38609
			c-0.06099-0.00009-0.12197-0.00018-0.12197-0.00018S30.54409,78.08759,28.06017,78.08376z"/>
		
			<line fill="none" stroke="#F6F6F6" stroke-width="0.75" stroke-miterlimit="10" x1="35.30685" y1="60.21064" x2="35.3519" y2="78.07618"/>
		
			<line fill="none" stroke="#F6F6F6" stroke-width="0.75" stroke-miterlimit="10" x1="42.41362" y1="60.01405" x2="42.45866" y2="77.87959"/>
		
			<line fill="none" stroke="#F6F6F6" stroke-width="0.75" stroke-miterlimit="10" x1="49.54456" y1="60.01405" x2="49.58961" y2="77.87959"/>
		<path fill="#CEC7BD" d="M41.16032,74.91969c0,1.22736-1.00185,2.22247-2.23974,2.22247s-2.24154-0.99511-2.24154-2.22247
			s1.00365-2.22247,2.24154-2.22247S41.16032,73.69232,41.16032,74.91969z"/>
		<ellipse fill="#918C84" cx="38.91969" cy="74.91969" rx="1.5316" ry="1.51857"/>
		<path fill="#CEC7BD" d="M48.36032,74.91969c0,1.22736-1.00185,2.22247-2.23974,2.22247s-2.24154-0.99511-2.24154-2.22247
			s1.00365-2.22247,2.24154-2.22247S48.36032,73.69232,48.36032,74.91969z"/>
		<ellipse fill="#918C84" cx="46.11969" cy="74.91969" rx="1.5316" ry="1.51857"/>
		<path fill="#CEC7BD" d="M55.54205,74.91969c0,1.22736-0.99367,2.22247-2.22147,2.22247s-2.22326-0.99511-2.22326-2.22247
			s0.99546-2.22247,2.22326-2.22247S55.54205,73.69232,55.54205,74.91969z"/>
		<ellipse fill="#918C84" cx="53.31969" cy="74.91969" rx="1.5316" ry="1.51857"/>
		<g>
			<path fill="#E5E4E0" d="M31.66797,69.41699c-0.11279,0.38867-0.25146,0.67188-0.41553,0.84961
				c-0.16455,0.17676-0.36768,0.26563-0.60889,0.26563c-0.27344,0-0.49951-0.1084-0.67822-0.3252
				c-0.17871-0.21582-0.26807-0.49805-0.26807-0.84473c0-0.23633,0.0459-0.44629,0.13818-0.63184
				c0.09229-0.18457,0.21924-0.32813,0.38135-0.42969s0.33936-0.15234,0.53125-0.15234v0.45605
				c-0.21045,0-0.37598,0.06543-0.49609,0.19824c-0.12061,0.13184-0.18066,0.31934-0.18066,0.55957
				c0,0.22363,0.0498,0.39844,0.14941,0.52344c0.09961,0.12598,0.2373,0.18848,0.41406,0.18848
				c0.1416,0,0.26172-0.05957,0.35938-0.17871s0.1875-0.32129,0.26855-0.60742s0.1709-0.50977,0.26855-0.6709
				s0.21143-0.28125,0.3418-0.35938s0.28369-0.11719,0.45996-0.11719c0.28125,0,0.50635,0.10938,0.67578,0.32617
				c0.16895,0.21777,0.25391,0.50879,0.25391,0.87207c0,0.23633-0.0459,0.45703-0.13721,0.66211
				c-0.09131,0.2041-0.21631,0.3623-0.37549,0.47363c-0.15869,0.11133-0.33887,0.16602-0.54102,0.16602v-0.45605
				c0.20996,0,0.37549-0.07617,0.49707-0.22949c0.12158-0.1543,0.18213-0.35938,0.18213-0.61621
				c0-0.23926-0.04932-0.42285-0.14746-0.55078c-0.09863-0.12695-0.23291-0.19141-0.40283-0.19141s-0.30176,0.05957-0.39453,0.17773
				S31.75879,69.10645,31.66797,69.41699z"/>
			<path fill="#E5E4E0" d="M32.11377,65.0293c0.36719,0.04199,0.65039,0.17676,0.84961,0.40234
				c0.19922,0.22656,0.29932,0.52637,0.29932,0.90137c0,0.40625-0.14697,0.73242-0.44092,0.97754s-0.6875,0.36719-1.17969,0.36719
				h-0.33398c-0.32227,0-0.60596-0.05664-0.85059-0.1709s-0.43262-0.27637-0.56396-0.48633
				c-0.13086-0.20898-0.19629-0.45215-0.19629-0.72754c0-0.36523,0.10303-0.6582,0.30859-0.87891s0.49072-0.34863,0.85449-0.38477
				v0.45605c-0.27734,0.03906-0.47803,0.12402-0.60254,0.25586s-0.18652,0.31543-0.18652,0.55176
				c0,0.29004,0.1084,0.51758,0.32471,0.68164c0.21582,0.16504,0.52393,0.24707,0.92285,0.24707h0.33643
				c0.37695,0,0.67676-0.07813,0.89893-0.2334c0.22266-0.15625,0.33398-0.375,0.33398-0.65527
				c0-0.25195-0.05762-0.44531-0.17285-0.58008c-0.11475-0.13477-0.31543-0.22363-0.60156-0.26758V65.0293z"/>
			<path fill="#E5E4E0" d="M32.84082,63.9541v-1.63086h0.37402v2.08691h-3.47021V63.9541H32.84082z"/>
		</g>
		<g>
			<path fill="#E5E4E0" d="M39.05859,69.41699c-0.11279,0.38867-0.25146,0.67188-0.41553,0.84961
				c-0.16455,0.17676-0.36768,0.26563-0.60889,0.26563c-0.27344,0-0.49951-0.1084-0.67822-0.3252
				c-0.17871-0.21582-0.26807-0.49805-0.26807-0.84473c0-0.23633,0.0459-0.44629,0.13818-0.63184
				c0.09229-0.18457,0.21924-0.32813,0.38135-0.42969s0.33936-0.15234,0.53125-0.15234v0.45605
				c-0.21045,0-0.37598,0.06543-0.49609,0.19824c-0.12061,0.13184-0.18066,0.31934-0.18066,0.55957
				c0,0.22363,0.0498,0.39844,0.14941,0.52344c0.09961,0.12598,0.2373,0.18848,0.41406,0.18848
				c0.1416,0,0.26172-0.05957,0.35938-0.17871s0.1875-0.32129,0.26855-0.60742s0.1709-0.50977,0.26855-0.6709
				s0.21143-0.28125,0.3418-0.35938s0.28369-0.11719,0.45996-0.11719c0.28125,0,0.50635,0.10938,0.67578,0.32617
				c0.16895,0.21777,0.25391,0.50879,0.25391,0.87207c0,0.23633-0.0459,0.45703-0.13721,0.66211
				c-0.09131,0.2041-0.21631,0.3623-0.37549,0.47363c-0.15869,0.11133-0.33887,0.16602-0.54102,0.16602v-0.45605
				c0.20996,0,0.37549-0.07617,0.49707-0.22949c0.12158-0.1543,0.18213-0.35938,0.18213-0.61621
				c0-0.23926-0.04932-0.42285-0.14746-0.55078c-0.09863-0.12695-0.23291-0.19141-0.40283-0.19141s-0.30176,0.05957-0.39453,0.17773
				S39.14941,69.10645,39.05859,69.41699z"/>
			<path fill="#E5E4E0" d="M40.60547,67.55957h-3.47021v-0.9707c0-0.2998,0.06689-0.56445,0.2002-0.79395
				c0.13379-0.23047,0.32373-0.4082,0.56982-0.5332s0.5293-0.18848,0.84863-0.19043h0.22119
				c0.32764,0,0.61426,0.0625,0.86035,0.18848c0.24658,0.125,0.43555,0.30371,0.56738,0.53613s0.19971,0.50293,0.20264,0.81152
				V67.55957z M37.50977,67.10547h2.72168v-0.47656c0-0.34961-0.10986-0.62207-0.3291-0.81641
				c-0.21973-0.19434-0.53223-0.29199-0.9375-0.29199h-0.20313c-0.39404,0-0.70068,0.0918-0.91943,0.27539
				s-0.32959,0.44336-0.33252,0.78027V67.10547z"/>
			<path fill="#E5E4E0" d="M39.69727,62.48633v1.44141l0.9082,0.32324v0.46777l-3.47021-1.31348v-0.39746l3.47021-1.31543v0.46484
				L39.69727,62.48633z M39.32324,63.79004v-1.16895l-1.62305,0.58594L39.32324,63.79004z"/>
		</g>
		<g>
			<path fill="#E5E4E0" d="M47.16016,69.29199l-2.86328-0.9834V67.8125l3.4707,1.27637v0.40137l-3.4707,1.27344v-0.49316
				L47.16016,69.29199z"/>
			<path fill="#E5E4E0" d="M47.45508,66.39453c0-0.15625-0.04785-0.29199-0.14258-0.40918
				c-0.0957-0.11621-0.21484-0.18066-0.35742-0.19336v-0.41309c0.14746,0.00781,0.28809,0.05762,0.42188,0.15039
				c0.13281,0.09375,0.23926,0.21777,0.31934,0.37305c0.0791,0.15527,0.11914,0.31934,0.11914,0.49219
				c0,0.34863-0.11719,0.625-0.35156,0.83105c-0.23438,0.20508-0.55469,0.30762-0.96191,0.30762h-0.07422
				c-0.25098,0-0.47363-0.04492-0.66895-0.13672c-0.19531-0.09082-0.34766-0.22266-0.45508-0.39355
				c-0.1084-0.1709-0.16211-0.37305-0.16211-0.60547c0-0.28711,0.08594-0.52539,0.25977-0.71484
				c0.17285-0.19043,0.39746-0.29102,0.67383-0.30371v0.41309c-0.16699,0.0127-0.30371,0.0752-0.41113,0.1875
				c-0.10742,0.11328-0.16016,0.25195-0.16016,0.41797c0,0.22168,0.08008,0.39355,0.24121,0.51563s0.39453,0.18359,0.7002,0.18359
				h0.08301c0.29688,0,0.52637-0.06055,0.68652-0.18262C47.375,66.79297,47.45508,66.62012,47.45508,66.39453z"/>
			<path fill="#E5E4E0" d="M47.45508,63.86133c0-0.15625-0.04785-0.29199-0.14258-0.40918
				c-0.0957-0.11621-0.21484-0.18066-0.35742-0.19336V62.8457c0.14746,0.00781,0.28809,0.05762,0.42188,0.15039
				c0.13281,0.09375,0.23926,0.21777,0.31934,0.37305c0.0791,0.15527,0.11914,0.31934,0.11914,0.49219
				c0,0.34863-0.11719,0.625-0.35156,0.83105C47.22949,64.89746,46.90918,65,46.50195,65h-0.07422
				c-0.25098,0-0.47363-0.04492-0.66895-0.13672c-0.19531-0.09082-0.34766-0.22266-0.45508-0.39355
				c-0.1084-0.1709-0.16211-0.37305-0.16211-0.60547c0-0.28711,0.08594-0.52539,0.25977-0.71484
				c0.17285-0.19043,0.39746-0.29102,0.67383-0.30371v0.41309c-0.16699,0.0127-0.30371,0.0752-0.41113,0.1875
				c-0.10742,0.11328-0.16016,0.25195-0.16016,0.41797c0,0.22168,0.08008,0.39355,0.24121,0.51563s0.39453,0.18359,0.7002,0.18359
				h0.08301c0.29688,0,0.52637-0.06055,0.68652-0.18262C47.375,64.25977,47.45508,64.08691,47.45508,63.86133z"/>
		</g>
		<g>
			<path fill="#E5E4E0" d="M54.65625,67.89063c0.16797,0.11621,0.29395,0.2793,0.37793,0.48828
				c0.08301,0.20801,0.125,0.45117,0.125,0.72852c0,0.28027-0.06641,0.5293-0.19922,0.74707
				c-0.13281,0.2168-0.32129,0.38477-0.56641,0.50391c-0.24414,0.11914-0.52832,0.18066-0.85059,0.18359h-0.30273
				c-0.52246,0-0.92773-0.12109-1.21484-0.36328c-0.28809-0.24121-0.43164-0.58105-0.43164-1.01953
				c0-0.35938,0.09277-0.64844,0.27734-0.86719c0.18555-0.21875,0.44824-0.35254,0.78809-0.40137v0.45313
				c-0.46094,0.08594-0.69141,0.35645-0.69141,0.81348c0,0.30371,0.10742,0.53418,0.32324,0.69141
				c0.21582,0.15625,0.52734,0.23535,0.93652,0.2373h0.2832c0.38965,0,0.69922-0.08887,0.92969-0.26465
				c0.22949-0.17676,0.34473-0.41504,0.34473-0.71582c0-0.1709-0.01953-0.31934-0.05762-0.44727
				c-0.03809-0.12695-0.10156-0.23242-0.19238-0.31641h-0.77734v0.79688h-0.37402v-1.24805H54.65625z"/>
			<path fill="#E5E4E0" d="M55.11133,64.49023v0.45605l-2.67383,1.73242h2.67383v0.45605H51.6416v-0.45605l2.68555-1.73633H51.6416
				v-0.45215H55.11133z"/>
			<path fill="#E5E4E0" d="M55.11133,63.68457H51.6416v-0.9707c0-0.2998,0.06641-0.56445,0.2002-0.79395
				c0.13281-0.23047,0.32324-0.4082,0.56934-0.5332s0.5293-0.18848,0.84863-0.19043h0.22168
				c0.32715,0,0.61426,0.0625,0.86035,0.18848c0.24609,0.125,0.43555,0.30371,0.56738,0.53613s0.19922,0.50293,0.20215,0.81152
				V63.68457z M52.01563,63.23047h2.72168v-0.47656c0-0.34961-0.10938-0.62207-0.3291-0.81641s-0.53223-0.29199-0.9375-0.29199
				h-0.20313c-0.39453,0-0.7002,0.0918-0.91895,0.27539s-0.33008,0.44336-0.33301,0.78027V63.23047z"/>
		</g>
	</g>
	<g id="Креп._отверстия">
		<circle fill="#9E9B9C" cx="75.11811" cy="9.92126" r="5.97543"/>
		<path fill="#FFFFFF" d="M12.78075,8.90686c0,2.12422-1.73702,3.84824-3.87945,3.84824c-2.14424,0-3.88126-1.72402-3.88126-3.84824
			S6.75706,5.06042,8.9013,5.06042C11.04373,5.06042,12.78075,6.78265,12.78075,8.90686z"/>
		<path fill="#FFFFFF" d="M79.51181,9.92227c0,2.42587-1.96681,4.39269-4.39268,4.39269c-2.4279,0-4.39471-1.96681-4.39471-4.39269
			c0-2.42791,1.96681-4.39472,4.39471-4.39472C77.545,5.52756,79.51181,7.49436,79.51181,9.92227z"/>
		<circle fill="#9E9B9C" cx="75.11811" cy="75.11811" r="5.97543"/>
		<path fill="#FFFFFF" d="M79.51181,75.11708c0,2.42587-1.96681,4.39473-4.39471,4.39473
			c-2.42587,0-4.39268-1.96886-4.39268-4.39473c0-2.42586,1.96681-4.39267,4.39268-4.39267
			C77.545,70.72441,79.51181,72.69122,79.51181,75.11708z"/>
		<g id="XMLID_19_">
			<g>
				<circle fill="#9E9B9C" cx="9.92126" cy="75.11811" r="5.97543"/>
			</g>
			<g>
			</g>
		</g>
		<path fill="#FFFFFF" d="M14.31496,75.11914c0,2.42586-1.96727,4.39267-4.39371,4.39267S5.52756,77.545,5.52756,75.11914
			c0-2.42792,1.96726-4.39473,4.39369-4.39473S14.31496,72.69122,14.31496,75.11914z"/>
		<ellipse fill="#9E9B9C" cx="9.92126" cy="9.92126" rx="5.95276" ry="5.97543"/>
		<path fill="#FFFFFF" d="M14.31496,9.92227c0,2.42587-1.96681,4.39269-4.39269,4.39269c-2.4279,0-4.39472-1.96681-4.39472-4.39269
			c0-2.42791,1.96681-4.39472,4.39472-4.39472C12.34815,5.52756,14.31496,7.49436,14.31496,9.92227z"/>
	</g>
</g>
<g id="_x36_22k">
	<g id="XMLID_6_">
		<g>
			<rect x="15.04572" y="54.43721" fill="#363331" width="8.55894" height="3.66244"/>
		</g>
		<g>
		</g>
	</g>
	<g id="XMLID_18_">
		<g>
			<rect x="18.64948" y="58.20506" fill="#9E9B9C" width="1.60728" height="2.94782"/>
		</g>
		<g>
		</g>
	</g>
	<g id="XMLID_16_">
		<g>
			<rect x="15.84215" y="50.92485" fill="#9E9B9C" width="1.68116" height="3.51237"/>
		</g>
		<g>
		</g>
	</g>
	<g id="XMLID_17_">
		<g>
			<rect x="21.33069" y="50.92485" fill="#9E9B9C" width="1.68116" height="3.51237"/>
		</g>
		<g>
		</g>
	</g>
	<g>
		<path fill="#B5B4B3" d="M20.91504,55.88965c0-0.18457,0.06104-0.33594,0.18408-0.45215
			c0.12256-0.11719,0.27295-0.17578,0.45117-0.17578c0.09033,0,0.17236,0.01367,0.24658,0.04199
			c0.07373,0.02734,0.13916,0.06836,0.1958,0.12305c0.0708,0.06738,0.125,0.15723,0.16309,0.26855s0.05713,0.24609,0.05713,0.40332
			c0,0.16113-0.01709,0.30371-0.05225,0.42871c-0.03467,0.12402-0.09033,0.23535-0.16699,0.33203
			c-0.07227,0.0918-0.16504,0.16406-0.2793,0.21582s-0.24707,0.07715-0.39941,0.07715c-0.04834,0-0.08887-0.00195-0.12158-0.00586
			c-0.0332-0.00391-0.06641-0.01172-0.1001-0.02246V56.8916h0.0127c0.02295,0.01172,0.05762,0.02344,0.104,0.03418
			s0.09375,0.0166,0.14209,0.0166c0.17676,0,0.31738-0.05469,0.42236-0.16406c0.10547-0.10938,0.1665-0.25781,0.18359-0.44434
			c-0.06885,0.04199-0.13672,0.07324-0.20361,0.09473s-0.14453,0.03223-0.23242,0.03223c-0.07813,0-0.14648-0.00684-0.20605-0.02148
			c-0.05957-0.01367-0.12061-0.04297-0.18311-0.08594c-0.07227-0.0498-0.12646-0.1123-0.16309-0.1875
			C20.93311,56.08984,20.91504,55.99805,20.91504,55.88965z M21.16504,55.87988c0,0.07617,0.01123,0.13867,0.03369,0.18848
			c0.02246,0.04883,0.05957,0.09277,0.11133,0.12891c0.03809,0.02637,0.07959,0.04297,0.12598,0.05176
			c0.0459,0.00781,0.09375,0.01172,0.14404,0.01172c0.06982,0,0.13477-0.00781,0.19434-0.02441
			c0.06006-0.01563,0.12158-0.04102,0.18506-0.0752c0.00146-0.01855,0.00293-0.03516,0.00342-0.05176
			c0.00098-0.01758,0.00146-0.03809,0.00146-0.06348c0-0.12891-0.01318-0.23047-0.04004-0.30469s-0.06348-0.13281-0.11035-0.17676
			c-0.0376-0.03516-0.07861-0.06152-0.12256-0.07813s-0.0918-0.02539-0.14355-0.02539c-0.11914,0-0.2124,0.03613-0.28076,0.1084
			S21.16504,55.74512,21.16504,55.87988z"/>
		<path fill="#B5B4B3" d="M19.33838,55.2998h1.2417v0.25488c-0.08643,0.07324-0.17285,0.14648-0.25928,0.21973
			c-0.08691,0.07422-0.16748,0.14648-0.24219,0.21875c-0.15771,0.15137-0.26563,0.27246-0.32373,0.36133
			c-0.05859,0.08887-0.0874,0.18555-0.0874,0.28906c0,0.09375,0.03125,0.16797,0.09424,0.22168
			c0.0625,0.05273,0.15039,0.08008,0.2627,0.08008c0.07471,0,0.15576-0.01367,0.24268-0.03906
			c0.08691-0.02637,0.17188-0.06641,0.25488-0.12012h0.0127v0.25684c-0.05859,0.02832-0.13623,0.05371-0.23389,0.07813
			c-0.09717,0.02344-0.19141,0.03516-0.28223,0.03516c-0.18848,0-0.33545-0.04492-0.44238-0.13477s-0.16016-0.21191-0.16016-0.36621
			c0-0.06934,0.00879-0.13379,0.02637-0.19336s0.04395-0.11621,0.07813-0.1709c0.03223-0.0498,0.06982-0.09961,0.11279-0.14844
			s0.0957-0.10352,0.15723-0.16211c0.08789-0.08594,0.17871-0.16895,0.27197-0.24902c0.09375-0.08008,0.18115-0.1543,0.2627-0.22266
			h-0.98682V55.2998z"/>
		<path fill="#B5B4B3" d="M17.73486,55.2998h1.2417v0.25488c-0.08643,0.07324-0.17285,0.14648-0.25928,0.21973
			c-0.08691,0.07422-0.16748,0.14648-0.24219,0.21875c-0.15771,0.15137-0.26563,0.27246-0.32373,0.36133
			c-0.05859,0.08887-0.0874,0.18555-0.0874,0.28906c0,0.09375,0.03125,0.16797,0.09424,0.22168
			c0.0625,0.05273,0.15039,0.08008,0.2627,0.08008c0.07471,0,0.15576-0.01367,0.24268-0.03906
			c0.08691-0.02637,0.17188-0.06641,0.25488-0.12012h0.0127v0.25684c-0.05859,0.02832-0.13623,0.05371-0.23389,0.07813
			c-0.09717,0.02344-0.19141,0.03516-0.28223,0.03516c-0.18848,0-0.33545-0.04492-0.44238-0.13477s-0.16016-0.21191-0.16016-0.36621
			c0-0.06934,0.00879-0.13379,0.02637-0.19336s0.04395-0.11621,0.07813-0.1709c0.03223-0.0498,0.06982-0.09961,0.11279-0.14844
			s0.0957-0.10352,0.15723-0.16211c0.08789-0.08594,0.17871-0.16895,0.27197-0.24902c0.09375-0.08008,0.18115-0.1543,0.2627-0.22266
			h-0.98682V55.2998z"/>
		<path fill="#B5B4B3" d="M16.09424,55.2998h0.30566l0.55176,0.59766l0.15039-0.14258V55.2998h0.23145v1.90039h-0.23145v-1.21875
			l-0.66895,0.68262h-0.29199l0.63916-0.62988L16.09424,55.2998z"/>
	</g>
</g>
<g id="BMX055">
	<g id="XMLID_5_">
		<g>
			<rect x="37.65934" y="35.35145" fill="#363331" width="8.46885" height="12.68454"/>
		</g>
		<g>
		</g>
	</g>
	<rect x="36.68993" y="37.19695" fill="#9E9B9C" width="0.96941" height="0.63424"/>
	<rect x="36.68993" y="38.60476" fill="#9E9B9C" width="0.96941" height="0.63245"/>
	<rect x="36.68993" y="40.01078" fill="#9E9B9C" width="0.96941" height="0.63245"/>
	<rect x="36.68993" y="41.41858" fill="#9E9B9C" width="0.96941" height="0.63245"/>
	<rect x="36.68993" y="42.85498" fill="#9E9B9C" width="0.96941" height="0.63244"/>
	<rect x="36.68993" y="44.29137" fill="#9E9B9C" width="0.96941" height="0.63244"/>
	<rect x="36.68993" y="45.72775" fill="#9E9B9C" width="0.96941" height="0.63245"/>
	<rect x="46.12819" y="37.14336" fill="#9E9B9C" width="0.96941" height="0.63245"/>
	<rect x="46.12819" y="38.53866" fill="#9E9B9C" width="0.96941" height="0.63424"/>
	<rect x="46.12819" y="39.93575" fill="#9E9B9C" width="0.96941" height="0.63245"/>
	<rect x="46.12819" y="41.37749" fill="#9E9B9C" width="0.96941" height="0.63244"/>
	<rect x="46.12819" y="42.81924" fill="#9E9B9C" width="0.96941" height="0.63244"/>
	<rect x="46.12819" y="44.28958" fill="#9E9B9C" width="0.96941" height="0.63245"/>
	<rect x="46.12819" y="45.75992" fill="#9E9B9C" width="0.96941" height="0.63245"/>
	<rect x="43.20914" y="48.03599" fill="#9E9B9C" width="0.63787" height="0.96117"/>
	<rect x="41.78205" y="48.03599" fill="#9E9B9C" width="0.63786" height="0.96117"/>
	<rect x="40.2865" y="48.03599" fill="#9E9B9C" width="0.63967" height="0.96117"/>
	<rect x="43.23257" y="34.39028" fill="#9E9B9C" width="0.63786" height="0.96117"/>
	<rect x="41.79826" y="34.39028" fill="#9E9B9C" width="0.63787" height="0.96117"/>
	<rect x="40.25045" y="34.39028" fill="#9E9B9C" width="0.63786" height="0.96117"/>
	<g>
		<path fill="#B5B4B3" d="M40.36279,45.36328c0.09082,0,0.17139,0.01758,0.24121,0.05176s0.12744,0.08008,0.17236,0.1377
			c0.0542,0.06836,0.09277,0.14355,0.11572,0.22559s0.03467,0.18555,0.03467,0.3125v0.64453h-1.83398v-0.53906
			c0-0.13281,0.00488-0.23145,0.01465-0.29785c0.00977-0.06543,0.03027-0.12891,0.06152-0.18945
			c0.03564-0.06641,0.08057-0.11523,0.13623-0.14453c0.05518-0.03027,0.12158-0.0459,0.19873-0.0459
			c0.0874,0,0.16113,0.02246,0.22266,0.06641c0.06104,0.04395,0.10986,0.10254,0.14697,0.17578h0.00977
			c0.02539-0.12305,0.08008-0.21973,0.16357-0.29102C40.12988,45.39941,40.23535,45.36328,40.36279,45.36328z M39.53613,45.77051
			c-0.04443,0-0.08154,0.00684-0.1123,0.02148c-0.03027,0.01465-0.05469,0.03906-0.07373,0.07129
			c-0.02197,0.03809-0.03613,0.08496-0.04102,0.13965c-0.00537,0.05371-0.0083,0.12207-0.0083,0.20215v0.28809h0.52979v-0.3125
			c0-0.0752-0.00391-0.13574-0.01172-0.18066s-0.02393-0.08594-0.04883-0.125c-0.02441-0.03809-0.05615-0.06445-0.09521-0.08105
			C39.63574,45.77832,39.58936,45.77051,39.53613,45.77051z M40.37256,45.61523c-0.07422,0-0.13281,0.01074-0.17627,0.0332
			c-0.04346,0.02148-0.08057,0.06152-0.11084,0.11914c-0.02051,0.03906-0.03369,0.08691-0.04004,0.14258
			s-0.00928,0.12402-0.00928,0.20313v0.37988h0.68262v-0.31934c0-0.10645-0.00586-0.19336-0.0166-0.26074
			c-0.01123-0.06738-0.03174-0.12305-0.06104-0.16602c-0.03223-0.0459-0.06885-0.0791-0.10986-0.09961
			C40.49023,45.62598,40.4375,45.61523,40.37256,45.61523z"/>
		<path fill="#B5B4B3" d="M40.92676,43.40137v0.24121h-1.58057l1.07568,0.50586v0.14453l-1.07568,0.50195h1.58057v0.22559h-1.83398
			v-0.33008l1.021-0.48438l-1.021-0.46875v-0.33594H40.92676z"/>
		<path fill="#B5B4B3" d="M39.09277,41.5249l0.90625,0.62793l0.92773-0.62646v0.27979l-0.75488,0.49561l0.75488,0.5083v0.26367
			l-0.9165-0.63379l-0.91748,0.61914v-0.27832l0.74512-0.48975l-0.74512-0.50098V41.5249z"/>
		<path fill="#B5B4B3" d="M40.00928,40.01807c0.3291,0,0.5708,0.05127,0.72461,0.15332
			c0.1543,0.10205,0.23096,0.26074,0.23096,0.47559c0,0.21826-0.07813,0.37793-0.23389,0.47803
			c-0.15625,0.10059-0.396,0.15088-0.71924,0.15088c-0.32617,0-0.56689-0.05078-0.72266-0.15234
			c-0.15576-0.10205-0.2334-0.26074-0.2334-0.47656c0-0.21826,0.0791-0.37744,0.2373-0.47803
			C39.45068,40.06836,39.68945,40.01807,40.00928,40.01807z M40.56836,40.33936c-0.06641-0.02832-0.14453-0.04785-0.23486-0.05811
			c-0.08984-0.01025-0.19775-0.01514-0.32422-0.01514c-0.125,0-0.2334,0.00488-0.3252,0.01514
			c-0.09229,0.01025-0.16992,0.02979-0.23438,0.05908c-0.06299,0.02881-0.11084,0.06738-0.14258,0.1167
			c-0.03223,0.04932-0.04834,0.11279-0.04834,0.18994c0,0.07666,0.01611,0.14014,0.04834,0.18994
			c0.03174,0.05029,0.08057,0.08984,0.14502,0.11914c0.06104,0.02783,0.14014,0.04688,0.23779,0.05664
			c0.09766,0.01025,0.20508,0.01563,0.32178,0.01563c0.12793,0,0.23535-0.00488,0.32129-0.01367
			c0.08643-0.00879,0.16357-0.02783,0.23145-0.05713c0.06445-0.02686,0.11328-0.06494,0.14697-0.11426
			s0.05029-0.11475,0.05029-0.19629c0-0.07617-0.01611-0.14014-0.04785-0.19043
			C40.68164,40.40625,40.6333,40.36719,40.56836,40.33936z"/>
		<path fill="#B5B4B3" d="M40.34424,38.44043c0.08545,0,0.16699,0.01563,0.24512,0.04639
			c0.07813,0.03125,0.14355,0.07324,0.19678,0.12695c0.05762,0.05859,0.10205,0.12842,0.13281,0.20947s0.0459,0.1748,0.0459,0.28174
			c0,0.09912-0.01025,0.19482-0.03125,0.28711c-0.021,0.0918-0.04639,0.16943-0.07568,0.23291h-0.26025v-0.01709
			c0.04297-0.06641,0.0791-0.14502,0.10938-0.23438c0.02979-0.08936,0.04492-0.17725,0.04492-0.26367
			c0-0.05811-0.0083-0.11377-0.0249-0.16797c-0.01611-0.0542-0.04492-0.10254-0.08594-0.14502
			c-0.03564-0.03564-0.07764-0.0625-0.12695-0.08105c-0.04932-0.01807-0.10645-0.02734-0.17139-0.02734
			c-0.06299,0-0.1167,0.01074-0.16016,0.03223s-0.07813,0.05176-0.10449,0.08984c-0.03125,0.04248-0.05322,0.09375-0.06592,0.1543
			c-0.0127,0.06104-0.01904,0.12842-0.01904,0.20361c0,0.07178,0.00488,0.14063,0.01465,0.20703s0.01953,0.12354,0.02979,0.17139
			h-0.94482v-1.09424h0.21533v0.8584h0.48779c-0.00293-0.03467-0.00586-0.0708-0.00732-0.10742s-0.00244-0.06836-0.00244-0.09521
			c0-0.09814,0.0083-0.18457,0.02539-0.25879c0.0166-0.07422,0.04639-0.14209,0.08936-0.2041
			c0.04492-0.06494,0.10352-0.11523,0.1748-0.15137C40.14697,38.4585,40.23633,38.44043,40.34424,38.44043z"/>
		<path fill="#B5B4B3" d="M40.34424,36.85059c0.08545,0,0.16699,0.01563,0.24512,0.04639
			c0.07813,0.03125,0.14355,0.07324,0.19678,0.12695c0.05762,0.05859,0.10205,0.12842,0.13281,0.20947s0.0459,0.1748,0.0459,0.28174
			c0,0.09912-0.01025,0.19482-0.03125,0.28711c-0.021,0.0918-0.04639,0.16943-0.07568,0.23291h-0.26025v-0.01709
			c0.04297-0.06641,0.0791-0.14502,0.10938-0.23438c0.02979-0.08936,0.04492-0.17725,0.04492-0.26367
			c0-0.05811-0.0083-0.11377-0.0249-0.16797c-0.01611-0.0542-0.04492-0.10254-0.08594-0.14502
			c-0.03564-0.03564-0.07764-0.0625-0.12695-0.08105c-0.04932-0.01807-0.10645-0.02734-0.17139-0.02734
			c-0.06299,0-0.1167,0.01074-0.16016,0.03223s-0.07813,0.05176-0.10449,0.08984c-0.03125,0.04248-0.05322,0.09375-0.06592,0.1543
			c-0.0127,0.06104-0.01904,0.12842-0.01904,0.20361c0,0.07178,0.00488,0.14063,0.01465,0.20703s0.01953,0.12354,0.02979,0.17139
			h-0.94482v-1.09424h0.21533v0.8584h0.48779c-0.00293-0.03467-0.00586-0.0708-0.00732-0.10742s-0.00244-0.06836-0.00244-0.09521
			c0-0.09814,0.0083-0.18457,0.02539-0.25879c0.0166-0.07422,0.04639-0.14209,0.08936-0.2041
			c0.04492-0.06494,0.10352-0.11523,0.1748-0.15137C40.14697,36.86865,40.23633,36.85059,40.34424,36.85059z"/>
	</g>
	<g>
		<path fill="#B5B4B3" d="M44.66797,45.36328c0.0918,0,0.17188,0.01758,0.24219,0.05176
			c0.06934,0.03418,0.12695,0.08008,0.17188,0.1377c0.05469,0.06836,0.09277,0.14355,0.11621,0.22559
			c0.02246,0.08203,0.03418,0.18555,0.03418,0.3125v0.64453h-1.83398v-0.53906c0-0.13281,0.00488-0.23145,0.01465-0.29785
			c0.00977-0.06543,0.03027-0.12891,0.06152-0.18945c0.03564-0.06641,0.08057-0.11523,0.13623-0.14453
			c0.05518-0.03027,0.12158-0.0459,0.19873-0.0459c0.0874,0,0.16113,0.02246,0.22266,0.06641s0.11035,0.10254,0.14746,0.17578
			h0.00977c0.02539-0.12305,0.0791-0.21973,0.16309-0.29102C44.43555,45.39941,44.54102,45.36328,44.66797,45.36328z
			 M43.8418,45.77051c-0.04443,0-0.08154,0.00684-0.1123,0.02148c-0.03027,0.01465-0.05469,0.03906-0.07373,0.07129
			c-0.02197,0.03809-0.03613,0.08496-0.04102,0.13965c-0.00537,0.05371-0.0083,0.12207-0.0083,0.20215v0.28809h0.53027v-0.3125
			c0-0.0752-0.00391-0.13574-0.01172-0.18066s-0.02441-0.08594-0.04883-0.125c-0.02539-0.03809-0.05664-0.06445-0.0957-0.08105
			C43.94141,45.77832,43.89502,45.77051,43.8418,45.77051z M44.67773,45.61523c-0.07324,0-0.13184,0.01074-0.17578,0.0332
			c-0.04395,0.02148-0.08008,0.06152-0.11035,0.11914c-0.02051,0.03906-0.03418,0.08691-0.04004,0.14258
			c-0.00684,0.05566-0.00977,0.12402-0.00977,0.20313v0.37988h0.68262v-0.31934c0-0.10645-0.00586-0.19336-0.0166-0.26074
			c-0.01172-0.06738-0.03125-0.12305-0.06152-0.16602c-0.03125-0.0459-0.06836-0.0791-0.10938-0.09961
			C44.7959,45.62598,44.74316,45.61523,44.67773,45.61523z"/>
		<path fill="#B5B4B3" d="M43.60889,43.66504c0.08203-0.07422,0.18262-0.13086,0.30176-0.1709
			c0.11865-0.03906,0.25439-0.05859,0.40576-0.05859c0.15039,0,0.28613,0.01953,0.40527,0.06055
			c0.12012,0.04004,0.21973,0.09668,0.29883,0.16895c0.08301,0.07422,0.14551,0.16309,0.1875,0.26563
			c0.04199,0.10156,0.0625,0.21875,0.0625,0.34961c0,0.12793-0.02148,0.24414-0.06348,0.34863
			c-0.04297,0.10449-0.10547,0.19336-0.18652,0.2666s-0.18066,0.12988-0.29883,0.16992
			c-0.11914,0.03906-0.25391,0.05859-0.40527,0.05859c-0.15039,0-0.2832-0.01953-0.40234-0.05859
			c-0.11865-0.03906-0.2207-0.0957-0.30518-0.1709c-0.08057-0.07129-0.14209-0.16016-0.18457-0.2666
			c-0.04297-0.10645-0.06396-0.22266-0.06396-0.34766c0-0.12988,0.02148-0.24707,0.06445-0.35156
			C43.46777,43.8252,43.5293,43.7373,43.60889,43.66504z M44.31641,43.68652c-0.23828,0-0.42236,0.05273-0.55176,0.15918
			c-0.12939,0.10547-0.19385,0.25-0.19385,0.43359c0,0.18457,0.06445,0.33008,0.19385,0.43555s0.31348,0.1582,0.55176,0.1582
			c0.24023,0,0.4248-0.05371,0.55176-0.16211c0.12793-0.10742,0.19141-0.25098,0.19141-0.43164s-0.06348-0.3252-0.19141-0.43164
			C44.74121,43.74023,44.55664,43.68652,44.31641,43.68652z"/>
		<path fill="#B5B4B3" d="M44.70898,41.72998c0.07129,0,0.1416,0.0166,0.21191,0.0498
			c0.06934,0.03271,0.12891,0.0791,0.17773,0.13867c0.05176,0.06494,0.09277,0.14111,0.12305,0.22754
			c0.0293,0.08691,0.04395,0.19141,0.04395,0.31348c0,0.13086-0.0127,0.24902-0.03711,0.35352s-0.06055,0.21094-0.10938,0.31934
			h-0.30566v-0.01709c0.07715-0.09229,0.13672-0.19824,0.17871-0.31885s0.0625-0.23389,0.0625-0.33936
			c0-0.1499-0.02832-0.2666-0.08496-0.3501s-0.13184-0.125-0.22656-0.125c-0.08105,0-0.14063,0.01953-0.17969,0.05908
			c-0.03809,0.03955-0.06836,0.09961-0.08984,0.18018c-0.0166,0.06104-0.03027,0.12744-0.04102,0.19824
			c-0.01074,0.07129-0.02344,0.14697-0.04004,0.22656c-0.03516,0.16162-0.09375,0.28076-0.17676,0.3584
			c-0.08301,0.07813-0.19238,0.1167-0.32617,0.1167c-0.15332,0-0.2793-0.06396-0.37744-0.19287
			c-0.09814-0.12842-0.14697-0.29199-0.14697-0.48975c0-0.12793,0.01221-0.24512,0.03662-0.35156
			c0.0249-0.10693,0.05518-0.20117,0.09131-0.2832h0.28809v0.01709c-0.05908,0.06885-0.10791,0.16016-0.14697,0.27295
			s-0.05859,0.22803-0.05859,0.34619c0,0.12939,0.02734,0.2334,0.08154,0.31201s0.12402,0.11768,0.20898,0.11768
			c0.07666,0,0.13672-0.01953,0.18066-0.05859c0.04297-0.03906,0.07617-0.10791,0.09961-0.20654
			c0.01172-0.05176,0.02539-0.12598,0.04102-0.22217c0.0166-0.09619,0.0332-0.17725,0.05078-0.24414
			c0.03613-0.13525,0.09082-0.23682,0.16406-0.30518S44.57715,41.72998,44.70898,41.72998z"/>
		<path fill="#B5B4B3" d="M45.23242,39.95068v0.2417h-0.89844v0.90771h0.89844v0.2417h-1.83398v-0.2417h0.71875v-0.90771h-0.71875
			v-0.2417H45.23242z"/>
	</g>
</g>
<g id="PCA9306">
	<g id="XMLID_4_">
		<g>
			<rect x="13.60421" y="34.90481" fill="#363331" width="10.8113" height="13.93513"/>
		</g>
		<g>
		</g>
	</g>
	<g id="XMLID_11_">
		<g>
			<rect x="24.41551" y="46.3602" fill="#9E9B9C" width="5.06689" height="1.76512"/>
		</g>
		<g>
		</g>
	</g>
	<g id="XMLID_10_">
		<g>
			<rect x="24.41551" y="42.72099" fill="#9E9B9C" width="5.06689" height="1.76333"/>
		</g>
		<g>
		</g>
	</g>
	<g id="XMLID_9_">
		<g>
			<rect x="24.41551" y="39.08178" fill="#9E9B9C" width="5.06689" height="1.76333"/>
		</g>
		<g>
		</g>
	</g>
	<g id="XMLID_8_">
		<g>
			<rect x="24.41551" y="35.48544" fill="#9E9B9C" width="5.06689" height="1.76333"/>
		</g>
		<g>
		</g>
	</g>
	<g id="XMLID_12_">
		<g>
			<rect x="8.53732" y="35.48544" fill="#9E9B9C" width="5.06689" height="1.76333"/>
		</g>
		<g>
		</g>
	</g>
	<g id="XMLID_13_">
		<g>
			<rect x="8.53732" y="39.12465" fill="#9E9B9C" width="5.06689" height="1.76512"/>
		</g>
		<g>
		</g>
	</g>
	<g id="XMLID_14_">
		<g>
			<rect x="8.53732" y="42.76565" fill="#9E9B9C" width="5.06689" height="1.76512"/>
		</g>
		<g>
		</g>
	</g>
	<g id="XMLID_15_">
		<g>
			<rect x="8.53732" y="46.40665" fill="#9E9B9C" width="5.06689" height="1.76333"/>
		</g>
		<g>
		</g>
	</g>
	<g>
		<path fill="#B5B4B3" d="M16.45947,45.85449c0.08105,0,0.15674,0.01367,0.22607,0.04199s0.12939,0.06738,0.18018,0.11816
			c0.06348,0.0625,0.11084,0.13672,0.14258,0.22168c0.03174,0.08594,0.04736,0.19336,0.04736,0.32422v0.24121h0.68359v0.24219
			h-1.83398v-0.49316c0-0.10938,0.00928-0.20215,0.02783-0.27734c0.01807-0.07617,0.04736-0.14355,0.08643-0.20215
			c0.04688-0.06836,0.10547-0.12207,0.17529-0.16016S16.35254,45.85449,16.45947,45.85449z M16.46582,46.10547
			c-0.06348,0-0.11865,0.01172-0.16504,0.0332c-0.04688,0.02246-0.08545,0.05566-0.11475,0.10059
			c-0.02539,0.03906-0.04395,0.08301-0.05469,0.13379c-0.01123,0.0498-0.0166,0.11328-0.0166,0.18945v0.23926h0.73291v-0.2041
			c0-0.09766-0.00879-0.17676-0.02686-0.2373c-0.01758-0.06152-0.04541-0.11133-0.08398-0.14941
			c-0.03955-0.03809-0.08105-0.06543-0.12451-0.08105S16.52002,46.10547,16.46582,46.10547z"/>
		<path fill="#B5B4B3" d="M17.60645,44.13184c0.01953,0.04492,0.03809,0.08496,0.05518,0.12109s0.03516,0.08398,0.0542,0.14258
			c0.01563,0.0498,0.02881,0.10352,0.04004,0.16211c0.01123,0.05762,0.0166,0.12207,0.0166,0.19238
			c0,0.13184-0.01855,0.25098-0.05615,0.35938c-0.03711,0.10742-0.0957,0.20117-0.17529,0.28125
			c-0.07813,0.07813-0.17725,0.13965-0.29736,0.18359c-0.12061,0.04395-0.26025,0.06543-0.41943,0.06543
			c-0.15137,0-0.28613-0.02051-0.40527-0.06348c-0.11914-0.04199-0.21973-0.10352-0.30176-0.18262
			c-0.07959-0.07813-0.14063-0.1709-0.18262-0.28027c-0.0415-0.11035-0.0625-0.23145-0.0625-0.36523
			c0-0.09766,0.01172-0.19531,0.03564-0.29199c0.02393-0.09766,0.06543-0.20605,0.12549-0.32422h0.28955v0.01758
			c-0.08447,0.10059-0.146,0.2002-0.18457,0.29883c-0.03857,0.09766-0.05811,0.20313-0.05811,0.31641
			c0,0.0918,0.01514,0.1748,0.04492,0.24805s0.07666,0.13965,0.13965,0.19727c0.06201,0.05664,0.13965,0.09961,0.2334,0.13086
			c0.09424,0.03223,0.20264,0.04785,0.32617,0.04785c0.12891,0,0.23975-0.01758,0.33252-0.05273
			c0.09277-0.03418,0.16846-0.0791,0.22656-0.13379c0.06055-0.05664,0.10596-0.12305,0.13477-0.19922
			c0.0293-0.07617,0.04395-0.15625,0.04395-0.24121c0-0.11621-0.02002-0.22559-0.06055-0.32715
			c-0.04004-0.10156-0.10059-0.19727-0.18115-0.28613v-0.0166H17.60645z"/>
		<path fill="#B5B4B3" d="M17.73926,42.35596v0.25781l-0.51123,0.17822v0.78711l0.51123,0.17773v0.24512l-1.83398-0.66113v-0.32275
			L17.73926,42.35596z M17.01855,42.8667l-0.90039,0.31885l0.90039,0.31934V42.8667z"/>
		<path fill="#B5B4B3" d="M16.71191,40.89893c0.16016,0,0.30566,0.01807,0.43604,0.0542
			c0.13086,0.03662,0.2417,0.09131,0.33398,0.16455c0.09326,0.07422,0.16553,0.16699,0.2168,0.27832
			c0.05078,0.11182,0.07617,0.24268,0.07617,0.39307c0,0.04248-0.00195,0.08252-0.00684,0.12012
			c-0.00439,0.03711-0.01172,0.0708-0.02148,0.1001h-0.23535v-0.01221c0.0127-0.02393,0.02441-0.05713,0.03516-0.1001
			c0.01123-0.04346,0.0166-0.09131,0.0166-0.14453c0-0.17969-0.0542-0.3208-0.16309-0.42285s-0.25879-0.16162-0.4502-0.17773
			c0.0459,0.07568,0.07861,0.14697,0.09863,0.21387c0.01953,0.06641,0.0293,0.13965,0.0293,0.21826
			c0,0.0752-0.00732,0.14307-0.02197,0.20361s-0.04346,0.12158-0.08643,0.18262c-0.0498,0.07129-0.11377,0.12549-0.19092,0.16162
			s-0.16943,0.0542-0.27686,0.0542c-0.1875,0-0.33984-0.06104-0.45703-0.18311c-0.11768-0.12207-0.17627-0.271-0.17627-0.44678
			c0-0.08789,0.01367-0.16943,0.0415-0.24414c0.02734-0.0752,0.06836-0.14063,0.12354-0.19678
			c0.06836-0.06934,0.15576-0.12256,0.26318-0.16016C16.40332,40.91797,16.54199,40.89893,16.71191,40.89893z M16.65918,41.14551
			c-0.12744,0-0.22949,0.01318-0.30664,0.03906c-0.07764,0.02637-0.13721,0.06201-0.18018,0.10791
			c-0.03662,0.03809-0.06348,0.0791-0.07959,0.12305c-0.01563,0.04395-0.02393,0.0918-0.02393,0.14307
			c0,0.11719,0.03711,0.20996,0.11084,0.27783c0.07422,0.06787,0.17773,0.10205,0.31201,0.10205
			c0.07764,0,0.1416-0.01123,0.19092-0.0332c0.04883-0.02197,0.09229-0.05908,0.12891-0.11133
			c0.02588-0.03662,0.04248-0.07666,0.05127-0.12061s0.01318-0.09277,0.01318-0.14648c0-0.06348-0.00879-0.12793-0.02588-0.19287
			c-0.01758-0.06543-0.04248-0.12646-0.0752-0.18359c-0.01758-0.00049-0.03418-0.00146-0.05127-0.00293
			C16.70703,41.14648,16.68506,41.14551,16.65918,41.14551z"/>
		<path fill="#B5B4B3" d="M16.85596,39.4668c0.03564-0.03906,0.07959-0.07129,0.1333-0.09668
			c0.05322-0.0249,0.12207-0.0376,0.20703-0.0376c0.0835,0,0.16016,0.01514,0.22998,0.04492
			c0.06982,0.03027,0.13086,0.07275,0.18262,0.12695c0.05713,0.06104,0.09961,0.1333,0.12744,0.21582
			c0.02734,0.08252,0.04102,0.17334,0.04102,0.27148c0,0.10107-0.01221,0.2002-0.03613,0.29834
			c-0.02441,0.09766-0.05078,0.17773-0.07959,0.24023H17.4043v-0.01807c0.0459-0.06934,0.08398-0.15088,0.11426-0.24414
			c0.03076-0.09375,0.0459-0.18408,0.0459-0.27148c0-0.05127-0.00879-0.10547-0.02588-0.16357
			c-0.01758-0.05762-0.04297-0.10449-0.07666-0.14063c-0.03613-0.03711-0.07568-0.06494-0.11914-0.0835
			c-0.04346-0.01807-0.09863-0.02734-0.16504-0.02734c-0.06592,0-0.12012,0.01025-0.16357,0.03125
			c-0.04297,0.02051-0.07666,0.04932-0.10156,0.08594c-0.02539,0.03662-0.04297,0.08105-0.05225,0.1333
			c-0.00928,0.05176-0.01416,0.10791-0.01416,0.16846v0.10986H16.6416V40.0249c0-0.12402-0.02588-0.22266-0.07813-0.29639
			s-0.12842-0.11035-0.22852-0.11035c-0.04443,0-0.08301,0.00928-0.11621,0.02783c-0.0332,0.01904-0.06055,0.04492-0.08203,0.07861
			c-0.02148,0.03467-0.03613,0.07227-0.04443,0.1123c-0.0083,0.03955-0.01221,0.08496-0.01221,0.13525
			c0,0.07764,0.01416,0.15967,0.04199,0.24707c0.02783,0.08691,0.06738,0.16895,0.11816,0.24658v0.01221h-0.25732
			c-0.02881-0.05811-0.05518-0.13525-0.07959-0.23145c-0.02441-0.09668-0.03613-0.18994-0.03613-0.28027
			c0-0.08887,0.00781-0.16699,0.02441-0.23438c0.0166-0.06787,0.04297-0.12891,0.07861-0.18359
			c0.03955-0.05859,0.0874-0.10303,0.14307-0.13281c0.05615-0.03027,0.12109-0.04541,0.1958-0.04541
			c0.10205,0,0.19092,0.03564,0.2666,0.10693c0.07617,0.07129,0.12402,0.15527,0.14355,0.25244h0.01758
			c0.00635-0.03955,0.02002-0.08398,0.04102-0.13477C16.79883,39.54443,16.82471,39.50146,16.85596,39.4668z"/>
		<path fill="#B5B4B3" d="M16.82178,37.71924c0.3291,0,0.5708,0.05127,0.72461,0.15332
			c0.1543,0.10205,0.23096,0.26074,0.23096,0.47559c0,0.21826-0.07813,0.37793-0.23389,0.47803
			c-0.15625,0.10059-0.396,0.15088-0.71924,0.15088c-0.32617,0-0.56689-0.05078-0.72266-0.15234
			c-0.15576-0.10205-0.2334-0.26074-0.2334-0.47656c0-0.21826,0.0791-0.37744,0.2373-0.47803
			C16.26318,37.76953,16.50195,37.71924,16.82178,37.71924z M17.38086,38.04053c-0.06641-0.02832-0.14453-0.04785-0.23486-0.05811
			c-0.08984-0.01025-0.19775-0.01514-0.32422-0.01514c-0.125,0-0.2334,0.00488-0.3252,0.01514
			c-0.09229,0.01025-0.16992,0.02979-0.23438,0.05908c-0.06299,0.02881-0.11084,0.06738-0.14258,0.1167
			c-0.03223,0.04932-0.04834,0.11279-0.04834,0.18994c0,0.07666,0.01611,0.14014,0.04834,0.18994
			c0.03174,0.05029,0.08057,0.08984,0.14502,0.11914c0.06104,0.02783,0.14014,0.04688,0.23779,0.05664
			c0.09766,0.01025,0.20508,0.01563,0.32178,0.01563c0.12793,0,0.23535-0.00488,0.32129-0.01367
			c0.08643-0.00879,0.16357-0.02783,0.23145-0.05713c0.06445-0.02686,0.11328-0.06494,0.14697-0.11426
			s0.05029-0.11475,0.05029-0.19629c0-0.07617-0.01611-0.14014-0.04785-0.19043
			C17.49414,38.10742,17.4458,38.06836,17.38086,38.04053z"/>
		<path fill="#B5B4B3" d="M17.14453,36.1001c0.18604,0,0.33838,0.06104,0.45605,0.18262
			c0.11816,0.12158,0.17676,0.271,0.17676,0.44775c0,0.08936-0.01367,0.1709-0.04199,0.24414
			c-0.02783,0.07324-0.06934,0.13818-0.12402,0.19434c-0.06836,0.06982-0.15869,0.12354-0.271,0.16162
			c-0.11279,0.03809-0.24805,0.05664-0.40674,0.05664c-0.1626,0-0.30664-0.01709-0.43213-0.05176
			c-0.12598-0.03467-0.2373-0.08984-0.33496-0.16553c-0.09277-0.07178-0.16553-0.16406-0.21777-0.27734
			c-0.05176-0.11279-0.07813-0.24512-0.07813-0.39551c0-0.04785,0.00195-0.08838,0.00635-0.12109
			c0.00391-0.03223,0.01123-0.06543,0.02197-0.09863h0.23535v0.01221c-0.01221,0.02246-0.02393,0.05713-0.03516,0.10303
			s-0.0166,0.09326-0.0166,0.14111c0,0.17529,0.05518,0.31494,0.16553,0.41895c0.11084,0.104,0.25977,0.16504,0.44775,0.18213
			c-0.0415-0.06836-0.07373-0.13574-0.09521-0.20215c-0.02197-0.06641-0.03271-0.14307-0.03271-0.23047
			c0-0.07715,0.00732-0.14551,0.02148-0.20459c0.01465-0.05908,0.04346-0.11914,0.08691-0.18115
			c0.05029-0.07178,0.11328-0.12549,0.18945-0.16211C16.94238,36.11816,17.03516,36.1001,17.14453,36.1001z M17.1543,36.34814
			c-0.07666,0-0.13965,0.01123-0.18994,0.03369c-0.0498,0.02246-0.09326,0.05908-0.13037,0.11035
			c-0.02637,0.0376-0.04346,0.0791-0.05176,0.12451c-0.0083,0.0459-0.01221,0.09326-0.01221,0.14307
			c0,0.06885,0.0083,0.1333,0.02441,0.19287c0.0166,0.05957,0.04199,0.12061,0.07666,0.18311
			c0.01807,0.00146,0.03516,0.00293,0.05225,0.00391c0.0166,0.00049,0.03809,0.00098,0.06348,0.00098
			c0.12939,0,0.23193-0.01318,0.30713-0.03955s0.13428-0.06299,0.17822-0.10938c0.03613-0.0376,0.0625-0.07813,0.0791-0.12158
			c0.01709-0.04346,0.02539-0.09082,0.02539-0.14209c0-0.11816-0.03613-0.21094-0.10889-0.27881
			C17.39502,36.38184,17.29053,36.34814,17.1543,36.34814z"/>
	</g>
</g>
<g id="Рисунок">
	<g>
		<path fill="none" stroke="#E5E5E5" stroke-miterlimit="10" d="M58.08337,42.71143c-1.23303,0.47694-2.075,1.42363-2.075,2.5189
			c0,1.5765,1.73951,2.53181,3.88531,2.53181s3.88531-0.95531,3.88531-2.53181c0-0.59882-0.25679-1.13233-0.68916-1.57817"/>
		<g>
			<polygon fill="#E5E5E5" points="61.74363,45.40773 62.35246,42.89181 64.88599,42.36032 64.89592,42.37057 61.75357,45.41797 			
				"/>
		</g>
	</g>
	<g>
		<path fill="none" stroke="#E5E5E5" stroke-miterlimit="10" d="M70.69183,51.66772
			c-0.48103-1.22254-1.43584-2.05735-2.54051-2.05735c-1.59002,0-2.55354,1.72472-2.55354,3.85226
			c0,2.12754,0.96352,3.85226,2.55354,3.85226c0.60396,0,1.14204-0.2546,1.59171-0.6833"/>
		<g>
			<polygon fill="#E5E5E5" points="67.99901,55.27046 70.50964,55.90074 71.01948,58.43871 71.00915,58.44856 67.98868,55.28031 			
				"/>
		</g>
	</g>
	<path fill="none" stroke="#E5E5E5" stroke-miterlimit="10" d="M59.45771,43.5574"/>
	<path fill="none" stroke="#E5E5E5" stroke-miterlimit="10" d="M59.5746,43.56373"/>
	<path fill="none" stroke="#E5E5E5" stroke-miterlimit="10" d="M59.79983,43.57862"/>
	<g>
		<line fill="none" stroke="#E5E5E5" stroke-miterlimit="10" x1="59.89368" y1="45.96069" x2="59.89368" y2="38.61855"/>
		<g>
			<polygon fill="#E5E5E5" points="57.82827,38.89546 61.95891,38.89546 59.89368,36.83091 			"/>
		</g>
	</g>
	<path fill="none" stroke="#F2F2F2" stroke-miterlimit="10" d="M64.25949,52.60741h-3.74521c0,0-0.3103,0-0.62061,0v-2.83464"/>
	<g>
		<line fill="none" stroke="#E5E5E5" stroke-miterlimit="10" x1="67.2326" y1="53.34512" x2="75.04826" y2="53.34512"/>
		<g>
			<polygon fill="#E5E5E5" points="74.72519,51.15654 76.10743,53.34512 74.72519,55.53387 74.71091,55.53387 74.71091,51.15654 			
				"/>
		</g>
	</g>
	<g>
		<path fill="none" stroke="#E5E5E5" stroke-miterlimit="10" d="M75.13271,36.20267
			c0.92683,0.71105,1.52359,1.82469,1.52359,3.07653c0,2.14708-1.75549,3.88764-3.921,3.88764s-3.92099-1.74055-3.92099-3.88764
			c0-1.83405,1.28092-3.37148,3.00416-3.78078"/>
		<g>
			<polygon fill="#E5E5E5" points="76.6096,34.73251 74.09533,38.0098 73.71437,35.11455 			"/>
		</g>
	</g>
	<ellipse fill="none" stroke="#E5E5E5" stroke-miterlimit="10" cx="72.86348" cy="39.33262" rx="0.34536" ry="0.34242"/>
	<g>
		<path fill="#E5E4E0" d="M79.77246,32.36133v0.36182l-1.78125,2.69043h1.2666l0.06055-0.43604h0.55469l-0.05566,0.99072h-2.71582
			V35.5918l1.77441-2.67285h-1.15723l-0.05762,0.43555h-0.55664l0.05469-0.99316H79.77246z"/>
	</g>
	<g>
		<path fill="#E5E4E0" d="M59.53906,32.96143l-0.29785,0.04199l0.56543,1.18408h0.01465l0.56445-1.18408l-0.29492-0.04199v-0.43604
			h1.37695v0.43604l-0.30957,0.04932l-0.98926,1.85303v0.76074l0.38965,0.07422v0.43359h-1.50684v-0.43359l0.38965-0.07422v-0.79785
			l-0.97168-1.81592l-0.30762-0.04932v-0.43604h1.37695V32.96143z"/>
	</g>
	<g>
		<path fill="#E5E4E0" d="M76.53418,54.69629l0.30762-0.05957l0.96191-1.3252l-0.93652-1.29102l-0.30469-0.06152v-0.43555h1.39648
			v0.43555l-0.29785,0.03223l0.5625,0.88477l0.56445-0.88477l-0.29199-0.03223v-0.43555h1.40137v0.43555l-0.30469,0.06152
			l-0.93652,1.29102l0.98145,1.32324l0.32227,0.06152v0.43359h-1.43164v-0.43359l0.29004-0.0293l-0.58496-0.91211l-0.58691,0.91211
			l0.29199,0.0293v0.43359h-1.4043V54.69629z"/>
	</g>
</g>
<g id="Конденсатор">
	<g id="ГРУППА">
		<g>
			<polygon fill="#CDC7BC" points="70.40931,24.50038 70.40931,27.93804 66.15383,27.93804 66.15383,24.50038 66.46184,24.50038 
				66.46184,25.2049 70.06944,25.2049 70.06944,24.50038 			"/>
			<polygon fill="#CDC7BC" points="70.36859,17.37192 70.36859,20.80958 70.06944,20.80958 70.06944,20.0431 66.46184,20.0431 
				66.46184,20.80958 66.11311,20.80958 66.11311,17.37192 			"/>
			<rect x="66.46184" y="24.50038" fill="#907747" width="3.6076" height="0.70453"/>
			<rect x="66.46184" y="20.80958" fill="#907747" width="3.6076" height="3.69079"/>
			<rect x="66.46184" y="20.0431" fill="#907747" width="3.6076" height="0.76648"/>
		</g>
		<g>
		</g>
	</g>
	<g id="ГРУППА_1_">
		<g>
			<polygon fill="#CDC7BC" points="48.15235,24.37645 48.15235,27.81411 43.89687,27.81411 43.89687,24.37645 44.20665,24.37645 
				44.20665,25.08098 47.81248,25.08098 47.81248,24.37645 			"/>
			<polygon fill="#CDC7BC" points="48.11164,17.248 48.11164,20.68566 47.81248,20.68566 47.81248,19.91918 44.20665,19.91918 
				44.20665,20.68566 43.85616,20.68566 43.85616,17.248 			"/>
			<rect x="44.20665" y="24.37645" fill="#907747" width="3.60583" height="0.70453"/>
			<rect x="44.20665" y="20.68566" fill="#907747" width="3.60583" height="3.69079"/>
			<rect x="44.20665" y="19.91918" fill="#907747" width="3.60583" height="0.76648"/>
		</g>
		<g>
		</g>
	</g>
	<g id="ГРУППА_2_">
		<g>
			<polygon fill="#CDC7BC" points="40.80223,24.37645 40.80223,27.81411 36.54676,27.81411 36.54676,24.37645 36.85654,24.37645 
				36.85654,25.08098 40.46236,25.08098 40.46236,24.37645 			"/>
			<polygon fill="#CDC7BC" points="40.76152,17.248 40.76152,20.68566 40.46236,20.68566 40.46236,19.91918 36.85654,19.91918 
				36.85654,20.68566 36.50604,20.68566 36.50604,17.248 			"/>
			<rect x="36.85654" y="24.37645" fill="#907747" width="3.60583" height="0.70453"/>
			<rect x="36.85654" y="20.68566" fill="#907747" width="3.60583" height="3.69079"/>
			<rect x="36.85654" y="19.91918" fill="#907747" width="3.60583" height="0.76648"/>
		</g>
		<g>
		</g>
	</g>
</g>
<g id="Резистор">
	<g>
		<g id="XMLID_40_">
			<g>
				<rect x="14.57424" y="24.50038" fill="#CDC7BC" width="4.25725" height="3.43766"/>
			</g>
			<g>
			</g>
		</g>
		<g id="XMLID_39_">
			<g>
				<rect x="14.5353" y="17.37192" fill="#CDC7BC" width="4.25548" height="3.43766"/>
			</g>
			<g>
			</g>
		</g>
		<g id="XMLID_38_">
			<g>
				<rect x="14.88579" y="20.04292" fill="#363331" width="3.60583" height="5.16334"/>
			</g>
			<g>
			</g>
		</g>
		<g>
			<path fill="#B5B4B3" d="M17.23193,23.56396v0.69678h-0.13135v-0.26807h-0.86279v0.26807h-0.11719
				c0-0.03613-0.00342-0.0752-0.00928-0.1167s-0.01465-0.07275-0.02637-0.09424c-0.01416-0.02637-0.03271-0.04736-0.05469-0.0625
				c-0.02246-0.01563-0.05225-0.02441-0.08984-0.02637v-0.13428h1.16016v-0.2627H17.23193z"/>
			<path fill="#B5B4B3" d="M16.58789,22.54395c0.23096,0,0.40088,0.03613,0.50879,0.1084s0.16211,0.18457,0.16211,0.33691
				c0,0.1543-0.05469,0.26709-0.16406,0.33838c-0.10986,0.07129-0.27783,0.10645-0.50488,0.10645
				c-0.229,0-0.39795-0.03564-0.50684-0.10791c-0.10938-0.07178-0.16406-0.18408-0.16406-0.33691
				c0-0.1543,0.05566-0.26709,0.1665-0.33838S16.36377,22.54395,16.58789,22.54395z M16.98047,22.77148
				c-0.04688-0.02051-0.10156-0.03418-0.16455-0.04102c-0.06348-0.00732-0.13916-0.01074-0.22803-0.01074
				c-0.0874,0-0.16357,0.00342-0.22803,0.01074c-0.06445,0.00684-0.11914,0.021-0.16406,0.04199
				c-0.04443,0.02002-0.07813,0.04736-0.10059,0.08252c-0.02246,0.03467-0.03369,0.07959-0.03369,0.13428
				c0,0.0542,0.01123,0.09912,0.03369,0.13428c0.02246,0.03564,0.05664,0.06348,0.10205,0.08447
				c0.04248,0.01953,0.09814,0.03271,0.16699,0.04004c0.06836,0.00732,0.14355,0.01074,0.22559,0.01074
				c0.08984,0,0.16504-0.00293,0.22559-0.00928s0.11475-0.02002,0.1626-0.04102c0.04492-0.01855,0.0791-0.0459,0.10254-0.08057
				c0.02393-0.03467,0.03564-0.08105,0.03564-0.13867c0-0.0542-0.01123-0.09912-0.03369-0.13477
				S17.02588,22.79102,16.98047,22.77148z"/>
			<path fill="#B5B4B3" d="M16.58789,21.59521c0.23096,0,0.40088,0.03613,0.50879,0.1084s0.16211,0.18457,0.16211,0.33691
				c0,0.1543-0.05469,0.26709-0.16406,0.33838c-0.10986,0.07129-0.27783,0.10645-0.50488,0.10645
				c-0.229,0-0.39795-0.03564-0.50684-0.10791c-0.10938-0.07178-0.16406-0.18408-0.16406-0.33691
				c0-0.1543,0.05566-0.26709,0.1665-0.33838S16.36377,21.59521,16.58789,21.59521z M16.98047,21.82275
				c-0.04688-0.02051-0.10156-0.03418-0.16455-0.04102c-0.06348-0.00732-0.13916-0.01074-0.22803-0.01074
				c-0.0874,0-0.16357,0.00342-0.22803,0.01074c-0.06445,0.00684-0.11914,0.021-0.16406,0.04199
				c-0.04443,0.02002-0.07813,0.04736-0.10059,0.08252c-0.02246,0.03467-0.03369,0.07959-0.03369,0.13428
				c0,0.0542,0.01123,0.09912,0.03369,0.13428c0.02246,0.03564,0.05664,0.06348,0.10205,0.08447
				c0.04248,0.01953,0.09814,0.03271,0.16699,0.04004c0.06836,0.00732,0.14355,0.01074,0.22559,0.01074
				c0.08984,0,0.16504-0.00293,0.22559-0.00928s0.11475-0.02002,0.1626-0.04102c0.04492-0.01855,0.0791-0.0459,0.10254-0.08057
				c0.02393-0.03467,0.03564-0.08105,0.03564-0.13867c0-0.0542-0.01123-0.09912-0.03369-0.13477
				S17.02588,21.84229,16.98047,21.82275z"/>
			<path fill="#B5B4B3" d="M17.23193,20.64551v0.87109h-0.18066c-0.05176-0.06055-0.10352-0.12109-0.15576-0.18213
				c-0.05176-0.06055-0.10303-0.11719-0.1543-0.16943c-0.10742-0.11084-0.19238-0.18652-0.25586-0.22754
				c-0.06299-0.04102-0.13086-0.06152-0.2041-0.06152c-0.06689,0-0.11914,0.02197-0.15674,0.06641
				c-0.03809,0.04395-0.05664,0.10547-0.05664,0.18457c0,0.05225,0.00879,0.10889,0.02734,0.16992s0.04688,0.12109,0.08496,0.1792
				v0.00879h-0.18164c-0.02002-0.04102-0.03857-0.0957-0.05518-0.16406c-0.01709-0.06836-0.02539-0.13428-0.02539-0.19824
				c0-0.13184,0.03223-0.23535,0.0957-0.31055c0.06348-0.07471,0.1499-0.1123,0.25879-0.1123
				c0.04883,0,0.09473,0.00635,0.13721,0.01855c0.04199,0.0127,0.08252,0.03076,0.12061,0.05518
				c0.03564,0.02246,0.0708,0.04883,0.10547,0.0791c0.03418,0.03027,0.07275,0.06689,0.11475,0.10986
				c0.06055,0.06201,0.11914,0.12549,0.17578,0.19141c0.05664,0.06543,0.10938,0.12695,0.15771,0.18408v-0.69238H17.23193z"/>
		</g>
	</g>
	<g>
		<g id="XMLID_3_">
			<g>
				<rect x="21.94587" y="24.47083" fill="#CDC7BC" width="4.25548" height="3.43589"/>
			</g>
			<g>
			</g>
		</g>
		<g id="XMLID_2_">
			<g>
				<rect x="21.90516" y="17.3406" fill="#CDC7BC" width="4.25548" height="3.43766"/>
			</g>
			<g>
			</g>
		</g>
		<g id="XMLID_1_">
			<g>
				<rect x="22.25565" y="20.01305" fill="#363331" width="3.60583" height="5.16116"/>
			</g>
			<g>
			</g>
		</g>
		<g>
			<path fill="#B5B4B3" d="M24.60254,23.53271v0.69678h-0.13135v-0.26807H23.6084v0.26807h-0.11719
				c0-0.03613-0.00342-0.0752-0.00928-0.1167s-0.01465-0.07275-0.02637-0.09424c-0.01416-0.02637-0.03271-0.04736-0.05469-0.0625
				c-0.02246-0.01563-0.05225-0.02441-0.08984-0.02637v-0.13428h1.16016v-0.2627H24.60254z"/>
			<path fill="#B5B4B3" d="M23.9585,22.5127c0.23096,0,0.40088,0.03613,0.50879,0.1084s0.16211,0.18457,0.16211,0.33691
				c0,0.1543-0.05469,0.26709-0.16406,0.33838c-0.10986,0.07129-0.27783,0.10645-0.50488,0.10645
				c-0.229,0-0.39795-0.03564-0.50684-0.10791c-0.10938-0.07178-0.16406-0.18408-0.16406-0.33691
				c0-0.1543,0.05566-0.26709,0.1665-0.33838S23.73438,22.5127,23.9585,22.5127z M24.35107,22.74023
				c-0.04688-0.02051-0.10156-0.03418-0.16455-0.04102c-0.06348-0.00732-0.13916-0.01074-0.22803-0.01074
				c-0.0874,0-0.16357,0.00342-0.22803,0.01074c-0.06445,0.00684-0.11914,0.021-0.16406,0.04199
				c-0.04443,0.02002-0.07813,0.04736-0.10059,0.08252c-0.02246,0.03467-0.03369,0.07959-0.03369,0.13428
				c0,0.0542,0.01123,0.09912,0.03369,0.13428c0.02246,0.03564,0.05664,0.06348,0.10205,0.08447
				c0.04248,0.01953,0.09814,0.03271,0.16699,0.04004c0.06836,0.00732,0.14355,0.01074,0.22559,0.01074
				c0.08984,0,0.16504-0.00293,0.22559-0.00928s0.11475-0.02002,0.1626-0.04102c0.04492-0.01855,0.0791-0.0459,0.10254-0.08057
				c0.02393-0.03467,0.03564-0.08105,0.03564-0.13867c0-0.0542-0.01123-0.09912-0.03369-0.13477
				S24.39648,22.75977,24.35107,22.74023z"/>
			<path fill="#B5B4B3" d="M23.9585,21.56396c0.23096,0,0.40088,0.03613,0.50879,0.1084s0.16211,0.18457,0.16211,0.33691
				c0,0.1543-0.05469,0.26709-0.16406,0.33838c-0.10986,0.07129-0.27783,0.10645-0.50488,0.10645
				c-0.229,0-0.39795-0.03564-0.50684-0.10791c-0.10938-0.07178-0.16406-0.18408-0.16406-0.33691
				c0-0.1543,0.05566-0.26709,0.1665-0.33838S23.73438,21.56396,23.9585,21.56396z M24.35107,21.7915
				c-0.04688-0.02051-0.10156-0.03418-0.16455-0.04102c-0.06348-0.00732-0.13916-0.01074-0.22803-0.01074
				c-0.0874,0-0.16357,0.00342-0.22803,0.01074c-0.06445,0.00684-0.11914,0.021-0.16406,0.04199
				c-0.04443,0.02002-0.07813,0.04736-0.10059,0.08252c-0.02246,0.03467-0.03369,0.07959-0.03369,0.13428
				c0,0.0542,0.01123,0.09912,0.03369,0.13428c0.02246,0.03564,0.05664,0.06348,0.10205,0.08447
				c0.04248,0.01953,0.09814,0.03271,0.16699,0.04004c0.06836,0.00732,0.14355,0.01074,0.22559,0.01074
				c0.08984,0,0.16504-0.00293,0.22559-0.00928s0.11475-0.02002,0.1626-0.04102c0.04492-0.01855,0.0791-0.0459,0.10254-0.08057
				c0.02393-0.03467,0.03564-0.08105,0.03564-0.13867c0-0.0542-0.01123-0.09912-0.03369-0.13477S24.39648,21.81104,24.35107,21.7915
				z"/>
			<path fill="#B5B4B3" d="M24.60254,20.61426v0.87109h-0.18066c-0.05176-0.06055-0.10352-0.12109-0.15576-0.18213
				c-0.05176-0.06055-0.10303-0.11719-0.1543-0.16943c-0.10742-0.11084-0.19238-0.18652-0.25586-0.22754
				c-0.06299-0.04102-0.13086-0.06152-0.2041-0.06152c-0.06689,0-0.11914,0.02197-0.15674,0.06641
				c-0.03809,0.04395-0.05664,0.10547-0.05664,0.18457c0,0.05225,0.00879,0.10889,0.02734,0.16992s0.04688,0.12109,0.08496,0.1792
				v0.00879h-0.18164c-0.02002-0.04102-0.03857-0.0957-0.05518-0.16406c-0.01709-0.06836-0.02539-0.13428-0.02539-0.19824
				c0-0.13184,0.03223-0.23535,0.0957-0.31055c0.06348-0.07471,0.1499-0.1123,0.25879-0.1123
				c0.04883,0,0.09473,0.00635,0.13721,0.01855c0.04199,0.0127,0.08252,0.03076,0.12061,0.05518
				c0.03564,0.02246,0.0708,0.04883,0.10547,0.0791c0.03418,0.03027,0.07275,0.06689,0.11475,0.10986
				c0.06055,0.06201,0.11914,0.12549,0.17578,0.19141c0.05664,0.06543,0.10938,0.12695,0.15771,0.18408v-0.69238H24.60254z"/>
		</g>
	</g>
	<g>
		<g id="XMLID_21_">
			<g>
				<rect x="29.19587" y="24.46963" fill="#CDC7BC" width="4.25548" height="3.43766"/>
			</g>
			<g>
			</g>
		</g>
		<g id="XMLID_20_">
			<g>
				<rect x="29.15516" y="17.34118" fill="#CDC7BC" width="4.25548" height="3.43766"/>
			</g>
			<g>
			</g>
		</g>
		<g id="XMLID_7_">
			<g>
				<rect x="29.50565" y="20.01174" fill="#363331" width="3.60583" height="5.16334"/>
			</g>
			<g>
			</g>
		</g>
		<g>
			<path fill="#B5B4B3" d="M31.85254,23.45947v0.87109h-0.18066c-0.05176-0.06055-0.10352-0.12109-0.15576-0.18213
				c-0.05176-0.06055-0.10303-0.11719-0.1543-0.16943c-0.10742-0.11084-0.19238-0.18652-0.25586-0.22754
				c-0.06299-0.04102-0.13086-0.06152-0.2041-0.06152c-0.06689,0-0.11914,0.02197-0.15674,0.06641
				c-0.03809,0.04395-0.05664,0.10547-0.05664,0.18457c0,0.05225,0.00879,0.10889,0.02734,0.16992s0.04688,0.12109,0.08496,0.1792
				v0.00879h-0.18164c-0.02002-0.04102-0.03857-0.0957-0.05518-0.16406c-0.01709-0.06836-0.02539-0.13428-0.02539-0.19824
				c0-0.13184,0.03223-0.23535,0.0957-0.31055c0.06348-0.07471,0.1499-0.1123,0.25879-0.1123
				c0.04883,0,0.09473,0.00635,0.13721,0.01855c0.04199,0.0127,0.08252,0.03076,0.12061,0.05518
				c0.03564,0.02246,0.0708,0.04883,0.10547,0.0791c0.03418,0.03027,0.07275,0.06689,0.11475,0.10986
				c0.06055,0.06201,0.11914,0.12549,0.17578,0.19141c0.05664,0.06543,0.10938,0.12695,0.15771,0.18408v-0.69238H31.85254z"/>
			<path fill="#B5B4B3" d="M31.2085,22.5127c0.23096,0,0.40088,0.03613,0.50879,0.1084s0.16211,0.18457,0.16211,0.33691
				c0,0.1543-0.05469,0.26709-0.16406,0.33838c-0.10986,0.07129-0.27783,0.10645-0.50488,0.10645
				c-0.229,0-0.39795-0.03564-0.50684-0.10791c-0.10938-0.07178-0.16406-0.18408-0.16406-0.33691
				c0-0.1543,0.05566-0.26709,0.1665-0.33838S30.98438,22.5127,31.2085,22.5127z M31.60107,22.74023
				c-0.04688-0.02051-0.10156-0.03418-0.16455-0.04102c-0.06348-0.00732-0.13916-0.01074-0.22803-0.01074
				c-0.0874,0-0.16357,0.00342-0.22803,0.01074c-0.06445,0.00684-0.11914,0.021-0.16406,0.04199
				c-0.04443,0.02002-0.07813,0.04736-0.10059,0.08252c-0.02246,0.03467-0.03369,0.07959-0.03369,0.13428
				c0,0.0542,0.01123,0.09912,0.03369,0.13428c0.02246,0.03564,0.05664,0.06348,0.10205,0.08447
				c0.04248,0.01953,0.09814,0.03271,0.16699,0.04004c0.06836,0.00732,0.14355,0.01074,0.22559,0.01074
				c0.08984,0,0.16504-0.00293,0.22559-0.00928s0.11475-0.02002,0.1626-0.04102c0.04492-0.01855,0.0791-0.0459,0.10254-0.08057
				c0.02393-0.03467,0.03564-0.08105,0.03564-0.13867c0-0.0542-0.01123-0.09912-0.03369-0.13477
				S31.64648,22.75977,31.60107,22.74023z"/>
			<path fill="#B5B4B3" d="M31.2085,21.56396c0.23096,0,0.40088,0.03613,0.50879,0.1084s0.16211,0.18457,0.16211,0.33691
				c0,0.1543-0.05469,0.26709-0.16406,0.33838c-0.10986,0.07129-0.27783,0.10645-0.50488,0.10645
				c-0.229,0-0.39795-0.03564-0.50684-0.10791c-0.10938-0.07178-0.16406-0.18408-0.16406-0.33691
				c0-0.1543,0.05566-0.26709,0.1665-0.33838S30.98438,21.56396,31.2085,21.56396z M31.60107,21.7915
				c-0.04688-0.02051-0.10156-0.03418-0.16455-0.04102c-0.06348-0.00732-0.13916-0.01074-0.22803-0.01074
				c-0.0874,0-0.16357,0.00342-0.22803,0.01074c-0.06445,0.00684-0.11914,0.021-0.16406,0.04199
				c-0.04443,0.02002-0.07813,0.04736-0.10059,0.08252c-0.02246,0.03467-0.03369,0.07959-0.03369,0.13428
				c0,0.0542,0.01123,0.09912,0.03369,0.13428c0.02246,0.03564,0.05664,0.06348,0.10205,0.08447
				c0.04248,0.01953,0.09814,0.03271,0.16699,0.04004c0.06836,0.00732,0.14355,0.01074,0.22559,0.01074
				c0.08984,0,0.16504-0.00293,0.22559-0.00928s0.11475-0.02002,0.1626-0.04102c0.04492-0.01855,0.0791-0.0459,0.10254-0.08057
				c0.02393-0.03467,0.03564-0.08105,0.03564-0.13867c0-0.0542-0.01123-0.09912-0.03369-0.13477S31.64648,21.81104,31.60107,21.7915
				z"/>
			<path fill="#B5B4B3" d="M31.23291,20.72754c0.0249-0.02783,0.05566-0.05078,0.09326-0.06836
				c0.0376-0.01807,0.08594-0.02686,0.14502-0.02686s0.11279,0.01074,0.16162,0.03174
				c0.04932,0.02148,0.0918,0.05127,0.12793,0.08984c0.04053,0.04346,0.07031,0.09424,0.08984,0.15283
				c0.01904,0.05859,0.02881,0.12256,0.02881,0.19238c0,0.07129-0.00879,0.1416-0.02539,0.21094
				c-0.01709,0.06885-0.03564,0.12598-0.05615,0.16992h-0.18018v-0.0127c0.03223-0.04883,0.05859-0.10645,0.08008-0.17285
				s0.03223-0.13037,0.03223-0.19189c0-0.03662-0.00635-0.0752-0.01855-0.11572c-0.01172-0.04102-0.02979-0.07422-0.05322-0.09961
				c-0.02539-0.02637-0.05322-0.04639-0.08398-0.05908c-0.03076-0.01318-0.06934-0.01953-0.11572-0.01953
				s-0.08447,0.00732-0.11475,0.02197s-0.05371,0.03516-0.07129,0.06104s-0.02979,0.05713-0.03662,0.09424
				c-0.00684,0.03662-0.00977,0.07666-0.00977,0.11914v0.07764h-0.14355v-0.06006c0-0.08789-0.01855-0.15771-0.05518-0.20996
				s-0.08984-0.07813-0.16016-0.07813c-0.03125,0-0.05811,0.00684-0.08154,0.02002s-0.04248,0.03174-0.05762,0.05518
				c-0.01514,0.0249-0.02539,0.05127-0.03125,0.07959c-0.00537,0.02832-0.0083,0.06006-0.0083,0.0957
				c0,0.05518,0.00977,0.11328,0.0293,0.1748s0.04736,0.11963,0.08301,0.1748v0.0083h-0.18066
				c-0.02051-0.04102-0.03906-0.09521-0.05566-0.16357c-0.01709-0.06836-0.02588-0.13428-0.02588-0.19824
				c0-0.06299,0.00586-0.11816,0.01758-0.16602c0.01123-0.04785,0.02979-0.09131,0.05518-0.12988
				c0.02783-0.0415,0.06104-0.07275,0.1001-0.09424c0.03955-0.021,0.08496-0.03174,0.1377-0.03174
				c0.07129,0,0.13379,0.0249,0.18701,0.07568c0.05322,0.05029,0.08691,0.10986,0.10059,0.17822h0.01221
				c0.00488-0.02734,0.01416-0.05908,0.02881-0.09521C31.19238,20.78223,31.21094,20.75195,31.23291,20.72754z"/>
		</g>
	</g>
	<g>
		<g id="XMLID_24_">
			<g>
				<rect x="51.0388" y="24.43956" fill="#CDC7BC" width="4.25725" height="3.43589"/>
			</g>
			<g>
			</g>
		</g>
		<g id="XMLID_23_">
			<g>
				<rect x="50.99809" y="17.31111" fill="#CDC7BC" width="4.25725" height="3.43589"/>
			</g>
			<g>
			</g>
		</g>
		<g id="XMLID_22_">
			<g>
				<rect x="51.34858" y="19.98053" fill="#363331" width="3.6076" height="5.16334"/>
			</g>
			<g>
			</g>
		</g>
		<g>
			<path fill="#B5B4B3" d="M53.69629,23.50195v0.69678h-0.13184v-0.26807h-0.8623v0.26807h-0.11719
				c0-0.03613-0.00391-0.0752-0.00977-0.1167s-0.01465-0.07275-0.02637-0.09424c-0.01367-0.02637-0.03223-0.04736-0.05469-0.0625
				c-0.02246-0.01563-0.05176-0.02441-0.08984-0.02637v-0.13428h1.16016v-0.2627H53.69629z"/>
			<path fill="#B5B4B3" d="M53.05176,22.48193c0.23145,0,0.40137,0.03613,0.50879,0.1084
				c0.1084,0.07227,0.16211,0.18457,0.16211,0.33691c0,0.1543-0.05469,0.26709-0.16406,0.33838s-0.27734,0.10645-0.50488,0.10645
				c-0.22852,0-0.39746-0.03564-0.50684-0.10791c-0.10938-0.07178-0.16406-0.18408-0.16406-0.33691
				c0-0.1543,0.05566-0.26709,0.16699-0.33838C52.66016,22.51758,52.82813,22.48193,53.05176,22.48193z M53.44434,22.70947
				c-0.04688-0.02051-0.10156-0.03418-0.16406-0.04102c-0.06348-0.00732-0.13965-0.01074-0.22852-0.01074
				c-0.08691,0-0.16309,0.00342-0.22754,0.01074c-0.06445,0.00684-0.11914,0.021-0.16406,0.04199
				c-0.04492,0.02002-0.07813,0.04736-0.10059,0.08252c-0.02246,0.03467-0.03418,0.07959-0.03418,0.13428
				c0,0.0542,0.01172,0.09912,0.03418,0.13428c0.02246,0.03564,0.05664,0.06348,0.10156,0.08447
				c0.04297,0.01953,0.09863,0.03271,0.16699,0.04004s0.14355,0.01074,0.22559,0.01074c0.08984,0,0.16504-0.00293,0.22559-0.00928
				s0.11523-0.02002,0.16309-0.04102c0.04492-0.01855,0.0791-0.0459,0.10254-0.08057s0.03516-0.08105,0.03516-0.13867
				c0-0.0542-0.01074-0.09912-0.0332-0.13477S53.49023,22.729,53.44434,22.70947z"/>
			<path fill="#B5B4B3" d="M53.05176,21.5332c0.23145,0,0.40137,0.03613,0.50879,0.1084
				c0.1084,0.07227,0.16211,0.18457,0.16211,0.33691c0,0.1543-0.05469,0.26709-0.16406,0.33838s-0.27734,0.10645-0.50488,0.10645
				c-0.22852,0-0.39746-0.03564-0.50684-0.10791c-0.10938-0.07178-0.16406-0.18408-0.16406-0.33691
				c0-0.1543,0.05566-0.26709,0.16699-0.33838C52.66016,21.56885,52.82813,21.5332,53.05176,21.5332z M53.44434,21.76074
				c-0.04688-0.02051-0.10156-0.03418-0.16406-0.04102c-0.06348-0.00732-0.13965-0.01074-0.22852-0.01074
				c-0.08691,0-0.16309,0.00342-0.22754,0.01074c-0.06445,0.00684-0.11914,0.021-0.16406,0.04199
				c-0.04492,0.02002-0.07813,0.04736-0.10059,0.08252c-0.02246,0.03467-0.03418,0.07959-0.03418,0.13428
				c0,0.0542,0.01172,0.09912,0.03418,0.13428c0.02246,0.03564,0.05664,0.06348,0.10156,0.08447
				c0.04297,0.01953,0.09863,0.03271,0.16699,0.04004s0.14355,0.01074,0.22559,0.01074c0.08984,0,0.16504-0.00293,0.22559-0.00928
				s0.11523-0.02002,0.16309-0.04102c0.04492-0.01855,0.0791-0.0459,0.10254-0.08057s0.03516-0.08105,0.03516-0.13867
				c0-0.0542-0.01074-0.09912-0.0332-0.13477S53.49023,21.78027,53.44434,21.76074z"/>
			<path fill="#B5B4B3" d="M53.69629,20.5835v0.87109h-0.18066c-0.05176-0.06055-0.10352-0.12109-0.15625-0.18213
				c-0.05176-0.06055-0.10254-0.11719-0.1543-0.16943c-0.10742-0.11084-0.19238-0.18652-0.25586-0.22754
				c-0.0625-0.04102-0.13086-0.06152-0.2041-0.06152c-0.06641,0-0.11914,0.02197-0.15625,0.06641
				c-0.03809,0.04395-0.05664,0.10547-0.05664,0.18457c0,0.05225,0.00879,0.10889,0.02734,0.16992s0.04688,0.12109,0.08496,0.1792
				v0.00879h-0.18164c-0.02051-0.04102-0.03906-0.0957-0.05566-0.16406s-0.02539-0.13428-0.02539-0.19824
				c0-0.13184,0.03223-0.23535,0.0957-0.31055c0.06348-0.07471,0.15039-0.1123,0.25879-0.1123
				c0.04883,0,0.09473,0.00635,0.1377,0.01855c0.04199,0.0127,0.08203,0.03076,0.12012,0.05518
				c0.03613,0.02246,0.07129,0.04883,0.10547,0.0791s0.07324,0.06689,0.11523,0.10986
				c0.06055,0.06201,0.11914,0.12549,0.17578,0.19141c0.05664,0.06543,0.10938,0.12695,0.15723,0.18408V20.5835H53.69629z"/>
		</g>
	</g>
	<g>
		<g id="XMLID_27_">
			<g>
				<rect x="58.59553" y="24.40858" fill="#CDC7BC" width="4.25725" height="3.43589"/>
			</g>
			<g>
			</g>
		</g>
		<g id="XMLID_26_">
			<g>
				<rect x="58.55481" y="17.28012" fill="#CDC7BC" width="4.25725" height="3.43589"/>
			</g>
			<g>
			</g>
		</g>
		<g id="XMLID_25_">
			<g>
				<rect x="58.9053" y="19.94955" fill="#363331" width="3.6076" height="5.16334"/>
			</g>
			<g>
			</g>
		</g>
		<g>
			<path fill="#B5B4B3" d="M61.25293,23.47119v0.69678h-0.13184V23.8999h-0.8623v0.26807H60.1416
				c0-0.03613-0.00391-0.0752-0.00977-0.1167s-0.01465-0.07275-0.02637-0.09424c-0.01367-0.02637-0.03223-0.04736-0.05469-0.0625
				c-0.02246-0.01563-0.05176-0.02441-0.08984-0.02637v-0.13428h1.16016v-0.2627H61.25293z"/>
			<path fill="#B5B4B3" d="M60.6084,22.45117c0.23145,0,0.40137,0.03613,0.50879,0.1084
				c0.1084,0.07227,0.16211,0.18457,0.16211,0.33691c0,0.1543-0.05469,0.26709-0.16406,0.33838s-0.27734,0.10645-0.50488,0.10645
				c-0.22852,0-0.39746-0.03564-0.50684-0.10791c-0.10938-0.07178-0.16406-0.18408-0.16406-0.33691
				c0-0.1543,0.05566-0.26709,0.16699-0.33838C60.2168,22.48682,60.38477,22.45117,60.6084,22.45117z M61.00098,22.67871
				c-0.04688-0.02051-0.10156-0.03418-0.16406-0.04102c-0.06348-0.00732-0.13965-0.01074-0.22852-0.01074
				c-0.08691,0-0.16309,0.00342-0.22754,0.01074c-0.06445,0.00684-0.11914,0.021-0.16406,0.04199
				c-0.04492,0.02002-0.07813,0.04736-0.10059,0.08252c-0.02246,0.03467-0.03418,0.07959-0.03418,0.13428
				c0,0.0542,0.01172,0.09912,0.03418,0.13428c0.02246,0.03564,0.05664,0.06348,0.10156,0.08447
				c0.04297,0.01953,0.09863,0.03271,0.16699,0.04004s0.14355,0.01074,0.22559,0.01074c0.08984,0,0.16504-0.00293,0.22559-0.00928
				s0.11523-0.02002,0.16309-0.04102c0.04492-0.01855,0.0791-0.0459,0.10254-0.08057s0.03516-0.08105,0.03516-0.13867
				c0-0.0542-0.01074-0.09912-0.0332-0.13477S61.04688,22.69824,61.00098,22.67871z"/>
			<path fill="#B5B4B3" d="M60.6084,21.50244c0.23145,0,0.40137,0.03613,0.50879,0.1084
				c0.1084,0.07227,0.16211,0.18457,0.16211,0.33691c0,0.1543-0.05469,0.26709-0.16406,0.33838s-0.27734,0.10645-0.50488,0.10645
				c-0.22852,0-0.39746-0.03564-0.50684-0.10791c-0.10938-0.07178-0.16406-0.18408-0.16406-0.33691
				c0-0.1543,0.05566-0.26709,0.16699-0.33838C60.2168,21.53809,60.38477,21.50244,60.6084,21.50244z M61.00098,21.72998
				c-0.04688-0.02051-0.10156-0.03418-0.16406-0.04102c-0.06348-0.00732-0.13965-0.01074-0.22852-0.01074
				c-0.08691,0-0.16309,0.00342-0.22754,0.01074c-0.06445,0.00684-0.11914,0.021-0.16406,0.04199
				c-0.04492,0.02002-0.07813,0.04736-0.10059,0.08252c-0.02246,0.03467-0.03418,0.07959-0.03418,0.13428
				c0,0.0542,0.01172,0.09912,0.03418,0.13428c0.02246,0.03564,0.05664,0.06348,0.10156,0.08447
				c0.04297,0.01953,0.09863,0.03271,0.16699,0.04004s0.14355,0.01074,0.22559,0.01074c0.08984,0,0.16504-0.00293,0.22559-0.00928
				s0.11523-0.02002,0.16309-0.04102c0.04492-0.01855,0.0791-0.0459,0.10254-0.08057s0.03516-0.08105,0.03516-0.13867
				c0-0.0542-0.01074-0.09912-0.0332-0.13477S61.04688,21.74951,61.00098,21.72998z"/>
			<path fill="#B5B4B3" d="M61.25293,20.55273v0.87109h-0.18066c-0.05176-0.06055-0.10352-0.12109-0.15625-0.18213
				c-0.05176-0.06055-0.10254-0.11719-0.1543-0.16943c-0.10742-0.11084-0.19238-0.18652-0.25586-0.22754
				c-0.0625-0.04102-0.13086-0.06152-0.2041-0.06152c-0.06641,0-0.11914,0.02197-0.15625,0.06641
				c-0.03809,0.04395-0.05664,0.10547-0.05664,0.18457c0,0.05225,0.00879,0.10889,0.02734,0.16992s0.04688,0.12109,0.08496,0.1792
				v0.00879h-0.18164c-0.02051-0.04102-0.03906-0.0957-0.05566-0.16406s-0.02539-0.13428-0.02539-0.19824
				c0-0.13184,0.03223-0.23535,0.0957-0.31055c0.06348-0.07471,0.15039-0.1123,0.25879-0.1123
				c0.04883,0,0.09473,0.00635,0.1377,0.01855c0.04199,0.0127,0.08203,0.03076,0.12012,0.05518
				c0.03613,0.02246,0.07129,0.04883,0.10547,0.0791s0.07324,0.06689,0.11523,0.10986
				c0.06055,0.06201,0.11914,0.12549,0.17578,0.19141c0.05664,0.06543,0.10938,0.12695,0.15723,0.18408v-0.69238H61.25293z"/>
		</g>
	</g>
</g>
<g id="Слой_10" display="none">
</g>
</svg>
