<?xml version="1.0" encoding="utf-8"?>
<!-- Generator: Adobe Illustrator 22.0.1, SVG Export Plug-In . SVG Version: 6.00 Build 0)  -->
<svg version="1.1" id="Слой_1" xmlns="http://www.w3.org/2000/svg" xmlns:xlink="http://www.w3.org/1999/xlink" x="0px" y="0px"
	 viewBox="0 0 314.8956604 217.1760101" style="enable-background:new 0 0 314.8956604 217.1760101;" xml:space="preserve">
<style type="text/css">
	.st0{fill:#46433E;stroke:#000000;stroke-width:0.75;stroke-miterlimit:10;}
	.st1{fill:#595651;stroke:#000000;stroke-width:0.25;stroke-miterlimit:10;}
	.st2{fill:#46433E;stroke:#000000;stroke-width:0.25;stroke-miterlimit:10;}
	.st3{fill:#6B6966;stroke:#000000;stroke-width:0.25;stroke-miterlimit:10;}
	.st4{fill:none;stroke:#E9A854;stroke-miterlimit:10;}
	.st5{fill:none;stroke:#EFE94A;stroke-width:2.835;stroke-miterlimit:10;}
	.st6{fill:none;stroke:#D24A44;stroke-width:2.835;stroke-miterlimit:10;}
	.st7{fill:none;stroke:#36375C;stroke-width:2.835;stroke-miterlimit:10;}
	.st8{fill:none;stroke:#5DAF61;stroke-width:2.835;stroke-miterlimit:10;}
	.st9{fill:#595651;stroke:#000000;stroke-width:0.9285715;stroke-miterlimit:10;}
	.st10{fill:#74B65F;}
	.st11{fill:url(#SVGID_1_);}
	.st12{fill:#272624;}
	.st13{fill:#46433E;}
	.st14{stroke:#000000;stroke-width:0.2581967;stroke-miterlimit:10;}
	.st15{fill:#595651;stroke:#000000;stroke-width:0.5;stroke-miterlimit:10;}
	.st16{fill:#FFFFFF;}
	.st17{fill:none;stroke:#000000;stroke-width:0.25;stroke-miterlimit:10;}
	.st18{fill:none;stroke:#000000;stroke-width:0.25;stroke-miterlimit:10;stroke-dasharray:2.9678361,2.9678361;}
</style>
<g>
	<polyline class="st0" points="5.7942915,38.4683342 5.7942915,211.3817139 309.1013794,211.3817139 309.1013794,38.431179 	"/>
	<line class="st1" x1="5.7942915" y1="32.7990417" x2="5.7942915" y2="217.0510101"/>
	<polyline class="st1" points="5.7942915,211.3817139 5.7942915,217.0510101 309.1013794,217.0510101 309.1013794,211.3582611 	"/>
	<polyline class="st2" points="250.4950714,38.4683342 250.4950714,45.0457611 64.400589,45.0457611 64.400589,38.4683342 	"/>
	<polyline class="st0" points="64.400589,38.4683342 64.400589,176.3738403 67.8535233,176.3738403 67.8535233,175.3738403 
		247.0421448,175.3738403 247.0421448,176.3738403 250.4950714,176.3738403 250.4950714,38.4683342 	"/>
	<polyline class="st1" points="5.7942915,38.4683342 5.7942915,211.3817139 0.125,211.3817139 0.125,38.4683304 	"/>
	<path class="st3" d="M314.7218323,38.4194908l-5.572052-5.5720596c-0.0178833-0.0178566-0.0484009-0.0052109-0.0484009,0.0200424
		v5.5637054l5.6002197,0.0367012C314.7269287,38.4680443,314.7397461,38.4374123,314.7218323,38.4194908z"/>
	<polyline class="st1" points="309.1013794,38.431179 309.1013794,211.3817139 314.7706604,211.3817139 314.7706604,38.4683304 	"/>
	<path class="st3" d="M5.794292,211.3817139H0.1934344c-0.025254,0-0.0379013,0.0305328-0.020044,0.0484009l5.5725107,5.5725098
		c0.0178571,0.0178528,0.0483904,0.0052032,0.0483904-0.02005L5.794292,211.3817139z"/>
	<path class="st3" d="M0.1934344,38.4683304l5.6008573,0.0000038v-5.6008606c0-0.0252533-0.0305333-0.037899-0.0483904-0.0200424
		l-5.5725107,5.5725098C0.1555331,38.4377975,0.1681804,38.4683304,0.1934344,38.4683304z"/>
	<path class="st1" d="M5.7942963,38.4683304l58.6062927,0.0000038V34.216362c0-0.7827644-0.6345558-1.4173203-1.4173203-1.4173203
		H5.7942915L5.7942963,38.4683304z"/>
	<path class="st1" d="M64.4005966,38.4683304l186.0944824,0.0000038V34.216362c0-0.7827644-0.5424194-1.4173203-1.2115479-1.4173203
		H65.6121445c-0.6691208,0-1.2115555,0.6345558-1.2115555,1.4173203L64.4005966,38.4683304z"/>
	<path class="st1" d="M314.7706604,38.4683304l-64.275589,0.0000038V34.216362c0-0.7827644,0.6345673-1.4173203,1.4173279-1.4173203
		h57.1889801v5.6321373"/>
	<path class="st3" d="M314.70224,211.3817139h-5.6008606v5.6008606c0,0.0252533,0.0305176,0.0379028,0.0484009,0.02005
		l5.5725098-5.5725098C314.7401428,211.4122467,314.727478,211.3817139,314.70224,211.3817139z"/>
</g>
<g>
	<line class="st4" x1="85.9940948" y1="1.4175" x2="76.2128448" y2="1.4175"/>
	<line class="st4" x1="85.9940948" y1="4.2613878" x2="76.2128448" y2="4.2613878"/>
	<line class="st4" x1="85.9940948" y1="7.1051378" x2="76.2128448" y2="7.1051378"/>
	<line class="st4" x1="85.9940948" y1="9.9488878" x2="76.2128448" y2="9.9488878"/>
	<g>
		<g>
			<line class="st5" x1="185.334671" y1="7.1051378" x2="85.53302" y2="7.1051378"/>
			<line class="st6" x1="185.334671" y1="4.2613878" x2="85.53302" y2="4.2613878"/>
			<line class="st7" x1="185.334671" y1="1.4175" x2="85.53302" y2="1.4175"/>
			<line class="st8" x1="185.334671" y1="9.9488878" x2="85.53302" y2="9.9488878"/>
		</g>
		<g>
			<path class="st8" d="M185.334671,9.9490538c5.5290222,0,10.0030365,4.4740133,10.0030365,10.0030355"/>
			<path class="st5" d="M185.3348236,7.1054549c7.100769,0,12.8466339,5.7458577,12.8466339,12.8466339"/>
			<path class="st6" d="M185.3348236,4.2615533c8.672699,0,15.6905365,7.017837,15.6905365,15.6905365"/>
			<path class="st7" d="M185.334671,1.4175c10.2447052,0,18.5345917,8.2898846,18.5345917,18.5345898"/>
		</g>
		<g>
			<line class="st5" x1="198.1814575" y1="32.7990417" x2="198.1814575" y2="19.9520893"/>
			<line class="st6" x1="201.0252075" y1="32.7990417" x2="201.0252075" y2="19.9520893"/>
			<line class="st7" x1="203.8690948" y1="32.7990417" x2="203.8690948" y2="19.9520893"/>
			<line class="st8" x1="195.3377075" y1="32.7990417" x2="195.3377075" y2="19.9520893"/>
		</g>
	</g>
</g>
<g>
	<circle class="st9" cx="31.3061028" cy="91.6179352" r="9.2125988"/>
	<circle class="st10" cx="31.3061028" cy="91.6179352" r="4.9606299"/>
	<g>
		
			<radialGradient id="SVGID_1_" cx="8.6472054" cy="74.386116" r="4.3247457" gradientTransform="matrix(0 1 1 0 -43.0800133 82.9707336)" gradientUnits="userSpaceOnUse">
			<stop  offset="0" style="stop-color:#FFFFFF;stop-opacity:0.9"/>
			<stop  offset="0.9218306" style="stop-color:#FFFFFF;stop-opacity:0.0703524"/>
			<stop  offset="1" style="stop-color:#FFFFFF;stop-opacity:0"/>
		</radialGradient>
		<circle class="st11" cx="31.3061028" cy="91.6179352" r="4.3247457"/>
	</g>
</g>
<g>
	<path d="M43.9656296,193.0982513h19.8226776c0.3381577,0,0.6122818-0.2741241,0.6122818-0.6122742V125.679039
		c0-0.33815-0.2741241-0.6122818-0.6122818-0.6122818H43.9656296c-0.3381538,0-0.6122818,0.2741318-0.6122818,0.6122818v66.8069382
		C43.3533478,192.8241272,43.6274757,193.0982513,43.9656296,193.0982513z"/>
	<path class="st12" d="M64.400589,129.1811829H43.3533478v-3.5024643c0-0.3379745,0.273983-0.6119614,0.6119576-0.6119614
		h19.8233261c0.3379784,0,0.6119576,0.2739868,0.6119576,0.6119614V129.1811829z"/>
	<path class="st13" d="M63.8510513,186.8790894H43.9028854v-53.8118439c0-1.5766754,1.2781487-2.8548126,2.8548241-2.8548126
		h14.2385178c1.5766754,0,2.8548241,1.2781372,2.8548241,2.8548126V186.8790894z"/>
</g>
<g>
	<circle class="st14" cx="31.3061028" cy="61.1454964" r="8.9291334"/>
	<circle class="st15" cx="31.3061028" cy="61.1454964" r="8.645669"/>
</g>
<g>
	<polygon class="st16" points="248.0421448,145.7002869 66.8535233,145.7002869 67.8535233,175.3859711 247.0421448,175.3859711 	
		"/>
	<g>
		<g>
			<line class="st17" x1="71.5728378" y1="160.0457458" x2="73.0728378" y2="160.0457458"/>
			<line class="st18" x1="76.0406723" y1="160.0457458" x2="240.7555847" y2="160.0457458"/>
			<line class="st17" x1="242.239502" y1="160.0457458" x2="243.7395172" y2="160.0457458"/>
		</g>
	</g>
	<g>
		<g>
			<line class="st17" x1="71.5728378" y1="162.7957458" x2="73.0728378" y2="162.7957458"/>
			<line class="st18" x1="76.0406723" y1="162.7957458" x2="240.7555847" y2="162.7957458"/>
			<line class="st17" x1="242.239502" y1="162.7957458" x2="243.7395172" y2="162.7957458"/>
		</g>
	</g>
	<g>
		<path d="M84.7797394,167.70755v11.7548828h-0.9570313v-10.4814453h-3.4433594v10.4814453h-0.9575195V167.70755H84.7797394z"/>
		<path d="M86.4506378,167.8471985c0.4624023-0.1220703,1.0673828-0.2275391,1.8374023-0.2275391
			c0.9462891,0,1.6391602,0.3496094,2.0791016,0.9775391c0.4072266,0.5576172,0.6494141,1.4121094,0.6494141,2.4589844
			c0,1.0634766-0.1982422,1.9003906-0.5722656,2.5117188c-0.5058594,0.8544922-1.3310547,1.2900391-2.2661133,1.2900391
			c-0.2861328,0-0.550293-0.0175781-0.7700195-0.1044922v4.7089844h-0.9575195V167.8471985z M87.4081573,173.5151672
			c0.2089844,0.0869141,0.4726563,0.1220703,0.7919922,0.1220703c1.1552734,0,1.859375-0.8896484,1.859375-2.5117188
			c0-1.5517578-0.6933594-2.3017578-1.7495117-2.3017578c-0.4179688,0-0.7368164,0.0517578-0.9018555,0.1220703V173.5151672z"/>
		<path d="M93.2050323,167.70755v4.953125c0,1.8662109-0.0219727,3.4003906-0.0878906,4.9707031l0.0219727,0.0175781
			c0.3740234-1.2216797,0.8359375-2.4941406,1.375-3.8896484l2.3984375-6.0517578h0.9570313v11.7548828h-0.9018555v-5.0058594
			c0-1.9003906,0.0107422-3.2958984,0.0878906-4.7783203l-0.0332031-0.0175781
			c-0.362793,1.2910156-0.8691406,2.6513672-1.375,3.9589844l-2.3212891,5.8427734h-1.0234375V167.70755H93.2050323z"/>
		<path d="M99.5404816,167.8647766c0.418457-0.1396484,1.078125-0.2451172,1.7495117-0.2451172
			c0.9570313,0,1.5732422,0.2617188,2.0351563,0.8554688c0.3852539,0.453125,0.6162109,1.1503906,0.6162109,2.0751953
			c0,1.1337891-0.4731445,2.1279297-1.2543945,2.5810547v0.0351563c0.7041016,0.2792969,1.5292969,1.203125,1.5292969,2.9472656
			c0,1.0117188-0.2529297,1.7792969-0.6269531,2.3544922c-0.5170898,0.75-1.3530273,1.0986328-2.5634766,1.0986328
			c-0.6601563,0-1.1660156-0.0693359-1.4853516-0.1396484V167.8647766z M100.4980011,172.6782532h0.8691406
			c1.0117188,0,1.605957-0.8378906,1.605957-1.9707031c0-1.3779297-0.6601563-1.9189453-1.628418-1.9189453
			c-0.4399414,0-0.6928711,0.0527344-0.8466797,0.1044922V172.6782532z M100.4980011,178.3110657
			c0.1870117,0.0527344,0.4619141,0.0703125,0.8027344,0.0703125c0.9902344,0,1.9033203-0.5761719,1.9033203-2.2851563
			c0-1.6044922-0.8691406-2.2675781-1.9140625-2.2675781h-0.7919922V178.3110657z"/>
		<path d="M109.3422394,173.9507141h-2.8823242v4.2382813h3.2124023v1.2734375h-4.1699219V167.70755h4.0048828v1.2734375h-3.0473633
			v3.7148438h2.8823242V173.9507141z"/>
		<path d="M112.3769073,168.9975891h-2.2553711V167.70755h5.4902344v1.2900391h-2.2666016v10.4648438h-0.9682617V168.9975891z"/>
		<path d="M121.2328644,179.0786438c-0.3520508,0.2792969-1.0561523,0.5585938-1.9584961,0.5585938
			c-2.090332,0-3.6635742-2.09375-3.6635742-5.9472656c0-3.6806641,1.5732422-6.1748047,3.8725586-6.1748047
			c0.9243164,0,1.5073242,0.3144531,1.7602539,0.5234375l-0.230957,1.2382813
			c-0.3632813-0.2792969-0.8803711-0.4882813-1.4960938-0.4882813c-1.7382813,0-2.8935547,1.7617188-2.8935547,4.8486328
			c0,2.8779297,1.0449219,4.7265625,2.8496094,4.7265625c0.5830078,0,1.1767578-0.1923828,1.5620117-0.4882813
			L121.2328644,179.0786438z"/>
		<path d="M124.223587,168.9975891h-2.2553711V167.70755h5.4902344v1.2900391h-2.2666016v10.4648438h-0.9682617V168.9975891z"/>
		<path d="M128.2821808,167.8647766c0.418457-0.1396484,1.078125-0.2451172,1.7495117-0.2451172
			c0.9570313,0,1.5732422,0.2617188,2.0351563,0.8554688c0.3852539,0.453125,0.6162109,1.1503906,0.6162109,2.0751953
			c0,1.1337891-0.4731445,2.1279297-1.2543945,2.5810547v0.0351563c0.7041016,0.2792969,1.5292969,1.203125,1.5292969,2.9472656
			c0,1.0117188-0.2529297,1.7792969-0.6269531,2.3544922c-0.5170898,0.75-1.3530273,1.0986328-2.5634766,1.0986328
			c-0.6601563,0-1.1660156-0.0693359-1.4853516-0.1396484V167.8647766z M129.2397003,172.6782532h0.8691406
			c1.0117188,0,1.605957-0.8378906,1.605957-1.9707031c0-1.3779297-0.6601563-1.9189453-1.6279297-1.9189453
			c-0.4404297,0-0.6933594,0.0527344-0.847168,0.1044922V172.6782532z M129.2397003,178.3110657
			c0.1870117,0.0527344,0.4619141,0.0703125,0.8027344,0.0703125c0.9902344,0,1.9033203-0.5761719,1.9033203-2.2851563
			c0-1.6044922-0.8691406-2.2675781-1.9140625-2.2675781h-0.7919922V178.3110657z"/>
		<path d="M134.3656769,167.70755l1.4741211,5.0048828c0.1870117,0.6982422,0.362793,1.3779297,0.5390625,2.0761719h0.0219727
			c0.1318359-0.6103516,0.2749023-1.2910156,0.4619141-2.1279297l1.1552734-4.953125h1.012207l-1.5512695,6.0341797
			c-0.4072266,1.5693359-0.8691406,3.3662109-1.3862305,4.4648438c-0.4838867,0.9589844-1.0229492,1.4472656-1.6831055,1.4472656
			c-0.2421875,0-0.4179688-0.0341797-0.5390625-0.1044922l0.0991211-1.2382813
			c0.0766602,0.0351563,0.1870117,0.0527344,0.3520508,0.0527344c0.7700195-0.0175781,1.2211914-1.1865234,1.4521484-2.0234375
			c0.0766602-0.2617188,0.0546875-0.4355469-0.0332031-0.7148438l-2.4643555-7.9179688H134.3656769z"/>
		<path d="M143.661087,173.9507141h-2.8823242v4.2382813h3.2124023v1.2734375h-4.1699219V167.70755h4.0048828v1.2734375h-3.0473633
			v3.7148438h2.8823242V173.9507141z"/>
		<path d="M151.4818878,174.3003235c-0.0551758-1.6396484-0.1210938-3.6103516-0.1098633-5.0751953h-0.0332031
			c-0.2529297,1.3769531-0.5610352,2.8427734-0.9350586,4.4648438l-1.309082,5.703125h-0.7260742l-1.1992188-5.5986328
			c-0.3520508-1.6572266-0.6489258-3.1748047-0.8583984-4.5693359h-0.0219727
			c-0.0219727,1.4648438-0.0766602,3.4355469-0.1430664,5.1972656l-0.1977539,5.0400391h-0.9130859l0.5170898-11.7548828h1.2211914
			l1.2651367,5.6855469c0.3081055,1.4472656,0.5610352,2.7382813,0.7480469,3.9589844h0.0332031
			c0.1870117-1.1855469,0.4506836-2.4765625,0.7807617-3.9589844l1.3203125-5.6855469h1.2211914l0.4619141,11.7548828h-0.9350586
			L151.4818878,174.3003235z"/>
		<path d="M156.4086456,167.8647766c0.418457-0.1396484,1.078125-0.2451172,1.7495117-0.2451172
			c0.9570313,0,1.5732422,0.2617188,2.0351563,0.8554688c0.3847656,0.453125,0.6162109,1.1503906,0.6162109,2.0751953
			c0,1.1337891-0.4726563,2.1279297-1.2539063,2.5810547v0.0351563c0.7041016,0.2792969,1.5292969,1.203125,1.5292969,2.9472656
			c0,1.0117188-0.2539063,1.7792969-0.6279297,2.3544922c-0.5166016,0.75-1.3525391,1.0986328-2.5629883,1.0986328
			c-0.6601563,0-1.1660156-0.0693359-1.4853516-0.1396484V167.8647766z M157.3661652,172.6782532h0.8691406
			c1.0117188,0,1.6064453-0.8378906,1.6064453-1.9707031c0-1.3779297-0.6601563-1.9189453-1.6289063-1.9189453
			c-0.4399414,0-0.6928711,0.0527344-0.8466797,0.1044922V172.6782532z M157.3661652,178.3110657
			c0.1870117,0.0527344,0.4619141,0.0703125,0.8027344,0.0703125c0.9902344,0,1.9033203-0.5761719,1.9033203-2.2851563
			c0-1.6044922-0.8691406-2.2675781-1.9140625-2.2675781h-0.7919922V178.3110657z"/>
		<path d="M167.464798,179.0786438c-0.3515625,0.2792969-1.0556641,0.5585938-1.9580078,0.5585938
			c-2.0898438,0-3.6630859-2.09375-3.6630859-5.9472656c0-3.6806641,1.5732422-6.1748047,3.8720703-6.1748047
			c0.9238281,0,1.5068359,0.3144531,1.7607422,0.5234375l-0.2314453,1.2382813
			c-0.3632813-0.2792969-0.8798828-0.4882813-1.4960938-0.4882813c-1.7382813,0-2.8935547,1.7617188-2.8935547,4.8486328
			c0,2.8779297,1.0449219,4.7265625,2.8496094,4.7265625c0.5830078,0,1.1767578-0.1923828,1.5625-0.4882813L167.464798,179.0786438z
			"/>
		<path d="M172.5028839,173.9507141h-2.8828125v4.2382813h3.2128906v1.2734375h-4.1699219V167.70755h4.0048828v1.2734375h-3.0478516
			v3.7148438h2.8828125V173.9507141z"/>
		<path d="M178.1347198,179.4624329l-0.9462891-2.5986328c-0.3847656-0.9941406-0.6269531-1.6396484-0.8574219-2.3193359h-0.0224609
			c-0.2089844,0.6796875-0.4179688,1.3076172-0.8027344,2.3369141l-0.8916016,2.5810547h-1.0996094l2.265625-5.9472656
			l-2.1777344-5.8076172h1.1113281l0.9785156,2.7558594c0.2753906,0.7666016,0.484375,1.3603516,0.6826172,1.9882813h0.0332031
			c0.2089844-0.6982422,0.3955078-1.2382813,0.6708984-1.9882813l1.0117188-2.7558594h1.1005859l-2.2558594,5.7207031
			l2.3105469,6.0341797H178.1347198z"/>
		<path d="M183.645462,167.70755v4.9179688h3.5869141V167.70755h0.9677734v11.7548828h-0.9677734v-5.5117188h-3.5869141v5.5117188
			h-0.9570313V167.70755H183.645462z"/>
		<path d="M191.0595245,175.7651672l-0.7695313,3.6972656h-0.9902344l2.5185547-11.7548828h1.1552734l2.5302734,11.7548828
			h-1.0224609l-0.7919922-3.6972656H191.0595245z M193.4911652,174.5786438l-0.7265625-3.3828125
			c-0.1650391-0.7675781-0.2744141-1.4658203-0.3847656-2.1455078h-0.0224609
			c-0.109375,0.6972656-0.2304688,1.4130859-0.3740234,2.1279297l-0.7255859,3.4003906H193.4911652z"/>
		<path d="M199.871048,167.70755v5.2148438h0.296875l2.5419922-5.2148438h1.1542969l-2.8046875,5.3886719
			c1.2207031,0.2617188,1.6943359,1.4482422,2.0791016,3.0351563c0.2753906,1.203125,0.484375,2.2841797,0.8144531,3.3310547
			h-1.0341797c-0.2646484-0.8027344-0.4736328-1.8486328-0.671875-2.7734375
			c-0.3408203-1.5517578-0.8134766-2.6162109-2.0683594-2.6162109h-0.3076172v5.3896484h-0.9462891V167.70755H199.871048z"/>
		<path d="M206.1405792,175.7651672l-0.7695313,3.6972656h-0.9902344l2.5185547-11.7548828h1.1552734l2.5302734,11.7548828
			h-1.0224609l-0.7919922-3.6972656H206.1405792z M208.5722198,174.5786438l-0.7265625-3.3828125
			c-0.1650391-0.7675781-0.2744141-1.4658203-0.3847656-2.1455078h-0.0224609
			c-0.109375,0.6972656-0.2304688,1.4130859-0.3740234,2.1279297l-0.7255859,3.4003906H208.5722198z"/>
		<path d="M212.6308136,167.70755v4.9179688h3.5869141V167.70755h0.9677734v11.7548828h-0.9677734v-5.5117188h-3.5869141v5.5117188
			h-0.9570313V167.70755H212.6308136z"/>
		<path d="M220.0448761,175.7651672l-0.7695313,3.6972656h-0.9902344l2.5185547-11.7548828h1.1552734l2.5302734,11.7548828
			h-1.0224609l-0.7919922-3.6972656H220.0448761z M222.4765167,174.5786438l-0.7265625-3.3828125
			c-0.1650391-0.7675781-0.2744141-1.4658203-0.3847656-2.1455078h-0.0224609
			c-0.109375,0.6972656-0.2304688,1.4130859-0.3740234,2.1279297l-0.7255859,3.4003906H222.4765167z"/>
		<path d="M230.8261261,167.70755v11.7548828h-0.96875v-10.4814453h-2.453125v3.5576172
			c0,2.5458984-0.0654297,5.3886719-1.1113281,6.5048828c-0.2744141,0.2792969-0.7041016,0.5585938-1.1328125,0.5585938
			l-0.1210938-1.2207031c0.296875-0.0878906,0.6054688-0.3662109,0.78125-0.6279297
			c0.59375-0.9248047,0.6494141-3.2089844,0.6494141-5.0927734v-4.953125H230.8261261z"/>
		<path d="M236.3261261,173.9507141h-2.8828125v4.2382813h3.2128906v1.2734375h-4.1699219V167.70755h4.0048828v1.2734375h-3.0478516
			v3.7148438h2.8828125V173.9507141z"/>
	</g>
	<rect x="64.400589" y="175.3738403" class="st1" width="186.0944824" height="4.0885835"/>
</g>
<g>
</g>
<g>
</g>
<g>
</g>
<g>
</g>
<g>
</g>
<g>
</g>
</svg>
