<?xml version="1.0" encoding="utf-8"?>
<!-- Generator: Adobe Illustrator 22.0.1, SVG Export Plug-In . SVG Version: 6.00 Build 0)  -->
<svg version="1.1" xmlns="http://www.w3.org/2000/svg" xmlns:xlink="http://www.w3.org/1999/xlink" x="0px" y="0px"
	 viewBox="0 0 85.0400009 85.0400009" style="enable-background:new 0 0 85.0400009 85.0400009;" xml:space="preserve">
<style type="text/css">
	.st0{fill:#19191A;}
	.st1{fill:#9E9B9C;}
	.st2{fill:#CEC7BD;}
	.st3{fill:#E5E4E0;}
	.st4{fill:#918C84;}
	.st5{fill:#363331;}
	.st6{fill:#B5B4B3;}
	.st7{fill:#CDC7BC;}
	.st8{fill:#EBAD4F;}
	.st9{fill:#D24A44;}
	.st10{opacity:0.37;fill:none;stroke:#FFFFFF;stroke-width:0.5;stroke-miterlimit:10;}
	.st11{fill:#313131;stroke:#808080;stroke-width:0.25;stroke-miterlimit:10;}
	.st12{fill:#808080;}
	.st13{fill:none;stroke:#808080;stroke-width:0.25;stroke-miterlimit:10;}
	.st14{fill:none;stroke:#666566;stroke-width:0.25;stroke-miterlimit:10;}
	.st15{fill:#4E8B5C;}
	.st16{fill:#CCCCCC;}
	.st17{opacity:0.5;fill:url(#SVGID_1_);}
	.st18{opacity:0.1;fill:#B3B3B3;}
	.st19{opacity:0.5;fill:url(#SVGID_2_);}
	.st20{fill:#B3B3B3;}
</style>
<g id="Макет_TREMA">
	<path class="st0" d="M0,0v85.039978h85.039978V0H0z M9.9223022,79.5117798c-2.4279175,0-4.3947144-1.9667969-4.3947144-4.3927002
		c0-2.4279175,1.9667969-4.3947144,4.3947144-4.3947144c2.4258423,0,4.3926392,1.9667969,4.3926392,4.3947144
		C14.3149414,77.5449829,12.3481445,79.5117798,9.9223022,79.5117798z M9.9223022,14.3149414
		c-2.4279175,0-4.3947144-1.9667969-4.3947144-4.3927002c0-2.4279175,1.9667969-4.3947144,4.3947144-4.3947144
		c2.4258423,0,4.3926392,1.9667969,4.3926392,4.3947144C14.3149414,12.3481445,12.3481445,14.3149414,9.9223022,14.3149414z
		 M75.1191406,79.5117798c-2.4279175,0-4.3947144-1.9667969-4.3947144-4.3927002
		c0-2.4279175,1.9667969-4.3947144,4.3947144-4.3947144c2.4258423,0,4.3926392,1.9667969,4.3926392,4.3947144
		C79.5117798,77.5449829,77.5449829,79.5117798,75.1191406,79.5117798z M75.1191406,14.3149414
		c-2.4279175,0-4.3947144-1.9667969-4.3947144-4.3927002c0-2.4279175,1.9667969-4.3947144,4.3947144-4.3947144
		c2.4258423,0,4.3926392,1.9667969,4.3926392,4.3947144C79.5117798,12.3481445,77.5449829,14.3149414,75.1191406,14.3149414z"/>
	<path class="st1" d="M9.9212646,3.9458008c-3.2877808,0-5.9527588,2.6751709-5.9527588,5.9754639
		c0,3.3002319,2.664978,5.9754028,5.9527588,5.9754028c3.2877197,0,5.9527588-2.6751709,5.9527588-5.9754028
		C15.8740234,6.6209717,13.2089844,3.9458008,9.9212646,3.9458008z M9.9223022,14.3149414
		c-2.4279175,0-4.3947144-1.9667969-4.3947144-4.3927002c0-2.4279175,1.9667969-4.3947144,4.3947144-4.3947144
		c2.4258423,0,4.3926392,1.9667969,4.3926392,4.3947144C14.3149414,12.3481445,12.3481445,14.3149414,9.9223022,14.3149414z"/>
	<path class="st1" d="M75.1181107,3.9458008c-3.2877808,0-5.9527588,2.6751709-5.9527588,5.9754639
		c0,3.3002319,2.664978,5.9754028,5.9527588,5.9754028c3.2877197,0,5.9527588-2.6751709,5.9527588-5.9754028
		C81.0708694,6.6209717,78.4058304,3.9458008,75.1181107,3.9458008z M75.1191483,14.3149414
		c-2.4279175,0-4.3947144-1.9667969-4.3947144-4.3927002c0-2.4279175,1.9667969-4.3947144,4.3947144-4.3947144
		c2.4258423,0,4.3926392,1.9667969,4.3926392,4.3947144C79.5117874,12.3481445,77.5449905,14.3149414,75.1191483,14.3149414z"/>
	<path class="st1" d="M9.9212646,69.1426773c-3.2877808,0-5.9527588,2.6751709-5.9527588,5.9754639
		c0,3.3002319,2.664978,5.9754028,5.9527588,5.9754028c3.2877197,0,5.9527588-2.6751709,5.9527588-5.9754028
		C15.8740234,71.8178482,13.2089844,69.1426773,9.9212646,69.1426773z M9.9223022,79.5118179
		c-2.4279175,0-4.3947144-1.9667969-4.3947144-4.3927002c0-2.4279175,1.9667969-4.3947144,4.3947144-4.3947144
		c2.4258423,0,4.3926392,1.9667969,4.3926392,4.3947144C14.3149414,77.5450211,12.3481445,79.5118179,9.9223022,79.5118179z"/>
	<path class="st1" d="M75.1181107,69.1426773c-3.2877808,0-5.9527588,2.6751709-5.9527588,5.9754639
		c0,3.3002319,2.664978,5.9754028,5.9527588,5.9754028c3.2877197,0,5.9527588-2.6751709,5.9527588-5.9754028
		C81.0708694,71.8178482,78.4058304,69.1426773,75.1181107,69.1426773z M75.1191483,79.5118179
		c-2.4279175,0-4.3947144-1.9667969-4.3947144-4.3927002c0-2.4279175,1.9667969-4.3947144,4.3947144-4.3947144
		c2.4258423,0,4.3926392,1.9667969,4.3926392,4.3947144C79.5117874,77.5450211,77.5449905,79.5118179,75.1191483,79.5118179z"/>
</g>
<g id="Слой_11">
	<path class="st2" d="M30.3328495,74.9196472c0,1.2273636-1.0018463,2.2224808-2.2397404,2.2224808
		c-1.2378922,0-2.2415409-0.9951172-2.2415409-2.2224808c0-1.227356,1.0036488-2.2224731,2.2415409-2.2224731
		C29.3310032,72.6971741,30.3328495,73.6922913,30.3328495,74.9196472z"/>
	<g>
		<path class="st3" d="M35.7832031,80.0625c0.3588867,0,0.640625,0.0810547,0.8447266,0.2441406
			c0.2045898,0.1630859,0.3066406,0.3876953,0.3066406,0.6748047c0,0.1582031-0.0429688,0.2958984-0.128418,0.4121094
			s-0.2104492,0.2099609-0.3754883,0.2822266c0.1865234,0.0546875,0.3208008,0.1455078,0.402832,0.2724609
			c0.081543,0.1269531,0.1225586,0.2841797,0.1225586,0.4726563v0.1591797c0,0.0693359,0.0136719,0.1220703,0.0415039,0.1601563
			c0.0273438,0.0380859,0.0732422,0.0605469,0.1367188,0.0683594l0.078125,0.0107422v0.3789063h-0.328125
			c-0.2070313,0-0.3525391-0.0556641-0.4365234-0.1660156s-0.1259766-0.2529297-0.1259766-0.4287109v-0.1787109
			c0-0.1523438-0.0410156-0.2714844-0.1225586-0.3583984c-0.0820313-0.0869141-0.1972656-0.1328125-0.3466797-0.1367188h-0.519043
			v0.8271484l0.3388672,0.0644531v0.3769531h-1.3100586v-0.3769531l0.3369141-0.0644531v-2.2509766l-0.3369141-0.0644531V80.0625
			h0.3369141H35.7832031z M35.3334961,81.4453125h0.4389648c0.1762695,0,0.309082-0.0380859,0.3974609-0.1123047
			s0.1323242-0.1826172,0.1323242-0.3232422s-0.0439453-0.2529297-0.1313477-0.3369141
			c-0.0878906-0.0839844-0.2167969-0.1259766-0.3876953-0.1259766h-0.449707V81.4453125z"/>
		<path class="st3" d="M38.6938477,80.0625v0.3789063l-0.3388672,0.0644531v1.6367188
			c0,0.2070313,0.0561523,0.3613281,0.168457,0.4648438c0.1123047,0.1025391,0.2661133,0.1533203,0.4614258,0.1533203
			c0.1987305,0,0.3544922-0.0507813,0.4672852-0.1523438c0.112793-0.1025391,0.1694336-0.2578125,0.1694336-0.4658203v-1.6367188
			l-0.3369141-0.0644531V80.0625h1.3100586v0.3789063l-0.3388672,0.0644531v1.6367188
			c0,0.3525391-0.1166992,0.6230469-0.3505859,0.8144531s-0.5410156,0.2861328-0.9204102,0.2861328
			c-0.3779297,0-0.6831055-0.0947266-0.9155273-0.2861328s-0.3486328-0.4619141-0.3486328-0.8144531v-1.6367188
			l-0.3364258-0.0644531V80.0625h0.3364258h0.6342773H38.6938477z"/>
		<path class="st3" d="M43.1845703,81.0634766h-0.4760742l-0.0825195-0.4306641
			c-0.0546875-0.0341797-0.1352539-0.0644531-0.2407227-0.0898438c-0.105957-0.0263672-0.2182617-0.0390625-0.3369141-0.0390625
			c-0.1738281,0-0.3081055,0.0361328-0.402832,0.1083984c-0.0952148,0.0722656-0.1425781,0.1660156-0.1425781,0.28125
			c0,0.1064453,0.0498047,0.1933594,0.1489258,0.2617188s0.2705078,0.140625,0.5136719,0.2167969
			c0.3491211,0.0957031,0.6137695,0.2226563,0.7939453,0.3808594c0.1806641,0.1582031,0.2705078,0.3652344,0.2705078,0.6220703
			c0,0.2685547-0.1069336,0.4804688-0.3212891,0.6357422s-0.4970703,0.2324219-0.847168,0.2324219
			c-0.2509766,0-0.4770508-0.0390625-0.6791992-0.1181641c-0.2016602-0.0791016-0.3701172-0.1884766-0.5048828-0.3271484v-0.6552734
			h0.4907227l0.0673828,0.4462891c0.0639648,0.0517578,0.1503906,0.0947266,0.2597656,0.1279297
			c0.109375,0.0341797,0.2314453,0.0507813,0.3662109,0.0507813c0.1738281,0,0.3056641-0.0351563,0.3964844-0.1054688
			c0.090332-0.0703125,0.1357422-0.1650391,0.1357422-0.2822266c0-0.1210938-0.043457-0.2177734-0.1293945-0.2910156
			c-0.0864258-0.0732422-0.2373047-0.1416016-0.453125-0.2070313c-0.375-0.1074219-0.6586914-0.2353516-0.8515625-0.3828125
			c-0.1923828-0.1484375-0.2885742-0.3505859-0.2885742-0.6074219c0-0.2539063,0.1083984-0.4619141,0.3256836-0.6240234
			c0.2172852-0.1611328,0.4902344-0.2441406,0.8188477-0.2480469c0.2431641,0,0.4648438,0.0361328,0.6650391,0.109375
			c0.199707,0.0732422,0.3676758,0.1708984,0.5039063,0.2929688V81.0634766z"/>
		<path class="st3" d="M45.8828125,81.0634766h-0.4746094l-0.0839844-0.4306641
			c-0.0546875-0.0341797-0.1347656-0.0644531-0.2402344-0.0898438c-0.1054688-0.0263672-0.21875-0.0390625-0.3378906-0.0390625
			c-0.1738281,0-0.3066406,0.0361328-0.4023438,0.1083984c-0.0947266,0.0722656-0.1425781,0.1660156-0.1425781,0.28125
			c0,0.1064453,0.0507813,0.1933594,0.1494141,0.2617188s0.2705078,0.140625,0.5146484,0.2167969
			c0.3476563,0.0957031,0.6132813,0.2226563,0.7929688,0.3808594s0.2714844,0.3652344,0.2714844,0.6220703
			c0,0.2685547-0.1074219,0.4804688-0.3222656,0.6357422s-0.4960938,0.2324219-0.8476563,0.2324219
			c-0.25,0-0.4765625-0.0390625-0.6787109-0.1181641s-0.3706055-0.1884766-0.5053711-0.3271484v-0.6552734h0.4907227
			l0.0673828,0.4462891c0.0644531,0.0517578,0.1513672,0.0947266,0.2607422,0.1279297
			c0.109375,0.0341797,0.2304688,0.0507813,0.3652344,0.0507813c0.1738281,0,0.3066406-0.0351563,0.3964844-0.1054688
			s0.1367188-0.1650391,0.1367188-0.2822266c0-0.1210938-0.0429688-0.2177734-0.1308594-0.2910156
			c-0.0859375-0.0732422-0.2363281-0.1416016-0.4511719-0.2070313c-0.3759766-0.1074219-0.6601563-0.2353516-0.8530273-0.3828125
			c-0.1923828-0.1484375-0.2885742-0.3505859-0.2885742-0.6074219c0-0.2539063,0.1083984-0.4619141,0.3256836-0.6240234
			c0.2172852-0.1611328,0.4897461-0.2441406,0.8198242-0.2480469c0.2421875,0,0.4648438,0.0361328,0.6640625,0.109375
			s0.3671875,0.1708984,0.5039063,0.2929688V81.0634766z"/>
		<path class="st3" d="M46.1757813,80.4414063V80.0625h1.3105469v0.3789063l-0.3388672,0.0644531v2.2509766l0.3388672,0.0644531
			v0.3769531h-1.3105469v-0.3769531l0.3388672-0.0644531v-2.2509766L46.1757813,80.4414063z"/>
		<path class="st3" d="M47.6943359,82.8212891l0.2265625-0.0322266L48.8828125,80.0625h0.6494141l0.9560547,2.7265625
			l0.2255859,0.0322266v0.3769531h-1.0771484v-0.3769531l0.2197266-0.0390625l-0.1396484-0.4306641h-1.0253906l-0.1386719,0.4306641
			l0.2197266,0.0390625v0.3769531h-1.078125V82.8212891z M48.8417969,81.8886719h0.7255859l-0.3564453-1.1044922h-0.0126953
			L48.8417969,81.8886719z"/>
	</g>
	<ellipse class="st4" cx="28.0922089" cy="74.9196472" rx="1.5316002" ry="1.5185714"/>
	<path class="st2" d="M37.5611954,74.9196472c0,1.2273636-1.0018463,2.2224808-2.2397385,2.2224808
		s-2.2415428-0.9951172-2.2415428-2.2224808c0-1.227356,1.0036507-2.2224731,2.2415428-2.2224731
		S37.5611954,73.6922913,37.5611954,74.9196472z"/>
	<ellipse class="st4" cx="35.3205528" cy="74.9196472" rx="1.5316002" ry="1.5185714"/>
	<path class="st2" d="M44.7611961,74.9196472c0,1.2273636-1.0018463,2.2224808-2.2397385,2.2224808
		s-2.2415428-0.9951172-2.2415428-2.2224808c0-1.227356,1.0036507-2.2224731,2.2415428-2.2224731
		S44.7611961,73.6922913,44.7611961,74.9196472z"/>
	<ellipse class="st4" cx="42.5205536" cy="74.9196472" rx="1.5316002" ry="1.5185714"/>
	<path class="st2" d="M51.3486252,73.2907333c1.5395126,2.0229111-0.1709862,4.2713013-2.1831703,3.7839966
		c-0.7743721-0.1875305-1.4096413-0.8210754-1.5987854-1.5950546
		C47.0750771,73.4680405,49.3241386,71.7503281,51.3486252,73.2907333z"/>
	<ellipse class="st4" cx="49.7205544" cy="74.9196472" rx="1.5316002" ry="1.5185714"/>
	<path class="st2" d="M58.5486259,73.2907333c1.5395088,2.0229111-0.1709862,4.2713013-2.1831703,3.7839966
		c-0.7743721-0.1875305-1.4096413-0.8210754-1.5987854-1.5950546C54.275074,73.4680405,56.5241356,71.7503281,58.5486259,73.2907333
		z"/>
	<ellipse class="st4" cx="56.9205551" cy="74.9196472" rx="1.5316002" ry="1.5185714"/>
</g>
<g id="J3y">
	<g id="XMLID_6_">
		<g>
			<rect x="5.605135" y="20.2838993" class="st5" width="3.662437" height="8.5589418"/>
		</g>
		<g>
		</g>
	</g>
	<g id="XMLID_18_">
		<g>
			<rect x="2.5519133" y="23.8876648" class="st1" width="2.9478152" height="1.6072793"/>
		</g>
		<g>
		</g>
	</g>
	<g id="XMLID_16_">
		<g>
			<rect x="9.2675724" y="21.0803318" class="st1" width="3.5123663" height="1.6811564"/>
		</g>
		<g>
		</g>
	</g>
	<g id="XMLID_17_">
		<g>
			<rect x="9.2675724" y="26.5688667" class="st1" width="3.5123663" height="1.6811564"/>
		</g>
		<g>
		</g>
	</g>
	<g>
		<path class="st6" d="M7.7763672,25.5131836c0.1591797,0,0.2822266,0.0493164,0.3691406,0.1474609
			c0.0859375,0.0981445,0.1289063,0.2294922,0.1289063,0.3945313c0,0.0395508-0.0029297,0.0917969-0.0097656,0.1577148
			s-0.015625,0.1206055-0.0253906,0.1650391H8.0136719v-0.0136719c0.0107422-0.0336914,0.0224609-0.0751953,0.0351563-0.1245117
			c0.0117188-0.0488281,0.0185547-0.0996094,0.0185547-0.1513672c0-0.0756836-0.0087891-0.1357422-0.0263672-0.1801758
			C8.0244141,25.8632813,8,25.8300781,7.9677734,25.809082c-0.0322266-0.0224609-0.0722656-0.0366211-0.1191406-0.0424805
			c-0.0478516-0.0063477-0.1015625-0.0092773-0.1640625-0.0092773H6.6230469v0.3876953H6.4306641v-0.6318359H7.7763672z"/>
		<path class="st6" d="M7.3730469,24.0063477c0.0351563-0.0390625,0.0791016-0.0717773,0.1318359-0.097168
			c0.0537109-0.0253906,0.1220703-0.0380859,0.2050781-0.0380859c0.0839844,0,0.1591797,0.0151367,0.2285156,0.0454102
			c0.0693359,0.0307617,0.1298828,0.0732422,0.1806641,0.128418c0.0576172,0.0615234,0.0996094,0.1337891,0.1269531,0.2172852
			s0.0410156,0.1748047,0.0410156,0.2739258c0,0.1020508-0.0126953,0.2021484-0.0361328,0.3007813
			c-0.0244141,0.0986328-0.0507813,0.1791992-0.0791016,0.2426758H7.9169922v-0.0185547
			C7.9628906,24.9912109,8,24.9091797,8.0302734,24.8144531c0.0302734-0.0942383,0.0449219-0.1855469,0.0449219-0.2734375
			c0-0.0517578-0.0078125-0.1064453-0.0253906-0.1650391c-0.0166016-0.0581055-0.0419922-0.1054688-0.0751953-0.1416016
			c-0.0361328-0.0375977-0.0751953-0.065918-0.1191406-0.0844727C7.8125,24.1318359,7.7578125,24.1225586,7.6923828,24.1225586
			s-0.1191406,0.0102539-0.1621094,0.03125s-0.0761719,0.0498047-0.1005859,0.0869141
			C7.4042969,24.2773438,7.3867188,24.3222656,7.3779297,24.375c-0.0097656,0.0522461-0.0146484,0.1088867-0.0146484,0.1699219
			v0.1108398H7.1611328v-0.0864258c0-0.1245117-0.0263672-0.2241211-0.078125-0.2983398
			c-0.0517578-0.074707-0.1269531-0.1118164-0.2265625-0.1118164c-0.0439453,0-0.0820313,0.0097656-0.1152344,0.0283203
			c-0.0332031,0.019043-0.0595703,0.0454102-0.0810547,0.0791016c-0.0214844,0.0351563-0.0361328,0.0727539-0.0439453,0.1132813
			c-0.0078125,0.0400391-0.0126953,0.0859375-0.0126953,0.1367188c0,0.078125,0.0146484,0.1611328,0.0419922,0.2485352
			c0.0273438,0.0878906,0.0664063,0.1708984,0.1171875,0.2490234v0.012207H6.5078125
			c-0.0292969-0.0581055-0.0546875-0.1362305-0.0791016-0.2333984s-0.0361328-0.1914063-0.0361328-0.2827148
			c0-0.0893555,0.0078125-0.1679688,0.0244141-0.2363281s0.0419922-0.1298828,0.078125-0.1845703
			c0.0390625-0.0595703,0.0869141-0.1040039,0.1416016-0.1342773c0.0556641-0.0307617,0.1201172-0.0458984,0.1943359-0.0458984
			c0.1005859,0,0.1894531,0.0361328,0.2646484,0.1079102s0.1230469,0.1567383,0.1425781,0.2543945h0.0166016
			c0.0068359-0.0395508,0.0205078-0.0844727,0.0410156-0.1357422C7.3164063,24.0849609,7.3427734,24.0419922,7.3730469,24.0063477z"
			/>
		<path class="st6" d="M6.4306641,22.137207l1.0205078,0.6450195h0.7978516v0.2441406H7.4775391l-1.046875,0.6479492v-0.2700195
			l0.8134766-0.5009766l-0.8134766-0.5063477V22.137207z"/>
	</g>
</g>
<g id="Резистор">
	<g>
		<g id="XMLID_12_">
			<g>
				<rect x="15.2613125" y="19.1104298" class="st7" width="4.255477" height="3.4358907"/>
			</g>
			<g>
			</g>
		</g>
		<g id="XMLID_11_">
			<g>
				<rect x="15.3020267" y="26.2388859" class="st7" width="4.255477" height="3.4376609"/>
			</g>
			<g>
			</g>
		</g>
		<g id="XMLID_10_">
			<g>
				<rect x="15.6011848" y="21.8426418" class="st5" width="3.6058266" height="5.1633434"/>
			</g>
			<g>
			</g>
		</g>
		<g>
			<path class="st6" d="M16.8608398,23.484375v-0.6967773h0.1313477v0.2680664h0.862793v-0.2680664h0.1171875
				c0,0.0361328,0.003418,0.0751953,0.0092773,0.1166992s0.0146484,0.0727539,0.0263672,0.0942383
				c0.0141602,0.0263672,0.0327148,0.0473633,0.0546875,0.0625c0.0224609,0.015625,0.0522461,0.0244141,0.0898438,0.0263672
				v0.1342773h-1.1601563v0.2626953H16.8608398z"/>
			<path class="st6" d="M17.5048828,24.5043945c-0.230957,0-0.4008789-0.0361328-0.5087891-0.1083984
				s-0.1621094-0.1845703-0.1621094-0.3369141c0-0.1542969,0.0546875-0.2670898,0.1640625-0.3383789
				c0.1098633-0.0712891,0.277832-0.1064453,0.5048828-0.1064453c0.2290039,0,0.3979492,0.0356445,0.5068359,0.1079102
				c0.109375,0.0717773,0.1640625,0.184082,0.1640625,0.3369141c0,0.1542969-0.0556641,0.2670898-0.1665039,0.3383789
				S17.7290039,24.5043945,17.5048828,24.5043945z M17.1123047,24.2768555
				c0.046875,0.0205078,0.1015625,0.0341797,0.1645508,0.0410156c0.0634766,0.0073242,0.1391602,0.0107422,0.2280273,0.0107422
				c0.0874023,0,0.1635742-0.003418,0.2280273-0.0107422c0.0644531-0.0068359,0.1191406-0.0209961,0.1640625-0.0419922
				c0.0444336-0.0200195,0.078125-0.0473633,0.1005859-0.0825195c0.0224609-0.034668,0.0336914-0.0795898,0.0336914-0.1342773
				c0-0.0541992-0.0112305-0.0991211-0.0336914-0.1342773c-0.0224609-0.0356445-0.0566406-0.0634766-0.1020508-0.0844727
				c-0.0424805-0.0195313-0.0981445-0.0327148-0.1669922-0.0400391c-0.0683594-0.0073242-0.1435547-0.0107422-0.2255859-0.0107422
				c-0.0898438,0-0.1650391,0.0029297-0.2255859,0.0092773s-0.1147461,0.0200195-0.1625977,0.0410156
				c-0.0449219,0.0185547-0.0791016,0.0458984-0.1025391,0.0805664c-0.0239258,0.034668-0.0356445,0.0810547-0.0356445,0.1386719
				c0,0.0541992,0.0112305,0.0991211,0.0336914,0.1347656S17.0668945,24.2573242,17.1123047,24.2768555z"/>
			<path class="st6" d="M17.5048828,25.453125c-0.230957,0-0.4008789-0.0361328-0.5087891-0.1083984
				s-0.1621094-0.1845703-0.1621094-0.3369141c0-0.1542969,0.0546875-0.2670898,0.1640625-0.3383789
				c0.1098633-0.0712891,0.277832-0.1064453,0.5048828-0.1064453c0.2290039,0,0.3979492,0.0356445,0.5068359,0.1079102
				c0.109375,0.0717773,0.1640625,0.184082,0.1640625,0.3369141c0,0.1542969-0.0556641,0.2670898-0.1665039,0.3383789
				S17.7290039,25.453125,17.5048828,25.453125z M17.1123047,25.2255859
				c0.046875,0.0205078,0.1015625,0.0341797,0.1645508,0.0410156c0.0634766,0.0073242,0.1391602,0.0107422,0.2280273,0.0107422
				c0.0874023,0,0.1635742-0.003418,0.2280273-0.0107422c0.0644531-0.0068359,0.1191406-0.0209961,0.1640625-0.0419922
				c0.0444336-0.0200195,0.078125-0.0473633,0.1005859-0.0825195c0.0224609-0.034668,0.0336914-0.0795898,0.0336914-0.1342773
				c0-0.0541992-0.0112305-0.0991211-0.0336914-0.1342773c-0.0224609-0.0356445-0.0566406-0.0634766-0.1020508-0.0844727
				c-0.0424805-0.0195313-0.0981445-0.0327148-0.1669922-0.0400391c-0.0683594-0.0073242-0.1435547-0.0107422-0.2255859-0.0107422
				c-0.0898438,0-0.1650391,0.0029297-0.2255859,0.0092773s-0.1147461,0.0200195-0.1625977,0.0410156
				c-0.0449219,0.0185547-0.0791016,0.0458984-0.1025391,0.0805664c-0.0239258,0.034668-0.0356445,0.0810547-0.0356445,0.1386719
				c0,0.0541992,0.0112305,0.0991211,0.0336914,0.1347656S17.0668945,25.2060547,17.1123047,25.2255859z"/>
			<path class="st6" d="M16.8608398,26.402832v-0.8710938h0.1806641c0.0517578,0.0605469,0.1035156,0.1210938,0.1557617,0.1821289
				c0.0517578,0.0605469,0.1030273,0.1171875,0.1542969,0.1694336c0.1074219,0.1108398,0.1923828,0.1865234,0.2558594,0.2275391
				c0.0629883,0.0410156,0.1308594,0.0615234,0.2041016,0.0615234c0.0668945,0,0.1191406-0.0219727,0.1567383-0.0664063
				c0.0380859-0.0439453,0.0566406-0.1054688,0.0566406-0.1845703c0-0.0522461-0.0087891-0.1088867-0.0273438-0.1699219
				s-0.046875-0.1210938-0.0849609-0.1791992v-0.0087891h0.1816406c0.0200195,0.0410156,0.0385742,0.0957031,0.0551758,0.1640625
				c0.0170898,0.0683594,0.0253906,0.1342773,0.0253906,0.1982422c0,0.1318359-0.0322266,0.2353516-0.0957031,0.3105469
				c-0.0634766,0.074707-0.1499023,0.1123047-0.2587891,0.1123047c-0.0488281,0-0.0947266-0.0063477-0.137207-0.0185547
				c-0.0419922-0.0126953-0.0825195-0.0307617-0.1206055-0.0551758c-0.0356445-0.0224609-0.0708008-0.0488281-0.1054688-0.0791016
				c-0.0341797-0.0302734-0.0727539-0.0668945-0.1147461-0.1098633c-0.0605469-0.0620117-0.1191406-0.1254883-0.1757813-0.1914063
				c-0.0566406-0.0654297-0.109375-0.1269531-0.1577148-0.184082v0.6923828H16.8608398z"/>
		</g>
	</g>
	<g>
		<g id="XMLID_3_">
			<g>
				<rect x="65.8741913" y="19.1723919" class="st7" width="4.255477" height="3.4358907"/>
			</g>
			<g>
			</g>
		</g>
		<g id="XMLID_2_">
			<g>
				<rect x="65.9149094" y="26.300848" class="st7" width="4.255477" height="3.4376609"/>
			</g>
			<g>
			</g>
		</g>
		<g id="XMLID_1_">
			<g>
				<rect x="66.2140656" y="21.904604" class="st5" width="3.6058266" height="5.1633434"/>
			</g>
			<g>
			</g>
		</g>
		<g>
			<path class="st6" d="M67.4726563,23.546875v-0.6967773h0.1318359v0.2680664h0.8623047v-0.2680664h0.1171875
				c0,0.0361328,0.0039063,0.0751953,0.0097656,0.1166992s0.0146484,0.0727539,0.0263672,0.0942383
				c0.0146484,0.0263672,0.0322266,0.0473633,0.0546875,0.0625c0.0224609,0.015625,0.0517578,0.0244141,0.0898438,0.0263672
				v0.1342773h-1.1601563v0.2626953H67.4726563z"/>
			<path class="st6" d="M68.1171875,24.5668945c-0.2304688,0-0.4003906-0.0361328-0.5087891-0.1083984
				s-0.1621094-0.1845703-0.1621094-0.3369141c0-0.1542969,0.0546875-0.2670898,0.1640625-0.3383789
				c0.1103516-0.0712891,0.2783203-0.1064453,0.5048828-0.1064453c0.2285156,0,0.3984375,0.0356445,0.5068359,0.1079102
				c0.109375,0.0717773,0.1640625,0.184082,0.1640625,0.3369141c0,0.1542969-0.0556641,0.2670898-0.1669922,0.3383789
				C68.5087891,24.53125,68.3417969,24.5668945,68.1171875,24.5668945z M67.7246094,24.3393555
				c0.046875,0.0205078,0.1015625,0.0341797,0.1640625,0.0410156c0.0644531,0.0073242,0.1396484,0.0107422,0.2285156,0.0107422
				c0.0878906,0,0.1640625-0.003418,0.2285156-0.0107422c0.0644531-0.0068359,0.1191406-0.0209961,0.1640625-0.0419922
				c0.0439453-0.0200195,0.078125-0.0473633,0.0996094-0.0825195c0.0234375-0.034668,0.0341797-0.0795898,0.0341797-0.1342773
				c0-0.0541992-0.0107422-0.0991211-0.0341797-0.1342773c-0.0214844-0.0356445-0.0566406-0.0634766-0.1015625-0.0844727
				c-0.0429688-0.0195313-0.0976563-0.0327148-0.1669922-0.0400391c-0.0683594-0.0073242-0.1435547-0.0107422-0.2255859-0.0107422
				c-0.0898438,0-0.1650391,0.0029297-0.2255859,0.0092773s-0.1142578,0.0200195-0.1630859,0.0410156
				c-0.0449219,0.0185547-0.078125,0.0458984-0.1015625,0.0805664c-0.0244141,0.034668-0.0361328,0.0810547-0.0361328,0.1386719
				c0,0.0541992,0.0107422,0.0991211,0.0341797,0.1347656C67.6445313,24.2919922,67.6796875,24.3198242,67.7246094,24.3393555z"/>
			<path class="st6" d="M68.1171875,25.515625c-0.2304688,0-0.4003906-0.0361328-0.5087891-0.1083984
				s-0.1621094-0.1845703-0.1621094-0.3369141c0-0.1542969,0.0546875-0.2670898,0.1640625-0.3383789
				c0.1103516-0.0712891,0.2783203-0.1064453,0.5048828-0.1064453c0.2285156,0,0.3984375,0.0356445,0.5068359,0.1079102
				c0.109375,0.0717773,0.1640625,0.184082,0.1640625,0.3369141c0,0.1542969-0.0556641,0.2670898-0.1669922,0.3383789
				C68.5087891,25.4799805,68.3417969,25.515625,68.1171875,25.515625z M67.7246094,25.2880859
				c0.046875,0.0205078,0.1015625,0.0341797,0.1640625,0.0410156c0.0644531,0.0073242,0.1396484,0.0107422,0.2285156,0.0107422
				c0.0878906,0,0.1640625-0.003418,0.2285156-0.0107422c0.0644531-0.0068359,0.1191406-0.0209961,0.1640625-0.0419922
				c0.0439453-0.0200195,0.078125-0.0473633,0.0996094-0.0825195c0.0234375-0.034668,0.0341797-0.0795898,0.0341797-0.1342773
				c0-0.0541992-0.0107422-0.0991211-0.0341797-0.1342773c-0.0214844-0.0356445-0.0566406-0.0634766-0.1015625-0.0844727
				c-0.0429688-0.0195313-0.0976563-0.0327148-0.1669922-0.0400391c-0.0683594-0.0073242-0.1435547-0.0107422-0.2255859-0.0107422
				c-0.0898438,0-0.1650391,0.0029297-0.2255859,0.0092773s-0.1142578,0.0200195-0.1630859,0.0410156
				c-0.0449219,0.0185547-0.078125,0.0458984-0.1015625,0.0805664c-0.0244141,0.034668-0.0361328,0.0810547-0.0361328,0.1386719
				c0,0.0541992,0.0107422,0.0991211,0.0341797,0.1347656C67.6445313,25.2407227,67.6796875,25.2685547,67.7246094,25.2880859z"/>
			<path class="st6" d="M67.4726563,26.465332v-0.8710938h0.1816406c0.0507813,0.0605469,0.1035156,0.1210938,0.1552734,0.1821289
				c0.0517578,0.0605469,0.1025391,0.1171875,0.1542969,0.1694336c0.1074219,0.1108398,0.1923828,0.1865234,0.2558594,0.2275391
				s0.1308594,0.0615234,0.2041016,0.0615234c0.0664063,0,0.1191406-0.0219727,0.15625-0.0664063
				c0.0390625-0.0439453,0.0566406-0.1054688,0.0566406-0.1845703c0-0.0522461-0.0078125-0.1088867-0.0273438-0.1699219
				c-0.0175781-0.0610352-0.046875-0.1210938-0.0839844-0.1791992v-0.0087891h0.1816406
				c0.0195313,0.0410156,0.0380859,0.0957031,0.0546875,0.1640625c0.0175781,0.0683594,0.0253906,0.1342773,0.0253906,0.1982422
				c0,0.1318359-0.0322266,0.2353516-0.0957031,0.3105469c-0.0634766,0.074707-0.1503906,0.1123047-0.2587891,0.1123047
				c-0.0488281,0-0.0947266-0.0063477-0.1376953-0.0185547c-0.0410156-0.0126953-0.0820313-0.0307617-0.1201172-0.0551758
				c-0.0361328-0.0224609-0.0712891-0.0488281-0.1054688-0.0791016s-0.0732422-0.0668945-0.1142578-0.1098633
				c-0.0605469-0.0620117-0.1191406-0.1254883-0.1757813-0.1914063c-0.0566406-0.0654297-0.109375-0.1269531-0.1582031-0.184082
				v0.6923828H67.4726563z"/>
		</g>
	</g>
</g>
<g id="Светодиод">
	<g>
		<g id="XMLID_58_">
			<g>
				<rect x="61.0787544" y="77.2689362" class="st7" width="4.255477" height="3.4358907"/>
			</g>
			<g>
			</g>
		</g>
		<g id="XMLID_57_">
			<g>
				<rect x="61.0380402" y="70.13871" class="st7" width="4.255477" height="3.4376609"/>
			</g>
			<g>
			</g>
		</g>
	</g>
	<path class="st8" d="M63.1662827,72.7463989c-0.2929649,0.0003433-0.6022453-0.1414108-0.6939087-0.4296112
		c-0.0212898-0.0606461-1.4339752-0.0606461-1.4339752-0.0606461s0,0.7387772,0,1.4775543h4.2557678
		c0-0.7387772,0-1.4775543,0-1.4775543s-1.4126816,0-1.4339752,0.0606461
		C63.7685318,72.6049881,63.4592514,72.7467422,63.1662827,72.7463989"/>
	<path class="st8" d="M63.1662827,72.4651489c-0.2929649,0.0003433-0.6022453-0.1414108-0.6939087-0.4296112
		c-0.0212898-0.0606461-1.4339752-0.0606461-1.4339752-0.0606461s0,0.7387772,0,1.4775543h4.2557678
		c0-0.7387772,0-1.4775543,0-1.4775543s-1.4126816,0-1.4339752,0.0606461
		C63.7685318,72.3237381,63.4592514,72.4654922,63.1662827,72.4651489"/>
	<path class="st8" d="M63.1662827,78.0364761c-0.2929649-0.0003433-0.6022453,0.1414108-0.6939087,0.4296112
		c-0.0212898,0.0606461-1.4339752,0.0606461-1.4339752,0.0606461s0-0.7387772,0-1.4775543h4.2557678
		c0,0.7387772,0,1.4775543,0,1.4775543s-1.4126816,0-1.4339752-0.0606461
		C63.7685318,78.177887,63.4592514,78.0361328,63.1662827,78.0364761"/>
	
		<rect x="61.5085411" y="73.2635498" transform="matrix(-1.836970e-16 1 -1 -1.836970e-16 138.557724 12.2251539)" class="st9" width="3.3154881" height="4.2557707"/>
	
		<rect x="61.5085411" y="73.2635498" transform="matrix(-1.836970e-16 1 -1 -1.836970e-16 138.557724 12.2251539)" class="st10" width="3.3154881" height="4.2557707"/>
</g>
<g id="Рисунок">
	<rect x="1.5" y="31.75" class="st11" width="82.375" height="35.7708321"/>
	<g>
		<path class="st12" d="M65.2890625,34.9365234v1.4067383h1.6259766v-1.4067383h0.4394531v3.362793h-0.4394531v-1.5766602
			h-1.6259766v1.5766602h-0.4345703v-3.362793H65.2890625z"/>
		<path class="st12" d="M68.1074219,34.9365234h1.8115234v0.3642578h-1.3769531v1.1176758h1.2724609v0.3588867h-1.2724609v1.5219727
			h-0.4345703V34.9365234z"/>
		<path class="st12" d="M71.3359375,35.465332h-0.0097656l-0.5644531,0.3041992l-0.0849609-0.3344727l0.7089844-0.3789063h0.3740234
			v3.2431641h-0.4238281V35.465332z"/>
		<path class="st12" d="M73.8955078,35.465332h-0.0097656l-0.5644531,0.3041992l-0.0849609-0.3344727l0.7089844-0.3789063h0.3740234
			v3.2431641h-0.4238281V35.465332z"/>
		<path class="st12" d="M77.4375,35.425293h-1.2373047l-0.125,0.8334961
			c0.0751953-0.0102539,0.1455078-0.0200195,0.2646484-0.0200195c0.25,0,0.4990234,0.0546875,0.6992188,0.1743164
			c0.2539063,0.1450195,0.4638672,0.4243164,0.4638672,0.8334961c0,0.6337891-0.5039063,1.1074219-1.2080078,1.1074219
			c-0.3535156,0-0.6533203-0.0996094-0.8076172-0.1992188l0.109375-0.3344727C75.7314453,37.8999023,75.9960938,38,76.2900391,38
			c0.4140625,0,0.7685547-0.2695313,0.7685547-0.7036133c-0.0048828-0.4189453-0.2841797-0.7182617-0.9326172-0.7182617
			c-0.1845703,0-0.3300781,0.0195313-0.4492188,0.034668l0.2089844-1.5566406H77.4375V35.425293z"/>
		<path class="st12" d="M78.2158203,34.9365234h1.8115234v0.3642578h-1.3769531v1.1176758h1.2724609v0.3588867h-1.2724609v1.5219727
			h-0.4345703V34.9365234z"/>
	</g>
	<g>
		<path class="st12" d="M63.4179688,41.7827148c0,1.1030273-0.4091797,1.7114258-1.1279297,1.7114258
			c-0.6328125,0-1.0625-0.59375-1.0722656-1.6665039c0-1.0874023,0.46875-1.6865234,1.1279297-1.6865234
			C63.0292969,40.1411133,63.4179688,40.75,63.4179688,41.7827148z M61.6572266,41.8330078
			c0,0.8432617,0.2587891,1.3222656,0.6582031,1.3222656c0.4492188,0,0.6640625-0.5239258,0.6640625-1.3525391
			c0-0.7983398-0.2050781-1.3222656-0.6591797-1.3222656C61.9365234,40.4804688,61.6572266,40.949707,61.6572266,41.8330078z"/>
		<path class="st12" d="M65.9775391,41.7827148c0,1.1030273-0.4091797,1.7114258-1.1279297,1.7114258
			c-0.6328125,0-1.0625-0.59375-1.0722656-1.6665039c0-1.0874023,0.46875-1.6865234,1.1279297-1.6865234
			C65.5888672,40.1411133,65.9775391,40.75,65.9775391,41.7827148z M64.2167969,41.8330078
			c0,0.8432617,0.2587891,1.3222656,0.6582031,1.3222656c0.4492188,0,0.6640625-0.5239258,0.6640625-1.3525391
			c0-0.7983398-0.2050781-1.3222656-0.6591797-1.3222656C64.4960938,40.4804688,64.2167969,40.949707,64.2167969,41.8330078z"/>
		<path class="st12" d="M68.3173828,40.5654297h-1.2373047l-0.1240234,0.8334961
			c0.0742188-0.0102539,0.1445313-0.0200195,0.2636719-0.0200195c0.25,0,0.4990234,0.0546875,0.6992188,0.1743164
			c0.2539063,0.1450195,0.4638672,0.4243164,0.4638672,0.8334961c0,0.6337891-0.5039063,1.1074219-1.2080078,1.1074219
			c-0.3535156,0-0.6533203-0.0996094-0.8076172-0.1992188l0.109375-0.3344727
			c0.1347656,0.0795898,0.3994141,0.1796875,0.6933594,0.1796875c0.4140625,0,0.7685547-0.2695313,0.7685547-0.7036133
			c-0.0048828-0.4189453-0.2841797-0.7182617-0.9326172-0.7182617c-0.1845703,0-0.3300781,0.0195313-0.4492188,0.034668
			l0.2089844-1.5566406h1.5517578V40.5654297z"/>
		<path class="st12" d="M70.0986328,41.9277344v0.3242188h-1.2324219v-0.3242188H70.0986328z"/>
		<path class="st12" d="M71.4257813,40.6054688h-0.0097656l-0.5644531,0.3041992l-0.0849609-0.3344727l0.7089844-0.3789063
			h0.3740234v3.2431641h-0.4238281V40.6054688z"/>
		<path class="st12" d="M72.9570313,43.1850586l1.8662109-2.7294922V40.440918h-1.7060547v-0.3642578h2.2705078v0.2641602
			L73.53125,43.0600586v0.0151367h1.8808594v0.3642578h-2.4550781V43.1850586z"/>
		<path class="st12" d="M75.8857422,42.9106445c0.1943359,0.1196289,0.4785156,0.2192383,0.7783203,0.2192383
			c0.4443359,0,0.703125-0.234375,0.703125-0.5737305c0-0.3139648-0.1787109-0.4936523-0.6328125-0.668457
			c-0.5488281-0.1948242-0.8886719-0.4790039-0.8886719-0.953125c0-0.5239258,0.4345703-0.9130859,1.0878906-0.9130859
			c0.3447266,0,0.59375,0.0800781,0.7431641,0.1645508l-0.1191406,0.3544922
			c-0.1103516-0.0600586-0.3349609-0.159668-0.6386719-0.159668c-0.4589844,0-0.6337891,0.2744141-0.6337891,0.5039063
			c0,0.3144531,0.2041016,0.4692383,0.6679688,0.6484375c0.5693359,0.2197266,0.8583984,0.4941406,0.8583984,0.9882813
			c0,0.5185547-0.3837891,0.9677734-1.1777344,0.9677734c-0.3242188,0-0.6777344-0.0947266-0.8574219-0.2143555
			L75.8857422,42.9106445z"/>
		<path class="st12" d="M78.3554688,42.9355469c0.125,0.0795898,0.4140625,0.2045898,0.71875,0.2045898
			c0.5634766,0,0.7382813-0.359375,0.7333984-0.6289063c-0.0048828-0.4541016-0.4140625-0.6484375-0.8378906-0.6484375h-0.2451172
			v-0.3295898h0.2451172c0.3193359,0,0.7236328-0.1645508,0.7236328-0.5488281c0-0.2592773-0.1650391-0.4887695-0.5693359-0.4887695
			c-0.2597656,0-0.5087891,0.1147461-0.6484375,0.2143555l-0.1152344-0.3193359
			c0.1699219-0.1245117,0.4990234-0.2495117,0.8486328-0.2495117c0.6386719,0,0.9277344,0.3793945,0.9277344,0.7734375
			c0,0.3344727-0.1992188,0.6186523-0.5986328,0.7636719v0.0097656c0.3994141,0.0800781,0.7236328,0.3793945,0.7236328,0.8334961
			c0,0.5185547-0.4042969,0.9726563-1.1826172,0.9726563c-0.3642578,0-0.6835938-0.1147461-0.8427734-0.2192383
			L78.3554688,42.9355469z"/>
	</g>
	<g>
		<path class="st12" d="M70.8251953,55.4404297h-1.2373047l-0.1240234,0.8330078
			c0.0742188-0.0097656,0.1445313-0.0195313,0.2636719-0.0195313c0.25,0,0.4990234,0.0546875,0.6992188,0.1738281
			c0.2539063,0.1455078,0.4638672,0.4248047,0.4638672,0.8339844c0,0.6337891-0.5039063,1.1074219-1.2080078,1.1074219
			c-0.3535156,0-0.6533203-0.0996094-0.8076172-0.1992188l0.109375-0.3349609
			c0.1347656,0.0800781,0.3994141,0.1796875,0.6933594,0.1796875c0.4140625,0,0.7685547-0.2695313,0.7685547-0.703125
			c-0.0048828-0.4189453-0.2841797-0.71875-0.9326172-0.71875c-0.1845703,0-0.3300781,0.0195313-0.4492188,0.0351563
			l0.2089844-1.5566406h1.5517578V55.4404297z"/>
		<path class="st12" d="M72.3427734,58.3144531l-1.0986328-3.3632813h0.4697266l0.5234375,1.65625
			c0.1445313,0.4541016,0.2695313,0.8632813,0.359375,1.2578125h0.0097656
			c0.0947266-0.3896484,0.234375-0.8134766,0.3847656-1.2529297l0.5683594-1.6611328h0.4638672l-1.2021484,3.3632813H72.3427734z"/>
		<path class="st12" d="M74.3876953,54.9960938c0.2646484-0.0400391,0.5791016-0.0703125,0.9238281-0.0703125
			c0.6230469,0,1.0673828,0.1455078,1.3613281,0.4199219c0.2998047,0.2744141,0.4746094,0.6630859,0.4746094,1.2070313
			c0,0.5488281-0.1699219,0.9980469-0.484375,1.3076172c-0.3144531,0.3144531-0.8330078,0.4833984-1.4863281,0.4833984
			c-0.3095703,0-0.5693359-0.0146484-0.7890625-0.0390625V54.9960938z M74.8222656,57.9697266
			c0.109375,0.0205078,0.2695313,0.0253906,0.4384766,0.0253906c0.9287109,0,1.4326172-0.5195313,1.4326172-1.4277344
			c0.0048828-0.7929688-0.4443359-1.296875-1.3623047-1.296875c-0.2246094,0-0.3945313,0.0195313-0.5087891,0.0449219V57.9697266z"
			/>
		<path class="st12" d="M80.0615234,58.2041016c-0.1601563,0.0800781-0.4794922,0.1601563-0.8886719,0.1601563
			c-0.9472656,0-1.6611328-0.5986328-1.6611328-1.7011719c0-1.0537109,0.7138672-1.7666016,1.7558594-1.7666016
			c0.4199219,0,0.6835938,0.0898438,0.7988281,0.1494141l-0.1044922,0.3544922
			c-0.1650391-0.0800781-0.3994141-0.1396484-0.6787109-0.1396484c-0.7890625,0-1.3125,0.5039063-1.3125,1.3867188
			C77.9707031,57.4707031,78.4443359,58,79.2626953,58c0.2646484,0,0.5341797-0.0546875,0.7089844-0.1396484L80.0615234,58.2041016z
			"/>
	</g>
	<g>
		<path class="st12" d="M56.5107422,61.8134766h-0.0097656l-0.5644531,0.3046875l-0.0849609-0.3349609l0.7089844-0.3789063
			h0.3740234v3.2431641h-0.4238281V61.8134766z"/>
		<path class="st12" d="M59.9677734,61.7138672c-0.0888672-0.0048828-0.2041016,0-0.3291016,0.0195313
			c-0.6884766,0.1152344-1.0527344,0.6191406-1.1269531,1.1533203h0.0146484c0.1542969-0.2050781,0.4238281-0.375,0.7832031-0.375
			c0.5742188,0,0.9785156,0.4150391,0.9785156,1.0478516c0,0.59375-0.4042969,1.1425781-1.078125,1.1425781
			c-0.6933594,0-1.1474609-0.5380859-1.1474609-1.3818359c0-0.6386719,0.2294922-1.1425781,0.5488281-1.4619141
			c0.2695313-0.2646484,0.6289063-0.4287109,1.0380859-0.4785156c0.1289063-0.0205078,0.2392578-0.0253906,0.3183594-0.0253906
			V61.7138672z M59.84375,63.5849609c0-0.4638672-0.2646484-0.7431641-0.6689453-0.7431641
			c-0.2646484,0-0.5087891,0.1640625-0.6289063,0.3984375c-0.0292969,0.0498047-0.0498047,0.1152344-0.0498047,0.1953125
			c0.0097656,0.5332031,0.2548828,0.9277344,0.7138672,0.9277344C59.5888672,64.3632813,59.84375,64.0488281,59.84375,63.5849609z"
			/>
		<path class="st12" d="M61.375,63.5898438l-0.3486328,1.0576172h-0.4492188l1.1425781-3.3623047h0.5234375l1.1474609,3.3623047
			h-0.4638672l-0.359375-1.0576172H61.375z M62.4775391,63.2509766l-0.3291016-0.96875
			c-0.0742188-0.21875-0.125-0.4189453-0.1748047-0.6132813h-0.0097656
			c-0.0498047,0.1992188-0.1044922,0.4042969-0.1699219,0.6083984l-0.3291016,0.9736328H62.4775391z"/>
		<path class="st12" d="M64.7880859,64.6474609v-0.2695313l0.34375-0.3339844
			c0.8291016-0.7880859,1.203125-1.2070313,1.2080078-1.6962891c0-0.3291016-0.1601563-0.6337891-0.6435547-0.6337891
			c-0.2949219,0-0.5390625,0.1494141-0.6884766,0.2744141l-0.1396484-0.3095703
			c0.2246094-0.1894531,0.5439453-0.3291016,0.9179688-0.3291016c0.6982422,0,0.9931641,0.4785156,0.9931641,0.9433594
			c0,0.5986328-0.4345703,1.0820313-1.1181641,1.7412109l-0.2597656,0.2392578v0.0097656h1.4570313v0.3642578H64.7880859z"/>
		<path class="st12" d="M69.2832031,61.7734375h-1.2373047l-0.125,0.8339844
			c0.0751953-0.0107422,0.1455078-0.0205078,0.2646484-0.0205078c0.25,0,0.4990234,0.0546875,0.6992188,0.1748047
			c0.2539063,0.1445313,0.4638672,0.4238281,0.4638672,0.8330078c0,0.6337891-0.5039063,1.1074219-1.2080078,1.1074219
			c-0.3535156,0-0.6533203-0.0996094-0.8076172-0.1992188l0.109375-0.3339844
			c0.1347656,0.0791016,0.3994141,0.1796875,0.6933594,0.1796875c0.4140625,0,0.7685547-0.2695313,0.7685547-0.7041016
			c-0.0048828-0.4189453-0.2841797-0.7177734-0.9326172-0.7177734c-0.1845703,0-0.3300781,0.0195313-0.4492188,0.0341797
			l0.2089844-1.5566406h1.5517578V61.7734375z"/>
		<path class="st12" d="M72.0625,62.9912109c0,1.1025391-0.4091797,1.7109375-1.1279297,1.7109375
			c-0.6328125,0-1.0625-0.59375-1.0722656-1.6660156c0-1.0878906,0.46875-1.6865234,1.1279297-1.6865234
			C71.6738281,61.3496094,72.0625,61.9580078,72.0625,62.9912109z M70.3017578,63.0410156
			c0,0.84375,0.2587891,1.3222656,0.6582031,1.3222656c0.4492188,0,0.6640625-0.5234375,0.6640625-1.3525391
			c0-0.7978516-0.2050781-1.3222656-0.6591797-1.3222656C70.5810547,61.6884766,70.3017578,62.1582031,70.3017578,63.0410156z"/>
		<path class="st12" d="M73.3603516,64.6474609l-1.0986328-3.3623047h0.4697266l0.5234375,1.65625
			c0.1445313,0.4541016,0.2695313,0.8632813,0.359375,1.2568359h0.0097656c0.0947266-0.3886719,0.234375-0.8125,0.3847656-1.2519531
			l0.5683594-1.6611328h0.4638672l-1.2021484,3.3623047H73.3603516z"/>
		<path class="st12" d="M75.6650391,63.5898438l-0.3486328,1.0576172h-0.4492188l1.1425781-3.3623047h0.5234375l1.1474609,3.3623047
			h-0.4638672l-0.359375-1.0576172H75.6650391z M76.7675781,63.2509766l-0.3291016-0.96875
			c-0.0742188-0.21875-0.125-0.4189453-0.1748047-0.6132813h-0.0097656
			c-0.0498047,0.1992188-0.1044922,0.4042969-0.1699219,0.6083984l-0.3291016,0.9736328H76.7675781z"/>
		<path class="st12" d="M80.4501953,64.5380859c-0.1601563,0.0800781-0.4794922,0.1591797-0.8886719,0.1591797
			c-0.9472656,0-1.6611328-0.5986328-1.6611328-1.7011719c0-1.0527344,0.7138672-1.7666016,1.7558594-1.7666016
			c0.4199219,0,0.6835938,0.0898438,0.7988281,0.1503906l-0.1044922,0.3535156
			c-0.1650391-0.0791016-0.3994141-0.1396484-0.6787109-0.1396484c-0.7890625,0-1.3125,0.5039063-1.3125,1.3876953
			c0,0.8232422,0.4736328,1.3515625,1.2919922,1.3515625c0.2646484,0,0.5341797-0.0546875,0.7089844-0.1396484
			L80.4501953,64.5380859z"/>
	</g>
	<line class="st13" x1="80.3333359" y1="59.6666679" x2="55.75" y2="59.6666679"/>
</g>
<g id="Диод_B2">
	<g id="XMLID_7_">
		<g>
			<rect x="21.2881317" y="69.9976501" class="st7" width="1.3371229" height="1.7188305"/>
		</g>
		<g>
		</g>
	</g>
	<g id="XMLID_5_">
		<g>
			<rect x="21.2881317" y="78.4564514" class="st7" width="1.3371229" height="1.7188305"/>
		</g>
		<g>
		</g>
	</g>
	<g id="XMLID_4_">
		<g>
			<rect x="19.6888504" y="71.6549377" class="st5" width="4.5365462" height="6.8017097"/>
		</g>
		<g>
		</g>
	</g>
	<g>
		<path class="st6" d="M21.8193359,76.6132813c-0.0639648,0-0.1206055-0.0126953-0.1694336-0.0371094
			c-0.0493164-0.0234375-0.0893555-0.0566406-0.1210938-0.0976563c-0.0380859-0.0488281-0.0649414-0.1015625-0.0810547-0.1591797
			s-0.0244141-0.1318359-0.0244141-0.2207031v-0.4560547h1.2871094v0.3808594c0,0.09375-0.003418,0.1640625-0.0102539,0.2109375
			c-0.0073242,0.046875-0.0214844,0.0917969-0.043457,0.1337891c-0.0249023,0.0478516-0.0566406,0.0810547-0.0957031,0.1025391
			c-0.0385742,0.0214844-0.0854492,0.0322266-0.1391602,0.0322266c-0.0615234,0-0.1132813-0.015625-0.15625-0.0458984
			c-0.0429688-0.03125-0.0771484-0.0732422-0.1035156-0.125h-0.0068359
			c-0.0175781,0.0869141-0.0556641,0.1552734-0.1142578,0.2050781
			C21.9824219,76.5878906,21.9086914,76.6132813,21.8193359,76.6132813z M21.8125,76.4345703
			c0.0517578,0,0.0927734-0.0078125,0.1235352-0.0234375c0.0302734-0.0146484,0.0561523-0.0439453,0.0776367-0.0849609
			c0.0146484-0.0273438,0.0239258-0.0605469,0.0283203-0.0996094c0.0039063-0.0400391,0.0063477-0.0878906,0.0063477-0.1445313
			v-0.2685547h-0.4790039v0.2255859c0,0.0761719,0.0039063,0.1367188,0.0117188,0.1845703s0.0219727,0.0869141,0.0429688,0.1181641
			c0.0224609,0.03125,0.0478516,0.0556641,0.0766602,0.0703125C21.7294922,76.4277344,21.7666016,76.4345703,21.8125,76.4345703z
			 M22.3994141,76.3242188c0.0307617,0,0.0571289-0.0039063,0.0786133-0.0146484
			c0.0209961-0.0107422,0.0385742-0.0273438,0.0517578-0.0498047c0.015625-0.0273438,0.0249023-0.0605469,0.0288086-0.0996094
			c0.0039063-0.0380859,0.0058594-0.0859375,0.0058594-0.1425781v-0.2041016h-0.3720703v0.2216797
			c0,0.0527344,0.0029297,0.0957031,0.0083008,0.1269531c0.0053711,0.0322266,0.0170898,0.0615234,0.0341797,0.0878906
			c0.0175781,0.0273438,0.0395508,0.046875,0.0668945,0.0585938C22.3291016,76.3193359,22.3618164,76.3242188,22.3994141,76.3242188
			z"/>
		<path class="st6" d="M21.4233398,77.515625v-0.8710938h0.1806641c0.0517578,0.0605469,0.1035156,0.1210938,0.1557617,0.1816406
			c0.0517578,0.0605469,0.1030273,0.1171875,0.1542969,0.1699219c0.1074219,0.1113281,0.1923828,0.1865234,0.2558594,0.2275391
			c0.0629883,0.0410156,0.1308594,0.0615234,0.2041016,0.0615234c0.0668945,0,0.1191406-0.0214844,0.1567383-0.0664063
			c0.0380859-0.0439453,0.0566406-0.1054688,0.0566406-0.1845703c0-0.0517578-0.0087891-0.1083984-0.0273438-0.1699219
			s-0.046875-0.1210938-0.0849609-0.1787109v-0.0097656h0.1816406c0.0200195,0.0410156,0.0385742,0.0957031,0.0551758,0.1640625
			c0.0170898,0.0683594,0.0253906,0.1347656,0.0253906,0.1992188c0,0.1308594-0.0322266,0.234375-0.0957031,0.3105469
			c-0.0634766,0.0742188-0.1499023,0.1113281-0.2587891,0.1113281c-0.0488281,0-0.0947266-0.0058594-0.137207-0.0175781
			c-0.0419922-0.0136719-0.0825195-0.03125-0.1206055-0.0556641c-0.0356445-0.0224609-0.0708008-0.0488281-0.1054688-0.0791016
			c-0.0341797-0.0302734-0.0727539-0.0664063-0.1147461-0.109375c-0.0605469-0.0625-0.1191406-0.1259766-0.1757813-0.1914063
			c-0.0566406-0.0664063-0.109375-0.1269531-0.1577148-0.1845703v0.6923828H21.4233398z"/>
	</g>
	<line class="st14" x1="19.6889534" y1="72.6073074" x2="24.2243881" y2="72.6073074"/>
	<line class="st14" x1="19.6889534" y1="73.0448074" x2="24.2243881" y2="73.0448074"/>
	<line class="st14" x1="19.6889534" y1="72.1541824" x2="24.2243881" y2="72.1541824"/>
</g>
<g id="Винтовой_клемник">
	<rect x="21.6723614" y="1.6662225" class="st15" width="41.6946487" height="22.9606304"/>
	<circle class="st16" cx="56.6446838" cy="13.1465378" r="5.2440944"/>
	<circle class="st16" cx="42.5196838" cy="13.1465378" r="5.2440944"/>
	<linearGradient id="SVGID_1_" gradientUnits="userSpaceOnUse" x1="42.5480919" y1="24.626852" x2="42.5480919" y2="22.3340378">
		<stop  offset="0" style="stop-color:#FFFFFF;stop-opacity:0.5"/>
		<stop  offset="1" style="stop-color:#000000;stop-opacity:0.5"/>
	</linearGradient>
	<rect x="21.7291756" y="22.3340378" class="st17" width="41.6378326" height="2.292815"/>
	<rect x="21.6723614" y="1.6662225" class="st18" width="41.6946487" height="1.855315"/>
	
		<linearGradient id="SVGID_2_" gradientUnits="userSpaceOnUse" x1="-21.1622276" y1="-100.3537216" x2="-21.1622276" y2="-102.6465378" gradientTransform="matrix(-1 0 0 -1 21.3858662 -96.8321838)">
		<stop  offset="0" style="stop-color:#FFFFFF;stop-opacity:0.5"/>
		<stop  offset="1" style="stop-color:#000000;stop-opacity:0.5"/>
	</linearGradient>
	<polygon class="st19" points="21.7291756,3.5215375 63.3670082,3.5215375 63.3670082,5.8143525 21.7291756,5.8143525 	"/>
	<g id="XMLID_8_">
		<g>
			<path class="st20" d="M32.5581741,9.7901525c0.1392517,0.1600285,0.2617111,0.3309193,0.3757744,0.5072422
				c0.1194916,0.18472,0.2251587,0.3664742,0.3140335,0.5590916l-0.0084,0.0054321l-8.7237873,5.6433668
				c-0.1476479-0.1545963-0.2701073-0.3254871-0.3896008-0.5102072c-0.1140614-0.1763229-0.2197285-0.358077-0.3086014-0.5506945
				l0.0083961-0.0054321L32.5581741,9.7901525z"/>
			<path class="st16" d="M32.5581741,9.7901525l-8.7321854,5.6487989l-0.0083961,0.0054321
				c-1.1519127-2.3514242-0.3880634-5.2394571,1.862154-6.6951094C27.9383602,7.2881908,30.8856888,7.7754836,32.5581741,9.7901525z
				"/>
			<path class="st16" d="M24.5157948,16.5052853l8.7237873-5.6433668c1.1603127,2.3459921,0.3826332,5.2310591-1.8675842,6.6867113
				C29.1301785,18.9988518,26.179884,18.5253868,24.5157948,16.5052853z"/>
		</g>
		<g>
		</g>
	</g>
	<g id="XMLID_9_">
		<g>
			<path class="st20" d="M44.1578751,18.1377831c-0.2004318,0.0694752-0.4046783,0.1193161-0.6108284,0.1593399
				s-0.4142075,0.0702305-0.6260757,0.0808048L40.9388275,8.1685638L40.936924,8.1587467
				c0.2004318-0.0694742,0.4046745-0.1193151,0.6108284-0.1593385c0.2061501-0.0400243,0.4142075-0.0702314,0.6260757-0.0808053
				l0.0019035,0.0098166L44.1578751,18.1377831z"/>
			<path class="st16" d="M44.1578751,18.1377831L42.1757317,7.9284196l-0.0019035-0.0098166
				c2.6114235-0.1912184,5.0156021,1.5932789,5.5263824,4.2241535
				C48.2128983,14.7834473,46.6511307,17.3379307,44.1578751,18.1377831z"/>
			<path class="st16" d="M40.9388275,8.1685638l1.9821434,10.2093639c-2.6114235,0.1912174-5.0057869-1.5951843-5.5184746-4.2358761
				C36.891716,11.5111771,38.4436646,8.9586,40.936924,8.1587467L40.9388275,8.1685638z"/>
		</g>
		<g>
		</g>
	</g>
	<g id="XMLID_13_">
		<g>
			<path class="st20" d="M57.663063,8.0019436c0.2089386,0.0366735,0.4116669,0.0923586,0.61129,0.1575499
				c0.1996269,0.0651913,0.3961487,0.1398878,0.5864601,0.2335968l-3.228508,9.8861895L55.6292,18.2887859
				c-0.2089386-0.0366745-0.4116669-0.0923595-0.6112938-0.1575508c-0.1996231-0.0651913-0.3961449-0.1398869-0.5864563-0.2335968
				l0.0031052-0.0095062L57.663063,8.0019436z"/>
			<path class="st16" d="M57.663063,8.0019436l-3.228508,9.8861885l-0.0031052,0.0095062
				c-2.3753128-1.1018105-3.6094589-3.8297024-2.7774963-6.3772964C52.4890213,8.9632406,55.0952797,7.4895015,57.663063,8.0019436z
				"/>
			<path class="st16" d="M55.6323051,18.2792797l3.228508-9.8861895c2.3753128,1.1018114,3.5999489,3.8265982,2.7648849,6.3836985
				c-0.8319626,2.547596-3.4287186,4.0244389-5.9964981,3.5119972L55.6323051,18.2792797z"/>
		</g>
		<g>
		</g>
	</g>
	<g>
	</g>
	<g>
	</g>
	<g>
	</g>
	<g>
	</g>
	<g>
	</g>
</g>
</svg>
