<?xml version="1.0" encoding="utf-8"?>
<!-- Generator: Adobe Illustrator 22.0.1, SVG Export Plug-In . SVG Version: 6.00 Build 0)  -->
<svg version="1.1" id="Макет_TREMA" xmlns="http://www.w3.org/2000/svg" xmlns:xlink="http://www.w3.org/1999/xlink" x="0px"
	 y="0px" viewBox="0 0 85.0400009 85.0400009" style="enable-background:new 0 0 85.0400009 85.0400009;" xml:space="preserve">
<style type="text/css">
	.st0{fill:#0D0E0F;}
	.st1{fill:#CEC7BD;}
	.st2{fill:#E5E4E0;}
	.st3{fill:#918C84;}
	.st4{fill:#151616;}
	.st5{fill:none;stroke:#F6F6F6;stroke-width:0.75;stroke-miterlimit:10;}
	.st6{fill:#FFFFFF;}
	.st7{fill:none;stroke:#E5E4E0;stroke-width:1.3;stroke-miterlimit:10;}
	.st8{fill:none;stroke:#E5E4E0;stroke-width:0.5;stroke-miterlimit:10;}
	.st9{fill:#E5E4E0;stroke:#E5E4E0;stroke-width:0.5;stroke-miterlimit:10;}
	.st10{fill:none;stroke:#E5E4E0;stroke-width:0.75;stroke-miterlimit:10;}
	.st11{fill:none;stroke:#E5E4E0;stroke-width:0.75;stroke-linecap:round;stroke-miterlimit:10;}
	.st12{fill:#CDC7BC;}
	.st13{fill:#363331;}
	.st14{fill:#B5B4B3;}
	.st15{fill:#CCC6BB;}
	.st16{fill:#4C4C4C;stroke:#808080;stroke-width:0.5;stroke-miterlimit:10;}
	.st17{fill:#313131;}
	.st18{fill:#9E9B9C;}
</style>
<path class="st0" d="M0,0v85.039978h85.039978V0H0z M75.1191406,14.3149414c-2.4279175,0-4.3947144-1.9667969-4.3947144-4.3927002
	c0-2.4279175,1.9667969-4.3947144,4.3947144-4.3947144c2.4258423,0,4.3927002,1.9667969,4.3927002,4.3947144
	C79.5118408,12.3481445,77.5449829,14.3149414,75.1191406,14.3149414z M9.922267,14.3149414
	c-2.4279175,0-4.3947144-1.9667969-4.3947144-4.3927002c0-2.4279175,1.9667969-4.3947144,4.3947144-4.3947144
	c2.4258423,0,4.3927002,1.9667969,4.3927002,4.3947144C14.3149672,12.3481445,12.3481092,14.3149414,9.922267,14.3149414z
	 M9.922267,79.5118179c-2.4279175,0-4.3947144-1.9667969-4.3947144-4.3927002c0-2.4279175,1.9667969-4.3947144,4.3947144-4.3947144
	c2.4258423,0,4.3927002,1.9667969,4.3927002,4.3947144C14.3149672,77.5450211,12.3481092,79.5118179,9.922267,79.5118179z
	 M75.1191177,79.5118179c-2.4279175,0-4.3947144-1.9667969-4.3947144-4.3927002
	c0-2.4279175,1.9667969-4.3947144,4.3947144-4.3947144c2.4258423,0,4.3927002,1.9667969,4.3927002,4.3947144
	C79.5118179,77.5450211,77.54496,79.5118179,75.1191177,79.5118179z"/>
<g id="Колодка_i2c">
	<path class="st1" d="M33.9603271,74.9196854c0,1.2273636-1.0018463,2.2224731-2.2397404,2.2224731
		c-1.2378922,0-2.2415428-0.9951096-2.2415428-2.2224731s1.0036507-2.2224731,2.2415428-2.2224731
		C32.9584808,72.6972122,33.9603271,73.6923218,33.9603271,74.9196854z"/>
	<g>
		<path class="st2" d="M35.5375977,79.9794922c0.3588867,0,0.640625,0.0810547,0.8447266,0.2441406
			c0.2045898,0.1630859,0.3066406,0.3876953,0.3066406,0.6748047c0,0.1582031-0.0429688,0.2958984-0.128418,0.4121094
			s-0.2104492,0.2099609-0.3754883,0.2822266c0.1865234,0.0546875,0.3208008,0.1455078,0.402832,0.2724609
			c0.081543,0.1269531,0.1225586,0.2841797,0.1225586,0.4726563v0.1591797c0,0.0693359,0.0136719,0.1220703,0.0415039,0.1601563
			c0.0273438,0.0380859,0.0732422,0.0605469,0.1367188,0.0683594l0.078125,0.0107422v0.3789063h-0.328125
			c-0.2070313,0-0.3525391-0.0556641-0.4365234-0.1660156s-0.1259766-0.2529297-0.1259766-0.4287109v-0.1787109
			c0-0.1523438-0.0410156-0.2714844-0.1225586-0.3583984c-0.0820313-0.0869141-0.1972656-0.1328125-0.3466797-0.1367188h-0.519043
			v0.8271484l0.3388672,0.0644531v0.3769531h-1.3100586v-0.3769531l0.3369141-0.0644531v-2.2509766l-0.3369141-0.0644531v-0.3789063
			h0.3369141H35.5375977z M35.0878906,81.3623047h0.4389648c0.1762695,0,0.309082-0.0380859,0.3974609-0.1123047
			s0.1323242-0.1826172,0.1323242-0.3232422s-0.0439453-0.2529297-0.1313477-0.3369141
			c-0.0878906-0.0839844-0.2167969-0.1259766-0.3876953-0.1259766h-0.449707V81.3623047z"/>
		<path class="st2" d="M38.4482422,79.9794922v0.3789063l-0.3388672,0.0644531v1.6367188
			c0,0.2070313,0.0561523,0.3613281,0.168457,0.4648438c0.1123047,0.1025391,0.2661133,0.1533203,0.4614258,0.1533203
			c0.1987305,0,0.3544922-0.0507813,0.4672852-0.1523438c0.112793-0.1025391,0.1694336-0.2578125,0.1694336-0.4658203v-1.6367188
			l-0.3369141-0.0644531v-0.3789063h1.3100586v0.3789063l-0.3388672,0.0644531v1.6367188
			c0,0.3525391-0.1166992,0.6230469-0.3505859,0.8144531s-0.5410156,0.2861328-0.9204102,0.2861328
			c-0.3779297,0-0.6831055-0.0947266-0.9155273-0.2861328s-0.3486328-0.4619141-0.3486328-0.8144531v-1.6367188
			l-0.3364258-0.0644531v-0.3789063h0.3364258h0.6342773H38.4482422z"/>
		<path class="st2" d="M42.9389648,80.9804688h-0.4760742l-0.0825195-0.4306641
			c-0.0546875-0.0341797-0.1352539-0.0644531-0.2407227-0.0898438c-0.105957-0.0263672-0.2182617-0.0390625-0.3369141-0.0390625
			c-0.1738281,0-0.3081055,0.0361328-0.402832,0.1083984c-0.0952148,0.0722656-0.1425781,0.1660156-0.1425781,0.28125
			c0,0.1064453,0.0498047,0.1933594,0.1489258,0.2617188s0.2705078,0.140625,0.5136719,0.2167969
			c0.3491211,0.0957031,0.6137695,0.2226563,0.7939453,0.3808594c0.1806641,0.1582031,0.2705078,0.3652344,0.2705078,0.6220703
			c0,0.2685547-0.1069336,0.4804688-0.3212891,0.6357422s-0.4970703,0.2324219-0.847168,0.2324219
			c-0.2509766,0-0.4770508-0.0390625-0.6791992-0.1181641c-0.2016602-0.0791016-0.3701172-0.1884766-0.5048828-0.3271484v-0.6552734
			h0.4907227l0.0673828,0.4462891c0.0639648,0.0517578,0.1503906,0.0947266,0.2597656,0.1279297
			c0.109375,0.0341797,0.2314453,0.0507813,0.3662109,0.0507813c0.1738281,0,0.3056641-0.0351563,0.3964844-0.1054688
			c0.090332-0.0703125,0.1357422-0.1650391,0.1357422-0.2822266c0-0.1210938-0.043457-0.2177734-0.1293945-0.2910156
			c-0.0864258-0.0732422-0.2373047-0.1416016-0.453125-0.2070313c-0.375-0.1074219-0.6586914-0.2353516-0.8515625-0.3828125
			c-0.1923828-0.1484375-0.2885742-0.3505859-0.2885742-0.6074219c0-0.2539063,0.1083984-0.4619141,0.3256836-0.6240234
			c0.2172852-0.1611328,0.4902344-0.2441406,0.8188477-0.2480469c0.2431641,0,0.4648438,0.0361328,0.6650391,0.109375
			c0.199707,0.0732422,0.3676758,0.1708984,0.5039063,0.2929688V80.9804688z"/>
		<path class="st2" d="M45.6367188,80.9804688h-0.4746094l-0.0839844-0.4306641
			c-0.0546875-0.0341797-0.1347656-0.0644531-0.2402344-0.0898438c-0.1054688-0.0263672-0.21875-0.0390625-0.3378906-0.0390625
			c-0.1738281,0-0.3066406,0.0361328-0.4023438,0.1083984c-0.0947266,0.0722656-0.1420898,0.1660156-0.1420898,0.28125
			c0,0.1064453,0.050293,0.1933594,0.1489258,0.2617188s0.2705078,0.140625,0.5146484,0.2167969
			c0.3476563,0.0957031,0.6132813,0.2226563,0.7929688,0.3808594s0.2714844,0.3652344,0.2714844,0.6220703
			c0,0.2685547-0.1074219,0.4804688-0.3222656,0.6357422s-0.4960938,0.2324219-0.8476563,0.2324219
			c-0.25,0-0.4765625-0.0390625-0.6787109-0.1181641c-0.2016602-0.0791016-0.3701172-0.1884766-0.5048828-0.3271484v-0.6552734
			h0.4907227l0.0673828,0.4462891c0.0639648,0.0517578,0.1508789,0.0947266,0.2602539,0.1279297
			c0.109375,0.0341797,0.2304688,0.0507813,0.3652344,0.0507813c0.1738281,0,0.3066406-0.0351563,0.3964844-0.1054688
			s0.1367188-0.1650391,0.1367188-0.2822266c0-0.1210938-0.0429688-0.2177734-0.1308594-0.2910156
			c-0.0859375-0.0732422-0.2363281-0.1416016-0.4511719-0.2070313c-0.3759766-0.1074219-0.659668-0.2353516-0.8525391-0.3828125
			c-0.1923828-0.1484375-0.2885742-0.3505859-0.2885742-0.6074219c0-0.2539063,0.1083984-0.4619141,0.3256836-0.6240234
			c0.2172852-0.1611328,0.4892578-0.2441406,0.8193359-0.2480469c0.2421875,0,0.4648438,0.0361328,0.6640625,0.109375
			S45.5,80.2167969,45.6367188,80.3388672V80.9804688z"/>
		<path class="st2" d="M45.9296875,80.3583984v-0.3789063h1.3105469v0.3789063l-0.3388672,0.0644531v2.2509766l0.3388672,0.0644531
			v0.3769531h-1.3105469v-0.3769531l0.3388672-0.0644531v-2.2509766L45.9296875,80.3583984z"/>
		<path class="st2" d="M47.4482422,82.7382813l0.2265625-0.0322266l0.9619141-2.7265625h0.6494141l0.9560547,2.7265625
			l0.2255859,0.0322266v0.3769531H49.390625v-0.3769531l0.2197266-0.0390625l-0.1396484-0.4306641h-1.0253906l-0.1386719,0.4306641
			l0.2197266,0.0390625v0.3769531h-1.078125V82.7382813z M48.5957031,81.8056641h0.7255859l-0.3564453-1.1044922h-0.0126953
			L48.5957031,81.8056641z"/>
	</g>
	<ellipse class="st3" cx="31.7196846" cy="74.9196854" rx="1.5316002" ry="1.5185714"/>
	<rect x="38.320034" y="54.693409" class="st2" width="8.1385031" height="4.4068346"/>
	<g>
		<path class="st4" d="M39.1870117,55.5488281v-0.2626953h1.0922852v0.2626953l-0.340332,0.0585938v2.3740234l0.340332,0.0585938
			v0.2607422h-1.0922852v-0.2607422l0.340332-0.0585938v-2.3740234L39.1870117,55.5488281z"/>
		<path class="st4" d="M40.6259766,58.3007813v-0.2792969l0.9960938-1.0976563
			c0.1782227-0.1972656,0.2988281-0.3535156,0.3623047-0.4697266s0.0947266-0.234375,0.0947266-0.3564453
			c0-0.1503906-0.0444336-0.2773438-0.1333008-0.3798828c-0.0893555-0.1025391-0.2070313-0.1542969-0.3530273-0.1542969
			c-0.2104492,0-0.3647461,0.0537109-0.4633789,0.1591797c-0.0991211,0.1064453-0.1484375,0.2568359-0.1484375,0.4521484h-0.3945313
			l-0.0043945-0.0126953c-0.0068359-0.2597656,0.0795898-0.4775391,0.2597656-0.6542969
			c0.1806641-0.1767578,0.4306641-0.2646484,0.7509766-0.2646484c0.2744141,0,0.4926758,0.078125,0.6547852,0.2363281
			s0.2431641,0.359375,0.2431641,0.6035156c0,0.1650391-0.0493164,0.3291016-0.1474609,0.4931641
			s-0.2363281,0.3417969-0.4140625,0.5322266l-0.7998047,0.8632813l0.0039063,0.0097656h1.0795898l0.0336914-0.3457031h0.3486328
			v0.6650391H40.6259766z"/>
		<path class="st4" d="M45.2910156,56.2119141h-0.2900391l-0.0771484-0.4267578
			c-0.0673828-0.0644531-0.1494141-0.1181641-0.2460938-0.1591797c-0.0976563-0.0419922-0.2148438-0.0625-0.3496094-0.0625
			c-0.3164063,0-0.5585938,0.1132813-0.7285156,0.3408203c-0.1699219,0.2265625-0.2548828,0.515625-0.2548828,0.8642578v0.0478516
			c0,0.3486328,0.0830078,0.6376953,0.2495117,0.8662109s0.3969727,0.3427734,0.6928711,0.3427734
			c0.1367188,0,0.2626953-0.0214844,0.375-0.0644531c0.1132813-0.0429688,0.2001953-0.0947266,0.2617188-0.1572266
			l0.0771484-0.4267578h0.2900391v0.5371094c-0.0878906,0.1113281-0.2197266,0.2109375-0.3945313,0.2988281
			c-0.1757813,0.0878906-0.3789063,0.1318359-0.609375,0.1318359c-0.3959961,0-0.7202148-0.1455078-0.9736328-0.4355469
			s-0.3798828-0.6542969-0.3798828-1.0927734v-0.0439453c0-0.4414063,0.1245117-0.8066406,0.3735352-1.0957031
			c0.2495117-0.2890625,0.5756836-0.4335938,0.9799805-0.4335938c0.2304688,0,0.4335938,0.0439453,0.609375,0.1328125
			c0.1748047,0.0888672,0.3066406,0.1894531,0.3945313,0.2998047V56.2119141z"/>
	</g>
	<path class="st5" d="M28.0601654,78.0837631c-0.1226978-0.0001907-0.1870785-0.0002899-0.1870785-0.0002899l-0.0450478-17.8655434
		c0,0-0.0000763-0.0304527-0.0001526-0.0609016c0.0378971,0.0000572,0.0757961,0.0001144,0.0757961,0.0001144l29.0553551,0.0446663
		c0,0,0.0166397,0.0000229,0.0461807,0.0000687c0.0061035,2.4208908,0.0442276,17.5403633,0.0442276,17.5403633
		s0.0004883,0.1930389,0.0009727,0.3860855c-0.0609856-0.0000916-0.1219749-0.0001831-0.1219749-0.0001831
		S30.5440922,78.0875854,28.0601654,78.0837631z"/>
	<line class="st5" x1="35.3068542" y1="60.2106361" x2="35.351902" y2="78.0761795"/>
	<line class="st5" x1="42.4136162" y1="60.0140495" x2="42.4586601" y2="77.8795929"/>
	<line class="st5" x1="49.5445595" y1="60.0140495" x2="49.5896072" y2="77.8795929"/>
	<path class="st1" d="M41.1603241,74.9196854c0,1.2273636-1.0018463,2.2224731-2.2397385,2.2224731
		s-2.2415428-0.9951096-2.2415428-2.2224731s1.0036507-2.2224731,2.2415428-2.2224731S41.1603241,73.6923218,41.1603241,74.9196854z
		"/>
	<ellipse class="st3" cx="38.9196854" cy="74.9196854" rx="1.5316002" ry="1.5185714"/>
	<path class="st1" d="M48.3603249,74.9196854c0,1.2273636-1.0018463,2.2224731-2.2397385,2.2224731
		s-2.2415428-0.9951096-2.2415428-2.2224731s1.0036507-2.2224731,2.2415428-2.2224731S48.3603249,73.6923218,48.3603249,74.9196854z
		"/>
	<ellipse class="st3" cx="46.1196861" cy="74.9196854" rx="1.5316002" ry="1.5185714"/>
	<path class="st1" d="M55.5420456,74.9196854c0,1.2273636-0.9936714,2.2224731-2.2214661,2.2224731
		s-2.2232552-0.9951096-2.2232552-2.2224731s0.9954605-2.2224731,2.2232552-2.2224731S55.5420456,73.6923218,55.5420456,74.9196854z
		"/>
	<ellipse class="st3" cx="53.3196869" cy="74.9196854" rx="1.5316002" ry="1.5185714"/>
	<g>
		<path class="st2" d="M31.6679688,69.4169922c-0.112793,0.3886719-0.2514648,0.671875-0.4155273,0.8496094
			c-0.1645508,0.1767578-0.3676758,0.265625-0.6088867,0.265625c-0.2734375,0-0.4995117-0.1083984-0.6782227-0.3251953
			c-0.1787109-0.2158203-0.2680664-0.4980469-0.2680664-0.8447266c0-0.2363281,0.0458984-0.4462891,0.1381836-0.6318359
			c0.0922852-0.1845703,0.2192383-0.328125,0.3813477-0.4296875s0.3393555-0.1523438,0.53125-0.1523438v0.4560547
			c-0.2104492,0-0.3759766,0.0654297-0.4960938,0.1982422c-0.1206055,0.1318359-0.1806641,0.3193359-0.1806641,0.5595703
			c0,0.2236328,0.0498047,0.3984375,0.1494141,0.5234375c0.0996094,0.1259766,0.2373047,0.1884766,0.4140625,0.1884766
			c0.1416016,0,0.2617188-0.0595703,0.359375-0.1787109s0.1875-0.3212891,0.2685547-0.6074219
			s0.1708984-0.5097656,0.2685547-0.6708984s0.2114258-0.28125,0.3417969-0.359375s0.2836914-0.1171875,0.4599609-0.1171875
			c0.28125,0,0.5063477,0.109375,0.6757813,0.3261719c0.1689453,0.2177734,0.2539063,0.5087891,0.2539063,0.8720703
			c0,0.2363281-0.0458984,0.4570313-0.137207,0.6621094c-0.0913086,0.2041016-0.2163086,0.3623047-0.3754883,0.4736328
			c-0.1586914,0.1113281-0.3388672,0.1660156-0.5410156,0.1660156v-0.4560547c0.2099609,0,0.3754883-0.0761719,0.4970703-0.2294922
			c0.121582-0.1542969,0.1821289-0.359375,0.1821289-0.6162109c0-0.2392578-0.0493164-0.4228516-0.1474609-0.5507813
			c-0.0986328-0.1269531-0.2329102-0.1914063-0.402832-0.1914063s-0.3017578,0.0595703-0.3945313,0.1777344
			S31.7587891,69.1064453,31.6679688,69.4169922z"/>
		<path class="st2" d="M32.1137695,65.0292969c0.3671875,0.0419922,0.6503906,0.1767578,0.8496094,0.4023438
			c0.1992188,0.2265625,0.2993164,0.5263672,0.2993164,0.9013672c0,0.40625-0.1469727,0.7324219-0.440918,0.9775391
			s-0.6875,0.3671875-1.1796875,0.3671875h-0.3339844c-0.3222656,0-0.605957-0.0566406-0.8505859-0.1708984
			s-0.4326172-0.2763672-0.5639648-0.4863281c-0.1308594-0.2089844-0.1962891-0.4521484-0.1962891-0.7275391
			c0-0.3652344,0.1030273-0.6582031,0.3085938-0.8789063s0.4907227-0.3486328,0.8544922-0.3847656v0.4560547
			c-0.2773438,0.0390625-0.4780273,0.1240234-0.6025391,0.2558594s-0.1865234,0.3154297-0.1865234,0.5517578
			c0,0.2900391,0.1083984,0.5175781,0.324707,0.6816406c0.2158203,0.1650391,0.5239258,0.2470703,0.9228516,0.2470703h0.3364258
			c0.3769531,0,0.6767578-0.078125,0.8989258-0.2333984c0.2226563-0.15625,0.3339844-0.375,0.3339844-0.6552734
			c0-0.2519531-0.0576172-0.4453125-0.1728516-0.5800781c-0.1147461-0.1347656-0.3154297-0.2236328-0.6015625-0.2675781V65.0292969z
			"/>
		<path class="st2" d="M32.8408203,63.9541016v-1.6308594h0.3740234v2.0869141h-3.4702148v-0.4560547H32.8408203z"/>
	</g>
	<g>
		<path class="st2" d="M39.0585938,69.4169922c-0.112793,0.3886719-0.2514648,0.671875-0.4155273,0.8496094
			c-0.1645508,0.1767578-0.3676758,0.265625-0.6088867,0.265625c-0.2734375,0-0.4995117-0.1083984-0.6782227-0.3251953
			c-0.1787109-0.2158203-0.2680664-0.4980469-0.2680664-0.8447266c0-0.2363281,0.0458984-0.4462891,0.1381836-0.6318359
			c0.0922852-0.1845703,0.2192383-0.328125,0.3813477-0.4296875s0.3393555-0.1523438,0.53125-0.1523438v0.4560547
			c-0.2104492,0-0.3759766,0.0654297-0.4960938,0.1982422c-0.1206055,0.1318359-0.1806641,0.3193359-0.1806641,0.5595703
			c0,0.2236328,0.0498047,0.3984375,0.1494141,0.5234375c0.0996094,0.1259766,0.2373047,0.1884766,0.4140625,0.1884766
			c0.1416016,0,0.2617188-0.0595703,0.359375-0.1787109s0.1875-0.3212891,0.2685547-0.6074219
			s0.1708984-0.5097656,0.2685547-0.6708984s0.2114258-0.28125,0.3417969-0.359375s0.2836914-0.1171875,0.4599609-0.1171875
			c0.28125,0,0.5063477,0.109375,0.6757813,0.3261719c0.1689453,0.2177734,0.2539063,0.5087891,0.2539063,0.8720703
			c0,0.2363281-0.0458984,0.4570313-0.137207,0.6621094c-0.0913086,0.2041016-0.2163086,0.3623047-0.3754883,0.4736328
			c-0.1586914,0.1113281-0.3388672,0.1660156-0.5410156,0.1660156v-0.4560547c0.2099609,0,0.3754883-0.0761719,0.4970703-0.2294922
			c0.121582-0.1542969,0.1821289-0.359375,0.1821289-0.6162109c0-0.2392578-0.0493164-0.4228516-0.1474609-0.5507813
			c-0.0986328-0.1269531-0.2329102-0.1914063-0.402832-0.1914063s-0.3017578,0.0595703-0.3945313,0.1777344
			S39.1494141,69.1064453,39.0585938,69.4169922z"/>
		<path class="st2" d="M40.6054688,67.5595703h-3.4702148v-0.9707031c0-0.2998047,0.0668945-0.5644531,0.2001953-0.7939453
			c0.1337891-0.2304688,0.3237305-0.4082031,0.5698242-0.5332031s0.5292969-0.1884766,0.8486328-0.1904297h0.2211914
			c0.3276367,0,0.6142578,0.0625,0.8603516,0.1884766c0.246582,0.125,0.4355469,0.3037109,0.5673828,0.5361328
			s0.199707,0.5029297,0.2026367,0.8115234V67.5595703z M37.5097656,67.1054688h2.7216797v-0.4765625
			c0-0.3496094-0.1098633-0.6220703-0.3291016-0.8164063c-0.2197266-0.1943359-0.5322266-0.2919922-0.9375-0.2919922h-0.203125
			c-0.394043,0-0.7006836,0.0917969-0.9194336,0.2753906s-0.3295898,0.4433594-0.3325195,0.7802734V67.1054688z"/>
		<path class="st2" d="M39.6972656,62.4863281v1.4414063l0.9082031,0.3232422V64.71875l-3.4702148-1.3134766v-0.3974609
			l3.4702148-1.3154297v0.4648438L39.6972656,62.4863281z M39.3232422,63.7900391v-1.1689453l-1.6230469,0.5859375
			L39.3232422,63.7900391z"/>
	</g>
	<g>
		<path class="st2" d="M47.1601563,69.2919922l-2.8632813-0.9833984V67.8125l3.4707031,1.2763672v0.4013672l-3.4707031,1.2734375
			v-0.4931641L47.1601563,69.2919922z"/>
		<path class="st2" d="M47.4550781,66.3945313c0-0.15625-0.0478516-0.2919922-0.1425781-0.4091797
			c-0.0957031-0.1162109-0.2148438-0.1806641-0.3574219-0.1933594v-0.4130859
			c0.1474609,0.0078125,0.2880859,0.0576172,0.421875,0.1503906c0.1328125,0.09375,0.2392578,0.2177734,0.3193359,0.3730469
			c0.0791016,0.1552734,0.1191406,0.3193359,0.1191406,0.4921875c0,0.3486328-0.1171875,0.625-0.3515625,0.8310547
			c-0.234375,0.2050781-0.5546875,0.3076172-0.9619141,0.3076172h-0.0742188c-0.2509766,0-0.4736328-0.0449219-0.6689453-0.1367188
			c-0.1953125-0.0908203-0.3476563-0.2226563-0.4550781-0.3935547c-0.1083984-0.1708984-0.1621094-0.3730469-0.1621094-0.6054688
			c0-0.2871094,0.0859375-0.5253906,0.2597656-0.7148438c0.1728516-0.1904297,0.3974609-0.2910156,0.6738281-0.3037109v0.4130859
			c-0.1669922,0.0126953-0.3037109,0.0751953-0.4111328,0.1875c-0.1074219,0.1132813-0.1601563,0.2519531-0.1601563,0.4179688
			c0,0.2216797,0.0800781,0.3935547,0.2412109,0.515625s0.3945313,0.1835938,0.7001953,0.1835938h0.0830078
			c0.296875,0,0.5263672-0.0605469,0.6865234-0.1826172C47.375,66.7929688,47.4550781,66.6201172,47.4550781,66.3945313z"/>
		<path class="st2" d="M47.4550781,63.8613281c0-0.15625-0.0478516-0.2919922-0.1425781-0.4091797
			c-0.0957031-0.1162109-0.2148438-0.1806641-0.3574219-0.1933594v-0.4130859
			c0.1474609,0.0078125,0.2880859,0.0576172,0.421875,0.1503906c0.1328125,0.09375,0.2392578,0.2177734,0.3193359,0.3730469
			c0.0791016,0.1552734,0.1191406,0.3193359,0.1191406,0.4921875c0,0.3486328-0.1171875,0.625-0.3515625,0.8310547
			C47.2294922,64.8974609,46.9091797,65,46.5019531,65h-0.0742188c-0.2509766,0-0.4736328-0.0449219-0.6689453-0.1367188
			c-0.1953125-0.0908203-0.3476563-0.2226563-0.4550781-0.3935547c-0.1083984-0.1708984-0.1621094-0.3730469-0.1621094-0.6054688
			c0-0.2871094,0.0859375-0.5253906,0.2597656-0.7148438c0.1728516-0.1904297,0.3974609-0.2910156,0.6738281-0.3037109v0.4130859
			c-0.1669922,0.0126953-0.3037109,0.0751953-0.4111328,0.1875c-0.1074219,0.1132813-0.1601563,0.2519531-0.1601563,0.4179688
			c0,0.2216797,0.0800781,0.3935547,0.2412109,0.515625s0.3945313,0.1835938,0.7001953,0.1835938h0.0830078
			c0.296875,0,0.5263672-0.0605469,0.6865234-0.1826172C47.375,64.2597656,47.4550781,64.0869141,47.4550781,63.8613281z"/>
	</g>
	<g>
		<path class="st2" d="M54.65625,67.890625c0.1679688,0.1162109,0.2939453,0.2792969,0.3779297,0.4882813
			c0.0830078,0.2080078,0.125,0.4511719,0.125,0.7285156c0,0.2802734-0.0664063,0.5292969-0.1992188,0.7470703
			c-0.1328125,0.2167969-0.3212891,0.3847656-0.5664063,0.5039063c-0.2441406,0.1191406-0.5283203,0.1806641-0.8505859,0.1835938
			h-0.3027344c-0.5224609,0-0.9277344-0.1210938-1.2148438-0.3632813C51.7373047,69.9375,51.59375,69.5976563,51.59375,69.1591797
			c0-0.359375,0.0927734-0.6484375,0.2773438-0.8671875c0.1855469-0.21875,0.4482422-0.3525391,0.7880859-0.4013672v0.453125
			c-0.4609375,0.0859375-0.6914063,0.3564453-0.6914063,0.8134766c0,0.3037109,0.1074219,0.5341797,0.3232422,0.6914063
			c0.2158203,0.15625,0.5273438,0.2353516,0.9365234,0.2373047h0.2832031c0.3896484,0,0.6992188-0.0888672,0.9296875-0.2646484
			c0.2294922-0.1767578,0.3447266-0.4150391,0.3447266-0.7158203c0-0.1708984-0.0195313-0.3193359-0.0576172-0.4472656
			c-0.0380859-0.1269531-0.1015625-0.2324219-0.1923828-0.3164063h-0.7773438v0.796875h-0.3740234V67.890625H54.65625z"/>
		<path class="st2" d="M55.1113281,64.4902344v0.4560547L52.4375,66.6787109h2.6738281v0.4560547h-3.4697266v-0.4560547
			l2.6855469-1.7363281h-2.6855469v-0.4521484H55.1113281z"/>
		<path class="st2" d="M55.1113281,63.6845703h-3.4697266v-0.9707031c0-0.2998047,0.0664063-0.5644531,0.2001953-0.7939453
			c0.1328125-0.2304688,0.3232422-0.4082031,0.5693359-0.5332031s0.5292969-0.1884766,0.8486328-0.1904297h0.2216797
			c0.3271484,0,0.6142578,0.0625,0.8603516,0.1884766c0.2460938,0.125,0.4355469,0.3037109,0.5673828,0.5361328
			s0.1992188,0.5029297,0.2021484,0.8115234V63.6845703z M52.015625,63.2304688h2.7216797v-0.4765625
			c0-0.3496094-0.109375-0.6220703-0.3291016-0.8164063s-0.5322266-0.2919922-0.9375-0.2919922h-0.203125
			c-0.3945313,0-0.7001953,0.0917969-0.9189453,0.2753906s-0.3300781,0.4433594-0.3330078,0.7802734V63.2304688z"/>
	</g>
</g>
<g id="T">
	<g>
		<path class="st2" d="M19.3671875,27.3828125c-0.0424805,0.5864258-0.2587891,1.0483398-0.6499023,1.3857422
			c-0.390625,0.3369141-0.9057617,0.5053711-1.5449219,0.5053711c-0.6992188,0-1.2490234-0.2353516-1.6499023-0.7060547
			s-0.6010742-1.1166992-0.6010742-1.9379883v-0.3334961c0-0.5244141,0.0922852-0.9863281,0.2768555-1.3857422
			c0.1850586-0.3999023,0.4492188-0.7060547,0.7924805-0.9199219c0.3432617-0.2133789,0.7421875-0.3203125,1.1967773-0.3203125
			c0.6293945,0,1.1362305,0.1689453,1.5205078,0.5058594c0.3847656,0.3369141,0.6069336,0.8105469,0.6669922,1.4194336h-1.1240234
			c-0.0273438-0.3520508-0.1254883-0.6074219-0.2939453-0.765625c-0.168457-0.1586914-0.425293-0.237793-0.7695313-0.237793
			c-0.3745117,0-0.6547852,0.1337891-0.8408203,0.4023438s-0.2817383,0.6850586-0.2866211,1.2490234v0.4121094
			c0,0.5893555,0.0893555,1.0200195,0.2675781,1.2924805c0.1787109,0.2719727,0.4599609,0.4082031,0.8447266,0.4082031
			c0.347168,0,0.605957-0.0791016,0.7773438-0.237793c0.1708984-0.1586914,0.269043-0.4038086,0.2939453-0.7358398H19.3671875z"/>
	</g>
	<g>
		<path class="st6" d="M21.0551567,24.2987785c0.25313,0,0.4583302,0.2052002,0.4583302,0.4583302
			s-0.2052002,0.4583302-0.4583302,0.4583302s-0.4583302-0.2052002-0.4583302-0.4583302
			S20.8020267,24.2987785,21.0551567,24.2987785 M21.0551567,23.6987782c-0.5835705,0-1.0583305,0.4747601-1.0583305,1.0583305
			s0.4747601,1.0583305,1.0583305,1.0583305s1.0583305-0.4747601,1.0583305-1.0583305S21.6387272,23.6987782,21.0551567,23.6987782
			L21.0551567,23.6987782z"/>
	</g>
	<path class="st7" d="M9.5134897,22.3365974c0-1.0839138,0.8919268-1.9758415,1.9758415-1.9758415
		s1.9758425,0.8919277,1.9758425,1.9758415c0,0.0013866,0,6.5322819,0,6.5322819s0,0.9611893,0,1.7807865
		c0.7656908,0.5954056,1.256649,1.5258598,1.256649,2.5709839c0,1.8035545-1.4620695,3.265625-3.265625,3.265625
		s-3.265625-1.4620705-3.265625-3.265625c0-1.0751648,0.5195913-2.0289764,1.3229103-2.6219425c0-1.6550426,0-3.3100872,0-4.9651299
		"/>
	<line class="st7" x1="9.5134897" y1="22.3365974" x2="9.513483" y2="25.6335773"/>
	<line class="st7" x1="11.4561977" y1="25.3512268" x2="11.4561977" y2="32.2218132"/>
	<g>
		<path class="st2" d="M11.4561977,32.5331879c0.3795996,0,0.6884298,0.3088303,0.6884298,0.6884308
			s-0.3088303,0.6884308-0.6884298,0.6884308s-0.6884298-0.3088303-0.6884298-0.6884308
			S11.0765982,32.5331879,11.4561977,32.5331879 M11.4561977,31.2331886c-1.0981798,0-1.98843,0.8902512-1.98843,1.98843
			s0.8902502,1.98843,1.98843,1.98843s1.98843-0.8902512,1.98843-1.98843S12.5543776,31.2331886,11.4561977,31.2331886
			L11.4561977,31.2331886z"/>
	</g>
	<line class="st8" x1="8.1017256" y1="28.6429539" x2="6.2252545" y2="28.6429539"/>
	<line class="st8" x1="8.1017256" y1="26.3087635" x2="6.2252545" y2="26.3087635"/>
	<line class="st8" x1="8.1017256" y1="23.9745712" x2="6.2252545" y2="23.9745712"/>
	<line class="st8" x1="8.1017256" y1="27.4758587" x2="4.348784" y2="27.4758587"/>
	<line class="st9" x1="8.1017256" y1="29.810051" x2="4.348784" y2="29.810051"/>
	<line class="st8" x1="8.1017256" y1="25.1416683" x2="4.348784" y2="25.1416683"/>
	<line class="st9" x1="8.1017256" y1="22.807476" x2="4.348784" y2="22.807476"/>
</g>
<g id="H">
	<line class="st10" x1="9.4677696" y1="42.0625" x2="13.4446268" y2="42.0625"/>
	<line class="st10" x1="11.4561977" y1="40" x2="11.4561977" y2="44.0625"/>
	<path class="st7" d="M15.7311897,53.9777031c0,2.3610153-1.9139786,4.2749939-4.274992,4.2749939
		s-4.274991-1.9139786-4.274991-4.2749939c0-2.3610115,3.5949392-7.0814362,4.393815-7.0814362
		C12.4594908,46.8962669,15.7311897,51.6166916,15.7311897,53.9777031z"/>
	<path class="st11" d="M11.4561977,55.8600769c-1.2897129,0-2.3333321-1.0436211-2.3333321-2.3333321"/>
	<g>
		<path class="st2" d="M7.3105469,61.6298828c0-0.1396484,0.046875-0.2548828,0.140625-0.3447266
			c0.0932617-0.0908203,0.2207031-0.1357422,0.3823242-0.1357422c0.1591797,0,0.2856445,0.0449219,0.3803711,0.1357422
			C8.3085938,61.375,8.355957,61.4902344,8.355957,61.6298828c0,0.1425781-0.0478516,0.2587891-0.1435547,0.3486328
			c-0.0957031,0.0908203-0.222168,0.1357422-0.3789063,0.1357422c-0.1572266,0-0.2836914-0.0449219-0.3793945-0.1357422
			C7.3583984,61.8886719,7.3105469,61.7724609,7.3105469,61.6298828z M8.3012695,66.0244141H7.3657227v-3.4912109h0.9355469
			V66.0244141z"/>
		<path class="st2" d="M12.2504883,66.0244141H9.0302734v-0.6386719l1.5195313-1.6201172
			c0.2089844-0.2275391,0.3632813-0.4267578,0.4633789-0.5966797c0.0996094-0.1699219,0.1499023-0.3310547,0.1499023-0.4833984
			c0-0.2089844-0.0527344-0.3730469-0.1582031-0.4921875s-0.2558594-0.1796875-0.4516602-0.1796875
			c-0.2109375,0-0.3769531,0.0732422-0.4985352,0.2177734c-0.121582,0.1455078-0.1821289,0.3369141-0.1821289,0.5732422H8.9370117
			c0-0.2861328,0.0678711-0.5478516,0.2045898-0.7841797s0.3295898-0.421875,0.5791016-0.5566406
			s0.5322266-0.2011719,0.8486328-0.2011719c0.4838867,0,0.8598633,0.1162109,1.1274414,0.3476563
			c0.2680664,0.2324219,0.4018555,0.5605469,0.4018555,0.984375c0,0.2324219-0.0600586,0.46875-0.1806641,0.7099609
			s-0.3271484,0.5214844-0.6196289,0.8417969l-1.0678711,1.1259766h2.0200195V66.0244141z"/>
		<path class="st2" d="M14.3120117,65.3369141c0.171875,0,0.3120117-0.046875,0.4194336-0.1416016
			s0.1635742-0.2207031,0.1674805-0.3779297h0.8745117c-0.0019531,0.2373047-0.0664063,0.4541016-0.1933594,0.6503906
			c-0.1269531,0.1972656-0.3007813,0.3496094-0.5209961,0.4580078c-0.2207031,0.1083984-0.4643555,0.1630859-0.730957,0.1630859
			c-0.4990234,0-0.8925781-0.1582031-1.1806641-0.4755859c-0.2885742-0.3173828-0.4326172-0.7558594-0.4326172-1.3154297v-0.0605469
			c0-0.5380859,0.1430664-0.9667969,0.4291992-1.2880859c0.2861328-0.3203125,0.6787109-0.4804688,1.1777344-0.4804688
			c0.4365234,0,0.7866211,0.1240234,1.0498047,0.3730469c0.2636719,0.2480469,0.3974609,0.5791016,0.4018555,0.9921875h-0.8745117
			c-0.0039063-0.1816406-0.0600586-0.3291016-0.1674805-0.4433594c-0.1074219-0.1132813-0.2495117-0.1699219-0.4257813-0.1699219
			c-0.2172852,0-0.3813477,0.0791016-0.4921875,0.2373047s-0.1660156,0.4150391-0.1660156,0.7705078v0.0976563
			c0,0.359375,0.0546875,0.6181641,0.1645508,0.7753906C13.9213867,65.2587891,14.0883789,65.3369141,14.3120117,65.3369141z"/>
	</g>
	<g>
		<path class="st2" d="M70.5439453,62.4814453h0.2958984l0.0654297,0.3798828h2.671875v-0.4658203l1.1894531,0.046875v0.4121094
			h-0.8310547v2.4453125h0.8359375v0.3916016l-1.1943359,0.0673828v-0.2910156
			c-0.1367188-0.1181641-0.3359375-0.2265625-0.5966797-0.3261719s-0.6152344-0.1542969-1.0644531-0.1630859l-1.0126953-0.0556641
			L70.8398438,65.28125h-0.2958984v-2.4199219V62.4814453z M71.9160156,64.5146484
			c0.3701172,0.0146484,0.6953125,0.0605469,0.9765625,0.1396484c0.2802734,0.0791016,0.5087891,0.1816406,0.6845703,0.3056641
			v-1.6396484h-2.671875v1.140625L71.9160156,64.5146484z"/>
		<path class="st2" d="M73.9355469,60.3789063c-0.0683594,0.0136719-0.1298828,0.0244141-0.1835938,0.0322266
			c-0.0546875,0.0078125-0.109375,0.0136719-0.1630859,0.0166016c0.1132813,0.0888672,0.2070313,0.1992188,0.2822266,0.3320313
			c0.0761719,0.1328125,0.1132813,0.2744141,0.1132813,0.4248047c0,0.2626953-0.0644531,0.4619141-0.1923828,0.5986328
			s-0.3085938,0.2050781-0.5410156,0.2050781c-0.2392578,0-0.4238281-0.0966797-0.5537109-0.2900391
			c-0.1289063-0.1933594-0.1943359-0.4580078-0.1943359-0.7949219v-0.4736328h-0.2929688
			c-0.1474609,0-0.2646484,0.046875-0.3505859,0.1396484c-0.0859375,0.09375-0.1298828,0.2236328-0.1298828,0.3896484
			c0,0.1142578,0.015625,0.2158203,0.0449219,0.3037109s0.0693359,0.1591797,0.1210938,0.2128906l0.265625,0.0488281v0.3544922
			H71.671875c-0.0917969-0.1152344-0.1650391-0.2539063-0.2207031-0.4169922
			c-0.0546875-0.1630859-0.0820313-0.3398438-0.0820313-0.53125c0-0.2851563,0.0722656-0.5166016,0.21875-0.6943359
			c0.1455078-0.1767578,0.3544922-0.2646484,0.6259766-0.2646484h1.2138672c0.0322266,0,0.0644531-0.0009766,0.0957031-0.0019531
			c0.03125,0,0.0615234-0.0019531,0.0927734-0.0058594l0.0253906-0.1855469h0.2939453V60.3789063z M73.6005859,61.1171875
			c0-0.1523438-0.0371094-0.2910156-0.1103516-0.4169922c-0.0722656-0.1259766-0.1601563-0.2158203-0.2626953-0.2705078H72.8125
			v0.4892578c0,0.1884766,0.0439453,0.3369141,0.1308594,0.4462891s0.1923828,0.1640625,0.3164063,0.1640625
			c0.1103516,0,0.1943359-0.0341797,0.2529297-0.1025391S73.6005859,61.2558594,73.6005859,61.1171875z"/>
		<path class="st2" d="M71.4150391,57.0742188h0.75v0.3935547l-0.3935547,0.0351563v0.5400391h1.8056641l0.0644531-0.3798828
			h0.2939453v1.2177734h-0.2939453l-0.0644531-0.3789063h-1.8056641v0.53125l0.3935547,0.0341797v0.3916016h-0.75V57.0742188z"/>
		<path class="st2" d="M71.4130859,55.5087891h0.2939453l0.0644531,0.3789063h0.3818359
			c0.2021484,0,0.3505859-0.0429688,0.4453125-0.1289063s0.1416016-0.2148438,0.1416016-0.3857422
			c0-0.1025391-0.0048828-0.2001953-0.0166016-0.2929688c-0.0117188-0.09375-0.0292969-0.1855469-0.0527344-0.2773438h-0.8945313
			l-0.0654297,0.3798828h-0.2958984v-1.21875h0.2958984l0.0654297,0.3798828h1.8007813l0.0644531-0.3798828h0.2939453v1.21875
			h-0.2939453l-0.0644531-0.3798828h-0.5410156c0.0234375,0.0898438,0.0410156,0.1816406,0.0517578,0.2744141
			c0.0107422,0.09375,0.0166016,0.1923828,0.0166016,0.2958984c0,0.3046875-0.0800781,0.5429688-0.2402344,0.7148438
			c-0.1601563,0.1728516-0.3964844,0.2587891-0.7109375,0.2587891h-0.3818359l-0.0644531,0.3798828h-0.2939453v-0.8388672
			V55.5087891z"/>
		<path class="st2" d="M71.4150391,52.2802734h0.2958984l0.0654297,0.3789063h1.4228516l0.0048828-0.0136719l-1.7890625-1.1113281
			v-0.4580078v-0.3798828h0.2958984l0.0654297,0.3798828h1.8007813l0.0644531-0.3798828h0.2939453v1.2177734h-0.2939453
			l-0.0644531-0.3798828h-1.4257813l-0.0048828,0.0146484l1.7890625,1.1103516v0.8369141h-0.2939453l-0.0644531-0.3798828
			h-1.8007813l-0.0654297,0.3798828h-0.2958984v-0.8369141V52.2802734z"/>
		<path class="st2" d="M71.7109375,50.2451172h-0.2958984v-1.21875h0.2958984l0.0654297,0.3798828h0.703125v-0.2421875
			l-0.7050781-0.5263672c-0.1318359-0.0947266-0.2324219-0.1875-0.3007813-0.2783203s-0.1025391-0.1933594-0.1025391-0.3066406
			c0-0.0712891,0.0087891-0.1298828,0.0273438-0.1767578c0.0175781-0.046875,0.0449219-0.0996094,0.0820313-0.1582031
			l0.3125,0.0654297c-0.0107422,0.0664063-0.0175781,0.1044922-0.0185547,0.1152344
			c-0.0019531,0.0097656-0.0029297,0.0302734-0.0029297,0.0615234c0,0.0576172,0.0214844,0.1132813,0.0634766,0.1689453
			c0.0419922,0.0546875,0.0917969,0.1035156,0.1484375,0.1455078l0.6318359,0.4863281l0.96875-0.7939453l0.0576172-0.3232422
			h0.2939453v0.6123047l-1.0693359,0.8525391V49.40625h0.7109375l0.0644531-0.3798828h0.2939453v1.21875h-0.2939453
			l-0.0644531-0.3798828h-1.8007813L71.7109375,50.2451172z"/>
		<path class="st2" d="M71.4150391,44.7431641c0-0.3320313,0.0585938-0.5908203,0.1738281-0.7739258
			c0.1162109-0.1831055,0.2890625-0.2749023,0.5205078-0.2749023c0.1181641,0,0.2236328,0.0356445,0.3154297,0.1074219
			c0.0927734,0.0712891,0.1630859,0.1723633,0.2109375,0.3027344c0.0390625-0.1567383,0.1113281-0.2797852,0.2177734-0.3681641
			s0.2285156-0.1328125,0.3642578-0.1328125c0.2363281,0,0.4150391,0.0859375,0.5361328,0.2573242
			c0.1210938,0.1723633,0.1816406,0.4125977,0.1816406,0.7211914v1.5332031h-0.2939453l-0.0644531-0.3798828h-1.8007813
			l-0.0654297,0.3798828h-0.2958984v-0.3798828V44.7431641z M72.4794922,45.2763672v-0.5351563
			c0-0.1943359-0.0283203-0.3408203-0.0859375-0.4394531s-0.1445313-0.1484375-0.2607422-0.1484375
			c-0.1191406,0-0.2099609,0.0498047-0.2705078,0.1484375s-0.0908203,0.2460938-0.0908203,0.4414063v0.5332031H72.4794922z
			 M72.8320313,45.2763672h0.7490234v-0.6943359c0-0.1708984-0.0322266-0.2998047-0.0957031-0.3867188
			c-0.0644531-0.0869141-0.1572266-0.1298828-0.2792969-0.1298828c-0.1191406,0-0.2119141,0.0429688-0.2763672,0.1298828
			c-0.0654297,0.0869141-0.0976563,0.2158203-0.0976563,0.3867188V45.2763672z"/>
		<path class="st2" d="M71.7783203,42.2177734h0.7128906c0.4970703,0,0.8623047,0.0654297,1.0947266,0.1967773
			c0.2333984,0.1313477,0.3496094,0.355957,0.3496094,0.6743164v0.1303711l-0.3916016-0.0068359l-0.0019531-0.0957031
			c0-0.1645508-0.0800781-0.2792969-0.2402344-0.34375c-0.1591797-0.0644531-0.4296875-0.0966797-0.8105469-0.0966797h-0.7148438
			l-0.0654297,0.3798828h-0.2958984v-2.1523438v-0.3793945h0.2958984l0.0654297,0.3793945h1.8007813l0.0644531-0.3793945h0.2939453
			v1.2182617h-0.2939453l-0.0644531-0.3798828h-1.7988281V42.2177734z"/>
		<path class="st2" d="M73.9355469,38.4633789c-0.0683594,0.0136719-0.1298828,0.0249023-0.1835938,0.0327148
			c-0.0546875,0.0078125-0.109375,0.0131836-0.1630859,0.0161133c0.1132813,0.0883789,0.2070313,0.1992188,0.2822266,0.3320313
			c0.0761719,0.1328125,0.1132813,0.2744141,0.1132813,0.4248047c0,0.2626953-0.0644531,0.4619141-0.1923828,0.5986328
			s-0.3085938,0.2050781-0.5410156,0.2050781c-0.2392578,0-0.4238281-0.0966797-0.5537109-0.2900391
			c-0.1289063-0.1933594-0.1943359-0.4584961-0.1943359-0.7954102v-0.4726563h-0.2929688
			c-0.1474609,0-0.2646484,0.0463867-0.3505859,0.1396484s-0.1298828,0.2226563-0.1298828,0.3891602
			c0,0.1147461,0.015625,0.2158203,0.0449219,0.3037109s0.0693359,0.1586914,0.1210938,0.2133789l0.265625,0.0488281v0.3540039
			H71.671875c-0.0917969-0.1152344-0.1650391-0.2539063-0.2207031-0.4169922
			c-0.0546875-0.1630859-0.0820313-0.340332-0.0820313-0.53125c0-0.2856445,0.0722656-0.5170898,0.21875-0.6938477
			c0.1455078-0.1772461,0.3544922-0.265625,0.6259766-0.265625h1.2138672c0.0322266,0,0.0644531-0.0004883,0.0957031-0.0009766
			c0.03125-0.0009766,0.0615234-0.0029297,0.0927734-0.0058594l0.0253906-0.1865234h0.2939453V38.4633789z M73.6005859,39.2016602
			c0-0.1523438-0.0371094-0.2910156-0.1103516-0.4169922c-0.0722656-0.1254883-0.1601563-0.2158203-0.2626953-0.2700195H72.8125
			v0.4887695c0,0.1879883,0.0439453,0.3369141,0.1308594,0.4462891s0.1923828,0.1640625,0.3164063,0.1640625
			c0.1103516,0,0.1943359-0.0341797,0.2529297-0.1025391S73.6005859,39.3398438,73.6005859,39.2016602z"/>
		<path class="st2" d="M72.8662109,36.2412109l1.0693359,0.6518555v0.7036133h-0.2939453l-0.0507813-0.3588867l-0.9736328-0.6542969
			l-0.6337891,0.4213867c-0.0664063,0.0454102-0.1181641,0.0927734-0.1552734,0.1435547
			c-0.0380859,0.050293-0.0566406,0.1074219-0.0566406,0.1708984c0,0.0327148,0.0009766,0.0537109,0.0029297,0.0629883
			c0.0009766,0.0092773,0.0078125,0.0473633,0.0185547,0.1142578l-0.3125,0.0649414
			c-0.0371094-0.0571289-0.0644531-0.109375-0.0820313-0.1557617c-0.0185547-0.046875-0.0273438-0.1064453-0.0273438-0.1791992
			c0-0.1166992,0.0351563-0.2236328,0.1044922-0.3203125c0.0703125-0.097168,0.1699219-0.1845703,0.2988281-0.262207
			l0.7050781-0.4355469v-0.2773438h-0.703125l-0.0654297,0.3798828h-0.2958984v-0.3798828v-0.8383789h0.2958984l0.0654297,0.3798828
			h0.703125V35.171875l-0.7050781-0.4355469c-0.1289063-0.0756836-0.2285156-0.1625977-0.2988281-0.2592773
			c-0.0693359-0.097168-0.1044922-0.2055664-0.1044922-0.3251953c0-0.0712891,0.0097656-0.1308594,0.0283203-0.1782227
			s0.0458984-0.0986328,0.0810547-0.1547852l0.3125,0.0629883c-0.0107422,0.0668945-0.0175781,0.1049805-0.0185547,0.1152344
			c-0.0019531,0.0102539-0.0029297,0.0307617-0.0029297,0.0615234c0,0.0654297,0.0185547,0.1235352,0.0566406,0.1748047
			c0.0371094,0.0512695,0.0888672,0.0976563,0.1552734,0.1396484l0.6523438,0.4355469l0.9550781-0.6450195l0.0507813-0.3564453
			h0.2939453v0.7036133l-1.0693359,0.6542969v0.3076172h0.7109375l0.0644531-0.3798828h0.2939453v1.2182617h-0.2939453
			l-0.0644531-0.3798828h-0.7109375V36.2412109z"/>
		<path class="st2" d="M71.7109375,33.4365234h-0.2958984V32.21875h0.2958984l0.0654297,0.3793945h0.7294922v-1.1201172h-0.7294922
			l-0.0654297,0.3793945h-0.2958984v-0.3793945v-0.4614258V30.637207h0.2958984l0.0654297,0.3793945h1.8007813l0.0644531-0.3793945
			h0.2939453v1.2202148h-0.2939453l-0.0644531-0.3793945h-0.7128906v1.1201172h0.7128906l0.0644531-0.3793945h0.2939453v1.2177734
			h-0.2939453l-0.0644531-0.3793945h-1.8007813L71.7109375,33.4365234z"/>
		<path class="st2" d="M72.6523438,30.2041016c-0.3730469,0-0.6796875-0.1010742-0.9208984-0.3027344
			c-0.2421875-0.2021484-0.3623047-0.4760742-0.3623047-0.8222656c0-0.3481445,0.1201172-0.6230469,0.3603516-0.8256836
			c0.2412109-0.2026367,0.5488281-0.3041992,0.9228516-0.3041992h0.0507813c0.3759766,0,0.6835938,0.1010742,0.9228516,0.3027344
			c0.2392578,0.2021484,0.3583984,0.4760742,0.3583984,0.8222656c0,0.3496094-0.1201172,0.625-0.359375,0.8271484
			c-0.2402344,0.2016602-0.546875,0.3027344-0.921875,0.3027344H72.6523438z M72.703125,29.7451172
			c0.2675781,0,0.4882813-0.0561523,0.6621094-0.1689453c0.1738281-0.1123047,0.2607422-0.2797852,0.2607422-0.5019531
			c0-0.2172852-0.0869141-0.3828125-0.2607422-0.4960938s-0.3945313-0.1699219-0.6621094-0.1699219h-0.0507813
			c-0.2636719,0-0.4833984,0.0566406-0.6591797,0.1699219s-0.2636719,0.2802734-0.2636719,0.5009766
			c0,0.2202148,0.0878906,0.3867188,0.2636719,0.4985352s0.3955078,0.1674805,0.6591797,0.1674805H72.703125z"/>
		<path class="st2" d="M73.6259766,26.3979492c0-0.1518555-0.046875-0.2861328-0.140625-0.4018555
			c-0.0947266-0.1152344-0.2099609-0.1733398-0.3466797-0.1733398v-0.4121094l0.0146484-0.0048828
			c0.2167969-0.0078125,0.4101563,0.0888672,0.578125,0.2900391c0.1689453,0.2011719,0.2529297,0.4350586,0.2529297,0.7021484
			c0,0.3666992-0.1191406,0.6464844-0.3583984,0.8398438s-0.5400391,0.2900391-0.9013672,0.2900391h-0.0976563
			c-0.359375,0-0.6582031-0.097168-0.8984375-0.2915039c-0.2392578-0.1938477-0.359375-0.4731445-0.359375-0.8383789
			c0-0.2016602,0.0332031-0.3828125,0.0996094-0.5439453c0.0673828-0.1606445,0.1582031-0.293457,0.2753906-0.3994141
			l0.5585938-0.0209961v0.3657227l-0.3955078,0.1000977c-0.0527344,0.0546875-0.0957031,0.1245117-0.1289063,0.2099609
			c-0.0322266,0.0854492-0.0488281,0.1816406-0.0488281,0.2885742c0,0.2407227,0.0869141,0.4125977,0.2597656,0.5161133
			c0.1738281,0.1030273,0.3857422,0.1547852,0.6376953,0.1547852h0.0976563c0.2578125,0,0.4726563-0.0512695,0.6435547-0.1538086
			C73.5400391,26.8125,73.6259766,26.6401367,73.6259766,26.3979492z"/>
		<path class="st2" d="M71.4150391,22.5991211h0.75v0.394043l-0.3935547,0.034668v0.5405273h1.8056641l0.0644531-0.3798828
			h0.2939453v1.2182617h-0.2939453l-0.0644531-0.3798828h-1.8056641v0.53125l0.3935547,0.0351563v0.3911133h-0.75V22.5991211z"/>
		<path class="st2" d="M71.4150391,20.9619141h0.2958984l0.0654297,0.3798828h1.4228516l0.0048828-0.0141602l-1.7890625-1.1108398
			v-0.4589844V19.378418h0.2958984l0.0654297,0.3793945h1.8007813l0.0644531-0.3793945h0.2939453v1.2177734h-0.2939453
			l-0.0644531-0.3793945h-1.4257813l-0.0048828,0.0141602l1.7890625,1.1108398v0.8359375h-0.2939453l-0.0644531-0.3793945
			h-1.8007813l-0.0654297,0.3793945h-0.2958984v-0.8359375V20.9619141z"/>
		<path class="st2" d="M77.1386719,59.7294922h0.2958984L77.5,60.1083984h1.4228516l0.0048828-0.0136719l-1.7890625-1.1113281
			v-0.4580078v-0.3798828h0.2958984L77.5,58.5253906h1.8007813l0.0644531-0.3798828h0.2939453v1.2177734h-0.2939453
			l-0.0644531-0.3798828H77.875l-0.0048828,0.0146484l1.7890625,1.1103516v0.8369141h-0.2939453l-0.0644531-0.3798828H77.5
			l-0.0654297,0.3798828h-0.2958984v-0.8369141V59.7294922z"/>
		<path class="st2" d="M77.1386719,54.1679688h0.75v0.3935547l-0.3935547,0.0351563v0.5400391h1.8056641l0.0644531-0.3798828
			h0.2939453v1.2177734h-0.2939453l-0.0644531-0.3789063h-1.8056641v0.53125l0.3935547,0.0341797v0.3916016h-0.75V54.1679688z"/>
		<path class="st2" d="M79.7080078,52.8007813c0,0.3505859-0.1171875,0.6298828-0.3505859,0.8369141
			s-0.5371094,0.3105469-0.9091797,0.3105469h-0.1025391c-0.3583984,0-0.6572266-0.1064453-0.8955078-0.3203125
			c-0.2382813-0.2128906-0.3574219-0.4658203-0.3574219-0.7578125c0-0.3388672,0.1025391-0.5947266,0.3076172-0.7695313
			c0.2041016-0.1748047,0.4775391-0.2617188,0.8193359-0.2617188h0.2861328v1.6347656l0.0117188,0.0068359
			c0.2421875-0.0048828,0.4414063-0.0664063,0.5976563-0.1835938c0.15625-0.1181641,0.234375-0.2841797,0.234375-0.4960938
			c0-0.1552734-0.0224609-0.2919922-0.0664063-0.4091797s-0.1054688-0.21875-0.1826172-0.3037109l0.2978516-0.1796875
			c0.0869141,0.0898438,0.1601563,0.2089844,0.2197266,0.3574219S79.7080078,52.5917969,79.7080078,52.8007813z
			 M77.453125,52.8701172c0,0.1542969,0.0654297,0.2851563,0.1953125,0.3935547
			c0.1289063,0.1083984,0.2919922,0.1757813,0.4873047,0.2001953l0.0117188-0.0048828V52.296875h-0.0605469
			c-0.1796875,0-0.3310547,0.0488281-0.4521484,0.1445313C77.5136719,52.5380859,77.453125,52.6806641,77.453125,52.8701172z"/>
		<path class="st2" d="M79.0585938,49.5771484V49.5625l-1.9199219-0.8222656v-0.5751953v-0.3789063h0.2958984L77.5,48.1650391
			h1.8007813l0.0644531-0.3789063h0.2939453v1.2177734h-0.2939453l-0.0644531-0.3798828h-1.390625l-0.0048828,0.0136719
			l1.7539063,0.7734375v0.3173828l-1.7910156,0.7871094l0.0048828,0.0136719h1.4277344l0.0644531-0.3798828h0.2939453v1.21875
			h-0.2939453l-0.0644531-0.3798828H77.5l-0.0654297,0.3798828h-0.2958984v-0.3798828v-0.5917969L79.0585938,49.5771484z"/>
		<path class="st2" d="M79.3652344,47.3525391l-0.0644531-0.3798828H77.5l-0.0654297,0.3798828h-0.2958984v-2.7998047h0.2958984
			L77.5,44.9326172h1.8007813l0.0644531-0.3798828h0.2939453v1.2177734h-0.2939453l-0.0644531-0.3798828h-1.7988281v1.1230469
			h1.7988281l0.0644531-0.3798828h0.2939453v1.21875H79.3652344z"/>
		<path class="st2" d="M79.7080078,42.9682617c0,0.3510742-0.1171875,0.6298828-0.3505859,0.8374023
			c-0.2333984,0.2070313-0.5371094,0.3115234-0.9091797,0.3115234h-0.1025391c-0.3583984,0-0.6572266-0.1074219-0.8955078-0.3208008
			s-0.3574219-0.4663086-0.3574219-0.7583008c0-0.3383789,0.1025391-0.5952148,0.3076172-0.7695313
			c0.2041016-0.1748047,0.4775391-0.262207,0.8193359-0.262207h0.2861328v1.6352539l0.0117188,0.0068359
			c0.2421875-0.0048828,0.4414063-0.065918,0.5976563-0.184082s0.234375-0.2832031,0.234375-0.4960938
			c0-0.1552734-0.0224609-0.2915039-0.0664063-0.4086914s-0.1054688-0.21875-0.1826172-0.3041992l0.2978516-0.1791992
			c0.0869141,0.090332,0.1601563,0.2094727,0.2197266,0.3574219C79.6777344,42.5820313,79.7080078,42.7602539,79.7080078,42.9682617
			z M77.453125,43.0380859c0,0.1538086,0.0654297,0.2851563,0.1953125,0.3935547
			c0.1289063,0.1088867,0.2919922,0.1757813,0.4873047,0.2006836l0.0117188-0.0048828V42.465332h-0.0605469
			c-0.1796875,0-0.3310547,0.0478516-0.4521484,0.1445313C77.5136719,42.7060547,77.453125,42.8486328,77.453125,43.0380859z"/>
		<path class="st2" d="M80.3320313,41.6103516l-0.0654297-0.3798828H77.5l-0.0654297,0.3798828h-0.2958984v-0.7734375
			l0.3076172-0.0419922c-0.1142578-0.0834961-0.2021484-0.1855469-0.2626953-0.3061523
			c-0.0605469-0.1201172-0.0908203-0.2597656-0.0908203-0.4179688c0-0.3120117,0.1240234-0.5546875,0.3710938-0.7280273
			c0.2480469-0.1728516,0.5751953-0.2597656,0.9814453-0.2597656h0.0498047c0.3632813,0,0.65625,0.0874023,0.8789063,0.2612305
			s0.3339844,0.4135742,0.3339844,0.7197266c0,0.1552734-0.0263672,0.2915039-0.078125,0.4086914
			s-0.1289063,0.2167969-0.2314453,0.2993164h0.8681641l0.0654297-0.3798828h0.2958984v1.2182617H80.3320313z
			 M78.4453125,39.5444336c-0.2871094,0-0.5224609,0.0556641-0.7050781,0.1674805
			c-0.1835938,0.1118164-0.2753906,0.2783203-0.2753906,0.4985352c0,0.1303711,0.0302734,0.2421875,0.0888672,0.3354492
			s0.1396484,0.168457,0.2421875,0.2260742h1.2275391c0.1035156-0.0576172,0.1845703-0.1323242,0.2412109-0.2250977
			c0.0566406-0.0922852,0.0849609-0.2060547,0.0849609-0.3408203c0-0.2177734-0.0791016-0.3823242-0.2373047-0.4941406
			c-0.1591797-0.1118164-0.3642578-0.1674805-0.6171875-0.1674805H78.4453125z"/>
		<path class="st2" d="M79.6591797,37.0219727c-0.0683594,0.0136719-0.1298828,0.0249023-0.1835938,0.0327148
			c-0.0546875,0.0078125-0.109375,0.0131836-0.1630859,0.0161133c0.1132813,0.0883789,0.2070313,0.1992188,0.2822266,0.3320313
			c0.0761719,0.1328125,0.1132813,0.2744141,0.1132813,0.4248047c0,0.2626953-0.0644531,0.4619141-0.1923828,0.5986328
			s-0.3085938,0.2050781-0.5410156,0.2050781c-0.2392578,0-0.4238281-0.0966797-0.5537109-0.2900391
			c-0.1289063-0.1933594-0.1943359-0.4584961-0.1943359-0.7954102v-0.4726563h-0.2929688
			c-0.1474609,0-0.2646484,0.0463867-0.3505859,0.1396484s-0.1298828,0.2226563-0.1298828,0.3891602
			c0,0.1147461,0.015625,0.2158203,0.0449219,0.3037109s0.0693359,0.1586914,0.1210938,0.2133789l0.265625,0.0488281v0.3540039
			h-0.4892578c-0.0917969-0.1152344-0.1650391-0.2539063-0.2207031-0.4169922
			c-0.0546875-0.1630859-0.0820313-0.340332-0.0820313-0.53125c0-0.2856445,0.0722656-0.5170898,0.21875-0.6938477
			c0.1455078-0.1772461,0.3544922-0.265625,0.6259766-0.265625h1.2138672c0.0322266,0,0.0644531-0.0004883,0.0957031-0.0009766
			c0.03125-0.0009766,0.0615234-0.0029297,0.0927734-0.0058594l0.0253906-0.1865234h0.2939453V37.0219727z M79.3242188,37.7602539
			c0-0.1523438-0.0371094-0.2910156-0.1103516-0.4169922c-0.0722656-0.1254883-0.1601563-0.2158203-0.2626953-0.2700195h-0.4150391
			v0.4887695c0,0.1879883,0.0439453,0.3369141,0.1308594,0.4462891s0.1923828,0.1640625,0.3164063,0.1640625
			c0.1103516,0,0.1943359-0.0341797,0.2529297-0.1025391S79.3242188,37.8984375,79.3242188,37.7602539z"/>
		<path class="st2" d="M77.1386719,33.7163086h0.75v0.394043l-0.3935547,0.034668v0.5405273h1.8056641l0.0644531-0.3798828
			h0.2939453v1.2182617h-0.2939453l-0.0644531-0.3798828h-1.8056641v0.53125l0.3935547,0.0351563v0.3911133h-0.75V33.7163086z"/>
		<path class="st2" d="M77.4345703,30.8935547l0.0351563,0.2260742l2.5761719,0.9594727
			c0.1689453,0.0634766,0.3164063,0.1552734,0.4423828,0.2749023s0.1884766,0.2802734,0.1884766,0.4819336
			c0,0.0356445-0.0039063,0.0825195-0.0126953,0.1396484c-0.0087891,0.0576172-0.0166016,0.1020508-0.0244141,0.1328125
			l-0.3613281-0.0463867c-0.0009766,0.0092773,0-0.0185547,0.0048828-0.0830078
			c0.0048828-0.0639648,0.0068359-0.1049805,0.0068359-0.1220703c0-0.0976563-0.0419922-0.1772461-0.1269531-0.237793
			c-0.0839844-0.0605469-0.1816406-0.1132813-0.2919922-0.1582031l-0.2607422-0.109375l-2.1386719,0.831543l-0.0371094,0.2304688
			h-0.2958984v-1.0175781h0.2958984l0.046875,0.2836914l1.2441406-0.4350586l0.3212891-0.0839844v-0.0141602l-1.5654297-0.5239258
			l-0.046875,0.2866211h-0.2958984v-1.015625H77.4345703z"/>
		<path class="st2" d="M80.3320313,30.637207l-0.0654297-0.3798828H77.5l-0.0654297,0.3798828h-0.2958984v-0.7734375
			l0.3076172-0.0419922c-0.1142578-0.0834961-0.2021484-0.1855469-0.2626953-0.3061523
			c-0.0605469-0.1201172-0.0908203-0.2597656-0.0908203-0.4179688c0-0.3120117,0.1240234-0.5546875,0.3710938-0.7280273
			c0.2480469-0.1728516,0.5751953-0.2597656,0.9814453-0.2597656h0.0498047c0.3632813,0,0.65625,0.0874023,0.8789063,0.2612305
			s0.3339844,0.4135742,0.3339844,0.7197266c0,0.1552734-0.0263672,0.2915039-0.078125,0.4086914
			s-0.1289063,0.2167969-0.2314453,0.2993164h0.8681641l0.0654297-0.3798828h0.2958984v1.2182617H80.3320313z
			 M78.4453125,28.5712891c-0.2871094,0-0.5224609,0.0556641-0.7050781,0.1674805
			c-0.1835938,0.1118164-0.2753906,0.2783203-0.2753906,0.4985352c0,0.1303711,0.0302734,0.2421875,0.0888672,0.3354492
			s0.1396484,0.168457,0.2421875,0.2260742h1.2275391c0.1035156-0.0576172,0.1845703-0.1323242,0.2412109-0.2250977
			c0.0566406-0.0922852,0.0849609-0.2060547,0.0849609-0.3408203c0-0.2177734-0.0791016-0.3823242-0.2373047-0.4941406
			c-0.1591797-0.1118164-0.3642578-0.1674805-0.6171875-0.1674805H78.4453125z"/>
		<path class="st2" d="M79.3652344,25.2148438l-0.0644531-0.3793945H77.5l-0.0654297,0.3793945h-0.2958984v-0.8383789h2.1621094
			l0.0644531-0.3798828h0.2939453v1.2182617H79.3652344z M77.1386719,26.8359375h0.8671875v-0.6240234
			c0-0.2983398,0.0751953-0.5302734,0.2265625-0.6962891c0.1513672-0.1665039,0.3486328-0.2495117,0.5908203-0.2495117
			c0.2431641,0,0.4443359,0.0834961,0.6005859,0.2504883c0.1572266,0.1669922,0.2353516,0.3984375,0.2353516,0.6953125v1.4624023
			h-0.2939453l-0.0644531-0.3793945H77.5l-0.0654297,0.3793945h-0.2958984v-0.3793945V26.8359375z M77.1386719,26.456543h0.2958984
			L77.5,26.8359375h-0.3613281V26.456543z M78.3642578,26.8359375h0.9365234v-0.6240234
			c0-0.1660156-0.0439453-0.2885742-0.1318359-0.3671875c-0.0878906-0.078125-0.1972656-0.1171875-0.3300781-0.1171875
			c-0.1269531,0-0.2382813,0.0395508-0.3330078,0.1186523s-0.1416016,0.2011719-0.1416016,0.3657227V26.8359375z"/>
	</g>
</g>
<g>
	<g id="XMLID_24_">
		<g>
			<rect x="60.9882469" y="71.4521866" class="st12" width="4.2572474" height="3.4358907"/>
		</g>
		<g>
		</g>
	</g>
	<g id="XMLID_23_">
		<g>
			<rect x="60.9475327" y="64.3237381" class="st12" width="4.2572474" height="3.4358907"/>
		</g>
		<g>
		</g>
	</g>
	<g id="XMLID_22_">
		<g>
			<rect x="61.298027" y="66.9931641" class="st13" width="3.6075966" height="5.1633434"/>
		</g>
		<g>
		</g>
	</g>
	<g>
		<path class="st14" d="M63.6455078,70.5146484v0.6962891h-0.1308594v-0.2675781h-0.8632813v0.2675781h-0.1171875
			c0-0.0361328-0.0029297-0.0751953-0.0087891-0.1162109C62.5195313,71.0527344,62.5107422,71.0214844,62.4990234,71
			c-0.0146484-0.0263672-0.0332031-0.046875-0.0546875-0.0625c-0.0224609-0.015625-0.0527344-0.0244141-0.0898438-0.0263672
			v-0.1337891h1.1601563v-0.2626953H63.6455078z"/>
		<path class="st14" d="M63.0019531,69.4941406c0.2304688,0,0.4003906,0.0361328,0.5087891,0.1083984
			c0.1074219,0.0722656,0.1621094,0.1845703,0.1621094,0.3369141c0,0.1542969-0.0546875,0.2675781-0.1640625,0.3388672
			c-0.1103516,0.0712891-0.2783203,0.1064453-0.5048828,0.1064453c-0.2294922,0-0.3984375-0.0361328-0.5068359-0.1083984
			c-0.109375-0.0712891-0.1640625-0.1835938-0.1640625-0.3369141c0-0.1542969,0.0556641-0.2666016,0.1660156-0.3378906
			C62.6103516,69.5302734,62.7773438,69.4941406,63.0019531,69.4941406z M63.3945313,69.7216797
			c-0.046875-0.0205078-0.1015625-0.0341797-0.1650391-0.0410156s-0.1386719-0.0107422-0.2275391-0.0107422
			c-0.0878906,0-0.1640625,0.0039063-0.2285156,0.0107422s-0.1191406,0.0214844-0.1640625,0.0419922
			c-0.0439453,0.0205078-0.078125,0.0478516-0.1005859,0.0830078c-0.0224609,0.0341797-0.0332031,0.0791016-0.0332031,0.1337891
			s0.0107422,0.0996094,0.0332031,0.1347656s0.0566406,0.0634766,0.1025391,0.0839844
			c0.0419922,0.0195313,0.0976563,0.0332031,0.1669922,0.0400391c0.0683594,0.0078125,0.1435547,0.0107422,0.2255859,0.0107422
			c0.0898438,0,0.1650391-0.0029297,0.2255859-0.0087891c0.0605469-0.0068359,0.1142578-0.0205078,0.1621094-0.0410156
			c0.0449219-0.0185547,0.0791016-0.0458984,0.1025391-0.0810547c0.0244141-0.0341797,0.0361328-0.0810547,0.0361328-0.1386719
			c0-0.0537109-0.0117188-0.0986328-0.0341797-0.1347656C63.4736328,69.7695313,63.4394531,69.7412109,63.3945313,69.7216797z"/>
		<path class="st14" d="M63.0019531,68.5458984c0.2304688,0,0.4003906,0.0361328,0.5087891,0.1083984
			c0.1074219,0.0722656,0.1621094,0.1845703,0.1621094,0.3369141c0,0.1542969-0.0546875,0.2666016-0.1640625,0.3378906
			c-0.1103516,0.0712891-0.2783203,0.1064453-0.5048828,0.1064453c-0.2294922,0-0.3984375-0.0351563-0.5068359-0.1074219
			c-0.109375-0.0722656-0.1640625-0.1845703-0.1640625-0.3369141c0-0.1542969,0.0556641-0.2675781,0.1660156-0.3388672
			C62.6103516,68.5810547,62.7773438,68.5458984,63.0019531,68.5458984z M63.3945313,68.7734375
			c-0.046875-0.0205078-0.1015625-0.0341797-0.1650391-0.0410156c-0.0634766-0.0078125-0.1386719-0.0107422-0.2275391-0.0107422
			c-0.0878906,0-0.1640625,0.0029297-0.2285156,0.0107422c-0.0644531,0.0068359-0.1191406,0.0205078-0.1640625,0.0419922
			c-0.0439453,0.0195313-0.078125,0.046875-0.1005859,0.0820313s-0.0332031,0.0800781-0.0332031,0.1347656
			c0,0.0537109,0.0107422,0.0986328,0.0332031,0.1337891c0.0224609,0.0361328,0.0566406,0.0634766,0.1025391,0.0849609
			c0.0419922,0.0195313,0.0976563,0.0322266,0.1669922,0.0400391c0.0683594,0.0068359,0.1435547,0.0107422,0.2255859,0.0107422
			c0.0898438,0,0.1650391-0.0029297,0.2255859-0.0097656c0.0605469-0.0058594,0.1142578-0.0195313,0.1621094-0.0410156
			c0.0449219-0.0185547,0.0791016-0.0458984,0.1025391-0.0800781c0.0244141-0.0351563,0.0361328-0.0810547,0.0361328-0.1386719
			c0-0.0546875-0.0117188-0.0996094-0.0341797-0.1347656C63.4736328,68.8203125,63.4394531,68.7929688,63.3945313,68.7734375z"/>
		<path class="st14" d="M63.6455078,67.5957031v0.8710938h-0.1806641c-0.0517578-0.0605469-0.1035156-0.1210938-0.1552734-0.1816406
			s-0.1035156-0.1171875-0.1542969-0.1699219c-0.1074219-0.1103516-0.1923828-0.1865234-0.2558594-0.2275391
			s-0.1308594-0.0615234-0.2041016-0.0615234c-0.0673828,0-0.1191406,0.0224609-0.1572266,0.0664063
			s-0.0566406,0.1054688-0.0566406,0.1845703c0,0.0527344,0.0087891,0.109375,0.0273438,0.1699219
			c0.0185547,0.0615234,0.046875,0.1210938,0.0849609,0.1796875v0.0087891h-0.1816406
			c-0.0195313-0.0410156-0.0380859-0.0957031-0.0546875-0.1640625c-0.0175781-0.0683594-0.0253906-0.1347656-0.0253906-0.1982422
			c0-0.1318359,0.0322266-0.2353516,0.0957031-0.3105469s0.1494141-0.1123047,0.2587891-0.1123047
			c0.0488281,0,0.0947266,0.0058594,0.1367188,0.0185547s0.0830078,0.0302734,0.1210938,0.0546875
			c0.0351563,0.0224609,0.0703125,0.0488281,0.1054688,0.0791016c0.0341797,0.0302734,0.0722656,0.0673828,0.1142578,0.1103516
			c0.0605469,0.0615234,0.1191406,0.125,0.1757813,0.1914063c0.0566406,0.0654297,0.109375,0.1269531,0.1582031,0.1835938
			v-0.6923828H63.6455078z"/>
	</g>
</g>
<g>
	<g id="XMLID_27_">
		<g>
			<rect x="20.9035454" y="71.4831696" class="st12" width="4.2572474" height="3.4358907"/>
		</g>
		<g>
		</g>
	</g>
	<g id="XMLID_26_">
		<g>
			<rect x="20.8628311" y="64.3547134" class="st12" width="4.2572474" height="3.4358907"/>
		</g>
		<g>
		</g>
	</g>
	<g id="XMLID_25_">
		<g>
			<rect x="21.2133236" y="67.0241394" class="st13" width="3.6075966" height="5.1633434"/>
		</g>
		<g>
		</g>
	</g>
	<g>
		<path class="st14" d="M23.5610352,70.5458984v0.6962891h-0.1313477v-0.2675781h-0.862793v0.2675781H22.449707
			c0-0.0361328-0.003418-0.0751953-0.0092773-0.1162109c-0.0058594-0.0419922-0.0146484-0.0732422-0.0263672-0.0947266
			c-0.0141602-0.0263672-0.0327148-0.046875-0.0546875-0.0625c-0.0224609-0.015625-0.0522461-0.0244141-0.0898438-0.0263672
			v-0.1337891h1.1601563v-0.2626953H23.5610352z"/>
		<path class="st14" d="M22.9169922,69.5253906c0.230957,0,0.4008789,0.0361328,0.5087891,0.1083984
			s0.1621094,0.1845703,0.1621094,0.3369141c0,0.1542969-0.0546875,0.2675781-0.1640625,0.3388672
			c-0.1098633,0.0712891-0.277832,0.1064453-0.5048828,0.1064453c-0.2290039,0-0.3979492-0.0361328-0.5068359-0.1083984
			c-0.109375-0.0712891-0.1640625-0.1835938-0.1640625-0.3369141c0-0.1542969,0.0556641-0.2666016,0.1665039-0.3378906
			S22.6928711,69.5253906,22.9169922,69.5253906z M23.3095703,69.7529297
			c-0.046875-0.0205078-0.1015625-0.0341797-0.1645508-0.0410156c-0.0634766-0.0068359-0.1391602-0.0107422-0.2280273-0.0107422
			c-0.0874023,0-0.1635742,0.0039063-0.2280273,0.0107422s-0.1191406,0.0214844-0.1640625,0.0419922
			c-0.0444336,0.0205078-0.078125,0.0478516-0.1005859,0.0830078c-0.0224609,0.0341797-0.0336914,0.0791016-0.0336914,0.1337891
			s0.0112305,0.0996094,0.0336914,0.1347656s0.0566406,0.0634766,0.1020508,0.0839844
			c0.0424805,0.0195313,0.0981445,0.0332031,0.1669922,0.0400391c0.0683594,0.0078125,0.1435547,0.0107422,0.2255859,0.0107422
			c0.0898438,0,0.1650391-0.0029297,0.2255859-0.0087891c0.0605469-0.0068359,0.1147461-0.0205078,0.1625977-0.0410156
			c0.0449219-0.0185547,0.0791016-0.0458984,0.1025391-0.0810547c0.0239258-0.0341797,0.0356445-0.0810547,0.0356445-0.1386719
			c0-0.0537109-0.0112305-0.0986328-0.0336914-0.1347656C23.3891602,69.8007813,23.3549805,69.7724609,23.3095703,69.7529297z"/>
		<path class="st14" d="M22.9169922,68.5771484c0.230957,0,0.4008789,0.0361328,0.5087891,0.1083984
			s0.1621094,0.1845703,0.1621094,0.3369141c0,0.1542969-0.0546875,0.2666016-0.1640625,0.3378906
			c-0.1098633,0.0712891-0.277832,0.1064453-0.5048828,0.1064453c-0.2290039,0-0.3979492-0.0351563-0.5068359-0.1074219
			c-0.109375-0.0722656-0.1640625-0.1845703-0.1640625-0.3369141c0-0.1542969,0.0556641-0.2675781,0.1665039-0.3388672
			S22.6928711,68.5771484,22.9169922,68.5771484z M23.3095703,68.8046875
			c-0.046875-0.0205078-0.1015625-0.0341797-0.1645508-0.0410156c-0.0634766-0.0078125-0.1391602-0.0107422-0.2280273-0.0107422
			c-0.0874023,0-0.1635742,0.0029297-0.2280273,0.0107422c-0.0644531,0.0068359-0.1191406,0.0205078-0.1640625,0.0419922
			c-0.0444336,0.0195313-0.078125,0.046875-0.1005859,0.0820313s-0.0336914,0.0800781-0.0336914,0.1347656
			c0,0.0537109,0.0112305,0.0986328,0.0336914,0.1337891c0.0224609,0.0361328,0.0566406,0.0634766,0.1020508,0.0849609
			c0.0424805,0.0195313,0.0981445,0.0322266,0.1669922,0.0400391c0.0683594,0.0068359,0.1435547,0.0107422,0.2255859,0.0107422
			c0.0898438,0,0.1650391-0.0029297,0.2255859-0.0097656c0.0605469-0.0058594,0.1147461-0.0195313,0.1625977-0.0410156
			c0.0449219-0.0185547,0.0791016-0.0458984,0.1025391-0.0800781c0.0239258-0.0351563,0.0356445-0.0810547,0.0356445-0.1386719
			c0-0.0546875-0.0112305-0.0996094-0.0336914-0.1347656C23.3891602,68.8515625,23.3549805,68.8242188,23.3095703,68.8046875z"/>
		<path class="st14" d="M23.5610352,67.6269531v0.8710938h-0.1806641c-0.0517578-0.0605469-0.1035156-0.1210938-0.1557617-0.1816406
			c-0.0517578-0.0605469-0.1030273-0.1171875-0.1542969-0.1699219c-0.1074219-0.1103516-0.1923828-0.1865234-0.2558594-0.2275391
			c-0.0629883-0.0410156-0.1308594-0.0615234-0.2041016-0.0615234c-0.0668945,0-0.1191406,0.0224609-0.1567383,0.0664063
			c-0.0380859,0.0439453-0.0566406,0.1054688-0.0566406,0.1845703c0,0.0527344,0.0087891,0.109375,0.0273438,0.1699219
			c0.0185547,0.0615234,0.046875,0.1210938,0.0849609,0.1796875v0.0087891h-0.1816406
			c-0.0200195-0.0410156-0.0385742-0.0957031-0.0551758-0.1640625c-0.0170898-0.0683594-0.0253906-0.1347656-0.0253906-0.1982422
			c0-0.1318359,0.0322266-0.2353516,0.0957031-0.3105469s0.1499023-0.1123047,0.2587891-0.1123047
			c0.0488281,0,0.0947266,0.0058594,0.137207,0.0185547c0.0419922,0.0126953,0.0825195,0.0302734,0.1206055,0.0546875
			c0.0356445,0.0224609,0.0708008,0.0488281,0.1054688,0.0791016c0.0341797,0.0302734,0.0727539,0.0673828,0.1147461,0.1103516
			c0.0605469,0.0615234,0.1191406,0.125,0.1757813,0.1914063c0.0566406,0.0654297,0.109375,0.1269531,0.1577148,0.1835938
			v-0.6923828H23.5610352z"/>
	</g>
</g>
<g id="XMLID_1_">
	<g>
		<rect x="30.8023701" y="47.2071877" class="st12" width="2.412019" height="4.751328"/>
	</g>
	<g>
	</g>
</g>
<ellipse class="st15" cx="39.3342476" cy="52.0559082" rx="1.2060977" ry="1.5185714"/>
<g id="XMLID_2_">
	<g>
		<rect x="38.1278725" y="47.3045921" class="st12" width="2.412019" height="4.751328"/>
	</g>
	<g>
	</g>
</g>
<ellipse class="st15" cx="46.1196861" cy="52.0559082" rx="1.2060977" ry="1.5185714"/>
<g id="XMLID_3_">
	<g>
		<rect x="44.913311" y="47.3045921" class="st12" width="2.412019" height="4.751328"/>
	</g>
	<g>
	</g>
</g>
<ellipse class="st15" cx="53.1357918" cy="52.0559082" rx="1.2060977" ry="1.5185714"/>
<g id="XMLID_4_">
	<g>
		<rect x="51.9294167" y="47.3045921" class="st12" width="2.412019" height="4.751328"/>
	</g>
	<g>
	</g>
</g>
<ellipse class="st15" cx="32.0087471" cy="51.9585075" rx="1.2060977" ry="1.5185714"/>
<path class="st16" d="M57.2910042,47.1105843H28.8339958c-1.5655308,0-2.8346462-1.2691154-2.8346462-2.8346481V6.8828163
	c0-1.5655317,1.2691154-2.8346457,2.8346462-2.8346457h28.4570084c1.5655327,0,2.8346443,1.269114,2.8346443,2.8346457v37.3931198
	C60.1256485,45.8414688,58.8565369,47.1105843,57.2910042,47.1105843z"/>
<g id="Слой_8">
	<rect x="31.3543148" y="17.4231701" class="st17" width="4.4543767" height="4.4543767"/>
	<rect x="37.9349098" y="17.4231701" class="st17" width="4.4543767" height="4.4543767"/>
	<rect x="44.5880852" y="17.4231701" class="st17" width="4.4543767" height="4.4543767"/>
	<rect x="34.6668167" y="10.860671" class="st17" width="4.4543767" height="4.4543767"/>
	<rect x="41.2474098" y="10.860671" class="st17" width="4.4543767" height="4.4543767"/>
	<rect x="47.9005852" y="10.860671" class="st17" width="4.4543767" height="4.4543767"/>
	<rect x="50.6569519" y="17.4231701" class="st17" width="4.4543767" height="4.4543767"/>
	<rect x="31.3543148" y="23.9856701" class="st17" width="4.4543767" height="4.4543767"/>
	<rect x="37.9349098" y="23.9856701" class="st17" width="4.4543767" height="4.4543767"/>
	<rect x="44.5880852" y="23.9856701" class="st17" width="4.4543767" height="4.4543767"/>
	<rect x="50.6569519" y="23.9856701" class="st17" width="4.4543767" height="4.4543767"/>
	<rect x="31.3543148" y="30.5481701" class="st17" width="4.4543767" height="4.4543767"/>
	<rect x="37.9349098" y="30.5481701" class="st17" width="4.4543767" height="4.4543767"/>
	<rect x="44.5880852" y="30.5481701" class="st17" width="4.4543767" height="4.4543767"/>
	<rect x="50.6569519" y="30.5481701" class="st17" width="4.4543767" height="4.4543767"/>
	<g>
		<path class="st17" d="M32.7792969,38.5727539h-0.8935547l-0.2006836,0.5581055h-0.2900391l0.8144531-2.1328125h0.2460938
			l0.815918,2.1328125h-0.2885742L32.7792969,38.5727539z M31.9707031,38.3427734h0.7250977l-0.3632813-0.9975586
			L31.9707031,38.3427734z"/>
		<path class="st17" d="M33.5585938,39.1308594v-2.1328125h0.6020508c0.1855469,0,0.3496094,0.0410156,0.4921875,0.1230469
			s0.2529297,0.1987305,0.3300781,0.3500977c0.078125,0.1513672,0.1171875,0.3251953,0.1181641,0.5214844v0.1362305
			c0,0.2011719-0.0390625,0.3774414-0.1162109,0.5288086c-0.078125,0.1513672-0.1889648,0.2675781-0.3330078,0.3486328
			s-0.3115234,0.1225586-0.5029297,0.1245117H33.5585938z M33.8398438,37.2280273v1.6728516h0.2958984
			c0.2167969,0,0.3852539-0.0673828,0.5063477-0.2021484c0.1201172-0.1352539,0.1806641-0.3271484,0.1806641-0.5761719v-0.125
			c0-0.2421875-0.0571289-0.4306641-0.1708984-0.5649414s-0.2749023-0.2026367-0.4838867-0.2045898H33.8398438z"/>
		<path class="st17" d="M36.1542969,38.1801758c-0.2412109-0.0693359-0.4169922-0.1547852-0.5263672-0.2553711
			c-0.1103516-0.1015625-0.1650391-0.2260742-0.1650391-0.3745117c0-0.1679688,0.0668945-0.3071289,0.2011719-0.4165039
			c0.1342773-0.1103516,0.309082-0.1650391,0.5239258-0.1650391c0.1464844,0,0.2768555,0.0283203,0.3920898,0.0849609
			c0.1142578,0.0566406,0.203125,0.1347656,0.2666016,0.234375c0.0625,0.0996094,0.0942383,0.2084961,0.0942383,0.3266602
			h-0.2827148c0-0.1293945-0.0410156-0.230957-0.1230469-0.3051758c-0.0820313-0.0737305-0.1977539-0.1108398-0.347168-0.1108398
			c-0.1386719,0-0.246582,0.0307617-0.324707,0.0917969c-0.0771484,0.0610352-0.1162109,0.1459961-0.1162109,0.2543945
			c0,0.0874023,0.0366211,0.1606445,0.1103516,0.2211914c0.0737305,0.0600586,0.1992188,0.1152344,0.3769531,0.1650391
			c0.1767578,0.0498047,0.3154297,0.1049805,0.4160156,0.1645508C36.75,38.15625,36.8242188,38.2260742,36.8730469,38.3061523
			c0.0478516,0.0800781,0.0722656,0.1743164,0.0722656,0.2827148c0,0.1728516-0.0673828,0.3115234-0.2021484,0.4150391
			c-0.1347656,0.1044922-0.3149414,0.15625-0.5405273,0.15625c-0.1464844,0-0.2832031-0.0283203-0.4101563-0.0839844
			c-0.1269531-0.0561523-0.2250977-0.1333008-0.293457-0.230957c-0.0693359-0.0976563-0.1035156-0.2084961-0.1035156-0.3325195
			h0.2827148c0,0.1289063,0.0473633,0.2304688,0.1430664,0.3056641c0.0947266,0.0742188,0.222168,0.1118164,0.3813477,0.1118164
			c0.1484375,0,0.262207-0.0302734,0.3413086-0.0908203s0.1186523-0.1430664,0.1186523-0.2475586
			s-0.0366211-0.1855469-0.1098633-0.2421875C36.4794922,38.2919922,36.3466797,38.2358398,36.1542969,38.1801758z"/>
		<path class="st17" d="M38.9462891,38.1333008c0,0.2089844-0.0351563,0.3916016-0.1054688,0.5473633
			s-0.1699219,0.2744141-0.2988281,0.3564453s-0.2792969,0.1230469-0.4511719,0.1230469
			c-0.1679688,0-0.3168945-0.0410156-0.4467773-0.1240234c-0.1298828-0.0820313-0.2304688-0.199707-0.3027344-0.3525391
			c-0.0712891-0.152832-0.1083984-0.3300781-0.1103516-0.53125v-0.1538086c0-0.2050781,0.0356445-0.3862305,0.1069336-0.543457
			s0.1723633-0.2773438,0.3022461-0.3613281c0.1308594-0.0830078,0.2797852-0.125,0.4477539-0.125
			c0.1708984,0,0.3217773,0.0415039,0.4516602,0.1240234c0.1308594,0.0825195,0.230957,0.2021484,0.3012695,0.3583984
			c0.0703125,0.1572266,0.1054688,0.3393555,0.1054688,0.5473633V38.1333008z M38.6665039,37.9956055
			c0-0.2529297-0.0507813-0.4467773-0.1523438-0.5825195c-0.1015625-0.1347656-0.2436523-0.2026367-0.4262695-0.2026367
			c-0.1777344,0-0.3178711,0.0678711-0.4194336,0.2026367c-0.1025391,0.1357422-0.1547852,0.3232422-0.1577148,0.5634766v0.1567383
			c0,0.2451172,0.0512695,0.4379883,0.1547852,0.5776367c0.1025391,0.140625,0.2446289,0.2104492,0.425293,0.2104492
			c0.1816406,0,0.3222656-0.065918,0.421875-0.1987305c0.0996094-0.1318359,0.1508789-0.3217773,0.1538086-0.5688477V37.9956055z"/>
		<path class="st17" d="M41.0073242,39.1308594h-0.2827148l-1.0737305-1.6435547v1.6435547h-0.2827148v-2.1328125h0.2827148
			l1.0766602,1.6508789v-1.6508789h0.2797852V39.1308594z"/>
		<path class="st17" d="M43.081543,38.8510742c-0.0722656,0.1035156-0.1728516,0.1811523-0.3027344,0.2319336
			c-0.1293945,0.0517578-0.2797852,0.0771484-0.4516602,0.0771484c-0.1738281,0-0.328125-0.0405273-0.4628906-0.1220703
			S41.625,38.840332,41.5512695,38.6899414s-0.1113281-0.324707-0.1132813-0.5229492V37.980957
			c0-0.3212891,0.074707-0.5703125,0.2246094-0.7470703s0.3608398-0.2651367,0.6323242-0.2651367
			c0.2226563,0,0.4018555,0.0571289,0.5375977,0.1708984s0.21875,0.2749023,0.2490234,0.4838867h-0.28125
			c-0.0527344-0.2832031-0.2207031-0.4248047-0.5039063-0.4248047c-0.1884766,0-0.331543,0.0664063-0.4287109,0.1987305
			s-0.1459961,0.3242188-0.1469727,0.5751953v0.1748047c0,0.2392578,0.0546875,0.4296875,0.1640625,0.5708008
			s0.2573242,0.2119141,0.4438477,0.2119141c0.1054688,0,0.1977539-0.0117188,0.2768555-0.0351563
			S42.75,38.8320313,42.8012695,38.7768555v-0.4780273h-0.4931641v-0.2299805h0.7734375V38.8510742z"/>
		<path class="st17" d="M45.4716797,38.5727539h-0.8945313l-0.2001953,0.5581055h-0.2900391l0.8144531-2.1328125h0.2460938
			l0.8164063,2.1328125h-0.2890625L45.4716797,38.5727539z M44.6630859,38.3427734h0.7246094l-0.3632813-0.9975586
			L44.6630859,38.3427734z"/>
		<path class="st17" d="M46.6142578,36.9980469l0.6972656,1.7402344l0.6972656-1.7402344h0.3642578v2.1328125h-0.28125V38.300293
			l0.0263672-0.8964844l-0.7001953,1.7270508h-0.2158203l-0.6982422-1.7226563l0.0283203,0.8920898v0.8305664h-0.28125v-2.1328125
			H46.6142578z"/>
		<path class="st17" d="M50.1962891,39.1308594h-1.3964844v-0.1948242l0.7382813-0.8203125
			c0.1083984-0.1240234,0.1845703-0.2250977,0.2255859-0.3022461c0.0419922-0.078125,0.0625-0.1582031,0.0625-0.2412109
			c0-0.1113281-0.0341797-0.2026367-0.1005859-0.2739258c-0.0683594-0.0712891-0.1582031-0.1069336-0.2695313-0.1069336
			c-0.1347656,0-0.2402344,0.0385742-0.3144531,0.1152344c-0.0751953,0.0766602-0.1123047,0.1831055-0.1123047,0.3198242h-0.2705078
			c0-0.1962891,0.0625-0.3549805,0.1894531-0.4760742c0.1259766-0.1210938,0.2949219-0.1816406,0.5078125-0.1816406
			c0.1972656,0,0.3544922,0.0517578,0.4697266,0.15625c0.1152344,0.1035156,0.1728516,0.2421875,0.1728516,0.4150391
			c0,0.2099609-0.1337891,0.4599609-0.4013672,0.75l-0.5712891,0.6196289h1.0703125V39.1308594z"/>
		<path class="st17" d="M50.8779297,37.9326172h0.2041016c0.1269531-0.0019531,0.2285156-0.0356445,0.3007813-0.1010742
			c0.0742188-0.0654297,0.1103516-0.1538086,0.1103516-0.2651367c0-0.25-0.1240234-0.375-0.3740234-0.375
			c-0.1171875,0-0.2099609,0.0336914-0.2802734,0.1005859c-0.0693359,0.0668945-0.1044922,0.1552734-0.1044922,0.265625h-0.2714844
			c0-0.1689453,0.0625-0.309082,0.1855469-0.4208984c0.1240234-0.1118164,0.28125-0.1679688,0.4707031-0.1679688
			c0.2011719,0,0.359375,0.0532227,0.4736328,0.159668s0.1708984,0.2543945,0.1708984,0.4438477
			c0,0.0927734-0.0292969,0.1826172-0.0898438,0.2695313c-0.0595703,0.0869141-0.1416016,0.1518555-0.2451172,0.1948242
			c0.1171875,0.0371094,0.2080078,0.0986328,0.2714844,0.1845703c0.0644531,0.0859375,0.0966797,0.190918,0.0966797,0.3149414
			c0,0.1914063-0.0634766,0.3432617-0.1875,0.4555664c-0.1259766,0.1123047-0.2880859,0.168457-0.4882813,0.168457
			s-0.3632813-0.0541992-0.4882813-0.1625977c-0.1259766-0.1083984-0.1884766-0.2514648-0.1884766-0.4291992h0.2724609
			c0,0.1123047,0.0371094,0.2021484,0.109375,0.2695313c0.0742188,0.0673828,0.171875,0.1010742,0.2949219,0.1010742
			c0.1308594,0,0.2304688-0.0341797,0.3007813-0.1025391c0.0683594-0.0683594,0.1035156-0.1665039,0.1035156-0.2944336
			c0-0.1240234-0.0380859-0.2192383-0.1142578-0.2856445s-0.1865234-0.1005859-0.3291016-0.1025391h-0.2041016V37.9326172z"/>
		<path class="st17" d="M53.5654297,39.1308594h-1.3964844v-0.1948242l0.7382813-0.8203125
			c0.1083984-0.1240234,0.1845703-0.2250977,0.2255859-0.3022461c0.0419922-0.078125,0.0625-0.1582031,0.0625-0.2412109
			c0-0.1113281-0.0341797-0.2026367-0.1005859-0.2739258c-0.0683594-0.0712891-0.1582031-0.1069336-0.2695313-0.1069336
			c-0.1347656,0-0.2402344,0.0385742-0.3144531,0.1152344c-0.0751953,0.0766602-0.1123047,0.1831055-0.1123047,0.3198242h-0.2705078
			c0-0.1962891,0.0625-0.3549805,0.1894531-0.4760742c0.1259766-0.1210938,0.2949219-0.1816406,0.5078125-0.1816406
			c0.1972656,0,0.3544922,0.0517578,0.4697266,0.15625c0.1152344,0.1035156,0.1728516,0.2421875,0.1728516,0.4150391
			c0,0.2099609-0.1337891,0.4599609-0.4013672,0.75l-0.5712891,0.6196289h1.0703125V39.1308594z"/>
		<path class="st17" d="M55.1904297,38.2211914c0,0.3173828-0.0537109,0.5532227-0.1630859,0.7075195
			c-0.1074219,0.1542969-0.2773438,0.2314453-0.5078125,0.2314453c-0.2275391,0-0.3964844-0.0751953-0.5058594-0.2265625
			c-0.109375-0.1503906-0.1660156-0.3759766-0.1699219-0.6757813v-0.3618164c0-0.3134766,0.0546875-0.5463867,0.1630859-0.6987305
			s0.2783203-0.2285156,0.5097656-0.2285156c0.2294922,0,0.3984375,0.0737305,0.5068359,0.2207031
			s0.1640625,0.3735352,0.1669922,0.6801758V38.2211914z M54.9199219,37.8505859
			c0-0.2294922-0.0332031-0.3964844-0.0976563-0.5019531c-0.0644531-0.1044922-0.1660156-0.1572266-0.3056641-0.1572266
			c-0.1386719,0-0.2402344,0.0522461-0.3037109,0.1567383s-0.0957031,0.2651367-0.0976563,0.4819336v0.4335938
			c0,0.2304688,0.0332031,0.4003906,0.1005859,0.5107422c0.0664063,0.109375,0.1679688,0.1645508,0.3037109,0.1645508
			c0.1337891,0,0.2333984-0.0517578,0.2978516-0.1552734c0.0654297-0.1035156,0.0986328-0.2666016,0.1025391-0.4892578V37.8505859z"
			/>
	</g>
	<g>
		<path class="st17" d="M31.7299805,41.6176758c-0.2412109-0.0693359-0.4169922-0.1547852-0.5263672-0.2553711
			c-0.1103516-0.1015625-0.1650391-0.2260742-0.1650391-0.3745117c0-0.1679688,0.0668945-0.3071289,0.2011719-0.4165039
			c0.1342773-0.1103516,0.309082-0.1650391,0.5239258-0.1650391c0.1464844,0,0.2768555,0.0283203,0.3920898,0.0849609
			c0.1142578,0.0566406,0.203125,0.1347656,0.2666016,0.234375c0.0625,0.0996094,0.0942383,0.2084961,0.0942383,0.3266602
			h-0.2827148c0-0.1293945-0.0410156-0.230957-0.1230469-0.3051758c-0.0820313-0.0737305-0.1977539-0.1108398-0.347168-0.1108398
			c-0.1386719,0-0.246582,0.0307617-0.324707,0.0917969c-0.0771484,0.0610352-0.1162109,0.1459961-0.1162109,0.2543945
			c0,0.0874023,0.0366211,0.1606445,0.1103516,0.2211914c0.0737305,0.0600586,0.1992188,0.1152344,0.3769531,0.1650391
			c0.1767578,0.0498047,0.3154297,0.1049805,0.4160156,0.1645508c0.0996094,0.0605469,0.1738281,0.1303711,0.2226563,0.2104492
			c0.0478516,0.0800781,0.0722656,0.1743164,0.0722656,0.2827148c0,0.1728516-0.0673828,0.3115234-0.2021484,0.4150391
			c-0.1347656,0.1044922-0.3149414,0.15625-0.5405273,0.15625c-0.1464844,0-0.2832031-0.0283203-0.4101563-0.0839844
			c-0.1269531-0.0561523-0.2250977-0.1333008-0.293457-0.230957c-0.0693359-0.0976563-0.1035156-0.2084961-0.1035156-0.3325195
			h0.2827148c0,0.1289063,0.0473633,0.2304688,0.1430664,0.3056641c0.0947266,0.0742188,0.222168,0.1118164,0.3813477,0.1118164
			c0.1484375,0,0.262207-0.0302734,0.3413086-0.0908203s0.1186523-0.1430664,0.1186523-0.2475586
			s-0.0366211-0.1855469-0.1098633-0.2421875C32.0551758,41.7294922,31.9223633,41.6733398,31.7299805,41.6176758z"/>
		<path class="st17" d="M34.5205078,42.5683594H34.237793l-1.0737305-1.6435547v1.6435547h-0.2827148v-2.1328125h0.2827148
			l1.0766602,1.6508789v-1.6508789h0.2797852V42.5683594z"/>
		<path class="st17" d="M34.96875,42.4262695c0-0.046875,0.0136719-0.0859375,0.0419922-0.1171875
			c0.0273438-0.03125,0.0693359-0.046875,0.125-0.046875s0.0976563,0.015625,0.1269531,0.046875
			c0.0283203,0.03125,0.0429688,0.0703125,0.0429688,0.1171875c0,0.0449219-0.0146484,0.0825195-0.0429688,0.112793
			c-0.0292969,0.0302734-0.0712891,0.0454102-0.1269531,0.0454102s-0.0976563-0.0151367-0.125-0.0454102
			C34.9824219,42.5087891,34.96875,42.4711914,34.96875,42.4262695z M34.9702148,41.1328125
			c0-0.046875,0.0141602-0.0859375,0.0415039-0.1171875c0.0283203-0.03125,0.0698242-0.046875,0.1254883-0.046875
			s0.0976563,0.015625,0.1264648,0.046875s0.043457,0.0703125,0.043457,0.1171875
			c0,0.0449219-0.0146484,0.0825195-0.043457,0.112793s-0.0708008,0.0454102-0.1264648,0.0454102
			s-0.097168-0.0151367-0.1254883-0.0454102C34.984375,41.215332,34.9702148,41.1777344,34.9702148,41.1328125z"/>
		<path class="st17" d="M36.8129883,41.3701172h0.2036133c0.1279297-0.0019531,0.2285156-0.0356445,0.3017578-0.1010742
			s0.1098633-0.1538086,0.1098633-0.2651367c0-0.25-0.1245117-0.375-0.3735352-0.375
			c-0.1171875,0-0.2109375,0.0336914-0.2807617,0.1005859s-0.1044922,0.1552734-0.1044922,0.265625h-0.2709961
			c0-0.1689453,0.0615234-0.309082,0.1850586-0.4208984s0.2807617-0.1679688,0.4711914-0.1679688
			c0.2011719,0,0.3588867,0.0532227,0.4731445,0.159668s0.1713867,0.2543945,0.1713867,0.4438477
			c0,0.0927734-0.0297852,0.1826172-0.090332,0.2695313c-0.0595703,0.0869141-0.1416016,0.1518555-0.2451172,0.1948242
			c0.1171875,0.0371094,0.2075195,0.0986328,0.2714844,0.1845703s0.0961914,0.190918,0.0961914,0.3149414
			c0,0.1914063-0.0625,0.3432617-0.1875,0.4555664s-0.2875977,0.168457-0.487793,0.168457s-0.3632813-0.0541992-0.4882813-0.1625977
			c-0.1259766-0.1083984-0.1884766-0.2514648-0.1884766-0.4291992h0.2724609c0,0.1123047,0.0366211,0.2021484,0.1098633,0.2695313
			s0.1713867,0.1010742,0.2944336,0.1010742c0.1308594,0,0.230957-0.0341797,0.300293-0.1025391
			s0.1040039-0.1665039,0.1040039-0.2944336c0-0.1240234-0.0380859-0.2192383-0.1142578-0.2856445
			s-0.1860352-0.1005859-0.3295898-0.1025391h-0.2036133V41.3701172z"/>
		<path class="st17" d="M38.8022461,41.6176758c-0.2412109-0.0693359-0.4169922-0.1547852-0.5263672-0.2553711
			c-0.1103516-0.1015625-0.1650391-0.2260742-0.1650391-0.3745117c0-0.1679688,0.0668945-0.3071289,0.2011719-0.4165039
			c0.1342773-0.1103516,0.309082-0.1650391,0.5239258-0.1650391c0.1464844,0,0.2768555,0.0283203,0.3920898,0.0849609
			c0.1142578,0.0566406,0.203125,0.1347656,0.2666016,0.234375c0.0625,0.0996094,0.0942383,0.2084961,0.0942383,0.3266602
			h-0.2827148c0-0.1293945-0.0410156-0.230957-0.1230469-0.3051758c-0.0820313-0.0737305-0.1977539-0.1108398-0.347168-0.1108398
			c-0.1386719,0-0.246582,0.0307617-0.324707,0.0917969c-0.0771484,0.0610352-0.1162109,0.1459961-0.1162109,0.2543945
			c0,0.0874023,0.0366211,0.1606445,0.1103516,0.2211914c0.0737305,0.0600586,0.1992188,0.1152344,0.3769531,0.1650391
			c0.1767578,0.0498047,0.3154297,0.1049805,0.4160156,0.1645508c0.0996094,0.0605469,0.1738281,0.1303711,0.2226563,0.2104492
			c0.0478516,0.0800781,0.0722656,0.1743164,0.0722656,0.2827148c0,0.1728516-0.0673828,0.3115234-0.2021484,0.4150391
			c-0.1347656,0.1044922-0.3149414,0.15625-0.5405273,0.15625c-0.1464844,0-0.2832031-0.0283203-0.4101563-0.0839844
			c-0.1269531-0.0561523-0.2250977-0.1333008-0.293457-0.230957c-0.0693359-0.0976563-0.1035156-0.2084961-0.1035156-0.3325195
			h0.2827148c0,0.1289063,0.0473633,0.2304688,0.1430664,0.3056641c0.0947266,0.0742188,0.222168,0.1118164,0.3813477,0.1118164
			c0.1484375,0,0.262207-0.0302734,0.3413086-0.0908203s0.1186523-0.1430664,0.1186523-0.2475586
			s-0.0366211-0.1855469-0.1098633-0.2421875C39.1274414,41.7294922,38.9946289,41.6733398,38.8022461,41.6176758z"/>
		<path class="st17" d="M41.2807617,42.5683594h-1.3974609v-0.1948242l0.7382813-0.8203125
			c0.109375-0.1240234,0.1845703-0.2250977,0.2260742-0.3022461c0.0415039-0.078125,0.0625-0.1582031,0.0625-0.2412109
			c0-0.1113281-0.0336914-0.2026367-0.1010742-0.2739258s-0.1572266-0.1069336-0.2695313-0.1069336
			c-0.1347656,0-0.2397461,0.0385742-0.3139648,0.1152344c-0.0751953,0.0766602-0.1123047,0.1831055-0.1123047,0.3198242h-0.2709961
			c0-0.1962891,0.0629883-0.3549805,0.1899414-0.4760742c0.1259766-0.1210938,0.2954102-0.1816406,0.5073242-0.1816406
			c0.1982422,0,0.3549805,0.0517578,0.4702148,0.15625c0.1152344,0.1035156,0.1728516,0.2421875,0.1728516,0.4150391
			c0,0.2099609-0.1337891,0.4599609-0.4013672,0.75l-0.5712891,0.6196289h1.0708008V42.5683594z"/>
		<path class="st17" d="M42.965332,42.5683594h-1.3974609v-0.1948242l0.7382813-0.8203125
			c0.1083984-0.1240234,0.1845703-0.2250977,0.2255859-0.3022461c0.0429688-0.078125,0.0625-0.1582031,0.0625-0.2412109
			c0-0.1113281-0.0332031-0.2026367-0.0996094-0.2739258c-0.0683594-0.0712891-0.1582031-0.1069336-0.2705078-0.1069336
			c-0.1347656,0-0.2397461,0.0385742-0.3139648,0.1152344c-0.0751953,0.0766602-0.1123047,0.1831055-0.1123047,0.3198242h-0.2709961
			c0-0.1962891,0.0629883-0.3549805,0.1899414-0.4760742c0.1259766-0.1210938,0.2954102-0.1816406,0.5073242-0.1816406
			c0.1982422,0,0.3544922,0.0517578,0.4697266,0.15625c0.1152344,0.1035156,0.1738281,0.2421875,0.1738281,0.4150391
			c0,0.2099609-0.1347656,0.4599609-0.4023438,0.75l-0.5708008,0.6196289h1.0708008V42.5683594z"/>
		<path class="st17" d="M44.8974609,42.2885742c-0.0722656,0.1035156-0.1728516,0.1811523-0.3027344,0.2319336
			c-0.1289063,0.0517578-0.2802734,0.0771484-0.4511719,0.0771484c-0.175293,0-0.3286133-0.0405273-0.4633789-0.1220703
			s-0.2392578-0.1977539-0.3134766-0.3481445c-0.0732422-0.1503906-0.1113281-0.324707-0.1132813-0.5229492V41.418457
			c0-0.3212891,0.0751953-0.5703125,0.2246094-0.7470703c0.1503906-0.1767578,0.3603516-0.2651367,0.6323242-0.2651367
			c0.2226563,0,0.4023438,0.0571289,0.5380859,0.1708984s0.21875,0.2749023,0.2490234,0.4838867h-0.28125
			c-0.0527344-0.2832031-0.2207031-0.4248047-0.5039063-0.4248047c-0.1889648,0-0.331543,0.0664063-0.4291992,0.1987305
			c-0.0966797,0.1323242-0.1464844,0.3242188-0.1474609,0.5751953v0.1748047c0,0.2392578,0.0546875,0.4296875,0.1640625,0.5708008
			s0.2578125,0.2119141,0.4448242,0.2119141c0.1054688,0,0.1982422-0.0117188,0.2763672-0.0351563
			c0.0800781-0.0234375,0.1445313-0.0629883,0.1972656-0.1181641v-0.4780273h-0.4941406v-0.2299805h0.7734375V42.2885742z"/>
		<path class="st17" d="M46.6933594,42.5683594H45.296875v-0.1948242l0.7382813-0.8203125
			c0.1083984-0.1240234,0.1845703-0.2250977,0.2255859-0.3022461c0.0419922-0.078125,0.0625-0.1582031,0.0625-0.2412109
			c0-0.1113281-0.0341797-0.2026367-0.1005859-0.2739258c-0.0683594-0.0712891-0.1582031-0.1069336-0.2695313-0.1069336
			c-0.1347656,0-0.2402344,0.0385742-0.3144531,0.1152344c-0.0751953,0.0766602-0.1123047,0.1831055-0.1123047,0.3198242h-0.2705078
			c0-0.1962891,0.0625-0.3549805,0.1894531-0.4760742c0.1259766-0.1210938,0.2949219-0.1816406,0.5078125-0.1816406
			c0.1972656,0,0.3544922,0.0517578,0.4697266,0.15625c0.1152344,0.1035156,0.1728516,0.2421875,0.1728516,0.4150391
			c0,0.2099609-0.1337891,0.4599609-0.4013672,0.75l-0.5712891,0.6196289h1.0703125V42.5683594z"/>
		<path class="st17" d="M48.125,41.8520508h0.2958984v0.2211914H48.125v0.4951172h-0.2724609v-0.4951172h-0.9707031v-0.159668
			l0.9550781-1.4780273H48.125V41.8520508z M47.1884766,41.8520508h0.6640625v-1.0458984l-0.0322266,0.0585938
			L47.1884766,41.8520508z"/>
		<path class="st17" d="M48.7363281,42.5683594v-2.1328125h0.6015625c0.1855469,0,0.3496094,0.0410156,0.4921875,0.1230469
			s0.2529297,0.1987305,0.3300781,0.3500977c0.078125,0.1513672,0.1171875,0.3251953,0.1181641,0.5214844v0.1362305
			c0,0.2011719-0.0390625,0.3774414-0.1162109,0.5288086c-0.078125,0.1513672-0.1884766,0.2675781-0.3330078,0.3486328
			c-0.1435547,0.0810547-0.3115234,0.1225586-0.5029297,0.1245117H48.7363281z M49.0175781,40.6655273v1.6728516H49.3125
			c0.2167969,0,0.3857422-0.0673828,0.5068359-0.2021484C49.9394531,42.0009766,50,41.809082,50,41.5600586v-0.125
			c0-0.2421875-0.0566406-0.4306641-0.1708984-0.5649414c-0.1132813-0.1342773-0.2753906-0.2026367-0.4833984-0.2045898H49.0175781z
			"/>
		<path class="st17" d="M52.0302734,42.5683594h-1.3964844v-0.1948242l0.7382813-0.8203125
			c0.1083984-0.1240234,0.1845703-0.2250977,0.2255859-0.3022461c0.0419922-0.078125,0.0625-0.1582031,0.0625-0.2412109
			c0-0.1113281-0.0341797-0.2026367-0.1005859-0.2739258c-0.0683594-0.0712891-0.1582031-0.1069336-0.2695313-0.1069336
			c-0.1347656,0-0.2402344,0.0385742-0.3144531,0.1152344c-0.0751953,0.0766602-0.1123047,0.1831055-0.1123047,0.3198242h-0.2705078
			c0-0.1962891,0.0625-0.3549805,0.1894531-0.4760742c0.1259766-0.1210938,0.2949219-0.1816406,0.5078125-0.1816406
			c0.1972656,0,0.3544922,0.0517578,0.4697266,0.15625c0.1152344,0.1035156,0.1728516,0.2421875,0.1728516,0.4150391
			c0,0.2099609-0.1337891,0.4599609-0.4013672,0.75l-0.5712891,0.6196289h1.0703125V42.5683594z"/>
		<path class="st17" d="M53.5634766,41.6264648h-0.8945313v0.9418945h-0.28125v-2.1328125h1.3203125v0.2299805h-1.0390625v0.730957
			h0.8945313V41.6264648z"/>
	</g>
</g>
<path class="st18" d="M75.118103,3.9458008c-3.300293,0-5.9754028,2.6751709-5.9754028,5.9754639
	c0,3.3002319,2.6751099,5.9754028,5.9754028,5.9754028s5.9754639-2.6751709,5.9754639-5.9754028
	C81.0935669,6.6209717,78.418396,3.9458008,75.118103,3.9458008z M75.1191406,14.3149414
	c-2.4279175,0-4.3947144-1.9667969-4.3947144-4.3927002c0-2.4279175,1.9667969-4.3947144,4.3947144-4.3947144
	c2.4258423,0,4.3927002,1.9667969,4.3927002,4.3947144C79.5118408,12.3481445,77.5449829,14.3149414,75.1191406,14.3149414z"/>
<path class="st18" d="M9.9212294,3.9458008c-3.300293,0-5.9754028,2.6751709-5.9754028,5.9754639
	c0,3.3002319,2.6751099,5.9754028,5.9754028,5.9754028s5.9754639-2.6751709,5.9754639-5.9754028
	C15.8966932,6.6209717,13.2215223,3.9458008,9.9212294,3.9458008z M9.922267,14.3149414
	c-2.4279175,0-4.3947144-1.9667969-4.3947144-4.3927002c0-2.4279175,1.9667969-4.3947144,4.3947144-4.3947144
	c2.4258423,0,4.3927002,1.9667969,4.3927002,4.3947144C14.3149672,12.3481445,12.3481092,14.3149414,9.922267,14.3149414z"/>
<path class="st18" d="M9.9212294,69.1426773c-3.300293,0-5.9754028,2.6751709-5.9754028,5.9754639
	c0,3.3002319,2.6751099,5.9754028,5.9754028,5.9754028s5.9754639-2.6751709,5.9754639-5.9754028
	C15.8966932,71.8178482,13.2215223,69.1426773,9.9212294,69.1426773z M9.922267,79.5118179
	c-2.4279175,0-4.3947144-1.9667969-4.3947144-4.3927002c0-2.4279175,1.9667969-4.3947144,4.3947144-4.3947144
	c2.4258423,0,4.3927002,1.9667969,4.3927002,4.3947144C14.3149672,77.5450211,12.3481092,79.5118179,9.922267,79.5118179z"/>
<path class="st18" d="M75.1180801,69.1426773c-3.300293,0-5.9754028,2.6751709-5.9754028,5.9754639
	c0,3.3002319,2.6751099,5.9754028,5.9754028,5.9754028s5.9754639-2.6751709,5.9754639-5.9754028
	C81.093544,71.8178482,78.4183731,69.1426773,75.1180801,69.1426773z M75.1191177,79.5118179
	c-2.4279175,0-4.3947144-1.9667969-4.3947144-4.3927002c0-2.4279175,1.9667969-4.3947144,4.3947144-4.3947144
	c2.4258423,0,4.3927002,1.9667969,4.3927002,4.3947144C79.5118179,77.5450211,77.54496,79.5118179,75.1191177,79.5118179z"/>
<g>
</g>
<g>
</g>
<g>
</g>
<g>
</g>
<g>
</g>
</svg>
