<?xml version="1.0" encoding="utf-8"?>
<!-- Generator: Adobe Illustrator 22.0.1, SVG Export Plug-In . SVG Version: 6.00 Build 0)  -->
<svg version="1.1" id="Слой_1" xmlns="http://www.w3.org/2000/svg" xmlns:xlink="http://www.w3.org/1999/xlink" x="0px" y="0px"
	 viewBox="0 0 195.3999634 152.1999512" style="enable-background:new 0 0 195.3999634 152.1999512;" xml:space="preserve">
<style type="text/css">
	.st0{fill:#19191A;stroke:#666566;stroke-miterlimit:10;}
	.st1{fill:#CDC7BC;stroke:#CDC7BC;stroke-width:0.1;stroke-miterlimit:10;}
	.st2{fill:#CDC7BC;stroke:#CDC7BC;stroke-width:0.0916014;stroke-miterlimit:10;}
	.st3{fill:#CEC7BD;}
	.st4{fill:#918C84;}
	.st5{fill:#5D69AD;}
	.st6{fill:#0D0E0F;}
	.st7{fill:#E39344;stroke:#666566;stroke-width:0.0232234;stroke-miterlimit:10;}
	.st8{fill:#EBAD4F;stroke:#B3B3B3;stroke-width:0.0252307;stroke-miterlimit:10;}
	.st9{fill:none;stroke:#808080;stroke-width:0.0114155;stroke-miterlimit:10;}
	.st10{fill:#D24A44;}
	.st11{fill:#EFE94A;}
</style>
<g id="Слой_1_1_">
</g>
<g id="Слой_2_1_">
	<path class="st0" d="M7.7000122,37.2199707L0.5,44.4199829v92.8800049l7.2000122,7.1999512v7.2000122h187.1999512V0.5000017
		H7.7000122V37.2199707z M12.2000122,130.0999756c0,2.4852905-2.0147705,4.5-4.5,4.5c-2.4852905,0-4.5-2.0147095-4.5-4.5
		s2.0147095-4.5,4.5-4.5C10.1852417,125.5999756,12.2000122,127.6146851,12.2000122,130.0999756z M17.8214111,80.2575073
		c0,0.9785767-0.7932739,1.7718506-1.7718506,1.7718506s-1.7719116-0.7932739-1.7719116-1.7718506
		c0-0.9786377,0.793335-1.7719116,1.7719116-1.7719116S17.8214111,79.2788696,17.8214111,80.2575073z M10.8043823,80.2575073
		c0,0.9785767-0.7932739,1.7718506-1.7718506,1.7718506s-1.7719116-0.7932739-1.7719116-1.7718506
		c0-0.9786377,0.793335-1.7719116,1.7719116-1.7719116S10.8043823,79.2788696,10.8043823,80.2575073z M17.8214111,72.8874512
		c0,0.9785767-0.7932739,1.7718506-1.7718506,1.7718506s-1.7719116-0.7932739-1.7719116-1.7718506
		c0-0.9786377,0.793335-1.7719116,1.7719116-1.7719116S17.8214111,71.9088135,17.8214111,72.8874512z M10.8043823,72.8874512
		c0,0.9785767-0.7932739,1.7718506-1.7718506,1.7718506s-1.7719116-0.7932739-1.7719116-1.7718506
		c0-0.9786377,0.793335-1.7719116,1.7719116-1.7719116S10.8043823,71.9088135,10.8043823,72.8874512z M17.8214111,65.517334
		c0,0.9785767-0.7932739,1.7718506-1.7718506,1.7718506s-1.7719116-0.7932739-1.7719116-1.7718506
		c0-0.9786377,0.793335-1.7719116,1.7719116-1.7719116S17.8214111,64.5386963,17.8214111,65.517334z M10.8043823,65.517334
		c0,0.9785767-0.7932739,1.7718506-1.7718506,1.7718506s-1.7719116-0.7932739-1.7719116-1.7718506
		c0-0.9786377,0.793335-1.7719116,1.7719116-1.7719116S10.8043823,64.5386963,10.8043823,65.517334z M12.2000122,50.8999634
		c0,2.4852905-2.0147705,4.5-4.5,4.5c-2.4852905,0-4.5-2.0147095-4.5-4.5s2.0147095-4.5,4.5-4.5
		C10.1852417,46.3999634,12.2000122,48.4146729,12.2000122,50.8999634z M156.1999512,7.6999531c0,2.4852905-2.0147095,4.5-4.5,4.5
		s-4.5-2.0147095-4.5-4.5c0-2.4852295,2.0147095-4.5,4.5-4.5S156.1999512,5.2147236,156.1999512,7.6999531z"/>
	<g id="Отверстия_2_">
		<path class="st1" d="M16.0495605,68.1970444c1.4799194,0,2.6796875-1.1997681,2.6796875-2.6796875
			c0-1.4799805-1.1997681-2.6796951-2.6796875-2.6796951c-1.4799805,0-2.6796875,1.1997147-2.6796875,2.6796951
			C13.369873,66.9972763,14.5695801,68.1970444,16.0495605,68.1970444z M16.0495605,67.2892075
			c-0.9785767,0-1.7719116-0.7932739-1.7719116-1.7718506c0-0.9786377,0.793335-1.7719193,1.7719116-1.7719193
			s1.7718506,0.7932816,1.7718506,1.7719193C17.8214111,66.4959335,17.0281372,67.2892075,16.0495605,67.2892075z"/>
		<path class="st1" d="M16.0495605,75.5671234c1.4799194,0,2.6796875-1.1997681,2.6796875-2.6796875
			c0-1.4799805-1.1997681-2.6796875-2.6796875-2.6796875c-1.4799805,0-2.6796875,1.199707-2.6796875,2.6796875
			C13.369873,74.3673553,14.5695801,75.5671234,16.0495605,75.5671234z M16.0495605,74.6592865
			c-0.9785767,0-1.7719116-0.7932739-1.7719116-1.7718506c0-0.9786377,0.793335-1.7719116,1.7719116-1.7719116
			s1.7718506,0.7932739,1.7718506,1.7719116C17.8214111,73.8660126,17.0281372,74.6592865,16.0495605,74.6592865z"/>
		<path class="st1" d="M16.0495605,82.9372025c1.4799194,0,2.6796875-1.1997681,2.6796875-2.6796875
			c0-1.4799805-1.1997681-2.6796875-2.6796875-2.6796875c-1.4799805,0-2.6796875,1.199707-2.6796875,2.6796875
			C13.369873,81.7374344,14.5695801,82.9372025,16.0495605,82.9372025z M16.0495605,82.0293655
			c-0.9785767,0-1.7719116-0.7932739-1.7719116-1.7718506c0-0.9786377,0.793335-1.7719116,1.7719116-1.7719116
			s1.7718506,0.7932739,1.7718506,1.7719116C17.8214111,81.2360916,17.0281372,82.0293655,16.0495605,82.0293655z"/>
		<path class="st1" d="M9.0325165,75.5671234c1.4799194,0,2.6796875-1.1997681,2.6796875-2.6796875
			c0-1.4799805-1.1997681-2.6796875-2.6796875-2.6796875c-1.4799805,0-2.6796875,1.199707-2.6796875,2.6796875
			C6.352829,74.3673553,7.552536,75.5671234,9.0325165,75.5671234z M9.0325165,74.6592865
			c-0.9785767,0-1.7719116-0.7932739-1.7719116-1.7718506c0-0.9786377,0.793335-1.7719116,1.7719116-1.7719116
			s1.7718506,0.7932739,1.7718506,1.7719116C10.8043671,73.8660126,10.0110931,74.6592865,9.0325165,74.6592865z"/>
		<path class="st1" d="M9.0325165,68.1970444c1.4799194,0,2.6796875-1.1997681,2.6796875-2.6796875
			c0-1.4799805-1.1997681-2.6796951-2.6796875-2.6796951c-1.4799805,0-2.6796875,1.1997147-2.6796875,2.6796951
			C6.352829,66.9972763,7.552536,68.1970444,9.0325165,68.1970444z M9.0325165,67.2892075
			c-0.9785767,0-1.7719116-0.7932739-1.7719116-1.7718506c0-0.9786377,0.793335-1.7719193,1.7719116-1.7719193
			s1.7718506,0.7932816,1.7718506,1.7719193C10.8043671,66.4959335,10.0110931,67.2892075,9.0325165,67.2892075z"/>
		<path class="st2" d="M6.2886963,82.9361038h5.3560791v-5.3560791H6.2886963V82.9361038z M10.8043823,80.257515
			c0,0.9786377-0.7932739,1.7719116-1.7718506,1.7719116s-1.7719116-0.7932739-1.7719116-1.7719116
			c0-0.9785767,0.793335-1.7718506,1.7719116-1.7718506S10.8043823,79.2789383,10.8043823,80.257515z"/>
		<g id="Колодка_прав_верх_3_">
			<g>
				<path class="st3" d="M113.8122253,15.6267719c0,1.2273712-1.0018387,2.2224731-2.2397385,2.2224731
					c-1.2378922,0-2.241539-0.9951019-2.241539-2.2224731c0-1.227356,1.0036469-2.2224731,2.241539-2.2224731
					C112.8103867,13.4042988,113.8122253,14.399416,113.8122253,15.6267719z"/>
				<ellipse class="st4" cx="111.5715866" cy="15.6267719" rx="1.531601" ry="1.5185699"/>
			</g>
			<g>
				<path class="st3" d="M113.8122253,22.8551197c0,1.2273712-1.0018387,2.2224731-2.2397385,2.2224731
					c-1.2378922,0-2.241539-0.9951019-2.241539-2.2224731c0-1.227356,1.0036469-2.2224731,2.241539-2.2224731
					C112.8103867,20.6326466,113.8122253,21.6277637,113.8122253,22.8551197z"/>
				<ellipse class="st4" cx="111.5715866" cy="22.8551197" rx="1.531601" ry="1.5185699"/>
			</g>
			<g>
				<path class="st3" d="M113.8122253,30.0834675c0,1.2273636-1.0018387,2.2224712-2.2397385,2.2224712
					c-1.2378922,0-2.241539-0.9951077-2.241539-2.2224712s1.0036469-2.2224731,2.241539-2.2224731
					C112.8103867,27.8609943,113.8122253,28.8561039,113.8122253,30.0834675z"/>
				<ellipse class="st4" cx="111.5715866" cy="30.0834675" rx="1.531601" ry="1.5185699"/>
			</g>
		</g>
		<g id="Колодка_прав_верх_4_">
			<g>
				<path class="st3" d="M106.5945129,15.6267719c0,1.2273712-1.0018463,2.2224731-2.2397385,2.2224731
					s-2.2415466-0.9951019-2.2415466-2.2224731c0-1.227356,1.0036545-2.2224731,2.2415466-2.2224731
					S106.5945129,14.399416,106.5945129,15.6267719z"/>
				<ellipse class="st4" cx="104.3538742" cy="15.6267719" rx="1.531601" ry="1.5185699"/>
			</g>
			<g>
				<path class="st3" d="M106.5945129,22.8551197c0,1.2273712-1.0018463,2.2224731-2.2397385,2.2224731
					s-2.2415466-0.9951019-2.2415466-2.2224731c0-1.227356,1.0036545-2.2224731,2.2415466-2.2224731
					S106.5945129,21.6277637,106.5945129,22.8551197z"/>
				<ellipse class="st4" cx="104.3538742" cy="22.8551197" rx="1.531601" ry="1.5185699"/>
			</g>
			<g>
				<path class="st3" d="M106.5945129,30.0834675c0,1.2273636-1.0018463,2.2224712-2.2397385,2.2224712
					s-2.2415466-0.9951077-2.2415466-2.2224712s1.0036545-2.2224731,2.2415466-2.2224731
					S106.5945129,28.8561039,106.5945129,30.0834675z"/>
				<ellipse class="st4" cx="104.3538742" cy="30.0834675" rx="1.531601" ry="1.5185699"/>
			</g>
		</g>
		<g id="Колодка_прав_верх_5_">
			<g>
				<path class="st3" d="M99.3423233,15.6267719c0,1.2273712-1.0018463,2.2224731-2.2397385,2.2224731
					s-2.2415466-0.9951019-2.2415466-2.2224731c0-1.227356,1.0036545-2.2224731,2.2415466-2.2224731
					S99.3423233,14.399416,99.3423233,15.6267719z"/>
				<ellipse class="st4" cx="97.1016846" cy="15.6267719" rx="1.531601" ry="1.5185699"/>
			</g>
			<g>
				<path class="st3" d="M99.3423233,22.8551197c0,1.2273712-1.0018463,2.2224731-2.2397385,2.2224731
					s-2.2415466-0.9951019-2.2415466-2.2224731c0-1.227356,1.0036545-2.2224731,2.2415466-2.2224731
					S99.3423233,21.6277637,99.3423233,22.8551197z"/>
				<ellipse class="st4" cx="97.1016846" cy="22.8551197" rx="1.531601" ry="1.5185699"/>
			</g>
			<g>
				<path class="st3" d="M99.3423233,30.0834675c0,1.2273636-1.0018463,2.2224712-2.2397385,2.2224712
					s-2.2415466-0.9951077-2.2415466-2.2224712s1.0036545-2.2224731,2.2415466-2.2224731
					S99.3423233,28.8561039,99.3423233,30.0834675z"/>
				<ellipse class="st4" cx="97.1016846" cy="30.0834675" rx="1.531601" ry="1.5185699"/>
			</g>
		</g>
		<g id="Колодка_прав_верх_9_">
			<g>
				<path class="st3" d="M92.358429,15.6267719c0,1.2273712-1.0018463,2.2224731-2.2397385,2.2224731
					s-2.241539-0.9951019-2.241539-2.2224731c0-1.227356,1.0036469-2.2224731,2.241539-2.2224731
					S92.358429,14.399416,92.358429,15.6267719z"/>
				<ellipse class="st4" cx="90.1177902" cy="15.6267719" rx="1.531601" ry="1.5185699"/>
			</g>
			<g>
				<path class="st3" d="M147.677063,16.8538837c0,1.2273712-1.0018463,2.2224731-2.2397461,2.2224731
					c-1.2378845,0-2.2415466-0.9951019-2.2415466-2.2224731c0-1.227356,1.0036621-2.2224731,2.2415466-2.2224731
					C146.6752167,14.6314106,147.677063,15.6265278,147.677063,16.8538837z"/>
				<ellipse class="st4" cx="145.4364166" cy="16.8538837" rx="1.531601" ry="1.5185699"/>
			</g>
			<g>
				<path class="st3" d="M140.4593506,16.8538837c0,1.2273712-1.0018616,2.2224731-2.2397461,2.2224731
					c-1.2378998,0-2.2415466-0.9951019-2.2415466-2.2224731c0-1.227356,1.0036469-2.2224731,2.2415466-2.2224731
					C139.457489,14.6314106,140.4593506,15.6265278,140.4593506,16.8538837z"/>
				<ellipse class="st4" cx="138.2187042" cy="16.8538837" rx="1.531601" ry="1.5185699"/>
			</g>
			<g>
				<path class="st3" d="M133.2071533,16.8538837c0,1.2273712-1.0018463,2.2224731-2.2397461,2.2224731
					c-1.2378845,0-2.2415466-0.9951019-2.2415466-2.2224731c0-1.227356,1.0036621-2.2224731,2.2415466-2.2224731
					C132.205307,14.6314106,133.2071533,15.6265278,133.2071533,16.8538837z"/>
				<ellipse class="st4" cx="130.9665222" cy="16.8538837" rx="1.531601" ry="1.5185699"/>
			</g>
			<g>
				<path class="st3" d="M126.223259,16.8538837c0,1.2273712-1.0018463,2.2224731-2.2397385,2.2224731
					s-2.241539-0.9951019-2.241539-2.2224731c0-1.227356,1.0036469-2.2224731,2.241539-2.2224731
					S126.223259,15.6265278,126.223259,16.8538837z"/>
				<ellipse class="st4" cx="123.9826202" cy="16.8538837" rx="1.531601" ry="1.5185699"/>
			</g>
			<g>
				<path class="st3" d="M145.8518829,142.4873505c0,1.2273712-1.0018463,2.2224731-2.2397308,2.2224731
					c-1.2378998,0-2.2415466-0.9951019-2.2415466-2.2224731c0-1.227356,1.0036469-2.2224731,2.2415466-2.2224731
					C144.8500366,140.2648773,145.8518829,141.2599945,145.8518829,142.4873505z"/>
				<ellipse class="st4" cx="143.6112366" cy="142.4873505" rx="1.531601" ry="1.5185699"/>
			</g>
			<g>
				<path class="st3" d="M138.5997009,142.4873505c0,1.2273712-1.0018616,2.2224731-2.2397461,2.2224731
					c-1.2378998,0-2.2415466-0.9951019-2.2415466-2.2224731c0-1.227356,1.0036469-2.2224731,2.2415466-2.2224731
					C137.5978394,140.2648773,138.5997009,141.2599945,138.5997009,142.4873505z"/>
				<ellipse class="st4" cx="136.3590546" cy="142.4873505" rx="1.531601" ry="1.5185699"/>
			</g>
			<g>
				<path class="st3" d="M131.615799,142.4873505c0,1.2273712-1.0018463,2.2224731-2.2397308,2.2224731
					c-1.2378998,0-2.2415466-0.9951019-2.2415466-2.2224731c0-1.227356,1.0036469-2.2224731,2.2415466-2.2224731
					C130.6139526,140.2648773,131.615799,141.2599945,131.615799,142.4873505z"/>
				<ellipse class="st4" cx="129.3751526" cy="142.4873505" rx="1.531601" ry="1.5185699"/>
			</g>
			<g>
				<path class="st3" d="M92.358429,22.8551197c0,1.2273712-1.0018463,2.2224731-2.2397385,2.2224731
					s-2.241539-0.9951019-2.241539-2.2224731c0-1.227356,1.0036469-2.2224731,2.241539-2.2224731
					S92.358429,21.6277637,92.358429,22.8551197z"/>
				<ellipse class="st4" cx="90.1177902" cy="22.8551197" rx="1.531601" ry="1.5185699"/>
			</g>
			<g>
				<path class="st3" d="M92.358429,30.0834675c0,1.2273636-1.0018463,2.2224712-2.2397385,2.2224712
					s-2.241539-0.9951077-2.241539-2.2224712s1.0036469-2.2224731,2.241539-2.2224731S92.358429,28.8561039,92.358429,30.0834675z"
					/>
				<ellipse class="st4" cx="90.1177902" cy="30.0834675" rx="1.531601" ry="1.5185699"/>
			</g>
		</g>
		<g id="Колодка_прав_верх_8_">
			<g>
				<path class="st3" d="M85.1062393,15.6267719c0,1.2273712-1.0018463,2.2224731-2.2397385,2.2224731
					s-2.241539-0.9951019-2.241539-2.2224731c0-1.227356,1.0036469-2.2224731,2.241539-2.2224731
					S85.1062393,14.399416,85.1062393,15.6267719z"/>
				<ellipse class="st4" cx="82.8656006" cy="15.6267719" rx="1.531601" ry="1.5185699"/>
			</g>
			<g>
				<path class="st3" d="M85.1062393,22.8551197c0,1.2273712-1.0018463,2.2224731-2.2397385,2.2224731
					s-2.241539-0.9951019-2.241539-2.2224731c0-1.227356,1.0036469-2.2224731,2.241539-2.2224731
					S85.1062393,21.6277637,85.1062393,22.8551197z"/>
				<ellipse class="st4" cx="82.8656006" cy="22.8551197" rx="1.531601" ry="1.5185699"/>
			</g>
			<g>
				<path class="st3" d="M85.1062393,30.0834675c0,1.2273636-1.0018463,2.2224712-2.2397385,2.2224712
					s-2.241539-0.9951077-2.241539-2.2224712s1.0036469-2.2224731,2.241539-2.2224731S85.1062393,28.8561039,85.1062393,30.0834675z
					"/>
				<ellipse class="st4" cx="82.8656006" cy="30.0834675" rx="1.531601" ry="1.5185699"/>
			</g>
		</g>
		<g id="Колодка_прав_верх_7_">
			<g>
				<path class="st3" d="M77.8885269,15.6267719c0,1.2273712-1.0018463,2.2224731-2.2397461,2.2224731
					c-1.2378922,0-2.241539-0.9951019-2.241539-2.2224731c0-1.227356,1.0036469-2.2224731,2.241539-2.2224731
					C76.8866806,13.4042988,77.8885269,14.399416,77.8885269,15.6267719z"/>
				<ellipse class="st4" cx="75.6478806" cy="15.6267719" rx="1.531601" ry="1.5185699"/>
			</g>
			<g>
				<path class="st3" d="M77.8885269,22.8551197c0,1.2273712-1.0018463,2.2224731-2.2397461,2.2224731
					c-1.2378922,0-2.241539-0.9951019-2.241539-2.2224731c0-1.227356,1.0036469-2.2224731,2.241539-2.2224731
					C76.8866806,20.6326466,77.8885269,21.6277637,77.8885269,22.8551197z"/>
				<ellipse class="st4" cx="75.6478806" cy="22.8551197" rx="1.531601" ry="1.5185699"/>
			</g>
			<g>
				<path class="st3" d="M77.8885269,30.0834675c0,1.2273636-1.0018463,2.2224712-2.2397461,2.2224712
					c-1.2378922,0-2.241539-0.9951077-2.241539-2.2224712s1.0036469-2.2224731,2.241539-2.2224731
					C76.8866806,27.8609943,77.8885269,28.8561039,77.8885269,30.0834675z"/>
				<ellipse class="st4" cx="75.6478806" cy="30.0834675" rx="1.531601" ry="1.5185699"/>
			</g>
		</g>
		<g id="Колодка_прав_верх_15_">
			<g>
				<path class="st3" d="M70.8966293,15.6267719c0,1.2273712-1.0018463,2.2224731-2.2397385,2.2224731
					s-2.2415466-0.9951019-2.2415466-2.2224731c0-1.227356,1.0036545-2.2224731,2.2415466-2.2224731
					S70.8966293,14.399416,70.8966293,15.6267719z"/>
				<ellipse class="st4" cx="68.6559906" cy="15.6267719" rx="1.531601" ry="1.5185699"/>
			</g>
			<g>
				<path class="st3" d="M70.8966293,22.8551197c0,1.2273712-1.0018463,2.2224731-2.2397385,2.2224731
					s-2.2415466-0.9951019-2.2415466-2.2224731c0-1.227356,1.0036545-2.2224731,2.2415466-2.2224731
					S70.8966293,21.6277637,70.8966293,22.8551197z"/>
				<ellipse class="st4" cx="68.6559906" cy="22.8551197" rx="1.531601" ry="1.5185699"/>
			</g>
			<g>
				<path class="st3" d="M70.8966293,30.0834675c0,1.2273636-1.0018463,2.2224712-2.2397385,2.2224712
					s-2.2415466-0.9951077-2.2415466-2.2224712s1.0036545-2.2224731,2.2415466-2.2224731
					S70.8966293,28.8561039,70.8966293,30.0834675z"/>
				<ellipse class="st4" cx="68.6559906" cy="30.0834675" rx="1.531601" ry="1.5185699"/>
			</g>
		</g>
		<g id="Колодка_прав_верх_14_">
			<g>
				<path class="st3" d="M63.6444397,15.6267719c0,1.2273712-1.0018463,2.2224731-2.2397461,2.2224731
					c-1.2378845,0-2.2415314-0.9951019-2.2415314-2.2224731c0-1.227356,1.0036469-2.2224731,2.2415314-2.2224731
					C62.6425934,13.4042988,63.6444397,14.399416,63.6444397,15.6267719z"/>
				<ellipse class="st4" cx="61.4037933" cy="15.6267719" rx="1.531601" ry="1.5185699"/>
			</g>
			<g>
				<path class="st3" d="M63.6444397,22.8551197c0,1.2273712-1.0018463,2.2224731-2.2397461,2.2224731
					c-1.2378845,0-2.2415314-0.9951019-2.2415314-2.2224731c0-1.227356,1.0036469-2.2224731,2.2415314-2.2224731
					C62.6425934,20.6326466,63.6444397,21.6277637,63.6444397,22.8551197z"/>
				<ellipse class="st4" cx="61.4037933" cy="22.8551197" rx="1.531601" ry="1.5185699"/>
			</g>
			<g>
				<path class="st3" d="M63.6444397,30.0834675c0,1.2273636-1.0018463,2.2224712-2.2397461,2.2224712
					c-1.2378845,0-2.2415314-0.9951077-2.2415314-2.2224712s1.0036469-2.2224731,2.2415314-2.2224731
					C62.6425934,27.8609943,63.6444397,28.8561039,63.6444397,30.0834675z"/>
				<ellipse class="st4" cx="61.4037933" cy="30.0834675" rx="1.531601" ry="1.5185699"/>
			</g>
		</g>
		<g id="Колодка_прав_верх_13_">
			<g>
				<path class="st3" d="M56.4267273,15.6267719c0,1.2273712-1.0018463,2.2224731-2.2397461,2.2224731
					c-1.2378845,0-2.2415466-0.9951019-2.2415466-2.2224731c0-1.227356,1.0036621-2.2224731,2.2415466-2.2224731
					C55.424881,13.4042988,56.4267273,14.399416,56.4267273,15.6267719z"/>
				<ellipse class="st4" cx="54.1860809" cy="15.6267719" rx="1.531601" ry="1.5185699"/>
			</g>
			<g>
				<path class="st3" d="M56.4267273,22.8551197c0,1.2273712-1.0018463,2.2224731-2.2397461,2.2224731
					c-1.2378845,0-2.2415466-0.9951019-2.2415466-2.2224731c0-1.227356,1.0036621-2.2224731,2.2415466-2.2224731
					C55.424881,20.6326466,56.4267273,21.6277637,56.4267273,22.8551197z"/>
				<ellipse class="st4" cx="54.1860809" cy="22.8551197" rx="1.531601" ry="1.5185699"/>
			</g>
			<g>
				<path class="st3" d="M56.4267273,30.0834675c0,1.2273636-1.0018463,2.2224712-2.2397461,2.2224712
					c-1.2378845,0-2.2415466-0.9951077-2.2415466-2.2224712s1.0036621-2.2224731,2.2415466-2.2224731
					C55.424881,27.8609943,56.4267273,28.8561039,56.4267273,30.0834675z"/>
				<ellipse class="st4" cx="54.1860809" cy="30.0834675" rx="1.531601" ry="1.5185699"/>
			</g>
		</g>
		<g id="Колодка_прав_верх_12_">
			<g>
				<path class="st3" d="M49.4428253,15.6267719c0,1.2273712-1.0018463,2.2224731-2.2397308,2.2224731
					c-1.2378998,0-2.2415466-0.9951019-2.2415466-2.2224731c0-1.227356,1.0036469-2.2224731,2.2415466-2.2224731
					C48.440979,13.4042988,49.4428253,14.399416,49.4428253,15.6267719z"/>
				<ellipse class="st4" cx="47.2021942" cy="15.6267719" rx="1.531601" ry="1.5185699"/>
			</g>
			<g>
				<path class="st3" d="M49.4428253,22.8551197c0,1.2273712-1.0018463,2.2224731-2.2397308,2.2224731
					c-1.2378998,0-2.2415466-0.9951019-2.2415466-2.2224731c0-1.227356,1.0036469-2.2224731,2.2415466-2.2224731
					C48.440979,20.6326466,49.4428253,21.6277637,49.4428253,22.8551197z"/>
				<ellipse class="st4" cx="47.2021942" cy="22.8551197" rx="1.531601" ry="1.5185699"/>
			</g>
			<g>
				<path class="st3" d="M49.4428253,30.0834675c0,1.2273636-1.0018463,2.2224712-2.2397308,2.2224712
					c-1.2378998,0-2.2415466-0.9951077-2.2415466-2.2224712s1.0036469-2.2224731,2.2415466-2.2224731
					C48.440979,27.8609943,49.4428253,28.8561039,49.4428253,30.0834675z"/>
				<ellipse class="st4" cx="47.2021942" cy="30.0834675" rx="1.531601" ry="1.5185699"/>
			</g>
			<g>
				<path class="st3" d="M70.8966293,37.6058044c0,1.227356-1.0018463,2.2224731-2.2397385,2.2224731
					s-2.2415466-0.9951172-2.2415466-2.2224731c0-1.2273636,1.0036545-2.2224731,2.2415466-2.2224731
					S70.8966293,36.3784409,70.8966293,37.6058044z"/>
				<ellipse class="st4" cx="68.6559906" cy="37.6058044" rx="1.531601" ry="1.5185699"/>
			</g>
			<g>
				<path class="st3" d="M63.6444397,37.6058044c0,1.227356-1.0018463,2.2224731-2.2397461,2.2224731
					c-1.2378845,0-2.2415314-0.9951172-2.2415314-2.2224731c0-1.2273636,1.0036469-2.2224731,2.2415314-2.2224731
					C62.6425934,35.3833313,63.6444397,36.3784409,63.6444397,37.6058044z"/>
				<ellipse class="st4" cx="61.4037933" cy="37.6058044" rx="1.531601" ry="1.5185699"/>
			</g>
			<g>
				<path class="st3" d="M56.4267273,37.6058044c0,1.227356-1.0018463,2.2224731-2.2397461,2.2224731
					c-1.2378845,0-2.2415466-0.9951172-2.2415466-2.2224731c0-1.2273636,1.0036621-2.2224731,2.2415466-2.2224731
					C55.424881,35.3833313,56.4267273,36.3784409,56.4267273,37.6058044z"/>
				<ellipse class="st4" cx="54.1860809" cy="37.6058044" rx="1.531601" ry="1.5185699"/>
			</g>
			<g>
				<path class="st3" d="M49.4428253,37.6058044c0,1.227356-1.0018463,2.2224731-2.2397308,2.2224731
					c-1.2378998,0-2.2415466-0.9951172-2.2415466-2.2224731c0-1.2273636,1.0036469-2.2224731,2.2415466-2.2224731
					C48.440979,35.3833313,49.4428253,36.3784409,49.4428253,37.6058044z"/>
				<ellipse class="st4" cx="47.2021942" cy="37.6058044" rx="1.531601" ry="1.5185699"/>
			</g>
		</g>
		<g id="Колодка_прав_верх_11_">
			<g>
				<path class="st3" d="M42.1906433,15.6267719c0,1.2273712-1.0018463,2.2224731-2.2397461,2.2224731
					c-1.2378845,0-2.2415466-0.9951019-2.2415466-2.2224731c0-1.227356,1.0036621-2.2224731,2.2415466-2.2224731
					C41.188797,13.4042988,42.1906433,14.399416,42.1906433,15.6267719z"/>
				<ellipse class="st4" cx="39.9499969" cy="15.6267719" rx="1.531601" ry="1.5185699"/>
			</g>
			<g>
				<path class="st3" d="M42.1906433,22.8551197c0,1.2273712-1.0018463,2.2224731-2.2397461,2.2224731
					c-1.2378845,0-2.2415466-0.9951019-2.2415466-2.2224731c0-1.227356,1.0036621-2.2224731,2.2415466-2.2224731
					C41.188797,20.6326466,42.1906433,21.6277637,42.1906433,22.8551197z"/>
				<ellipse class="st4" cx="39.9499969" cy="22.8551197" rx="1.531601" ry="1.5185699"/>
			</g>
			<g>
				<path class="st3" d="M42.1906433,30.0834675c0,1.2273636-1.0018463,2.2224712-2.2397461,2.2224712
					c-1.2378845,0-2.2415466-0.9951077-2.2415466-2.2224712s1.0036621-2.2224731,2.2415466-2.2224731
					C41.188797,27.8609943,42.1906433,28.8561039,42.1906433,30.0834675z"/>
				<ellipse class="st4" cx="39.9499969" cy="30.0834675" rx="1.531601" ry="1.5185699"/>
			</g>
		</g>
		<g id="Колодка_прав_верх_10_">
			<g>
				<path class="st3" d="M34.9729156,15.6267719c0,1.2273712-1.0018463,2.2224731-2.2397308,2.2224731
					c-1.2378998,0-2.2415466-0.9951019-2.2415466-2.2224731c0-1.227356,1.0036469-2.2224731,2.2415466-2.2224731
					C33.9710693,13.4042988,34.9729156,14.399416,34.9729156,15.6267719z"/>
				<ellipse class="st4" cx="32.7322845" cy="15.6267719" rx="1.531601" ry="1.5185699"/>
			</g>
			<g>
				<path class="st3" d="M34.9729156,22.8551197c0,1.2273712-1.0018463,2.2224731-2.2397308,2.2224731
					c-1.2378998,0-2.2415466-0.9951019-2.2415466-2.2224731c0-1.227356,1.0036469-2.2224731,2.2415466-2.2224731
					C33.9710693,20.6326466,34.9729156,21.6277637,34.9729156,22.8551197z"/>
				<ellipse class="st4" cx="32.7322845" cy="22.8551197" rx="1.531601" ry="1.5185699"/>
			</g>
			<g>
				<path class="st3" d="M34.9729156,30.0834675c0,1.2273636-1.0018463,2.2224712-2.2397308,2.2224712
					c-1.2378998,0-2.2415466-0.9951077-2.2415466-2.2224712s1.0036469-2.2224731,2.2415466-2.2224731
					C33.9710693,27.8609943,34.9729156,28.8561039,34.9729156,30.0834675z"/>
				<ellipse class="st4" cx="32.7322845" cy="30.0834675" rx="1.531601" ry="1.5185699"/>
			</g>
		</g>
		<g id="Колодка_прав_верх_17_">
			<g>
				<path class="st3" d="M27.7908478,15.6267719c0,1.2273712-1.0018463,2.2224731-2.2397308,2.2224731
					c-1.2378998,0-2.2415466-0.9951019-2.2415466-2.2224731c0-1.227356,1.0036469-2.2224731,2.2415466-2.2224731
					C26.7890015,13.4042988,27.7908478,14.399416,27.7908478,15.6267719z"/>
				<ellipse class="st4" cx="25.5502167" cy="15.6267719" rx="1.531601" ry="1.5185699"/>
			</g>
			<g>
				<path class="st3" d="M27.7908478,22.8551197c0,1.2273712-1.0018463,2.2224731-2.2397308,2.2224731
					c-1.2378998,0-2.2415466-0.9951019-2.2415466-2.2224731c0-1.227356,1.0036469-2.2224731,2.2415466-2.2224731
					C26.7890015,20.6326466,27.7908478,21.6277637,27.7908478,22.8551197z"/>
				<ellipse class="st4" cx="25.5502167" cy="22.8551197" rx="1.531601" ry="1.5185699"/>
			</g>
			<g>
				<path class="st3" d="M27.7908478,30.0834675c0,1.2273636-1.0018463,2.2224712-2.2397308,2.2224712
					c-1.2378998,0-2.2415466-0.9951077-2.2415466-2.2224712s1.0036469-2.2224731,2.2415466-2.2224731
					C26.7890015,27.8609943,27.7908478,28.8561039,27.7908478,30.0834675z"/>
				<ellipse class="st4" cx="25.5502167" cy="30.0834675" rx="1.531601" ry="1.5185699"/>
			</g>
		</g>
		<g id="Колодка_прав_верх_16_">
			<g>
				<path class="st3" d="M20.5731354,15.6267719c0,1.2273712-1.0018463,2.2224731-2.2397461,2.2224731
					c-1.2378845,0-2.2415314-0.9951019-2.2415314-2.2224731c0-1.227356,1.0036469-2.2224731,2.2415314-2.2224731
					C19.5712891,13.4042988,20.5731354,14.399416,20.5731354,15.6267719z"/>
				<ellipse class="st4" cx="18.332489" cy="15.6267719" rx="1.531601" ry="1.5185699"/>
			</g>
			<g>
				<path class="st3" d="M20.5731354,22.8551197c0,1.2273712-1.0018463,2.2224731-2.2397461,2.2224731
					c-1.2378845,0-2.2415314-0.9951019-2.2415314-2.2224731c0-1.227356,1.0036469-2.2224731,2.2415314-2.2224731
					C19.5712891,20.6326466,20.5731354,21.6277637,20.5731354,22.8551197z"/>
				<ellipse class="st4" cx="18.332489" cy="22.8551197" rx="1.531601" ry="1.5185699"/>
			</g>
			<g>
				<path class="st3" d="M20.5731354,30.0834675c0,1.2273636-1.0018463,2.2224712-2.2397461,2.2224712
					c-1.2378845,0-2.2415314-0.9951077-2.2415314-2.2224712s1.0036469-2.2224731,2.2415314-2.2224731
					C19.5712891,27.8609943,20.5731354,28.8561039,20.5731354,30.0834675z"/>
				<ellipse class="st4" cx="18.332489" cy="30.0834675" rx="1.531601" ry="1.5185699"/>
			</g>
		</g>
		<g id="Колодка_прав_верх_27_">
			<g>
				<path class="st3" d="M54.1586456,123.3179779c0,1.2273636-1.0018463,2.2224731-2.2397461,2.2224731
					c-1.2378845,0-2.2415314-0.9951096-2.2415314-2.2224731s1.0036469-2.2224731,2.2415314-2.2224731
					C53.1567993,121.0955048,54.1586456,122.0906143,54.1586456,123.3179779z"/>
				<ellipse class="st4" cx="51.9179993" cy="123.3179779" rx="1.531601" ry="1.5185699"/>
			</g>
			<g>
				<path class="st3" d="M54.1586456,130.5463257c0,1.227356-1.0018463,2.2224731-2.2397461,2.2224731
					c-1.2378845,0-2.2415314-0.9951172-2.2415314-2.2224731c0-1.2273712,1.0036469-2.2224731,2.2415314-2.2224731
					C53.1567993,128.3238525,54.1586456,129.3189545,54.1586456,130.5463257z"/>
				<ellipse class="st4" cx="51.9179993" cy="130.5463257" rx="1.531601" ry="1.5185699"/>
			</g>
			<g>
				<path class="st3" d="M54.1586456,137.7746735c0,1.227356-1.0018463,2.2224731-2.2397461,2.2224731
					c-1.2378845,0-2.2415314-0.9951172-2.2415314-2.2224731c0-1.2273712,1.0036469-2.2224731,2.2415314-2.2224731
					C53.1567993,135.5522003,54.1586456,136.5473022,54.1586456,137.7746735z"/>
				<ellipse class="st4" cx="51.9179993" cy="137.7746735" rx="1.531601" ry="1.5185699"/>
			</g>
		</g>
		<g>
			<path class="st3" d="M47.1747589,123.3179779c0,1.2273636-1.0018463,2.2224731-2.2397461,2.2224731
				c-1.2378845,0-2.2415466-0.9951096-2.2415466-2.2224731s1.0036621-2.2224731,2.2415466-2.2224731
				C46.1729126,121.0955048,47.1747589,122.0906143,47.1747589,123.3179779z"/>
			<ellipse class="st4" cx="44.9341125" cy="123.3179779" rx="1.531601" ry="1.5185699"/>
		</g>
		<g>
			<path class="st3" d="M47.1747589,130.5463257c0,1.227356-1.0018463,2.2224731-2.2397461,2.2224731
				c-1.2378845,0-2.2415466-0.9951172-2.2415466-2.2224731c0-1.2273712,1.0036621-2.2224731,2.2415466-2.2224731
				C46.1729126,128.3238525,47.1747589,129.3189545,47.1747589,130.5463257z"/>
			<ellipse class="st4" cx="44.9341125" cy="130.5463257" rx="1.531601" ry="1.5185699"/>
		</g>
		<g>
			<path class="st3" d="M47.1747589,137.7746735c0,1.227356-1.0018463,2.2224731-2.2397461,2.2224731
				c-1.2378845,0-2.2415466-0.9951172-2.2415466-2.2224731c0-1.2273712,1.0036621-2.2224731,2.2415466-2.2224731
				C46.1729126,135.5522003,47.1747589,136.5473022,47.1747589,137.7746735z"/>
			<ellipse class="st4" cx="44.9341125" cy="137.7746735" rx="1.531601" ry="1.5185699"/>
		</g>
		<g id="Колодка_прав_верх_26_">
			<g>
				<path class="st3" d="M39.9225616,123.3179779c0,1.2273636-1.0018463,2.2224731-2.2397308,2.2224731
					c-1.2378998,0-2.2415466-0.9951096-2.2415466-2.2224731s1.0036469-2.2224731,2.2415466-2.2224731
					C38.9207153,121.0955048,39.9225616,122.0906143,39.9225616,123.3179779z"/>
				<ellipse class="st4" cx="37.6819153" cy="123.3179779" rx="1.531601" ry="1.5185699"/>
			</g>
			<g>
				<path class="st3" d="M39.9225616,130.5463257c0,1.227356-1.0018463,2.2224731-2.2397308,2.2224731
					c-1.2378998,0-2.2415466-0.9951172-2.2415466-2.2224731c0-1.2273712,1.0036469-2.2224731,2.2415466-2.2224731
					C38.9207153,128.3238525,39.9225616,129.3189545,39.9225616,130.5463257z"/>
				<ellipse class="st4" cx="37.6819153" cy="130.5463257" rx="1.531601" ry="1.5185699"/>
			</g>
			<g>
				<path class="st3" d="M39.9225616,137.7746735c0,1.227356-1.0018463,2.2224731-2.2397308,2.2224731
					c-1.2378998,0-2.2415466-0.9951172-2.2415466-2.2224731c0-1.2273712,1.0036469-2.2224731,2.2415466-2.2224731
					C38.9207153,135.5522003,39.9225616,136.5473022,39.9225616,137.7746735z"/>
				<ellipse class="st4" cx="37.6819153" cy="137.7746735" rx="1.531601" ry="1.5185699"/>
			</g>
		</g>
		<g id="Колодка_прав_верх_25_">
			<g>
				<path class="st3" d="M32.7048492,123.3179779c0,1.2273636-1.0018463,2.2224731-2.2397461,2.2224731
					c-1.2378845,0-2.2415466-0.9951096-2.2415466-2.2224731s1.0036621-2.2224731,2.2415466-2.2224731
					C31.7030029,121.0955048,32.7048492,122.0906143,32.7048492,123.3179779z"/>
				<ellipse class="st4" cx="30.4642029" cy="123.3179779" rx="1.531601" ry="1.5185699"/>
			</g>
			<g>
				<path class="st3" d="M32.7048492,130.5463257c0,1.227356-1.0018463,2.2224731-2.2397461,2.2224731
					c-1.2378845,0-2.2415466-0.9951172-2.2415466-2.2224731c0-1.2273712,1.0036621-2.2224731,2.2415466-2.2224731
					C31.7030029,128.3238525,32.7048492,129.3189545,32.7048492,130.5463257z"/>
				<ellipse class="st4" cx="30.4642029" cy="130.5463257" rx="1.531601" ry="1.5185699"/>
			</g>
			<g>
				<path class="st3" d="M32.7048492,137.7746735c0,1.227356-1.0018463,2.2224731-2.2397461,2.2224731
					c-1.2378845,0-2.2415466-0.9951172-2.2415466-2.2224731c0-1.2273712,1.0036621-2.2224731,2.2415466-2.2224731
					C31.7030029,135.5522003,32.7048492,136.5473022,32.7048492,137.7746735z"/>
				<ellipse class="st4" cx="30.4642029" cy="137.7746735" rx="1.531601" ry="1.5185699"/>
			</g>
		</g>
		<g id="Колодка_прав_верх_6_">
			<g>
				<path class="st3" d="M25.5227661,123.3179779c0,1.2273636-1.0018463,2.2224731-2.2397308,2.2224731
					c-1.2378998,0-2.2415466-0.9951096-2.2415466-2.2224731s1.0036469-2.2224731,2.2415466-2.2224731
					C24.5209198,121.0955048,25.5227661,122.0906143,25.5227661,123.3179779z"/>
				<ellipse class="st4" cx="23.282135" cy="123.3179779" rx="1.531601" ry="1.5185699"/>
			</g>
			<g>
				<path class="st3" d="M25.5227661,130.5463257c0,1.227356-1.0018463,2.2224731-2.2397308,2.2224731
					c-1.2378998,0-2.2415466-0.9951172-2.2415466-2.2224731c0-1.2273712,1.0036469-2.2224731,2.2415466-2.2224731
					C24.5209198,128.3238525,25.5227661,129.3189545,25.5227661,130.5463257z"/>
				<ellipse class="st4" cx="23.282135" cy="130.5463257" rx="1.531601" ry="1.5185699"/>
			</g>
			<g>
				<path class="st3" d="M25.5227661,137.7746735c0,1.227356-1.0018463,2.2224731-2.2397308,2.2224731
					c-1.2378998,0-2.2415466-0.9951172-2.2415466-2.2224731c0-1.2273712,1.0036469-2.2224731,2.2415466-2.2224731
					C24.5209198,135.5522003,25.5227661,136.5473022,25.5227661,137.7746735z"/>
				<ellipse class="st4" cx="23.282135" cy="137.7746735" rx="1.531601" ry="1.5185699"/>
			</g>
		</g>
		<g id="Колодка_прав_верх_2_">
			<g>
				<path class="st3" d="M18.3050537,123.3179779c0,1.2273636-1.0018463,2.2224731-2.2397308,2.2224731
					c-1.2378998,0-2.2415466-0.9951096-2.2415466-2.2224731s1.0036469-2.2224731,2.2415466-2.2224731
					C17.3032074,121.0955048,18.3050537,122.0906143,18.3050537,123.3179779z"/>
				<ellipse class="st4" cx="16.0644226" cy="123.3179779" rx="1.531601" ry="1.5185699"/>
			</g>
			<g>
				<path class="st3" d="M18.3050537,130.5463257c0,1.227356-1.0018463,2.2224731-2.2397308,2.2224731
					c-1.2378998,0-2.2415466-0.9951172-2.2415466-2.2224731c0-1.2273712,1.0036469-2.2224731,2.2415466-2.2224731
					C17.3032074,128.3238525,18.3050537,129.3189545,18.3050537,130.5463257z"/>
				<ellipse class="st4" cx="16.0644226" cy="130.5463257" rx="1.531601" ry="1.5185699"/>
			</g>
			<g>
				<path class="st3" d="M18.3050537,137.7746735c0,1.227356-1.0018463,2.2224731-2.2397308,2.2224731
					c-1.2378998,0-2.2415466-0.9951172-2.2415466-2.2224731c0-1.2273712,1.0036469-2.2224731,2.2415466-2.2224731
					C17.3032074,135.5522003,18.3050537,136.5473022,18.3050537,137.7746735z"/>
				<ellipse class="st4" cx="16.0644226" cy="137.7746735" rx="1.531601" ry="1.5185699"/>
			</g>
		</g>
		<g>
			<path class="st3" d="M168.7560883,135.3000946c1.2273712,0,2.2224731,1.1304932,2.2224731,2.3683929
				c0,1.2378845-0.9951019,2.1128845-2.2224731,2.1128845c-1.227356,0-2.2224731-1.0036469-2.2224731-2.2415466
				C166.5336151,136.3019409,167.5287323,135.3000946,168.7560883,135.3000946z"/>
			<ellipse class="st4" cx="168.7560883" cy="137.540741" rx="1.5185719" ry="1.531601"/>
		</g>
		<g>
			<path class="st3" d="M168.7560883,125.5065842c1.2273712,0,2.2224731,1.1304932,2.2224731,2.3683853
				c0,1.2378845-0.9951019,2.1128998-2.2224731,2.1128998c-1.227356,0-2.2224731-1.0036621-2.2224731-2.2415466
				C166.5336151,126.5084305,167.5287323,125.5065842,168.7560883,125.5065842z"/>
			<ellipse class="st4" cx="168.7560883" cy="127.7472229" rx="1.5185719" ry="1.531601"/>
		</g>
		<g>
			<path class="st3" d="M182.8527222,125.5065842c1.227356,0,2.2224731,1.1304932,2.2224731,2.3683853
				c0,1.2378845-0.9951172,2.1128998-2.2224731,2.1128998c-1.2273712,0-2.2224731-1.0036621-2.2224731-2.2415466
				C180.630249,126.5084305,181.625351,125.5065842,182.8527222,125.5065842z"/>
			<ellipse class="st4" cx="182.8527222" cy="127.7472229" rx="1.5185709" ry="1.531601"/>
		</g>
		<g>
			<path class="st3" d="M182.8527222,135.3000946c1.227356,0,2.2224731,1.1304932,2.2224731,2.3683929
				c0,1.2378845-0.9951172,2.1128845-2.2224731,2.1128845c-1.2273712,0-2.2224731-1.0036469-2.2224731-2.2415466
				C180.630249,136.3019409,181.625351,135.3000946,182.8527222,135.3000946z"/>
			<ellipse class="st4" cx="182.8527222" cy="137.540741" rx="1.5185709" ry="1.531601"/>
		</g>
		<g>
			<path class="st3" d="M168.7560883,102.0008774c1.2273712,0,2.2224731,1.1305008,2.2224731,2.3683929
				s-0.9951019,2.1128922-2.2224731,2.1128922c-1.227356,0-2.2224731-1.0036469-2.2224731-2.2415466
				C166.5336151,103.0027237,167.5287323,102.0008774,168.7560883,102.0008774z"/>
			<ellipse class="st4" cx="168.7560883" cy="104.2415237" rx="1.5185719" ry="1.531601"/>
		</g>
		<g>
			<path class="st3" d="M168.7560883,92.2073669c1.2273712,0,2.2224731,1.1305008,2.2224731,2.3683929
				s-0.9951019,2.1128922-2.2224731,2.1128922c-1.227356,0-2.2224731-1.0036545-2.2224731-2.2415466
				S167.5287323,92.2073669,168.7560883,92.2073669z"/>
			<ellipse class="st4" cx="168.7560883" cy="94.4480057" rx="1.5185719" ry="1.531601"/>
		</g>
		<g>
			<path class="st3" d="M182.8527222,92.2073669c1.227356,0,2.2224731,1.1305008,2.2224731,2.3683929
				s-0.9951172,2.1128922-2.2224731,2.1128922c-1.2273712,0-2.2224731-1.0036545-2.2224731-2.2415466
				S181.625351,92.2073669,182.8527222,92.2073669z"/>
			<ellipse class="st4" cx="182.8527222" cy="94.4480057" rx="1.5185709" ry="1.531601"/>
		</g>
		<g>
			<path class="st3" d="M182.8527222,102.0008774c1.227356,0,2.2224731,1.1305008,2.2224731,2.3683929
				s-0.9951172,2.1128922-2.2224731,2.1128922c-1.2273712,0-2.2224731-1.0036469-2.2224731-2.2415466
				C180.630249,103.0027237,181.625351,102.0008774,182.8527222,102.0008774z"/>
			<ellipse class="st4" cx="182.8527222" cy="104.2415237" rx="1.5185709" ry="1.531601"/>
		</g>
		<g>
			<path class="st3" d="M168.7560883,81.0244598c1.2273712,0,2.2224731,1.1304932,2.2224731,2.3683853
				s-0.9951019,2.1128922-2.2224731,2.1128922c-1.227356,0-2.2224731-1.0036469-2.2224731-2.241539
				S167.5287323,81.0244598,168.7560883,81.0244598z"/>
			<ellipse class="st4" cx="168.7560883" cy="83.2650986" rx="1.5185719" ry="1.531601"/>
		</g>
		<g>
			<path class="st3" d="M168.7560883,71.2309418c1.2273712,0,2.2224731,1.1305008,2.2224731,2.3683929
				s-0.9951019,2.1128922-2.2224731,2.1128922c-1.227356,0-2.2224731-1.0036545-2.2224731-2.2415466
				S167.5287323,71.2309418,168.7560883,71.2309418z"/>
			<ellipse class="st4" cx="168.7560883" cy="73.4715881" rx="1.5185719" ry="1.531601"/>
		</g>
		<g>
			<path class="st3" d="M182.8527222,71.2309418c1.227356,0,2.2224731,1.1305008,2.2224731,2.3683929
				s-0.9951172,2.1128922-2.2224731,2.1128922c-1.2273712,0-2.2224731-1.0036545-2.2224731-2.2415466
				S181.625351,71.2309418,182.8527222,71.2309418z"/>
			<ellipse class="st4" cx="182.8527222" cy="73.4715881" rx="1.5185709" ry="1.531601"/>
		</g>
		<g>
			<path class="st3" d="M182.8527222,81.0244598c1.227356,0,2.2224731,1.1304932,2.2224731,2.3683853
				s-0.9951172,2.1128922-2.2224731,2.1128922c-1.2273712,0-2.2224731-1.0036469-2.2224731-2.241539
				S181.625351,81.0244598,182.8527222,81.0244598z"/>
			<ellipse class="st4" cx="182.8527222" cy="83.2650986" rx="1.5185709" ry="1.531601"/>
		</g>
	</g>
	<g id="Колодка_прав_1_">
		<g>
			<g>
				<g>
					<g>
						<polygon class="st5" points="79.4109955,5.5041218 80.6854095,4.2316608 85.2166595,4.2326374 86.4891205,5.508028 
							86.4881439,10.039278 85.2127533,11.3107624 80.6815033,11.3097858 79.4109955,10.0373249 						"/>
						<path class="st6" d="M86.4826279,10.0351124l-1.269722,1.2697144h-4.5271606l-1.2697144-1.2697144V5.5079517
							l1.2697144-1.2697144h4.5271606l1.269722,1.2697144V10.0351124 M86.4926224,10.0392475V5.5038166
							c-0.4981384-0.4981537-0.7774353-0.7774506-1.2755737-1.275589h-4.5354462
							c-0.4981461,0.4981384-0.7774429,0.7774353-1.2755814,1.275589v4.5354309
							c0.4981384,0.4981384,0.7774353,0.7774353,1.2755814,1.275589h4.5354462
							C85.7151871,10.8166828,85.9944839,10.5373859,86.4926224,10.0392475L86.4926224,10.0392475z"/>
					</g>
				</g>
				<rect x="82.0654907" y="6.8644428" class="st7" width="1.7676773" height="1.8141632"/>
				<rect x="82.4659805" y="7.2754536" class="st8" width="0.9666977" height="0.9921265"/>
				<line class="st9" x1="82.0654907" y1="6.8644276" x2="82.4659805" y2="7.2754536"/>
				<line class="st9" x1="83.4326782" y1="7.2754536" x2="83.833168" y2="6.8644276"/>
				<line class="st9" x1="83.4326782" y1="8.26758" x2="83.833168" y2="8.678606"/>
				<line class="st9" x1="82.4659805" y1="8.26758" x2="82.0654907" y2="8.678606"/>
			</g>
		</g>
		<g>
			<g>
				<g>
					<g>
						<polygon class="st5" points="72.2391205,5.5031452 73.5135345,4.2316608 78.0457611,4.2326374 79.3172455,5.5070515 
							79.3162689,10.039278 78.0418549,11.3107624 73.5096283,11.3097858 72.2391205,10.0373249 						"/>
						<path class="st6" d="M79.3109894,10.0347309l-1.2697449,1.2697144h-4.5271606l-1.2697144-1.2697144V5.5075703
							l0.4601593-0.4601593l0.8095551-0.8095551h4.5271606l0.6348724,0.6348572l0.6348724,0.6348572V10.0347309
							 M79.3209839,10.038866V5.5034351c-0.4981537-0.4981537-0.7774506-0.7774353-1.2756042-1.275589h-4.5354309
							c-0.4981384,0.4981537-0.7774353,0.7774353-1.275589,1.275589v4.5354309
							c0.4981537,0.4981537,0.7774506,0.7774506,1.275589,1.275589h4.5354309
							C78.5435333,10.8163166,78.8228302,10.5370197,79.3209839,10.038866L79.3209839,10.038866z"/>
					</g>
				</g>
				<rect x="74.893837" y="6.8640461" class="st7" width="1.7676773" height="1.8141785"/>
				<rect x="75.2943268" y="7.2750874" class="st8" width="0.9666977" height="0.9921265"/>
				<line class="st9" x1="74.893837" y1="6.8640614" x2="75.2943268" y2="7.2750874"/>
				<line class="st9" x1="76.2610245" y1="7.2750874" x2="76.6615143" y2="6.8640614"/>
				<line class="st9" x1="76.2610245" y1="8.2672138" x2="76.6615143" y2="8.6782398"/>
				<line class="st9" x1="75.2943268" y1="8.2672138" x2="74.893837" y2="8.6782398"/>
			</g>
		</g>
		<g>
			<g>
				<g>
					<g>
						<polygon class="st5" points="93.7537689,5.5041218 95.028183,4.2316608 99.5604095,4.2326374 100.8323822,5.508028 
							100.8309174,10.039278 99.5569916,11.3107624 95.024765,11.3097858 93.7537689,10.0373249 						"/>
						<path class="st6" d="M100.8259354,10.0351124l-1.269722,1.2697144h-4.5271606l-0.3557281-0.3557281l-0.9140015-0.9139862
							V5.5079517l0.3557434-0.3557281l0.9139862-0.9139862h4.5271606l1.269722,1.2697144V10.0351124 M100.8359299,10.0392475
							V5.5038166c-0.4981384-0.4981537-0.7774353-0.7774506-1.2755737-1.275589H95.02491
							c-0.4981461,0.4981384-0.7774353,0.7774353-1.275589,1.275589v4.5354309
							c0.4981537,0.4981384,0.7774429,0.7774353,1.275589,1.275589h4.5354462
							C100.0584946,10.8166828,100.3377914,10.5373859,100.8359299,10.0392475L100.8359299,10.0392475z"/>
					</g>
				</g>
				<rect x="96.4087982" y="6.8644428" class="st7" width="1.7676773" height="1.8141632"/>
				<rect x="96.809288" y="7.2754536" class="st8" width="0.9666977" height="0.9921265"/>
				<line class="st9" x1="96.4087982" y1="6.8644276" x2="96.809288" y2="7.2754536"/>
				<line class="st9" x1="97.7759857" y1="7.2754536" x2="98.1764755" y2="6.8644276"/>
				<line class="st9" x1="97.7759857" y1="8.26758" x2="98.1764755" y2="8.678606"/>
				<line class="st9" x1="96.809288" y1="8.26758" x2="96.4087982" y2="8.678606"/>
			</g>
		</g>
		<g>
			<g>
				<g>
					<g>
						<polygon class="st5" points="86.5828705,5.5031452 87.8572845,4.2316608 92.3885345,4.2326374 93.6600189,5.5070515 
							93.6590424,10.039278 92.3846283,11.3107624 87.8533783,11.3097858 86.5828705,10.0373249 						"/>
						<path class="st6" d="M93.6542816,10.0347309l-1.2697296,1.2697144h-4.527153l-0.9139862-0.9139862l-0.3557434-0.3557281
							V5.5075703l0.6348724-0.6348572l0.6348572-0.6348572h4.527153l0.5356369,0.5356293l0.7340927,0.7340851V10.0347309
							 M93.6642838,10.038866V5.5034351c-0.4981384-0.4981537-0.7774429-0.7774353-1.275589-1.275589h-4.5354309
							c-0.4981537,0.4981537-0.7774429,0.7774353-1.275589,1.275589v4.5354309
							c0.4981461,0.4981537,0.7774353,0.7774506,1.275589,1.275589h4.5354309
							C92.8868408,10.8163166,93.1661453,10.5370197,93.6642838,10.038866L93.6642838,10.038866z"/>
					</g>
				</g>
				<rect x="89.2371445" y="6.8640461" class="st7" width="1.7676773" height="1.8141785"/>
				<rect x="89.6376343" y="7.2750874" class="st8" width="0.9666977" height="0.9921265"/>
				<line class="st9" x1="89.2371445" y1="6.8640614" x2="89.6376343" y2="7.2750874"/>
				<line class="st9" x1="90.604332" y1="7.2750874" x2="91.0048218" y2="6.8640614"/>
				<line class="st9" x1="90.604332" y1="8.2672138" x2="91.0048218" y2="8.6782398"/>
				<line class="st9" x1="89.6376343" y1="8.2672138" x2="89.2371445" y2="8.6782398"/>
			</g>
		</g>
		<g>
			<g>
				<g>
					<g>
						<polygon class="st5" points="108.0975189,5.5041218 109.3714447,4.2316608 113.9036713,4.2326374 115.1756439,5.508028 
							115.1741791,10.039278 113.9002533,11.3107624 109.3680267,11.3097858 108.0975189,10.0373249 						"/>
						<path class="st6" d="M115.1692429,10.0351124l-1.269722,1.2697144h-4.5271606l-0.3557281-0.3557281l-0.9140015-0.9139862
							V5.5079517l0.3557434-0.3557281l0.9139862-0.9139862h4.5271606l1.269722,1.2697144V10.0351124 M115.1792374,10.0392475
							V5.5038166c-0.4981384-0.4981537-0.7774353-0.7774506-1.2755737-1.275589h-4.5354462
							c-0.4981461,0.4981384-0.7774353,0.7774353-1.275589,1.275589v4.5354309
							c0.4981537,0.4981384,0.7774429,0.7774353,1.275589,1.275589h4.5354462
							C114.4018021,10.8166828,114.6810989,10.5373859,115.1792374,10.0392475L115.1792374,10.0392475z"/>
					</g>
				</g>
				<rect x="110.7520981" y="6.8644428" class="st7" width="1.7676773" height="1.8141632"/>
				<rect x="111.1525879" y="7.2754536" class="st8" width="0.9666977" height="0.9921265"/>
				<line class="st9" x1="110.7521057" y1="6.8644276" x2="111.1525955" y2="7.2754536"/>
				<line class="st9" x1="112.1192932" y1="7.2754536" x2="112.5197754" y2="6.8644276"/>
				<line class="st9" x1="112.1192932" y1="8.26758" x2="112.5197754" y2="8.678606"/>
				<line class="st9" x1="111.1525955" y1="8.26758" x2="110.7521057" y2="8.678606"/>
			</g>
		</g>
		<g>
			<g>
				<g>
					<g>
						<polygon class="st5" points="100.9256439,5.5031452 102.1712494,4.2599812 106.7317963,4.2326374 107.9866791,5.4894733 
							108.0027924,10.039278 106.7283783,11.3107624 102.19664,11.3097858 100.9256439,10.0373249 						"/>
						<path class="st6" d="M107.9975891,10.0347309l-1.2697296,1.2697144h-4.527153l-0.9139862-0.9139862l-0.3557434-0.3557281
							V5.5075703l0.6348724-0.6348572l0.6348572-0.6348572h4.527153l0.5356369,0.5356293l0.7340927,0.7340851V10.0347309
							 M108.0075912,10.038866V5.5034351c-0.4981384-0.4981537-0.7774429-0.7774353-1.275589-1.275589h-4.5354309
							c-0.4981537,0.4981537-0.7774429,0.7774353-1.275589,1.275589v4.5354309
							c0.4981461,0.4981537,0.7774353,0.7774506,1.275589,1.275589h4.5354309
							C107.2301483,10.8163166,107.5094528,10.5370197,108.0075912,10.038866L108.0075912,10.038866z"/>
					</g>
				</g>
				<rect x="103.580452" y="6.8640461" class="st7" width="1.7676773" height="1.8141785"/>
				<rect x="103.9809418" y="7.2750874" class="st8" width="0.9666977" height="0.9921265"/>
				<line class="st9" x1="103.580452" y1="6.8640614" x2="103.9809418" y2="7.2750874"/>
				<line class="st9" x1="104.9476395" y1="7.2750874" x2="105.3481216" y2="6.8640614"/>
				<line class="st9" x1="104.9476395" y1="8.2672138" x2="105.3481216" y2="8.6782398"/>
				<line class="st9" x1="103.9809418" y1="8.2672138" x2="103.580452" y2="8.6782398"/>
			</g>
		</g>
		<g>
			<g>
				<g>
					<g>
						<polygon class="st5" points="122.4407806,5.5041218 123.7147064,4.2316608 128.246933,4.2326374 129.5189056,5.508028 
							129.5174408,10.039278 128.243515,11.3107624 123.7112885,11.3097858 122.4407806,10.0373249 						"/>
						<path class="st6" d="M129.5125427,10.0351124l-1.2697144,1.2697144h-4.5271606l-0.3557281-0.3557281l-0.9140015-0.9139862
							V5.5079517l0.3557434-0.3557281l0.9139862-0.9139862h4.5271606l1.2697144,1.2697144V10.0351124 M129.5225525,10.0392475
							V5.5038166c-0.4981384-0.4981537-0.7774353-0.7774506-1.2755737-1.275589h-4.5354538
							c-0.4981461,0.4981384-0.7774353,0.7774353-1.275589,1.275589v4.5354309
							c0.4981537,0.4981384,0.7774429,0.7774353,1.275589,1.275589h4.5354538
							C128.7451172,10.8166828,129.0244141,10.5373859,129.5225525,10.0392475L129.5225525,10.0392475z"/>
					</g>
				</g>
				<rect x="125.0954056" y="6.8644428" class="st7" width="1.7676773" height="1.8141632"/>
				<rect x="125.4958954" y="7.2754536" class="st8" width="0.9666977" height="0.9921265"/>
				<line class="st9" x1="125.0954132" y1="6.8644276" x2="125.495903" y2="7.2754536"/>
				<line class="st9" x1="126.4626007" y1="7.2754536" x2="126.8630829" y2="6.8644276"/>
				<line class="st9" x1="126.4626007" y1="8.26758" x2="126.8630829" y2="8.678606"/>
				<line class="st9" x1="125.495903" y1="8.26758" x2="125.0954132" y2="8.678606"/>
			</g>
		</g>
		<g>
			<g>
				<g>
					<g>
						<polygon class="st5" points="115.2693939,5.5031452 116.5433197,4.2316608 121.0755463,4.2326374 122.3475189,5.5070515 
							122.3460541,10.039278 121.0721283,11.3107624 116.5399017,11.3097858 115.2693939,10.0373249 						"/>
						<path class="st6" d="M122.3408966,10.0347309l-1.2697296,1.2697144h-4.527153l-0.9139862-0.9139862l-0.3557434-0.3557281
							V5.5075703l0.6348724-0.6348572l0.6348572-0.6348572h4.527153l0.5356369,0.5356293l0.7340927,0.7340851V10.0347309
							 M122.3508987,10.038866V5.5034351c-0.4981384-0.4981537-0.7774429-0.7774353-1.275589-1.275589h-4.5354309
							c-0.4981537,0.4981537-0.7774429,0.7774353-1.275589,1.275589v4.5354309
							c0.4981461,0.4981537,0.7774353,0.7774506,1.275589,1.275589h4.5354309
							C121.5734558,10.8163166,121.8527603,10.5370197,122.3508987,10.038866L122.3508987,10.038866z"/>
					</g>
				</g>
				<rect x="117.9237518" y="6.8640461" class="st7" width="1.7676773" height="1.8141785"/>
				<rect x="118.3242416" y="7.2750874" class="st8" width="0.9666977" height="0.9921265"/>
				<line class="st9" x1="117.9237595" y1="6.8640614" x2="118.3242493" y2="7.2750874"/>
				<line class="st9" x1="119.290947" y1="7.2750874" x2="119.6914291" y2="6.8640614"/>
				<line class="st9" x1="119.290947" y1="8.2672138" x2="119.6914291" y2="8.6782398"/>
				<line class="st9" x1="118.3242493" y1="8.2672138" x2="117.9237595" y2="8.6782398"/>
			</g>
		</g>
		<g>
			<g>
				<g>
					<g>
						<polygon class="st5" points="136.7840424,5.5041218 138.0584564,4.2316608 142.5901947,4.2326374 143.8626556,5.508028 
							143.8611908,10.039278 142.5867767,11.3107624 138.0550385,11.3097858 136.7840424,10.0373249 						"/>
						<path class="st6" d="M143.8558655,10.0351124l-1.2697296,1.2697144h-4.5271606l-0.3557281-0.3557281l-0.9140015-0.9139862
							V5.5079517l0.3557434-0.3557281l0.9139862-0.9139862h4.5271606l1.2697296,1.2697144V10.0351124 M143.86586,10.0392475
							V5.5038166c-0.4981384-0.4981537-0.7774353-0.7774506-1.2755737-1.275589h-4.5354462
							c-0.4981537,0.4981384-0.7774353,0.7774353-1.275589,1.275589v4.5354309
							c0.4981537,0.4981384,0.7774353,0.7774353,1.275589,1.275589h4.5354462
							C143.0884247,10.8166828,143.3677216,10.5373859,143.86586,10.0392475L143.86586,10.0392475z"/>
					</g>
				</g>
				<rect x="139.4387207" y="6.8644276" class="st7" width="1.7676735" height="1.8141785"/>
				<rect x="139.8392029" y="7.2754536" class="st8" width="0.9666977" height="0.9921265"/>
				<line class="st9" x1="139.4387207" y1="6.8644276" x2="139.8392029" y2="7.2754536"/>
				<line class="st9" x1="140.8059082" y1="7.2754536" x2="141.2063904" y2="6.8644276"/>
				<line class="st9" x1="140.8059082" y1="8.26758" x2="141.2063904" y2="8.678606"/>
				<line class="st9" x1="139.8392029" y1="8.26758" x2="139.4387207" y2="8.678606"/>
			</g>
		</g>
		<g>
			<g>
				<g>
					<g>
						<polygon class="st5" points="129.6126556,5.5031452 130.8865814,4.2316608 135.418808,4.2326374 136.6907806,5.5070515 
							136.6893158,10.039278 135.41539,11.3107624 130.8831635,11.3097858 129.6126556,10.0373249 						"/>
						<path class="st6" d="M136.6842041,10.0347309l-1.2697296,1.2697144h-4.5271606l-0.8095551-0.8095551l-0.4601746-0.4601593
							V5.5075703l0.4601746-0.4601593l0.8095551-0.8095551h4.5271606l0.5356445,0.5356293l0.7340851,0.7340851V10.0347309
							 M136.6942139,10.038866V5.5034351c-0.4981384-0.4981537-0.7774506-0.7774353-1.275589-1.275589h-4.5354462
							c-0.4981384,0.4981537-0.7774353,0.7774353-1.2755737,1.275589v4.5354309
							c0.4981384,0.4981537,0.7774353,0.7774506,1.2755737,1.275589h4.5354462
							C135.9167633,10.8163166,136.1960754,10.5370197,136.6942139,10.038866L136.6942139,10.038866z"/>
					</g>
				</g>
				<rect x="132.2670593" y="6.8640614" class="st7" width="1.7676773" height="1.8141785"/>
				<rect x="132.6675415" y="7.2750874" class="st8" width="0.9666977" height="0.9921265"/>
				<line class="st9" x1="132.2670593" y1="6.8640614" x2="132.6675568" y2="7.2750874"/>
				<line class="st9" x1="133.6342468" y1="7.2750874" x2="134.0347443" y2="6.8640614"/>
				<line class="st9" x1="133.6342468" y1="8.2672138" x2="134.0347443" y2="8.6782398"/>
				<line class="st9" x1="132.6675568" y1="8.2672138" x2="132.2670593" y2="8.6782398"/>
			</g>
		</g>
		<g>
			<g>
				<g>
					<g>
						<polygon class="st5" points="18.7322845,5.5041218 20.0066986,4.2316608 24.5379486,4.2326374 25.8104095,5.508028 
							25.809433,10.039278 24.5340424,11.3107624 20.0027924,11.3097858 18.7322845,10.0373249 						"/>
						<path class="st6" d="M25.803894,10.0351124l-0.8095551,0.8095551l-0.4601593,0.4601593H20.007019l-1.2697144-1.2697144
							V5.5079517l1.2697144-1.2697144h4.5271606l0.8095551,0.8095551l0.4601593,0.4601593V10.0351124 M25.8139038,10.0392475
							V5.5038166c-0.4981537-0.4981537-0.7774353-0.7774506-1.275589-1.275589h-4.5354309
							c-0.4981537,0.4981384-0.7774506,0.7774353-1.275589,1.275589v4.5354309
							c0.4981384,0.4981384,0.7774353,0.7774353,1.275589,1.275589h4.5354309
							C25.0364685,10.8166828,25.3157501,10.5373859,25.8139038,10.0392475L25.8139038,10.0392475z"/>
					</g>
				</g>
				<rect x="21.3867798" y="6.8644276" class="st7" width="1.7676697" height="1.8141785"/>
				<rect x="21.787262" y="7.2754536" class="st8" width="0.9666901" height="0.9921265"/>
				<line class="st9" x1="21.3867645" y1="6.8644276" x2="21.7872467" y2="7.2754536"/>
				<line class="st9" x1="22.753952" y1="7.2754536" x2="23.1544342" y2="6.8644276"/>
				<line class="st9" x1="22.753952" y1="8.26758" x2="23.1544342" y2="8.678606"/>
				<line class="st9" x1="21.7872467" y1="8.26758" x2="21.3867645" y2="8.678606"/>
			</g>
		</g>
		<g>
			<g>
				<g>
					<g>
						<polygon class="st5" points="11.5604095,5.5031452 12.8348236,4.2316608 17.3670502,4.2326374 18.6385345,5.5070515 
							18.637558,10.039278 17.3631439,11.3107624 12.8309174,11.3097858 11.5604095,10.0373249 						"/>
						<path class="st6" d="M18.6322327,10.0347309l-1.2697144,1.2697144h-4.5271606l-0.8095551-0.8095551l-0.4601593-0.4601593
							V5.5075703l1.2697144-1.2697144h4.5271606l0.4601593,0.4601593l0.8095551,0.8095551V10.0347309 M18.6422424,10.038866
							V5.5034351c-0.4981384-0.4981537-0.7774353-0.7774353-1.275589-1.275589h-4.5354309
							c-0.4981537,0.4981537-0.7774353,0.7774353-1.275589,1.275589v4.5354309
							c0.4981537,0.4981537,0.7774353,0.7774506,1.275589,1.275589h4.5354309
							C17.8648071,10.8163166,18.144104,10.5370197,18.6422424,10.038866L18.6422424,10.038866z"/>
					</g>
				</g>
				<rect x="14.2151184" y="6.8640614" class="st7" width="1.7676697" height="1.8141785"/>
				<rect x="14.6156006" y="7.2750874" class="st8" width="0.9667053" height="0.9921265"/>
				<line class="st9" x1="14.2151031" y1="6.8640614" x2="14.6156006" y2="7.2750874"/>
				<line class="st9" x1="15.5822906" y1="7.2750874" x2="15.9827881" y2="6.8640614"/>
				<line class="st9" x1="15.5822906" y1="8.2672138" x2="15.9827881" y2="8.6782398"/>
				<line class="st9" x1="14.6156006" y1="8.2672138" x2="14.2151031" y2="8.6782398"/>
			</g>
		</g>
		<g>
			<g>
				<g>
					<g>
						<polygon class="st5" points="33.075058,5.5041218 34.3504486,4.2316608 38.8816986,4.2326374 40.153183,5.508028 
							40.1522064,10.039278 38.8777924,11.3107624 34.3465424,11.3097858 33.075058,10.0373249 						"/>
						<path class="st6" d="M40.1472015,10.0351124l-1.2697144,1.2697144h-4.5271606l-1.2697144-1.2697144V5.5079517
							l1.2697144-1.2697144h4.5271606l1.2697144,1.2697144V10.0351124 M40.1572113,10.0392475V5.5038166
							c-0.4981537-0.4981537-0.7774506-0.7774506-1.275589-1.275589h-4.5354309
							c-0.4981537,0.4981384-0.7774506,0.7774353-1.275589,1.275589v4.5354309
							c0.4981384,0.4981384,0.7774353,0.7774353,1.275589,1.275589h4.5354309
							C39.3797607,10.8166828,39.6590576,10.5373859,40.1572113,10.0392475L40.1572113,10.0392475z"/>
					</g>
				</g>
				<rect x="35.730072" y="6.8644276" class="st7" width="1.7676697" height="1.8141785"/>
				<rect x="36.1305542" y="7.2754536" class="st8" width="0.9667053" height="0.9921265"/>
				<line class="st9" x1="35.730072" y1="6.8644276" x2="36.1305542" y2="7.2754536"/>
				<line class="st9" x1="37.0972595" y1="7.2754536" x2="37.4977417" y2="6.8644276"/>
				<line class="st9" x1="37.0972595" y1="8.26758" x2="37.4977417" y2="8.678606"/>
				<line class="st9" x1="36.1305542" y1="8.26758" x2="35.730072" y2="8.678606"/>
			</g>
		</g>
		<g>
			<g>
				<g>
					<g>
						<polygon class="st5" points="25.9041595,5.5031452 27.1785736,4.2316608 31.7098236,4.2326374 32.981308,5.5070515 
							32.9803314,10.039278 31.7059174,11.3107624 27.1746674,11.3097858 25.9041595,10.0373249 						"/>
						<path class="st6" d="M32.9755402,10.0347309l-1.2697144,1.2697144h-4.5271606l-0.8095551-0.8095551l-0.4601593-0.4601593
							V5.5075703l1.2697144-1.2697144h4.5271606l0.4601593,0.4601593l0.8095551,0.8095551V10.0347309 M32.9855499,10.038866
							V5.5034351c-0.4981384-0.4981537-0.7774353-0.7774353-1.275589-1.275589H27.17453
							c-0.4981537,0.4981537-0.7774353,0.7774353-1.275589,1.275589v4.5354309
							c0.4981537,0.4981537,0.7774353,0.7774506,1.275589,1.275589h4.5354309
							C32.2081146,10.8163166,32.4874115,10.5370197,32.9855499,10.038866L32.9855499,10.038866z"/>
					</g>
				</g>
				<rect x="28.5584259" y="6.8640614" class="st7" width="1.7676697" height="1.8141785"/>
				<rect x="28.9589233" y="7.2750874" class="st8" width="0.9666901" height="0.9921265"/>
				<line class="st9" x1="28.5584106" y1="6.8640614" x2="28.9589081" y2="7.2750874"/>
				<line class="st9" x1="29.9255981" y1="7.2750874" x2="30.3260956" y2="6.8640614"/>
				<line class="st9" x1="29.9255981" y1="8.2672138" x2="30.3260956" y2="8.6782398"/>
				<line class="st9" x1="28.9589081" y1="8.2672138" x2="28.5584106" y2="8.6782398"/>
			</g>
		</g>
		<g>
			<g>
				<g>
					<g>
						<polygon class="st5" points="47.418808,5.5041218 48.693222,4.2316608 53.224472,4.2326374 54.496933,5.508028 
							54.4959564,10.039278 53.2205658,11.3107624 48.6893158,11.3097858 47.418808,10.0373249 						"/>
						<path class="st6" d="M54.490509,10.0351124l-1.2697144,1.2697144H48.693634l-1.2697144-1.2697144V5.5079517
							l1.2697144-1.2697144h4.5271606l1.2697144,1.2697144V10.0351124 M54.5005188,10.0392475V5.5038166
							c-0.4981537-0.4981537-0.7774506-0.7774506-1.275589-1.275589h-4.5354309
							c-0.4981537,0.4981384-0.7774506,0.7774353-1.275589,1.275589v4.5354309
							c0.4981384,0.4981384,0.7774353,0.7774353,1.275589,1.275589h4.5354309
							C53.7230682,10.8166828,54.0023651,10.5373859,54.5005188,10.0392475L54.5005188,10.0392475z"/>
					</g>
				</g>
				<rect x="50.0733948" y="6.8644276" class="st7" width="1.7676697" height="1.8141785"/>
				<rect x="50.473877" y="7.2754536" class="st8" width="0.9666901" height="0.9921265"/>
				<line class="st9" x1="50.0733795" y1="6.8644276" x2="50.4738617" y2="7.2754536"/>
				<line class="st9" x1="51.440567" y1="7.2754536" x2="51.8410492" y2="6.8644276"/>
				<line class="st9" x1="51.440567" y1="8.26758" x2="51.8410492" y2="8.678606"/>
				<line class="st9" x1="50.4738617" y1="8.26758" x2="50.0733795" y2="8.678606"/>
			</g>
		</g>
		<g>
			<g>
				<g>
					<g>
						<polygon class="st5" points="40.246933,5.5031452 41.521347,4.2316608 46.0535736,4.2326374 47.325058,5.5070515 
							47.3240814,10.039278 46.0496674,11.3107624 41.5174408,11.3097858 40.246933,10.0373249 						"/>
						<path class="st6" d="M47.3188477,10.0347309l-1.2697144,1.2697144h-4.5271606l-0.8095551-0.8095551l-0.4601593-0.4601593
							V5.5075703l1.2697144-1.2697144h4.5271606l0.4601593,0.4601593l0.8095551,0.8095551V10.0347309 M47.3288574,10.038866
							V5.5034351c-0.4981384-0.4981537-0.7774353-0.7774353-1.275589-1.275589h-4.5354309
							c-0.4981537,0.4981537-0.7774353,0.7774353-1.275589,1.275589v4.5354309
							c0.4981537,0.4981537,0.7774353,0.7774506,1.275589,1.275589h4.5354309
							C46.5514221,10.8163166,46.830719,10.5370197,47.3288574,10.038866L47.3288574,10.038866z"/>
					</g>
				</g>
				<rect x="42.9017334" y="6.8640614" class="st7" width="1.7676697" height="1.8141785"/>
				<rect x="43.3022156" y="7.2750874" class="st8" width="0.9667053" height="0.9921265"/>
				<line class="st9" x1="42.9017181" y1="6.8640614" x2="43.3022156" y2="7.2750874"/>
				<line class="st9" x1="44.2689056" y1="7.2750874" x2="44.6694031" y2="6.8640614"/>
				<line class="st9" x1="44.2689056" y1="8.2672138" x2="44.6694031" y2="8.6782398"/>
				<line class="st9" x1="43.3022156" y1="8.2672138" x2="42.9017181" y2="8.6782398"/>
			</g>
		</g>
		<g>
			<g>
				<g>
					<g>
						<polygon class="st5" points="61.762558,5.5041218 63.036972,4.2316608 67.568222,4.2326374 68.8397064,5.508028 
							68.8387299,10.039278 67.5643158,11.3107624 63.0330658,11.3097858 61.762558,10.0373249 						"/>
						<path class="st6" d="M68.8338165,10.0351124l-1.2697144,1.2697144h-4.5271606l-1.2697449-1.2697144V5.5079517
							l1.2697449-1.2697144h4.5271606l1.2697144,1.2697144V10.0351124 M68.8438263,10.0392475V5.5038166
							c-0.4981537-0.4981537-0.7774506-0.7774506-1.275589-1.275589h-4.5354309
							c-0.4981537,0.4981384-0.7774506,0.7774353-1.2756042,1.275589v4.5354309
							c0.4981537,0.4981384,0.7774506,0.7774353,1.2756042,1.275589h4.5354309
							C68.0663757,10.8166828,68.3456726,10.5373859,68.8438263,10.0392475L68.8438263,10.0392475z"/>
					</g>
				</g>
				<rect x="64.416687" y="6.8644276" class="st7" width="1.7676697" height="1.8141785"/>
				<rect x="64.8171692" y="7.2754536" class="st8" width="0.9667053" height="0.9921265"/>
				<line class="st9" x1="64.416687" y1="6.8644276" x2="64.8171692" y2="7.2754536"/>
				<line class="st9" x1="65.7838745" y1="7.2754536" x2="66.1843567" y2="6.8644276"/>
				<line class="st9" x1="65.7838745" y1="8.26758" x2="66.1843567" y2="8.678606"/>
				<line class="st9" x1="64.8171692" y1="8.26758" x2="64.416687" y2="8.678606"/>
			</g>
		</g>
		<g>
			<g>
				<g>
					<g>
						<polygon class="st5" points="54.590683,5.5031452 55.865097,4.2316608 60.396347,4.2326374 61.6678314,5.5070515 
							61.6668549,10.039278 60.3924408,11.3107624 55.8611908,11.3097858 54.590683,10.0373249 						"/>
						<path class="st6" d="M61.6621552,10.0347309l-1.2697144,1.2697144h-4.5271606l-0.8095551-0.8095551l-0.4601593-0.4601593
							V5.5075703l1.2697144-1.2697144h4.5271606l0.4601593,0.4601593l0.8095551,0.8095551V10.0347309 M61.6721649,10.038866
							V5.5034351c-0.4981384-0.4981537-0.7774353-0.7774353-1.275589-1.275589H55.861145
							c-0.4981537,0.4981537-0.7774353,0.7774353-1.275589,1.275589v4.5354309
							c0.4981537,0.4981537,0.7774353,0.7774506,1.275589,1.275589h4.5354309
							C60.8947296,10.8163166,61.1740265,10.5370197,61.6721649,10.038866L61.6721649,10.038866z"/>
					</g>
				</g>
				<rect x="57.2450409" y="6.8640614" class="st7" width="1.7676697" height="1.8141785"/>
				<rect x="57.6455383" y="7.2750874" class="st8" width="0.9666901" height="0.9921265"/>
				<line class="st9" x1="57.2450256" y1="6.8640614" x2="57.6455231" y2="7.2750874"/>
				<line class="st9" x1="58.6122131" y1="7.2750874" x2="59.0127106" y2="6.8640614"/>
				<line class="st9" x1="58.6122131" y1="8.2672138" x2="59.0127106" y2="8.6782398"/>
				<line class="st9" x1="57.6455231" y1="8.2672138" x2="57.2450256" y2="8.6782398"/>
			</g>
		</g>
		<g>
			<g>
				<g>
					<g>
						<polygon class="st10" points="69.7879486,142.9943542 71.0633392,141.7228699 75.5945892,141.7238464 76.8660736,142.9982605 
							76.865097,147.5295105 75.590683,148.8019714 71.059433,148.8009949 69.7879486,147.5275574 						"/>
						<path class="st6" d="M76.8599548,147.5256958l-0.7879028,0.7879333l-0.4818115,0.4818115h-4.5271606l-0.5123138-0.5123291
							l-0.7574005-0.7574158v-4.5271301l0.555069-0.5550842l0.7146454-0.7146301h4.5271606l1.2697144,1.2697144V147.5256958
							 M76.8699646,147.5298462v-4.5354309c-0.4981384-0.4981384-0.7774353-0.7774353-1.275589-1.2755737h-4.5354309
							c-0.4981537,0.4981384-0.7774353,0.7774353-1.275589,1.2755737v4.5354309
							c0.4981537,0.4981689,0.7774353,0.7774353,1.275589,1.2756042h4.5354309
							C76.0925293,148.3072815,76.3718262,148.0280151,76.8699646,147.5298462L76.8699646,147.5298462z"/>
					</g>
				</g>
				<rect x="72.4428406" y="144.3550415" class="st7" width="1.7676697" height="1.8141708"/>
				<rect x="72.8433228" y="144.7660675" class="st8" width="0.9666901" height="0.9921265"/>
				<line class="st9" x1="72.4428329" y1="144.3550415" x2="72.8433151" y2="144.7660675"/>
				<line class="st9" x1="73.8100128" y1="144.7660675" x2="74.2105026" y2="144.3550415"/>
				<line class="st9" x1="73.8100128" y1="145.758194" x2="74.2105026" y2="146.16922"/>
				<line class="st9" x1="72.8433151" y1="145.758194" x2="72.4428329" y2="146.16922"/>
			</g>
		</g>
		<g>
			<g>
				<g>
					<g>
						<polygon class="st10" points="62.6170502,142.9943542 63.8914642,141.7218933 68.4227142,141.7228699 69.6941986,142.9982605 
							69.693222,147.5295105 68.418808,148.8009949 63.887558,148.8000183 62.6170502,147.5275574 						"/>
						<path class="st6" d="M69.6883087,147.5253296l-0.555069,0.5550842l-0.7146454,0.7146301h-4.5271606l-1.2697144-1.2697144
							v-4.5271301l0.6348572-0.6348877l0.6348572-0.6348572h4.5271606l0.4134827,0.4134827l0.8562317,0.8562622V147.5253296
							 M69.6983185,147.52948v-4.5354309c-0.4981537-0.4981384-0.7774353-0.7774353-1.275589-1.2756042h-4.5354309
							c-0.4981537,0.4981689-0.7774506,0.7774658-1.275589,1.2756042v4.5354309
							c0.4981384,0.4981384,0.7774353,0.7774353,1.275589,1.2755737h4.5354309
							C68.9208832,148.3069153,69.2001648,148.0276184,69.6983185,147.52948L69.6983185,147.52948z"/>
					</g>
				</g>
				<rect x="65.2711639" y="144.35466" class="st7" width="1.7676697" height="1.8141785"/>
				<rect x="65.6716614" y="144.765686" class="st8" width="0.9666901" height="0.9921265"/>
				<line class="st9" x1="65.2711792" y1="144.3546753" x2="65.6716614" y2="144.765686"/>
				<line class="st9" x1="66.6383667" y1="144.765686" x2="67.0388489" y2="144.3546753"/>
				<line class="st9" x1="66.6383667" y1="145.7578125" x2="67.0388489" y2="146.1688385"/>
				<line class="st9" x1="65.6716614" y1="145.7578125" x2="65.2711792" y2="146.1688385"/>
			</g>
		</g>
		<g>
			<g>
				<g>
					<g>
						<polygon class="st10" points="84.1316986,142.9943542 85.4061127,141.7228699 89.9373627,141.7238464 91.2098236,142.9982605 
							91.208847,147.5295105 89.9334564,148.8019714 85.4022064,148.8009949 84.1316986,147.5275574 						"/>
						<path class="st6" d="M91.2032776,147.5256958l-0.7146606,0.7146912l-0.555069,0.5550537h-4.5271606l-0.6348572-0.6348572
							l-0.6348648-0.6348877v-4.5271301l0.6348648-0.6348572l0.6348572-0.6348572h4.5271606l0.7574234,0.7573853
							l0.5123062,0.5123291V147.5256958 M91.2132797,147.5298462v-4.5354309
							c-0.4981537-0.4981384-0.7774429-0.7774353-1.275589-1.2755737h-4.5354462
							c-0.4981384,0.4981384-0.7774277,0.7774353-1.2755737,1.2755737v4.5354309
							c0.4981461,0.4981689,0.7774353,0.7774353,1.2755737,1.2756042h4.5354462
							C90.4358368,148.3072815,90.715126,148.0280151,91.2132797,147.5298462L91.2132797,147.5298462z"/>
					</g>
				</g>
				<rect x="86.7861481" y="144.3550415" class="st7" width="1.7676697" height="1.8141708"/>
				<rect x="87.1866302" y="144.7660675" class="st8" width="0.9666901" height="0.9921265"/>
				<line class="st9" x1="86.7861404" y1="144.3550415" x2="87.1866226" y2="144.7660675"/>
				<line class="st9" x1="88.1533203" y1="144.7660675" x2="88.5538101" y2="144.3550415"/>
				<line class="st9" x1="88.1533203" y1="145.758194" x2="88.5538101" y2="146.16922"/>
				<line class="st9" x1="87.1866226" y1="145.758194" x2="86.7861404" y2="146.16922"/>
			</g>
		</g>
		<g>
			<g>
				<g>
					<g>
						<polygon class="st10" points="76.9598236,142.9943542 78.2342377,141.7218933 82.7664642,141.7228699 84.0379486,142.9982605 
							84.036972,147.5295105 82.762558,148.8009949 78.2303314,148.8000183 76.9598236,147.5275574 						"/>
						<path class="st6" d="M84.0316238,147.5253296l-0.6348648,0.6348572l-0.6348572,0.6348572h-4.5271606l-1.2697144-1.2697144
							v-4.5271301l0.6348572-0.6348877l0.6348572-0.6348572h4.5271606l1.269722,1.2697449V147.5253296 M84.0416183,147.52948
							v-4.5354309c-0.4981461-0.4981384-0.7774353-0.7774353-1.2755737-1.2756042h-4.5354385
							c-0.4981537,0.4981689-0.7774506,0.7774658-1.275589,1.2756042v4.5354309
							c0.4981384,0.4981384,0.7774353,0.7774353,1.275589,1.2755737h4.5354385
							C83.264183,148.3069153,83.5434723,148.0276184,84.0416183,147.52948L84.0416183,147.52948z"/>
					</g>
				</g>
				<rect x="79.6144867" y="144.35466" class="st7" width="1.7676697" height="1.8141708"/>
				<rect x="80.0149841" y="144.765686" class="st8" width="0.9666901" height="0.9921265"/>
				<line class="st9" x1="79.6144867" y1="144.3546753" x2="80.0149689" y2="144.765686"/>
				<line class="st9" x1="80.9816666" y1="144.765686" x2="81.3821564" y2="144.3546753"/>
				<line class="st9" x1="80.9816666" y1="145.7578125" x2="81.3821564" y2="146.1688385"/>
				<line class="st9" x1="80.0149689" y1="145.7578125" x2="79.6144867" y2="146.1688385"/>
			</g>
		</g>
		<g>
			<g>
				<g>
					<g>
						<polygon class="st10" points="98.4749603,142.9943542 99.7488861,141.7228699 104.2811127,141.7238464 
							105.5530853,142.9982605 105.5516205,147.5295105 104.2776947,148.8019714 99.7454681,148.8009949 98.4749603,147.5275574 
													"/>
						<path class="st6" d="M105.5465851,147.5256958l-0.7146606,0.7146912l-0.555069,0.5550537h-4.5271606l-0.583252-0.583252
							l-0.68647-0.6864929v-4.5271301l1.269722-1.2697144h4.5271606l0.7574234,0.7573853l0.5123062,0.5123291V147.5256958
							 M105.5565872,147.5298462v-4.5354309c-0.4981537-0.4981384-0.7774429-0.7774353-1.275589-1.2755737h-4.5354462
							c-0.4981384,0.4981384-0.7774353,0.7774353-1.2755737,1.2755737v4.5354309
							c0.4981384,0.4981689,0.7774353,0.7774353,1.2755737,1.2756042h4.5354462
							C104.7791443,148.3072815,105.0584335,148.0280151,105.5565872,147.5298462L105.5565872,147.5298462z"/>
					</g>
				</g>
				<rect x="101.1294403" y="144.3550415" class="st7" width="1.7676697" height="1.8141708"/>
				<rect x="101.5299225" y="144.7660675" class="st8" width="0.9666901" height="0.9921265"/>
				<line class="st9" x1="101.1294403" y1="144.3550415" x2="101.5299301" y2="144.7660675"/>
				<line class="st9" x1="102.4966278" y1="144.7660675" x2="102.8971176" y2="144.3550415"/>
				<line class="st9" x1="102.4966278" y1="145.758194" x2="102.8971176" y2="146.16922"/>
				<line class="st9" x1="101.5299301" y1="145.758194" x2="101.1294403" y2="146.16922"/>
			</g>
		</g>
		<g>
			<g>
				<g>
					<g>
						<polygon class="st10" points="91.3035736,142.9943542 92.5779877,141.7218933 97.1092377,141.7228699 98.3816986,142.9982605 
							98.3802338,147.5295105 97.1058197,148.8009949 92.5740814,148.8000183 91.3035736,147.5275574 						"/>
						<path class="st6" d="M98.3749313,147.5253296l-0.6348648,0.6348572l-0.6348572,0.6348572h-4.5271606l-1.2697296-1.2697144
							v-4.5271301l1.2697296-1.2697449h4.5271606l1.269722,1.2697449V147.5253296 M98.3849258,147.52948v-4.5354309
							c-0.4981461-0.4981384-0.7774353-0.7774353-1.2755737-1.2756042h-4.5354462
							c-0.4981461,0.4981689-0.7774506,0.7774658-1.275589,1.2756042v4.5354309
							c0.4981384,0.4981384,0.7774429,0.7774353,1.275589,1.2755737h4.5354462
							C97.6074905,148.3069153,97.8867798,148.0276184,98.3849258,147.52948L98.3849258,147.52948z"/>
					</g>
				</g>
				<rect x="93.9577942" y="144.35466" class="st7" width="1.7676697" height="1.8141708"/>
				<rect x="94.3582916" y="144.765686" class="st8" width="0.9666901" height="0.9921265"/>
				<line class="st9" x1="93.9577942" y1="144.3546753" x2="94.3582764" y2="144.765686"/>
				<line class="st9" x1="95.3249741" y1="144.765686" x2="95.7254639" y2="144.3546753"/>
				<line class="st9" x1="95.3249741" y1="145.7578125" x2="95.7254639" y2="146.1688385"/>
				<line class="st9" x1="94.3582764" y1="145.7578125" x2="93.9577942" y2="146.1688385"/>
			</g>
		</g>
		<g>
			<g>
				<g>
					<g>
						<polygon class="st10" points="112.818222,142.9943542 114.0921478,141.7228699 118.6243744,141.7238464 
							119.896347,142.9982605 119.8948822,147.5295105 118.6209564,148.8019714 114.0887299,148.8009949 112.818222,147.5275574 
													"/>
						<path class="st6" d="M119.8898926,147.5256958l-0.7146606,0.7146912l-0.555069,0.5550537h-4.5271606l-0.583252-0.583252
							l-0.68647-0.6864929v-4.5271301l1.269722-1.2697144h4.5271606l0.7574234,0.7573853l0.5123062,0.5123291V147.5256958
							 M119.8998947,147.5298462v-4.5354309c-0.4981537-0.4981384-0.7774429-0.7774353-1.275589-1.2755737h-4.5354462
							c-0.4981384,0.4981384-0.7774353,0.7774353-1.2755737,1.2755737v4.5354309
							c0.4981384,0.4981689,0.7774353,0.7774353,1.2755737,1.2756042h4.5354462
							C119.1224518,148.3072815,119.401741,148.0280151,119.8998947,147.5298462L119.8998947,147.5298462z"/>
					</g>
				</g>
				<rect x="115.4727478" y="144.3550568" class="st7" width="1.7676697" height="1.8141708"/>
				<rect x="115.87323" y="144.7660675" class="st8" width="0.9666901" height="0.9921265"/>
				<line class="st9" x1="115.4727478" y1="144.3550415" x2="115.8732376" y2="144.7660675"/>
				<line class="st9" x1="116.8399353" y1="144.7660675" x2="117.2404251" y2="144.3550415"/>
				<line class="st9" x1="116.8399353" y1="145.758194" x2="117.2404251" y2="146.16922"/>
				<line class="st9" x1="115.8732376" y1="145.758194" x2="115.4727478" y2="146.16922"/>
			</g>
		</g>
		<g>
			<g>
				<g>
					<g>
						<polygon class="st10" points="105.646347,142.9943542 106.9207611,141.7218933 111.4524994,141.7228699 
							112.7249603,142.9982605 112.7234955,147.5295105 111.4490814,148.8009949 106.9173431,148.8000183 105.646347,147.5275574 
													"/>
						<path class="st6" d="M112.7182388,147.5253296l-0.6348648,0.6348572l-0.6348572,0.6348572h-4.5271606l-1.2697296-1.2697144
							v-4.5271301l1.2697296-1.2697449h4.5271606l1.269722,1.2697449V147.5253296 M112.7282333,147.52948v-4.5354309
							c-0.4981461-0.4981384-0.7774353-0.7774353-1.2755737-1.2756042h-4.5354462
							c-0.4981461,0.4981689-0.7774506,0.7774658-1.275589,1.2756042v4.5354309
							c0.4981384,0.4981384,0.7774429,0.7774353,1.275589,1.2755737h4.5354462
							C111.950798,148.3069153,112.2300873,148.0276184,112.7282333,147.52948L112.7282333,147.52948z"/>
					</g>
				</g>
				<rect x="108.3010864" y="144.3546753" class="st7" width="1.7676697" height="1.8141708"/>
				<rect x="108.7015839" y="144.765686" class="st8" width="0.9666901" height="0.9921265"/>
				<line class="st9" x1="108.3010941" y1="144.3546753" x2="108.7015839" y2="144.765686"/>
				<line class="st9" x1="109.6682816" y1="144.765686" x2="110.0687714" y2="144.3546753"/>
				<line class="st9" x1="109.6682816" y1="145.7578125" x2="110.0687714" y2="146.1688385"/>
				<line class="st9" x1="108.7015839" y1="145.7578125" x2="108.3010941" y2="146.1688385"/>
			</g>
		</g>
		<g>
			<g>
				<g>
					<g>
						<polygon class="st11" points="20.0760345,142.9943542 21.3504486,141.7228699 25.8826752,141.7238464 27.1541595,142.9982605 
							27.153183,147.5304871 25.8787689,148.8019714 21.3465424,148.8009949 20.0760345,147.5285339 						"/>
						<path class="st6" d="M27.1479034,147.5258789l-1.2697144,1.2697449h-4.5271759l-1.2697296-1.2697449v-4.5271301
							l0.6348724-0.6348572l0.6348572-0.6348572h4.5271759l1.2697144,1.2697144V147.5258789 M27.1579132,147.5300293v-4.5354309
							c-0.4981537-0.4981384-0.7774506-0.7774353-1.275589-1.2755737h-4.5354462
							c-0.4981384,0.4981384-0.7774353,0.7774353-1.275589,1.2755737v4.5354309
							c0.4981537,0.4981689,0.7774506,0.7774658,1.275589,1.2756042h4.5354462
							C26.3804626,148.3074951,26.6597595,148.0281982,27.1579132,147.5300293L27.1579132,147.5300293z"/>
					</g>
				</g>
				<rect x="22.7307739" y="144.3552399" class="st7" width="1.7676697" height="1.8141785"/>
				<rect x="23.1312561" y="144.7662506" class="st8" width="0.9666901" height="0.9921265"/>
				<line class="st9" x1="22.7307587" y1="144.3552246" x2="23.1312561" y2="144.7662506"/>
				<line class="st9" x1="24.0979462" y1="144.7662506" x2="24.4984436" y2="144.3552246"/>
				<line class="st9" x1="24.0979462" y1="145.7583771" x2="24.4984436" y2="146.1694031"/>
				<line class="st9" x1="23.1312561" y1="145.7583771" x2="22.7307587" y2="146.1694031"/>
			</g>
		</g>
		<g>
			<g>
				<g>
					<g>
						<polygon class="st11" points="12.9041595,142.9943542 14.1795502,141.7228699 18.7108002,141.7238464 19.9822845,142.9982605 
							19.981308,147.5295105 18.7068939,148.8009949 14.1756439,148.8000183 12.9041595,147.5275574 						"/>
						<path class="st6" d="M19.9762421,147.5255127l-0.8562317,0.8562622l-0.4134827,0.4134827h-4.5271606l-0.6348572-0.6348572
							l-0.6348572-0.6348877v-4.5271301l0.6348572-0.6348877l0.6348572-0.6348572h4.5271606l0.4134827,0.4134827
							l0.8562317,0.8562622V147.5255127 M19.9862518,147.5296631v-4.5354309
							c-0.4981537-0.4981384-0.7774353-0.7774353-1.275589-1.2756042h-4.5354309
							c-0.4981537,0.4981689-0.7774506,0.7774658-1.275589,1.2756042v4.5354309
							c0.4981384,0.4981384,0.7774353,0.7774353,1.275589,1.2756042h4.5354309
							C19.2088165,148.3070984,19.4880981,148.0278015,19.9862518,147.5296631L19.9862518,147.5296631z"/>
					</g>
				</g>
				<rect x="15.5590973" y="144.3548584" class="st7" width="1.7676697" height="1.8141785"/>
				<rect x="15.9595947" y="144.7658844" class="st8" width="0.9666901" height="0.9921265"/>
				<line class="st9" x1="15.5591125" y1="144.3548584" x2="15.9595947" y2="144.7658844"/>
				<line class="st9" x1="16.9263" y1="144.7658844" x2="17.3267822" y2="144.3548584"/>
				<line class="st9" x1="16.9263" y1="145.7580109" x2="17.3267822" y2="146.1690216"/>
				<line class="st9" x1="15.9595947" y1="145.7580109" x2="15.5591125" y2="146.1690216"/>
			</g>
		</g>
		<g>
			<g>
				<g>
					<g>
						<polygon class="st11" points="34.4197845,142.9943542 35.6941986,141.7228699 40.2254486,141.7238464 41.496933,142.9982605 
							41.4959564,147.5304871 40.2215424,148.8019714 35.6902924,148.8009949 34.4197845,147.5285339 						"/>
						<path class="st6" d="M41.4912262,147.5258789l-1.2697449,1.2697449h-4.5271606l-1.2697144-1.2697449v-4.5271301
							l1.2697144-1.2697144h4.5271606l0.89534,0.8953247l0.3744049,0.3743896V147.5258789 M41.5012207,147.5300293v-4.5354309
							c-0.4981537-0.4981384-0.7774506-0.7774353-1.2756042-1.2755737h-4.5354309
							c-0.4981384,0.4981384-0.7774353,0.7774353-1.275589,1.2755737v4.5354309
							c0.4981537,0.4981689,0.7774506,0.7774658,1.275589,1.2756042h4.5354309
							C40.7237701,148.3074951,41.003067,148.0281982,41.5012207,147.5300293L41.5012207,147.5300293z"/>
					</g>
				</g>
				<rect x="37.0740662" y="144.3552399" class="st7" width="1.7676697" height="1.8141785"/>
				<rect x="37.4745483" y="144.7662506" class="st8" width="0.9666901" height="0.9921265"/>
				<line class="st9" x1="37.0740662" y1="144.3552246" x2="37.4745636" y2="144.7662506"/>
				<line class="st9" x1="38.4412537" y1="144.7662506" x2="38.8417511" y2="144.3552246"/>
				<line class="st9" x1="38.4412537" y1="145.7583771" x2="38.8417511" y2="146.1694031"/>
				<line class="st9" x1="37.4745636" y1="145.7583771" x2="37.0740662" y2="146.1694031"/>
			</g>
		</g>
		<g>
			<g>
				<g>
					<g>
						<polygon class="st11" points="27.2479095,142.9943542 28.5223236,141.7228699 33.0535736,141.7238464 34.318222,142.9894714 
							34.325058,147.5295105 33.0496674,148.8009949 28.5184174,148.8000183 27.2479095,147.5275574 						"/>
						<path class="st6" d="M34.3195496,147.5255127l-0.8562317,0.8562622l-0.4134827,0.4134827h-4.5271606l-0.6348572-0.6348572
							l-0.6348572-0.6348877v-4.5271301l0.6348572-0.6348877l0.6348572-0.6348572h4.5271606l0.4134827,0.4134827
							l0.8562317,0.8562622V147.5255127 M34.3295593,147.5296631v-4.5354309
							c-0.4981537-0.4981384-0.7774353-0.7774353-1.275589-1.2756042h-4.5354309
							c-0.4981537,0.4981689-0.7774506,0.7774658-1.275589,1.2756042v4.5354309
							c0.4981384,0.4981384,0.7774353,0.7774353,1.275589,1.2756042h4.5354309
							C33.552124,148.3070984,33.8314056,148.0278015,34.3295593,147.5296631L34.3295593,147.5296631z"/>
					</g>
				</g>
				<rect x="29.90242" y="144.3548584" class="st7" width="1.7676697" height="1.8141785"/>
				<rect x="30.3029175" y="144.7658844" class="st8" width="0.9666901" height="0.9921265"/>
				<line class="st9" x1="29.90242" y1="144.3548584" x2="30.3029022" y2="144.7658844"/>
				<line class="st9" x1="31.2696075" y1="144.7658844" x2="31.6700897" y2="144.3548584"/>
				<line class="st9" x1="31.2696075" y1="145.7580109" x2="31.6700897" y2="146.1690216"/>
				<line class="st9" x1="30.3029022" y1="145.7580109" x2="29.90242" y2="146.1690216"/>
			</g>
		</g>
		<g>
			<g>
				<g>
					<g>
						<polygon class="st11" points="48.762558,142.9943542 50.036972,141.7228699 54.5691986,141.7238464 55.840683,142.9982605 
							55.8397064,147.5304871 54.5652924,148.8019714 50.0330658,148.8009949 48.762558,147.5285339 						"/>
						<path class="st6" d="M55.8345184,147.5258789l-1.2697296,1.2697449h-4.5271606l-1.2697296-1.2697449v-4.5271301
							l0.6348724-0.6348572l0.6348572-0.6348572h4.5271606l0.89534,0.8953247l0.3743896,0.3743896V147.5258789
							 M55.8445282,147.5300293v-4.5354309c-0.4981537-0.4981384-0.7774506-0.7774353-1.2756042-1.2755737H50.033493
							c-0.4981384,0.4981384-0.7774353,0.7774353-1.275589,1.2755737v4.5354309
							c0.4981537,0.4981689,0.7774506,0.7774658,1.275589,1.2756042h4.5354309
							C55.0670776,148.3074951,55.3463745,148.0281982,55.8445282,147.5300293L55.8445282,147.5300293z"/>
					</g>
				</g>
				<rect x="51.4173889" y="144.3552399" class="st7" width="1.7676697" height="1.8141785"/>
				<rect x="51.8178711" y="144.7662506" class="st8" width="0.9666901" height="0.9921265"/>
				<line class="st9" x1="51.4173737" y1="144.3552246" x2="51.8178711" y2="144.7662506"/>
				<line class="st9" x1="52.7845612" y1="144.7662506" x2="53.1850586" y2="144.3552246"/>
				<line class="st9" x1="52.7845612" y1="145.7583771" x2="53.1850586" y2="146.1694031"/>
				<line class="st9" x1="51.8178711" y1="145.7583771" x2="51.4173737" y2="146.1694031"/>
			</g>
		</g>
		<g>
			<g>
				<g>
					<g>
						<polygon class="st11" points="41.590683,142.9943542 42.8504486,141.7375183 47.3973236,141.7238464 48.668808,142.9982605 
							48.6678314,147.5295105 47.3934174,148.8009949 42.8621674,148.8000183 41.590683,147.5275574 						"/>
						<path class="st6" d="M48.6628571,147.5255127l-0.8562317,0.8562622l-0.4134827,0.4134827h-4.5271606l-0.6348572-0.6348572
							l-0.6348572-0.6348877v-4.5271301l0.6348572-0.6348877l0.6348572-0.6348572h4.5271606l0.4134827,0.4134827
							l0.8562317,0.8562622V147.5255127 M48.6728668,147.5296631v-4.5354309
							c-0.4981537-0.4981384-0.7774353-0.7774353-1.275589-1.2756042h-4.5354309
							c-0.4981537,0.4981689-0.7774506,0.7774658-1.275589,1.2756042v4.5354309
							c0.4981384,0.4981384,0.7774353,0.7774353,1.275589,1.2756042h4.5354309
							C47.8954315,148.3070984,48.1747131,148.0278015,48.6728668,147.5296631L48.6728668,147.5296631z"/>
					</g>
				</g>
				<rect x="44.2457123" y="144.3548584" class="st7" width="1.7676697" height="1.8141785"/>
				<rect x="44.6462097" y="144.7658844" class="st8" width="0.9666901" height="0.9921265"/>
				<line class="st9" x1="44.2457275" y1="144.3548584" x2="44.6462097" y2="144.7658844"/>
				<line class="st9" x1="45.612915" y1="144.7658844" x2="46.0133972" y2="144.3548584"/>
				<line class="st9" x1="45.612915" y1="145.7580109" x2="46.0133972" y2="146.1690216"/>
				<line class="st9" x1="44.6462097" y1="145.7580109" x2="44.2457275" y2="146.1690216"/>
			</g>
		</g>
	</g>
</g>
</svg>
