<?xml version="1.0" encoding="utf-8"?>
<!-- Generator: Adobe Illustrator 22.0.1, SVG Export Plug-In . SVG Version: 6.00 Build 0)  -->
<svg version="1.1" id="Микросхемы" xmlns="http://www.w3.org/2000/svg" xmlns:xlink="http://www.w3.org/1999/xlink"
	 x="0px" y="0px" viewBox="0 0 139.8469238 85.0400391" style="enable-background:new 0 0 139.8469238 85.0400391;"
	 xml:space="preserve">
<style type="text/css">
	.st0{fill:#9C9A9A;}
	.st1{fill:#FFFFFF;}
	.st2{fill:#CCC6BB;}
	.st3{fill:#363330;}
	.st4{fill:#B3B3B2;}
	.st5{fill:none;stroke:#FFFFFF;stroke-width:0.5;stroke-miterlimit:10;}
	.st6{display:none;fill:#D1D84E;stroke:#EDE84A;stroke-width:0.25;stroke-miterlimit:10;}
	.st7{fill:#EAAC4E;}
	.st8{fill:#5DAE61;}
	.st9{opacity:0.37;fill:none;stroke:#FFFFFF;stroke-width:0.5;stroke-miterlimit:10;}
	.st10{fill:#E29244;}
	.st11{fill:none;}
	.st12{fill:none;stroke:#FFFFFF;stroke-width:0.2469696;stroke-miterlimit:10;}
	.st13{fill:#4C4C4C;stroke:#000105;stroke-width:0.25;stroke-miterlimit:10;}
	.st14{fill:#4C4C4C;stroke:#000105;stroke-width:0.4183979;stroke-miterlimit:10;}
	.st15{fill:#000105;stroke:#000105;stroke-width:0.25;stroke-miterlimit:10;}
	.st16{fill:#171818;}
	.st17{fill:#4C4C4C;}
	.st18{fill:#000105;}
	.st19{fill:#F1F2F1;}
	.st20{fill:#E5E5E5;}
	.st21{fill:#313131;}
	.st22{fill:#271B21;stroke:#271B21;stroke-width:0.3997204;stroke-miterlimit:10;}
	.st23{fill:none;stroke:#FFFFFF;stroke-miterlimit:10;}
	.st24{fill:#E29244;stroke:#656565;stroke-width:0.0232234;stroke-miterlimit:10;}
	.st25{fill:#EAAC4E;stroke:#B2B2B2;stroke-width:0.0252307;stroke-miterlimit:10;}
	.st26{fill:none;stroke:#808080;stroke-width:0.0114155;stroke-miterlimit:10;}
	.st27{fill:#4E8A5C;}
	.st28{fill:#CCCCCB;}
	.st29{opacity:0.5;fill:url(#SVGID_1_);}
	.st30{opacity:0.1;fill:#B2B2B2;}
	.st31{opacity:0.5;fill:url(#SVGID_2_);}
	.st32{fill:#B2B2B2;}
	.st33{opacity:0.5;fill:url(#SVGID_3_);}
	.st34{opacity:0.5;fill:url(#SVGID_4_);}
</style>
<path d="M0,0v85.0400391h139.8469238V0H0z M9.9212646,79.5118408c-2.4264526,0-4.3936768-1.9667969-4.3936768-4.3927002
	c0-2.4279175,1.9672241-4.3947144,4.3936768-4.3947144s4.3936768,1.9667969,4.3936768,4.3947144
	C14.3149414,77.5450439,12.3477173,79.5118408,9.9212646,79.5118408z M9.9223022,14.3150024
	c-2.4279175,0-4.3947144-1.9667969-4.3947144-4.3927002c0-2.4279175,1.9667969-4.3947144,4.3947144-4.3947144
	c2.4258423,0,4.3926392,1.9667969,4.3926392,4.3947144C14.3149414,12.3482056,12.3481445,14.3150024,9.9223022,14.3150024z
	 M129.9256592,5.5281982c2.4264526,0,4.3936768,1.9667969,4.3936768,4.3927002c0,2.4279175-1.9672241,4.3947144-4.3936768,4.3947144
	c-2.426445,0-4.3936691-1.9667969-4.3936691-4.3947144C125.5319901,7.4949951,127.4992142,5.5281982,129.9256592,5.5281982z
	 M129.9246216,70.7250366c2.4279175,0,4.3947144,1.9667969,4.3947144,4.3927002
	c0,2.4279175-1.9667969,4.3947144-4.3947144,4.3947144c-2.4258347,0-4.3926315-1.9667969-4.3926315-4.3947144
	C125.5319901,72.6918335,127.4987869,70.7250366,129.9246216,70.7250366z"/>
<g id="Креп._отверстия">
	<path class="st0" d="M129.9256592,3.9458618c-3.3002853,0-5.9753952,2.6751709-5.9753952,5.9754028
		c0,3.300293,2.6751099,5.9754639,5.9753952,5.9754639c3.300293,0,5.9754639-2.6751709,5.9754639-5.9754639
		C135.901123,6.6210327,133.2259521,3.9458618,129.9256592,3.9458618z M129.9266968,14.3150024
		c-2.4279099,0-4.3947067-1.9667969-4.3947067-4.3927002c0-2.4279175,1.9667969-4.3947144,4.3947067-4.3947144
		c2.4258423,0,4.3927002,1.9667969,4.3927002,4.3947144C134.319397,12.3482056,132.3525391,14.3150024,129.9266968,14.3150024z"/>
	<path class="st0" d="M129.9256592,69.1427002c-3.2987595,0-5.9753952,2.6751709-5.9753952,5.9754639
		c0,3.3002319,2.6766357,5.9754028,5.9753952,5.9754028c3.300293,0,5.9754639-2.6751709,5.9754639-5.9754028
		C135.901123,71.8178711,133.2259521,69.1427002,129.9256592,69.1427002z M129.9246216,79.5118408
		c-2.4258347,0-4.3926315-1.9688721-4.3926315-4.3947144c0-2.4259033,1.9667969-4.3927002,4.3926315-4.3927002
		c2.4279175,0,4.3947754,1.9667969,4.3947754,4.3927002C134.319397,77.5429688,132.3525391,79.5118408,129.9246216,79.5118408z"/>
	<path class="st0" d="M9.9212646,69.1427002c-3.300293,0-5.9754639,2.6751709-5.9754639,5.9754639
		c0,3.3002319,2.6751709,5.9754028,5.9754639,5.9754028s5.9754028-2.6751709,5.9754028-5.9754028
		C15.8966675,71.8178711,13.2215576,69.1427002,9.9212646,69.1427002z M9.9212646,79.5118408
		c-2.4264526,0-4.3936768-1.9667969-4.3936768-4.3927002c0-2.4279175,1.9672241-4.3947144,4.3936768-4.3947144
		s4.3936768,1.9667969,4.3936768,4.3947144C14.3149414,77.5450439,12.3477173,79.5118408,9.9212646,79.5118408z"/>
	<path class="st0" d="M9.9212646,3.9458618c-3.2877808,0-5.9527588,2.6751709-5.9527588,5.9754028
		c0,3.300293,2.664978,5.9754639,5.9527588,5.9754639c3.2877197,0,5.9527588-2.6751709,5.9527588-5.9754639
		C15.8740234,6.6210327,13.2089844,3.9458618,9.9212646,3.9458618z M9.9223022,14.3150024
		c-2.4279175,0-4.3947144-1.9667969-4.3947144-4.3927002c0-2.4279175,1.9667969-4.3947144,4.3947144-4.3947144
		c2.4258423,0,4.3926392,1.9667969,4.3926392,4.3947144C14.3149414,12.3482056,12.3481445,14.3150024,9.9223022,14.3150024z"/>
</g>
<g>
	<g>
		<path class="st1" d="M50.2480469,50.3862305c0.6132813,0,1.1191406,0.1943359,1.5166016,0.5830078
			c0.3974609,0.3881836,0.5966797,0.8867188,0.5966797,1.4951172v0.8237305c0,0.6108398-0.1992188,1.1088867-0.5966797,1.4956055
			c-0.3974609,0.3857422-0.9033203,0.5791016-1.5166016,0.5791016h-2.2583008v-0.5981445l0.534668-0.1025391V51.090332
			l-0.534668-0.1025391v-0.6015625h0.534668H50.2480469z M49.5307617,51.1552734v3.4418945h0.6655273
			c0.3608398,0,0.6435547-0.1206055,0.8481445-0.3623047c0.2041016-0.2416992,0.3066406-0.5571289,0.3066406-0.9467773v-0.8305664
			c0-0.3852539-0.1025391-0.6982422-0.3066406-0.9399414c-0.2045898-0.2416992-0.4873047-0.3623047-0.8481445-0.3623047H49.5307617z
			"/>
		<path class="st1" d="M56.6137695,52.0644531h-0.7480469l-0.1035156-0.6630859
			c-0.0986328-0.0981445-0.2236328-0.175293-0.3740234-0.2324219s-0.328125-0.0854492-0.5327148-0.0854492
			c-0.4365234,0-0.7724609,0.1572266-1.0083008,0.4716797c-0.2353516,0.3144531-0.3530273,0.7246094-0.3530273,1.2304688v0.1743164
			c0,0.5058594,0.1171875,0.9169922,0.3515625,1.2338867s0.5654297,0.4750977,0.9926758,0.4750977
			c0.1977539,0,0.378418-0.0283203,0.5429688-0.0854492c0.1640625-0.0571289,0.2915039-0.1342773,0.3808594-0.2324219
			l0.1035156-0.6630859h0.7480469v0.984375c-0.2021484,0.2324219-0.4604492,0.4174805-0.7739258,0.5556641
			c-0.3134766,0.1376953-0.6645508,0.206543-1.0532227,0.206543c-0.6733398,0-1.2250977-0.2314453-1.6547852-0.6938477
			s-0.6445313-1.0561523-0.6445313-1.7807617v-0.1674805c0-0.722168,0.2138672-1.315918,0.6411133-1.7807617
			c0.4277344-0.4648438,0.9804688-0.6972656,1.6582031-0.6972656c0.3886719,0,0.7387695,0.0698242,1.0517578,0.2104492
			c0.3125,0.1396484,0.5708008,0.3251953,0.7753906,0.5551758V52.0644531z"/>
		<path class="st1" d="M58.9257813,53.6196289h-1.9443359v-0.769043h1.9443359V53.6196289z"/>
		<path class="st1" d="M61.4370117,50.3862305c0.6132813,0,1.1191406,0.1943359,1.5166016,0.5830078
			c0.3974609,0.3881836,0.5966797,0.8867188,0.5966797,1.4951172v0.8237305c0,0.6108398-0.1992188,1.1088867-0.5966797,1.4956055
			c-0.3974609,0.3857422-0.9033203,0.5791016-1.5166016,0.5791016h-2.2583008v-0.5981445l0.534668-0.1025391V51.090332
			l-0.534668-0.1025391v-0.6015625h0.534668H61.4370117z M60.7197266,51.1552734v3.4418945h0.6655273
			c0.3608398,0,0.6435547-0.1206055,0.8481445-0.3623047c0.2041016-0.2416992,0.3066406-0.5571289,0.3066406-0.9467773v-0.8305664
			c0-0.3852539-0.1025391-0.6982422-0.3066406-0.9399414c-0.2045898-0.2416992-0.4873047-0.3623047-0.8481445-0.3623047H60.7197266z
			"/>
		<path class="st1" d="M67.8027344,52.0644531h-0.7480469l-0.1035156-0.6630859
			c-0.0986328-0.0981445-0.2236328-0.175293-0.3740234-0.2324219s-0.328125-0.0854492-0.5327148-0.0854492
			c-0.4365234,0-0.7724609,0.1572266-1.0083008,0.4716797c-0.2353516,0.3144531-0.3530273,0.7246094-0.3530273,1.2304688v0.1743164
			c0,0.5058594,0.1171875,0.9169922,0.3515625,1.2338867s0.5654297,0.4750977,0.9926758,0.4750977
			c0.1977539,0,0.378418-0.0283203,0.5429688-0.0854492c0.1640625-0.0571289,0.2915039-0.1342773,0.3808594-0.2324219
			l0.1035156-0.6630859h0.7480469v0.984375c-0.2021484,0.2324219-0.4604492,0.4174805-0.7739258,0.5556641
			c-0.3134766,0.1376953-0.6645508,0.206543-1.0532227,0.206543c-0.6733398,0-1.2250977-0.2314453-1.6547852-0.6938477
			s-0.6445313-1.0561523-0.6445313-1.7807617v-0.1674805c0-0.722168,0.2138672-1.315918,0.6411133-1.7807617
			c0.4277344-0.4648438,0.9804688-0.6972656,1.6582031-0.6972656c0.3886719,0,0.7387695,0.0698242,1.0517578,0.2104492
			c0.3125,0.1396484,0.5708008,0.3251953,0.7753906,0.5551758V52.0644531z"/>
	</g>
	<g>
		<path class="st1" d="M47.9570313,60.6118164l0.3813477-0.0732422v-2.5512695l-0.3813477-0.0732422V57.484375h3.6640625v0.4296875
			l-0.3818359,0.0732422v2.5512695l0.3818359,0.0732422v0.4272461h-1.4824219v-0.4272461l0.3813477-0.0732422v-2.5048828h-1.4624023
			v2.5048828l0.3842773,0.0732422v0.4272461h-1.4848633V60.6118164z"/>
		<path class="st1" d="M51.3383789,58.8271484v-0.4296875h1.0439453l0.034668,0.3076172
			c0.0786133-0.1137695,0.1728516-0.2016602,0.2827148-0.2636719c0.1103516-0.0620117,0.2382813-0.0927734,0.3842773-0.0927734
			c0.3300781,0,0.5859375,0.1279297,0.7685547,0.3833008c0.1821289,0.2553711,0.2729492,0.5917969,0.2729492,1.0083008v0.0512695
			c0,0.390625-0.0908203,0.7045898-0.2729492,0.9423828c-0.1826172,0.237793-0.4370117,0.3564453-0.7636719,0.3564453
			c-0.1396484,0-0.2631836-0.0258789-0.371582-0.0766602c-0.1083984-0.0517578-0.2011719-0.1269531-0.2783203-0.2260742v0.7641602
			L52.7861328,61.625v0.4296875H51.375V61.625l0.347168-0.0732422v-2.6513672L51.3383789,58.8271484z M53.4067383,59.7402344
			c0-0.2490234-0.0419922-0.4506836-0.1254883-0.6054688c-0.0839844-0.1547852-0.2119141-0.2319336-0.3842773-0.2319336
			c-0.1083984,0-0.2006836,0.0219727-0.2768555,0.065918c-0.0766602,0.0439453-0.1367188,0.1064453-0.1811523,0.1879883v1.1572266
			c0.0444336,0.074707,0.1044922,0.1318359,0.1811523,0.1708984c0.0761719,0.0390625,0.1699219,0.0585938,0.2817383,0.0585938
			c0.1738281,0,0.3017578-0.0673828,0.3828125-0.2026367c0.081543-0.1352539,0.1220703-0.3183594,0.1220703-0.5493164V59.7402344z"
			/>
		<path class="st1" d="M55.2167969,61.090332c-0.3842773,0-0.690918-0.1220703-0.9208984-0.3662109
			s-0.3447266-0.5541992-0.3447266-0.9301758v-0.0976563c0-0.3920898,0.1088867-0.715332,0.3261719-0.9692383
			s0.5092773-0.3798828,0.8754883-0.378418c0.359375,0,0.6386719,0.1074219,0.8369141,0.3222656
			c0.1987305,0.2148438,0.2983398,0.5053711,0.2983398,0.871582v0.3881836h-1.5908203l-0.0048828,0.0146484
			c0.0131836,0.1743164,0.0717773,0.3173828,0.1757813,0.4296875c0.1044922,0.1123047,0.2460938,0.168457,0.4248047,0.168457
			c0.1591797,0,0.2915039-0.0161133,0.3964844-0.0473633c0.1049805-0.0322266,0.2202148-0.0820313,0.3447266-0.1503906
			l0.1948242,0.4394531c-0.1103516,0.0864258-0.2524414,0.1586914-0.4272461,0.2172852S55.4316406,61.090332,55.2167969,61.090332z
			 M55.152832,58.8979492c-0.1333008,0-0.2382813,0.050293-0.3154297,0.1513672s-0.1245117,0.2333984-0.1425781,0.3979492
			l0.0073242,0.012207h0.8813477v-0.0634766c0-0.1513672-0.0356445-0.2719727-0.1069336-0.362793
			C55.4052734,58.9433594,55.2973633,58.8979492,55.152832,58.8979492z"/>
		<path class="st1" d="M56.1235352,59.6938477c0-0.394043,0.1108398-0.7163086,0.3334961-0.9682617
			c0.2226563-0.2509766,0.5297852-0.3769531,0.9223633-0.3769531c0.3935547,0,0.7021484,0.1254883,0.9243164,0.3759766
			c0.2226563,0.2504883,0.3339844,0.5737305,0.3339844,0.9692383v0.0512695c0,0.3969727-0.1113281,0.7207031-0.3339844,0.9707031
			c-0.222168,0.2495117-0.5288086,0.3745117-0.9194336,0.3745117c-0.3959961,0-0.7045898-0.125-0.9272461-0.3745117
			c-0.2226563-0.25-0.3334961-0.5737305-0.3334961-0.9707031V59.6938477z M56.8422852,59.7451172
			c0,0.2407227,0.0429688,0.434082,0.1279297,0.5800781c0.0854492,0.1455078,0.2236328,0.2182617,0.4140625,0.2182617
			c0.1855469,0,0.3212891-0.0732422,0.4072266-0.2197266c0.0864258-0.1464844,0.1293945-0.3393555,0.1293945-0.5786133v-0.0512695
			c0-0.234375-0.043457-0.4257813-0.1303711-0.5737305s-0.2241211-0.222168-0.4111328-0.222168
			c-0.1875,0-0.3237305,0.0742188-0.4091797,0.222168c-0.0849609,0.1479492-0.1279297,0.3393555-0.1279297,0.5737305V59.7451172z"/>
		<path class="st1" d="M59.8276367,58.5439453c0.3740234,0,0.6669922,0.1142578,0.8789063,0.3427734
			c0.2119141,0.2290039,0.3178711,0.5249023,0.3178711,0.8876953v0.0512695c0,0.3745117-0.1113281,0.6787109-0.3339844,0.9130859
			c-0.222168,0.234375-0.5297852,0.3515625-0.921875,0.3515625c-0.394043,0-0.7021484-0.1196289-0.9248047-0.3588867
			c-0.222168-0.2392578-0.3334961-0.5458984-0.3334961-0.9204102v-0.3393555
			c0.0014648-0.5795898,0.1157227-1.0263672,0.3422852-1.340332s0.5229492-0.5068359,0.8886719-0.5786133
			c0.1591797-0.0258789,0.2773438-0.0605469,0.3535156-0.1035156c0.0761719-0.043457,0.1142578-0.1137695,0.1142578-0.2114258
			h0.5566406l0.0073242,0.0146484c0.0068359,0.315918-0.0664063,0.5249023-0.2192383,0.6274414
			c-0.1523438,0.1025391-0.4125977,0.1821289-0.7802734,0.2392578c-0.184082,0.0307617-0.3305664,0.1025391-0.4394531,0.2148438
			c-0.109375,0.1123047-0.1796875,0.2685547-0.2104492,0.46875l0.0097656,0.012207
			c0.090332-0.0795898,0.1958008-0.1450195,0.3164063-0.1953125S59.6962891,58.5439453,59.8276367,58.5439453z
			 M59.7636719,59.0932617c-0.1855469,0-0.3212891,0.0634766-0.40625,0.1904297
			c-0.0854492,0.1269531-0.128418,0.2905273-0.128418,0.4907227v0.0366211c0,0.2182617,0.0429688,0.3945313,0.128418,0.5297852
			c0.0849609,0.1352539,0.222168,0.2026367,0.4111328,0.2026367c0.1855469,0,0.3212891-0.0654297,0.4072266-0.1967773
			c0.0864258-0.1308594,0.1293945-0.3046875,0.1293945-0.5209961v-0.0512695c0-0.2001953-0.043457-0.3637695-0.1303711-0.4907227
			S59.9506836,59.0932617,59.7636719,59.0932617z"/>
		<path class="st1" d="M60.7734375,58.8271484v-0.4296875h1.0439453l0.034668,0.3076172
			c0.0786133-0.1137695,0.1728516-0.2016602,0.2827148-0.2636719c0.1103516-0.0620117,0.2382813-0.0927734,0.3842773-0.0927734
			c0.3300781,0,0.5859375,0.1279297,0.7685547,0.3833008c0.1821289,0.2553711,0.2729492,0.5917969,0.2729492,1.0083008v0.0512695
			c0,0.390625-0.0908203,0.7045898-0.2729492,0.9423828c-0.1826172,0.237793-0.4370117,0.3564453-0.7636719,0.3564453
			c-0.1396484,0-0.2631836-0.0258789-0.371582-0.0766602c-0.1083984-0.0517578-0.2011719-0.1269531-0.2783203-0.2260742v0.7641602
			L62.2211914,61.625v0.4296875h-1.4111328V61.625l0.347168-0.0732422v-2.6513672L60.7734375,58.8271484z M62.8417969,59.7402344
			c0-0.2490234-0.0419922-0.4506836-0.1254883-0.6054688c-0.0839844-0.1547852-0.2119141-0.2319336-0.3842773-0.2319336
			c-0.1083984,0-0.2006836,0.0219727-0.2768555,0.065918c-0.0766602,0.0439453-0.1367188,0.1064453-0.1811523,0.1879883v1.1572266
			c0.0444336,0.074707,0.1044922,0.1318359,0.1811523,0.1708984c0.0761719,0.0390625,0.1699219,0.0585938,0.2817383,0.0585938
			c0.1738281,0,0.3017578-0.0673828,0.3828125-0.2026367c0.081543-0.1352539,0.1220703-0.3183594,0.1220703-0.5493164V59.7402344z"
			/>
		<path class="st1" d="M65.0732422,61.0390625c-0.0195313-0.0439453-0.0366211-0.0888672-0.0517578-0.1357422
			c-0.0146484-0.0458984-0.0258789-0.0927734-0.0341797-0.1401367C64.9018555,60.8608398,64.7978516,60.9399414,64.6757813,61
			c-0.1225586,0.0600586-0.262207,0.090332-0.4199219,0.090332c-0.2612305,0-0.4682617-0.0703125-0.621582-0.2114258
			c-0.1538086-0.140625-0.2304688-0.3320313-0.2304688-0.574707c0-0.2475586,0.1000977-0.4384766,0.300293-0.5737305
			c0.2006836-0.1352539,0.4941406-0.2026367,0.8818359-0.2026367h0.3666992V59.269043
			c0-0.1269531-0.0366211-0.2255859-0.1108398-0.2954102c-0.0737305-0.0698242-0.1831055-0.1049805-0.3271484-0.1049805
			c-0.0825195,0-0.1552734,0.0092773-0.2192383,0.027832c-0.0639648,0.019043-0.1157227,0.0415039-0.1552734,0.0673828
			l-0.046875,0.2832031h-0.5415039l0.0024414-0.5859375c0.1313477-0.0878906,0.2817383-0.1621094,0.4516602-0.222168
			s0.3549805-0.090332,0.5551758-0.090332c0.3300781,0,0.5981445,0.0800781,0.8041992,0.2402344
			c0.2060547,0.1606445,0.309082,0.3886719,0.309082,0.6850586v1.0913086c0,0.0405273,0.0004883,0.0791016,0.0009766,0.1147461
			c0.0009766,0.0356445,0.0039063,0.0698242,0.0087891,0.1025391l0.2192383,0.0292969v0.4272461H65.0732422z M64.4501953,60.5629883
			c0.1083984,0,0.2070313-0.0229492,0.2958984-0.0698242c0.0883789-0.0458984,0.1572266-0.1044922,0.206543-0.1743164v-0.402832
			h-0.3666992c-0.152832,0-0.2685547,0.0351563-0.347168,0.1064453c-0.0791016,0.0703125-0.1181641,0.1557617-0.1181641,0.2548828
			c0,0.0893555,0.0288086,0.159668,0.0874023,0.2099609C64.2661133,60.5375977,64.347168,60.5629883,64.4501953,60.5629883z"/>
		<path class="st1" d="M66.7924805,59.4619141c0.1210938,0,0.2109375-0.0253906,0.2680664-0.0756836
			c0.0576172-0.050293,0.0864258-0.1220703,0.0864258-0.2148438c0-0.0844727-0.0273438-0.15625-0.0825195-0.2148438
			s-0.1450195-0.0878906-0.2695313-0.0878906c-0.1166992,0-0.2104492,0.0258789-0.2822266,0.078125
			c-0.0712891,0.0522461-0.1069336,0.1220703-0.1069336,0.2099609h-0.6967773l-0.0048828-0.0146484
			c-0.0097656-0.2358398,0.0869141-0.4267578,0.2905273-0.5727539c0.2036133-0.1455078,0.4580078-0.2182617,0.7631836-0.2182617
			c0.3413086,0,0.6113281,0.0668945,0.809082,0.2001953s0.2963867,0.3232422,0.2963867,0.5688477
			c0,0.1186523-0.0361328,0.2275391-0.1079102,0.3261719c-0.0722656,0.0981445-0.1723633,0.1757813-0.3007813,0.2329102
			c0.1479492,0.0522461,0.2607422,0.1298828,0.3388672,0.2329102c0.0776367,0.1035156,0.1166992,0.2299805,0.1166992,0.3798828
			c0,0.2475586-0.105957,0.4418945-0.3188477,0.5834961c-0.2124023,0.1416016-0.4902344,0.2124023-0.8334961,0.2124023
			c-0.3037109,0-0.5644531-0.0698242-0.7817383-0.2099609s-0.3212891-0.3417969-0.3115234-0.6054688l0.0024414-0.0146484h0.6967773
			c0,0.0913086,0.0380859,0.1669922,0.1132813,0.2270508c0.0756836,0.0600586,0.1821289,0.090332,0.3203125,0.090332
			c0.1328125,0,0.2324219-0.0317383,0.2978516-0.0952148s0.0986328-0.1416016,0.0986328-0.234375
			c0-0.1137695-0.0332031-0.1972656-0.0986328-0.2504883c-0.0654297-0.0527344-0.1665039-0.0791016-0.3027344-0.0791016h-0.3842773
			v-0.4541016H66.7924805z"/>
		<path class="st1" d="M67.753418,59.6938477c0-0.394043,0.1108398-0.7163086,0.3334961-0.9682617
			c0.2226563-0.2509766,0.5297852-0.3769531,0.9223633-0.3769531c0.3935547,0,0.7021484,0.1254883,0.9243164,0.3759766
			c0.2226563,0.2504883,0.3339844,0.5737305,0.3339844,0.9692383v0.0512695c0,0.3969727-0.1113281,0.7207031-0.3339844,0.9707031
			c-0.222168,0.2495117-0.5288086,0.3745117-0.9194336,0.3745117c-0.3959961,0-0.7045898-0.125-0.9272461-0.3745117
			c-0.2226563-0.25-0.3334961-0.5737305-0.3334961-0.9707031V59.6938477z M68.472168,59.7451172
			c0,0.2407227,0.0429688,0.434082,0.1279297,0.5800781c0.0854492,0.1455078,0.2236328,0.2182617,0.4140625,0.2182617
			c0.1855469,0,0.3212891-0.0732422,0.4072266-0.2197266c0.0864258-0.1464844,0.1293945-0.3393555,0.1293945-0.5786133v-0.0512695
			c0-0.234375-0.043457-0.4257813-0.1303711-0.5737305s-0.2241211-0.222168-0.4111328-0.222168
			c-0.1875,0-0.3237305,0.0742188-0.4091797,0.222168c-0.0849609,0.1479492-0.1279297,0.3393555-0.1279297,0.5737305V59.7451172z"/>
		<path class="st1" d="M71.6416016,58.3974609c0.3544922,0,0.6308594,0.0620117,0.8286133,0.1855469
			s0.296875,0.3076172,0.296875,0.5517578c0,0.1235352-0.0415039,0.2333984-0.1245117,0.3295898
			s-0.2006836,0.1694336-0.3535156,0.2197266c0.2021484,0.0390625,0.3549805,0.112793,0.4594727,0.2211914
			c0.1040039,0.1079102,0.15625,0.234375,0.15625,0.3793945c0,0.2490234-0.0942383,0.4370117-0.2817383,0.5639648
			c-0.1879883,0.1269531-0.4580078,0.1904297-0.809082,0.1904297h-1.6694336v-0.4272461l0.3842773-0.0732422v-1.6381836
			l-0.3842773-0.0732422v-0.4296875h0.3842773H71.6416016z M71.2451172,59.4741211h0.4360352
			c0.1264648-0.0014648,0.21875-0.0234375,0.2783203-0.065918c0.059082-0.0424805,0.0883789-0.1049805,0.0883789-0.1879883
			c0-0.0961914-0.0336914-0.1665039-0.1010742-0.2114258c-0.0673828-0.0444336-0.1689453-0.0668945-0.3051758-0.0668945h-0.3964844
			V59.4741211z M71.2451172,59.9379883v0.559082h0.5688477c0.1264648,0,0.2197266-0.0234375,0.2807617-0.0693359
			c0.0605469-0.046875,0.0908203-0.1152344,0.0908203-0.206543s-0.0288086-0.1611328-0.0874023-0.2099609
			c-0.0581055-0.0488281-0.152832-0.0732422-0.2841797-0.0732422H71.2451172z"/>
		<path class="st1" d="M74.4223633,61.0390625c-0.0195313-0.0439453-0.0366211-0.0888672-0.0517578-0.1357422
			c-0.0146484-0.0458984-0.0258789-0.0927734-0.0341797-0.1401367C74.2509766,60.8608398,74.1469727,60.9399414,74.0249023,61
			c-0.1225586,0.0600586-0.262207,0.090332-0.4199219,0.090332c-0.2612305,0-0.4682617-0.0703125-0.621582-0.2114258
			c-0.1538086-0.140625-0.2304688-0.3320313-0.2304688-0.574707c0-0.2475586,0.1000977-0.4384766,0.300293-0.5737305
			c0.2006836-0.1352539,0.4941406-0.2026367,0.8818359-0.2026367h0.3666992V59.269043
			c0-0.1269531-0.0366211-0.2255859-0.1108398-0.2954102c-0.0737305-0.0698242-0.1831055-0.1049805-0.3271484-0.1049805
			c-0.0825195,0-0.1552734,0.0092773-0.2192383,0.027832c-0.0639648,0.019043-0.1157227,0.0415039-0.1552734,0.0673828
			l-0.046875,0.2832031h-0.5415039l0.0024414-0.5859375c0.1313477-0.0878906,0.2817383-0.1621094,0.4516602-0.222168
			s0.3549805-0.090332,0.5551758-0.090332c0.3300781,0,0.5981445,0.0800781,0.8041992,0.2402344
			c0.2060547,0.1606445,0.309082,0.3886719,0.309082,0.6850586v1.0913086c0,0.0405273,0.0004883,0.0791016,0.0009766,0.1147461
			c0.0009766,0.0356445,0.0039063,0.0698242,0.0087891,0.1025391l0.2192383,0.0292969v0.4272461H74.4223633z M73.7993164,60.5629883
			c0.1083984,0,0.2070313-0.0229492,0.2958984-0.0698242c0.0883789-0.0458984,0.1572266-0.1044922,0.206543-0.1743164v-0.402832
			h-0.3666992c-0.152832,0-0.2685547,0.0351563-0.347168,0.1064453c-0.0791016,0.0703125-0.1181641,0.1557617-0.1181641,0.2548828
			c0,0.0893555,0.0288086,0.159668,0.0874023,0.2099609C73.6152344,60.5375977,73.6962891,60.5629883,73.7993164,60.5629883z"/>
		<path class="st1" d="M77.7543945,58.3974609v0.9008789h-0.5517578l-0.0292969-0.3564453h-0.4555664v1.5966797l0.3813477,0.0732422
			v0.4272461h-1.484375v-0.4272461l0.3813477-0.0732422v-1.5966797H75.550293l-0.0268555,0.3564453h-0.5517578v-0.9008789
			H77.7543945z"/>
		<path class="st1" d="M78.8237305,61.090332c-0.3842773,0-0.690918-0.1220703-0.9208984-0.3662109
			s-0.3447266-0.5541992-0.3447266-0.9301758v-0.0976563c0-0.3920898,0.1088867-0.715332,0.3261719-0.9692383
			s0.5092773-0.3798828,0.8754883-0.378418c0.359375,0,0.6386719,0.1074219,0.8369141,0.3222656
			c0.1987305,0.2148438,0.2983398,0.5053711,0.2983398,0.871582v0.3881836h-1.5908203l-0.0048828,0.0146484
			C78.3125,60.1196289,78.3710938,60.2626953,78.4750977,60.375c0.1044922,0.1123047,0.2460938,0.168457,0.4248047,0.168457
			c0.1591797,0,0.2915039-0.0161133,0.3964844-0.0473633c0.1049805-0.0322266,0.2202148-0.0820313,0.3447266-0.1503906
			l0.1948242,0.4394531c-0.1103516,0.0864258-0.2524414,0.1586914-0.4272461,0.2172852S79.0385742,61.090332,78.8237305,61.090332z
			 M78.7597656,58.8979492c-0.1333008,0-0.2382813,0.050293-0.3154297,0.1513672s-0.1245117,0.2333984-0.1425781,0.3979492
			l0.0073242,0.012207h0.8813477v-0.0634766c0-0.1513672-0.0356445-0.2719727-0.1069336-0.362793
			C79.012207,58.9433594,78.9042969,58.8979492,78.7597656,58.8979492z"/>
		<path class="st1" d="M81.2026367,60.6118164l0.3842773-0.0732422v-1.5893555h-0.6401367v0.5737305
			c0,0.5209961-0.0810547,0.9038086-0.2426758,1.1489258c-0.1616211,0.2446289-0.4370117,0.3671875-0.8261719,0.3671875h-0.1132813
			l-0.0097656-0.5615234l0.0791016-0.0024414c0.1640625,0,0.2705078-0.0668945,0.3198242-0.2001953
			s0.0737305-0.3842773,0.0737305-0.7519531v-0.6225586L79.84375,58.8271484v-0.4296875h2.4599609H82.6875v0.4296875
			l-0.3837891,0.0732422v1.6381836L82.6875,60.6118164v0.4272461h-1.4848633V60.6118164z"/>
		<path class="st1" d="M83.6826172,58.3974609v0.8520508h0.5c0.3608398,0,0.644043,0.0800781,0.8481445,0.2407227
			c0.2045898,0.1601563,0.3066406,0.3735352,0.3066406,0.640625c0,0.2734375-0.1025391,0.4931641-0.3076172,0.6591797
			c-0.2055664,0.1660156-0.487793,0.2490234-0.847168,0.2490234h-1.6030273v-0.4272461l0.3842773-0.0732422v-1.6381836
			l-0.3842773-0.0732422v-0.4296875h0.3842773H83.6826172z M84.0668945,58.3974609v0.4296875l-0.3842773,0.0732422v-0.5029297
			H84.0668945z M83.6826172,59.7646484v0.7299805h0.5c0.1474609,0,0.2578125-0.0327148,0.3300781-0.0991211
			c0.0717773-0.0654297,0.1079102-0.1523438,0.1079102-0.2597656c0-0.1108398-0.0356445-0.2001953-0.1069336-0.2685547
			s-0.1816406-0.1025391-0.3310547-0.1025391H83.6826172z"/>
	</g>
</g>
<g id="_x31_02_1_">
	<g id="XMLID_19_">
		<g>
			<rect x="93.1443253" y="50.5824318" class="st2" width="3.4376609" height="4.255477"/>
		</g>
		<g>
		</g>
	</g>
	<g id="XMLID_18_">
		<g>
			<rect x="100.2727814" y="50.5417213" class="st2" width="3.4376609" height="4.255477"/>
		</g>
		<g>
		</g>
	</g>
	<g id="XMLID_14_">
		<g>
			<rect x="95.8758392" y="50.8922615" class="st3" width="5.1633434" height="3.6058266"/>
		</g>
		<g>
		</g>
	</g>
	<g>
		<path class="st4" d="M97.8842773,53.2397461H97.1875v-0.1313477h0.2680664v-0.862793H97.1875V52.128418
			c0.0361328,0,0.0751953-0.003418,0.1166992-0.0092773s0.0727539-0.0146484,0.0942383-0.0263672
			c0.0263672-0.0141602,0.0473633-0.0327148,0.0625-0.0546875c0.015625-0.0224609,0.0244141-0.0522461,0.0263672-0.0898438
			h0.1342773v1.1601563h0.2626953V53.2397461z"/>
		<path class="st4" d="M98.9042969,52.5957031c0,0.230957-0.0361328,0.4008789-0.1083984,0.5087891
			s-0.1845703,0.1621094-0.3369141,0.1621094c-0.1542969,0-0.2670898-0.0546875-0.3383789-0.1640625
			c-0.0712891-0.1098633-0.1064453-0.277832-0.1064453-0.5048828c0-0.2290039,0.0356445-0.3979492,0.1079102-0.5068359
			c0.0717773-0.109375,0.184082-0.1640625,0.3369141-0.1640625c0.1542969,0,0.2670898,0.0556641,0.3383789,0.1665039
			S98.9042969,52.371582,98.9042969,52.5957031z M98.6767578,52.9882813
			c0.0205078-0.046875,0.0341797-0.1015625,0.0410156-0.1645508c0.0073242-0.0634766,0.0107422-0.1391602,0.0107422-0.2280273
			c0-0.0874023-0.003418-0.1635742-0.0107422-0.2280273c-0.0068359-0.0644531-0.0209961-0.1191406-0.0419922-0.1640625
			c-0.0200195-0.0444336-0.0473633-0.078125-0.0825195-0.1005859c-0.034668-0.0224609-0.0795898-0.0336914-0.1342773-0.0336914
			c-0.0541992,0-0.0991211,0.0112305-0.1342773,0.0336914c-0.0356445,0.0224609-0.0634766,0.0566406-0.0844727,0.1020508
			c-0.0195313,0.0424805-0.0327148,0.0981445-0.0400391,0.1669922c-0.0073242,0.0683594-0.0107422,0.1435547-0.0107422,0.2255859
			c0,0.0898438,0.0029297,0.1650391,0.0092773,0.2255859s0.0200195,0.1147461,0.0410156,0.1625977
			c0.0185547,0.0449219,0.0458984,0.0791016,0.0805664,0.1025391c0.034668,0.0239258,0.0810547,0.0356445,0.1386719,0.0356445
			c0.0541992,0,0.0991211-0.0112305,0.1347656-0.0336914S98.6572266,53.0336914,98.6767578,52.9882813z"/>
		<path class="st4" d="M99.8540039,53.2397461h-0.8710938V53.059082c0.0605469-0.0517578,0.1210938-0.1035156,0.1821289-0.1557617
			c0.0605469-0.0517578,0.1171875-0.1030273,0.1694336-0.1542969c0.1108398-0.1074219,0.1865234-0.1923828,0.2275391-0.2558594
			c0.0410156-0.0629883,0.0615234-0.1308594,0.0615234-0.2041016c0-0.0668945-0.0219727-0.1191406-0.0664063-0.1567383
			c-0.0439453-0.0380859-0.1054688-0.0566406-0.1845703-0.0566406c-0.0522461,0-0.1088867,0.0087891-0.1699219,0.0273438
			s-0.1210938,0.046875-0.1791992,0.0849609h-0.0087891v-0.1816406c0.0410156-0.0200195,0.0957031-0.0385742,0.1640625-0.0551758
			c0.0683594-0.0170898,0.1342773-0.0253906,0.1982422-0.0253906c0.1318359,0,0.2353516,0.0322266,0.3105469,0.0957031
			c0.074707,0.0634766,0.1123047,0.1499023,0.1123047,0.2587891c0,0.0488281-0.0063477,0.0947266-0.0185547,0.137207
			C99.7685547,52.4594727,99.7504883,52.5,99.7260742,52.5380859c-0.0224609,0.0356445-0.0488281,0.0708008-0.0791016,0.1054688
			c-0.0302734,0.0341797-0.0668945,0.0727539-0.1098633,0.1147461c-0.0620117,0.0605469-0.1254883,0.1191406-0.1914063,0.1757813
			c-0.0654297,0.0566406-0.1269531,0.109375-0.184082,0.1577148h0.6923828V53.2397461z"/>
	</g>
</g>
<g>
	
		<rect x="48.4509315" y="62.1005821" transform="matrix(-1 -1.224647e-16 1.224647e-16 -1 130.79776 130.3052673)" class="st5" width="33.8958893" height="6.1041088"/>
	<g>
		<path class="st1" d="M62.6523438,63.8666992c0.2944336,0,0.5244141,0.0639648,0.6904297,0.1923828
			c0.1655273,0.128418,0.2485352,0.3208008,0.2485352,0.5771484c0,0.1264648-0.0395508,0.2392578-0.1191406,0.3388672
			c-0.0791016,0.0996094-0.184082,0.1733398-0.3144531,0.2216797c0.1689453,0.0366211,0.3027344,0.1206055,0.4008789,0.2519531
			s0.1469727,0.284668,0.1469727,0.4589844c0,0.2602539-0.0839844,0.4594727-0.2514648,0.5966797
			c-0.1679688,0.137207-0.3950195,0.2060547-0.6816406,0.2060547h-1.3554688v-0.2460938l0.3154297-0.0546875v-2.2402344
			l-0.3154297-0.0546875v-0.2480469h0.3154297H62.6523438z M62.1137695,65.0756836h0.637207
			c0.1367188-0.0039063,0.2475586-0.0449219,0.3320313-0.1230469s0.1269531-0.1860352,0.1269531-0.3242188
			c0-0.1538086-0.0478516-0.2685547-0.1430664-0.3447266c-0.0957031-0.0761719-0.2338867-0.1142578-0.4145508-0.1142578h-0.5385742
			V65.0756836z M62.1137695,65.3764648v1.0332031h0.6586914c0.1743164,0,0.3095703-0.043457,0.4057617-0.1298828
			s0.144043-0.2094727,0.144043-0.3681641c0-0.1665039-0.0405273-0.2973633-0.1210938-0.3925781
			s-0.2041016-0.1425781-0.3706055-0.1425781H62.1137695z"/>
		<path class="st1" d="M63.8735352,64.8452148V64.597168h1.0126953v0.2480469l-0.315918,0.0546875v0.5898438h0.2016602
			l0.4375-0.5917969c0.0786133-0.1108398,0.1557617-0.1948242,0.2314453-0.2519531s0.1606445-0.0859375,0.2548828-0.0859375
			c0.059082,0,0.1083984,0.0073242,0.1469727,0.0224609s0.0825195,0.0380859,0.1318359,0.0693359l-0.0541992,0.2617188
			c-0.0556641-0.0092773-0.0874023-0.0141602-0.0961914-0.015625c-0.0083008-0.0014648-0.0253906-0.0019531-0.0512695-0.0019531
			c-0.0478516,0-0.0942383,0.0175781-0.1401367,0.0527344s-0.0864258,0.0766602-0.1210938,0.125l-0.4047852,0.5292969
			l0.6601563,0.8125l0.2695313,0.0488281v0.2460938h-0.5092773l-0.7089844-0.8964844h-0.2480469v0.5957031l0.315918,0.0546875
			v0.2460938h-1.0126953v-0.2460938l0.3154297-0.0546875v-1.5097656L63.8735352,64.8452148z"/>
		<path class="st1" d="M66.9013672,64.9018555v0.5976563c0,0.4165039-0.0546875,0.7226563-0.1635742,0.9179688
			c-0.109375,0.1953125-0.2958984,0.2929688-0.5605469,0.2929688h-0.1083984l0.0058594-0.328125l0.0791016-0.0019531
			c0.1367188,0,0.2319336-0.0668945,0.2856445-0.2011719s0.0805664-0.3608398,0.0805664-0.6796875v-0.5996094l-0.315918-0.0546875
			V64.597168h1.7895508h0.3154297v0.2480469l-0.3154297,0.0546875v1.5097656l0.3154297,0.0546875v0.2460938h-1.0126953v-0.2460938
			l0.315918-0.0546875v-1.5078125H66.9013672z"/>
		<path class="st1" d="M68.4189453,66.4643555l0.3154297-0.0546875v-1.5097656l-0.3154297-0.0546875V64.597168h0.6967773v0.8925781
			h0.5131836c0.0258789-0.2758789,0.1210938-0.5004883,0.2856445-0.6728516s0.3793945-0.2587891,0.644043-0.2587891
			c0.2890625,0,0.5180664,0.1010742,0.6865234,0.3027344s0.2529297,0.4594727,0.2529297,0.7734375v0.0429688
			c0,0.3149414-0.0839844,0.5727539-0.2519531,0.7734375s-0.3955078,0.3007813-0.6835938,0.3007813
			c-0.2724609,0-0.4912109-0.0888672-0.65625-0.2666016c-0.1655273-0.1777344-0.2583008-0.4091797-0.2792969-0.6943359h-0.5112305
			v0.6191406l0.315918,0.0546875v0.2460938h-1.0126953V66.4643555z M70.0048828,65.6772461
			c0,0.2241211,0.046875,0.4086914,0.1401367,0.5546875c0.09375,0.1459961,0.2329102,0.21875,0.4174805,0.21875
			c0.1806641,0,0.3183594-0.0727539,0.4125977-0.21875s0.1411133-0.3305664,0.1411133-0.5546875v-0.0429688
			c0-0.2211914-0.046875-0.4057617-0.1411133-0.5527344s-0.2333984-0.2207031-0.4165039-0.2207031
			s-0.3212891,0.0737305-0.4145508,0.2207031c-0.0927734,0.1469727-0.1391602,0.331543-0.1391602,0.5527344V65.6772461z"/>
		<path class="st1" d="M72.6455078,64.5952148v0.2460938l-0.3154297,0.0546875v0.3203125
			c0,0.1694336,0.0356445,0.293457,0.1074219,0.3730469c0.0712891,0.0795898,0.1782227,0.1191406,0.3203125,0.1191406
			c0.0854492,0,0.1665039-0.0048828,0.2441406-0.0146484c0.0771484-0.0097656,0.1542969-0.0244141,0.2304688-0.0439453v-0.75
			l-0.315918-0.0546875V64.597168h1.0126953v0.2480469l-0.3154297,0.0546875v1.5097656l0.3154297,0.0546875v0.2460938h-1.0126953
			v-0.2460938l0.315918-0.0546875v-0.453125c-0.0751953,0.0195313-0.1513672,0.0336914-0.2285156,0.0429688
			c-0.0776367,0.0092773-0.159668,0.0136719-0.2460938,0.0136719c-0.2529297,0-0.4511719-0.0668945-0.5947266-0.2011719
			c-0.1430664-0.1342773-0.2148438-0.3325195-0.2148438-0.5957031v-0.3203125l-0.3154297-0.0546875v-0.2460938h0.6972656H72.6455078
			z"/>
		<path class="st1" d="M75.0610352,66.7514648c-0.2915039,0-0.5239258-0.0981445-0.6962891-0.2939453
			s-0.2583008-0.4501953-0.2583008-0.7626953v-0.0859375c0-0.3007813,0.0888672-0.5512695,0.2661133-0.7509766
			c0.1777344-0.199707,0.3876953-0.2998047,0.6303711-0.2998047c0.2817383,0,0.4946289,0.0859375,0.6401367,0.2578125
			c0.1450195,0.171875,0.2177734,0.4008789,0.2177734,0.6875v0.2402344h-1.359375l-0.0058594,0.0097656
			c0.0039063,0.203125,0.0546875,0.3701172,0.152832,0.5009766s0.2358398,0.1962891,0.4125977,0.1962891
			c0.1293945,0,0.2426758-0.0185547,0.3398438-0.0556641c0.0976563-0.0371094,0.1816406-0.0883789,0.2529297-0.1533203
			l0.1489258,0.25c-0.074707,0.0727539-0.1738281,0.1342773-0.2973633,0.1845703
			C75.3823242,66.7265625,75.2338867,66.7514648,75.0610352,66.7514648z M74.7280273,64.2104492h-0.4223633v-0.390625h0.4223633
			V64.2104492z M75.0029297,64.8608398c-0.1279297,0-0.2368164,0.0541992-0.3271484,0.1630859
			s-0.1459961,0.2451172-0.1665039,0.4091797l0.0039063,0.0097656h0.9663086v-0.0507813
			c0-0.1508789-0.0400391-0.2773438-0.1201172-0.3789063S75.1606445,64.8608398,75.0029297,64.8608398z M75.6381836,64.2104492
			h-0.4223633v-0.390625h0.4223633V64.2104492z"/>
		<path class="st1" d="M76.0541992,64.8452148V64.597168h1.0126953v0.2480469l-0.315918,0.0546875v0.6113281h0.9316406v-0.6113281
			l-0.3154297-0.0546875V64.597168h0.3154297h0.3833008h0.315918v0.2480469l-0.315918,0.0546875v1.5097656l0.315918,0.0546875
			v0.2460938h-1.0146484v-0.2460938l0.3154297-0.0546875v-0.5976563h-0.9316406v0.5976563l0.315918,0.0546875v0.2460938h-1.0126953
			v-0.2460938l0.3154297-0.0546875v-1.5097656L76.0541992,64.8452148z"/>
	</g>
	<g id="Светодиод_1_">
		
			<rect x="49.273922" y="63.079422" transform="matrix(-1 -1.224647e-16 1.224647e-16 -1 98.8890152 130.4005127)" class="st1" width="0.3411765" height="4.2416654"/>
		<g>
			<g id="XMLID_13_">
				<g>
					<rect x="49.9518471" y="63.0648537" class="st2" width="3.4358907" height="4.255477"/>
				</g>
				<g>
				</g>
			</g>
			<g id="XMLID_12_">
				<g>
					<rect x="57.0803032" y="63.0241394" class="st2" width="3.4358907" height="4.2572474"/>
				</g>
				<g>
				</g>
			</g>
			<circle class="st6" cx="55.2986221" cy="65.0705872" r="0.5520833"/>
		</g>
		<path class="st7" d="M57.9100533,65.1729202c-0.0003471-0.2929688,0.141407-0.6022491,0.4296074-0.6939087
			c0.0606499-0.0212936,0.0606499-1.433979,0.0606499-1.433979s-0.7387772,0-1.4775543,0v4.2557716
			c0.7387772,0,1.4775543,0,1.4775543,0s0-1.4126892-0.0606499-1.4339752
			C58.0514603,65.7751694,57.9097061,65.465889,57.9100533,65.1729202"/>
		<path class="st7" d="M58.1913033,65.1729202c-0.0003471-0.2929688,0.141407-0.6022491,0.4296074-0.6939087
			c0.0606499-0.0212936,0.0606499-1.433979,0.0606499-1.433979s-0.7387772,0-1.4775543,0v4.2557716
			c0.7387772,0,1.4775543,0,1.4775543,0s0-1.4126892-0.0606499-1.4339752
			C58.3327103,65.7751694,58.1909561,65.465889,58.1913033,65.1729202"/>
		<path class="st7" d="M52.6199722,65.1729202c0.0003471-0.2929688-0.141407-0.6022491-0.4296112-0.6939087
			c-0.0606499-0.0212936-0.0606499-1.433979-0.0606499-1.433979s0.7387772,0,1.4775581,0v4.2557716
			c-0.738781,0-1.4775581,0-1.4775581,0s0-1.4126892,0.0606499-1.4339752
			C52.4785652,65.7751694,52.6203194,65.465889,52.6199722,65.1729202"/>
		
			<rect x="53.6072693" y="63.0450325" transform="matrix(-1 -1.224647e-16 1.224647e-16 -1 110.5300217 130.3458405)" class="st8" width="3.3154881" height="4.2557707"/>
		
			<rect x="53.6072693" y="63.0450325" transform="matrix(-1 -1.224647e-16 1.224647e-16 -1 110.5300217 130.3458405)" class="st9" width="3.3154881" height="4.2557707"/>
	</g>
</g>
<g>
	
		<rect x="52.3197975" y="72.3367462" transform="matrix(6.123234e-17 -1 1 6.123234e-17 -17.6523628 134.2086182)" class="st2" width="11.916667" height="7.1875"/>
	
		<rect x="72.2632065" y="72.3367462" transform="matrix(6.123234e-17 -1 1 6.123234e-17 2.2910421 154.1520386)" class="st2" width="11.916667" height="7.1875"/>
	
		<rect x="62.2915001" y="65.9587936" transform="matrix(6.123234e-17 -1 1 6.123234e-17 -7.6806607 144.1803284)" class="st7" width="11.916667" height="19.9434052"/>
	
		<rect x="70.6202087" y="74.2875061" transform="matrix(6.123234e-17 -1 1 6.123234e-17 0.6480507 152.5090332)" class="st10" width="11.916667" height="3.2859826"/>
	<g>
		<rect x="60.5703278" y="74.616951" class="st11" width="11.7557163" height="3.8252354"/>
		<path class="st10" d="M70.5634766,76.3969727h-0.3945313v-0.2949219h0.3945313v-0.6601563h0.3632813v0.6601563h1.2949219
			v0.2128906l-1.2734375,1.9707031h-0.3847656V76.3969727z M71.8115234,76.3969727h-0.8847656v1.3945313l0.0429688-0.078125
			L71.8115234,76.3969727z"/>
		<path class="st10" d="M67.9467773,78.0825195l1.1777344-2.640625h0.3789063l-1.1738281,2.546875h1.5390625v0.296875h-1.921875
			V78.0825195z"/>
		<path class="st10" d="M65.640625,78.0825195l1.1777344-2.640625h0.3789063l-1.1738281,2.546875H67.5625v0.296875h-1.921875
			V78.0825195z"/>
		<path class="st10" d="M62.4560547,76.1860352h1.1914063l0.2675781-0.7441406h0.3867188l-1.0859375,2.84375h-0.328125
			l-1.0878906-2.84375h0.3847656L62.4560547,76.1860352z M63.5341797,76.4926758h-0.9667969l0.484375,1.3300781
			L63.5341797,76.4926758z"/>
	</g>
	<line class="st5" x1="82.736702" y1="69.9721603" x2="82.736702" y2="81.8888245"/>
</g>
<g>
	<line class="st5" x1="49.0071526" y1="69.9721603" x2="49.0071526" y2="81.8888245"/>
	
		<rect x="18.59025" y="72.3367462" transform="matrix(6.123234e-17 -1 1 6.123234e-17 -51.3819122 100.4790802)" class="st2" width="11.916667" height="7.1875"/>
	
		<rect x="38.5336571" y="72.3367462" transform="matrix(6.123234e-17 -1 1 6.123234e-17 -31.4385052 120.4224854)" class="st2" width="11.916667" height="7.1875"/>
	
		<rect x="28.5619526" y="65.9587936" transform="matrix(6.123234e-17 -1 1 6.123234e-17 -41.4102058 110.4507828)" class="st7" width="11.916667" height="19.9434052"/>
	
		<rect x="36.8906631" y="74.2875061" transform="matrix(6.123234e-17 -1 1 6.123234e-17 -33.0814972 118.7794952)" class="st10" width="11.916667" height="3.2859826"/>
	<g>
		<rect x="26.8407803" y="74.616951" class="st11" width="11.7557163" height="3.8252354"/>
		<path class="st10" d="M37.171875,75.4438477h0.3632813v2.4082031l0.7285156-0.2675781v0.328125l-1.0351563,0.3886719H37.171875
			V75.4438477z"/>
		<path class="st10" d="M34.2700195,76.6567383c0-0.4228516,0.0722656-0.7373047,0.2167969-0.9433594
			s0.3706055-0.3085938,0.6777344-0.3085938c0.3032227,0,0.527832,0.1005859,0.6738281,0.3017578
			s0.2211914,0.5019531,0.2265625,0.9013672v0.4824219c0,0.4179688-0.0722656,0.7285156-0.2167969,0.9316406
			s-0.3710938,0.3046875-0.6796875,0.3046875c-0.3061523,0-0.53125-0.0976563-0.6757813-0.2939453
			s-0.21875-0.4980469-0.2226563-0.9072266V76.6567383z M34.6313477,77.1508789
			c0,0.3056641,0.0429688,0.5292969,0.1289063,0.6689453s0.222168,0.2099609,0.4082031,0.2099609
			c0.1850586,0,0.3198242-0.0693359,0.4042969-0.2089844s0.128418-0.3535156,0.1308594-0.6425781v-0.578125
			c0-0.3076172-0.0444336-0.5341797-0.1337891-0.6806641s-0.2241211-0.2197266-0.4052734-0.2197266
			c-0.1782227,0-0.3110352,0.0693359-0.3974609,0.2070313s-0.1318359,0.3554688-0.1357422,0.6523438V77.1508789z"/>
		<path class="st10" d="M31.9111328,78.0844727l1.1777344-2.640625h0.3789063l-1.1738281,2.546875h1.5390625v0.296875h-1.921875
			V78.0844727z"/>
		<path class="st10" d="M29.3554688,75.9418945l-0.8125,2.3457031h-0.4101563l1.0546875-2.84375h0.3320313l1.0527344,2.84375
			h-0.4082031L29.3554688,75.9418945z"/>
	</g>
</g>
<g id="Катушка_1_">
	
		<rect x="72.8035431" y="9.0946007" transform="matrix(-1 -1.224647e-16 1.224647e-16 -1 180.3314972 52.630146)" class="st12" width="34.724411" height="34.4409447"/>
	<path class="st13" d="M85.1578751,9.0946007h10.0157471c6.5999985,0,12,5.3999996,12,12v10.4409447c0,6.5999985-5.4000015,12-12,12
		H85.1578751c-6.5999985,0-12-5.4000015-12-12V21.0946007C73.1578751,14.4946003,78.5578766,9.0946007,85.1578751,9.0946007z"/>
	<circle class="st14" cx="90.1657486" cy="26.315073" r="14.1732283"/>
	<path class="st15" d="M101.5264816,34.7901611c0.4470978,0.3897476,0.7296448,0.9634666,0.7296448,1.6031799
		c0,1.1741486-0.9518356,2.1259842-2.1259842,2.1259842c-0.6483154,0-1.2288437-0.2901917-1.6187973-0.7477646"/>
	<path class="st15" d="M81.819725,37.7710724c-0.3899536,0.4578552-0.970665,0.7482529-1.6192093,0.7482529
		c-1.1741486,0-2.1259842-0.9518356-2.1259842-2.1259842c0-0.6398277,0.2826462-1.2136383,0.7298813-1.6033859"/>
	<path class="st15" d="M78.8296661,17.8061485c-0.4618225-0.3899822-0.7551346-0.9732628-0.7551346-1.6250496
		c0-1.1741495,0.9518356-2.1259851,2.1259842-2.1259851c0.6650238,0,1.2587357,0.3053484,1.6485748,0.7834911"/>
	<path class="st15" d="M98.4818192,14.8382959c0.3898392-0.4779654,0.9834366-0.7831821,1.6483231-0.7831821
		c1.1741486,0,2.1259842,0.9518356,2.1259842,2.1259851c0,0.6517239-0.2932587,1.2349548-0.7550049,1.6249371"/>
	<g>
		<path class="st16" d="M90.2480469,28.2163086c0.0839844-0.09375,0.1894531-0.1708984,0.3164063-0.2314453
			s0.2910156-0.0908203,0.4921875-0.0908203c0.1992188,0,0.3818359,0.0361328,0.5478516,0.1083984
			s0.3105469,0.1738281,0.4335938,0.3046875c0.1367188,0.1464844,0.237793,0.3188477,0.3032227,0.5170898
			s0.0981445,0.4155273,0.0981445,0.6518555c0,0.2421875-0.0288086,0.4804688-0.0864258,0.7148438
			s-0.1206055,0.4267578-0.1889648,0.5771484h-0.6123047v-0.0439453c0.109375-0.1660156,0.2001953-0.3613281,0.2724609-0.5859375
			s0.1083984-0.4414063,0.1083984-0.6503906c0-0.1230469-0.0205078-0.2539063-0.0615234-0.3925781
			s-0.1015625-0.2509766-0.1816406-0.3369141c-0.0859375-0.0898438-0.1806641-0.1567383-0.2841797-0.2006836
			s-0.234375-0.065918-0.3925781-0.065918c-0.15625,0-0.2856445,0.0249023-0.3881836,0.074707
			s-0.1831055,0.1186523-0.2416992,0.206543c-0.0605469,0.0878906-0.1020508,0.1943359-0.1245117,0.3193359
			s-0.0336914,0.2597656-0.0336914,0.4042969v0.2636719h-0.4863281v-0.2050781c0-0.296875-0.0620117-0.5336914-0.1860352-0.7104492
			s-0.3051758-0.2651367-0.543457-0.2651367c-0.1054688,0-0.1977539,0.0224609-0.2768555,0.0673828
			s-0.144043,0.1074219-0.1948242,0.1875c-0.0507813,0.0839844-0.0859375,0.1738281-0.1054688,0.2695313
			s-0.0292969,0.2041016-0.0292969,0.3251953c0,0.1855469,0.0332031,0.3828125,0.0996094,0.5917969
			s0.1601563,0.40625,0.28125,0.5917969v0.0292969h-0.6123047c-0.0683594-0.1386719-0.1313477-0.3237305-0.1889648-0.5551758
			s-0.0864258-0.4555664-0.0864258-0.6723633c0-0.2128906,0.0195313-0.4003906,0.0585938-0.5625
			s0.1015625-0.3085938,0.1875-0.4394531c0.09375-0.140625,0.2070313-0.2470703,0.3398438-0.3193359
			s0.2880859-0.1083984,0.4658203-0.1083984c0.2421875,0,0.4536133,0.0854492,0.6342773,0.2563477
			s0.2944336,0.3725586,0.3413086,0.6049805h0.0410156c0.015625-0.09375,0.0483398-0.2011719,0.0981445-0.3222656
			S90.1738281,28.300293,90.2480469,28.2163086z"/>
		<path class="st16" d="M90.2480469,25.0019531c0.0839844-0.09375,0.1894531-0.1708984,0.3164063-0.2314453
			s0.2910156-0.0908203,0.4921875-0.0908203c0.1992188,0,0.3818359,0.0361328,0.5478516,0.1083984
			s0.3105469,0.1738281,0.4335938,0.3046875c0.1367188,0.1464844,0.237793,0.3188477,0.3032227,0.5170898
			s0.0981445,0.4155273,0.0981445,0.6518555c0,0.2421875-0.0288086,0.4804688-0.0864258,0.7148438
			s-0.1206055,0.4267578-0.1889648,0.5771484h-0.6123047v-0.0439453c0.109375-0.1660156,0.2001953-0.3613281,0.2724609-0.5859375
			s0.1083984-0.4414063,0.1083984-0.6503906c0-0.1230469-0.0205078-0.2539063-0.0615234-0.3925781
			s-0.1015625-0.2509766-0.1816406-0.3369141c-0.0859375-0.0898438-0.1806641-0.1567383-0.2841797-0.2006836
			s-0.234375-0.065918-0.3925781-0.065918c-0.15625,0-0.2856445,0.0249023-0.3881836,0.074707
			s-0.1831055,0.1186523-0.2416992,0.206543c-0.0605469,0.0878906-0.1020508,0.1943359-0.1245117,0.3193359
			s-0.0336914,0.2597656-0.0336914,0.4042969v0.2636719h-0.4863281v-0.2050781c0-0.296875-0.0620117-0.5336914-0.1860352-0.7104492
			s-0.3051758-0.2651367-0.543457-0.2651367c-0.1054688,0-0.1977539,0.0224609-0.2768555,0.0673828
			s-0.144043,0.1074219-0.1948242,0.1875c-0.0507813,0.0839844-0.0859375,0.1738281-0.1054688,0.2695313
			s-0.0292969,0.2041016-0.0292969,0.3251953c0,0.1855469,0.0332031,0.3828125,0.0996094,0.5917969
			s0.1601563,0.40625,0.28125,0.5917969v0.0292969h-0.6123047c-0.0683594-0.1386719-0.1313477-0.3237305-0.1889648-0.5551758
			s-0.0864258-0.4555664-0.0864258-0.6723633c0-0.2128906,0.0195313-0.4003906,0.0585938-0.5625
			s0.1015625-0.3085938,0.1875-0.4394531c0.09375-0.140625,0.2070313-0.2470703,0.3398438-0.3193359
			s0.2880859-0.1083984,0.4658203-0.1083984c0.2421875,0,0.4536133,0.0854492,0.6342773,0.2563477
			s0.2944336,0.3725586,0.3413086,0.6049805h0.0410156c0.015625-0.09375,0.0483398-0.2011719,0.0981445-0.3222656
			S90.1738281,25.0859375,90.2480469,25.0019531z"/>
		<path class="st16" d="M90.1660156,21.409668c0.7832031,0,1.3579102,0.1225586,1.7241211,0.3676758
			s0.5493164,0.6254883,0.5493164,1.1411133c0,0.5234375-0.1855469,0.9057617-0.5566406,1.1469727
			s-0.9414063,0.3618164-1.7109375,0.3618164c-0.7753906,0-1.3481445-0.1220703-1.7182617-0.3662109
			s-0.5551758-0.625-0.5551758-1.1425781c0-0.5234375,0.1879883-0.9057617,0.5639648-1.1469727
			S89.40625,21.409668,90.1660156,21.409668z M91.4960938,22.1801758c-0.1582031-0.0683594-0.3442383-0.1147461-0.5581055-0.1391602
			s-0.4711914-0.0366211-0.7719727-0.0366211c-0.296875,0-0.5546875,0.012207-0.7734375,0.0366211
			s-0.4042969,0.0717773-0.5566406,0.1420898c-0.1503906,0.0683594-0.2636719,0.1616211-0.3398438,0.2797852
			s-0.1142578,0.2700195-0.1142578,0.4555664c0,0.1835938,0.0380859,0.3354492,0.1142578,0.4555664
			s0.1914063,0.215332,0.3457031,0.2856445c0.1445313,0.0664063,0.3330078,0.1118164,0.5654297,0.1362305
			s0.4873047,0.0366211,0.7646484,0.0366211c0.3046875,0,0.5595703-0.0107422,0.7646484-0.0322266
			s0.3886719-0.0673828,0.5507813-0.1376953c0.1523438-0.0644531,0.2685547-0.1557617,0.3486328-0.2739258
			s0.1201172-0.2749023,0.1201172-0.4702148c0-0.1835938-0.0380859-0.3359375-0.1142578-0.4570313
			S91.6503906,22.246582,91.4960938,22.1801758z"/>
	</g>
</g>
<g id="микросхема_1_">
	<g id="XMLID_11_">
		<g>
			<rect x="47.9405479" y="39.6240768" class="st2" width="3.4376609" height="4.255477"/>
		</g>
		<g>
		</g>
	</g>
	<g id="XMLID_10_">
		<g>
			<rect x="38.2862511" y="39.6786003" class="st2" width="3.4376609" height="4.255477"/>
		</g>
		<g>
		</g>
	</g>
	<g id="XMLID_9_">
		<g>
			<rect x="43.1133995" y="39.6786003" class="st2" width="3.4376609" height="4.255477"/>
		</g>
		<g>
		</g>
	</g>
	<g id="XMLID_8_">
		<g>
			<rect x="52.7826958" y="39.6786003" class="st2" width="3.4376609" height="4.255477"/>
		</g>
		<g>
		</g>
	</g>
	<g id="XMLID_7_">
		<g>
			<rect x="57.6098442" y="39.6786003" class="st2" width="3.4376609" height="4.255477"/>
		</g>
		<g>
		</g>
	</g>
	<rect x="36.4786453" y="7.7276049" class="st17" width="26.3622055" height="22.9606304"/>
	<circle class="st18" cx="37.880291" cy="29.1448593" r="0.5433753"/>
	<polygon class="st19" points="35.7699852,4.475637 35.7699852,7.7276049 63.549511,7.7276049 63.549511,4.475637 
		59.1166115,3.4756362 40.1619873,3.4756362 	"/>
	
		<rect x="33.6125031" y="35.6488647" transform="matrix(-1.836970e-16 1 -1 -1.836970e-16 77.0566406 -2.9242671)" class="st20" width="12.7559052" height="2.8346457"/>
	
		<rect x="38.4471474" y="35.6488647" transform="matrix(-1.836970e-16 1 -1 -1.836970e-16 81.8912888 -7.758914)" class="st20" width="12.7559052" height="2.8346457"/>
	
		<rect x="43.2817955" y="35.6488647" transform="matrix(-1.836970e-16 1 -1 -1.836970e-16 86.7259369 -12.5935612)" class="st20" width="12.7559052" height="2.8346457"/>
	
		<rect x="48.1164436" y="35.6488647" transform="matrix(-1.836970e-16 1 -1 -1.836970e-16 91.560585 -17.4282074)" class="st20" width="12.7559052" height="2.8346457"/>
	
		<rect x="52.951088" y="35.6488647" transform="matrix(-1.836970e-16 1 -1 -1.836970e-16 96.3952332 -22.2628555)" class="st20" width="12.7559052" height="2.8346457"/>
	
		<rect x="51.7148666" y="18.8542023" transform="matrix(-1.836970e-16 1 -1 -1.836970e-16 82.403717 -43.9866486)" class="st21" width="22.9606304" height="0.7086614"/>
	
		<rect x="24.644001" y="18.8535881" transform="matrix(-1.836970e-16 1 -1 -1.836970e-16 55.3322334 -16.9163952)" class="st21" width="22.9606304" height="0.7086614"/>
	<rect x="35.7699852" y="7.0594616" class="st21" width="27.7795277" height="0.7086614"/>
</g>
<g id="диод_2_">
	
		<rect x="36.9322891" y="59.5868301" transform="matrix(-1.836970e-16 1 -1 -1.836970e-16 100.994606 21.0831566)" class="st2" width="6.046875" height="2.9041054"/>
	
		<rect x="23.1296177" y="59.5394325" transform="matrix(-1.836970e-16 1 -1 -1.836970e-16 87.1445389 34.8384323)" class="st2" width="6.046875" height="2.9041054"/>
	
		<rect x="29.4284267" y="55.5954094" transform="matrix(-1.836970e-16 1 -1 -1.836970e-16 94.0990829 27.8838921)" class="st22" width="7.3583331" height="10.7921572"/>
	<g>
		<path class="st4" d="M35.3422852,60.8056641c0.1972656,0.0571289,0.3413086,0.1269531,0.4311523,0.2094727
			c0.0898438,0.0830078,0.1347656,0.1850586,0.1347656,0.3066406c0,0.1376953-0.0546875,0.2514648-0.1645508,0.3413086
			c-0.1103516,0.0898438-0.2529297,0.1347656-0.4291992,0.1347656c-0.1196289,0-0.2265625-0.0229492-0.3208008-0.0693359
			c-0.09375-0.0463867-0.1665039-0.1103516-0.2182617-0.1918945s-0.0771484-0.1708984-0.0771484-0.2675781h0.2314453
			c0,0.105957,0.0336914,0.1889648,0.1005859,0.2495117c0.0673828,0.0605469,0.1621094,0.0908203,0.2841797,0.0908203
			c0.1137695,0,0.2021484-0.0249023,0.2661133-0.074707c0.0634766-0.050293,0.0952148-0.1196289,0.0952148-0.2084961
			c0-0.0712891-0.0302734-0.1318359-0.0908203-0.1811523c-0.0600586-0.0493164-0.1630859-0.0942383-0.3081055-0.1352539
			c-0.1450195-0.0405273-0.2587891-0.0859375-0.3408203-0.1347656c-0.0820313-0.0493164-0.1425781-0.1069336-0.1821289-0.1723633
			s-0.0595703-0.1425781-0.0595703-0.2314453c0-0.1416016,0.0551758-0.2548828,0.1655273-0.3398438
			c0.1103516-0.0854492,0.2578125-0.1279297,0.4428711-0.1279297c0.1196289,0,0.2319336,0.0229492,0.3359375,0.0688477
			s0.184082,0.1088867,0.2402344,0.1889648c0.0566406,0.0800781,0.0844727,0.1708984,0.0844727,0.2724609h-0.2314453
			c0-0.1054688-0.0390625-0.1889648-0.1166992-0.25c-0.078125-0.0615234-0.1821289-0.0917969-0.3125-0.0917969
			c-0.121582,0-0.2148438,0.0244141-0.2797852,0.0742188c-0.0644531,0.0493164-0.097168,0.1171875-0.097168,0.2026367
			s0.0302734,0.1518555,0.090332,0.1987305C35.0756836,60.7143555,35.1845703,60.7602539,35.3422852,60.8056641z"/>
		<path class="st4" d="M34.1303711,60.8056641c0.1972656,0.0571289,0.3413086,0.1269531,0.4311523,0.2094727
			c0.0898438,0.0830078,0.1347656,0.1850586,0.1347656,0.3066406c0,0.1376953-0.0546875,0.2514648-0.1645508,0.3413086
			c-0.1103516,0.0898438-0.2529297,0.1347656-0.4291992,0.1347656c-0.1196289,0-0.2265625-0.0229492-0.3208008-0.0693359
			c-0.09375-0.0463867-0.1665039-0.1103516-0.2182617-0.1918945s-0.0771484-0.1708984-0.0771484-0.2675781h0.2314453
			c0,0.105957,0.0336914,0.1889648,0.1005859,0.2495117c0.0673828,0.0605469,0.1621094,0.0908203,0.2841797,0.0908203
			c0.1137695,0,0.2021484-0.0249023,0.2661133-0.074707c0.0634766-0.050293,0.0952148-0.1196289,0.0952148-0.2084961
			c0-0.0712891-0.0302734-0.1318359-0.0908203-0.1811523c-0.0600586-0.0493164-0.1630859-0.0942383-0.3081055-0.1352539
			c-0.1450195-0.0405273-0.2587891-0.0859375-0.3408203-0.1347656c-0.0820313-0.0493164-0.1425781-0.1069336-0.1821289-0.1723633
			s-0.0595703-0.1425781-0.0595703-0.2314453c0-0.1416016,0.0551758-0.2548828,0.1655273-0.3398438
			c0.1103516-0.0854492,0.2578125-0.1279297,0.4428711-0.1279297c0.1196289,0,0.2319336,0.0229492,0.3359375,0.0688477
			s0.184082,0.1088867,0.2402344,0.1889648c0.0566406,0.0800781,0.0844727,0.1708984,0.0844727,0.2724609h-0.2314453
			c0-0.1054688-0.0390625-0.1889648-0.1166992-0.25c-0.078125-0.0615234-0.1821289-0.0917969-0.3125-0.0917969
			c-0.121582,0-0.2148438,0.0244141-0.2797852,0.0742188c-0.0644531,0.0493164-0.097168,0.1171875-0.097168,0.2026367
			s0.0302734,0.1518555,0.090332,0.1987305C33.8637695,60.7143555,33.9726563,60.7602539,34.1303711,60.8056641z"/>
		<path class="st4" d="M33.3886719,60.902832l-0.0888672,0.8710938h-0.8950195v-0.2050781h0.706543l0.0527344-0.4760742
			c-0.0854492,0.050293-0.1826172,0.0751953-0.2915039,0.0751953c-0.1586914,0-0.2851563-0.0522461-0.3789063-0.1577148
			c-0.0932617-0.1049805-0.1401367-0.2470703-0.1401367-0.4262695c0-0.1801758,0.0483398-0.3217773,0.1455078-0.425293
			s0.2329102-0.1552734,0.4072266-0.1552734c0.1542969,0,0.2802734,0.0424805,0.3779297,0.128418
			c0.0976563,0.0854492,0.1533203,0.2036133,0.1669922,0.3549805h-0.2099609
			c-0.0136719-0.1000977-0.0493164-0.175293-0.1069336-0.2260742s-0.1333008-0.0761719-0.2280273-0.0761719
			c-0.1030273,0-0.184082,0.0351563-0.2426758,0.1054688c-0.059082,0.0703125-0.0883789,0.1674805-0.0883789,0.2915039
			c0,0.1166992,0.0317383,0.2104492,0.0957031,0.28125c0.0634766,0.0708008,0.1479492,0.1064453,0.253418,0.1064453
			c0.0966797,0,0.1728516-0.0214844,0.2280273-0.0639648l0.0585938-0.0478516L33.3886719,60.902832z"/>
		<path class="st4" d="M31.4199219,60.6137695h-0.2421875v-0.1811523h0.2421875v-0.4052734h0.2231445v0.4052734h0.7954102v0.1308594
			L31.65625,61.7739258h-0.2363281V60.6137695z M32.1865234,60.6137695h-0.543457v0.8564453l0.0263672-0.0478516
			L32.1865234,60.6137695z"/>
	</g>
</g>
<g>
	<polyline class="st23" points="107.356575,79.4982224 107.356575,58.068306 92.8019257,58.068306 92.8019257,79.4982224 
		107.356575,79.4982224 107.3569489,72.3265762 92.8019257,72.3265762 92.8019257,65.1549225 107.3569489,65.1549225 	"/>
	<g>
		<g>
			<g>
				<g>
					<polygon class="st1" points="101.5454559,65.1500168 100.2734833,63.8760872 100.2749481,59.3438606 101.5488739,58.071888 
						106.0811005,58.0733528 107.3530731,59.3472786 107.3516083,63.8795052 106.0791473,65.1500168 					"/>
					<path class="st18" d="M106.076828,58.0782967l0.6348877,0.6348724l0.6348572,0.6348572v4.5271606l-0.5757446,0.5757484
						l-0.6940002,0.693985h-4.5271301l-0.3743896-0.3743896l-0.8953247-0.8953438v-4.5271606l0.6348572-0.6348572
						l0.6348572-0.6348724H106.076828 M106.0809784,58.0683022h-4.5354309
						c-0.4981384,0.4981537-0.7774353,0.7774506-1.2755737,1.275589v4.5354309
						c0.4981384,0.4981575,0.7774353,0.7774544,1.2755737,1.2756081h4.5354309
						c0.4981689-0.4981537,0.7774353-0.7774506,1.2756042-1.2756081v-4.5354309
						C106.8584137,58.8457527,106.5791473,58.5664558,106.0809784,58.0683022L106.0809784,58.0683022z"/>
				</g>
			</g>
			
				<rect x="102.9294357" y="60.704525" transform="matrix(-1.836970e-16 1 -1 -1.836970e-16 165.424881 -42.2016602)" class="st24" width="1.7676752" height="1.8141732"/>
			
				<rect x="103.3299255" y="61.1155472" transform="matrix(-1.836970e-16 1 -1 -1.836970e-16 165.424881 -42.2016602)" class="st25" width="0.9666973" height="0.992126"/>
			<line class="st26" x1="104.7203598" y1="60.7277756" x2="104.3093338" y2="61.1282616"/>
			<line class="st26" x1="104.3093338" y1="62.0949593" x2="104.7203598" y2="62.4954491"/>
			<line class="st26" x1="103.3172073" y1="62.0949593" x2="102.9061813" y2="62.4954491"/>
			<line class="st26" x1="103.3172073" y1="61.1282616" x2="102.9061813" y2="60.7277756"/>
		</g>
	</g>
	<g>
		<g>
			<g>
				<g>
					<polygon class="st1" points="101.5454559,79.4932785 100.2734833,78.2193527 100.2749481,73.6871262 101.5488739,72.4151535 
						106.0811005,72.4166183 107.3530731,73.6905441 107.3516083,78.2227707 106.0791473,79.4932785 					"/>
					<path class="st18" d="M106.076828,72.4216156l0.6348877,0.6348648l0.6348572,0.6348572v4.5271606l-0.5252075,0.5251999
						l-0.7445374,0.7445297h-4.5271301l-1.2697144-1.2697296v-4.5271606l0.6348572-0.6348572l0.6348572-0.6348648H106.076828
						 M106.0809784,72.4116211h-4.5354309c-0.4981384,0.4981461-0.7774353,0.7774353-1.2755737,1.2755737v4.5354462
						c0.4981384,0.4981461,0.7774353,0.7774506,1.2755737,1.275589h4.5354309
						c0.4981689-0.4981384,0.7774353-0.7774429,1.2756042-1.275589v-4.5354462
						C106.8584137,73.1890564,106.5791473,72.9097672,106.0809784,72.4116211L106.0809784,72.4116211z"/>
				</g>
			</g>
			
				<rect x="102.9294357" y="75.0478287" transform="matrix(-1.836970e-16 1 -1 -1.836970e-16 179.7681885 -27.8583508)" class="st24" width="1.7676752" height="1.8141732"/>
			
				<rect x="103.3299255" y="75.4588547" transform="matrix(-1.836970e-16 1 -1 -1.836970e-16 179.7681885 -27.8583508)" class="st25" width="0.9666973" height="0.992126"/>
			<line class="st26" x1="104.7203598" y1="75.0710831" x2="104.3093338" y2="75.4715729"/>
			<line class="st26" x1="104.3093338" y1="76.4382706" x2="104.7203598" y2="76.8387527"/>
			<line class="st26" x1="103.3172073" y1="76.4382706" x2="102.9061813" y2="76.8387527"/>
			<line class="st26" x1="103.3172073" y1="75.4715729" x2="102.9061813" y2="75.0710831"/>
		</g>
	</g>
	<g>
		<g>
			<g>
				<g>
					<polygon class="st1" points="101.5459442,72.3218918 100.3027802,71.0762863 100.2754364,66.5157394 101.5322723,65.2608566 
						106.0815887,65.2447433 107.3535614,66.5191574 107.3520966,71.0508957 106.0796356,72.3218918 					"/>
					<path class="st18" d="M106.0772247,65.2499771l1.2697144,1.2697144v4.5271606l-1.2697144,1.269722h-4.5271606
						l-1.2697144-1.269722v-4.5271606l1.2697144-1.2697144H106.0772247 M106.0813751,65.2399673h-4.5354614
						c-0.4981384,0.4981384-0.7774353,0.7774353-1.2755737,1.275589v4.5354385
						c0.4981384,0.4981384,0.7774353,0.7774353,1.2755737,1.2755737h4.5354614
						c0.4981384-0.4981384,0.7774353-0.7774353,1.2755737-1.2755737v-4.5354385
						C106.8588104,66.0174026,106.5795135,65.7381058,106.0813751,65.2399673L106.0813751,65.2399673z"/>
				</g>
			</g>
			
				<rect x="102.9298096" y="67.8761749" transform="matrix(-1.836970e-16 1 -1 -1.836970e-16 172.5969086 -35.0303802)" class="st24" width="1.7676752" height="1.8141732"/>
			
				<rect x="103.3302994" y="68.2872009" transform="matrix(-1.836970e-16 1 -1 -1.836970e-16 172.5969086 -35.0303802)" class="st25" width="0.9666973" height="0.992126"/>
			<line class="st26" x1="104.7207336" y1="67.8994293" x2="104.3097076" y2="68.2999191"/>
			<line class="st26" x1="104.3097076" y1="69.2666168" x2="104.7207336" y2="69.6671066"/>
			<line class="st26" x1="103.3175812" y1="69.2666168" x2="102.9065552" y2="69.6671066"/>
			<line class="st26" x1="103.3175812" y1="68.2999191" x2="102.9065552" y2="67.8994293"/>
		</g>
	</g>
	<g>
		<path class="st1" d="M98.3222656,74.2373047c0.1367188,0.1386719,0.2602539,0.3408203,0.3706055,0.6064453
			s0.1655273,0.6015625,0.1655273,1.0078125c0,0.5761719-0.1928711,1.0449219-0.5786133,1.40625
			s-0.887207,0.5419922-1.5043945,0.5419922h-0.1464844c-0.6386719,0-1.1582031-0.1782227-1.5585938-0.534668
			s-0.6005859-0.8217773-0.6005859-1.3959961c0-0.3339844,0.0532227-0.6391602,0.159668-0.9155273
			s0.2504883-0.5063477,0.4321289-0.6899414h0.8583984v0.6328125l-0.5712891,0.1201172
			c-0.0664063,0.078125-0.1196289,0.1811523-0.159668,0.309082s-0.0600586,0.2749023-0.0600586,0.440918
			c0,0.3730469,0.1376953,0.6630859,0.4130859,0.8701172s0.6357422,0.3105469,1.0810547,0.3105469h0.1523438
			c0.4335938,0,0.7797852-0.1015625,1.0385742-0.3046875s0.3881836-0.4960938,0.3881836-0.8789063
			c0-0.171875-0.0146484-0.3110352-0.0439453-0.4174805s-0.0634766-0.1899414-0.1025391-0.2504883h-0.7236328l-0.046875,0.609375
			h-0.6005859v-1.4677734H98.3222656z"/>
	</g>
	<g>
		<path class="st1" d="M95.046875,69.2758789l0.0585938,0.3251953l2.5576172-0.7558594l0.234375-0.0527344v-0.0175781
			l-0.2285156-0.0498047l-2.5634766-0.7587891l-0.0585938,0.3222656H94.53125v-1.5585938h0.515625l0.046875,0.3574219
			l3.703125,1.2568359v0.8789063l-3.703125,1.2597656l-0.046875,0.3515625H94.53125v-1.5585938H95.046875z"/>
	</g>
</g>
<g>
	<g>
		<path class="st1" d="M9.9570313,25.3803711c-0.1630859,0.159668-0.4013672,0.3037109-0.7138672,0.4326172
			c-0.3125,0.128418-0.7075195,0.1928711-1.1855469,0.1928711c-0.6782227,0-1.2294922-0.2250977-1.6547852-0.675293
			c-0.425293-0.449707-0.6376953-1.034668-0.6376953-1.7548828v-0.1708984c0-0.7451172,0.2094727-1.3510742,0.6289063-1.8183594
			s0.9672852-0.7006836,1.6425781-0.7006836c0.3930664,0,0.7524414,0.0620117,1.0776367,0.1860352
			c0.3251953,0.1245117,0.5957031,0.2924805,0.8115234,0.5043945v1.0014648H9.1811523l-0.1411133-0.6665039
			c-0.0917969-0.0776367-0.2133789-0.1396484-0.3637695-0.1860352c-0.1503906-0.046875-0.3232422-0.0703125-0.5185547-0.0703125
			c-0.4394531,0-0.7802734,0.1606445-1.0239258,0.4819336s-0.3657227,0.7416992-0.3657227,1.2612305v0.1777344
			c0,0.5058594,0.1196289,0.909668,0.3588867,1.2119141c0.2387695,0.3017578,0.5834961,0.4526367,1.0341797,0.4526367
			c0.2021484,0,0.3657227-0.0170898,0.4912109-0.0512695c0.125-0.0341797,0.2231445-0.0742188,0.2944336-0.1196289v-0.8442383
			l-0.7167969-0.0546875v-0.7006836h1.7270508V25.3803711z"/>
		<path class="st1" d="M15.2368164,20.9575195v0.6015625l-0.5380859,0.1025391v4.2724609h-1.0029297l-2.0268555-3.3496094
			l-0.0209961,0.003418v2.6455078l0.5380859,0.1025391v0.5981445h-2.0791016v-0.5981445l0.534668-0.1025391v-3.5717773
			l-0.534668-0.1025391v-0.6015625h0.534668h1.0063477l2.0273438,3.3496094l0.0205078-0.003418v-2.6420898l-0.5375977-0.1025391
			v-0.6015625h1.5405273H15.2368164z"/>
		<path class="st1" d="M17.4658203,20.9575195c0.6132813,0,1.1191406,0.1943359,1.5166016,0.5830078
			c0.3974609,0.3881836,0.5966797,0.8867188,0.5966797,1.4951172v0.8237305c0,0.6108398-0.1992188,1.1088867-0.5966797,1.4956055
			c-0.3974609,0.3857422-0.9033203,0.5791016-1.5166016,0.5791016h-2.2583008v-0.5981445l0.534668-0.1025391v-3.5717773
			l-0.534668-0.1025391v-0.6015625h0.534668H17.4658203z M16.7485352,21.7265625v3.4418945h0.6655273
			c0.3608398,0,0.6435547-0.1206055,0.8481445-0.3623047c0.2041016-0.2416992,0.3066406-0.5571289,0.3066406-0.9467773v-0.8305664
			c0-0.3852539-0.1025391-0.6982422-0.3066406-0.9399414c-0.2045898-0.2416992-0.4873047-0.3623047-0.8481445-0.3623047H16.7485352z
			"/>
	</g>
	<g>
		<path class="st1" d="M9.1367188,57.7255859l-0.3828125,0.0683594l0.8896484,2.9838867l0.0620117,0.2734375h0.0205078
			L9.784668,60.784668l0.8930664-2.9907227l-0.3793945-0.0683594v-0.6015625h1.8339844v0.6015625l-0.4204102,0.0546875
			l-1.4790039,4.3203125H9.1987305l-1.4824219-4.3203125l-0.4135742-0.0546875v-0.6015625h1.8339844V57.7255859z"/>
		<path class="st1" d="M12.0791016,61.5024414l0.4863281-0.1025391v-2.293457l-0.5380859-0.1025391v-0.6015625h1.5444336v2.9975586
			l0.4829102,0.1025391v0.5981445h-1.9755859V61.5024414z M13.5717773,57.5170898h-1.0063477v-0.7485352h1.0063477V57.5170898z"/>
		<path class="st1" d="M13.9775391,61.5024414l0.4824219-0.1025391v-2.293457l-0.5341797-0.1025391v-0.6015625h1.472168
			l0.0444336,0.5297852c0.1245117-0.1889648,0.2768555-0.3359375,0.4584961-0.440918s0.3852539-0.1572266,0.6103516-0.1572266
			c0.3769531,0,0.6708984,0.1171875,0.8823242,0.3520508s0.3173828,0.6025391,0.3173828,1.1040039v1.6098633l0.4824219,0.1025391
			v0.5981445h-1.9233398v-0.5981445l0.4306641-0.1025391V59.793457c0-0.2485352-0.050293-0.4243164-0.1513672-0.527832
			c-0.1015625-0.1040039-0.2543945-0.1557617-0.4584961-0.1557617c-0.1333008,0-0.2529297,0.0268555-0.3588867,0.0805664
			c-0.1054688,0.0532227-0.1938477,0.1289063-0.2651367,0.2270508v1.9824219l0.4067383,0.1025391v0.5981445h-1.8959961V61.5024414z"
			/>
	</g>
	<g>
		
			<rect x="-1.1676944" y="30.8739338" transform="matrix(6.123234e-17 -1 1 6.123234e-17 -29.4982796 55.2102165)" class="st27" width="28.0473232" height="22.9606304"/>
		<circle class="st28" cx="12.8559675" cy="35.5305862" r="5.2440944"/>
		
			<linearGradient id="SVGID_1_" gradientUnits="userSpaceOnUse" x1="17.9822655" y1="-4.3695102" x2="17.9822655" y2="-6.6623254" gradientTransform="matrix(6.123234e-17 -1 1 6.123234e-17 28.7057934 60.3330879)">
			<stop  offset="0" style="stop-color:#FFFFFF;stop-opacity:0.5"/>
			<stop  offset="1" style="stop-color:#000000;stop-opacity:0.5"/>
		</linearGradient>
		<polygon class="st29" points="24.3362827,28.3805523 24.3362827,56.3210945 22.0434685,56.3210945 22.0434685,28.3805523 		"/>
		
			<rect x="-11.7203522" y="41.42659" transform="matrix(6.123234e-17 -1 1 6.123234e-17 -40.0509377 44.6575584)" class="st30" width="28.0473232" height="1.855315"/>
		
			<linearGradient id="SVGID_2_" gradientUnits="userSpaceOnUse" x1="871.3786011" y1="274.631897" x2="871.3786011" y2="272.3390808" gradientTransform="matrix(-6.123234e-17 1 -1 -6.123234e-17 277.862854 -829.0527954)">
			<stop  offset="0" style="stop-color:#FFFFFF;stop-opacity:0.5"/>
			<stop  offset="1" style="stop-color:#000000;stop-opacity:0.5"/>
		</linearGradient>
		<polygon class="st31" points="3.2309675,56.3210945 3.2309675,28.3305855 5.5237827,28.3305855 5.5237827,56.3210945 		"/>
		<g id="XMLID_6_">
			<g>
				<path class="st32" d="M9.5052519,45.4931107c0.1600285-0.1392517,0.3309202-0.2617111,0.5072432-0.3757744
					c0.1763229-0.1140594,0.3664732-0.2251587,0.5506945-0.3086014l0.0054321,0.0083961l5.6433687,8.7237892
					c-0.1462021,0.1422157-0.325489,0.2701073-0.501812,0.3841705s-0.358078,0.2197266-0.5506954,0.3086014l-0.0054312-0.0083961
					L9.5052519,45.4931107z"/>
				<path class="st28" d="M9.5052519,45.4931107l5.6487999,8.7321854l0.0054312,0.0083961
					c-2.3514242,1.1519127-5.2478533,0.3934937-6.7089367-1.8651199C6.994894,50.1183548,7.4905834,47.165596,9.5052519,45.4931107z
					"/>
				<path class="st28" d="M16.2119904,53.5409203l-5.6433687-8.7237892
					c2.3459921-1.1603088,5.2394562-0.3880615,6.6896772,1.8537598
					C18.7139511,48.9211082,18.23209,51.8768311,16.2119904,53.5409203z"/>
			</g>
			<g>
			</g>
		</g>
		<g id="XMLID_5_">
			<g>
				<path class="st32" d="M17.8426456,33.9017715c0.0675697,0.1906166,0.1174088,0.3948593,0.1574345,0.6010094
					c0.0419292,0.2159691,0.0721359,0.4240265,0.0728931,0.6377983L7.8832431,37.1189117l-0.0098166,0.0019035
					c-0.0694737-0.2004318-0.1193147-0.4046745-0.1612449-0.6206436c-0.0400238-0.2061501-0.070231-0.4142075-0.0788994-0.6162605
					L17.8426456,33.9017715z"/>
				<path class="st28" d="M17.8426456,33.9017715L7.6332822,35.8839111
					c-0.2029405-2.6193314,1.5834622-5.0136948,4.224154-5.5263824
					C14.498127,29.8448391,17.050705,31.3967896,17.8426456,33.9017715z"/>
				<path class="st28" d="M7.8832431,37.1189117l10.1897297-1.9783325c0.2010345,2.60952-1.5872726,4.9940643-4.2181482,5.5048447
					C11.2239504,41.156208,8.6732798,39.6140747,7.8832431,37.1189117z"/>
			</g>
			<g>
			</g>
		</g>
	</g>
</g>
<g>
	<g>
		<path class="st1" d="M124.4165039,25.3803711c-0.1630859,0.159668-0.4013672,0.3037109-0.7138672,0.4326172
			c-0.3125,0.128418-0.7075195,0.1928711-1.1855469,0.1928711c-0.6782227,0-1.2294922-0.2250977-1.6547852-0.675293
			c-0.425293-0.449707-0.6376953-1.034668-0.6376953-1.7548828v-0.1708984c0-0.7451172,0.2094727-1.3510742,0.6289063-1.8183594
			s0.9672852-0.7006836,1.6425781-0.7006836c0.3930664,0,0.7524414,0.0620117,1.0776367,0.1860352
			c0.3251953,0.1245117,0.5957031,0.2924805,0.8115234,0.5043945v1.0014648h-0.7446289l-0.1411133-0.6665039
			c-0.0917969-0.0776367-0.2133789-0.1396484-0.3637695-0.1860352c-0.1503906-0.046875-0.3232422-0.0703125-0.5185547-0.0703125
			c-0.4394531,0-0.7802734,0.1606445-1.0239258,0.4819336s-0.3657227,0.7416992-0.3657227,1.2612305v0.1777344
			c0,0.5058594,0.1196289,0.909668,0.3588867,1.2119141c0.2387695,0.3017578,0.5834961,0.4526367,1.0341797,0.4526367
			c0.2021484,0,0.3657227-0.0170898,0.4912109-0.0512695c0.125-0.0341797,0.2231445-0.0742188,0.2944336-0.1196289v-0.8442383
			l-0.7167969-0.0546875v-0.7006836h1.7270508V25.3803711z"/>
		<path class="st1" d="M129.6962891,20.9575195v0.6015625l-0.5380859,0.1025391v4.2724609h-1.0029297l-2.0268555-3.3496094
			l-0.0209961,0.003418v2.6455078l0.5380859,0.1025391v0.5981445h-2.0791016v-0.5981445l0.534668-0.1025391v-3.5717773
			l-0.534668-0.1025391v-0.6015625h0.534668h1.0063477l2.0273438,3.3496094l0.0205078-0.003418v-2.6420898l-0.5375977-0.1025391
			v-0.6015625h1.5405273H129.6962891z"/>
		<path class="st1" d="M131.925293,20.9575195c0.6132813,0,1.1191406,0.1943359,1.5166016,0.5830078
			c0.3974609,0.3881836,0.5966797,0.8867188,0.5966797,1.4951172v0.8237305c0,0.6108398-0.1992188,1.1088867-0.5966797,1.4956055
			c-0.3974609,0.3857422-0.9033203,0.5791016-1.5166016,0.5791016h-2.2583008v-0.5981445l0.534668-0.1025391v-3.5717773
			l-0.534668-0.1025391v-0.6015625h0.534668H131.925293z M131.2080078,21.7265625v3.4418945h0.6655273
			c0.3608398,0,0.6435547-0.1206055,0.8481445-0.3623047c0.2041016-0.2416992,0.3066406-0.5571289,0.3066406-0.9467773v-0.8305664
			c0-0.3852539-0.1025391-0.6982422-0.3066406-0.9399414c-0.2045898-0.2416992-0.4873047-0.3623047-0.8481445-0.3623047H131.2080078
			z"/>
	</g>
	<g>
		<path class="st1" d="M123.6201172,59.3251953h1.237793v0.8613281h-1.237793v1.4150391h-0.9545898v-1.4150391h-1.2480469
			v-0.8613281h1.2480469v-1.3466797h0.9545898V59.3251953z"/>
		<path class="st1" d="M127.5556641,58.2587891l-0.0893555-0.3349609h-1.3515625l-0.1411133,1.1484375
			c0.09375-0.0683594,0.206543-0.125,0.3374023-0.1689453c0.1313477-0.0449219,0.2758789-0.0678711,0.4345703-0.0703125
			c0.4824219-0.0068359,0.855957,0.1376953,1.1201172,0.434082c0.2646484,0.2963867,0.3964844,0.7084961,0.3964844,1.2373047
			c0,0.4785156-0.1450195,0.8759766-0.4360352,1.1928711c-0.2905273,0.3168945-0.7094727,0.4750977-1.2563477,0.4750977
			c-0.4599609,0-0.8540039-0.1245117-1.1826172-0.3745117c-0.3286133-0.2490234-0.4873047-0.5927734-0.4755859-1.0302734
			l0.0068359-0.0170898l0.965332-0.0478516c0,0.2211914,0.0629883,0.3935547,0.1894531,0.5180664
			c0.1264648,0.1240234,0.2919922,0.1860352,0.496582,0.1860352c0.234375,0,0.4077148-0.0830078,0.5205078-0.2495117
			s0.1689453-0.3818359,0.1689453-0.6459961c0-0.2871094-0.0600586-0.5170898-0.1791992-0.6904297
			c-0.1196289-0.1733398-0.2978516-0.2597656-0.534668-0.2597656c-0.1904297,0-0.3369141,0.0351563-0.4394531,0.105957
			c-0.1020508,0.0708008-0.175293,0.1665039-0.21875,0.2871094l-0.8891602-0.0581055l0.2895508-2.7719727h2.8886719v1.1347656
			H127.5556641z"/>
		<path class="st1" d="M130.043457,57.7255859l-0.3828125,0.0683594l0.8896484,2.9838867l0.0620117,0.2734375h0.0205078
			l0.0585938-0.2666016l0.8930664-2.9907227l-0.3793945-0.0683594v-0.6015625h1.8339844v0.6015625l-0.4204102,0.0546875
			l-1.4790039,4.3203125h-1.0341797l-1.4824219-4.3203125l-0.4135742-0.0546875v-0.6015625h1.8339844V57.7255859z"/>
	</g>
	<g>
		
			<rect x="113.1771011" y="30.8739338" transform="matrix(-1.836970e-16 1 -1 -1.836970e-16 169.5550079 -84.8465195)" class="st27" width="28.0473232" height="22.9606304"/>
		<circle class="st28" cx="127.2007675" cy="49.1779099" r="5.2440944"/>
		
			<linearGradient id="SVGID_3_" gradientUnits="userSpaceOnUse" x1="17.3191795" y1="109.9752884" x2="17.3191795" y2="107.6824722" gradientTransform="matrix(-6.123234e-17 1 -1 -6.123234e-17 225.6957397 25.0384922)">
			<stop  offset="0" style="stop-color:#FFFFFF;stop-opacity:0.5"/>
			<stop  offset="1" style="stop-color:#000000;stop-opacity:0.5"/>
		</linearGradient>
		<polygon class="st33" points="115.7204514,56.3279419 115.7204514,28.3873997 118.0132675,28.3873997 118.0132675,56.3279419 		
			"/>
		
			<rect x="123.7297592" y="41.42659" transform="matrix(-1.836970e-16 1 -1 -1.836970e-16 180.107666 -95.3991776)" class="st30" width="28.0473232" height="1.855315"/>
		
			<linearGradient id="SVGID_4_" gradientUnits="userSpaceOnUse" x1="872.041687" y1="160.2870941" x2="872.041687" y2="157.994278" gradientTransform="matrix(6.123234e-17 -1 1 6.123234e-17 -23.4613342 914.4243774)">
			<stop  offset="0" style="stop-color:#FFFFFF;stop-opacity:0.5"/>
			<stop  offset="1" style="stop-color:#000000;stop-opacity:0.5"/>
		</linearGradient>
		<polygon class="st34" points="136.8257599,28.3873997 136.8257599,56.3779106 134.5329437,56.3779106 134.5329437,28.3873997 		
			"/>
		<g id="XMLID_4_">
			<g>
				<path class="st32" d="M130.5514832,39.2153854c-0.1600342,0.1392517-0.3309174,0.2617111-0.5072479,0.3757744
					c-0.1763153,0.1140594-0.3664703,0.2251587-0.5506897,0.3086014l-0.0054321-0.0083961l-5.6433716-8.7237911
					c0.1462021-0.1422157,0.3254929-0.2701054,0.5018158-0.3841686c0.1763229-0.1140614,0.358078-0.2197285,0.5506897-0.3086014
					l0.0054321,0.0083961L130.5514832,39.2153854z"/>
				<path class="st28" d="M130.5514832,39.2153854l-5.6488037-8.7321854l-0.0054321-0.0083961
					c2.3514252-1.1519127,5.2478638-0.3934937,6.7089386,1.8651199
					C133.0618439,34.5901413,132.5661469,37.5429001,130.5514832,39.2153854z"/>
				<path class="st28" d="M123.8447418,31.1675739l5.6433716,8.7237911c-2.345993,1.1603088-5.2394562,0.3880615-6.689682-1.8537598
					C121.3427811,35.7873878,121.824646,32.831665,123.8447418,31.1675739z"/>
			</g>
			<g>
			</g>
		</g>
		<g id="XMLID_3_">
			<g>
				<path class="st32" d="M122.2140884,50.8067245c-0.0675659-0.1906166-0.1174088-0.3948593-0.1574326-0.6010094
					c-0.0419312-0.2159691-0.0721359-0.4240265-0.0728989-0.6377983l10.1897354-1.9783325l0.0098114-0.0019035
					c0.0694733,0.2004318,0.1193237,0.4046745,0.1612549,0.6206436c0.0400238,0.2061501,0.0702209,0.4142075,0.0788879,0.6162605
					L122.2140884,50.8067245z"/>
				<path class="st28" d="M122.2140884,50.8067245l10.2093582-1.9821396
					c0.2029419,2.6193314-1.5834503,5.0136948-4.2241516,5.5263824
					C125.558609,54.8636551,123.0060272,53.3117065,122.2140884,50.8067245z"/>
				<path class="st28" d="M132.1734924,47.5895844l-10.1897354,1.9783325
					c-0.2010345-2.60952,1.5872803-4.9940643,4.2181549-5.5048447
					C128.8327789,43.5522881,131.3834534,45.0944214,132.1734924,47.5895844z"/>
			</g>
			<g>
			</g>
		</g>
	</g>
</g>
</svg>
