<?xml version="1.0" encoding="utf-8"?>
<!-- Generator: Adobe Illustrator 22.1.0, SVG Export Plug-In . SVG Version: 6.00 Build 0)  -->
<svg version="1.1" id="Слой_1" xmlns="http://www.w3.org/2000/svg" xmlns:xlink="http://www.w3.org/1999/xlink" x="0px" y="0px"
	 viewBox="0 0 85.0400009 85.0400009" style="enable-background:new 0 0 85.0400009 85.0400009;" xml:space="preserve">
<style type="text/css">
	.st0{fill:#0D0E0F;}
	.st1{fill:#E5E4E0;}
	.st2{fill:#CEC7BD;}
	.st3{fill:#918C84;}
	.st4{fill:#151616;}
	.st5{fill:none;stroke:#F6F6F6;stroke-width:0.75;stroke-miterlimit:10;}
	.st6{fill:#9E9B9C;}
	.st7{fill:none;stroke:#FFFFFF;stroke-width:0.5;stroke-miterlimit:10;}
	.st8{fill:#FFFFFF;stroke:#FFFFFF;stroke-width:0.25;stroke-miterlimit:10;}
</style>
<path class="st0" d="M0,0v85.039978h85.039978V0H0z M9.9212646,79.5117798c-2.4264526,0-4.3936768-1.9667969-4.3936768-4.3926392
	c0-2.4279175,1.9672241-4.3947754,4.3936768-4.3947754s4.3936768,1.9668579,4.3936768,4.3947754
	C14.3149414,77.5449829,12.3477173,79.5117798,9.9212646,79.5117798z M9.9223022,14.3149414
	c-2.4279175,0-4.3947144-1.9667969-4.3947144-4.3927002c0-2.4279175,1.9667969-4.3947144,4.3947144-4.3947144
	c2.4258423,0,4.3926392,1.9667969,4.3926392,4.3947144C14.3149414,12.3481445,12.3481445,14.3149414,9.9223022,14.3149414z
	 M75.1170654,79.5117798c-2.4258423,0-4.3926392-1.968811-4.3926392-4.3947144c0-2.4258423,1.9667969-4.3927002,4.3926392-4.3927002
	c2.4279175,0,4.3947754,1.9668579,4.3947754,4.3927002C79.5118408,77.5429688,77.5449829,79.5117798,75.1170654,79.5117798z
	 M75.1191406,14.3149414c-2.4279175,0-4.3947144-1.9667969-4.3947144-4.3927002
	c0-2.4279175,1.9667969-4.3947144,4.3947144-4.3947144c2.4258423,0,4.3927002,1.9667969,4.3927002,4.3947144
	C79.5118408,12.3481445,77.5449829,14.3149414,75.1191406,14.3149414z"/>
<g>
	<path class="st1" d="M28.347168,4.1625977h-0.7446289l-0.1030273-0.659668
		c-0.0981445-0.0976563-0.222168-0.1748047-0.3720703-0.2314453s-0.3266602-0.0849609-0.5302734-0.0849609
		c-0.4345703,0-0.769043,0.15625-1.003418,0.4692383c-0.2348633,0.3129883-0.3520508,0.7211914-0.3520508,1.2246094v0.1738281
		c0,0.503418,0.1166992,0.9130859,0.3500977,1.2280273c0.2333984,0.3154297,0.5629883,0.4731445,0.9882813,0.4731445
		c0.1967773,0,0.3769531-0.0283203,0.5405273-0.0854492c0.1635742-0.0566406,0.2900391-0.1337891,0.3789063-0.230957
		l0.1030273-0.6601563h0.7446289v0.9799805c-0.2011719,0.230957-0.4580078,0.4155273-0.7700195,0.5527344
		c-0.3125,0.137207-0.6621094,0.2055664-1.0483398,0.2055664c-0.6704102,0-1.2192383-0.2299805-1.6469727-0.6904297
		c-0.4282227-0.4604492-0.6420898-1.0512695-0.6420898-1.7724609V4.887207c0-0.71875,0.2128906-1.3095703,0.6386719-1.7724609
		c0.425293-0.4624023,0.9755859-0.6938477,1.6503906-0.6938477c0.3862305,0,0.7353516,0.0698242,1.0463867,0.2089844
		c0.3110352,0.1396484,0.5683594,0.3242188,0.7719727,0.5532227V4.1625977z"/>
	<path class="st1" d="M30.2568359,7.5170898c-0.5351563,0-0.9628906-0.1699219-1.2832031-0.5102539
		s-0.4804688-0.7719727-0.4804688-1.2958984V5.574707c0-0.546875,0.1513672-0.9970703,0.4545898-1.3505859
		c0.3032227-0.3540039,0.7094727-0.5297852,1.2197266-0.5273438c0.5009766,0,0.8901367,0.1494141,1.1665039,0.4487305
		c0.2768555,0.2998047,0.4155273,0.7045898,0.4155273,1.2148438v0.5410156h-2.2167969L29.5258789,5.921875
		c0.0185547,0.2426758,0.1000977,0.4418945,0.2456055,0.5986328c0.1450195,0.15625,0.3422852,0.2348633,0.5917969,0.2348633
		c0.2216797,0,0.4057617-0.0224609,0.5522461-0.0664063c0.1464844-0.0444336,0.3066406-0.1142578,0.4804688-0.2094727
		l0.2709961,0.6123047c-0.1533203,0.1206055-0.3515625,0.2211914-0.5952148,0.3027344
		C30.828125,7.4765625,30.5566406,7.5170898,30.2568359,7.5170898z M30.1674805,4.4619141
		c-0.1850586,0-0.331543,0.0703125-0.4389648,0.2109375c-0.1079102,0.1411133-0.1738281,0.3256836-0.1992188,0.5546875
		l0.0102539,0.0170898h1.2285156V5.15625c0-0.2109375-0.0498047-0.3793945-0.1494141-0.5053711
		S30.3686523,4.4619141,30.1674805,4.4619141z"/>
	<path class="st1" d="M31.9472656,4.3632813V3.7646484h1.9663086v0.5986328L33.4814453,4.465332v0.7895508h1.2211914V4.465332
		l-0.4287109-0.1020508V3.7646484h0.4287109h1.0019531h0.5356445v0.5986328L35.7045898,4.465332v2.2832031l0.5356445,0.1020508
		v0.5952148h-1.9663086V6.8505859l0.4287109-0.1020508V6.0170898h-1.2211914v0.7314453l0.4321289,0.1020508v0.5952148h-1.9663086
		V6.8505859l0.5356445-0.1020508V4.465332L31.9472656,4.3632813z"/>
	<path class="st1" d="M38.1191406,6.7553711c0.1782227,0,0.3212891-0.0517578,0.4287109-0.1547852
		c0.1074219-0.1035156,0.1611328-0.2412109,0.1611328-0.4135742h0.90625l0.0102539,0.0205078
		c0.0087891,0.3720703-0.1318359,0.6831055-0.4223633,0.9335938c-0.2905273,0.2509766-0.6518555,0.3759766-1.0839844,0.3759766
		c-0.5537109,0-0.9804688-0.1733398-1.2802734-0.5205078c-0.2993164-0.3466797-0.4492188-0.7924805-0.4492188-1.3369141V5.5576172
		c0-0.5419922,0.1538086-0.987793,0.4614258-1.3369141c0.3076172-0.3496094,0.7460938-0.5239258,1.315918-0.5239258
		c0.2998047,0,0.5683594,0.0439453,0.8061523,0.1323242c0.2382813,0.0888672,0.4360352,0.2133789,0.59375,0.3745117
		l0.0136719,0.9833984h-0.8129883l-0.1650391-0.5751953c-0.050293-0.0429688-0.1118164-0.0786133-0.1850586-0.1069336
		s-0.1567383-0.0429688-0.2504883-0.0429688c-0.2836914,0-0.4838867,0.1020508-0.6005859,0.3066406
		c-0.1166992,0.2041016-0.1748047,0.4667969-0.1748047,0.7890625V5.659668c0,0.3291016,0.0537109,0.59375,0.1611328,0.7944336
		S37.8491211,6.7553711,38.1191406,6.7553711z"/>
	<path class="st1" d="M39.7270508,5.5712891c0-0.5488281,0.1547852-0.9985352,0.4648438-1.3491211
		c0.3100586-0.3500977,0.7382813-0.5253906,1.2851563-0.5253906c0.5488281,0,0.9785156,0.1743164,1.2880859,0.5239258
		c0.3100586,0.3491211,0.465332,0.7993164,0.465332,1.3505859v0.0712891c0,0.5537109-0.1552734,1.0043945-0.465332,1.3525391
		c-0.3095703,0.3481445-0.7368164,0.5219727-1.28125,0.5219727c-0.5512695,0-0.9819336-0.1738281-1.2919922-0.5219727
		s-0.4648438-0.7988281-0.4648438-1.3525391V5.5712891z M40.7290039,5.6425781c0,0.3359375,0.059082,0.6049805,0.1782227,0.8081055
		s0.3110352,0.3046875,0.5766602,0.3046875c0.2583008,0,0.4477539-0.1020508,0.5678711-0.3061523
		c0.1201172-0.2045898,0.1801758-0.4731445,0.1801758-0.8066406V5.5712891c0-0.3266602-0.0610352-0.5932617-0.1821289-0.7998047
		c-0.1210938-0.2060547-0.3120117-0.3095703-0.5727539-0.3095703s-0.4506836,0.1035156-0.5698242,0.3095703
		c-0.1191406,0.206543-0.1782227,0.4731445-0.1782227,0.7998047V5.6425781z"/>
	<path class="st1" d="M43.2387695,4.3632813V3.7646484h1.4545898l0.0478516,0.4287109
		c0.1103516-0.1586914,0.2412109-0.28125,0.3945313-0.3671875c0.1533203-0.0864258,0.3320313-0.1293945,0.5361328-0.1293945
		c0.4589844,0,0.8164063,0.1777344,1.0703125,0.5341797c0.2539063,0.355957,0.3808594,0.8242188,0.3808594,1.4047852v0.0717773
		c0,0.5439453-0.1269531,0.9819336-0.3808594,1.3129883s-0.6083984,0.496582-1.0634766,0.496582
		c-0.1953125,0-0.3671875-0.0356445-0.5185547-0.1069336s-0.2802734-0.1762695-0.3876953-0.3149414v1.0649414l0.4833984,0.1020508
		v0.5991211h-1.965332V8.262207l0.4833984-0.1020508V4.465332L43.2387695,4.3632813z M46.1210938,5.6357422
		c0-0.3466797-0.0585938-0.6279297-0.1748047-0.84375C45.8291016,4.5766602,45.6503906,4.46875,45.4101563,4.46875
		c-0.1503906,0-0.2792969,0.0307617-0.3857422,0.0922852c-0.1064453,0.0610352-0.1904297,0.1484375-0.2519531,0.2617188v1.612793
		c0.0615234,0.1040039,0.1455078,0.1835938,0.2519531,0.237793c0.1064453,0.0546875,0.2373047,0.0820313,0.3925781,0.0820313
		c0.2431641,0,0.4208984-0.0942383,0.5341797-0.2827148c0.1132813-0.1879883,0.1699219-0.4433594,0.1699219-0.7651367V5.6357422z"/>
	<path class="st1" d="M47.2929688,4.3632813V3.7646484h1.9658203v0.5986328L48.8271484,4.465332v0.7895508h1.2207031V4.465332
		l-0.4287109-0.1020508V3.7646484h0.4287109h1.0019531h0.5361328v0.5986328L51.0498047,4.465332v2.2832031l0.5361328,0.1020508
		v0.5952148h-1.9667969V6.8505859l0.4287109-0.1020508V6.0170898h-1.2207031v0.7314453l0.4316406,0.1020508v0.5952148h-1.9658203
		V6.8505859l0.5351563-0.1020508V4.465332L47.2929688,4.3632813z"/>
	<path class="st1" d="M54.0859375,7.4458008c-0.0273438-0.0610352-0.0517578-0.1240234-0.0722656-0.1889648
		c-0.0205078-0.0644531-0.0361328-0.1298828-0.0478516-0.1953125c-0.1191406,0.1357422-0.2636719,0.2460938-0.4335938,0.3300781
		c-0.1708984,0.0834961-0.3662109,0.1254883-0.5859375,0.1254883c-0.3632813,0-0.6523438-0.0981445-0.8662109-0.2939453
		c-0.2138672-0.1962891-0.3203125-0.4633789-0.3203125-0.8012695c0-0.3447266,0.1396484-0.6113281,0.4179688-0.7998047
		c0.2792969-0.1879883,0.6884766-0.2822266,1.2285156-0.2822266h0.5117188V4.9794922
		c0-0.1772461-0.0517578-0.3144531-0.1542969-0.4121094c-0.1035156-0.097168-0.2548828-0.1459961-0.4570313-0.1459961
		c-0.1142578,0-0.2158203,0.0131836-0.3046875,0.0390625c-0.0898438,0.0258789-0.1611328,0.0571289-0.2167969,0.09375
		l-0.0644531,0.3945313h-0.7548828L51.96875,4.1323242c0.1826172-0.1225586,0.3925781-0.2260742,0.6298828-0.3095703
		c0.2363281-0.0839844,0.4941406-0.1259766,0.7734375-0.1259766c0.4599609,0,0.8330078,0.1118164,1.1201172,0.3349609
		c0.2871094,0.2236328,0.4306641,0.5415039,0.4306641,0.9541016v1.5209961c0,0.0566406,0.0009766,0.1098633,0.0019531,0.159668
		c0.0009766,0.050293,0.0048828,0.0976563,0.0117188,0.1430664l0.3056641,0.0410156v0.5952148H54.0859375z M53.2177734,6.7822266
		c0.1513672,0,0.2880859-0.0322266,0.4121094-0.0966797c0.1230469-0.0649414,0.2197266-0.1459961,0.2880859-0.2431641V5.8808594
		H53.40625c-0.2128906,0-0.3740234,0.0493164-0.4833984,0.1479492C52.8125,6.1274414,52.7578125,6.2460938,52.7578125,6.3842773
		c0,0.125,0.0410156,0.222168,0.1220703,0.2924805S53.0732422,6.7822266,53.2177734,6.7822266z"/>
	<path class="st1" d="M57.2685547,6.8505859l0.484375-0.1020508V6.15625h-0.6044922l-0.7236328,1.2895508h-1.0947266V6.8505859
		l0.453125-0.0683594l0.4462891-0.7890625c-0.2265625-0.0996094-0.4003906-0.2368164-0.5214844-0.4116211
		c-0.1220703-0.1748047-0.1826172-0.3730469-0.1826172-0.5957031c0-0.3579102,0.1435547-0.6513672,0.4306641-0.8793945
		c0.2871094-0.2275391,0.6728516-0.3417969,1.1582031-0.3417969h1.6367188h0.5322266v0.5986328L58.7509766,4.465332v2.2832031
		l0.5322266,0.1020508v0.5952148h-2.0146484V6.8505859z M56.5244141,5.0131836c0,0.1269531,0.0498047,0.237793,0.1494141,0.3320313
		c0.0996094,0.09375,0.2402344,0.1411133,0.4238281,0.1411133h0.6552734V4.5234375h-0.6386719
		c-0.1875,0-0.3330078,0.0498047-0.4355469,0.1494141C56.5751953,4.7729492,56.5244141,4.8862305,56.5244141,5.0131836z"/>
	<path class="st1" d="M29.6591797,11.3632813v-0.5986328h1.9902344v0.5986328l-0.4560547,0.1020508v0.7011719h0.3427734
		l0.5561523-0.8164063c0.1396484-0.2133789,0.2856445-0.3740234,0.4389648-0.4814453
		c0.1533203-0.1079102,0.3442383-0.1616211,0.5732422-0.1616211c0.1142578,0,0.2172852,0.015625,0.3085938,0.0473633
		c0.0917969,0.0317383,0.1821289,0.074707,0.2714844,0.1293945l-0.168457,0.6870117
		c-0.0683594-0.0180664-0.1113281-0.0292969-0.128418-0.0336914c-0.0170898-0.0048828-0.0488281-0.0068359-0.0947266-0.0068359
		c-0.0683594,0-0.1411133,0.0258789-0.2177734,0.078125s-0.1420898,0.1181641-0.1972656,0.1972656L32.3974609,12.5
		l0.8613281,1.2685547l0.5043945,0.0820313v0.5952148H32.387207l-0.8095703-1.3779297h-0.3842773v0.6806641l0.4560547,0.1020508
		v0.5952148h-1.9902344v-0.5952148l0.5356445-0.1020508V11.465332L29.6591797,11.3632813z"/>
	<path class="st1" d="M33.8505859,11.3632813v-0.5986328h1.9663086v0.5986328l-0.4321289,0.1020508v0.7895508h1.2211914V11.465332
		l-0.4287109-0.1020508v-0.5986328h0.4287109h1.0019531h0.5356445v0.5986328l-0.5356445,0.1020508v2.2832031l0.5356445,0.1020508
		v0.5952148h-1.9663086v-0.5952148l0.4287109-0.1020508v-0.7314453h-1.2211914v0.7314453l0.4321289,0.1020508v0.5952148h-1.9663086
		v-0.5952148l0.5356445-0.1020508V11.465332L33.8505859,11.3632813z"/>
	<path class="st1" d="M38.2797852,12.5712891c0-0.5488281,0.1547852-0.9985352,0.4648438-1.3491211
		c0.3100586-0.3500977,0.7382813-0.5253906,1.2851563-0.5253906c0.5488281,0,0.9785156,0.1743164,1.2880859,0.5239258
		c0.3100586,0.3491211,0.465332,0.7993164,0.465332,1.3505859v0.0712891c0,0.5537109-0.1552734,1.0043945-0.465332,1.3525391
		c-0.3095703,0.3481445-0.7368164,0.5219727-1.28125,0.5219727c-0.5512695,0-0.9819336-0.1738281-1.2919922-0.5219727
		s-0.4648438-0.7988281-0.4648438-1.3525391V12.5712891z M39.2817383,12.6425781
		c0,0.3359375,0.059082,0.6049805,0.1782227,0.8081055s0.3110352,0.3046875,0.5766602,0.3046875
		c0.2583008,0,0.4477539-0.1020508,0.5678711-0.3061523c0.1201172-0.2045898,0.1801758-0.4731445,0.1801758-0.8066406v-0.0712891
		c0-0.3266602-0.0610352-0.5932617-0.1821289-0.7998047c-0.1210938-0.2060547-0.3120117-0.3095703-0.5727539-0.3095703
		s-0.4506836,0.1035156-0.5698242,0.3095703c-0.1191406,0.206543-0.1782227,0.4731445-0.1782227,0.7998047V12.6425781z"/>
	<path class="st1" d="M41.9423828,13.8505859l0.5356445-0.1020508V11.465332l-0.5356445-0.1020508v-0.5986328h4.2998047v0.5986328
		l-0.5322266,0.1020508v2.2832031l0.5322266,0.1020508v0.5952148h-1.9667969v-0.5952148l0.4326172-0.1020508v-2.2148438h-1.2314453
		v2.2148438l0.4321289,0.1020508v0.5952148h-1.9663086V13.8505859z"/>
	<path class="st1" d="M46.4736328,11.3632813v-0.5986328h1.9902344v0.5986328l-0.4560547,0.1020508v0.7011719h0.3427734
		l0.5566406-0.8164063c0.1396484-0.2133789,0.2851563-0.3740234,0.4384766-0.4814453
		c0.1533203-0.1079102,0.3447266-0.1616211,0.5732422-0.1616211c0.1142578,0,0.2177734,0.015625,0.3085938,0.0473633
		c0.0917969,0.0317383,0.1826172,0.074707,0.2714844,0.1293945l-0.1679688,0.6870117
		c-0.0683594-0.0180664-0.1113281-0.0292969-0.1289063-0.0336914c-0.0166016-0.0048828-0.0488281-0.0068359-0.0947266-0.0068359
		c-0.0683594,0-0.140625,0.0258789-0.2177734,0.078125c-0.0761719,0.0522461-0.1416016,0.1181641-0.1972656,0.1972656
		L49.2119141,12.5l0.8613281,1.2685547l0.5048828,0.0820313v0.5952148h-1.3759766l-0.8095703-1.3779297h-0.3847656v0.6806641
		l0.4560547,0.1020508v0.5952148h-1.9902344v-0.5952148l0.5361328-0.1020508V11.465332L46.4736328,11.3632813z"/>
	<path class="st1" d="M52.9541016,14.4458008c-0.0273438-0.0610352-0.0517578-0.1240234-0.0722656-0.1889648
		c-0.0205078-0.0644531-0.0361328-0.1298828-0.0478516-0.1953125c-0.1191406,0.1357422-0.2636719,0.2460938-0.4335938,0.3300781
		c-0.1708984,0.0834961-0.3662109,0.1254883-0.5859375,0.1254883c-0.3632813,0-0.6523438-0.0981445-0.8662109-0.2939453
		c-0.2138672-0.1962891-0.3203125-0.4633789-0.3203125-0.8012695c0-0.3447266,0.1396484-0.6113281,0.4179688-0.7998047
		c0.2792969-0.1879883,0.6884766-0.2822266,1.2285156-0.2822266h0.5117188v-0.3603516
		c0-0.1772461-0.0517578-0.3144531-0.1542969-0.4121094c-0.1035156-0.097168-0.2548828-0.1459961-0.4570313-0.1459961
		c-0.1142578,0-0.2158203,0.0131836-0.3046875,0.0390625c-0.0898438,0.0258789-0.1611328,0.0571289-0.2167969,0.09375
		l-0.0644531,0.3945313h-0.7548828l0.0029297-0.8164063c0.1826172-0.1225586,0.3925781-0.2260742,0.6298828-0.3095703
		c0.2363281-0.0839844,0.4941406-0.1259766,0.7734375-0.1259766c0.4599609,0,0.8330078,0.1118164,1.1201172,0.3349609
		c0.2871094,0.2236328,0.4306641,0.5415039,0.4306641,0.9541016v1.5209961c0,0.0566406,0.0009766,0.1098633,0.0019531,0.159668
		c0.0009766,0.050293,0.0048828,0.0976563,0.0117188,0.1430664l0.3056641,0.0410156v0.5952148H52.9541016z M52.0859375,13.7822266
		c0.1513672,0,0.2880859-0.0322266,0.4121094-0.0966797c0.1230469-0.0649414,0.2197266-0.1459961,0.2880859-0.2431641v-0.5615234
		h-0.5117188c-0.2128906,0-0.3740234,0.0493164-0.4833984,0.1479492c-0.1103516,0.0986328-0.1650391,0.2172852-0.1650391,0.3554688
		c0,0.125,0.0410156,0.222168,0.1220703,0.2924805S51.9414063,13.7822266,52.0859375,13.7822266z"/>
</g>
<g>
	<path class="st2" d="M30.3319798,74.9196854c0,1.2273636-1.0018463,2.2224731-2.2397385,2.2224731
		c-1.2378941,0-2.2415428-0.9951096-2.2415428-2.2224731s1.0036488-2.2224731,2.2415428-2.2224731
		C29.3301334,72.6972122,30.3319798,73.6923218,30.3319798,74.9196854z"/>
	<g>
		<path class="st1" d="M35.7827148,80.0625c0.3588867,0,0.640625,0.0810547,0.8447266,0.2441406
			c0.2045898,0.1630859,0.3066406,0.3876953,0.3066406,0.6748047c0,0.1582031-0.0429688,0.2958984-0.128418,0.4121094
			s-0.2104492,0.2099609-0.3754883,0.2822266c0.1865234,0.0546875,0.3208008,0.1455078,0.402832,0.2724609
			c0.081543,0.1269531,0.1225586,0.2841797,0.1225586,0.4726563v0.1591797c0,0.0693359,0.0136719,0.1220703,0.0415039,0.1601563
			c0.0273438,0.0380859,0.0732422,0.0605469,0.1367188,0.0683594l0.078125,0.0107422v0.3789063h-0.328125
			c-0.2070313,0-0.3525391-0.0556641-0.4365234-0.1660156s-0.1259766-0.2529297-0.1259766-0.4287109v-0.1787109
			c0-0.1523438-0.0410156-0.2714844-0.1225586-0.3583984c-0.0820313-0.0869141-0.1972656-0.1328125-0.3466797-0.1367188h-0.519043
			v0.8271484l0.3388672,0.0644531v0.3769531h-1.3100586v-0.3769531l0.3369141-0.0644531v-2.2509766l-0.3369141-0.0644531V80.0625
			h0.3369141H35.7827148z M35.3330078,81.4453125h0.4389648c0.1762695,0,0.309082-0.0380859,0.3974609-0.1123047
			s0.1323242-0.1826172,0.1323242-0.3232422s-0.0439453-0.2529297-0.1313477-0.3369141
			c-0.0878906-0.0839844-0.2167969-0.1259766-0.3876953-0.1259766h-0.449707V81.4453125z"/>
		<path class="st1" d="M38.6933594,80.0625v0.3789063l-0.3388672,0.0644531v1.6367188
			c0,0.2070313,0.0561523,0.3613281,0.168457,0.4648438c0.1123047,0.1025391,0.2661133,0.1533203,0.4614258,0.1533203
			c0.1987305,0,0.3544922-0.0507813,0.4672852-0.1523438c0.112793-0.1025391,0.1694336-0.2578125,0.1694336-0.4658203v-1.6367188
			l-0.3369141-0.0644531V80.0625h1.3100586v0.3789063l-0.3388672,0.0644531v1.6367188
			c0,0.3525391-0.1166992,0.6230469-0.3505859,0.8144531s-0.5410156,0.2861328-0.9204102,0.2861328
			c-0.3779297,0-0.6831055-0.0947266-0.9155273-0.2861328s-0.3486328-0.4619141-0.3486328-0.8144531v-1.6367188
			l-0.3364258-0.0644531V80.0625h0.3364258h0.6342773H38.6933594z"/>
		<path class="st1" d="M43.184082,81.0634766h-0.4760742l-0.0825195-0.4306641
			c-0.0546875-0.0341797-0.1352539-0.0644531-0.2407227-0.0898438c-0.105957-0.0263672-0.2182617-0.0390625-0.3369141-0.0390625
			c-0.1738281,0-0.3081055,0.0361328-0.402832,0.1083984c-0.0952148,0.0722656-0.1425781,0.1660156-0.1425781,0.28125
			c0,0.1064453,0.0498047,0.1933594,0.1489258,0.2617188s0.2705078,0.140625,0.5136719,0.2167969
			c0.3491211,0.0957031,0.6137695,0.2226563,0.7939453,0.3808594c0.1806641,0.1582031,0.2705078,0.3652344,0.2705078,0.6220703
			c0,0.2685547-0.1069336,0.4804688-0.3212891,0.6357422s-0.4970703,0.2324219-0.847168,0.2324219
			c-0.2509766,0-0.4770508-0.0390625-0.6791992-0.1181641c-0.2016602-0.0791016-0.3701172-0.1884766-0.5048828-0.3271484v-0.6552734
			h0.4907227l0.0673828,0.4462891c0.0639648,0.0517578,0.1503906,0.0947266,0.2597656,0.1279297
			c0.109375,0.0341797,0.2314453,0.0507813,0.3662109,0.0507813c0.1738281,0,0.3056641-0.0351563,0.3964844-0.1054688
			c0.090332-0.0703125,0.1357422-0.1650391,0.1357422-0.2822266c0-0.1210938-0.043457-0.2177734-0.1293945-0.2910156
			c-0.0864258-0.0732422-0.2373047-0.1416016-0.453125-0.2070313c-0.375-0.1074219-0.6586914-0.2353516-0.8515625-0.3828125
			c-0.1923828-0.1484375-0.2885742-0.3505859-0.2885742-0.6074219c0-0.2539063,0.1083984-0.4619141,0.3256836-0.6240234
			c0.2172852-0.1611328,0.4902344-0.2441406,0.8188477-0.2480469c0.2431641,0,0.4648438,0.0361328,0.6650391,0.109375
			c0.199707,0.0732422,0.3676758,0.1708984,0.5039063,0.2929688V81.0634766z"/>
		<path class="st1" d="M45.8818359,81.0634766h-0.4746094l-0.0839844-0.4306641
			c-0.0546875-0.0341797-0.1347656-0.0644531-0.2402344-0.0898438c-0.1054688-0.0263672-0.21875-0.0390625-0.3378906-0.0390625
			c-0.1738281,0-0.3066406,0.0361328-0.4023438,0.1083984c-0.0947266,0.0722656-0.1425781,0.1660156-0.1425781,0.28125
			c0,0.1064453,0.0507813,0.1933594,0.1494141,0.2617188s0.2705078,0.140625,0.5146484,0.2167969
			c0.3476563,0.0957031,0.6132813,0.2226563,0.7929688,0.3808594s0.2714844,0.3652344,0.2714844,0.6220703
			c0,0.2685547-0.1074219,0.4804688-0.3222656,0.6357422s-0.4960938,0.2324219-0.8476563,0.2324219
			c-0.25,0-0.4765625-0.0390625-0.6787109-0.1181641c-0.2016602-0.0791016-0.3701172-0.1884766-0.5048828-0.3271484v-0.6552734
			h0.4902344l0.0673828,0.4462891c0.0644531,0.0517578,0.1513672,0.0947266,0.2607422,0.1279297
			c0.109375,0.0341797,0.2304688,0.0507813,0.3652344,0.0507813c0.1738281,0,0.3066406-0.0351563,0.3964844-0.1054688
			s0.1367188-0.1650391,0.1367188-0.2822266c0-0.1210938-0.0429688-0.2177734-0.1308594-0.2910156
			c-0.0859375-0.0732422-0.2363281-0.1416016-0.4511719-0.2070313c-0.3759766-0.1074219-0.6601563-0.2353516-0.8525391-0.3828125
			c-0.1923828-0.1484375-0.2885742-0.3505859-0.2885742-0.6074219c0-0.2539063,0.1083984-0.4619141,0.3256836-0.6240234
			c0.2167969-0.1611328,0.4892578-0.2441406,0.8193359-0.2480469c0.2421875,0,0.4648438,0.0361328,0.6640625,0.109375
			s0.3671875,0.1708984,0.5039063,0.2929688V81.0634766z"/>
		<path class="st1" d="M46.1748047,80.4414063V80.0625h1.3105469v0.3789063l-0.3388672,0.0644531v2.2509766l0.3388672,0.0644531
			v0.3769531h-1.3105469v-0.3769531l0.3388672-0.0644531v-2.2509766L46.1748047,80.4414063z"/>
		<path class="st1" d="M47.6933594,82.8212891l0.2265625-0.0322266L48.8818359,80.0625H49.53125l0.9560547,2.7265625
			l0.2255859,0.0322266v0.3769531h-1.0771484v-0.3769531l0.2197266-0.0390625l-0.1396484-0.4306641h-1.0253906l-0.1386719,0.4306641
			l0.2197266,0.0390625v0.3769531h-1.078125V82.8212891z M48.8408203,81.8886719h0.7255859l-0.3564453-1.1044922h-0.0126953
			L48.8408203,81.8886719z"/>
	</g>
	<ellipse class="st3" cx="28.0913391" cy="74.9196854" rx="1.5316002" ry="1.5185714"/>
	<rect x="24.500948" y="62.2946739" class="st1" width="5.1219912" height="5.1219912"/>
	<g>
		<path class="st4" d="M27.1645508,63.2294922c0.4350586,0,0.7851563,0.1328125,1.050293,0.3994141
			c0.2646484,0.265625,0.3969727,0.6083984,0.3969727,1.0292969v0.4521484c0,0.421875-0.1323242,0.765625-0.3969727,1.0292969
			c-0.2651367,0.2646484-0.6152344,0.3964844-1.050293,0.3964844h-1.3969727V66.25l0.3735352-0.0634766v-2.6044922
			l-0.3735352-0.0634766v-0.2890625h0.3735352H27.1645508z M26.5922852,63.5820313v2.6044922h0.5722656
			c0.3085938,0,0.5517578-0.1005859,0.7294922-0.3017578s0.2666016-0.4599609,0.2666016-0.7744141v-0.4570313
			c0-0.3115234-0.0888672-0.5683594-0.2666016-0.7695313s-0.4208984-0.3017578-0.7294922-0.3017578H26.5922852z"/>
	</g>
	<path class="st5" d="M44.5200005,62.7057838l8.8377876,0.02108c0,0,0.0124245,0.0000305,0.034481,0.0000839
		c0.0054665,2.1701012,0.0395927,15.7233009,0.0395927,15.7233009s0.0004349,0.1730499,0.0008698,0.3460922
		c-0.045536-0.0001068-0.0910759-0.0002136-0.0910759-0.0002136s-19.7002144-0.0462341-21.5548706-0.0505829
		c-0.0916157-0.0002213-0.1396866-0.0003281-0.1396866-0.0003281l-0.0403233-16.0148048c0,0-0.0000687-0.027298-0.0001373-0.0545959
		c0.0282974,0.0000687,0.0565948,0.0001335,0.0565948,0.0001335L44.5200005,62.7057838"/>
	<line class="st5" x1="46.1338272" y1="62.7099113" x2="46.1338272" y2="78.7793274"/>
	<line class="st5" x1="38.8972855" y1="62.6758156" x2="38.8972855" y2="78.7623215"/>
	<path class="st5" d="M45.5896072,66.8795929"/>
	<path class="st2" d="M37.5603256,74.9196854c0,1.2273636-1.0018463,2.2224731-2.2397385,2.2224731
		s-2.2415428-0.9951096-2.2415428-2.2224731s1.0036507-2.2224731,2.2415428-2.2224731S37.5603256,73.6923218,37.5603256,74.9196854z
		"/>
	<ellipse class="st3" cx="35.3196869" cy="74.9196854" rx="1.5316002" ry="1.5185714"/>
	<path class="st2" d="M44.7603264,74.9196854c0,1.2273636-1.0018463,2.2224731-2.2397385,2.2224731
		s-2.2415428-0.9951096-2.2415428-2.2224731s1.0036507-2.2224731,2.2415428-2.2224731S44.7603264,73.6923218,44.7603264,74.9196854z
		"/>
	<ellipse class="st3" cx="42.5196838" cy="74.9196854" rx="1.5316002" ry="1.5185714"/>
	<path class="st2" d="M51.3477554,73.2907639c1.5395126,2.0229111-0.1709862,4.2713013-2.1831703,3.7840042
		c-0.7743721-0.1875381-1.4096413-0.8210831-1.5987854-1.5950623
		C47.0742073,73.4680786,49.3232689,71.7503662,51.3477554,73.2907639z"/>
	<ellipse class="st3" cx="49.7196846" cy="74.9196854" rx="1.5316002" ry="1.5185714"/>
	<path class="st2" d="M58.5477562,73.2907639c1.5395088,2.0229111-0.1709862,4.2713089-2.1831703,3.7840042
		c-0.7743721-0.1875381-1.4096413-0.8210831-1.5987854-1.5950623
		C54.2742043,73.4680786,56.5232697,71.7503662,58.5477562,73.2907639z"/>
	<ellipse class="st3" cx="56.9196854" cy="74.9196854" rx="1.5316002" ry="1.5185714"/>
	<g>
		<path class="st1" d="M37.2373047,69.3886719c-0.152832,0.1582031-0.3779297,0.3076172-0.6757813,0.4482422
			s-0.6845703,0.2109375-1.1611328,0.2109375c-0.6958008,0-1.2631836-0.2421875-1.7026367-0.7265625
			c-0.4394531-0.4833984-0.6591797-1.1123047-0.6591797-1.8847656v-0.0849609c0-0.7763672,0.2172852-1.40625,0.6518555-1.8876953
			c0.4345703-0.4824219,1.0131836-0.7236328,1.7348633-0.7236328c0.3862305,0,0.7246094,0.0605469,1.0166016,0.1796875
			s0.5380859,0.2763672,0.737793,0.4726563v0.9355469h-0.4931641l-0.1713867-0.7119141
			c-0.1166992-0.0947266-0.2578125-0.1728516-0.4233398-0.234375s-0.3637695-0.0917969-0.5952148-0.0917969
			c-0.5620117,0-0.9951172,0.1904297-1.2988281,0.5722656c-0.3037109,0.3808594-0.4555664,0.875-0.4555664,1.4824219v0.0917969
			c0,0.6171875,0.1469727,1.1152344,0.4414063,1.4951172c0.2944336,0.3808594,0.699707,0.5703125,1.2167969,0.5703125
			c0.2832031,0,0.515625-0.0292969,0.6967773-0.0878906c0.1811523-0.0595703,0.3261719-0.1240234,0.4360352-0.1953125v-1.1298828
			l-0.8540039-0.0351563v-0.5136719h1.5581055V69.3886719z"/>
	</g>
	<g>
		<path class="st1" d="M41.7045898,65.375l-0.4750977,0.0751953l1.1650391,3.3515625l0.1176758,0.4072266h0.0214844
			l0.1181641-0.4072266l1.1611328-3.3554688L43.3447266,65.375v-0.4492188h1.640625V65.375l-0.4179688,0.0566406
			l-1.7441406,4.6523438h-0.6040039l-1.7436523-4.6523438L40.0610352,65.375v-0.4492188h1.6435547V65.375z"/>
	</g>
	<g>
		<path class="st1" d="M47.3789063,69.6376953l0.5820313-0.0996094v-4.0634766L47.3789063,65.375v-0.4492188h1.8691406V65.375
			l-0.5830078,0.0996094v1.7324219h0.5400391l1.4541016-1.7822266L50.2695313,65.375v-0.4492188h1.6513672V65.375
			l-0.4892578,0.0888672l-1.5908203,1.9560547l1.7373047,2.1289063l0.4892578,0.0888672v0.4462891H50.359375v-0.4462891
			l0.3964844-0.0498047l-1.4833984-1.8320313h-0.6074219v1.7822266l0.5830078,0.0996094v0.4462891h-1.8691406V69.6376953z"/>
	</g>
	<g>
		<path class="st1" d="M59.0820313,64.9257813v1.140625h-0.6005859l-0.0537109-0.5917969h-1.1542969v4.0634766l0.5830078,0.0996094
			v0.4462891h-1.8691406v-0.4462891l0.5820313-0.0996094v-4.0634766h-1.1572266l-0.0498047,0.5917969h-0.6044922v-1.140625
			H59.0820313z"/>
	</g>
</g>
<g>
	<path class="st6" d="M75.118103,3.9458008c-3.300293,0-5.9754028,2.6751709-5.9754028,5.9754639
		c0,3.3002319,2.6751099,5.9754028,5.9754028,5.9754028s5.9754639-2.6751709,5.9754639-5.9754028
		C81.0935669,6.6209717,78.418396,3.9458008,75.118103,3.9458008z M75.1191406,14.3149414
		c-2.4279175,0-4.3947144-1.9667969-4.3947144-4.3927002c0-2.4279175,1.9667969-4.3947144,4.3947144-4.3947144
		c2.4258423,0,4.3927002,1.9667969,4.3927002,4.3947144C79.5118408,12.3481445,77.5449829,14.3149414,75.1191406,14.3149414z"/>
	<path class="st6" d="M75.118103,69.1426392c-3.2987671,0-5.9754028,2.6751709-5.9754028,5.9754639
		s2.6766357,5.9754028,5.9754028,5.9754028c3.300293,0,5.9754639-2.6751099,5.9754639-5.9754028
		S78.418396,69.1426392,75.118103,69.1426392z M75.1170654,79.5117798c-2.4258423,0-4.3926392-1.968811-4.3926392-4.3947144
		c0-2.4258423,1.9667969-4.3927002,4.3926392-4.3927002c2.4279175,0,4.3947754,1.9668579,4.3947754,4.3927002
		C79.5118408,77.5429688,77.5449829,79.5117798,75.1170654,79.5117798z"/>
	<path class="st6" d="M9.9212646,69.1426392c-3.2987671,0-5.9754639,2.6751709-5.9754639,5.9754639
		s2.6766968,5.9754028,5.9754639,5.9754028c3.300293,0,5.9754028-2.6751099,5.9754028-5.9754028
		S13.2215576,69.1426392,9.9212646,69.1426392z M9.9212646,79.5117798c-2.4264526,0-4.3936768-1.9667969-4.3936768-4.3926392
		c0-2.4279175,1.9672241-4.3947754,4.3936768-4.3947754s4.3936768,1.9668579,4.3936768,4.3947754
		C14.3149414,77.5449829,12.3477173,79.5117798,9.9212646,79.5117798z"/>
	<path class="st6" d="M9.9212646,3.9458008c-3.2877808,0-5.9527588,2.6751709-5.9527588,5.9754639
		c0,3.3002319,2.664978,5.9754028,5.9527588,5.9754028c3.2877197,0,5.9527588-2.6751709,5.9527588-5.9754028
		C15.8740234,6.6209717,13.2089844,3.9458008,9.9212646,3.9458008z M9.9223022,14.3149414
		c-2.4279175,0-4.3947144-1.9667969-4.3947144-4.3927002c0-2.4279175,1.9667969-4.3947144,4.3947144-4.3947144
		c2.4258423,0,4.3926392,1.9667969,4.3926392,4.3947144C14.3149414,12.3481445,12.3481445,14.3149414,9.9223022,14.3149414z"/>
</g>
<circle class="st7" cx="42.5200005" cy="42.5200005" r="18.7795277"/>
<circle class="st8" cx="42.5200005" cy="42.5200005" r="1.8229166"/>
<g>
</g>
<g>
</g>
<g>
</g>
<g>
</g>
<g>
</g>
</svg>
