<svg xmlns="http://www.w3.org/2000/svg" viewBox="0 0 84.75 85.04">
  <defs>
    <style>
      .a {
        fill: #181819;
      }

      .b {
        fill: #9e9b9c;
      }

      .c {
        fill: #e5e4e0;
      }

      .d {
        fill: #cec7bd;
      }

      .e {
        fill: #918c84;
      }

      .f, .g, .n, .o, .w, .x {
        fill: none;
      }

      .f, .g {
        stroke: #f6f6f6;
      }

      .f, .g, .n, .o, .t, .w, .x {
        stroke-miterlimit: 10;
      }

      .f {
        stroke-width: 0.75px;
      }

      .g {
        stroke-width: 0.68px;
      }

      .h {
        fill: #cbc5ba;
      }

      .i {
        fill: #35322e;
      }

      .j {
        fill: #b3b3b2;
      }

      .k {
        fill: #cdc7bc;
      }

      .l {
        fill: #ebad4f;
      }

      .m {
        fill: #5daf61;
      }

      .n, .o {
        stroke: #fff;
        stroke-width: 0.5px;
      }

      .n {
        opacity: 0.37;
      }

      .p {
        fill: #d24a44;
      }

      .q {
        fill: #593e2e;
      }

      .r {
        fill: #8e7647;
      }

      .s {
        fill: #363331;
      }

      .t {
        fill: #f2f2f2;
        stroke: #999;
        stroke-width: 0.1px;
      }

      .u {
        fill: #313131;
      }

      .v {
        fill: #666566;
      }

      .w, .x {
        stroke: #f2f2f2;
      }

      .w {
        stroke-width: 0.41px;
      }

      .x {
        stroke-width: 0.25px;
      }
    </style>
  </defs>
  <title>Адаптер карт microSD</title>
  <g>
    <g>
      <path class="a" d="M0,0V85H85V0ZM9.92,79.51a4.4,4.4,0,1,1,4.39-4.39A4.39,4.39,0,0,1,9.92,79.51Zm0-65.2a4.39,4.39,0,1,1,4.39-4.39A4.38,4.38,0,0,1,9.92,14.31Zm65.2,65.2a4.4,4.4,0,1,1,4.39-4.39A4.4,4.4,0,0,1,75.12,79.51Zm0-65.2a4.39,4.39,0,1,1,4.39-4.39A4.39,4.39,0,0,1,75.12,14.31Z"/>
      <path class="b" d="M75.12,4a6,6,0,1,0,6,6A6,6,0,0,0,75.12,4Zm0,10.36a4.39,4.39,0,1,1,4.39-4.39A4.39,4.39,0,0,1,75.12,14.31Z"/>
      <path class="b" d="M75.12,69.14a6,6,0,1,0,6,6A6,6,0,0,0,75.12,69.14Zm0,10.37a4.4,4.4,0,1,1,4.39-4.39A4.4,4.4,0,0,1,75.12,79.51Z"/>
      <path class="b" d="M9.92,69.14a6,6,0,1,0,6,6A6,6,0,0,0,9.92,69.14Zm0,10.37a4.4,4.4,0,1,1,4.39-4.39A4.39,4.39,0,0,1,9.92,79.51Z"/>
      <path class="b" d="M9.92,4a6,6,0,1,0,5.95,6A6,6,0,0,0,9.92,4Zm0,10.36a4.39,4.39,0,1,1,4.39-4.39A4.38,4.38,0,0,1,9.92,14.31Z"/>
    </g>
    <g>
      <g>
        <path class="c" d="M35.88,81.54a1.33,1.33,0,0,1,.84.24.83.83,0,0,1,.31.68.74.74,0,0,1-.13.41.94.94,0,0,1-.38.28.78.78,0,0,1,.41.27.9.9,0,0,1,.12.48v.15a.24.24,0,0,0,0,.16.16.16,0,0,0,.14.07h.07v.38H37a.51.51,0,0,1-.44-.16.73.73,0,0,1-.13-.43V83.9a.52.52,0,0,0-.12-.36.49.49,0,0,0-.35-.14h-.51v.83l.33.07v.37H34.45V84.3l.34-.07V82l-.34-.06v-.38h1.43Zm-.45,1.38h.43a.64.64,0,0,0,.4-.11.4.4,0,0,0,.13-.33.42.42,0,0,0-.13-.33.5.5,0,0,0-.38-.13h-.45Z"/>
        <path class="c" d="M38.79,81.54v.38l-.34.06v1.64a.57.57,0,0,0,.17.46.74.74,0,0,0,.92,0,.56.56,0,0,0,.17-.46V82l-.33-.06v-.38h1.31v.38l-.34.06v1.64a1,1,0,0,1-.35.81,1.43,1.43,0,0,1-.92.29,1.41,1.41,0,0,1-.92-.29,1,1,0,0,1-.35-.81V82l-.33-.06v-.38h1.31Z"/>
        <path class="c" d="M43.28,82.54H42.8l-.08-.43a.67.67,0,0,0-.24-.09,1.27,1.27,0,0,0-.34,0,.6.6,0,0,0-.4.11.32.32,0,0,0-.15.28.31.31,0,0,0,.15.26,2.09,2.09,0,0,0,.52.22,1.88,1.88,0,0,1,.79.38.78.78,0,0,1,.27.62.76.76,0,0,1-.32.64,1.45,1.45,0,0,1-.85.23,1.87,1.87,0,0,1-.68-.12,1.37,1.37,0,0,1-.5-.33v-.65h.49l.07.44a.58.58,0,0,0,.26.13,1,1,0,0,0,.36,0,.64.64,0,0,0,.4-.1.36.36,0,0,0,.14-.29.39.39,0,0,0-.13-.29,1.35,1.35,0,0,0-.46-.2,2.6,2.6,0,0,1-.85-.39.72.72,0,0,1-.29-.6.74.74,0,0,1,.33-.63,1.42,1.42,0,0,1,.82-.25,2,2,0,0,1,.66.11,1.6,1.6,0,0,1,.51.3Z"/>
        <path class="c" d="M46,82.54H45.5l-.08-.43a.66.66,0,0,0-.25-.09,1.15,1.15,0,0,0-.33,0,.58.58,0,0,0-.4.11.32.32,0,0,0-.15.28.31.31,0,0,0,.15.26,2.09,2.09,0,0,0,.52.22,1.94,1.94,0,0,1,.79.38.78.78,0,0,1,.27.62.76.76,0,0,1-.32.64,1.47,1.47,0,0,1-.85.23,1.83,1.83,0,0,1-.68-.12,1.37,1.37,0,0,1-.5-.33v-.65h.49l.07.44a.59.59,0,0,0,.25.13,1.11,1.11,0,0,0,.37,0,.66.66,0,0,0,.4-.1.35.35,0,0,0,.13-.29.36.36,0,0,0-.13-.29,1.19,1.19,0,0,0-.45-.2A2.6,2.6,0,0,1,44,83a.72.72,0,0,1-.29-.6.74.74,0,0,1,.33-.63,1.4,1.4,0,0,1,.82-.25,2,2,0,0,1,.66.11,1.45,1.45,0,0,1,.5.3Z"/>
        <path class="c" d="M46.27,81.92v-.38h1.31v.38l-.34.06v2.25l.34.07v.37H46.27V84.3l.34-.07V82Z"/>
        <path class="c" d="M47.79,84.3l.22,0,1-2.72h.65l1,2.72.23,0v.37H49.73V84.3l.22,0-.14-.43h-1l-.14.43.22,0v.37H47.79Zm1.14-.94h.73l-.36-1.1h0Z"/>
      </g>
      <path class="d" d="M44.85,76.39a2.24,2.24,0,1,1-2.24-2.22A2.23,2.23,0,0,1,44.85,76.39Z"/>
      <ellipse class="e" cx="42.61" cy="76.39" rx="1.53" ry="1.52"/>
      <path class="d" d="M52.05,76.39a2.24,2.24,0,1,1-2.24-2.22A2.23,2.23,0,0,1,52.05,76.39Z"/>
      <ellipse class="e" cx="49.81" cy="76.39" rx="1.53" ry="1.52"/>
      <path class="d" d="M58.64,74.77a2.28,2.28,0,0,1-2.18,3.78,2.2,2.2,0,0,1-1.6-1.6A2.28,2.28,0,0,1,58.64,74.77Z"/>
      <ellipse class="e" cx="57.01" cy="76.39" rx="1.53" ry="1.52"/>
      <path class="d" d="M65.84,74.77a2.28,2.28,0,0,1-2.18,3.78,2.2,2.2,0,0,1-1.6-1.6A2.28,2.28,0,0,1,65.84,74.77Z"/>
      <ellipse class="e" cx="64.21" cy="76.39" rx="1.53" ry="1.52"/>
      <g>
        <path class="c" d="M64.39,72.66a1.82,1.82,0,0,1-.42.79.85.85,0,0,1-.63.25.89.89,0,0,1-.69-.3,1.15,1.15,0,0,1-.27-.79,1.17,1.17,0,0,1,.14-.59.92.92,0,0,1,.39-.39,1,1,0,0,1,.54-.15v.43a.72.72,0,0,0-.51.18.71.71,0,0,0-.18.52.74.74,0,0,0,.15.49.55.55,0,0,0,.43.17.46.46,0,0,0,.36-.16,1.5,1.5,0,0,0,.28-.57,2.43,2.43,0,0,1,.27-.62,1.13,1.13,0,0,1,.35-.34,1,1,0,0,1,.48-.1.89.89,0,0,1,.69.3,1.21,1.21,0,0,1,.26.81,1.44,1.44,0,0,1-.14.62,1.11,1.11,0,0,1-.39.44,1,1,0,0,1-.55.15v-.42a.67.67,0,0,0,.51-.22.85.85,0,0,0,.18-.57.78.78,0,0,0-.15-.51.51.51,0,0,0-.41-.18.53.53,0,0,0-.4.16A1.84,1.84,0,0,0,64.39,72.66Z"/>
        <path class="c" d="M64.39,70.35a1.82,1.82,0,0,1-.42.79.85.85,0,0,1-.63.25.89.89,0,0,1-.69-.3,1.13,1.13,0,0,1-.27-.79,1.17,1.17,0,0,1,.14-.59,1,1,0,0,1,.39-.4,1.09,1.09,0,0,1,.54-.14v.43a.72.72,0,0,0-.51.18.71.71,0,0,0-.18.52.74.74,0,0,0,.15.49.52.52,0,0,0,.43.17.46.46,0,0,0,.36-.16,1.5,1.5,0,0,0,.28-.57,2.43,2.43,0,0,1,.27-.62,1,1,0,0,1,.35-.33.92.92,0,0,1,.48-.11.89.89,0,0,1,.69.3,1.21,1.21,0,0,1,.26.81,1.44,1.44,0,0,1-.14.62,1.11,1.11,0,0,1-.39.44,1,1,0,0,1-.55.15v-.42a.64.64,0,0,0,.51-.22.85.85,0,0,0,.18-.57.78.78,0,0,0-.15-.51.51.51,0,0,0-.41-.18.5.5,0,0,0-.4.17A1.77,1.77,0,0,0,64.39,70.35Z"/>
        <path class="c" d="M64.54,69.07a4.05,4.05,0,0,1-1.06-.14,3.51,3.51,0,0,1-.93-.39A1.82,1.82,0,0,1,62,68l.3-.08a2,2,0,0,0,.83.52,4,4,0,0,0,1.26.23h.2a3.93,3.93,0,0,0,1.64-.31,2.05,2.05,0,0,0,.65-.44l.28.08a2,2,0,0,1-.61.56A3.7,3.7,0,0,1,64.54,69.07Z"/>
        <path class="c" d="M64.85,65.46a1.3,1.3,0,0,1,.87.37,1.17,1.17,0,0,1,.31.84,1.1,1.1,0,0,1-.45.91,2,2,0,0,1-1.21.34H64a2.19,2.19,0,0,1-.88-.16,1.3,1.3,0,0,1-.57-.45,1.14,1.14,0,0,1-.2-.68,1.1,1.1,0,0,1,.31-.82,1.39,1.39,0,0,1,.88-.35v.42a1,1,0,0,0-.62.24.66.66,0,0,0-.19.51.72.72,0,0,0,.33.63,1.61,1.61,0,0,0,1,.23h.34a1.74,1.74,0,0,0,.92-.21.69.69,0,0,0,.34-.61.78.78,0,0,0-.17-.54,1,1,0,0,0-.62-.25Z"/>
        <path class="c" d="M64.39,64.3a1.88,1.88,0,0,1-.42.79A.95.95,0,0,1,62.65,65a1.12,1.12,0,0,1-.27-.78,1.15,1.15,0,0,1,.14-.59.94.94,0,0,1,.39-.4,1,1,0,0,1,.54-.14v.42a.72.72,0,0,0-.51.18.74.74,0,0,0-.18.53.71.71,0,0,0,.15.48.52.52,0,0,0,.43.18.48.48,0,0,0,.36-.17,1.52,1.52,0,0,0,.28-.56,2.37,2.37,0,0,1,.27-.63,1,1,0,0,1,.35-.33,1,1,0,0,1,.48-.11.89.89,0,0,1,.69.3,1.25,1.25,0,0,1,.26.81,1.44,1.44,0,0,1-.14.62,1,1,0,0,1-.39.44,1,1,0,0,1-.55.15V65a.66.66,0,0,0,.51-.21.89.89,0,0,0,.18-.58.78.78,0,0,0-.15-.51.51.51,0,0,0-.41-.18.5.5,0,0,0-.4.17A1.84,1.84,0,0,0,64.39,64.3Z"/>
        <path class="c" d="M64.56,62.05a4.42,4.42,0,0,1,1,.13,3.35,3.35,0,0,1,.93.4,1.8,1.8,0,0,1,.6.55l-.28.09a2,2,0,0,0-.89-.55,4.77,4.77,0,0,0-1.35-.21h-.08a4.69,4.69,0,0,0-1,.1,3.33,3.33,0,0,0-.79.27,1.58,1.58,0,0,0-.55.39L62,63.13a1.86,1.86,0,0,1,.59-.55,3,3,0,0,1,.92-.39A4.2,4.2,0,0,1,64.56,62.05Z"/>
      </g>
      <g>
        <path class="c" d="M57.28,72.66a1.93,1.93,0,0,1-.43.79.85.85,0,0,1-.63.25.9.9,0,0,1-.69-.3,1.15,1.15,0,0,1-.27-.79A1.17,1.17,0,0,1,55.4,72a.92.92,0,0,1,.39-.39,1,1,0,0,1,.54-.15v.43a.72.72,0,0,0-.51.18.71.71,0,0,0-.18.52.74.74,0,0,0,.15.49.56.56,0,0,0,.43.17.46.46,0,0,0,.36-.16,1.5,1.5,0,0,0,.28-.57,2.43,2.43,0,0,1,.27-.62,1.13,1.13,0,0,1,.35-.34,1.06,1.06,0,0,1,.48-.1.89.89,0,0,1,.69.3,1.21,1.21,0,0,1,.26.81,1.44,1.44,0,0,1-.14.62,1.11,1.11,0,0,1-.39.44,1,1,0,0,1-.55.15v-.42a.67.67,0,0,0,.51-.22.85.85,0,0,0,.19-.57.78.78,0,0,0-.16-.51A.51.51,0,0,0,58,71.9a.53.53,0,0,0-.4.16A1.68,1.68,0,0,0,57.28,72.66Z"/>
        <path class="c" d="M57.73,68.81a1.35,1.35,0,0,1,.87.37,1.13,1.13,0,0,1,.31.84,1.09,1.09,0,0,1-.45.91,2,2,0,0,1-1.21.34h-.34a2.14,2.14,0,0,1-.87-.16,1.28,1.28,0,0,1-.58-.45,1.14,1.14,0,0,1-.2-.68,1.06,1.06,0,0,1,.31-.81,1.34,1.34,0,0,1,.88-.36v.42a1.12,1.12,0,0,0-.62.24.66.66,0,0,0-.19.51.75.75,0,0,0,.33.64,1.69,1.69,0,0,0,1,.23h.34a1.71,1.71,0,0,0,.92-.22.7.7,0,0,0,.35-.61.77.77,0,0,0-.18-.54,1.09,1.09,0,0,0-.62-.25Z"/>
        <path class="c" d="M57.21,67.64l.45.4h1.2v.42H55.3V68h1.76L55.3,66.61V66.1l1.58,1.26,2-1.36v.51Z"/>
      </g>
      <g>
        <path class="c" d="M48,73.06l2.9-1L48,71v-.55h3.56v.42H50.17l-1.49,0,2.88,1v.33l-2.88,1,1.49,0h1.39v.43H48Z"/>
        <path class="c" d="M49.89,67.44a2.31,2.31,0,0,1,.91.16,1.33,1.33,0,0,1,.6.45,1.11,1.11,0,0,1,.2.67,1.09,1.09,0,0,1-.2.67,1.37,1.37,0,0,1-.59.46,2.24,2.24,0,0,1-.89.16h-.25a2.35,2.35,0,0,1-.91-.16,1.26,1.26,0,0,1-.6-.45,1.19,1.19,0,0,1,0-1.35,1.4,1.4,0,0,1,.6-.45,2.31,2.31,0,0,1,.91-.16Zm-.23.42a1.76,1.76,0,0,0-1,.23.75.75,0,0,0-.34.64.73.73,0,0,0,.34.63,1.7,1.7,0,0,0,.94.23h.26a1.72,1.72,0,0,0,1-.23.76.76,0,0,0,0-1.27,1.77,1.77,0,0,0-1-.23Z"/>
        <path class="c" d="M50,66.09a1.88,1.88,0,0,1-.43.79.85.85,0,0,1-.62.25.89.89,0,0,1-.69-.3A1.12,1.12,0,0,1,48,66a1.25,1.25,0,0,1,.14-.59,1,1,0,0,1,.94-.54v.42a.69.69,0,0,0-.51.19.72.72,0,0,0-.19.52.74.74,0,0,0,.16.49.54.54,0,0,0,.42.17.47.47,0,0,0,.37-.16,1.76,1.76,0,0,0,.28-.57,2.43,2.43,0,0,1,.27-.62,1,1,0,0,1,.35-.34,1,1,0,0,1,.47-.11.84.84,0,0,1,.69.31,1.16,1.16,0,0,1,.26.81,1.27,1.27,0,0,1-.14.61,1,1,0,0,1-.38.44,1,1,0,0,1-.55.16V66.8a.63.63,0,0,0,.5-.21.8.8,0,0,0,.19-.57.76.76,0,0,0-.15-.51.58.58,0,0,0-.82,0A1.87,1.87,0,0,0,50,66.09Z"/>
        <path class="c" d="M51.56,64.13v.43H48v-.43Z"/>
      </g>
      <g>
        <path class="c" d="M43.8,72.55l-2.93-.92v-.46l3.56,1.19v.37l-3.56,1.19v-.46Z"/>
        <path class="c" d="M43.3,68.61a1.35,1.35,0,0,1,.87.38,1.17,1.17,0,0,1,.31.84,1.09,1.09,0,0,1-.45.91,2,2,0,0,1-1.21.34h-.35a2.33,2.33,0,0,1-.87-.16,1.3,1.3,0,0,1-.57-.45,1.14,1.14,0,0,1-.21-.68,1.11,1.11,0,0,1,.32-.82,1.45,1.45,0,0,1,.88-.36V69a1,1,0,0,0-.62.24.66.66,0,0,0-.19.51.72.72,0,0,0,.33.63,1.61,1.61,0,0,0,1,.23h.34a1.74,1.74,0,0,0,.92-.21.69.69,0,0,0,.34-.61.78.78,0,0,0-.17-.54A1,1,0,0,0,43.3,69Z"/>
        <path class="c" d="M43.3,65.91a1.31,1.31,0,0,1,.87.38,1.15,1.15,0,0,1,.31.83A1.09,1.09,0,0,1,44,68a2,2,0,0,1-1.21.34h-.35a2.14,2.14,0,0,1-.87-.16,1.18,1.18,0,0,1-.57-.45,1.11,1.11,0,0,1-.21-.67,1.09,1.09,0,0,1,.32-.82,1.34,1.34,0,0,1,.88-.36v.42a1.12,1.12,0,0,0-.62.24.69.69,0,0,0-.19.52.72.72,0,0,0,.33.63,1.69,1.69,0,0,0,1,.23h.34a1.65,1.65,0,0,0,.92-.22.68.68,0,0,0,.34-.61.81.81,0,0,0-.17-.54,1.16,1.16,0,0,0-.62-.25Z"/>
      </g>
      <g>
        <path class="c" d="M36.65,71.24a1,1,0,0,1,.39.46,1.59,1.59,0,0,1,.13.68,1.17,1.17,0,0,1-.21.69,1.3,1.3,0,0,1-.58.47,2.14,2.14,0,0,1-.87.17H35.2A2,2,0,0,1,34,73.37a1.1,1.1,0,0,1-.44-1,1.12,1.12,0,0,1,.28-.8,1.29,1.29,0,0,1,.81-.38v.43a.76.76,0,0,0-.38,1.39,1.71,1.71,0,0,0,1,.22h.29a1.65,1.65,0,0,0,1-.24.77.77,0,0,0,.36-.67,1.27,1.27,0,0,0-.06-.41.69.69,0,0,0-.2-.3h-.8v.74h-.38V71.24Z"/>
        <path class="c" d="M37.12,68.31v.42l-2.74,1.61h2.74v.43H33.56v-.43l2.76-1.61H33.56v-.42Z"/>
        <path class="c" d="M37.12,67.78H33.56v-.9a1.31,1.31,0,0,1,.21-.74,1.42,1.42,0,0,1,.58-.5,2.18,2.18,0,0,1,.87-.17h.23a2.19,2.19,0,0,1,.88.17,1.36,1.36,0,0,1,.58.5,1.38,1.38,0,0,1,.21.76ZM34,67.36h2.79v-.44a.93.93,0,0,0-.34-.76,1.52,1.52,0,0,0-1-.27h-.21a1.52,1.52,0,0,0-.94.25.85.85,0,0,0-.34.73Z"/>
      </g>
      <g>
        <path class="c" d="M26.34,73.06l2.9-1-2.9-1v-.55h3.55v.42H28.51l-1.5,0,2.88,1v.33l-2.87,1,1.49,0h1.38v.43H26.34Z"/>
        <path class="c" d="M29.89,69.45v.42H26.34v-.42Z"/>
        <path class="c" d="M28.31,68a2,2,0,0,1-.43.79.87.87,0,0,1-.62.25.92.92,0,0,1-.7-.3,1.17,1.17,0,0,1-.27-.79,1.25,1.25,0,0,1,.14-.59,1,1,0,0,1,.94-.54v.42a.69.69,0,0,0-.51.19.72.72,0,0,0-.19.52.69.69,0,0,0,.16.49.54.54,0,0,0,.42.17.45.45,0,0,0,.37-.17,1.45,1.45,0,0,0,.27-.56,2.61,2.61,0,0,1,.28-.62,1.13,1.13,0,0,1,.35-.34,1,1,0,0,1,.47-.11.87.87,0,0,1,.69.31,1.16,1.16,0,0,1,.26.81,1.27,1.27,0,0,1-.14.61,1,1,0,0,1-.38.44,1,1,0,0,1-.56.16v-.43a.64.64,0,0,0,.51-.21.8.8,0,0,0,.19-.57.76.76,0,0,0-.15-.51.58.58,0,0,0-.82,0A1.87,1.87,0,0,0,28.31,68Z"/>
        <path class="c" d="M28.23,64a2.31,2.31,0,0,1,.91.16,1.31,1.31,0,0,1,.6.44,1.21,1.21,0,0,1,.2.68,1.18,1.18,0,0,1-.2.67,1.35,1.35,0,0,1-.59.45,2.24,2.24,0,0,1-.89.17H28a2.35,2.35,0,0,1-.91-.16,1.4,1.4,0,0,1-.6-.45,1.14,1.14,0,0,1-.21-.68,1.11,1.11,0,0,1,.21-.67,1.19,1.19,0,0,1,.59-.45A2.4,2.4,0,0,1,28,64Zm-.23.42a1.76,1.76,0,0,0-1,.22.76.76,0,0,0-.34.64.73.73,0,0,0,.34.63,1.61,1.61,0,0,0,.94.24h.26a1.75,1.75,0,0,0,1-.23.76.76,0,0,0,0-1.27,1.66,1.66,0,0,0-.95-.23Z"/>
      </g>
      <g>
        <path class="c" d="M22.61,73.15v.42H19.06v-.42Z"/>
        <path class="c" d="M22.61,70.15v.42l-2.74,1.61h2.74v.43H19.06v-.43l2.75-1.61H19.06v-.42Z"/>
        <path class="c" d="M21,68.68a1.93,1.93,0,0,1-.43.79.87.87,0,0,1-.62.25.92.92,0,0,1-.7-.3,1.17,1.17,0,0,1-.27-.79,1.25,1.25,0,0,1,.14-.59,1,1,0,0,1,.93-.54v.42a.65.65,0,0,0-.69.71.74.74,0,0,0,.15.49.58.58,0,0,0,.43.17.49.49,0,0,0,.37-.16,1.51,1.51,0,0,0,.27-.57,2.61,2.61,0,0,1,.28-.62,1,1,0,0,1,.35-.34,1,1,0,0,1,.47-.11.87.87,0,0,1,.69.31,1.21,1.21,0,0,1,.26.81,1.4,1.4,0,0,1-.14.61,1,1,0,0,1-.38.44,1,1,0,0,1-.56.16v-.43a.64.64,0,0,0,.51-.21.8.8,0,0,0,.19-.57.76.76,0,0,0-.15-.51.52.52,0,0,0-.42-.18.51.51,0,0,0-.4.16A1.68,1.68,0,0,0,21,68.68Z"/>
      </g>
      <line class="f" x1="60.7" y1="80.3" x2="60.71" y2="61.42"/>
      <line class="f" x1="53.43" y1="61.43" x2="53.43" y2="80.25"/>
      <line class="f" x1="46.19" y1="80.24" x2="46.19" y2="61.41"/>
      <polyline class="g" points="46.19 80.3 67.94 80.3 67.94 61.43 46.19 61.43"/>
      <polyline class="g" points="46.19 61.43 38.92 61.42 38.92 80.3 38.92 80.3 46.19 80.3"/>
      <path class="d" d="M37.58,76.39a2.24,2.24,0,1,1-2.24-2.22A2.23,2.23,0,0,1,37.58,76.39Z"/>
      <ellipse class="e" cx="35.34" cy="76.39" rx="1.53" ry="1.52"/>
      <polyline class="g" points="38.92 61.42 31.64 61.42 31.64 80.29 31.64 80.3 38.92 80.3"/>
      <path class="d" d="M30.31,76.39a2.24,2.24,0,1,1-2.24-2.22A2.23,2.23,0,0,1,30.31,76.39Z"/>
      <ellipse class="e" cx="28.07" cy="76.39" rx="1.53" ry="1.52"/>
      <polyline class="g" points="31.64 61.42 24.37 61.42 24.37 80.29 24.37 80.3 31.64 80.3"/>
      <path class="d" d="M23,76.39a2.24,2.24,0,1,1-2.24-2.22A2.23,2.23,0,0,1,23,76.39Z"/>
      <ellipse class="e" cx="20.79" cy="76.39" rx="1.53" ry="1.52"/>
      <polyline class="g" points="24.37 61.42 17.1 61.42 17.1 80.29 17.1 80.3 24.37 80.3"/>
    </g>
    <g>
      <rect class="h" x="6.99" y="47.33" width="2.44" height="4.26"/>
      <rect class="h" x="13.11" y="47.29" width="2.44" height="4.26"/>
      <rect class="i" x="8.72" y="47.64" width="5.16" height="3.61"/>
      <g>
        <path class="j" d="M10.25,50h-.7v-.13h.27V49H9.55v-.11h.12l.09,0a.1.1,0,0,0,.06-.05.16.16,0,0,0,0-.09H10v1.16h.27Z"/>
        <path class="j" d="M11.27,49.34a1,1,0,0,1-.11.51.44.44,0,0,1-.68,0,1,1,0,0,1-.1-.5,1,1,0,0,1,.1-.51.4.4,0,0,1,.34-.17.37.37,0,0,1,.34.17A1,1,0,0,1,11.27,49.34Zm-.23.4a.85.85,0,0,0,0-.17,1.55,1.55,0,0,0,0-.23,1.48,1.48,0,0,0,0-.22A.71.71,0,0,0,11,49a.27.27,0,0,0-.08-.1.29.29,0,0,0-.14,0,.25.25,0,0,0-.13,0,.22.22,0,0,0-.09.1.71.71,0,0,0,0,.17c0,.07,0,.14,0,.23s0,.16,0,.22a.62.62,0,0,0,0,.16.31.31,0,0,0,.08.11.34.34,0,0,0,.28,0A.27.27,0,0,0,11,49.74Z"/>
        <path class="j" d="M12.22,49.34a1,1,0,0,1-.11.51.39.39,0,0,1-.34.16.38.38,0,0,1-.34-.16,1,1,0,0,1-.1-.5,1,1,0,0,1,.1-.51.42.42,0,0,1,.68,0A1,1,0,0,1,12.22,49.34Zm-.23.4a.85.85,0,0,0,0-.17,1.55,1.55,0,0,0,0-.23,1.48,1.48,0,0,0,0-.22A.71.71,0,0,0,12,49a.22.22,0,0,0-.09-.1.3.3,0,0,0-.26,0,.22.22,0,0,0-.09.1.71.71,0,0,0,0,.17,1.62,1.62,0,0,0,0,.23,1.41,1.41,0,0,0,0,.22.62.62,0,0,0,0,.16.31.31,0,0,0,.08.11.29.29,0,0,0,.14,0,.25.25,0,0,0,.13,0A.22.22,0,0,0,12,49.74Z"/>
        <path class="j" d="M13.09,50H12.4v-.13h.26V49H12.4v-.11h.11l.1,0,.06-.05,0-.09h.13v1.16h.26Z"/>
      </g>
    </g>
    <g>
      <rect class="h" x="6.99" y="55.59" width="2.44" height="4.26"/>
      <rect class="h" x="13.11" y="55.55" width="2.44" height="4.26"/>
      <rect class="i" x="8.72" y="55.9" width="5.16" height="3.61"/>
      <g>
        <path class="j" d="M10.72,58.24H10v-.13h.27v-.86H10v-.12h.12l.1,0L10.3,57a.2.2,0,0,0,0-.09h.14v1.16h.26Z"/>
        <path class="j" d="M11.74,57.6a.88.88,0,0,1-.11.51.36.36,0,0,1-.33.16.37.37,0,0,1-.34-.16,1.24,1.24,0,0,1,0-1,.39.39,0,0,1,.34-.16.37.37,0,0,1,.33.17A.86.86,0,0,1,11.74,57.6Zm-.23.39a.38.38,0,0,0,0-.16,1.33,1.33,0,0,0,0-.46.38.38,0,0,0,0-.16.16.16,0,0,0-.08-.1.18.18,0,0,0-.13,0,.21.21,0,0,0-.14,0,.21.21,0,0,0-.08.1.39.39,0,0,0,0,.17,1.48,1.48,0,0,0,0,.22,1.55,1.55,0,0,0,0,.23.42.42,0,0,0,0,.16.2.2,0,0,0,.08.1.2.2,0,0,0,.14,0,.18.18,0,0,0,.13,0A.16.16,0,0,0,11.51,58Z"/>
        <path class="j" d="M12.58,57.62a.36.36,0,0,1,.07.1.46.46,0,0,1,0,.14.41.41,0,0,1,0,.16.3.3,0,0,1-.09.13.38.38,0,0,1-.15.09.58.58,0,0,1-.19,0l-.21,0-.17-.06V58h0a.67.67,0,0,0,.17.08l.19,0,.12,0a.31.31,0,0,0,.1-.05l.06-.09a.31.31,0,0,0,0-.11.21.21,0,0,0,0-.12.13.13,0,0,0-.06-.07.19.19,0,0,0-.09,0h-.2v-.15h.06a.33.33,0,0,0,.21,0,.19.19,0,0,0,.08-.16.19.19,0,0,0,0-.08.1.1,0,0,0,0-.06l-.08,0h-.1l-.17,0a1,1,0,0,0-.18.08h0V57A.58.58,0,0,1,12,57a.63.63,0,0,1,.19,0l.17,0,.13,0a.28.28,0,0,1,.09.1.23.23,0,0,1,0,.14.29.29,0,0,1-.08.19.4.4,0,0,1-.18.1h0l.1,0Z"/>
      </g>
    </g>
    <g>
      <rect class="h" x="70.84" y="55.59" width="2.44" height="4.26"/>
      <rect class="h" x="76.96" y="55.55" width="2.44" height="4.26"/>
      <rect class="i" x="72.57" y="55.9" width="5.16" height="3.61"/>
      <g>
        <path class="j" d="M74.1,58.24h-.7v-.13h.27v-.86H73.4v-.12h.12l.09,0,.06-.06a.12.12,0,0,0,0-.09h.13v1.16h.27Z"/>
        <path class="j" d="M75.12,57.6a1,1,0,0,1-.11.51.44.44,0,0,1-.68,0,1.35,1.35,0,0,1,0-1,.41.41,0,0,1,.34-.16.37.37,0,0,1,.34.17A1,1,0,0,1,75.12,57.6Zm-.23.39a.62.62,0,0,0,0-.16,2.65,2.65,0,0,0,0-.46.62.62,0,0,0,0-.16.21.21,0,0,0-.08-.1.21.21,0,0,0-.14,0,.18.18,0,0,0-.13,0,.18.18,0,0,0-.09.1.61.61,0,0,0,0,.17c0,.06,0,.14,0,.22a1.55,1.55,0,0,0,0,.23.75.75,0,0,0,0,.16.27.27,0,0,0,.08.1.27.27,0,0,0,.28,0A.21.21,0,0,0,74.89,58Z"/>
        <path class="j" d="M76.06,57.6a1,1,0,0,1-.1.51.39.39,0,0,1-.34.16.38.38,0,0,1-.34-.16,1.24,1.24,0,0,1,0-1,.4.4,0,0,1,.34-.16.38.38,0,0,1,.34.17A1,1,0,0,1,76.06,57.6Zm-.22.39a.62.62,0,0,0,0-.16,2.65,2.65,0,0,0,0-.46.62.62,0,0,0,0-.16.18.18,0,0,0-.09-.1.23.23,0,0,0-.26,0,.18.18,0,0,0-.09.1.61.61,0,0,0,0,.17,1.48,1.48,0,0,0,0,.22,1.55,1.55,0,0,0,0,.23.75.75,0,0,0,0,.16.27.27,0,0,0,.08.1.21.21,0,0,0,.14,0,.18.18,0,0,0,.13,0A.18.18,0,0,0,75.84,58Z"/>
        <path class="j" d="M76.94,58.24h-.69v-.13h.26v-.86h-.26v-.12h.11l.1,0,.06-.06a.2.2,0,0,0,0-.09h.14v1.16h.26Z"/>
      </g>
    </g>
    <g>
      <g>
        <rect class="k" x="37.77" y="55.59" width="2.44" height="4.26"/>
        <rect class="k" x="31.64" y="55.54" width="2.44" height="4.26"/>
      </g>
      <path class="l" d="M33.25,57.67a.69.69,0,0,0-.43-.69,11.56,11.56,0,0,1-.06-1.43h1.48V59.8H32.76a11.56,11.56,0,0,1,.06-1.43.7.7,0,0,0,.43-.7"/>
      <path class="l" d="M38.54,57.67A.69.69,0,0,1,39,57,11.56,11.56,0,0,0,39,55.55H37.55V59.8H39A11.56,11.56,0,0,0,39,58.37a.7.7,0,0,1-.43-.7"/>
      <rect class="m" x="34.24" y="55.55" width="3.32" height="4.26"/>
      <rect class="n" x="34.24" y="55.55" width="3.32" height="4.26"/>
      <line class="o" x1="30.84" y1="59.8" x2="30.84" y2="55.59"/>
    </g>
    <g>
      <g>
        <rect class="k" x="44.86" y="55.54" width="2.44" height="4.26"/>
        <rect class="k" x="50.99" y="55.59" width="2.44" height="4.26"/>
      </g>
      <path class="l" d="M51.82,57.71a.7.7,0,0,0,.43.7,11.56,11.56,0,0,1,.06,1.43H50.83V55.59h1.48A11.56,11.56,0,0,1,52.25,57a.69.69,0,0,0-.43.69"/>
      <path class="l" d="M46.53,57.71a.7.7,0,0,1-.43.7A11.56,11.56,0,0,0,46,59.84h1.48V55.59H46A11.56,11.56,0,0,0,46.1,57a.69.69,0,0,1,.43.69"/>
      <rect class="p" x="47.52" y="55.59" width="3.32" height="4.26" transform="translate(98.35 115.43) rotate(180)"/>
      <rect class="n" x="47.52" y="55.59" width="3.32" height="4.26" transform="translate(98.35 115.43) rotate(180)"/>
      <line class="o" x1="54.23" y1="55.59" x2="54.23" y2="59.8"/>
    </g>
    <g>
      <rect class="k" x="76.99" y="47.29" width="2.44" height="4.26"/>
      <rect class="k" x="70.86" y="47.33" width="2.44" height="4.26"/>
      <rect class="q" x="72.53" y="47.63" width="5.16" height="3.61"/>
    </g>
    <g>
      <rect class="k" x="76.99" y="39.03" width="2.44" height="4.26"/>
      <rect class="k" x="70.86" y="39.07" width="2.44" height="4.26"/>
      <rect class="q" x="72.53" y="39.37" width="5.16" height="3.61"/>
    </g>
    <g>
      <rect class="k" x="76.99" y="18.22" width="2.44" height="4.26"/>
      <rect class="k" x="70.86" y="18.26" width="2.44" height="4.26"/>
      <rect class="r" x="72.53" y="18.56" width="5.16" height="3.61"/>
    </g>
    <g>
      <rect class="b" x="9.93" y="21.26" width="0.95" height="4.79"/>
      <rect class="b" x="11.66" y="21.26" width="0.95" height="4.79"/>
      <rect class="b" x="13.38" y="21.26" width="0.95" height="4.79"/>
      <rect class="b" x="15.11" y="21.26" width="0.95" height="4.79"/>
      <rect class="b" x="16.84" y="21.26" width="0.95" height="4.79"/>
      <rect class="b" x="4.75" y="21.26" width="0.95" height="4.79"/>
      <rect class="b" x="6.48" y="21.26" width="0.95" height="4.79"/>
      <rect class="b" x="8.2" y="21.26" width="0.95" height="4.79"/>
      <rect class="b" x="9.93" y="37.73" width="0.95" height="4.79"/>
      <rect class="b" x="11.66" y="37.73" width="0.95" height="4.79"/>
      <rect class="b" x="13.38" y="37.73" width="0.95" height="4.79"/>
      <rect class="b" x="15.11" y="37.73" width="0.95" height="4.79"/>
      <rect class="b" x="16.84" y="37.73" width="0.95" height="4.79"/>
      <rect class="b" x="4.75" y="37.73" width="0.95" height="4.79"/>
      <rect class="b" x="6.48" y="37.73" width="0.95" height="4.79"/>
      <rect class="b" x="8.2" y="37.73" width="0.95" height="4.79"/>
      <path class="s" d="M4.13,24.8H18.4a.17.17,0,0,1,.17.17V38.81a.17.17,0,0,1-.17.17H4.13A.16.16,0,0,1,4,38.81V25A.17.17,0,0,1,4.13,24.8Z"/>
    </g>
    <g>
      <polyline class="h" points="24.06 17.38 22.07 17.38 22.07 25 24.06 25"/>
      <polyline class="h" points="66.33 25 68.32 25 68.32 17.38 66.33 17.38"/>
      <polyline class="h" points="27.1 45.9 24.59 45.9 24.59 48.8 28.13 48.8"/>
      <polyline class="h" points="66.33 45.9 68.84 45.9 68.84 48.8 65.31 48.8"/>
      <rect class="h" x="37.44" y="46.66" width="2.57" height="6.04"/>
      <rect class="h" x="40.61" y="46.66" width="2.57" height="6.04"/>
      <rect class="h" x="43.78" y="46.66" width="2.57" height="6.04"/>
      <rect class="h" x="46.95" y="46.66" width="2.57" height="6.04"/>
      <rect class="h" x="50.12" y="46.66" width="2.57" height="6.04"/>
      <rect class="h" x="53.3" y="46.66" width="2.57" height="6.04"/>
      <rect class="h" x="56.47" y="46.66" width="2.57" height="6.04"/>
      <rect class="h" x="59.64" y="46.66" width="2.57" height="6.04"/>
      <rect class="h" x="62.81" y="46.66" width="2.57" height="6.04"/>
      <path class="t" d="M24.06,7.29V44.15a.29.29,0,0,0,.29.29h2.46a.29.29,0,0,1,.29.29v3.78a.29.29,0,0,0,.29.29H66.05a.28.28,0,0,0,.28-.29V9.33A.28.28,0,0,0,66.05,9H39.9l-8-2H24.35A.29.29,0,0,0,24.06,7.29Z"/>
      <rect class="u" x="63.27" y="33.36" width="3.07" height="11"/>
      <polygon class="v" points="66.33 47.8 63.27 46.91 63.27 44.36 66.33 44.36 66.33 47.8"/>
      <path class="w" d="M66.11,33.25l-.78,1.3a2.63,2.63,0,0,0-.21,1.5,2,2,0,0,0,.09.33L66,39.25a1.94,1.94,0,0,1,.12.53,2.31,2.31,0,0,1-.45,1.58l-.77,1.3"/>
      <polygon class="u" points="24.11 12.08 24.96 12.08 24.96 25.17 30.49 25.17 30.49 21.41 27.9 18.55 27.9 12.08 28.64 12.08 28.64 18.38 31.22 21.3 31.22 25.88 24.11 25.88 24.11 12.08"/>
      <path class="u" d="M41.08,34.16V26a.18.18,0,0,1,.17-.17h.49a.18.18,0,0,1,.17.17V35a.17.17,0,0,1-.17.17H37.68a.17.17,0,0,1-.17-.17V26a.18.18,0,0,1,.17-.17h.46a.18.18,0,0,1,.17.17v8.12a.18.18,0,0,0,.17.18h2.43A.18.18,0,0,0,41.08,34.16Z"/>
      <path class="u" d="M60.94,34.16V26a.18.18,0,0,1,.17-.17h.49a.18.18,0,0,1,.17.17V35a.17.17,0,0,1-.17.17H57.54a.17.17,0,0,1-.17-.17V26a.18.18,0,0,1,.17-.17H58a.18.18,0,0,1,.17.17v8.12a.18.18,0,0,0,.17.18h2.43A.18.18,0,0,0,60.94,34.16Z"/>
      <line class="x" x1="24.23" y1="26.11" x2="24.23" y2="7.29"/>
    </g>
    <g>
      <path class="c" d="M22,59.8h-.43V56.25H22Z"/>
      <path class="c" d="M25,59.8H24.6L23,57.06V59.8h-.43V56.25H23L24.6,59V56.25H25Z"/>
      <path class="c" d="M26.49,58.22a1.93,1.93,0,0,1-.79-.43.84.84,0,0,1-.25-.62.92.92,0,0,1,.3-.7,1.13,1.13,0,0,1,.79-.27,1.17,1.17,0,0,1,.59.14.92.92,0,0,1,.39.39,1,1,0,0,1,.15.54h-.43a.64.64,0,0,0-.7-.69.74.74,0,0,0-.49.15.53.53,0,0,0-.17.43.49.49,0,0,0,.16.37,1.51,1.51,0,0,0,.57.27,2.42,2.42,0,0,1,.62.28.92.92,0,0,1,.33.35.88.88,0,0,1,.11.47.86.86,0,0,1-.3.69,1.21,1.21,0,0,1-.81.26,1.44,1.44,0,0,1-.62-.14,1,1,0,0,1-.44-.39,1,1,0,0,1-.15-.55h.42a.61.61,0,0,0,.22.51.85.85,0,0,0,.57.19.73.73,0,0,0,.51-.16.56.56,0,0,0,0-.81A1.61,1.61,0,0,0,26.49,58.22Z"/>
    </g>
    <g>
      <path class="c" d="M57.6,59.8V56.25h.9a1.3,1.3,0,0,1,.74.2,1.39,1.39,0,0,1,.5.59,2.13,2.13,0,0,1,.17.86v.23a2.16,2.16,0,0,1-.17.88,1.3,1.3,0,0,1-.5.58,1.38,1.38,0,0,1-.76.21ZM58,56.63v2.79h.45a.92.92,0,0,0,.75-.34,1.43,1.43,0,0,0,.28-1v-.21a1.52,1.52,0,0,0-.26-.94.87.87,0,0,0-.73-.34Z"/>
      <path class="c" d="M62.09,58.87H60.75l-.3.93H60l1.22-3.55h.37l1.22,3.55H62.4Zm-1.21-.38H62l-.55-1.67Z"/>
      <path class="c" d="M65.25,56.63h-1V59.8H63.8V56.63h-1v-.38h2.48Z"/>
    </g>
    <g>
      <rect class="s" x="73.28" y="26.47" width="3.66" height="8.56"/>
      <rect class="b" x="76.95" y="29.82" width="2.48" height="1.61"/>
      <rect class="b" x="70.86" y="32.56" width="2.42" height="1.68"/>
      <rect class="b" x="70.86" y="27.07" width="2.42" height="1.68"/>
      <rect class="b" x="76.95" y="32.56" width="2.48" height="1.68"/>
      <rect class="b" x="76.95" y="27.07" width="2.48" height="1.68"/>
    </g>
  </g>
</svg>
