<?xml version="1.0" encoding="utf-8"?>
<!-- Generator: Adobe Illustrator 22.1.0, SVG Export Plug-In . SVG Version: 6.00 Build 0)  -->
<svg version="1.1" id="Слой_1" xmlns="http://www.w3.org/2000/svg" xmlns:xlink="http://www.w3.org/1999/xlink" x="0px" y="0px"
	 viewBox="0 0 302.8 47.5" style="enable-background:new 0 0 302.8 47.5;" xml:space="preserve">
<style type="text/css">
	.st0{fill:#202020;stroke:#202020;stroke-miterlimit:10;}
	.st1{fill:#46433E;}
	.st2{fill:#DB924D;stroke:#656465;stroke-width:2.322341e-02;stroke-miterlimit:10;}
	.st3{fill:#E4AB55;stroke:#B2B2B2;stroke-width:2.523070e-02;stroke-miterlimit:10;}
	.st4{fill:none;stroke:#808080;stroke-width:1.141552e-02;stroke-miterlimit:10;}
	.st5{fill:#363331;}
	.st6{fill:#CDC7BC;}
	.st7{fill:none;}
	.st8{fill:#B5B4B3;}
	.st9{fill:#F0EEE4;}
	.st10{fill:#C5B198;}
	.st11{fill:#0D0E0F;stroke:#0D0E0F;stroke-width:0.2321;stroke-miterlimit:10;}
	.st12{fill:#E9A854;}
	.st13{fill:url(#SVGID_1_);}
	.st14{fill:url(#SVGID_2_);}
	.st15{fill:url(#SVGID_3_);}
	.st16{fill-rule:evenodd;clip-rule:evenodd;fill:#FFFFFF;stroke:#FFFFFF;stroke-miterlimit:10;}
	.st17{fill:#FFFFFF;stroke:#FFFFFF;stroke-width:0.96;stroke-linecap:round;stroke-linejoin:round;stroke-miterlimit:10;}
	.st18{fill:#FFFFFF;stroke:#FFFFFF;stroke-width:0.12;stroke-linecap:round;stroke-linejoin:round;stroke-miterlimit:10;}
	
		.st19{fill-rule:evenodd;clip-rule:evenodd;fill:#FFFFFF;stroke:#FFFFFF;stroke-width:0.96;stroke-linecap:round;stroke-linejoin:round;stroke-miterlimit:10;}
	.st20{fill:#FFFFFF;stroke:#FFFFFF;stroke-width:0.48;stroke-linecap:round;stroke-linejoin:round;stroke-miterlimit:10;}
	.st21{fill-rule:evenodd;clip-rule:evenodd;fill:#FFFFFF;}
	.st22{fill:#FFFFFF;}
	.st23{fill:none;stroke:#FFFFFF;stroke-width:0.96;stroke-linecap:round;stroke-linejoin:round;stroke-miterlimit:10;}
</style>
<g>
	<polygon class="st0" points="63.4,8.1 50.9,8.1 45,2.3 20.2,2.3 16.6,6.1 16.6,24 16.6,41.9 20.2,45.7 45,45.7 50.9,39.9 
		63.4,39.9 68.7,45.7 277.5,45.7 299.4,24 277.5,2.3 68.7,2.3 	"/>
	<g>
		<g>
			<g>
				<g>
					<path class="st1" d="M21.9,34.5h4.5c0.5-0.5,0.8-0.8,1.3-1.3v-4.5c-0.5-0.5-0.8-0.8-1.3-1.3h-4.5c-0.5,0.5-0.8,0.8-1.3,1.3v4.5
						C21.1,33.7,21.4,34,21.9,34.5z"/>
				</g>
				
					<rect x="23.3" y="30.1" transform="matrix(4.476248e-11 -1 1 4.476248e-11 -6.7945 55.1262)" class="st2" width="1.8" height="1.8"/>
				
					<rect x="23.7" y="30.5" transform="matrix(4.515949e-11 -1 1 4.515949e-11 -6.7945 55.1262)" class="st3" width="1" height="1"/>
				<line class="st4" x1="23.3" y1="31.8" x2="23.7" y2="31.4"/>
				<line class="st4" x1="23.7" y1="30.5" x2="23.3" y2="30.1"/>
				<line class="st4" x1="24.7" y1="30.5" x2="25.1" y2="30.1"/>
				<line class="st4" x1="24.7" y1="31.4" x2="25.1" y2="31.8"/>
			</g>
		</g>
		<g>
			<g>
				<g>
					<path class="st1" d="M21.9,20.2h4.5c0.5-0.5,0.8-0.8,1.3-1.3v-4.5c-0.5-0.5-0.8-0.8-1.3-1.3h-4.5c-0.5,0.5-0.8,0.8-1.3,1.3v4.5
						C21.1,19.4,21.4,19.7,21.9,20.2z"/>
				</g>
				
					<rect x="23.3" y="15.7" transform="matrix(4.476248e-11 -1 1 4.476248e-11 7.5488 40.7829)" class="st2" width="1.8" height="1.8"/>
				<rect x="23.7" y="16.1" transform="matrix(4.515949e-11 -1 1 4.515949e-11 7.5488 40.7829)" class="st3" width="1" height="1"/>
				<line class="st4" x1="23.3" y1="17.5" x2="23.7" y2="17.1"/>
				<line class="st4" x1="23.7" y1="16.1" x2="23.3" y2="15.7"/>
				<line class="st4" x1="24.7" y1="16.1" x2="25.1" y2="15.7"/>
				<line class="st4" x1="24.7" y1="17.1" x2="25.1" y2="17.5"/>
			</g>
		</g>
		<g>
			<g>
				<g>
					<path class="st1" d="M21.9,27.3h4.5c0.5-0.5,0.8-0.8,1.3-1.3v-4.5c-0.5-0.5-0.8-0.8-1.3-1.3h-4.5c-0.5,0.5-0.8,0.8-1.3,1.3v4.5
						C21.1,26.6,21.4,26.8,21.9,27.3z"/>
				</g>
				
					<rect x="23.3" y="22.9" transform="matrix(4.476248e-11 -1 1 4.476248e-11 0.3768 47.9542)" class="st2" width="1.8" height="1.8"/>
				<rect x="23.7" y="23.3" transform="matrix(4.515949e-11 -1 1 4.515949e-11 0.3768 47.9542)" class="st3" width="1" height="1"/>
				<line class="st4" x1="23.3" y1="24.7" x2="23.7" y2="24.3"/>
				<line class="st4" x1="23.7" y1="23.3" x2="23.3" y2="22.9"/>
				<line class="st4" x1="24.7" y1="23.3" x2="25.1" y2="22.9"/>
				<line class="st4" x1="24.7" y1="24.3" x2="25.1" y2="24.7"/>
			</g>
		</g>
	</g>
	<g>
		<g id="Усилитель">
			<rect x="53" y="11.3" class="st5" width="10.8" height="13.9"/>
			<rect x="63.8" y="22.7" class="st6" width="4.5" height="1.8"/>
			<rect x="63.8" y="19.1" class="st6" width="4.5" height="1.8"/>
			<rect x="63.8" y="15.5" class="st6" width="4.5" height="1.8"/>
			<rect x="63.8" y="11.9" class="st6" width="4.5" height="1.8"/>
			<rect x="48.5" y="11.9" class="st6" width="4.5" height="1.8"/>
			<rect x="48.5" y="15.5" class="st6" width="4.5" height="1.8"/>
			<rect x="48.5" y="19.2" class="st6" width="4.5" height="1.8"/>
			<rect x="48.5" y="22.8" class="st6" width="4.5" height="1.8"/>
			<g>
				<rect x="57.7" y="14.1" class="st7" width="1.6" height="8.3"/>
				<path class="st8" d="M57.9,21.2v0.5h1.3v0.2h-1.3v0.5h-0.2v-1.1H57.9z"/>
				<path class="st8" d="M59,20.8v-0.7h0.2V21h-1.4v-0.2H59z"/>
				<path class="st8" d="M58.5,19.9l-0.7-0.1v-0.7h0.2v0.6l0.4,0c0-0.1-0.1-0.1-0.1-0.2c0-0.1,0-0.2,0.1-0.3
					c0.1-0.1,0.2-0.1,0.3-0.1c0.1,0,0.3,0,0.3,0.1c0.1,0.1,0.1,0.2,0.1,0.3c0,0.1,0,0.2-0.1,0.3s-0.2,0.1-0.3,0.1v-0.2
					c0.1,0,0.1,0,0.2-0.1c0,0,0.1-0.1,0.1-0.2c0-0.1,0-0.1-0.1-0.2s-0.1-0.1-0.2-0.1c-0.1,0-0.2,0-0.2,0.1c-0.1,0.1-0.1,0.1-0.1,0.2
					c0,0.1,0,0.1,0.1,0.2l0,0L58.5,19.9z"/>
				<path class="st8" d="M58.5,18.8l-0.7-0.1V18h0.2v0.6l0.4,0c0-0.1-0.1-0.1-0.1-0.2c0-0.1,0-0.2,0.1-0.3c0.1-0.1,0.2-0.1,0.3-0.1
					c0.1,0,0.3,0,0.3,0.1c0.1,0.1,0.1,0.2,0.1,0.3c0,0.1,0,0.2-0.1,0.3s-0.2,0.1-0.3,0.1v-0.2c0.1,0,0.1,0,0.2-0.1
					c0,0,0.1-0.1,0.1-0.2c0-0.1,0-0.1-0.1-0.2s-0.1-0.1-0.2-0.1c-0.1,0-0.2,0-0.2,0.1c-0.1,0.1-0.1,0.1-0.1,0.2c0,0.1,0,0.1,0.1,0.2
					l0,0L58.5,18.8z"/>
				<path class="st8" d="M58.5,17.6l-0.7-0.1v-0.7h0.2v0.6l0.4,0c0-0.1-0.1-0.1-0.1-0.2c0-0.1,0-0.2,0.1-0.3
					c0.1-0.1,0.2-0.1,0.3-0.1c0.1,0,0.3,0,0.3,0.1c0.1,0.1,0.1,0.2,0.1,0.3c0,0.1,0,0.2-0.1,0.3s-0.2,0.1-0.3,0.1v-0.2
					c0.1,0,0.1,0,0.2-0.1c0,0,0.1-0.1,0.1-0.2c0-0.1,0-0.1-0.1-0.2S58.8,17,58.7,17c-0.1,0-0.2,0-0.2,0.1c-0.1,0.1-0.1,0.1-0.1,0.2
					c0,0.1,0,0.1,0.1,0.2l0,0L58.5,17.6z"/>
				<path class="st8" d="M58.7,15.5c0.2,0,0.3,0.1,0.3,0.2c0.1,0.1,0.1,0.2,0.1,0.4c0,0.2-0.1,0.3-0.2,0.4s-0.3,0.2-0.5,0.2h-0.1
					c-0.1,0-0.2,0-0.3-0.1s-0.2-0.1-0.2-0.2c-0.1-0.1-0.1-0.2-0.1-0.3c0-0.2,0-0.3,0.1-0.4c0.1-0.1,0.2-0.1,0.3-0.2v0.2
					c-0.1,0-0.2,0.1-0.2,0.1s-0.1,0.1-0.1,0.2c0,0.1,0,0.2,0.1,0.3s0.2,0.1,0.4,0.1h0.1c0.2,0,0.3,0,0.4-0.1
					c0.1-0.1,0.1-0.2,0.1-0.3c0-0.1,0-0.2-0.1-0.2c0-0.1-0.1-0.1-0.2-0.1V15.5z"/>
			</g>
		</g>
		<g id="конденсатор_12_">
			<g id="XMLID_33_">
				<g>
					<rect x="60.4" y="28.7" class="st6" width="3.4" height="4.3"/>
				</g>
				<g>
				</g>
			</g>
			<g id="XMLID_32_">
				<g>
					<rect x="53.2" y="28.7" class="st6" width="3.4" height="4.3"/>
				</g>
				<g>
				</g>
			</g>
			<g id="XMLID_31_">
				<g>
					<rect x="55.9" y="29" class="st9" width="5.2" height="3.6"/>
				</g>
				<g>
				</g>
			</g>
		</g>
		<g id="конденсатор_1_">
			<g id="XMLID_3_">
				<g>
					<rect x="40.6" y="35.8" class="st6" width="3.4" height="4.3"/>
				</g>
				<g>
				</g>
			</g>
			<g id="XMLID_2_">
				<g>
					<rect x="33.4" y="35.8" class="st6" width="3.4" height="4.3"/>
				</g>
				<g>
				</g>
			</g>
			<g id="XMLID_1_">
				<g>
					<rect x="36.1" y="36.1" class="st10" width="5.2" height="3.6"/>
				</g>
				<g>
				</g>
			</g>
		</g>
		<g id="конденсатор_2_">
			<g id="XMLID_6_">
				<g>
					<rect x="40.5" y="7.3" class="st6" width="3.4" height="4.3"/>
				</g>
				<g>
				</g>
			</g>
			<g id="XMLID_5_">
				<g>
					<rect x="33.4" y="7.3" class="st6" width="3.4" height="4.3"/>
				</g>
				<g>
				</g>
			</g>
			<g id="XMLID_4_">
				<g>
					<rect x="36.1" y="7.6" class="st10" width="5.2" height="3.6"/>
				</g>
				<g>
				</g>
			</g>
		</g>
		<g id="конденсатор_3_">
			<g id="XMLID_9_">
				<g>
					<rect x="80.5" y="21.4" class="st6" width="3.4" height="4.3"/>
				</g>
				<g>
				</g>
			</g>
			<g id="XMLID_8_">
				<g>
					<rect x="73.3" y="21.4" class="st6" width="3.4" height="4.3"/>
				</g>
				<g>
				</g>
			</g>
			<g id="XMLID_7_">
				<g>
					<rect x="76" y="21.7" class="st10" width="5.2" height="3.6"/>
				</g>
				<g>
				</g>
			</g>
		</g>
		<g id="_x31_02_8_">
			<g id="XMLID_30_">
				<g>
					<rect x="73.3" y="35.8" class="st6" width="3.4" height="4.3"/>
				</g>
				<g>
				</g>
			</g>
			<g id="XMLID_29_">
				<g>
					<rect x="80.4" y="35.7" class="st6" width="3.4" height="4.3"/>
				</g>
				<g>
				</g>
			</g>
			<g id="XMLID_28_">
				<g>
					<rect x="76" y="36.1" class="st5" width="5.2" height="3.6"/>
				</g>
				<g>
				</g>
			</g>
			<g>
				<path class="st8" d="M77.7,38.4H77v-0.1h0.3v-0.9H77v-0.1c0,0,0.1,0,0.1,0s0.1,0,0.1,0c0,0,0,0,0.1-0.1c0,0,0-0.1,0-0.1h0.1v1.2
					h0.3V38.4z"/>
				<path class="st8" d="M78.7,37.8c0,0.2,0,0.4-0.1,0.5s-0.2,0.2-0.3,0.2c-0.2,0-0.3-0.1-0.3-0.2c-0.1-0.1-0.1-0.3-0.1-0.5
					c0-0.2,0-0.4,0.1-0.5c0.1-0.1,0.2-0.2,0.3-0.2c0.2,0,0.3,0.1,0.3,0.2S78.7,37.6,78.7,37.8z M78.5,38.2c0,0,0-0.1,0-0.2
					c0-0.1,0-0.1,0-0.2c0-0.1,0-0.2,0-0.2c0-0.1,0-0.1,0-0.2c0,0,0-0.1-0.1-0.1c0,0-0.1,0-0.1,0c-0.1,0-0.1,0-0.1,0
					c0,0-0.1,0.1-0.1,0.1c0,0,0,0.1,0,0.2c0,0.1,0,0.1,0,0.2c0,0.1,0,0.2,0,0.2s0,0.1,0,0.2c0,0,0,0.1,0.1,0.1c0,0,0.1,0,0.1,0
					c0.1,0,0.1,0,0.1,0S78.5,38.2,78.5,38.2z"/>
				<path class="st8" d="M79.7,37.8c0,0.2,0,0.4-0.1,0.5s-0.2,0.2-0.3,0.2c-0.2,0-0.3-0.1-0.3-0.2c-0.1-0.1-0.1-0.3-0.1-0.5
					c0-0.2,0-0.4,0.1-0.5c0.1-0.1,0.2-0.2,0.3-0.2c0.2,0,0.3,0.1,0.3,0.2S79.7,37.6,79.7,37.8z M79.5,38.2c0,0,0-0.1,0-0.2
					c0-0.1,0-0.1,0-0.2c0-0.1,0-0.2,0-0.2c0-0.1,0-0.1,0-0.2c0,0,0-0.1-0.1-0.1c0,0-0.1,0-0.1,0c-0.1,0-0.1,0-0.1,0
					c0,0-0.1,0.1-0.1,0.1c0,0,0,0.1,0,0.2c0,0.1,0,0.1,0,0.2c0,0.1,0,0.2,0,0.2s0,0.1,0,0.2c0,0,0,0.1,0.1,0.1c0,0,0.1,0,0.1,0
					c0.1,0,0.1,0,0.1,0S79.4,38.2,79.5,38.2z"/>
				<path class="st8" d="M80.7,38.1h-0.2v0.4h-0.2v-0.4h-0.6v-0.2l0.6-0.7h0.2v0.8h0.2V38.1z M80.3,37.9v-0.6l-0.5,0.6H80.3z"/>
			</g>
		</g>
		<g id="_x31_02_1_">
			<g id="XMLID_12_">
				<g>
					<rect x="73.3" y="7.1" class="st6" width="3.4" height="4.3"/>
				</g>
				<g>
				</g>
			</g>
			<g id="XMLID_11_">
				<g>
					<rect x="80.4" y="7.1" class="st6" width="3.4" height="4.3"/>
				</g>
				<g>
				</g>
			</g>
			<g id="XMLID_10_">
				<g>
					<rect x="76" y="7.4" class="st5" width="5.2" height="3.6"/>
				</g>
				<g>
				</g>
			</g>
			<g>
				<path class="st8" d="M77.8,9.4h-0.2v0.4h-0.2V9.4h-0.6V9.2l0.6-0.7h0.2v0.8h0.2V9.4z M77.4,9.3V8.7l-0.5,0.6H77.4z"/>
				<path class="st8" d="M78.7,8.7l-0.6,1.1h-0.2l0.6-1.1h-0.7V8.5h0.9V8.7z"/>
				<path class="st8" d="M79.6,9.1c0,0.2,0,0.4-0.1,0.5s-0.2,0.2-0.3,0.2c-0.2,0-0.3-0.1-0.3-0.2c-0.1-0.1-0.1-0.3-0.1-0.5
					c0-0.2,0-0.4,0.1-0.5c0.1-0.1,0.2-0.2,0.3-0.2c0.2,0,0.3,0.1,0.3,0.2S79.6,8.9,79.6,9.1z M79.4,9.5c0,0,0-0.1,0-0.2
					c0-0.1,0-0.1,0-0.2c0-0.1,0-0.2,0-0.2c0-0.1,0-0.1,0-0.2c0,0,0-0.1-0.1-0.1c0,0-0.1,0-0.1,0c-0.1,0-0.1,0-0.1,0
					c0,0-0.1,0.1-0.1,0.1c0,0,0,0.1,0,0.2c0,0.1,0,0.1,0,0.2c0,0.1,0,0.2,0,0.2s0,0.1,0,0.2c0,0,0,0.1,0.1,0.1c0,0,0.1,0,0.1,0
					c0.1,0,0.1,0,0.1,0S79.4,9.6,79.4,9.5z"/>
				<path class="st8" d="M80.5,9.8h-0.7V9.6h0.3V8.8h-0.3V8.7c0,0,0.1,0,0.1,0s0.1,0,0.1,0c0,0,0,0,0.1-0.1c0,0,0-0.1,0-0.1h0.1v1.2
					h0.3V9.8z"/>
			</g>
		</g>
		<g id="_x31_02_2_">
			<g id="XMLID_15_">
				<g>
					<rect x="33.8" y="14.4" class="st6" width="3.4" height="4.3"/>
				</g>
				<g>
				</g>
			</g>
			<g id="XMLID_14_">
				<g>
					<rect x="40.9" y="14.3" class="st6" width="3.4" height="4.3"/>
				</g>
				<g>
				</g>
			</g>
			<g id="XMLID_13_">
				<g>
					<rect x="36.5" y="14.7" class="st5" width="5.2" height="3.6"/>
				</g>
				<g>
				</g>
			</g>
			<g>
				<path class="st8" d="M38.2,17h-0.7v-0.1h0.3V16h-0.3v-0.1c0,0,0.1,0,0.1,0c0,0,0.1,0,0.1,0c0,0,0,0,0.1-0.1c0,0,0-0.1,0-0.1h0.1
					v1.2h0.3V17z"/>
				<path class="st8" d="M39.2,16.6c0,0.1,0,0.2-0.1,0.3C39,17,38.9,17,38.7,17c-0.1,0-0.1,0-0.2,0c-0.1,0-0.1,0-0.1-0.1
					c0,0-0.1-0.1-0.1-0.2c0-0.1,0-0.2,0-0.3c0-0.1,0-0.2,0-0.3c0-0.1,0.1-0.2,0.1-0.2c0-0.1,0.1-0.1,0.2-0.2c0.1,0,0.2-0.1,0.3-0.1
					c0,0,0.1,0,0.1,0c0,0,0,0,0.1,0v0.2h0c0,0,0,0-0.1,0c0,0-0.1,0-0.1,0c-0.1,0-0.2,0-0.3,0.1c-0.1,0.1-0.1,0.2-0.1,0.3
					c0,0,0.1-0.1,0.1-0.1c0,0,0.1,0,0.2,0c0.1,0,0.1,0,0.1,0c0,0,0.1,0,0.1,0.1c0,0,0.1,0.1,0.1,0.1S39.2,16.5,39.2,16.6z M39,16.6
					c0-0.1,0-0.1,0-0.1c0,0,0-0.1-0.1-0.1c0,0-0.1,0-0.1,0c0,0-0.1,0-0.1,0c0,0-0.1,0-0.1,0c0,0-0.1,0-0.1,0.1c0,0,0,0,0,0
					c0,0,0,0,0,0c0,0.1,0,0.2,0,0.2c0,0.1,0,0.1,0.1,0.1c0,0,0.1,0,0.1,0.1c0,0,0.1,0,0.1,0c0.1,0,0.1,0,0.2-0.1
					C39,16.8,39,16.7,39,16.6z"/>
				<path class="st8" d="M40.1,16.4c0,0.2,0,0.4-0.1,0.5C39.9,17,39.8,17,39.6,17c-0.1,0-0.3-0.1-0.3-0.2c-0.1-0.1-0.1-0.3-0.1-0.5
					c0-0.2,0-0.4,0.1-0.5c0.1-0.1,0.2-0.2,0.3-0.2c0.1,0,0.3,0.1,0.3,0.2C40,16,40.1,16.2,40.1,16.4z M39.8,16.8c0,0,0-0.1,0-0.2
					c0-0.1,0-0.1,0-0.2c0-0.1,0-0.2,0-0.2c0-0.1,0-0.1,0-0.2c0,0,0-0.1-0.1-0.1s-0.1,0-0.1,0c-0.1,0-0.1,0-0.1,0
					c0,0-0.1,0.1-0.1,0.1c0,0,0,0.1,0,0.2c0,0.1,0,0.1,0,0.2c0,0.1,0,0.2,0,0.2c0,0.1,0,0.1,0,0.2c0,0,0,0.1,0.1,0.1
					c0,0,0.1,0,0.1,0c0.1,0,0.1,0,0.1,0S39.8,16.8,39.8,16.8z"/>
				<path class="st8" d="M40.9,17h-0.7v-0.1h0.3V16h-0.3v-0.1c0,0,0.1,0,0.1,0c0,0,0.1,0,0.1,0c0,0,0,0,0.1-0.1c0,0,0-0.1,0-0.1h0.1
					v1.2h0.3V17z"/>
			</g>
		</g>
		<g id="_x31_02_3_">
			<g id="XMLID_18_">
				<g>
					<rect x="33.4" y="21.6" class="st6" width="3.4" height="4.3"/>
				</g>
				<g>
				</g>
			</g>
			<g id="XMLID_17_">
				<g>
					<rect x="40.5" y="21.5" class="st6" width="3.4" height="4.3"/>
				</g>
				<g>
				</g>
			</g>
			<g id="XMLID_16_">
				<g>
					<rect x="36.1" y="21.9" class="st5" width="5.2" height="3.6"/>
				</g>
				<g>
				</g>
			</g>
			<g>
				<path class="st8" d="M37.9,23.6C37.9,23.6,37.9,23.6,37.9,23.6c0.1,0.1,0.1,0.2,0.1,0.2s0,0.1,0,0.2c0,0-0.1,0.1-0.1,0.1
					c0,0-0.1,0.1-0.2,0.1c-0.1,0-0.1,0-0.2,0c-0.1,0-0.1,0-0.2,0c-0.1,0-0.1,0-0.2-0.1V24h0c0,0,0.1,0.1,0.2,0.1s0.1,0,0.2,0
					c0,0,0.1,0,0.1,0c0,0,0.1,0,0.1-0.1c0,0,0-0.1,0.1-0.1c0,0,0-0.1,0-0.1s0-0.1,0-0.1s0-0.1-0.1-0.1s-0.1,0-0.1,0c0,0-0.1,0-0.1,0
					h-0.1v-0.1h0.1c0.1,0,0.2,0,0.2-0.1s0.1-0.1,0.1-0.2c0,0,0-0.1,0-0.1s0,0-0.1-0.1c0,0-0.1,0-0.1,0c0,0-0.1,0-0.1,0
					c-0.1,0-0.1,0-0.2,0s-0.1,0-0.2,0.1h0V23c0,0,0.1,0,0.2-0.1c0.1,0,0.1,0,0.2,0c0.1,0,0.1,0,0.2,0c0,0,0.1,0,0.1,0.1
					c0,0,0.1,0.1,0.1,0.1c0,0,0,0.1,0,0.1c0,0.1,0,0.1-0.1,0.2c-0.1,0.1-0.1,0.1-0.2,0.1v0C37.7,23.5,37.7,23.5,37.9,23.6
					C37.8,23.5,37.9,23.6,37.9,23.6z"/>
				<path class="st8" d="M38.8,23.6C38.9,23.6,38.9,23.6,38.8,23.6c0.1,0.1,0.1,0.2,0.1,0.2s0,0.1,0,0.2c0,0-0.1,0.1-0.1,0.1
					c0,0-0.1,0.1-0.2,0.1c-0.1,0-0.1,0-0.2,0c-0.1,0-0.1,0-0.2,0c-0.1,0-0.1,0-0.2-0.1V24h0c0,0,0.1,0.1,0.2,0.1s0.1,0,0.2,0
					c0,0,0.1,0,0.1,0c0,0,0.1,0,0.1-0.1c0,0,0-0.1,0.1-0.1c0,0,0-0.1,0-0.1s0-0.1,0-0.1s0-0.1-0.1-0.1s-0.1,0-0.1,0c0,0-0.1,0-0.1,0
					h-0.1v-0.1h0.1c0.1,0,0.2,0,0.2-0.1s0.1-0.1,0.1-0.2c0,0,0-0.1,0-0.1s0,0-0.1-0.1c0,0-0.1,0-0.1,0c0,0-0.1,0-0.1,0
					c-0.1,0-0.1,0-0.2,0s-0.1,0-0.2,0.1h0V23c0,0,0.1,0,0.2-0.1c0.1,0,0.1,0,0.2,0c0.1,0,0.1,0,0.2,0c0,0,0.1,0,0.1,0.1
					c0,0,0.1,0.1,0.1,0.1c0,0,0,0.1,0,0.1c0,0.1,0,0.1-0.1,0.2c-0.1,0.1-0.1,0.1-0.2,0.1v0C38.7,23.5,38.7,23.5,38.8,23.6
					C38.8,23.5,38.8,23.6,38.8,23.6z"/>
				<path class="st8" d="M39.9,23.6c0,0.2,0,0.4-0.1,0.5s-0.2,0.2-0.3,0.2c-0.2,0-0.3-0.1-0.3-0.2C39,24,39,23.8,39,23.6
					c0-0.2,0-0.4,0.1-0.5c0.1-0.1,0.2-0.2,0.3-0.2c0.2,0,0.3,0.1,0.3,0.2S39.9,23.3,39.9,23.6z M39.7,24c0,0,0-0.1,0-0.2
					c0-0.1,0-0.1,0-0.2c0-0.1,0-0.2,0-0.2c0-0.1,0-0.1,0-0.2c0,0,0-0.1-0.1-0.1c0,0-0.1,0-0.1,0c-0.1,0-0.1,0-0.1,0
					c0,0-0.1,0.1-0.1,0.1c0,0,0,0.1,0,0.2c0,0.1,0,0.1,0,0.2c0,0.1,0,0.2,0,0.2s0,0.1,0,0.2c0,0,0,0.1,0.1,0.1c0,0,0.1,0,0.1,0
					c0.1,0,0.1,0,0.1,0S39.6,24,39.7,24z"/>
				<path class="st8" d="M40.8,24.2h-0.7v-0.1h0.3v-0.9h-0.3v-0.1c0,0,0.1,0,0.1,0s0.1,0,0.1,0c0,0,0,0,0.1-0.1c0,0,0-0.1,0-0.1h0.1
					v1.2h0.3V24.2z"/>
			</g>
		</g>
		<g id="_x31_02_4_">
			<g id="XMLID_21_">
				<g>
					<rect x="33.4" y="28.6" class="st6" width="3.4" height="4.3"/>
				</g>
				<g>
				</g>
			</g>
			<g id="XMLID_20_">
				<g>
					<rect x="40.5" y="28.6" class="st6" width="3.4" height="4.3"/>
				</g>
				<g>
				</g>
			</g>
			<g id="XMLID_19_">
				<g>
					<rect x="36.1" y="29" class="st5" width="5.2" height="3.6"/>
				</g>
				<g>
				</g>
			</g>
			<g>
				<path class="st8" d="M37.8,30.7C37.8,30.7,37.8,30.7,37.8,30.7c0.1,0.1,0.1,0.2,0.1,0.2s0,0.1,0,0.2c0,0-0.1,0.1-0.1,0.1
					c0,0-0.1,0.1-0.2,0.1c-0.1,0-0.1,0-0.2,0c-0.1,0-0.1,0-0.2,0c-0.1,0-0.1,0-0.2-0.1v-0.2h0c0,0,0.1,0.1,0.2,0.1s0.1,0,0.2,0
					c0,0,0.1,0,0.1,0c0,0,0.1,0,0.1-0.1c0,0,0-0.1,0.1-0.1c0,0,0-0.1,0-0.1s0-0.1,0-0.1s0-0.1-0.1-0.1s-0.1,0-0.1,0c0,0-0.1,0-0.1,0
					h-0.1v-0.1h0.1c0.1,0,0.2,0,0.2-0.1s0.1-0.1,0.1-0.2c0,0,0-0.1,0-0.1s0,0-0.1-0.1c0,0-0.1,0-0.1,0c0,0-0.1,0-0.1,0
					c-0.1,0-0.1,0-0.2,0s-0.1,0-0.2,0.1h0v-0.2c0,0,0.1,0,0.2-0.1c0.1,0,0.1,0,0.2,0c0.1,0,0.1,0,0.2,0c0,0,0.1,0,0.1,0.1
					c0,0,0.1,0.1,0.1,0.1c0,0,0,0.1,0,0.1c0,0.1,0,0.1-0.1,0.2c-0.1,0.1-0.1,0.1-0.2,0.1v0C37.6,30.6,37.6,30.6,37.8,30.7
					C37.7,30.6,37.7,30.7,37.8,30.7z"/>
				<path class="st8" d="M38.7,30.7C38.7,30.7,38.8,30.7,38.7,30.7c0.1,0.1,0.1,0.2,0.1,0.2s0,0.1,0,0.2c0,0-0.1,0.1-0.1,0.1
					c0,0-0.1,0.1-0.2,0.1c-0.1,0-0.1,0-0.2,0c-0.1,0-0.1,0-0.2,0c-0.1,0-0.1,0-0.2-0.1v-0.2h0c0,0,0.1,0.1,0.2,0.1s0.1,0,0.2,0
					c0,0,0.1,0,0.1,0c0,0,0.1,0,0.1-0.1c0,0,0-0.1,0.1-0.1c0,0,0-0.1,0-0.1s0-0.1,0-0.1s0-0.1-0.1-0.1s-0.1,0-0.1,0c0,0-0.1,0-0.1,0
					h-0.1v-0.1h0.1c0.1,0,0.2,0,0.2-0.1s0.1-0.1,0.1-0.2c0,0,0-0.1,0-0.1s0,0-0.1-0.1c0,0-0.1,0-0.1,0c0,0-0.1,0-0.1,0
					c-0.1,0-0.1,0-0.2,0s-0.1,0-0.2,0.1h0v-0.2c0,0,0.1,0,0.2-0.1c0.1,0,0.1,0,0.2,0c0.1,0,0.1,0,0.2,0c0,0,0.1,0,0.1,0.1
					c0,0,0.1,0.1,0.1,0.1c0,0,0,0.1,0,0.1c0,0.1,0,0.1-0.1,0.2c-0.1,0.1-0.1,0.1-0.2,0.1v0C38.6,30.6,38.6,30.6,38.7,30.7
					C38.7,30.6,38.7,30.7,38.7,30.7z"/>
				<path class="st8" d="M39.8,30.7c0,0.2,0,0.4-0.1,0.5s-0.2,0.2-0.3,0.2c-0.2,0-0.3-0.1-0.3-0.2c-0.1-0.1-0.1-0.3-0.1-0.5
					c0-0.2,0-0.4,0.1-0.5c0.1-0.1,0.2-0.2,0.3-0.2c0.2,0,0.3,0.1,0.3,0.2S39.8,30.4,39.8,30.7z M39.5,31.1c0,0,0-0.1,0-0.2
					c0-0.1,0-0.1,0-0.2c0-0.1,0-0.2,0-0.2c0-0.1,0-0.1,0-0.2c0,0,0-0.1-0.1-0.1c0,0-0.1,0-0.1,0c-0.1,0-0.1,0-0.1,0
					c0,0-0.1,0.1-0.1,0.1c0,0,0,0.1,0,0.2c0,0.1,0,0.1,0,0.2c0,0.1,0,0.2,0,0.2s0,0.1,0,0.2c0,0,0,0.1,0.1,0.1c0,0,0.1,0,0.1,0
					c0.1,0,0.1,0,0.1,0S39.5,31.1,39.5,31.1z"/>
				<path class="st8" d="M40.6,31.3H40v-0.1h0.3v-0.9H40v-0.1c0,0,0.1,0,0.1,0s0.1,0,0.1,0c0,0,0,0,0.1-0.1c0,0,0-0.1,0-0.1h0.1v1.2
					h0.3V31.3z"/>
			</g>
		</g>
		<g id="конденсатор_4_">
			<g id="XMLID_24_">
				<g>
					<rect x="80" y="28.6" class="st6" width="3.4" height="4.3"/>
				</g>
				<g>
				</g>
			</g>
			<g id="XMLID_23_">
				<g>
					<rect x="72.8" y="28.6" class="st6" width="3.4" height="4.3"/>
				</g>
				<g>
				</g>
			</g>
			<g id="XMLID_22_">
				<g>
					<rect x="75.5" y="28.9" class="st10" width="5.2" height="3.6"/>
				</g>
				<g>
				</g>
			</g>
		</g>
		<g id="диод_1_">
			
				<rect x="81.6" y="15.7" transform="matrix(-1.349074e-10 1 -1 -1.349074e-10 99.1627 -66.3368)" class="st6" width="2.2" height="1.5"/>
			
				<rect x="73.1" y="15.7" transform="matrix(-1.349074e-10 1 -1 -1.349074e-10 90.5998 -57.7739)" class="st6" width="2.2" height="1.5"/>
			
				<rect x="76.6" y="12.9" transform="matrix(-1.346480e-10 1 -1 -1.346480e-10 94.8813 -62.0554)" class="st11" width="3.8" height="7.1"/>
			<g>
				<path class="st8" d="M78.5,17.1h-0.9v-1.5h0.2V17h0.7V17.1z"/>
				<path class="st8" d="M79.4,16.3c0,0.1,0,0.2,0,0.3c0,0.1-0.1,0.2-0.1,0.3c-0.1,0.1-0.1,0.1-0.2,0.2c-0.1,0-0.2,0.1-0.3,0.1
					c0,0-0.1,0-0.1,0c0,0-0.1,0-0.1,0v-0.2h0c0,0,0,0,0.1,0c0,0,0.1,0,0.1,0c0.1,0,0.3,0,0.3-0.1c0.1-0.1,0.1-0.2,0.1-0.4
					c-0.1,0-0.1,0.1-0.2,0.1c-0.1,0-0.1,0-0.2,0c-0.1,0-0.1,0-0.2,0s-0.1,0-0.1-0.1c-0.1,0-0.1-0.1-0.1-0.2c0-0.1,0-0.1,0-0.2
					c0-0.1,0-0.3,0.1-0.4c0.1-0.1,0.2-0.1,0.4-0.1c0.1,0,0.1,0,0.2,0c0.1,0,0.1,0.1,0.2,0.1c0.1,0.1,0.1,0.1,0.1,0.2
					C79.4,16.1,79.4,16.2,79.4,16.3z M79.2,16.3c0-0.1,0-0.2,0-0.2c0-0.1-0.1-0.1-0.1-0.1c0,0-0.1-0.1-0.1-0.1c0,0-0.1,0-0.1,0
					c-0.1,0-0.2,0-0.2,0.1c-0.1,0.1-0.1,0.1-0.1,0.2c0,0.1,0,0.1,0,0.2c0,0,0,0.1,0.1,0.1c0,0,0.1,0,0.1,0c0,0,0.1,0,0.1,0
					c0.1,0,0.1,0,0.2,0C79.1,16.4,79.2,16.4,79.2,16.3C79.2,16.3,79.2,16.3,79.2,16.3C79.2,16.3,79.2,16.3,79.2,16.3z"/>
			</g>
		</g>
		<g>
			<g>
				<path class="st12" d="M1.4,16.9v-0.4c0.3-0.3,0.4-0.4,0.7-0.7h19.2v1.8H2.1C1.8,17.3,1.7,17.1,1.4,16.9z"/>
			</g>
			<g>
				<path class="st12" d="M1.4,24v-0.4c0.3-0.3,0.4-0.4,0.7-0.7h19.2v1.8H2.1C1.8,24.4,1.7,24.3,1.4,24z"/>
			</g>
			<g>
				<path class="st12" d="M1.4,31.1v-0.4c0.3-0.3,0.4-0.4,0.7-0.7h19.2v1.8H2.1C1.8,31.6,1.7,31.4,1.4,31.1z"/>
			</g>
			<g>
				<linearGradient id="SVGID_1_" gradientUnits="userSpaceOnUse" x1="21.244" y1="23.7895" x2="25.0729" y2="23.7895">
					<stop  offset="0" style="stop-color:#E9A854"/>
					<stop  offset="1" style="stop-color:#7B5922"/>
				</linearGradient>
				<rect x="21.2" y="22.9" class="st13" width="3.8" height="1.8"/>
				<linearGradient id="SVGID_2_" gradientUnits="userSpaceOnUse" x1="21.244" y1="16.6513" x2="25.0729" y2="16.6513">
					<stop  offset="0" style="stop-color:#E9A854"/>
					<stop  offset="1" style="stop-color:#7B5922"/>
				</linearGradient>
				<rect x="21.2" y="15.7" class="st14" width="3.8" height="1.8"/>
				<linearGradient id="SVGID_3_" gradientUnits="userSpaceOnUse" x1="21.244" y1="30.9307" x2="25.0729" y2="30.9307">
					<stop  offset="0" style="stop-color:#E9A854"/>
					<stop  offset="1" style="stop-color:#7B5922"/>
				</linearGradient>
				<rect x="21.2" y="30" class="st15" width="3.8" height="1.8"/>
			</g>
		</g>
	</g>
	<g>
		<rect x="107" y="3.9" class="st16" width="1.7" height="39.4"/>
		<line class="st17" x1="106.9" y1="14.6" x2="103.3" y2="14.6"/>
		<line class="st17" x1="103.3" y1="14.6" x2="99.8" y2="14.6"/>
		<line class="st17" x1="99.8" y1="14.6" x2="96.2" y2="14.6"/>
		<line class="st17" x1="96.2" y1="14.6" x2="92.6" y2="14.6"/>
		<g>
			<line class="st17" x1="92.6" y1="14.6" x2="87.2" y2="14.6"/>
		</g>
		<g>
			<line class="st17" x1="92.6" y1="14.6" x2="90.8" y2="18.2"/>
		</g>
		<g>
			<polygon class="st16" points="89.5,16.4 89.9,15.3 90.8,14.4 92,14.3 93.1,14.8 93.7,15.8 93.7,17 93.1,18 92,18.5 90.8,18.4 
				89.9,17.6 89.5,16.4 91.3,16.4 91.3,16.2 91.5,16.1 91.8,16 91.9,16.1 92,16.2 92,16.5 91.9,16.7 91.8,16.7 91.5,16.7 91.3,16.6 
				91.3,16.4 			"/>
		</g>
		<g>
			<polygon class="st18" points="89.5,16.4 89.9,15.3 90.8,14.4 92,14.3 93.1,14.8 93.7,15.8 93.7,17 93.1,18 92,18.5 90.8,18.4 
				89.9,17.6 89.5,16.4 91.3,16.4 91.3,16.2 91.5,16.1 91.8,16 91.9,16.1 92,16.2 92,16.5 91.9,16.7 91.8,16.7 91.5,16.7 91.3,16.6 
				91.3,16.4 			"/>
		</g>
		<g>
			<polygon class="st16" points="93.1,16.4 93.5,15.3 94.4,14.4 95.6,14.3 96.7,14.8 97.3,15.8 97.3,17 96.7,18 95.6,18.5 
				94.4,18.4 93.5,17.6 93.1,16.4 94.9,16.4 94.9,16.2 95.1,16.1 95.3,16 95.5,16.1 95.6,16.2 95.6,16.5 95.5,16.7 95.3,16.7 
				95.1,16.7 94.9,16.6 94.9,16.4 			"/>
			<polygon class="st18" points="93.1,16.4 93.5,15.3 94.4,14.4 95.6,14.3 96.7,14.8 97.3,15.8 97.3,17 96.7,18 95.6,18.5 
				94.4,18.4 93.5,17.6 93.1,16.4 94.9,16.4 94.9,16.2 95.1,16.1 95.3,16 95.5,16.1 95.6,16.2 95.6,16.5 95.5,16.7 95.3,16.7 
				95.1,16.7 94.9,16.6 94.9,16.4 			"/>
			<polygon class="st16" points="92.6,14.6 93,13.5 94.1,12.9 95.3,13 96.1,14 96.1,15.3 95.3,16.1 94.1,16.4 93,15.8 			"/>
			<polygon class="st18" points="92.6,14.6 93,13.5 94.1,12.9 95.3,13 96.1,14 96.1,15.3 95.3,16.1 94.1,16.4 93,15.8 			"/>
		</g>
		<g>
			<polygon class="st16" points="90.8,13.7 91.2,12.5 92.3,11.9 93.5,12.2 94.3,13.1 94.3,14.3 93.5,15.3 92.3,15.5 91.2,14.9 			
				"/>
		</g>
		<g>
			<polygon class="st18" points="90.8,13.7 91.2,12.5 92.3,11.9 93.5,12.2 94.3,13.1 94.3,14.3 93.5,15.3 92.3,15.5 91.2,14.9 			
				"/>
		</g>
		<g>
			<polygon class="st18" points="87.2,14.6 87.6,13.4 88.7,12.8 89.9,13.1 90.7,14 90.7,15.2 89.9,16.2 88.7,16.4 87.6,15.8 			"/>
		</g>
		<g>
			<polygon class="st18" points="87.8,13.6 88.1,12.4 89.2,11.8 90.4,12.1 91.2,13 91.2,14.2 90.4,15.2 89.2,15.4 88.1,14.8 			"/>
		</g>
		<g>
			<polygon class="st18" points="97.4,17.9 97.7,16.7 98.8,16.1 100,16.3 100.8,17.3 100.8,18.5 100,19.4 98.8,19.7 97.7,19.1 			
				"/>
		</g>
		<g>
			<polygon class="st18" points="96.6,15.3 97,14.1 98.1,13.5 99.3,13.7 100.1,14.7 100.1,15.9 99.3,16.9 98.1,17.1 97,16.5 			"/>
		</g>
		<g>
			<polygon class="st18" points="98.1,14.3 98.4,13.1 99.5,12.5 100.7,12.8 101.6,13.7 101.6,14.9 100.7,15.9 99.5,16.1 98.4,15.5 
							"/>
		</g>
		<g>
			<polygon class="st19" points="92.6,11.9 93,10.7 94.1,10.1 95.3,10.4 96.1,11.3 96.1,12.5 95.3,13.5 94.1,13.7 93,13.1 			"/>
			<polygon class="st19" points="95.3,11.9 95.7,10.7 96.7,10.1 98,10.4 98.7,11.3 98.7,12.5 98,13.5 96.7,13.7 95.7,13.1 			"/>
			<polygon class="st19" points="95.3,18.2 95.7,17.1 96.7,16.5 98,16.6 98.7,17.6 98.7,18.8 98,19.7 96.7,20 95.7,19.4 			"/>
			<polygon class="st16" points="92.6,18.2 93,17.1 94.1,16.5 95.3,16.6 96.1,17.6 96.1,18.8 95.3,19.7 94.1,20 93,19.4 			"/>
			<polygon class="st19" points="98.9,11.1 99.3,9.9 100.3,9.3 101.5,9.5 102.3,10.4 102.3,11.7 101.5,12.6 100.3,12.8 99.3,12.2 
							"/>
			<polygon class="st16" points="97.1,11.1 97.5,9.9 98.5,9.3 99.8,9.5 100.5,10.4 100.5,11.7 99.8,12.6 98.5,12.8 97.5,12.2 			"/>
			<polygon class="st17" points="97.1,11.1 97.5,9.9 98.5,9.3 99.8,9.5 100.5,10.4 100.5,11.7 99.8,12.6 98.5,12.8 97.5,12.2 			"/>
			<polygon class="st19" points="99.8,17.3 100.2,16.1 101.3,15.5 102.5,15.8 103.3,16.7 103.3,17.9 102.5,18.9 101.3,19 
				100.2,18.4 			"/>
		</g>
		<g>
			<line class="st17" x1="107.4" y1="32.1" x2="87.2" y2="31.6"/>
		</g>
		<g>
			<line class="st17" x1="87.2" y1="31.6" x2="107.4" y2="31.1"/>
		</g>
		<g>
			<line class="st17" x1="93.5" y1="31.6" x2="92.1" y2="34.4"/>
		</g>
		<g>
			<line class="st17" x1="92" y1="31.6" x2="91.1" y2="33.5"/>
		</g>
		<g>
			<line class="st17" x1="90.7" y1="31.5" x2="89.9" y2="33.4"/>
		</g>
		<g>
			<line class="st17" x1="89.3" y1="31.7" x2="88.9" y2="32.6"/>
		</g>
		<g>
			<line class="st17" x1="93.5" y1="31.6" x2="92.1" y2="29"/>
		</g>
		<g>
			<line class="st17" x1="92.2" y1="31.7" x2="91.2" y2="29.8"/>
		</g>
		<g>
			<line class="st17" x1="90.8" y1="31.8" x2="89.9" y2="29.9"/>
		</g>
		<g>
			<line class="st17" x1="89.3" y1="31.2" x2="89" y2="30.6"/>
		</g>
		<line class="st17" x1="94.8" y1="31.6" x2="93.5" y2="34.4"/>
		<line class="st17" x1="94.8" y1="31.6" x2="93.5" y2="29"/>
		<line class="st17" x1="96.2" y1="31.6" x2="94.4" y2="35.2"/>
		<line class="st17" x1="96.2" y1="31.6" x2="94.4" y2="28"/>
		<line class="st17" x1="97.5" y1="31.6" x2="95.7" y2="35.2"/>
		<line class="st17" x1="97.5" y1="31.6" x2="95.7" y2="28"/>
		<line class="st17" x1="98.9" y1="31.6" x2="96.6" y2="36"/>
		<line class="st17" x1="98.9" y1="31.6" x2="96.6" y2="27.2"/>
		<line class="st17" x1="100.2" y1="31.6" x2="98" y2="36"/>
		<line class="st17" x1="100.2" y1="31.6" x2="98" y2="27.2"/>
		<line class="st17" x1="101.5" y1="31.6" x2="98.9" y2="37"/>
		<line class="st17" x1="101.5" y1="31.6" x2="98.9" y2="26.2"/>
		<line class="st17" x1="102.9" y1="31.6" x2="100.2" y2="37"/>
		<line class="st17" x1="102.9" y1="31.6" x2="100.2" y2="26.2"/>
		<line class="st20" x1="110.5" y1="11.1" x2="115.9" y2="5.7"/>
		<line class="st20" x1="115.9" y1="9.3" x2="121.3" y2="3.9"/>
		<line class="st20" x1="114.1" y1="11.1" x2="108.7" y2="16.4"/>
		<line class="st20" x1="114.1" y1="14.6" x2="119.5" y2="9.3"/>
		<line class="st20" x1="117.7" y1="14.6" x2="112.3" y2="20"/>
		<line class="st20" x1="117.7" y1="18.2" x2="123.1" y2="12.9"/>
		<line class="st20" x1="121.3" y1="21.8" x2="124.9" y2="18.2"/>
		<line class="st20" x1="115.9" y1="23.6" x2="121.3" y2="18.2"/>
		<line class="st20" x1="115.9" y1="20" x2="110.5" y2="25.4"/>
		<line class="st20" x1="110.5" y1="21.8" x2="108.7" y2="23.6"/>
		<line class="st20" x1="112.3" y1="16.4" x2="108.7" y2="20"/>
		<line class="st20" x1="110.5" y1="7.5" x2="108.7" y2="9.3"/>
		<line class="st20" x1="112.3" y1="5.7" x2="114.1" y2="3.9"/>
		<line class="st20" x1="110.5" y1="3.9" x2="108.7" y2="5.7"/>
		<line class="st20" x1="114.1" y1="25.4" x2="108.7" y2="30.8"/>
		<line class="st20" x1="114.1" y1="29" x2="119.5" y2="23.6"/>
		<line class="st20" x1="112.3" y1="30.8" x2="108.7" y2="34.4"/>
		<line class="st20" x1="112.3" y1="34.4" x2="117.7" y2="29"/>
		<line class="st20" x1="119.5" y1="27.2" x2="124.9" y2="21.8"/>
		<line class="st20" x1="117.7" y1="32.6" x2="123.1" y2="27.2"/>
		<line class="st20" x1="115.9" y1="34.4" x2="110.5" y2="39.6"/>
		<line class="st20" x1="110.5" y1="36" x2="108.7" y2="37.8"/>
		<line class="st20" x1="115.9" y1="37.8" x2="121.3" y2="32.6"/>
		<line class="st20" x1="114.1" y1="39.6" x2="110.5" y2="43.2"/>
		<line class="st20" x1="114.1" y1="43.2" x2="119.5" y2="37.8"/>
		<line class="st20" x1="119.5" y1="12.9" x2="124.9" y2="7.5"/>
		<line class="st20" x1="121.3" y1="7.5" x2="124.9" y2="3.9"/>
		<line class="st20" x1="121.3" y1="36" x2="126.7" y2="30.8"/>
		<line class="st20" x1="123.1" y1="30.8" x2="126.7" y2="27.2"/>
		<line class="st20" x1="124.9" y1="25.4" x2="128.5" y2="21.8"/>
		<line class="st20" x1="126.7" y1="20" x2="130.3" y2="16.4"/>
		<line class="st20" x1="123.1" y1="16.4" x2="126.7" y2="12.9"/>
		<line class="st20" x1="124.9" y1="11.1" x2="130.3" y2="5.7"/>
		<line class="st20" x1="126.7" y1="5.7" x2="128.5" y2="3.9"/>
		<line class="st20" x1="119.5" y1="41.4" x2="124.9" y2="36"/>
		<line class="st20" x1="126.7" y1="34.4" x2="130.3" y2="30.8"/>
		<line class="st20" x1="128.5" y1="29" x2="132.1" y2="25.4"/>
		<line class="st20" x1="130.3" y1="23.6" x2="132.1" y2="21.8"/>
		<line class="st20" x1="132.1" y1="18.2" x2="133.9" y2="16.4"/>
		<line class="st20" x1="128.5" y1="14.6" x2="130.3" y2="12.9"/>
		<line class="st20" x1="130.3" y1="9.3" x2="132.1" y2="7.5"/>
		<line class="st20" x1="123.1" y1="41.4" x2="121.3" y2="43.2"/>
		<line class="st20" x1="124.9" y1="39.6" x2="130.3" y2="34.4"/>
		<line class="st20" x1="132.1" y1="32.6" x2="135.7" y2="29"/>
		<line class="st20" x1="133.9" y1="27.2" x2="135.7" y2="25.4"/>
		<line class="st20" x1="124.9" y1="43.2" x2="128.5" y2="39.6"/>
		<line class="st20" x1="130.3" y1="37.8" x2="133.9" y2="34.4"/>
		<line class="st20" x1="135.7" y1="21.8" x2="137.5" y2="20"/>
		<line class="st20" x1="137.5" y1="16.4" x2="139.3" y2="14.6"/>
		<line class="st20" x1="133.9" y1="12.9" x2="135.7" y2="11.1"/>
		<line class="st20" x1="135.7" y1="7.5" x2="137.5" y2="5.7"/>
		<line class="st20" x1="128.5" y1="43.2" x2="132.1" y2="39.6"/>
		<line class="st20" x1="135.7" y1="36" x2="137.5" y2="34.4"/>
		<line class="st20" x1="133.9" y1="41.4" x2="135.7" y2="39.6"/>
		<line class="st20" x1="137.5" y1="30.8" x2="139.3" y2="29"/>
		<line class="st20" x1="139.3" y1="39.6" x2="141.1" y2="37.8"/>
		<line class="st20" x1="141.1" y1="34.4" x2="142.9" y2="32.6"/>
		<line class="st20" x1="139.3" y1="25.4" x2="141.1" y2="23.6"/>
		<line class="st20" x1="139.3" y1="11.1" x2="141.1" y2="9.3"/>
		<line class="st20" x1="141.1" y1="5.7" x2="142.9" y2="3.9"/>
		<line class="st20" x1="144.7" y1="37.8" x2="146.5" y2="36"/>
		<line class="st20" x1="142.9" y1="43.2" x2="144.7" y2="41.4"/>
		<line class="st20" x1="148.3" y1="12.9" x2="149.3" y2="11.9"/>
		<line class="st20" x1="150.1" y1="7.5" x2="151.1" y2="6.5"/>
		<line class="st20" x1="144.7" y1="9.3" x2="145.7" y2="8.3"/>
		<line class="st20" x1="150.1" y1="36" x2="151.1" y2="35.2"/>
		<line class="st20" x1="148.3" y1="41.4" x2="149.3" y2="40.6"/>
		<line class="st20" x1="153.7" y1="43.2" x2="154.2" y2="42.8"/>
		<line class="st20" x1="153.7" y1="11.1" x2="154.2" y2="10.6"/>
		<polygon class="st21" points="298,24 277.6,44.2 275.1,41.6 295.5,21.4 		"/>
		<polygon class="st21" points="277.6,3.6 298,23.9 295.5,26.4 275.1,6.2 		"/>
		<g>
			<path class="st22" d="M143,23.2v-0.7l1-0.2v-6.7l-1-0.2v-0.7h6.6v2.1h-1l-0.1-1.1h-3.4v2.8h3.3v0.9h-3.3v3.1h3.5l0.1-1.1h1v2H143
				z"/>
			<path class="st22" d="M154.8,21.7L154.8,21.7l2.1-4.8h1.5h1v0.7l-1,0.2v4.5l1,0.2v0.7h-3.1v-0.7l1-0.2v-3.5l0,0l-2,4.4h-0.8
				l-2-4.5l0,0v3.6l1,0.2v0.7h-3.1v-0.7l1-0.2v-4.5l-1-0.2v-0.7h1h1.5L154.8,21.7z"/>
			<path class="st22" d="M159.9,17.6v-0.7h3.1v0.7l-1,0.2v1.8h0.6l1.3-1.8c0.2-0.3,0.5-0.6,0.7-0.8c0.2-0.2,0.5-0.3,0.8-0.3
				c0.2,0,0.3,0,0.4,0.1c0.1,0,0.3,0.1,0.4,0.2l-0.2,0.8c-0.2,0-0.3,0-0.3,0c0,0-0.1,0-0.2,0c-0.1,0-0.3,0.1-0.4,0.2
				c-0.1,0.1-0.3,0.2-0.4,0.4l-1.2,1.6l2,2.4l0.8,0.1v0.7h-1.6l-2.2-2.7H162v1.8l1,0.2v0.7h-3.1v-0.7l1-0.2v-4.5L159.9,17.6z"/>
			<path class="st22" d="M166.4,20c0-0.9,0.3-1.7,0.8-2.3s1.2-0.9,2.1-0.9c0.9,0,1.6,0.3,2.1,0.9c0.5,0.6,0.8,1.4,0.8,2.3v0.1
				c0,0.9-0.3,1.7-0.8,2.3c-0.5,0.6-1.2,0.9-2.1,0.9c-0.9,0-1.6-0.3-2.1-0.9s-0.8-1.4-0.8-2.3V20z M167.6,20.1
				c0,0.7,0.1,1.2,0.4,1.7c0.3,0.4,0.7,0.7,1.3,0.7c0.6,0,1-0.2,1.3-0.7c0.3-0.4,0.4-1,0.4-1.7V20c0-0.7-0.1-1.2-0.4-1.7
				c-0.3-0.4-0.7-0.7-1.3-0.7s-1,0.2-1.3,0.7c-0.3,0.4-0.4,1-0.4,1.7V20.1z"/>
			<path class="st22" d="M175.5,22.4c0.4,0,0.7-0.1,1-0.4s0.4-0.5,0.4-0.9h1l0,0c0,0.5-0.2,1-0.7,1.5s-1.1,0.6-1.8,0.6
				c-0.9,0-1.6-0.3-2.1-0.9c-0.5-0.6-0.7-1.4-0.7-2.3v-0.2c0-0.9,0.2-1.7,0.7-2.3c0.5-0.6,1.2-0.9,2.1-0.9c0.5,0,1,0.1,1.4,0.3
				s0.7,0.4,1,0.7l0.1,1.4H177l-0.3-1c-0.1-0.1-0.3-0.2-0.5-0.3s-0.5-0.1-0.7-0.1c-0.6,0-1,0.2-1.3,0.7s-0.4,1-0.4,1.6v0.2
				c0,0.6,0.1,1.2,0.4,1.6S174.9,22.4,175.5,22.4z"/>
			<path class="st22" d="M184.5,16.8v1.9h-1l-0.1-1h-1.4v4.5l1,0.2v0.7h-3.1v-0.7l1-0.2v-4.5h-1.3l-0.1,1h-1v-1.9H184.5z"/>
			<path class="st22" d="M185,17.6v-0.7h3.1v0.7l-1,0.2v1.8h2.8v-1.8l-1-0.2v-0.7h1h1.2h1v0.7l-1,0.2v4.5l1,0.2v0.7H189v-0.7l1-0.2
				v-1.8h-2.8v1.8l1,0.2v0.7H185v-0.7l1-0.2v-4.5L185,17.6z"/>
			<path class="st22" d="M192.6,20c0-0.9,0.3-1.7,0.8-2.3s1.2-0.9,2.1-0.9c0.9,0,1.6,0.3,2.1,0.9c0.5,0.6,0.8,1.4,0.8,2.3v0.1
				c0,0.9-0.3,1.7-0.8,2.3c-0.5,0.6-1.2,0.9-2.1,0.9c-0.9,0-1.6-0.3-2.1-0.9s-0.8-1.4-0.8-2.3V20z M193.8,20.1
				c0,0.7,0.1,1.2,0.4,1.7c0.3,0.4,0.7,0.7,1.3,0.7c0.6,0,1-0.2,1.3-0.7c0.3-0.4,0.4-1,0.4-1.7V20c0-0.7-0.1-1.2-0.4-1.7
				c-0.3-0.4-0.7-0.7-1.3-0.7s-1,0.2-1.3,0.7c-0.3,0.4-0.4,1-0.4,1.7V20.1z"/>
			<path class="st22" d="M201.9,16.8v0.7l-1,0.2v3.6l0,0l2.8-4.5h1.2h1v0.7l-1,0.2v4.5l1,0.2v0.7h-3.1v-0.7l1-0.2v-3.6l0,0l-2.8,4.5
				h-2.1v-0.7l1-0.2v-4.5l-1-0.2v-0.7h2.1H201.9z M204.2,14.2L204.2,14.2c0,0.5-0.1,0.9-0.4,1.1c-0.3,0.3-0.7,0.4-1.3,0.4
				c-0.5,0-1-0.1-1.3-0.4c-0.3-0.3-0.5-0.7-0.4-1.1l0,0h0.9c0,0.3,0.1,0.5,0.2,0.6c0.1,0.2,0.4,0.2,0.6,0.2c0.3,0,0.5-0.1,0.6-0.2
				s0.2-0.4,0.2-0.6H204.2z"/>
			<path class="st22" d="M209.2,22.3c0.3-0.4,0.6-0.8,0.8-1.2c0.2-0.4,0.3-1,0.3-1.9l0.1-1.5l-0.9-0.2v-0.7h5.1h1v0.7l-1,0.2v4.5
				h0.9l-0.1,2.8h-1v-1.9h-4.4v1.9h-1l-0.1-2.8H209.2z M211.5,19.2c0,0.7-0.1,1.3-0.3,1.8c-0.2,0.5-0.4,0.9-0.6,1.3h2.9v-4.4h-1.9
				L211.5,19.2z"/>
			<path class="st22" d="M220.1,23.2c0-0.2-0.1-0.3-0.1-0.5c0-0.1,0-0.3,0-0.4c-0.2,0.3-0.5,0.5-0.8,0.7s-0.7,0.3-1.1,0.3
				c-0.7,0-1.2-0.2-1.5-0.5s-0.5-0.8-0.5-1.4c0-0.6,0.2-1.1,0.7-1.4s1.2-0.5,2-0.5h1.2v-0.7c0-0.4-0.1-0.7-0.4-0.9s-0.6-0.3-1-0.3
				c-0.3,0-0.5,0-0.8,0.1c-0.2,0.1-0.4,0.2-0.5,0.3l-0.1,0.7h-0.9v-1.2c0.3-0.2,0.6-0.4,1.1-0.6c0.4-0.1,0.9-0.2,1.3-0.2
				c0.7,0,1.3,0.2,1.8,0.6s0.7,0.9,0.7,1.6v3.1c0,0.1,0,0.2,0,0.2s0,0.2,0,0.2l0.5,0.1v0.7H220.1z M218.3,22.3
				c0.4,0,0.7-0.1,1.1-0.3c0.3-0.2,0.5-0.4,0.7-0.7v-1h-1.2c-0.5,0-0.9,0.1-1.1,0.3c-0.3,0.2-0.4,0.5-0.4,0.8c0,0.3,0.1,0.5,0.3,0.6
				C217.6,22.3,217.9,22.3,218.3,22.3z"/>
			<path class="st22" d="M227.9,16.8v1.9h-1l-0.1-1h-1.4v4.5l1,0.2v0.7h-3.1v-0.7l1-0.2v-4.5h-1.3l-0.1,1h-1v-1.9H227.9z"/>
			<path class="st22" d="M231.3,16.8v0.7l-1,0.2v1c0,0.5,0.1,0.9,0.3,1.1c0.2,0.2,0.5,0.4,1,0.4c0.3,0,0.5,0,0.7,0s0.5-0.1,0.7-0.1
				v-2.3l-1-0.2v-0.7h3.1v0.7l-1,0.2v4.5l1,0.2v0.7h-3.1v-0.7l1-0.2v-1.4c-0.2,0.1-0.5,0.1-0.7,0.1s-0.5,0-0.8,0
				c-0.8,0-1.4-0.2-1.8-0.6c-0.4-0.4-0.7-1-0.7-1.8v-1l-1-0.2v-0.7h2.1H231.3z"/>
			<path class="st22" d="M238.9,16.8v0.7l-1,0.2v3.6l0,0l2.8-4.5h1.2h1v0.7l-1,0.2v4.5l1,0.2v0.7h-3.1v-0.7l1-0.2v-3.6l0,0l-2.8,4.5
				h-2.1v-0.7l1-0.2v-4.5l-1-0.2v-0.7h2.1H238.9z"/>
			<path class="st22" d="M243.5,17.6v-0.7h3.1v0.7l-1,0.2v1.8h0.6l1.3-1.8c0.2-0.3,0.5-0.6,0.7-0.8c0.2-0.2,0.5-0.3,0.8-0.3
				c0.2,0,0.3,0,0.4,0.1c0.1,0,0.3,0.1,0.4,0.2l-0.2,0.8c-0.2,0-0.3,0-0.3,0c0,0-0.1,0-0.2,0c-0.1,0-0.3,0.1-0.4,0.2
				c-0.1,0.1-0.3,0.2-0.4,0.4l-1.2,1.6l2,2.4l0.8,0.1v0.7h-1.6l-2.2-2.7h-0.8v1.8l1,0.2v0.7h-3.1v-0.7l1-0.2v-4.5L243.5,17.6z"/>
			<path class="st22" d="M148.3,25.8c0.8,0,1.5,0.1,2,0.4s0.7,0.7,0.7,1.3c0,0.3-0.1,0.6-0.3,0.8c-0.2,0.2-0.4,0.4-0.8,0.5
				c0.4,0.1,0.7,0.3,0.9,0.5c0.2,0.3,0.3,0.6,0.3,0.9c0,0.6-0.2,1-0.7,1.3c-0.4,0.3-1,0.5-1.8,0.5h-3.9v-0.7l1-0.2v-4.5l-1-0.2v-0.7
				h1H148.3z M147,28.5h1.4c0.5,0,0.9-0.1,1.1-0.2s0.4-0.4,0.4-0.7c0-0.3-0.1-0.5-0.4-0.7s-0.6-0.2-1.1-0.2H147V28.5z M147,29.4v1.9
				h1.8c0.4,0,0.8-0.1,1-0.2c0.2-0.2,0.3-0.4,0.3-0.7c0-0.3-0.1-0.5-0.3-0.7c-0.2-0.2-0.5-0.2-1-0.2H147z"/>
			<path class="st22" d="M154.1,26.8v1.8c0,1.3-0.2,2.2-0.5,2.8s-0.9,0.9-1.7,0.9h-0.3l0-1l0.2,0c0.4,0,0.7-0.2,0.9-0.6
				s0.2-1.1,0.2-2v-1.8l-1-0.2v-0.7h5.5h1v0.7l-1,0.2v4.5l1,0.2v0.7h-3.1v-0.7l1-0.2v-4.5H154.1z"/>
			<path class="st22" d="M163,32.2c0-0.2-0.1-0.3-0.1-0.5c0-0.1,0-0.3,0-0.4c-0.2,0.3-0.5,0.5-0.8,0.7s-0.7,0.3-1.1,0.3
				c-0.7,0-1.2-0.2-1.5-0.5s-0.5-0.8-0.5-1.4c0-0.6,0.2-1.1,0.7-1.4s1.2-0.5,2-0.5h1.2v-0.7c0-0.4-0.1-0.7-0.4-0.9s-0.6-0.3-1-0.3
				c-0.3,0-0.5,0-0.8,0.1c-0.2,0.1-0.4,0.2-0.5,0.3l-0.1,0.7h-0.9v-1.2c0.3-0.2,0.6-0.4,1.1-0.6c0.4-0.1,0.9-0.2,1.3-0.2
				c0.7,0,1.3,0.2,1.8,0.6s0.7,0.9,0.7,1.6v3.1c0,0.1,0,0.2,0,0.2s0,0.2,0,0.2l0.5,0.1v0.7H163z M161.2,31.3c0.4,0,0.7-0.1,1.1-0.3
				c0.3-0.2,0.5-0.4,0.7-0.7v-1h-1.2c-0.5,0-0.9,0.1-1.1,0.3c-0.3,0.2-0.4,0.5-0.4,0.8c0,0.3,0.1,0.5,0.3,0.6
				C160.6,31.3,160.8,31.3,161.2,31.3z"/>
			<path class="st22" d="M168.1,29.5l-1.7,2.7h-1.8v-0.7l0.9-0.1l1.7-2.4l-1.1-1.6c-0.1-0.2-0.2-0.3-0.4-0.4
				c-0.1-0.1-0.3-0.1-0.4-0.1c-0.1,0-0.1,0-0.2,0c0,0-0.1,0-0.3,0l-0.2-0.8c0.1-0.1,0.3-0.2,0.4-0.2c0.1,0,0.3-0.1,0.5-0.1
				c0.3,0,0.6,0.1,0.8,0.3s0.5,0.4,0.7,0.8l1.1,1.8h0.7v-1.8l-1-0.2v-0.7h1h2.1v0.7l-1,0.2v1.8h0.8l1.1-1.8c0.2-0.3,0.4-0.6,0.7-0.8
				s0.5-0.3,0.8-0.3c0.2,0,0.3,0,0.5,0.1c0.1,0,0.3,0.1,0.4,0.2l-0.2,0.8c-0.2,0-0.3,0-0.3,0c0,0-0.1,0-0.2,0c-0.2,0-0.3,0-0.4,0.1
				c-0.1,0.1-0.2,0.2-0.4,0.4l-1.1,1.6l1.6,2.4l0.9,0.1v0.7h-1.8l-1.7-2.7H170v1.8l1,0.2v0.7h-3.1v-0.7l1-0.2v-1.8H168.1z"/>
			<path class="st22" d="M174.6,26.6v-0.7h3.1v0.7l-1,0.2v1.8h2.8v-1.8l-1-0.2v-0.7h1h1.2h1v0.7l-1,0.2v4.5l1,0.2v0.7h-3.1v-0.7
				l1-0.2v-1.8h-2.8v1.8l1,0.2v0.7h-3.1v-0.7l1-0.2v-4.5L174.6,26.6z"/>
			<path class="st22" d="M182.2,29c0-0.9,0.3-1.7,0.8-2.3s1.2-0.9,2.1-0.9c0.9,0,1.6,0.3,2.1,0.9c0.5,0.6,0.8,1.4,0.8,2.3v0.1
				c0,0.9-0.3,1.7-0.8,2.3c-0.5,0.6-1.2,0.9-2.1,0.9c-0.9,0-1.6-0.3-2.1-0.9s-0.8-1.4-0.8-2.3V29z M183.4,29.1
				c0,0.7,0.1,1.2,0.4,1.7c0.3,0.4,0.7,0.7,1.3,0.7c0.6,0,1-0.2,1.3-0.7c0.3-0.4,0.4-1,0.4-1.7V29c0-0.7-0.1-1.2-0.4-1.7
				c-0.3-0.4-0.7-0.7-1.3-0.7s-1,0.2-1.3,0.7c-0.3,0.4-0.4,1-0.4,1.7V29.1z"/>
			<path class="st22" d="M191.3,31.4c0.4,0,0.7-0.1,1-0.4s0.4-0.5,0.4-0.9h1l0,0c0,0.5-0.2,1-0.7,1.5s-1.1,0.6-1.8,0.6
				c-0.9,0-1.6-0.3-2.1-0.9c-0.5-0.6-0.7-1.4-0.7-2.3v-0.2c0-0.9,0.2-1.7,0.7-2.3c0.5-0.6,1.2-0.9,2.1-0.9c0.5,0,1,0.1,1.4,0.3
				s0.7,0.4,1,0.7l0.1,1.4h-0.9l-0.3-1c-0.1-0.1-0.3-0.2-0.5-0.3s-0.5-0.1-0.7-0.1c-0.6,0-1,0.2-1.3,0.7s-0.4,1-0.4,1.6v0.2
				c0,0.6,0.1,1.2,0.4,1.6S190.7,31.4,191.3,31.4z"/>
			<path class="st22" d="M200.3,25.8v1.9h-1l-0.1-1h-1.4v4.5l1,0.2v0.7h-3.1v-0.7l1-0.2v-4.5h-1.3l-0.1,1h-1v-1.9H200.3z"/>
			<path class="st22" d="M203.9,25.8v0.7l-1,0.2v3.6l0,0l2.8-4.5h1.2h1v0.7l-1,0.2v4.5l1,0.2v0.7h-3.1v-0.7l1-0.2v-3.6l0,0l-2.8,4.5
				h-2.1v-0.7l1-0.2v-4.5l-1-0.2v-0.7h2.1H203.9z"/>
			<path class="st22" d="M210.8,31.5l1-0.2v-4.5l-1-0.2v-0.7h7.1v0.7l-1,0.2v4.5l1,0.2v0.7h-3.1v-0.7l1-0.2v-4.5H213v4.5l1,0.2v0.7
				h-3.1V31.5z"/>
			<path class="st22" d="M218.5,29c0-0.9,0.3-1.7,0.8-2.3s1.2-0.9,2.1-0.9c0.9,0,1.6,0.3,2.1,0.9c0.5,0.6,0.8,1.4,0.8,2.3v0.1
				c0,0.9-0.3,1.7-0.8,2.3c-0.5,0.6-1.2,0.9-2.1,0.9c-0.9,0-1.6-0.3-2.1-0.9s-0.8-1.4-0.8-2.3V29z M219.6,29.1
				c0,0.7,0.1,1.2,0.4,1.7c0.3,0.4,0.7,0.7,1.3,0.7c0.6,0,1-0.2,1.3-0.7c0.3-0.4,0.4-1,0.4-1.7V29c0-0.7-0.1-1.2-0.4-1.7
				c-0.3-0.4-0.7-0.7-1.3-0.7s-1,0.2-1.3,0.7c-0.3,0.4-0.4,1-0.4,1.7V29.1z"/>
			<path class="st22" d="M227.6,25.8v0.7l-1,0.2v1c0,0.5,0.1,0.9,0.3,1.1c0.2,0.2,0.5,0.4,1,0.4c0.3,0,0.5,0,0.7,0s0.5-0.1,0.7-0.1
				v-2.3l-1-0.2v-0.7h3.1v0.7l-1,0.2v4.5l1,0.2v0.7h-3.1v-0.7l1-0.2v-1.4c-0.2,0.1-0.5,0.1-0.7,0.1s-0.5,0-0.8,0
				c-0.8,0-1.4-0.2-1.8-0.6c-0.4-0.4-0.7-1-0.7-1.8v-1l-1-0.2v-0.7h2.1H227.6z"/>
			<path class="st22" d="M235.6,25.8c0.8,0,1.5,0.1,2,0.4s0.7,0.7,0.7,1.3c0,0.3-0.1,0.6-0.3,0.8c-0.2,0.2-0.4,0.4-0.8,0.5
				c0.4,0.1,0.7,0.3,0.9,0.5c0.2,0.3,0.3,0.6,0.3,0.9c0,0.6-0.2,1-0.7,1.3c-0.4,0.3-1,0.5-1.8,0.5h-3.9v-0.7l1-0.2v-4.5l-1-0.2v-0.7
				h1H235.6z M234.2,28.5h1.4c0.5,0,0.9-0.1,1.1-0.2s0.4-0.4,0.4-0.7c0-0.3-0.1-0.5-0.4-0.7s-0.6-0.2-1.1-0.2h-1.4V28.5z
				 M234.2,29.4v1.9h1.8c0.4,0,0.8-0.1,1-0.2c0.2-0.2,0.3-0.4,0.3-0.7c0-0.3-0.1-0.5-0.3-0.7c-0.2-0.2-0.5-0.2-1-0.2H234.2z"/>
			<path class="st22" d="M241.2,25.8V28h1.6c0.8,0,1.3,0.2,1.8,0.6c0.4,0.4,0.6,0.9,0.6,1.5c0,0.6-0.2,1.1-0.6,1.5
				c-0.4,0.4-1,0.6-1.8,0.6H239v-0.7l1-0.2v-4.5l-1-0.2v-0.7h1H241.2z M242.1,25.8v0.7l-1,0.2v-0.9H242.1z M241.2,28.9v2.4h1.6
				c0.4,0,0.7-0.1,0.9-0.3s0.3-0.5,0.3-0.8c0-0.3-0.1-0.6-0.3-0.8s-0.5-0.4-0.9-0.4H241.2z M245.3,31.5l1-0.2v-4.5l-1-0.2v-0.7h2.1
				v5.4l1,0.2v0.7h-3.1V31.5z"/>
		</g>
		<line class="st23" x1="102.9" y1="14.5" x2="99.5" y2="9.2"/>
		<line class="st23" x1="100.1" y1="14.8" x2="98.3" y2="20.2"/>
		<g>
			<path class="st22" d="M276.9,33.9c0.3-0.3,0.5-0.4,0.8-0.4c0.3,0,0.5,0.1,0.7,0.3c0.1,0.1,0.2,0.2,0.2,0.4c0,0.1,0,0.3-0.1,0.5
				c0.2-0.1,0.3-0.1,0.5-0.1c0.1,0,0.3,0.1,0.4,0.2l0.1,0.1c0,0,0.1,0.1,0.1,0.1c0,0,0.1,0,0.1,0l0.1,0l0.3,0.3l-0.2,0.2
				c-0.1,0.1-0.3,0.2-0.4,0.2c-0.1,0-0.3-0.1-0.4-0.2l-0.1-0.1c-0.1-0.1-0.2-0.2-0.3-0.2c-0.1,0-0.2,0-0.3,0.1l-0.4,0.4l0.6,0.6
				l0.3-0.2l0.3,0.3l-0.9,0.9l-0.3-0.3l0.2-0.3l-1.6-1.6l-0.3,0.2l-0.3-0.3l0.2-0.2L276.9,33.9z M277.5,35.2l0.3-0.3
				c0.1-0.1,0.2-0.2,0.2-0.4c0-0.1,0-0.2-0.1-0.3c-0.1-0.1-0.2-0.1-0.3-0.1c-0.1,0-0.2,0.1-0.4,0.2l-0.3,0.3L277.5,35.2z"/>
			<path class="st22" d="M278.9,31.8l0.3,0.3l-0.2,0.3l1.2,1.2c0.1,0.1,0.3,0.2,0.4,0.2c0.2,0,0.3-0.1,0.4-0.2
				c0.1-0.1,0.2-0.3,0.2-0.4c0-0.2-0.1-0.3-0.2-0.4l-1.2-1.2l-0.3,0.2l-0.3-0.3l0.9-0.9l0.3,0.3l-0.2,0.3l1.2,1.2
				c0.3,0.2,0.4,0.5,0.3,0.8s-0.2,0.6-0.4,0.9c-0.3,0.3-0.5,0.4-0.8,0.4s-0.6-0.1-0.8-0.3l-1.2-1.2l-0.3,0.2l-0.3-0.3l0.2-0.2
				l0.4-0.4L278.9,31.8z"/>
			<path class="st22" d="M282.8,29.4l-0.3,0.3l-0.4-0.2c-0.1,0-0.1,0-0.2,0.1c-0.1,0.1-0.2,0.1-0.3,0.2c-0.1,0.1-0.2,0.2-0.2,0.4
				c0,0.1,0,0.2,0.1,0.3c0.1,0.1,0.2,0.1,0.3,0.1c0.1,0,0.3-0.1,0.5-0.2c0.3-0.2,0.6-0.3,0.8-0.3c0.2,0,0.4,0.1,0.6,0.2
				c0.2,0.2,0.3,0.4,0.2,0.7c0,0.3-0.2,0.5-0.4,0.8c-0.2,0.2-0.4,0.3-0.6,0.4c-0.2,0.1-0.4,0.1-0.6,0.1l-0.5-0.5l0.3-0.3l0.4,0.3
				c0.1,0,0.2,0,0.3-0.1c0.1-0.1,0.2-0.1,0.3-0.2c0.1-0.1,0.2-0.2,0.2-0.4c0-0.1,0-0.2-0.1-0.3c-0.1-0.1-0.2-0.1-0.3-0.1
				s-0.3,0.1-0.5,0.2c-0.3,0.2-0.6,0.3-0.9,0.3c-0.2,0-0.5,0-0.6-0.2c-0.2-0.2-0.3-0.4-0.2-0.7c0-0.3,0.2-0.5,0.4-0.8
				c0.2-0.2,0.4-0.3,0.5-0.4c0.2-0.1,0.4-0.1,0.6-0.1L282.8,29.4z"/>
			<path class="st22" d="M284.7,27.5l-0.3,0.3l-0.4-0.2c-0.1,0-0.1,0-0.2,0.1c-0.1,0.1-0.2,0.1-0.3,0.2c-0.1,0.1-0.2,0.2-0.2,0.4
				c0,0.1,0,0.2,0.1,0.3c0.1,0.1,0.2,0.1,0.3,0.1c0.1,0,0.3-0.1,0.5-0.2c0.3-0.2,0.6-0.3,0.8-0.3c0.2,0,0.4,0.1,0.6,0.2
				c0.2,0.2,0.3,0.4,0.2,0.7c0,0.3-0.2,0.5-0.4,0.8c-0.2,0.2-0.4,0.3-0.6,0.4c-0.2,0.1-0.4,0.1-0.6,0.1l-0.5-0.5l0.3-0.3l0.4,0.3
				c0.1,0,0.2,0,0.3-0.1c0.1-0.1,0.2-0.1,0.3-0.2c0.1-0.1,0.2-0.2,0.2-0.4c0-0.1,0-0.2-0.1-0.3c-0.1-0.1-0.2-0.1-0.3-0.1
				c-0.1,0-0.3,0.1-0.5,0.2c-0.3,0.2-0.6,0.3-0.9,0.3c-0.2,0-0.5,0-0.6-0.2c-0.2-0.2-0.3-0.4-0.2-0.7c0-0.3,0.2-0.5,0.4-0.8
				c0.2-0.2,0.4-0.3,0.5-0.4s0.4-0.1,0.6-0.1L284.7,27.5z"/>
			<path class="st22" d="M284.5,26.8l-0.3-0.3l0.9-0.9l0.3,0.3l-0.2,0.3l1.6,1.6l0.3-0.2l0.3,0.3l-0.9,0.9l-0.3-0.3l0.2-0.3
				l-1.6-1.6L284.5,26.8z"/>
			<path class="st22" d="M287.3,27.4l0.1-0.2l-1.2-2.6l0.5-0.5l2.6,1.3l0.2-0.1l0.3,0.3l-0.8,0.8l-0.3-0.3l0.1-0.2l-0.4-0.2
				l-0.7,0.7l0.2,0.4l0.2-0.1l0.3,0.3l-0.8,0.8L287.3,27.4z M287.4,25.9l0.5-0.5l-1-0.5l0,0L287.4,25.9z"/>
		</g>
	</g>
</g>
<g>
</g>
<g>
</g>
<g>
</g>
<g>
</g>
<g>
</g>
<g>
</g>
</svg>
