<?xml version="1.0" encoding="utf-8"?>
<!-- Generator: Adobe Illustrator 22.0.1, SVG Export Plug-In . SVG Version: 6.00 Build 0)  -->
<svg version="1.1" xmlns="http://www.w3.org/2000/svg" xmlns:xlink="http://www.w3.org/1999/xlink" x="0px" y="0px"
	 viewBox="0 0 85.0400009 85.0400009" style="enable-background:new 0 0 85.0400009 85.0400009;" xml:space="preserve">
<style type="text/css">
	.st0{fill:#19191A;}
	.st1{fill:#9E9B9C;}
	.st2{fill:#CEC7BD;}
	.st3{fill:#E5E4E0;}
	.st4{fill:#918C84;}
	.st5{fill:#151616;}
	.st6{fill:none;stroke:#F6F6F6;stroke-width:0.75;stroke-miterlimit:10;}
	.st7{fill:#4C4C4C;}
	.st8{fill:#D24A43;}
	.st9{fill:#CDC7BC;}
	.st10{fill:url(#SVGID_1_);}
	.st11{fill:#363331;}
	.st12{fill:#B5B4B3;}
	.st13{fill:none;stroke:#FFFFFF;stroke-width:0.5;stroke-miterlimit:10;}
	.st14{fill:#FFFFFF;}
</style>
<g id="Модуль">
	<path class="st0" d="M0,0v85.039978h85.039978V0H0z M9.9223022,79.5117798c-2.4279175,0-4.3947144-1.9667969-4.3947144-4.3927002
		c0-2.4279175,1.9667969-4.3947144,4.3947144-4.3947144c2.4258423,0,4.3926392,1.9667969,4.3926392,4.3947144
		C14.3149414,77.5449829,12.3481445,79.5117798,9.9223022,79.5117798z M9.9223022,14.3149414
		c-2.4279175,0-4.3947144-1.9667969-4.3947144-4.3927002c0-2.4279175,1.9667969-4.3947144,4.3947144-4.3947144
		c2.4258423,0,4.3926392,1.9667969,4.3926392,4.3947144C14.3149414,12.3481445,12.3481445,14.3149414,9.9223022,14.3149414z
		 M75.1191406,79.5117798c-2.4279175,0-4.3947144-1.9667969-4.3947144-4.3927002
		c0-2.4279175,1.9667969-4.3947144,4.3947144-4.3947144c2.4258423,0,4.3926392,1.9667969,4.3926392,4.3947144
		C79.5117798,77.5449829,77.5449829,79.5117798,75.1191406,79.5117798z M75.1191406,14.3149414
		c-2.4279175,0-4.3947144-1.9667969-4.3947144-4.3927002c0-2.4279175,1.9667969-4.3947144,4.3947144-4.3947144
		c2.4258423,0,4.3926392,1.9667969,4.3926392,4.3947144C79.5117798,12.3481445,77.5449829,14.3149414,75.1191406,14.3149414z"/>
	<path class="st1" d="M9.9212646,3.9458008c-3.2877808,0-5.9527588,2.6751709-5.9527588,5.9754639
		c0,3.3002319,2.664978,5.9754028,5.9527588,5.9754028c3.2877197,0,5.9527588-2.6751709,5.9527588-5.9754028
		C15.8740234,6.6209717,13.2089844,3.9458008,9.9212646,3.9458008z M9.9223022,14.3149414
		c-2.4279175,0-4.3947144-1.9667969-4.3947144-4.3927002c0-2.4279175,1.9667969-4.3947144,4.3947144-4.3947144
		c2.4258423,0,4.3926392,1.9667969,4.3926392,4.3947144C14.3149414,12.3481445,12.3481445,14.3149414,9.9223022,14.3149414z"/>
	<path class="st1" d="M75.1181107,3.9458008c-3.2877808,0-5.9527588,2.6751709-5.9527588,5.9754639
		c0,3.3002319,2.664978,5.9754028,5.9527588,5.9754028c3.2877197,0,5.9527588-2.6751709,5.9527588-5.9754028
		C81.0708694,6.6209717,78.4058304,3.9458008,75.1181107,3.9458008z M75.1191483,14.3149414
		c-2.4279175,0-4.3947144-1.9667969-4.3947144-4.3927002c0-2.4279175,1.9667969-4.3947144,4.3947144-4.3947144
		c2.4258423,0,4.3926392,1.9667969,4.3926392,4.3947144C79.5117874,12.3481445,77.5449905,14.3149414,75.1191483,14.3149414z"/>
	<path class="st1" d="M9.9212646,69.1426773c-3.2877808,0-5.9527588,2.6751709-5.9527588,5.9754639
		c0,3.3002319,2.664978,5.9754028,5.9527588,5.9754028c3.2877197,0,5.9527588-2.6751709,5.9527588-5.9754028
		C15.8740234,71.8178482,13.2089844,69.1426773,9.9212646,69.1426773z M9.9223022,79.5118179
		c-2.4279175,0-4.3947144-1.9667969-4.3947144-4.3927002c0-2.4279175,1.9667969-4.3947144,4.3947144-4.3947144
		c2.4258423,0,4.3926392,1.9667969,4.3926392,4.3947144C14.3149414,77.5450211,12.3481445,79.5118179,9.9223022,79.5118179z"/>
	<path class="st1" d="M75.1181107,69.1426773c-3.2877808,0-5.9527588,2.6751709-5.9527588,5.9754639
		c0,3.3002319,2.664978,5.9754028,5.9527588,5.9754028c3.2877197,0,5.9527588-2.6751709,5.9527588-5.9754028
		C81.0708694,71.8178482,78.4058304,69.1426773,75.1181107,69.1426773z M75.1191483,79.5118179
		c-2.4279175,0-4.3947144-1.9667969-4.3947144-4.3927002c0-2.4279175,1.9667969-4.3947144,4.3947144-4.3947144
		c2.4258423,0,4.3926392,1.9667969,4.3926392,4.3947144C79.5117874,77.5450211,77.5449905,79.5118179,75.1191483,79.5118179z"/>
	<path class="st2" d="M30.3331528,74.9199524c0,1.2273636-1.0018463,2.2224808-2.2397385,2.2224808
		s-2.2415428-0.9951172-2.2415428-2.2224808c0-1.227356,1.0036507-2.2224731,2.2415428-2.2224731
		S30.3331528,73.6925964,30.3331528,74.9199524z"/>
	<g>
		<path class="st3" d="M35.7836914,80.0625c0.3588867,0,0.640625,0.0810547,0.8447266,0.2441406
			c0.2045898,0.1630859,0.3066406,0.3876953,0.3066406,0.6748047c0,0.1582031-0.0429688,0.2958984-0.128418,0.4121094
			s-0.2104492,0.2099609-0.3754883,0.2822266c0.1865234,0.0546875,0.3208008,0.1455078,0.402832,0.2724609
			c0.081543,0.1269531,0.1225586,0.2841797,0.1225586,0.4726563v0.1591797c0,0.0693359,0.0136719,0.1220703,0.0415039,0.1601563
			c0.0273438,0.0380859,0.0732422,0.0605469,0.1367188,0.0683594l0.078125,0.0107422v0.3789063h-0.328125
			c-0.2070313,0-0.3525391-0.0556641-0.4365234-0.1660156s-0.1259766-0.2529297-0.1259766-0.4287109v-0.1787109
			c0-0.1523438-0.0410156-0.2714844-0.1225586-0.3583984c-0.0820313-0.0869141-0.1972656-0.1328125-0.3466797-0.1367188h-0.519043
			v0.8271484l0.3388672,0.0644531v0.3769531H34.362793v-0.3769531l0.3369141-0.0644531v-2.2509766l-0.3369141-0.0644531V80.0625
			h0.3369141H35.7836914z M35.3339844,81.4453125h0.4389648c0.1762695,0,0.309082-0.0380859,0.3974609-0.1123047
			s0.1323242-0.1826172,0.1323242-0.3232422s-0.0439453-0.2529297-0.1313477-0.3369141
			c-0.0878906-0.0839844-0.2167969-0.1259766-0.3876953-0.1259766h-0.449707V81.4453125z"/>
		<path class="st3" d="M38.6943359,80.0625v0.3789063l-0.3388672,0.0644531v1.6367188
			c0,0.2070313,0.0561523,0.3613281,0.168457,0.4648438c0.1123047,0.1025391,0.2661133,0.1533203,0.4614258,0.1533203
			c0.1987305,0,0.3544922-0.0507813,0.4672852-0.1523438c0.112793-0.1025391,0.1694336-0.2578125,0.1694336-0.4658203v-1.6367188
			l-0.3369141-0.0644531V80.0625h1.3100586v0.3789063l-0.3388672,0.0644531v1.6367188
			c0,0.3525391-0.1166992,0.6230469-0.3505859,0.8144531s-0.5410156,0.2861328-0.9204102,0.2861328
			c-0.3779297,0-0.6831055-0.0947266-0.9155273-0.2861328s-0.3486328-0.4619141-0.3486328-0.8144531v-1.6367188
			l-0.3364258-0.0644531V80.0625h0.3364258h0.6342773H38.6943359z"/>
		<path class="st3" d="M43.1850586,81.0634766h-0.4760742l-0.0825195-0.4306641
			c-0.0546875-0.0341797-0.1352539-0.0644531-0.2407227-0.0898438c-0.105957-0.0263672-0.2182617-0.0390625-0.3369141-0.0390625
			c-0.1738281,0-0.3081055,0.0361328-0.402832,0.1083984c-0.0952148,0.0722656-0.1425781,0.1660156-0.1425781,0.28125
			c0,0.1064453,0.0498047,0.1933594,0.1489258,0.2617188s0.2705078,0.140625,0.5136719,0.2167969
			c0.3491211,0.0957031,0.6137695,0.2226563,0.7939453,0.3808594c0.1806641,0.1582031,0.2705078,0.3652344,0.2705078,0.6220703
			c0,0.2685547-0.1069336,0.4804688-0.3212891,0.6357422s-0.4970703,0.2324219-0.847168,0.2324219
			c-0.2509766,0-0.4770508-0.0390625-0.6791992-0.1181641c-0.2016602-0.0791016-0.3701172-0.1884766-0.5048828-0.3271484v-0.6552734
			h0.4907227l0.0673828,0.4462891C41.5,82.640625,41.5864258,82.6835938,41.6958008,82.7167969
			c0.109375,0.0341797,0.2314453,0.0507813,0.3662109,0.0507813c0.1738281,0,0.3056641-0.0351563,0.3964844-0.1054688
			c0.090332-0.0703125,0.1357422-0.1650391,0.1357422-0.2822266c0-0.1210938-0.043457-0.2177734-0.1293945-0.2910156
			c-0.0864258-0.0732422-0.2373047-0.1416016-0.453125-0.2070313c-0.375-0.1074219-0.6586914-0.2353516-0.8515625-0.3828125
			c-0.1923828-0.1484375-0.2885742-0.3505859-0.2885742-0.6074219c0-0.2539063,0.1083984-0.4619141,0.3256836-0.6240234
			c0.2172852-0.1611328,0.4902344-0.2441406,0.8188477-0.2480469c0.2431641,0,0.4648438,0.0361328,0.6650391,0.109375
			c0.199707,0.0732422,0.3676758,0.1708984,0.5039063,0.2929688V81.0634766z"/>
		<path class="st3" d="M45.8828125,81.0634766h-0.4746094l-0.0839844-0.4306641
			c-0.0546875-0.0341797-0.1347656-0.0644531-0.2402344-0.0898438c-0.1054688-0.0263672-0.21875-0.0390625-0.3378906-0.0390625
			c-0.1738281,0-0.3066406,0.0361328-0.4023438,0.1083984c-0.0947266,0.0722656-0.1416016,0.1660156-0.1416016,0.28125
			c0,0.1064453,0.0498047,0.1933594,0.1484375,0.2617188s0.2705078,0.140625,0.5146484,0.2167969
			c0.3476563,0.0957031,0.6132813,0.2226563,0.7929688,0.3808594s0.2714844,0.3652344,0.2714844,0.6220703
			c0,0.2685547-0.1074219,0.4804688-0.3222656,0.6357422s-0.4960938,0.2324219-0.8476563,0.2324219
			c-0.25,0-0.4765625-0.0390625-0.6787109-0.1181641c-0.2016602-0.0791016-0.3701172-0.1884766-0.5048828-0.3271484v-0.6552734
			h0.4912109l0.0673828,0.4462891c0.0634766,0.0517578,0.1503906,0.0947266,0.2597656,0.1279297
			c0.109375,0.0341797,0.2304688,0.0507813,0.3652344,0.0507813c0.1738281,0,0.3066406-0.0351563,0.3964844-0.1054688
			s0.1367188-0.1650391,0.1367188-0.2822266c0-0.1210938-0.0429688-0.2177734-0.1308594-0.2910156
			c-0.0859375-0.0732422-0.2363281-0.1416016-0.4511719-0.2070313c-0.3759766-0.1074219-0.6591797-0.2353516-0.8525391-0.3828125
			c-0.1923828-0.1484375-0.2885742-0.3505859-0.2885742-0.6074219c0-0.2539063,0.1083984-0.4619141,0.3256836-0.6240234
			c0.2177734-0.1611328,0.4892578-0.2441406,0.8193359-0.2480469c0.2421875,0,0.4648438,0.0361328,0.6640625,0.109375
			s0.3671875,0.1708984,0.5039063,0.2929688V81.0634766z"/>
		<path class="st3" d="M46.1757813,80.4414063V80.0625h1.3105469v0.3789063l-0.3388672,0.0644531v2.2509766l0.3388672,0.0644531
			v0.3769531h-1.3105469v-0.3769531l0.3388672-0.0644531v-2.2509766L46.1757813,80.4414063z"/>
		<path class="st3" d="M47.6943359,82.8212891l0.2265625-0.0322266L48.8828125,80.0625h0.6494141l0.9560547,2.7265625
			l0.2255859,0.0322266v0.3769531h-1.0771484v-0.3769531l0.2197266-0.0390625l-0.1396484-0.4306641h-1.0253906l-0.1386719,0.4306641
			l0.2197266,0.0390625v0.3769531h-1.078125V82.8212891z M48.8417969,81.8886719h0.7255859l-0.3564453-1.1044922h-0.0126953
			L48.8417969,81.8886719z"/>
	</g>
	<ellipse class="st4" cx="28.0925121" cy="74.9199524" rx="1.5316002" ry="1.5185714"/>
	<rect x="25.6263638" y="62.8143501" class="st3" width="4.706789" height="4.706789"/>
	<g>
		<path class="st5" d="M27.840332,63.7958984c0.3969727,0,0.7163086,0.1210938,0.9575195,0.3632813
			c0.2416992,0.2421875,0.3623047,0.5556641,0.3623047,0.9394531v0.4121094c0,0.3847656-0.1206055,0.6972656-0.3623047,0.9384766
			c-0.2412109,0.2412109-0.5605469,0.3613281-0.9575195,0.3613281h-1.2734375v-0.2607422l0.340332-0.0585938v-2.3740234
			l-0.340332-0.0585938v-0.2626953h0.340332H27.840332z M27.3183594,64.1171875v2.3740234h0.5219727
			c0.28125,0,0.5029297-0.0908203,0.6655273-0.2744141c0.1621094-0.1835938,0.2431641-0.4189453,0.2431641-0.7060547V65.09375
			c0-0.2841797-0.0810547-0.5175781-0.2431641-0.7011719c-0.1625977-0.1835938-0.3842773-0.2753906-0.6655273-0.2753906H27.3183594z
			"/>
	</g>
	<path class="st6" d="M31.7879715,78.748909c-0.0916157-0.0001984-0.1396847-0.0003052-0.1396847-0.0003052l-0.0391426-15.5419617
		c0,0-0.0000668-0.0264931-0.0001335-0.0529823c0.0282974,0.000061,0.0565948,0.0001259,0.0565948,0.0001259l21.6945553,0.0478096
		c0,0,0.0124207,0.0000267,0.0344772,0.0000763c0.0053062,2.1060295,0.0384331,15.2590675,0.0384331,15.2590675
		s0.0004196,0.1679382,0.000843,0.3358765c-0.045536-0.0001068-0.0910759-0.000206-0.0910759-0.000206
		S33.6426277,78.7529984,31.7879715,78.748909z"/>
	<line class="st6" x1="46.1350021" y1="63.1856728" x2="46.1350021" y2="78.7795944"/>
	<line class="st6" x1="38.8984604" y1="63.1697235" x2="38.8984604" y2="78.7625961"/>
	<path class="st2" d="M37.5615005,74.9199524c0,1.2273636-1.0018463,2.2224808-2.2397385,2.2224808
		c-1.237896,0-2.2415428-0.9951172-2.2415428-2.2224808c0-1.227356,1.0036469-2.2224731,2.2415428-2.2224731
		C36.5596542,72.6974792,37.5615005,73.6925964,37.5615005,74.9199524z"/>
	<ellipse class="st4" cx="35.320858" cy="74.9199524" rx="1.5316002" ry="1.5185714"/>
	<path class="st2" d="M44.7614975,74.9199524c0,1.2273636-1.0018463,2.2224808-2.2397385,2.2224808
		s-2.2415428-0.9951172-2.2415428-2.2224808c0-1.227356,1.0036507-2.2224731,2.2415428-2.2224731
		S44.7614975,73.6925964,44.7614975,74.9199524z"/>
	<ellipse class="st4" cx="42.5208588" cy="74.9199524" rx="1.5316002" ry="1.5185714"/>
	<path class="st2" d="M51.3489304,73.2910309c1.5395088,2.0229187-0.1709862,4.2713089-2.1831703,3.7840042
		c-0.7743721-0.1875381-1.4096413-0.8210754-1.5987854-1.5950546C47.0753784,73.4683456,49.32444,71.7506332,51.3489304,73.2910309z
		"/>
	<ellipse class="st4" cx="49.7208595" cy="74.9199524" rx="1.5316002" ry="1.5185714"/>
	<path class="st2" d="M58.5489273,73.2910309c1.5395126,2.0229187-0.1709862,4.2713089-2.1831665,3.7840042
		c-0.7743721-0.1875305-1.4096451-0.8210754-1.5987854-1.5950546
		C54.2753792,73.4683456,56.5244408,71.7506332,58.5489273,73.2910309z"/>
	<ellipse class="st4" cx="56.9208603" cy="74.9199524" rx="1.5316002" ry="1.5185714"/>
	<g>
		<path class="st3" d="M37.7880859,69.3896484c-0.152832,0.1582031-0.3779297,0.3076172-0.6757813,0.4482422
			s-0.6845703,0.2109375-1.1611328,0.2109375c-0.6958008,0-1.2631836-0.2421875-1.7026367-0.7265625
			c-0.4394531-0.4833984-0.6591797-1.1123047-0.6591797-1.8847656v-0.0849609c0-0.7763672,0.2172852-1.40625,0.6518555-1.8876953
			c0.4345703-0.4824219,1.0131836-0.7236328,1.7348633-0.7236328c0.3862305,0,0.7246094,0.0605469,1.0166016,0.1796875
			s0.5380859,0.2763672,0.737793,0.4726563v0.9355469h-0.4931641l-0.1713867-0.7119141
			c-0.1166992-0.0947266-0.2578125-0.1728516-0.4233398-0.234375s-0.3637695-0.0917969-0.5952148-0.0917969
			c-0.5620117,0-0.9951172,0.1904297-1.2988281,0.5722656c-0.3037109,0.3808594-0.4555664,0.875-0.4555664,1.4824219V67.4375
			c0,0.6171875,0.1469727,1.1152344,0.4414063,1.4951172c0.2944336,0.3808594,0.699707,0.5703125,1.2167969,0.5703125
			c0.2832031,0,0.515625-0.0292969,0.6967773-0.0878906c0.1811523-0.0595703,0.3261719-0.1240234,0.4360352-0.1953125v-1.1298828
			l-0.8540039-0.0351563v-0.5136719h1.5581055V69.3896484z"/>
	</g>
	<g>
		<path class="st3" d="M41.7060547,65.375l-0.4750977,0.0751953l1.1650391,3.3515625l0.1176758,0.4072266h0.0214844
			l0.1181641-0.4072266l1.1611328-3.3554688L43.3461914,65.375v-0.4492188h1.6401367V65.375l-0.4179688,0.0566406
			l-1.7436523,4.6523438h-0.6040039l-1.7436523-4.6523438L40.0625,65.375v-0.4492188h1.6435547V65.375z"/>
	</g>
	<g>
		<path class="st3" d="M51.5185547,66.4492188h-0.5322266l-0.1328125-0.7373047
			c-0.1074219-0.0898438-0.25-0.1640625-0.4287109-0.2236328c-0.1787109-0.0585938-0.3857422-0.0878906-0.6220703-0.0878906
			c-0.3740234,0-0.6611328,0.078125-0.8603516,0.2353516c-0.2001953,0.1572266-0.3007813,0.3623047-0.3007813,0.6142578
			c0,0.2246094,0.1015625,0.4121094,0.3056641,0.5625c0.2041016,0.1494141,0.5332031,0.28125,0.9882813,0.3945313
			c0.5478516,0.1347656,0.9638672,0.3330078,1.2490234,0.5957031c0.2841797,0.2617188,0.4267578,0.5869141,0.4267578,0.9736328
			c0,0.4160156-0.1708984,0.75-0.5126953,1.0029297s-0.7890625,0.3789063-1.3417969,0.3789063
			c-0.4003906,0-0.7558594-0.0644531-1.0664063-0.1943359c-0.3115234-0.1298828-0.5644531-0.2998047-0.7597656-0.5107422v-0.9599609
			h0.5292969l0.1357422,0.7402344c0.1357422,0.1113281,0.2978516,0.2021484,0.4853516,0.2734375
			c0.1884766,0.0703125,0.4130859,0.1054688,0.6757813,0.1054688c0.3544922,0,0.6357422-0.0742188,0.8417969-0.2226563
			s0.3085938-0.3505859,0.3085938-0.6054688c0-0.2363281-0.0888672-0.4345703-0.2675781-0.59375
			s-0.4951172-0.2939453-0.9472656-0.4023438c-0.5507813-0.1298828-0.9804688-0.3212891-1.2900391-0.5742188
			c-0.3095703-0.2519531-0.4648438-0.5703125-0.4648438-0.953125c0-0.4033203,0.1728516-0.7392578,0.5185547-1.0078125
			c0.3457031-0.2675781,0.7939453-0.4023438,1.3466797-0.4023438c0.3652344,0,0.6962891,0.0625,0.9951172,0.1865234
			c0.2998047,0.1240234,0.5390625,0.2744141,0.7207031,0.4511719V66.4492188z"/>
	</g>
</g>
<g id="Резистор">
	<g>
		<path class="st3" d="M31.1142578,9.4130859l0.4541016-0.0869141V6.2910156l-0.4541016-0.0874023V5.6923828h1.7431641v0.5112305
			l-0.4335938,0.0874023v1.1293945h0.3837891l0.7993164-1.1411133c0.1699219-0.2363281,0.3203125-0.3999023,0.4511719-0.4912109
			c0.1308594-0.0908203,0.3046875-0.1362305,0.5214844-0.1362305c0.0996094,0,0.1923828,0.0136719,0.2783203,0.0405273
			c0.0859375,0.0273438,0.1650391,0.0629883,0.2373047,0.1074219l-0.1435547,0.6362305
			c-0.0625-0.0136719-0.1049805-0.0229492-0.1274414-0.027832c-0.0224609-0.0043945-0.0532227-0.0068359-0.0922852-0.0068359
			c-0.0898438,0-0.1728516,0.0249023-0.2490234,0.0751953s-0.1679688,0.1445313-0.2753906,0.2817383l-0.6679688,0.90625
			l1.1806641,1.6757813l0.4482422,0.0727539v0.5083008h-1.6904297V9.4130859l0.2431641-0.034668l-0.7963867-1.1879883h-0.5009766
			v1.1357422l0.4335938,0.0869141v0.5083008h-1.7431641V9.4130859z"/>
		<path class="st3" d="M35.487793,7.2900391V6.7788086h1.6787109v0.5112305l-0.3691406,0.0869141v0.6738281h1.0424805V7.3769531
			l-0.3657227-0.0869141V6.7788086h0.3657227h0.8554688h0.4570313v0.5112305l-0.4570313,0.0869141v1.9492188l0.4570313,0.0869141
			v0.5083008h-1.6782227V9.4130859l0.3657227-0.0869141V8.7016602h-1.0424805v0.6245117l0.3691406,0.0869141v0.5083008H35.487793
			V9.4130859l0.4570313-0.0869141V7.3769531L35.487793,7.2900391z"/>
		<path class="st3" d="M39.5683594,8.3208008c0-0.4682617,0.1323242-0.8520508,0.3969727-1.1513672
			s0.6303711-0.4487305,1.097168-0.4487305c0.46875,0,0.8349609,0.1489258,1.0996094,0.4472656
			s0.3969727,0.6826172,0.3969727,1.152832v0.0610352c0,0.4726563-0.1323242,0.8574219-0.3969727,1.1547852
			s-0.6289063,0.4458008-1.09375,0.4458008c-0.4707031,0-0.8383789-0.1484375-1.1030273-0.4458008
			s-0.3969727-0.6821289-0.3969727-1.1547852V8.3208008z M40.4238281,8.3818359
			c0,0.2866211,0.0507813,0.5166016,0.1523438,0.6899414s0.265625,0.2597656,0.4921875,0.2597656
			c0.2207031,0,0.3823242-0.0869141,0.4848633-0.2612305s0.1538086-0.4038086,0.1538086-0.6884766V8.3208008
			c0-0.2788086-0.0517578-0.5063477-0.1552734-0.6821289C41.4482422,7.4624023,41.2851563,7.3740234,41.0625,7.3740234
			s-0.3847656,0.0883789-0.4863281,0.2646484c-0.1015625,0.1757813-0.1523438,0.4033203-0.1523438,0.6821289V8.3818359z"/>
		<path class="st3" d="M42.9956055,9.4130859l0.4570313-0.0869141V7.3769531l-0.4570313-0.0869141V6.7788086h3.6704102v0.5112305
			l-0.4541016,0.0869141v1.9492188l0.4541016,0.0869141v0.5083008h-1.6787109V9.4130859l0.3691406-0.0869141V7.4350586h-1.0517578
			v1.8911133l0.3691406,0.0869141v0.5083008h-1.6782227V9.4130859z"/>
		<path class="st3" d="M47.1640625,7.2900391V6.7788086h1.6982422v0.5112305l-0.3886719,0.0869141v0.5986328h0.2929688
			l0.4746094-0.6972656c0.1191406-0.1821289,0.2441406-0.3188477,0.375-0.4111328
			c0.1308594-0.0917969,0.2929688-0.1376953,0.4882813-0.1376953c0.0976563,0,0.1855469,0.0136719,0.2636719,0.0405273
			c0.078125,0.0273438,0.15625,0.0639648,0.2324219,0.1103516l-0.1445313,0.5869141
			c-0.0585938-0.015625-0.0957031-0.0253906-0.109375-0.0292969c-0.015625-0.0039063-0.0410156-0.0058594-0.0800781-0.0058594
			c-0.0585938,0-0.1210938,0.0224609-0.1875,0.0668945c-0.0644531,0.0444336-0.1210938,0.1005859-0.1679688,0.168457
			l-0.4101563,0.5927734l0.7363281,1.0830078l0.4296875,0.0698242v0.5083008h-1.1738281l-0.6914063-1.1762695h-0.328125v0.5810547
			l0.3886719,0.0869141v0.5083008h-1.6982422V9.4130859l0.4570313-0.0869141V7.3769531L47.1640625,7.2900391z"/>
		<path class="st3" d="M52.9960938,9.9213867c-0.0234375-0.0522461-0.0439453-0.105957-0.0615234-0.1611328
			s-0.03125-0.1108398-0.0410156-0.1669922C52.7919922,9.7094727,52.6679688,9.8032227,52.5224609,9.875
			c-0.1455078,0.0712891-0.3115234,0.1074219-0.4990234,0.1074219c-0.3105469,0-0.5576172-0.0839844-0.7402344-0.2514648
			s-0.2734375-0.3955078-0.2734375-0.6835938c0-0.2944336,0.1191406-0.5219727,0.3574219-0.6826172
			s0.5878906-0.2412109,1.0488281-0.2412109h0.4365234V7.8154297c0-0.1508789-0.0439453-0.2680664-0.1318359-0.3510742
			c-0.0878906-0.0834961-0.2177734-0.125-0.3896484-0.125c-0.0976563,0-0.1845703,0.0112305-0.2607422,0.0332031
			c-0.0761719,0.0224609-0.1376953,0.0488281-0.1845703,0.0800781l-0.0556641,0.3369141h-0.6445313l0.0029297-0.6972656
			c0.15625-0.1044922,0.3349609-0.1923828,0.5371094-0.2641602s0.4228516-0.1074219,0.6611328-0.1074219
			c0.3925781,0,0.7109375,0.0952148,0.9560547,0.2861328c0.2451172,0.1904297,0.3681641,0.4624023,0.3681641,0.8144531v1.2983398
			c0,0.0483398,0,0.0942383,0.0009766,0.1367188s0.0048828,0.0830078,0.0107422,0.1220703l0.2607422,0.034668v0.5083008H52.9960938z
			 M52.2548828,9.3549805c0.1289063,0,0.2460938-0.0273438,0.3515625-0.0825195s0.1875-0.1245117,0.2460938-0.2080078V8.5854492
			h-0.4365234c-0.1816406,0-0.3193359,0.0419922-0.4130859,0.1259766c-0.09375,0.0844727-0.140625,0.1855469-0.140625,0.3037109
			c0,0.1064453,0.0341797,0.1899414,0.1035156,0.25S52.1318359,9.3549805,52.2548828,9.3549805z"/>
		<path class="st3" d="M19.6679688,15.3076172c0.1523438,0,0.2744141-0.0439453,0.3662109-0.1318359
			c0.0917969-0.0883789,0.1376953-0.2055664,0.1376953-0.3530273h0.7729492l0.0087891,0.0175781
			c0.0078125,0.3173828-0.1123047,0.5830078-0.3603516,0.7973633c-0.2475586,0.2138672-0.5561523,0.3208008-0.925293,0.3208008
			c-0.4726563,0-0.8369141-0.1479492-1.0927734-0.4443359s-0.3837891-0.6767578-0.3837891-1.1416016v-0.0869141
			c0-0.4628906,0.1313477-0.8432617,0.394043-1.1416016s0.637207-0.4472656,1.1235352-0.4472656
			c0.2558594,0,0.4848633,0.0375977,0.6884766,0.1132813c0.2026367,0.0756836,0.371582,0.1821289,0.5063477,0.3193359
			l0.0117188,0.8393555h-0.6938477l-0.140625-0.4907227c-0.0429688-0.0366211-0.0957031-0.0673828-0.1582031-0.0913086
			c-0.0625-0.0244141-0.1337891-0.0366211-0.2138672-0.0366211c-0.2421875,0-0.4130859,0.0874023-0.5126953,0.2617188
			s-0.1494141,0.3989258-0.1494141,0.6738281v0.0869141c0,0.2807617,0.0458984,0.5068359,0.1376953,0.6782227
			S19.4375,15.3076172,19.6679688,15.3076172z"/>
		<path class="st3" d="M21.340332,14.296875c0-0.4682617,0.1323242-0.8520508,0.3969727-1.1513672
			s0.6303711-0.4487305,1.097168-0.4487305c0.46875,0,0.8349609,0.1489258,1.0996094,0.4472656
			s0.3969727,0.6826172,0.3969727,1.152832v0.0610352c0,0.4726563-0.1323242,0.8574219-0.3969727,1.1547852
			s-0.6289063,0.4458008-1.09375,0.4458008c-0.4707031,0-0.8383789-0.1484375-1.1030273-0.4458008
			s-0.3969727-0.6821289-0.3969727-1.1547852V14.296875z M22.1958008,14.3579102
			c0,0.2866211,0.0507813,0.5166016,0.1523438,0.6899414s0.265625,0.2597656,0.4921875,0.2597656
			c0.2207031,0,0.3823242-0.0869141,0.4848633-0.2612305s0.1538086-0.4038086,0.1538086-0.6884766V14.296875
			c0-0.2788086-0.0517578-0.5063477-0.1552734-0.6821289c-0.1035156-0.1762695-0.2666016-0.2646484-0.4892578-0.2646484
			s-0.3847656,0.0883789-0.4863281,0.2646484c-0.1015625,0.1757813-0.1523438,0.4033203-0.1523438,0.6821289V14.3579102z"/>
		<path class="st3" d="M27.6621094,15.3076172c0.1523438,0,0.2744141-0.0439453,0.3662109-0.1318359
			c0.0917969-0.0883789,0.1376953-0.2055664,0.1376953-0.3530273h0.7729492l0.0087891,0.0175781
			c0.0078125,0.3173828-0.1123047,0.5830078-0.3603516,0.7973633c-0.2475586,0.2138672-0.5561523,0.3208008-0.925293,0.3208008
			c-0.4726563,0-0.8369141-0.1479492-1.0927734-0.4443359s-0.3837891-0.6767578-0.3837891-1.1416016v-0.0869141
			c0-0.4628906,0.1313477-0.8432617,0.394043-1.1416016s0.637207-0.4472656,1.1235352-0.4472656
			c0.2558594,0,0.4848633,0.0375977,0.6884766,0.1132813c0.2026367,0.0756836,0.371582,0.1821289,0.5063477,0.3193359
			L28.909668,13.96875h-0.6938477l-0.140625-0.4907227c-0.0429688-0.0366211-0.0957031-0.0673828-0.1582031-0.0913086
			c-0.0625-0.0244141-0.1337891-0.0366211-0.2138672-0.0366211c-0.2421875,0-0.4130859,0.0874023-0.5126953,0.2617188
			s-0.1494141,0.3989258-0.1494141,0.6738281v0.0869141c0,0.2807617,0.0458984,0.5068359,0.1376953,0.6782227
			S27.4316406,15.3076172,27.6621094,15.3076172z"/>
		<path class="st3" d="M31.1977539,12.7548828c0.421875,0,0.75,0.0737305,0.9853516,0.2207031
			s0.3530273,0.3657227,0.3530273,0.65625c0,0.1474609-0.0493164,0.277832-0.1479492,0.3920898
			s-0.2387695,0.2016602-0.4204102,0.2617188c0.2402344,0.0463867,0.4223633,0.1337891,0.5463867,0.2626953
			S32.7001953,14.8276367,32.7001953,15c0,0.2963867-0.1118164,0.5200195-0.3354492,0.6708984
			s-0.5444336,0.2265625-0.9619141,0.2265625h-1.9863281v-0.5083008l0.4570313-0.0869141v-1.9492188l-0.4570313-0.0869141
			v-0.5112305h0.4570313H31.1977539z M30.7260742,14.0356445h0.5185547c0.1503906-0.0019531,0.2607422-0.027832,0.3310547-0.0786133
			c0.0703125-0.050293,0.1049805-0.1245117,0.1049805-0.2236328c0-0.1137695-0.0400391-0.1977539-0.1196289-0.2509766
			c-0.0805664-0.0532227-0.2011719-0.0800781-0.3632813-0.0800781h-0.4716797V14.0356445z M30.7260742,14.5874023v0.6650391
			h0.6767578c0.1499023,0,0.2612305-0.0273438,0.3334961-0.0825195s0.1083984-0.137207,0.1083984-0.2456055
			s-0.034668-0.1914063-0.1040039-0.2495117s-0.1821289-0.0874023-0.3378906-0.0874023H30.7260742z"/>
		<path class="st3" d="M34.6044922,15.9584961c-0.4570313,0-0.8222656-0.1455078-1.0957031-0.4355469
			c-0.2734375-0.2905273-0.4101563-0.659668-0.4101563-1.1069336v-0.1162109c0-0.4663086,0.1293945-0.8505859,0.3881836-1.152832
			s0.605957-0.4521484,1.0415039-0.4501953c0.4277344,0,0.7592773,0.1279297,0.9956055,0.3833008
			c0.2363281,0.2558594,0.3544922,0.6010742,0.3544922,1.0371094v0.4614258h-1.8920898l-0.0058594,0.0175781
			c0.015625,0.2075195,0.0854492,0.3774414,0.2094727,0.5112305s0.2924805,0.2001953,0.5053711,0.2001953
			c0.1894531,0,0.3466797-0.0185547,0.4716797-0.0566406c0.1245117-0.0375977,0.2612305-0.097168,0.409668-0.1782227
			l0.2314453,0.5224609c-0.1308594,0.1030273-0.300293,0.1889648-0.5078125,0.2587891
			C35.0922852,15.9238281,34.8603516,15.9584961,34.6044922,15.9584961z M34.5283203,13.3500977
			c-0.1582031,0-0.2832031,0.0600586-0.375,0.1801758s-0.1484375,0.277832-0.1699219,0.4736328l0.0087891,0.0141602h1.0488281
			v-0.0751953c0-0.1801758-0.0424805-0.3242188-0.1274414-0.4316406S34.7001953,13.3500977,34.5283203,13.3500977z"/>
		<path class="st3" d="M39.5693359,12.7548828v1.0717773h-0.65625l-0.0351563-0.4243164h-0.5415039v1.8999023l0.4536133,0.0869141
			v0.5083008h-1.7661133v-0.5083008l0.4541016-0.0869141v-1.8999023h-0.5302734l-0.0322266,0.4243164h-0.65625v-1.0717773
			H39.5693359z"/>
		<path class="st3" d="M39.9238281,14.296875c0-0.4682617,0.1323242-0.8520508,0.3969727-1.1513672
			s0.6303711-0.4487305,1.097168-0.4487305c0.46875,0,0.8349609,0.1489258,1.0996094,0.4472656
			s0.3969727,0.6826172,0.3969727,1.152832v0.0610352c0,0.4726563-0.1323242,0.8574219-0.3969727,1.1547852
			s-0.6289063,0.4458008-1.09375,0.4458008c-0.4707031,0-0.8383789-0.1484375-1.1030273-0.4458008
			s-0.3969727-0.6821289-0.3969727-1.1547852V14.296875z M40.7792969,14.3579102
			c0,0.2866211,0.0507813,0.5166016,0.1523438,0.6899414s0.265625,0.2597656,0.4921875,0.2597656
			c0.2207031,0,0.3823242-0.0869141,0.4848633-0.2612305S42.0625,14.6425781,42.0625,14.3579102V14.296875
			c0-0.2788086-0.0517578-0.5063477-0.1552734-0.6821289c-0.1035156-0.1762695-0.2666016-0.2646484-0.4892578-0.2646484
			s-0.3847656,0.0883789-0.4863281,0.2646484c-0.1015625,0.1757813-0.1523438,0.4033203-0.1523438,0.6821289V14.3579102z"/>
		<path class="st3" d="M43.5209961,15.2412109c0.1953125-0.2016602,0.3271484-0.3994141,0.3955078-0.5942383
			c0.0683594-0.1943359,0.105957-0.4716797,0.1137695-0.8320313l0.0058594-0.4619141l-0.4477539-0.0869141v-0.5112305h2.7944336
			h0.4570313v0.5112305l-0.4570313,0.0869141v1.894043h0.4599609l-0.0585938,1.5913086h-0.796875v-0.940918h-1.8691406v0.940918
			h-0.7993164l-0.0732422-1.597168H43.5209961z M44.8857422,13.8149414
			c-0.015625,0.3120117-0.0566406,0.5854492-0.1230469,0.8203125c-0.0664063,0.2353516-0.1542969,0.4384766-0.2636719,0.6088867
			h1.0341797v-1.8125h-0.6445313L44.8857422,13.8149414z"/>
		<path class="st3" d="M49.0224609,12.7548828v0.5112305l-0.4101563,0.0869141v1.3100586l0.0175781,0.0029297l1.03125-1.9111328
			h0.8554688h0.453125v0.5112305l-0.453125,0.0869141v1.9492188l0.453125,0.0869141v0.5083008h-1.71875v-0.5083008
			l0.4101563-0.0869141v-1.315918l-0.0175781-0.0029297l-1.03125,1.9140625h-1.3125v-0.5083008l0.4570313-0.0869141v-1.9492188
			l-0.4570313-0.0869141v-0.5112305h1.3125H49.0224609z"/>
		<path class="st3" d="M51.3857422,14.296875c0-0.4682617,0.1318359-0.8520508,0.3964844-1.1513672
			s0.6308594-0.4487305,1.0976563-0.4487305c0.46875,0,0.8349609,0.1489258,1.0996094,0.4472656
			s0.3974609,0.6826172,0.3974609,1.152832v0.0610352c0,0.4726563-0.1328125,0.8574219-0.3974609,1.1547852
			s-0.6289063,0.4458008-1.09375,0.4458008c-0.4707031,0-0.8388672-0.1484375-1.1035156-0.4458008
			s-0.3964844-0.6821289-0.3964844-1.1547852V14.296875z M52.2412109,14.3579102
			c0,0.2866211,0.0507813,0.5166016,0.1523438,0.6899414s0.265625,0.2597656,0.4921875,0.2597656
			c0.2207031,0,0.3818359-0.0869141,0.484375-0.2612305s0.1542969-0.4038086,0.1542969-0.6884766V14.296875
			c0-0.2788086-0.0517578-0.5063477-0.1552734-0.6821289c-0.1035156-0.1762695-0.2666016-0.2646484-0.4892578-0.2646484
			s-0.3847656,0.0883789-0.4863281,0.2646484c-0.1015625,0.1757813-0.1523438,0.4033203-0.1523438,0.6821289V14.3579102z"/>
		<path class="st3" d="M54.9833984,15.2412109c0.1953125-0.2016602,0.3271484-0.3994141,0.3955078-0.5942383
			c0.0683594-0.1943359,0.1064453-0.4716797,0.1142578-0.8320313l0.0058594-0.4619141l-0.4482422-0.0869141v-0.5112305h2.7949219
			h0.4570313v0.5112305l-0.4570313,0.0869141v1.894043h0.4599609l-0.0585938,1.5913086h-0.796875v-0.940918h-1.8691406v0.940918
			H54.78125l-0.0732422-1.597168H54.9833984z M56.3486328,13.8149414c-0.015625,0.3120117-0.0566406,0.5854492-0.1230469,0.8203125
			c-0.0664063,0.2353516-0.1542969,0.4384766-0.2636719,0.6088867h1.0341797v-1.8125h-0.6445313L56.3486328,13.8149414z"/>
		<path class="st3" d="M58.6982422,14.296875c0-0.4682617,0.1318359-0.8520508,0.3964844-1.1513672
			s0.6308594-0.4487305,1.0976563-0.4487305c0.46875,0,0.8349609,0.1489258,1.0996094,0.4472656
			s0.3974609,0.6826172,0.3974609,1.152832v0.0610352c0,0.4726563-0.1328125,0.8574219-0.3974609,1.1547852
			s-0.6289063,0.4458008-1.09375,0.4458008c-0.4707031,0-0.8388672-0.1484375-1.1035156-0.4458008
			s-0.3964844-0.6821289-0.3964844-1.1547852V14.296875z M59.5537109,14.3579102
			c0,0.2866211,0.0507813,0.5166016,0.1523438,0.6899414s0.265625,0.2597656,0.4921875,0.2597656
			c0.2207031,0,0.3818359-0.0869141,0.484375-0.2612305s0.1542969-0.4038086,0.1542969-0.6884766V14.296875
			c0-0.2788086-0.0517578-0.5063477-0.1552734-0.6821289c-0.1035156-0.1762695-0.2666016-0.2646484-0.4892578-0.2646484
			s-0.3847656,0.0883789-0.4863281,0.2646484c-0.1015625,0.1757813-0.1523438,0.4033203-0.1523438,0.6821289V14.3579102z"/>
		<path class="st3" d="M64.4667969,14.9101563h0.0175781l0.8144531-2.1552734h1.0722656h0.4541016v0.5112305l-0.4541016,0.0869141
			v1.9492188l0.4541016,0.0869141v0.5083008h-1.6318359v-0.5083008l0.3222656-0.0869141v-1.2753906l-0.0175781-0.0029297
			l-0.7353516,1.8735352h-0.5742188l-0.7177734-1.8383789l-0.0175781,0.0029297v1.2402344l0.3251953,0.0869141v0.5083008h-1.6347656
			v-0.5083008l0.4570313-0.0869141v-1.9492188l-0.4570313-0.0869141v-0.5112305h0.4570313h1.0576172L64.4667969,14.9101563z"/>
	</g>
	<g>
		<path class="st3" d="M54.9511719,70.0839844v-0.4462891l0.5820313-0.0996094v-4.0634766L54.9511719,65.375v-0.4492188h0.5820313
			h0.7041016h0.5820313V65.375l-0.5820313,0.0996094v4.0634766h1.8076172l0.0537109-0.5917969h0.6005859v1.1376953H54.9511719z"/>
	</g>
	<polygon class="st7" points="57.0212593,22.8683605 27.7228584,22.8683605 25.5113106,25.0799694 25.5112495,54.5821648 
		27.8083687,56.8792839 57.0037422,56.8791618 59.5221748,54.3607292 59.5221748,25.369276 	"/>
	<circle class="st8" cx="42.5167122" cy="39.8738213" r="12.1820421"/>
	<path class="st9" d="M64.0726852,29.6266136H59.527874V26.8125h4.5448112c0.3131027,0,0.566925,0.2538223,0.566925,0.5669289
		v1.680254C64.6396103,29.3727894,64.385788,29.6266136,64.0726852,29.6266136z"/>
	<path class="st9" d="M43.348732,20.4245567v2.4438038h-1.6574669v-2.4438038c0-0.3131065,0.2538223-0.5669289,0.5669289-0.5669289
		h0.5236092C43.0949097,19.8576279,43.348732,20.1114502,43.348732,20.4245567z"/>
	<path class="st9" d="M64.0726852,52.8125H59.527874v-2.7984505h4.5448112c0.3131027,0,0.566925,0.2538223,0.566925,0.5669289
		v1.6645927C64.6396103,52.5586777,64.385788,52.8125,64.0726852,52.8125z"/>
	<path class="st9" d="M20.9673157,26.8125h4.5448112v2.8141136h-4.5448112c-0.3131065,0-0.5669289-0.2538242-0.5669289-0.5669308
		v-1.680254C20.4003868,27.0663223,20.6542091,26.8125,20.9673157,26.8125z"/>
	<path class="st9" d="M20.9673157,50.0140495h4.5448112V52.8125h-4.5448112c-0.3131065,0-0.5669289-0.2538223-0.5669289-0.5669289
		v-1.6645927C20.4003868,50.2678719,20.6542091,50.0140495,20.9673157,50.0140495z"/>
	
		<radialGradient id="SVGID_1_" cx="41.039669" cy="38.1018486" r="8.6685381" gradientTransform="matrix(1.1330312 0 0 1.1610864 -3.9825108 -4.3657179)" gradientUnits="userSpaceOnUse">
		<stop  offset="0" style="stop-color:#F2F2F2;stop-opacity:0"/>
		<stop  offset="0.8563189" style="stop-color:#F2F2F2;stop-opacity:0.5137914"/>
		<stop  offset="1" style="stop-color:#F2F2F2;stop-opacity:0.6"/>
	</radialGradient>
	<ellipse class="st10" cx="42.5167122" cy="39.8738213" rx="9.8217239" ry="10.0649214"/>
	<g>
		<g id="XMLID_7_">
			<g>
				<rect x="67.5730209" y="58.1075935" class="st9" width="3.4358907" height="4.255477"/>
			</g>
			<g>
			</g>
		</g>
		<g id="XMLID_6_">
			<g>
				<rect x="74.7014771" y="58.0668793" class="st9" width="3.4376609" height="4.255477"/>
			</g>
			<g>
			</g>
		</g>
		<g id="XMLID_5_">
			<g>
				<rect x="70.3055344" y="58.4173737" class="st11" width="5.1611581" height="3.6058266"/>
			</g>
			<g>
			</g>
		</g>
		<g>
			<path class="st12" d="M71.9472656,60.7636719H71.25v-0.1308594h0.2685547v-0.8632813H71.25v-0.1171875
				c0.0371094,0,0.0761719-0.0029297,0.1171875-0.0087891s0.0722656-0.0146484,0.09375-0.0263672
				c0.0273438-0.0146484,0.0478516-0.0332031,0.0625-0.0546875c0.015625-0.0224609,0.0253906-0.0527344,0.0273438-0.0898438
				h0.1337891v1.1601563h0.2626953V60.7636719z"/>
			<path class="st12" d="M72.9667969,60.1201172c0,0.2304688-0.0351563,0.4003906-0.1074219,0.5087891
				c-0.0722656,0.1074219-0.1855469,0.1621094-0.3378906,0.1621094c-0.1542969,0-0.2666016-0.0546875-0.3378906-0.1640625
				c-0.0712891-0.1103516-0.1064453-0.2783203-0.1064453-0.5048828c0-0.2294922,0.0361328-0.3984375,0.1083984-0.5068359
				c0.0712891-0.109375,0.1835938-0.1640625,0.3359375-0.1640625c0.1542969,0,0.2675781,0.0556641,0.3388672,0.1660156
				C72.9316406,59.7285156,72.9667969,59.8955078,72.9667969,60.1201172z M72.7402344,60.5126953
				c0.0195313-0.046875,0.0332031-0.1015625,0.0410156-0.1650391c0.0068359-0.0634766,0.0097656-0.1386719,0.0097656-0.2275391
				c0-0.0878906-0.0029297-0.1640625-0.0097656-0.2285156c-0.0078125-0.0644531-0.0214844-0.1191406-0.0429688-0.1640625
				c-0.0195313-0.0439453-0.046875-0.078125-0.0820313-0.1005859S72.5761719,59.59375,72.5214844,59.59375
				c-0.0537109,0-0.0986328,0.0107422-0.1337891,0.0332031c-0.0361328,0.0224609-0.0634766,0.0566406-0.0849609,0.1025391
				c-0.0195313,0.0419922-0.0322266,0.0976563-0.0390625,0.1669922c-0.0078125,0.0683594-0.0117188,0.1435547-0.0117188,0.2255859
				c0,0.0898438,0.0039063,0.1650391,0.0097656,0.2255859s0.0195313,0.1142578,0.0410156,0.1621094
				c0.0185547,0.0449219,0.0458984,0.0791016,0.0800781,0.1025391c0.0351563,0.0244141,0.0820313,0.0361328,0.1386719,0.0361328
				c0.0546875,0,0.0996094-0.0117188,0.1347656-0.0341797C72.6923828,60.5917969,72.7207031,60.5576172,72.7402344,60.5126953z"/>
			<path class="st12" d="M73.9160156,60.1201172c0,0.2304688-0.0361328,0.4003906-0.1083984,0.5087891
				c-0.0722656,0.1074219-0.1845703,0.1621094-0.3369141,0.1621094c-0.1542969,0-0.2675781-0.0546875-0.3378906-0.1640625
				c-0.0722656-0.1103516-0.1074219-0.2783203-0.1074219-0.5048828c0-0.2294922,0.0361328-0.3984375,0.1083984-0.5068359
				c0.0712891-0.109375,0.1845703-0.1640625,0.3369141-0.1640625c0.1542969,0,0.2675781,0.0556641,0.3378906,0.1660156
				C73.8808594,59.7285156,73.9160156,59.8955078,73.9160156,60.1201172z M73.6884766,60.5126953
				c0.0205078-0.046875,0.0341797-0.1015625,0.0410156-0.1650391s0.0107422-0.1386719,0.0107422-0.2275391
				c0-0.0878906-0.0039063-0.1640625-0.0107422-0.2285156s-0.0205078-0.1191406-0.0419922-0.1640625
				c-0.0195313-0.0439453-0.046875-0.078125-0.0820313-0.1005859S73.5253906,59.59375,73.4707031,59.59375
				s-0.0996094,0.0107422-0.1347656,0.0332031s-0.0625,0.0566406-0.0839844,0.1025391
				c-0.0195313,0.0419922-0.0332031,0.0976563-0.0400391,0.1669922c-0.0068359,0.0683594-0.0107422,0.1435547-0.0107422,0.2255859
				c0,0.0898438,0.0029297,0.1650391,0.0097656,0.2255859c0.0058594,0.0605469,0.0195313,0.1142578,0.0410156,0.1621094
				c0.0175781,0.0449219,0.0449219,0.0791016,0.0800781,0.1025391c0.0351563,0.0244141,0.0810547,0.0361328,0.1386719,0.0361328
				c0.0546875,0,0.0996094-0.0117188,0.1347656-0.0341797S73.6689453,60.5576172,73.6884766,60.5126953z"/>
			<path class="st12" d="M74.8652344,60.7636719h-0.8710938v-0.1806641
				c0.0605469-0.0517578,0.1210938-0.1035156,0.1826172-0.1552734c0.0605469-0.0517578,0.1171875-0.1035156,0.1689453-0.1542969
				c0.1113281-0.1074219,0.1875-0.1923828,0.2285156-0.2558594s0.0605469-0.1308594,0.0605469-0.2041016
				c0-0.0673828-0.0214844-0.1191406-0.0664063-0.1572266c-0.0429688-0.0380859-0.1054688-0.0566406-0.1835938-0.0566406
				c-0.0527344,0-0.109375,0.0087891-0.1699219,0.0273438c-0.0615234,0.0185547-0.1210938,0.046875-0.1796875,0.0849609h-0.0087891
				v-0.1816406c0.0410156-0.0195313,0.0957031-0.0380859,0.1640625-0.0546875
				c0.0683594-0.0175781,0.1337891-0.0253906,0.1982422-0.0253906c0.1318359,0,0.2353516,0.0322266,0.3105469,0.0957031
				c0.0742188,0.0634766,0.1123047,0.1494141,0.1123047,0.2587891c0,0.0488281-0.0068359,0.0947266-0.0185547,0.1367188
				c-0.0126953,0.0419922-0.03125,0.0830078-0.0546875,0.1210938c-0.0234375,0.0351563-0.0488281,0.0703125-0.0800781,0.1054688
				c-0.0292969,0.0341797-0.0664063,0.0722656-0.109375,0.1142578c-0.0625,0.0605469-0.125,0.1191406-0.1914063,0.1757813
				c-0.0654297,0.0566406-0.1269531,0.109375-0.1835938,0.1582031h0.6914063V60.7636719z"/>
		</g>
	</g>
	<g>
		<g id="XMLID_10_">
			<g>
				<rect x="67.6040039" y="51.3454399" class="st9" width="3.4358907" height="4.255477"/>
			</g>
			<g>
			</g>
		</g>
		<g id="XMLID_9_">
			<g>
				<rect x="74.7324524" y="51.3047256" class="st9" width="3.4376609" height="4.255477"/>
			</g>
			<g>
			</g>
		</g>
		<g id="XMLID_8_">
			<g>
				<rect x="70.3365173" y="51.6552162" class="st11" width="5.1611581" height="3.6058266"/>
			</g>
			<g>
			</g>
		</g>
		<g>
			<path class="st12" d="M71.9785156,54.0019531H71.28125v-0.1308594h0.2685547v-0.8632813H71.28125V52.890625
				c0.0371094,0,0.0761719-0.0029297,0.1171875-0.0087891s0.0722656-0.0146484,0.09375-0.0263672
				c0.0273438-0.0146484,0.0478516-0.0332031,0.0625-0.0546875c0.015625-0.0224609,0.0253906-0.0527344,0.0273438-0.0898438
				h0.1337891v1.1601563h0.2626953V54.0019531z"/>
			<path class="st12" d="M72.9980469,53.3583984c0,0.2304688-0.0351563,0.4003906-0.1074219,0.5087891
				c-0.0722656,0.1074219-0.1855469,0.1621094-0.3378906,0.1621094c-0.1542969,0-0.2666016-0.0546875-0.3378906-0.1640625
				c-0.0712891-0.1103516-0.1064453-0.2783203-0.1064453-0.5048828c0-0.2294922,0.0361328-0.3984375,0.1083984-0.5068359
				c0.0712891-0.109375,0.1835938-0.1640625,0.3359375-0.1640625c0.1542969,0,0.2675781,0.0556641,0.3388672,0.1660156
				C72.9628906,52.9667969,72.9980469,53.1337891,72.9980469,53.3583984z M72.7714844,53.7509766
				c0.0195313-0.046875,0.0332031-0.1015625,0.0410156-0.1650391c0.0068359-0.0634766,0.0097656-0.1386719,0.0097656-0.2275391
				c0-0.0878906-0.0029297-0.1640625-0.0097656-0.2285156c-0.0078125-0.0644531-0.0214844-0.1191406-0.0429688-0.1640625
				C72.75,52.921875,72.7226563,52.8876953,72.6875,52.8652344s-0.0800781-0.0332031-0.1347656-0.0332031
				c-0.0537109,0-0.0986328,0.0107422-0.1337891,0.0332031c-0.0361328,0.0224609-0.0634766,0.0566406-0.0849609,0.1025391
				c-0.0195313,0.0419922-0.0322266,0.0976563-0.0390625,0.1669922c-0.0078125,0.0683594-0.0117188,0.1435547-0.0117188,0.2255859
				c0,0.0898438,0.0039063,0.1650391,0.0097656,0.2255859s0.0195313,0.1142578,0.0410156,0.1621094
				c0.0185547,0.0449219,0.0458984,0.0791016,0.0800781,0.1025391c0.0351563,0.0244141,0.0820313,0.0361328,0.1386719,0.0361328
				c0.0546875,0,0.0996094-0.0117188,0.1347656-0.0341797C72.7236328,53.8300781,72.7519531,53.7958984,72.7714844,53.7509766z"/>
			<path class="st12" d="M73.9472656,53.3583984c0,0.2304688-0.0361328,0.4003906-0.1083984,0.5087891
				c-0.0722656,0.1074219-0.1845703,0.1621094-0.3369141,0.1621094c-0.1542969,0-0.2675781-0.0546875-0.3378906-0.1640625
				c-0.0722656-0.1103516-0.1074219-0.2783203-0.1074219-0.5048828c0-0.2294922,0.0361328-0.3984375,0.1083984-0.5068359
				c0.0712891-0.109375,0.1845703-0.1640625,0.3369141-0.1640625c0.1542969,0,0.2675781,0.0556641,0.3378906,0.1660156
				C73.9121094,52.9667969,73.9472656,53.1337891,73.9472656,53.3583984z M73.7197266,53.7509766
				c0.0205078-0.046875,0.0341797-0.1015625,0.0410156-0.1650391s0.0107422-0.1386719,0.0107422-0.2275391
				c0-0.0878906-0.0039063-0.1640625-0.0107422-0.2285156s-0.0205078-0.1191406-0.0419922-0.1640625
				c-0.0195313-0.0439453-0.046875-0.078125-0.0820313-0.1005859s-0.0800781-0.0332031-0.1347656-0.0332031
				s-0.0996094,0.0107422-0.1347656,0.0332031s-0.0625,0.0566406-0.0839844,0.1025391
				c-0.0195313,0.0419922-0.0332031,0.0976563-0.0400391,0.1669922c-0.0068359,0.0683594-0.0107422,0.1435547-0.0107422,0.2255859
				c0,0.0898438,0.0029297,0.1650391,0.0097656,0.2255859c0.0058594,0.0605469,0.0195313,0.1142578,0.0410156,0.1621094
				c0.0175781,0.0449219,0.0449219,0.0791016,0.0800781,0.1025391c0.0351563,0.0244141,0.0810547,0.0361328,0.1386719,0.0361328
				c0.0546875,0,0.0996094-0.0117188,0.1347656-0.0341797S73.7001953,53.7958984,73.7197266,53.7509766z"/>
			<path class="st12" d="M74.8964844,54.0019531h-0.8710938v-0.1806641
				c0.0605469-0.0517578,0.1210938-0.1035156,0.1826172-0.1552734c0.0605469-0.0517578,0.1171875-0.1035156,0.1689453-0.1542969
				c0.1113281-0.1074219,0.1875-0.1923828,0.2285156-0.2558594s0.0605469-0.1308594,0.0605469-0.2041016
				c0-0.0673828-0.0214844-0.1191406-0.0664063-0.1572266c-0.0429688-0.0380859-0.1054688-0.0566406-0.1835938-0.0566406
				c-0.0527344,0-0.109375,0.0087891-0.1699219,0.0273438c-0.0615234,0.0185547-0.1210938,0.046875-0.1796875,0.0849609h-0.0087891
				v-0.1816406c0.0410156-0.0195313,0.0957031-0.0380859,0.1640625-0.0546875
				c0.0683594-0.0175781,0.1337891-0.0253906,0.1982422-0.0253906c0.1318359,0,0.2353516,0.0322266,0.3105469,0.0957031
				c0.0742188,0.0634766,0.1123047,0.1494141,0.1123047,0.2587891c0,0.0488281-0.0068359,0.0947266-0.0185547,0.1367188
				c-0.0126953,0.0419922-0.03125,0.0830078-0.0546875,0.1210938c-0.0234375,0.0351563-0.0488281,0.0703125-0.0800781,0.1054688
				c-0.0292969,0.0341797-0.0664063,0.0722656-0.109375,0.1142578c-0.0625,0.0605469-0.125,0.1191406-0.1914063,0.1757813
				c-0.0654297,0.0566406-0.1269531,0.109375-0.1835938,0.1582031h0.6914063V54.0019531z"/>
		</g>
	</g>
	<g>
		<g id="XMLID_13_">
			<g>
				<rect x="67.6040039" y="29.6672974" class="st9" width="3.4358907" height="4.255477"/>
			</g>
			<g>
			</g>
		</g>
		<g id="XMLID_12_">
			<g>
				<rect x="74.7324524" y="29.6265831" class="st9" width="3.4376609" height="4.255477"/>
			</g>
			<g>
			</g>
		</g>
		<g id="XMLID_11_">
			<g>
				<rect x="70.3365173" y="29.9770756" class="st11" width="5.1611581" height="3.6058266"/>
			</g>
			<g>
			</g>
		</g>
		<g>
			<path class="st12" d="M71.9785156,32.3237305H71.28125v-0.1313477h0.2685547v-0.862793H71.28125v-0.1171875
				c0.0371094,0,0.0761719-0.003418,0.1171875-0.0092773s0.0722656-0.0146484,0.09375-0.0263672
				c0.0273438-0.0141602,0.0478516-0.0327148,0.0625-0.0546875c0.015625-0.0224609,0.0253906-0.0522461,0.0273438-0.0898438
				h0.1337891v1.1601563h0.2626953V32.3237305z"/>
			<path class="st12" d="M72.9980469,31.6796875c0,0.230957-0.0351563,0.4008789-0.1074219,0.5087891
				s-0.1855469,0.1621094-0.3378906,0.1621094c-0.1542969,0-0.2666016-0.0546875-0.3378906-0.1640625
				c-0.0712891-0.1098633-0.1064453-0.277832-0.1064453-0.5048828c0-0.2290039,0.0361328-0.3979492,0.1083984-0.5068359
				c0.0712891-0.109375,0.1835938-0.1640625,0.3359375-0.1640625c0.1542969,0,0.2675781,0.0556641,0.3388672,0.1665039
				S72.9980469,31.4555664,72.9980469,31.6796875z M72.7714844,32.0722656
				c0.0195313-0.046875,0.0332031-0.1015625,0.0410156-0.1645508c0.0068359-0.0634766,0.0097656-0.1391602,0.0097656-0.2280273
				c0-0.0874023-0.0029297-0.1635742-0.0097656-0.2280273c-0.0078125-0.0644531-0.0214844-0.1191406-0.0429688-0.1640625
				C72.75,31.2431641,72.7226563,31.2094727,72.6875,31.1870117s-0.0800781-0.0336914-0.1347656-0.0336914
				c-0.0537109,0-0.0986328,0.0112305-0.1337891,0.0336914c-0.0361328,0.0224609-0.0634766,0.0566406-0.0849609,0.1020508
				c-0.0195313,0.0424805-0.0322266,0.0981445-0.0390625,0.1669922c-0.0078125,0.0683594-0.0117188,0.1435547-0.0117188,0.2255859
				c0,0.0898438,0.0039063,0.1650391,0.0097656,0.2255859s0.0195313,0.1147461,0.0410156,0.1625977
				c0.0185547,0.0449219,0.0458984,0.0791016,0.0800781,0.1025391c0.0351563,0.0239258,0.0820313,0.0356445,0.1386719,0.0356445
				c0.0546875,0,0.0996094-0.0112305,0.1347656-0.0336914C72.7236328,32.1518555,72.7519531,32.1176758,72.7714844,32.0722656z"/>
			<path class="st12" d="M73.9472656,31.6796875c0,0.230957-0.0361328,0.4008789-0.1083984,0.5087891
				s-0.1845703,0.1621094-0.3369141,0.1621094c-0.1542969,0-0.2675781-0.0546875-0.3378906-0.1640625
				c-0.0722656-0.1098633-0.1074219-0.277832-0.1074219-0.5048828c0-0.2290039,0.0361328-0.3979492,0.1083984-0.5068359
				c0.0712891-0.109375,0.1845703-0.1640625,0.3369141-0.1640625c0.1542969,0,0.2675781,0.0556641,0.3378906,0.1665039
				C73.9121094,31.2880859,73.9472656,31.4555664,73.9472656,31.6796875z M73.7197266,32.0722656
				c0.0205078-0.046875,0.0341797-0.1015625,0.0410156-0.1645508c0.0068359-0.0634766,0.0107422-0.1391602,0.0107422-0.2280273
				c0-0.0874023-0.0039063-0.1635742-0.0107422-0.2280273s-0.0205078-0.1191406-0.0419922-0.1640625
				c-0.0195313-0.0444336-0.046875-0.078125-0.0820313-0.1005859s-0.0800781-0.0336914-0.1347656-0.0336914
				s-0.0996094,0.0112305-0.1347656,0.0336914s-0.0625,0.0566406-0.0839844,0.1020508
				C73.2636719,31.331543,73.25,31.387207,73.2431641,31.4560547c-0.0068359,0.0683594-0.0107422,0.1435547-0.0107422,0.2255859
				c0,0.0898438,0.0029297,0.1650391,0.0097656,0.2255859c0.0058594,0.0605469,0.0195313,0.1147461,0.0410156,0.1625977
				c0.0175781,0.0449219,0.0449219,0.0791016,0.0800781,0.1025391c0.0351563,0.0239258,0.0810547,0.0356445,0.1386719,0.0356445
				c0.0546875,0,0.0996094-0.0112305,0.1347656-0.0336914S73.7001953,32.1176758,73.7197266,32.0722656z"/>
			<path class="st12" d="M74.8964844,32.3237305h-0.8710938v-0.1806641
				c0.0605469-0.0517578,0.1210938-0.1035156,0.1826172-0.1557617c0.0605469-0.0517578,0.1171875-0.1030273,0.1689453-0.1542969
				c0.1113281-0.1074219,0.1875-0.1923828,0.2285156-0.2558594c0.0410156-0.0629883,0.0605469-0.1308594,0.0605469-0.2041016
				c0-0.0668945-0.0214844-0.1191406-0.0664063-0.1567383c-0.0429688-0.0380859-0.1054688-0.0566406-0.1835938-0.0566406
				c-0.0527344,0-0.109375,0.0087891-0.1699219,0.0273438c-0.0615234,0.0185547-0.1210938,0.046875-0.1796875,0.0849609h-0.0087891
				V31.090332c0.0410156-0.0200195,0.0957031-0.0385742,0.1640625-0.0551758
				c0.0683594-0.0170898,0.1337891-0.0253906,0.1982422-0.0253906c0.1318359,0,0.2353516,0.0322266,0.3105469,0.0957031
				c0.0742188,0.0634766,0.1123047,0.1499023,0.1123047,0.2587891c0,0.0488281-0.0068359,0.0947266-0.0185547,0.137207
				c-0.0126953,0.0419922-0.03125,0.0825195-0.0546875,0.1206055c-0.0234375,0.0356445-0.0488281,0.0708008-0.0800781,0.1054688
				c-0.0292969,0.0341797-0.0664063,0.0727539-0.109375,0.1147461c-0.0625,0.0605469-0.125,0.1191406-0.1914063,0.1757813
				c-0.0654297,0.0566406-0.1269531,0.109375-0.1835938,0.1577148h0.6914063V32.3237305z"/>
		</g>
	</g>
	<g>
		<g id="XMLID_16_">
			<g>
				<rect x="67.6040039" y="22.7178497" class="st9" width="3.4358907" height="4.255477"/>
			</g>
			<g>
			</g>
		</g>
		<g id="XMLID_15_">
			<g>
				<rect x="74.7324524" y="22.6771355" class="st9" width="3.4376609" height="4.255477"/>
			</g>
			<g>
			</g>
		</g>
		<g id="XMLID_14_">
			<g>
				<rect x="70.3365173" y="23.0276279" class="st11" width="5.1611581" height="3.6058266"/>
			</g>
			<g>
			</g>
		</g>
		<g>
			<path class="st12" d="M72.0820313,25.012207H71.890625v0.3623047h-0.1660156V25.012207h-0.6171875v-0.1987305
				l0.6240234-0.7260742h0.1591797v0.7866211h0.1914063V25.012207z M71.7246094,24.8740234V24.293457l-0.4990234,0.5805664
				H71.7246094z"/>
			<path class="st12" d="M73.0039063,24.2802734l-0.5830078,1.0942383h-0.1845703l0.6191406-1.1357422h-0.7324219v-0.1513672
				h0.8808594V24.2802734z"/>
			<path class="st12" d="M73.9472656,24.7304688c0,0.230957-0.0361328,0.4008789-0.1083984,0.5087891
				s-0.1845703,0.1621094-0.3369141,0.1621094c-0.1542969,0-0.2675781-0.0546875-0.3378906-0.1640625
				c-0.0722656-0.1098633-0.1074219-0.277832-0.1074219-0.5048828c0-0.2290039,0.0361328-0.3979492,0.1083984-0.5068359
				c0.0712891-0.109375,0.1845703-0.1640625,0.3369141-0.1640625c0.1542969,0,0.2675781,0.0556641,0.3378906,0.1665039
				C73.9121094,24.3388672,73.9472656,24.5063477,73.9472656,24.7304688z M73.7197266,25.1230469
				c0.0205078-0.046875,0.0341797-0.1015625,0.0410156-0.1645508c0.0068359-0.0634766,0.0107422-0.1391602,0.0107422-0.2280273
				c0-0.0874023-0.0039063-0.1635742-0.0107422-0.2280273s-0.0205078-0.1191406-0.0419922-0.1640625
				c-0.0195313-0.0444336-0.046875-0.078125-0.0820313-0.1005859s-0.0800781-0.0336914-0.1347656-0.0336914
				s-0.0996094,0.0112305-0.1347656,0.0336914s-0.0625,0.0566406-0.0839844,0.1020508
				c-0.0195313,0.0424805-0.0332031,0.0981445-0.0400391,0.1669922c-0.0068359,0.0683594-0.0107422,0.1435547-0.0107422,0.2255859
				c0,0.0898438,0.0029297,0.1650391,0.0097656,0.2255859c0.0058594,0.0605469,0.0195313,0.1147461,0.0410156,0.1625977
				c0.0175781,0.0449219,0.0449219,0.0791016,0.0800781,0.1025391c0.0351563,0.0239258,0.0810547,0.0356445,0.1386719,0.0356445
				c0.0546875,0,0.0996094-0.0112305,0.1347656-0.0336914S73.7001953,25.168457,73.7197266,25.1230469z"/>
			<path class="st12" d="M74.8955078,24.7304688c0,0.230957-0.0361328,0.4008789-0.1083984,0.5087891
				s-0.1845703,0.1621094-0.3369141,0.1621094c-0.1542969,0-0.2666016-0.0546875-0.3388672-0.1640625
				c-0.0703125-0.1098633-0.1054688-0.277832-0.1054688-0.5048828c0-0.2290039,0.0351563-0.3979492,0.1074219-0.5068359
				c0.0722656-0.109375,0.1835938-0.1640625,0.3369141-0.1640625c0.1542969,0,0.2666016,0.0556641,0.3388672,0.1665039
				C74.859375,24.3388672,74.8955078,24.5063477,74.8955078,24.7304688z M74.6679688,25.1230469
				c0.0205078-0.046875,0.0341797-0.1015625,0.0410156-0.1645508c0.0078125-0.0634766,0.0107422-0.1391602,0.0107422-0.2280273
				c0-0.0874023-0.0029297-0.1635742-0.0107422-0.2280273c-0.0068359-0.0644531-0.0214844-0.1191406-0.0419922-0.1640625
				c-0.0205078-0.0444336-0.0478516-0.078125-0.0830078-0.1005859c-0.0341797-0.0224609-0.0791016-0.0336914-0.1337891-0.0336914
				c-0.0537109,0-0.0986328,0.0112305-0.1337891,0.0336914c-0.0361328,0.0224609-0.0644531,0.0566406-0.0849609,0.1020508
				c-0.0195313,0.0424805-0.0322266,0.0981445-0.0400391,0.1669922c-0.0078125,0.0683594-0.0107422,0.1435547-0.0107422,0.2255859
				c0,0.0898438,0.0029297,0.1650391,0.0087891,0.2255859c0.0068359,0.0605469,0.0205078,0.1147461,0.0410156,0.1625977
				c0.0195313,0.0449219,0.046875,0.0791016,0.0810547,0.1025391c0.0341797,0.0239258,0.0810547,0.0356445,0.1386719,0.0356445
				c0.0537109,0,0.0986328-0.0112305,0.1347656-0.0336914S74.6484375,25.168457,74.6679688,25.1230469z"/>
		</g>
	</g>
	<path class="st9" d="M42.5200005,59.3230896v-2.4438057h1.6574669v2.4438057c0,0.3131065-0.2538223,0.5669289-0.5669289,0.5669289
		h-0.5236092C42.7738228,59.8900185,42.5200005,59.6361961,42.5200005,59.3230896z"/>
</g>
<g id="j3y">
	<g id="XMLID_20_">
		<g>
			<rect x="68.6374664" y="40.4578705" class="st11" width="8.5589418" height="3.662437"/>
		</g>
		<g>
		</g>
	</g>
	<g id="XMLID_19_">
		<g>
			<rect x="71.9853592" y="37.4064369" class="st1" width="1.6072793" height="2.9478152"/>
		</g>
		<g>
		</g>
	</g>
	<g id="XMLID_18_">
		<g>
			<rect x="74.7188187" y="44.1220932" class="st1" width="1.6811564" height="3.5123663"/>
		</g>
		<g>
		</g>
	</g>
	<g id="XMLID_17_">
		<g>
			<rect x="69.2302856" y="44.1220932" class="st1" width="1.6811564" height="3.5123663"/>
		</g>
		<g>
		</g>
	</g>
	<g>
		<path class="st12" d="M71.9667969,42.6279297c0,0.1591797-0.0488281,0.2822266-0.1474609,0.3691406
			c-0.0986328,0.0859375-0.2294922,0.1289063-0.3945313,0.1289063c-0.0400391,0-0.0917969-0.0029297-0.1572266-0.0097656
			c-0.0664063-0.0068359-0.1210938-0.015625-0.1660156-0.0253906v-0.2255859h0.0136719
			c0.0341797,0.0107422,0.0761719,0.0224609,0.125,0.0351563c0.0488281,0.0117188,0.0996094,0.0185547,0.1513672,0.0185547
			c0.0751953,0,0.1357422-0.0087891,0.1806641-0.0263672c0.0449219-0.0166016,0.078125-0.0410156,0.0986328-0.0732422
			c0.0224609-0.0322266,0.0361328-0.0722656,0.0419922-0.1191406c0.0068359-0.0478516,0.0097656-0.1015625,0.0097656-0.1640625
			v-1.0615234h-0.3876953v-0.1923828h0.6318359V42.6279297z"/>
		<path class="st12" d="M73.4736328,42.2246094c0.0390625,0.0351563,0.0712891,0.0791016,0.0966797,0.1318359
			c0.0253906,0.0537109,0.0390625,0.1220703,0.0390625,0.2050781c0,0.0839844-0.015625,0.1591797-0.0458984,0.2285156
			s-0.0732422,0.1298828-0.1279297,0.1806641c-0.0625,0.0576172-0.1347656,0.0996094-0.2177734,0.1269531
			s-0.1748047,0.0410156-0.2744141,0.0410156c-0.1015625,0-0.2011719-0.0126953-0.3007813-0.0361328
			c-0.0976563-0.0244141-0.1787109-0.0507813-0.2421875-0.0791016v-0.2548828h0.0185547
			c0.0693359,0.0458984,0.1513672,0.0830078,0.2470703,0.1132813c0.09375,0.0302734,0.1855469,0.0449219,0.2734375,0.0449219
			c0.0507813,0,0.1054688-0.0078125,0.1640625-0.0253906c0.0585938-0.0166016,0.1054688-0.0419922,0.1425781-0.0751953
			c0.0371094-0.0361328,0.0654297-0.0751953,0.0839844-0.1191406c0.0175781-0.0429688,0.0273438-0.0976563,0.0273438-0.1630859
			s-0.0097656-0.1191406-0.03125-0.1621094s-0.0498047-0.0761719-0.0869141-0.1005859
			c-0.0361328-0.0253906-0.0810547-0.0429688-0.1337891-0.0517578c-0.0527344-0.0097656-0.109375-0.0146484-0.1699219-0.0146484
			h-0.1113281v-0.2021484h0.0859375c0.125,0,0.2246094-0.0263672,0.2988281-0.078125s0.1113281-0.1269531,0.1113281-0.2265625
			c0-0.0439453-0.0097656-0.0820313-0.0273438-0.1152344c-0.0195313-0.0332031-0.0458984-0.0595703-0.0800781-0.0810547
			c-0.0351563-0.0214844-0.0722656-0.0361328-0.1132813-0.0439453c-0.0390625-0.0078125-0.0859375-0.0126953-0.1367188-0.0126953
			c-0.078125,0-0.1601563,0.0146484-0.2480469,0.0419922s-0.1708984,0.0664063-0.2490234,0.1171875H72.453125V41.359375
			c0.0585938-0.0292969,0.1367188-0.0546875,0.234375-0.0791016c0.0966797-0.0244141,0.1914063-0.0361328,0.2822266-0.0361328
			c0.0888672,0,0.1679688,0.0078125,0.2363281,0.0244141s0.1298828,0.0419922,0.1845703,0.078125
			c0.0595703,0.0390625,0.1035156,0.0869141,0.1347656,0.1416016c0.0302734,0.0556641,0.0449219,0.1201172,0.0449219,0.1943359
			c0,0.1005859-0.0351563,0.1894531-0.1074219,0.2646484s-0.15625,0.1230469-0.2539063,0.1425781v0.0166016
			c0.0390625,0.0068359,0.0839844,0.0205078,0.1347656,0.0410156S73.4375,42.1943359,73.4736328,42.2246094z"/>
		<path class="st12" d="M75.3427734,41.2822266l-0.6455078,1.0205078v0.7978516H74.453125v-0.7714844l-0.6474609-1.046875h0.2705078
			l0.5,0.8134766l0.5068359-0.8134766H75.3427734z"/>
	</g>
</g>
<g id="Слой_5">
	<g>
		<ellipse class="st13" cx="11.90625" cy="35.734375" rx="5.96875" ry="2.296875"/>
		<path class="st13" d="M17.875,41.3039398c0,1.268528-2.6723003,2.296875-5.96875,2.296875s-5.96875-1.028347-5.96875-2.296875"/>
		<line class="st13" x1="5.9375" y1="35.734375" x2="5.9375" y2="41.3039398"/>
		<line class="st13" x1="17.875" y1="35.734375" x2="17.875" y2="41.3039398"/>
		<path class="st13" d="M4.7005391,39.1010399C3.8036602,39.7437363,3.28125,40.5147438,3.28125,41.34375
			c0,2.2436562,3.8265662,4.0625,8.546875,4.0625S20.375,43.5874062,20.375,41.34375
			c0-0.9183044-0.6410141-1.7654419-1.721962-2.4458389"/>
		<path class="st13" d="M3.28125,43.7497787c0,2.2436562,3.8265662,4.0625,8.546875,4.0625s8.546875-1.8188438,8.546875-4.0625"/>
		<line class="st13" x1="3.28125" y1="43.7497787" x2="3.28125" y2="41.34375"/>
		<line class="st13" x1="20.375" y1="43.7497787" x2="20.375" y2="41.34375"/>
		<g>
			<path class="st14" d="M9.0839844,35.8334961c0,0.2602539-0.074707,0.4755859-0.2236328,0.6455078
				s-0.34375,0.2548828-0.5849609,0.2548828c-0.2397461,0-0.4335938-0.0849609-0.581543-0.2548828
				C7.5463867,36.309082,7.4726563,36.09375,7.4726563,35.8334961v-0.0273438c0-0.2587891,0.0732422-0.4736328,0.2207031-0.6445313
				s0.3408203-0.2558594,0.5810547-0.2558594c0.2407227,0,0.4360352,0.0849609,0.5854492,0.2558594
				s0.2241211,0.3857422,0.2241211,0.6445313V35.8334961z M8.7285156,35.8041992
				c0-0.184082-0.0380859-0.3334961-0.1147461-0.4482422s-0.1894531-0.171875-0.3393555-0.171875
				s-0.2612305,0.0566406-0.3349609,0.1708984c-0.0737305,0.1137695-0.1103516,0.2636719-0.1103516,0.4492188v0.0292969
				c0,0.1870117,0.0371094,0.3378906,0.1113281,0.4521484c0.074707,0.1142578,0.1865234,0.1713867,0.3349609,0.1713867
				c0.1508789,0,0.2636719-0.0571289,0.3398438-0.1713867c0.0751953-0.1142578,0.1132813-0.2651367,0.1132813-0.4521484V35.8041992z
				"/>
			<path class="st14" d="M10.9179688,34.9311523v0.2148438l-0.1904297,0.0366211v1.5258789h-0.3554688L9.6542969,35.512207
				l-0.0068359,0.0009766v0.9453125l0.1904297,0.0361328v0.2138672H9.1015625v-0.2138672l0.1894531-0.0361328v-1.2758789
				l-0.1894531-0.0366211v-0.2148438h0.1894531h0.3564453l0.7177734,1.1962891l0.0068359-0.0009766v-0.9438477l-0.1904297-0.0366211
				v-0.2148438h0.5458984H10.9179688z"/>
			<path class="st14" d="M11.074707,36.8608398h-0.2636719l0.6523438-1.9296875h0.2636719L11.074707,36.8608398z"/>
			<path class="st14" d="M13.3208008,35.8334961c0,0.2602539-0.074707,0.4755859-0.2236328,0.6455078
				s-0.34375,0.2548828-0.5849609,0.2548828c-0.2397461,0-0.4335938-0.0849609-0.581543-0.2548828
				c-0.1474609-0.1699219-0.2211914-0.3852539-0.2211914-0.6455078v-0.0273438c0-0.2587891,0.0732422-0.4736328,0.2207031-0.6445313
				s0.3408203-0.2558594,0.5810547-0.2558594c0.2407227,0,0.4360352,0.0849609,0.5854492,0.2558594
				s0.2241211,0.3857422,0.2241211,0.6445313V35.8334961z M12.965332,35.8041992
				c0-0.184082-0.0380859-0.3334961-0.1147461-0.4482422s-0.1894531-0.171875-0.3393555-0.171875
				S12.25,35.2407227,12.1762695,35.3549805c-0.0737305,0.1137695-0.1103516,0.2636719-0.1103516,0.4492188v0.0292969
				c0,0.1870117,0.0371094,0.3378906,0.1113281,0.4521484c0.074707,0.1142578,0.1865234,0.1713867,0.3349609,0.1713867
				c0.1508789,0,0.2636719-0.0571289,0.3398438-0.1713867c0.0751953-0.1142578,0.1132813-0.2651367,0.1132813-0.4521484V35.8041992z
				"/>
			<path class="st14" d="M13.3383789,36.4946289l0.1894531-0.0361328v-1.2758789l-0.1894531-0.0366211v-0.2148438h1.4150391
				v0.4873047h-0.2734375l-0.0161133-0.2128906h-0.5795898v0.4897461h0.6220703v0.2749023h-0.6220703v0.4882813l0.1904297,0.0361328
				v0.2138672h-0.7363281V36.4946289z"/>
			<path class="st14" d="M14.7573242,36.4946289l0.1894531-0.0361328v-1.2758789l-0.1894531-0.0366211v-0.2148438h1.4150391
				v0.4873047h-0.2734375l-0.0161133-0.2128906h-0.5795898v0.4897461h0.6220703v0.2749023h-0.6220703v0.4882813l0.1904297,0.0361328
				v0.2138672h-0.7363281V36.4946289z"/>
		</g>
	</g>
	<g>
	</g>
	<g>
	</g>
	<g>
	</g>
	<g>
	</g>
	<g>
	</g>
</g>
</svg>
