<?xml version="1.0" encoding="utf-8"?>
<!-- Generator: Adobe Illustrator 22.0.1, SVG Export Plug-In . SVG Version: 6.00 Build 0)  -->
<svg version="1.1" id="Слой_1" xmlns="http://www.w3.org/2000/svg" xmlns:xlink="http://www.w3.org/1999/xlink" x="0px" y="0px"
	 viewBox="0 0 85.0400009 85.0400009" style="enable-background:new 0 0 85.0400009 85.0400009;" xml:space="preserve">
<style type="text/css">
	.st0{fill:#0D0E0F;}
	.st1{fill:#E5E4E0;}
	.st2{fill:#CDC7BC;}
	.st3{fill:#CEC7BD;}
	.st4{fill:#918C84;}
	.st5{fill:#151616;}
	.st6{fill:none;stroke:#F6F6F6;stroke-width:0.75;stroke-miterlimit:10;}
	.st7{fill:#4C4C4C;}
	.st8{fill:#5DAF61;}
	.st9{fill:url(#SVGID_1_);}
	.st10{fill:url(#SVGID_2_);}
	.st11{fill:#9E9B9C;}
	.st12{fill:#363331;}
	.st13{fill:#B5B4B3;}
	.st14{fill:none;stroke:#FFFFFF;stroke-width:0.5;stroke-miterlimit:10;}
	.st15{fill:#FFFFFF;}
</style>
<path class="st0" d="M0,0v85.039978h85.039978V0H0z M9.9212646,79.5117798c-2.4264526,0-4.3936768-1.9667969-4.3936768-4.3926392
	c0-2.4279175,1.9672241-4.3947754,4.3936768-4.3947754s4.3936768,1.9668579,4.3936768,4.3947754
	C14.3149414,77.5449829,12.3477173,79.5117798,9.9212646,79.5117798z M9.9223022,14.3149414
	c-2.4279175,0-4.3947144-1.9667969-4.3947144-4.3927002c0-2.4279175,1.9667969-4.3947144,4.3947144-4.3947144
	c2.4258423,0,4.3926392,1.9667969,4.3926392,4.3947144C14.3149414,12.3481445,12.3481445,14.3149414,9.9223022,14.3149414z
	 M75.1170654,79.5117798c-2.4258423,0-4.3926392-1.968811-4.3926392-4.3947144c0-2.4258423,1.9667969-4.3927002,4.3926392-4.3927002
	c2.4279175,0,4.3947754,1.9668579,4.3947754,4.3927002C79.5118408,77.5429688,77.5449829,79.5117798,75.1170654,79.5117798z
	 M75.1191406,14.3149414c-2.4279175,0-4.3947144-1.9667969-4.3947144-4.3927002
	c0-2.4279175,1.9667969-4.3947144,4.3947144-4.3947144c2.4258423,0,4.3927002,1.9667969,4.3927002,4.3947144
	C79.5118408,12.3481445,77.5449829,14.3149414,75.1191406,14.3149414z"/>
<g>
	<path class="st1" d="M29.3095703,9.8505859l0.5317383-0.1020508V6.1933594l-0.5317383-0.1020508V5.4921875h2.0415039v0.5991211
		l-0.5078125,0.1020508v1.3232422h0.4492188l0.9370117-1.3369141c0.1987305-0.2768555,0.375-0.4682617,0.5283203-0.5751953
		c0.1533203-0.1064453,0.3569336-0.159668,0.6108398-0.159668c0.1166992,0,0.2250977,0.015625,0.3256836,0.0473633
		c0.1010742,0.0317383,0.1933594,0.0737305,0.2783203,0.1259766l-0.168457,0.7451172
		c-0.0732422-0.0161133-0.1230469-0.0268555-0.1489258-0.0322266c-0.0263672-0.0058594-0.0625-0.0087891-0.1083984-0.0087891
		c-0.1049805,0-0.2021484,0.0297852-0.2915039,0.0883789c-0.0893555,0.059082-0.1967773,0.1694336-0.3227539,0.3300781
		l-0.7822266,1.0615234l1.3828125,1.9628906l0.5249023,0.0854492v0.5952148h-1.9794922V9.8505859l0.284668-0.0410156
		l-0.9335938-1.3916016h-0.5864258v1.3305664l0.5078125,0.1020508v0.5952148h-2.0415039V9.8505859z"/>
	<path class="st1" d="M34.0805664,7.3632813V6.7646484h1.9663086v0.5986328L35.6147461,7.465332v0.7895508h1.2211914V7.465332
		l-0.4287109-0.1020508V6.7646484h0.4287109h1.0019531h0.5356445v0.5986328L37.8378906,7.465332v2.2832031l0.5356445,0.1020508
		v0.5952148h-1.9663086V9.8505859l0.4287109-0.1020508V9.0170898h-1.2211914v0.7314453l0.4321289,0.1020508v0.5952148h-1.9663086
		V9.8505859l0.5356445-0.1020508V7.465332L34.0805664,7.3632813z"/>
	<path class="st1" d="M38.5097656,8.5712891c0-0.5488281,0.1547852-0.9985352,0.4648438-1.3491211
		c0.3100586-0.3500977,0.7382813-0.5253906,1.2851563-0.5253906c0.5488281,0,0.9785156,0.1743164,1.2880859,0.5239258
		c0.3100586,0.3491211,0.465332,0.7993164,0.465332,1.3505859v0.0712891c0,0.5537109-0.1552734,1.0043945-0.465332,1.3525391
		c-0.3095703,0.3481445-0.7368164,0.5219727-1.28125,0.5219727c-0.5512695,0-0.9819336-0.1738281-1.2919922-0.5219727
		s-0.4648438-0.7988281-0.4648438-1.3525391V8.5712891z M39.5117188,8.6425781c0,0.3359375,0.059082,0.6049805,0.1782227,0.8081055
		s0.3110352,0.3046875,0.5766602,0.3046875c0.2583008,0,0.4477539-0.1020508,0.5678711-0.3061523
		c0.1201172-0.2045898,0.1801758-0.4731445,0.1801758-0.8066406V8.5712891c0-0.3266602-0.0610352-0.5932617-0.1821289-0.7998047
		c-0.1210938-0.2060547-0.3120117-0.3095703-0.5727539-0.3095703s-0.4506836,0.1035156-0.5698242,0.3095703
		c-0.1191406,0.206543-0.1782227,0.4731445-0.1782227,0.7998047V8.6425781z"/>
	<path class="st1" d="M42.1723633,9.8505859l0.5356445-0.1020508V7.465332l-0.5356445-0.1020508V6.7646484h4.300293v0.5986328
		L45.9404297,7.465332v2.2832031l0.5322266,0.1020508v0.5952148h-1.9667969V9.8505859l0.4326172-0.1020508V7.5336914H43.706543
		v2.2148438l0.4321289,0.1020508v0.5952148h-1.9663086V9.8505859z"/>
	<path class="st1" d="M46.7041016,7.3632813V6.7646484h1.9902344v0.5986328L48.2382813,7.465332v0.7011719h0.3427734
		l0.5556641-0.8164063c0.1396484-0.2133789,0.2861328-0.3740234,0.4394531-0.4814453
		c0.1533203-0.1079102,0.34375-0.1616211,0.5732422-0.1616211c0.1142578,0,0.2167969,0.015625,0.3085938,0.0473633
		s0.1816406,0.074707,0.2714844,0.1293945l-0.1689453,0.6870117c-0.0683594-0.0180664-0.1113281-0.0292969-0.1279297-0.0336914
		c-0.0175781-0.0048828-0.0488281-0.0068359-0.0947266-0.0068359c-0.0683594,0-0.1416016,0.0258789-0.2177734,0.078125
		c-0.0771484,0.0522461-0.1425781,0.1181641-0.1972656,0.1972656L49.4423828,8.5l0.8613281,1.2685547l0.5039063,0.0820313v0.5952148
		h-1.3759766l-0.8095703-1.3779297h-0.3837891v0.6806641l0.4560547,0.1020508v0.5952148h-1.9902344V9.8505859l0.5351563-0.1020508
		V7.465332L46.7041016,7.3632813z"/>
	<path class="st1" d="M53.1845703,10.4458008c-0.0273438-0.0610352-0.0517578-0.1240234-0.0722656-0.1889648
		c-0.0205078-0.0644531-0.0361328-0.1298828-0.0478516-0.1953125c-0.1191406,0.1357422-0.2636719,0.2460938-0.4335938,0.3300781
		c-0.1708984,0.0834961-0.3662109,0.1254883-0.5859375,0.1254883c-0.3632813,0-0.6523438-0.0981445-0.8662109-0.2939453
		c-0.2138672-0.1962891-0.3203125-0.4633789-0.3203125-0.8012695c0-0.3447266,0.1396484-0.6113281,0.4179688-0.7998047
		c0.2792969-0.1879883,0.6884766-0.2822266,1.2285156-0.2822266h0.5117188V7.9794922
		c0-0.1772461-0.0517578-0.3144531-0.1542969-0.4121094c-0.1035156-0.097168-0.2548828-0.1459961-0.4570313-0.1459961
		c-0.1142578,0-0.2158203,0.0131836-0.3046875,0.0390625c-0.0898438,0.0258789-0.1611328,0.0571289-0.2167969,0.09375
		l-0.0644531,0.3945313h-0.7548828l0.0029297-0.8164063C51.25,7.0097656,51.4599609,6.90625,51.6972656,6.8227539
		c0.2363281-0.0839844,0.4941406-0.1259766,0.7734375-0.1259766c0.4599609,0,0.8330078,0.1118164,1.1201172,0.3349609
		c0.2871094,0.2236328,0.4306641,0.5415039,0.4306641,0.9541016v1.5209961c0,0.0566406,0.0009766,0.1098633,0.0019531,0.159668
		c0.0009766,0.050293,0.0048828,0.0976563,0.0117188,0.1430664l0.3056641,0.0410156v0.5952148H53.1845703z M52.3164063,9.7822266
		c0.1513672,0,0.2880859-0.0322266,0.4121094-0.0966797c0.1230469-0.0649414,0.2197266-0.1459961,0.2880859-0.2431641V8.8808594
		h-0.5117188c-0.2128906,0-0.3740234,0.0493164-0.4833984,0.1479492c-0.1103516,0.0986328-0.1650391,0.2172852-0.1650391,0.3554688
		c0,0.125,0.0410156,0.222168,0.1220703,0.2924805S52.171875,9.7822266,52.3164063,9.7822266z"/>
</g>
<g>
	<path class="st2" d="M44.6172867,59.020401c0,1.1360054-0.3074379,2.4939041-0.7491302,3.185482
		c-0.3683434,0.576725-0.8214493,0.5867615-1.348156,0.5867615c-0.5001831,0-0.9877167,0.02425-1.348156-0.5013771
		c-0.4742508-0.6916046-0.7491302-2.0871544-0.7491302-3.2708664"/>
	<path class="st2" d="M40.1804276,25.1570396c0-1.1360016,0.3074379-2.4939041,0.7491302-3.1854782
		c0.3683434-0.5767269,0.8214531-0.5867615,1.348156-0.5867615c0.5001831,0,0.9877167-0.0242538,1.348156,0.5013771
		C44.1001205,22.5777779,44.375,23.9733295,44.375,25.1570396"/>
	<path class="st2" d="M59.527874,45.9375c2.2972984,0,4.159626,1.5390205,4.159626,3.4375s-1.8623276,3.4375-4.159626,3.4375"/>
	<path class="st2" d="M59.527874,31.5861912c2.2972984,0,4.159626,1.5390224,4.159626,3.4375019s-1.8623276,3.4375-4.159626,3.4375"
		/>
	<path class="st2" d="M25.5121269,45.9375c-2.2972984,0-4.159626,1.5390205-4.159626,3.4375s1.8623276,3.4375,4.159626,3.4375"/>
	<path class="st2" d="M25.5121269,31.5861912c-2.2972984,0-4.159626,1.5390224-4.159626,3.4375019s1.8623276,3.4375,4.159626,3.4375
		"/>
	<path class="st3" d="M30.3319798,74.9196854c0,1.2273636-1.0018463,2.2224731-2.2397385,2.2224731
		c-1.2378941,0-2.2415428-0.9951096-2.2415428-2.2224731s1.0036488-2.2224731,2.2415428-2.2224731
		C29.3301334,72.6972122,30.3319798,73.6923218,30.3319798,74.9196854z"/>
	<g>
		<path class="st1" d="M35.7827148,80.0625c0.3588867,0,0.640625,0.0810547,0.8447266,0.2441406
			c0.2045898,0.1630859,0.3066406,0.3876953,0.3066406,0.6748047c0,0.1582031-0.0429688,0.2958984-0.128418,0.4121094
			s-0.2104492,0.2099609-0.3754883,0.2822266c0.1865234,0.0546875,0.3208008,0.1455078,0.402832,0.2724609
			c0.081543,0.1269531,0.1225586,0.2841797,0.1225586,0.4726563v0.1591797c0,0.0693359,0.0136719,0.1220703,0.0415039,0.1601563
			c0.0273438,0.0380859,0.0732422,0.0605469,0.1367188,0.0683594l0.078125,0.0107422v0.3789063h-0.328125
			c-0.2070313,0-0.3525391-0.0556641-0.4365234-0.1660156s-0.1259766-0.2529297-0.1259766-0.4287109v-0.1787109
			c0-0.1523438-0.0410156-0.2714844-0.1225586-0.3583984c-0.0820313-0.0869141-0.1972656-0.1328125-0.3466797-0.1367188h-0.519043
			v0.8271484l0.3388672,0.0644531v0.3769531h-1.3100586v-0.3769531l0.3369141-0.0644531v-2.2509766l-0.3369141-0.0644531V80.0625
			h0.3369141H35.7827148z M35.3330078,81.4453125h0.4389648c0.1762695,0,0.309082-0.0380859,0.3974609-0.1123047
			s0.1323242-0.1826172,0.1323242-0.3232422s-0.0439453-0.2529297-0.1313477-0.3369141
			c-0.0878906-0.0839844-0.2167969-0.1259766-0.3876953-0.1259766h-0.449707V81.4453125z"/>
		<path class="st1" d="M38.6933594,80.0625v0.3789063l-0.3388672,0.0644531v1.6367188
			c0,0.2070313,0.0561523,0.3613281,0.168457,0.4648438c0.1123047,0.1025391,0.2661133,0.1533203,0.4614258,0.1533203
			c0.1987305,0,0.3544922-0.0507813,0.4672852-0.1523438c0.112793-0.1025391,0.1694336-0.2578125,0.1694336-0.4658203v-1.6367188
			l-0.3369141-0.0644531V80.0625h1.3100586v0.3789063l-0.3388672,0.0644531v1.6367188
			c0,0.3525391-0.1166992,0.6230469-0.3505859,0.8144531s-0.5410156,0.2861328-0.9204102,0.2861328
			c-0.3779297,0-0.6831055-0.0947266-0.9155273-0.2861328s-0.3486328-0.4619141-0.3486328-0.8144531v-1.6367188
			l-0.3364258-0.0644531V80.0625h0.3364258h0.6342773H38.6933594z"/>
		<path class="st1" d="M43.184082,81.0634766h-0.4760742l-0.0825195-0.4306641
			c-0.0546875-0.0341797-0.1352539-0.0644531-0.2407227-0.0898438c-0.105957-0.0263672-0.2182617-0.0390625-0.3369141-0.0390625
			c-0.1738281,0-0.3081055,0.0361328-0.402832,0.1083984c-0.0952148,0.0722656-0.1425781,0.1660156-0.1425781,0.28125
			c0,0.1064453,0.0498047,0.1933594,0.1489258,0.2617188s0.2705078,0.140625,0.5136719,0.2167969
			c0.3491211,0.0957031,0.6137695,0.2226563,0.7939453,0.3808594c0.1806641,0.1582031,0.2705078,0.3652344,0.2705078,0.6220703
			c0,0.2685547-0.1069336,0.4804688-0.3212891,0.6357422s-0.4970703,0.2324219-0.847168,0.2324219
			c-0.2509766,0-0.4770508-0.0390625-0.6791992-0.1181641c-0.2016602-0.0791016-0.3701172-0.1884766-0.5048828-0.3271484v-0.6552734
			h0.4907227l0.0673828,0.4462891c0.0639648,0.0517578,0.1503906,0.0947266,0.2597656,0.1279297
			c0.109375,0.0341797,0.2314453,0.0507813,0.3662109,0.0507813c0.1738281,0,0.3056641-0.0351563,0.3964844-0.1054688
			c0.090332-0.0703125,0.1357422-0.1650391,0.1357422-0.2822266c0-0.1210938-0.043457-0.2177734-0.1293945-0.2910156
			c-0.0864258-0.0732422-0.2373047-0.1416016-0.453125-0.2070313c-0.375-0.1074219-0.6586914-0.2353516-0.8515625-0.3828125
			c-0.1923828-0.1484375-0.2885742-0.3505859-0.2885742-0.6074219c0-0.2539063,0.1083984-0.4619141,0.3256836-0.6240234
			c0.2172852-0.1611328,0.4902344-0.2441406,0.8188477-0.2480469c0.2431641,0,0.4648438,0.0361328,0.6650391,0.109375
			c0.199707,0.0732422,0.3676758,0.1708984,0.5039063,0.2929688V81.0634766z"/>
		<path class="st1" d="M45.8818359,81.0634766h-0.4746094l-0.0839844-0.4306641
			c-0.0546875-0.0341797-0.1347656-0.0644531-0.2402344-0.0898438c-0.1054688-0.0263672-0.21875-0.0390625-0.3378906-0.0390625
			c-0.1738281,0-0.3066406,0.0361328-0.4023438,0.1083984c-0.0947266,0.0722656-0.1425781,0.1660156-0.1425781,0.28125
			c0,0.1064453,0.0507813,0.1933594,0.1494141,0.2617188s0.2705078,0.140625,0.5146484,0.2167969
			c0.3476563,0.0957031,0.6132813,0.2226563,0.7929688,0.3808594s0.2714844,0.3652344,0.2714844,0.6220703
			c0,0.2685547-0.1074219,0.4804688-0.3222656,0.6357422s-0.4960938,0.2324219-0.8476563,0.2324219
			c-0.25,0-0.4765625-0.0390625-0.6787109-0.1181641c-0.2016602-0.0791016-0.3701172-0.1884766-0.5048828-0.3271484v-0.6552734
			h0.4902344l0.0673828,0.4462891c0.0644531,0.0517578,0.1513672,0.0947266,0.2607422,0.1279297
			c0.109375,0.0341797,0.2304688,0.0507813,0.3652344,0.0507813c0.1738281,0,0.3066406-0.0351563,0.3964844-0.1054688
			s0.1367188-0.1650391,0.1367188-0.2822266c0-0.1210938-0.0429688-0.2177734-0.1308594-0.2910156
			c-0.0859375-0.0732422-0.2363281-0.1416016-0.4511719-0.2070313c-0.3759766-0.1074219-0.6601563-0.2353516-0.8525391-0.3828125
			c-0.1923828-0.1484375-0.2885742-0.3505859-0.2885742-0.6074219c0-0.2539063,0.1083984-0.4619141,0.3256836-0.6240234
			c0.2167969-0.1611328,0.4892578-0.2441406,0.8193359-0.2480469c0.2421875,0,0.4648438,0.0361328,0.6640625,0.109375
			s0.3671875,0.1708984,0.5039063,0.2929688V81.0634766z"/>
		<path class="st1" d="M46.1748047,80.4414063V80.0625h1.3105469v0.3789063l-0.3388672,0.0644531v2.2509766l0.3388672,0.0644531
			v0.3769531h-1.3105469v-0.3769531l0.3388672-0.0644531v-2.2509766L46.1748047,80.4414063z"/>
		<path class="st1" d="M47.6933594,82.8212891l0.2265625-0.0322266L48.8818359,80.0625H49.53125l0.9560547,2.7265625
			l0.2255859,0.0322266v0.3769531h-1.0771484v-0.3769531l0.2197266-0.0390625l-0.1396484-0.4306641h-1.0253906l-0.1386719,0.4306641
			l0.2197266,0.0390625v0.3769531h-1.078125V82.8212891z M48.8408203,81.8886719h0.7255859l-0.3564453-1.1044922h-0.0126953
			L48.8408203,81.8886719z"/>
	</g>
	<ellipse class="st4" cx="28.0913391" cy="74.9196854" rx="1.5316002" ry="1.5185714"/>
	<rect x="24.500948" y="62.2946739" class="st1" width="5.1219912" height="5.1219912"/>
	<g>
		<path class="st5" d="M27.1645508,63.2294922c0.4350586,0,0.7851563,0.1328125,1.050293,0.3994141
			c0.2646484,0.265625,0.3969727,0.6083984,0.3969727,1.0292969v0.4521484c0,0.421875-0.1323242,0.765625-0.3969727,1.0292969
			c-0.2651367,0.2646484-0.6152344,0.3964844-1.050293,0.3964844h-1.3969727V66.25l0.3735352-0.0634766v-2.6044922
			l-0.3735352-0.0634766v-0.2890625h0.3735352H27.1645508z M26.5922852,63.5820313v2.6044922h0.5722656
			c0.3085938,0,0.5517578-0.1005859,0.7294922-0.3017578s0.2666016-0.4599609,0.2666016-0.7744141v-0.4570313
			c0-0.3115234-0.0888672-0.5683594-0.2666016-0.7695313s-0.4208984-0.3017578-0.7294922-0.3017578H26.5922852z"/>
	</g>
	<path class="st6" d="M44.5200005,62.7057838l8.8377876,0.02108c0,0,0.0124245,0.0000305,0.034481,0.0000839
		c0.0054665,2.1701012,0.0395927,15.7233009,0.0395927,15.7233009s0.0004349,0.1730499,0.0008698,0.3460922
		c-0.045536-0.0001068-0.0910759-0.0002136-0.0910759-0.0002136s-19.7002144-0.0462341-21.5548706-0.0505829
		c-0.0916157-0.0002213-0.1396866-0.0003281-0.1396866-0.0003281l-0.0403233-16.0148048c0,0-0.0000687-0.027298-0.0001373-0.0545959
		c0.0282974,0.0000687,0.0565948,0.0001335,0.0565948,0.0001335l8.8567677,0.019989"/>
	<line class="st6" x1="46.1338272" y1="62.7099113" x2="46.1338272" y2="78.7793274"/>
	<line class="st6" x1="38.8972855" y1="62.6758156" x2="38.8972855" y2="78.7623215"/>
	<path class="st6" d="M45.5896072,66.8795929"/>
	<path class="st6" d="M45.5445595,49.0140495"/>
	<path class="st3" d="M37.5603256,74.9196854c0,1.2273636-1.0018463,2.2224731-2.2397385,2.2224731
		s-2.2415428-0.9951096-2.2415428-2.2224731s1.0036507-2.2224731,2.2415428-2.2224731S37.5603256,73.6923218,37.5603256,74.9196854z
		"/>
	<ellipse class="st4" cx="35.3196869" cy="74.9196854" rx="1.5316002" ry="1.5185714"/>
	<path class="st3" d="M44.7603264,74.9196854c0,1.2273636-1.0018463,2.2224731-2.2397385,2.2224731
		s-2.2415428-0.9951096-2.2415428-2.2224731s1.0036507-2.2224731,2.2415428-2.2224731S44.7603264,73.6923218,44.7603264,74.9196854z
		"/>
	<ellipse class="st4" cx="42.5196838" cy="74.9196854" rx="1.5316002" ry="1.5185714"/>
	<path class="st3" d="M51.3477554,73.2907639c1.5395126,2.0229111-0.1709862,4.2713013-2.1831703,3.7840042
		c-0.7743721-0.1875381-1.4096413-0.8210831-1.5987854-1.5950623
		C47.0742073,73.4680786,49.3232689,71.7503662,51.3477554,73.2907639z"/>
	<ellipse class="st4" cx="49.7196846" cy="74.9196854" rx="1.5316002" ry="1.5185714"/>
	<path class="st3" d="M58.5477562,73.2907639c1.5395088,2.0229111-0.1709862,4.2713089-2.1831703,3.7840042
		c-0.7743721-0.1875381-1.4096413-0.8210831-1.5987854-1.5950623
		C54.2742043,73.4680786,56.5232697,71.7503662,58.5477562,73.2907639z"/>
	<ellipse class="st4" cx="56.9196854" cy="74.9196854" rx="1.5316002" ry="1.5185714"/>
	<g>
		<path class="st1" d="M37.2246094,69.3886719c-0.152832,0.1582031-0.3779297,0.3076172-0.6757813,0.4482422
			s-0.6845703,0.2109375-1.1611328,0.2109375c-0.6958008,0-1.2631836-0.2421875-1.7026367-0.7265625
			c-0.4394531-0.4833984-0.6591797-1.1123047-0.6591797-1.8847656v-0.0849609c0-0.7763672,0.2172852-1.40625,0.6518555-1.8876953
			c0.4345703-0.4824219,1.0131836-0.7236328,1.7348633-0.7236328c0.3862305,0,0.7246094,0.0605469,1.0166016,0.1796875
			s0.5380859,0.2763672,0.737793,0.4726563v0.9355469h-0.4931641l-0.1713867-0.7119141
			c-0.1166992-0.0947266-0.2578125-0.1728516-0.4233398-0.234375s-0.3637695-0.0917969-0.5952148-0.0917969
			c-0.5620117,0-0.9951172,0.1904297-1.2988281,0.5722656c-0.3037109,0.3808594-0.4555664,0.875-0.4555664,1.4824219v0.0917969
			c0,0.6171875,0.1469727,1.1152344,0.4414063,1.4951172c0.2944336,0.3808594,0.699707,0.5703125,1.2167969,0.5703125
			c0.2832031,0,0.515625-0.0292969,0.6967773-0.0878906c0.1811523-0.0595703,0.3261719-0.1240234,0.4360352-0.1953125v-1.1298828
			l-0.8540039-0.0351563v-0.5136719h1.5581055V69.3886719z"/>
	</g>
	<g>
		<path class="st1" d="M41.7045898,65.375l-0.4750977,0.0751953l1.1650391,3.3515625l0.1176758,0.4072266h0.0214844
			l0.1181641-0.4072266l1.1611328-3.3554688L43.3447266,65.375v-0.4492188h1.640625V65.375l-0.4179688,0.0566406
			l-1.7441406,4.6523438h-0.6040039l-1.7436523-4.6523438L40.0610352,65.375v-0.4492188h1.6435547V65.375z"/>
	</g>
	<g>
		<path class="st1" d="M51.7548828,66.4492188h-0.5322266l-0.1318359-0.7373047
			c-0.1074219-0.0898438-0.25-0.1640625-0.4287109-0.2236328c-0.1787109-0.0585938-0.3867188-0.0878906-0.6220703-0.0878906
			c-0.3740234,0-0.6611328,0.078125-0.8613281,0.2353516S48.8789063,65.9980469,48.8789063,66.25
			c0,0.2246094,0.1015625,0.4121094,0.3056641,0.5625c0.203125,0.1494141,0.5322266,0.28125,0.9873047,0.3945313
			c0.5478516,0.1347656,0.9648438,0.3330078,1.2490234,0.5957031c0.2851563,0.2617188,0.4267578,0.5869141,0.4267578,0.9736328
			c0,0.4160156-0.1708984,0.75-0.5126953,1.0029297s-0.7890625,0.3789063-1.3417969,0.3789063
			c-0.3994141,0-0.7558594-0.0644531-1.0664063-0.1943359s-0.5634766-0.2998047-0.7587891-0.5107422v-0.9599609h0.5283203
			l0.1357422,0.7402344c0.1357422,0.1113281,0.2978516,0.2021484,0.4863281,0.2734375
			c0.1875,0.0703125,0.4130859,0.1054688,0.6748047,0.1054688c0.3554688,0,0.6357422-0.0742188,0.8417969-0.2226563
			s0.3095703-0.3505859,0.3095703-0.6054688c0-0.2363281-0.0898438-0.4345703-0.2685547-0.59375
			s-0.4941406-0.2939453-0.9472656-0.4023438c-0.5498047-0.1298828-0.9794922-0.3212891-1.2890625-0.5742188
			c-0.3105469-0.2519531-0.4648438-0.5703125-0.4648438-0.953125c0-0.4033203,0.1728516-0.7392578,0.5175781-1.0078125
			c0.3457031-0.2675781,0.7949219-0.4023438,1.3476563-0.4023438c0.3642578,0,0.6962891,0.0625,0.9951172,0.1865234
			s0.5390625,0.2744141,0.7197266,0.4511719V66.4492188z"/>
	</g>
	<g>
		<path class="st1" d="M54.5517578,70.0839844v-0.4462891l0.5820313-0.0996094v-4.0634766L54.5517578,65.375v-0.4492188h0.5820313
			h0.7041016h0.5820313V65.375l-0.5820313,0.0996094v4.0634766h1.8076172l0.0537109-0.5917969h0.6005859v1.1376953H54.5517578z"/>
	</g>
	<g id="XMLID_4_">
		<g>
			<rect x="25.5121269" y="25.375185" class="st7" width="34.0157471" height="33.6452179"/>
		</g>
		<g>
		</g>
	</g>
	<circle class="st8" cx="42.5200005" cy="41.408535" r="18.875"/>
	<linearGradient id="SVGID_1_" gradientUnits="userSpaceOnUse" x1="25.882658" y1="41.408535" x2="59.157341" y2="41.408535">
		<stop  offset="0" style="stop-color:#8BBE5C"/>
		<stop  offset="0.14134" style="stop-color:#8BBE5C;stop-opacity:0.943464"/>
		<stop  offset="1" style="stop-color:#8BBE5C;stop-opacity:0.6"/>
	</linearGradient>
	<circle class="st9" cx="42.5200005" cy="41.408535" r="16.6373425"/>
	<radialGradient id="SVGID_2_" cx="42.5200005" cy="41.408535" r="12.583333" gradientUnits="userSpaceOnUse">
		<stop  offset="0" style="stop-color:#F2F2F2;stop-opacity:0.48"/>
		<stop  offset="1" style="stop-color:#E5E4E0;stop-opacity:0"/>
	</radialGradient>
	<circle class="st10" cx="42.5200005" cy="41.408535" r="12.583333"/>
</g>
<g>
	<path class="st11" d="M75.118103,3.9458008c-3.300293,0-5.9754028,2.6751709-5.9754028,5.9754639
		c0,3.3002319,2.6751099,5.9754028,5.9754028,5.9754028s5.9754639-2.6751709,5.9754639-5.9754028
		C81.0935669,6.6209717,78.418396,3.9458008,75.118103,3.9458008z M75.1191406,14.3149414
		c-2.4279175,0-4.3947144-1.9667969-4.3947144-4.3927002c0-2.4279175,1.9667969-4.3947144,4.3947144-4.3947144
		c2.4258423,0,4.3927002,1.9667969,4.3927002,4.3947144C79.5118408,12.3481445,77.5449829,14.3149414,75.1191406,14.3149414z"/>
	<path class="st11" d="M75.118103,69.1426392c-3.2987671,0-5.9754028,2.6751709-5.9754028,5.9754639
		s2.6766357,5.9754028,5.9754028,5.9754028c3.300293,0,5.9754639-2.6751099,5.9754639-5.9754028
		S78.418396,69.1426392,75.118103,69.1426392z M75.1170654,79.5117798c-2.4258423,0-4.3926392-1.968811-4.3926392-4.3947144
		c0-2.4258423,1.9667969-4.3927002,4.3926392-4.3927002c2.4279175,0,4.3947754,1.9668579,4.3947754,4.3927002
		C79.5118408,77.5429688,77.5449829,79.5117798,75.1170654,79.5117798z"/>
	<path class="st11" d="M9.9212646,69.1426392c-3.2987671,0-5.9754639,2.6751709-5.9754639,5.9754639
		s2.6766968,5.9754028,5.9754639,5.9754028c3.300293,0,5.9754028-2.6751099,5.9754028-5.9754028
		S13.2215576,69.1426392,9.9212646,69.1426392z M9.9212646,79.5117798c-2.4264526,0-4.3936768-1.9667969-4.3936768-4.3926392
		c0-2.4279175,1.9672241-4.3947754,4.3936768-4.3947754s4.3936768,1.9668579,4.3936768,4.3947754
		C14.3149414,77.5449829,12.3477173,79.5117798,9.9212646,79.5117798z"/>
	<path class="st11" d="M9.9212646,3.9458008c-3.2877808,0-5.9527588,2.6751709-5.9527588,5.9754639
		c0,3.3002319,2.664978,5.9754028,5.9527588,5.9754028c3.2877197,0,5.9527588-2.6751709,5.9527588-5.9754028
		C15.8740234,6.6209717,13.2089844,3.9458008,9.9212646,3.9458008z M9.9223022,14.3149414
		c-2.4279175,0-4.3947144-1.9667969-4.3947144-4.3927002c0-2.4279175,1.9667969-4.3947144,4.3947144-4.3947144
		c2.4258423,0,4.3926392,1.9667969,4.3926392,4.3947144C14.3149414,12.3481445,12.3481445,14.3149414,9.9223022,14.3149414z"/>
</g>
<g>
	<g id="XMLID_3_">
		<g>
			<rect x="67.8335953" y="29.1653061" class="st2" width="3.4358907" height="4.255477"/>
		</g>
		<g>
		</g>
	</g>
	<g id="XMLID_2_">
		<g>
			<rect x="74.9620514" y="29.1245918" class="st2" width="3.4376609" height="4.255477"/>
		</g>
		<g>
		</g>
	</g>
	<g id="XMLID_1_">
		<g>
			<rect x="70.5661087" y="29.4750843" class="st12" width="5.1611581" height="3.6058266"/>
		</g>
		<g>
		</g>
	</g>
	<g>
		<path class="st13" d="M72.2080078,31.8217773h-0.6962891v-0.1313477h0.2675781v-0.862793h-0.2675781v-0.1171875
			c0.0351563,0,0.0742188-0.003418,0.1162109-0.0092773s0.0732422-0.0146484,0.0947266-0.0263672
			c0.0253906-0.0141602,0.046875-0.0327148,0.0625-0.0546875c0.015625-0.0224609,0.0234375-0.0522461,0.0253906-0.0898438h0.1347656
			v1.1601563h0.2626953V31.8217773z"/>
		<path class="st13" d="M73.2285156,31.1777344c0,0.230957-0.0371094,0.4008789-0.109375,0.5087891
			s-0.1835938,0.1621094-0.3359375,0.1621094c-0.1542969,0-0.2675781-0.0546875-0.3388672-0.1640625
			c-0.0712891-0.1098633-0.1064453-0.277832-0.1064453-0.5048828c0-0.2290039,0.0351563-0.3979492,0.1074219-0.5068359
			c0.0722656-0.109375,0.1845703-0.1640625,0.3378906-0.1640625c0.1542969,0,0.2666016,0.0556641,0.3378906,0.1665039
			S73.2285156,30.9536133,73.2285156,31.1777344z M73,31.5703125c0.0214844-0.046875,0.0351563-0.1015625,0.0410156-0.1645508
			c0.0078125-0.0634766,0.0117188-0.1391602,0.0117188-0.2280273c0-0.0874023-0.0039063-0.1635742-0.0117188-0.2280273
			C73.0351563,30.8852539,73.0205078,30.8305664,73,30.7856445c-0.0205078-0.0444336-0.0478516-0.078125-0.0830078-0.1005859
			c-0.0341797-0.0224609-0.0791016-0.0336914-0.1337891-0.0336914s-0.0996094,0.0112305-0.1347656,0.0336914
			s-0.0634766,0.0566406-0.0839844,0.1020508c-0.0195313,0.0424805-0.0332031,0.0981445-0.0410156,0.1669922
			c-0.0068359,0.0683594-0.0097656,0.1435547-0.0097656,0.2255859c0,0.0898438,0.0019531,0.1650391,0.0087891,0.2255859
			s0.0205078,0.1147461,0.0410156,0.1625977c0.0185547,0.0449219,0.0458984,0.0791016,0.0810547,0.1025391
			c0.0341797,0.0239258,0.0800781,0.0356445,0.1386719,0.0356445c0.0537109,0,0.0986328-0.0112305,0.1347656-0.0336914
			C72.953125,31.6499023,72.9804688,31.6157227,73,31.5703125z"/>
		<path class="st13" d="M74.1757813,31.1777344c0,0.230957-0.0351563,0.4008789-0.1074219,0.5087891
			s-0.1855469,0.1621094-0.3378906,0.1621094c-0.1542969,0-0.2666016-0.0546875-0.3378906-0.1640625
			c-0.0712891-0.1098633-0.1064453-0.277832-0.1064453-0.5048828c0-0.2290039,0.0361328-0.3979492,0.1083984-0.5068359
			c0.0712891-0.109375,0.1835938-0.1640625,0.3359375-0.1640625c0.1542969,0,0.2675781,0.0556641,0.3388672,0.1665039
			S74.1757813,30.9536133,74.1757813,31.1777344z M73.9492188,31.5703125
			c0.0195313-0.046875,0.0332031-0.1015625,0.0410156-0.1645508C73.9970703,31.3422852,74,31.2666016,74,31.1777344
			c0-0.0874023-0.0029297-0.1635742-0.0097656-0.2280273c-0.0078125-0.0644531-0.0214844-0.1191406-0.0429688-0.1640625
			c-0.0195313-0.0444336-0.046875-0.078125-0.0820313-0.1005859s-0.0800781-0.0336914-0.1347656-0.0336914
			c-0.0537109,0-0.0986328,0.0112305-0.1337891,0.0336914c-0.0361328,0.0224609-0.0634766,0.0566406-0.0849609,0.1020508
			c-0.0195313,0.0424805-0.0322266,0.0981445-0.0390625,0.1669922c-0.0078125,0.0683594-0.0117188,0.1435547-0.0117188,0.2255859
			c0,0.0898438,0.0039063,0.1650391,0.0097656,0.2255859s0.0195313,0.1147461,0.0410156,0.1625977
			c0.0185547,0.0449219,0.0458984,0.0791016,0.0800781,0.1025391c0.0351563,0.0239258,0.0820313,0.0356445,0.1386719,0.0356445
			c0.0546875,0,0.0996094-0.0112305,0.1347656-0.0336914C73.9013672,31.6499023,73.9296875,31.6157227,73.9492188,31.5703125z"/>
		<path class="st13" d="M75.1269531,31.8217773h-0.8710938v-0.1806641c0.0605469-0.0517578,0.1210938-0.1035156,0.1816406-0.1557617
			c0.0605469-0.0517578,0.1171875-0.1030273,0.1699219-0.1542969c0.1103516-0.1074219,0.1855469-0.1923828,0.2265625-0.2558594
			c0.0410156-0.0629883,0.0625-0.1308594,0.0625-0.2041016c0-0.0668945-0.0224609-0.1191406-0.0664063-0.1567383
			c-0.0449219-0.0380859-0.1054688-0.0566406-0.1855469-0.0566406c-0.0517578,0-0.1083984,0.0087891-0.1699219,0.0273438
			c-0.0605469,0.0185547-0.1210938,0.046875-0.1787109,0.0849609h-0.0087891v-0.1816406
			c0.0410156-0.0200195,0.0957031-0.0385742,0.1640625-0.0551758c0.0683594-0.0170898,0.1347656-0.0253906,0.1982422-0.0253906
			c0.1318359,0,0.2353516,0.0322266,0.3105469,0.0957031s0.1123047,0.1499023,0.1123047,0.2587891
			c0,0.0488281-0.0058594,0.0947266-0.0185547,0.137207c-0.0126953,0.0419922-0.0302734,0.0825195-0.0556641,0.1206055
			c-0.0214844,0.0356445-0.0488281,0.0708008-0.078125,0.1054688c-0.03125,0.0341797-0.0673828,0.0727539-0.1103516,0.1147461
			c-0.0615234,0.0605469-0.1259766,0.1191406-0.1914063,0.1757813s-0.1269531,0.109375-0.1845703,0.1577148h0.6933594V31.8217773z"
			/>
	</g>
</g>
<g>
	<g id="XMLID_7_">
		<g>
			<rect x="67.8335953" y="21.8867188" class="st2" width="3.4358907" height="4.255477"/>
		</g>
		<g>
		</g>
	</g>
	<g id="XMLID_6_">
		<g>
			<rect x="74.9620514" y="21.8460045" class="st2" width="3.4376609" height="4.255477"/>
		</g>
		<g>
		</g>
	</g>
</g>
<g>
	<g id="XMLID_8_">
		<g>
			<rect x="67.8335953" y="50.9724159" class="st2" width="3.4358907" height="4.255477"/>
		</g>
		<g>
		</g>
	</g>
	<g id="XMLID_5_">
		<g>
			<rect x="74.9620514" y="50.9317017" class="st2" width="3.4376609" height="4.255477"/>
		</g>
		<g>
		</g>
	</g>
</g>
<g>
	<g id="XMLID_11_">
		<g>
			<rect x="74.6330414" y="44.1769409" class="st2" width="2.0956371" height="2.5941873"/>
		</g>
		<g>
		</g>
	</g>
</g>
<g>
	<g id="XMLID_12_">
		<g>
			<rect x="69.5660629" y="44.1769409" class="st2" width="2.0956371" height="2.5941873"/>
		</g>
		<g>
		</g>
	</g>
</g>
<g>
	<g id="XMLID_13_">
		<g>
			<rect x="72.0995483" y="37.4113159" class="st2" width="2.0956371" height="2.5941873"/>
		</g>
		<g>
		</g>
	</g>
</g>
<g>
	<g id="XMLID_10_">
		<g>
			<rect x="67.8335953" y="58.2658806" class="st2" width="3.4358907" height="4.255477"/>
		</g>
		<g>
		</g>
	</g>
	<g id="XMLID_9_">
		<g>
			<rect x="74.9620514" y="58.2251663" class="st2" width="3.4376609" height="4.255477"/>
		</g>
		<g>
		</g>
	</g>
</g>
<g>
	<ellipse class="st14" cx="11.1875" cy="35.2945251" rx="5.96875" ry="2.296875"/>
	<path class="st14" d="M17.15625,40.86409c0,1.268528-2.6723003,2.296875-5.96875,2.296875s-5.96875-1.028347-5.96875-2.296875"/>
	<line class="st14" x1="5.21875" y1="35.2945251" x2="5.21875" y2="40.86409"/>
	<line class="st14" x1="17.15625" y1="35.2945251" x2="17.15625" y2="40.86409"/>
	<path class="st14" d="M3.9817891,38.66119C3.0849102,39.3038864,2.5625,40.074894,2.5625,40.9039001
		c0,2.2436562,3.8265662,4.0625,8.546875,4.0625s8.546875-1.8188438,8.546875-4.0625
		c0-0.9183006-0.6410141-1.7654419-1.721962-2.4458389"/>
	<path class="st14" d="M2.5625,43.3099289c0,2.2436562,3.8265662,4.0625,8.546875,4.0625s8.546875-1.8188438,8.546875-4.0625"/>
	<line class="st14" x1="2.5625" y1="43.3099289" x2="2.5625" y2="40.9039001"/>
	<line class="st14" x1="19.65625" y1="43.3099289" x2="19.65625" y2="40.9039001"/>
	<g>
		<path class="st15" d="M8.3652344,35.3935547c0,0.2602539-0.074707,0.4755859-0.2236328,0.6455078
			s-0.34375,0.2548828-0.5849609,0.2548828c-0.2397461,0-0.4335938-0.0849609-0.581543-0.2548828
			c-0.1474609-0.1699219-0.2211914-0.3852539-0.2211914-0.6455078v-0.0273438c0-0.2587891,0.0732422-0.4736328,0.2207031-0.6445313
			s0.3408203-0.2558594,0.5810547-0.2558594c0.2407227,0,0.4360352,0.0849609,0.5854492,0.2558594
			s0.2241211,0.3857422,0.2241211,0.6445313V35.3935547z M8.0097656,35.3642578c0-0.184082-0.0380859-0.3334961-0.1147461-0.4482422
			s-0.1894531-0.171875-0.3393555-0.171875s-0.2612305,0.0566406-0.3349609,0.1708984
			c-0.0737305,0.1137695-0.1103516,0.2636719-0.1103516,0.4492188v0.0292969c0,0.1870117,0.0371094,0.3378906,0.1113281,0.4521484
			c0.074707,0.1142578,0.1865234,0.1713867,0.3349609,0.1713867c0.1508789,0,0.2636719-0.0571289,0.3398438-0.1713867
			c0.0751953-0.1142578,0.1132813-0.2651367,0.1132813-0.4521484V35.3642578z"/>
		<path class="st15" d="M10.1992188,34.4912109v0.2148438l-0.1904297,0.0366211v1.5258789H9.6533203l-0.7177734-1.1962891
			l-0.0068359,0.0009766v0.9453125l0.1904297,0.0361328v0.2138672H8.3828125v-0.2138672l0.1894531-0.0361328v-1.2758789
			l-0.1894531-0.0366211v-0.2148438h0.1894531h0.3564453L9.6464844,35.6875l0.0068359-0.0009766v-0.9438477l-0.1904297-0.0366211
			v-0.2148438h0.5458984H10.1992188z"/>
		<path class="st15" d="M10.355957,36.4208984h-0.2636719l0.6523438-1.9296875h0.2636719L10.355957,36.4208984z"/>
		<path class="st15" d="M12.6020508,35.3935547c0,0.2602539-0.074707,0.4755859-0.2236328,0.6455078
			s-0.34375,0.2548828-0.5849609,0.2548828c-0.2397461,0-0.4335938-0.0849609-0.581543-0.2548828
			c-0.1474609-0.1699219-0.2211914-0.3852539-0.2211914-0.6455078v-0.0273438c0-0.2587891,0.0732422-0.4736328,0.2207031-0.6445313
			s0.3408203-0.2558594,0.5810547-0.2558594c0.2407227,0,0.4360352,0.0849609,0.5854492,0.2558594
			s0.2241211,0.3857422,0.2241211,0.6445313V35.3935547z M12.246582,35.3642578c0-0.184082-0.0380859-0.3334961-0.1147461-0.4482422
			s-0.1894531-0.171875-0.3393555-0.171875s-0.2612305,0.0566406-0.3349609,0.1708984
			c-0.0737305,0.1137695-0.1103516,0.2636719-0.1103516,0.4492188v0.0292969c0,0.1870117,0.0371094,0.3378906,0.1113281,0.4521484
			c0.074707,0.1142578,0.1865234,0.1713867,0.3349609,0.1713867c0.1508789,0,0.2636719-0.0571289,0.3398438-0.1713867
			c0.0751953-0.1142578,0.1132813-0.2651367,0.1132813-0.4521484V35.3642578z"/>
		<path class="st15" d="M12.6196289,36.0546875l0.1894531-0.0361328v-1.2758789l-0.1894531-0.0366211v-0.2148438h1.4150391
			v0.4873047h-0.2734375l-0.0161133-0.2128906h-0.5795898v0.4897461h0.6220703v0.2749023h-0.6220703v0.4882813l0.1904297,0.0361328
			v0.2138672h-0.7363281V36.0546875z"/>
		<path class="st15" d="M14.0385742,36.0546875l0.1894531-0.0361328v-1.2758789l-0.1894531-0.0366211v-0.2148438h1.4150391
			v0.4873047h-0.2734375l-0.0161133-0.2128906h-0.5795898v0.4897461h0.6220703v0.2749023h-0.6220703v0.4882813l0.1904297,0.0361328
			v0.2138672h-0.7363281V36.0546875z"/>
	</g>
</g>
<g>
</g>
<g>
</g>
<g>
</g>
<g>
</g>
<g>
</g>
</svg>
