<?xml version="1.0" encoding="utf-8"?>
<!-- Generator: Adobe Illustrator 22.0.1, SVG Export Plug-In . SVG Version: 6.00 Build 0)  -->
<svg version="1.1" xmlns="http://www.w3.org/2000/svg" xmlns:xlink="http://www.w3.org/1999/xlink" x="0px" y="0px"
	 viewBox="0 0 114.8031464 29.6898098" style="enable-background:new 0 0 114.8031464 29.6898098;" xml:space="preserve">
<style type="text/css">
	.st0{fill:#1B1917;}
	.st1{fill:#FFFFFF;stroke:#0E0F0F;stroke-width:0.2301535;stroke-miterlimit:10;}
	.st2{fill:#0E0F0F;}
	.st3{fill:#FFFFFF;}
	.st4{fill:#FFFFFF;stroke:#0E0F0F;stroke-width:0.1150768;stroke-miterlimit:10;}
	.st5{fill:none;stroke:#FFFFFF;stroke-width:0.9206141;stroke-miterlimit:10;}
	.st6{fill:#DB924D;stroke:#656465;stroke-width:0.0251334;stroke-miterlimit:10;}
	.st7{fill:#E4AB55;stroke:#B2B2B2;stroke-width:0.0273058;stroke-miterlimit:10;}
	.st8{fill:none;stroke:#808080;stroke-width:0.0123544;stroke-miterlimit:10;}
	.st9{fill:#CBC5BA;}
	.st10{fill:#35322E;}
	.st11{fill:#B3B3B2;}
	.st12{fill:#CEC7BD;}
	.st13{fill:#918C84;}
	.st14{fill:#9E9B9C;}
</style>
<g id="Слой_1">
</g>
<g id="Страница_18_Датчик_линии">
	<g id="Датчик_линии">
		<path class="st0" d="M0,0v29.6898098h114.8031464V0H0z M103.2187424,21.5493641
			c-1.4359589,0-2.6000443-1.1640854-2.6000443-2.6000443s1.1640854-2.6000443,2.6000443-2.6000443
			s2.6000443,1.1640854,2.6000443,2.6000443S104.6547012,21.5493641,103.2187424,21.5493641z M103.2187424,14.3678541
			c-1.4359589,0-2.6000443-1.1640568-2.6000443-2.6000166c0-1.4359875,1.1640854-2.6000443,2.6000443-2.6000443
			s2.6000443,1.1640568,2.6000443,2.6000443C105.8187866,13.2037973,104.6547012,14.3678541,103.2187424,14.3678541z
			 M111.0823441,21.5493641c-1.4359589,0-2.6000443-1.1640854-2.6000443-2.6000443s1.1640854-2.6000443,2.6000443-2.6000443
			s2.6000443,1.1640854,2.6000443,2.6000443S112.5183029,21.5493641,111.0823441,21.5493641z M111.0823441,14.3678541
			c-1.4359589,0-2.6000443-1.1640568-2.6000443-2.6000166c0-1.4359875,1.1640854-2.6000443,2.6000443-2.6000443
			s2.6000443,1.1640568,2.6000443,2.6000443C113.6823883,13.2037973,112.5183029,14.3678541,111.0823441,14.3678541z
			 M46.7704315,18.7761993c-2.4258423,0-4.3926392-1.9667969-4.3926392-4.3926392
			c0-2.4279175,1.9667969-4.3947144,4.3926392-4.3947144c2.4259033,0,4.3947754,1.9667969,4.3947754,4.3947144
			C51.1652069,16.8094025,49.1963348,18.7761993,46.7704315,18.7761993z"/>
		<rect x="8.4168301" y="8.2855282" class="st1" width="30.0350418" height="14.1544447"/>
		<g>
			<path class="st2" d="M16.2621269,15.8076477h-0.7148447v-0.965332h-2.4086914v0.965332h-0.7250977l-0.0595703-1.5693359
				h0.3022461c0.1401367-0.1206055,0.262207-0.3105469,0.3666992-0.5708008
				c0.1040039-0.2597656,0.1655273-0.6411133,0.1831055-1.1445313l0.0732422-1.0576172l-0.3833008-0.0751953v-0.4746094h3.3930674
				v0.4746094l-0.4179697,0.0805664v2.7675781h0.4638681L16.2621269,15.8076477z M13.996501,12.5229797
				c-0.0161133,0.3974609-0.0634766,0.7348633-0.1416016,1.0126953s-0.1801758,0.5117188-0.3061523,0.7026367h1.534668v-2.7163086
				h-1.0224609L13.996501,12.5229797z"/>
			<path class="st2" d="M18.6825371,14.8423157c-0.0214844-0.0483398-0.0405273-0.0986328-0.0566406-0.1499023
				s-0.0288086-0.1025391-0.0380859-0.1547852c-0.0932617,0.1079102-0.2070313,0.1948242-0.3408203,0.2617188
				c-0.1342773,0.0664063-0.2875977,0.0996094-0.4599609,0.0996094c-0.2861328,0-0.5131836-0.0776367-0.6811523-0.2333984
				c-0.1679688-0.1552734-0.2519531-0.3671875-0.2519531-0.6352539c0-0.2729492,0.109375-0.484375,0.3291016-0.6337891
				c0.2192383-0.1489258,0.5410156-0.2236328,0.965332-0.2236328h0.4018555v-0.2861328
				c0-0.1401367-0.0405273-0.2490234-0.1210938-0.3261719c-0.0810547-0.0771484-0.2006836-0.1162109-0.3588867-0.1162109
				c-0.0898438,0-0.1699219,0.0107422-0.2402344,0.03125c-0.0698242,0.0205078-0.1264648,0.0454102-0.1699219,0.0742188
				l-0.0512695,0.3129883h-0.5932617l0.0029297-0.6474609c0.1435547-0.097168,0.3085938-0.1787109,0.4946289-0.2456055
				c0.1860352-0.0664063,0.3891602-0.0996094,0.6083984-0.0996094c0.3613281,0,0.6547852,0.0883789,0.8803711,0.265625
				s0.3388672,0.4291992,0.3388672,0.7563477v1.2055664c0,0.0454102,0,0.0874023,0.0009766,0.1269531
				s0.0043945,0.0771484,0.0097656,0.1132813l0.2397461,0.0322266v0.472168H18.6825371z M17.9999199,14.3164368
				c0.1186523,0,0.2265625-0.0258789,0.3237305-0.0771484c0.097168-0.0507813,0.1728516-0.1152344,0.2265625-0.1923828V13.601593
				h-0.4018555c-0.1669922,0-0.2939453,0.0390625-0.3803711,0.1171875
				c-0.0859375,0.0786133-0.1293945,0.1723633-0.1293945,0.2822266c0,0.0986328,0.0317383,0.1762695,0.0957031,0.2319336
				S17.8866386,14.3164368,17.9999199,14.3164368z"/>
			<path class="st2" d="M23.0072441,11.9238586v0.9956055h-0.6044922l-0.0322266-0.394043h-0.4990234v1.7641602l0.4179688,0.0805664
				v0.472168h-1.6264648v-0.472168l0.418457-0.0805664v-1.7641602h-0.4882813l-0.0297852,0.394043h-0.6040039v-0.9956055H23.0072441
				z"/>
			<path class="st2" d="M25.0043144,11.9238586v0.472168l-0.3369141,0.0810547v0.3637695
				c0,0.1928711,0.0419922,0.3256836,0.1264648,0.3994141s0.2275391,0.1103516,0.4291992,0.1103516
				c0.0664063,0,0.1323242-0.003418,0.1982422-0.0107422c0.0654297-0.0068359,0.1323242-0.0175781,0.2006836-0.0322266v-0.828125
				l-0.3398438-0.0805664v-0.4750977h1.5483398v0.4750977l-0.4208984,0.0805664v1.8100586l0.4208984,0.0805664v0.472168h-1.6293945
				v-0.472168l0.4208984-0.0805664v-0.3725586c-0.0664063,0.0146484-0.1342773,0.0249023-0.2036133,0.03125
				S25.2840996,13.95755,25.2230644,13.95755c-0.4301758,0-0.7612305-0.0917969-0.9941406-0.2749023
				c-0.2329102-0.1835938-0.3491211-0.4638672-0.3491211-0.8417969v-0.3637695l-0.4179688-0.0810547v-0.472168h1.2055664H25.0043144
				z"/>
			<path class="st2" d="M29.0184746,11.9238586v0.4750977l-0.3774414,0.0805664v1.2163086l0.0161133,0.0029297l0.949707-1.7749023
				h0.7875977h0.4179688v0.4750977l-0.4179688,0.0805664v1.8100586l0.4179688,0.0805664v0.472168h-1.5834961v-0.472168
				l0.3779297-0.0805664v-1.222168l-0.0166016-0.0024414l-0.9492188,1.7773438h-1.2080078v-0.472168l0.4204102-0.0805664v-1.8100586
				l-0.4204102-0.0805664v-0.4750977h1.2080078H29.0184746z"/>
			<path class="st2" d="M31.4364433,12.3989563v-0.4750977h1.5639648v0.4750977l-0.3583984,0.0805664v0.5556641h0.2695313
				l0.4370117-0.6474609c0.1098633-0.1689453,0.2246094-0.2958984,0.3452148-0.3813477s0.2705078-0.128418,0.4501953-0.128418
				c0.090332,0,0.1708984,0.0126953,0.2431641,0.0380859c0.0717773,0.0249023,0.1425781,0.059082,0.2128906,0.1025391
				l-0.1323242,0.5444336c-0.0537109-0.0141602-0.0874023-0.0229492-0.1010742-0.0268555
				c-0.0131836-0.003418-0.0380859-0.0053711-0.0742188-0.0053711c-0.0537109,0-0.1108398,0.0209961-0.1713867,0.0620117
				c-0.0600586,0.0415039-0.1118164,0.09375-0.1547852,0.1567383l-0.3774414,0.5498047l0.6767578,1.0063477l0.3964844,0.0644531
				v0.472168h-1.081543l-0.6367188-1.0922852h-0.3017578v0.5395508l0.3583984,0.0805664v0.472168h-1.5639648v-0.472168
				l0.4204102-0.0805664v-1.8100586L31.4364433,12.3989563z"/>
			<path class="st2" d="M15.2533369,17.5063782l-0.0107422,1.1816406c-0.0087891,0.7626953-0.1201172,1.3095703-0.3330078,1.640625
				c-0.2133789,0.3320313-0.543457,0.4980469-0.9912109,0.4980469H13.72404v-0.6044922h0.1054688
				c0.2441406-0.0195313,0.4077148-0.1347656,0.4907227-0.3466797c0.0825195-0.2109375,0.1274414-0.6064453,0.1347656-1.1875
				l0.0136719-1.2324219l-0.4125977-0.0810547v-0.4746094h3.0878916h0.4208984v0.4746094l-0.4208984,0.0810547v2.8183594
				l0.4208984,0.0810547v0.4716797h-1.6264658V20.355011l0.4208994-0.0810547v-2.7675781H15.2533369z"/>
			<path class="st2" d="M19.6908379,17.9087219v0.4746094l-0.3774414,0.0810547v1.2158203l0.0161133,0.0029297l0.949707-1.7744141
				h0.7875977h0.4179688v0.4746094l-0.4179688,0.0810547v1.8095703l0.4179688,0.0810547v0.4716797h-1.5834961V20.355011
				l0.3779297-0.0810547v-1.2216797l-0.0166016-0.0029297l-0.9492188,1.7773438h-1.2080078V20.355011l0.4204102-0.0810547V18.464386
				l-0.4204102-0.0810547v-0.4746094h1.2080078H19.6908379z"/>
			<path class="st2" d="M22.0931816,18.3833313v-0.4746094h1.5454102v0.4746094L23.298748,18.464386v0.625h0.9599609v-0.625
				l-0.3369141-0.0810547v-0.4746094h0.3369141h0.7875977h0.4208984v0.4746094l-0.4208984,0.0810547v1.8095703l0.4208984,0.0810547
				v0.4716797h-1.5454102V20.355011l0.3369141-0.0810547v-0.5800781H23.298748v0.5800781l0.3398438,0.0810547v0.4716797h-1.5454102
				V20.355011l0.4204102-0.0810547V18.464386L22.0931816,18.3833313z"/>
			<path class="st2" d="M27.6605644,17.9087219v0.4746094L27.283123,18.464386v1.2158203l0.0161133,0.0029297l0.949707-1.7744141
				h0.7875977h0.4179688v0.4746094L29.036541,18.464386v1.8095703l0.4179688,0.0810547v0.4716797h-1.5834961V20.355011
				l0.3779297-0.0810547v-1.2216797l-0.0166016-0.0029297l-0.9492188,1.7773438h-1.2080078V20.355011l0.4204102-0.0810547V18.464386
				l-0.4204102-0.0810547v-0.4746094h1.2080078H27.6605644z"/>
			<path class="st2" d="M31.6483574,17.9087219v0.4746094L31.270916,18.464386v1.2158203l0.0161133,0.0029297l0.949707-1.7744141
				h0.7875977h0.4179688v0.4746094L33.024334,18.464386v1.8095703l0.4179688,0.0810547v0.4716797h-1.5834961V20.355011
				l0.3779297-0.0810547v-1.2216797l-0.0166016-0.0029297l-0.9492188,1.7773438h-1.2080078V20.355011l0.4204102-0.0810547V18.464386
				l-0.4204102-0.0810547v-0.4746094h1.2080078H31.6483574z"/>
		</g>
		<g>
			<path class="st3" d="M15.3812666,5.9717097h-0.5175781l-0.1943359,1.105957h-0.4960938l0.1938477-1.105957h-0.6123047V5.5161433
				h0.6904297l0.1376953-0.7822266h-0.6230469V4.272491h0.7041016l0.199707-1.1215818h0.4931641L15.1600752,4.272491h0.5180664
				l0.1967773-1.1215818h0.4960947L16.1717949,4.272491h0.5932617v0.4614258h-0.6743164l-0.1376963,0.7822266h0.6098642v0.4555664
				h-0.6879892l-0.1943359,1.105957h-0.4931641L15.3812666,5.9717097z M14.9418135,5.5161433h0.5175781l0.1376953-0.7822266
				h-0.5175781L14.9418135,5.5161433z"/>
			<path class="st3" d="M18.3793144,3.4448545v0.7143552h0.512207v0.5532227h-0.512207v1.4858398
				c0,0.1132813,0.0234375,0.1943359,0.0698242,0.2426758c0.046875,0.0488281,0.1098633,0.0732422,0.1889648,0.0732422
				c0.0537109,0,0.1010742-0.0024414,0.1416016-0.0068359s0.0859375-0.012207,0.1362305-0.0229492l0.0673828,0.5688477
				c-0.0878906,0.0273438-0.175293,0.0473633-0.2617188,0.0610352c-0.0864258,0.0131836-0.1796875,0.0200195-0.2802734,0.0200195
				c-0.2714844,0-0.4804688-0.074707-0.6274414-0.2236328c-0.1464844-0.1494141-0.2197266-0.3857422-0.2197266-0.7094727V4.7124324
				h-0.4287109V4.1592097h0.4287109V3.4448545H18.3793144z"/>
			<path class="st3" d="M19.5023613,6.6054988l0.3774414-0.0805664V4.7148738L19.461834,4.6343074V4.1592097h1.1513672
				l0.0351563,0.4262695c0.0683594-0.1508789,0.15625-0.2685547,0.2641602-0.3530273
				c0.1079102-0.0849609,0.2329102-0.1269531,0.375-0.1269531c0.0415039,0,0.0849609,0.0029297,0.1308594,0.0092773
				s0.0839844,0.0141602,0.1147461,0.0229492l-0.0834961,0.7172852L21.1258965,4.847198
				c-0.1152344,0-0.2104492,0.0224609-0.2861328,0.0673828c-0.0751953,0.0449219-0.1328125,0.1088867-0.1723633,0.1914063v1.4189453
				l0.3774414,0.0805664v0.472168h-1.5424805V6.6054988z"/>
			<path class="st3" d="M23.2792168,7.1343074c-0.4204102,0-0.7568359-0.1347656-1.0087891-0.4047852
				c-0.2514648-0.2695313-0.3774414-0.6118164-0.3774414-1.0273438V5.5942683c0-0.4331055,0.1191406-0.7900391,0.3574219-1.0708008
				c0.2382813-0.2802734,0.5576172-0.4199219,0.9589844-0.4179688c0.3935547,0,0.6992188,0.1186523,0.9169922,0.355957
				c0.2172852,0.2373047,0.3261719,0.5581055,0.3261719,0.9628906v0.4287109h-1.7421875L22.704998,5.8691707
				c0.0141602,0.1923828,0.0786133,0.3505859,0.1928711,0.4750977c0.1137695,0.1240234,0.269043,0.1860352,0.4648438,0.1860352
				c0.1748047,0,0.3193359-0.0175781,0.4345703-0.0527344c0.1147461-0.0351563,0.2407227-0.090332,0.3774414-0.1660156
				l0.2128906,0.4858398c-0.1201172,0.0952148-0.2763672,0.175293-0.4677734,0.2397461
				C23.7284355,7.1020808,23.5150566,7.1343074,23.2792168,7.1343074z M23.2093925,4.7124324
				c-0.1459961,0-0.2607422,0.0556641-0.3452148,0.1669922C22.7792168,4.991241,22.727459,5.1377254,22.7074394,5.319366
				l0.0083008,0.0131836h0.965332V5.2627254c0-0.1674805-0.0390625-0.3007813-0.1171875-0.4008789
				C23.4857597,4.7622371,23.3675957,4.7124324,23.2093925,4.7124324z"/>
			<path class="st3" d="M24.8988457,4.6343074V4.1592097h1.1518555l0.0322266,0.3857422
				c0.09375-0.1401367,0.2109375-0.2485352,0.3520508-0.324707c0.1411133-0.0766602,0.3041992-0.1147461,0.4892578-0.1147461
				c0.1870117,0,0.347168,0.0415039,0.4804688,0.1240234c0.1328125,0.0825195,0.2333984,0.2075195,0.3017578,0.375
				c0.0898438-0.1567383,0.2070313-0.2788086,0.3505859-0.3666992c0.144043-0.0883789,0.3129883-0.1323242,0.5073242-0.1323242
				c0.2875977,0,0.5146484,0.0991211,0.6811523,0.2978516c0.1660156,0.1987305,0.2495117,0.5014648,0.2495117,0.9077148v1.2138672
				l0.3798828,0.0805664v0.472168h-1.5073242v-0.472168l0.3398438-0.0805664V5.3081355
				c0-0.2207031-0.0361328-0.3745117-0.1079102-0.4609375c-0.0722656-0.0864258-0.1791992-0.1293945-0.3212891-0.1293945
				c-0.1113281,0-0.2080078,0.0244141-0.2895508,0.0742188c-0.0820313,0.0493164-0.1469727,0.1181641-0.1958008,0.2060547
				c0,0.0341797,0.0009766,0.0634766,0.0029297,0.0878906c0.0014648,0.0239258,0.0024414,0.0488281,0.0024414,0.0742188v1.3647461
				l0.3183594,0.0805664v0.472168h-1.4213867v-0.472168l0.3183594-0.0805664V5.3081355
				c0-0.215332-0.0361328-0.3681641-0.1079102-0.4570313c-0.0722656-0.0888672-0.1796875-0.1333008-0.3237305-0.1333008
				c-0.105957,0-0.1992188,0.0200195-0.2792969,0.0605469s-0.1459961,0.0976563-0.1982422,0.1713867v1.5751953l0.3398438,0.0805664
				v0.472168H24.939373v-0.472168l0.3803711-0.0805664V4.7148738L24.8988457,4.6343074z"/>
			<path class="st3" d="M32.1527519,7.0776668c-0.0214844-0.0483398-0.0405273-0.0986328-0.0566406-0.1499023
				s-0.0288086-0.1025391-0.0380859-0.1547852c-0.0932617,0.1079102-0.2070313,0.1948242-0.3408203,0.2617188
				c-0.1342773,0.0664063-0.2875977,0.0996094-0.4599609,0.0996094c-0.2861328,0-0.5131836-0.0776367-0.6811523-0.2333984
				c-0.1679688-0.1552734-0.2519531-0.3671875-0.2519531-0.6352539c0-0.2729492,0.109375-0.484375,0.3291016-0.6337891
				c0.2192383-0.1489258,0.5410156-0.2236328,0.965332-0.2236328h0.4018555V5.1221004
				c0-0.1401367-0.0405273-0.2490234-0.1210938-0.3261719c-0.0810547-0.0771484-0.2006836-0.1162109-0.3588867-0.1162109
				c-0.0898438,0-0.1699219,0.0107422-0.2402344,0.03125c-0.0698242,0.0205078-0.1264648,0.0454102-0.1699219,0.0742188
				l-0.0512695,0.3129883h-0.5932617l0.0029297-0.6474609c0.1435547-0.097168,0.3085938-0.1787109,0.4946289-0.2456055
				c0.1860352-0.0664063,0.3891602-0.0996094,0.6083984-0.0996094c0.3613281,0,0.6547852,0.0883789,0.8803711,0.265625
				S32.810955,4.800323,32.810955,5.1274714v1.2055664c0,0.0454102,0,0.0874023,0.0009766,0.1269531
				s0.0043945,0.0771484,0.0097656,0.1132813l0.2397461,0.0322266v0.472168H32.1527519z M31.4701347,6.5517879
				c0.1186523,0,0.2265625-0.0258789,0.3237305-0.0771484c0.097168-0.0507813,0.1728516-0.1152344,0.2265625-0.1923828V5.8369441
				h-0.4018555c-0.1669922,0-0.2939453,0.0390625-0.3803711,0.1171875
				c-0.0859375,0.0786133-0.1293945,0.1723633-0.1293945,0.2822266c0,0.0986328,0.0317383,0.1762695,0.0957031,0.2319336
				S31.3568535,6.5517879,31.4701347,6.5517879z"/>
		</g>
		<g>
			<path class="st3" d="M85.8500137,14.2583313c0.2978516,0,0.5302734,0.0683594,0.7001953,0.2041016
				c0.1689453,0.1362305,0.2529297,0.3242188,0.2529297,0.5639648c0,0.1318359-0.0351563,0.2460938-0.1064453,0.3432617
				c-0.0703125,0.097168-0.1738281,0.1757813-0.3105469,0.2358398c0.1542969,0.0454102,0.265625,0.1210938,0.3339844,0.2270508
				c0.0673828,0.1064453,0.1015625,0.237793,0.1015625,0.3950195v0.1323242c0,0.0585938,0.0107422,0.1025391,0.0341797,0.1347656
				c0.0224609,0.03125,0.0595703,0.0507813,0.1132813,0.0566406l0.0644531,0.0087891v0.3164063h-0.2714844
				c-0.171875,0-0.2919922-0.0458984-0.3613281-0.1386719c-0.0703125-0.0927734-0.1044922-0.2119141-0.1044922-0.3574219v-0.1494141
				c0-0.1269531-0.0341797-0.2270508-0.1015625-0.2993164c-0.0673828-0.0727539-0.1630859-0.1108398-0.2871094-0.1142578h-0.4296875
				v0.690918l0.2802734,0.0537109v0.3144531h-1.0839844v-0.3144531l0.2783203-0.0537109v-1.8793945l-0.2783203-0.0541992v-0.3164063
				h0.2783203H85.8500137z M85.4779434,15.4126282h0.3632813c0.1464844,0,0.2558594-0.0307617,0.3291016-0.0932617
				s0.109375-0.1523438,0.109375-0.2695313c0-0.1176758-0.0361328-0.2114258-0.1083984-0.2817383
				c-0.0722656-0.0698242-0.1796875-0.1049805-0.3212891-0.1049805h-0.3720703V15.4126282z"/>
			<path class="st3" d="M88.1488419,14.2583313v0.3164063l-0.2802734,0.0541992v1.3666992
				c0,0.1723633,0.0458984,0.3017578,0.1396484,0.3876953c0.0927734,0.0859375,0.2197266,0.1279297,0.3818359,0.1279297
				c0.1640625,0,0.2929688-0.0419922,0.3867188-0.1279297c0.0927734-0.0839844,0.1396484-0.2138672,0.1396484-0.3876953v-1.3666992
				l-0.2783203-0.0541992v-0.3164063h1.0839844v0.3164063l-0.2802734,0.0541992v1.3666992
				c0,0.2939453-0.0966797,0.5205078-0.2900391,0.6796875c-0.1943359,0.1591797-0.4482422,0.2392578-0.7617188,0.2392578
				s-0.5654297-0.0800781-0.7578125-0.2392578s-0.2890625-0.3857422-0.2890625-0.6796875v-1.3666992l-0.2783203-0.0541992
				v-0.3164063h0.2783203h0.5253906H88.1488419z"/>
			<path class="st3" d="M91.7562637,15.0947571h-0.3945313l-0.0683594-0.3598633
				c-0.0449219-0.0288086-0.1113281-0.0537109-0.1992188-0.0751953c-0.0878906-0.0219727-0.1806641-0.0327148-0.2783203-0.0327148
				c-0.1445313,0-0.2558594,0.0302734-0.3339844,0.0908203s-0.1181641,0.1386719-0.1181641,0.2348633
				c0,0.0883789,0.0410156,0.1616211,0.1240234,0.2182617c0.0820313,0.0571289,0.2236328,0.1171875,0.4248047,0.1806641
				c0.2890625,0.0805664,0.5078125,0.1865234,0.6572266,0.3183594s0.2236328,0.3051758,0.2236328,0.5195313
				c0,0.2241211-0.0888672,0.4008789-0.265625,0.5307617c-0.1777344,0.1298828-0.4111328,0.1943359-0.7011719,0.1943359
				c-0.2080078,0-0.3955078-0.0332031-0.5625-0.0996094c-0.1669922-0.0654297-0.3066406-0.15625-0.4179688-0.2734375V15.995636
				h0.40625l0.0556641,0.3720703c0.0527344,0.0429688,0.125,0.078125,0.2148438,0.1074219
				c0.0908203,0.0273438,0.1914063,0.0419922,0.3037109,0.0419922c0.1435547,0,0.2529297-0.0302734,0.328125-0.0888672
				c0.0742188-0.0585938,0.1123047-0.1367188,0.1123047-0.2348633c0-0.1010742-0.0361328-0.1816406-0.1074219-0.2426758
				c-0.0712891-0.0615234-0.1962891-0.1191406-0.375-0.1728516c-0.3105469-0.0898438-0.5449219-0.1967773-0.7050781-0.3198242
				c-0.1591797-0.1235352-0.2382813-0.2924805-0.2382813-0.5073242c0-0.2119141,0.0898438-0.3857422,0.2695313-0.5205078
				s0.4052734-0.2041016,0.6777344-0.2075195c0.2011719,0,0.3847656,0.0302734,0.5498047,0.0913086
				c0.1660156,0.0615234,0.3046875,0.1430664,0.4179688,0.2446289V15.0947571z"/>
			<path class="st3" d="M93.878334,15.0947571h-0.3945313l-0.0683594-0.3598633
				c-0.0449219-0.0288086-0.1113281-0.0537109-0.1992188-0.0751953c-0.0878906-0.0219727-0.1806641-0.0327148-0.2783203-0.0327148
				c-0.1445313,0-0.2558594,0.0302734-0.3339844,0.0908203s-0.1181641,0.1386719-0.1181641,0.2348633
				c0,0.0883789,0.0410156,0.1616211,0.1240234,0.2182617c0.0820313,0.0571289,0.2236328,0.1171875,0.4248047,0.1806641
				c0.2890625,0.0805664,0.5078125,0.1865234,0.6572266,0.3183594s0.2236328,0.3051758,0.2236328,0.5195313
				c0,0.2241211-0.0888672,0.4008789-0.265625,0.5307617c-0.1777344,0.1298828-0.4111328,0.1943359-0.7011719,0.1943359
				c-0.2080078,0-0.3955078-0.0332031-0.5625-0.0996094c-0.1669922-0.0654297-0.3066406-0.15625-0.4179688-0.2734375V15.995636
				h0.40625l0.0556641,0.3720703c0.0527344,0.0429688,0.125,0.078125,0.2148438,0.1074219
				c0.0908203,0.0273438,0.1914063,0.0419922,0.3037109,0.0419922c0.1435547,0,0.2529297-0.0302734,0.328125-0.0888672
				c0.0742188-0.0585938,0.1123047-0.1367188,0.1123047-0.2348633c0-0.1010742-0.0361328-0.1816406-0.1074219-0.2426758
				c-0.0712891-0.0615234-0.1962891-0.1191406-0.375-0.1728516c-0.3105469-0.0898438-0.5449219-0.1967773-0.7050781-0.3198242
				c-0.1591797-0.1235352-0.2382813-0.2924805-0.2382813-0.5073242c0-0.2119141,0.0898438-0.3857422,0.2695313-0.5205078
				s0.4052734-0.2041016,0.6777344-0.2075195c0.2011719,0,0.3847656,0.0302734,0.5498047,0.0913086
				c0.1660156,0.0615234,0.3046875,0.1430664,0.4179688,0.2446289V15.0947571z"/>
			<path class="st3" d="M94.01017,14.5747375v-0.3164063h1.0849609v0.3164063l-0.28125,0.0541992v1.8793945l0.28125,0.0537109
				v0.3144531H94.01017v-0.3144531l0.2802734-0.0537109v-1.8793945L94.01017,14.5747375z"/>
			<path class="st3" d="M95.1566544,16.5620422l0.1875-0.0273438l0.796875-2.2763672h0.5371094l0.7910156,2.2763672
				l0.1875,0.0273438v0.3144531h-0.8916016v-0.3144531l0.1816406-0.0322266l-0.1152344-0.3598633h-0.8486328l-0.1152344,0.3598633
				l0.1816406,0.0322266v0.3144531h-0.8925781V16.5620422z M96.1068497,15.7832336h0.6005859l-0.2949219-0.9223633h-0.0107422
				L96.1068497,15.7832336z"/>
		</g>
		<g>
			<path class="st3" d="M12.5804853,26.6284485h-0.5175781l-0.1943359,1.1054688h-0.4960938l0.1938477-1.1054688h-0.6123047
				v-0.4560547h0.6904297l0.1376953-0.7822266h-0.6230469v-0.4609375h0.7041016l0.199707-1.1220703h0.4931641l-0.1967773,1.1220703
				h0.5180664l0.1967773-1.1220703h0.4960938l-0.1992188,1.1220703h0.5932617v0.4609375H13.289958l-0.1376953,0.7822266h0.6098633
				v0.4560547h-0.6879883l-0.1943359,1.1054688h-0.4931641L12.5804853,26.6284485z M12.1410322,26.1723938h0.5175781
				l0.1376953-0.7822266h-0.5175781L12.1410322,26.1723938z"/>
			<path class="st3" d="M14.3915205,27.2622375l0.3803711-0.0810547v-1.8095703l-0.4208984-0.0810547v-0.4746094h1.2084961
				v2.3652344l0.3774414,0.0810547v0.4716797h-1.5454102V27.2622375z M15.5594893,24.1167297h-0.7875977V23.526886h0.7875977
				V24.1167297z"/>
			<path class="st3" d="M18.2201347,27.7339172c-0.0214844-0.0488281-0.0405273-0.0986328-0.0566406-0.1494141
				c-0.0161133-0.0517578-0.0288086-0.1035156-0.0380859-0.1552734c-0.0932617,0.1074219-0.2070313,0.1953125-0.3408203,0.2617188
				c-0.1342773,0.0664063-0.2875977,0.0996094-0.4599609,0.0996094c-0.2861328,0-0.5131836-0.078125-0.6811523-0.2333984
				s-0.2519531-0.3671875-0.2519531-0.6347656c0-0.2734375,0.109375-0.484375,0.3291016-0.6337891
				c0.2192383-0.1494141,0.5410156-0.2246094,0.965332-0.2246094h0.4018555v-0.2851563
				c0-0.140625-0.0405273-0.2490234-0.1210938-0.3271484c-0.0810547-0.0771484-0.2006836-0.1152344-0.3588867-0.1152344
				c-0.0898438,0-0.1699219,0.0097656-0.2402344,0.0302734c-0.0698242,0.0214844-0.1264648,0.0458984-0.1699219,0.0742188
				l-0.0512695,0.3134766h-0.5932617l0.0029297-0.6474609c0.1435547-0.0966797,0.3085938-0.1787109,0.4946289-0.2451172
				s0.3891602-0.1005859,0.6083984-0.1005859c0.3613281,0,0.6547852,0.0888672,0.8803711,0.265625
				c0.2255859,0.1777344,0.3388672,0.4296875,0.3388672,0.7568359v1.2060547c0,0.0449219,0,0.0869141,0.0009766,0.1269531
				c0.0009766,0.0390625,0.0043945,0.0771484,0.0097656,0.1132813l0.2397461,0.0322266v0.4716797H18.2201347z M17.5375175,27.20755
				c0.1186523,0,0.2265625-0.0253906,0.3237305-0.0761719c0.097168-0.0517578,0.1728516-0.1162109,0.2265625-0.1933594v-0.4443359
				H17.685955c-0.1669922,0-0.2939453,0.0390625-0.3803711,0.1171875c-0.0859375,0.078125-0.1293945,0.171875-0.1293945,0.28125
				c0,0.0996094,0.0317383,0.1767578,0.0957031,0.2324219S17.4242363,27.20755,17.5375175,27.20755z"/>
			<path class="st3" d="M19.6210136,27.2622375l0.3774414-0.0810547v-1.8095703l-0.4179688-0.0810547v-0.4746094h1.1513672
				l0.0351563,0.4257813c0.0683594-0.1513672,0.15625-0.2685547,0.2641602-0.3535156
				c0.1079102-0.0839844,0.2329102-0.1269531,0.375-0.1269531c0.0415039,0,0.0849609,0.0039063,0.1308594,0.0097656
				c0.0458984,0.0068359,0.0839844,0.0136719,0.1147461,0.0234375l-0.0834961,0.7167969l-0.3237305-0.0078125
				c-0.1152344,0-0.2104492,0.0224609-0.2861328,0.0673828c-0.0751953,0.0449219-0.1328125,0.1083984-0.1723633,0.1914063v1.4189453
				l0.3774414,0.0810547v0.4716797h-1.5424805V27.2622375z"/>
			<path class="st3" d="M23.8998222,27.3774719c-0.0917969,0.1357422-0.2001953,0.2373047-0.3251953,0.3076172
				s-0.2675781,0.1054688-0.4272461,0.1054688c-0.3598633,0-0.6391602-0.1308594-0.8378906-0.3935547
				c-0.1982422-0.2626953-0.2978516-0.609375-0.2978516-1.0410156v-0.0566406c0-0.4609375,0.0996094-0.8320313,0.2993164-1.1142578
				s0.4799805-0.4238281,0.8417969-0.4238281c0.1455078,0,0.2768555,0.0322266,0.3935547,0.0957031
				c0.1166992,0.0644531,0.2192383,0.1542969,0.3076172,0.2714844v-1.046875l-0.4208984-0.0800781V23.526886h0.4208984h0.7875977
				v3.6542969l0.3774414,0.0810547v0.4716797h-1.0600586L23.8998222,27.3774719z M22.7992363,26.3559875
				c0,0.2548828,0.0424805,0.4560547,0.1279297,0.6025391s0.2255859,0.2197266,0.4194336,0.2197266
				c0.1152344,0,0.2148438-0.0234375,0.2993164-0.0703125s0.1538086-0.1142578,0.2080078-0.2021484V25.667511
				c-0.0541992-0.0927734-0.1230469-0.1650391-0.206543-0.2167969c-0.0834961-0.0507813-0.1821289-0.0771484-0.2954102-0.0771484
				c-0.1923828,0-0.3325195,0.0859375-0.4204102,0.2568359c-0.0883789,0.1708984-0.1323242,0.3935547-0.1323242,0.6689453
				V26.3559875z"/>
			<path class="st3" d="M27.4769707,27.3647766c-0.0932617,0.1367188-0.2089844,0.2412109-0.3461914,0.3154297
				c-0.1376953,0.0732422-0.2944336,0.1103516-0.4707031,0.1103516c-0.3076172,0-0.5483398-0.0986328-0.7231445-0.2949219
				c-0.1743164-0.1972656-0.2612305-0.5039063-0.2612305-0.9189453v-1.2050781l-0.3212891-0.0810547v-0.4746094h0.3212891h0.7875977
				V26.58255c0,0.2119141,0.0351563,0.3642578,0.1064453,0.4570313c0.0708008,0.0927734,0.1767578,0.1386719,0.3168945,0.1386719
				c0.1240234,0,0.2314453-0.0205078,0.3222656-0.0605469c0.0908203-0.0410156,0.1650391-0.0986328,0.2226563-0.1738281v-1.5722656
				l-0.3457031-0.0810547v-0.4746094h0.3457031h0.7871094v2.3652344l0.3535156,0.0810547v0.4716797h-1.0439453
				L27.4769707,27.3647766z"/>
			<path class="st3" d="M29.0238457,27.2622375l0.3803711-0.0810547v-1.8095703l-0.4208984-0.0810547v-0.4746094h1.2084961
				v2.3652344l0.3774414,0.0810547v0.4716797h-1.5454102V27.2622375z M30.1918144,24.1167297h-0.7875977V23.526886h0.7875977
				V24.1167297z"/>
			<path class="st3" d="M30.9510918,27.2622375l0.3774414-0.0810547v-1.8095703l-0.4179688-0.0810547v-0.4746094h1.1513672
				l0.0351563,0.4179688c0.097168-0.1494141,0.2167969-0.265625,0.3588867-0.3486328
				c0.1420898-0.0820313,0.3012695-0.1240234,0.4775391-0.1240234c0.2944336,0,0.5249023,0.0927734,0.6904297,0.2783203
				c0.1650391,0.1855469,0.2480469,0.4755859,0.2480469,0.8710938v1.2705078l0.3774414,0.0810547v0.4716797h-1.5048828v-0.4716797
				l0.3369141-0.0810547v-1.2675781c0-0.1962891-0.0395508-0.3349609-0.1186523-0.4169922s-0.1987305-0.1230469-0.3583984-0.1230469
				c-0.1044922,0-0.1977539,0.0214844-0.2807617,0.0634766c-0.0825195,0.0429688-0.1518555,0.1025391-0.2075195,0.1796875v1.5644531
				l0.3183594,0.0810547v0.4716797h-1.4833984V27.2622375z"/>
			<path class="st3" d="M34.63908,26.2475891c0-0.4345703,0.121582-0.7910156,0.3652344-1.0693359
				c0.2436523-0.2773438,0.5805664-0.4169922,1.0102539-0.4169922c0.4316406,0,0.769043,0.1386719,1.0126953,0.4160156
				c0.2436523,0.2763672,0.3657227,0.6337891,0.3657227,1.0703125v0.0566406c0,0.4384766-0.1220703,0.7958984-0.3657227,1.0722656
				s-0.5795898,0.4140625-1.0073242,0.4140625c-0.4331055,0-0.7719727-0.1376953-1.015625-0.4140625
				S34.63908,26.7427063,34.63908,26.3042297V26.2475891z M35.4266777,26.3042297
				c0,0.2666016,0.046875,0.4794922,0.1401367,0.640625c0.09375,0.1611328,0.2446289,0.2412109,0.453125,0.2412109
				c0.203125,0,0.3520508-0.0810547,0.4462891-0.2421875c0.0947266-0.1621094,0.1416016-0.375,0.1416016-0.6396484v-0.0566406
				c0-0.2587891-0.0473633-0.4697266-0.1425781-0.6337891c-0.0957031-0.1630859-0.2456055-0.2451172-0.4506836-0.2451172
				s-0.3540039,0.0820313-0.4477539,0.2451172c-0.0932617,0.1640625-0.1401367,0.375-0.1401367,0.6337891V26.3042297z"/>
		</g>
		<rect x="53.2975044" y="10.9322948" class="st4" width="6.7128124" height="6.7128124"/>
		<g>
			<path class="st2" d="M58.227459,15.9936829l-0.0405273-0.2807617l-3.4140625-1.1948242v-0.8066406l3.4140625-1.1865234
				l0.0405273-0.2802734h0.472168v1.3374023h-0.472168l-0.0483398-0.2724609l-0.5395508,0.1728516v1.2729492l0.5395508,0.1728516
				l0.0483398-0.2724609h0.472168v1.3378906H58.227459z M57.0599785,14.5693665v-0.9008789l-1.3837891,0.4423828v0.0161133
				L57.0599785,14.5693665z"/>
		</g>
		<g>
			<path class="st3" d="M68.88517,20.6128235c0.1787109,0.1816406,0.3398438,0.4453125,0.4833984,0.7910156
				c0.1435547,0.3466797,0.2158203,0.7851563,0.2158203,1.3144531c0,0.7519531-0.2509766,1.3632813-0.7548828,1.8339844
				c-0.5029297,0.4716797-1.15625,0.7070313-1.9619141,0.7070313h-0.1904297c-0.8330078,0-1.5107422-0.2324219-2.0332031-0.6972656
				s-0.7831993-1.0712891-0.7831993-1.8203125c0-0.4355469,0.0693359-0.8339844,0.208004-1.1943359
				c0.1396484-0.3603516,0.3271484-0.6601563,0.5634766-0.8994141h1.1201172v0.8251953l-0.7451172,0.15625
				c-0.0869141,0.1015625-0.15625,0.2363281-0.2080078,0.4033203c-0.0527344,0.1669922-0.0791016,0.3583984-0.0791016,0.5751953
				c0,0.4863281,0.1796875,0.8642578,0.5390625,1.1347656c0.359375,0.2695313,0.8291016,0.4052734,1.4101563,0.4052734h0.1982422
				c0.5654297,0,1.0175781-0.1328125,1.3544922-0.3974609c0.3378906-0.265625,0.5068359-0.6474609,0.5068359-1.1464844
				c0-0.2246094-0.0195313-0.40625-0.0576172-0.5449219s-0.0830078-0.2470703-0.1337891-0.3261719h-0.9433594l-0.0615234,0.7949219
				h-0.7832031v-1.9150391H68.88517z"/>
		</g>
		<g>
			<path class="st3" d="M64.4369278,15.9648743l0.0761719,0.4243164l3.3359375-0.9858398l0.3056641-0.0688477V15.311554
				l-0.2978516-0.0649414l-3.34375-0.9897461l-0.0761719,0.4204102H63.76408v-2.0327148h0.6728477l0.0605469,0.4658203
				l4.8300781,1.6396484v1.1459961l-4.8300781,1.6425781l-0.0605469,0.4589844H63.76408v-2.0327148H64.4369278z"/>
		</g>
		<g>
			<path class="st3" d="M65.54142,5.8916316v0.8369141l-0.7646484,0.1450195
				c-0.0615234,0.097168-0.1142578,0.2382813-0.1601563,0.4243164s-0.0693359,0.3833008-0.0693359,0.5922852
				c0,0.3056645,0.0644531,0.5419927,0.1933594,0.7084966c0.1289063,0.1669922,0.2949219,0.2504883,0.4990234,0.2504883
				c0.1884766,0,0.3427734-0.0874023,0.4638672-0.2617188s0.2490234-0.4755859,0.3837891-0.9038091
				c0.1708984-0.6137695,0.3964844-1.0791016,0.6767578-1.3964844c0.2802734-0.3168945,0.6484375-0.4755859,1.1035156-0.4755859
				c0.4765625,0,0.8525391,0.1884766,1.1279297,0.5654297c0.2744141,0.3769531,0.4121094,0.8735352,0.4121094,1.4902344
				c0,0.4404302-0.0703125,0.8383794-0.2099609,1.1938481s-0.3339844,0.6513672-0.5810547,0.8881836h-1.1611328V9.085968
				l0.7910156-0.1186523c0.0917969-0.1118164,0.1669922-0.2641602,0.2275391-0.456543
				c0.0595703-0.1923828,0.0888672-0.4067383,0.0888672-0.6435552c0-0.3056641-0.0615234-0.5380859-0.1865234-0.6972656
				s-0.2919922-0.2387695-0.5009766-0.2387695c-0.2138672,0-0.3857422,0.0756836-0.515625,0.2270508
				c-0.1298828,0.1518555-0.2519531,0.4169922-0.3671875,0.796875C66.8021622,8.6147766,66.5755997,9.1138,66.3129044,9.4526672
				S65.6918106,9.960968,65.2357559,9.960968c-0.4511719,0-0.8203125-0.190918-1.1064453-0.5732422
				c-0.2871056-0.3818359-0.4335899-0.8623047-0.4414024-1.4404302c0-0.4277344,0.0654297-0.8178711,0.1953125-1.1689453
				c0.129879-0.3515625,0.3027306-0.6469727,0.5195274-0.8867188H65.54142z"/>
		</g>
		<polyline class="st5" points="62.7197304,11.6994762 62.7197304,3.6440983 82.4362183,3.6440983 82.4362183,11.6994724 		"/>
		<line class="st5" x1="62.7197304" y1="18.9493103" x2="62.7197304" y2="11.6994762"/>
		<polyline class="st5" points="82.4362183,18.9493141 82.4362183,26.8896084 62.7197304,26.8896084 62.7197304,18.9493103 		"/>
		<line class="st5" x1="79.4362183" y1="11.6994724" x2="79.4362183" y2="18.9493141"/>
		<line class="st5" x1="62.7197304" y1="18.9493103" x2="82.4362183" y2="18.9493103"/>
		<line class="st5" x1="62.7197304" y1="11.6994734" x2="82.4362183" y2="11.6994734"/>
		<g>
			<g>
				<g>
					<g>
						<polygon class="st3" points="75.9134979,19.1528625 74.5365448,17.7749329 74.5384979,12.8701477 75.9174042,11.4936829 
							80.821701,11.4951477 82.1986542,12.874054 82.196701,17.7788391 80.8197479,19.1528625 						"/>
						<path class="st2" d="M80.8171082,11.5004845l0.6870804,0.6870899l0.6870804,0.6870794v4.8994799l-0.4980087,0.4980106
							l-0.876152,0.8761501h-4.8994751l-1.1956024-1.1956005l-0.1785583-0.1785603v-4.8994799l0.2400284-0.2400293
							l1.1341324-1.13414H80.8171082 M80.8215942,11.4896641H75.913147
							c-0.5391235,0.5391197-0.8413849,0.8413906-1.3804932,1.3805103v4.9084396
							c0.5391083,0.5391197,0.8413696,0.8413906,1.3804932,1.3805008h4.9084473
							c0.5391159-0.5391102,0.8413773-0.8413811,1.3804932-1.3805008v-4.9084396
							C81.6629715,12.3310547,81.3607101,12.0287838,80.8215942,11.4896641L80.8215942,11.4896641z"/>
					</g>
				</g>
				
					<rect x="77.4108353" y="14.3427038" transform="matrix(6.123234e-17 -1 1 6.123234e-17 63.0429726 93.6917572)" class="st6" width="1.9130571" height="1.9633794"/>
				
					<rect x="77.8442612" y="14.7875319" transform="matrix(6.123234e-17 -1 1 6.123234e-17 63.0429726 93.6917572)" class="st7" width="1.046203" height="1.0737231"/>
				<line class="st8" x1="77.3856735" y1="16.2809219" x2="77.8305054" y2="15.8474951"/>
				<line class="st8" x1="77.8305054" y1="14.8012924" x2="77.3856735" y2="14.3678646"/>
				<line class="st8" x1="78.9042282" y1="14.8012924" x2="79.3490524" y2="14.3678646"/>
				<line class="st8" x1="78.9042282" y1="15.8474951" x2="79.3490524" y2="16.2809219"/>
			</g>
		</g>
		<g>
			<g>
				<g>
					<g>
						<polygon class="st3" points="75.9125214,26.9145813 74.5365448,25.5366516 74.5384979,20.6313782 75.9164276,19.2554016 
							80.8207245,19.2573547 82.1976776,20.6352844 82.1957245,25.5405579 80.8187714,26.9145813 						"/>
						<path class="st2" d="M80.8167114,19.2619762l1.3741608,1.3741608v4.8994904l-1.3741608,1.3741589h-4.8994904
							l-1.3741608-1.3741589V20.636137l1.3741608-1.3741608H80.8167114 M80.8211899,19.2511559H75.912735
							c-0.5391159,0.5391197-0.8413773,0.8413811-1.3804932,1.3805008v4.9084492
							c0.5391159,0.5391197,0.8413773,0.8413811,1.3804932,1.3805008h4.9084549
							c0.5391159-0.5391197,0.8413773-0.8413811,1.3805008-1.3805008v-4.9084492
							C81.6625671,20.0925369,81.3603058,19.7902756,80.8211899,19.2511559L80.8211899,19.2511559z"/>
					</g>
				</g>
				
					<rect x="77.4104309" y="22.104187" transform="matrix(6.123234e-17 -1 1 6.123234e-17 55.2810822 101.4528351)" class="st6" width="1.9130571" height="1.9633794"/>
				
					<rect x="77.8438568" y="22.549015" transform="matrix(6.123234e-17 -1 1 6.123234e-17 55.2810822 101.4528351)" class="st7" width="1.046203" height="1.0737231"/>
				<line class="st8" x1="77.3852692" y1="24.0424061" x2="77.830101" y2="23.6089783"/>
				<line class="st8" x1="77.830101" y1="22.5627766" x2="77.3852692" y2="22.1293488"/>
				<line class="st8" x1="78.9038239" y1="22.5627766" x2="79.3486481" y2="22.1293488"/>
				<line class="st8" x1="78.9038239" y1="23.6089783" x2="79.3486481" y2="24.0424061"/>
			</g>
		</g>
		<g>
			<g>
				<g>
					<g>
						<polygon class="st3" points="75.9125214,11.3921204 74.5365448,10.0132141 74.5384979,5.1089168 75.9164276,3.7319639 
							80.8207245,3.7334287 82.1976776,5.112823 82.1957245,10.0171204 80.8187714,11.3921204 						"/>
						<path class="st2" d="M80.8167114,3.7389998l0.6870804,0.6870899l0.6870804,0.6870799v4.8994808l-0.6870804,0.6870794
							l-0.6870804,0.6870899h-4.8994904l-0.6870804-0.6870899l-0.6870804-0.6870794V5.1131697l0.6870804-0.6870799
							l0.6870804-0.6870899H80.8167114 M80.8211899,3.7281799H75.912735
							c-0.5391159,0.5391197-0.8413773,0.8413897-1.3804932,1.3805099v4.9084401
							c0.5391159,0.5391197,0.8413773,0.8413906,1.3804932,1.3805103h4.9084549
							c0.5391159-0.5391197,0.8413773-0.8413906,1.3805008-1.3805103V5.1086898
							C81.6625671,4.5695696,81.3603058,4.2672997,80.8211899,3.7281799L80.8211899,3.7281799z"/>
					</g>
				</g>
				
					<rect x="77.4104309" y="6.5812197" transform="matrix(6.123234e-17 -1 1 6.123234e-17 70.8040543 85.9298706)" class="st6" width="1.9130571" height="1.9633794"/>
				
					<rect x="77.8438568" y="7.0260482" transform="matrix(6.123234e-17 -1 1 6.123234e-17 70.8040543 85.9298706)" class="st7" width="1.046203" height="1.0737231"/>
				<line class="st8" x1="77.3852692" y1="8.5194378" x2="77.830101" y2="8.0860109"/>
				<line class="st8" x1="77.830101" y1="7.0398078" x2="77.3852692" y2="6.6063809"/>
				<line class="st8" x1="78.9038239" y1="7.0398078" x2="79.3486481" y2="6.6063809"/>
				<line class="st8" x1="78.9038239" y1="8.0860109" x2="79.3486481" y2="8.5194378"/>
			</g>
		</g>
		<g id="_x31_02_34_">
			<g id="XMLID_510_">
				<g>
					<rect x="93.1994476" y="20.7358456" class="st9" width="3.8580718" height="4.7783642"/>
				</g>
				<g>
				</g>
			</g>
			<g id="XMLID_509_">
				<g>
					<rect x="85.1950912" y="20.7815628" class="st9" width="3.8580718" height="4.7783642"/>
				</g>
				<g>
				</g>
			</g>
			<g id="XMLID_508_">
				<g>
					<rect x="88.1930389" y="21.1154346" class="st10" width="5.7977834" height="4.0508761"/>
				</g>
				<g>
				</g>
			</g>
			<g>
				<path class="st11" d="M92.0961075,22.526886h0.9785156v0.203125c-0.0683594,0.0576172-0.1357422,0.1162109-0.2041016,0.1748047
					c-0.0683594,0.0576172-0.1318359,0.1162109-0.1914063,0.1738281c-0.1240234,0.1201172-0.2089844,0.2158203-0.2548828,0.2861328
					c-0.0458984,0.0712891-0.0683594,0.1474609-0.0683594,0.2294922c0,0.0751953,0.0244141,0.1337891,0.0742188,0.1767578
					c0.0488281,0.0419922,0.1181641,0.0634766,0.2070313,0.0634766c0.0585938,0,0.1220703-0.0107422,0.1914063-0.03125
					c0.0683594-0.0205078,0.1347656-0.0527344,0.2001953-0.0947266h0.0097656v0.203125
					c-0.0458984,0.0224609-0.1074219,0.0439453-0.1835938,0.0625c-0.0771484,0.0185547-0.1513672,0.0283203-0.2226563,0.0283203
					c-0.1484375,0-0.2646484-0.0361328-0.3486328-0.1074219s-0.1259766-0.1689453-0.1259766-0.2910156
					c0-0.0546875,0.0068359-0.1064453,0.0205078-0.1533203c0.0136719-0.0478516,0.0341797-0.0927734,0.0615234-0.1357422
					c0.0253906-0.0400391,0.0546875-0.0791016,0.0888672-0.1181641s0.0751953-0.0820313,0.1240234-0.1289063
					c0.0693359-0.0683594,0.140625-0.1337891,0.2148438-0.1982422c0.0732422-0.0634766,0.1425781-0.1220703,0.2060547-0.1767578
					h-0.7773438V22.526886z"/>
				<path class="st11" d="M91.0316544,22.526886H92.01017v0.203125c-0.0683594,0.0576172-0.1357422,0.1162109-0.2041016,0.1748047
					c-0.0683594,0.0576172-0.1318359,0.1162109-0.1914063,0.1738281c-0.1240234,0.1201172-0.2089844,0.2158203-0.2548828,0.2861328
					c-0.0458984,0.0712891-0.0683594,0.1474609-0.0683594,0.2294922c0,0.0751953,0.0244141,0.1337891,0.0742188,0.1767578
					c0.0488281,0.0419922,0.1181641,0.0634766,0.2070313,0.0634766c0.0585938,0,0.1220703-0.0107422,0.1914063-0.03125
					c0.0683594-0.0205078,0.1347656-0.0527344,0.2001953-0.0947266h0.0097656v0.203125
					c-0.0458984,0.0224609-0.1074219,0.0439453-0.1835938,0.0625c-0.0771484,0.0185547-0.1513672,0.0283203-0.2226563,0.0283203
					c-0.1484375,0-0.2646484-0.0361328-0.3486328-0.1074219s-0.1259766-0.1689453-0.1259766-0.2910156
					c0-0.0546875,0.0068359-0.1064453,0.0205078-0.1533203c0.0136719-0.0478516,0.0341797-0.0927734,0.0615234-0.1357422
					c0.0253906-0.0400391,0.0546875-0.0791016,0.0888672-0.1181641s0.0751953-0.0820313,0.1240234-0.1289063
					c0.0693359-0.0683594,0.140625-0.1337891,0.2148438-0.1982422c0.0732422-0.0634766,0.1425781-0.1220703,0.2060547-0.1767578
					h-0.7773438V22.526886z"/>
				<path class="st11" d="M89.9681778,23.2495422c0-0.2587891,0.0410156-0.4492188,0.1220703-0.5703125
					c0.0810547-0.1220703,0.2070313-0.1826172,0.3779297-0.1826172c0.1738281,0,0.2998047,0.0615234,0.3798828,0.1845703
					s0.1201172,0.3115234,0.1201172,0.5664063c0,0.2568359-0.0410156,0.4472656-0.1210938,0.5693359
					c-0.0810547,0.1230469-0.2070313,0.1845703-0.3789063,0.1845703c-0.1738281,0-0.2998047-0.0625-0.3798828-0.1875
					C90.0082169,23.6899719,89.9681778,23.5014954,89.9681778,23.2495422z M90.2240372,22.8091125
					c-0.0234375,0.0527344-0.0380859,0.1142578-0.046875,0.1855469c-0.0078125,0.0703125-0.0117188,0.1552734-0.0117188,0.2548828
					c0,0.0986328,0.0039063,0.1845703,0.0117188,0.2568359c0.0087891,0.0722656,0.0244141,0.1337891,0.0478516,0.1845703
					c0.0224609,0.0498047,0.0527344,0.0869141,0.0917969,0.1123047c0.0400391,0.0253906,0.0898438,0.0380859,0.1513672,0.0380859
					c0.0605469,0,0.1113281-0.0126953,0.1513672-0.0380859c0.0390625-0.0253906,0.0712891-0.0634766,0.09375-0.1142578
					c0.0224609-0.0478516,0.0371094-0.1103516,0.0458984-0.1875c0.0078125-0.0771484,0.0117188-0.1621094,0.0117188-0.2539063
					c0-0.1005859-0.0039063-0.1845703-0.0107422-0.2529297s-0.0224609-0.1289063-0.0458984-0.1826172
					c-0.0205078-0.0498047-0.0507813-0.0888672-0.0898438-0.1152344c-0.0400391-0.0263672-0.0917969-0.0400391-0.15625-0.0400391
					c-0.0605469,0-0.1113281,0.0126953-0.1513672,0.0380859S90.2455215,22.7583313,90.2240372,22.8091125z"/>
				<path class="st11" d="M88.9037247,23.2495422c0-0.2587891,0.0410156-0.4492188,0.1220703-0.5703125
					c0.0810547-0.1220703,0.2070313-0.1826172,0.3779297-0.1826172c0.1738281,0,0.2998047,0.0615234,0.3798828,0.1845703
					s0.1201172,0.3115234,0.1201172,0.5664063c0,0.2568359-0.0410156,0.4472656-0.1210938,0.5693359
					c-0.0810547,0.1230469-0.2070313,0.1845703-0.3789063,0.1845703c-0.1738281,0-0.2998047-0.0625-0.3798828-0.1875
					C88.9437637,23.6899719,88.9037247,23.5014954,88.9037247,23.2495422z M89.159584,22.8091125
					c-0.0234375,0.0527344-0.0380859,0.1142578-0.046875,0.1855469c-0.0078125,0.0703125-0.0117188,0.1552734-0.0117188,0.2548828
					c0,0.0986328,0.0039063,0.1845703,0.0117188,0.2568359c0.0087891,0.0722656,0.0244141,0.1337891,0.0478516,0.1845703
					c0.0224609,0.0498047,0.0527344,0.0869141,0.0917969,0.1123047c0.0400391,0.0253906,0.0898438,0.0380859,0.1513672,0.0380859
					c0.0605469,0,0.1113281-0.0126953,0.1513672-0.0380859c0.0390625-0.0253906,0.0712891-0.0634766,0.09375-0.1142578
					c0.0224609-0.0478516,0.0371094-0.1103516,0.0458984-0.1875c0.0078125-0.0771484,0.0117188-0.1621094,0.0117188-0.2539063
					c0-0.1005859-0.0039063-0.1845703-0.0107422-0.2529297s-0.0224609-0.1289063-0.0458984-0.1826172
					c-0.0205078-0.0498047-0.0507813-0.0888672-0.0898438-0.1152344c-0.0400391-0.0263672-0.0917969-0.0400391-0.15625-0.0400391
					c-0.0605469,0-0.1113281,0.0126953-0.1513672,0.0380859S89.1810684,22.7583313,89.159584,22.8091125z"/>
			</g>
		</g>
		<g id="_x31_02_36_">
			<g id="XMLID_516_">
				<g>
					<rect x="93.1994476" y="5.1251059" class="st9" width="3.8580718" height="4.7783642"/>
				</g>
				<g>
				</g>
			</g>
			<g id="XMLID_515_">
				<g>
					<rect x="85.1950912" y="5.1708226" class="st9" width="3.8580718" height="4.7783642"/>
				</g>
				<g>
				</g>
			</g>
			<g id="XMLID_514_">
				<g>
					<rect x="88.1930389" y="5.5046954" class="st10" width="5.7977834" height="4.0508761"/>
				</g>
				<g>
				</g>
			</g>
			<g>
				<path class="st11" d="M92.2591934,6.9184871H93.04142V7.065948h-0.3007813v0.9687505H93.04142v0.1318359
					c-0.0410156,0-0.0849609,0.003418-0.1308594,0.0102539c-0.046875,0.0068359-0.0820313,0.0166016-0.1064453,0.0297852
					c-0.0292969,0.0161133-0.0527344,0.0366211-0.0703125,0.0615234c-0.0166016,0.0249023-0.0263672,0.0581055-0.0292969,0.1005859
					h-0.1503906V7.065948h-0.2949219V6.9184871z"/>
				<path class="st11" d="M91.1136856,7.6416316c0-0.2597656,0.0410156-0.449707,0.1220703-0.5712891
					c0.0810547-0.1210938,0.2070313-0.1821289,0.3779297-0.1821289c0.1738281,0,0.2998047,0.0615234,0.3798828,0.1845703
					s0.1201172,0.3120117,0.1201172,0.5668945c0,0.2568359-0.0410156,0.4462895-0.1210938,0.5693364
					c-0.0810547,0.1225586-0.2070313,0.1835938-0.3789063,0.1835938c-0.1738281,0-0.2998047-0.0620117-0.3798828-0.1865234
					S91.1136856,7.8930964,91.1136856,7.6416316z M91.369545,7.2007136C91.3461075,7.253448,91.331459,7.3149714,91.32267,7.3857722
					c-0.0078125,0.0708008-0.0117188,0.15625-0.0117188,0.2558594c0,0.0981445,0.0039063,0.1835938,0.0117188,0.2563477
					c0.0087891,0.0722656,0.0244141,0.1337895,0.0478516,0.1840825c0.0224609,0.0498047,0.0527344,0.0874023,0.0917969,0.112793
					c0.0400391,0.0249023,0.0898438,0.0375977,0.1513672,0.0375977c0.0605469,0,0.1113281-0.0126953,0.1513672-0.0375977
					c0.0390625-0.0253906,0.0712891-0.0634766,0.09375-0.1147461c0.0224609-0.0478516,0.0371094-0.110352,0.0458984-0.1870122
					C91.9125137,7.815948,91.91642,7.7314754,91.91642,7.6396785c0-0.1010742-0.0039063-0.1855469-0.0107422-0.253418
					s-0.0224609-0.1289063-0.0458984-0.1826172c-0.0205078-0.050293-0.0507813-0.0888672-0.0898438-0.1152344
					c-0.0400391-0.0268555-0.0917969-0.0400391-0.15625-0.0400391c-0.0605469,0-0.1113281,0.0126953-0.1513672,0.0380859
					S91.3910294,7.1499324,91.369545,7.2007136z"/>
				<path class="st11" d="M90.0482559,7.6416316c0-0.2597656,0.0410156-0.449707,0.1220703-0.5712891
					c0.0810547-0.1210938,0.2070313-0.1821289,0.3779297-0.1821289c0.1738281,0,0.2998047,0.0615234,0.3798828,0.1845703
					s0.1201172,0.3120117,0.1201172,0.5668945c0,0.2568359-0.0410156,0.4462895-0.1210938,0.5693364
					c-0.0810547,0.1225586-0.2070313,0.1835938-0.3789063,0.1835938c-0.1738281,0-0.2998047-0.0620117-0.3798828-0.1865234
					S90.0482559,7.8930964,90.0482559,7.6416316z M90.3041153,7.2007136
					c-0.0234375,0.0527344-0.0380859,0.1142578-0.046875,0.1850586c-0.0078125,0.0708008-0.0117188,0.15625-0.0117188,0.2558594
					c0,0.0981445,0.0039063,0.1835938,0.0117188,0.2563477c0.0087891,0.0722656,0.0244141,0.1337895,0.0478516,0.1840825
					c0.0224609,0.0498047,0.0527344,0.0874023,0.0917969,0.112793c0.0400391,0.0249023,0.0898438,0.0375977,0.1513672,0.0375977
					c0.0605469,0,0.1113281-0.0126953,0.1513672-0.0375977c0.0390625-0.0253906,0.0712891-0.0634766,0.09375-0.1147461
					c0.0224609-0.0478516,0.0371094-0.110352,0.0458984-0.1870122c0.0078125-0.0771484,0.0117188-0.1616211,0.0117188-0.253418
					c0-0.1010742-0.0039063-0.1855469-0.0107422-0.253418s-0.0224609-0.1289063-0.0458984-0.1826172
					c-0.0205078-0.050293-0.0507813-0.0888672-0.0898438-0.1152344c-0.0400391-0.0268555-0.0917969-0.0400391-0.15625-0.0400391
					c-0.0605469,0-0.1113281,0.0126953-0.1513672,0.0380859S90.3255997,7.1499324,90.3041153,7.2007136z"/>
				<path class="st11" d="M88.9818497,6.9184871h0.9785156v0.2026367c-0.0683594,0.0585938-0.1357422,0.1166992-0.2041016,0.1748047
					s-0.1318359,0.1162109-0.1914063,0.1738281c-0.1240234,0.1201172-0.2089844,0.2158203-0.2548828,0.2866211
					s-0.0683594,0.1474609-0.0683594,0.2294922c0,0.0751958,0.0244141,0.1337895,0.0742188,0.17627
					c0.0488281,0.0424805,0.1181641,0.0634766,0.2070313,0.0634766c0.0585938,0,0.1220703-0.0102539,0.1914063-0.0307617
					c0.0683594-0.0209961,0.1347656-0.0527344,0.2001953-0.0952148h0.0097656v0.2036133
					c-0.0458984,0.0229492-0.1074219,0.043457-0.1835938,0.0625c-0.0771484,0.0185547-0.1513672,0.027832-0.2226563,0.027832
					c-0.1484375,0-0.2646484-0.0356445-0.3486328-0.1069336c-0.0839844-0.0717773-0.1259766-0.168457-0.1259766-0.2910161
					c0-0.0546875,0.0068359-0.105957,0.0205078-0.1538086c0.0136719-0.0473633,0.0341797-0.0927734,0.0615234-0.1352539
					c0.0253906-0.0400391,0.0546875-0.0795898,0.0888672-0.1186523c0.0341797-0.0385742,0.0751953-0.081543,0.1240234-0.1289063
					c0.0693359-0.0678711,0.140625-0.1337891,0.2148438-0.1972656c0.0732422-0.0639648,0.1425781-0.1230469,0.2060547-0.1772461
					h-0.7773438V6.9184871z"/>
			</g>
		</g>
		<g>
			<path class="st12" d="M103.2187424,14.9282017c-1.7453156,0-3.1603775-1.413084-3.1603775-3.1591063
				s1.415062-3.1616497,3.1603775-3.1616497c1.7453232,0,3.1603775,1.4156275,3.1603775,3.1616497
				S104.9640656,14.9282017,103.2187424,14.9282017z"/>
			<circle class="st13" cx="103.2187424" cy="11.7678232" r="2.1598563"/>
		</g>
		<g>
			<path class="st12" d="M111.0823441,14.9282017c-1.7453232,0-3.1603775-1.413084-3.1603775-3.1591063
				s1.4150543-3.1616497,3.1603775-3.1616497c1.7453156,0,3.1603775,1.4156275,3.1603775,3.1616497
				S112.8276596,14.9282017,111.0823441,14.9282017z"/>
			<circle class="st13" cx="111.0823441" cy="11.7678232" r="2.1598563"/>
		</g>
		<g>
			<path class="st12" d="M103.2187424,22.1096973c-1.7453156,0-3.1603775-1.413084-3.1603775-3.1591053
				s1.415062-3.1616497,3.1603775-3.1616497c1.7453232,0,3.1603775,1.4156284,3.1603775,3.1616497
				S104.9640656,22.1096973,103.2187424,22.1096973z"/>
			<circle class="st13" cx="103.2187424" cy="18.9493198" r="2.1598563"/>
		</g>
		<g>
			<path class="st12" d="M111.0823441,22.1096973c-1.7453232,0-3.1603775-1.413084-3.1603775-3.1591053
				s1.4150543-3.1616497,3.1603775-3.1616497c1.7453156,0,3.1603775,1.4156284,3.1603775,3.1616497
				S112.8276596,22.1096973,111.0823441,22.1096973z"/>
			<circle class="st13" cx="111.0823441" cy="18.9493198" r="2.1598563"/>
		</g>
		<path class="st14" d="M46.7714691,8.4080963c-3.300293,0-5.9754028,2.6751709-5.9754028,5.9754639
			c0,3.2987671,2.6751099,5.9754028,5.9754028,5.9754028s5.9754639-2.6766357,5.9754639-5.9754028
			C52.746933,11.0832672,50.0717621,8.4080963,46.7714691,8.4080963z M46.7704315,18.7772369
			c-2.4258423,0-4.3926392-1.9667969-4.3926392-4.3926392c0-2.4279175,1.9667969-4.3947144,4.3926392-4.3947144
			c2.4259033,0,4.3947754,1.9667969,4.3947754,4.3947144C51.1652069,16.8104401,49.1963348,18.7772369,46.7704315,18.7772369z"/>
	</g>
	<g>
	</g>
	<g>
	</g>
	<g>
	</g>
	<g>
	</g>
	<g>
	</g>
</g>
</svg>
