<?xml version="1.0" encoding="utf-8"?>
<!-- Generator: Adobe Illustrator 23.0.3, SVG Export Plug-In . SVG Version: 6.00 Build 0)  -->
<svg version="1.1" id="Обратная_сторона"
	 xmlns="http://www.w3.org/2000/svg" xmlns:xlink="http://www.w3.org/1999/xlink" x="0px" y="0px"
	 viewBox="0 0 85.039978 85.1636734" style="enable-background:new 0 0 85.039978 85.1636734;" xml:space="preserve">
<style type="text/css">
	.st0{fill:#19191A;}
	.st1{fill:#9E9B9C;}
	.st2{fill:#CDC7BC;}
	.st3{fill:#FFFFFF;}
	.st4{fill:#E5E4E0;}
	.st5{fill:none;stroke:#F6F6F6;stroke-width:0.75;stroke-miterlimit:10;}
	.st6{fill:none;stroke:#F6F6F6;stroke-width:0.6790737;stroke-miterlimit:10;}
	.st7{fill:#151616;}
	.st8{fill:#CBC5BA;}
	.st9{fill:#F2F2F2;stroke:#999999;stroke-width:0.1;stroke-miterlimit:10;}
	.st10{fill:#313131;}
	.st11{fill:#666566;}
	.st12{fill:none;stroke:#F2F2F2;stroke-width:0.4066939;stroke-miterlimit:10;}
	.st13{fill:none;stroke:#F2F2F2;stroke-width:0.25;stroke-miterlimit:10;}
	.st14{fill:#0D0E0F;}
	.st15{fill:#0E0F0F;}
	.st16{fill:#DB924D;stroke:#656465;stroke-width:0.0232234;stroke-miterlimit:10;}
	.st17{fill:#E4AB55;stroke:#B2B2B2;stroke-width:0.0252307;stroke-miterlimit:10;}
	.st18{fill:none;stroke:#808080;stroke-width:0.0114155;stroke-miterlimit:10;}
</style>
<g>
	<g id="Фон_1_">
		<path class="st0" d="M0,0.1236926l0,85.039978h85.039978V0.1236926H0z M80.1005859,35.9819679
			c0,0.9785767-0.793335,1.7718506-1.7719116,1.7718506s-1.7718506-0.7932739-1.7718506-1.7718506
			s0.7932739-1.7719116,1.7718506-1.7719116S80.1005859,35.0033913,80.1005859,35.9819679z M80.1005859,43.1533546
			c0,0.9785767-0.793335,1.7719116-1.7719116,1.7719116s-1.7718506-0.793335-1.7718506-1.7719116
			s0.7932739-1.7718506,1.7718506-1.7718506S80.1005859,42.174778,80.1005859,43.1533546z M78.3286743,52.0889626
			c-0.9785767,0-1.7718506-0.7932739-1.7718506-1.7718506s0.7932739-1.7719116,1.7718506-1.7719116
			s1.7719116,0.793335,1.7719116,1.7719116S79.307251,52.0889626,78.3286743,52.0889626z M67.8198471,35.9819679
			c0,0.9785767-0.793335,1.7718506-1.7719116,1.7718506s-1.7718506-0.7932739-1.7718506-1.7718506
			s0.7932739-1.7719116,1.7718506-1.7719116S67.8198471,35.0033913,67.8198471,35.9819679z M67.8198471,43.1533546
			c0,0.9785767-0.793335,1.7719116-1.7719116,1.7719116s-1.7718506-0.793335-1.7718506-1.7719116
			s0.7932739-1.7718506,1.7718506-1.7718506S67.8198471,42.174778,67.8198471,43.1533546z M66.0479355,52.0889626
			c-0.9785767,0-1.7718506-0.7932739-1.7718506-1.7718506s0.7932739-1.7719116,1.7718506-1.7719116
			s1.7719116,0.793335,1.7719116,1.7719116S67.0265121,52.0889626,66.0479355,52.0889626z M70.7250366,75.242836
			c0-2.4279175,1.9672241-4.3947754,4.3936768-4.3947754s4.3936768,1.9668579,4.3936768,4.3947754
			c0,2.4258423-1.9672241,4.3926392-4.3936768,4.3926392S70.7250366,77.6686783,70.7250366,75.242836z M70.7250366,10.0459337
			c0-2.4279175,1.9667969-4.3947144,4.3926392-4.3947144c2.4279175,0,4.3947144,1.9667969,4.3947144,4.3947144
			c0,2.4259033-1.9667969,4.3927002-4.3947144,4.3927002C72.6918335,14.4386339,70.7250366,12.471837,70.7250366,10.0459337z
			 M5.5281372,75.2407608c0-2.4258423,1.9668579-4.3927002,4.3947754-4.3927002
			c2.4258423,0,4.3926392,1.9668579,4.3926392,4.3927002c0,2.4259033-1.9667969,4.3947144-4.3926392,4.3947144
			C7.4949951,79.6354752,5.5281372,77.6666641,5.5281372,75.2407608z M5.5281372,10.0459337
			c0-2.4279175,1.9668579-4.3947144,4.3927002-4.3947144c2.4279175,0,4.3947144,1.9667969,4.3947144,4.3947144
			c0,2.4259033-1.9667969,4.3927002-4.3947144,4.3927002C7.4949951,14.4386339,5.5281372,12.471837,5.5281372,10.0459337z"/>
		<path class="st1" d="M3.9464338,10.0449696c0,3.3002319,2.6751707,5.9754028,5.9754639,5.9754028
			s5.9754028-2.6751709,5.9754028-5.9754028c0-3.300293-2.6751099-5.9754639-5.9754028-5.9754639
			S3.9464338,6.7446766,3.9464338,10.0449696z M5.5281596,10.0459461c0-2.4279175,1.9668579-4.3947144,4.3927007-4.3947144
			c2.4279175,0,4.3947144,1.9667969,4.3947144,4.3947144c0,2.4259033-1.9667969,4.3927002-4.3947144,4.3927002
			C7.4950175,14.4386463,5.5281596,12.4718494,5.5281596,10.0459461z"/>
		<path class="st1" d="M3.9464338,75.241806c0,3.300293,2.6751707,5.9754028,5.9754639,5.9754028
			c3.2987671,0,5.9754028-2.6751099,5.9754028-5.9754028s-2.6766357-5.9754639-5.9754028-5.9754639
			C6.6216044,69.2663422,3.9464338,71.9415131,3.9464338,75.241806z M5.5281596,75.2407684
			c0-2.4258423,1.9668579-4.3927002,4.3947759-4.3927002c2.4258423,0,4.3926392,1.9668579,4.3926392,4.3927002
			c0,2.4259033-1.9667969,4.3947144-4.3926392,4.3947144C7.4950175,79.6354828,5.5281596,77.6666718,5.5281596,75.2407684z"/>
		<path class="st1" d="M69.1433334,75.241806c0,3.300293,2.6751099,5.9754028,5.9754028,5.9754028
			s5.9754639-2.6751099,5.9754639-5.9754028s-2.6751709-5.9754639-5.9754639-5.9754639S69.1433334,71.9415131,69.1433334,75.241806z
			 M70.7250595,75.2428436c0-2.4279175,1.9672241-4.3947754,4.3936768-4.3947754s4.3936768,1.9668579,4.3936768,4.3947754
			c0,2.4258423-1.9672241,4.3926392-4.3936768,4.3926392S70.7250595,77.6686859,70.7250595,75.2428436z"/>
		<path class="st1" d="M69.1659775,10.0449696c0,3.3002319,2.6650391,5.9754028,5.9527588,5.9754028
			c3.2877808,0,5.9527588-2.6751709,5.9527588-5.9754028c0-3.300293-2.664978-5.9754639-5.9527588-5.9754639
			C71.8310165,4.0695057,69.1659775,6.7446766,69.1659775,10.0449696z M70.7250595,10.0459461
			c0-2.4279175,1.9667969-4.3947144,4.3926392-4.3947144c2.4279175,0,4.3947144,1.9667969,4.3947144,4.3947144
			c0,2.4259033-1.9667969,4.3927002-4.3947144,4.3927002C72.6918564,14.4386463,70.7250595,12.4718494,70.7250595,10.0459461z"/>
	</g>
	<g id="прошивка_3_">
		<path class="st2" d="M75.6489792,35.9819717c0,1.4799194,1.1997681,2.6796875,2.6796875,2.6796875
			c1.4799805,0,2.6796875-1.1997681,2.6796875-2.6796875c0-1.4799805-1.199707-2.6796875-2.6796875-2.6796875
			C76.8487473,33.3022842,75.6489792,34.5019913,75.6489792,35.9819717z M76.5568161,35.9819717
			c0-0.9785767,0.7932739-1.7719116,1.7718506-1.7719116c0.9786377,0,1.7719116,0.793335,1.7719116,1.7719116
			s-0.7932739,1.7718506-1.7719116,1.7718506C77.35009,37.7538223,76.5568161,36.9605484,76.5568161,35.9819717z"/>
		<path class="st2" d="M75.6489792,43.153389c0,1.4799194,1.1997681,2.6796875,2.6796875,2.6796875
			c1.4799805,0,2.6796875-1.1997681,2.6796875-2.6796875c0-1.4799805-1.199707-2.6796875-2.6796875-2.6796875
			C76.8487473,40.4737015,75.6489792,41.6734085,75.6489792,43.153389z M76.5568161,43.153389
			c0-0.9785767,0.7932739-1.7719116,1.7718506-1.7719116c0.9786377,0,1.7719116,0.793335,1.7719116,1.7719116
			s-0.7932739,1.7718506-1.7719116,1.7718506C77.35009,44.9252396,76.5568161,44.1319656,76.5568161,43.153389z"/>
		<path class="st2" d="M75.6489792,50.317112c0,1.4799194,1.1997681,2.6796875,2.6796875,2.6796875
			c1.4799805,0,2.6796875-1.1997681,2.6796875-2.6796875c0-1.4799805-1.199707-2.6796875-2.6796875-2.6796875
			C76.8487473,47.6374245,75.6489792,48.8371315,75.6489792,50.317112z M76.5568161,50.317112
			c0-0.9785767,0.7932739-1.7719116,1.7718506-1.7719116c0.9786377,0,1.7719116,0.793335,1.7719116,1.7719116
			s-0.7932739,1.7718506-1.7719116,1.7718506C77.35009,52.0889626,76.5568161,51.2956886,76.5568161,50.317112z"/>
	</g>
	<g>
		<g>
			<path class="st3" d="M73.2622299,30.0879269L72.911644,30.449255v0.9609375h-0.3779297v-2.84375h0.3779297v1.40625
				l1.2749023-1.40625h0.4570313l-1.1289063,1.2558594l1.2172852,1.5878906h-0.453125L73.2622299,30.0879269z"/>
			<path class="st3" d="M76.6841049,30.0957394h-1.2431641v1.0078125h1.4443359v0.3066406h-1.8222656v-2.84375h1.8022461v0.3066406
				h-1.4243164v0.9160156h1.2431641V30.0957394z"/>
			<path class="st3" d="M78.2304916,29.9941769l0.7485352-1.4277344h0.4296875l-0.9892578,1.7832031v1.0605469h-0.3779297
				v-1.0605469l-0.9887695-1.7832031h0.4331055L78.2304916,29.9941769z"/>
		</g>
	</g>
	<g>
		<g>
			<path class="st3" d="M74.6489487,50.0141945v0.3662109h-2.4082031l0.2675781,0.7348633h-0.328125l-0.3886719-1.0439453
				v-0.0571289H74.6489487z"/>
		</g>
	</g>
	<g>
		<g>
			<path class="st3" d="M74.6489487,42.1684914v1.8793945H74.389183l-1.09375-0.9926758
				c-0.1655273-0.1474609-0.2998047-0.2485352-0.4033203-0.3046875c-0.1035156-0.0556641-0.2104492-0.0834961-0.3212891-0.0834961
				c-0.1484375,0-0.2700195,0.0454102-0.3652344,0.1357422c-0.0952148,0.0908203-0.1425781,0.2114258-0.1425781,0.3623047
				c0,0.1816406,0.0512695,0.3222656,0.1533203,0.4228516s0.2446289,0.1503906,0.4267578,0.1503906v0.3647461
				c-0.2617188,0-0.4731445-0.0849609-0.6347656-0.2553711c-0.1616211-0.1699219-0.2421875-0.3974609-0.2421875-0.6826172
				c0-0.2661133,0.0693359-0.4770508,0.2080078-0.6323242c0.1386719-0.1547852,0.3232422-0.2324219,0.5537109-0.2324219
				c0.2797852,0,0.6132813,0.1801758,1,0.5400391l0.8261719,0.7680664v-1.4399414H74.6489487z"/>
		</g>
	</g>
	<g>
		<g>
			<path class="st3" d="M74.2759018,34.9048195c0.1381836,0.097168,0.2412109,0.2329102,0.3095703,0.4067383
				c0.0683594,0.1743164,0.1025391,0.3769531,0.1025391,0.6079102c0,0.2338867-0.0541992,0.4414063-0.1630859,0.6225586
				s-0.2631836,0.3212891-0.4638672,0.4204102s-0.4331055,0.1499023-0.6972656,0.152832h-0.2480469
				c-0.4282227,0-0.7602539-0.1010742-0.9960938-0.3022461c-0.2358398-0.2016602-0.3535156-0.4853516-0.3535156-0.8500977
				c0-0.2993164,0.0756836-0.5405273,0.2275391-0.7231445s0.3666992-0.2939453,0.6455078-0.3349609v0.378418
				c-0.3774414,0.0708008-0.5664063,0.296875-0.5664063,0.6777344c0,0.253418,0.0883789,0.4453125,0.2646484,0.5761719
				c0.1767578,0.1303711,0.4326172,0.1967773,0.7675781,0.1977539h0.2324219c0.3193359,0,0.5732422-0.0732422,0.7617188-0.2207031
				c0.1879883-0.1469727,0.2822266-0.3457031,0.2822266-0.5966797c0-0.1420898-0.015625-0.2661133-0.046875-0.3725586
				c-0.03125-0.105957-0.0834961-0.1943359-0.1577148-0.2636719h-0.637207v0.6635742H73.232933v-1.0400391H74.2759018z"/>
		</g>
	</g>
	<g>
		<g>
			<path class="st3" d="M61.9951401,49.240757c0.1381836,0.097168,0.2412109,0.2329102,0.3095703,0.4067383
				c0.0683594,0.1743164,0.1025391,0.3769531,0.1025391,0.6079102c0,0.2338867-0.0541992,0.4414063-0.1630859,0.6225586
				s-0.2631836,0.3212891-0.4638672,0.4204102s-0.4331055,0.1499023-0.6972656,0.152832h-0.2480469
				c-0.4282227,0-0.7602539-0.1010742-0.9960938-0.3022461c-0.2358398-0.2016602-0.3535156-0.4853516-0.3535156-0.8500977
				c0-0.2993164,0.0756836-0.5405273,0.2275391-0.7231445s0.3666992-0.2939453,0.6455078-0.3349609v0.378418
				c-0.3774414,0.0708008-0.5664063,0.296875-0.5664063,0.6777344c0,0.253418,0.0883789,0.4453125,0.2646484,0.5761719
				c0.1767578,0.1303711,0.4326172,0.1967773,0.7675781,0.1977539h0.2324219c0.3193359,0,0.5732422-0.0732422,0.7617188-0.2207031
				c0.1879883-0.1469727,0.2822266-0.3457031,0.2822266-0.5966797c0-0.1420898-0.015625-0.2661133-0.046875-0.3725586
				c-0.03125-0.105957-0.0834961-0.1943359-0.1577148-0.2636719h-0.637207v0.6635742h-0.3066406V49.240757H61.9951401z"/>
		</g>
	</g>
	<g>
		<g>
			<path class="st3" d="M61.8701401,43.1543312L59.524437,42.334507v-0.4135742l2.84375,1.0639648v0.3349609l-2.84375,1.0615234
				v-0.4116211L61.8701401,43.1543312z"/>
		</g>
	</g>
	<g>
		<g>
			<path class="st3" d="M62.368187,37.2295265v0.378418h-2.84375v-0.378418H62.368187z"/>
			<path class="st3" d="M62.368187,34.3340187v0.3798828l-2.1914063,1.4443359h2.1914063v0.3798828h-2.84375v-0.3798828
				l2.2011719-1.4482422H59.524437v-0.3759766H62.368187z"/>
		</g>
	</g>
	<g>
		<g>
			<path class="st3" d="M62.1465073,31.4101925h-0.378418v-2.84375h0.378418V31.4101925z"/>
			<path class="st3" d="M63.8896713,30.2598019h-0.6738281v1.1503906h-0.3798828v-2.84375h0.9492188
				c0.3232422,0,0.5717773,0.0727539,0.7456055,0.21875c0.1743164,0.1459961,0.2612305,0.3579102,0.2612305,0.6367188
				c0,0.1772461-0.0483398,0.331543-0.1450195,0.4628906c-0.0961914,0.1313477-0.2304688,0.2299805-0.402832,0.2949219
				l0.6738281,1.2070313v0.0234375h-0.4057617L63.8896713,30.2598019z M63.2158432,29.9531612h0.581543
				c0.1875,0,0.3369141-0.0483398,0.4477539-0.1445313c0.1113281-0.0966797,0.1665039-0.2260742,0.1665039-0.3876953
				c0-0.1762695-0.0527344-0.3110352-0.1586914-0.4047852c-0.1054688-0.0942383-0.2583008-0.1416016-0.4580078-0.1430664h-0.5791016
				V29.9531612z"/>
		</g>
	</g>
	<g id="прошивка_1_">
		<path class="st2" d="M63.368187,35.9819717c0,1.4799194,1.1997681,2.6796875,2.6796875,2.6796875
			c1.4799805,0,2.6796875-1.1997681,2.6796875-2.6796875c0-1.4799805-1.199707-2.6796875-2.6796875-2.6796875
			C64.567955,33.3022842,63.368187,34.5019913,63.368187,35.9819717z M64.2760239,35.9819717
			c0-0.9785767,0.7932739-1.7719116,1.7718506-1.7719116c0.9786377,0,1.7719116,0.793335,1.7719116,1.7719116
			s-0.7932739,1.7718506-1.7719116,1.7718506C65.0692978,37.7538223,64.2760239,36.9605484,64.2760239,35.9819717z"/>
		<path class="st2" d="M63.368187,43.153389c0,1.4799194,1.1997681,2.6796875,2.6796875,2.6796875
			c1.4799805,0,2.6796875-1.1997681,2.6796875-2.6796875c0-1.4799805-1.199707-2.6796875-2.6796875-2.6796875
			C64.567955,40.4737015,63.368187,41.6734085,63.368187,43.153389z M64.2760239,43.153389
			c0-0.9785767,0.7932739-1.7719116,1.7718506-1.7719116c0.9786377,0,1.7719116,0.793335,1.7719116,1.7719116
			s-0.7932739,1.7718506-1.7719116,1.7718506C65.0692978,44.9252396,64.2760239,44.1319656,64.2760239,43.153389z"/>
		<path class="st2" d="M63.368187,50.317112c0,1.4799194,1.1997681,2.6796875,2.6796875,2.6796875
			c1.4799805,0,2.6796875-1.1997681,2.6796875-2.6796875c0-1.4799805-1.199707-2.6796875-2.6796875-2.6796875
			C64.567955,47.6374245,63.368187,48.8371315,63.368187,50.317112z M64.2760239,50.317112
			c0-0.9785767,0.7932739-1.7719116,1.7718506-1.7719116c0.9786377,0,1.7719116,0.793335,1.7719116,1.7719116
			s-0.7932739,1.7718506-1.7719116,1.7718506C65.0692978,52.0889626,64.2760239,51.2956886,64.2760239,50.317112z"/>
	</g>
	<g id="Колодка_3_">
		<g>
			<path class="st4" d="M35.5473862,81.6606827c0.3588867,0,0.640625,0.0810547,0.8447266,0.2441406
				c0.2045898,0.1630859,0.3066406,0.3876953,0.3066406,0.6748047c0,0.1582031-0.0429688,0.2958984-0.128418,0.4121094
				s-0.2104492,0.2099609-0.3754883,0.2822266c0.1865234,0.0546875,0.3208008,0.1455078,0.402832,0.2724609
				c0.081543,0.1269531,0.1225586,0.2841797,0.1225586,0.4726563v0.1591797c0,0.0693359,0.0136719,0.1220703,0.0415039,0.1601563
				c0.0273438,0.0380859,0.0732422,0.0605469,0.1367188,0.0683594l0.078125,0.0107422v0.3789063h-0.328125
				c-0.2070313,0-0.3525391-0.0556641-0.4365234-0.1660156s-0.1259766-0.2529297-0.1259766-0.4287109v-0.1787109
				c0-0.1523438-0.0410156-0.2714844-0.1225586-0.3583984c-0.0820313-0.0869141-0.1972656-0.1328125-0.3466797-0.1367188h-0.519043
				v0.8271484l0.3388672,0.0644531v0.3769531h-1.3100586v-0.3769531l0.3369141-0.0644531v-2.2509766l-0.3369141-0.0644531
				v-0.3789063h0.3369141H35.5473862z M35.0976791,83.0434952h0.4389648c0.1762695,0,0.309082-0.0380859,0.3974609-0.1123047
				s0.1323242-0.1826172,0.1323242-0.3232422s-0.0439453-0.2529297-0.1313477-0.3369141
				c-0.0878906-0.0839844-0.2167969-0.1259766-0.3876953-0.1259766h-0.449707V83.0434952z"/>
			<path class="st4" d="M38.4580307,81.6606827v0.3789063l-0.3388672,0.0644531v1.6367188
				c0,0.2070313,0.0561523,0.3613281,0.168457,0.4648438c0.1123047,0.1025391,0.2661133,0.1533203,0.4614258,0.1533203
				c0.1987305,0,0.3544922-0.0507813,0.4672852-0.1523438c0.112793-0.1025391,0.1694336-0.2578125,0.1694336-0.4658203v-1.6367188
				l-0.3369141-0.0644531v-0.3789063h1.3100586v0.3789063l-0.3388672,0.0644531v1.6367188
				c0,0.3525391-0.1166992,0.6230469-0.3505859,0.8144531s-0.5410156,0.2861328-0.9204102,0.2861328
				c-0.3779297,0-0.6831055-0.0947266-0.9155273-0.2861328s-0.3486328-0.4619141-0.3486328-0.8144531v-1.6367188
				l-0.3364258-0.0644531v-0.3789063h0.3364258h0.6342773H38.4580307z"/>
			<path class="st4" d="M42.9487534,82.6616592h-0.4760742l-0.0825195-0.4306641
				c-0.0546875-0.0341797-0.1352539-0.0644531-0.2407227-0.0898438c-0.105957-0.0263672-0.2182617-0.0390625-0.3369141-0.0390625
				c-0.1738281,0-0.3081055,0.0361328-0.402832,0.1083984c-0.0952148,0.0722656-0.1425781,0.1660156-0.1425781,0.28125
				c0,0.1064453,0.0498047,0.1933594,0.1489258,0.2617188s0.2705078,0.140625,0.5136719,0.2167969
				c0.3491211,0.0957031,0.6137695,0.2226563,0.7939453,0.3808594c0.1806641,0.1582031,0.2705078,0.3652344,0.2705078,0.6220703
				c0,0.2685547-0.1069336,0.4804688-0.3212891,0.6357422s-0.4970703,0.2324219-0.847168,0.2324219
				c-0.2509766,0-0.4770508-0.0390625-0.6791992-0.1181641c-0.2016602-0.0791016-0.3701172-0.1884766-0.5048828-0.3271484
				v-0.6552734h0.4907227l0.0673828,0.4462891c0.0639648,0.0517578,0.1503906,0.0947266,0.2597656,0.1279297
				c0.109375,0.0341797,0.2314453,0.0507813,0.3662109,0.0507813c0.1738281,0,0.3056641-0.0351563,0.3964844-0.1054688
				c0.090332-0.0703125,0.1357422-0.1650391,0.1357422-0.2822266c0-0.1210938-0.043457-0.2177734-0.1293945-0.2910156
				c-0.0864258-0.0732422-0.2373047-0.1416016-0.453125-0.2070313c-0.375-0.1074219-0.6586914-0.2353516-0.8515625-0.3828125
				c-0.1923828-0.1484375-0.2885742-0.3505859-0.2885742-0.6074219c0-0.2539063,0.1083984-0.4619141,0.3256836-0.6240234
				c0.2172852-0.1611328,0.4902344-0.2441406,0.8188477-0.2480469c0.2431641,0,0.4648438,0.0361328,0.6650391,0.109375
				c0.199707,0.0732422,0.3676758,0.1708984,0.5039063,0.2929688V82.6616592z"/>
			<path class="st4" d="M45.6465073,82.6616592h-0.4755859l-0.0830078-0.4306641
				c-0.0546875-0.0341797-0.1357422-0.0644531-0.2412109-0.0898438c-0.1054688-0.0263672-0.2177734-0.0390625-0.3369141-0.0390625
				c-0.1738281,0-0.3076172,0.0361328-0.4023438,0.1083984c-0.0957031,0.0722656-0.1425781,0.1660156-0.1425781,0.28125
				c0,0.1064453,0.0498047,0.1933594,0.1484375,0.2617188c0.0996094,0.0683594,0.2705078,0.140625,0.5146484,0.2167969
				c0.3486328,0.0957031,0.6132813,0.2226563,0.7939453,0.3808594c0.1796875,0.1582031,0.2705078,0.3652344,0.2705078,0.6220703
				c0,0.2685547-0.1074219,0.4804688-0.3222656,0.6357422c-0.2138672,0.1552734-0.4960938,0.2324219-0.8466797,0.2324219
				c-0.2509766,0-0.4765625-0.0390625-0.6791992-0.1181641c-0.2016602-0.0791016-0.3701172-0.1884766-0.5048828-0.3271484
				v-0.6552734h0.4907227l0.0673828,0.4462891c0.0639648,0.0517578,0.1503906,0.0947266,0.2597656,0.1279297
				c0.109375,0.0341797,0.2314453,0.0507813,0.3662109,0.0507813c0.1738281,0,0.3056641-0.0351563,0.3964844-0.1054688
				c0.0898438-0.0703125,0.1357422-0.1650391,0.1357422-0.2822266c0-0.1210938-0.0429688-0.2177734-0.1298828-0.2910156
				c-0.0859375-0.0732422-0.2363281-0.1416016-0.4521484-0.2070313c-0.3759766-0.1074219-0.6591797-0.2353516-0.8520508-0.3828125
				c-0.1923828-0.1484375-0.2885742-0.3505859-0.2885742-0.6074219c0-0.2539063,0.1083984-0.4619141,0.3256836-0.6240234
				c0.2172852-0.1611328,0.4897461-0.2441406,0.8188477-0.2480469c0.2431641,0,0.4648438,0.0361328,0.6650391,0.109375
				c0.1992188,0.0732422,0.3671875,0.1708984,0.5039063,0.2929688V82.6616592z"/>
			<path class="st4" d="M45.939476,82.0395889v-0.3789063h1.3105469v0.3789063l-0.3388672,0.0644531v2.2509766l0.3388672,0.0644531
				v0.3769531H45.939476v-0.3769531l0.3388672-0.0644531v-2.2509766L45.939476,82.0395889z"/>
			<path class="st4" d="M47.4580307,84.4194717l0.2265625-0.0322266l0.9619141-2.7265625h0.6494141l0.9560547,2.7265625
				l0.2255859,0.0322266v0.3769531h-1.0771484v-0.3769531l0.2197266-0.0390625l-0.1396484-0.4306641H48.455101l-0.1386719,0.4306641
				l0.2197266,0.0390625v0.3769531h-1.078125V84.4194717z M48.6054916,83.4868546h0.7255859l-0.3564453-1.1044922H48.961937
				L48.6054916,83.4868546z"/>
		</g>
		<path class="st5" d="M39.2150345,65.7323151"/>
		<g>
			<g>
				<path class="st4" d="M51.4067612,72.2837296c-0.1733398,0.2763672-0.4155273,0.4824219-0.7260742,0.6191406
					s-0.671875,0.2050781-1.0844727,0.2050781c-0.4174805,0-0.7875977-0.1083984-1.1108398-0.3261719
					c-0.3237305-0.2177734-0.5737305-0.5263672-0.7509766-0.9277344c-0.1767578-0.4013672-0.2675781-0.8662109-0.2724609-1.3945313
					v-0.4960938c0-0.8564453,0.1801758-1.5205078,0.5400391-1.9921875c0.359375-0.4716797,0.8652344-0.7070313,1.5166016-0.7070313
					c0.534668,0,0.9648438,0.1513672,1.2905273,0.4550781s0.5249023,0.7333984,0.5976563,1.2910156h-0.675293
					c-0.1264648-0.7548828-0.5292969-1.1328125-1.2089844-1.1328125c-0.4526367,0-0.7954102,0.1767578-1.0283203,0.5292969
					c-0.2333984,0.3535156-0.3510742,0.8652344-0.3535156,1.5351563v0.4648438c0,0.6386719,0.1313477,1.1464844,0.3935547,1.5234375
					c0.2626953,0.3759766,0.6176758,0.5644531,1.0654297,0.5644531c0.2529297,0,0.4746094-0.03125,0.6645508-0.09375
					s0.3466797-0.1669922,0.4711914-0.3154297v-1.2744141h-1.1850586v-0.6132813h1.8564453V72.2837296z"/>
			</g>
		</g>
		<g>
			<path class="st4" d="M42.283226,72.0332413l1.4624023-4.6914063h0.7382813l-1.8984375,5.6875h-0.5976563l-1.8945313-5.6875
				h0.734375L42.283226,72.0332413z"/>
		</g>
		<g>
			<path class="st4" d="M34.0830307,70.8027725v2.2265625H33.408226v-5.6875h1.8876953
				c0.5600586,0,0.9990234,0.1591797,1.3168945,0.4765625c0.3173828,0.3173828,0.4760742,0.7382813,0.4760742,1.2617188
				c0,0.5517578-0.1552734,0.9775391-0.4658203,1.2753906s-0.7553711,0.4472656-1.3339844,0.4472656H34.0830307z
				 M34.0830307,70.1894913h1.2128906c0.3608398,0,0.6376953-0.0947266,0.8295898-0.2832031
				c0.1923828-0.1894531,0.2885742-0.4628906,0.2885742-0.8203125c0-0.3388672-0.0961914-0.6103516-0.2885742-0.8134766
				c-0.1918945-0.2041016-0.4555664-0.3095703-0.7910156-0.3173828h-1.2514648V70.1894913z"/>
		</g>
		<g>
			<path class="st4" d="M28.22756,71.2695694v0.7519531h1.4375v0.4238281h-3.5546875v-1.059082
				c0-0.3603516,0.0908203-0.6376953,0.2734375-0.831543c0.1826172-0.1943359,0.4472656-0.2910156,0.7958984-0.2910156
				c0.2216797,0,0.4140625,0.0537109,0.5791016,0.1611328c0.1640625,0.1079102,0.2871094,0.2578125,0.3681641,0.4492188
				l1.5087891-0.7509766H29.66506v0.4521484L28.22756,71.2695694z M27.843771,72.0215225V71.373085
				c0-0.2094727-0.0605469-0.3759766-0.1806641-0.5c-0.1210938-0.1235352-0.2822266-0.1855469-0.484375-0.1855469
				c-0.2207031,0-0.3886719,0.059082-0.5068359,0.1767578c-0.1171875,0.1181641-0.1767578,0.2885742-0.1787109,0.5107422v0.6464844
				H27.843771z"/>
			<path class="st4" d="M27.4726772,69.0786514l-1.3623047-0.7666016v-0.4970703l1.7626953,1.0107422l1.7919922-1.034668v0.5009766
				l-1.3867188,0.7866211l1.3867188,0.7910156v0.4990234l-1.7919922-1.0371094l-1.7626953,1.0126953v-0.4941406
				L27.4726772,69.0786514z"/>
		</g>
		<g>
			<path class="st4" d="M55.3261948,70.1899796v1.0283203h3.171875v0.4199219h-3.171875v1.0263672h-0.3828125v-2.4746094H55.3261948
				z"/>
			<path class="st4" d="M56.305687,69.1221085l-1.3623047-0.7666016v-0.4970703l1.7626953,1.0107422l1.7919922-1.034668v0.5009766
				l-1.3867188,0.7866211l1.3867188,0.7910156v0.4990234l-1.7919922-1.0371094l-1.7626953,1.0126953v-0.4941406
				L56.305687,69.1221085z"/>
		</g>
		<line class="st5" x1="31.3949814" y1="80.4219818" x2="31.3882847" y2="65.5445404"/>
		<line class="st5" x1="38.6708145" y1="65.5492783" x2="38.6708145" y2="80.377655"/>
		<line class="st5" x1="45.9073563" y1="80.3606491" x2="45.9073563" y2="65.5333328"/>
		<line class="st5" x1="53.1804199" y1="65.5445404" x2="53.1804199" y2="80.4219818"/>
		<polygon class="st6" points="24.1552715,65.5548859 24.1552715,80.4275894 60.4169655,80.4275894 60.4169655,65.5454865 		"/>
		
			<rect x="61.4169655" y="65.2037201" transform="matrix(-1 -4.484736e-11 4.484736e-11 -1 128.0255737 142.3360748)" class="st4" width="5.1916447" height="11.9286385"/>
		<g>
			<path class="st7" d="M62.5849838,73.3325577h1.9335938c0.2685547,0.0014648,0.4873047,0.0864258,0.6582031,0.2548828
				c0.1708984,0.1689453,0.2666016,0.3979492,0.2871094,0.6865234l0.0039063,0.1005859
				c0,0.3139648-0.0839844,0.5639648-0.2519531,0.7504883s-0.3994141,0.28125-0.6933594,0.2836914h-1.9375v-0.3740234h1.9257813
				c0.2060547,0,0.3652344-0.0571289,0.4794922-0.1713867s0.1708984-0.2773438,0.1708984-0.4887695
				c0-0.2138672-0.0566406-0.3779297-0.1699219-0.4912109c-0.1132813-0.1137695-0.2724609-0.1704102-0.4785156-0.1704102h-1.9277344
				V73.3325577z"/>
			<path class="st7" d="M64.6845932,71.1518936v1.2016602l0.7441406,0.2695313v0.3901367l-2.84375-1.0952148v-0.3310547
				l2.84375-1.097168v0.3881836L64.6845932,71.1518936z M64.3779526,72.239296v-0.9750977l-1.3300781,0.4882813
				L64.3779526,72.239296z"/>
			<path class="st7" d="M64.2783432,69.0522842v0.6738281h1.1503906v0.3798828h-2.84375v-0.9492188
				c0-0.3232422,0.0732422-0.5717773,0.21875-0.7456055c0.1455078-0.1743164,0.3583984-0.2612305,0.6367188-0.2612305
				c0.1767578,0,0.3310547,0.0483398,0.4628906,0.1450195c0.1318359,0.0961914,0.2294922,0.2304688,0.2949219,0.402832
				l1.2070313-0.6738281h0.0234375v0.4057617L64.2783432,69.0522842z M63.9717026,69.7261124v-0.581543
				c0-0.1875-0.0478516-0.3369141-0.1445313-0.4477539c-0.0966797-0.1113281-0.2255859-0.1665039-0.3876953-0.1665039
				c-0.1757813,0-0.3115234,0.0527344-0.4052734,0.1586914c-0.09375,0.1054688-0.1416016,0.2583008-0.1425781,0.4580078v0.5791016
				H63.9717026z"/>
			<path class="st7" d="M62.8916245,65.6382217v0.921875h2.5371094v0.3759766h-2.5371094v0.9199219h-0.3066406v-2.2177734
				H62.8916245z"/>
		</g>
	</g>
	<g>
		<polyline class="st8" points="15.5504208,67.2596817 15.5504208,69.2479248 23.1709194,69.2479248 23.1709194,67.2596817 		"/>
		<polyline class="st8" points="23.1709194,24.9842205 23.1709194,22.9959717 15.5504208,22.9959717 15.5504208,24.9842205 		"/>
		<polyline class="st8" points="44.0717125,64.2170029 44.0717125,66.7249527 46.9637604,66.7249527 46.9637604,63.1927414 		"/>
		<polyline class="st8" points="44.0717125,24.9842205 44.0717125,22.4762745 46.9637604,22.4762745 46.9637604,26.0084877 		"/>
		
			<rect x="46.5699806" y="49.5798798" transform="matrix(8.897955e-11 -1 1 8.897955e-11 -4.7468886 100.4524231)" class="st8" width="2.5655692" height="6.0395503"/>
		
			<rect x="46.5699806" y="46.4077644" transform="matrix(8.897955e-11 -1 1 8.897955e-11 -1.5747736 97.280304)" class="st8" width="2.5655692" height="6.0395503"/>
		
			<rect x="46.5699806" y="43.2356491" transform="matrix(8.897955e-11 -1 1 8.897955e-11 1.5973413 94.1081924)" class="st8" width="2.5655692" height="6.0395503"/>
		
			<rect x="46.5699806" y="40.0635338" transform="matrix(8.897955e-11 -1 1 8.897955e-11 4.7694559 90.9360733)" class="st8" width="2.5655692" height="6.0395503"/>
		
			<rect x="46.5699806" y="36.8914185" transform="matrix(8.897955e-11 -1 1 8.897955e-11 7.9415708 87.7639618)" class="st8" width="2.5655692" height="6.0395503"/>
		
			<rect x="46.5699806" y="33.7193031" transform="matrix(8.897955e-11 -1 1 8.897955e-11 11.1136856 84.5918427)" class="st8" width="2.5655692" height="6.0395503"/>
		
			<rect x="46.5699806" y="30.5471897" transform="matrix(8.897955e-11 -1 1 8.897955e-11 14.2858009 81.4197311)" class="st8" width="2.5655692" height="6.0395503"/>
		
			<rect x="46.5699806" y="27.3750744" transform="matrix(8.897955e-11 -1 1 8.897955e-11 17.4579163 78.247612)" class="st8" width="2.5655692" height="6.0395503"/>
		
			<rect x="46.5699806" y="24.202961" transform="matrix(8.897955e-11 -1 1 8.897955e-11 20.6300297 75.0755005)" class="st8" width="2.5655692" height="6.0395503"/>
		<path class="st9" d="M5.4566345,67.2596817h10.0937834H42.322422c0.1591721,0,0.288208-0.1290359,0.288208-0.288208v-2.4662628
			c0-0.1591721,0.1290321-0.288208,0.288208-0.288208h3.7767143c0.1591721,0,0.288208-0.1290283,0.288208-0.2882042V25.2724285
			c0-0.1591721-0.1290359-0.288208-0.288208-0.288208H7.5014014c-0.159173,0-0.288208,0.1290359-0.288208,0.288208v26.075243
			c0,0.0238304-0.0029554,0.0475655-0.0087976,0.0706673l-2.0271716,8.0153542
			c-0.0058427,0.0231018-0.0087976,0.0468369-0.0087976,0.0706673v7.4671135
			C5.1684265,67.1306458,5.2974615,67.2596817,5.4566345,67.2596817z"/>
		<rect x="31.5244522" y="24.9842205" class="st10" width="11.0033302" height="3.0671501"/>
		<polygon class="st11" points="45.9696198,24.9842205 45.0809174,28.0513706 42.5277824,28.0513706 42.5277824,24.9842205 		"/>
		<path class="st12" d="M31.4203777,25.2087479l1.2966671,0.7833996c0.4561081,0.1979942,0.9846916,0.2917271,1.4985313,0.2093601
			c0.1140289-0.0182781,0.2250252-0.0520859,0.3346443-0.0884266l2.8633461-0.7459297
			c0.1741867-0.0577469,0.3529205-0.1049271,0.5357399-0.1208706c0.5598907-0.0488262,1.1229324,0.1085033,1.5795288,0.4493637
			l1.30439,0.7704163"/>
		<polygon class="st10" points="10.2445698,67.2055588 10.2445698,66.3596802 23.3397369,66.3596802 23.3397369,60.8316574 
			19.5834675,60.8316574 16.7224884,63.4196243 10.2445698,63.4196243 10.2445698,62.6768417 16.5520916,62.6768417 
			19.4698315,60.1004486 24.0458031,60.1004486 24.0458031,67.2055588 		"/>
		<path class="st10" d="M32.3306046,50.2387848h-8.1194077c-0.0955029,0-0.172924-0.0774193-0.172924-0.172924v-0.4826012
			c0-0.0955048,0.0774212-0.172924,0.172924-0.172924h8.9177361c0.0955009,0,0.172924,0.0774193,0.172924,0.172924v4.0524712
			c0,0.0955009-0.0774231,0.172924-0.172924,0.172924h-8.9177361c-0.0955029,0-0.172924-0.0774231-0.172924-0.172924v-0.4524765
			c0-0.0955048,0.0774212-0.172924,0.172924-0.172924h8.1194077c0.0955048,0,0.1729279-0.0774231,0.1729279-0.1729279v-2.4256935
			C32.5035324,50.3162079,32.4261093,50.2387848,32.3306046,50.2387848z"/>
		<path class="st10" d="M32.3306046,30.3785648h-8.1194077c-0.0955029,0-0.172924-0.0774212-0.172924-0.1729259v-0.4826012
			c0-0.0955029,0.0774212-0.172924,0.172924-0.172924h8.9177361c0.0955009,0,0.172924,0.0774212,0.172924,0.172924v4.0524712
			c0,0.0955048-0.0774231,0.172924-0.172924,0.172924h-8.9177361c-0.0955029,0-0.172924-0.0774193-0.172924-0.172924v-0.4524765
			c0-0.0955048,0.0774212-0.172924,0.172924-0.172924h8.1194077c0.0955048,0,0.1729279-0.0774231,0.1729279-0.172924v-2.4256954
			C32.5035324,30.455986,32.4261093,30.3785648,32.3306046,30.3785648z"/>
		<line class="st13" x1="24.2768326" y1="67.0837479" x2="5.4566345" y2="67.0837479"/>
	</g>
	<rect x="56.7133026" y="27.2227345" class="st6" width="12.9697218" height="26.5859184"/>
	<rect x="69.6830215" y="27.2227345" class="st6" width="12.2807369" height="26.5859184"/>
	<g>
		<rect x="26.7168236" y="1.8364177" class="st4" width="31.6296291" height="4.814815"/>
		<g>
			<path class="st14" d="M30.0439663,2.7007189v0.8349609h-0.4868164L29.531271,3.1850939h-0.5825195v2.2099609l0.3393555,0.0644531
				v0.3769531h-1.3125V5.4595079l0.3388672-0.0644531V3.1850939H27.734396l-0.0258789,0.3505859h-0.484375V2.7007189H30.0439663z"/>
			<path class="st14" d="M30.3130093,5.4595079l0.3041992-0.0644531V3.9497423l-0.3369141-0.0644531V3.5063829h0.9277344
				l0.0283203,0.3398438c0.0551758-0.1201172,0.1259766-0.2148438,0.2128906-0.2822266s0.1875-0.1015625,0.3017578-0.1015625
				c0.0336914,0,0.0688477,0.0029297,0.1054688,0.0078125c0.0371094,0.0048828,0.0678711,0.0117188,0.0922852,0.0185547
				L31.8813686,4.062047l-0.2607422-0.0068359c-0.0922852,0-0.1694336,0.0175781-0.2299805,0.0537109
				c-0.0610352,0.0361328-0.1074219,0.0869141-0.1391602,0.1533203v1.1328125l0.3041992,0.0644531v0.3769531h-1.2426758V5.4595079z"
				/>
			<path class="st14" d="M33.2632065,5.8813829c-0.3388672,0-0.6098633-0.1074219-0.8125-0.3232422
				c-0.2026367-0.2148438-0.3041992-0.4882813-0.3041992-0.8203125V4.6518908c0-0.3457031,0.0961914-0.6308594,0.2880859-0.8554688
				c0.1918945-0.2236328,0.4492188-0.3349609,0.7719727-0.3339844c0.3173828,0,0.5634766,0.0947266,0.7387695,0.2851563
				c0.175293,0.1894531,0.2626953,0.4453125,0.2626953,0.7685547V4.858922h-1.4033203l-0.0043945,0.0126953
				c0.0117188,0.1533203,0.0634766,0.2802734,0.1552734,0.3789063c0.0922852,0.0996094,0.2167969,0.1484375,0.375,0.1484375
				c0.1401367,0,0.2568359-0.0136719,0.3496094-0.0419922c0.0927734-0.0273438,0.1943359-0.0722656,0.3041992-0.1318359
				l0.1713867,0.3876953c-0.0966797,0.0761719-0.2226563,0.1396484-0.3764648,0.1914063
				C33.6250229,5.8559923,33.4526596,5.8813829,33.2632065,5.8813829z M33.2065659,3.9477892
				c-0.1171875,0-0.2099609,0.0439453-0.277832,0.1328125c-0.0683594,0.0898438-0.1103516,0.2060547-0.1259766,0.3515625
				l0.0063477,0.0107422h0.777832V4.3872423c0-0.1337891-0.0317383-0.2402344-0.0947266-0.3203125
				C33.4292221,3.9878283,33.3340073,3.9477892,33.2065659,3.9477892z"/>
			<path class="st14" d="M34.4341049,3.8852892V3.5063829h0.9277344l0.0258789,0.3076172
				c0.0751953-0.1123047,0.1699219-0.1982422,0.2836914-0.2597656c0.1137695-0.0605469,0.2451172-0.0917969,0.394043-0.0917969
				c0.1508789,0,0.2797852,0.0332031,0.3867188,0.0996094c0.1074219,0.0664063,0.1884766,0.1660156,0.2431641,0.2988281
				c0.0727539-0.1240234,0.1665039-0.2216797,0.2827148-0.2919922c0.1157227-0.0712891,0.2519531-0.1064453,0.4082031-0.1064453
				c0.2319336,0,0.4145508,0.0800781,0.5488281,0.2382813c0.1337891,0.1591797,0.2006836,0.4003906,0.2006836,0.7246094v0.9697266
				l0.3061523,0.0644531v0.3769531H37.227562V5.4595079l0.2739258-0.0644531V4.4233751
				c0-0.1767578-0.0288086-0.2988281-0.0869141-0.3681641s-0.144043-0.1035156-0.2583008-0.1035156
				c-0.0898438,0-0.1679688,0.0195313-0.2338867,0.0595703c-0.065918,0.0390625-0.1181641,0.09375-0.1572266,0.1640625
				c0,0.0273438,0.0004883,0.0507813,0.0019531,0.0703125s0.0024414,0.0390625,0.0024414,0.0595703v1.0898438l0.2563477,0.0644531
				v0.3769531h-1.1450195V5.4595079l0.2563477-0.0644531V4.4233751c0-0.171875-0.0288086-0.2939453-0.0869141-0.3652344
				c-0.0581055-0.0703125-0.1450195-0.1064453-0.2607422-0.1064453c-0.0854492,0-0.1601563,0.0166016-0.2246094,0.0488281
				s-0.1176758,0.078125-0.159668,0.1367188v1.2578125l0.2734375,0.0644531v0.3769531h-1.2119141V5.4595079l0.3061523-0.0644531
				V3.9497423L34.4341049,3.8852892z"/>
			<path class="st14" d="M40.1430893,5.8364611c-0.0175781-0.0390625-0.0327148-0.0791016-0.0458984-0.1191406
				c-0.0126953-0.0410156-0.0229492-0.0830078-0.0302734-0.1240234c-0.0751953,0.0859375-0.1669922,0.1552734-0.2749023,0.2089844
				c-0.1079102,0.0527344-0.2314453,0.0791016-0.3701172,0.0791016c-0.2304688,0-0.4130859-0.0615234-0.5488281-0.1855469
				c-0.1352539-0.125-0.203125-0.2939453-0.203125-0.5078125c0-0.2177734,0.0883789-0.3867188,0.2651367-0.5058594
				s0.4360352-0.1787109,0.777832-0.1787109h0.3237305V4.2749376c0-0.1123047-0.0327148-0.1992188-0.0981445-0.2607422
				C39.873558,3.952672,39.7773666,3.921422,39.6499252,3.921422c-0.0727539,0-0.137207,0.0087891-0.1933594,0.0253906
				c-0.0566406,0.0166016-0.1020508,0.0361328-0.137207,0.0585938l-0.0410156,0.25h-0.4780273l0.0024414-0.5166016
				c0.1157227-0.078125,0.2485352-0.1435547,0.3984375-0.1962891s0.3129883-0.0800781,0.4897461-0.0800781
				c0.2910156,0,0.527832,0.0712891,0.7094727,0.2128906s0.2724609,0.3427734,0.2724609,0.6035156v0.9628906
				c0,0.0361328,0.0004883,0.0703125,0.0009766,0.1015625c0.0009766,0.03125,0.003418,0.0615234,0.0078125,0.0908203
				l0.1933594,0.0253906v0.3769531H40.1430893z M39.5932846,5.4165392c0.0957031,0,0.1826172-0.0205078,0.2607422-0.0615234
				s0.1391602-0.0917969,0.1826172-0.1542969V4.8452501h-0.3237305c-0.1347656,0-0.2368164,0.03125-0.3066406,0.09375
				c-0.0693359,0.0625-0.1040039,0.1376953-0.1040039,0.2255859c0,0.0791016,0.0258789,0.140625,0.0771484,0.1855469
				C39.430687,5.3940783,39.501976,5.4165392,39.5932846,5.4165392z"/>
			<path class="st14" d="M45.2177963,3.5171251l-0.0131836-0.0029297l-0.847168,2.3222656h-0.4257813l-0.8427734-2.3134766
				l-0.0131836,0.0019531l0.0610352,1.3769531v0.4931641l0.3388672,0.0644531v0.3769531h-1.3100586V5.4595079l0.3369141-0.0644531
				V3.1440783l-0.3369141-0.0644531V2.7007189h0.3369141h0.8276367l0.8056641,2.3105469h0.0131836l0.8125-2.3105469h1.1689453
				v0.3789063l-0.3388672,0.0644531v2.2509766l0.3388672,0.0644531v0.3769531h-1.3100586V5.4595079l0.3364258-0.0644531V4.9018908
				L45.2177963,3.5171251z"/>
			<path class="st14" d="M46.3711166,4.6499376c0-0.3476563,0.0981445-0.6328125,0.2944336-0.8544922
				s0.4672852-0.3330078,0.8134766-0.3330078c0.3476563,0,0.6196289,0.1113281,0.815918,0.3320313
				c0.1962891,0.2216797,0.2944336,0.5058594,0.2944336,0.8554688v0.0449219c0,0.3505859-0.0981445,0.6357422-0.2944336,0.8564453
				c-0.1962891,0.2197266-0.4667969,0.3300781-0.8115234,0.3300781c-0.3491211,0-0.621582-0.1103516-0.8178711-0.3300781
				c-0.1962891-0.2207031-0.2944336-0.5058594-0.2944336-0.8564453V4.6499376z M47.005394,4.6948595
				c0,0.2128906,0.0375977,0.3828125,0.1132813,0.5117188c0.0751953,0.1279297,0.1967773,0.1923828,0.3647461,0.1923828
				c0.1635742,0,0.2836914-0.0644531,0.359375-0.1933594c0.0761719-0.1298828,0.1142578-0.2998047,0.1142578-0.5107422V4.6499376
				c0-0.2070313-0.0385742-0.3759766-0.1152344-0.5068359c-0.0766602-0.1298828-0.1977539-0.1953125-0.362793-0.1953125
				s-0.2851563,0.0654297-0.3603516,0.1953125c-0.0756836,0.1308594-0.1132813,0.2998047-0.1132813,0.5068359V4.6948595z"/>
			<path class="st14" d="M50.3945541,5.5522814c-0.0737305,0.1074219-0.1611328,0.1894531-0.2617188,0.2451172
				c-0.1005859,0.0566406-0.215332,0.0839844-0.3442383,0.0839844c-0.2895508,0-0.5146484-0.1044922-0.6743164-0.3144531
				c-0.1601563-0.2089844-0.2402344-0.4863281-0.2402344-0.8310547V4.6909533c0-0.3681641,0.0805664-0.6640625,0.2412109-0.8896484
				s0.3867188-0.3388672,0.6777344-0.3388672c0.1171875,0,0.2231445,0.0263672,0.3173828,0.0771484
				c0.09375,0.0507813,0.1762695,0.1230469,0.2475586,0.2158203V2.9204454l-0.3388672-0.0654297V2.4761095h0.3388672h0.6342773
				v2.9189453l0.3041992,0.0644531v0.3769531h-0.8540039L50.3945541,5.5522814z M49.5083237,4.7358751
				c0,0.2041016,0.034668,0.3642578,0.1035156,0.4814453c0.0683594,0.1171875,0.1811523,0.1757813,0.3374023,0.1757813
				c0.0927734,0,0.1733398-0.0185547,0.2412109-0.0566406c0.0683594-0.0371094,0.1240234-0.0908203,0.1674805-0.1611328V4.187047
				c-0.043457-0.0751953-0.0991211-0.1328125-0.1665039-0.1738281s-0.1464844-0.0615234-0.237793-0.0615234
				c-0.1547852,0-0.2680664,0.0683594-0.3388672,0.2050781c-0.0708008,0.1357422-0.1064453,0.3144531-0.1064453,0.5341797V4.7358751
				z"/>
			<path class="st14" d="M53.1421127,5.5415392c-0.0742188,0.109375-0.1679688,0.1933594-0.2792969,0.2519531
				c-0.109375,0.0585938-0.2363281,0.0878906-0.378418,0.0878906c-0.2475586,0-0.4418945-0.078125-0.5820313-0.2353516
				c-0.140625-0.1572266-0.2109375-0.4023438-0.2109375-0.7333984V3.9497423l-0.2583008-0.0644531V3.5063829h0.2583008h0.6342773
				v1.4101563c0,0.1699219,0.0288086,0.2910156,0.0859375,0.3652344s0.1425781,0.1113281,0.2558594,0.1113281
				c0.0996094,0,0.1855469-0.0166016,0.2597656-0.0488281c0.0722656-0.0322266,0.1328125-0.078125,0.1787109-0.1386719V3.9497423
				l-0.2783203-0.0644531V3.5063829h0.2783203h0.6337891v1.8886719l0.2851563,0.0644531v0.3769531h-0.8408203L53.1421127,5.5415392z
				"/>
			<path class="st14" d="M54.2065659,2.8550158V2.4761095h0.9736328v2.9189453l0.3056641,0.0644531v0.3769531H54.239769V5.4595079
				l0.3056641-0.0644531V2.9204454L54.2065659,2.8550158z"/>
			<path class="st14" d="M56.817894,5.8813829c-0.3388672,0-0.609375-0.1074219-0.8125-0.3232422
				C55.8032455,5.343297,55.701683,5.0698595,55.701683,4.7378283V4.6518908c0-0.3457031,0.0957031-0.6308594,0.2880859-0.8554688
				c0.1914063-0.2236328,0.4492188-0.3349609,0.7724609-0.3339844c0.3164063,0,0.5625,0.0947266,0.7382813,0.2851563
				c0.1748047,0.1894531,0.2626953,0.4453125,0.2626953,0.7685547V4.858922h-1.4033203l-0.0039063,0.0126953
				c0.0107422,0.1533203,0.0625,0.2802734,0.1552734,0.3789063c0.0917969,0.0996094,0.2167969,0.1484375,0.3740234,0.1484375
				c0.140625,0,0.2578125-0.0136719,0.3505859-0.0419922c0.0917969-0.0273438,0.1933594-0.0722656,0.3037109-0.1318359
				l0.171875,0.3876953c-0.0976563,0.0761719-0.2226563,0.1396484-0.3769531,0.1914063S57.0083237,5.8813829,56.817894,5.8813829z
				 M56.7622299,3.9477892c-0.1181641,0-0.2099609,0.0439453-0.2783203,0.1328125
				c-0.0683594,0.0898438-0.1103516,0.2060547-0.1259766,0.3515625l0.0068359,0.0107422h0.7773438V4.3872423
				c0-0.1337891-0.03125-0.2402344-0.0947266-0.3203125C56.9848862,3.9878283,56.889183,3.9477892,56.7622299,3.9477892z"/>
		</g>
	</g>
	<g>
		<g>
			<g>
				<g>
					<polygon class="st3" points="32.845726,80.7583389 31.5732632,79.4844131 31.574728,74.9521866 32.849144,73.6802139 
						37.3808823,73.6816788 38.6533432,74.9556046 38.6518784,79.4878311 37.3789291,80.7583389 					"/>
					<path class="st15" d="M37.3768768,73.6866608l0.8095703,0.8095703l0.4601517,0.4601517v4.5271606l-1.269722,1.2697296
						h-4.5271606l-1.2697239-1.2697296v-4.5271606l0.4601536-0.4601517l0.8095703-0.8095703H37.3768768 M37.3810196,73.6766663
						h-4.5354462c-0.4981461,0.4981384-0.7774353,0.7774353-1.2755756,1.2755737v4.5354462
						c0.4981403,0.4981461,0.7774296,0.7774353,1.2755756,1.275589h4.5354462
						c0.4981461-0.4981537,0.7774353-0.7774429,1.2755737-1.275589V74.95224
						C38.1584549,74.4541016,37.8791656,74.1748047,37.3810196,73.6766663L37.3810196,73.6766663z"/>
				</g>
			</g>
			<rect x="34.2294579" y="76.3128738" class="st16" width="1.7676752" height="1.8141732"/>
			<rect x="34.6299477" y="76.7238998" class="st17" width="0.9666973" height="0.992126"/>
			<line class="st18" x1="34.2294579" y1="76.3128738" x2="34.6299477" y2="76.7238998"/>
			<line class="st18" x1="35.5966454" y1="76.7238998" x2="35.9971313" y2="76.3128738"/>
			<line class="st18" x1="35.5966454" y1="77.7160263" x2="35.9971313" y2="78.1270523"/>
			<line class="st18" x1="34.6299477" y1="77.7160263" x2="34.2294579" y2="78.1270523"/>
		</g>
	</g>
	<g>
		<g>
			<g>
				<g>
					<polygon class="st3" points="25.6738491,80.7578506 24.4018764,79.4839249 24.4033413,74.9516983 25.6772671,73.6797256 
						30.2094936,73.6811905 31.4814663,74.9551163 31.4800014,79.4873428 30.2075405,80.7578506 					"/>
					<path class="st15" d="M30.2052212,73.6862869L31.253149,74.73423l0.2217941,0.2217865v4.527153l-1.269722,1.2697296h-4.5271606
						l-0.6348572-0.6348724l-0.6348648-0.6348572v-4.527153l1.269722-1.2697296H30.2052212 M30.2093639,73.6762848h-4.5354462
						c-0.4981384,0.4981384-0.7774353,0.7774429-1.2755737,1.275589v4.5354309
						c0.4981384,0.4981537,0.7774353,0.7774429,1.2755737,1.275589h4.5354462
						c0.4981461-0.4981461,0.7774353-0.7774353,1.2755737-1.275589v-4.5354309
						C30.9867992,74.4537277,30.70751,74.1744232,30.2093639,73.6762848L30.2093639,73.6762848z"/>
				</g>
			</g>
			<rect x="27.0578041" y="76.3125" class="st16" width="1.7676752" height="1.8141732"/>
			<rect x="27.4582939" y="76.723526" class="st17" width="0.9666973" height="0.992126"/>
			<line class="st18" x1="27.0578041" y1="76.3125" x2="27.4582939" y2="76.723526"/>
			<line class="st18" x1="28.4249897" y1="76.723526" x2="28.8254795" y2="76.3125"/>
			<line class="st18" x1="28.4249897" y1="77.7156525" x2="28.8254795" y2="78.1266785"/>
			<line class="st18" x1="27.4582939" y1="77.7156525" x2="27.0578041" y2="78.1266785"/>
		</g>
	</g>
	<g>
		<g>
			<g>
				<g>
					<polygon class="st3" points="47.1889877,80.7583389 45.9165268,79.4844131 45.9179916,74.9521866 47.1924057,73.6802139 
						51.724144,73.6816788 52.9790268,74.9385147 52.9951401,79.4878311 51.7221909,80.7583389 					"/>
					<path class="st15" d="M51.7201843,73.6866608l0.6348572,0.6348648l0.6348648,0.6348572v4.5271606l-1.269722,1.2697296
						h-4.527153l-1.2697296-1.2697296v-4.5271606l0.3557281-0.3557281l0.9140015-0.9139938H51.7201843 M51.7243195,73.6766663
						h-4.5354309c-0.4981537,0.4981384-0.7774506,0.7774353-1.275589,1.2755737v4.5354462
						c0.4981384,0.4981461,0.7774353,0.7774353,1.275589,1.275589h4.5354309
						c0.4981537-0.4981537,0.7774429-0.7774429,1.2755966-1.275589V74.95224
						C52.5017624,74.4541016,52.2224731,74.1748047,51.7243195,73.6766663L51.7243195,73.6766663z"/>
				</g>
			</g>
			<rect x="48.5727654" y="76.3128738" class="st16" width="1.7676752" height="1.8141732"/>
			<rect x="48.9732552" y="76.7238998" class="st17" width="0.9666973" height="0.992126"/>
			<line class="st18" x1="48.5727654" y1="76.3128738" x2="48.9732552" y2="76.7238998"/>
			<line class="st18" x1="49.9399529" y1="76.7238998" x2="50.3404388" y2="76.3128738"/>
			<line class="st18" x1="49.9399529" y1="77.7160263" x2="50.3404388" y2="78.1270523"/>
			<line class="st18" x1="48.9732552" y1="77.7160263" x2="48.5727654" y2="78.1270523"/>
		</g>
	</g>
	<g>
		<g>
			<g>
				<g>
					<polygon class="st3" points="40.0171127,80.7578506 38.7451401,79.4839249 38.7466049,74.9516983 40.0205307,73.6797256 
						44.5527573,73.6811905 45.8247299,74.9551163 45.8232651,79.4873428 44.5508041,80.7578506 					"/>
					<path class="st15" d="M44.5485306,73.6862869l1.0479279,1.0479431l0.2217941,0.2217865v4.527153l-1.269722,1.2697296
						h-4.5271606l-1.269722-1.2697296v-4.527153l0.2217941-0.2217865l1.0479279-1.0479431H44.5485306 M44.5526733,73.6762848
						h-4.5354462c-0.4981461,0.4981384-0.7774353,0.7774429-1.2755737,1.275589v4.5354309
						c0.4981384,0.4981537,0.7774277,0.7774429,1.2755737,1.275589h4.5354462
						c0.4981461-0.4981461,0.7774353-0.7774353,1.2755737-1.275589v-4.5354309
						C45.3301086,74.4537277,45.0508194,74.1744232,44.5526733,73.6762848L44.5526733,73.6762848z"/>
				</g>
			</g>
			<rect x="41.4011116" y="76.3125" class="st16" width="1.7676752" height="1.8141732"/>
			<rect x="41.8016014" y="76.723526" class="st17" width="0.9666973" height="0.992126"/>
			<line class="st18" x1="41.4011116" y1="76.3125" x2="41.8016014" y2="76.723526"/>
			<line class="st18" x1="42.7682991" y1="76.723526" x2="43.1687851" y2="76.3125"/>
			<line class="st18" x1="42.7682991" y1="77.7156525" x2="43.1687851" y2="78.1266785"/>
			<line class="st18" x1="41.8016014" y1="77.7156525" x2="41.4011116" y2="78.1266785"/>
		</g>
	</g>
	<g>
		<g>
			<g>
				<g>
					<polygon class="st3" points="54.3603745,80.7588272 53.0884018,79.4844131 53.0898666,74.9526749 54.3637924,73.6802139 
						58.896019,73.6816788 60.1679916,74.9560928 60.1665268,79.4878311 58.896019,80.7588272 					"/>
					<path class="st15" d="M58.8918381,73.6870346l0.7340851,0.7340927l0.5356293,0.5356369v4.527153l-0.6348572,0.6348572
						l-0.6348572,0.6348724h-4.5271606l-0.3557281-0.3557434l-0.9139862-0.9139862v-4.527153l1.2697144-1.2697296H58.8918381
						 M58.8959732,73.6770325h-4.5354309c-0.4981537,0.4981384-0.7774506,0.7774429-1.275589,1.275589v4.5354309
						c0.4981384,0.4981537,0.7774353,0.7774429,1.275589,1.275589h4.5354309
						c0.4981537-0.4981461,0.7774353-0.7774353,1.275589-1.275589v-4.5354309
						C59.6734085,74.4544754,59.3941269,74.1751709,58.8959732,73.6770325L58.8959732,73.6770325z"/>
				</g>
			</g>
			<rect x="55.7444191" y="76.3132477" class="st16" width="1.7676752" height="1.8141732"/>
			<rect x="56.1449089" y="76.7242737" class="st17" width="0.9666973" height="0.992126"/>
			<line class="st18" x1="55.7444191" y1="76.3132477" x2="56.1449089" y2="76.7242737"/>
			<line class="st18" x1="57.1116028" y1="76.7242737" x2="57.5120926" y2="76.3132477"/>
			<line class="st18" x1="57.1116028" y1="77.7164001" x2="57.5120926" y2="78.1274261"/>
			<line class="st18" x1="56.1449089" y1="77.7164001" x2="55.7444191" y2="78.1274261"/>
		</g>
	</g>
</g>
<g>
</g>
<g>
</g>
<g>
</g>
<g>
</g>
<g>
</g>
</svg>
