<?xml version="1.0" encoding="utf-8"?>
<!-- Generator: Adobe Illustrator 23.0.3, SVG Export Plug-In . SVG Version: 6.00 Build 0)  -->
<svg version="1.1" id="Лицевая_сторона"
	 xmlns="http://www.w3.org/2000/svg" xmlns:xlink="http://www.w3.org/1999/xlink" x="0px" y="0px"
	 viewBox="0 0 85.039978 85.1636734" style="enable-background:new 0 0 85.039978 85.1636734;" xml:space="preserve">
<style type="text/css">
	.st0{fill:#19191A;}
	.st1{fill:#9E9B9C;}
	.st2{fill:#CEC7BD;}
	.st3{fill:#E5E4E0;}
	.st4{fill:#918C84;}
	.st5{fill:none;stroke:#F6F6F6;stroke-width:0.75;stroke-miterlimit:10;}
	.st6{fill:none;stroke:#F6F6F6;stroke-width:0.6790737;stroke-miterlimit:10;}
	.st7{fill:#151616;}
	.st8{fill:#CBC5BA;}
	.st9{fill:#35322E;}
	.st10{fill:#B3B3B2;}
	.st11{fill:#CDC7BC;}
	.st12{display:none;fill:#D2D94E;stroke:#EFE94A;stroke-width:0.25;stroke-miterlimit:10;}
	.st13{fill:#EBAD4F;}
	.st14{fill:#D24A44;}
	.st15{opacity:0.37;fill:none;stroke:#FFFFFF;stroke-width:0.5;stroke-miterlimit:10;}
	.st16{fill:none;stroke:#FFFFFF;stroke-width:0.5;stroke-miterlimit:10;}
	.st17{fill:#8E7647;}
	.st18{fill:#593E2E;}
	.st19{fill:#666566;}
	.st20{fill:#4C4C4C;stroke:#0D0E0F;stroke-width:0.2474094;stroke-miterlimit:10;}
	.st21{fill:#4C4C4C;stroke:#0D0E0F;stroke-width:0.2487812;stroke-miterlimit:10;}
	.st22{fill:#E39344;stroke:#0D0E0F;stroke-width:0.1015258;stroke-miterlimit:10;}
	.st23{opacity:0.35;fill:#E39344;}
	.st24{fill:#363331;}
	.st25{fill:#76623C;}
	.st26{fill:#FFFFFF;}
</style>
<g>
	<g id="Фон">
		<path class="st0" d="M0,0.1236926v85.039978h85.039978V0.1236926H0z M6.7113037,34.2100563
			c0.9785767,0,1.7718506,0.793335,1.7718506,1.7719116s-0.7932739,1.7718506-1.7718506,1.7718506
			s-1.7719116-0.7932739-1.7719116-1.7718506S5.7327271,34.2100563,6.7113037,34.2100563z M6.7113037,41.3815041
			c0.9785767,0,1.7718506,0.7932739,1.7718506,1.7718506s-0.7932739,1.7719116-1.7718506,1.7719116
			s-1.7719116-0.793335-1.7719116-1.7719116S5.7327271,41.3815041,6.7113037,41.3815041z M4.9393921,50.317112
			c0-0.9785767,0.793335-1.7719116,1.7719116-1.7719116s1.7718506,0.793335,1.7718506,1.7719116
			s-0.7932739,1.7718506-1.7718506,1.7718506S4.9393921,51.2956886,4.9393921,50.317112z M18.9920425,34.2100563
			c0.9785767,0,1.7718506,0.793335,1.7718506,1.7719116s-0.7932739,1.7718506-1.7718506,1.7718506
			s-1.7719116-0.7932739-1.7719116-1.7718506S18.0134659,34.2100563,18.9920425,34.2100563z M18.9920425,41.3815041
			c0.9785767,0,1.7718506,0.7932739,1.7718506,1.7718506s-0.7932739,1.7719116-1.7718506,1.7719116
			s-1.7719116-0.793335-1.7719116-1.7719116S18.0134659,41.3815041,18.9920425,41.3815041z M17.2201309,50.317112
			c0-0.9785767,0.793335-1.7719116,1.7719116-1.7719116s1.7718506,0.793335,1.7718506,1.7719116
			s-0.7932739,1.7718506-1.7718506,1.7718506S17.2201309,51.2956886,17.2201309,50.317112z M9.9212646,79.6354752
			c-2.4264526,0-4.3936768-1.9667969-4.3936768-4.3926392c0-2.4279175,1.9672241-4.3947754,4.3936768-4.3947754
			s4.3936768,1.9668579,4.3936768,4.3947754C14.3149414,77.6686783,12.3477173,79.6354752,9.9212646,79.6354752z
			 M9.9223022,14.4386339c-2.4279175,0-4.3947144-1.9667969-4.3947144-4.3927002
			c0-2.4279175,1.9667969-4.3947144,4.3947144-4.3947144c2.4258423,0,4.3926392,1.9667969,4.3926392,4.3947144
			C14.3149414,12.471837,12.3481445,14.4386339,9.9223022,14.4386339z M75.1170654,79.6354752
			c-2.4258423,0-4.3926392-1.968811-4.3926392-4.3947144c0-2.4258423,1.9667969-4.3927002,4.3926392-4.3927002
			c2.4279175,0,4.3947754,1.9668579,4.3947754,4.3927002C79.5118408,77.6666641,77.5449829,79.6354752,75.1170654,79.6354752z
			 M75.1191406,14.4386339c-2.4279175,0-4.3947144-1.9667969-4.3947144-4.3927002
			c0-2.4279175,1.9667969-4.3947144,4.3947144-4.3947144c2.4258423,0,4.3927002,1.9667969,4.3927002,4.3947144
			C79.5118408,12.471837,77.5449829,14.4386339,75.1191406,14.4386339z"/>
		<path class="st1" d="M75.1180801,4.0695057c-3.300293,0-5.9754028,2.6751709-5.9754028,5.9754639
			c0,3.3002319,2.6751099,5.9754028,5.9754028,5.9754028s5.9754639-2.6751709,5.9754639-5.9754028
			C81.093544,6.7446766,78.4183731,4.0695057,75.1180801,4.0695057z M75.1191177,14.4386463
			c-2.4279175,0-4.3947144-1.9667969-4.3947144-4.3927002c0-2.4279175,1.9667969-4.3947144,4.3947144-4.3947144
			c2.4258423,0,4.3927002,1.9667969,4.3927002,4.3947144C79.5118179,12.4718494,77.54496,14.4386463,75.1191177,14.4386463z"/>
		<path class="st1" d="M75.1180801,69.2663422c-3.2987671,0-5.9754028,2.6751709-5.9754028,5.9754639
			s2.6766357,5.9754028,5.9754028,5.9754028c3.300293,0,5.9754639-2.6751099,5.9754639-5.9754028
			S78.4183731,69.2663422,75.1180801,69.2663422z M75.1170425,79.6354828c-2.4258423,0-4.3926392-1.968811-4.3926392-4.3947144
			c0-2.4258423,1.9667969-4.3927002,4.3926392-4.3927002c2.4279175,0,4.3947754,1.9668579,4.3947754,4.3927002
			C79.5118179,77.6666718,77.54496,79.6354828,75.1170425,79.6354828z"/>
		<path class="st1" d="M9.9212418,69.2663422c-3.3002925,0-5.9754639,2.6751709-5.9754639,5.9754639
			s2.6751711,5.9754028,5.9754639,5.9754028s5.9754028-2.6751099,5.9754028-5.9754028S13.2215347,69.2663422,9.9212418,69.2663422z
			 M9.9212418,79.6354828c-2.4264522,0-4.3936763-1.9667969-4.3936763-4.3926392
			c0-2.4279175,1.9672241-4.3947754,4.3936763-4.3947754s4.3936768,1.9668579,4.3936768,4.3947754
			C14.3149185,77.6686859,12.3476944,79.6354828,9.9212418,79.6354828z"/>
		<path class="st1" d="M9.9212418,4.0695057c-3.2877803,0-5.9527588,2.6751709-5.9527588,5.9754639
			c0,3.3002319,2.6649783,5.9754028,5.9527588,5.9754028c3.2877197,0,5.9527588-2.6751709,5.9527588-5.9754028
			C15.8740005,6.7446766,13.2089615,4.0695057,9.9212418,4.0695057z M9.9222794,14.4386463
			c-2.427917,0-4.3947139-1.9667969-4.3947139-4.3927002c0-2.4279175,1.9667969-4.3947144,4.3947139-4.3947144
			c2.4258423,0,4.3926392,1.9667969,4.3926392,4.3947144C14.3149185,12.4718494,12.3481216,14.4386463,9.9222794,14.4386463z"/>
	</g>
	<g id="Колодка">
		<path class="st2" d="M30.097229,76.518013c0,1.2273636-1.0018463,2.2224731-2.2397385,2.2224731
			s-2.2415428-0.9951096-2.2415428-2.2224731s1.0036507-2.2224731,2.2415428-2.2224731S30.097229,75.2906494,30.097229,76.518013z"
			/>
		<g>
			<path class="st3" d="M35.5475464,81.6606827c0.359375,0,0.640625,0.0810547,0.8447266,0.2441406
				c0.2050781,0.1630859,0.3066406,0.3876953,0.3066406,0.6748047c0,0.1582031-0.0429688,0.2958984-0.1279297,0.4121094
				c-0.0859375,0.1162109-0.2109375,0.2099609-0.3759766,0.2822266c0.1865234,0.0546875,0.3212891,0.1455078,0.4033203,0.2724609
				c0.0810547,0.1269531,0.1220703,0.2841797,0.1220703,0.4726563v0.1591797c0,0.0693359,0.0136719,0.1220703,0.0419922,0.1601563
				c0.0273438,0.0380859,0.0732422,0.0605469,0.1367188,0.0683594l0.078125,0.0107422v0.3789063h-0.328125
				c-0.2070313,0-0.3525391-0.0556641-0.4365234-0.1660156s-0.1259766-0.2529297-0.1259766-0.4287109v-0.1787109
				c0-0.1523438-0.0410156-0.2714844-0.1230469-0.3583984s-0.1972656-0.1328125-0.3466797-0.1367188h-0.5185547v0.8271484
				l0.3388672,0.0644531v0.3769531h-1.3105469v-0.3769531l0.3369141-0.0644531v-2.2509766l-0.3369141-0.0644531v-0.3789063
				h0.3369141H35.5475464z M35.0983276,83.0434952h0.4384766c0.1767578,0,0.3095703-0.0380859,0.3974609-0.1123047
				c0.0888672-0.0742188,0.1328125-0.1826172,0.1328125-0.3232422s-0.0439453-0.2529297-0.1318359-0.3369141
				s-0.2167969-0.1259766-0.3876953-0.1259766h-0.4492188V83.0434952z"/>
			<path class="st3" d="M38.4586792,81.6606827v0.3789063l-0.3388672,0.0644531v1.6367188
				c0,0.2070313,0.0556641,0.3613281,0.1679688,0.4648438c0.1123047,0.1025391,0.2666016,0.1533203,0.4619141,0.1533203
				c0.1982422,0,0.3544922-0.0507813,0.4667969-0.1523438c0.1132813-0.1025391,0.1699219-0.2578125,0.1699219-0.4658203v-1.6367188
				l-0.3369141-0.0644531v-0.3789063h1.3095703v0.3789063l-0.3388672,0.0644531v1.6367188
				c0,0.3525391-0.1162109,0.6230469-0.3505859,0.8144531c-0.2333984,0.1914063-0.5410156,0.2861328-0.9199219,0.2861328
				c-0.3779297,0-0.6835938-0.0947266-0.9160156-0.2861328s-0.3486328-0.4619141-0.3486328-0.8144531v-1.6367188
				l-0.3359375-0.0644531v-0.3789063h0.3359375h0.6347656H38.4586792z"/>
			<path class="st3" d="M42.9489136,82.6616592h-0.4755859l-0.0830078-0.4306641
				c-0.0546875-0.0341797-0.1347656-0.0644531-0.2402344-0.0898438c-0.1064453-0.0263672-0.21875-0.0390625-0.3369141-0.0390625
				c-0.1738281,0-0.3085938,0.0361328-0.4033203,0.1083984s-0.1425781,0.1660156-0.1425781,0.28125
				c0,0.1064453,0.0498047,0.1933594,0.1494141,0.2617188c0.0986328,0.0683594,0.2705078,0.140625,0.5136719,0.2167969
				c0.3486328,0.0957031,0.6132813,0.2226563,0.7939453,0.3808594s0.2705078,0.3652344,0.2705078,0.6220703
				c0,0.2685547-0.1074219,0.4804688-0.3212891,0.6357422c-0.2148438,0.1552734-0.4970703,0.2324219-0.8476563,0.2324219
				c-0.2509766,0-0.4765625-0.0390625-0.6787109-0.1181641s-0.3701172-0.1884766-0.5048828-0.3271484v-0.6552734h0.4902344
				l0.0673828,0.4462891c0.0644531,0.0517578,0.1503906,0.0947266,0.2597656,0.1279297
				c0.109375,0.0341797,0.2314453,0.0507813,0.3662109,0.0507813c0.1738281,0,0.3056641-0.0351563,0.3964844-0.1054688
				s0.1357422-0.1650391,0.1357422-0.2822266c0-0.1210938-0.0429688-0.2177734-0.1289063-0.2910156
				c-0.0869141-0.0732422-0.2373047-0.1416016-0.453125-0.2070313c-0.375-0.1074219-0.6591797-0.2353516-0.8515625-0.3828125
				c-0.1923828-0.1484375-0.2890625-0.3505859-0.2890625-0.6074219c0-0.2539063,0.1083984-0.4619141,0.3261719-0.6240234
				c0.2167969-0.1611328,0.4902344-0.2441406,0.8183594-0.2480469c0.2431641,0,0.4648438,0.0361328,0.6650391,0.109375
				s0.3681641,0.1708984,0.5039063,0.2929688V82.6616592z"/>
			<path class="st3" d="M45.6471558,82.6616592h-0.4755859l-0.0830078-0.4306641
				c-0.0546875-0.0341797-0.1357422-0.0644531-0.2412109-0.0898438c-0.1054688-0.0263672-0.2177734-0.0390625-0.3369141-0.0390625
				c-0.1738281,0-0.3076172,0.0361328-0.4023438,0.1083984c-0.0957031,0.0722656-0.1425781,0.1660156-0.1425781,0.28125
				c0,0.1064453,0.0498047,0.1933594,0.1484375,0.2617188c0.0996094,0.0683594,0.2705078,0.140625,0.5146484,0.2167969
				c0.3486328,0.0957031,0.6132813,0.2226563,0.7939453,0.3808594c0.1796875,0.1582031,0.2705078,0.3652344,0.2705078,0.6220703
				c0,0.2685547-0.1074219,0.4804688-0.3222656,0.6357422c-0.2138672,0.1552734-0.4960938,0.2324219-0.8466797,0.2324219
				c-0.2509766,0-0.4765625-0.0390625-0.6796875-0.1181641c-0.2011719-0.0791016-0.3701172-0.1884766-0.5048828-0.3271484
				v-0.6552734h0.4912109l0.0673828,0.4462891c0.0634766,0.0517578,0.1503906,0.0947266,0.2597656,0.1279297
				c0.109375,0.0341797,0.2314453,0.0507813,0.3662109,0.0507813c0.1738281,0,0.3056641-0.0351563,0.3964844-0.1054688
				c0.0898438-0.0703125,0.1357422-0.1650391,0.1357422-0.2822266c0-0.1210938-0.0429688-0.2177734-0.1298828-0.2910156
				c-0.0859375-0.0732422-0.2363281-0.1416016-0.4521484-0.2070313c-0.3759766-0.1074219-0.6591797-0.2353516-0.8525391-0.3828125
				c-0.1923828-0.1484375-0.2880859-0.3505859-0.2880859-0.6074219c0-0.2539063,0.1083984-0.4619141,0.3251953-0.6240234
				c0.2177734-0.1611328,0.4902344-0.2441406,0.8193359-0.2480469c0.2431641,0,0.4648438,0.0361328,0.6650391,0.109375
				c0.1992188,0.0732422,0.3671875,0.1708984,0.5039063,0.2929688V82.6616592z"/>
			<path class="st3" d="M45.9401245,82.0395889v-0.3789063h1.3105469v0.3789063l-0.3388672,0.0644531v2.2509766l0.3388672,0.0644531
				v0.3769531h-1.3105469v-0.3769531l0.3388672-0.0644531v-2.2509766L45.9401245,82.0395889z"/>
			<path class="st3" d="M47.4586792,84.4194717l0.2265625-0.0322266l0.9619141-2.7265625h0.6494141l0.9560547,2.7265625
				l0.2255859,0.0322266v0.3769531H49.401062v-0.3769531l0.2197266-0.0390625l-0.1396484-0.4306641h-1.0253906l-0.1386719,0.4306641
				l0.2197266,0.0390625v0.3769531h-1.078125V84.4194717z M48.6061401,83.4868546h0.7255859l-0.3564453-1.1044922h-0.0126953
				L48.6061401,83.4868546z"/>
		</g>
		<ellipse class="st4" cx="27.8565884" cy="76.518013" rx="1.5316002" ry="1.5185714"/>
		<path class="st5" d="M45.3548584,65.7323151"/>
		<path class="st2" d="M37.3255768,76.518013c0,1.2273636-1.0018463,2.2224731-2.2397385,2.2224731
			s-2.2415428-0.9951096-2.2415428-2.2224731s1.0036507-2.2224731,2.2415428-2.2224731S37.3255768,75.2906494,37.3255768,76.518013z
			"/>
		<ellipse class="st4" cx="35.0849342" cy="76.518013" rx="1.5316002" ry="1.5185714"/>
		<path class="st2" d="M44.5255737,76.518013c0,1.2273636-1.0018463,2.2224731-2.2397385,2.2224731
			s-2.2415428-0.9951096-2.2415428-2.2224731s1.0036507-2.2224731,2.2415428-2.2224731S44.5255737,75.2906494,44.5255737,76.518013z
			"/>
		<ellipse class="st4" cx="42.284935" cy="76.518013" rx="1.5316002" ry="1.5185714"/>
		<path class="st2" d="M51.1130066,74.8890915c1.5395088,2.0229187-0.1709862,4.2713089-2.1831703,3.7840042
			c-0.7743721-0.1875381-1.4096413-0.8210754-1.5987854-1.5950623
			C46.8394547,75.0664063,49.0885162,73.3486938,51.1130066,74.8890915z"/>
		<ellipse class="st4" cx="49.4849358" cy="76.518013" rx="1.5316002" ry="1.5185714"/>
		<path class="st2" d="M58.3130035,74.8890915c1.5395126,2.0229187-0.1709862,4.2713089-2.1831665,3.7840042
			c-0.7743721-0.1875381-1.4096451-0.8210754-1.5987854-1.5950623
			C54.0394554,75.0664063,56.288517,73.3486938,58.3130035,74.8890915z"/>
		<ellipse class="st4" cx="56.6849365" cy="76.518013" rx="1.5316002" ry="1.5185714"/>
		<g>
			<g>
				<path class="st3" d="M48.4830933,70.8032608v2.2265625h-0.6748047v-5.6875h1.8876953
					c0.5600586,0,0.9990234,0.1591797,1.3168945,0.4765625c0.3173828,0.3173828,0.4760742,0.7382813,0.4760742,1.2617188
					c0,0.5517578-0.1552734,0.9775391-0.4658203,1.2753906s-0.7553711,0.4472656-1.3339844,0.4472656H48.4830933z
					 M48.4830933,70.1899796h1.2128906c0.3608398,0,0.6376953-0.0947266,0.8295898-0.2832031
					c0.1923828-0.1894531,0.2885742-0.4628906,0.2885742-0.8203125c0-0.3388672-0.0961914-0.6103516-0.2885742-0.8134766
					c-0.1918945-0.2041016-0.4555664-0.3095703-0.7910156-0.3173828h-1.2514648V70.1899796z"/>
			</g>
		</g>
		<g>
			<path class="st3" d="M42.2828979,72.0332413l1.4624023-4.6914063h0.7382813l-1.8984375,5.6875h-0.5976563l-1.8945313-5.6875
				h0.734375L42.2828979,72.0332413z"/>
		</g>
		<g>
			<path class="st3" d="M37.0065308,72.2832413c-0.1738281,0.2763672-0.4160156,0.4824219-0.7265625,0.6191406
				s-0.671875,0.2050781-1.0839844,0.2050781c-0.4179688,0-0.7880859-0.1083984-1.1113281-0.3261719
				s-0.5732422-0.5263672-0.7509766-0.9277344c-0.1767578-0.4013672-0.2675781-0.8662109-0.2724609-1.3945313v-0.4960938
				c0-0.8564453,0.1806641-1.5205078,0.5400391-1.9921875s0.8652344-0.7070313,1.5166016-0.7070313
				c0.5351563,0,0.9648438,0.1513672,1.2910156,0.4550781c0.3251953,0.3037109,0.5244141,0.7333984,0.5976563,1.2910156h-0.6757813
				c-0.1259766-0.7548828-0.5292969-1.1328125-1.2089844-1.1328125c-0.4521484,0-0.7949219,0.1767578-1.0283203,0.5292969
				c-0.2333984,0.3535156-0.3505859,0.8652344-0.3535156,1.5351563v0.4648438c0,0.6386719,0.1318359,1.1464844,0.3935547,1.5234375
				c0.2626953,0.3759766,0.6181641,0.5644531,1.0654297,0.5644531c0.2529297,0,0.4746094-0.03125,0.6650391-0.09375
				c0.1894531-0.0625,0.3466797-0.1669922,0.4707031-0.3154297V70.810585h-1.1845703v-0.6132813h1.8564453V72.2832413z"/>
		</g>
		<g>
			<path class="st3" d="M26.4933472,70.1899796v1.0283203h3.171875v0.4199219h-3.171875v1.0263672h-0.3828125v-2.4746094H26.4933472
				z"/>
			<path class="st3" d="M27.4728394,69.1221085l-1.3623047-0.7666016v-0.4970703l1.7626953,1.0107422l1.7919922-1.034668v0.5009766
				l-1.3867188,0.7866211l1.3867188,0.7910156v0.4990234L27.87323,69.3750381l-1.7626953,1.0126953v-0.4941406
				L27.4728394,69.1221085z"/>
		</g>
		<ellipse class="st4" cx="27.8565884" cy="76.518013" rx="1.5316002" ry="1.5185714"/>
		<g>
			<path class="st3" d="M57.06073,71.2695694v0.7519531h1.4375v0.4238281h-3.5546875v-1.059082
				c0-0.3603516,0.0908203-0.6376953,0.2734375-0.831543c0.1826172-0.1943359,0.4472656-0.2910156,0.7958984-0.2910156
				c0.2216797,0,0.4140625,0.0537109,0.5791016,0.1611328c0.1640625,0.1079102,0.2871094,0.2578125,0.3681641,0.4492188
				l1.5087891-0.7509766H58.49823v0.4521484L57.06073,71.2695694z M56.6769409,72.0215225V71.373085
				c0-0.2094727-0.0605469-0.3759766-0.1806641-0.5c-0.1210938-0.1235352-0.2822266-0.1855469-0.484375-0.1855469
				c-0.2207031,0-0.3886719,0.059082-0.5068359,0.1767578c-0.1171875,0.1181641-0.1767578,0.2885742-0.1787109,0.5107422v0.6464844
				H56.6769409z"/>
			<path class="st3" d="M56.3058472,69.0786514l-1.3623047-0.7666016v-0.4970703l1.7626953,1.0107422l1.7919922-1.034668v0.5009766
				l-1.3867188,0.7866211l1.3867188,0.7910156v0.4990234l-1.7919922-1.0371094l-1.7626953,1.0126953v-0.4941406
				L56.3058472,69.0786514z"/>
		</g>
		<line class="st5" x1="53.1749115" y1="80.4219818" x2="53.1816101" y2="65.5445404"/>
		<line class="st5" x1="45.8990784" y1="65.5492783" x2="45.8990784" y2="80.377655"/>
		<line class="st5" x1="38.6625366" y1="80.3606491" x2="38.6625366" y2="65.5333328"/>
		<line class="st5" x1="31.3894711" y1="65.5445404" x2="31.3894711" y2="80.4219818"/>
		<polygon class="st6" points="60.4146194,65.5548859 60.4146194,80.4275894 24.1529293,80.4275894 24.1529293,65.5454865 		"/>
		<rect x="17.9612827" y="65.2037201" class="st3" width="5.1916447" height="11.9286385"/>
		<g>
			<path class="st7" d="M19.1525269,75.7119522h0.34375l0.0585938,0.3071289h1.484375
				c0.1875,0,0.328125-0.0507813,0.4208984-0.1523438c0.0927734-0.1020508,0.1396484-0.2416992,0.1396484-0.4189453
				c0-0.1796875-0.0458984-0.3208008-0.1386719-0.4233398s-0.2333984-0.1538086-0.421875-0.1538086h-1.484375l-0.0585938,0.3056641
				h-0.34375v-1.1879883h0.34375l0.0585938,0.3071289h1.484375c0.3193359,0,0.5654297,0.1064453,0.7382813,0.3183594
				s0.2597656,0.4902344,0.2597656,0.8339844c0,0.3427734-0.0869141,0.6196289-0.2597656,0.8305664
				s-0.4189453,0.315918-0.7382813,0.315918h-1.484375l-0.0585938,0.3056641h-0.34375v-0.3056641v-0.5751953V75.7119522z"/>
			<path class="st7" d="M21.65448,73.848671l-0.0292969-0.2050781l-2.4726563-0.8725586v-0.5888672l2.4726563-0.8671875
				l0.0292969-0.2045898h0.3417969v0.9770508H21.65448l-0.0351563-0.1992188l-0.390625,0.1264648v0.9296875l0.390625,0.1259766
				l0.0351563-0.1987305h0.3417969v0.9770508H21.65448z M20.8087769,72.8081436v-0.6577148l-1.0019531,0.3232422v0.0117188
				L20.8087769,72.8081436z"/>
			<path class="st7" d="M19.1525269,69.6328506c0-0.3256836,0.0742188-0.5810547,0.2216797-0.7666016
				c0.1474609-0.1850586,0.3515625-0.277832,0.6123047-0.277832c0.1435547,0,0.2675781,0.0390625,0.3730469,0.1162109
				c0.1054688,0.0776367,0.1904297,0.1914063,0.2558594,0.3408203c0.0498047-0.1694336,0.1318359-0.2910156,0.2470703-0.3652344
				s0.2578125-0.1113281,0.4287109-0.1113281H21.43573c0.0625,0,0.1113281-0.012207,0.1455078-0.0375977
				c0.0341797-0.0249023,0.0546875-0.065918,0.0615234-0.1240234l0.0097656-0.0708008h0.34375v0.2973633
				c0,0.1879883-0.0498047,0.3198242-0.1503906,0.3959961s-0.2294922,0.1142578-0.3886719,0.1142578H21.295105
				c-0.1376953,0-0.2460938,0.0371094-0.3251953,0.1113281s-0.1201172,0.1791992-0.1240234,0.3144531v0.4707031h0.75
				l0.0585938-0.3076172h0.3417969v1.1879883H21.65448l-0.0585938-0.3051758h-2.0410156l-0.0585938,0.3051758h-0.34375v-0.3051758
				V69.6328506z M20.4064331,70.0405655v-0.3979492c0-0.1601563-0.0341797-0.2802734-0.1015625-0.3603516
				s-0.1650391-0.1206055-0.2929688-0.1206055s-0.2294922,0.0400391-0.3056641,0.1196289
				c-0.0761719,0.0791016-0.1142578,0.1962891-0.1142578,0.3515625v0.4077148H20.4064331z"/>
			<path class="st7" d="M19.1525269,65.6221085h0.7578125v0.4414063L19.59198,66.0869522v0.527832h2.0039063l0.0585938-0.3071289
				h0.3417969v1.1899414H21.65448l-0.0585938-0.3076172H19.59198v0.5263672l0.3183594,0.0234375v0.4394531h-0.7578125V65.6221085z"
				/>
		</g>
	</g>
	<g id="Резистор_2_">
		<g id="XMLID_31_">
			<g>
				<rect x="25.7079163" y="54.9677277" class="st8" width="4.255477" height="2.4375174"/>
			</g>
			<g>
			</g>
		</g>
		<g id="XMLID_30_">
			<g>
				<rect x="25.7486286" y="61.0960388" class="st8" width="4.255477" height="2.4375174"/>
			</g>
			<g>
			</g>
		</g>
		<g id="XMLID_26_">
			<g>
				<rect x="26.0477371" y="56.7011681" class="st9" width="3.6058266" height="5.1611581"/>
			</g>
			<g>
			</g>
		</g>
		<g>
			<path class="st10" d="M27.3058472,58.7051125v-0.6967773h0.1313477v0.2680664h0.862793v-0.2680664h0.1171875
				c0,0.0361328,0.003418,0.0751953,0.0092773,0.1166992s0.0146484,0.0727539,0.0263672,0.0942383
				c0.0141602,0.0263672,0.0327148,0.0473633,0.0546875,0.0625c0.0224609,0.015625,0.0522461,0.0244141,0.0898438,0.0263672
				v0.1342773h-1.1601563v0.2626953H27.3058472z"/>
			<path class="st10" d="M27.9498901,59.725132c-0.230957,0-0.4008789-0.0361328-0.5087891-0.1083984
				s-0.1621094-0.1845703-0.1621094-0.3369141c0-0.1542969,0.0546875-0.2670898,0.1640625-0.3383789
				c0.1098633-0.0712891,0.277832-0.1064453,0.5048828-0.1064453c0.2290039,0,0.3979492,0.0356445,0.5068359,0.1079102
				c0.109375,0.0717773,0.1640625,0.184082,0.1640625,0.3369141c0,0.1542969-0.0556641,0.2670898-0.1665039,0.3383789
				S28.1740112,59.725132,27.9498901,59.725132z M27.557312,59.4975929c0.046875,0.0205078,0.1015625,0.0341797,0.1645508,0.0410156
				c0.0634766,0.0073242,0.1391602,0.0107422,0.2280273,0.0107422c0.0874023,0,0.1635742-0.003418,0.2280273-0.0107422
				c0.0644531-0.0068359,0.1191406-0.0209961,0.1640625-0.0419922c0.0444336-0.0200195,0.078125-0.0473633,0.1005859-0.0825195
				c0.0224609-0.034668,0.0336914-0.0795898,0.0336914-0.1342773c0-0.0541992-0.0112305-0.0991211-0.0336914-0.1342773
				c-0.0224609-0.0356445-0.0566406-0.0634766-0.1020508-0.0844727c-0.0424805-0.0195313-0.0981445-0.0327148-0.1669922-0.0400391
				c-0.0683594-0.0073242-0.1435547-0.0107422-0.2255859-0.0107422c-0.0898438,0-0.1650391,0.0029297-0.2255859,0.0092773
				s-0.1147461,0.0200195-0.1625977,0.0410156c-0.0449219,0.0185547-0.0791016,0.0458984-0.1025391,0.0805664
				c-0.0239258,0.034668-0.0356445,0.0810547-0.0356445,0.1386719c0,0.0541992,0.0112305,0.0991211,0.0336914,0.1347656
				S27.5119019,59.4780617,27.557312,59.4975929z"/>
			<path class="st10" d="M27.3058472,60.6753273v-0.8710938h0.1806641c0.0517578,0.0605469,0.1035156,0.1210938,0.1557617,0.1821289
				c0.0517578,0.0605469,0.1030273,0.1171875,0.1542969,0.1694336c0.1074219,0.1108398,0.1923828,0.1865234,0.2558594,0.2275391
				c0.0629883,0.0410156,0.1308594,0.0615234,0.2041016,0.0615234c0.0668945,0,0.1191406-0.0219727,0.1567383-0.0664063
				c0.0380859-0.0439453,0.0566406-0.1054688,0.0566406-0.1845703c0-0.0522461-0.0087891-0.1088867-0.0273438-0.1699219
				s-0.046875-0.1210938-0.0849609-0.1791992v-0.0087891h0.1816406c0.0200195,0.0410156,0.0385742,0.0957031,0.0551758,0.1640625
				c0.0170898,0.0683594,0.0253906,0.1342773,0.0253906,0.1982422c0,0.1318359-0.0322266,0.2353516-0.0957031,0.3105469
				c-0.0634766,0.074707-0.1499023,0.1123047-0.2587891,0.1123047c-0.0488281,0-0.0947266-0.0063477-0.137207-0.0185547
				c-0.0419922-0.0126953-0.0825195-0.0307617-0.1206055-0.0551758c-0.0356445-0.0224609-0.0708008-0.0488281-0.1054688-0.0791016
				c-0.0341797-0.0302734-0.0727539-0.0668945-0.1147461-0.1098633c-0.0605469-0.0620117-0.1191406-0.1254883-0.1757813-0.1914063
				c-0.0566406-0.0654297-0.109375-0.1269531-0.1577148-0.184082v0.6923828H27.3058472z"/>
		</g>
	</g>
	<g id="Резистор_9_">
		<g id="XMLID_54_">
			<g>
				<rect x="10.956687" y="57.700737" class="st8" width="4.255477" height="2.4375174"/>
			</g>
			<g>
			</g>
		</g>
		<g id="XMLID_53_">
			<g>
				<rect x="10.9974012" y="63.8290482" class="st8" width="4.255477" height="2.4375174"/>
			</g>
			<g>
			</g>
		</g>
		<g id="XMLID_52_">
			<g>
				<rect x="11.2965088" y="59.4341774" class="st9" width="3.6058266" height="5.1611581"/>
			</g>
			<g>
			</g>
		</g>
		<g>
			<path class="st10" d="M12.5558472,61.5117531v-0.8710938h0.1806641c0.0517578,0.0605469,0.1035156,0.1210938,0.1557617,0.1821289
				c0.0517578,0.0605469,0.1030273,0.1171875,0.1542969,0.1694336c0.1074219,0.1108398,0.1923828,0.1865234,0.2558594,0.2275391
				c0.0629883,0.0410156,0.1308594,0.0615234,0.2041016,0.0615234c0.0668945,0,0.1191406-0.0219727,0.1567383-0.0664063
				c0.0380859-0.0439453,0.0566406-0.1054688,0.0566406-0.1845703c0-0.0522461-0.0087891-0.1088867-0.0273438-0.1699219
				s-0.046875-0.1210938-0.0849609-0.1791992v-0.0087891h0.1816406c0.0200195,0.0410156,0.0385742,0.0957031,0.0551758,0.1640625
				c0.0170898,0.0683594,0.0253906,0.1342773,0.0253906,0.1982422c0,0.1318359-0.0322266,0.2353516-0.0957031,0.3105469
				c-0.0634766,0.074707-0.1499023,0.1123047-0.2587891,0.1123047c-0.0488281,0-0.0947266-0.0063477-0.137207-0.0185547
				c-0.0419922-0.0126953-0.0825195-0.0307617-0.1206055-0.0551758c-0.0356445-0.0224609-0.0708008-0.0488281-0.1054688-0.0791016
				c-0.0341797-0.0302734-0.0727539-0.0668945-0.1147461-0.1098633c-0.0605469-0.0620117-0.1191406-0.1254883-0.1757813-0.1914063
				c-0.0566406-0.0654297-0.109375-0.1269531-0.1577148-0.184082v0.6923828H12.5558472z"/>
			<path class="st10" d="M13.1998901,62.4585304c-0.230957,0-0.4008789-0.0361328-0.5087891-0.1083984
				s-0.1621094-0.1845703-0.1621094-0.3369141c0-0.1542969,0.0546875-0.2670898,0.1640625-0.3383789
				c0.1098633-0.0712891,0.277832-0.1064453,0.5048828-0.1064453c0.2290039,0,0.3979492,0.0356445,0.5068359,0.1079102
				c0.109375,0.0717773,0.1640625,0.184082,0.1640625,0.3369141c0,0.1542969-0.0556641,0.2670898-0.1665039,0.3383789
				S13.4240112,62.4585304,13.1998901,62.4585304z M12.807312,62.2309914
				c0.046875,0.0205078,0.1015625,0.0341797,0.1645508,0.0410156c0.0634766,0.0073242,0.1391602,0.0107422,0.2280273,0.0107422
				c0.0874023,0,0.1635742-0.003418,0.2280273-0.0107422c0.0644531-0.0068359,0.1191406-0.0209961,0.1640625-0.0419922
				c0.0444336-0.0200195,0.078125-0.0473633,0.1005859-0.0825195c0.0224609-0.034668,0.0336914-0.0795898,0.0336914-0.1342773
				c0-0.0541992-0.0112305-0.0991211-0.0336914-0.1342773c-0.0224609-0.0356445-0.0566406-0.0634766-0.1020508-0.0844727
				c-0.0424805-0.0195313-0.0981445-0.0327148-0.1669922-0.0400391c-0.0683594-0.0073242-0.1435547-0.0107422-0.2255859-0.0107422
				c-0.0898438,0-0.1650391,0.0029297-0.2255859,0.0092773s-0.1147461,0.0200195-0.1625977,0.0410156
				c-0.0449219,0.0185547-0.0791016,0.0458984-0.1025391,0.0805664c-0.0239258,0.034668-0.0356445,0.0810547-0.0356445,0.1386719
				c0,0.0541992,0.0112305,0.0991211,0.0336914,0.1347656S12.7619019,62.2114601,12.807312,62.2309914z"/>
			<path class="st10" d="M13.1754761,63.2954445c-0.0249023,0.027832-0.0556641,0.0507813-0.0932617,0.0683594
				c-0.0375977,0.0180664-0.0859375,0.0268555-0.1450195,0.0268555s-0.112793-0.0107422-0.1616211-0.0317383
				c-0.0493164-0.0214844-0.0917969-0.0512695-0.1279297-0.0898438c-0.0405273-0.043457-0.0703125-0.0942383-0.0898438-0.152832
				c-0.019043-0.0585938-0.0288086-0.1225586-0.0288086-0.1923828c0-0.0712891,0.0087891-0.1416016,0.0253906-0.2109375
				c0.0170898-0.0688477,0.0356445-0.1259766,0.0561523-0.1699219h0.1801758v0.0126953
				c-0.0322266,0.0488281-0.0585938,0.1064453-0.0800781,0.1728516s-0.0322266,0.1303711-0.0322266,0.1918945
				c0,0.0366211,0.0063477,0.0751953,0.0185547,0.1157227c0.0117188,0.0410156,0.0297852,0.0742188,0.0532227,0.0996094
				c0.0253906,0.0263672,0.0532227,0.0463867,0.0839844,0.059082c0.0307617,0.0131836,0.0693359,0.0195313,0.1157227,0.0195313
				s0.0844727-0.0073242,0.1147461-0.0219727s0.0537109-0.0351563,0.0712891-0.0610352s0.0297852-0.0571289,0.0366211-0.0942383
				c0.0068359-0.0366211,0.0097656-0.0766602,0.0097656-0.1191406v-0.0776367h0.1435547v0.0600586
				c0,0.0878906,0.0185547,0.1577148,0.0551758,0.2099609s0.0898438,0.078125,0.1601563,0.078125
				c0.03125,0,0.0581055-0.0068359,0.081543-0.0200195s0.0424805-0.0317383,0.0576172-0.0551758
				c0.0151367-0.0249023,0.0253906-0.0512695,0.03125-0.0795898c0.0053711-0.0283203,0.0083008-0.0600586,0.0083008-0.0957031
				c0-0.0551758-0.0097656-0.1132813-0.0292969-0.1748047s-0.0473633-0.1196289-0.0830078-0.1748047v-0.0083008h0.1806641
				c0.0205078,0.0410156,0.0390625,0.0952148,0.0556641,0.1635742c0.0170898,0.0683594,0.0258789,0.1342773,0.0258789,0.1982422
				c0,0.0629883-0.0058594,0.1181641-0.0175781,0.1660156c-0.0112305,0.0478516-0.0297852,0.0913086-0.0551758,0.1298828
				c-0.027832,0.0415039-0.0610352,0.0727539-0.1000977,0.0942383c-0.0395508,0.0209961-0.0849609,0.0317383-0.1376953,0.0317383
				c-0.0712891,0-0.1337891-0.0249023-0.1870117-0.0756836c-0.0532227-0.050293-0.0869141-0.1098633-0.1005859-0.1782227h-0.012207
				c-0.0048828,0.0273438-0.0141602,0.059082-0.0288086,0.0952148
				C13.2160034,63.240757,13.1974487,63.2710304,13.1754761,63.2954445z"/>
		</g>
	</g>
	<g id="Резистор_10_">
		<g id="XMLID_58_">
			<g>
				<rect x="10.956687" y="19.0204411" class="st8" width="4.255477" height="2.4375174"/>
			</g>
			<g>
			</g>
		</g>
		<g id="XMLID_57_">
			<g>
				<rect x="10.9974012" y="25.1487522" class="st8" width="4.255477" height="2.4375174"/>
			</g>
			<g>
			</g>
		</g>
		<g id="XMLID_55_">
			<g>
				<rect x="11.2965088" y="20.7538853" class="st9" width="3.6058266" height="5.1611581"/>
			</g>
			<g>
			</g>
		</g>
		<g>
			<path class="st10" d="M12.5558472,22.8310909v-0.8710938h0.1806641c0.0517578,0.0605469,0.1035156,0.1210938,0.1557617,0.1821289
				c0.0517578,0.0605469,0.1030273,0.1171875,0.1542969,0.1694336c0.1074219,0.1108398,0.1923828,0.1865234,0.2558594,0.2275391
				c0.0629883,0.0410156,0.1308594,0.0615234,0.2041016,0.0615234c0.0668945,0,0.1191406-0.0219727,0.1567383-0.0664063
				c0.0380859-0.0439453,0.0566406-0.1054688,0.0566406-0.1845703c0-0.0522461-0.0087891-0.1088867-0.0273438-0.1699219
				s-0.046875-0.1210938-0.0849609-0.1791992v-0.0087891h0.1816406c0.0200195,0.0410156,0.0385742,0.0957031,0.0551758,0.1640625
				c0.0170898,0.0683594,0.0253906,0.1342773,0.0253906,0.1982422c0,0.1318359-0.0322266,0.2353516-0.0957031,0.3105469
				c-0.0634766,0.074707-0.1499023,0.1123047-0.2587891,0.1123047c-0.0488281,0-0.0947266-0.0063477-0.137207-0.0185547
				c-0.0419922-0.0126953-0.0825195-0.0307617-0.1206055-0.0551758c-0.0356445-0.0224609-0.0708008-0.0488281-0.1054688-0.0791016
				c-0.0341797-0.0302734-0.0727539-0.0668945-0.1147461-0.1098633c-0.0605469-0.0620117-0.1191406-0.1254883-0.1757813-0.1914063
				c-0.0566406-0.0654297-0.109375-0.1269531-0.1577148-0.184082v0.6923828H12.5558472z"/>
			<path class="st10" d="M13.1998901,23.7778683c-0.230957,0-0.4008789-0.0361328-0.5087891-0.1083984
				s-0.1621094-0.1845703-0.1621094-0.3369141c0-0.1542969,0.0546875-0.2670898,0.1640625-0.3383789
				c0.1098633-0.0712891,0.277832-0.1064453,0.5048828-0.1064453c0.2290039,0,0.3979492,0.0356445,0.5068359,0.1079102
				c0.109375,0.0717773,0.1640625,0.184082,0.1640625,0.3369141c0,0.1542969-0.0556641,0.2670898-0.1665039,0.3383789
				S13.4240112,23.7778683,13.1998901,23.7778683z M12.807312,23.5503292
				c0.046875,0.0205078,0.1015625,0.0341797,0.1645508,0.0410156c0.0634766,0.0073242,0.1391602,0.0107422,0.2280273,0.0107422
				c0.0874023,0,0.1635742-0.003418,0.2280273-0.0107422c0.0644531-0.0068359,0.1191406-0.0209961,0.1640625-0.0419922
				c0.0444336-0.0200195,0.078125-0.0473633,0.1005859-0.0825195c0.0224609-0.034668,0.0336914-0.0795898,0.0336914-0.1342773
				c0-0.0541992-0.0112305-0.0991211-0.0336914-0.1342773c-0.0224609-0.0356445-0.0566406-0.0634766-0.1020508-0.0844727
				c-0.0424805-0.0195313-0.0981445-0.0327148-0.1669922-0.0400391c-0.0683594-0.0073242-0.1435547-0.0107422-0.2255859-0.0107422
				c-0.0898438,0-0.1650391,0.0029297-0.2255859,0.0092773s-0.1147461,0.0200195-0.1625977,0.0410156
				c-0.0449219,0.0185547-0.0791016,0.0458984-0.1025391,0.0805664c-0.0239258,0.034668-0.0356445,0.0810547-0.0356445,0.1386719
				c0,0.0541992,0.0112305,0.0991211,0.0336914,0.1347656S12.7619019,23.530798,12.807312,23.5503292z"/>
			<path class="st10" d="M13.1754761,24.6147823c-0.0249023,0.027832-0.0556641,0.0507813-0.0932617,0.0683594
				c-0.0375977,0.0180664-0.0859375,0.0268555-0.1450195,0.0268555s-0.112793-0.0107422-0.1616211-0.0317383
				c-0.0493164-0.0214844-0.0917969-0.0512695-0.1279297-0.0898438c-0.0405273-0.043457-0.0703125-0.0942383-0.0898438-0.152832
				c-0.019043-0.0585938-0.0288086-0.1225586-0.0288086-0.1923828c0-0.0712891,0.0087891-0.1416016,0.0253906-0.2109375
				c0.0170898-0.0688477,0.0356445-0.1259766,0.0561523-0.1699219h0.1801758v0.0126953
				c-0.0322266,0.0488281-0.0585938,0.1064453-0.0800781,0.1728516s-0.0322266,0.1303711-0.0322266,0.1918945
				c0,0.0366211,0.0063477,0.0751953,0.0185547,0.1157227c0.0117188,0.0410156,0.0297852,0.0742188,0.0532227,0.0996094
				c0.0253906,0.0263672,0.0532227,0.0463867,0.0839844,0.059082c0.0307617,0.0131836,0.0693359,0.0195313,0.1157227,0.0195313
				s0.0844727-0.0073242,0.1147461-0.0219727s0.0537109-0.0351563,0.0712891-0.0610352s0.0297852-0.0571289,0.0366211-0.0942383
				c0.0068359-0.0366211,0.0097656-0.0766602,0.0097656-0.1191406v-0.0776367h0.1435547v0.0600586
				c0,0.0878906,0.0185547,0.1577148,0.0551758,0.2099609s0.0898438,0.078125,0.1601563,0.078125
				c0.03125,0,0.0581055-0.0068359,0.081543-0.0200195s0.0424805-0.0317383,0.0576172-0.0551758
				c0.0151367-0.0249023,0.0253906-0.0512695,0.03125-0.0795898c0.0053711-0.0283203,0.0083008-0.0600586,0.0083008-0.0957031
				c0-0.0551758-0.0097656-0.1132813-0.0292969-0.1748047s-0.0473633-0.1196289-0.0830078-0.1748047v-0.0083008h0.1806641
				c0.0205078,0.0410156,0.0390625,0.0952148,0.0556641,0.1635742c0.0170898,0.0683594,0.0258789,0.1342773,0.0258789,0.1982422
				c0,0.0629883-0.0058594,0.1181641-0.0175781,0.1660156c-0.0112305,0.0478516-0.0297852,0.0913086-0.0551758,0.1298828
				c-0.027832,0.0415039-0.0610352,0.0727539-0.1000977,0.0942383c-0.0395508,0.0209961-0.0849609,0.0317383-0.1376953,0.0317383
				c-0.0712891,0-0.1337891-0.0249023-0.1870117-0.0756836c-0.0532227-0.050293-0.0869141-0.1098633-0.1005859-0.1782227h-0.012207
				c-0.0048828,0.0273438-0.0141602,0.059082-0.0288086,0.0952148
				C13.2160034,24.5600948,13.1974487,24.5903683,13.1754761,24.6147823z"/>
		</g>
	</g>
	<g id="Резистор_8_">
		<g id="XMLID_51_">
			<g>
				<rect x="32.9362602" y="54.9677277" class="st8" width="4.255477" height="2.4375174"/>
			</g>
			<g>
			</g>
		</g>
		<g id="XMLID_50_">
			<g>
				<rect x="32.9769745" y="61.0960388" class="st8" width="4.255477" height="2.4375174"/>
			</g>
			<g>
			</g>
		</g>
		<g id="XMLID_49_">
			<g>
				<rect x="33.2760849" y="56.7011681" class="st9" width="3.6058266" height="5.1611581"/>
			</g>
			<g>
			</g>
		</g>
		<g>
			<path class="st10" d="M34.5343628,58.7051125v-0.6967773h0.1313477v0.2680664h0.862793v-0.2680664h0.1171875
				c0,0.0361328,0.003418,0.0751953,0.0092773,0.1166992s0.0146484,0.0727539,0.0263672,0.0942383
				c0.0141602,0.0263672,0.0327148,0.0473633,0.0546875,0.0625c0.0224609,0.015625,0.0522461,0.0244141,0.0898438,0.0263672
				v0.1342773h-1.1601563v0.2626953H34.5343628z"/>
			<path class="st10" d="M35.1784058,59.725132c-0.230957,0-0.4008789-0.0361328-0.5087891-0.1083984
				s-0.1621094-0.1845703-0.1621094-0.3369141c0-0.1542969,0.0546875-0.2670898,0.1640625-0.3383789
				c0.1098633-0.0712891,0.277832-0.1064453,0.5048828-0.1064453c0.2290039,0,0.3979492,0.0356445,0.5068359,0.1079102
				c0.109375,0.0717773,0.1640625,0.184082,0.1640625,0.3369141c0,0.1542969-0.0556641,0.2670898-0.1665039,0.3383789
				S35.4025269,59.725132,35.1784058,59.725132z M34.7858276,59.4975929
				c0.046875,0.0205078,0.1015625,0.0341797,0.1645508,0.0410156c0.0634766,0.0073242,0.1391602,0.0107422,0.2280273,0.0107422
				c0.0874023,0,0.1635742-0.003418,0.2280273-0.0107422c0.0644531-0.0068359,0.1191406-0.0209961,0.1640625-0.0419922
				c0.0444336-0.0200195,0.078125-0.0473633,0.1005859-0.0825195c0.0224609-0.034668,0.0336914-0.0795898,0.0336914-0.1342773
				c0-0.0541992-0.0112305-0.0991211-0.0336914-0.1342773c-0.0224609-0.0356445-0.0566406-0.0634766-0.1020508-0.0844727
				c-0.0424805-0.0195313-0.0981445-0.0327148-0.1669922-0.0400391c-0.0683594-0.0073242-0.1435547-0.0107422-0.2255859-0.0107422
				c-0.0898438,0-0.1650391,0.0029297-0.2255859,0.0092773s-0.1147461,0.0200195-0.1625977,0.0410156
				c-0.0449219,0.0185547-0.0791016,0.0458984-0.1025391,0.0805664c-0.0239258,0.034668-0.0356445,0.0810547-0.0356445,0.1386719
				c0,0.0541992,0.0112305,0.0991211,0.0336914,0.1347656S34.7404175,59.4780617,34.7858276,59.4975929z"/>
			<path class="st10" d="M34.5343628,60.6753273v-0.8710938h0.1806641c0.0517578,0.0605469,0.1035156,0.1210938,0.1557617,0.1821289
				c0.0517578,0.0605469,0.1030273,0.1171875,0.1542969,0.1694336c0.1074219,0.1108398,0.1923828,0.1865234,0.2558594,0.2275391
				c0.0629883,0.0410156,0.1308594,0.0615234,0.2041016,0.0615234c0.0668945,0,0.1191406-0.0219727,0.1567383-0.0664063
				c0.0380859-0.0439453,0.0566406-0.1054688,0.0566406-0.1845703c0-0.0522461-0.0087891-0.1088867-0.0273438-0.1699219
				s-0.046875-0.1210938-0.0849609-0.1791992v-0.0087891h0.1816406c0.0200195,0.0410156,0.0385742,0.0957031,0.0551758,0.1640625
				c0.0170898,0.0683594,0.0253906,0.1342773,0.0253906,0.1982422c0,0.1318359-0.0322266,0.2353516-0.0957031,0.3105469
				c-0.0634766,0.074707-0.1499023,0.1123047-0.2587891,0.1123047c-0.0488281,0-0.0947266-0.0063477-0.137207-0.0185547
				c-0.0419922-0.0126953-0.0825195-0.0307617-0.1206055-0.0551758c-0.0356445-0.0224609-0.0708008-0.0488281-0.1054688-0.0791016
				c-0.0341797-0.0302734-0.0727539-0.0668945-0.1147461-0.1098633c-0.0605469-0.0620117-0.1191406-0.1254883-0.1757813-0.1914063
				c-0.0566406-0.0654297-0.109375-0.1269531-0.1577148-0.184082v0.6923828H34.5343628z"/>
		</g>
	</g>
	<g id="Резистор_7_">
		<g id="XMLID_48_">
			<g>
				<rect x="47.8873558" y="54.9677277" class="st8" width="4.255477" height="2.4375174"/>
			</g>
			<g>
			</g>
		</g>
		<g id="XMLID_47_">
			<g>
				<rect x="47.9280701" y="61.0960388" class="st8" width="4.255477" height="2.4375174"/>
			</g>
			<g>
			</g>
		</g>
		<g id="XMLID_44_">
			<g>
				<rect x="48.2271767" y="56.7011681" class="st9" width="3.6058266" height="5.1611581"/>
			</g>
			<g>
			</g>
		</g>
		<g>
			<path class="st10" d="M49.4845581,58.7051125v-0.6967773h0.1313477v0.2680664h0.862793v-0.2680664h0.1171875
				c0,0.0361328,0.003418,0.0751953,0.0092773,0.1166992s0.0146484,0.0727539,0.0263672,0.0942383
				c0.0141602,0.0263672,0.0327148,0.0473633,0.0546875,0.0625c0.0224609,0.015625,0.0522461,0.0244141,0.0898438,0.0263672
				v0.1342773h-1.1601563v0.2626953H49.4845581z"/>
			<path class="st10" d="M50.1286011,59.725132c-0.230957,0-0.4008789-0.0361328-0.5087891-0.1083984
				s-0.1621094-0.1845703-0.1621094-0.3369141c0-0.1542969,0.0546875-0.2670898,0.1640625-0.3383789
				c0.1098633-0.0712891,0.277832-0.1064453,0.5048828-0.1064453c0.2290039,0,0.3979492,0.0356445,0.5068359,0.1079102
				c0.109375,0.0717773,0.1640625,0.184082,0.1640625,0.3369141c0,0.1542969-0.0556641,0.2670898-0.1665039,0.3383789
				S50.3527222,59.725132,50.1286011,59.725132z M49.7360229,59.4975929
				c0.046875,0.0205078,0.1015625,0.0341797,0.1645508,0.0410156c0.0634766,0.0073242,0.1391602,0.0107422,0.2280273,0.0107422
				c0.0874023,0,0.1635742-0.003418,0.2280273-0.0107422c0.0644531-0.0068359,0.1191406-0.0209961,0.1640625-0.0419922
				c0.0444336-0.0200195,0.078125-0.0473633,0.1005859-0.0825195c0.0224609-0.034668,0.0336914-0.0795898,0.0336914-0.1342773
				c0-0.0541992-0.0112305-0.0991211-0.0336914-0.1342773c-0.0224609-0.0356445-0.0566406-0.0634766-0.1020508-0.0844727
				c-0.0424805-0.0195313-0.0981445-0.0327148-0.1669922-0.0400391c-0.0683594-0.0073242-0.1435547-0.0107422-0.2255859-0.0107422
				c-0.0898438,0-0.1650391,0.0029297-0.2255859,0.0092773s-0.1147461,0.0200195-0.1625977,0.0410156
				c-0.0449219,0.0185547-0.0791016,0.0458984-0.1025391,0.0805664c-0.0239258,0.034668-0.0356445,0.0810547-0.0356445,0.1386719
				c0,0.0541992,0.0112305,0.0991211,0.0336914,0.1347656S49.6906128,59.4780617,49.7360229,59.4975929z"/>
			<path class="st10" d="M49.4845581,60.6753273v-0.8710938h0.1806641c0.0517578,0.0605469,0.1035156,0.1210938,0.1557617,0.1821289
				c0.0517578,0.0605469,0.1030273,0.1171875,0.1542969,0.1694336c0.1074219,0.1108398,0.1923828,0.1865234,0.2558594,0.2275391
				c0.0629883,0.0410156,0.1308594,0.0615234,0.2041016,0.0615234c0.0668945,0,0.1191406-0.0219727,0.1567383-0.0664063
				c0.0380859-0.0439453,0.0566406-0.1054688,0.0566406-0.1845703c0-0.0522461-0.0087891-0.1088867-0.0273438-0.1699219
				s-0.046875-0.1210938-0.0849609-0.1791992v-0.0087891h0.1816406c0.0200195,0.0410156,0.0385742,0.0957031,0.0551758,0.1640625
				c0.0170898,0.0683594,0.0253906,0.1342773,0.0253906,0.1982422c0,0.1318359-0.0322266,0.2353516-0.0957031,0.3105469
				c-0.0634766,0.074707-0.1499023,0.1123047-0.2587891,0.1123047c-0.0488281,0-0.0947266-0.0063477-0.137207-0.0185547
				c-0.0419922-0.0126953-0.0825195-0.0307617-0.1206055-0.0551758c-0.0356445-0.0224609-0.0708008-0.0488281-0.1054688-0.0791016
				c-0.0341797-0.0302734-0.0727539-0.0668945-0.1147461-0.1098633c-0.0605469-0.0620117-0.1191406-0.1254883-0.1757813-0.1914063
				c-0.0566406-0.0654297-0.109375-0.1269531-0.1577148-0.184082v0.6923828H49.4845581z"/>
		</g>
	</g>
	<g id="Резистор_11_">
		<g id="XMLID_110_">
			<g>
				<rect x="71.9234543" y="59.3526955" class="st8" width="2.4375174" height="4.255477"/>
			</g>
			<g>
			</g>
		</g>
		<g id="XMLID_109_">
			<g>
				<rect x="78.0517654" y="59.3119812" class="st8" width="2.4375174" height="4.255477"/>
			</g>
			<g>
			</g>
		</g>
		<g id="XMLID_108_">
			<g>
				<rect x="73.6568985" y="59.6625252" class="st9" width="5.1611581" height="3.6058266"/>
			</g>
			<g>
			</g>
		</g>
		<g>
			<path class="st10" d="M75.6603394,62.0107765H74.963562v-0.1313477h0.2680664v-0.862793H74.963562v-0.1171875
				c0.0361328,0,0.0751953-0.003418,0.1166992-0.0092773s0.0727539-0.0146484,0.0942383-0.0263672
				c0.0263672-0.0141602,0.0473633-0.0327148,0.0625-0.0546875c0.015625-0.0224609,0.0244141-0.0522461,0.0263672-0.0898438
				h0.1342773v1.1601563h0.2626953V62.0107765z"/>
			<path class="st10" d="M76.6803589,61.3667336c0,0.230957-0.0361328,0.4008789-0.1083984,0.5087891
				s-0.1845703,0.1621094-0.3369141,0.1621094c-0.1542969,0-0.2670898-0.0546875-0.3383789-0.1640625
				c-0.0712891-0.1098633-0.1064453-0.277832-0.1064453-0.5048828c0-0.2290039,0.0356445-0.3979492,0.1079102-0.5068359
				c0.0717773-0.109375,0.184082-0.1640625,0.3369141-0.1640625c0.1542969,0,0.2670898,0.0556641,0.3383789,0.1665039
				S76.6803589,61.1426125,76.6803589,61.3667336z M76.4528198,61.7593117
				c0.0205078-0.046875,0.0341797-0.1015625,0.0410156-0.1645508c0.0073242-0.0634766,0.0107422-0.1391602,0.0107422-0.2280273
				c0-0.0874023-0.003418-0.1635742-0.0107422-0.2280273c-0.0068359-0.0644531-0.0209961-0.1191406-0.0419922-0.1640625
				c-0.0200195-0.0444336-0.0473633-0.078125-0.0825195-0.1005859c-0.034668-0.0224609-0.0795898-0.0336914-0.1342773-0.0336914
				c-0.0541992,0-0.0991211,0.0112305-0.1342773,0.0336914c-0.0356445,0.0224609-0.0634766,0.0566406-0.0844727,0.1020508
				c-0.0195313,0.0424805-0.0327148,0.0981445-0.0400391,0.1669922c-0.0073242,0.0683594-0.0107422,0.1435547-0.0107422,0.2255859
				c0,0.0898438,0.0029297,0.1650391,0.0092773,0.2255859s0.0200195,0.1147461,0.0410156,0.1625977
				c0.0185547,0.0449219,0.0458984,0.0791016,0.0805664,0.1025391c0.034668,0.0239258,0.0810547,0.0356445,0.1386719,0.0356445
				c0.0541992,0,0.0991211-0.0112305,0.1347656-0.0336914S76.4332886,61.8047218,76.4528198,61.7593117z"/>
			<path class="st10" d="M77.6305542,62.0107765h-0.8710938v-0.1806641
				c0.0605469-0.0517578,0.1210938-0.1035156,0.1821289-0.1557617c0.0605469-0.0517578,0.1171875-0.1030273,0.1694336-0.1542969
				c0.1108398-0.1074219,0.1865234-0.1923828,0.2275391-0.2558594c0.0410156-0.0629883,0.0615234-0.1308594,0.0615234-0.2041016
				c0-0.0668945-0.0219727-0.1191406-0.0664063-0.1567383c-0.0439453-0.0380859-0.1054688-0.0566406-0.1845703-0.0566406
				c-0.0522461,0-0.1088867,0.0087891-0.1699219,0.0273438s-0.1210938,0.046875-0.1791992,0.0849609h-0.0087891v-0.1816406
				c0.0410156-0.0200195,0.0957031-0.0385742,0.1640625-0.0551758c0.0683594-0.0170898,0.1342773-0.0253906,0.1982422-0.0253906
				c0.1318359,0,0.2353516,0.0322266,0.3105469,0.0957031c0.074707,0.0634766,0.1123047,0.1499023,0.1123047,0.2587891
				c0,0.0488281-0.0063477,0.0947266-0.0185547,0.137207c-0.0126953,0.0419922-0.0307617,0.0825195-0.0551758,0.1206055
				c-0.0224609,0.0356445-0.0488281,0.0708008-0.0791016,0.1054688c-0.0302734,0.0341797-0.0668945,0.0727539-0.1098633,0.1147461
				c-0.0620117,0.0605469-0.1254883,0.1191406-0.1914063,0.1757813c-0.0654297,0.0566406-0.1269531,0.109375-0.184082,0.1577148
				h0.6923828V62.0107765z"/>
		</g>
	</g>
	<g>
		<g>
			<g id="XMLID_27_">
				<g>
					<rect x="66.9867859" y="59.3393517" class="st11" width="2.4357474" height="4.255477"/>
				</g>
				<g>
				</g>
			</g>
			<g id="XMLID_23_">
				<g>
					<rect x="60.8584709" y="59.2986412" class="st11" width="2.4357474" height="4.255477"/>
				</g>
				<g>
				</g>
			</g>
			<circle class="st12" cx="65.0758514" cy="61.3449516" r="0.5520833"/>
		</g>
		<path class="st13" d="M62.4644203,61.4269981c0.0003471-0.2929649-0.141407-0.6022453-0.4296074-0.6939087
			c-0.0606499-0.0212898-0.0606499-1.4339752-0.0606499-1.4339752s0.7387772,0,1.4775543,0v4.2557678
			c-0.7387772,0-1.4775543,0-1.4775543,0s0-1.4126854,0.0606499-1.4339752
			C62.3230133,62.0292435,62.4647675,61.7199631,62.4644203,61.4269981"/>
		<path class="st13" d="M67.7545013,61.4269981c-0.0003433-0.2929649,0.1414108-0.6022453,0.4296112-0.6939087
			c0.0606461-0.0212898,0.0606461-1.4339752,0.0606461-1.4339752s-0.7387772,0-1.4775543,0v4.2557678
			c0.7387772,0,1.4775543,0,1.4775543,0s0-1.4126854-0.0606461-1.4339752
			C67.8959122,62.0292435,67.754158,61.7199631,67.7545013,61.4269981"/>
		<rect x="63.4517174" y="59.2991142" class="st14" width="3.3154881" height="4.2557707"/>
		<rect x="63.4517174" y="59.2991142" class="st15" width="3.3154881" height="4.2557707"/>
		<line class="st16" x1="60.0559921" y1="63.554882" x2="60.0559921" y2="59.3396797"/>
	</g>
	<g id="конденсатор_8_">
		<g id="XMLID_93_">
			<g>
				<rect x="4.6244087" y="25.1487923" class="st11" width="4.255477" height="2.4375174"/>
			</g>
			<g>
			</g>
		</g>
		<g id="XMLID_92_">
			<g>
				<rect x="4.5836949" y="19.0204811" class="st11" width="4.255477" height="2.4375174"/>
			</g>
			<g>
			</g>
		</g>
		<g id="XMLID_91_">
			<g>
				<rect x="4.9341874" y="20.6914215" class="st17" width="3.6058266" height="5.1611581"/>
			</g>
			<g>
			</g>
		</g>
	</g>
	<g id="Резистор_6_">
		<g id="XMLID_104_">
			<g>
				<rect x="18.1884041" y="19.040638" class="st8" width="2.4375174" height="4.255477"/>
			</g>
			<g>
			</g>
		</g>
		<g id="XMLID_103_">
			<g>
				<rect x="24.3167152" y="18.9999256" class="st8" width="2.4375174" height="4.255477"/>
			</g>
			<g>
			</g>
		</g>
		<g id="XMLID_102_">
			<g>
				<rect x="19.9218483" y="19.3504677" class="st9" width="5.1611581" height="3.6058266"/>
			</g>
			<g>
			</g>
		</g>
		<g>
			<path class="st10" d="M21.9992065,21.6973019h-0.8710938v-0.1806641
				c0.0605469-0.0517578,0.1210938-0.1035156,0.1821289-0.1557617c0.0605469-0.0517578,0.1171875-0.1030273,0.1694336-0.1542969
				c0.1108398-0.1074219,0.1865234-0.1923828,0.2275391-0.2558594c0.0410156-0.0629883,0.0615234-0.1308594,0.0615234-0.2041016
				c0-0.0668945-0.0219727-0.1191406-0.0664063-0.1567383c-0.0439453-0.0380859-0.1054688-0.0566406-0.1845703-0.0566406
				c-0.0522461,0-0.1088867,0.0087891-0.1699219,0.0273438s-0.1210938,0.046875-0.1791992,0.0849609h-0.0087891v-0.1816406
				c0.0410156-0.0200195,0.0957031-0.0385742,0.1640625-0.0551758c0.0683594-0.0170898,0.1342773-0.0253906,0.1982422-0.0253906
				c0.1318359,0,0.2353516,0.0322266,0.3105469,0.0957031c0.074707,0.0634766,0.1123047,0.1499023,0.1123047,0.2587891
				c0,0.0488281-0.0063477,0.0947266-0.0185547,0.137207c-0.0126953,0.0419922-0.0307617,0.0825195-0.0551758,0.1206055
				c-0.0224609,0.0356445-0.0488281,0.0708008-0.0791016,0.1054688c-0.0302734,0.0341797-0.0668945,0.0727539-0.1098633,0.1147461
				c-0.0620117,0.0605469-0.1254883,0.1191406-0.1914063,0.1757813c-0.0654297,0.0566406-0.1269531,0.109375-0.184082,0.1577148
				h0.6923828V21.6973019z"/>
			<path class="st10" d="M22.9459839,21.0532589c0,0.230957-0.0361328,0.4008789-0.1083984,0.5087891
				s-0.1845703,0.1621094-0.3369141,0.1621094c-0.1542969,0-0.2670898-0.0546875-0.3383789-0.1640625
				c-0.0712891-0.1098633-0.1064453-0.277832-0.1064453-0.5048828c0-0.2290039,0.0356445-0.3979492,0.1079102-0.5068359
				c0.0717773-0.109375,0.184082-0.1640625,0.3369141-0.1640625c0.1542969,0,0.2670898,0.0556641,0.3383789,0.1665039
				S22.9459839,20.8291378,22.9459839,21.0532589z M22.7184448,21.445837
				c0.0205078-0.046875,0.0341797-0.1015625,0.0410156-0.1645508c0.0073242-0.0634766,0.0107422-0.1391602,0.0107422-0.2280273
				c0-0.0874023-0.003418-0.1635742-0.0107422-0.2280273c-0.0068359-0.0644531-0.0209961-0.1191406-0.0419922-0.1640625
				c-0.0200195-0.0444336-0.0473633-0.078125-0.0825195-0.1005859c-0.034668-0.0224609-0.0795898-0.0336914-0.1342773-0.0336914
				c-0.0541992,0-0.0991211,0.0112305-0.1342773,0.0336914c-0.0356445,0.0224609-0.0634766,0.0566406-0.0844727,0.1020508
				c-0.0195313,0.0424805-0.0327148,0.0981445-0.0400391,0.1669922c-0.0073242,0.0683594-0.0107422,0.1435547-0.0107422,0.2255859
				c0,0.0898438,0.0029297,0.1650391,0.0092773,0.2255859s0.0200195,0.1147461,0.0410156,0.1625977
				c0.0185547,0.0449219,0.0458984,0.0791016,0.0805664,0.1025391c0.034668,0.0239258,0.0810547,0.0356445,0.1386719,0.0356445
				c0.0541992,0,0.0991211-0.0112305,0.1347656-0.0336914S22.6989136,21.4912472,22.7184448,21.445837z"/>
			<path class="st10" d="M23.7824097,21.077673c0.027832,0.0249023,0.0507813,0.0556641,0.0683594,0.0932617
				c0.0180664,0.0375977,0.0268555,0.0859375,0.0268555,0.1450195s-0.0107422,0.112793-0.0317383,0.1616211
				c-0.0214844,0.0493164-0.0512695,0.0917969-0.0898438,0.1279297c-0.043457,0.0405273-0.0942383,0.0703125-0.152832,0.0898438
				c-0.0585938,0.019043-0.1225586,0.0288086-0.1923828,0.0288086c-0.0712891,0-0.1416016-0.0087891-0.2109375-0.0253906
				c-0.0688477-0.0170898-0.1259766-0.0356445-0.1699219-0.0561523v-0.1801758h0.0126953
				c0.0488281,0.0322266,0.1064453,0.0585938,0.1728516,0.0800781s0.1303711,0.0322266,0.1918945,0.0322266
				c0.0366211,0,0.0751953-0.0063477,0.1157227-0.0185547c0.0410156-0.0117188,0.0742188-0.0297852,0.0996094-0.0532227
				c0.0263672-0.0253906,0.0463867-0.0532227,0.059082-0.0839844c0.0131836-0.0307617,0.0195313-0.0693359,0.0195313-0.1157227
				s-0.0073242-0.0844727-0.0219727-0.1147461s-0.0351563-0.0537109-0.0610352-0.0712891s-0.0571289-0.0297852-0.0942383-0.0366211
				c-0.0366211-0.0068359-0.0766602-0.0097656-0.1191406-0.0097656h-0.0776367v-0.1435547h0.0600586
				c0.0878906,0,0.1577148-0.0185547,0.2099609-0.0551758s0.078125-0.0898438,0.078125-0.1601563
				c0-0.03125-0.0068359-0.0581055-0.0200195-0.081543s-0.0317383-0.0424805-0.0551758-0.0576172
				c-0.0249023-0.0151367-0.0512695-0.0253906-0.0795898-0.03125c-0.0283203-0.0053711-0.0600586-0.0083008-0.0957031-0.0083008
				c-0.0551758,0-0.1132813,0.0097656-0.1748047,0.0292969s-0.1196289,0.0473633-0.1748047,0.0830078h-0.0083008V20.46488
				c0.0410156-0.0205078,0.0952148-0.0390625,0.1635742-0.0556641c0.0683594-0.0170898,0.1342773-0.0258789,0.1982422-0.0258789
				c0.0629883,0,0.1181641,0.0058594,0.1660156,0.0175781c0.0478516,0.0112305,0.0913086,0.0297852,0.1298828,0.0551758
				c0.0415039,0.027832,0.0727539,0.0610352,0.0942383,0.1000977c0.0209961,0.0395508,0.0317383,0.0849609,0.0317383,0.1376953
				c0,0.0712891-0.0249023,0.1337891-0.0756836,0.1870117c-0.050293,0.0532227-0.1098633,0.0869141-0.1782227,0.1005859v0.012207
				c0.0273438,0.0048828,0.059082,0.0141602,0.0952148,0.0288086C23.7277222,21.0371456,23.7579956,21.0557003,23.7824097,21.077673
				z"/>
		</g>
	</g>
	<g id="конденсатор_2_">
		<g id="XMLID_43_">
			<g>
				<rect x="24.3167553" y="26.3729191" class="st11" width="2.4375174" height="4.255477"/>
			</g>
			<g>
			</g>
		</g>
		<g id="XMLID_42_">
			<g>
				<rect x="18.1884422" y="26.4136314" class="st11" width="2.4375174" height="4.255477"/>
			</g>
			<g>
			</g>
		</g>
		<g id="XMLID_41_">
			<g>
				<rect x="19.8593845" y="26.7127895" class="st18" width="5.1611581" height="3.6058266"/>
			</g>
			<g>
			</g>
		</g>
	</g>
	<g id="конденсатор_4_">
		<g id="XMLID_107_">
			<g>
				<rect x="40.17659" y="61.096077" class="st11" width="4.255477" height="2.4375174"/>
			</g>
			<g>
			</g>
		</g>
		<g id="XMLID_106_">
			<g>
				<rect x="40.1358757" y="54.9677658" class="st11" width="4.255477" height="2.4375174"/>
			</g>
			<g>
			</g>
		</g>
		<g id="XMLID_105_">
			<g>
				<rect x="40.4863701" y="56.6387062" class="st18" width="3.6058266" height="5.1611581"/>
			</g>
			<g>
			</g>
		</g>
	</g>
	<g id="Резистор_13_">
		<g id="XMLID_116_">
			<g>
				<rect x="18.1884041" y="4.2931013" class="st8" width="2.4375174" height="4.255477"/>
			</g>
			<g>
			</g>
		</g>
		<g id="XMLID_115_">
			<g>
				<rect x="24.3167152" y="4.2523875" class="st8" width="2.4375174" height="4.255477"/>
			</g>
			<g>
			</g>
		</g>
		<g id="XMLID_114_">
			<g>
				<rect x="19.9218483" y="4.6029301" class="st9" width="5.1611581" height="3.6058266"/>
			</g>
			<g>
			</g>
		</g>
		<g>
			<path class="st10" d="M21.9992065,6.9497423h-0.8710938V6.7690783c0.0605469-0.0517578,0.1210938-0.1035156,0.1821289-0.1557617
				c0.0605469-0.0517578,0.1171875-0.1030273,0.1694336-0.1542969c0.1108398-0.1074219,0.1865234-0.1923828,0.2275391-0.2558594
				c0.0410156-0.0629883,0.0615234-0.1308594,0.0615234-0.2041016c0-0.0668945-0.0219727-0.1191406-0.0664063-0.1567383
				c-0.0439453-0.0380859-0.1054688-0.0566406-0.1845703-0.0566406c-0.0522461,0-0.1088867,0.0087891-0.1699219,0.0273438
				s-0.1210938,0.046875-0.1791992,0.0849609h-0.0087891V5.7163439c0.0410156-0.0200195,0.0957031-0.0385742,0.1640625-0.0551758
				c0.0683594-0.0170898,0.1342773-0.0253906,0.1982422-0.0253906c0.1318359,0,0.2353516,0.0322266,0.3105469,0.0957031
				c0.074707,0.0634766,0.1123047,0.1499023,0.1123047,0.2587891c0,0.0488281-0.0063477,0.0947266-0.0185547,0.137207
				c-0.0126953,0.0419922-0.0307617,0.0825195-0.0551758,0.1206055c-0.0224609,0.0356445-0.0488281,0.0708008-0.0791016,0.1054688
				c-0.0302734,0.0341797-0.0668945,0.0727539-0.1098633,0.1147461c-0.0620117,0.0605469-0.1254883,0.1191406-0.1914063,0.1757813
				c-0.0654297,0.0566406-0.1269531,0.109375-0.184082,0.1577148h0.6923828V6.9497423z"/>
			<path class="st10" d="M22.9459839,6.3056993c0,0.230957-0.0361328,0.4008789-0.1083984,0.5087891
				s-0.1845703,0.1621094-0.3369141,0.1621094c-0.1542969,0-0.2670898-0.0546875-0.3383789-0.1640625
				c-0.0712891-0.1098633-0.1064453-0.277832-0.1064453-0.5048828c0-0.2290039,0.0356445-0.3979492,0.1079102-0.5068359
				c0.0717773-0.109375,0.184082-0.1640625,0.3369141-0.1640625c0.1542969,0,0.2670898,0.0556641,0.3383789,0.1665039
				S22.9459839,6.0815783,22.9459839,6.3056993z M22.7184448,6.6982775c0.0205078-0.046875,0.0341797-0.1015625,0.0410156-0.1645508
				c0.0073242-0.0634766,0.0107422-0.1391602,0.0107422-0.2280273c0-0.0874023-0.003418-0.1635742-0.0107422-0.2280273
				c-0.0068359-0.0644531-0.0209961-0.1191406-0.0419922-0.1640625c-0.0200195-0.0444336-0.0473633-0.078125-0.0825195-0.1005859
				c-0.034668-0.0224609-0.0795898-0.0336914-0.1342773-0.0336914c-0.0541992,0-0.0991211,0.0112305-0.1342773,0.0336914
				c-0.0356445,0.0224609-0.0634766,0.0566406-0.0844727,0.1020508c-0.0195313,0.0424805-0.0327148,0.0981445-0.0400391,0.1669922
				c-0.0073242,0.0683594-0.0107422,0.1435547-0.0107422,0.2255859c0,0.0898438,0.0029297,0.1650391,0.0092773,0.2255859
				s0.0200195,0.1147461,0.0410156,0.1625977c0.0185547,0.0449219,0.0458984,0.0791016,0.0805664,0.1025391
				c0.034668,0.0239258,0.0810547,0.0356445,0.1386719,0.0356445c0.0541992,0,0.0991211-0.0112305,0.1347656-0.0336914
				S22.6989136,6.7436876,22.7184448,6.6982775z"/>
			<path class="st10" d="M23.7824097,6.3301134c0.027832,0.0249023,0.0507813,0.0556641,0.0683594,0.0932617
				c0.0180664,0.0375977,0.0268555,0.0859375,0.0268555,0.1450195s-0.0107422,0.112793-0.0317383,0.1616211
				c-0.0214844,0.0493164-0.0512695,0.0917969-0.0898438,0.1279297c-0.043457,0.0405273-0.0942383,0.0703125-0.152832,0.0898438
				c-0.0585938,0.019043-0.1225586,0.0288086-0.1923828,0.0288086c-0.0712891,0-0.1416016-0.0087891-0.2109375-0.0253906
				c-0.0688477-0.0170898-0.1259766-0.0356445-0.1699219-0.0561523V6.714879h0.0126953
				c0.0488281,0.0322266,0.1064453,0.0585938,0.1728516,0.0800781s0.1303711,0.0322266,0.1918945,0.0322266
				c0.0366211,0,0.0751953-0.0063477,0.1157227-0.0185547c0.0410156-0.0117188,0.0742188-0.0297852,0.0996094-0.0532227
				c0.0263672-0.0253906,0.0463867-0.0532227,0.059082-0.0839844c0.0131836-0.0307617,0.0195313-0.0693359,0.0195313-0.1157227
				s-0.0073242-0.0844727-0.0219727-0.1147461s-0.0351563-0.0537109-0.0610352-0.0712891s-0.0571289-0.0297852-0.0942383-0.0366211
				c-0.0366211-0.0068359-0.0766602-0.0097656-0.1191406-0.0097656h-0.0776367V6.1797228h0.0600586
				c0.0878906,0,0.1577148-0.0185547,0.2099609-0.0551758s0.078125-0.0898438,0.078125-0.1601563
				c0-0.03125-0.0068359-0.0581055-0.0200195-0.081543s-0.0317383-0.0424805-0.0551758-0.0576172
				c-0.0249023-0.0151367-0.0512695-0.0253906-0.0795898-0.03125c-0.0283203-0.0053711-0.0600586-0.0083008-0.0957031-0.0083008
				c-0.0551758,0-0.1132813,0.0097656-0.1748047,0.0292969S23.1305542,5.86234,23.0753784,5.8979845h-0.0083008V5.7173204
				c0.0410156-0.0205078,0.0952148-0.0390625,0.1635742-0.0556641c0.0683594-0.0170898,0.1342773-0.0258789,0.1982422-0.0258789
				c0.0629883,0,0.1181641,0.0058594,0.1660156,0.0175781c0.0478516,0.0112305,0.0913086,0.0297852,0.1298828,0.0551758
				c0.0415039,0.027832,0.0727539,0.0610352,0.0942383,0.1000977C23.8400269,5.8481798,23.850769,5.89359,23.850769,5.9463243
				c0,0.0712891-0.0249023,0.1337891-0.0756836,0.1870117c-0.050293,0.0532227-0.1098633,0.0869141-0.1782227,0.1005859v0.012207
				c0.0273438,0.0048828,0.059082,0.0141602,0.0952148,0.0288086C23.7277222,6.2895861,23.7579956,6.3081408,23.7824097,6.3301134z"
				/>
		</g>
	</g>
	<g id="конденсатор_3_">
		<g id="XMLID_113_">
			<g>
				<rect x="24.3167553" y="11.6253805" class="st11" width="2.4375174" height="4.255477"/>
			</g>
			<g>
			</g>
		</g>
		<g id="XMLID_112_">
			<g>
				<rect x="18.1884422" y="11.6660938" class="st11" width="2.4375174" height="4.255477"/>
			</g>
			<g>
			</g>
		</g>
		<g id="XMLID_111_">
			<g>
				<rect x="19.8593845" y="11.9652519" class="st18" width="5.1611581" height="3.6058266"/>
			</g>
			<g>
			</g>
		</g>
	</g>
	<g id="конденсатор_1_">
		<g id="XMLID_101_">
			<g>
				<rect x="4.6244087" y="63.8290863" class="st11" width="4.255477" height="2.4375174"/>
			</g>
			<g>
			</g>
		</g>
		<g id="XMLID_62_">
			<g>
				<rect x="4.5836949" y="57.7007751" class="st11" width="4.255477" height="2.4375174"/>
			</g>
			<g>
			</g>
		</g>
		<g id="XMLID_61_">
			<g>
				<rect x="4.9341874" y="59.3717155" class="st17" width="3.6058266" height="5.1611581"/>
			</g>
			<g>
			</g>
		</g>
	</g>
	<g id="AUX">
		
			<rect x="48.6115112" y="25.7378082" transform="matrix(-1 -1.224647e-16 1.224647e-16 -1 103.9220581 56.1711845)" class="st11" width="6.6990361" height="4.6955667"/>
		
			<rect x="48.6115112" y="20.3650303" transform="matrix(-1 -1.224647e-16 1.224647e-16 -1 103.9220581 45.4256287)" class="st11" width="6.6990361" height="4.6955667"/>
		
			<rect x="48.6115112" y="11.9468527" transform="matrix(-1 -1.224647e-16 1.224647e-16 -1 103.9220581 28.5892715)" class="st11" width="6.6990361" height="4.6955667"/>
		
			<rect x="29.7293854" y="8.5626602" transform="matrix(-1 -1.224647e-16 1.224647e-16 -1 66.1578064 21.8208866)" class="st11" width="6.6990361" height="4.6955667"/>
		
			<rect x="29.7293854" y="17.2346535" transform="matrix(-1 -1.224647e-16 1.224647e-16 -1 66.1578064 39.1648712)" class="st11" width="6.6990361" height="4.6955667"/>
		
			<rect x="29.7293854" y="25.2712994" transform="matrix(-1 -1.224647e-16 1.224647e-16 -1 66.1578064 55.2381668)" class="st11" width="6.6990361" height="4.6955667"/>
		
			<rect x="29.7293854" y="31.7858696" transform="matrix(-1 -1.224647e-16 1.224647e-16 -1 66.1578064 68.2673035)" class="st11" width="6.6990361" height="4.6955667"/>
		<polygon class="st19" points="33.7316437,2.7570291 51.2448349,2.7570291 51.2448349,41.3677979 33.7316437,41.3677979 
			33.7316437,36.0608673 		"/>
		<path class="st20" d="M37.2555656,0.1237047h10.4653473c0.1589432,0,0.2877884,0.1288478,0.2877884,0.2877896v2.3455348
			H36.9677773V0.4114943C36.9677773,0.2525524,37.0966225,0.1237047,37.2555656,0.1237047z"/>
		
			<rect x="36.9677773" y="2.7570291" transform="matrix(-1 -1.224647e-16 1.224647e-16 -1 84.9764786 42.6676369)" class="st21" width="11.0409269" height="37.1535759"/>
		<polygon class="st22" points="46.5809975,35.594265 49.7219505,34.4838295 49.7219505,27.6190834 38.1099396,32.7705841 
			33.7316437,32.7705841 33.7316437,35.594265 		"/>
		<polygon class="st22" points="38.3954849,21.2537537 35.254528,22.3641891 35.254528,29.2289371 46.866539,24.0774364 
			51.2448349,24.0774364 51.2448349,21.2537537 		"/>
		<polygon class="st22" points="38.3954849,12.8778811 35.254528,13.9883165 35.254528,20.8530636 46.866539,15.7015638 
			51.2448349,15.7015638 51.2448349,12.8778811 		"/>
		<polygon class="st22" points="38.3954849,4.216464 35.254528,5.3269 35.254528,12.1916466 46.866539,7.0401473 
			51.2448349,7.0401473 51.2448349,4.216464 		"/>
		
			<rect x="33.7316437" y="3.5713503" transform="matrix(-1 -1.224647e-16 1.224647e-16 -1 84.9764786 40.6582718)" class="st23" width="17.5131931" height="33.5155716"/>
	</g>
	<g>
		<g id="XMLID_99_">
			<g>
				<rect x="75.2653732" y="42.9800644" class="st1" width="5.5226779" height="1.5206444"/>
			</g>
			<g>
			</g>
		</g>
		<g id="XMLID_98_">
			<g>
				<rect x="75.2653732" y="45.7459717" class="st1" width="5.5226779" height="1.5206444"/>
			</g>
			<g>
			</g>
		</g>
		<g id="XMLID_97_">
			<g>
				<rect x="75.2653732" y="48.511879" class="st1" width="5.5226779" height="1.5206444"/>
			</g>
			<g>
			</g>
		</g>
		<g id="XMLID_96_">
			<g>
				<rect x="75.2653732" y="51.2777863" class="st1" width="5.5226779" height="1.5206444"/>
			</g>
			<g>
			</g>
		</g>
		<g id="XMLID_95_">
			<g>
				<rect x="75.2653732" y="54.0436935" class="st1" width="5.5226779" height="1.5206444"/>
			</g>
			<g>
			</g>
		</g>
		<g id="XMLID_94_">
			<g>
				<rect x="75.2653732" y="34.6823387" class="st1" width="5.5226779" height="1.5206444"/>
			</g>
			<g>
			</g>
		</g>
		<g id="XMLID_90_">
			<g>
				<rect x="75.2653732" y="37.448246" class="st1" width="5.5226779" height="1.5206444"/>
			</g>
			<g>
			</g>
		</g>
		<g id="XMLID_89_">
			<g>
				<rect x="75.2653732" y="40.2141533" class="st1" width="5.5226779" height="1.5206444"/>
			</g>
			<g>
			</g>
		</g>
		<g id="XMLID_88_">
			<g>
				<rect x="56.2686615" y="42.9800644" class="st1" width="5.5226779" height="1.5206444"/>
			</g>
			<g>
			</g>
		</g>
		<g id="XMLID_87_">
			<g>
				<rect x="56.2686615" y="45.7459717" class="st1" width="5.5226779" height="1.5206444"/>
			</g>
			<g>
			</g>
		</g>
		<g id="XMLID_86_">
			<g>
				<rect x="56.2686615" y="48.511879" class="st1" width="5.5226779" height="1.5206444"/>
			</g>
			<g>
			</g>
		</g>
		<g id="XMLID_85_">
			<g>
				<rect x="56.2686615" y="51.2777863" class="st1" width="5.5226779" height="1.5206444"/>
			</g>
			<g>
			</g>
		</g>
		<g id="XMLID_84_">
			<g>
				<rect x="56.2686615" y="54.0436935" class="st1" width="5.5226779" height="1.5206444"/>
			</g>
			<g>
			</g>
		</g>
		<g id="XMLID_83_">
			<g>
				<rect x="56.2686615" y="34.6823387" class="st1" width="5.5226779" height="1.5206444"/>
			</g>
			<g>
			</g>
		</g>
		<g id="XMLID_82_">
			<g>
				<rect x="56.2686615" y="37.448246" class="st1" width="5.5226779" height="1.5206444"/>
			</g>
			<g>
			</g>
		</g>
		<g id="XMLID_81_">
			<g>
				<rect x="56.2686615" y="40.2141533" class="st1" width="5.5226779" height="1.5206444"/>
			</g>
			<g>
			</g>
		</g>
		<g id="XMLID_100_">
			<g>
				<path class="st24" d="M60.3542862,56.5919838v-22.9361c0-0.1259232,0.1008034-0.2248611,0.2261276-0.2248611h15.8969269
					c0.1225967,0,0.2234039,0.098938,0.2234039,0.2248611v22.9361c0,0.1229248-0.1008072,0.224865-0.2234039,0.224865H60.5804138
					C60.4550896,56.8168488,60.3542862,56.7149086,60.3542862,56.5919838z"/>
			</g>
			<g>
			</g>
		</g>
	</g>
	<g id="конденсатор_6_">
		<g id="XMLID_125_">
			<g>
				<rect x="64.4143372" y="4.2516117" class="st11" width="2.4375174" height="4.255477"/>
			</g>
			<g>
			</g>
		</g>
		<g id="XMLID_124_">
			<g>
				<rect x="58.2860298" y="4.2923255" class="st11" width="2.4375174" height="4.255477"/>
			</g>
			<g>
			</g>
		</g>
		<g id="XMLID_123_">
			<g>
				<rect x="59.9569702" y="4.5914831" class="st17" width="5.1611581" height="3.6058266"/>
			</g>
			<g>
			</g>
		</g>
	</g>
	<g id="конденсатор_5_">
		<g id="XMLID_119_">
			<g>
				<rect x="64.4143372" y="11.6253805" class="st11" width="2.4375174" height="4.255477"/>
			</g>
			<g>
			</g>
		</g>
		<g id="XMLID_118_">
			<g>
				<rect x="58.2860298" y="11.6660938" class="st11" width="2.4375174" height="4.255477"/>
			</g>
			<g>
			</g>
		</g>
		<g id="XMLID_117_">
			<g>
				<rect x="59.9569702" y="11.9652519" class="st17" width="5.1611581" height="3.6058266"/>
			</g>
			<g>
			</g>
		</g>
	</g>
	<g id="конденсатор_7_">
		<g id="XMLID_122_">
			<g>
				<rect x="68.933548" y="18.92943" class="st11" width="4.2349119" height="7.3934121"/>
			</g>
			<g>
			</g>
		</g>
		<g id="XMLID_121_">
			<g>
				<rect x="58.2862968" y="19.000164" class="st11" width="4.2349119" height="7.3934121"/>
			</g>
			<g>
			</g>
		</g>
		<g id="XMLID_120_">
			<g>
				<rect x="61.1893005" y="19.5168419" class="st25" width="8.9669313" height="6.2677932"/>
			</g>
			<g>
			</g>
		</g>
	</g>
	<g id="конденсатор_9_">
		<g id="XMLID_128_">
			<g>
				<rect x="76.1925964" y="19.020113" class="st11" width="4.255477" height="2.4375174"/>
			</g>
			<g>
			</g>
		</g>
		<g id="XMLID_127_">
			<g>
				<rect x="76.2333145" y="25.1484241" class="st11" width="4.255477" height="2.4375174"/>
			</g>
			<g>
			</g>
		</g>
		<g id="XMLID_126_">
			<g>
				<rect x="76.5324707" y="20.7538414" class="st17" width="3.6058266" height="5.1611581"/>
			</g>
			<g>
			</g>
		</g>
	</g>
	<g>
		<g id="прошивка">
			<path class="st11" d="M6.7113085,33.3022842c-1.4799805,0-2.6796875,1.199707-2.6796875,2.6796875
				c0,1.4799194,1.199707,2.6796875,2.6796875,2.6796875c1.4799194,0,2.6796875-1.1997681,2.6796875-2.6796875
				C9.390996,34.5019913,8.1912279,33.3022842,6.7113085,33.3022842z M6.7113085,37.7538223
				c-0.9786377,0-1.7719116-0.7932739-1.7719116-1.7718506s0.7932739-1.7719116,1.7719116-1.7719116
				c0.9785767,0,1.7718506,0.793335,1.7718506,1.7719116S7.6898851,37.7538223,6.7113085,37.7538223z"/>
			<path class="st11" d="M6.7113085,40.4737015c-1.4799805,0-2.6796875,1.199707-2.6796875,2.6796875
				c0,1.4799194,1.199707,2.6796875,2.6796875,2.6796875c1.4799194,0,2.6796875-1.1997681,2.6796875-2.6796875
				C9.390996,41.6734085,8.1912279,40.4737015,6.7113085,40.4737015z M6.7113085,44.9252396
				c-0.9786377,0-1.7719116-0.7932739-1.7719116-1.7718506s0.7932739-1.7719116,1.7719116-1.7719116
				c0.9785767,0,1.7718506,0.793335,1.7718506,1.7719116S7.6898851,44.9252396,6.7113085,44.9252396z"/>
			<path class="st11" d="M6.7113085,47.6374245c-1.4799805,0-2.6796875,1.199707-2.6796875,2.6796875
				c0,1.4799194,1.199707,2.6796875,2.6796875,2.6796875c1.4799194,0,2.6796875-1.1997681,2.6796875-2.6796875
				C9.390996,48.8371315,8.1912279,47.6374245,6.7113085,47.6374245z M6.7113085,52.0889626
				c-0.9786377,0-1.7719116-0.7932739-1.7719116-1.7718506s0.7932739-1.7719116,1.7719116-1.7719116
				c0.9785767,0,1.7718506,0.793335,1.7718506,1.7719116S7.6898851,52.0889626,6.7113085,52.0889626z"/>
		</g>
		<line class="st16" x1="11.3909979" y1="52.9967995" x2="11.3909979" y2="33.3022842"/>
		<g>
			<g>
				<path class="st26" d="M13.4406128,39.0830421l0.3613281,0.3505859h0.9609375v0.3779297h-2.84375v-0.3779297h1.40625
					l-1.40625-1.2749023v-0.4570313l1.2558594,1.1289063l1.5878906-1.2172852v0.453125L13.4406128,39.0830421z"/>
				<path class="st26" d="M13.4484253,35.8628273v1.2431641h1.0078125v-1.4443359h0.3066406v1.8222656h-2.84375V35.681675h0.3066406
					v1.4243164h0.9160156v-1.2431641H13.4484253z"/>
				<path class="st26" d="M13.3468628,34.5181007l-1.4277344-0.7485352v-0.4296875l1.7832031,0.9892578h1.0605469v0.3779297
					h-1.0605469l-1.7832031,0.9887695v-0.4331055L13.3468628,34.5181007z"/>
			</g>
		</g>
	</g>
	<g>
		<g id="прошивка_2_">
			<path class="st11" d="M18.9921036,33.3022842c-1.4799805,0-2.6796875,1.199707-2.6796875,2.6796875
				c0,1.4799194,1.199707,2.6796875,2.6796875,2.6796875c1.4799194,0,2.6796875-1.1997681,2.6796875-2.6796875
				C21.6717911,34.5019913,20.472023,33.3022842,18.9921036,33.3022842z M18.9921036,37.7538223
				c-0.9786377,0-1.7719116-0.7932739-1.7719116-1.7718506s0.7932739-1.7719116,1.7719116-1.7719116
				c0.9785767,0,1.7718506,0.793335,1.7718506,1.7719116S19.9706802,37.7538223,18.9921036,37.7538223z"/>
			<path class="st11" d="M18.9921036,40.4737015c-1.4799805,0-2.6796875,1.199707-2.6796875,2.6796875
				c0,1.4799194,1.199707,2.6796875,2.6796875,2.6796875c1.4799194,0,2.6796875-1.1997681,2.6796875-2.6796875
				C21.6717911,41.6734085,20.472023,40.4737015,18.9921036,40.4737015z M18.9921036,44.9252396
				c-0.9786377,0-1.7719116-0.7932739-1.7719116-1.7718506s0.7932739-1.7719116,1.7719116-1.7719116
				c0.9785767,0,1.7718506,0.793335,1.7718506,1.7719116S19.9706802,44.9252396,18.9921036,44.9252396z"/>
			<path class="st11" d="M18.9921036,47.6374245c-1.4799805,0-2.6796875,1.199707-2.6796875,2.6796875
				c0,1.4799194,1.199707,2.6796875,2.6796875,2.6796875c1.4799194,0,2.6796875-1.1997681,2.6796875-2.6796875
				C21.6717911,48.8371315,20.472023,47.6374245,18.9921036,47.6374245z M18.9921036,52.0889626
				c-0.9786377,0-1.7719116-0.7932739-1.7719116-1.7718506s0.7932739-1.7719116,1.7719116-1.7719116
				c0.9785767,0,1.7718506,0.793335,1.7718506,1.7719116S19.9706802,52.0889626,18.9921036,52.0889626z"/>
		</g>
		<line class="st16" x1="23.671793" y1="52.9967995" x2="23.671793" y2="33.3022842"/>
		<g>
			<g>
				<path class="st26" d="M27.0436401,35.9433937v0.378418h-2.84375v-0.378418H27.0436401z"/>
				<path class="st26" d="M25.8932495,34.4018898v0.6738281h1.1503906v0.3798828h-2.84375V34.506382
					c0-0.3232422,0.0727539-0.5717773,0.21875-0.7456055c0.1459961-0.1743164,0.3579102-0.2612305,0.6367188-0.2612305
					c0.1772461,0,0.331543,0.0483398,0.4628906,0.1450195c0.1313477,0.0961914,0.2299805,0.2304688,0.2949219,0.402832
					l1.2070313-0.6738281h0.0234375v0.4057617L25.8932495,34.4018898z M25.5866089,35.0757179v-0.581543
					c0-0.1875-0.0483398-0.3369141-0.1445313-0.4477539c-0.0966797-0.1113281-0.2260742-0.1665039-0.3876953-0.1665039
					c-0.1762695,0-0.3110352,0.0527344-0.4047852,0.1586914c-0.0942383,0.1054688-0.1416016,0.2583008-0.1430664,0.4580078
					v0.5791016H25.5866089z"/>
			</g>
		</g>
	</g>
	<g>
		<g>
			<path class="st26" d="M63.604187,67.7558975h1.359375v0.3066406h-1.7392578v-2.84375h0.3798828V67.7558975z"/>
			<path class="st26" d="M66.49823,68.0625381H66.132019V65.654335l-0.7348633,0.2675781v-0.328125l1.0439453-0.3886719H66.49823
				V68.0625381z"/>
		</g>
	</g>
	<path id="path2521" class="st26" d="M36.4050903,53.3223953c-0.2241974-0.0092392-0.4967308-0.0288811-0.6056252-0.0436516
		c-0.8019371-0.1087646-1.6316986-0.4661674-2.2612953-0.9740105c-0.0970993-0.0783234-0.296608-0.2669334-0.4433479-0.419136
		c-0.6565552-0.6809883-1.0770912-1.5673637-1.1856785-2.4990883c-0.0362473-0.3110199-0.0183563-1.0670052,0.0327072-1.3819923
		c0.1634846-1.0084801,0.5916767-1.9799614,1.2177868-2.7629051c1.1183357-1.3984718,2.976593-2.3707161,4.8959198-2.5615654
		c1.7013969-0.169178,3.2626991,0.4918365,4.0861282,1.7299652c0.2204857,0.3315239,0.4748993,0.8858757,0.4469643,0.973896
		c-0.0283966,0.0894585-0.098114,0.0506248-0.1404495-0.0782394c-0.143837-0.4377899-0.4458199-0.9187164-0.7933922-1.2635231
		c-0.4394379-0.4359436-1.1335564-0.787178-1.8177376-0.9198074c-0.8485107-0.1644821-1.7115173-0.1002388-2.7098885,0.2017288
		c-1.1345215,0.3431511-2.0642204,0.8835068-2.8184853,1.6381493c-0.8036499,0.8040466-1.2945671,1.7453804-1.5062561,2.8882446
		c-0.0594368,0.3208847-0.059845,1.1901855-0.0006866,1.4645576c0.1476517,0.6847992,0.4474716,1.2296371,0.9343262,1.6978645
		c0.5134087,0.4937668,1.1782875,0.8318939,1.9380989,0.9856262c0.3125572,0.0632401,1.0916595,0.0883026,1.4467812,0.0465469
		c0.9924507-0.116703,1.8051109-0.4951057,2.3775826-1.1070786c0.3091011-0.3304329,0.45961-0.5929756,0.7684937-1.3405228
		c0.1032219-0.2498207,0.2892265-0.6848221,0.4133377-0.966671c0.5028496-1.1419067,0.4990578-1.1305008,0.4064674-1.2230949
		c-0.0445366-0.0445328-0.0687866-0.0502243-0.1652985-0.0387955c-0.1903801,0.0225487-0.3516083,0.1669464-0.485672,0.4349785
		c-0.035244,0.0704613-0.2822914,0.618145-0.5489922,1.2170753l-0.4849129,1.0889587H38.532444
		c-0.8125381,0-0.8695259-0.0026703-0.8696327-0.0407639c-0.000061-0.022419,0.241024-0.5814552,0.5357475-1.2423058
		c0.4520569-1.0136414,0.5358582-1.2186356,0.5358582-1.3108253c0-0.0976944-0.0067902-0.1118927-0.0640564-0.133976
		c-0.1634979-0.0630341-0.3715897,0.0405045-0.5201035,0.2587852c-0.0479431,0.0704613-0.3183784,0.6461143-0.6009712,1.2792282
		s-0.5219955,1.1588173-0.5320091,1.1682358s-0.3996544,0.0207558-0.86586,0.0251961
		c-0.734375,0.0069923-0.8504982,0.0034027-0.8689156-0.0268669c-0.019474-0.0319977,0.3275223-0.8310623,1.3327904-3.0691757
		l0.1701431-0.3788033l0.8402405,0.0061111c0.8194847,0.0059586,0.8404503,0.0072594,0.8486404,0.0526962
		c0.0144844,0.0803528,0.0386505,0.0841866,0.1686325,0.0267525c0.2638817-0.1165924,0.5194817-0.1651993,0.8717918-0.1657829
		c0.2721786-0.0004539,0.3531227,0.007946,0.4894753,0.0507736c0.1881638,0.0591011,0.3527756,0.1612015,0.4169388,0.2586021
		l0.0445671,0.0676498l0.1883659-0.0881767c0.6353607-0.2974205,1.357666-0.3786201,1.8221245-0.2048454
		c0.1674232,0.0626411,0.3652458,0.2451935,0.4202881,0.3878441c0.0616989,0.1598892,0.0528412,0.4131012-0.0221672,0.6338539
		c-0.1435585,0.422493-1.0791855,2.4560204-1.3638916,2.9643364c-0.6849823,1.2229652-1.450222,1.9458008-2.4950905,2.3568192
		c-0.4388046,0.1726151-1.0764809,0.3031693-1.6027069,0.3281288
		C36.8947067,53.3379593,36.8027153,53.3387833,36.4050903,53.3223953z M41.7276878,51.9036293
		c-0.0078659-0.0127335,0.1811256-0.4608383,0.4199829-0.9957886c0.8297157-1.8582306,0.9670105-2.1663361,1.4298782-3.2087898
		l0.4654198-1.0481949h0.9154167h0.9154205l0.00737,0.0640564c0.0090027,0.0782471,0.0138702,0.0784111,0.1724243,0.005825
		c0.2505341-0.1147003,0.4691734-0.1574783,0.8101692-0.1585197c0.7127686-0.002182,1.1300011,0.2098961,1.2609177,0.6409149
		c0.2091522,0.6885796-0.4238739,1.95224-1.2548904,2.5050392c-0.4793816,0.3188896-0.9230156,0.4613113-1.520092,0.4880028
		c-0.3281212,0.0146675-0.4849701-0.013607-0.7312469-0.1318054c-0.0777817-0.0373344-0.1432648-0.0659447-0.1455193-0.0635796
		c-0.0022507,0.0023613-0.1792259,0.3973694-0.3932686,0.8777924c-0.2140503,0.4804268-0.4091415,0.9128075-0.4335403,0.9608498
		l-0.0443649,0.0873489h-0.929882C42.0808792,51.9267807,41.7367821,51.9183426,41.7276878,51.9036293z M45.314106,49.4944115
		c0.2538071-0.1060486,0.5722961-0.5830574,0.8620224-1.2910805c0.1428375-0.3490524,0.2048721-0.6062241,0.1939011-0.8038063
		c-0.006855-0.1234016-0.0189629-0.1671448-0.0531883-0.1921692c-0.1633186-0.1194267-0.504673,0.1088867-0.7699776,0.5149918
		c-0.2268257,0.3472023-0.5034676,0.9585114-0.5820351,1.2861366c-0.0484161,0.201889-0.0383644,0.4037781,0.0235062,0.4721413
		C45.0398178,49.5375137,45.1952057,49.5440903,45.314106,49.4944115z M48.8635826,50.1676216
		c-0.3114128-0.0424881-0.4848061-0.09272-0.7405739-0.2145462c-0.1744385-0.0830879-0.2556458-0.1398048-0.3928909-0.2744102
		c-0.0951538-0.0933189-0.1691589-0.1807442-0.1644554-0.1942825c0.0146217-0.0420914,0.8816032-0.6789207,0.9237289-0.6785126
		c0.0219154,0.0002136,0.1079788,0.0254364,0.1912537,0.0560532c0.1315765,0.048378,0.1506882,0.0628166,0.1459427,0.1102562
		c-0.0322227,0.3221931-0.0335007,0.4195633-0.0063667,0.4850769c0.0698471,0.1686211,0.3187904,0.239727,0.6224861,0.1778107
		c0.2809525-0.0572853,0.4528732-0.1543159,0.6827812-0.3853645c0.2951698-0.2966347,0.4560051-0.6342087,0.43787-0.9190254
		c-0.0111885-0.1756897-0.0700798-0.2692184-0.2131157-0.338459c-0.0898247-0.0434837-0.1424713-0.0485878-0.5013733-0.0485878
		c-0.3403549,0-0.4030991-0.0054474-0.4148369-0.0360298c-0.0123367-0.0321503,0.1538658-0.4437637,0.2088318-0.5171852
		c0.0152626-0.0203819,0.1033096-0.0291138,0.2935753-0.0291138c0.3118324,0,0.4683342-0.0331001,0.7218246-0.1526642
		c0.3564796-0.1681404,0.6891441-0.5954475,0.7527771-0.9669304c0.0224419-0.1310005,0.0203667-0.1615944-0.0161705-0.2385902
		c-0.0574837-0.1211433-0.1767082-0.1791725-0.3680992-0.1791725c-0.2534523,0-0.5028496,0.0948143-0.6807594,0.2588043
		c-0.1208458,0.111393-0.1800842,0.2259827-0.196949,0.3809853l-0.0125885,0.1156921l-0.2096405,0.0650215
		c-0.115303,0.035759-0.2214966,0.0605011-0.2359848,0.0549774c-0.0326653-0.0124512-0.4278755-0.6412468-0.4278755-0.6807709
		c0-0.0365982,0.3321152-0.2567368,0.5562134-0.3686829c0.5733795-0.2864265,1.3988533-0.4371719,2.1023369-0.3839226
		c0.7701035,0.0582924,1.1890945,0.3237381,1.2254257,0.7763519c0.0463982,0.5780411-0.4559822,1.1445045-1.2634811,1.4246521
		c-0.1024895,0.0355568-0.1951752,0.0723495-0.2059631,0.0817566c-0.0107918,0.0094109,0.0460091,0.0520859,0.1262169,0.0948372
		c0.4658699,0.2483063,0.6027832,0.6724892,0.3805923,1.179142c-0.1661224,0.3788033-0.5486031,0.7492256-1.0203209,0.9881592
		c-0.2141304,0.1084633-0.6492691,0.2574005-0.8994064,0.3078499
		C49.8218765,50.2080841,49.2947769,50.2264519,48.8635826,50.1676216z"/>
</g>
<g>
</g>
<g>
</g>
<g>
</g>
<g>
</g>
<g>
</g>
</svg>
