<?xml version="1.0" encoding="utf-8"?>
<!-- Generator: Adobe Illustrator 22.0.1, SVG Export Plug-In . SVG Version: 6.00 Build 0)  -->
<svg version="1.1" xmlns="http://www.w3.org/2000/svg" xmlns:xlink="http://www.w3.org/1999/xlink" x="0px" y="0px"
	 viewBox="0 0 85.0400009 85.0400009" style="enable-background:new 0 0 85.0400009 85.0400009;" xml:space="preserve">
<style type="text/css">
	.st0{fill:#0D0E0F;}
	.st1{fill:#E5E4E0;}
	.st2{fill:#9E9B9C;}
	.st3{fill:#CEC7BD;}
	.st4{fill:#918C84;}
	.st5{fill:#151616;}
	.st6{fill:none;stroke:#F6F6F6;stroke-width:0.75;stroke-miterlimit:10;}
	.st7{fill:#363331;}
	.st8{fill:#B5B4B3;}
	.st9{fill:#CDC7BC;}
	.st10{fill:#FFFFFF;}
	.st11{fill:none;stroke:#E5E4E0;stroke-width:1.3;stroke-miterlimit:10;}
	.st12{fill:none;stroke:#E5E4E0;stroke-width:0.5;stroke-miterlimit:10;}
	.st13{fill:#E5E4E0;stroke:#E5E4E0;stroke-width:0.5;stroke-miterlimit:10;}
</style>
<g id="Макет_TREMA">
	<path class="st0" d="M0,0v85.039978h85.039978V0H0z M9.9212646,79.5117798c-2.4264526,0-4.3936768-1.9667969-4.3936768-4.3926392
		c0-2.4279175,1.9672241-4.3947754,4.3936768-4.3947754s4.3936768,1.9668579,4.3936768,4.3947754
		C14.3149414,77.5449829,12.3477173,79.5117798,9.9212646,79.5117798z M9.9223022,14.3149414
		c-2.4279175,0-4.3947144-1.9667969-4.3947144-4.3927002c0-2.4279175,1.9667969-4.3947144,4.3947144-4.3947144
		c2.4258423,0,4.3926392,1.9667969,4.3926392,4.3947144C14.3149414,12.3481445,12.3481445,14.3149414,9.9223022,14.3149414z
		 M75.1170654,79.5117798c-2.4258423,0-4.3926392-1.968811-4.3926392-4.3947144
		c0-2.4258423,1.9667969-4.3927002,4.3926392-4.3927002c2.4279175,0,4.3947754,1.9668579,4.3947754,4.3927002
		C79.5118408,77.5429688,77.5449829,79.5117798,75.1170654,79.5117798z M75.1191406,14.3149414
		c-2.4279175,0-4.3947144-1.9667969-4.3947144-4.3927002c0-2.4279175,1.9667969-4.3947144,4.3947144-4.3947144
		c2.4258423,0,4.3927002,1.9667969,4.3927002,4.3947144C79.5118408,12.3481445,77.5449829,14.3149414,75.1191406,14.3149414z"/>
	<g>
		<path class="st1" d="M33.7993164,12.6635742h-0.9091797v-1.2177734h-3.0644531v1.2177734H28.902832l-0.0756836-1.9799805
			h0.3842773c0.1787109-0.1518555,0.3339844-0.3916016,0.4667969-0.7192383
			c0.1328125-0.328125,0.2104492-0.809082,0.2333984-1.4443359l0.0927734-1.3334961l-0.4873047-0.0952148V6.4921875h4.3164063
			v0.5991211l-0.5317383,0.1020508v3.4902344h0.590332L33.7993164,12.6635742z M30.9169922,8.5200195
			c-0.0205078,0.5014648-0.0805664,0.9272461-0.1801758,1.2773438c-0.0996094,0.3505859-0.2294922,0.6459961-0.3896484,0.8862305
			h1.9526367V7.2578125h-1.3007813L30.9169922,8.5200195z"/>
		<path class="st1" d="M36.6679688,11.4458008c-0.027832-0.0610352-0.0517578-0.1240234-0.0722656-0.1889648
			c-0.0205078-0.0644531-0.0366211-0.1298828-0.0478516-0.1953125c-0.1191406,0.1357422-0.2636719,0.2460938-0.434082,0.3300781
			c-0.1704102,0.0834961-0.3657227,0.1254883-0.5854492,0.1254883c-0.3632813,0-0.6523438-0.0981445-0.8662109-0.2939453
			c-0.2138672-0.1962891-0.3208008-0.4633789-0.3208008-0.8012695c0-0.3447266,0.1396484-0.6113281,0.418457-0.7998047
			c0.2792969-0.1879883,0.6884766-0.2822266,1.2285156-0.2822266h0.5112305V8.9794922
			c0-0.1772461-0.0512695-0.3144531-0.1542969-0.4121094c-0.1030273-0.097168-0.2548828-0.1459961-0.456543-0.1459961
			c-0.1142578,0-0.2158203,0.0131836-0.3051758,0.0390625s-0.1611328,0.0571289-0.2163086,0.09375l-0.0649414,0.3945313h-0.7548828
			l0.003418-0.8164063c0.1826172-0.1225586,0.3925781-0.2260742,0.6293945-0.3095703
			c0.2368164-0.0839844,0.4946289-0.1259766,0.7739258-0.1259766c0.4599609,0,0.8330078,0.1118164,1.1201172,0.3349609
			c0.2871094,0.2236328,0.4306641,0.5415039,0.4306641,0.9541016v1.5209961c0,0.0566406,0.0004883,0.1098633,0.0019531,0.159668
			c0.0009766,0.050293,0.0048828,0.0976563,0.0117188,0.1430664l0.3056641,0.0410156v0.5952148H36.6679688z M35.7998047,10.7822266
			c0.1508789,0,0.2880859-0.0322266,0.4116211-0.0966797c0.1235352-0.0649414,0.2197266-0.1459961,0.2880859-0.2431641V9.8808594
			h-0.5112305c-0.2128906,0-0.3740234,0.0493164-0.4838867,0.1479492s-0.1645508,0.2172852-0.1645508,0.3554688
			c0,0.125,0.0405273,0.222168,0.121582,0.2924805C35.5429688,10.7470703,35.6552734,10.7822266,35.7998047,10.7822266z"/>
		<path class="st1" d="M42.0136719,7.7646484v1.2553711h-0.7685547l-0.0410156-0.496582h-0.6347656v2.2250977l0.5317383,0.1020508
			v0.5952148h-2.0688477v-0.5952148l0.5317383-0.1020508V8.5234375h-0.6210938l-0.0375977,0.496582h-0.7685547V7.7646484H42.0136719
			z"/>
		<path class="st1" d="M44.34375,7.7646484v0.5952148l-0.4287109,0.1020508v0.4594727
			c0,0.2426758,0.0537109,0.4106445,0.1611328,0.503418c0.1074219,0.0932617,0.2890625,0.1396484,0.5449219,0.1396484
			c0.0849609,0,0.1689453-0.0043945,0.2529297-0.0136719c0.0830078-0.0087891,0.1679688-0.0224609,0.2548828-0.0410156V8.465332
			l-0.4316406-0.1020508V7.7646484h1.96875v0.5986328L46.1308594,8.465332v2.2832031l0.5351563,0.1020508v0.5952148H44.59375
			v-0.5952148l0.5351563-0.1020508v-0.4697266c-0.0839844,0.0180664-0.1708984,0.03125-0.2587891,0.0390625
			c-0.0878906,0.0083008-0.1708984,0.012207-0.2490234,0.012207c-0.546875,0-0.9677734-0.1157227-1.2636719-0.347168
			c-0.2963867-0.2314453-0.4443359-0.5849609-0.4443359-1.0615234V8.4619141l-0.5322266-0.1020508V7.7646484h1.5341797H44.34375z"/>
		<path class="st1" d="M49.2402344,7.7646484v0.5986328L48.7597656,8.465332V10l0.0205078,0.003418l1.2080078-2.2387695h1.0019531
			h0.5322266v0.5986328L50.9902344,8.465332v2.2832031l0.5322266,0.1020508v0.5952148h-2.0146484v-0.5952148l0.4804688-0.1020508
			V9.2070313l-0.0205078-0.003418l-1.2080078,2.2421875h-1.5371094v-0.5952148l0.5351563-0.1020508V8.465332l-0.5351563-0.1020508
			V7.7646484h1.5371094H49.2402344z"/>
		<path class="st1" d="M52.1054688,8.3632813V7.7646484h1.9902344v0.5986328L53.6396484,8.465332v0.7011719h0.3427734
			l0.5556641-0.8164063c0.1396484-0.2133789,0.2861328-0.3740234,0.4394531-0.4814453
			c0.1533203-0.1079102,0.34375-0.1616211,0.5732422-0.1616211c0.1142578,0,0.2167969,0.015625,0.3085938,0.0473633
			s0.1816406,0.074707,0.2714844,0.1293945l-0.1689453,0.6870117c-0.0683594-0.0180664-0.1113281-0.0292969-0.1279297-0.0336914
			c-0.0175781-0.0048828-0.0488281-0.0068359-0.0947266-0.0068359c-0.0683594,0-0.1416016,0.0258789-0.2177734,0.078125
			c-0.0771484,0.0522461-0.1425781,0.1181641-0.1972656,0.1972656L54.84375,9.5l0.8613281,1.2685547l0.5039063,0.0820313v0.5952148
			h-1.3759766l-0.8095703-1.3779297h-0.3837891v0.6806641l0.4560547,0.1020508v0.5952148h-1.9902344v-0.5952148l0.5351563-0.1020508
			V8.465332L52.1054688,8.3632813z"/>
		<path class="st1" d="M21.7241211,14.7646484v1.2553711h-0.7685547l-0.0410156-0.496582h-0.6347656v2.2250977l0.5317383,0.1020508
			v0.5952148h-2.0688477v-0.5952148l0.5317383-0.1020508v-2.2250977h-0.6210938l-0.0375977,0.496582H17.847168v-1.2553711
			H21.7241211z"/>
		<path class="st1" d="M23.9169922,18.5170898c-0.5351563,0-0.9628906-0.1699219-1.2832031-0.5102539
			s-0.4804688-0.7719727-0.4804688-1.2958984V16.574707c0-0.546875,0.1513672-0.9970703,0.4545898-1.3505859
			c0.3032227-0.3540039,0.7094727-0.5297852,1.2197266-0.5273438c0.5009766,0,0.8901367,0.1494141,1.1665039,0.4487305
			c0.2768555,0.2998047,0.4155273,0.7045898,0.4155273,1.2148438v0.5410156h-2.2167969l-0.0068359,0.0205078
			c0.0185547,0.2426758,0.1000977,0.4418945,0.2456055,0.5986328c0.1450195,0.15625,0.3422852,0.2348633,0.5917969,0.2348633
			c0.2216797,0,0.4057617-0.0224609,0.5522461-0.0664063c0.1464844-0.0444336,0.3066406-0.1142578,0.4804688-0.2094727
			l0.2709961,0.6123047c-0.1533203,0.1206055-0.3515625,0.2211914-0.5952148,0.3027344
			C24.4882813,18.4765625,24.2167969,18.5170898,23.9169922,18.5170898z M23.8276367,15.4619141
			c-0.1850586,0-0.331543,0.0703125-0.4389648,0.2109375c-0.1079102,0.1411133-0.1738281,0.3256836-0.1992188,0.5546875
			l0.0102539,0.0170898h1.2285156V16.15625c0-0.2109375-0.0498047-0.3793945-0.1494141-0.5053711
			S24.0288086,15.4619141,23.8276367,15.4619141z"/>
		<path class="st1" d="M28.7001953,17.2890625h0.0205078l0.9541016-2.5244141h1.2558594h0.5317383v0.5986328l-0.5317383,0.1020508
			v2.2832031l0.5317383,0.1020508v0.5952148h-1.9111328v-0.5952148l0.3774414-0.1020508v-1.4936523l-0.0205078-0.003418
			l-0.8613281,2.1943359h-0.6723633l-0.8408203-2.1533203l-0.0205078,0.003418v1.4526367l0.3808594,0.1020508v0.5952148h-1.9150391
			v-0.5952148l0.5356445-0.1020508V15.465332l-0.5356445-0.1020508v-0.5986328h0.5356445h1.2387695L28.7001953,17.2890625z"/>
		<path class="st1" d="M32.0112305,17.8505859l0.5356445-0.1020508V15.465332l-0.5356445-0.1020508v-0.5986328h4.2998047v0.5986328
			l-0.5322266,0.1020508v2.2832031l0.5322266,0.1020508v0.5952148h-1.9663086v-0.5952148l0.4321289-0.1020508v-2.2148438h-1.2314453
			v2.2148438l0.4321289,0.1020508v0.5952148h-1.9663086V17.8505859z"/>
		<path class="st1" d="M38.5756836,18.5170898c-0.5351563,0-0.9628906-0.1699219-1.2832031-0.5102539
			s-0.4804688-0.7719727-0.4804688-1.2958984V16.574707c0-0.546875,0.1513672-0.9970703,0.4545898-1.3505859
			c0.3032227-0.3540039,0.7094727-0.5297852,1.2197266-0.5273438c0.5009766,0,0.8901367,0.1494141,1.1665039,0.4487305
			c0.2768555,0.2998047,0.4155273,0.7045898,0.4155273,1.2148438v0.5410156h-2.2167969l-0.0068359,0.0205078
			c0.0185547,0.2426758,0.1000977,0.4418945,0.2456055,0.5986328c0.1450195,0.15625,0.3422852,0.2348633,0.5917969,0.2348633
			c0.2216797,0,0.4057617-0.0224609,0.5522461-0.0664063c0.1464844-0.0444336,0.3066406-0.1142578,0.4804688-0.2094727
			l0.2709961,0.6123047c-0.1533203,0.1206055-0.3515625,0.2211914-0.5952148,0.3027344
			C39.1469727,18.4765625,38.8754883,18.5170898,38.5756836,18.5170898z M38.4863281,15.4619141
			c-0.1850586,0-0.331543,0.0703125-0.4389648,0.2109375c-0.1079102,0.1411133-0.1738281,0.3256836-0.1992188,0.5546875
			l0.0102539,0.0170898h1.2285156V16.15625c0-0.2109375-0.0498047-0.3793945-0.1494141-0.5053711
			S38.6875,15.4619141,38.4863281,15.4619141z"/>
		<path class="st1" d="M40.4663086,15.3632813v-0.5986328h1.4550781l0.0478516,0.4287109
			c0.1098633-0.1586914,0.2412109-0.28125,0.3945313-0.3671875c0.1533203-0.0864258,0.331543-0.1293945,0.5356445-0.1293945
			c0.4594727,0,0.8164063,0.1777344,1.0703125,0.5341797c0.2539063,0.355957,0.3808594,0.8242188,0.3808594,1.4047852v0.0717773
			c0,0.5439453-0.1269531,0.9819336-0.3808594,1.3129883s-0.6083984,0.496582-1.0634766,0.496582
			c-0.1948242,0-0.3671875-0.0356445-0.5185547-0.1069336C42.2368164,18.3388672,42.1074219,18.2338867,42,18.0952148v1.0649414
			l0.4838867,0.1020508v0.5991211h-1.9658203V19.262207l0.4833984-0.1020508V15.465332L40.4663086,15.3632813z
			 M43.3486328,16.6357422c0-0.3466797-0.0581055-0.6279297-0.1748047-0.84375
			c-0.1166992-0.215332-0.2954102-0.3232422-0.5356445-0.3232422c-0.1508789,0-0.2792969,0.0307617-0.3857422,0.0922852
			C42.1459961,15.6220703,42.0620117,15.7094727,42,15.8227539v1.612793
			c0.0620117,0.1040039,0.1459961,0.1835938,0.2524414,0.237793c0.1064453,0.0546875,0.2373047,0.0820313,0.3925781,0.0820313
			c0.2426758,0,0.4204102-0.0942383,0.5336914-0.2827148c0.1132813-0.1879883,0.1699219-0.4433594,0.1699219-0.7651367V16.6357422z"
			/>
		<path class="st1" d="M47.1611328,18.4458008c-0.0283203-0.0610352-0.0517578-0.1240234-0.0722656-0.1889648
			c-0.0205078-0.0644531-0.0371094-0.1298828-0.0478516-0.1953125c-0.1191406,0.1357422-0.2636719,0.2460938-0.4345703,0.3300781
			c-0.1699219,0.0834961-0.3652344,0.1254883-0.5849609,0.1254883c-0.3632813,0-0.6523438-0.0981445-0.8662109-0.2939453
			c-0.2138672-0.1962891-0.3212891-0.4633789-0.3212891-0.8012695c0-0.3447266,0.1396484-0.6113281,0.4189453-0.7998047
			c0.2792969-0.1879883,0.6884766-0.2822266,1.2285156-0.2822266h0.5107422v-0.3603516
			c0-0.1772461-0.0507813-0.3144531-0.1542969-0.4121094c-0.1025391-0.097168-0.2548828-0.1459961-0.4560547-0.1459961
			c-0.1142578,0-0.2158203,0.0131836-0.3056641,0.0390625c-0.0888672,0.0258789-0.1611328,0.0571289-0.2158203,0.09375
			l-0.0654297,0.3945313h-0.7548828l0.0039063-0.8164063c0.1826172-0.1225586,0.3925781-0.2260742,0.6289063-0.3095703
			c0.2373047-0.0839844,0.4951172-0.1259766,0.7744141-0.1259766c0.4599609,0,0.8330078,0.1118164,1.1201172,0.3349609
			c0.2871094,0.2236328,0.4306641,0.5415039,0.4306641,0.9541016v1.5209961c0,0.0566406,0,0.1098633,0.0019531,0.159668
			c0.0009766,0.050293,0.0048828,0.0976563,0.0117188,0.1430664l0.3056641,0.0410156v0.5952148H47.1611328z M46.2929688,17.7822266
			c0.1503906,0,0.2880859-0.0322266,0.4111328-0.0966797c0.1240234-0.0649414,0.2197266-0.1459961,0.2880859-0.2431641v-0.5615234
			h-0.5107422c-0.2128906,0-0.3740234,0.0493164-0.484375,0.1479492c-0.109375,0.0986328-0.1640625,0.2172852-0.1640625,0.3554688
			c0,0.125,0.0400391,0.222168,0.1210938,0.2924805C46.0361328,17.7470703,46.1484375,17.7822266,46.2929688,17.7822266z"/>
		<path class="st1" d="M52.5068359,14.7646484v1.2553711h-0.7685547l-0.0410156-0.496582H51.0625v2.2250977l0.53125,0.1020508
			v0.5952148h-2.0683594v-0.5952148l0.53125-0.1020508v-2.2250977h-0.6210938l-0.0371094,0.496582h-0.7685547v-1.2553711H52.5068359
			z"/>
		<path class="st1" d="M56.7646484,15.3632813l-0.3457031,0.0512695l-1.3662109,3.5825195
			c-0.1074219,0.2651367-0.2509766,0.4873047-0.4306641,0.6665039s-0.4501953,0.269043-0.8115234,0.269043
			c-0.0849609,0-0.1640625-0.0068359-0.2382813-0.0205078s-0.1621094-0.0327148-0.2626953-0.0576172l0.1171875-0.7250977
			c0.03125,0.0048828,0.0644531,0.0092773,0.0996094,0.0136719c0.0341797,0.0048828,0.0634766,0.0068359,0.0888672,0.0068359
			c0.1669922,0,0.2949219-0.0400391,0.3837891-0.1206055c0.0898438-0.0805664,0.1582031-0.1811523,0.2060547-0.3012695
			l0.1132813-0.2788086l-1.1767578-3.03125l-0.3466797-0.0546875v-0.5986328h1.8183594v0.5986328l-0.4150391,0.0683594
			l0.5078125,1.4697266l0.0517578,0.2651367l0.0205078,0.003418l0.5869141-1.7382813l-0.4189453-0.0683594v-0.5986328h1.8183594
			V15.3632813z"/>
		<path class="st1" d="M57.0048828,15.3632813v-0.5986328h1.4550781l0.0478516,0.4287109
			c0.1103516-0.1586914,0.2412109-0.28125,0.3945313-0.3671875c0.1533203-0.0864258,0.3320313-0.1293945,0.5361328-0.1293945
			c0.4589844,0,0.8164063,0.1777344,1.0703125,0.5341797c0.2539063,0.355957,0.3808594,0.8242188,0.3808594,1.4047852v0.0717773
			c0,0.5439453-0.1269531,0.9819336-0.3808594,1.3129883s-0.6083984,0.496582-1.0634766,0.496582
			c-0.1953125,0-0.3671875-0.0356445-0.5185547-0.1069336s-0.2802734-0.1762695-0.3876953-0.3149414v1.0649414l0.4833984,0.1020508
			v0.5991211h-1.9658203V19.262207l0.4833984-0.1020508V15.465332L57.0048828,15.3632813z M59.8876953,16.6357422
			c0-0.3466797-0.0585938-0.6279297-0.1748047-0.84375c-0.1171875-0.215332-0.2958984-0.3232422-0.5361328-0.3232422
			c-0.1503906,0-0.2792969,0.0307617-0.3857422,0.0922852c-0.1064453,0.0610352-0.1904297,0.1484375-0.2519531,0.2617188v1.612793
			c0.0615234,0.1040039,0.1455078,0.1835938,0.2519531,0.237793c0.1064453,0.0546875,0.2373047,0.0820313,0.3925781,0.0820313
			c0.2431641,0,0.4208984-0.0942383,0.5341797-0.2827148c0.1132813-0.1879883,0.1699219-0.4433594,0.1699219-0.7651367V16.6357422z"
			/>
		<path class="st1" d="M62.96875,14.7646484v1.1875h0.6962891c0.5039063,0,0.8974609,0.1118164,1.1826172,0.3349609
			c0.2841797,0.2236328,0.4267578,0.5209961,0.4267578,0.8930664c0,0.3808594-0.1425781,0.6875-0.4287109,0.918457
			c-0.2861328,0.2314453-0.6796875,0.347168-1.1806641,0.347168h-2.2333984v-0.5952148l0.5351563-0.1020508V15.465332
			l-0.5351563-0.1020508v-0.5986328h0.5351563H62.96875z M63.5039063,14.7646484v0.5986328L62.96875,15.465332v-0.7006836
			H63.5039063z M62.96875,16.6699219v1.0170898h0.6962891c0.2060547,0,0.359375-0.0458984,0.4599609-0.1376953
			s0.1513672-0.2124023,0.1513672-0.3623047c0-0.1542969-0.0498047-0.2788086-0.1494141-0.3740234
			c-0.0996094-0.0957031-0.2529297-0.1430664-0.4619141-0.1430664H62.96875z M65.2851563,15.3632813v-0.5986328h1.5371094v2.9838867
			l0.4804688,0.1020508v0.5952148h-1.9667969v-0.5952148l0.484375-0.1020508V15.465332L65.2851563,15.3632813z"/>
	</g>
	<g id="Креп._отверстия">
		<path class="st2" d="M75.118103,3.9458008c-3.300293,0-5.9754028,2.6751709-5.9754028,5.9754639
			c0,3.3002319,2.6751099,5.9754028,5.9754028,5.9754028s5.9754639-2.6751709,5.9754639-5.9754028
			C81.0935669,6.6209717,78.418396,3.9458008,75.118103,3.9458008z M75.1191406,14.3149414
			c-2.4279175,0-4.3947144-1.9667969-4.3947144-4.3927002c0-2.4279175,1.9667969-4.3947144,4.3947144-4.3947144
			c2.4258423,0,4.3927002,1.9667969,4.3927002,4.3947144C79.5118408,12.3481445,77.5449829,14.3149414,75.1191406,14.3149414z"/>
		<path class="st2" d="M75.118103,69.1426392c-3.2987671,0-5.9754028,2.6751709-5.9754028,5.9754639
			s2.6766357,5.9754028,5.9754028,5.9754028c3.300293,0,5.9754639-2.6751099,5.9754639-5.9754028
			S78.418396,69.1426392,75.118103,69.1426392z M75.1170654,79.5117798c-2.4258423,0-4.3926392-1.968811-4.3926392-4.3947144
			c0-2.4258423,1.9667969-4.3927002,4.3926392-4.3927002c2.4279175,0,4.3947754,1.9668579,4.3947754,4.3927002
			C79.5118408,77.5429688,77.5449829,79.5117798,75.1170654,79.5117798z"/>
		<path class="st2" d="M9.9212646,69.1426392c-3.300293,0-5.9754639,2.6751709-5.9754639,5.9754639
			s2.6751709,5.9754028,5.9754639,5.9754028s5.9754028-2.6751099,5.9754028-5.9754028S13.2215576,69.1426392,9.9212646,69.1426392z
			 M9.9212646,79.5117798c-2.4264526,0-4.3936768-1.9667969-4.3936768-4.3926392
			c0-2.4279175,1.9672241-4.3947754,4.3936768-4.3947754s4.3936768,1.9668579,4.3936768,4.3947754
			C14.3149414,77.5449829,12.3477173,79.5117798,9.9212646,79.5117798z"/>
		<path class="st2" d="M9.9212646,3.9458008c-3.2877808,0-5.9527588,2.6751709-5.9527588,5.9754639
			c0,3.3002319,2.664978,5.9754028,5.9527588,5.9754028c3.2877197,0,5.9527588-2.6751709,5.9527588-5.9754028
			C15.8740234,6.6209717,13.2089844,3.9458008,9.9212646,3.9458008z M9.9223022,14.3149414
			c-2.4279175,0-4.3947144-1.9667969-4.3947144-4.3927002c0-2.4279175,1.9667969-4.3947144,4.3947144-4.3947144
			c2.4258423,0,4.3926392,1.9667969,4.3926392,4.3947144C14.3149414,12.3481445,12.3481445,14.3149414,9.9223022,14.3149414z"/>
	</g>
	<g id="Колодка_3pin">
		<path class="st3" d="M30.3319798,74.9196854c0,1.2273636-1.0018463,2.2224731-2.2397385,2.2224731
			c-1.2378941,0-2.2415428-0.9951096-2.2415428-2.2224731s1.0036488-2.2224731,2.2415428-2.2224731
			C29.3301334,72.6972122,30.3319798,73.6923218,30.3319798,74.9196854z"/>
		<g>
			<path class="st1" d="M35.7827148,80.0625c0.3588867,0,0.640625,0.0810547,0.8447266,0.2441406
				c0.2045898,0.1630859,0.3066406,0.3876953,0.3066406,0.6748047c0,0.1582031-0.0429688,0.2958984-0.128418,0.4121094
				s-0.2104492,0.2099609-0.3754883,0.2822266c0.1865234,0.0546875,0.3208008,0.1455078,0.402832,0.2724609
				c0.081543,0.1269531,0.1225586,0.2841797,0.1225586,0.4726563v0.1591797c0,0.0693359,0.0136719,0.1220703,0.0415039,0.1601563
				c0.0273438,0.0380859,0.0732422,0.0605469,0.1367188,0.0683594l0.078125,0.0107422v0.3789063h-0.328125
				c-0.2070313,0-0.3525391-0.0556641-0.4365234-0.1660156s-0.1259766-0.2529297-0.1259766-0.4287109v-0.1787109
				c0-0.1523438-0.0410156-0.2714844-0.1225586-0.3583984c-0.0820313-0.0869141-0.1972656-0.1328125-0.3466797-0.1367188h-0.519043
				v0.8271484l0.3388672,0.0644531v0.3769531h-1.3100586v-0.3769531l0.3369141-0.0644531v-2.2509766l-0.3369141-0.0644531V80.0625
				h0.3369141H35.7827148z M35.3330078,81.4453125h0.4389648c0.1762695,0,0.309082-0.0380859,0.3974609-0.1123047
				s0.1323242-0.1826172,0.1323242-0.3232422s-0.0439453-0.2529297-0.1313477-0.3369141
				c-0.0878906-0.0839844-0.2167969-0.1259766-0.3876953-0.1259766h-0.449707V81.4453125z"/>
			<path class="st1" d="M38.6933594,80.0625v0.3789063l-0.3388672,0.0644531v1.6367188
				c0,0.2070313,0.0561523,0.3613281,0.168457,0.4648438c0.1123047,0.1025391,0.2661133,0.1533203,0.4614258,0.1533203
				c0.1987305,0,0.3544922-0.0507813,0.4672852-0.1523438c0.112793-0.1025391,0.1694336-0.2578125,0.1694336-0.4658203v-1.6367188
				l-0.3369141-0.0644531V80.0625h1.3100586v0.3789063l-0.3388672,0.0644531v1.6367188
				c0,0.3525391-0.1166992,0.6230469-0.3505859,0.8144531s-0.5410156,0.2861328-0.9204102,0.2861328
				c-0.3779297,0-0.6831055-0.0947266-0.9155273-0.2861328s-0.3486328-0.4619141-0.3486328-0.8144531v-1.6367188
				l-0.3364258-0.0644531V80.0625h0.3364258h0.6342773H38.6933594z"/>
			<path class="st1" d="M43.184082,81.0634766h-0.4760742l-0.0825195-0.4306641
				c-0.0546875-0.0341797-0.1352539-0.0644531-0.2407227-0.0898438c-0.105957-0.0263672-0.2182617-0.0390625-0.3369141-0.0390625
				c-0.1738281,0-0.3081055,0.0361328-0.402832,0.1083984c-0.0952148,0.0722656-0.1425781,0.1660156-0.1425781,0.28125
				c0,0.1064453,0.0498047,0.1933594,0.1489258,0.2617188s0.2705078,0.140625,0.5136719,0.2167969
				c0.3491211,0.0957031,0.6137695,0.2226563,0.7939453,0.3808594c0.1806641,0.1582031,0.2705078,0.3652344,0.2705078,0.6220703
				c0,0.2685547-0.1069336,0.4804688-0.3212891,0.6357422s-0.4970703,0.2324219-0.847168,0.2324219
				c-0.2509766,0-0.4770508-0.0390625-0.6791992-0.1181641c-0.2016602-0.0791016-0.3701172-0.1884766-0.5048828-0.3271484
				v-0.6552734h0.4907227l0.0673828,0.4462891c0.0639648,0.0517578,0.1503906,0.0947266,0.2597656,0.1279297
				c0.109375,0.0341797,0.2314453,0.0507813,0.3662109,0.0507813c0.1738281,0,0.3056641-0.0351563,0.3964844-0.1054688
				c0.090332-0.0703125,0.1357422-0.1650391,0.1357422-0.2822266c0-0.1210938-0.043457-0.2177734-0.1293945-0.2910156
				c-0.0864258-0.0732422-0.2373047-0.1416016-0.453125-0.2070313c-0.375-0.1074219-0.6586914-0.2353516-0.8515625-0.3828125
				c-0.1923828-0.1484375-0.2885742-0.3505859-0.2885742-0.6074219c0-0.2539063,0.1083984-0.4619141,0.3256836-0.6240234
				c0.2172852-0.1611328,0.4902344-0.2441406,0.8188477-0.2480469c0.2431641,0,0.4648438,0.0361328,0.6650391,0.109375
				c0.199707,0.0732422,0.3676758,0.1708984,0.5039063,0.2929688V81.0634766z"/>
			<path class="st1" d="M45.8818359,81.0634766h-0.4746094l-0.0839844-0.4306641
				c-0.0546875-0.0341797-0.1347656-0.0644531-0.2402344-0.0898438c-0.1054688-0.0263672-0.21875-0.0390625-0.3378906-0.0390625
				c-0.1738281,0-0.3066406,0.0361328-0.4023438,0.1083984c-0.0947266,0.0722656-0.1425781,0.1660156-0.1425781,0.28125
				c0,0.1064453,0.0507813,0.1933594,0.1494141,0.2617188s0.2705078,0.140625,0.5146484,0.2167969
				c0.3476563,0.0957031,0.6132813,0.2226563,0.7929688,0.3808594s0.2714844,0.3652344,0.2714844,0.6220703
				c0,0.2685547-0.1074219,0.4804688-0.3222656,0.6357422s-0.4960938,0.2324219-0.8476563,0.2324219
				c-0.25,0-0.4765625-0.0390625-0.6787109-0.1181641c-0.2016602-0.0791016-0.3701172-0.1884766-0.5048828-0.3271484v-0.6552734
				h0.4902344l0.0673828,0.4462891c0.0644531,0.0517578,0.1513672,0.0947266,0.2607422,0.1279297
				c0.109375,0.0341797,0.2304688,0.0507813,0.3652344,0.0507813c0.1738281,0,0.3066406-0.0351563,0.3964844-0.1054688
				s0.1367188-0.1650391,0.1367188-0.2822266c0-0.1210938-0.0429688-0.2177734-0.1308594-0.2910156
				c-0.0859375-0.0732422-0.2363281-0.1416016-0.4511719-0.2070313c-0.3759766-0.1074219-0.6601563-0.2353516-0.8525391-0.3828125
				c-0.1923828-0.1484375-0.2885742-0.3505859-0.2885742-0.6074219c0-0.2539063,0.1083984-0.4619141,0.3256836-0.6240234
				c0.2167969-0.1611328,0.4892578-0.2441406,0.8193359-0.2480469c0.2421875,0,0.4648438,0.0361328,0.6640625,0.109375
				s0.3671875,0.1708984,0.5039063,0.2929688V81.0634766z"/>
			<path class="st1" d="M46.1748047,80.4414063V80.0625h1.3105469v0.3789063l-0.3388672,0.0644531v2.2509766l0.3388672,0.0644531
				v0.3769531h-1.3105469v-0.3769531l0.3388672-0.0644531v-2.2509766L46.1748047,80.4414063z"/>
			<path class="st1" d="M47.6933594,82.8212891l0.2265625-0.0322266L48.8818359,80.0625H49.53125l0.9560547,2.7265625
				l0.2255859,0.0322266v0.3769531h-1.0771484v-0.3769531l0.2197266-0.0390625l-0.1396484-0.4306641h-1.0253906
				l-0.1386719,0.4306641l0.2197266,0.0390625v0.3769531h-1.078125V82.8212891z M48.8408203,81.8886719h0.7255859
				l-0.3564453-1.1044922h-0.0126953L48.8408203,81.8886719z"/>
		</g>
		<ellipse class="st4" cx="28.0913391" cy="74.9196854" rx="1.5316002" ry="1.5185714"/>
		<rect x="18.083334" y="62.2946739" class="st1" width="12.2486458" height="5.1219912"/>
		<g>
			<path class="st5" d="M19.1586914,65.9560547l0.4702148-0.0585938v-2.2587891l-0.4785156,0.0087891v-0.2548828
				l0.8896484-0.1904297v2.6953125l0.4677734,0.0585938v0.2607422h-1.3491211V65.9560547z"/>
			<path class="st5" d="M21.6567383,64.2392578l-0.2587891,0.0458984l0.2944336,1.1162109l0.0478516,0.2705078h0.0126953
				l0.0581055-0.2705078l0.4511719-1.4248047h0.3300781l0.453125,1.4248047l0.0644531,0.3017578h0.0126953l0.0605469-0.3017578
				l0.277832-1.1162109l-0.2631836-0.0458984v-0.2626953h0.8608398v0.2626953l-0.1967773,0.0292969l-0.5698242,1.9482422h-0.3320313
				l-0.4389648-1.3642578l-0.09375-0.3769531l-0.0126953,0.0019531l-0.0874023,0.375l-0.4301758,1.3642578h-0.3320313
				l-0.5703125-1.9482422l-0.1982422-0.0292969v-0.2626953h0.8603516V64.2392578z"/>
			<path class="st5" d="M24.3896484,65.9560547l0.3408203-0.0585938v-1.5996094l-0.3408203-0.0585938v-0.2626953h0.7519531
				v1.9208984l0.3408203,0.0585938v0.2607422h-1.0927734V65.9560547z M25.1416016,63.4033203h-0.4111328v-0.4160156h0.4111328
				V63.4033203z"/>
			<path class="st5" d="M25.7949219,64.2392578v-0.2626953h0.7080078l0.0400391,0.3251953
				c0.0634766-0.1142578,0.1425781-0.2041016,0.2373047-0.2695313c0.09375-0.0644531,0.2011719-0.0966797,0.3222656-0.0966797
				c0.0322266,0,0.0654297,0.0019531,0.0986328,0.0068359c0.0341797,0.0048828,0.0605469,0.0097656,0.0791016,0.015625
				l-0.0546875,0.3789063l-0.2333984-0.0126953c-0.109375,0-0.2001953,0.0253906-0.2744141,0.0761719
				c-0.0732422,0.0498047-0.1308594,0.1210938-0.1708984,0.2119141v1.2851563l0.3408203,0.0585938v0.2607422h-1.0927734v-0.2607422
				l0.3408203-0.0585938v-1.5996094L25.7949219,64.2392578z"/>
			<path class="st5" d="M28.5957031,66.2607422c-0.3154297,0-0.5654297-0.1044922-0.7509766-0.3125
				c-0.1855469-0.2070313-0.2792969-0.4765625-0.2792969-0.8076172v-0.0917969c0-0.3183594,0.0957031-0.5839844,0.2871094-0.7958984
				s0.4179688-0.3173828,0.6806641-0.3173828c0.3027344,0,0.5332031,0.0908203,0.6894531,0.2724609
				c0.1572266,0.1826172,0.2353516,0.4257813,0.2353516,0.7294922v0.2548828h-1.4658203l-0.0068359,0.0097656
				c0.0048828,0.2158203,0.0595703,0.3925781,0.1650391,0.53125c0.1064453,0.1386719,0.2539063,0.2080078,0.4453125,0.2080078
				c0.1386719,0,0.2607422-0.0195313,0.3662109-0.0585938c0.1054688-0.0400391,0.1962891-0.09375,0.2724609-0.1630859
				l0.1611328,0.265625c-0.0810547,0.0771484-0.1875,0.1425781-0.3212891,0.1953125
				C28.9414063,66.2333984,28.7822266,66.2607422,28.5957031,66.2607422z M28.5332031,64.2558594
				c-0.1386719,0-0.2558594,0.0576172-0.3535156,0.1728516S28.0224609,64.6884766,28,64.8623047l0.0048828,0.0107422h1.0419922
				v-0.0537109c0-0.1601563-0.0439453-0.2939453-0.1298828-0.4013672
				C28.8310547,64.3095703,28.7021484,64.2558594,28.5332031,64.2558594z"/>
		</g>
		<path class="st6" d="M31.7867851,78.7455444c-0.0916157-0.0002213-0.1396866-0.0003281-0.1396866-0.0003281l-0.0403233-16.0148048
			c0,0-0.0000687-0.027298-0.0001373-0.0545959c0.0282974,0.0000687,0.0565948,0.0001335,0.0565948,0.0001335l21.6945553,0.0509148
			c0,0,0.0124245,0.0000305,0.034481,0.0000839c0.0054665,2.1701012,0.0395927,15.7233009,0.0395927,15.7233009
			s0.0004349,0.1730499,0.0008698,0.3460922c-0.045536-0.0001068-0.0910759-0.0002136-0.0910759-0.0002136
			S33.6414413,78.7498932,31.7867851,78.7455444z"/>
		<line class="st6" x1="46.1338272" y1="62.7099113" x2="46.1338272" y2="78.7793274"/>
		<line class="st6" x1="38.8972855" y1="62.6758156" x2="38.8972855" y2="78.7623215"/>
		<path class="st6" d="M45.5896072,66.8795929"/>
		<path class="st6" d="M45.5445595,49.0140495"/>
		<path class="st3" d="M37.5603256,74.9196854c0,1.2273636-1.0018463,2.2224731-2.2397385,2.2224731
			s-2.2415428-0.9951096-2.2415428-2.2224731s1.0036507-2.2224731,2.2415428-2.2224731S37.5603256,73.6923218,37.5603256,74.9196854
			z"/>
		<ellipse class="st4" cx="35.3196869" cy="74.9196854" rx="1.5316002" ry="1.5185714"/>
		<path class="st3" d="M44.7603264,74.9196854c0,1.2273636-1.0018463,2.2224731-2.2397385,2.2224731
			s-2.2415428-0.9951096-2.2415428-2.2224731s1.0036507-2.2224731,2.2415428-2.2224731S44.7603264,73.6923218,44.7603264,74.9196854
			z"/>
		<ellipse class="st4" cx="42.5196838" cy="74.9196854" rx="1.5316002" ry="1.5185714"/>
		<path class="st3" d="M51.3477554,73.2907639c1.5395126,2.0229111-0.1709862,4.2713013-2.1831703,3.7840042
			c-0.7743721-0.1875381-1.4096413-0.8210831-1.5987854-1.5950623
			C47.0742073,73.4680786,49.3232689,71.7503662,51.3477554,73.2907639z"/>
		<ellipse class="st4" cx="49.7196846" cy="74.9196854" rx="1.5316002" ry="1.5185714"/>
		<path class="st3" d="M58.5477562,73.2907639c1.5395088,2.0229111-0.1709862,4.2713089-2.1831703,3.7840042
			c-0.7743721-0.1875381-1.4096413-0.8210831-1.5987854-1.5950623
			C54.2742043,73.4680786,56.5232697,71.7503662,58.5477562,73.2907639z"/>
		<ellipse class="st4" cx="56.9196854" cy="74.9196854" rx="1.5316002" ry="1.5185714"/>
		<g>
			<path class="st1" d="M37.7871094,69.3886719c-0.152832,0.1582031-0.3779297,0.3076172-0.6757813,0.4482422
				s-0.6845703,0.2109375-1.1611328,0.2109375c-0.6958008,0-1.2631836-0.2421875-1.7026367-0.7265625
				c-0.4394531-0.4833984-0.6591797-1.1123047-0.6591797-1.8847656v-0.0849609c0-0.7763672,0.2172852-1.40625,0.6518555-1.8876953
				c0.4345703-0.4824219,1.0131836-0.7236328,1.7348633-0.7236328c0.3862305,0,0.7246094,0.0605469,1.0166016,0.1796875
				s0.5380859,0.2763672,0.737793,0.4726563v0.9355469h-0.4931641l-0.1713867-0.7119141
				c-0.1166992-0.0947266-0.2578125-0.1728516-0.4233398-0.234375s-0.3637695-0.0917969-0.5952148-0.0917969
				c-0.5620117,0-0.9951172,0.1904297-1.2988281,0.5722656c-0.3037109,0.3808594-0.4555664,0.875-0.4555664,1.4824219v0.0917969
				c0,0.6171875,0.1469727,1.1152344,0.4414063,1.4951172c0.2944336,0.3808594,0.699707,0.5703125,1.2167969,0.5703125
				c0.2832031,0,0.515625-0.0292969,0.6967773-0.0878906c0.1811523-0.0595703,0.3261719-0.1240234,0.4360352-0.1953125v-1.1298828
				l-0.8540039-0.0351563v-0.5136719h1.5581055V69.3886719z"/>
		</g>
		<g>
			<path class="st1" d="M41.7045898,65.375l-0.4750977,0.0751953l1.1650391,3.3515625l0.1176758,0.4072266h0.0214844
				l0.1181641-0.4072266l1.1611328-3.3554688L43.3447266,65.375v-0.4492188h1.640625V65.375l-0.4179688,0.0566406
				l-1.7441406,4.6523438h-0.6040039l-1.7436523-4.6523438L40.0610352,65.375v-0.4492188h1.6435547V65.375z"/>
		</g>
		<g>
			<path class="st1" d="M50.1689453,64.9257813c0.6787109,0,1.2246094,0.2070313,1.6376953,0.6210938
				c0.4140625,0.4150391,0.6201172,0.9501953,0.6201172,1.6074219v0.7050781c0,0.6582031-0.2060547,1.1943359-0.6201172,1.6064453
				c-0.4130859,0.4121094-0.9589844,0.6181641-1.6376953,0.6181641h-2.1796875v-0.4462891l0.5820313-0.0996094v-4.0634766
				L47.9892578,65.375v-0.4492188h0.5820313H50.1689453z M49.2753906,65.4746094v4.0634766h0.8935547
				c0.4804688,0,0.8603516-0.1572266,1.1376953-0.4707031c0.2773438-0.3144531,0.4160156-0.7167969,0.4160156-1.2080078v-0.7128906
				c0-0.4863281-0.1386719-0.8867188-0.4160156-1.2011719c-0.2773438-0.3134766-0.6572266-0.4707031-1.1376953-0.4707031H49.2753906
				z"/>
		</g>
	</g>
</g>
<g id="PCA9306">
	<g id="XMLID_4_">
		<g>
			<rect x="38.3017616" y="26.1548119" class="st7" width="8.4358463" height="8.9076891"/>
		</g>
		<g>
		</g>
	</g>
	<g id="XMLID_12_">
		<g>
			<rect x="46.7376099" y="27.4367809" class="st2" width="2.590517" height="1.0937506"/>
		</g>
		<g>
		</g>
	</g>
	<g id="XMLID_5_">
		<g>
			<rect x="46.7376099" y="29.1867809" class="st2" width="2.590517" height="1.0937506"/>
		</g>
		<g>
		</g>
	</g>
	<g id="XMLID_6_">
		<g>
			<rect x="46.7376099" y="30.9367809" class="st2" width="2.590517" height="1.0937506"/>
		</g>
		<g>
		</g>
	</g>
	<g id="XMLID_7_">
		<g>
			<rect x="46.7376099" y="32.686779" class="st2" width="2.590517" height="1.0937506"/>
		</g>
		<g>
		</g>
	</g>
	<g>
		<path class="st8" d="M40.8408203,32.84375c0.1586914,0,0.3022461,0.0341797,0.4311523,0.1035156
			c0.1289063,0.0683594,0.2290039,0.1591797,0.2998047,0.2734375c0.0493164,0.0791016,0.0849609,0.1669922,0.1069336,0.2636719
			c0.0219727,0.0976563,0.0327148,0.2255859,0.0327148,0.3847656v0.4365234h-1.7451172v-0.4326172
			c0-0.1679688,0.0126953-0.3027344,0.0371094-0.4023438s0.0585938-0.1835938,0.1015625-0.2529297
			c0.0742188-0.1171875,0.1728516-0.2089844,0.2963867-0.2753906C40.5249023,32.8769531,40.6713867,32.84375,40.8408203,32.84375z
			 M40.8374023,33.0849609c-0.1367188,0-0.2519531,0.0234375-0.3457031,0.0703125
			c-0.09375,0.0478516-0.1679688,0.1181641-0.2216797,0.2119141c-0.0390625,0.0683594-0.0664063,0.140625-0.081543,0.2167969
			c-0.0151367,0.0771484-0.0229492,0.1689453-0.0229492,0.2753906v0.2158203h1.3466797V33.859375
			c0-0.1103516-0.0083008-0.2070313-0.0244141-0.2900391c-0.0166016-0.0820313-0.046875-0.1582031-0.0917969-0.2265625
			c-0.0551758-0.0859375-0.128418-0.1503906-0.21875-0.1933594C41.0864258,33.1064453,40.9731445,33.0849609,40.8374023,33.0849609z
			"/>
		<path class="st8" d="M41.2133789,31.2158203c0.0678711,0,0.1352539,0.015625,0.2016602,0.046875
			s0.1225586,0.0751953,0.168457,0.1318359c0.050293,0.0615234,0.0893555,0.1337891,0.1171875,0.2167969
			c0.0283203,0.0820313,0.0424805,0.1816406,0.0424805,0.2978516c0,0.125-0.0117188,0.2373047-0.0351563,0.3359375
			c-0.0234375,0.0996094-0.0581055,0.2011719-0.1044922,0.3046875h-0.2905273v-0.0166016
			c0.0732422-0.0878906,0.1298828-0.1884766,0.1699219-0.3037109c0.0400391-0.1142578,0.0595703-0.2216797,0.0595703-0.3222656
			c0-0.1425781-0.0268555-0.2539063-0.0805664-0.3330078c-0.0541992-0.0800781-0.1259766-0.1191406-0.2158203-0.1191406
			c-0.0771484,0-0.1342773,0.0185547-0.1708984,0.0556641c-0.0366211,0.0380859-0.0654297,0.0947266-0.0854492,0.171875
			c-0.015625,0.0576172-0.0288086,0.1210938-0.0390625,0.1884766c-0.0097656,0.0683594-0.0229492,0.1396484-0.0385742,0.2158203
			c-0.0327148,0.1533203-0.0888672,0.2666016-0.1679688,0.3408203c-0.0795898,0.0742188-0.1826172,0.1113281-0.3100586,0.1113281
			c-0.1459961,0-0.265625-0.0615234-0.359375-0.1835938c-0.0932617-0.1220703-0.1396484-0.2773438-0.1396484-0.4658203
			c0-0.1220703,0.0117188-0.2333984,0.0351563-0.3349609s0.0522461-0.1914063,0.0864258-0.2695313h0.2744141v0.0166016
			c-0.0561523,0.0654297-0.1030273,0.1523438-0.1401367,0.2597656s-0.0556641,0.2167969-0.0556641,0.3291016
			c0,0.1230469,0.0258789,0.2216797,0.0771484,0.296875c0.0517578,0.0751953,0.1181641,0.1123047,0.1992188,0.1123047
			c0.0727539,0,0.1298828-0.0185547,0.1713867-0.0556641s0.0727539-0.1025391,0.0947266-0.1962891
			c0.0112305-0.0498047,0.0244141-0.1201172,0.0400391-0.2119141s0.0317383-0.1689453,0.0478516-0.2324219
			c0.034668-0.1289063,0.0864258-0.2255859,0.1557617-0.2900391C40.9912109,31.2480469,41.0883789,31.2158203,41.2133789,31.2158203
			z"/>
		<path class="st8" d="M44.7119141,33.2783203v0.9365234h-0.1787109v-0.3603516h-1.1694336v0.3603516h-0.1591797
			c0-0.0488281-0.0043945-0.1005859-0.0126953-0.15625c-0.0078125-0.0556641-0.0200195-0.0986328-0.0356445-0.1269531
			c-0.0195313-0.0361328-0.0444336-0.0634766-0.0742188-0.0839844c-0.0302734-0.0205078-0.0708008-0.0322266-0.121582-0.0361328
			v-0.1796875h1.5727539v-0.3535156H44.7119141z"/>
		<path class="st8" d="M44.2255859,31.6542969c0.1503906,0,0.2763672,0.0585938,0.3759766,0.1748047
			c0.0996094,0.1171875,0.1503906,0.2636719,0.1503906,0.4394531c0,0.1875-0.0488281,0.3369141-0.1464844,0.4482422
			s-0.2226563,0.1669922-0.375,0.1669922c-0.0976563,0-0.1845703-0.0283203-0.2636719-0.0839844
			c-0.0786133-0.0556641-0.1411133-0.1337891-0.1870117-0.2353516h-0.0068359
			c-0.050293,0.0927734-0.1049805,0.1611328-0.1640625,0.2060547c-0.0595703,0.0439453-0.1337891,0.0664063-0.2226563,0.0664063
			c-0.1313477,0-0.2407227-0.0527344-0.328125-0.1601563c-0.0878906-0.1064453-0.1313477-0.2431641-0.1313477-0.4082031
			c0-0.171875,0.0415039-0.3105469,0.1254883-0.4130859c0.0834961-0.1035156,0.1894531-0.1542969,0.3183594-0.1542969
			c0.0791016,0,0.1567383,0.0244141,0.2329102,0.0732422s0.1357422,0.1201172,0.1787109,0.2148438h0.0068359
			c0.046875-0.1083984,0.1049805-0.1914063,0.1733398-0.2490234C44.03125,31.6826172,44.1191406,31.6542969,44.2255859,31.6542969z
			 M43.3730469,31.9296875c-0.0834961,0-0.1499023,0.0322266-0.199707,0.0957031
			c-0.0498047,0.0644531-0.0742188,0.1455078-0.0742188,0.2451172c0,0.0976563,0.0234375,0.1767578,0.0703125,0.2392578
			s0.1098633,0.09375,0.1894531,0.09375c0.0566406,0,0.1049805-0.015625,0.1459961-0.046875
			s0.0776367-0.0791016,0.1098633-0.1425781c0.0136719-0.0283203,0.0322266-0.0693359,0.0546875-0.1240234
			c0.0229492-0.0537109,0.0415039-0.1054688,0.0566406-0.1572266c-0.0517578-0.0761719-0.1054688-0.1298828-0.1606445-0.1591797
			C43.5097656,31.9443359,43.4458008,31.9296875,43.3730469,31.9296875z M44.2480469,31.8935547
			c-0.0722656,0-0.1298828,0.015625-0.1728516,0.046875c-0.0439453,0.03125-0.0874023,0.0927734-0.1313477,0.1845703
			c-0.0170898,0.0361328-0.0332031,0.0761719-0.0478516,0.1191406c-0.0151367,0.0439453-0.0356445,0.1015625-0.0625,0.1738281
			c0.0385742,0.0693359,0.090332,0.125,0.15625,0.1679688c0.065918,0.0419922,0.1401367,0.0634766,0.2231445,0.0634766
			c0.1054688,0,0.1923828-0.0361328,0.2607422-0.1083984c0.0693359-0.0722656,0.1035156-0.1630859,0.1035156-0.2744141
			c0-0.1132813-0.0292969-0.203125-0.0878906-0.2714844C44.4306641,31.9277344,44.3496094,31.8935547,44.2480469,31.8935547z"/>
		<path class="st8" d="M44.1748047,29.9755859c0.0869141,0,0.1630859,0.0161133,0.2294922,0.0488281
			c0.0664063,0.0322266,0.1210938,0.0761719,0.1640625,0.1313477c0.0517578,0.0649414,0.0888672,0.1362305,0.1103516,0.2143555
			c0.0224609,0.0776367,0.0332031,0.1767578,0.0332031,0.296875v0.6132813h-1.7456055v-0.5126953
			c0-0.1259766,0.0048828-0.2207031,0.0141602-0.2832031s0.0288086-0.1225586,0.0585938-0.1801758
			c0.0336914-0.0634766,0.0766602-0.109375,0.1293945-0.1381836s0.1162109-0.0429688,0.1894531-0.0429688
			c0.0830078,0,0.1533203,0.0209961,0.2114258,0.0629883c0.0581055,0.0415039,0.1049805,0.097168,0.1401367,0.1669922H43.71875
			c0.0244141-0.1166992,0.0761719-0.2089844,0.1552734-0.2763672
			C43.9536133,30.0092773,44.0537109,29.9755859,44.1748047,29.9755859z M43.3881836,30.3623047
			c-0.0419922,0-0.0776367,0.0068359-0.1064453,0.0209961s-0.0522461,0.0366211-0.0703125,0.0673828
			c-0.0209961,0.0366211-0.0341797,0.0805664-0.0390625,0.1323242c-0.0053711,0.0517578-0.0078125,0.1162109-0.0078125,0.1933594
			v0.2734375h0.5039063v-0.296875c0-0.0722656-0.0039063-0.1298828-0.0112305-0.171875
			c-0.0073242-0.0429688-0.0229492-0.0825195-0.0463867-0.1186523c-0.0234375-0.0366211-0.0537109-0.0620117-0.0908203-0.0771484
			S43.4389648,30.3623047,43.3881836,30.3623047z M44.1845703,30.2148438c-0.0703125,0-0.1259766,0.0102539-0.1679688,0.03125
			c-0.0415039,0.0209961-0.0766602,0.059082-0.1054688,0.1137695c-0.0195313,0.0375977-0.0322266,0.0825195-0.0380859,0.1357422
			s-0.0087891,0.1176758-0.0087891,0.1928711v0.3613281h0.6494141v-0.3037109c0-0.1005859-0.0048828-0.1835938-0.015625-0.2475586
			c-0.0107422-0.0644531-0.0302734-0.1171875-0.0585938-0.1582031c-0.0302734-0.043457-0.0644531-0.0751953-0.1035156-0.0952148
			S44.2460938,30.2148438,44.1845703,30.2148438z"/>
		<path class="st8" d="M44.7119141,28.5229492v1.1713867h-0.2451172c-0.0703125-0.081543-0.140625-0.1630859-0.2109375-0.2446289
			s-0.140625-0.1577148-0.2099609-0.2285156c-0.1455078-0.1484375-0.2607422-0.2504883-0.3461914-0.3051758
			c-0.0859375-0.0551758-0.1782227-0.0825195-0.2773438-0.0825195c-0.0908203,0-0.1616211,0.0292969-0.2128906,0.0888672
			c-0.0507813,0.059082-0.0766602,0.1416016-0.0766602,0.2480469c0,0.0703125,0.0126953,0.1464844,0.0375977,0.2285156
			c0.0249023,0.0825195,0.0634766,0.1625977,0.1147461,0.2407227v0.0117188h-0.2460938
			c-0.0273438-0.0551758-0.0522461-0.128418-0.074707-0.2202148c-0.0229492-0.0917969-0.0341797-0.1806641-0.0341797-0.2666016
			c0-0.1772461,0.0429688-0.3164063,0.1293945-0.4169922c0.0864258-0.1010742,0.2036133-0.1513672,0.3510742-0.1513672
			c0.0664063,0,0.128418,0.0083008,0.1855469,0.0249023c0.0576172,0.0166016,0.1123047,0.0415039,0.1635742,0.0737305
			c0.0483398,0.0302734,0.0961914,0.065918,0.1430664,0.1064453s0.0991211,0.090332,0.1557617,0.1484375
			c0.0820313,0.0825195,0.1621094,0.168457,0.2392578,0.2563477c0.0761719,0.0883789,0.1474609,0.1708984,0.2138672,0.2475586
			v-0.9306641H44.7119141z"/>
		<path class="st8" d="M43.8383789,27.0126953c0.3139648,0,0.543457,0.0488281,0.6899414,0.1459961
			s0.2197266,0.2480469,0.2197266,0.4526367c0,0.2075195-0.0742188,0.3588867-0.2226563,0.4545898
			s-0.3769531,0.1435547-0.6845703,0.1435547c-0.3100586,0-0.5395508-0.0483398-0.6875-0.1450195
			c-0.1479492-0.097168-0.222168-0.2480469-0.222168-0.453125c0-0.2080078,0.0751953-0.359375,0.2255859-0.4550781
			S43.534668,27.0126953,43.8383789,27.0126953z M44.3710938,27.3183594
			c-0.0634766-0.0273438-0.1376953-0.0454102-0.2236328-0.0551758s-0.1889648-0.0146484-0.309082-0.0146484
			c-0.1186523,0-0.2216797,0.0048828-0.3095703,0.0146484c-0.0874023,0.0097656-0.1616211,0.0283203-0.2226563,0.0561523
			c-0.0600586,0.0273438-0.1054688,0.0644531-0.1357422,0.1108398c-0.0302734,0.046875-0.0458984,0.1074219-0.0458984,0.1811523
			c0,0.0727539,0.015625,0.1328125,0.0458984,0.1806641c0.0302734,0.0473633,0.0766602,0.0849609,0.1381836,0.1132813
			c0.0581055,0.0258789,0.1333008,0.0439453,0.2260742,0.0537109c0.0932617,0.0097656,0.1953125,0.0146484,0.3061523,0.0146484
			c0.121582,0,0.2236328-0.0043945,0.3056641-0.0126953c0.0820313-0.0087891,0.15625-0.0268555,0.2207031-0.0546875
			c0.0605469-0.0253906,0.1074219-0.0620117,0.1396484-0.1088867s0.0478516-0.1088867,0.0478516-0.1860352
			c0-0.0732422-0.015625-0.1333008-0.0458984-0.1816406C44.4785156,27.3818359,44.4326172,27.3447266,44.3710938,27.3183594z"/>
	</g>
	<g id="XMLID_20_">
		<g>
			<rect x="35.7116814" y="27.4363384" class="st2" width="2.590517" height="1.0937506"/>
		</g>
		<g>
		</g>
	</g>
	<g id="XMLID_18_">
		<g>
			<rect x="35.7116814" y="29.1863384" class="st2" width="2.590517" height="1.0937506"/>
		</g>
		<g>
		</g>
	</g>
	<g id="XMLID_17_">
		<g>
			<rect x="35.7116814" y="30.9363384" class="st2" width="2.590517" height="1.0937506"/>
		</g>
		<g>
		</g>
	</g>
	<g id="XMLID_16_">
		<g>
			<rect x="35.7116814" y="32.6863365" class="st2" width="2.590517" height="1.0937506"/>
		</g>
		<g>
		</g>
	</g>
</g>
<g id="Резистор">
	<g>
		<g id="XMLID_3_">
			<g>
				<rect x="56.3437996" y="64.4989395" class="st9" width="4.255477" height="3.4358907"/>
			</g>
			<g>
			</g>
		</g>
		<g id="XMLID_2_">
			<g>
				<rect x="56.3030853" y="57.3687096" class="st9" width="4.255477" height="3.4376609"/>
			</g>
			<g>
			</g>
		</g>
		<g id="XMLID_1_">
			<g>
				<rect x="56.6535797" y="60.041153" class="st7" width="3.6058266" height="5.1611581"/>
			</g>
			<g>
			</g>
		</g>
		<g>
			<path class="st8" d="M59,63.5615234v0.6962891h-0.1308594v-0.2675781h-0.8632813v0.2675781h-0.1171875
				c0-0.0361328-0.0029297-0.0751953-0.0087891-0.1162109c-0.0058594-0.0419922-0.0146484-0.0732422-0.0263672-0.0947266
				c-0.0146484-0.0263672-0.0332031-0.046875-0.0546875-0.0625c-0.0224609-0.015625-0.0527344-0.0244141-0.0898438-0.0263672
				v-0.1337891h1.1601563v-0.2626953H59z"/>
			<path class="st8" d="M58.3564453,62.5410156c0.2304688,0,0.4003906,0.0361328,0.5087891,0.1083984
				c0.1074219,0.0722656,0.1621094,0.1845703,0.1621094,0.3369141c0,0.1542969-0.0546875,0.2675781-0.1640625,0.3388672
				c-0.1103516,0.0712891-0.2783203,0.1064453-0.5048828,0.1064453c-0.2294922,0-0.3984375-0.0361328-0.5068359-0.1083984
				c-0.109375-0.0712891-0.1640625-0.1835938-0.1640625-0.3369141c0-0.1542969,0.0556641-0.2666016,0.1660156-0.3378906
				C57.9648438,62.5771484,58.1318359,62.5410156,58.3564453,62.5410156z M58.7490234,62.7685547
				c-0.046875-0.0205078-0.1015625-0.0341797-0.1650391-0.0410156s-0.1386719-0.0107422-0.2275391-0.0107422
				c-0.0878906,0-0.1640625,0.0039063-0.2285156,0.0107422s-0.1191406,0.0214844-0.1640625,0.0419922
				c-0.0439453,0.0205078-0.078125,0.0478516-0.1005859,0.0830078c-0.0224609,0.0341797-0.0332031,0.0791016-0.0332031,0.1337891
				s0.0107422,0.0996094,0.0332031,0.1347656s0.0566406,0.0634766,0.1025391,0.0839844
				c0.0419922,0.0195313,0.0976563,0.0332031,0.1669922,0.0400391c0.0683594,0.0078125,0.1435547,0.0107422,0.2255859,0.0107422
				c0.0898438,0,0.1650391-0.0029297,0.2255859-0.0087891c0.0605469-0.0068359,0.1142578-0.0205078,0.1621094-0.0410156
				C58.7910156,63.1875,58.8251953,63.1601563,58.8486328,63.125c0.0244141-0.0341797,0.0361328-0.0810547,0.0361328-0.1386719
				c0-0.0537109-0.0117188-0.0986328-0.0341797-0.1347656C58.828125,62.8164063,58.7939453,62.7880859,58.7490234,62.7685547z"/>
			<path class="st8" d="M58.3564453,61.5927734c0.2304688,0,0.4003906,0.0361328,0.5087891,0.1083984
				c0.1074219,0.0722656,0.1621094,0.1845703,0.1621094,0.3369141c0,0.1542969-0.0546875,0.2666016-0.1640625,0.3378906
				c-0.1103516,0.0712891-0.2783203,0.1064453-0.5048828,0.1064453c-0.2294922,0-0.3984375-0.0351563-0.5068359-0.1074219
				c-0.109375-0.0722656-0.1640625-0.1845703-0.1640625-0.3369141c0-0.1542969,0.0556641-0.2675781,0.1660156-0.3388672
				C57.9648438,61.6279297,58.1318359,61.5927734,58.3564453,61.5927734z M58.7490234,61.8203125
				c-0.046875-0.0205078-0.1015625-0.0341797-0.1650391-0.0410156c-0.0634766-0.0078125-0.1386719-0.0107422-0.2275391-0.0107422
				c-0.0878906,0-0.1640625,0.0029297-0.2285156,0.0107422c-0.0644531,0.0068359-0.1191406,0.0205078-0.1640625,0.0419922
				c-0.0439453,0.0195313-0.078125,0.046875-0.1005859,0.0820313s-0.0332031,0.0800781-0.0332031,0.1347656
				c0,0.0537109,0.0107422,0.0986328,0.0332031,0.1337891c0.0224609,0.0361328,0.0566406,0.0634766,0.1025391,0.0849609
				c0.0419922,0.0195313,0.0976563,0.0322266,0.1669922,0.0400391c0.0683594,0.0068359,0.1435547,0.0107422,0.2255859,0.0107422
				c0.0898438,0,0.1650391-0.0029297,0.2255859-0.0097656c0.0605469-0.0058594,0.1142578-0.0195313,0.1621094-0.0410156
				c0.0449219-0.0185547,0.0791016-0.0458984,0.1025391-0.0800781c0.0244141-0.0351563,0.0361328-0.0810547,0.0361328-0.1386719
				c0-0.0546875-0.0117188-0.0996094-0.0341797-0.1347656C58.828125,61.8671875,58.7939453,61.8398438,58.7490234,61.8203125z"/>
			<path class="st8" d="M59,60.6425781v0.8710938h-0.1806641c-0.0517578-0.0605469-0.1035156-0.1210938-0.1552734-0.1816406
				s-0.1035156-0.1171875-0.1542969-0.1699219c-0.1074219-0.1103516-0.1923828-0.1865234-0.2558594-0.2275391
				s-0.1308594-0.0615234-0.2041016-0.0615234c-0.0673828,0-0.1191406,0.0224609-0.1572266,0.0664063
				s-0.0566406,0.1054688-0.0566406,0.1845703c0,0.0527344,0.0087891,0.109375,0.0273438,0.1699219
				c0.0185547,0.0615234,0.046875,0.1210938,0.0849609,0.1796875v0.0087891h-0.1816406
				c-0.0195313-0.0410156-0.0380859-0.0957031-0.0546875-0.1640625c-0.0175781-0.0683594-0.0253906-0.1347656-0.0253906-0.1982422
				c0-0.1318359,0.0322266-0.2353516,0.0957031-0.3105469s0.1494141-0.1123047,0.2587891-0.1123047
				c0.0488281,0,0.0947266,0.0058594,0.1367188,0.0185547s0.0830078,0.0302734,0.1210938,0.0546875
				c0.0351563,0.0224609,0.0703125,0.0488281,0.1054688,0.0791016c0.0341797,0.0302734,0.0722656,0.0673828,0.1142578,0.1103516
				c0.0605469,0.0615234,0.1191406,0.125,0.1757813,0.1914063c0.0566406,0.0654297,0.109375,0.1269531,0.1582031,0.1835938
				v-0.6923828H59z"/>
		</g>
	</g>
</g>
<g id="Слой_9">
	<g>
		<path class="st1" d="M18.8535156,41.1254883c-0.0424805,0.5864258-0.2587891,1.0483398-0.6499023,1.3857422
			c-0.390625,0.3369141-0.9057617,0.5053711-1.5449219,0.5053711c-0.6992188,0-1.2490234-0.2353516-1.6499023-0.7060547
			s-0.6010742-1.1166992-0.6010742-1.9379883v-0.3334961c0-0.5244141,0.0922852-0.9863281,0.2768555-1.3857422
			c0.1850586-0.3999023,0.4492188-0.7060547,0.7924805-0.9199219c0.3432617-0.2133789,0.7421875-0.3203125,1.1967773-0.3203125
			c0.6293945,0,1.1362305,0.1689453,1.5205078,0.5058594c0.3847656,0.3369141,0.6069336,0.8105469,0.6669922,1.4194336h-1.1240234
			c-0.0273438-0.3520508-0.1254883-0.6074219-0.2939453-0.765625c-0.168457-0.1586914-0.425293-0.237793-0.7695313-0.237793
			c-0.3745117,0-0.6547852,0.1337891-0.8408203,0.4023438s-0.2817383,0.6850586-0.2866211,1.2490234v0.4121094
			c0,0.5893555,0.0893555,1.0200195,0.2675781,1.2924805c0.1787109,0.2719727,0.4599609,0.4082031,0.8447266,0.4082031
			c0.347168,0,0.605957-0.0791016,0.7773438-0.237793c0.1708984-0.1586914,0.269043-0.4038086,0.2939453-0.7358398H18.8535156z"/>
	</g>
	<g>
		<path class="st10" d="M20.5416679,38.0416718c0.25313,0,0.4583302,0.2051964,0.4583302,0.4583282
			s-0.2052002,0.4583282-0.4583302,0.4583282S20.0833378,38.7531319,20.0833378,38.5S20.288538,38.0416718,20.5416679,38.0416718
			 M20.5416679,37.4416695c-0.5835705,0-1.0583305,0.474762-1.0583305,1.0583305s0.4747601,1.0583305,1.0583305,1.0583305
			S21.5999985,39.0835686,21.5999985,38.5S21.1252384,37.4416695,20.5416679,37.4416695L20.5416679,37.4416695z"/>
	</g>
	<path class="st11" d="M9,36.0794868c0-1.0839119,0.8919268-1.9758415,1.9758415-1.9758415s1.9758425,0.8919296,1.9758425,1.9758415
		c0,0.0013885,0,6.5322838,0,6.5322838s0,0.9611893,0,1.7807884c0.7656908,0.5954056,1.256649,1.5258598,1.256649,2.5709839
		c0,1.8035545-1.4620695,3.265625-3.265625,3.265625s-3.2656245-1.4620705-3.2656245-3.265625
		c0-1.0751686,0.5195899-2.0289764,1.3229098-2.6219444c0-1.6550446,0-3.3100853,0-4.9651299"/>
	<line class="st11" x1="9" y1="36.0794868" x2="8.9999933" y2="39.3764687"/>
	<line class="st11" x1="10.942708" y1="39.0941162" x2="10.942708" y2="45.9647064"/>
	<g>
		<path class="st1" d="M10.942709,46.2760849c0.3795996,0,0.6884298,0.3088303,0.6884298,0.6884308
			s-0.3088303,0.6884308-0.6884298,0.6884308s-0.6884298-0.3088303-0.6884298-0.6884308S10.5631094,46.2760849,10.942709,46.2760849
			 M10.942709,44.9760857c-1.0981798,0-1.98843,0.8902512-1.98843,1.98843s0.8902502,1.98843,1.98843,1.98843
			s1.98843-0.8902512,1.98843-1.98843S12.0408888,44.9760857,10.942709,44.9760857L10.942709,44.9760857z"/>
	</g>
	<line class="st12" x1="7.5882354" y1="42.3858452" x2="5.7117648" y2="42.3858452"/>
	<line class="st12" x1="7.5882354" y1="40.0516548" x2="5.7117648" y2="40.0516548"/>
	<line class="st12" x1="7.5882354" y1="37.7174644" x2="5.7117648" y2="37.7174644"/>
	<line class="st12" x1="7.5882354" y1="41.21875" x2="3.835294" y2="41.21875"/>
	<line class="st13" x1="7.5882354" y1="43.5529404" x2="3.835294" y2="43.5529404"/>
	<line class="st12" x1="7.5882354" y1="38.8845596" x2="3.835294" y2="38.8845596"/>
	<line class="st13" x1="7.5882354" y1="36.5503693" x2="3.835294" y2="36.5503693"/>
	<g>
	</g>
	<g>
	</g>
	<g>
	</g>
	<g>
	</g>
	<g>
	</g>
</g>
</svg>
