<?xml version="1.0" encoding="utf-8"?>
<!-- Generator: Adobe Illustrator 22.0.1, SVG Export Plug-In . SVG Version: 6.00 Build 0)  -->
<svg version="1.1" id="Штекер" xmlns="http://www.w3.org/2000/svg" xmlns:xlink="http://www.w3.org/1999/xlink" x="0px"
	 y="0px" viewBox="0 0 130.0251923 41.952755" style="enable-background:new 0 0 130.0251923 41.952755;" xml:space="preserve">
<style type="text/css">
	.st0{fill:#FFFFFF;}
	.st1{fill:#4C4C4C;}
	.st2{fill:#5DAF61;}
	.st3{fill:#666566;}
	.st4{fill:url(#SVGID_1_);}
	.st5{fill:url(#SVGID_2_);}
	.st6{fill:#50985D;}
	.st7{fill:#CCCCCC;}
	.st8{fill:#E6E6E6;}
	.st9{fill:none;stroke:#0D0E0F;stroke-miterlimit:10;}
	.st10{fill:#D24A44;}
	.st11{fill:#0D0E0F;}
	.st12{fill:url(#SVGID_3_);}
</style>
<rect x="126.056694" y="11.2110233" class="st0" width="3.968504" height="19.5307083"/>
<rect x="97.5118103" y="6.9732285" class="st0" width="28.5448818" height="28.0063"/>
<g>
	
		<rect x="29.7637787" y="4.8188977" transform="matrix(6.123234e-17 -1 1 6.123234e-17 29.7637787 71.7165375)" class="st1" width="41.952755" height="32.3149605"/>
	
		<rect x="16.5826778" y="12.8976374" transform="matrix(6.123234e-17 -1 1 6.123234e-17 9.7795277 51.7322845)" class="st2" width="28.3464565" height="16.1574802"/>
	
		<rect x="49.4220467" y="19.8425198" transform="matrix(6.123234e-17 -1 1 6.123234e-17 47.0551186 89.0078735)" class="st3" width="37.2188988" height="2.2677166"/>
	
		<rect x="53.3763771" y="19.4173222" transform="matrix(6.123234e-17 -1 1 6.123234e-17 49.7480316 91.7007904)" class="st1" width="34.696064" height="3.1181102"/>
	
		<rect x="55.8425179" y="19.7007866" transform="matrix(6.123234e-17 -1 1 6.123234e-17 52.5826759 94.5354309)" class="st3" width="35.4330711" height="2.5511811"/>
	
		<rect x="59.4992142" y="19.4173222" transform="matrix(6.123234e-17 -1 1 6.123234e-17 55.4173241 97.370079)" class="st1" width="33.7889748" height="3.1181102"/>
	
		<rect x="62.1354332" y="19.7007866" transform="matrix(6.123234e-17 -1 1 6.123234e-17 58.2519684 100.2047272)" class="st3" width="34.1858253" height="2.5511811"/>
	
		<rect x="65.8913422" y="19.4173222" transform="matrix(6.123234e-17 -1 1 6.123234e-17 61.0866127 103.0393677)" class="st1" width="32.3433075" height="3.1181102"/>
	
		<rect x="68.1307068" y="19.7007866" transform="matrix(6.123234e-17 -1 1 6.123234e-17 63.9212608 105.8740158)" class="st3" width="33.5338593" height="2.5511811"/>
	
		<rect x="72.1984253" y="19.4173222" transform="matrix(6.123234e-17 -1 1 6.123234e-17 66.7559052 108.7086639)" class="st1" width="31.0677166" height="3.1181102"/>
	
		<rect x="74.1685028" y="19.7007866" transform="matrix(6.123234e-17 -1 1 6.123234e-17 69.5905533 111.5433044)" class="st3" width="32.7968521" height="2.5511811"/>
	
		<rect x="78.448822" y="19.4173222" transform="matrix(6.123234e-17 -1 1 6.123234e-17 72.4251938 114.3779526)" class="st1" width="29.9055119" height="3.1181102"/>
	
		<rect x="80.5606308" y="19.7007866" transform="matrix(6.123234e-17 -1 1 6.123234e-17 75.2598419 117.2126007)" class="st3" width="31.351181" height="2.5511811"/>
	
		<linearGradient id="SVGID_1_" gradientUnits="userSpaceOnUse" x1="152.2629852" y1="-26.4188976" x2="180.2692871" y2="-26.4188976" gradientTransform="matrix(0 -1 1 0 138.2031555 187.2425232)">
		<stop  offset="0.0050251" style="stop-color:#4C4C4C"/>
		<stop  offset="0.4849246" style="stop-color:#4C4C4C;stop-opacity:0.8"/>
		<stop  offset="1" style="stop-color:#4C4C4C;stop-opacity:0.88"/>
	</linearGradient>
	<polygon class="st4" points="126.056694,6.9732285 126.056694,34.9795265 97.5118103,34.9795265 97.5118103,6.9732285 	"/>
	
		<linearGradient id="SVGID_2_" gradientUnits="userSpaceOnUse" x1="156.5007935" y1="-10.1622047" x2="176.0314941" y2="-10.1622047" gradientTransform="matrix(0 -1 1 0 138.2031555 187.2425232)">
		<stop  offset="0.0050251" style="stop-color:#BFBFBF"/>
		<stop  offset="0.4849246" style="stop-color:#000000;stop-opacity:0.5"/>
		<stop  offset="1" style="stop-color:#B0AFAF;stop-opacity:0.88"/>
	</linearGradient>
	<polygon class="st5" points="130.0251923,11.2110233 130.0251923,30.7417316 126.056694,30.7417316 126.056694,11.2110233 	"/>
	
		<rect x="9.4251966" y="20.0551186" transform="matrix(6.123234e-17 -1 1 6.123234e-17 2.6220472 44.5748024)" class="st6" width="28.3464565" height="1.8425196"/>
	<circle class="st7" cx="31.677166" cy="28.0629921" r="5.4708662"/>
	<circle class="st7" cx="31.677166" cy="13.8897638" r="5.4708662"/>
	<path class="st8" d="M36.0106735,24.7316399c-0.1431122-0.1857529-0.2948151-0.3669758-0.4650307-0.5371914
		c-0.1702156-0.1702175-0.3514404-0.3219185-0.5371513-0.4649887l-7.664835,7.6648445
		c0.1430702,0.1857109,0.2947712,0.3669319,0.4649887,0.5371494c0.1702156,0.1702156,0.3514385,0.3219185,0.5371914,0.4650307
		L36.0106735,24.7316399z"/>
	
		<rect x="30.1181107" y="24.5196648" transform="matrix(-0.7071064 0.7071071 -0.7071071 -0.7071064 73.9198227 25.5073299)" class="st8" width="3.1181102" height="7.0866141"/>
	<path class="st8" d="M36.0106735,10.5584316c-0.1431122-0.1857538-0.2948151-0.3669758-0.4650307-0.5371923
		s-0.3514404-0.3219175-0.5371513-0.4649878l-7.664835,7.6648445c0.1430702,0.1857109,0.2947712,0.3669319,0.4649887,0.5371494
		c0.1702156,0.1702156,0.3514385,0.3219166,0.5371914,0.4650307L36.0106735,10.5584316z"/>
	
		<rect x="30.1181107" y="10.3464565" transform="matrix(-0.7071064 0.7071071 -0.7071071 -0.7071064 63.8978424 1.3121557)" class="st8" width="3.1181102" height="7.0866141"/>
	<circle class="st9" cx="47.3102379" cy="33.5338593" r="4.4362206"/>
	<line class="st9" x1="47.3102379" y1="36.3685036" x2="47.3102379" y2="30.699213"/>
	<circle class="st9" cx="47.3102379" cy="8.4188976" r="4.4362206"/>
	<line class="st9" x1="47.3102379" y1="11.2535429" x2="47.3102379" y2="5.5842519"/>
	<line class="st9" x1="44.4755898" y1="8.4188976" x2="50.1448822" y2="8.4188976"/>
	
		<rect x="7.7952757" y="2.5511811" transform="matrix(6.123234e-17 -1 1 6.123234e-17 -2.5511811 25.2283459)" class="st10" width="7.0866141" height="22.677166"/>
	
		<rect x="7.7952757" y="16.72439" transform="matrix(6.123234e-17 -1 1 6.123234e-17 -16.72439 39.4015541)" class="st11" width="7.0866141" height="22.677166"/>
	
		<linearGradient id="SVGID_3_" gradientUnits="userSpaceOnUse" x1="150.8579254" y1="-44.8015747" x2="156.5594025" y2="-44.8015747" gradientTransform="matrix(0 -1 1 0 138.2031555 187.2425232)">
		<stop  offset="0" style="stop-color:#0D0E0F;stop-opacity:0.3"/>
		<stop  offset="1" style="stop-color:#0D0E0F;stop-opacity:0"/>
	</linearGradient>
	<polygon class="st12" points="94.9606323,30.6831207 94.9606323,36.3845978 91.8425217,36.3845978 91.8425217,30.6831207 	"/>
</g>
<g>
</g>
<g>
</g>
<g>
</g>
<g>
</g>
<g>
</g>
</svg>
