<?xml version="1.0" encoding="utf-8"?>
<!-- Generator: Adobe Illustrator 22.0.1, SVG Export Plug-In . SVG Version: 6.00 Build 0)  -->
<svg version="1.1" id="Режим_изоляции"
	 xmlns="http://www.w3.org/2000/svg" xmlns:xlink="http://www.w3.org/1999/xlink" x="0px" y="0px"
	 viewBox="0 0 236.3306274 62.3342247" style="enable-background:new 0 0 236.3306274 62.3342247;" xml:space="preserve">
<style type="text/css">
	.st0{fill:#E9A854;}
	.st1{fill:none;stroke:#36375C;stroke-width:2.835;stroke-miterlimit:10;}
	.st2{fill:#FFFFFF;}
	.st3{fill:#CDC7BC;}
</style>
<g>
	<g>
		<rect x="49.2440071" y="25.4838333" width="187.0866089" height="36.8503952"/>
		<rect x="154.8345642" y="30.4444618" class="st0" width="76.5354309" height="26.9291344"/>
		<rect x="62.7403183" y="36.4680862" class="st0" width="7.0866141" height="14.8818893"/>
	</g>
	<g>
		<line class="st1" x1="66.2836227" y1="44.1037827" x2="11.420536" y2="44.1037827"/>
		<line class="st1" x1="1.4177061" y1="34.1007042" x2="1.4177061" y2="20.1551037"/>
		<path class="st1" d="M1.4175,34.1005936c0,5.5290222,4.4740143,10.0030365,10.0030365,10.0030365"/>
		<path class="st1" d="M1.4177061,20.1551037c0-8.672699,7.017838-15.6905365,15.6905355-15.6905365"/>
		<line class="st1" x1="17.108242" y1="4.4645672" x2="164.1359711" y2="4.4645672"/>
		
			<rect x="168.1338196" y="-0.5669289" transform="matrix(-4.481767e-11 1 -1 -4.481767e-11 177.0629425 -168.1338196)" class="st0" width="8.9291334" height="10.0629921"/>
		<polyline class="st0" points="177.6298828,0.0000003 178.4192352,3.4766488 178.4192352,5.4524856 177.6298828,8.9291344 		"/>
		<polyline class="st0" points="167.5668793,0 166.7775269,3.0301716 164.1359711,3.0301716 164.1359711,5.8739219 
			166.7775269,5.8739219 167.5668793,8.9291334 		"/>
	</g>
	<g>
		<path class="st2" d="M215.592804,41.6259766h0.7265625v3.9667969l1.4570313-0.4404297v0.5400391l-2.0703125,0.640625h-0.1132813
			V41.6259766z"/>
		<path class="st2" d="M209.9092102,43.6240234c0-0.6972656,0.1445313-1.2148438,0.4335938-1.5537109
			s0.7412109-0.5087891,1.3554688-0.5087891c0.6064453,0,1.0556641,0.1660156,1.3476563,0.4970703
			s0.4423828,0.8261719,0.453125,1.4853516v0.7939453c0,0.6884766-0.1445313,1.2001953-0.4335938,1.5351563
			S212.3232727,46.375,211.7060852,46.375c-0.6123047,0-1.0625-0.1611328-1.3515625-0.484375
			c-0.2890625-0.3222656-0.4375-0.8212891-0.4453125-1.4941406V43.6240234z M210.6318665,44.4384766
			c0,0.5039063,0.0859375,0.8710938,0.2578125,1.1015625s0.4443359,0.3457031,0.8164063,0.3457031
			c0.3701172,0,0.6396484-0.1142578,0.8085938-0.34375s0.2568359-0.5830078,0.2617188-1.0585938v-0.953125
			c0-0.5058594-0.0888672-0.8798828-0.2675781-1.1210938s-0.4482422-0.3613281-0.8105469-0.3613281
			c-0.3564453,0-0.6220703,0.1132813-0.7949219,0.3408203s-0.2636719,0.5849609-0.2714844,1.0742188V44.4384766z"/>
		<path class="st2" d="M205.4170227,43.6240234c0-0.6972656,0.1445313-1.2148438,0.4335938-1.5537109
			s0.7412109-0.5087891,1.3554688-0.5087891c0.6064453,0,1.0556641,0.1660156,1.3476563,0.4970703
			s0.4423828,0.8261719,0.453125,1.4853516v0.7939453c0,0.6884766-0.1445313,1.2001953-0.4335938,1.5351563
			S207.8310852,46.375,207.2138977,46.375c-0.6123047,0-1.0625-0.1611328-1.3515625-0.484375
			c-0.2890625-0.3222656-0.4375-0.8212891-0.4453125-1.4941406V43.6240234z M206.139679,44.4384766
			c0,0.5039063,0.0859375,0.8710938,0.2578125,1.1015625s0.4443359,0.3457031,0.8164063,0.3457031
			c0.3701172,0,0.6396484-0.1142578,0.8085938-0.34375s0.2568359-0.5830078,0.2617188-1.0585938v-0.953125
			c0-0.5058594-0.0888672-0.8798828-0.2675781-1.1210938s-0.4482422-0.3613281-0.8105469-0.3613281
			c-0.3564453,0-0.6220703,0.1132813-0.7949219,0.3408203s-0.2636719,0.5849609-0.2714844,1.0742188V44.4384766z"/>
		<path class="st2" d="M202.9131165,43.3730469h1.90625v0.4863281h-1.90625V43.3730469z"/>
		<path class="st2" d="M199.233429,43.1992188h-0.7890625v-0.4853516h0.7890625v-1.0878906h0.7265625v1.0878906h2.5898438v0.3505859
			l-2.546875,3.2460938h-0.7695313V43.1992188z M201.7295227,43.1992188h-1.7695313v2.2978516l0.0859375-0.1289063
			L201.7295227,43.1992188z"/>
		<path class="st2" d="M194.2256165,43.6240234c0-0.6972656,0.1445313-1.2148438,0.4335938-1.5537109
			s0.7412109-0.5087891,1.3554688-0.5087891c0.6064453,0,1.0556641,0.1660156,1.3476563,0.4970703
			s0.4423828,0.8261719,0.453125,1.4853516v0.7939453c0,0.6884766-0.1445313,1.2001953-0.4335938,1.5351563
			S196.639679,46.375,196.0224915,46.375c-0.6123047,0-1.0625-0.1611328-1.3515625-0.484375
			c-0.2890625-0.3222656-0.4375-0.8212891-0.4453125-1.4941406V43.6240234z M194.9482727,44.4384766
			c0,0.5039063,0.0859375,0.8710938,0.2578125,1.1015625s0.4443359,0.3457031,0.8164063,0.3457031
			c0.3701172,0,0.6396484-0.1142578,0.8085938-0.34375s0.2568359-0.5830078,0.2617188-1.0585938v-0.953125
			c0-0.5058594-0.0888672-0.8798828-0.2675781-1.1210938s-0.4482422-0.3613281-0.8105469-0.3613281
			c-0.3564453,0-0.6220703,0.1132813-0.7949219,0.3408203s-0.2636719,0.5849609-0.2714844,1.0742188V44.4384766z"/>
		<path class="st2" d="M189.733429,43.6240234c0-0.6972656,0.1445313-1.2148438,0.4335938-1.5537109
			s0.7412109-0.5087891,1.3554688-0.5087891c0.6064453,0,1.0556641,0.1660156,1.3476563,0.4970703
			s0.4423828,0.8261719,0.453125,1.4853516v0.7939453c0,0.6884766-0.1445313,1.2001953-0.4335938,1.5351563
			S192.1474915,46.375,191.530304,46.375c-0.6123047,0-1.0625-0.1611328-1.3515625-0.484375
			c-0.2890625-0.3222656-0.4375-0.8212891-0.4453125-1.4941406V43.6240234z M190.4560852,44.4384766
			c0,0.5039063,0.0859375,0.8710938,0.2578125,1.1015625s0.4443359,0.3457031,0.8164063,0.3457031
			c0.3701172,0,0.6396484-0.1142578,0.8085938-0.34375s0.2568359-0.5830078,0.2617188-1.0585938v-0.953125
			c0-0.5058594-0.0888672-0.8798828-0.2675781-1.1210938s-0.4482422-0.3613281-0.8105469-0.3613281
			c-0.3564453,0-0.6220703,0.1132813-0.7949219,0.3408203s-0.2636719,0.5849609-0.2714844,1.0742188V44.4384766z"/>
		<path class="st2" d="M185.358429,45.0878906c0-0.2333984,0.0751953-0.4414063,0.2246094-0.6240234
			s0.3525391-0.3251953,0.6074219-0.4277344c-0.296875-0.1054688-0.5322266-0.2587891-0.7050781-0.4599609
			c-0.1728516-0.2021484-0.2597656-0.4306641-0.2597656-0.6855469c0-0.4052734,0.1660156-0.7285156,0.4980469-0.96875
			s0.7685547-0.3603516,1.3105469-0.3603516c0.546875,0,0.9853516,0.1210938,1.3144531,0.3623047
			s0.4941406,0.5634766,0.4941406,0.9667969c0,0.2529297-0.0839844,0.4814453-0.2519531,0.6855469
			c-0.1679688,0.203125-0.4003906,0.3574219-0.6972656,0.4628906c0.2529297,0.1025391,0.4521484,0.2451172,0.5976563,0.4277344
			s0.21875,0.3896484,0.21875,0.6210938c0,0.3945313-0.1533203,0.7080078-0.4609375,0.9394531
			S187.5371399,46.375,187.0342102,46.375c-0.5,0-0.9042969-0.1162109-1.2128906-0.3476563
			S185.358429,45.4824219,185.358429,45.0878906z M185.9482727,42.9033203c0,0.2617188,0.1005859,0.4746094,0.3027344,0.640625
			c0.2021484,0.1650391,0.4658203,0.2470703,0.7910156,0.2470703s0.5869141-0.0810547,0.7832031-0.2441406
			s0.2949219-0.3779297,0.2949219-0.6435547s-0.0957031-0.4755859-0.2871094-0.6269531
			c-0.1914063-0.1523438-0.4580078-0.2285156-0.7988281-0.2285156c-0.3388672,0-0.6044922,0.0761719-0.796875,0.2294922
			S185.9482727,42.6396484,185.9482727,42.9033203z M187.0342102,45.8857422c0.2841797,0,0.5136719-0.0722656,0.6894531-0.2167969
			s0.2636719-0.3417969,0.2636719-0.5908203c0-0.2382813-0.0869141-0.4306641-0.2597656-0.5771484
			c-0.1728516-0.1474609-0.4042969-0.2207031-0.6933594-0.2207031s-0.5205078,0.0732422-0.6933594,0.2207031
			c-0.1728516,0.1464844-0.2597656,0.3388672-0.2597656,0.5771484s0.0898438,0.4326172,0.2695313,0.5830078
			C186.530304,45.8105469,186.757843,45.8857422,187.0342102,45.8857422z"/>
		<path class="st2" d="M180.749054,43.6240234c0-0.6972656,0.1445313-1.2148438,0.4335938-1.5537109
			s0.7412109-0.5087891,1.3554688-0.5087891c0.6064453,0,1.0556641,0.1660156,1.3476563,0.4970703
			s0.4423828,0.8261719,0.453125,1.4853516v0.7939453c0,0.6884766-0.1445313,1.2001953-0.4335938,1.5351563
			S183.1631165,46.375,182.545929,46.375c-0.6123047,0-1.0625-0.1611328-1.3515625-0.484375
			c-0.2890625-0.3222656-0.4375-0.8212891-0.4453125-1.4941406V43.6240234z M181.4717102,44.4384766
			c0,0.5039063,0.0859375,0.8710938,0.2578125,1.1015625s0.4443359,0.3457031,0.8164063,0.3457031
			c0.3701172,0,0.6396484-0.1142578,0.8085938-0.34375s0.2568359-0.5830078,0.2617188-1.0585938v-0.953125
			c0-0.5058594-0.0888672-0.8798828-0.2675781-1.1210938s-0.4482422-0.3613281-0.8105469-0.3613281
			c-0.3564453,0-0.6220703,0.1132813-0.7949219,0.3408203s-0.2636719,0.5849609-0.2714844,1.0742188V44.4384766z"/>
		<path class="st2" d="M176.374054,45.0878906c0-0.2333984,0.0751953-0.4414063,0.2246094-0.6240234
			s0.3525391-0.3251953,0.6074219-0.4277344c-0.296875-0.1054688-0.5322266-0.2587891-0.7050781-0.4599609
			c-0.1728516-0.2021484-0.2597656-0.4306641-0.2597656-0.6855469c0-0.4052734,0.1660156-0.7285156,0.4980469-0.96875
			s0.7685547-0.3603516,1.3105469-0.3603516c0.546875,0,0.9853516,0.1210938,1.3144531,0.3623047
			s0.4941406,0.5634766,0.4941406,0.9667969c0,0.2529297-0.0839844,0.4814453-0.2519531,0.6855469
			c-0.1679688,0.203125-0.4003906,0.3574219-0.6972656,0.4628906c0.2529297,0.1025391,0.4521484,0.2451172,0.5976563,0.4277344
			s0.21875,0.3896484,0.21875,0.6210938c0,0.3945313-0.1533203,0.7080078-0.4609375,0.9394531
			S178.5527649,46.375,178.0498352,46.375c-0.5,0-0.9042969-0.1162109-1.2128906-0.3476563
			S176.374054,45.4824219,176.374054,45.0878906z M176.9638977,42.9033203c0,0.2617188,0.1005859,0.4746094,0.3027344,0.640625
			c0.2021484,0.1650391,0.4658203,0.2470703,0.7910156,0.2470703s0.5869141-0.0810547,0.7832031-0.2441406
			s0.2949219-0.3779297,0.2949219-0.6435547s-0.0957031-0.4755859-0.2871094-0.6269531
			c-0.1914063-0.1523438-0.4580078-0.2285156-0.7988281-0.2285156c-0.3388672,0-0.6044922,0.0761719-0.796875,0.2294922
			S176.9638977,42.6396484,176.9638977,42.9033203z M178.0498352,45.8857422c0.2841797,0,0.5136719-0.0722656,0.6894531-0.2167969
			s0.2636719-0.3417969,0.2636719-0.5908203c0-0.2382813-0.0869141-0.4306641-0.2597656-0.5771484
			c-0.1728516-0.1474609-0.4042969-0.2207031-0.6933594-0.2207031s-0.5205078,0.0732422-0.6933594,0.2207031
			c-0.1728516,0.1464844-0.2597656,0.3388672-0.2597656,0.5771484s0.0898438,0.4326172,0.2695313,0.5830078
			C177.545929,45.8105469,177.773468,45.8857422,178.0498352,45.8857422z"/>
		<path class="st2" d="M174.280304,44.2578125h-0.5429688c-0.3408203,0.0039063-0.609375,0.078125-0.8046875,0.2216797
			c-0.1953125,0.1445313-0.2929688,0.3378906-0.2929688,0.5830078c0,0.5488281,0.3320313,0.8232422,0.9960938,0.8232422
			c0.3125,0,0.5615234-0.0732422,0.7480469-0.2207031c0.1865234-0.1464844,0.2792969-0.3408203,0.2792969-0.5839844h0.7226563
			c0,0.3710938-0.1650391,0.6796875-0.4941406,0.9257813c-0.3291016,0.2451172-0.7480469,0.3681641-1.2558594,0.3681641
			c-0.5361328,0-0.9570313-0.1171875-1.2617188-0.3505859c-0.3046875-0.234375-0.4570313-0.5585938-0.4570313-0.9746094
			c0-0.2041016,0.0800781-0.4013672,0.2402344-0.5927734c0.1601563-0.1904297,0.3779297-0.3330078,0.6542969-0.4277344
			c-0.3125-0.0810547-0.5537109-0.2167969-0.7246094-0.4052734s-0.2558594-0.4189453-0.2558594-0.6914063
			c0-0.4208984,0.1669922-0.7539063,0.5-1.0009766s0.7666016-0.3701172,1.3007813-0.3701172
			s0.9677734,0.1191406,1.3027344,0.3574219s0.5019531,0.5517578,0.5019531,0.9423828h-0.7265625
			c0-0.2460938-0.0976563-0.4443359-0.2929688-0.5917969c-0.1953125-0.1484375-0.4570313-0.2216797-0.7851563-0.2216797
			c-0.3486328,0-0.6162109,0.0742188-0.8007813,0.2246094s-0.2773438,0.3662109-0.2773438,0.6464844
			c0,0.2724609,0.1015625,0.4824219,0.3046875,0.6279297s0.4960938,0.2207031,0.8789063,0.2255859h0.5429688V44.2578125z"/>
		<path class="st2" d="M169.2607727,43.3730469h1.90625v0.4863281h-1.90625V43.3730469z"/>
		<path class="st2" d="M165.3037415,42.8515625h2.3828125l0.5351563-1.2255859h0.7734375l-2.171875,4.6845703h-0.65625
			l-2.1757813-4.6845703h0.7695313L165.3037415,42.8515625z M167.4599915,43.3574219h-1.9335938l0.96875,2.1904297
			L167.4599915,43.3574219z"/>
		<path class="st2" d="M162.6631165,42.1308594h-3.2539063v-0.5048828h4.140625v0.4628906l-3.1171875,3.7167969h3.0664063v0.5048828
			h-3.9648438V45.859375L162.6631165,42.1308594z"/>
	</g>
	<path class="st3" d="M66.320549,47.6065445h-0.0738525c-1.9345169,0-3.5027504-1.5682373-3.5027504-3.5027542v-0.0000076
		c0-1.9345169,1.5682335-3.5027542,3.5027504-3.5027542h0.0738525c1.9345169,0,3.5027542,1.5682373,3.5027542,3.5027542v0.0000076
		C69.8233032,46.0383072,68.2550659,47.6065445,66.320549,47.6065445z"/>
</g>
<g>
</g>
<g>
</g>
<g>
</g>
<g>
</g>
<g>
</g>
<g>
</g>
</svg>
