<?xml version="1.0" encoding="utf-8"?>
<!-- Generator: Adobe Illustrator 22.0.1, SVG Export Plug-In . SVG Version: 6.00 Build 0)  -->
<svg version="1.1" id="Корпус_1_" xmlns="http://www.w3.org/2000/svg" xmlns:xlink="http://www.w3.org/1999/xlink" x="0px"
	 y="0px" viewBox="0 0 52.0730591 111.6516266" style="enable-background:new 0 0 52.0730591 111.6516266;" xml:space="preserve">
<style type="text/css">
	.st0{fill:none;stroke:#593E2E;stroke-width:3;stroke-linejoin:bevel;stroke-miterlimit:10;}
	.st1{fill:none;stroke:#D24A44;stroke-width:3;stroke-linejoin:bevel;stroke-miterlimit:10;}
	.st2{fill:none;stroke:#E39344;stroke-width:3;stroke-linejoin:bevel;stroke-miterlimit:10;}
	.st3{fill:#4D78BB;}
	.st4{fill:#4C628F;}
	.st5{fill:#4D6EA5;}
	.st6{fill:#4D6C9F;}
	.st7{opacity:0.15;fill:#FFFFFF;enable-background:new    ;}
	.st8{fill:#CCCCCC;}
	.st9{fill:#B3B3B3;}
	.st10{fill:#593E2E;}
	.st11{fill:none;}
	.st12{fill:#D24A43;}
	.st13{fill:#E39344;}
	.st14{fill:#CCCCCC;stroke:#B3B3B3;stroke-width:0.25;stroke-miterlimit:10;}
	.st15{fill:#F2F2F2;}
</style>
<g id="Шлейф_1_">
	<line class="st0" x1="23.1234779" y1="12.0995445" x2="23.1234779" y2="31.3495464"/>
	<line class="st1" x1="25.9672279" y1="12.0995445" x2="25.9672279" y2="31.3495464"/>
	<line class="st2" x1="28.9495811" y1="12.0995445" x2="28.9495811" y2="31.3495464"/>
</g>
<g id="Корпус">
	<g>
		<path class="st3" d="M27.7865295,111.4016266v-3.5253906c1.2070313-0.6152344,1.9501953-1.78125,1.9501953-3.0791016
			c0-1.9345703-1.6601563-3.5087891-3.7001953-3.5087891c-0.2763672,0-0.5571289,0.0283203-0.8339844,0.0859375
			c-1.3662109,0.2841797-2.4521484,1.3027344-2.765625,2.5966797c-0.3808594,1.5703125,0.3769531,3.1533203,1.8496094,3.9052734
			v3.5253906h-15.5v-90.5h15.5v3.5244141c-1.2070313,0.6162109-1.9501953,1.7822266-1.9501953,3.0800781
			c0,0.9399414,0.3867188,1.8232422,1.0888672,2.4868164c0.6982422,0.659668,1.6254883,1.0229492,2.6113281,1.0229492
			c0.2768555,0,0.5576172-0.0292969,0.8339844-0.0869141c1.3671875-0.2836914,2.4521484-1.3027344,2.765625-2.5966797
			c0.3808594-1.5698242-0.3769531-3.1533203-1.8496094-3.90625v-3.5244141h15.5v90.5H27.7865295z"/>
		<path class="st4" d="M43.0365295,21.1516285V48.550602v11.0176353v51.5833893h-15v-3.1246262
			c1.2108593-0.6751175,1.9500008-1.8860855,1.9500008-3.2296829c0-1.0097046-0.414463-1.9574051-1.1670265-2.6685181
			c-0.7447796-0.703743-1.7330303-1.091301-2.7827454-1.091301c-0.0000648,0-0.0001392,0-0.0002041,0
			c-0.2937622,0.0000153-0.5914879,0.0309372-0.8848991,0.0919037c-1.4604378,0.3034515-2.6214123,1.395546-2.9577141,2.7822495
			c-0.3966484,1.6355286,0.3557701,3.2833786,1.8425884,4.115097v3.1248779h-15V59.5682373V48.550602V21.1516285h15v3.1246243
			c-1.2108593,0.6751213-1.9500008,1.8860893-1.9500008,3.2296886c0,2.0731621,1.7719517,3.7598114,3.9499626,3.7598114
			c0.2937012,0,0.5914383-0.0309258,0.8849125-0.0918999c1.4604378-0.3034477,2.6214123-1.3955498,2.957716-2.7822495
			c0.3966446-1.6355247-0.355772-3.2833767-1.8425903-4.1150951v-3.1248798H43.0365295 M43.5365295,20.6516285h-16v3.9312134
			c1.3733501,0.6308994,2.2466621,2.0828743,1.8566742,3.6909103c-0.296587,1.2229385-1.3414364,2.1545525-2.5735111,2.410553
			c-0.2655926,0.0551834-0.5277271,0.0814438-0.7832031,0.0814438c-1.9054489,0-3.4499607-1.4594116-3.4499607-3.2598076
			c0-1.2899246,0.7996254-2.3945999,1.9500008-2.9230995v-3.9312134h-16V48.550602v11.0176353v52.0833893h16v-3.9312134
			c-1.3733501-0.6308975-2.2466621-2.0828705-1.8566742-3.6909103c0.296587-1.2229385,1.3414364-2.1545486,2.5735111-2.410553
			c0.2655926-0.0551834,0.5277386-0.0814362,0.7832146-0.0814514c1.9054489-0.0000916,3.4499493,1.4594193,3.4499493,3.259819
			c0,1.2899246-0.7996254,2.3945999-1.9500008,2.9230957v3.9312134h16V59.5682373V48.550602V20.6516285L43.5365295,20.6516285z"/>
	</g>
	<g>
		<rect x="8.7865295" y="34.4641266" class="st5" width="34.5" height="63.375"/>
		<path class="st4" d="M43.0365295,34.7141266v62.875h-34v-62.875H43.0365295 M43.5365295,34.2141266h-35v63.875h35V34.2141266
			L43.5365295,34.2141266z"/>
	</g>
	<g>
		<path class="st6" d="M26.0365295,75.8908844c-4.7807617,0-8.7924805-3.6025391-9.3310547-8.3789063l-0.0136719-0.1186523
			l-0.1005859-0.0644531c-4.887207-3.1152344-7.8046875-8.3540039-7.8046875-14.0131836
			c0-9.2402344,7.7382813-16.7578125,17.25-16.7578125s17.25,7.5175781,17.25,16.7578125
			c0,5.6591797-2.9179688,10.8979492-7.8056641,14.0131836l-0.1005859,0.0644531l-0.0126953,0.1186523
			C34.8285217,72.2883453,30.816803,75.8908844,26.0365295,75.8908844z"/>
		<path class="st4" d="M26.0365295,36.8078728c9.3738327,0,17,7.4053993,17,16.5078812
			c0,5.5736198-2.8745308,10.7334785-7.6893806,13.8026085l-0.2013283,0.1283417l-0.0267639,0.2372589
			c-0.5244675,4.650383-4.4291077,8.1572266-9.0825272,8.1572266s-8.5580597-3.5068436-9.082531-8.1572266l-0.0267601-0.2372589
			l-0.2013283-0.1283417c-4.8148508-3.0691299-7.6893806-8.228981-7.6893806-13.8026085
			C9.0365295,44.2132721,16.6627007,36.8078728,26.0365295,36.8078728 M26.0365295,36.3078728
			c-9.6649799,0-17.5,7.6146889-17.5,17.0078812c0,5.9541588,3.1538105,11.1857262,7.92062,14.2242393
			c0.5457993,4.8395386,4.6237392,8.6011963,9.57938,8.6011963c4.9555817,0,9.0335808-3.7616577,9.57938-8.6011963
			c4.7667999-3.0385132,7.92062-8.2700806,7.92062-14.2242393C43.5365295,43.9225616,35.7015076,36.3078728,26.0365295,36.3078728
			L26.0365295,36.3078728z"/>
	</g>
	<path class="st7" d="M40.1911926,53.2619705c0-0.1417236-0.0166016-0.2789307-0.0204468-0.4196777l-2.4110107-1.4406738
		l1.8809814-2.1535645c-0.0692749-0.2521973-0.145752-0.5003662-0.227478-0.7468262l-2.8010864-0.6381836l1.1818848-2.7642822
		c-0.1158447-0.1786499-0.2463989-0.3453979-0.3695068-0.5183716l-2.9951172,0.272583l0.2861328-3.1564941
		c-0.1207886-0.0974121-0.2439575-0.1915283-0.3678589-0.2849121l-2.9226074,1.2544556l-0.7349243-3.2384033
		c-0.097229-0.0350952-0.1914063-0.0768433-0.2895508-0.1098022l-2.5072632,2.1984253l-1.7319946-2.90979
		c-0.0420532-0.0003662-0.0827026-0.0065308-0.1248169-0.0065308s-0.0827637,0.0061646-0.1248169,0.0065308l-1.7319336,2.90979
		l-2.5073242-2.1984253c-0.0981445,0.032959-0.1923218,0.074707-0.2895508,0.1098022l-0.7349243,3.2384033l-2.9226074-1.2544556
		c-0.1238403,0.0933838-0.2470093,0.1875-0.3677979,0.2849121l0.2861328,3.1564941l-2.9951172-0.272583
		c-0.1231079,0.1729736-0.2537231,0.3397217-0.3695679,0.5183716l1.1818848,2.7642822l-2.8010864,0.6381836
		c-0.0817871,0.24646-0.1582031,0.4945679-0.227478,0.7467651l1.8810425,2.1536255l-2.4110718,1.4406738
		c-0.0038452,0.1407471-0.0204468,0.2780151-0.0204468,0.4196777s0.0166016,0.2789307,0.0204468,0.4196777l2.4110718,1.4406738
		l-1.8810425,2.1536255c0.0692749,0.2521973,0.1456909,0.5003052,0.227478,0.7467651l2.8010864,0.6381836l-1.1818848,2.7642822
		c0.1158447,0.1786499,0.24646,0.3453979,0.3695679,0.5183716l2.9951172-0.272583l-0.2861328,3.1564941
		c0.1207886,0.0974121,0.2439575,0.1915283,0.3677979,0.2849121l2.9226074-1.2544556l0.7349243,3.2384033
		c0.097229,0.0350952,0.1914063,0.0768433,0.2895508,0.1098022l2.5073242-2.1984253l1.7319336,2.90979
		c0.0420532,0.0003662,0.0827026,0.0065308,0.1248169,0.0065308s0.0827637-0.0061646,0.1248169-0.0065308l1.7319946-2.90979
		l2.5072632,2.1984253c0.0981445-0.032959,0.1923218-0.074707,0.2895508-0.1098022l0.7349243-3.2384033l2.9226074,1.2544556
		c0.1239014-0.0933838,0.2470703-0.1875,0.3678589-0.2849121l-0.2861328-3.1564941l2.9951172,0.272583
		c0.1231079-0.1729736,0.2536621-0.3397217,0.3695068-0.5183716l-1.1818848-2.7642822l2.8010864-0.6381836
		c0.0817261-0.24646,0.1582031-0.4946289,0.227478-0.7468262l-1.8809814-2.1535645l2.4110107-1.4406738
		C40.1745911,53.5409012,40.1911926,53.4036942,40.1911926,53.2619705z"/>
	<g>
		<path class="st8" d="M26.0366516,59.2099991c-3.2797852,0-5.9482422-2.668457-5.9482422-5.9482422
			s2.668457-5.9477539,5.9482422-5.9477539s5.9472656,2.6679688,5.9472656,5.9477539S29.3164368,59.2099991,26.0366516,59.2099991z"
			/>
		<path class="st9" d="M26.0365295,48.313961c2.7327099,0,4.9480095,2.2152977,4.9480095,4.9480095
			S28.7692394,58.20998,26.0365295,58.20998s-4.9480095-2.2152977-4.9480095-4.9480095S23.3038197,48.313961,26.0365295,48.313961
			 M26.0365295,46.313961c-3.8311501,0-6.9480095,3.1168594-6.9480095,6.9480095s3.1168594,6.9480095,6.9480095,6.9480095
			s6.9480095-3.1168594,6.9480095-6.9480095S29.8676796,46.313961,26.0365295,46.313961L26.0365295,46.313961z"/>
	</g>
</g>
<g id="Обозначения_1_">
	<circle class="st10" cx="41.3107109" cy="4.7159247" r="1.4664085"/>
	<g>
		<rect x="43.6531105" y="2.8095927" class="st11" width="3.5340996" height="3.812664"/>
		<path d="M46.7259827,6.354753c-0.203125,0.0732422-0.6044922,0.1933594-1.0800781,0.1933594
			c-0.5322266,0-0.9707031-0.1357422-1.3144531-0.4643555c-0.3027344-0.2924805-0.4912109-0.762207-0.4912109-1.3100586
			c0.0058594-1.0488281,0.7255859-1.815918,1.9052734-1.815918c0.4072266,0,0.7255859,0.0883789,0.8769531,0.1616211
			l-0.1103516,0.3706055c-0.1875-0.0834961-0.421875-0.1513672-0.7773438-0.1513672
			c-0.8554688,0-1.4140625,0.5322266-1.4140625,1.4140625c0,0.8925781,0.5371094,1.4194336,1.3564453,1.4194336
			c0.2978516,0,0.5009766-0.0415039,0.6054688-0.09375V5.0295577h-0.7148438V4.6643233h1.1582031V6.354753z"/>
	</g>
	<circle class="st12" cx="41.3199959" cy="9.6984348" r="1.4664087"/>
	<g>
		<rect x="43.7020874" y="7.8097291" class="st11" width="3.161438" height="3.7774124"/>
		<path d="M44.8705139,11.5114918l-1.1484375-3.5170903h0.4912109l0.5478516,1.7324224
			c0.1513672,0.4746094,0.28125,0.902832,0.3759766,1.3149414h0.0097656
			c0.0996094-0.4067383,0.2451172-0.8505859,0.4023438-1.3095703l0.5947266-1.7377934h0.4853516l-1.2578125,3.5170903H44.8705139z"
			/>
	</g>
	<circle class="st13" cx="41.3199959" cy="14.8167248" r="1.4664087"/>
	<g>
		<rect x="43.8900223" y="12.7746124" class="st11" width="2.7855682" height="3.812665"/>
		<path d="M44.223053,15.9231129c0.203125,0.1254883,0.5009766,0.2294922,0.8144531,0.2294922
			c0.4638672,0,0.7353516-0.2451172,0.7353516-0.6000977c0-0.3286133-0.1875-0.5166016-0.6630859-0.6992188
			c-0.5732422-0.2036133-0.9287109-0.5009766-0.9287109-0.996582c0-0.5478516,0.4541016-0.9550781,1.1376953-0.9550781
			c0.3603516,0,0.6210938,0.0834961,0.7773438,0.1723633l-0.125,0.3706055
			c-0.1142578-0.0629883-0.3496094-0.1669922-0.6679688-0.1669922c-0.4794922,0-0.6621094,0.2866211-0.6621094,0.5268555
			c0,0.3286133,0.2138672,0.4907227,0.6992188,0.6782227c0.5947266,0.2299805,0.8974609,0.5166016,0.8974609,1.0332031
			c0,0.5429688-0.4023438,1.0126953-1.2314453,1.0126953c-0.3398438,0-0.7099609-0.0991211-0.8984375-0.2246094
			L44.223053,15.9231129z"/>
	</g>
</g>
<g id="Качалка_1_">
	<path class="st14" d="M46.7039185,48.4035034c-0.0012207,0-0.0022583,0.0003662-0.003479,0.0003662v-0.0026245H33.9703979
		v0.0018311h-0.0061646L31.4211426,5.5349121c0-0.0041504,0.0012207-0.0080566,0.0012207-0.012207
		c0-2.9810791-2.4113159-5.3977051-5.3858643-5.3977051c-2.9744873,0-5.3858032,2.416626-5.3858032,5.3977051h-0.0003052
		l-2.5438232,42.8803711h-0.0061646v-0.0018311H5.3704224v0.0023804c-0.0004883,0-0.0008545-0.0001221-0.0013428-0.0001221
		c-2.8962402,0-5.2440796,2.3478394-5.2440796,5.2440796s2.3478394,5.2440796,5.2440796,5.2440796
		c0.0014648,0,0.0027466-0.0004272,0.0042114-0.0004272h12.7261963v0.000061h0.0009155l2.5518188,32.1997681
		c-0.000061,0.0089111-0.0026245,0.0171509-0.0026245,0.026062c0,0.074585,0.0189819,0.1439209,0.0219727,0.2177734
		l0.0488281,0.616333h0.0133057c0.4033203,2.5755615,2.612915,4.5516968,5.3016968,4.5516968
		c2.6888428,0,4.8984375-1.9761353,5.3017578-4.5516968h0.0232544l2.6099854-33.0599365h0.0031128v-0.000061H46.699707
		c0.0014648,0,0.0027466,0.0004272,0.0042114,0.0004272c2.8962402,0,5.2441406-2.3478394,5.2441406-5.2440796
		S49.6001587,48.4035034,46.7039185,48.4035034z M5.6861572,55.7799072c-1.1741333,0-2.1259766-0.9518433-2.1259766-2.1260376
		c0-1.1741333,0.9518433-2.1259766,2.1259766-2.1259766s2.1259766,0.9518433,2.1259766,2.1259766
		C7.8121338,54.828064,6.8602905,55.7799072,5.6861572,55.7799072z M13.5188599,55.7798462
		c-1.1741333,0-2.1259766-0.9518433-2.1259766-2.1259766s0.9518433-2.1259766,2.1259766-2.1259766
		s2.1259766,0.9518433,2.1259766,2.1259766S14.6929932,55.7798462,13.5188599,55.7798462z M26.0365601,27.4812012
		c1.1741333,0,2.1259766,0.9518433,2.1259766,2.1260376c0,1.1741352-0.9518433,2.1259785-2.1259766,2.1259785
		c-1.1741943,0-2.1260376-0.9518433-2.1260376-2.1259785C23.9105225,28.4330444,24.8623657,27.4812012,26.0365601,27.4812012z
		 M23.9105225,23.3127441c0-1.1741943,0.9518433-2.1259766,2.1260376-2.1259766
		c1.1741333,0,2.1259766,0.9517822,2.1259766,2.1259766c0,1.1741333-0.9518433,2.1259766-2.1259766,2.1259766
		C24.8623657,25.4387207,23.9105225,24.4868774,23.9105225,23.3127441z M26.0368042,37.9280396
		c-1.1741333,0-2.1259766-0.9518433-2.1259766-2.1259766c0-1.1741943,0.9518433-2.1259766,2.1259766-2.1259766
		c1.1741943,0,2.1259766,0.9517822,2.1259766,2.1259766C28.1627808,36.9761963,27.2109985,37.9280396,26.0368042,37.9280396z
		 M28.1625366,42.2476807c0,1.1741333-0.9518433,2.1259766-2.1259766,2.1259766
		c-1.1741943,0-2.1260376-0.9518433-2.1260376-2.1259766s0.9518433-2.1259766,2.1260376-2.1259766
		C27.2106934,40.1217041,28.1625366,41.0735474,28.1625366,42.2476807z M26.0365601,2.0360107
		c1.1741333,0,2.1259766,0.9518433,2.1259766,2.1259766c0,1.1741943-0.9518433,2.1259766-2.1259766,2.1259766
		c-1.1741943,0-2.1260376-0.9517822-2.1260376-2.1259766C23.9105225,2.987854,24.8623657,2.0360107,26.0365601,2.0360107z
		 M26.0354614,7.8084102c1.1741333,0,2.1259766,0.9517827,2.1259766,2.125977c0,1.1741333-0.9518433,2.1259766-2.1259766,2.1259766
		c-1.1741943,0-2.1260376-0.9518433-2.1260376-2.1259766C23.9094238,8.7601929,24.8612671,7.8084102,26.0354614,7.8084102z
		 M26.0354614,14.8922729c1.1741333,0,2.1259766,0.9518433,2.1259766,2.1259766s-0.9518433,2.1259766-2.1259766,2.1259766
		c-1.1741943,0-2.1260376-0.9518433-2.1260376-2.1259766S24.8612671,14.8922729,26.0354614,14.8922729z M26.0354614,67.8814087
		c1.1741333,0,2.1259766,0.9518433,2.1259766,2.1259766s-0.9518433,2.1259766-2.1259766,2.1259766
		c-1.1741943,0-2.1260376-0.9518433-2.1260376-2.1259766S24.8612671,67.8814087,26.0354614,67.8814087z M23.9105225,64.3109741
		c0-1.1741943,0.9518433-2.1259766,2.1260376-2.1259766c1.1741333,0,2.1259766,0.9517822,2.1259766,2.1259766
		c0,1.1741333-0.9518433,2.1259766-2.1259766,2.1259766C24.8623657,66.4369507,23.9105225,65.4851074,23.9105225,64.3109741z
		 M26.0354614,73.5778198c1.1741333,0,2.1259766,0.9518433,2.1259766,2.1259766s-0.9518433,2.1259766-2.1259766,2.1259766
		c-1.1741943,0-2.1260376-0.9518433-2.1260376-2.1259766S24.8612671,73.5778198,26.0354614,73.5778198z M26.0368042,94.9190674
		c-1.1741333,0-2.1259766-0.9518433-2.1259766-2.1260376c0-1.1741333,0.9518433-2.1259766,2.1259766-2.1259766
		c1.1741943,0,2.1259766,0.9518433,2.1259766,2.1259766C28.1627808,93.9672241,27.2109985,94.9190674,26.0368042,94.9190674z
		 M23.9094238,87.0966187c0-1.1741333,0.9518433-2.1259766,2.1260376-2.1259766
		c1.1741333,0,2.1259766,0.9518433,2.1259766,2.1259766c0,1.1741943-0.9518433,2.1259766-2.1259766,2.1259766
		C24.8612671,89.2225952,23.9094238,88.270813,23.9094238,87.0966187z M26.0368042,83.5261841
		c-1.1741333,0-2.1259766-0.9518433-2.1259766-2.1259766s0.9518433-2.1259766,2.1259766-2.1259766
		c1.1741943,0,2.1259766,0.9518433,2.1259766,2.1259766S27.2109985,83.5261841,26.0368042,83.5261841z M26.0354004,57.1972656
		c-1.9569092,0-3.5432739-1.5864258-3.5432739-3.543335s1.5863647-3.543335,3.5432739-3.543335
		s3.543335,1.5864258,3.543335,3.543335S27.9923096,57.1972656,26.0354004,57.1972656z M38.4788208,55.7798462
		c-1.1741333,0-2.1259766-0.9517822-2.1259766-2.1259766c0-1.1741333,0.9518433-2.1259766,2.1259766-2.1259766
		s2.1259766,0.9518433,2.1259766,2.1259766C40.6047974,54.828064,39.6529541,55.7798462,38.4788208,55.7798462z
		 M46.3115234,55.7799072c-1.1741943,0-2.1260376-0.9518433-2.1260376-2.1259766
		c0-1.1741943,0.9518433-2.1259766,2.1260376-2.1259766c1.1741333,0,2.1259766,0.9517822,2.1259766,2.1259766
		C48.4375,54.828064,47.4856567,55.7799072,46.3115234,55.7799072z"/>
	<g>
		<path class="st8" d="M26.0364056,59.6018448c-3.2792969,0-5.9477539-2.6679688-5.9477539-5.9477539
			s2.668457-5.9482422,5.9477539-5.9482422c3.2802734,0,5.9482441,2.668457,5.9482441,5.9482422
			S29.316679,59.6018448,26.0364056,59.6018448z"/>
		<path class="st9" d="M26.0368023,48.7059212c2.7327099,0,4.9480114,2.2152977,4.9480114,4.9480095
			c0,2.7326965-2.2153015,4.9480133-4.9480114,4.9480133s-4.9480095-2.2153168-4.9480095-4.9480133
			C21.0887928,50.9212189,23.3040924,48.7059212,26.0368023,48.7059212 M26.0368023,46.7059212
			c-3.8311501,0-6.9480095,3.1168594-6.9480095,6.9480095s3.1168594,6.9480133,6.9480095,6.9480133
			s6.9480114-3.1168671,6.9480114-6.9480133S29.8679543,46.7059212,26.0368023,46.7059212L26.0368023,46.7059212z"/>
	</g>
	<path class="st15" d="M27.1083679,48.8299561c-0.3463135-0.0767822-0.7034912-0.1240234-1.072937-0.1240234
		s-0.7266235,0.0472412-1.072937,0.1240234v3.7400513h-3.7476196c-0.0784302,0.3498535-0.1274414,0.7104492-0.1274414,1.0839233
		c0,0.3654175,0.0454712,0.7191162,0.1206055,1.0619507h3.7544556v3.7620239
		c0.3463135,0.0767822,0.7034912,0.1240234,1.072937,0.1240234s0.7266235-0.0472412,1.072937-0.1240234v-3.7620239h3.7544556
		c0.0751343-0.3428345,0.1206055-0.6965332,0.1206055-1.0619507c0-0.3734741-0.0490112-0.7340698-0.1274414-1.0839233h-3.7476196
		V48.8299561z"/>
</g>
</svg>
