<?xml version="1.0" encoding="utf-8"?>
<!-- Generator: Adobe Illustrator 23.0.2, SVG Export Plug-In . SVG Version: 6.00 Build 0)  -->
<svg version="1.1" id="Слой_1" xmlns="http://www.w3.org/2000/svg" xmlns:xlink="http://www.w3.org/1999/xlink" x="0px" y="0px"
	 viewBox="0 0 85.0393677 85.0393677" style="enable-background:new 0 0 85.0393677 85.0393677;" xml:space="preserve">
<style type="text/css">
	.st0{fill:#19191A;}
	.st1{fill:#9E9B9C;}
	.st2{fill:#CEC7BD;}
	.st3{fill:#E5E4E0;}
	.st4{fill:#918C84;}
	.st5{fill:none;stroke:#F6F6F6;stroke-width:0.75;stroke-miterlimit:10;}
	.st6{fill:none;stroke:#F6F6F6;stroke-width:0.6790737;stroke-miterlimit:10;}
	.st7{fill:#151616;}
	.st8{fill:#CCCCCC;}
	.st9{fill:#7B7B7B;}
	.st10{fill:#FFFFFF;}
	.st11{fill:#9C9B9B;}
	.st12{fill:#CBC5BA;}
	.st13{fill:#35322E;}
	.st14{fill:#B3B3B2;}
	.st15{fill:#4E8B5C;}
	.st16{opacity:0.5;fill:url(#SVGID_1_);}
	.st17{opacity:0.1;fill:#B3B3B3;}
	.st18{opacity:0.5;fill:url(#SVGID_2_);}
	.st19{fill:#B3B3B3;}
	.st20{opacity:0.5;fill:url(#SVGID_3_);}
	.st21{opacity:0.5;fill:url(#SVGID_4_);}
	.st22{opacity:0.5;fill:url(#SVGID_5_);}
	.st23{opacity:0.5;fill:url(#SVGID_6_);}
</style>
<g id="Фон">
	<path class="st0" d="M0,0v85.039978h85.039978V0H0z M9.9212646,79.5117798c-2.4264526,0-4.3936768-1.9667969-4.3936768-4.3926392
		c0-2.4279175,1.9672241-4.3947754,4.3936768-4.3947754s4.3936768,1.9668579,4.3936768,4.3947754
		C14.3149414,77.5449829,12.3477173,79.5117798,9.9212646,79.5117798z M9.9223022,14.3149414
		c-2.4279175,0-4.3947144-1.9667969-4.3947144-4.3927002c0-2.4279175,1.9667969-4.3947144,4.3947144-4.3947144
		c2.4258423,0,4.3926392,1.9667969,4.3926392,4.3947144C14.3149414,12.3481445,12.3481445,14.3149414,9.9223022,14.3149414z
		 M75.1170654,79.5117798c-2.4258423,0-4.3926392-1.968811-4.3926392-4.3947144
		c0-2.4258423,1.9667969-4.3927002,4.3926392-4.3927002c2.4279175,0,4.3947754,1.9668579,4.3947754,4.3927002
		C79.5118408,77.5429688,77.5449829,79.5117798,75.1170654,79.5117798z M75.1191406,14.3149414
		c-2.4279175,0-4.3947144-1.9667969-4.3947144-4.3927002c0-2.4279175,1.9667969-4.3947144,4.3947144-4.3947144
		c2.4258423,0,4.3927002,1.9667969,4.3927002,4.3947144C79.5118408,12.3481445,77.5449829,14.3149414,75.1191406,14.3149414z"/>
	<path class="st1" d="M75.118103,3.9458008c-3.300293,0-5.9754028,2.6751709-5.9754028,5.9754639
		c0,3.3002319,2.6751099,5.9754028,5.9754028,5.9754028s5.9754639-2.6751709,5.9754639-5.9754028
		C81.0935669,6.6209717,78.418396,3.9458008,75.118103,3.9458008z M75.1191406,14.3149414
		c-2.4279175,0-4.3947144-1.9667969-4.3947144-4.3927002c0-2.4279175,1.9667969-4.3947144,4.3947144-4.3947144
		c2.4258423,0,4.3927002,1.9667969,4.3927002,4.3947144C79.5118408,12.3481445,77.5449829,14.3149414,75.1191406,14.3149414z"/>
	<path class="st1" d="M75.118103,69.1426392c-3.2987671,0-5.9754028,2.6751709-5.9754028,5.9754639
		s2.6766357,5.9754028,5.9754028,5.9754028c3.300293,0,5.9754639-2.6751099,5.9754639-5.9754028
		S78.418396,69.1426392,75.118103,69.1426392z M75.1170654,79.5117798c-2.4258423,0-4.3926392-1.968811-4.3926392-4.3947144
		c0-2.4258423,1.9667969-4.3927002,4.3926392-4.3927002c2.4279175,0,4.3947754,1.9668579,4.3947754,4.3927002
		C79.5118408,77.5429688,77.5449829,79.5117798,75.1170654,79.5117798z"/>
	<path class="st1" d="M9.9212646,69.1426392c-3.300293,0-5.9754639,2.6751709-5.9754639,5.9754639
		s2.6751709,5.9754028,5.9754639,5.9754028s5.9754028-2.6751099,5.9754028-5.9754028S13.2215576,69.1426392,9.9212646,69.1426392z
		 M9.9212646,79.5117798c-2.4264526,0-4.3936768-1.9667969-4.3936768-4.3926392
		c0-2.4279175,1.9672241-4.3947754,4.3936768-4.3947754s4.3936768,1.9668579,4.3936768,4.3947754
		C14.3149414,77.5449829,12.3477173,79.5117798,9.9212646,79.5117798z"/>
	<path class="st1" d="M9.9212646,3.9458008c-3.2877808,0-5.9527588,2.6751709-5.9527588,5.9754639
		c0,3.3002319,2.664978,5.9754028,5.9527588,5.9754028c3.2877197,0,5.9527588-2.6751709,5.9527588-5.9754028
		C15.8740234,6.6209717,13.2089844,3.9458008,9.9212646,3.9458008z M9.9223022,14.3149414
		c-2.4279175,0-4.3947144-1.9667969-4.3947144-4.3927002c0-2.4279175,1.9667969-4.3947144,4.3947144-4.3947144
		c2.4258423,0,4.3926392,1.9667969,4.3926392,4.3947144C14.3149414,12.3481445,12.3481445,14.3149414,9.9223022,14.3149414z"/>
</g>
<g id="Колодка">
	<path class="st2" d="M30.0972519,76.39431c0,1.2273636-1.0018463,2.2224731-2.2397385,2.2224731
		s-2.2415428-0.9951096-2.2415428-2.2224731s1.0036507-2.2224731,2.2415428-2.2224731S30.0972519,75.1669464,30.0972519,76.39431z"
		/>
	<g>
		<path class="st3" d="M35.5478516,81.5371094c0.3588867,0,0.640625,0.0810547,0.8447266,0.2441406
			c0.2045898,0.1630859,0.3066406,0.3876953,0.3066406,0.6748047c0,0.1582031-0.0429688,0.2958984-0.128418,0.4121094
			s-0.2104492,0.2099609-0.3754883,0.2822266c0.1865234,0.0546875,0.3208008,0.1455078,0.402832,0.2724609
			c0.081543,0.1269531,0.1225586,0.2841797,0.1225586,0.4726563v0.1591797c0,0.0693359,0.0136719,0.1220703,0.0415039,0.1601563
			c0.0273438,0.0380859,0.0732422,0.0605469,0.1367188,0.0683594l0.078125,0.0107422v0.3789063h-0.328125
			c-0.2070313,0-0.3525391-0.0556641-0.4365234-0.1660156s-0.1259766-0.2529297-0.1259766-0.4287109v-0.1787109
			c0-0.1523438-0.0410156-0.2714844-0.1225586-0.3583984c-0.0820313-0.0869141-0.1972656-0.1328125-0.3466797-0.1367188h-0.519043
			v0.8271484l0.3388672,0.0644531v0.3769531h-1.3100586v-0.3769531l0.3369141-0.0644531v-2.2509766l-0.3369141-0.0644531v-0.3789063
			h0.3369141H35.5478516z M35.0981445,82.9199219h0.4389648c0.1762695,0,0.309082-0.0380859,0.3974609-0.1123047
			S36.0668945,82.625,36.0668945,82.484375s-0.0439453-0.2529297-0.1313477-0.3369141
			c-0.0878906-0.0839844-0.2167969-0.1259766-0.3876953-0.1259766h-0.449707V82.9199219z"/>
		<path class="st3" d="M38.4584961,81.5371094v0.3789063l-0.3388672,0.0644531v1.6367188
			c0,0.2070313,0.0561523,0.3613281,0.168457,0.4648438c0.1123047,0.1025391,0.2661133,0.1533203,0.4614258,0.1533203
			c0.1987305,0,0.3544922-0.0507813,0.4672852-0.1523438c0.112793-0.1025391,0.1694336-0.2578125,0.1694336-0.4658203v-1.6367188
			l-0.3369141-0.0644531v-0.3789063h1.3100586v0.3789063l-0.3388672,0.0644531v1.6367188
			c0,0.3525391-0.1166992,0.6230469-0.3505859,0.8144531s-0.5410156,0.2861328-0.9204102,0.2861328
			c-0.3779297,0-0.6831055-0.0947266-0.9155273-0.2861328s-0.3486328-0.4619141-0.3486328-0.8144531v-1.6367188
			l-0.3364258-0.0644531v-0.3789063h0.3364258h0.6342773H38.4584961z"/>
		<path class="st3" d="M42.9492188,82.5380859h-0.4760742l-0.0825195-0.4306641
			c-0.0546875-0.0341797-0.1352539-0.0644531-0.2407227-0.0898438c-0.105957-0.0263672-0.2182617-0.0390625-0.3369141-0.0390625
			c-0.1738281,0-0.3081055,0.0361328-0.402832,0.1083984c-0.0952148,0.0722656-0.1425781,0.1660156-0.1425781,0.28125
			c0,0.1064453,0.0498047,0.1933594,0.1489258,0.2617188s0.2705078,0.140625,0.5136719,0.2167969
			c0.3491211,0.0957031,0.6137695,0.2226563,0.7939453,0.3808594c0.1806641,0.1582031,0.2705078,0.3652344,0.2705078,0.6220703
			c0,0.2685547-0.1069336,0.4804688-0.3212891,0.6357422s-0.4970703,0.2324219-0.847168,0.2324219
			c-0.2509766,0-0.4770508-0.0390625-0.6791992-0.1181641c-0.2016602-0.0791016-0.3701172-0.1884766-0.5048828-0.3271484v-0.6552734
			h0.4907227l0.0673828,0.4462891c0.0639648,0.0517578,0.1503906,0.0947266,0.2597656,0.1279297
			c0.109375,0.0341797,0.2314453,0.0507813,0.3662109,0.0507813c0.1738281,0,0.3056641-0.0351563,0.3964844-0.1054688
			c0.090332-0.0703125,0.1357422-0.1650391,0.1357422-0.2822266c0-0.1210938-0.043457-0.2177734-0.1293945-0.2910156
			c-0.0864258-0.0732422-0.2373047-0.1416016-0.453125-0.2070313c-0.375-0.1074219-0.6586914-0.2353516-0.8515625-0.3828125
			c-0.1923828-0.1484375-0.2885742-0.3505859-0.2885742-0.6074219c0-0.2539063,0.1083984-0.4619141,0.3256836-0.6240234
			c0.2172852-0.1611328,0.4902344-0.2441406,0.8188477-0.2480469c0.2431641,0,0.4648438,0.0361328,0.6650391,0.109375
			c0.199707,0.0732422,0.3676758,0.1708984,0.5039063,0.2929688V82.5380859z"/>
		<path class="st3" d="M45.6464844,82.5380859H45.171875l-0.0839844-0.4306641
			c-0.0546875-0.0341797-0.1347656-0.0644531-0.2402344-0.0898438c-0.1054688-0.0263672-0.21875-0.0390625-0.3378906-0.0390625
			c-0.1738281,0-0.3066406,0.0361328-0.4023438,0.1083984c-0.0947266,0.0722656-0.1416016,0.1660156-0.1416016,0.28125
			c0,0.1064453,0.0498047,0.1933594,0.1484375,0.2617188s0.2705078,0.140625,0.5146484,0.2167969
			c0.3476563,0.0957031,0.6132813,0.2226563,0.7929688,0.3808594s0.2714844,0.3652344,0.2714844,0.6220703
			c0,0.2685547-0.1074219,0.4804688-0.3222656,0.6357422S44.875,84.7177734,44.5234375,84.7177734
			c-0.25,0-0.4765625-0.0390625-0.6782227-0.1181641s-0.3701172-0.1884766-0.5048828-0.3271484v-0.6552734h0.4907227
			l0.0673828,0.4462891c0.0639648,0.0517578,0.1503906,0.0947266,0.2597656,0.1279297
			c0.109375,0.0341797,0.2304688,0.0507813,0.3652344,0.0507813c0.1738281,0,0.3066406-0.0351563,0.3964844-0.1054688
			s0.1367188-0.1650391,0.1367188-0.2822266c0-0.1210938-0.0429688-0.2177734-0.1308594-0.2910156
			c-0.0859375-0.0732422-0.2363281-0.1416016-0.4511719-0.2070313c-0.3759766-0.1074219-0.6591797-0.2353516-0.8520508-0.3828125
			c-0.1923828-0.1484375-0.2885742-0.3505859-0.2885742-0.6074219c0-0.2539063,0.1083984-0.4619141,0.3256836-0.6240234
			c0.2172852-0.1611328,0.4887695-0.2441406,0.8188477-0.2480469c0.2421875,0,0.4648438,0.0361328,0.6640625,0.109375
			s0.3671875,0.1708984,0.5039063,0.2929688V82.5380859z"/>
		<path class="st3" d="M45.9394531,81.9160156v-0.3789063H47.25v0.3789063l-0.3388672,0.0644531v2.2509766L47.25,84.2958984
			v0.3769531h-1.3105469v-0.3769531l0.3388672-0.0644531v-2.2509766L45.9394531,81.9160156z"/>
		<path class="st3" d="M47.4580078,84.2958984l0.2265625-0.0322266l0.9619141-2.7265625h0.6494141l0.9560547,2.7265625
			l0.2255859,0.0322266v0.3769531h-1.0771484v-0.3769531l0.2197266-0.0390625l-0.1396484-0.4306641h-1.0253906l-0.1386719,0.4306641
			l0.2197266,0.0390625v0.3769531h-1.078125V84.2958984z M48.6054688,83.3632813h0.7255859l-0.3564453-1.1044922h-0.0126953
			L48.6054688,83.3632813z"/>
	</g>
	<ellipse class="st4" cx="27.8566113" cy="76.39431" rx="1.5316002" ry="1.5185714"/>
	<path class="st5" d="M45.3548813,65.6086121"/>
	<path class="st2" d="M37.3255997,76.39431c0,1.2273636-1.0018463,2.2224731-2.2397385,2.2224731
		c-1.237896,0-2.2415428-0.9951096-2.2415428-2.2224731s1.0036469-2.2224731,2.2415428-2.2224731
		C36.3237534,74.1718369,37.3255997,75.1669464,37.3255997,76.39431z"/>
	<ellipse class="st4" cx="35.0849571" cy="76.39431" rx="1.5316002" ry="1.5185714"/>
	<path class="st2" d="M44.5255966,76.39431c0,1.2273636-1.0018463,2.2224731-2.2397385,2.2224731
		s-2.2415428-0.9951096-2.2415428-2.2224731s1.0036507-2.2224731,2.2415428-2.2224731S44.5255966,75.1669464,44.5255966,76.39431z"
		/>
	<ellipse class="st4" cx="42.2849579" cy="76.39431" rx="1.5316002" ry="1.5185714"/>
	<path class="st2" d="M51.1130257,74.7653885c1.5395126,2.0229111-0.1709824,4.2713013-2.1831665,3.7839966
		c-0.7743721-0.1875305-1.4096413-0.8210754-1.5987854-1.5950546
		C46.8394775,74.9427032,49.0885391,73.2249908,51.1130257,74.7653885z"/>
	<ellipse class="st4" cx="49.4849586" cy="76.39431" rx="1.5316002" ry="1.5185714"/>
	<path class="st2" d="M58.3130264,74.7653885c1.5395126,2.0229111-0.1709862,4.2713013-2.1831703,3.7840042
		c-0.7743683-0.1875381-1.4096413-0.8210831-1.5987816-1.5950623
		C54.0394783,74.9427032,56.2885399,73.2249908,58.3130264,74.7653885z"/>
	<ellipse class="st4" cx="56.6849556" cy="76.39431" rx="1.5316002" ry="1.5185714"/>
	<g>
		<g>
			<path class="st3" d="M47.8378906,72.90625v-0.5273438l1.6767578-2.0703125
				c0.2998047-0.3720703,0.5039063-0.6679688,0.6103516-0.8867188s0.1601563-0.4423828,0.1601563-0.671875
				c0-0.2841797-0.0751953-0.5224609-0.2255859-0.7167969c-0.1494141-0.1943359-0.3476563-0.2910156-0.59375-0.2910156
				c-0.3544922,0-0.6142578,0.1005859-0.7802734,0.3007813c-0.1669922,0.2001953-0.25,0.484375-0.25,0.8515625h-0.6640625
				l-0.0078125-0.0234375c-0.0117188-0.4892578,0.1347656-0.9013672,0.4384766-1.234375
				c0.3027344-0.3330078,0.7246094-0.5,1.2636719-0.5c0.4619141,0,0.8291016,0.1494141,1.1015625,0.4472656
				c0.2734375,0.2978516,0.4101563,0.6777344,0.4101563,1.1386719c0,0.3095703-0.0830078,0.6201172-0.2480469,0.9296875
				S50.3320313,70.296875,50.03125,70.65625l-1.3457031,1.6289063l0.0068359,0.0195313h1.8173828l0.0566406-0.6523438h0.5869141
				V72.90625H47.8378906z"/>
		</g>
	</g>
	<g>
		<path class="st3" d="M41.4833984,67.7138672l-0.4672852,0.0820313l1.1459961,3.6953125l0.1162109,0.4492188h0.0209961
			l0.1157227-0.4492188l1.1425781-3.6992188l-0.4604492-0.078125v-0.4960938h1.6137695v0.4960938l-0.4111328,0.0625
			l-1.7158203,5.1289063h-0.5942383l-1.715332-5.1289063l-0.4082031-0.0625v-0.4960938h1.6171875V67.7138672z"/>
	</g>
	<g>
		<path class="st3" d="M36.9711914,72.2607422c-0.1499023,0.1748047-0.371582,0.3388672-0.6645508,0.4941406
			s-0.6738281,0.2324219-1.1425781,0.2324219c-0.684082,0-1.2426758-0.2666016-1.675293-0.8007813
			c-0.4321289-0.5341797-0.6484375-1.2265625-0.6484375-2.078125v-0.09375c0-0.8564453,0.2138672-1.5507813,0.6416016-2.0820313
			s0.996582-0.796875,1.7070313-0.796875c0.3793945,0,0.7128906,0.0654297,1,0.1972656s0.5292969,0.3056641,0.7260742,0.5214844
			v1.03125h-0.4853516l-0.168457-0.7851563c-0.1152344-0.1044922-0.2539063-0.1904297-0.4169922-0.2578125
			c-0.1625977-0.0673828-0.3579102-0.1015625-0.5849609-0.1015625c-0.5532227,0-0.9794922,0.2099609-1.2783203,0.6308594
			s-0.4482422,0.9658203-0.4482422,1.6347656v0.1015625c0,0.6796875,0.1450195,1.2294922,0.4345703,1.6484375
			c0.2890625,0.4189453,0.6884766,0.6289063,1.1967773,0.6289063c0.2788086,0,0.5073242-0.0322266,0.6855469-0.0976563
			s0.3212891-0.1367188,0.4291992-0.2148438v-1.2460938l-0.840332-0.0390625v-0.5664063h1.5327148V72.2607422z"/>
	</g>
	<g>
		<path class="st3" d="M26.7988281,72.4140625l0.7910156-0.109375v-4.2617188l-0.8051758,0.015625V67.578125l1.4980469-0.359375
			v5.0859375l0.7871094,0.109375V72.90625h-2.2709961V72.4140625z"/>
	</g>
	<ellipse class="st4" cx="27.8566113" cy="76.39431" rx="1.5316002" ry="1.5185714"/>
	<g>
		<path class="st3" d="M56.0166016,69.7060547h0.6044922c0.3076172,0,0.5244141-0.0849609,0.6523438-0.2558594
			s0.1914063-0.4082031,0.1914063-0.7128906c0-0.3251953-0.0722656-0.5732422-0.2177734-0.7421875
			s-0.359375-0.2539063-0.6435547-0.2539063c-0.2695313,0-0.4853516,0.0878906-0.6484375,0.2636719
			s-0.2441406,0.4091797-0.2441406,0.7011719h-0.6650391l-0.0068359-0.0234375
			c-0.0117188-0.4296875,0.1289063-0.7949219,0.4199219-1.0957031c0.2919922-0.3007813,0.6738281-0.4511719,1.1445313-0.4511719
			c0.4736328,0,0.8505859,0.1396484,1.1318359,0.4199219s0.421875,0.6787109,0.421875,1.1972656
			c0,0.234375-0.0634766,0.4677734-0.1914063,0.7011719s-0.3193359,0.4111328-0.5742188,0.5332031
			c0.3066406,0.1123047,0.5244141,0.2880859,0.6513672,0.5273438c0.1279297,0.2392578,0.1923828,0.5078125,0.1923828,0.8046875
			c0,0.5185547-0.1533203,0.9257813-0.4589844,1.2226563s-0.6972656,0.4453125-1.1728516,0.4453125
			c-0.46875,0-0.8554688-0.1396484-1.1601563-0.4199219s-0.4511719-0.6591797-0.4394531-1.1386719l0.0107422-0.0234375h0.6611328
			c0,0.2998047,0.0820313,0.5380859,0.2480469,0.7148438c0.1650391,0.1767578,0.3916016,0.265625,0.6796875,0.265625
			c0.2929688,0,0.5224609-0.0888672,0.6894531-0.265625c0.1660156-0.1767578,0.2490234-0.4384766,0.2490234-0.7851563
			c0-0.3515625-0.0732422-0.6103516-0.2207031-0.7773438c-0.1484375-0.1669922-0.3808594-0.25-0.7001953-0.25h-0.6044922V69.7060547
			z"/>
	</g>
	<line class="st5" x1="53.1749344" y1="80.2982788" x2="53.1816292" y2="65.4208374"/>
	<line class="st5" x1="45.8991013" y1="65.4255753" x2="45.8991013" y2="80.253952"/>
	<line class="st5" x1="38.6625595" y1="80.2369461" x2="38.6625557" y2="65.4096298"/>
	<line class="st5" x1="31.3894939" y1="65.4208374" x2="31.3894939" y2="80.2982788"/>
	<polygon class="st6" points="60.4146423,65.4311829 60.4146423,80.3038864 24.1529503,80.3038864 24.1529503,65.4217834 	"/>
	<rect x="17.4474373" y="65.0800171" class="st3" width="5.7055125" height="6.2663264"/>
	<g>
		<path class="st7" d="M20.2822266,66.0810547c0.5615234,0,1.0131836,0.171875,1.3549805,0.5136719
			c0.3417969,0.34375,0.5126953,0.7861328,0.5126953,1.3291016v0.5830078c0,0.5449219-0.1708984,0.9882813-0.5126953,1.328125
			c-0.3417969,0.3417969-0.793457,0.5117188-1.3549805,0.5117188h-1.8022461v-0.3691406l0.4814453-0.0820313v-3.3603516
			l-0.4814453-0.0820313v-0.3720703h0.4814453H20.2822266z M19.543457,66.5351563v3.3603516h0.7387695
			c0.3979492,0,0.7114258-0.1298828,0.940918-0.3896484s0.3442383-0.5927734,0.3442383-0.9990234v-0.5888672
			c0-0.4023438-0.1147461-0.7333984-0.3442383-0.9931641s-0.5429688-0.3896484-0.940918-0.3896484H19.543457z"/>
	</g>
</g>
<g id="Переключатель">
	<g>
		<rect x="52.0122833" y="45.0554085" class="st8" width="2.6192358" height="1.559082"/>
		<rect x="52.0122833" y="52.2997932" class="st8" width="2.6192358" height="1.559082"/>
		<rect x="30.4084587" y="45.0554085" class="st8" width="2.6192358" height="1.559082"/>
		<rect x="30.4084587" y="52.2997932" class="st8" width="2.6192358" height="1.559082"/>
		
			<rect x="33.0276947" y="45.0554085" transform="matrix(-1 -1.224647e-16 1.224647e-16 -1 85.039978 98.9142838)" class="st9" width="18.9845886" height="8.8034668"/>
		
			<rect x="41.117466" y="52.4267464" transform="matrix(6.123234e-17 -1 1 6.123234e-17 -9.8166103 98.8360596)" class="st10" width="6.7845154" height="3.7991714"/>
		
			<rect x="33.4706345" y="43.6224747" transform="matrix(6.123234e-17 -1 1 6.123234e-17 -9.035696 79.5962067)" class="st11" width="3.6192365" height="1.3869549"/>
		
			<rect x="43.7001076" y="43.6224747" transform="matrix(6.123234e-17 -1 1 6.123234e-17 1.1937737 89.825676)" class="st11" width="3.6192365" height="1.3869549"/>
		
			<rect x="47.9501076" y="43.6224747" transform="matrix(6.123234e-17 -1 1 6.123234e-17 5.4437737 94.075676)" class="st11" width="3.6192365" height="1.3869549"/>
		<path class="st8" d="M34.5867767,53.8588753h15.8664246v-0.7052116c0-0.4715805,0.3822937-0.8538704,0.8538704-0.8538704
			h0.7052116v-5.6853027h-0.7052116c-0.4715767,0-0.8538704-0.3822899-0.8538704-0.8538704v-0.7052116H34.5867767v0.7052116
			c0,0.4715805-0.3822899,0.8538704-0.8538704,0.8538704h-0.7052116v5.6853027h0.7052116
			c0.4715805,0,0.8538704,0.3822899,0.8538704,0.8538704V53.8588753z"/>
	</g>
	<g>
		<path class="st10" d="M51.9013672,55.2294922v1.6923828c-0.0009766,0.234375-0.0742188,0.4267578-0.2207031,0.5751953
			c-0.1464844,0.1494141-0.3457031,0.2333984-0.5957031,0.2519531l-0.0869141,0.0029297
			c-0.2724609,0-0.4902344-0.0732422-0.6513672-0.2207031c-0.1621094-0.1464844-0.2441406-0.3486328-0.2460938-0.6064453v-1.6953125
			h0.3242188v1.6855469c0,0.1796875,0.0498047,0.3193359,0.1494141,0.4189453
			c0.0986328,0.0996094,0.2402344,0.1494141,0.4238281,0.1494141c0.1855469,0,0.3271484-0.0488281,0.4257813-0.1484375
			c0.0986328-0.0986328,0.1484375-0.2382813,0.1484375-0.4189453v-1.6865234H51.9013672z"/>
		<path class="st10" d="M52.5732422,56.7441406v0.9736328h-0.328125v-2.4882813h0.9169922
			c0.2724609,0,0.4863281,0.0693359,0.640625,0.2089844c0.1542969,0.1386719,0.2314453,0.3222656,0.2314453,0.5517578
			c0,0.2412109-0.0761719,0.4277344-0.2265625,0.5576172c-0.1513672,0.1308594-0.3671875,0.1962891-0.6484375,0.1962891H52.5732422z
			 M52.5732422,56.4755859h0.5888672c0.1757813,0,0.3105469-0.0410156,0.4033203-0.1240234
			c0.09375-0.0830078,0.140625-0.2021484,0.140625-0.3583984c0-0.1484375-0.046875-0.2675781-0.140625-0.3564453
			c-0.0927734-0.0888672-0.2216797-0.1357422-0.3837891-0.1386719h-0.6083984V56.4755859z"/>
	</g>
	<g>
		<path class="st10" d="M28.4282227,57.7177734v-2.4882813h0.7021484c0.2163086,0,0.4077148,0.0478516,0.5742188,0.1435547
			s0.2949219,0.2324219,0.3852539,0.4082031c0.0908203,0.1767578,0.1367188,0.3798828,0.1376953,0.6083984v0.1591797
			c0,0.2353516-0.0454102,0.4404297-0.1357422,0.6171875c-0.0908203,0.1767578-0.2202148,0.3125-0.3881836,0.40625
			c-0.1679688,0.0947266-0.3637695,0.1435547-0.5869141,0.1455078H28.4282227z M28.7563477,55.4980469v1.9511719h0.3447266
			c0.2529297,0,0.4501953-0.078125,0.5908203-0.2353516s0.2109375-0.3818359,0.2109375-0.6728516v-0.1445313
			c0-0.2832031-0.0664063-0.5029297-0.1992188-0.6601563c-0.1328125-0.15625-0.3208008-0.2363281-0.5644531-0.2382813H28.7563477z"
			/>
		<path class="st10" d="M32.4628906,56.5537109c0,0.2441406-0.0410156,0.4570313-0.1230469,0.6386719
			s-0.1982422,0.3203125-0.3486328,0.4160156s-0.3261719,0.1435547-0.5263672,0.1435547
			c-0.1962891,0-0.3701172-0.0478516-0.5214844-0.1445313c-0.1513672-0.0957031-0.269043-0.2333984-0.3530273-0.4111328
			c-0.0834961-0.1787109-0.1264648-0.3847656-0.1289063-0.6201172v-0.1796875c0-0.2392578,0.0415039-0.4501953,0.1245117-0.6337891
			c0.0834961-0.1835938,0.2011719-0.3232422,0.3530273-0.4208984c0.1523438-0.0976563,0.3261719-0.1464844,0.5219727-0.1464844
			c0.199707,0,0.3754883,0.0488281,0.5273438,0.1445313c0.1523438,0.0966797,0.2695313,0.2363281,0.3515625,0.4189453
			s0.1230469,0.3955078,0.1230469,0.6376953V56.5537109z M32.1362305,56.3935547
			c0-0.2949219-0.059082-0.5214844-0.1777344-0.6796875c-0.1186523-0.1572266-0.2841797-0.2363281-0.4975586-0.2363281
			c-0.2070313,0-0.3701172,0.0791016-0.4892578,0.2363281c-0.1191406,0.1582031-0.1806641,0.3769531-0.1835938,0.6572266v0.1826172
			c0,0.2861328,0.0600586,0.5107422,0.1801758,0.6748047c0.1201172,0.1630859,0.2856445,0.2451172,0.496582,0.2451172
			c0.2119141,0,0.3759766-0.0771484,0.4921875-0.2314453s0.1757813-0.3759766,0.1791992-0.6640625V56.3935547z"/>
		<path class="st10" d="M33.315918,56.9335938l0.0478516,0.328125l0.0703125-0.2958984l0.4921875-1.7363281h0.2768555
			l0.4799805,1.7363281l0.0683594,0.3007813l0.0532227-0.3349609l0.3862305-1.7021484h0.3300781l-0.6035156,2.4882813h-0.2988281
			l-0.5126953-1.8134766l-0.0395508-0.1894531l-0.0395508,0.1894531l-0.53125,1.8134766h-0.2988281l-0.6015625-2.4882813h0.328125
			L33.315918,56.9335938z"/>
		<path class="st10" d="M37.6225586,57.7177734h-0.3300781l-1.2524414-1.9169922v1.9169922h-0.3295898v-2.4882813h0.3295898
			l1.2563477,1.9257813v-1.9257813h0.3261719V57.7177734z"/>
	</g>
</g>
<g id="Резистор_2_">
	<g id="XMLID_19_">
		<g>
			<rect x="47.5442734" y="28.0243168" class="st12" width="4.255477" height="3.4376609"/>
		</g>
		<g>
		</g>
	</g>
	<g id="XMLID_18_">
		<g>
			<rect x="47.5849876" y="35.152771" class="st12" width="4.255477" height="3.4376609"/>
		</g>
		<g>
		</g>
	</g>
	<g id="XMLID_16_">
		<g>
			<rect x="47.8840981" y="30.7563419" class="st13" width="3.6058266" height="5.1633434"/>
		</g>
		<g>
		</g>
	</g>
	<g>
		<path class="st14" d="M49.1445313,32.762207v-0.6967773h0.1308594v0.2680664h0.8632813v-0.2680664h0.1171875
			c0,0.0361328,0.0029297,0.0751953,0.0087891,0.1166992s0.0146484,0.0727539,0.0263672,0.0942383
			c0.0136719,0.0263672,0.0332031,0.0473633,0.0546875,0.0625c0.0224609,0.015625,0.0527344,0.0244141,0.0898438,0.0263672
			v0.1342773h-1.1601563v0.2626953H49.1445313z"/>
		<path class="st14" d="M49.7880859,33.7822266c-0.2314453,0-0.4013672-0.0361328-0.5087891-0.1083984
			s-0.1621094-0.1845703-0.1621094-0.3369141c0-0.1542969,0.0546875-0.2670898,0.1640625-0.3383789
			s0.2773438-0.1064453,0.5048828-0.1064453c0.2294922,0,0.3974609,0.0356445,0.5068359,0.1079102
			c0.109375,0.0717773,0.1640625,0.184082,0.1640625,0.3369141c0,0.1542969-0.0556641,0.2670898-0.1660156,0.3383789
			C50.1796875,33.746582,50.0117188,33.7822266,49.7880859,33.7822266z M49.3955078,33.5546875
			c0.046875,0.0205078,0.1015625,0.0341797,0.1650391,0.0410156c0.0625,0.0073242,0.1386719,0.0107422,0.2275391,0.0107422
			c0.0869141,0,0.1630859-0.003418,0.2275391-0.0107422c0.0644531-0.0068359,0.1191406-0.0209961,0.1640625-0.0419922
			c0.0449219-0.0200195,0.078125-0.0473633,0.1015625-0.0825195c0.0214844-0.034668,0.0332031-0.0795898,0.0332031-0.1342773
			c0-0.0541992-0.0117188-0.0991211-0.0332031-0.1342773c-0.0234375-0.0356445-0.0566406-0.0634766-0.1025391-0.0844727
			c-0.0419922-0.0195313-0.0986328-0.0327148-0.1669922-0.0400391s-0.1435547-0.0107422-0.2255859-0.0107422
			c-0.0898438,0-0.1650391,0.0029297-0.2255859,0.0092773s-0.1152344,0.0200195-0.1621094,0.0410156
			c-0.0449219,0.0185547-0.0800781,0.0458984-0.1035156,0.0805664s-0.0351563,0.0810547-0.0351563,0.1386719
			c0,0.0541992,0.0117188,0.0991211,0.0332031,0.1347656C49.3164063,33.5073242,49.3496094,33.5351563,49.3955078,33.5546875z"/>
		<path class="st14" d="M49.1445313,34.7324219v-0.8710938h0.1796875c0.0527344,0.0605469,0.1035156,0.1210938,0.15625,0.1821289
			c0.0517578,0.0605469,0.1035156,0.1171875,0.1542969,0.1694336c0.1074219,0.1108398,0.1923828,0.1865234,0.2558594,0.2275391
			c0.0625,0.0410156,0.1308594,0.0615234,0.2041016,0.0615234c0.0673828,0,0.1191406-0.0219727,0.1572266-0.0664063
			c0.0371094-0.0439453,0.0566406-0.1054688,0.0566406-0.1845703c0-0.0522461-0.0097656-0.1088867-0.0273438-0.1699219
			c-0.0195313-0.0610352-0.046875-0.1210938-0.0859375-0.1791992v-0.0087891h0.1816406
			c0.0205078,0.0410156,0.0390625,0.0957031,0.0556641,0.1640625s0.0253906,0.1342773,0.0253906,0.1982422
			c0,0.1318359-0.0322266,0.2353516-0.0957031,0.3105469c-0.0634766,0.074707-0.1494141,0.1123047-0.2587891,0.1123047
			c-0.0488281,0-0.0947266-0.0063477-0.1367188-0.0185547c-0.0429688-0.0126953-0.0830078-0.0307617-0.1210938-0.0551758
			c-0.0351563-0.0224609-0.0703125-0.0488281-0.1054688-0.0791016c-0.0341797-0.0302734-0.0722656-0.0668945-0.1152344-0.1098633
			c-0.0605469-0.0620117-0.1191406-0.1254883-0.1757813-0.1914063c-0.0566406-0.0654297-0.109375-0.1269531-0.1572266-0.184082
			v0.6923828H49.1445313z"/>
	</g>
</g>
<g id="Резистор_1_">
	<g id="XMLID_7_">
		<g>
			<rect x="40.4614639" y="28.0243168" class="st12" width="4.255477" height="3.4376609"/>
		</g>
		<g>
		</g>
	</g>
	<g id="XMLID_6_">
		<g>
			<rect x="40.5021782" y="35.152771" class="st12" width="4.255477" height="3.4376609"/>
		</g>
		<g>
		</g>
	</g>
	<g id="XMLID_5_">
		<g>
			<rect x="40.8012848" y="30.7563419" class="st13" width="3.6058266" height="5.1633434"/>
		</g>
		<g>
		</g>
	</g>
	<g>
		<path class="st14" d="M42.0610352,32.762207v-0.6967773h0.1313477v0.2680664h0.862793v-0.2680664h0.1171875
			c0,0.0361328,0.003418,0.0751953,0.0092773,0.1166992s0.0146484,0.0727539,0.0263672,0.0942383
			c0.0141602,0.0263672,0.0327148,0.0473633,0.0546875,0.0625c0.0224609,0.015625,0.0522461,0.0244141,0.0898438,0.0263672
			v0.1342773h-1.1601563v0.2626953H42.0610352z"/>
		<path class="st14" d="M42.7050781,33.7822266c-0.230957,0-0.4008789-0.0361328-0.5087891-0.1083984
			s-0.1621094-0.1845703-0.1621094-0.3369141c0-0.1542969,0.0546875-0.2670898,0.1640625-0.3383789
			c0.1098633-0.0712891,0.277832-0.1064453,0.5048828-0.1064453c0.2290039,0,0.3979492,0.0356445,0.5068359,0.1079102
			c0.109375,0.0717773,0.1640625,0.184082,0.1640625,0.3369141c0,0.1542969-0.0556641,0.2670898-0.1665039,0.3383789
			S42.9291992,33.7822266,42.7050781,33.7822266z M42.3125,33.5546875c0.046875,0.0205078,0.1015625,0.0341797,0.1645508,0.0410156
			c0.0634766,0.0073242,0.1391602,0.0107422,0.2280273,0.0107422c0.0874023,0,0.1635742-0.003418,0.2280273-0.0107422
			c0.0644531-0.0068359,0.1191406-0.0209961,0.1640625-0.0419922c0.0444336-0.0200195,0.078125-0.0473633,0.1005859-0.0825195
			c0.0224609-0.034668,0.0336914-0.0795898,0.0336914-0.1342773c0-0.0541992-0.0112305-0.0991211-0.0336914-0.1342773
			c-0.0224609-0.0356445-0.0566406-0.0634766-0.1020508-0.0844727c-0.0424805-0.0195313-0.0981445-0.0327148-0.1669922-0.0400391
			c-0.0683594-0.0073242-0.1435547-0.0107422-0.2255859-0.0107422c-0.0898438,0-0.1650391,0.0029297-0.2255859,0.0092773
			s-0.1147461,0.0200195-0.1625977,0.0410156c-0.0449219,0.0185547-0.0791016,0.0458984-0.1025391,0.0805664
			c-0.0239258,0.034668-0.0356445,0.0810547-0.0356445,0.1386719c0,0.0541992,0.0112305,0.0991211,0.0336914,0.1347656
			S42.2670898,33.5351563,42.3125,33.5546875z"/>
		<path class="st14" d="M42.0610352,34.7324219v-0.8710938h0.1806641c0.0517578,0.0605469,0.1035156,0.1210938,0.1557617,0.1821289
			c0.0517578,0.0605469,0.1030273,0.1171875,0.1542969,0.1694336c0.1074219,0.1108398,0.1923828,0.1865234,0.2558594,0.2275391
			c0.0629883,0.0410156,0.1308594,0.0615234,0.2041016,0.0615234c0.0668945,0,0.1191406-0.0219727,0.1567383-0.0664063
			c0.0380859-0.0439453,0.0566406-0.1054688,0.0566406-0.1845703c0-0.0522461-0.0087891-0.1088867-0.0273438-0.1699219
			s-0.046875-0.1210938-0.0849609-0.1791992v-0.0087891h0.1816406c0.0200195,0.0410156,0.0385742,0.0957031,0.0551758,0.1640625
			C43.3666992,34.1254883,43.375,34.1914063,43.375,34.2553711c0,0.1318359-0.0322266,0.2353516-0.0957031,0.3105469
			c-0.0634766,0.074707-0.1499023,0.1123047-0.2587891,0.1123047c-0.0488281,0-0.0947266-0.0063477-0.137207-0.0185547
			c-0.0419922-0.0126953-0.0825195-0.0307617-0.1206055-0.0551758c-0.0356445-0.0224609-0.0708008-0.0488281-0.1054688-0.0791016
			c-0.0341797-0.0302734-0.0727539-0.0668945-0.1147461-0.1098633c-0.0605469-0.0620117-0.1191406-0.1254883-0.1757813-0.1914063
			c-0.0566406-0.0654297-0.109375-0.1269531-0.1577148-0.184082v0.6923828H42.0610352z"/>
	</g>
</g>
<g id="Резистор">
	<g id="XMLID_20_">
		<g>
			<rect x="33.3786545" y="28.0243168" class="st12" width="4.255477" height="3.4376609"/>
		</g>
		<g>
		</g>
	</g>
	<g id="XMLID_17_">
		<g>
			<rect x="33.4193687" y="35.152771" class="st12" width="4.255477" height="3.4376609"/>
		</g>
		<g>
		</g>
	</g>
	<g id="XMLID_8_">
		<g>
			<rect x="33.7184753" y="30.7563419" class="st13" width="3.6058266" height="5.1633434"/>
		</g>
		<g>
		</g>
	</g>
	<g>
		<path class="st14" d="M34.9780273,32.762207v-0.6967773h0.1313477v0.2680664h0.862793v-0.2680664h0.1171875
			c0,0.0361328,0.003418,0.0751953,0.0092773,0.1166992s0.0146484,0.0727539,0.0263672,0.0942383
			c0.0141602,0.0263672,0.0327148,0.0473633,0.0546875,0.0625c0.0224609,0.015625,0.0522461,0.0244141,0.0898438,0.0263672
			v0.1342773H35.109375v0.2626953H34.9780273z"/>
		<path class="st14" d="M35.6220703,33.7822266c-0.230957,0-0.4008789-0.0361328-0.5087891-0.1083984
			s-0.1621094-0.1845703-0.1621094-0.3369141c0-0.1542969,0.0546875-0.2670898,0.1640625-0.3383789
			c0.1098633-0.0712891,0.277832-0.1064453,0.5048828-0.1064453c0.2290039,0,0.3979492,0.0356445,0.5068359,0.1079102
			c0.109375,0.0717773,0.1640625,0.184082,0.1640625,0.3369141c0,0.1542969-0.0556641,0.2670898-0.1665039,0.3383789
			S35.8461914,33.7822266,35.6220703,33.7822266z M35.2294922,33.5546875
			c0.046875,0.0205078,0.1015625,0.0341797,0.1645508,0.0410156c0.0634766,0.0073242,0.1391602,0.0107422,0.2280273,0.0107422
			c0.0874023,0,0.1635742-0.003418,0.2280273-0.0107422c0.0644531-0.0068359,0.1191406-0.0209961,0.1640625-0.0419922
			c0.0444336-0.0200195,0.078125-0.0473633,0.1005859-0.0825195c0.0224609-0.034668,0.0336914-0.0795898,0.0336914-0.1342773
			c0-0.0541992-0.0112305-0.0991211-0.0336914-0.1342773c-0.0224609-0.0356445-0.0566406-0.0634766-0.1020508-0.0844727
			c-0.0424805-0.0195313-0.0981445-0.0327148-0.1669922-0.0400391c-0.0683594-0.0073242-0.1435547-0.0107422-0.2255859-0.0107422
			c-0.0898438,0-0.1650391,0.0029297-0.2255859,0.0092773s-0.1147461,0.0200195-0.1625977,0.0410156
			c-0.0449219,0.0185547-0.0791016,0.0458984-0.1025391,0.0805664c-0.0239258,0.034668-0.0356445,0.0810547-0.0356445,0.1386719
			c0,0.0541992,0.0112305,0.0991211,0.0336914,0.1347656S35.184082,33.5351563,35.2294922,33.5546875z"/>
		<path class="st14" d="M34.9780273,34.7324219v-0.8710938h0.1806641c0.0517578,0.0605469,0.1035156,0.1210938,0.1557617,0.1821289
			c0.0517578,0.0605469,0.1030273,0.1171875,0.1542969,0.1694336c0.1074219,0.1108398,0.1923828,0.1865234,0.2558594,0.2275391
			c0.0629883,0.0410156,0.1308594,0.0615234,0.2041016,0.0615234c0.0668945,0,0.1191406-0.0219727,0.1567383-0.0664063
			c0.0380859-0.0439453,0.0566406-0.1054688,0.0566406-0.1845703c0-0.0522461-0.0087891-0.1088867-0.0273438-0.1699219
			s-0.046875-0.1210938-0.0849609-0.1791992v-0.0087891h0.1816406c0.0200195,0.0410156,0.0385742,0.0957031,0.0551758,0.1640625
			c0.0170898,0.0683594,0.0253906,0.1342773,0.0253906,0.1982422c0,0.1318359-0.0322266,0.2353516-0.0957031,0.3105469
			c-0.0634766,0.074707-0.1499023,0.1123047-0.2587891,0.1123047c-0.0488281,0-0.0947266-0.0063477-0.137207-0.0185547
			c-0.0419922-0.0126953-0.0825195-0.0307617-0.1206055-0.0551758c-0.0356445-0.0224609-0.0708008-0.0488281-0.1054688-0.0791016
			c-0.0341797-0.0302734-0.0727539-0.0668945-0.1147461-0.1098633c-0.0605469-0.0620117-0.1191406-0.1254883-0.1757813-0.1914063
			c-0.0566406-0.0654297-0.109375-0.1269531-0.1577148-0.184082v0.6923828H34.9780273z"/>
	</g>
</g>
<g id="Колодка_1_">
	<g>
		
			<rect x="54.2905502" y="33.3335533" transform="matrix(-1.836970e-16 1 -1 -1.836970e-16 112.00914 -26.194006)" class="st15" width="29.6220474" height="19.1480312"/>
		
			<linearGradient id="SVGID_1_" gradientUnits="userSpaceOnUse" x1="-37.0517769" y1="-54.4944191" x2="-37.0517769" y2="-59.406517" gradientTransform="matrix(0 1 -1 0 5.0331388 79.9795227)">
			<stop  offset="0" style="stop-color:#FFFFFF;stop-opacity:0.5"/>
			<stop  offset="1" style="stop-color:#000000;stop-opacity:0.5"/>
		</linearGradient>
		<polygon class="st16" points="59.5275574,57.7185898 59.5275574,28.1369076 64.4396591,28.1369076 64.4396591,57.7185898 		"/>
		
			<rect x="63.0909462" y="42.1339493" transform="matrix(-1.836970e-16 1 -1 -1.836970e-16 120.8095398 -34.9944038)" class="st17" width="29.6220474" height="1.5472411"/>
		
			<linearGradient id="SVGID_2_" gradientUnits="userSpaceOnUse" x1="58.4376411" y1="-23.1897335" x2="58.4376411" y2="-28.1018295" gradientTransform="matrix(0 -1 1 0 101.8653259 101.3653946)">
			<stop  offset="0" style="stop-color:#FFFFFF;stop-opacity:0.5"/>
			<stop  offset="1" style="stop-color:#000000;stop-opacity:0.5"/>
		</linearGradient>
		<polygon class="st18" points="78.6755905,28.1369076 78.6755905,57.7185898 73.7634964,57.7185898 73.7634964,28.1369076 		"/>
		<g id="XMLID_29_">
			<g>
				<path class="st19" d="M71.1854095,35.4694672c-0.099472,0.0865517-0.2056885,0.1626663-0.3152771,0.2335625
					c-0.1095963,0.0708961-0.2225647,0.13657-0.3422852,0.1918106l-3.510994-5.4274693
					c0.0994644-0.0865517,0.2056808-0.1626663,0.3152695-0.2335606c0.1095963-0.0708961,0.2225647-0.1365719,0.3422852-0.1918106
					L71.1854095,35.4694672z"/>
				<path class="st8" d="M71.1854095,35.4694672l-3.5110016-5.4274673c1.461525-0.7159691,3.2531967-0.246418,4.1613312,1.1574173
					S72.4376221,34.4299393,71.1854095,35.4694672z"/>
				<path class="st8" d="M67.0168533,30.467371l3.510994,5.4274693c-1.461525,0.7159691-3.2531967,0.246418-4.1613312-1.1574173
					S65.7646408,31.5069008,67.0168533,30.467371z"/>
			</g>
			<g>
			</g>
		</g>
		<g id="XMLID_28_">
			<g>
				<path class="st19" d="M65.9977798,43.9236946c-0.0419922-0.1184692-0.0729675-0.2454071-0.0978394-0.3735313
					c-0.026062-0.1342239-0.044838-0.2635345-0.0514069-0.3952103l0.0060959-0.0011864l6.3390808-1.2307281
					c0.0492783,0.1233864,0.0802536,0.2503281,0.1063156,0.384552c0.0248718,0.1281242,0.0436478,0.257431,0.0490341,0.383007
					l-0.0061035,0.0011864L65.9977798,43.9236946z"/>
				<path class="st8" d="M65.9977798,43.9236946l6.3451767-1.2319107l0.0061035-0.0011864
					c0.1249466,1.62183-0.9902344,3.1172256-2.6253357,3.4346809C68.0825195,46.4439163,66.4887924,45.474453,65.9977798,43.9236946
					z"/>
				<path class="st8" d="M72.1937103,41.9230385l-6.3390808,1.2307281c-0.124939-1.62183,0.9914169-3.1111221,2.6265259-3.4285774
					C70.1101532,39.4089203,71.7026978,40.3722839,72.1937103,41.9230385z"/>
			</g>
			<g>
			</g>
		</g>
		<g id="XMLID_27_">
			<g>
				<path class="st19" d="M72.2962341,53.5739517c-0.0227966,0.1298447-0.0574036,0.2558327-0.0979156,0.3798866
					c-0.0424423,0.1299667-0.0888596,0.2520943-0.1470947,0.3703651l-0.0059128-0.0019302l-6.1378937-2.0044365
					c0.0168762-0.1317749,0.0514832-0.2577629,0.0939255-0.3877296c0.0405121-0.124054,0.086937-0.2461853,0.1451721-0.3644562
					l0.0059052,0.0019302L72.2962341,53.5739517z"/>
				<path class="st8" d="M72.2962341,53.5739517L66.15242,51.5675812l-0.0059052-0.0019302
					c0.6847229-1.4761467,2.3780518-2.2372017,3.9671707-1.7182465
					C71.6968994,50.3644295,72.6146927,51.9781914,72.2962341,53.5739517z"/>
				<path class="st8" d="M65.9074173,52.3178368l6.1378937,2.0044365c-0.6788101,1.4780769-2.3761215,2.2312965-3.9534225,1.7162018
					C66.5086746,55.5214462,65.583046,53.9116631,65.9074173,52.3178368z"/>
			</g>
			<g>
			</g>
		</g>
	</g>
	<g>
		<path class="st10" d="M82.3496094,52.0078125c0.1201172,0.0849609,0.2109375,0.203125,0.2705078,0.3535156
			s0.0898438,0.3261719,0.0898438,0.5273438c0,0.203125-0.0478516,0.3828125-0.1425781,0.5390625
			c-0.0957031,0.1582031-0.2304688,0.2792969-0.40625,0.3652344s-0.3789063,0.1308594-0.6103516,0.1328125h-0.2167969
			c-0.375,0-0.6650391-0.0878906-0.8710938-0.2617188c-0.2070313-0.1757813-0.3095703-0.421875-0.3095703-0.7382813
			c0-0.2597656,0.0664063-0.46875,0.1992188-0.6269531s0.3203125-0.2558594,0.5644531-0.2910156v0.328125
			c-0.3300781,0.0625-0.4951172,0.2578125-0.4951172,0.5878906c0,0.2207031,0.0771484,0.3867188,0.2314453,0.5
			s0.3779297,0.1708984,0.6708984,0.171875h0.2041016c0.2792969,0,0.5009766-0.0634766,0.6660156-0.1914063
			c0.1650391-0.1269531,0.2470703-0.2998047,0.2470703-0.5175781c0-0.1230469-0.0136719-0.2304688-0.0410156-0.3222656
			c-0.0273438-0.09375-0.0732422-0.1699219-0.1376953-0.2304688h-0.5576172v0.5761719h-0.2685547v-0.9023438H82.3496094z"/>
	</g>
	<g>
		<path class="st10" d="M82.2402344,42.9287109L80.1875,42.2177734v-0.359375l2.4882813,0.9228516v0.2910156L80.1875,43.9931641
			v-0.3574219L82.2402344,42.9287109z"/>
	</g>
	<g>
		<path class="st10" d="M81.2773438,33.2851563v-0.237793c-0.0019531-0.1489258-0.0410156-0.2666016-0.1171875-0.3515625
			c-0.0771484-0.0859375-0.1796875-0.128418-0.3095703-0.128418c-0.2919922,0-0.4375,0.1450195-0.4375,0.4360352
			c0,0.1367188,0.0390625,0.2456055,0.1171875,0.3271484s0.1806641,0.1220703,0.3095703,0.1220703v0.3164063
			c-0.1972656,0-0.3603516-0.0722656-0.4912109-0.2163086c-0.1298828-0.144043-0.1953125-0.3276367-0.1953125-0.5493164
			c0-0.2348633,0.0615234-0.4189453,0.1865234-0.5522461c0.1240234-0.1333008,0.2958984-0.199707,0.5175781-0.199707
			c0.1083984,0,0.2128906,0.034668,0.3144531,0.1049805c0.1015625,0.0698242,0.1767578,0.1655273,0.2275391,0.2861328
			c0.0429688-0.1367188,0.1142578-0.2421875,0.2148438-0.3168945s0.2226563-0.1123047,0.3671875-0.1123047
			c0.2236328,0,0.4003906,0.0732422,0.5322266,0.21875c0.1308594,0.1459961,0.1962891,0.3359375,0.1962891,0.5693359
			s-0.0634766,0.4233398-0.1894531,0.5698242c-0.1269531,0.1464844-0.2939453,0.2197266-0.5009766,0.2197266v-0.3178711
			c0.1308594,0,0.2353516-0.0429688,0.3144531-0.1279297c0.078125-0.0859375,0.1181641-0.2001953,0.1181641-0.34375
			c0-0.152832-0.0400391-0.2695313-0.1201172-0.3505859c-0.0800781-0.0805664-0.1943359-0.1210938-0.34375-0.1210938
			c-0.1445313,0-0.2558594,0.0444336-0.3330078,0.1333008s-0.1171875,0.2172852-0.1191406,0.3842773v0.237793H81.2773438z"/>
	</g>
</g>
<g id="Колодка_2_">
	<g>
		
			<rect x="1.1267717" y="33.3335533" transform="matrix(-1.836970e-16 1 -1 -1.836970e-16 58.8453636 26.9697723)" class="st15" width="29.6220474" height="19.1480312"/>
		
			<linearGradient id="SVGID_3_" gradientUnits="userSpaceOnUse" x1="-37.0517769" y1="-1.3306407" x2="-37.0517769" y2="-6.2427373" gradientTransform="matrix(0 1 -1 0 5.0331388 79.9795227)">
			<stop  offset="0" style="stop-color:#FFFFFF;stop-opacity:0.5"/>
			<stop  offset="1" style="stop-color:#000000;stop-opacity:0.5"/>
		</linearGradient>
		<polygon class="st20" points="6.3637795,57.7185898 6.3637795,28.1369076 11.275876,28.1369076 11.275876,57.7185898 		"/>
		
			<rect x="9.9271669" y="42.1339493" transform="matrix(-1.836970e-16 1 -1 -1.836970e-16 67.6457596 18.1693783)" class="st17" width="29.6220474" height="1.5472411"/>
		
			<linearGradient id="SVGID_4_" gradientUnits="userSpaceOnUse" x1="58.4376411" y1="-76.3535156" x2="58.4376411" y2="-81.2656097" gradientTransform="matrix(0 -1 1 0 101.8653259 101.3653946)">
			<stop  offset="0" style="stop-color:#FFFFFF;stop-opacity:0.5"/>
			<stop  offset="1" style="stop-color:#000000;stop-opacity:0.5"/>
		</linearGradient>
		<polygon class="st21" points="25.5118103,28.1369076 25.5118103,57.7185898 20.5997143,57.7185898 20.5997143,28.1369076 		"/>
		<g id="XMLID_23_">
			<g>
				<path class="st19" d="M18.0216255,35.4694672c-0.0994644,0.0865517-0.2056808,0.1626663-0.3152752,0.2335625
					c-0.1095924,0.0708961-0.2225609,0.13657-0.3422832,0.1918106l-3.5109968-5.4274693
					c0.0994654-0.0865517,0.2056818-0.1626663,0.3152752-0.2335606c0.1095934-0.0708961,0.2225618-0.1365719,0.3422832-0.1918106
					L18.0216255,35.4694672z"/>
				<path class="st8" d="M18.0216255,35.4694672l-3.5109968-5.4274673c1.4615221-0.7159691,3.2531958-0.246418,4.1613283,1.1574173
					S19.273838,34.4299393,18.0216255,35.4694672z"/>
				<path class="st8" d="M13.8530703,30.467371l3.5109968,5.4274693c-1.4615211,0.7159691-3.2531948,0.246418-4.1613283-1.1574173
					C12.2946062,33.3335876,12.6008577,31.5069008,13.8530703,30.467371z"/>
			</g>
			<g>
			</g>
		</g>
		<g id="XMLID_22_">
			<g>
				<path class="st19" d="M12.8340025,43.9236946c-0.0419941-0.1184692-0.0729704-0.2454071-0.0978451-0.3735313
					c-0.0260601-0.1342239-0.0448341-0.2635345-0.0514059-0.3952103l0.0061016-0.0011864l6.3390751-1.2307281
					c0.0492802,0.1233864,0.0802555,0.2503281,0.1063156,0.384552c0.0248756,0.1281242,0.0436497,0.257431,0.049036,0.383007
					l-0.0061016,0.0011864L12.8340025,43.9236946z"/>
				<path class="st8" d="M12.8340025,43.9236946l6.3451757-1.2319107l0.0061016-0.0011864
					c0.1249447,1.62183-0.9902306,3.1172256-2.6253338,3.4346809C14.9187412,46.4439163,13.3250151,45.474453,12.8340025,43.9236946
					z"/>
				<path class="st8" d="M19.0299282,41.9230385l-6.3390751,1.2307281c-0.1249447-1.62183,0.991416-3.1111221,2.6265192-3.4285774
					C16.9463749,39.4089203,18.5389156,40.3722839,19.0299282,41.9230385z"/>
			</g>
			<g>
			</g>
		</g>
		<g id="XMLID_21_">
			<g>
				<path class="st19" d="M19.1324501,53.5739517c-0.022789,0.1298447-0.0573959,0.2558327-0.097908,0.3798866
					c-0.0424423,0.1299667-0.0888634,0.2520943-0.1471004,0.3703651l-0.0059071-0.0019302l-6.1379004-2.0044365
					c0.0168829-0.1317749,0.0514889-0.2577629,0.0939312-0.3877296c0.040513-0.124054,0.0869341-0.2461853,0.1451702-0.3644562
					l0.0059071,0.0019302L19.1324501,53.5739517z"/>
				<path class="st8" d="M19.1324501,53.5739517l-6.1438074-2.0063705l-0.0059071-0.0019302
					c0.6847248-1.4761467,2.3780527-2.2372017,3.9671717-1.7182465
					C18.5331211,50.3644295,19.4509106,51.9781914,19.1324501,53.5739517z"/>
				<path class="st8" d="M12.7436342,52.3178368l6.1379004,2.0044365c-0.6788177,1.4780769-2.3761234,2.2312965-3.9534283,1.7162018
					C13.3448944,55.5214462,12.4192677,53.9116631,12.7436342,52.3178368z"/>
			</g>
			<g>
			</g>
		</g>
	</g>
	<g>
		<path class="st10" d="M2.6904297,34.2875977c-0.1206055-0.0844727-0.2109375-0.2021484-0.2705078-0.3530273
			c-0.0600586-0.1508789-0.0898438-0.3266602-0.0898438-0.5268555c0-0.203125,0.0473633-0.3828125,0.1425781-0.5400391
			s0.2304688-0.2792969,0.40625-0.3652344c0.175293-0.0859375,0.378418-0.1298828,0.6098633-0.1323242h0.2172852
			c0.3745117,0,0.6650391,0.0874023,0.8710938,0.262207c0.206543,0.1748047,0.3095703,0.4208984,0.3095703,0.7373047
			c0,0.2597656-0.0664063,0.4692383-0.1992188,0.6274414s-0.3208008,0.2553711-0.5644531,0.2905273v-0.328125
			c0.3300781-0.0615234,0.4951172-0.2573242,0.4951172-0.5878906c0-0.2197266-0.0771484-0.3867188-0.2314453-0.5
			c-0.1547852-0.1132813-0.378418-0.1704102-0.6713867-0.171875H3.5117188c-0.2792969,0-0.5014648,0.0639648-0.6660156,0.1914063
			c-0.1650391,0.1279297-0.2470703,0.300293-0.2470703,0.5180664c0,0.1230469,0.0131836,0.230957,0.0405273,0.3227539
			c0.0273438,0.0927734,0.0732422,0.1689453,0.1381836,0.2294922h0.5576172v-0.5761719h0.2685547v0.9023438H2.6904297z"/>
	</g>
	<g>
		<path class="st10" d="M2.7998047,43.3671875l2.0527344,0.7109375V44.4375l-2.4882813-0.9228516v-0.2910156l2.4882813-0.9208984
			v0.3574219L2.7998047,43.3671875z"/>
	</g>
	<g>
		<path class="st10" d="M2.3642578,53.5898438v-0.3183594h2.1074219l-0.234375-0.6367188h0.2871094l0.3398438,0.90625v0.0488281
			H2.3642578z"/>
	</g>
</g>
<g id="Колодка_3_">
	<g>
		
			<rect x="27.8193989" y="6.3637795" transform="matrix(-1 -1.224647e-16 1.224647e-16 -1 85.2608414 31.8755913)" class="st15" width="29.6220474" height="19.1480312"/>
		
			<linearGradient id="SVGID_5_" gradientUnits="userSpaceOnUse" x1="-38.8339653" y1="-30.9447479" x2="-38.8339653" y2="-35.856842" gradientTransform="matrix(-1 0 0 -1 3.7762747 -24.5809689)">
			<stop  offset="0" style="stop-color:#FFFFFF;stop-opacity:0.5"/>
			<stop  offset="1" style="stop-color:#000000;stop-opacity:0.5"/>
		</linearGradient>
		<polygon class="st22" points="27.8193989,6.3637795 57.4010811,6.3637795 57.4010811,11.275876 27.8193989,11.275876 		"/>
		
			<rect x="27.8193989" y="23.9645691" transform="matrix(-1 -1.224647e-16 1.224647e-16 -1 85.2608414 49.4763794)" class="st17" width="29.6220474" height="1.5472411"/>
		
			<linearGradient id="SVGID_6_" gradientUnits="userSpaceOnUse" x1="60.2198296" y1="-46.7394066" x2="60.2198296" y2="-51.6515007" gradientTransform="matrix(1 0 0 1 -17.6095905 72.2512207)">
			<stop  offset="0" style="stop-color:#FFFFFF;stop-opacity:0.5"/>
			<stop  offset="1" style="stop-color:#000000;stop-opacity:0.5"/>
		</linearGradient>
		<rect x="27.8193989" y="20.5997143" class="st23" width="29.5816841" height="4.9120965"/>
		<g id="XMLID_26_">
			<g>
				<path class="st19" d="M50.0685196,18.0216255c-0.0865479-0.0994644-0.1626625-0.2056808-0.2335587-0.3152752
					c-0.0708961-0.1095924-0.13657-0.2225609-0.1918106-0.3422832l5.4274673-3.5109968
					c0.0865517,0.0994654,0.1626663,0.2056818,0.2335625,0.3152752s0.13657,0.2225618,0.1918106,0.3422832L50.0685196,18.0216255z"
					/>
				<path class="st8" d="M50.0685196,18.0216255l5.4274712-3.5109968c0.7159691,1.4615221,0.246418,3.2531958-1.1574173,4.1613283
					S51.1080513,19.273838,50.0685196,18.0216255z"/>
				<path class="st8" d="M55.0706177,13.8530703l-5.4274673,3.5109968c-0.7159691-1.4615211-0.246418-3.2531948,1.1574173-4.1613283
					C52.2044029,12.2946062,54.0310898,12.6008577,55.0706177,13.8530703z"/>
			</g>
			<g>
			</g>
		</g>
		<g id="XMLID_25_">
			<g>
				<path class="st19" d="M41.614296,12.8340025c0.1184692-0.0419941,0.2454071-0.0729704,0.3735313-0.0978451
					c0.1342239-0.0260601,0.2635307-0.0448341,0.3952103-0.0514059l0.0011826,0.0061016l1.2307281,6.3390751
					c-0.1233826,0.0492802-0.2503242,0.0802555-0.3845482,0.1063156c-0.1281242,0.0248756-0.257431,0.0436497-0.383007,0.049036
					l-0.0011864-0.0061016L41.614296,12.8340025z"/>
				<path class="st8" d="M41.614296,12.8340025l1.2319107,6.3451757l0.0011864,0.0061016
					c-1.62183,0.1249447-3.1172256-0.9902306-3.4346809-2.6253338
					C39.0940742,14.9187412,40.0635376,13.3250151,41.614296,12.8340025z"/>
				<path class="st8" d="M43.6149483,19.0299282l-1.2307281-6.3390751c1.62183-0.1249447,3.1111259,0.991416,3.4285774,2.6265192
					C46.1290703,16.9463749,45.1657066,18.5389156,43.6149483,19.0299282z"/>
			</g>
			<g>
			</g>
		</g>
		<g id="XMLID_24_">
			<g>
				<path class="st19" d="M31.9640388,19.1324501c-0.1298447-0.022789-0.2558308-0.0573959-0.3798885-0.097908
					c-0.1299667-0.0424423-0.2520943-0.0888634-0.3703651-0.1471004l0.0019302-0.0059071l2.0044384-6.1379004
					c0.1317749,0.0168829,0.2577629,0.0514889,0.3877258,0.0939312c0.1240578,0.040513,0.2461891,0.0869341,0.3644562,0.1451702
					l-0.0019264,0.0059071L31.9640388,19.1324501z"/>
				<path class="st8" d="M31.9640388,19.1324501l2.0063705-6.1438074l0.0019264-0.0059071
					c1.4761467,0.6847248,2.2372055,2.3780527,1.7182503,3.9671717
					C35.1735573,18.5331211,33.5597954,19.4509106,31.9640388,19.1324501z"/>
				<path class="st8" d="M33.2201538,12.7436342l-2.0044384,6.1379004
					c-1.4780769-0.6788177-2.2312946-2.3761234-1.7161999-3.9534283
					C30.0165424,13.3448944,31.6263256,12.4192677,33.2201538,12.7436342z"/>
			</g>
			<g>
			</g>
		</g>
	</g>
	<g>
		<path class="st10" d="M51.6347656,2.6904297c0.0849609-0.1206055,0.203125-0.2109375,0.3535156-0.2705078
			c0.1503906-0.0600586,0.3261719-0.0898438,0.5273438-0.0898438c0.203125,0,0.3828125,0.0473633,0.5390625,0.1425781
			c0.1582031,0.0952148,0.2792969,0.2304688,0.3652344,0.40625c0.0859375,0.175293,0.1308594,0.378418,0.1328125,0.6098633
			v0.2172852c0,0.3745117-0.0878906,0.6650391-0.2617188,0.8710938c-0.1757813,0.206543-0.421875,0.3095703-0.7382813,0.3095703
			c-0.2597656,0-0.46875-0.0664063-0.6269531-0.1992188s-0.2558594-0.3208008-0.2910156-0.5644531h0.328125
			c0.0625,0.3300781,0.2578125,0.4951172,0.5878906,0.4951172c0.2207031,0,0.3867188-0.0771484,0.5-0.2314453
			c0.1132813-0.1547852,0.1708984-0.378418,0.171875-0.6713867V3.5117188c0-0.2792969-0.0634766-0.5014648-0.1914063-0.6660156
			c-0.1269531-0.1650391-0.2998047-0.2470703-0.5175781-0.2470703c-0.1230469,0-0.2304688,0.0131836-0.3222656,0.0405273
			c-0.09375,0.0273438-0.1699219,0.0732422-0.2304688,0.1381836v0.5576172h0.5761719v0.2685547h-0.9023438V2.6904297z"/>
	</g>
	<g>
		<path class="st10" d="M42.5556641,2.7998047l-0.7109375,2.0527344h-0.359375l0.9228516-2.4882813h0.2910156l0.9208984,2.4882813
			h-0.3574219L42.5556641,2.7998047z"/>
	</g>
	<g>
		<path class="st10" d="M31.7416992,2.3642578h1.6298828v0.2275391l-0.8613281,0.9570313
			c-0.1274414,0.1445313-0.215332,0.262207-0.2636719,0.3525391c-0.0483398,0.0908203-0.0727539,0.1845703-0.0727539,0.28125
			c0,0.1298828,0.0395508,0.2363281,0.1176758,0.3193359c0.0791016,0.0834961,0.1835938,0.125,0.3144531,0.125
			c0.1572266,0,0.2797852-0.0449219,0.3666992-0.1342773c0.0874023-0.0893555,0.1308594-0.2138672,0.1308594-0.3735352h0.315918
			c0,0.2294922-0.0737305,0.4145508-0.2211914,0.5556641s-0.3447266,0.2119141-0.5922852,0.2119141
			c-0.230957,0-0.4140625-0.0605469-0.5483398-0.1821289c-0.1342773-0.1210938-0.2016602-0.2827148-0.2016602-0.484375
			c0-0.2451172,0.15625-0.5366211,0.4682617-0.875l0.6665039-0.7231445h-1.2490234V2.3642578z"/>
	</g>
</g>
<g>
</g>
<g>
</g>
<g>
</g>
<g>
</g>
<g>
</g>
</svg>
