<?xml version="1.0" encoding="utf-8"?>
<!-- Generator: Adobe Illustrator 22.0.1, SVG Export Plug-In . SVG Version: 6.00 Build 0)  -->
<svg version="1.1" xmlns="http://www.w3.org/2000/svg" xmlns:xlink="http://www.w3.org/1999/xlink" x="0px" y="0px"
	 viewBox="0 0 85.0393677 85.0393677" style="enable-background:new 0 0 85.0393677 85.0393677;" xml:space="preserve">
<style type="text/css">
	.st0{fill:#0D0E0F;}
	.st1{fill:#9E9B9C;}
	.st2{fill:#E5E4E0;}
	.st3{fill:none;stroke:#F6F6F6;stroke-width:0.7499946;stroke-miterlimit:10;}
	.st4{fill:#FFFFFF;}
	.st5{fill:#151616;}
	.st6{fill:#CEC7BD;}
	.st7{fill:#918C84;}
	.st8{fill:#FFFFFF;stroke:#FFFFFF;stroke-width:0.4142857;stroke-miterlimit:10;}
	.st9{fill:none;stroke:#F6F6F6;stroke-width:0.8181879;stroke-miterlimit:10;}
	.st10{fill:#FFFFFF;stroke:#EAE59D;stroke-width:0.1860509;stroke-miterlimit:10;}
	.st11{opacity:0.4;fill:url(#SVGID_1_);}
	.st12{fill:#E6E6E6;}
	.st13{fill:#CDC7BC;}
	.st14{fill:#363331;}
	.st15{fill:#B5B4B3;}
	.st16{fill:url(#SVGID_2_);}
</style>
<g id="Слой_2">
	<path class="st0" d="M0,0v85.0393677h85.0393677V0H0z M9.9222317,79.5112076c-2.4279003,0-4.3946834-1.9667816-4.3946834-4.392662
		c0-2.4279022,1.966783-4.3946838,4.3946834-4.3946838c2.4258242,0,4.3926077,1.9667816,4.3926077,4.3946838
		C14.3148394,77.544426,12.3480558,79.5112076,9.9222317,79.5112076z M9.9222317,14.3148394
		c-2.4279003,0-4.3946834-1.9667835-4.3946834-4.3926687c0-2.4279003,1.966783-4.3946834,4.3946834-4.3946834
		c2.4258242,0,4.3926077,1.966783,4.3926077,4.3946834C14.3148394,12.3480558,12.3480558,14.3148394,9.9222317,14.3148394z
		 M75.1186066,79.5112076c-2.4279022,0-4.3946838-1.9667816-4.3946838-4.392662
		c0-2.4279022,1.9667816-4.3946838,4.3946838-4.3946838c2.4258194,0,4.392601,1.9667816,4.392601,4.3946838
		C79.5112076,77.544426,77.544426,79.5112076,75.1186066,79.5112076z M75.1186066,14.3148394
		c-2.4279022,0-4.3946838-1.9667835-4.3946838-4.3926687c0-2.4279003,1.9667816-4.3946834,4.3946838-4.3946834
		c2.4258194,0,4.392601,1.966783,4.392601,4.3946834C79.5112076,12.3480558,77.544426,14.3148394,75.1186066,14.3148394z"/>
	<path class="st1" d="M9.9211941,3.9457726c-3.2877574,0-5.9527168,2.6751518-5.9527168,5.9754214
		c0,3.3002081,2.6649592,5.9753599,5.9527168,5.9753599c3.2876959,0,5.9527159-2.6751518,5.9527159-5.9753599
		C15.87391,6.6209245,13.20889,3.9457726,9.9211941,3.9457726z M9.9222317,14.3148394
		c-2.4279003,0-4.3946834-1.9667835-4.3946834-4.3926687c0-2.4279003,1.966783-4.3946834,4.3946834-4.3946834
		c2.4258242,0,4.3926077,1.966783,4.3926077,4.3946834C14.3148394,12.3480558,12.3480558,14.3148394,9.9222317,14.3148394z"/>
	<path class="st1" d="M75.1175766,3.9457726c-3.2877579,0-5.9527206,2.6751518-5.9527206,5.9754214
		c0,3.3002081,2.6649628,5.9753599,5.9527206,5.9753599c3.2876892,0,5.952713-2.6751518,5.952713-5.9753599
		C81.0702896,6.6209245,78.4052658,3.9457726,75.1175766,3.9457726z M75.1186142,14.3148394
		c-2.4279022,0-4.3946838-1.9667835-4.3946838-4.3926687c0-2.4279003,1.9667816-4.3946834,4.3946838-4.3946834
		c2.4258194,0,4.392601,1.966783,4.392601,4.3946834C79.5112152,12.3480558,77.5444336,14.3148394,75.1186142,14.3148394z"/>
	<path class="st1" d="M9.9211941,69.1421814c-3.2877574,0-5.9527168,2.6751556-5.9527168,5.9754257
		c0,3.3002014,2.6649592,5.9753571,5.9527168,5.9753571c3.2876959,0,5.9527159-2.6751556,5.9527159-5.9753571
		C15.87391,71.817337,13.20889,69.1421814,9.9211941,69.1421814z M9.9222317,79.5112457
		c-2.4279003,0-4.3946834-1.9667816-4.3946834-4.392662c0-2.4279022,1.966783-4.3946838,4.3946834-4.3946838
		c2.4258242,0,4.3926077,1.9667816,4.3926077,4.3946838C14.3148394,77.5444641,12.3480558,79.5112457,9.9222317,79.5112457z"/>
	<path class="st1" d="M75.1175766,69.1421814c-3.2877579,0-5.9527206,2.6751556-5.9527206,5.9754257
		c0,3.3002014,2.6649628,5.9753571,5.9527206,5.9753571c3.2876892,0,5.952713-2.6751556,5.952713-5.9753571
		C81.0702896,71.817337,78.4052658,69.1421814,75.1175766,69.1421814z M75.1186142,79.5112457
		c-2.4279022,0-4.3946838-1.9667816-4.3946838-4.392662c0-2.4279022,1.9667816-4.3946838,4.3946838-4.3946838
		c2.4258194,0,4.392601,1.9667816,4.392601,4.3946838C79.5112152,77.5444641,77.5444336,79.5112457,75.1186142,79.5112457z"/>
	<g>
		<path class="st2" d="M20.4990234,7.7387695v0.515625l-0.4609375,0.0878906v1.9746094l0.0175781,0.0058594l1.734375-1.7431641
			V8.3422852l-0.4580078-0.0878906v-0.515625h0.4580078h0.8657227h0.4580078v0.515625l-0.4580078,0.0878906v3.0615234
			l0.4580078,0.0878906v0.5126953h-1.7817383v-0.5126953l0.4580078-0.0878906V9.4760742l-0.0175781-0.0058594l-1.734375,1.7460938
			v0.1875l0.4609375,0.0878906v0.5126953h-1.7817383v-0.5126953l0.4609375-0.0878906V8.3422852l-0.4609375-0.0878906v-0.515625
			h0.4609375h0.8598633H20.4990234z"/>
		<path class="st2" d="M23.4213867,11.4916992l0.4580078-0.0878906V8.3422852l-0.4580078-0.0878906v-0.515625h1.7583008v0.515625
			l-0.4375,0.0878906v1.1396484h0.387207l0.8066406-1.1513672c0.1713867-0.2382813,0.3227539-0.4033203,0.4550781-0.4951172
			c0.1318359-0.0917969,0.3071289-0.1376953,0.5258789-0.1376953c0.1005859,0,0.1938477,0.0136719,0.2807617,0.0410156
			c0.0864258,0.0273438,0.1665039,0.0634766,0.2392578,0.1083984l-0.1450195,0.6416016
			c-0.0629883-0.0136719-0.105957-0.0229492-0.128418-0.027832s-0.0537109-0.0073242-0.0932617-0.0073242
			c-0.090332,0-0.1743164,0.0253906-0.2509766,0.0761719s-0.1694336,0.1455078-0.277832,0.2841797l-0.6733398,0.9140625
			l1.1904297,1.6904297l0.4521484,0.0732422v0.5126953h-1.7050781v-0.5126953l0.2456055-0.0351563l-0.8037109-1.1982422h-0.5053711
			v1.1455078l0.4375,0.0878906v0.5126953h-1.7583008V11.4916992z"/>
		<path class="st2" d="M29.315918,11.4916992l0.4609375-0.0878906V9.4379883L29.315918,9.3500977v-0.515625h3.7026367v0.515625
			l-0.4580078,0.0878906v1.9658203l0.4580078,0.0878906v0.5126953h-1.6933594v-0.5126953l0.3725586-0.0878906V9.496582h-1.0610352
			v1.9072266l0.3725586,0.0878906v0.5126953H29.315918V11.4916992z"/>
		<path class="st2" d="M34.96875,12.065918c-0.4609375,0-0.8295898-0.1464844-1.1049805-0.4394531
			c-0.2758789-0.2929688-0.4140625-0.6650391-0.4140625-1.1162109v-0.1171875c0-0.4707031,0.1308594-0.8583984,0.3916016-1.1630859
			c0.2612305-0.3046875,0.6113281-0.4560547,1.0507813-0.4541016c0.4311523,0,0.7661133,0.1289063,1.0043945,0.3867188
			s0.3574219,0.6064453,0.3574219,1.0458984v0.4658203h-1.9086914l-0.0058594,0.0175781
			c0.015625,0.2089844,0.0859375,0.3808594,0.2114258,0.515625c0.125,0.1347656,0.2949219,0.2021484,0.5097656,0.2021484
			c0.190918,0,0.3496094-0.019043,0.4755859-0.0571289s0.2636719-0.0981445,0.4135742-0.1801758l0.2333984,0.5273438
			c-0.1318359,0.1035156-0.3027344,0.1904297-0.5126953,0.2607422S35.2265625,12.065918,34.96875,12.065918z M34.8920898,9.4350586
			c-0.159668,0-0.2856445,0.0605469-0.378418,0.1816406s-0.1499023,0.2802734-0.1713867,0.4775391l0.0087891,0.0146484h1.0581055
			v-0.0761719c0-0.1816406-0.0429688-0.3266602-0.1289063-0.4350586
			C35.1948242,9.4892578,35.0654297,9.4350586,34.8920898,9.4350586z"/>
		<path class="st2" d="M36.5966797,9.3500977v-0.515625h1.2529297l0.0415039,0.3691406
			c0.0942383-0.1367188,0.2075195-0.2421875,0.3398438-0.3164063c0.1318359-0.0742188,0.2851563-0.1113281,0.4609375-0.1113281
			c0.3959961,0,0.703125,0.1533203,0.921875,0.4599609c0.2182617,0.3066406,0.3276367,0.7099609,0.3276367,1.2099609v0.0615234
			c0,0.46875-0.109375,0.8457031-0.3276367,1.1308594c-0.21875,0.2851563-0.5244141,0.4277344-0.9160156,0.4277344
			c-0.1674805,0-0.3164063-0.0307617-0.4462891-0.0922852s-0.2412109-0.1518555-0.3339844-0.2709961v0.9169922l0.4165039,0.0878906
			v0.515625h-1.6928711v-0.515625l0.4165039-0.0878906V9.4379883L36.5966797,9.3500977z M39.0786133,10.4458008
			c0-0.2988281-0.050293-0.5410156-0.1503906-0.7265625c-0.1005859-0.1855469-0.2543945-0.2783203-0.4609375-0.2783203
			c-0.1303711,0-0.2407227,0.0263672-0.3325195,0.0791016s-0.1640625,0.1279297-0.2172852,0.2255859v1.3886719
			c0.0532227,0.0898438,0.1254883,0.1582031,0.2172852,0.2050781s0.2041016,0.0703125,0.3383789,0.0703125
			c0.2084961,0,0.3618164-0.0810547,0.4594727-0.2431641s0.1459961-0.3818359,0.1459961-0.6591797V10.4458008z"/>
		<path class="st2" d="M41.8564453,12.065918c-0.4609375,0-0.8295898-0.1464844-1.1049805-0.4394531
			c-0.2758789-0.2929688-0.4140625-0.6650391-0.4140625-1.1162109v-0.1171875c0-0.4707031,0.1308594-0.8583984,0.3916016-1.1630859
			c0.2612305-0.3046875,0.6113281-0.4560547,1.0507813-0.4541016c0.4311523,0,0.7661133,0.1289063,1.0043945,0.3867188
			s0.3574219,0.6064453,0.3574219,1.0458984v0.4658203h-1.9086914l-0.0058594,0.0175781
			c0.015625,0.2089844,0.0859375,0.3808594,0.2114258,0.515625c0.125,0.1347656,0.2949219,0.2021484,0.5097656,0.2021484
			c0.190918,0,0.3496094-0.019043,0.4755859-0.0571289s0.2636719-0.0981445,0.4135742-0.1801758l0.2333984,0.5273438
			c-0.1318359,0.1035156-0.3027344,0.1904297-0.5126953,0.2607422S42.1142578,12.065918,41.8564453,12.065918z
			 M41.7797852,9.4350586c-0.159668,0-0.2856445,0.0605469-0.378418,0.1816406s-0.1499023,0.2802734-0.1713867,0.4775391
			l0.0087891,0.0146484h1.0581055v-0.0761719c0-0.1816406-0.0429688-0.3266602-0.1289063-0.4350586
			C42.0825195,9.4892578,41.953125,9.4350586,41.7797852,9.4350586z"/>
		<path class="st2" d="M43.7856445,11.3422852c0.1972656-0.203125,0.3295898-0.402832,0.3989258-0.5991211
			s0.1074219-0.4760742,0.1152344-0.8393555l0.0058594-0.4658203l-0.4516602-0.0878906v-0.515625h2.8188477h0.4609375v0.515625
			l-0.4609375,0.0878906v1.9101563h0.4638672l-0.0595703,1.6054688h-0.8037109v-0.9492188h-1.8847656v0.9492188h-0.8066406
			l-0.0737305-1.6113281H43.7856445z M45.1630859,9.9038086c-0.015625,0.3144531-0.0576172,0.590332-0.1240234,0.8276367
			c-0.0673828,0.2373047-0.15625,0.4418945-0.2666016,0.6137695h1.0429688v-1.828125h-0.6494141L45.1630859,9.9038086z"/>
		<path class="st2" d="M49.5683594,12.0043945c-0.0234375-0.0527344-0.0439453-0.1069336-0.0615234-0.1625977
			s-0.03125-0.1118164-0.0419922-0.168457c-0.1015625,0.1171875-0.2265625,0.2119141-0.3730469,0.2841797
			c-0.1474609,0.0722656-0.3154297,0.1083984-0.5039063,0.1083984c-0.3134766,0-0.5625-0.0844727-0.7460938-0.253418
			c-0.1845703-0.1689453-0.2763672-0.3989258-0.2763672-0.6899414c0-0.296875,0.1201172-0.5263672,0.3603516-0.6884766
			s0.5927734-0.2431641,1.0576172-0.2431641h0.4404297V9.8803711c0-0.1523438-0.0439453-0.2705078-0.1328125-0.3544922
			s-0.2197266-0.1259766-0.3925781-0.1259766c-0.0986328,0-0.1865234,0.0112305-0.2636719,0.0336914
			c-0.0761719,0.0224609-0.1386719,0.0493164-0.1855469,0.0805664l-0.0566406,0.3398438h-0.6503906l0.0029297-0.703125
			c0.1582031-0.1054688,0.3388672-0.1943359,0.5429688-0.2666016c0.203125-0.0722656,0.4257813-0.1083984,0.6660156-0.1083984
			c0.3955078,0,0.7177734,0.0961914,0.9648438,0.2885742s0.3710938,0.4663086,0.3710938,0.8217773v1.3095703
			c0,0.0488281,0,0.0947266,0.0009766,0.1376953s0.0048828,0.0839844,0.0107422,0.1230469l0.2626953,0.0351563v0.5126953H49.5683594
			z M48.8212891,11.4331055c0.1298828,0,0.2480469-0.027832,0.3544922-0.0834961s0.1894531-0.1254883,0.2480469-0.2094727
			v-0.4833984h-0.4404297c-0.1826172,0-0.3222656,0.0424805-0.4160156,0.1274414
			c-0.0947266,0.0849609-0.1425781,0.1870117-0.1425781,0.3061523c0,0.1074219,0.0351563,0.1914063,0.1054688,0.2519531
			C48.5996094,11.402832,48.6972656,11.4331055,48.8212891,11.4331055z"/>
		<path class="st2" d="M54.1728516,8.8344727v1.0810547h-0.6621094L53.4746094,9.487793h-0.5458984v1.9160156l0.4580078,0.0878906
			v0.5126953h-1.7822266v-0.5126953L52.0625,11.4038086V9.487793h-0.5351563l-0.0322266,0.4277344h-0.6621094V8.8344727H54.1728516z
			"/>
		<path class="st2" d="M56.1787109,8.8344727V9.347168l-0.3691406,0.0878906v0.3955078
			c0,0.2089844,0.0458984,0.3535156,0.1386719,0.4335938s0.2490234,0.1201172,0.4697266,0.1201172
			c0.0732422,0,0.1455078-0.0039063,0.2167969-0.0117188c0.0722656-0.0078125,0.1455078-0.0195313,0.2207031-0.0351563V9.4379883
			l-0.3720703-0.0878906v-0.515625h1.6953125v0.515625l-0.4609375,0.0878906v1.9658203l0.4609375,0.0878906v0.5126953h-1.7841797
			v-0.5126953l0.4609375-0.0878906v-0.4042969c-0.0732422,0.015625-0.1474609,0.0268555-0.2236328,0.0336914
			c-0.0751953,0.0068359-0.1464844,0.0102539-0.2138672,0.0102539c-0.4707031,0-0.8339844-0.0996094-1.0888672-0.2988281
			s-0.3828125-0.5039063-0.3828125-0.9140625V9.4350586L54.4882813,9.347168V8.8344727h1.3212891H56.1787109z"/>
		<path class="st2" d="M60.3945313,8.8344727v0.515625l-0.4130859,0.0878906v1.3212891l0.0175781,0.0029297l1.0400391-1.9277344
			h0.8623047h0.4580078v0.515625l-0.4580078,0.0878906v1.9658203l0.4580078,0.0878906v0.5126953H60.625v-0.5126953
			l0.4140625-0.0878906v-1.3271484l-0.0175781-0.0029297l-1.0400391,1.9306641h-1.3242188v-0.5126953l0.4609375-0.0878906V9.4379883
			l-0.4609375-0.0878906v-0.515625h1.3242188H60.3945313z"/>
		<path class="st2" d="M62.8613281,9.3500977v-0.515625h1.7138672v0.515625l-0.3925781,0.0878906v0.6035156h0.2949219
			l0.4794922-0.703125c0.1201172-0.1835938,0.2460938-0.3217773,0.3779297-0.4145508S65.6308594,8.784668,65.828125,8.784668
			c0.0986328,0,0.1875,0.0136719,0.2666016,0.0410156c0.078125,0.0273438,0.15625,0.0644531,0.2333984,0.1113281
			l-0.1455078,0.5917969c-0.0585938-0.015625-0.0957031-0.0253906-0.1103516-0.0292969s-0.0419922-0.0058594-0.0810547-0.0058594
			c-0.0595703,0-0.1220703,0.0224609-0.1884766,0.0673828c-0.0654297,0.0449219-0.1220703,0.1015625-0.1699219,0.1699219
			l-0.4130859,0.5976563l0.7412109,1.0927734l0.4345703,0.0703125v0.5126953h-1.1845703l-0.6972656-1.1865234h-0.3310547v0.5859375
			l0.3925781,0.0878906v0.5126953h-1.7138672v-0.5126953l0.4609375-0.0878906V9.4379883L62.8613281,9.3500977z"/>
	</g>
	<path class="st3" d="M31.7868347,77.5874939c-0.0916138-0.0001984-0.1396828-0.0003052-0.1396828-0.0003052l-0.0391426-15.5418472
		c0,0-0.0000668-0.0264893-0.0001335-0.0529823c0.0282974,0.0000648,0.0565948,0.0001259,0.0565948,0.0001259l21.694397,0.0478096
		c0,0,0.0124245,0.0000267,0.034481,0.0000763c0.0053062,2.1060143,0.0384293,15.2589607,0.0384293,15.2589607
		s0.0004234,0.1679306,0.0008469,0.3358688c-0.045536-0.0000992-0.0910759-0.0001984-0.0910759-0.0001984
		S33.6414757,77.5915833,31.7868347,77.5874939z"/>
	<g>
		<path class="st2" d="M37.7841797,68.2285156c-0.1523438,0.1582031-0.3774414,0.3076172-0.675293,0.4482422
			s-0.6845703,0.2109375-1.1611328,0.2109375c-0.6958008,0-1.2631836-0.2421875-1.7026367-0.7265625
			c-0.4394531-0.4833984-0.6591797-1.1123047-0.6591797-1.8847656v-0.0849609c0-0.7763672,0.2172852-1.40625,0.6518555-1.8876953
			c0.4345703-0.4824219,1.0131836-0.7236328,1.7348633-0.7236328c0.3857422,0,0.7246094,0.0605469,1.0166016,0.1796875
			s0.5380859,0.2763672,0.737793,0.4726563v0.9355469h-0.4931641L37.0625,64.4560547
			c-0.1166992-0.0947266-0.2578125-0.1728516-0.4233398-0.234375s-0.3637695-0.0917969-0.5952148-0.0917969
			c-0.5620117,0-0.9951172,0.1904297-1.2988281,0.5722656c-0.3037109,0.3808594-0.4555664,0.875-0.4555664,1.4824219v0.0917969
			c0,0.6171875,0.1469727,1.1152344,0.4414063,1.4951172c0.2939453,0.3808594,0.699707,0.5703125,1.2167969,0.5703125
			c0.2832031,0,0.515625-0.0292969,0.6967773-0.0878906c0.1811523-0.0595703,0.3261719-0.1240234,0.4360352-0.1953125v-1.1298828
			l-0.8540039-0.0351563v-0.5136719h1.5576172V68.2285156z"/>
	</g>
	<g>
		<path class="st2" d="M41.7026367,64.2138672l-0.4750977,0.0751953l1.1650391,3.3515625l0.1176758,0.4072266h0.0214844
			l0.1181641-0.4072266l1.1611328-3.3554688l-0.4682617-0.0712891v-0.4492188h1.6396484v0.4492188l-0.4179688,0.0566406
			l-1.7431641,4.6523438h-0.6040039l-1.7436523-4.6523438l-0.4145508-0.0566406v-0.4492188h1.6435547V64.2138672z"/>
	</g>
	<g>
		<path class="st2" d="M51.5166016,65.2880859h-0.5332031l-0.1318359-0.7373047
			c-0.1074219-0.0898438-0.25-0.1640625-0.4287109-0.2236328c-0.1787109-0.0585938-0.3857422-0.0878906-0.6220703-0.0878906
			c-0.3740234,0-0.6611328,0.078125-0.8613281,0.2353516s-0.2998047,0.3623047-0.2998047,0.6152344
			c0,0.2236328,0.1015625,0.4111328,0.3056641,0.5615234c0.203125,0.1494141,0.5332031,0.28125,0.9882813,0.3945313
			c0.5478516,0.1347656,0.9638672,0.3330078,1.2480469,0.5957031c0.2851563,0.2617188,0.4277344,0.5869141,0.4277344,0.9736328
			c0,0.4160156-0.1708984,0.75-0.5126953,1.0029297c-0.3427734,0.2529297-0.7900391,0.3789063-1.3417969,0.3789063
			c-0.4003906,0-0.7558594-0.0644531-1.0673828-0.1943359c-0.3105469-0.1298828-0.5634766-0.2998047-0.7587891-0.5107422v-0.9599609
			h0.5283203l0.1357422,0.7402344c0.1357422,0.1113281,0.2978516,0.2021484,0.4863281,0.2734375
			c0.1884766,0.0703125,0.4130859,0.1054688,0.6757813,0.1054688c0.3544922,0,0.6347656-0.0742188,0.8408203-0.2226563
			s0.3095703-0.3505859,0.3095703-0.6054688c0-0.2363281-0.0898438-0.4345703-0.2685547-0.59375
			s-0.4941406-0.2939453-0.9462891-0.4023438c-0.5507813-0.1298828-0.9804688-0.3212891-1.2900391-0.5742188
			c-0.3095703-0.2519531-0.4648438-0.5703125-0.4648438-0.953125c0-0.4033203,0.1728516-0.7392578,0.5185547-1.0078125
			c0.3447266-0.2675781,0.7939453-0.4023438,1.3466797-0.4023438c0.3642578,0,0.6962891,0.0625,0.9951172,0.1865234
			s0.5390625,0.2744141,0.7207031,0.4511719V65.2880859z"/>
	</g>
	<line class="st3" x1="46.1376266" y1="62.0248489" x2="46.1376266" y2="77.61866"/>
	<line class="st3" x1="38.9011345" y1="62.0088997" x2="38.9011345" y2="77.6016541"/>
	<g>
		<path class="st2" d="M35.78125,78.7353516c0.3588867,0,0.640625,0.0810547,0.8447266,0.2441406
			c0.2045898,0.1630859,0.3066406,0.3876953,0.3066406,0.6748047c0,0.1582031-0.0429688,0.2958984-0.128418,0.4121094
			s-0.2104492,0.2099609-0.3754883,0.2822266c0.1865234,0.0546875,0.3208008,0.1455078,0.402832,0.2724609
			c0.081543,0.1269531,0.1225586,0.2841797,0.1225586,0.4726563v0.1591797c0,0.0693359,0.0136719,0.1220703,0.0415039,0.1601563
			c0.0273438,0.0380859,0.0727539,0.0605469,0.1367188,0.0683594l0.078125,0.0107422v0.3789063h-0.328125
			c-0.2070313,0-0.3525391-0.0556641-0.4365234-0.1660156s-0.1259766-0.2529297-0.1259766-0.4287109v-0.1787109
			c0-0.1523438-0.0410156-0.2714844-0.1225586-0.3583984C36.1152344,80.6523438,36,80.6064453,35.8505859,80.6025391h-0.519043
			v0.8271484l0.3388672,0.0644531v0.3769531h-1.3100586v-0.3769531l0.3369141-0.0644531v-2.2509766l-0.3369141-0.0644531v-0.3789063
			h0.3369141H35.78125z M35.331543,80.1181641h0.4389648c0.1762695,0,0.309082-0.0380859,0.3974609-0.1123047
			s0.1323242-0.1826172,0.1323242-0.3232422s-0.0439453-0.2529297-0.1313477-0.3369141
			c-0.0878906-0.0839844-0.2167969-0.1259766-0.3876953-0.1259766h-0.449707V80.1181641z"/>
		<path class="st2" d="M38.6918945,78.7353516v0.3789063l-0.3388672,0.0644531v1.6367188
			c0,0.2070313,0.0561523,0.3613281,0.168457,0.4648438c0.1123047,0.1025391,0.2661133,0.1533203,0.4614258,0.1533203
			c0.1987305,0,0.3544922-0.0507813,0.4672852-0.1523438c0.112793-0.1025391,0.1694336-0.2578125,0.1694336-0.4658203v-1.6367188
			l-0.3369141-0.0644531v-0.3789063h1.3100586v0.3789063l-0.3388672,0.0644531v1.6367188
			c0,0.3525391-0.1171875,0.6230469-0.3505859,0.8144531c-0.2338867,0.1914063-0.5410156,0.2861328-0.9204102,0.2861328
			c-0.3779297,0-0.6831055-0.0947266-0.9155273-0.2861328S37.71875,81.1679688,37.71875,80.8154297v-1.6367188l-0.3364258-0.0644531
			v-0.3789063H37.71875h0.6342773H38.6918945z"/>
		<path class="st2" d="M43.1826172,79.7363281H42.706543l-0.0825195-0.4306641
			c-0.0546875-0.0341797-0.1352539-0.0644531-0.2412109-0.0898438c-0.1054688-0.0263672-0.2177734-0.0390625-0.3364258-0.0390625
			c-0.1738281,0-0.3081055,0.0361328-0.402832,0.1083984c-0.0952148,0.0722656-0.1425781,0.1660156-0.1425781,0.28125
			c0,0.1064453,0.0498047,0.1933594,0.1489258,0.2617188s0.2705078,0.140625,0.5136719,0.2167969
			c0.3491211,0.0957031,0.6137695,0.2226563,0.7939453,0.3808594s0.2705078,0.3652344,0.2705078,0.6220703
			c0,0.2685547-0.1069336,0.4804688-0.3212891,0.6357422s-0.4970703,0.2324219-0.847168,0.2324219
			c-0.2509766,0-0.4770508-0.0390625-0.6791992-0.1181641c-0.2016602-0.0791016-0.3701172-0.1884766-0.5048828-0.3271484v-0.6552734
			h0.4907227l0.0673828,0.4462891c0.0639648,0.0517578,0.1503906,0.0947266,0.2597656,0.1279297
			c0.109375,0.0341797,0.2314453,0.0507813,0.3662109,0.0507813c0.1738281,0,0.3056641-0.0351563,0.3964844-0.1054688
			c0.090332-0.0703125,0.1357422-0.1650391,0.1357422-0.2822266c0-0.1210938-0.043457-0.2177734-0.1293945-0.2910156
			c-0.0864258-0.0732422-0.2373047-0.1416016-0.453125-0.2070313c-0.375-0.1074219-0.6586914-0.2353516-0.8515625-0.3828125
			c-0.1923828-0.1484375-0.2885742-0.3505859-0.2885742-0.6074219c0-0.2539063,0.1083984-0.4619141,0.3256836-0.6240234
			c0.2172852-0.1611328,0.4902344-0.2441406,0.8188477-0.2480469c0.2431641,0,0.4648438,0.0361328,0.6650391,0.109375
			c0.199707,0.0732422,0.3676758,0.1708984,0.5039063,0.2929688V79.7363281z"/>
		<path class="st2" d="M45.8808594,79.7363281h-0.4755859l-0.0830078-0.4306641
			c-0.0546875-0.0341797-0.1357422-0.0644531-0.2412109-0.0898438c-0.1054688-0.0263672-0.2177734-0.0390625-0.3369141-0.0390625
			c-0.1738281,0-0.3076172,0.0361328-0.4023438,0.1083984c-0.0957031,0.0722656-0.1425781,0.1660156-0.1425781,0.28125
			c0,0.1064453,0.0498047,0.1933594,0.1484375,0.2617188c0.0996094,0.0683594,0.2705078,0.140625,0.5146484,0.2167969
			c0.3486328,0.0957031,0.6132813,0.2226563,0.7939453,0.3808594c0.1796875,0.1582031,0.2705078,0.3652344,0.2705078,0.6220703
			c0,0.2685547-0.1074219,0.4804688-0.3222656,0.6357422c-0.2138672,0.1552734-0.4960938,0.2324219-0.8466797,0.2324219
			c-0.2509766,0-0.4765625-0.0390625-0.6796875-0.1181641c-0.2011719-0.0791016-0.3696289-0.1884766-0.5043945-0.3271484v-0.6552734
			h0.4907227l0.0673828,0.4462891c0.0634766,0.0517578,0.1503906,0.0947266,0.2597656,0.1279297
			c0.109375,0.0341797,0.2314453,0.0507813,0.3662109,0.0507813c0.1738281,0,0.3056641-0.0351563,0.3964844-0.1054688
			c0.0898438-0.0703125,0.1357422-0.1650391,0.1357422-0.2822266c0-0.1210938-0.0429688-0.2177734-0.1298828-0.2910156
			c-0.0859375-0.0732422-0.2363281-0.1416016-0.4521484-0.2070313c-0.3759766-0.1074219-0.6591797-0.2353516-0.8520508-0.3828125
			c-0.1923828-0.1484375-0.2885742-0.3505859-0.2885742-0.6074219c0-0.2539063,0.1083984-0.4619141,0.3256836-0.6240234
			c0.2172852-0.1611328,0.4897461-0.2441406,0.8188477-0.2480469c0.2431641,0,0.4648438,0.0361328,0.6650391,0.109375
			c0.1992188,0.0732422,0.3671875,0.1708984,0.5039063,0.2929688V79.7363281z"/>
		<path class="st2" d="M46.1738281,79.1142578v-0.3789063h1.3105469v0.3789063l-0.3388672,0.0644531v2.2509766l0.3388672,0.0644531
			v0.3769531h-1.3105469v-0.3769531l0.3388672-0.0644531v-2.2509766L46.1738281,79.1142578z"/>
		<path class="st2" d="M47.6923828,81.4941406l0.2265625-0.0322266l0.9619141-2.7265625h0.6494141l0.9560547,2.7265625
			l0.2255859,0.0322266v0.3769531h-1.0771484v-0.3769531l0.2197266-0.0390625l-0.1396484-0.4306641h-1.0253906l-0.1386719,0.4306641
			l0.2197266,0.0390625v0.3769531h-1.078125V81.4941406z M48.8398438,80.5615234h0.7255859l-0.3564453-1.1044922h-0.0126953
			L48.8398438,80.5615234z"/>
	</g>
	<rect x="38.9011345" y="54.2068214" class="st4" width="7.2225909" height="7.2225909"/>
	<g>
		<path class="st5" d="M42.421875,55.3730469c0.6088867,0,1.0986328,0.1855469,1.4692383,0.5576172
			s0.5561523,0.8515625,0.5561523,1.4404297v0.6328125c0,0.5908203-0.1855469,1.0712891-0.5561523,1.4404297
			c-0.3706055,0.3701172-0.8603516,0.5546875-1.4692383,0.5546875h-1.9545898v-0.4003906l0.5224609-0.0888672v-3.6445313
			l-0.5224609-0.0888672v-0.4033203h0.5224609H42.421875z M41.6206055,55.8652344v3.6445313h0.8012695
			c0.4316406,0,0.7719727-0.140625,1.0205078-0.4228516c0.2490234-0.28125,0.3735352-0.6425781,0.3735352-1.0830078v-0.6386719
			c0-0.4365234-0.1245117-0.7949219-0.3735352-1.0771484c-0.2485352-0.28125-0.5888672-0.4228516-1.0205078-0.4228516H41.6206055z"
			/>
	</g>
	<path class="st3" d="M45.5901527,65.5508041"/>
	<path class="st6" d="M37.5609283,73.5908356c0,1.227356-1.0018425,2.2224579-2.2397232,2.2224579
		c-1.2378845,0-2.2415276-0.9951019-2.2415276-2.2224579c0-1.2273483,1.003643-2.2224579,2.2415276-2.2224579
		C36.5590858,71.3683777,37.5609283,72.3634872,37.5609283,73.5908356z"/>
	<ellipse class="st7" cx="35.3203011" cy="73.5908356" rx="1.5315893" ry="1.5185605"/>
	<path class="st6" d="M44.7608757,73.5908356c0,1.227356-1.0018387,2.2224579-2.2397232,2.2224579
		s-2.2415276-0.9951019-2.2415276-2.2224579c0-1.2273483,1.003643-2.2224579,2.2415276-2.2224579
		S44.7608757,72.3634872,44.7608757,73.5908356z"/>
	<ellipse class="st7" cx="42.5202522" cy="73.5908356" rx="1.5315893" ry="1.5185605"/>
	<path class="st6" d="M51.348259,71.9619293c1.5394974,2.0229034-0.1709862,4.2712708-2.1831551,3.7839737
		c-0.7743645-0.1875305-1.4096336-0.8210678-1.598774-1.595047C47.0747375,72.1392441,49.3237839,70.4215393,51.348259,71.9619293z"
		/>
	<ellipse class="st7" cx="49.7201996" cy="73.5908356" rx="1.5315893" ry="1.5185605"/>
	<path class="st8" d="M35.703701,29.0112572c1.4772797-2.1866627,3.979023-3.6243324,6.8165512-3.6243324
		c4.5400391,0,8.2204704,3.6804314,8.2204704,8.2204704s-3.6804314,8.2204742-8.2204704,8.2204742
		c-2.8253365,0-5.3177643-1.4253387-6.7974472-3.5961838L35.703701,29.0112572z"/>
	<g>
		<path class="st9" d="M35.8851814,36.0638733"/>
		<circle class="st10" cx="42.5202522" cy="33.6073952" r="6.8031497"/>
		
			<radialGradient id="SVGID_1_" cx="124.6137619" cy="244.8038025" r="9.1327734" gradientTransform="matrix(0 0.7442034 -0.7442034 0 224.7040863 -59.1305962)" gradientUnits="userSpaceOnUse">
			<stop  offset="0" style="stop-color:#FFFFFF;stop-opacity:0.5"/>
			<stop  offset="0.5867767" style="stop-color:#FFFFFF"/>
			<stop  offset="0.865168" style="stop-color:#F4E847;stop-opacity:0.5"/>
			<stop  offset="0.994382" style="stop-color:#FFFFFF"/>
		</radialGradient>
		<circle class="st11" cx="42.5202522" cy="33.6073952" r="6.7966413"/>
	</g>
</g>
<g id="Рисунок">
	<g>
		<rect x="12.1885586" y="42.1222916" class="st12" width="2.0220809" height="4.1346636"/>
		<rect x="16.2327194" y="42.1222916" class="st12" width="2.0220809" height="4.1346636"/>
		<rect x="9.6609573" y="39.9390335" class="st12" width="11.1214447" height="1.8957007"/>
		<rect x="1.4778464" y="31.3420658" class="st12" width="8.5780487" height="0.8657032"/>
		<rect x="20.2926788" y="31.3420658" class="st12" width="8.5780487" height="0.8657032"/>
		
			<rect x="10.9326553" y="22.0531311" transform="matrix(6.123234e-17 -1 1 6.123234e-17 -7.2643027 37.7076607)" class="st12" width="8.5780487" height="0.8657032"/>
		
			<rect x="7.5440903" y="19.2688694" transform="matrix(0.7071068 -0.7071068 0.7071068 0.7071068 -14.9878407 12.8164816)" class="st12" width="0.8657032" height="10.4625902"/>
		
			<rect x="17.3362274" y="24.0673122" transform="matrix(0.7071068 -0.7071068 0.7071068 0.7071068 -10.7143583 23.1335793)" class="st12" width="10.4625902" height="0.8657032"/>
		<path class="st12" d="M15.1456985,27.5931644c-2.2528105,0-4.0757561,1.8229465-4.0757561,4.075758v7.6145134h7.4218216
			c0,0,0.3648453,0,0.7296906,0c0-0.4146805,0-1.8624878,0-1.8624878v-5.7520256
			C19.2214546,29.416111,17.39851,27.5931644,15.1456985,27.5931644"/>
		<path class="st0" d="M14.3806973,29.6857643c0.1921616-0.16749,0.562726-0.4448318,1.1149721-0.6018333
			c0.5625315-0.1599236,1.050355-0.1201477,1.3228865-0.0690155c-0.0252743-0.03549-0.057188-0.0781136-0.0960178-0.1252384
			c-0.1848373-0.2243309-0.5263634-0.5506439-1.0541153-0.6947842c-0.8231945-0.2248325-1.5933638,0.2051067-1.9469604,0.3977222
			c-0.2307062,0.1256714-0.4119482,0.2563248-0.5361481,0.3540192"/>
		<g>
			<path class="st4" d="M12.3027344,56.1503906H10.5625v-8.4482422h1.7402344V56.1503906z"/>
			<path class="st4" d="M17.043457,53.0576172h-1.3867188v3.0927734h-1.7407227v-8.4482422h3.1386719
				c0.9980469,0,1.7680664,0.2226563,2.3095703,0.6669922c0.5415039,0.4453125,0.8125,1.0732422,0.8125,1.8857422
				c0,0.5761719-0.125,1.0576172-0.3745117,1.4423828s-0.6274414,0.6914063-1.1342773,0.9199219l1.8276367,3.4521484v0.0810547
				h-1.8681641L17.043457,53.0576172z M15.6567383,51.6474609h1.4038086c0.4370117,0,0.7758789-0.1103516,1.015625-0.3330078
				s0.3598633-0.5292969,0.3598633-0.9199219c0-0.3984375-0.1132813-0.7119141-0.3398438-0.9404297
				c-0.2260742-0.2275391-0.5732422-0.3417969-1.0415039-0.3417969h-1.3979492V51.6474609z"/>
		</g>
	</g>
</g>
<g id="Резистор">
	<g>
		<g id="XMLID_19_">
			<g>
				<rect x="21.5935421" y="64.7955246" class="st13" width="4.255477" height="3.4358907"/>
			</g>
			<g>
			</g>
		</g>
		<g id="XMLID_15_">
			<g>
				<rect x="21.6324863" y="71.9239807" class="st13" width="4.2572474" height="3.4358907"/>
			</g>
			<g>
			</g>
		</g>
		<g id="XMLID_14_">
			<g>
				<rect x="21.9316444" y="67.52742" class="st14" width="3.6075966" height="5.1633434"/>
			</g>
			<g>
			</g>
		</g>
		<g>
			<path class="st15" d="M23.190918,69.5351563v-0.6972656h0.1313477v0.2675781h0.862793v-0.2675781h0.1171875
				c0,0.0361328,0.003418,0.0751953,0.0092773,0.1171875c0.0058594,0.0410156,0.0146484,0.0722656,0.0263672,0.09375
				c0.0141602,0.0263672,0.0327148,0.046875,0.0546875,0.0625c0.0224609,0.015625,0.0522461,0.0244141,0.0898438,0.0263672
				v0.1337891h-1.1601563v0.2636719H23.190918z"/>
			<path class="st15" d="M23.8349609,70.5546875c-0.230957,0-0.4008789-0.0361328-0.5087891-0.1083984
				s-0.1621094-0.1845703-0.1621094-0.3369141c0-0.1542969,0.0546875-0.2675781,0.1640625-0.3378906
				c0.1098633-0.0722656,0.277832-0.1074219,0.5048828-0.1074219c0.2290039,0,0.3979492,0.0361328,0.5068359,0.1083984
				c0.109375,0.0712891,0.1640625,0.1845703,0.1640625,0.3369141c0,0.1542969-0.0556641,0.2675781-0.1665039,0.3378906
				C24.2265625,70.5195313,24.059082,70.5546875,23.8349609,70.5546875z M23.4423828,70.3271484
				c0.046875,0.0205078,0.1015625,0.0341797,0.1645508,0.0410156c0.0634766,0.0068359,0.1391602,0.0107422,0.2280273,0.0107422
				c0.0874023,0,0.1635742-0.0039063,0.2280273-0.0107422s0.1191406-0.0205078,0.1640625-0.0419922
				c0.0444336-0.0195313,0.078125-0.046875,0.1005859-0.0820313s0.0336914-0.0800781,0.0336914-0.1347656
				s-0.0112305-0.0996094-0.0336914-0.1347656s-0.0566406-0.0625-0.1020508-0.0839844
				c-0.0424805-0.0195313-0.0981445-0.0332031-0.1669922-0.0400391c-0.0683594-0.0068359-0.1435547-0.0107422-0.2255859-0.0107422
				c-0.0898438,0-0.1650391,0.0029297-0.2255859,0.0097656c-0.0605469,0.0058594-0.1147461,0.0195313-0.1625977,0.0410156
				c-0.0449219,0.0175781-0.0791016,0.0449219-0.1025391,0.0800781c-0.0239258,0.0351563-0.0356445,0.0810547-0.0356445,0.1386719
				c0,0.0546875,0.0112305,0.0996094,0.0336914,0.1347656S23.3969727,70.3076172,23.4423828,70.3271484z"/>
			<path class="st15" d="M23.8105469,71.390625c-0.0249023,0.0283203-0.0556641,0.0507813-0.0932617,0.0683594
				c-0.0375977,0.0185547-0.0859375,0.0273438-0.1450195,0.0273438s-0.112793-0.0107422-0.1616211-0.03125
				c-0.0493164-0.0214844-0.0917969-0.0517578-0.1279297-0.0898438c-0.0405273-0.0439453-0.0703125-0.0947266-0.0898438-0.1533203
				c-0.019043-0.0585938-0.0288086-0.1220703-0.0288086-0.1923828c0-0.0712891,0.0087891-0.1416016,0.0253906-0.2109375
				c0.0170898-0.0683594,0.0356445-0.1259766,0.0561523-0.1699219h0.1801758v0.0126953
				c-0.0322266,0.0488281-0.0585938,0.1064453-0.0800781,0.1728516s-0.0322266,0.1308594-0.0322266,0.1914063
				c0,0.0371094,0.0063477,0.0761719,0.0185547,0.1162109c0.0117188,0.0410156,0.0297852,0.0742188,0.0532227,0.0996094
				c0.0253906,0.0263672,0.0532227,0.0458984,0.0839844,0.0595703c0.0307617,0.0126953,0.0693359,0.0195313,0.1157227,0.0195313
				s0.0844727-0.0078125,0.1147461-0.0224609s0.0537109-0.0351563,0.0712891-0.0615234
				c0.0175781-0.0253906,0.0297852-0.0566406,0.0366211-0.09375s0.0097656-0.0761719,0.0097656-0.1191406v-0.078125h0.1435547
				v0.0605469c0,0.0878906,0.0185547,0.1582031,0.0551758,0.2099609s0.0898438,0.078125,0.1601563,0.078125
				c0.03125,0,0.0581055-0.0068359,0.081543-0.0205078c0.0234375-0.0126953,0.0424805-0.03125,0.0576172-0.0546875
				c0.0151367-0.0253906,0.0253906-0.0507813,0.03125-0.0800781c0.0053711-0.0273438,0.0083008-0.0595703,0.0083008-0.0957031
				c0-0.0546875-0.0097656-0.1132813-0.0292969-0.1738281c-0.0195313-0.0625-0.0473633-0.1201172-0.0830078-0.1757813v-0.0078125
				h0.1806641c0.0205078,0.0410156,0.0390625,0.0957031,0.0556641,0.1640625
				c0.0170898,0.0683594,0.0258789,0.1337891,0.0258789,0.1972656s-0.0058594,0.1191406-0.0175781,0.1660156
				c-0.0112305,0.0488281-0.0297852,0.0917969-0.0551758,0.1308594c-0.027832,0.0410156-0.0610352,0.0722656-0.1000977,0.09375
				c-0.0395508,0.0214844-0.0849609,0.03125-0.1376953,0.03125c-0.0712891,0-0.1337891-0.0244141-0.1870117-0.0751953
				c-0.0532227-0.0498047-0.0869141-0.1103516-0.1005859-0.1787109h-0.012207
				c-0.0048828,0.0273438-0.0141602,0.0595703-0.0288086,0.0957031
				C23.8510742,71.3359375,23.8325195,71.3671875,23.8105469,71.390625z"/>
		</g>
	</g>
	<g>
		<g id="XMLID_25_">
			<g>
				<rect x="58.9604454" y="57.0462799" class="st13" width="4.255477" height="3.4358907"/>
			</g>
			<g>
			</g>
		</g>
		<g id="XMLID_24_">
			<g>
				<rect x="58.9197311" y="49.9178238" class="st13" width="4.2572474" height="3.4358907"/>
			</g>
			<g>
			</g>
		</g>
		<g id="XMLID_23_">
			<g>
				<rect x="59.2702217" y="52.5869293" class="st14" width="3.6075966" height="5.1633434"/>
			</g>
			<g>
			</g>
		</g>
		<g>
			<path class="st15" d="M60.9990234,55.7832031c0.0253906-0.0273438,0.0556641-0.0507813,0.09375-0.0683594
				c0.0371094-0.0175781,0.0859375-0.0263672,0.1445313-0.0263672c0.0595703,0,0.1132813,0.0107422,0.1621094,0.03125
				c0.0488281,0.0214844,0.0917969,0.0517578,0.1279297,0.0898438c0.0400391,0.0439453,0.0703125,0.0947266,0.0898438,0.1533203
				c0.0185547,0.0585938,0.0283203,0.1220703,0.0283203,0.1923828c0,0.0712891-0.0087891,0.1416016-0.0253906,0.2109375
				c-0.0166016,0.0683594-0.0351563,0.1259766-0.0556641,0.1699219h-0.1806641v-0.0126953
				c0.0322266-0.0488281,0.0585938-0.1064453,0.0800781-0.1728516s0.0322266-0.1308594,0.0322266-0.1923828
				c0-0.0361328-0.0058594-0.0751953-0.0185547-0.1152344c-0.0117188-0.0410156-0.0292969-0.0742188-0.0527344-0.0996094
				c-0.0253906-0.0263672-0.0537109-0.046875-0.0839844-0.0595703c-0.03125-0.0126953-0.0693359-0.0195313-0.1162109-0.0195313
				c-0.0458984,0-0.0839844,0.0078125-0.1142578,0.0224609s-0.0537109,0.0351563-0.0712891,0.0605469
				c-0.0175781,0.0263672-0.0302734,0.0576172-0.0371094,0.0947266c-0.0068359,0.0361328-0.0097656,0.0761719-0.0097656,0.1191406
				v0.0771484h-0.1435547v-0.0595703c0-0.0878906-0.0185547-0.1582031-0.0546875-0.2099609
				c-0.0371094-0.0527344-0.0898438-0.078125-0.1601563-0.078125c-0.03125,0-0.0585938,0.0068359-0.0820313,0.0195313
				c-0.0234375,0.0136719-0.0419922,0.0322266-0.0576172,0.0556641c-0.0146484,0.0244141-0.0253906,0.0507813-0.03125,0.0791016
				c-0.0048828,0.0283203-0.0078125,0.0605469-0.0078125,0.0957031c0,0.0556641,0.0097656,0.1132813,0.0292969,0.1748047
				s0.046875,0.1201172,0.0830078,0.1748047v0.0087891h-0.1806641c-0.0205078-0.0410156-0.0390625-0.0957031-0.0556641-0.1640625
				c-0.0175781-0.0683594-0.0263672-0.1337891-0.0263672-0.1982422c0-0.0625,0.0058594-0.1181641,0.0175781-0.1660156
				s0.0302734-0.0908203,0.0556641-0.1298828c0.0273438-0.0410156,0.0605469-0.0722656,0.0996094-0.09375
				c0.0400391-0.0214844,0.0849609-0.0322266,0.1376953-0.0322266c0.0712891,0,0.1337891,0.0253906,0.1875,0.0761719
				c0.0527344,0.0498047,0.0869141,0.109375,0.1005859,0.1777344h0.0117188
				c0.0048828-0.0273438,0.0146484-0.0585938,0.0292969-0.0947266S60.9775391,55.8076172,60.9990234,55.7832031z"/>
			<path class="st15" d="M60.9746094,54.7236328c0.2314453,0,0.4013672,0.0361328,0.5087891,0.1083984
				c0.1083984,0.0722656,0.1621094,0.1845703,0.1621094,0.3369141c0,0.1542969-0.0546875,0.2666016-0.1640625,0.3378906
				s-0.2773438,0.1064453-0.5048828,0.1064453c-0.2285156,0-0.3974609-0.0351563-0.5068359-0.1074219
				s-0.1640625-0.1845703-0.1640625-0.3369141c0-0.1542969,0.0556641-0.2675781,0.1669922-0.3388672
				C60.5830078,54.7587891,60.7509766,54.7236328,60.9746094,54.7236328z M61.3671875,54.9511719
				c-0.046875-0.0205078-0.1015625-0.0341797-0.1640625-0.0410156c-0.0634766-0.0078125-0.1396484-0.0107422-0.2285156-0.0107422
				c-0.0869141,0-0.1630859,0.0029297-0.2275391,0.0107422c-0.0644531,0.0068359-0.1191406,0.0205078-0.1640625,0.0419922
				c-0.0449219,0.0195313-0.078125,0.046875-0.1005859,0.0820313s-0.0341797,0.0800781-0.0341797,0.1347656
				c0,0.0537109,0.0117188,0.0986328,0.0341797,0.1337891c0.0224609,0.0361328,0.0566406,0.0634766,0.1015625,0.0849609
				c0.0429688,0.0195313,0.0986328,0.0322266,0.1669922,0.0400391c0.0683594,0.0068359,0.1435547,0.0107422,0.2255859,0.0107422
				c0.0898438,0,0.1650391-0.0029297,0.2255859-0.0097656c0.0605469-0.0058594,0.1152344-0.0195313,0.1630859-0.0410156
				c0.0449219-0.0185547,0.0791016-0.0458984,0.1025391-0.0800781c0.0234375-0.0351563,0.0351563-0.0810547,0.0351563-0.1386719
				c0-0.0546875-0.0107422-0.0996094-0.0332031-0.1347656C61.4472656,54.9980469,61.4130859,54.9707031,61.3671875,54.9511719z"/>
			<path class="st15" d="M60.9746094,53.7753906c0.2314453,0,0.4013672,0.0361328,0.5087891,0.1083984
				c0.1083984,0.0722656,0.1621094,0.1845703,0.1621094,0.3369141c0,0.1542969-0.0546875,0.2666016-0.1640625,0.3378906
				s-0.2773438,0.1064453-0.5048828,0.1064453c-0.2285156,0-0.3974609-0.0351563-0.5068359-0.1074219
				s-0.1640625-0.1845703-0.1640625-0.3369141c0-0.1542969,0.0556641-0.2675781,0.1669922-0.3388672
				C60.5830078,53.8105469,60.7509766,53.7753906,60.9746094,53.7753906z M61.3671875,54.0029297
				c-0.046875-0.0205078-0.1015625-0.0341797-0.1640625-0.0410156c-0.0634766-0.0078125-0.1396484-0.0107422-0.2285156-0.0107422
				c-0.0869141,0-0.1630859,0.0029297-0.2275391,0.0107422c-0.0644531,0.0068359-0.1191406,0.0205078-0.1640625,0.0419922
				c-0.0449219,0.0195313-0.078125,0.046875-0.1005859,0.0820313s-0.0341797,0.0800781-0.0341797,0.1347656
				c0,0.0537109,0.0117188,0.0986328,0.0341797,0.1337891c0.0224609,0.0361328,0.0566406,0.0634766,0.1015625,0.0849609
				c0.0429688,0.0195313,0.0986328,0.0322266,0.1669922,0.0400391c0.0683594,0.0068359,0.1435547,0.0107422,0.2255859,0.0107422
				c0.0898438,0,0.1650391-0.0029297,0.2255859-0.0097656c0.0605469-0.0058594,0.1152344-0.0195313,0.1630859-0.0410156
				c0.0449219-0.0185547,0.0791016-0.0458984,0.1025391-0.0800781c0.0234375-0.0351563,0.0351563-0.0810547,0.0351563-0.1386719
				c0-0.0546875-0.0107422-0.0996094-0.0332031-0.1347656C61.4472656,54.0498047,61.4130859,54.0224609,61.3671875,54.0029297z"/>
		</g>
	</g>
</g>
<g id="J3y">
	<g>
		<g id="XMLID_6_">
			<g>
				
					<linearGradient id="SVGID_2_" gradientUnits="userSpaceOnUse" x1="61.0694008" y1="74.2291031" x2="61.0694008" y2="65.6701584">
					<stop  offset="0" style="stop-color:#313131"/>
					<stop  offset="0.0640988" style="stop-color:#313131"/>
					<stop  offset="0.55211" style="stop-color:#313131"/>
					<stop  offset="0.994382" style="stop-color:#666566"/>
				</linearGradient>
				<rect x="59.2381821" y="65.6701584" class="st16" width="3.662437" height="8.5589418"/>
			</g>
			<g>
			</g>
		</g>
		<g id="XMLID_18_">
			<g>
				<rect x="56.1849594" y="69.2739258" class="st1" width="2.9478152" height="1.6072793"/>
			</g>
			<g>
			</g>
		</g>
		<g id="XMLID_16_">
			<g>
				<rect x="62.9006195" y="66.4665909" class="st1" width="3.5123663" height="1.6811564"/>
			</g>
			<g>
			</g>
		</g>
		<g id="XMLID_17_">
			<g>
				<rect x="62.9006195" y="71.9551315" class="st1" width="3.5123663" height="1.6811564"/>
			</g>
			<g>
			</g>
		</g>
		<g>
			<path class="st15" d="M61.4052734,70.9003906c0.1591797,0,0.2822266,0.0488281,0.3691406,0.1474609
				c0.0859375,0.0976563,0.1289063,0.2294922,0.1289063,0.3945313c0,0.0390625-0.0029297,0.0917969-0.0097656,0.1572266
				c-0.0068359,0.0664063-0.015625,0.1210938-0.0253906,0.1650391h-0.2255859v-0.0136719
				c0.0107422-0.0332031,0.0224609-0.0751953,0.0351563-0.1240234c0.0117188-0.0488281,0.0185547-0.0996094,0.0185547-0.1513672
				c0-0.0761719-0.0087891-0.1357422-0.0263672-0.1806641c-0.0166016-0.0449219-0.0410156-0.078125-0.0732422-0.0986328
				c-0.0322266-0.0224609-0.0722656-0.0371094-0.1191406-0.0429688c-0.0478516-0.0058594-0.1015625-0.0087891-0.1640625-0.0087891
				h-1.0615234v0.3876953h-0.1923828v-0.6318359H61.4052734z"/>
			<path class="st15" d="M61.0019531,69.3935547c0.0351563-0.0390625,0.0791016-0.0722656,0.1318359-0.0976563
				c0.0537109-0.0253906,0.1220703-0.0380859,0.2050781-0.0380859c0.0839844,0,0.1591797,0.015625,0.2285156,0.0458984
				s0.1298828,0.0732422,0.1806641,0.1279297c0.0576172,0.0615234,0.0996094,0.1337891,0.1269531,0.2177734
				c0.0273438,0.0830078,0.0410156,0.1748047,0.0410156,0.2734375c0,0.1025391-0.0126953,0.2021484-0.0361328,0.3007813
				c-0.0244141,0.0986328-0.0507813,0.1796875-0.0791016,0.2431641h-0.2548828v-0.0185547
				c0.0458984-0.0703125,0.0830078-0.1523438,0.1132813-0.2470703c0.0302734-0.09375,0.0449219-0.1855469,0.0449219-0.2734375
				c0-0.0517578-0.0078125-0.1064453-0.0253906-0.1650391c-0.0166016-0.0576172-0.0419922-0.1054688-0.0751953-0.1416016
				c-0.0361328-0.0371094-0.0751953-0.0654297-0.1191406-0.0839844c-0.0429688-0.0185547-0.0976563-0.0273438-0.1630859-0.0273438
				s-0.1191406,0.0097656-0.1621094,0.03125c-0.0429688,0.0205078-0.0761719,0.0498047-0.1005859,0.0869141
				c-0.0253906,0.0361328-0.0429688,0.0810547-0.0517578,0.1337891c-0.0097656,0.0527344-0.0146484,0.109375-0.0146484,0.1699219
				v0.1113281h-0.2021484v-0.0869141c0-0.1240234-0.0263672-0.2236328-0.078125-0.2978516
				c-0.0517578-0.0751953-0.1269531-0.1123047-0.2265625-0.1123047c-0.0439453,0-0.0820313,0.0097656-0.1152344,0.0283203
				c-0.0332031,0.0195313-0.0595703,0.0458984-0.0810547,0.0791016c-0.0214844,0.0351563-0.0361328,0.0732422-0.0439453,0.1132813
				s-0.0126953,0.0859375-0.0126953,0.1367188c0,0.078125,0.0146484,0.1611328,0.0419922,0.2490234
				s0.0664063,0.1708984,0.1171875,0.2490234v0.0117188h-0.2548828c-0.0292969-0.0576172-0.0546875-0.1357422-0.0791016-0.2333984
				c-0.0244141-0.0966797-0.0361328-0.1914063-0.0361328-0.2822266c0-0.0898438,0.0078125-0.1679688,0.0244141-0.2363281
				s0.0419922-0.1298828,0.078125-0.1845703c0.0390625-0.0595703,0.0869141-0.1044922,0.1416016-0.1347656
				c0.0556641-0.0302734,0.1201172-0.0458984,0.1943359-0.0458984c0.1005859,0,0.1894531,0.0361328,0.2646484,0.1083984
				c0.0751953,0.0712891,0.1230469,0.15625,0.1425781,0.2539063h0.0166016
				c0.0068359-0.0390625,0.0205078-0.0839844,0.0410156-0.1357422
				C60.9453125,69.4716797,60.9716797,69.4287109,61.0019531,69.3935547z"/>
			<path class="st15" d="M60.0595703,67.5244141l1.0205078,0.6445313h0.7978516v0.2441406h-0.7714844l-1.046875,0.6484375
				v-0.2705078l0.8134766-0.5009766l-0.8134766-0.5058594V67.5244141z"/>
		</g>
	</g>
	<g>
	</g>
	<g>
	</g>
	<g>
	</g>
	<g>
	</g>
	<g>
	</g>
</g>
</svg>
