<?xml version="1.0" encoding="utf-8"?>
<!-- Generator: Adobe Illustrator 23.1.0, SVG Export Plug-In . SVG Version: 6.00 Build 0)  -->
<svg version="1.1" xmlns="http://www.w3.org/2000/svg" xmlns:xlink="http://www.w3.org/1999/xlink" x="0px" y="0px"
	 viewBox="0 0 155.91 155.64" style="enable-background:new 0 0 155.91 155.64;" xml:space="preserve">
<style type="text/css">
	.st0{clip-path:url(#SVGID_2_);fill:#0D0E0F;}
	.st1{fill:none;stroke:#FFFFFF;stroke-width:0.5;stroke-miterlimit:10;}
	.st2{fill:#FFFFFF;}
	.st3{fill:#0D0E0F;}
	.st4{fill:#E39344;stroke:#666566;stroke-width:0.0232;stroke-miterlimit:10;}
	.st5{fill:#EBAD4F;stroke:#B3B3B3;stroke-width:0.0252;stroke-miterlimit:10;}
	.st6{fill:none;stroke:#808080;stroke-width:0.0114;stroke-miterlimit:10;}
	.st7{fill:#E2E2E2;}
	.st8{fill:none;stroke:#E2E2E2;stroke-linecap:square;stroke-miterlimit:10;}
	.st9{fill:#B5B4B3;}
	.st10{fill:#CDC7BC;}
	.st11{display:none;fill:#D2D94E;stroke:#EFE94A;stroke-width:0.25;stroke-miterlimit:10;}
	.st12{fill:#EBAD4F;}
	.st13{fill:#4CB8F2;}
	.st14{opacity:0.37;fill:none;stroke:#FFFFFF;stroke-width:0.5;stroke-miterlimit:10;}
	.st15{fill:#363331;}
	.st16{fill:#9E9B9C;}
	.st17{fill:#8E7647;}
	.st18{fill:#5DAF61;}
	.st19{fill:none;stroke:#FFFFFF;stroke-width:0.5;stroke-linecap:round;stroke-miterlimit:10;}
	.st20{fill:#4E8B5C;}
	.st21{fill:#CCCCCC;}
	.st22{opacity:0.5;fill:url(#SVGID_3_);}
	.st23{opacity:0.1;fill:#B3B3B3;}
	.st24{opacity:0.5;fill:url(#SVGID_4_);}
	.st25{fill:#B3B3B3;}
	.st26{opacity:0.5;fill:url(#SVGID_5_);}
	.st27{opacity:0.5;fill:url(#SVGID_6_);}
	.st28{opacity:0.5;fill:url(#SVGID_7_);}
	.st29{opacity:0.5;fill:url(#SVGID_8_);}
	.st30{fill:none;stroke:#C9C8C8;stroke-width:0.75;stroke-miterlimit:10;}
	.st31{fill:#46433E;}
	.st32{fill:#CBC5BA;}
	.st33{fill:none;stroke:#E5E5E5;stroke-miterlimit:10;}
	.st34{fill:none;stroke:#C9C8C8;stroke-miterlimit:10;}
	.st35{fill:#4C4C4C;}
	.st36{opacity:0.5;fill:url(#SVGID_9_);}
	.st37{opacity:0.5;fill:url(#SVGID_10_);}
	.st38{opacity:0.5;fill:url(#SVGID_11_);}
	.st39{opacity:0.5;fill:url(#SVGID_12_);}
	.st40{fill:#844745;}
	.st41{fill:none;}
	.st42{clip-path:url(#SVGID_14_);fill:#0D0E0F;}
	.st43{opacity:0.5;fill:url(#SVGID_15_);}
	.st44{opacity:0.5;fill:url(#SVGID_16_);}
	.st45{opacity:0.5;fill:url(#SVGID_17_);}
	.st46{opacity:0.5;fill:url(#SVGID_18_);}
	.st47{opacity:0.5;fill:url(#SVGID_19_);}
	.st48{opacity:0.5;fill:url(#SVGID_20_);}
	.st49{opacity:0.5;fill:url(#SVGID_21_);}
	.st50{opacity:0.5;fill:url(#SVGID_22_);}
	.st51{opacity:0.5;fill:url(#SVGID_23_);}
	.st52{opacity:0.5;fill:url(#SVGID_24_);}
	.st53{clip-path:url(#SVGID_26_);fill:#0D0E0F;}
	.st54{opacity:0.5;fill:url(#SVGID_27_);}
	.st55{opacity:0.5;fill:url(#SVGID_28_);}
	.st56{opacity:0.5;fill:url(#SVGID_29_);}
	.st57{opacity:0.5;fill:url(#SVGID_30_);}
	.st58{opacity:0.5;fill:url(#SVGID_31_);}
	.st59{opacity:0.5;fill:url(#SVGID_32_);}
	.st60{opacity:0.5;fill:url(#SVGID_33_);}
	.st61{opacity:0.5;fill:url(#SVGID_34_);}
	.st62{opacity:0.5;fill:url(#SVGID_35_);}
	.st63{opacity:0.5;fill:url(#SVGID_36_);}
	.st64{clip-path:url(#SVGID_38_);fill:#0D0E0F;}
	.st65{opacity:0.5;fill:url(#SVGID_39_);}
	.st66{opacity:0.5;fill:url(#SVGID_40_);}
	.st67{opacity:0.5;fill:url(#SVGID_41_);}
	.st68{opacity:0.5;fill:url(#SVGID_42_);}
	.st69{opacity:0.5;fill:url(#SVGID_43_);}
	.st70{opacity:0.5;fill:url(#SVGID_44_);}
	.st71{opacity:0.5;fill:url(#SVGID_45_);}
	.st72{opacity:0.5;fill:url(#SVGID_46_);}
	.st73{opacity:0.5;fill:url(#SVGID_47_);}
	.st74{opacity:0.5;fill:url(#SVGID_48_);}
	.st75{clip-path:url(#SVGID_50_);fill:#0D0E0F;}
	.st76{fill:#CEC7BD;}
	.st77{fill:#918C84;}
	.st78{fill:none;stroke:#E2E2E2;stroke-width:0.75;stroke-linecap:round;stroke-miterlimit:10;}
	.st79{fill:none;stroke:#E2E2E2;stroke-width:0.5;stroke-linecap:round;stroke-miterlimit:10;}
	.st80{fill:#FFFFFF;stroke:#0D0E0F;stroke-width:0.1302;stroke-miterlimit:10;}
	.st81{fill:#EFEFEF;}
	.st82{clip-path:url(#SVGID_52_);fill:#0D0E0F;}
	.st83{clip-path:url(#SVGID_54_);fill:#0D0E0F;}
	.st84{clip-path:url(#SVGID_56_);fill:#0D0E0F;}
</style>
<g id="NC">
</g>
<g id="N">
</g>
<g id="Слой_3">
	<g>
		<g id="днище_4_">
			<g>
				<defs>
					<path id="SVGID_51_" d="M141.79,141.73v9.79c0,2.35-1.9,4.25-4.25,4.25h-5.67c-2.35,0-4.25-1.9-4.25-4.25v-9.79l0,0.02
						l-99.25-0.02l0,9.79c0,2.35-1.9,4.25-4.25,4.25h-5.67c-2.35,0-4.25-1.9-4.25-4.25l0-9.79l-9.95,0l-4.21-3.95V18.15l3.98-3.98
						l10.19,0c0,0,0-9.79,0-9.79c0-2.35,1.9-4.25,4.25-4.25h5.67c2.35,0,4.25,1.9,4.25,4.25l0,9.79l0,0l99.24,0c0,0,0-9.79,0-9.79
						c0-2.35,1.9-4.25,4.25-4.25h5.67c2.35,0,4.25,1.9,4.25,4.25l0,9.79v0l10.17,0l3.98,3.98v119.62l-3.98,3.98l-10.17,0"/>
				</defs>
				<clipPath id="SVGID_2_">
					<use xlink:href="#SVGID_51_"  style="overflow:visible;"/>
				</clipPath>
				<path class="st0" d="M155.94,155.77V-0.13H0.03v155.91H155.94z M10.88,90.19c-0.7,0-1.26-0.56-1.26-1.26s0.56-1.26,1.26-1.26
					c0.7,0,1.26,0.56,1.26,1.26S11.58,90.19,10.88,90.19z M14.49,90.19c-0.7,0-1.26-0.56-1.26-1.26s0.56-1.26,1.26-1.26
					s1.26,0.56,1.26,1.26S15.18,90.19,14.49,90.19z M10.88,86.5c-0.7,0-1.26-0.56-1.26-1.26c0-0.7,0.56-1.26,1.26-1.26
					c0.7,0,1.26,0.56,1.26,1.26C12.14,85.93,11.58,86.5,10.88,86.5z M14.49,86.5c-0.7,0-1.26-0.56-1.26-1.26
					c0-0.7,0.56-1.26,1.26-1.26s1.26,0.56,1.26,1.26C15.75,85.93,15.18,86.5,14.49,86.5z M10.88,82.93c-0.7,0-1.26-0.56-1.26-1.26
					c0-0.7,0.56-1.26,1.26-1.26c0.7,0,1.26,0.56,1.26,1.26C12.14,82.37,11.58,82.93,10.88,82.93z M14.49,82.93
					c-0.7,0-1.26-0.56-1.26-1.26c0-0.7,0.56-1.26,1.26-1.26s1.26,0.56,1.26,1.26C15.75,82.37,15.18,82.93,14.49,82.93z M19.8,142.31
					c-0.39,0-0.71-0.32-0.71-0.71c0-0.39,0.32-0.71,0.71-0.71c0.39,0,0.71,0.32,0.71,0.71C20.5,141.99,20.19,142.31,19.8,142.31z
					 M17.03,142.31c-0.39,0-0.71-0.32-0.71-0.71c0-0.39,0.32-0.71,0.71-0.71c0.39,0,0.71,0.32,0.71,0.71
					C17.74,141.99,17.42,142.31,17.03,142.31z M22.76,142.31c-0.39,0-0.71-0.32-0.71-0.71c0-0.39,0.32-0.71,0.71-0.71
					c0.39,0,0.71,0.32,0.71,0.71C23.47,141.99,23.15,142.31,22.76,142.31z M25.53,142.31c-0.39,0-0.71-0.32-0.71-0.71
					c0-0.39,0.32-0.71,0.71-0.71c0.39,0,0.71,0.32,0.71,0.71C26.24,141.99,25.92,142.31,25.53,142.31z M28.37,142.31
					c-0.39,0-0.71-0.32-0.71-0.71c0-0.39,0.32-0.71,0.71-0.71c0.39,0,0.71,0.32,0.71,0.71C29.07,141.99,28.76,142.31,28.37,142.31z
					 M14.19,142.31c-0.39,0-0.71-0.32-0.71-0.71c0-0.39,0.32-0.71,0.71-0.71s0.71,0.32,0.71,0.71
					C14.9,141.99,14.58,142.31,14.19,142.31z M133.93,14.33c0,0.39-0.32,0.71-0.71,0.71s-0.71-0.32-0.71-0.71
					c0-0.39,0.32-0.71,0.71-0.71S133.93,13.94,133.93,14.33z M131.16,14.33c0,0.39-0.32,0.71-0.71,0.71s-0.71-0.32-0.71-0.71
					c0-0.39,0.32-0.71,0.71-0.71S131.16,13.94,131.16,14.33z M136.89,14.33c0,0.39-0.32,0.71-0.71,0.71c-0.39,0-0.71-0.32-0.71-0.71
					c0-0.39,0.32-0.71,0.71-0.71C136.58,13.62,136.89,13.94,136.89,14.33z M139.66,14.33c0,0.39-0.32,0.71-0.71,0.71
					c-0.39,0-0.71-0.32-0.71-0.71c0-0.39,0.32-0.71,0.71-0.71C139.35,13.62,139.66,13.94,139.66,14.33z M142.5,14.33
					c0,0.39-0.32,0.71-0.71,0.71c-0.39,0-0.71-0.32-0.71-0.71c0-0.39,0.32-0.71,0.71-0.71C142.18,13.62,142.5,13.94,142.5,14.33z
					 M128.32,14.33c0,0.39-0.32,0.71-0.71,0.71c-0.39,0-0.71-0.32-0.71-0.71c0-0.39,0.32-0.71,0.71-0.71
					C128.01,13.62,128.32,13.94,128.32,14.33z M20.5,14.33c0,0.39-0.32,0.71-0.71,0.71c-0.39,0-0.71-0.32-0.71-0.71
					c0-0.39,0.32-0.71,0.71-0.71C20.19,13.62,20.5,13.94,20.5,14.33z M17.74,14.33c0,0.39-0.32,0.71-0.71,0.71
					c-0.39,0-0.71-0.32-0.71-0.71c0-0.39,0.32-0.71,0.71-0.71C17.42,13.62,17.74,13.94,17.74,14.33z M23.47,14.33
					c0,0.39-0.32,0.71-0.71,0.71c-0.39,0-0.71-0.32-0.71-0.71c0-0.39,0.32-0.71,0.71-0.71C23.15,13.62,23.47,13.94,23.47,14.33z
					 M26.24,14.33c0,0.39-0.32,0.71-0.71,0.71c-0.39,0-0.71-0.32-0.71-0.71c0-0.39,0.32-0.71,0.71-0.71
					C25.92,13.62,26.24,13.94,26.24,14.33z M29.07,14.33c0,0.39-0.32,0.71-0.71,0.71c-0.39,0-0.71-0.32-0.71-0.71
					c0-0.39,0.32-0.71,0.71-0.71C28.76,13.62,29.07,13.94,29.07,14.33z M14.9,14.33c0,0.39-0.32,0.71-0.71,0.71
					s-0.71-0.32-0.71-0.71c0-0.39,0.32-0.71,0.71-0.71S14.9,13.94,14.9,14.33z M133.22,142.31c-0.39,0-0.71-0.32-0.71-0.71
					c0-0.39,0.32-0.71,0.71-0.71s0.71,0.32,0.71,0.71C133.93,141.99,133.61,142.31,133.22,142.31z M130.45,142.31
					c-0.39,0-0.71-0.32-0.71-0.71c0-0.39,0.32-0.71,0.71-0.71s0.71,0.32,0.71,0.71C131.16,141.99,130.84,142.31,130.45,142.31z
					 M136.19,142.31c-0.39,0-0.71-0.32-0.71-0.71c0-0.39,0.32-0.71,0.71-0.71c0.39,0,0.71,0.32,0.71,0.71
					C136.89,141.99,136.58,142.31,136.19,142.31z M138.95,142.31c-0.39,0-0.71-0.32-0.71-0.71c0-0.39,0.32-0.71,0.71-0.71
					c0.39,0,0.71,0.32,0.71,0.71C139.66,141.99,139.35,142.31,138.95,142.31z M141.79,142.31c-0.39,0-0.71-0.32-0.71-0.71
					c0-0.39,0.32-0.71,0.71-0.71c0.39,0,0.71,0.32,0.71,0.71C142.5,141.99,142.18,142.31,141.79,142.31z M127.61,142.31
					c-0.39,0-0.71-0.32-0.71-0.71c0-0.39,0.32-0.71,0.71-0.71c0.39,0,0.71,0.32,0.71,0.71
					C128.32,141.99,128.01,142.31,127.61,142.31z M21.28,152.94c-2.35,0-4.25-1.9-4.25-4.25s1.9-4.25,4.25-4.25s4.25,1.9,4.25,4.25
					S23.63,152.94,21.28,152.94z M134.7,153c-2.35,0-4.25-1.9-4.25-4.25s1.9-4.25,4.25-4.25c2.35,0,4.25,1.9,4.25,4.25
					S137.05,153,134.7,153z M134.7,11.44c-2.35,0-4.25-1.9-4.25-4.25s1.9-4.25,4.25-4.25s4.25,1.9,4.25,4.25
					S137.05,11.44,134.7,11.44z M21.29,11.5c-2.35,0-4.25-1.9-4.25-4.25S18.94,3,21.29,3s4.25,1.9,4.25,4.25S23.64,11.5,21.29,11.5z
					"/>
			</g>
		</g>
		<g id="text_4_">
			<g id="I2C_10_">
				<rect x="8.13" y="104.95" class="st1" width="18.24" height="28.75"/>
				<line class="st1" x1="26.37" y1="126.75" x2="8.13" y2="126.75"/>
				<line class="st1" x1="26.37" y1="119.44" x2="8.13" y2="119.44"/>
				<line class="st1" x1="26.37" y1="112.24" x2="8.13" y2="112.24"/>
				<g>
					<path class="st2" d="M17.31,130.29c-0.4-0.12-0.69-0.26-0.87-0.43c-0.18-0.17-0.27-0.38-0.27-0.62c0-0.28,0.11-0.51,0.33-0.7
						c0.22-0.18,0.51-0.27,0.87-0.27c0.24,0,0.46,0.05,0.65,0.14c0.19,0.09,0.34,0.22,0.44,0.39c0.1,0.17,0.16,0.35,0.16,0.54h-0.47
						c0-0.22-0.07-0.39-0.2-0.51c-0.14-0.12-0.33-0.18-0.57-0.18c-0.23,0-0.41,0.05-0.54,0.15c-0.13,0.1-0.19,0.24-0.19,0.42
						c0,0.15,0.06,0.27,0.18,0.37c0.12,0.1,0.33,0.19,0.62,0.28c0.29,0.08,0.52,0.17,0.69,0.27c0.17,0.1,0.29,0.22,0.37,0.35
						c0.08,0.13,0.12,0.29,0.12,0.47c0,0.29-0.11,0.52-0.33,0.69c-0.22,0.17-0.52,0.26-0.89,0.26c-0.24,0-0.47-0.05-0.68-0.14
						c-0.21-0.09-0.37-0.22-0.49-0.38c-0.11-0.16-0.17-0.35-0.17-0.55h0.47c0,0.21,0.08,0.38,0.24,0.51
						c0.16,0.13,0.37,0.19,0.63,0.19c0.25,0,0.43-0.05,0.56-0.15c0.13-0.1,0.2-0.24,0.2-0.41s-0.06-0.31-0.18-0.4
						C17.84,130.48,17.63,130.39,17.31,130.29z"/>
					<path class="st2" d="M21.55,130.75c-0.04,0.38-0.18,0.67-0.41,0.87s-0.54,0.31-0.92,0.31c-0.42,0-0.75-0.15-1-0.45
						c-0.25-0.3-0.38-0.7-0.38-1.21v-0.34c0-0.33,0.06-0.62,0.18-0.87c0.12-0.25,0.28-0.44,0.5-0.58c0.21-0.13,0.46-0.2,0.75-0.2
						c0.38,0,0.67,0.11,0.9,0.32c0.23,0.21,0.36,0.5,0.39,0.88h-0.47c-0.04-0.28-0.13-0.49-0.26-0.62
						c-0.13-0.13-0.32-0.19-0.57-0.19c-0.3,0-0.53,0.11-0.7,0.33c-0.17,0.22-0.25,0.54-0.25,0.95v0.34c0,0.39,0.08,0.69,0.24,0.92
						s0.38,0.34,0.67,0.34c0.26,0,0.46-0.06,0.59-0.18s0.23-0.32,0.27-0.62H21.55z"/>
					<path class="st2" d="M22.41,131.5h1.67v0.38h-2.14v-3.55h0.47V131.5z"/>
				</g>
				<g>
					<path class="st2" d="M17.31,123.11c-0.4-0.12-0.69-0.26-0.87-0.43c-0.18-0.17-0.27-0.38-0.27-0.62c0-0.28,0.11-0.51,0.33-0.7
						c0.22-0.18,0.51-0.27,0.87-0.27c0.24,0,0.46,0.05,0.65,0.14c0.19,0.09,0.34,0.22,0.44,0.39c0.1,0.17,0.16,0.35,0.16,0.54h-0.47
						c0-0.22-0.07-0.39-0.2-0.51c-0.14-0.12-0.33-0.18-0.57-0.18c-0.23,0-0.41,0.05-0.54,0.15c-0.13,0.1-0.19,0.24-0.19,0.42
						c0,0.15,0.06,0.27,0.18,0.37c0.12,0.1,0.33,0.19,0.62,0.28c0.29,0.08,0.52,0.17,0.69,0.27c0.17,0.1,0.29,0.22,0.37,0.35
						c0.08,0.13,0.12,0.29,0.12,0.47c0,0.29-0.11,0.52-0.33,0.69c-0.22,0.17-0.52,0.26-0.89,0.26c-0.24,0-0.47-0.05-0.68-0.14
						c-0.21-0.09-0.37-0.22-0.49-0.38c-0.11-0.16-0.17-0.35-0.17-0.55h0.47c0,0.21,0.08,0.38,0.24,0.51
						c0.16,0.13,0.37,0.19,0.63,0.19c0.25,0,0.43-0.05,0.56-0.15c0.13-0.1,0.2-0.24,0.2-0.41s-0.06-0.31-0.18-0.4
						C17.84,123.3,17.63,123.2,17.31,123.11z"/>
					<path class="st2" d="M18.96,124.7v-3.55h0.99c0.31,0,0.58,0.07,0.81,0.21c0.24,0.14,0.42,0.33,0.54,0.58
						c0.13,0.25,0.19,0.54,0.2,0.87v0.23c0,0.33-0.06,0.63-0.19,0.88c-0.13,0.25-0.31,0.45-0.55,0.58
						c-0.24,0.14-0.52,0.21-0.83,0.21H18.96z M19.43,121.53v2.79h0.49c0.36,0,0.64-0.11,0.84-0.34c0.2-0.22,0.3-0.54,0.3-0.96v-0.21
						c0-0.4-0.09-0.72-0.28-0.94c-0.19-0.22-0.46-0.34-0.8-0.34H19.43z"/>
					<path class="st2" d="M23.91,123.77h-1.48l-0.33,0.93h-0.48l1.35-3.55h0.41l1.35,3.55h-0.48L23.91,123.77z M22.58,123.38h1.2
						l-0.6-1.66L22.58,123.38z"/>
				</g>
				<g>
					<path class="st2" d="M17.43,116.99l1.01-2.93h0.51l-1.31,3.55h-0.41l-1.3-3.55h0.51L17.43,116.99z"/>
					<path class="st2" d="M20.05,117.29c0.16,0,0.3-0.05,0.42-0.15s0.19-0.22,0.2-0.37h0.42c-0.01,0.15-0.06,0.3-0.15,0.43
						s-0.22,0.25-0.38,0.33c-0.16,0.08-0.33,0.12-0.5,0.12c-0.36,0-0.64-0.12-0.85-0.36c-0.21-0.24-0.32-0.57-0.32-0.98v-0.08
						c0-0.26,0.05-0.49,0.14-0.69c0.09-0.2,0.23-0.36,0.4-0.47c0.17-0.11,0.38-0.17,0.62-0.17c0.29,0,0.54,0.09,0.73,0.27
						c0.19,0.18,0.3,0.41,0.31,0.69h-0.42c-0.01-0.17-0.08-0.31-0.19-0.42c-0.12-0.11-0.26-0.17-0.43-0.17
						c-0.23,0-0.4,0.08-0.53,0.25c-0.13,0.17-0.19,0.4-0.19,0.72v0.08c0,0.3,0.06,0.54,0.19,0.7
						C19.64,117.21,19.82,117.29,20.05,117.29z"/>
					<path class="st2" d="M22.39,117.29c0.16,0,0.3-0.05,0.42-0.15c0.12-0.1,0.19-0.22,0.2-0.37h0.42c-0.01,0.15-0.06,0.3-0.15,0.43
						c-0.1,0.14-0.22,0.25-0.38,0.33s-0.33,0.12-0.5,0.12c-0.36,0-0.64-0.12-0.85-0.36s-0.32-0.57-0.32-0.98v-0.08
						c0-0.26,0.05-0.49,0.14-0.69c0.09-0.2,0.23-0.36,0.4-0.47s0.38-0.17,0.62-0.17c0.29,0,0.54,0.09,0.73,0.27
						c0.19,0.18,0.3,0.41,0.31,0.69h-0.42c-0.01-0.17-0.08-0.31-0.19-0.42c-0.12-0.11-0.26-0.17-0.43-0.17
						c-0.23,0-0.4,0.08-0.53,0.25c-0.13,0.17-0.19,0.4-0.19,0.72v0.08c0,0.3,0.06,0.54,0.19,0.7S22.16,117.29,22.39,117.29z"/>
				</g>
				<g>
					<path class="st2" d="M18.87,109.93c-0.12,0.17-0.29,0.3-0.5,0.39c-0.21,0.08-0.46,0.13-0.75,0.13c-0.29,0-0.54-0.07-0.76-0.2
						c-0.22-0.14-0.4-0.33-0.52-0.58c-0.12-0.25-0.18-0.54-0.19-0.87v-0.31c0-0.54,0.12-0.95,0.37-1.24
						c0.25-0.29,0.6-0.44,1.04-0.44c0.37,0,0.66,0.09,0.89,0.28s0.36,0.46,0.41,0.81H18.4c-0.09-0.47-0.37-0.71-0.83-0.71
						c-0.31,0-0.55,0.11-0.71,0.33c-0.16,0.22-0.24,0.54-0.24,0.96v0.29c0,0.4,0.09,0.72,0.27,0.95s0.43,0.35,0.73,0.35
						c0.17,0,0.33-0.02,0.46-0.06s0.24-0.1,0.32-0.2v-0.8h-0.82v-0.38h1.28V109.93z"/>
					<path class="st2" d="M22.1,110.39h-0.47l-1.77-2.74v2.74H19.4v-3.55h0.47l1.78,2.75v-2.75h0.46V110.39z"/>
					<path class="st2" d="M22.68,110.39v-3.55h0.99c0.31,0,0.58,0.07,0.81,0.21s0.42,0.33,0.55,0.58c0.13,0.25,0.19,0.54,0.2,0.87
						v0.23c0,0.33-0.06,0.63-0.19,0.88c-0.13,0.25-0.31,0.45-0.55,0.58c-0.24,0.14-0.52,0.21-0.83,0.21H22.68z M23.15,107.22v2.79
						h0.49c0.36,0,0.64-0.11,0.84-0.34c0.2-0.22,0.3-0.54,0.3-0.96v-0.21c0-0.4-0.09-0.72-0.28-0.94c-0.19-0.22-0.46-0.34-0.8-0.34
						H23.15z"/>
				</g>
				
					<rect x="0.38" y="117.01" transform="matrix(6.123234e-17 -1 1 6.123234e-17 -114.8818 123.7237)" class="st2" width="8.07" height="4.58"/>
				<g>
					<path class="st3" d="M5.92,115.8h0.31v1.27H5.92l-0.07-0.39h-2.8l-0.07,0.39H2.68v-1.27h0.31l0.07,0.39h2.8L5.92,115.8z"/>
					<path class="st3" d="M2.68,117.47h0.33l1.29,1.16c0.23,0.21,0.42,0.35,0.55,0.42s0.28,0.11,0.42,0.11
						c0.18,0,0.33-0.05,0.45-0.16c0.12-0.1,0.18-0.24,0.18-0.41c0-0.24-0.06-0.42-0.19-0.54c-0.13-0.12-0.3-0.17-0.53-0.17v-0.46
						l0.01,0c0.31-0.01,0.56,0.09,0.77,0.3s0.31,0.5,0.31,0.87c0,0.32-0.09,0.57-0.28,0.76c-0.19,0.19-0.42,0.28-0.71,0.28
						c-0.19,0-0.39-0.06-0.58-0.17c-0.19-0.11-0.4-0.27-0.63-0.48l-1.02-0.93l-0.01,0v1.25l0.41,0.04v0.4H2.68V117.47z"/>
					<path class="st3" d="M5.14,122.88v-0.34l0.5-0.09c0.08-0.08,0.14-0.17,0.19-0.29c0.05-0.11,0.07-0.25,0.07-0.4
						c0-0.37-0.13-0.65-0.4-0.84c-0.27-0.2-0.61-0.3-1.02-0.3H4.43c-0.41,0-0.75,0.1-1.02,0.29c-0.27,0.19-0.4,0.46-0.4,0.8
						c0,0.16,0.03,0.31,0.08,0.44c0.05,0.13,0.11,0.23,0.19,0.3l0.5,0.09v0.34H3.14c-0.13-0.1-0.25-0.25-0.35-0.46
						c-0.1-0.2-0.15-0.44-0.15-0.71c0-0.46,0.17-0.83,0.51-1.13s0.77-0.44,1.29-0.44h0.05c0.52,0,0.95,0.14,1.29,0.43
						c0.34,0.29,0.51,0.67,0.51,1.13c0,0.27-0.05,0.5-0.16,0.71c-0.1,0.2-0.22,0.36-0.35,0.46H5.14z"/>
				</g>
				<g>
					<path class="st76" d="M11.65,127.91c1.23,0,2.22,1,2.22,2.24c0,1.24-1,2.24-2.22,2.24s-2.22-1-2.22-2.24
						C9.42,128.91,10.42,127.91,11.65,127.91z"/>
					<ellipse class="st77" cx="11.65" cy="130.15" rx="1.52" ry="1.53"/>
				</g>
				<g>
					<path class="st76" d="M11.65,120.69c1.23,0,2.22,1,2.22,2.24s-1,2.24-2.22,2.24s-2.22-1-2.22-2.24S10.42,120.69,11.65,120.69z"
						/>
					<ellipse class="st77" cx="11.65" cy="122.93" rx="1.52" ry="1.53"/>
				</g>
				<g>
					<path class="st76" d="M11.65,113.57c1.23,0,2.22,1,2.22,2.24s-1,2.24-2.22,2.24s-2.22-1-2.22-2.24S10.42,113.57,11.65,113.57z"
						/>
					<ellipse class="st77" cx="11.65" cy="115.81" rx="1.52" ry="1.53"/>
				</g>
				<g>
					<path class="st76" d="M11.65,106.32c1.23,0,2.22,1,2.22,2.24s-1,2.24-2.22,2.24s-2.22-1-2.22-2.24S10.42,106.32,11.65,106.32z"
						/>
					<ellipse class="st77" cx="11.65" cy="108.56" rx="1.52" ry="1.53"/>
				</g>
			</g>
			<g id="I2C_9_">
				<rect x="8.13" y="22.38" class="st1" width="18.24" height="28.75"/>
				<line class="st1" x1="26.37" y1="44.18" x2="8.13" y2="44.18"/>
				<line class="st1" x1="26.37" y1="36.87" x2="8.13" y2="36.87"/>
				<line class="st1" x1="26.37" y1="29.66" x2="8.13" y2="29.66"/>
				<g>
					<path class="st2" d="M17.31,47.72c-0.4-0.12-0.69-0.26-0.87-0.43c-0.18-0.17-0.27-0.38-0.27-0.62c0-0.28,0.11-0.51,0.33-0.7
						c0.22-0.18,0.51-0.27,0.87-0.27c0.24,0,0.46,0.05,0.65,0.14c0.19,0.09,0.34,0.22,0.44,0.39c0.1,0.17,0.16,0.35,0.16,0.54h-0.47
						c0-0.22-0.07-0.39-0.2-0.51c-0.14-0.12-0.33-0.18-0.57-0.18c-0.23,0-0.41,0.05-0.54,0.15c-0.13,0.1-0.19,0.24-0.19,0.42
						c0,0.15,0.06,0.27,0.18,0.37c0.12,0.1,0.33,0.19,0.62,0.28c0.29,0.08,0.52,0.17,0.69,0.27c0.17,0.1,0.29,0.22,0.37,0.35
						c0.08,0.13,0.12,0.29,0.12,0.47c0,0.29-0.11,0.52-0.33,0.69c-0.22,0.17-0.52,0.26-0.89,0.26c-0.24,0-0.47-0.05-0.68-0.14
						c-0.21-0.09-0.37-0.22-0.49-0.38c-0.11-0.16-0.17-0.35-0.17-0.55h0.47c0,0.21,0.08,0.38,0.24,0.51
						c0.16,0.13,0.37,0.19,0.63,0.19c0.25,0,0.43-0.05,0.56-0.15c0.13-0.1,0.2-0.24,0.2-0.41s-0.06-0.31-0.18-0.4
						C17.84,47.91,17.63,47.82,17.31,47.72z"/>
					<path class="st2" d="M21.55,48.18c-0.04,0.38-0.18,0.67-0.41,0.87s-0.54,0.31-0.92,0.31c-0.42,0-0.75-0.15-1-0.45
						c-0.25-0.3-0.38-0.7-0.38-1.21v-0.34c0-0.33,0.06-0.62,0.18-0.87c0.12-0.25,0.28-0.44,0.5-0.58c0.21-0.13,0.46-0.2,0.75-0.2
						c0.38,0,0.67,0.11,0.9,0.32c0.23,0.21,0.36,0.5,0.39,0.88h-0.47c-0.04-0.28-0.13-0.49-0.26-0.62
						c-0.13-0.13-0.32-0.19-0.57-0.19c-0.3,0-0.53,0.11-0.7,0.33c-0.17,0.22-0.25,0.54-0.25,0.95v0.34c0,0.39,0.08,0.69,0.24,0.92
						s0.38,0.34,0.67,0.34c0.26,0,0.46-0.06,0.59-0.18s0.23-0.32,0.27-0.62H21.55z"/>
					<path class="st2" d="M22.41,48.92h1.67v0.38h-2.14v-3.55h0.47V48.92z"/>
				</g>
				<g>
					<path class="st2" d="M17.31,40.54c-0.4-0.12-0.69-0.26-0.87-0.43c-0.18-0.17-0.27-0.38-0.27-0.62c0-0.28,0.11-0.51,0.33-0.7
						c0.22-0.18,0.51-0.27,0.87-0.27c0.24,0,0.46,0.05,0.65,0.14c0.19,0.09,0.34,0.22,0.44,0.39c0.1,0.17,0.16,0.35,0.16,0.54h-0.47
						c0-0.22-0.07-0.39-0.2-0.51c-0.14-0.12-0.33-0.18-0.57-0.18c-0.23,0-0.41,0.05-0.54,0.15c-0.13,0.1-0.19,0.24-0.19,0.42
						c0,0.15,0.06,0.27,0.18,0.37c0.12,0.1,0.33,0.19,0.62,0.28c0.29,0.08,0.52,0.17,0.69,0.27c0.17,0.1,0.29,0.22,0.37,0.35
						c0.08,0.13,0.12,0.29,0.12,0.47c0,0.29-0.11,0.52-0.33,0.69c-0.22,0.17-0.52,0.26-0.89,0.26c-0.24,0-0.47-0.05-0.68-0.14
						c-0.21-0.09-0.37-0.22-0.49-0.38c-0.11-0.16-0.17-0.35-0.17-0.55h0.47c0,0.21,0.08,0.38,0.24,0.51
						c0.16,0.13,0.37,0.19,0.63,0.19c0.25,0,0.43-0.05,0.56-0.15c0.13-0.1,0.2-0.24,0.2-0.41s-0.06-0.31-0.18-0.4
						C17.84,40.73,17.63,40.63,17.31,40.54z"/>
					<path class="st2" d="M18.96,42.12v-3.55h0.99c0.31,0,0.58,0.07,0.81,0.21c0.24,0.14,0.42,0.33,0.54,0.58
						c0.13,0.25,0.19,0.54,0.2,0.87v0.23c0,0.33-0.06,0.63-0.19,0.88c-0.13,0.25-0.31,0.45-0.55,0.58
						c-0.24,0.14-0.52,0.21-0.83,0.21H18.96z M19.43,38.95v2.79h0.49c0.36,0,0.64-0.11,0.84-0.34c0.2-0.22,0.3-0.54,0.3-0.96v-0.21
						c0-0.4-0.09-0.72-0.28-0.94c-0.19-0.22-0.46-0.34-0.8-0.34H19.43z"/>
					<path class="st2" d="M23.91,41.19h-1.48l-0.33,0.93h-0.48l1.35-3.55h0.41l1.35,3.55h-0.48L23.91,41.19z M22.58,40.81h1.2
						l-0.6-1.66L22.58,40.81z"/>
				</g>
				<g>
					<path class="st2" d="M17.43,34.41l1.01-2.93h0.51l-1.31,3.55h-0.41l-1.3-3.55h0.51L17.43,34.41z"/>
					<path class="st2" d="M20.05,34.72c0.16,0,0.3-0.05,0.42-0.15s0.19-0.22,0.2-0.37h0.42c-0.01,0.15-0.06,0.3-0.15,0.43
						s-0.22,0.25-0.38,0.33c-0.16,0.08-0.33,0.12-0.5,0.12c-0.36,0-0.64-0.12-0.85-0.36c-0.21-0.24-0.32-0.57-0.32-0.98v-0.08
						c0-0.26,0.05-0.49,0.14-0.69c0.09-0.2,0.23-0.36,0.4-0.47c0.17-0.11,0.38-0.17,0.62-0.17c0.29,0,0.54,0.09,0.73,0.27
						c0.19,0.18,0.3,0.41,0.31,0.69h-0.42c-0.01-0.17-0.08-0.31-0.19-0.42c-0.12-0.11-0.26-0.17-0.43-0.17
						c-0.23,0-0.4,0.08-0.53,0.25c-0.13,0.17-0.19,0.4-0.19,0.72v0.08c0,0.3,0.06,0.54,0.19,0.7
						C19.64,34.63,19.82,34.72,20.05,34.72z"/>
					<path class="st2" d="M22.39,34.72c0.16,0,0.3-0.05,0.42-0.15c0.12-0.1,0.19-0.22,0.2-0.37h0.42c-0.01,0.15-0.06,0.3-0.15,0.43
						c-0.1,0.14-0.22,0.25-0.38,0.33s-0.33,0.12-0.5,0.12c-0.36,0-0.64-0.12-0.85-0.36s-0.32-0.57-0.32-0.98v-0.08
						c0-0.26,0.05-0.49,0.14-0.69c0.09-0.2,0.23-0.36,0.4-0.47s0.38-0.17,0.62-0.17c0.29,0,0.54,0.09,0.73,0.27
						c0.19,0.18,0.3,0.41,0.31,0.69h-0.42c-0.01-0.17-0.08-0.31-0.19-0.42c-0.12-0.11-0.26-0.17-0.43-0.17
						c-0.23,0-0.4,0.08-0.53,0.25c-0.13,0.17-0.19,0.4-0.19,0.72v0.08c0,0.3,0.06,0.54,0.19,0.7S22.16,34.72,22.39,34.72z"/>
				</g>
				<g>
					<path class="st2" d="M18.87,27.36c-0.12,0.17-0.29,0.3-0.5,0.39c-0.21,0.08-0.46,0.13-0.75,0.13c-0.29,0-0.54-0.07-0.76-0.2
						c-0.22-0.14-0.4-0.33-0.52-0.58c-0.12-0.25-0.18-0.54-0.19-0.87V25.9c0-0.54,0.12-0.95,0.37-1.24c0.25-0.29,0.6-0.44,1.04-0.44
						c0.37,0,0.66,0.09,0.89,0.28s0.36,0.46,0.41,0.81H18.4c-0.09-0.47-0.37-0.71-0.83-0.71c-0.31,0-0.55,0.11-0.71,0.33
						c-0.16,0.22-0.24,0.54-0.24,0.96v0.29c0,0.4,0.09,0.72,0.27,0.95s0.43,0.35,0.73,0.35c0.17,0,0.33-0.02,0.46-0.06
						s0.24-0.1,0.32-0.2v-0.8h-0.82v-0.38h1.28V27.36z"/>
					<path class="st2" d="M22.1,27.82h-0.47l-1.77-2.74v2.74H19.4v-3.55h0.47l1.78,2.75v-2.75h0.46V27.82z"/>
					<path class="st2" d="M22.68,27.82v-3.55h0.99c0.31,0,0.58,0.07,0.81,0.21s0.42,0.33,0.55,0.58c0.13,0.25,0.19,0.54,0.2,0.87
						v0.23c0,0.33-0.06,0.63-0.19,0.88c-0.13,0.25-0.31,0.45-0.55,0.58c-0.24,0.14-0.52,0.21-0.83,0.21H22.68z M23.15,24.65v2.79
						h0.49c0.36,0,0.64-0.11,0.84-0.34c0.2-0.22,0.3-0.54,0.3-0.96v-0.21c0-0.4-0.09-0.72-0.28-0.94c-0.19-0.22-0.46-0.34-0.8-0.34
						H23.15z"/>
				</g>
				
					<rect x="0.38" y="34.44" transform="matrix(6.123234e-17 -1 1 6.123234e-17 -32.307 41.1489)" class="st2" width="8.07" height="4.58"/>
				<g>
					<path class="st3" d="M5.92,33.23h0.31v1.27H5.92L5.86,34.1h-2.8l-0.07,0.39H2.68v-1.27h0.31l0.07,0.39h2.8L5.92,33.23z"/>
					<path class="st3" d="M2.68,34.9h0.33l1.29,1.16c0.23,0.21,0.42,0.35,0.55,0.42s0.28,0.11,0.42,0.11c0.18,0,0.33-0.05,0.45-0.16
						c0.12-0.1,0.18-0.24,0.18-0.41c0-0.24-0.06-0.42-0.19-0.54c-0.13-0.12-0.3-0.17-0.53-0.17v-0.46l0.01,0
						c0.31-0.01,0.56,0.09,0.77,0.3s0.31,0.5,0.31,0.87c0,0.32-0.09,0.57-0.28,0.76c-0.19,0.19-0.42,0.28-0.71,0.28
						c-0.19,0-0.39-0.06-0.58-0.17c-0.19-0.11-0.4-0.27-0.63-0.48l-1.02-0.93l-0.01,0v1.25l0.41,0.04v0.4H2.68V34.9z"/>
					<path class="st3" d="M5.14,40.3v-0.34l0.5-0.09c0.08-0.08,0.14-0.17,0.19-0.29c0.05-0.11,0.07-0.25,0.07-0.4
						c0-0.37-0.13-0.65-0.4-0.84c-0.27-0.2-0.61-0.3-1.02-0.3H4.43c-0.41,0-0.75,0.1-1.02,0.29C3.14,38.53,3,38.8,3,39.14
						c0,0.16,0.03,0.31,0.08,0.44c0.05,0.13,0.11,0.23,0.19,0.3l0.5,0.09v0.34H3.14C3,40.2,2.89,40.05,2.78,39.85
						c-0.1-0.2-0.15-0.44-0.15-0.71c0-0.46,0.17-0.83,0.51-1.13s0.77-0.44,1.29-0.44h0.05c0.52,0,0.95,0.14,1.29,0.43
						c0.34,0.29,0.51,0.67,0.51,1.13c0,0.27-0.05,0.5-0.16,0.71c-0.1,0.2-0.22,0.36-0.35,0.46H5.14z"/>
				</g>
				<g>
					<path class="st76" d="M11.65,45.33c1.23,0,2.22,1,2.22,2.24c0,1.24-1,2.24-2.22,2.24s-2.22-1-2.22-2.24
						C9.42,46.34,10.42,45.33,11.65,45.33z"/>
					<ellipse class="st77" cx="11.65" cy="47.57" rx="1.52" ry="1.53"/>
				</g>
				<g>
					<path class="st76" d="M11.65,38.11c1.23,0,2.22,1,2.22,2.24s-1,2.24-2.22,2.24s-2.22-1-2.22-2.24S10.42,38.11,11.65,38.11z"/>
					<ellipse class="st77" cx="11.65" cy="40.35" rx="1.52" ry="1.53"/>
				</g>
				<g>
					<path class="st76" d="M11.65,30.99c1.23,0,2.22,1,2.22,2.24c0,1.24-1,2.24-2.22,2.24s-2.22-1-2.22-2.24
						C9.42,31.99,10.42,30.99,11.65,30.99z"/>
					<ellipse class="st77" cx="11.65" cy="33.23" rx="1.52" ry="1.53"/>
				</g>
				<g>
					<path class="st76" d="M11.65,23.74c1.23,0,2.22,1,2.22,2.24s-1,2.24-2.22,2.24s-2.22-1-2.22-2.24S10.42,23.74,11.65,23.74z"/>
					<ellipse class="st77" cx="11.65" cy="25.98" rx="1.52" ry="1.53"/>
				</g>
			</g>
			<g>
				<path class="st7" d="M147.55,93.2v-1.01l2.59-2.32l-0.62-0.58h-1.97V88.5h5.82v0.78h-3.04l3.04,2.85v0.95l-2.73-2.62
					L147.55,93.2z"/>
				<path class="st7" d="M150.35,96.97c-0.11,0.13-0.25,0.23-0.42,0.31c-0.17,0.08-0.39,0.12-0.66,0.12c-0.27,0-0.51-0.05-0.73-0.15
					c-0.22-0.1-0.41-0.23-0.58-0.41c-0.18-0.2-0.32-0.43-0.4-0.7c-0.09-0.27-0.13-0.56-0.13-0.88c0-0.33,0.04-0.65,0.12-0.96
					c0.08-0.31,0.16-0.57,0.25-0.78h0.82v0.06c-0.15,0.22-0.27,0.49-0.36,0.79s-0.14,0.59-0.14,0.88c0,0.17,0.03,0.34,0.08,0.53
					s0.14,0.34,0.24,0.45c0.11,0.12,0.24,0.21,0.38,0.27c0.14,0.06,0.31,0.09,0.52,0.09c0.21,0,0.38-0.03,0.52-0.1
					c0.14-0.07,0.24-0.16,0.32-0.28c0.08-0.12,0.14-0.26,0.17-0.43s0.04-0.35,0.04-0.54v-0.35h0.65v0.28c0,0.4,0.08,0.72,0.25,0.96
					c0.17,0.24,0.41,0.36,0.72,0.36c0.14,0,0.26-0.03,0.37-0.09c0.11-0.06,0.19-0.14,0.26-0.25c0.07-0.11,0.11-0.23,0.14-0.36
					s0.04-0.27,0.04-0.44c0-0.25-0.04-0.51-0.13-0.8c-0.09-0.28-0.21-0.55-0.38-0.79v-0.04h0.82c0.09,0.19,0.17,0.44,0.25,0.75
					c0.08,0.31,0.12,0.61,0.12,0.9c0,0.29-0.03,0.54-0.08,0.76s-0.14,0.42-0.25,0.59c-0.13,0.19-0.28,0.33-0.45,0.43
					c-0.18,0.1-0.38,0.15-0.62,0.15c-0.32,0-0.6-0.11-0.85-0.34c-0.24-0.23-0.39-0.5-0.46-0.81h-0.05
					c-0.02,0.13-0.06,0.27-0.13,0.43S150.45,96.86,150.35,96.97z"/>
			</g>
			<g>
				<path class="st7" d="M147.55,120.95v-1.01l2.59-2.32l-0.62-0.58h-1.97v-0.78h5.82v0.78h-3.04l3.04,2.85v0.95l-2.73-2.62
					L147.55,120.95z"/>
				<path class="st7" d="M149.19,125.37v-0.87h-1.64v-0.76h1.64v-2.81h0.9l3.28,2.84v0.73h-3.55v0.87H149.19z M149.81,123.74h2.63
					l-2.63-2.27V123.74z"/>
			</g>
			<g>
				<path class="st7" d="M147.55,64.14v-1.01l2.59-2.32l-0.62-0.58h-1.97v-0.78h5.82v0.78h-3.04l3.04,2.85v0.95l-2.73-2.62
					L147.55,64.14z"/>
				<path class="st7" d="M147.55,68.43v-3.97h0.82c0.23,0.28,0.47,0.55,0.7,0.83c0.23,0.28,0.47,0.54,0.7,0.77
					c0.48,0.5,0.87,0.85,1.15,1.04c0.29,0.19,0.59,0.28,0.92,0.28c0.3,0,0.54-0.1,0.71-0.3c0.17-0.2,0.26-0.48,0.26-0.84
					c0-0.24-0.04-0.5-0.13-0.78s-0.21-0.55-0.38-0.82v-0.04h0.82c0.09,0.19,0.17,0.44,0.25,0.75c0.08,0.31,0.11,0.61,0.11,0.9
					c0,0.6-0.14,1.07-0.43,1.41c-0.29,0.34-0.68,0.51-1.17,0.51c-0.22,0-0.43-0.03-0.62-0.08s-0.37-0.14-0.54-0.25
					c-0.16-0.1-0.32-0.22-0.48-0.36s-0.33-0.31-0.52-0.5c-0.27-0.28-0.54-0.57-0.79-0.87s-0.49-0.58-0.71-0.84v3.16H147.55z"/>
			</g>
			<g>
				<path class="st7" d="M147.55,34.97v-1.01l2.59-2.32l-0.62-0.58h-1.97v-0.78h5.82v0.78h-3.04l3.04,2.85v0.95l-2.73-2.62
					L147.55,34.97z"/>
				<path class="st7" d="M147.55,38.93v-3.17h0.59v1.22h3.9v-1.22h0.53c0,0.17,0.01,0.34,0.04,0.53c0.03,0.19,0.07,0.33,0.12,0.43
					c0.07,0.12,0.15,0.22,0.25,0.29c0.1,0.07,0.24,0.11,0.4,0.12v0.61h-5.24v1.2H147.55z"/>
			</g>
			<line class="st78" x1="154.3" y1="49.42" x2="121.24" y2="49.42"/>
			<line class="st78" x1="154.3" y1="78.17" x2="121.24" y2="78.17"/>
			<line class="st78" x1="154.3" y1="106.86" x2="121.24" y2="106.86"/>
		</g>
		<g>
			<g>
				<g>
					<path class="st7" d="M70.26,132.41v-2.15h-2.13v-0.65h2.13v-2.15h0.63v2.15h2.13v0.65h-2.13v2.15H70.26z"/>
				</g>
			</g>
			<g>
				<g>
					<path class="st7" d="M90.62,130.33h-4.44v-0.71h4.44V130.33z"/>
				</g>
			</g>
		</g>
		<g>
			<g>
				<g>
					<path class="st7" d="M70.51,28.55V26.4h-2.13v-0.65h2.13V23.6h0.63v2.15h2.13v0.65h-2.13v2.15H70.51z"/>
				</g>
			</g>
			<g>
				<g>
					<path class="st7" d="M90.87,26.46h-4.44v-0.71h4.44V26.46z"/>
				</g>
			</g>
		</g>
		<g>
			<g>
				<path class="st7" d="M78.47,127.43l-1.87,5.09h-0.91l-1.87-5.09h0.73l1.61,4.48l1.61-4.48H78.47z"/>
				<path class="st7" d="M79.54,128.06h-0.73v-0.67h0.73V128.06z M79.5,132.52h-0.65v-3.82h0.65V132.52z"/>
				<path class="st7" d="M83.65,132.52H83v-2.17c0-0.18-0.01-0.34-0.03-0.49c-0.02-0.15-0.06-0.27-0.11-0.36
					c-0.06-0.1-0.14-0.17-0.25-0.21s-0.25-0.07-0.42-0.07c-0.18,0-0.36,0.04-0.55,0.13c-0.19,0.09-0.38,0.2-0.55,0.33v2.85h-0.65
					v-3.82h0.65v0.42c0.2-0.17,0.41-0.3,0.63-0.39c0.22-0.09,0.44-0.14,0.67-0.14c0.42,0,0.73,0.12,0.95,0.37
					c0.22,0.25,0.33,0.61,0.33,1.07V132.52z"/>
			</g>
		</g>
		<g>
			<g>
				<path class="st7" d="M80.05,28.69l1.87-5.09h0.91l1.87,5.09h-0.73l-1.61-4.48l-1.61,4.48H80.05z"/>
				<path class="st7" d="M78.98,28.06h0.73v0.67h-0.73V28.06z M79.02,23.6h0.65v3.82h-0.65V23.6z"/>
				<path class="st7" d="M74.87,23.6h0.65v2.17c0,0.18,0.01,0.34,0.03,0.49c0.02,0.15,0.06,0.27,0.11,0.36
					c0.06,0.1,0.14,0.17,0.25,0.21s0.25,0.07,0.42,0.07c0.18,0,0.36-0.04,0.55-0.13c0.19-0.09,0.38-0.2,0.55-0.33V23.6h0.65v3.82
					h-0.65V27c-0.2,0.17-0.41,0.3-0.63,0.39c-0.22,0.09-0.44,0.14-0.67,0.14c-0.42,0-0.73-0.12-0.95-0.37
					c-0.22-0.25-0.33-0.61-0.33-1.07V23.6z"/>
			</g>
		</g>
		<g>
			<circle class="st7" cx="86.33" cy="121.15" r="3.54"/>
			<circle class="st76" cx="86.33" cy="121.15" r="3.54"/>
			<circle class="st77" cx="86.33" cy="121.15" r="2.18"/>
		</g>
		<g>
			<circle class="st76" cx="71.83" cy="121.15" r="3.54"/>
			<circle class="st77" cx="71.83" cy="121.15" r="2.18"/>
		</g>
		<g>
			<circle class="st7" cx="86.33" cy="34.9" r="3.54"/>
			<circle class="st76" cx="86.33" cy="34.9" r="3.54"/>
			<circle class="st77" cx="86.33" cy="34.9" r="2.18"/>
		</g>
		<g>
			<circle class="st76" cx="71.83" cy="34.9" r="3.54"/>
			<circle class="st77" cx="71.83" cy="34.9" r="2.18"/>
		</g>
		<g>
			<g>
				<path class="st7" d="M144.48,114.3h-2.15v2.13h-0.65v-2.13h-2.15v-0.63h2.15v-2.13h0.65v2.13h2.15V114.3z"/>
			</g>
		</g>
		<g>
			<g>
				<path class="st7" d="M120.7,111.15h-1.01v1h-0.31v-1h-1.01v-0.29h1.01v-1h0.31v1h1.01V111.15z"/>
			</g>
		</g>
		<g>
			<g>
				<path class="st7" d="M141.68,130.63v-4.44h0.71v4.44H141.68z"/>
			</g>
		</g>
		<g>
			<g>
				<path class="st7" d="M121.11,115.36l-2.7-0.99v-0.48l2.7-0.99v0.39l-2.38,0.86l2.38,0.86V115.36z"/>
				<path class="st7" d="M118.41,116v-0.34h2.03V116H118.41z M120.78,116.03v-0.39h0.35v0.39H120.78z"/>
				<path class="st7" d="M118.41,118.3v-0.34h1.15c0.09,0,0.18-0.01,0.26-0.02s0.15-0.03,0.19-0.06c0.05-0.03,0.09-0.07,0.11-0.13
					c0.02-0.06,0.04-0.13,0.04-0.22c0-0.09-0.02-0.19-0.07-0.29s-0.1-0.2-0.18-0.29h-1.51v-0.34h2.03v0.34h-0.23
					c0.09,0.11,0.16,0.22,0.21,0.33c0.05,0.11,0.07,0.23,0.07,0.35c0,0.22-0.07,0.39-0.2,0.5s-0.32,0.17-0.57,0.17H118.41z"/>
			</g>
		</g>
		<g>
			<circle class="st7" cx="134.72" cy="128.33" r="3.54"/>
			<circle class="st76" cx="134.72" cy="128.33" r="3.54"/>
			<circle class="st77" cx="134.72" cy="128.33" r="2.18"/>
		</g>
		<g>
			<circle class="st7" cx="134.72" cy="113.94" r="3.54"/>
			<circle class="st76" cx="134.72" cy="113.94" r="3.54"/>
			<circle class="st77" cx="134.72" cy="113.94" r="2.18"/>
		</g>
		<line class="st79" x1="130.55" y1="113.94" x2="121.62" y2="113.94"/>
		
			<rect x="119.91" y="126.93" transform="matrix(-1 -1.224647e-16 1.224647e-16 -1 240.8542 256.6119)" class="st7" width="1.03" height="2.75"/>
		<polyline class="st79" points="124.07,44.78 129.13,42.25 130.55,42.25 		"/>
		<polyline class="st79" points="124.1,42.84 124.1,42.11 120.94,42.11 		"/>
		<g>
			<g>
				<path class="st7" d="M144.48,85.7h-2.15v2.13h-0.65V85.7h-2.15v-0.63h2.15v-2.13h0.65v2.13h2.15V85.7z"/>
			</g>
		</g>
		<g>
			<g>
				<path class="st7" d="M120.7,82.55h-1.01v1h-0.31v-1h-1.01v-0.29h1.01v-1h0.31v1h1.01V82.55z"/>
			</g>
		</g>
		<g>
			<g>
				<path class="st7" d="M141.68,102.03V97.6h0.71v4.44H141.68z"/>
			</g>
		</g>
		<g>
			<g>
				<path class="st7" d="M121.11,86.76l-2.7-0.99v-0.48l2.7-0.99v0.39l-2.38,0.86l2.38,0.86V86.76z"/>
				<path class="st7" d="M118.41,87.4v-0.34h2.03v0.34H118.41z M120.78,87.43v-0.39h0.35v0.39H120.78z"/>
				<path class="st7" d="M118.41,89.7v-0.34h1.15c0.09,0,0.18-0.01,0.26-0.02s0.15-0.03,0.19-0.06c0.05-0.03,0.09-0.07,0.11-0.13
					c0.02-0.06,0.04-0.13,0.04-0.22c0-0.09-0.02-0.19-0.07-0.29s-0.1-0.2-0.18-0.29h-1.51v-0.34h2.03v0.34h-0.23
					c0.09,0.11,0.16,0.22,0.21,0.33c0.05,0.11,0.07,0.23,0.07,0.35c0,0.22-0.07,0.39-0.2,0.5s-0.32,0.17-0.57,0.17H118.41z"/>
			</g>
		</g>
		<g>
			<circle class="st7" cx="134.72" cy="99.73" r="3.54"/>
			<circle class="st76" cx="134.72" cy="99.73" r="3.54"/>
			<circle class="st77" cx="134.72" cy="99.73" r="2.18"/>
		</g>
		<g>
			<circle class="st7" cx="134.72" cy="85.34" r="3.54"/>
			<circle class="st76" cx="134.72" cy="85.34" r="3.54"/>
			<circle class="st77" cx="134.72" cy="85.34" r="2.18"/>
		</g>
		<line class="st79" x1="130.55" y1="85.34" x2="121.62" y2="85.34"/>
		
			<rect x="119.91" y="98.33" transform="matrix(-1 -1.224647e-16 1.224647e-16 -1 240.8542 199.4126)" class="st7" width="1.03" height="2.75"/>
		<polyline class="st79" points="124.07,73.38 129.13,70.85 130.55,70.85 		"/>
		<polyline class="st79" points="124.1,71.44 124.1,70.71 120.43,70.71 		"/>
		<g>
			<g>
				<path class="st7" d="M144.48,56.7h-2.15v2.13h-0.65V56.7h-2.15v-0.63h2.15v-2.13h0.65v2.13h2.15V56.7z"/>
			</g>
		</g>
		<g>
			<g>
				<path class="st7" d="M120.7,53.55h-1.01v1h-0.31v-1h-1.01v-0.29h1.01v-1h0.31v1h1.01V53.55z"/>
			</g>
		</g>
		<g>
			<g>
				<path class="st7" d="M141.68,73.03V68.6h0.71v4.44H141.68z"/>
			</g>
		</g>
		<g>
			<g>
				<path class="st7" d="M121.11,57.76l-2.7-0.99v-0.48l2.7-0.99v0.39l-2.38,0.86l2.38,0.86V57.76z"/>
				<path class="st7" d="M118.41,58.4v-0.34h2.03v0.34H118.41z M120.78,58.43v-0.39h0.35v0.39H120.78z"/>
				<path class="st7" d="M118.41,60.7v-0.34h1.15c0.09,0,0.18-0.01,0.26-0.02s0.15-0.03,0.19-0.06c0.05-0.03,0.09-0.07,0.11-0.13
					c0.02-0.06,0.04-0.13,0.04-0.22c0-0.09-0.02-0.19-0.07-0.29s-0.1-0.2-0.18-0.29h-1.51v-0.34h2.03v0.34h-0.23
					c0.09,0.11,0.16,0.22,0.21,0.33c0.05,0.11,0.07,0.23,0.07,0.35c0,0.22-0.07,0.39-0.2,0.5s-0.32,0.17-0.57,0.17H118.41z"/>
			</g>
		</g>
		<g>
			<circle class="st7" cx="134.72" cy="70.73" r="3.54"/>
			<circle class="st76" cx="134.72" cy="70.73" r="3.54"/>
			<circle class="st77" cx="134.72" cy="70.73" r="2.18"/>
		</g>
		<g>
			<circle class="st7" cx="134.72" cy="56.34" r="3.54"/>
			<circle class="st76" cx="134.72" cy="56.34" r="3.54"/>
			<circle class="st77" cx="134.72" cy="56.34" r="2.18"/>
		</g>
		<line class="st79" x1="130.55" y1="56.34" x2="121.62" y2="56.34"/>
		
			<rect x="119.91" y="69.33" transform="matrix(-1 -1.224647e-16 1.224647e-16 -1 240.8542 141.4139)" class="st7" width="1.03" height="2.75"/>
		<polyline class="st79" points="124.07,102.38 129.13,99.85 130.55,99.85 		"/>
		<polyline class="st79" points="124.1,100.44 124.1,99.71 120.77,99.71 		"/>
		<g>
			<g>
				<path class="st7" d="M144.48,28.1h-2.15v2.13h-0.65V28.1h-2.15v-0.63h2.15v-2.13h0.65v2.13h2.15V28.1z"/>
			</g>
		</g>
		<g>
			<g>
				<path class="st7" d="M120.7,24.95h-1.01v1h-0.31v-1h-1.01v-0.29h1.01v-1h0.31v1h1.01V24.95z"/>
			</g>
		</g>
		<g>
			<g>
				<path class="st7" d="M141.68,44.43V40h0.71v4.44H141.68z"/>
			</g>
		</g>
		<g>
			<g>
				<path class="st7" d="M121.11,29.16l-2.7-0.99v-0.48l2.7-0.99v0.39l-2.38,0.86l2.38,0.86V29.16z"/>
				<path class="st7" d="M118.41,29.8v-0.34h2.03v0.34H118.41z M120.78,29.83v-0.39h0.35v0.39H120.78z"/>
				<path class="st7" d="M118.41,32.1v-0.34h1.15c0.09,0,0.18-0.01,0.26-0.02s0.15-0.03,0.19-0.06c0.05-0.03,0.09-0.07,0.11-0.13
					c0.02-0.06,0.04-0.13,0.04-0.22c0-0.09-0.02-0.19-0.07-0.29s-0.1-0.2-0.18-0.29h-1.51v-0.34h2.03v0.34h-0.23
					c0.09,0.11,0.16,0.22,0.21,0.33c0.05,0.11,0.07,0.23,0.07,0.35c0,0.22-0.07,0.39-0.2,0.5s-0.32,0.17-0.57,0.17H118.41z"/>
			</g>
		</g>
		<g>
			<circle class="st7" cx="134.72" cy="42.13" r="3.54"/>
			<circle class="st76" cx="134.72" cy="42.13" r="3.54"/>
			<circle class="st77" cx="134.72" cy="42.13" r="2.18"/>
		</g>
		<g>
			<circle class="st7" cx="134.72" cy="27.74" r="3.54"/>
			<circle class="st76" cx="134.72" cy="27.74" r="3.54"/>
			<circle class="st77" cx="134.72" cy="27.74" r="2.18"/>
		</g>
		<line class="st79" x1="130.55" y1="27.74" x2="121.62" y2="27.74"/>
		
			<rect x="119.91" y="40.73" transform="matrix(-1 -1.224647e-16 1.224647e-16 -1 240.8542 84.2146)" class="st7" width="1.03" height="2.75"/>
		<polyline class="st79" points="124.07,130.98 129.13,128.45 130.55,128.45 		"/>
		<polyline class="st79" points="124.1,129.04 124.1,128.31 120.31,128.31 		"/>
		<g>
			<path class="st2" d="M5.87,70.96c0,0.4-0.09,0.72-0.28,0.95c-0.18,0.23-0.44,0.34-0.77,0.34c-0.18,0-0.33-0.05-0.47-0.14
				c-0.13-0.1-0.24-0.24-0.32-0.42c-0.06,0.21-0.17,0.36-0.31,0.45c-0.14,0.09-0.32,0.14-0.54,0.14H3.02
				c-0.08,0-0.14,0.02-0.18,0.05c-0.04,0.03-0.07,0.08-0.08,0.15l-0.01,0.09H2.32V72.2c0-0.23,0.06-0.4,0.19-0.49
				c0.13-0.09,0.29-0.14,0.49-0.14h0.2c0.17,0,0.31-0.05,0.41-0.14s0.15-0.22,0.15-0.39v-0.58H2.82l-0.07,0.38H2.32v-1.47h0.43
				l0.07,0.38h2.55l0.07-0.38h0.43v0.38V70.96z M4.31,70.46v0.49c0,0.2,0.04,0.35,0.13,0.45s0.21,0.15,0.37,0.15
				s0.29-0.05,0.38-0.15c0.1-0.1,0.14-0.24,0.14-0.44v-0.5H4.31z"/>
			<path class="st2" d="M5.87,73.86H5.44l-0.07-0.38H3.52c-0.23,0-0.41,0.06-0.53,0.19s-0.17,0.3-0.17,0.52
				c0,0.22,0.06,0.4,0.17,0.53s0.29,0.19,0.53,0.19h1.86l0.07-0.38h0.43v1.47H5.44l-0.07-0.38H3.52c-0.4,0-0.71-0.13-0.92-0.39
				s-0.32-0.61-0.32-1.03c0-0.42,0.11-0.77,0.32-1.03c0.22-0.26,0.52-0.39,0.92-0.39h1.86l0.07-0.38h0.43v0.38v0.71V73.86z"/>
			<path class="st2" d="M4.74,78.53V78l0.49-0.09c0.04-0.06,0.07-0.15,0.1-0.27s0.04-0.25,0.04-0.38c0-0.2-0.04-0.35-0.12-0.45
				s-0.19-0.16-0.32-0.16c-0.12,0-0.22,0.06-0.3,0.17s-0.16,0.3-0.25,0.58c-0.11,0.39-0.25,0.69-0.43,0.89
				c-0.18,0.2-0.42,0.3-0.71,0.3c-0.3,0-0.54-0.12-0.72-0.36c-0.18-0.24-0.26-0.56-0.26-0.95c0-0.28,0.04-0.54,0.13-0.76
				c0.09-0.23,0.21-0.42,0.37-0.57h0.74v0.55l-0.5,0.08c-0.06,0.07-0.11,0.17-0.15,0.29s-0.06,0.26-0.06,0.41
				c0,0.2,0.04,0.34,0.12,0.45c0.08,0.1,0.19,0.15,0.32,0.15c0.14,0,0.25-0.05,0.33-0.15c0.08-0.1,0.16-0.27,0.23-0.51
				c0.12-0.42,0.27-0.74,0.43-0.96c0.17-0.22,0.4-0.33,0.69-0.33c0.29,0,0.52,0.12,0.71,0.37c0.18,0.24,0.28,0.55,0.28,0.92
				c0,0.27-0.04,0.52-0.13,0.75c-0.08,0.22-0.19,0.41-0.33,0.57H4.74z"/>
			<path class="st2" d="M4.74,81.19v-0.53l0.49-0.09c0.04-0.06,0.07-0.15,0.1-0.27s0.04-0.25,0.04-0.38c0-0.2-0.04-0.35-0.12-0.45
				S5.06,79.3,4.93,79.3c-0.12,0-0.22,0.06-0.3,0.17s-0.16,0.3-0.25,0.58c-0.11,0.39-0.25,0.69-0.43,0.89
				c-0.18,0.2-0.42,0.3-0.71,0.3c-0.3,0-0.54-0.12-0.72-0.36c-0.18-0.24-0.26-0.56-0.26-0.95c0-0.28,0.04-0.54,0.13-0.76
				c0.09-0.23,0.21-0.42,0.37-0.57h0.74v0.55l-0.5,0.08c-0.06,0.07-0.11,0.17-0.15,0.29s-0.06,0.26-0.06,0.41
				c0,0.2,0.04,0.34,0.12,0.45c0.08,0.1,0.19,0.15,0.32,0.15c0.14,0,0.25-0.05,0.33-0.15c0.08-0.1,0.16-0.27,0.23-0.51
				c0.12-0.42,0.27-0.74,0.43-0.96c0.17-0.22,0.4-0.33,0.69-0.33c0.29,0,0.52,0.12,0.71,0.37c0.18,0.24,0.28,0.55,0.28,0.92
				c0,0.27-0.04,0.52-0.13,0.75c-0.08,0.22-0.19,0.41-0.33,0.57H4.74z"/>
			<path class="st2" d="M5.44,81.14h0.43v1.47H5.44l-0.07-0.38H2.82l-0.07,0.38H2.32v-1.47h0.43l0.07,0.38h2.55L5.44,81.14z"/>
			<path class="st2" d="M2.75,82.47l0.04,0.25l3.09,1.08v0.73l-3.09,1.07l-0.04,0.25H2.32v-1.21h0.43l0.04,0.25l0.49-0.16v-1.15
				l-0.49-0.16l-0.04,0.25H2.32v-1.21H2.75z M3.8,83.76v0.82l1.25-0.4v-0.02L3.8,83.76z"/>
		</g>
		<g>
			<path class="st2" d="M115.58,40.14l0-0.02l-4.01-1.61v-0.45l4.01-1.61l0-0.02l-2.03,0.07h-1.45l-0.1,0.56h-0.43v-1.79h0.43
				l0.1,0.56h3.94l0.1-0.56h0.44v0.56v0.86l-4.07,1.59v0.02l4.07,1.58v1.42h-0.44l-0.1-0.56h-3.94l-0.1,0.56h-0.43v-1.79h0.43
				l0.1,0.56h1.45L115.58,40.14z"/>
			<path class="st2" d="M113.47,41.68c0.55,0,1,0.15,1.36,0.44c0.36,0.3,0.54,0.7,0.54,1.21c0,0.51-0.18,0.91-0.53,1.21
				c-0.35,0.3-0.81,0.45-1.36,0.45h-0.08c-0.55,0-1.01-0.15-1.36-0.44c-0.35-0.3-0.53-0.7-0.53-1.21c0-0.51,0.18-0.92,0.53-1.21
				c0.35-0.3,0.81-0.44,1.36-0.44H113.47z M113.39,42.35c-0.39,0-0.72,0.08-0.98,0.25c-0.26,0.17-0.38,0.41-0.38,0.74
				c0,0.32,0.13,0.56,0.38,0.73c0.26,0.17,0.58,0.25,0.98,0.25h0.08c0.39,0,0.71-0.08,0.97-0.25c0.26-0.17,0.39-0.41,0.39-0.74
				c0-0.32-0.13-0.57-0.39-0.73c-0.26-0.16-0.58-0.25-0.97-0.25H113.39z"/>
			<path class="st2" d="M112.1,45.39c0.22,0.19,0.45,0.33,0.69,0.43s0.61,0.17,1.1,0.2l0.87,0.03l0.09-0.54h0.44v2.97v0.56h-0.44
				l-0.1-0.56h-2.66v0.49l-1.62-0.07v-0.61h1.09v-2.55h-1.09v-0.6l1.62-0.07V45.39z M113.89,46.7c-0.41-0.02-0.76-0.08-1.06-0.18
				c-0.29-0.09-0.54-0.21-0.74-0.36v1.66h2.59v-1.09L113.89,46.7z"/>
			<path class="st2" d="M114.85,52.98l-0.05-0.33l-3.8-1.41c-0.25-0.09-0.47-0.23-0.65-0.4c-0.19-0.17-0.28-0.41-0.28-0.71
				c0-0.05,0.01-0.12,0.02-0.21c0.01-0.08,0.02-0.15,0.04-0.2l0.53,0.07c0-0.01,0,0.03-0.01,0.12c-0.01,0.09-0.01,0.15-0.01,0.18
				c0,0.14,0.06,0.26,0.19,0.35s0.27,0.17,0.43,0.23l0.38,0.16l3.16-1.22l0.05-0.34h0.44v1.49h-0.44l-0.07-0.42L112.95,51
				l-0.47,0.12v0.02l2.31,0.77l0.07-0.42h0.44v1.49H114.85z"/>
			<path class="st2" d="M114.76,54.52h-1.05c-0.73,0-1.27-0.1-1.62-0.29s-0.52-0.52-0.52-0.99v-0.19l0.58,0.01l0,0.14
				c0,0.24,0.12,0.41,0.35,0.5c0.24,0.09,0.63,0.14,1.2,0.14h1.06l0.1-0.56h0.44v3.16v0.56h-0.44l-0.1-0.56h-2.66l-0.1,0.56h-0.43
				v-1.79h0.43l0.1,0.56h2.65V54.52z"/>
			<path class="st2" d="M115.29,58.7h-1.28v0.92c0,0.44-0.11,0.78-0.33,1.02c-0.22,0.24-0.51,0.37-0.87,0.37
				c-0.36,0-0.66-0.12-0.89-0.37c-0.23-0.25-0.35-0.58-0.35-1.02v-2.15h0.43l0.1,0.56h2.66l0.1-0.56h0.44v0.56V58.7z M113.48,58.7
				h-1.38v0.92c0,0.24,0.06,0.42,0.19,0.54c0.13,0.12,0.29,0.17,0.49,0.17c0.19,0,0.35-0.06,0.49-0.17s0.21-0.3,0.21-0.54V58.7z
				 M115.29,59.26h-0.44l-0.1-0.56h0.53V59.26z"/>
			<path class="st2" d="M112.03,64.64c0,0.22,0.07,0.42,0.21,0.59s0.31,0.25,0.51,0.25v0.6l-0.02,0.01
				c-0.32,0.01-0.61-0.13-0.85-0.43c-0.25-0.29-0.37-0.64-0.37-1.03c0-0.54,0.18-0.95,0.53-1.23c0.35-0.28,0.8-0.43,1.33-0.43h0.14
				c0.53,0,0.97,0.14,1.33,0.43c0.35,0.28,0.53,0.69,0.53,1.23c0,0.3-0.05,0.56-0.15,0.8c-0.1,0.24-0.23,0.43-0.41,0.59l-0.83,0.03
				v-0.54l0.58-0.15c0.08-0.08,0.14-0.18,0.19-0.31c0.05-0.13,0.07-0.27,0.07-0.42c0-0.35-0.13-0.61-0.38-0.76
				c-0.26-0.15-0.57-0.23-0.94-0.23h-0.14c-0.38,0-0.7,0.08-0.95,0.23C112.16,64.03,112.03,64.28,112.03,64.64z"/>
			<path class="st2" d="M115.29,68.39h-0.44l-0.1-0.56h-2.1l-0.01,0.02l2.64,1.63v0.67v0.56h-0.44l-0.1-0.56h-2.66l-0.1,0.56h-0.43
				v-1.79h0.43l0.1,0.56h2.1l0.01-0.02l-2.64-1.63v-1.23h0.43l0.1,0.56h2.66l0.1-0.56h0.44v1.23V68.39z"/>
			<path class="st2" d="M114.76,72.58h-1.05c-0.73,0-1.27-0.1-1.62-0.29s-0.52-0.52-0.52-0.99v-0.19l0.58,0.01l0,0.14
				c0,0.24,0.12,0.41,0.35,0.5c0.24,0.09,0.63,0.14,1.2,0.14h1.06l0.1-0.56h0.44v3.16v0.56h-0.44l-0.1-0.56h-2.66l-0.1,0.56h-0.43
				v-1.79h0.43l0.1,0.56h2.65V72.58z"/>
			<path class="st2" d="M113.47,75.5c0.55,0,1,0.15,1.36,0.44c0.36,0.3,0.54,0.7,0.54,1.21c0,0.51-0.18,0.91-0.53,1.21
				c-0.35,0.3-0.81,0.45-1.36,0.45h-0.08c-0.55,0-1.01-0.15-1.36-0.44c-0.35-0.3-0.53-0.7-0.53-1.21c0-0.51,0.18-0.92,0.53-1.21
				c0.35-0.3,0.81-0.44,1.36-0.44H113.47z M113.39,76.18c-0.39,0-0.72,0.08-0.98,0.25c-0.26,0.17-0.38,0.41-0.38,0.74
				c0,0.32,0.13,0.56,0.38,0.73c0.26,0.17,0.58,0.25,0.98,0.25h0.08c0.39,0,0.71-0.08,0.97-0.25c0.26-0.17,0.39-0.41,0.39-0.74
				c0-0.32-0.13-0.57-0.39-0.73c-0.26-0.16-0.58-0.25-0.97-0.25H113.39z"/>
			<path class="st2" d="M115.29,81.29c0,0.49-0.08,0.87-0.26,1.14c-0.17,0.27-0.43,0.4-0.77,0.4c-0.17,0-0.33-0.05-0.47-0.16
				c-0.14-0.11-0.24-0.25-0.31-0.44c-0.06,0.23-0.16,0.41-0.32,0.54s-0.34,0.19-0.54,0.19c-0.35,0-0.61-0.13-0.79-0.38
				c-0.18-0.25-0.27-0.61-0.27-1.06v-2.25h0.43l0.1,0.56h2.66l0.1-0.56h0.44v0.56V81.29z M113.2,80.51h-1.11v1.02
				c0,0.25,0.05,0.44,0.14,0.57s0.23,0.19,0.41,0.19c0.18,0,0.31-0.06,0.41-0.19c0.1-0.13,0.14-0.32,0.14-0.57V80.51z M113.72,80.51
				v0.79c0,0.29,0.04,0.5,0.13,0.64s0.21,0.22,0.38,0.22c0.18,0,0.31-0.07,0.4-0.22c0.09-0.14,0.13-0.36,0.13-0.65v-0.78H113.72z"/>
			<path class="st2" d="M115.29,84.68h-1.28v0.92c0,0.44-0.11,0.78-0.33,1.02c-0.22,0.24-0.51,0.37-0.87,0.37
				c-0.36,0-0.66-0.12-0.89-0.37c-0.23-0.25-0.35-0.58-0.35-1.02v-2.15h0.43l0.1,0.56h2.66l0.1-0.56h0.44v0.56V84.68z M112.01,87.06
				l0.1,0.56h2.66l0.1-0.56h0.44v1.23h-3.19l-0.1,0.56h-0.43v-1.79H112.01z M113.48,84.68h-1.38v0.92c0,0.24,0.06,0.42,0.19,0.54
				c0.13,0.12,0.29,0.17,0.49,0.17c0.19,0,0.35-0.06,0.49-0.17s0.21-0.3,0.21-0.54V84.68z M115.29,85.24h-0.44l-0.1-0.56h0.53V85.24
				z"/>
			<path class="st2" d="M112.01,89.08l0.08,0.4l1.37,1.09l1.32-1.06l0.08-0.4h0.44v1.45h-0.44l-0.04-0.33l-0.89,0.69l0.9,0.69
				l0.04-0.33h0.44v1.46h-0.44l-0.08-0.4l-1.32-1.06l-1.37,1.09l-0.08,0.4h-0.43v-1.45h0.43l0.04,0.33l0.94-0.72l-0.94-0.72
				l-0.04,0.33h-0.43v-1.46H112.01z"/>
			<path class="st2" d="M114.85,94.66h0.44v1.79h-0.44l-0.1-0.56h-1.04v0.36l1.04,0.77c0.2,0.14,0.34,0.28,0.44,0.41
				c0.1,0.13,0.15,0.28,0.15,0.45c0,0.1-0.01,0.19-0.04,0.26s-0.07,0.15-0.12,0.23l-0.46-0.1c0.02-0.1,0.03-0.15,0.03-0.17
				c0-0.02,0-0.05,0-0.09c0-0.08-0.03-0.17-0.09-0.25s-0.14-0.15-0.22-0.21l-0.93-0.71L112.09,98l-0.09,0.48h-0.43v-0.9l1.58-1.25
				v-0.44h-1.05l-0.1,0.56h-0.43v-1.79h0.43l0.1,0.56h2.66L114.85,94.66z"/>
			<path class="st2" d="M114.76,100.18h-1.05c-0.73,0-1.27-0.1-1.62-0.29s-0.52-0.52-0.52-0.99v-0.19l0.58,0.01l0,0.14
				c0,0.24,0.12,0.41,0.35,0.5c0.24,0.09,0.63,0.14,1.2,0.14h1.06l0.1-0.56h0.44v3.16v0.56h-0.44l-0.1-0.56h-2.66l-0.1,0.56h-0.43
				v-1.79h0.43l0.1,0.56h2.65V100.18z"/>
			<path class="st2" d="M112.01,103.04l0.1,0.56h2.66l0.1-0.56h0.44v1.23h-1.57v0.91c0.49,0.04,0.88,0.21,1.18,0.5
				c0.3,0.29,0.46,0.67,0.46,1.14c0,0.51-0.18,0.91-0.53,1.21c-0.35,0.3-0.81,0.45-1.36,0.45h-0.08c-0.55,0-1.01-0.15-1.36-0.44
				c-0.35-0.3-0.53-0.7-0.53-1.21c0-0.48,0.16-0.87,0.47-1.16c0.31-0.29,0.72-0.46,1.22-0.49v-0.9h-1.09l-0.1,0.56h-0.43v-1.79
				H112.01z M113.39,105.84c-0.39,0-0.72,0.08-0.98,0.25c-0.26,0.17-0.38,0.41-0.38,0.74c0,0.32,0.13,0.56,0.38,0.73
				c0.26,0.17,0.58,0.25,0.98,0.25h0.08c0.39,0,0.71-0.08,0.97-0.25c0.26-0.17,0.39-0.41,0.39-0.74c0-0.32-0.13-0.57-0.39-0.73
				c-0.26-0.16-0.58-0.25-0.97-0.25H113.39z"/>
			<path class="st2" d="M115.3,110.67h-0.43l-0.1-0.56h-0.56c-0.3,0-0.52,0.06-0.66,0.19c-0.14,0.13-0.21,0.32-0.21,0.57
				c0,0.15,0.01,0.29,0.03,0.43s0.04,0.27,0.08,0.41h1.32l0.1-0.56h0.44v1.79h-0.44l-0.1-0.56h-2.66l-0.1,0.56h-0.43v-1.79h0.43
				l0.1,0.56h0.8c-0.04-0.13-0.06-0.27-0.08-0.4c-0.02-0.14-0.02-0.28-0.02-0.43c0-0.45,0.12-0.8,0.35-1.05s0.59-0.38,1.05-0.38
				h0.56l0.1-0.56h0.43v1.23V110.67z"/>
			<path class="st2" d="M111.5,115.11c0-0.52,0.17-0.92,0.52-1.23c0.34-0.3,0.79-0.46,1.34-0.46h0.15c0.53,0,0.97,0.16,1.32,0.47
				c0.35,0.31,0.53,0.68,0.53,1.11c0,0.5-0.15,0.87-0.45,1.13c-0.3,0.26-0.71,0.38-1.21,0.38h-0.42v-2.4l-0.02-0.01
				c-0.36,0.01-0.65,0.1-0.88,0.27c-0.23,0.17-0.35,0.42-0.35,0.73c0,0.23,0.03,0.43,0.1,0.6c0.07,0.17,0.16,0.32,0.27,0.45
				l-0.44,0.26c-0.13-0.13-0.24-0.31-0.32-0.53C111.54,115.68,111.5,115.42,111.5,115.11z M114.83,115.01c0-0.23-0.1-0.42-0.29-0.58
				c-0.19-0.16-0.43-0.26-0.72-0.29l-0.02,0.01v1.71h0.09c0.27,0,0.49-0.07,0.67-0.21S114.83,115.29,114.83,115.01z"/>
			<path class="st2" d="M115.29,118.82h-0.44l-0.1-0.56h-2.1l-0.01,0.02l2.64,1.63v0.67v0.56h-0.44l-0.1-0.56h-2.66l-0.1,0.56h-0.43
				v-1.79h0.43l0.1,0.56h2.1l0.01-0.02l-2.64-1.63v-1.23h0.43l0.1,0.56h2.66l0.1-0.56h0.44v1.23V118.82z M116.87,120.13l-0.02,0.01
				c-0.27,0.01-0.48-0.08-0.65-0.26s-0.25-0.43-0.25-0.75c0-0.31,0.08-0.56,0.25-0.75s0.38-0.27,0.65-0.26l0.02,0.01v0.51
				c-0.15,0-0.27,0.04-0.37,0.12c-0.1,0.08-0.14,0.2-0.14,0.37c0,0.16,0.05,0.29,0.14,0.37c0.09,0.08,0.22,0.12,0.37,0.12V120.13z"
				/>
		</g>
		<g>
			<path class="st2" d="M102.07,37.92v0.64h-0.53v-0.64h-0.63l-0.1,0.52h-0.43v-1.65h0.43l0.1,0.52h0.63v-2.07h0.38l3.47,2.03v0.66
				H102.07z M102.07,35.9v1.41h2.35l0.01-0.02l-0.18-0.06L102.07,35.9z"/>
			<path class="st2" d="M105.39,44.82h-0.44l-0.1-0.52h-4.47v-0.62l3.86-2.22l-0.01-0.02h-3.33l-0.1,0.52h-0.43V40.3h0.43l0.1,0.52
				h3.94l0.1-0.52h0.44v0.52v0.62l-3.86,2.21l0.01,0.02h3.32l0.1-0.52h0.44v1.14V44.82z"/>
			<path class="st2" d="M102.23,46.89v-1.55h0.53v1.55H102.23z"/>
			<path class="st2" d="M103.85,51.01v-0.44l0.71-0.12c0.11-0.1,0.2-0.23,0.26-0.37c0.07-0.15,0.1-0.32,0.1-0.53
				c0-0.48-0.19-0.85-0.57-1.1c-0.38-0.26-0.86-0.39-1.43-0.39h-0.08c-0.58,0-1.06,0.13-1.44,0.38c-0.38,0.25-0.57,0.6-0.57,1.05
				c0,0.21,0.04,0.4,0.11,0.57c0.07,0.17,0.16,0.3,0.26,0.4l0.71,0.12v0.44h-0.89c-0.19-0.13-0.35-0.33-0.5-0.6
				c-0.15-0.27-0.22-0.57-0.22-0.92c0-0.6,0.24-1.09,0.72-1.47s1.09-0.58,1.82-0.58h0.07c0.73,0,1.34,0.19,1.82,0.57
				c0.48,0.38,0.72,0.87,0.72,1.48c0,0.35-0.07,0.66-0.22,0.92c-0.15,0.27-0.31,0.47-0.5,0.6H103.85z"/>
			<path class="st2" d="M104.95,51.46h0.44v1.66h-0.44l-0.1-0.52h-1.73v2.23h1.73l0.1-0.52h0.44v0.52v0.62v0.52h-0.44l-0.1-0.52
				h-3.94l-0.1,0.52h-0.43v-1.66h0.43l0.1,0.52h1.68V52.6h-1.68l-0.1,0.52h-0.43v-1.66h0.43l0.1,0.52h3.94L104.95,51.46z"/>
			<path class="st2" d="M100.63,57.04c-0.22,0-0.46-0.05-0.7-0.16s-0.45-0.24-0.61-0.42l0.25-0.35c0.17,0.1,0.33,0.17,0.5,0.22
				c0.17,0.05,0.35,0.08,0.55,0.08h0.52v0.62H100.63z"/>
			<path class="st2" d="M100.38,58.92h0.46l1.82,1.51c0.33,0.27,0.59,0.45,0.78,0.55c0.19,0.1,0.39,0.14,0.59,0.14
				c0.25,0,0.46-0.07,0.63-0.2c0.17-0.14,0.26-0.31,0.26-0.54c0-0.32-0.09-0.55-0.26-0.7c-0.18-0.15-0.43-0.22-0.75-0.22v-0.6
				l0.02-0.01c0.43-0.01,0.79,0.12,1.09,0.39c0.29,0.27,0.44,0.65,0.44,1.14c0,0.42-0.13,0.75-0.39,0.99c-0.26,0.25-0.6,0.37-1,0.37
				c-0.27,0-0.55-0.07-0.82-0.22s-0.57-0.36-0.88-0.63l-1.43-1.21l-0.02,0.01v1.64l0.57,0.05v0.53h-1.1V58.92z"/>
			<path class="st2" d="M102.07,64.92v0.64h-0.53v-0.64h-0.63l-0.1,0.52h-0.43v-1.65h0.43l0.1,0.52h0.63v-2.07h0.38l3.47,2.03v0.66
				H102.07z M102.07,62.9v1.41h2.35l0.01-0.02l-0.18-0.06L102.07,62.9z"/>
			<path class="st2" d="M104.95,67.23l-0.07-0.42l-3.25,1.03l-0.4,0.1v0.02l0.4,0.1l3.25,1.03l0.07-0.41h0.44v1.45h-0.44l-0.05-0.37
				l-4.51-1.54v-0.53l4.51-1.54l0.05-0.37h0.44v1.46H104.95z"/>
			<path class="st2" d="M100.63,70.4c-0.22,0-0.46-0.05-0.7-0.16s-0.45-0.24-0.61-0.42l0.25-0.35c0.17,0.1,0.33,0.17,0.5,0.22
				c0.17,0.05,0.35,0.08,0.55,0.08h0.52v0.62H100.63z"/>
			<path class="st2" d="M100.38,72.28h0.46l1.82,1.51c0.33,0.27,0.59,0.45,0.78,0.55c0.19,0.1,0.39,0.14,0.59,0.14
				c0.25,0,0.46-0.07,0.63-0.2c0.17-0.14,0.26-0.31,0.26-0.54c0-0.32-0.09-0.55-0.26-0.7c-0.18-0.15-0.43-0.22-0.75-0.22v-0.6
				l0.02-0.01c0.43-0.01,0.79,0.12,1.09,0.39c0.29,0.27,0.44,0.65,0.44,1.14c0,0.42-0.13,0.75-0.39,0.99c-0.26,0.25-0.6,0.37-1,0.37
				c-0.27,0-0.55-0.07-0.82-0.22s-0.57-0.36-0.88-0.63l-1.43-1.21l-0.02,0.01v1.64l0.57,0.05v0.53h-1.1V72.28z"/>
			<path class="st2" d="M100.81,75.56l0.05,0.34l4.52,1.61v0.54l-4.52,1.58l-0.05,0.34h-0.43v-1.32h0.43l0.07,0.35l0.92-0.3v-1.84
				l-0.92-0.31l-0.07,0.35h-0.43v-1.32H100.81z M102.37,77.04v1.46l2.15-0.71v-0.02L102.37,77.04z"/>
			<path class="st2" d="M105.39,82.13c0,0.6-0.2,1.08-0.6,1.45s-0.92,0.55-1.56,0.55h-0.68c-0.64,0-1.16-0.18-1.56-0.55
				c-0.4-0.37-0.6-0.85-0.6-1.45V80.2h0.43l0.1,0.52h3.94l0.1-0.52h0.44v0.52V82.13z M104.85,81.34h-3.94v0.79
				c0,0.43,0.15,0.76,0.46,1.01s0.7,0.37,1.17,0.37h0.69c0.47,0,0.86-0.12,1.17-0.37s0.46-0.58,0.46-1.01V81.34z"/>
			<path class="st2" d="M103.85,88.1v-0.44l0.71-0.12c0.11-0.1,0.2-0.23,0.26-0.37c0.07-0.15,0.1-0.32,0.1-0.53
				c0-0.48-0.19-0.85-0.57-1.1c-0.38-0.26-0.86-0.39-1.43-0.39h-0.08c-0.58,0-1.06,0.13-1.44,0.38c-0.38,0.25-0.57,0.6-0.57,1.05
				c0,0.21,0.04,0.4,0.11,0.57c0.07,0.17,0.16,0.3,0.26,0.4l0.71,0.12v0.44h-0.89c-0.19-0.13-0.35-0.33-0.5-0.6
				c-0.15-0.27-0.22-0.57-0.22-0.92c0-0.6,0.24-1.09,0.72-1.47s1.09-0.58,1.82-0.58h0.07c0.73,0,1.34,0.19,1.82,0.57
				c0.48,0.38,0.72,0.87,0.72,1.48c0,0.35-0.07,0.66-0.22,0.92c-0.15,0.27-0.31,0.47-0.5,0.6H103.85z"/>
			<path class="st2" d="M100.63,89.32c-0.22,0-0.46-0.05-0.7-0.16s-0.45-0.24-0.61-0.42l0.25-0.35c0.17,0.1,0.33,0.17,0.5,0.22
				c0.17,0.05,0.35,0.08,0.55,0.08h0.52v0.62H100.63z"/>
			<path class="st2" d="M105.39,93.23c0,0.49-0.14,0.87-0.41,1.15c-0.27,0.27-0.64,0.41-1.09,0.41c-0.45,0-0.82-0.14-1.09-0.41
				c-0.27-0.27-0.41-0.66-0.41-1.15v-0.98h-1.48l-0.1,0.52h-0.43v-1.66h0.43l0.1,0.52h3.94l0.1-0.52h0.44v0.52V93.23z M102.92,92.25
				v0.98c0,0.31,0.09,0.55,0.27,0.7c0.18,0.16,0.41,0.23,0.69,0.23s0.51-0.08,0.69-0.23s0.28-0.39,0.28-0.7v-0.98H102.92z"/>
			<path class="st2" d="M104.95,96.39l-0.08-0.47l-2.76,0.59l-0.63,0.09l0,0.02l0.63,0.12l3.27,0.85v0.55l-3.27,0.85l-0.64,0.13
				v0.02l0.64,0.09l2.76,0.58l0.08-0.47h0.44v1.46h-0.44l-0.05-0.37l-4.52-1v-0.56l3.47-0.91l0.45-0.08v-0.02l-0.45-0.08l-3.47-0.92
				V96.3l4.52-1l0.05-0.37h0.44v1.46H104.95z"/>
			<path class="st2" d="M104.39,105.45l0-0.02l-4.01-1.49v-0.41l4.01-1.49l0-0.02l-2.03,0.06h-1.45l-0.1,0.52h-0.43v-1.66h0.43
				l0.1,0.52h3.94l0.1-0.52h0.44v0.52v0.8l-4.07,1.47v0.02l4.07,1.47v1.32h-0.44l-0.1-0.52h-3.94l-0.1,0.52h-0.43v-1.66h0.43
				l0.1,0.52h1.45L104.39,105.45z"/>
			<path class="st2" d="M100.63,107.59c-0.22,0-0.46-0.05-0.7-0.16s-0.45-0.24-0.61-0.42l0.25-0.35c0.17,0.1,0.33,0.17,0.5,0.22
				c0.17,0.05,0.35,0.08,0.55,0.08h0.52v0.62H100.63z"/>
			<path class="st2" d="M104.95,109.38h0.44v1.66h-0.44l-0.1-0.52h-3.94l-0.1,0.52h-0.43v-1.66h0.43l0.1,0.52h3.94L104.95,109.38z"
				/>
			<path class="st2" d="M100.38,111.4h0.46l1.82,1.51c0.33,0.27,0.59,0.45,0.78,0.55c0.19,0.1,0.39,0.14,0.59,0.14
				c0.25,0,0.46-0.07,0.63-0.2c0.17-0.14,0.26-0.31,0.26-0.54c0-0.32-0.09-0.55-0.26-0.7c-0.18-0.15-0.43-0.22-0.75-0.22v-0.6
				l0.02-0.01c0.43-0.01,0.79,0.12,1.09,0.39c0.29,0.27,0.44,0.65,0.44,1.14c0,0.42-0.13,0.75-0.39,0.99c-0.26,0.25-0.6,0.37-1,0.37
				c-0.27,0-0.55-0.07-0.82-0.22s-0.57-0.36-0.88-0.63l-1.43-1.21l-0.02,0.01v1.64l0.57,0.05v0.53h-1.1V111.4z"/>
			<path class="st2" d="M103.85,118.3v-0.44l0.71-0.12c0.11-0.1,0.2-0.23,0.26-0.37c0.07-0.15,0.1-0.32,0.1-0.53
				c0-0.48-0.19-0.85-0.57-1.1c-0.38-0.26-0.86-0.39-1.43-0.39h-0.08c-0.58,0-1.06,0.13-1.44,0.38c-0.38,0.25-0.57,0.6-0.57,1.05
				c0,0.21,0.04,0.4,0.11,0.57c0.07,0.17,0.16,0.3,0.26,0.4l0.71,0.12v0.44h-0.89c-0.19-0.13-0.35-0.33-0.5-0.6
				c-0.15-0.27-0.22-0.57-0.22-0.92c0-0.6,0.24-1.09,0.72-1.47s1.09-0.58,1.82-0.58h0.07c0.73,0,1.34,0.19,1.82,0.57
				c0.48,0.38,0.72,0.87,0.72,1.48c0,0.35-0.07,0.66-0.22,0.92c-0.15,0.27-0.31,0.47-0.5,0.6H103.85z"/>
		</g>
		<g>
			<path class="st2" d="M87.43,54.93l-2.36,0.95l2.36,0.95v0.5h-2.89v-0.38h1.13l1.22,0.04l-2.34-0.95v-0.29l2.34-0.95l-1.21,0.04
				h-1.13v-0.38h2.89V54.93z"/>
			<path class="st2" d="M84.53,59.16c0.04-0.02,0.12-0.04,0.23-0.05c-0.18-0.17-0.27-0.38-0.27-0.61c0-0.21,0.06-0.39,0.18-0.52
				c0.12-0.14,0.27-0.2,0.46-0.2c0.22,0,0.4,0.08,0.52,0.25c0.12,0.17,0.19,0.41,0.19,0.72v0.36h0.17c0.13,0,0.23-0.04,0.31-0.12
				c0.08-0.08,0.11-0.19,0.11-0.34c0-0.13-0.03-0.24-0.1-0.33s-0.15-0.13-0.24-0.13v-0.37c0.11,0,0.21,0.04,0.31,0.11
				c0.1,0.08,0.18,0.18,0.24,0.31c0.06,0.13,0.09,0.27,0.09,0.43c0,0.25-0.06,0.44-0.19,0.58c-0.12,0.14-0.29,0.21-0.51,0.22h-0.99
				c-0.2,0-0.35,0.03-0.47,0.08h-0.03V59.16z M84.81,58.55c0,0.12,0.03,0.22,0.09,0.33s0.14,0.18,0.23,0.22h0.44v-0.29
				c0-0.45-0.13-0.68-0.4-0.68c-0.12,0-0.21,0.04-0.27,0.12C84.85,58.33,84.81,58.43,84.81,58.55z"/>
			<path class="st2" d="M85.45,60.62v-0.27h-0.92v-0.37h2.15v0.37h-0.91v0.24l0.91,0.72v0.45l-1.03-0.85l-1.12,0.92v-0.47
				L85.45,60.62z"/>
			<path class="st2" d="M84.8,62.9c0,0.13,0.04,0.25,0.12,0.34c0.08,0.1,0.18,0.15,0.3,0.16v0.35c-0.12-0.01-0.24-0.05-0.35-0.13
				c-0.11-0.08-0.2-0.18-0.27-0.31s-0.1-0.27-0.1-0.42c0-0.29,0.1-0.53,0.29-0.7c0.2-0.17,0.46-0.26,0.8-0.26h0.06
				c0.21,0,0.4,0.04,0.56,0.12c0.16,0.08,0.29,0.19,0.38,0.33c0.09,0.14,0.13,0.31,0.13,0.51c0,0.24-0.07,0.44-0.22,0.6
				c-0.14,0.16-0.33,0.25-0.56,0.26v-0.35c0.14-0.01,0.25-0.06,0.34-0.16c0.09-0.09,0.13-0.21,0.13-0.35c0-0.19-0.07-0.33-0.2-0.43
				c-0.13-0.1-0.33-0.15-0.58-0.15h-0.07c-0.25,0-0.44,0.05-0.57,0.15C84.86,62.57,84.8,62.71,84.8,62.9z"/>
			<path class="st2" d="M86.69,65.46v0.37h-2.15v-0.37h1.57l-1.57-0.99V64.1h2.15v0.37h-1.57L86.69,65.46z"/>
			<path class="st2" d="M85.02,67.56l1.66,0.73v0.46h-2.15v-0.37h1.56l-1.56-0.7v-0.25l1.6-0.71h-1.6v-0.37h2.15v0.48L85.02,67.56z"
				/>
			<path class="st2" d="M84.53,70.57c0.04-0.02,0.12-0.04,0.23-0.05c-0.18-0.17-0.27-0.38-0.27-0.61c0-0.21,0.06-0.39,0.18-0.52
				c0.12-0.14,0.27-0.2,0.46-0.2c0.22,0,0.4,0.08,0.52,0.25c0.12,0.17,0.19,0.41,0.19,0.72v0.36h0.17c0.13,0,0.23-0.04,0.31-0.12
				c0.08-0.08,0.11-0.19,0.11-0.34c0-0.13-0.03-0.24-0.1-0.33s-0.15-0.13-0.24-0.13v-0.37c0.11,0,0.21,0.04,0.31,0.11
				c0.1,0.08,0.18,0.18,0.24,0.31c0.06,0.13,0.09,0.27,0.09,0.43c0,0.25-0.06,0.44-0.19,0.58c-0.12,0.14-0.29,0.21-0.51,0.22h-0.99
				c-0.2,0-0.35,0.03-0.47,0.08h-0.03V70.57z M84.81,69.95c0,0.12,0.03,0.22,0.09,0.33s0.14,0.18,0.23,0.22h0.44v-0.29
				c0-0.45-0.13-0.68-0.4-0.68c-0.12,0-0.21,0.04-0.27,0.12C84.85,69.73,84.81,69.83,84.81,69.95z"/>
			<path class="st2" d="M86.69,73.11h-2.15v-0.37h1.85v-0.73l-0.8-0.04c-0.37-0.02-0.63-0.09-0.79-0.19
				c-0.16-0.1-0.24-0.26-0.25-0.48v-0.15h0.32l0.01,0.1c0.01,0.12,0.08,0.21,0.21,0.26c0.12,0.05,0.35,0.08,0.69,0.1l0.92,0.04
				V73.11z"/>
			<path class="st2" d="M85.94,74v0.56c0,0.24-0.07,0.44-0.19,0.58c-0.13,0.14-0.29,0.21-0.51,0.21c-0.21,0-0.39-0.07-0.52-0.22
				c-0.13-0.15-0.19-0.34-0.19-0.59v-0.91h2.15V74H85.94z M85.64,74h-0.81v0.55c0,0.14,0.04,0.24,0.11,0.32
				c0.07,0.08,0.17,0.11,0.29,0.11c0.12,0,0.22-0.04,0.29-0.11c0.08-0.07,0.12-0.18,0.12-0.31V74z"/>
			<path class="st2" d="M84.53,77.47V77.1h0.92v-0.99h-0.92v-0.37h2.15v0.37h-0.93v0.99h0.93v0.37H84.53z"/>
			<path class="st2" d="M84.53,79.28c0.04-0.02,0.12-0.04,0.23-0.05c-0.18-0.17-0.27-0.38-0.27-0.61c0-0.21,0.06-0.39,0.18-0.52
				c0.12-0.14,0.27-0.2,0.46-0.2c0.22,0,0.4,0.08,0.52,0.25c0.12,0.17,0.19,0.41,0.19,0.72v0.36h0.17c0.13,0,0.23-0.04,0.31-0.12
				c0.08-0.08,0.11-0.19,0.11-0.34c0-0.13-0.03-0.24-0.1-0.33s-0.15-0.13-0.24-0.13v-0.37c0.11,0,0.21,0.04,0.31,0.11
				c0.1,0.08,0.18,0.18,0.24,0.31c0.06,0.13,0.09,0.27,0.09,0.43c0,0.25-0.06,0.44-0.19,0.58c-0.12,0.14-0.29,0.21-0.51,0.22h-0.99
				c-0.2,0-0.35,0.03-0.47,0.08h-0.03V79.28z M84.81,78.67c0,0.12,0.03,0.22,0.09,0.33s0.14,0.18,0.23,0.22h0.44v-0.29
				c0-0.45-0.13-0.68-0.4-0.68c-0.12,0-0.21,0.04-0.27,0.12C84.85,78.45,84.81,78.55,84.81,78.67z"/>
			<path class="st2" d="M86.69,81.71h-2.15v-0.37h0.84v-0.55l-0.84-0.51v-0.4l0.89,0.54c0.05-0.14,0.13-0.24,0.23-0.32
				c0.11-0.07,0.23-0.11,0.37-0.11c0.2,0,0.35,0.07,0.47,0.22c0.12,0.15,0.18,0.34,0.18,0.59V81.71z M86.03,80.37
				c-0.1,0-0.19,0.04-0.25,0.11c-0.06,0.07-0.1,0.17-0.1,0.28v0.58h0.71v-0.53c0-0.14-0.03-0.25-0.1-0.33
				C86.22,80.41,86.13,80.37,86.03,80.37z"/>
			<path class="st2" d="M84.53,84.87V84.5h0.92v-0.99h-0.92v-0.37h2.15v0.37h-0.93v0.99h0.93v0.37H84.53z"/>
			<path class="st2" d="M84.53,86.68c0.04-0.02,0.12-0.04,0.23-0.05c-0.18-0.17-0.27-0.38-0.27-0.61c0-0.21,0.06-0.39,0.18-0.52
				c0.12-0.14,0.27-0.2,0.46-0.2c0.22,0,0.4,0.08,0.52,0.25c0.12,0.17,0.19,0.41,0.19,0.72v0.36h0.17c0.13,0,0.23-0.04,0.31-0.12
				c0.08-0.08,0.11-0.19,0.11-0.34c0-0.13-0.03-0.24-0.1-0.33s-0.15-0.13-0.24-0.13v-0.37c0.11,0,0.21,0.04,0.31,0.11
				c0.1,0.08,0.18,0.18,0.24,0.31c0.06,0.13,0.09,0.27,0.09,0.43c0,0.25-0.06,0.44-0.19,0.58c-0.12,0.14-0.29,0.21-0.51,0.22h-0.99
				c-0.2,0-0.35,0.03-0.47,0.08h-0.03V86.68z M84.81,86.07c0,0.12,0.03,0.22,0.09,0.33s0.14,0.18,0.23,0.22h0.44v-0.29
				c0-0.45-0.13-0.68-0.4-0.68c-0.12,0-0.21,0.04-0.27,0.12C84.85,85.85,84.81,85.95,84.81,86.07z"/>
			<path class="st2" d="M86.38,88.86v-0.99h-1.85v-0.37h2.15v1.36H86.38z"/>
			<path class="st2" d="M85.59,90.89c-0.33,0-0.59-0.08-0.79-0.22c-0.2-0.15-0.3-0.35-0.3-0.61c0-0.26,0.08-0.47,0.25-0.62h-1.04
				v-0.37h2.98v0.34l-0.24,0.02c0.19,0.15,0.28,0.36,0.28,0.63c0,0.26-0.1,0.46-0.29,0.61c-0.19,0.15-0.47,0.23-0.81,0.23H85.59z
				 M85.63,90.52c0.24,0,0.43-0.05,0.57-0.16s0.21-0.25,0.21-0.42c0-0.22-0.1-0.39-0.3-0.5h-1.03c-0.2,0.11-0.29,0.28-0.29,0.5
				c0,0.18,0.07,0.32,0.21,0.42C85.14,90.47,85.35,90.52,85.63,90.52z"/>
			<path class="st2" d="M85.07,91.96l1.61,0.5v0.39l-2.48-0.87c-0.36-0.13-0.54-0.35-0.54-0.64l0.01-0.07l0.03-0.14H84l-0.01,0.1
				c0,0.12,0.03,0.22,0.08,0.29c0.05,0.07,0.14,0.13,0.28,0.17l0.22,0.08l2.13-0.77v0.4L85.07,91.96z"/>
			<path class="st2" d="M86.1,94.26c0.1,0,0.18-0.04,0.24-0.12c0.06-0.08,0.09-0.18,0.09-0.32c0-0.13-0.03-0.24-0.1-0.32
				s-0.15-0.13-0.24-0.13v-0.37c0.19,0,0.34,0.08,0.46,0.23s0.18,0.35,0.18,0.59c0,0.25-0.05,0.45-0.16,0.59s-0.26,0.21-0.46,0.21
				c-0.1,0-0.19-0.03-0.27-0.09c-0.08-0.06-0.14-0.14-0.19-0.25c-0.08,0.25-0.25,0.38-0.5,0.38c-0.2,0-0.35-0.08-0.47-0.23
				s-0.17-0.36-0.17-0.61c0-0.25,0.06-0.45,0.18-0.61c0.12-0.16,0.29-0.24,0.49-0.24v0.37c-0.1,0-0.19,0.05-0.27,0.14
				c-0.08,0.09-0.11,0.21-0.11,0.35c0,0.14,0.03,0.25,0.1,0.34c0.06,0.09,0.15,0.13,0.25,0.13c0.12,0,0.21-0.04,0.26-0.11
				c0.05-0.07,0.08-0.18,0.08-0.34v-0.37h0.31v0.4C85.79,94.14,85.9,94.26,86.1,94.26z"/>
			<path class="st2" d="M85.45,95.72v-0.27h-0.92v-0.37h2.15v0.37h-0.91v0.24l0.91,0.72v0.45l-1.03-0.85l-1.12,0.92v-0.47
				L85.45,95.72z"/>
			<path class="st2" d="M84.53,98.47c0.04-0.02,0.12-0.04,0.23-0.05c-0.18-0.17-0.27-0.38-0.27-0.61c0-0.21,0.06-0.39,0.18-0.52
				c0.12-0.14,0.27-0.2,0.46-0.2c0.22,0,0.4,0.08,0.52,0.25c0.12,0.17,0.19,0.41,0.19,0.72v0.36h0.17c0.13,0,0.23-0.04,0.31-0.12
				c0.08-0.08,0.11-0.19,0.11-0.34c0-0.13-0.03-0.24-0.1-0.33s-0.15-0.13-0.24-0.13v-0.37c0.11,0,0.21,0.04,0.31,0.11
				c0.1,0.08,0.18,0.18,0.24,0.31c0.06,0.13,0.09,0.27,0.09,0.43c0,0.25-0.06,0.44-0.19,0.58c-0.12,0.14-0.29,0.21-0.51,0.22h-0.99
				c-0.2,0-0.35,0.03-0.47,0.08h-0.03V98.47z M84.81,97.86c0,0.12,0.03,0.22,0.09,0.33s0.14,0.18,0.23,0.22h0.44v-0.29
				c0-0.45-0.13-0.68-0.4-0.68c-0.12,0-0.21,0.04-0.27,0.12C84.85,97.64,84.81,97.74,84.81,97.86z"/>
		</g>
		<g>
			<path class="st2" d="M80.16,72.24v-1.9h0.26l1.11,1c0.17,0.15,0.3,0.25,0.41,0.31c0.11,0.06,0.21,0.08,0.33,0.08
				c0.15,0,0.28-0.05,0.37-0.14c0.1-0.09,0.14-0.21,0.14-0.37c0-0.18-0.05-0.33-0.16-0.43c-0.1-0.1-0.25-0.15-0.43-0.15v-0.37
				c0.27,0,0.48,0.09,0.65,0.26s0.25,0.4,0.25,0.69c0,0.27-0.07,0.48-0.21,0.64c-0.14,0.16-0.33,0.23-0.56,0.23
				c-0.29,0-0.62-0.18-1.02-0.54l-0.84-0.78v1.45H80.16z"/>
			<path class="st2" d="M81.13,74.08v0.4h-0.3v-0.4h-0.67v-0.37h0.67v-1.32h0.22l2.01,1.3v0.39H81.13z M81.13,72.81v0.9h1.42
				l-0.08-0.04L81.13,72.81z"/>
			<path class="st2" d="M80.16,74.81h2.89v0.95c0,0.31-0.07,0.55-0.2,0.71s-0.32,0.24-0.58,0.24c-0.13,0-0.25-0.04-0.36-0.12
				c-0.1-0.08-0.18-0.18-0.24-0.31c-0.04,0.16-0.13,0.28-0.25,0.37c-0.12,0.09-0.27,0.14-0.44,0.14c-0.26,0-0.46-0.08-0.61-0.25
				c-0.15-0.17-0.22-0.41-0.22-0.71V74.81z M81.51,75.19h-1.04v0.63c0,0.18,0.05,0.32,0.14,0.42s0.22,0.15,0.38,0.15
				c0.35,0,0.52-0.19,0.52-0.57V75.19z M81.82,75.19v0.58c0,0.17,0.04,0.3,0.13,0.4c0.08,0.1,0.2,0.15,0.34,0.15
				c0.16,0,0.28-0.05,0.35-0.14s0.11-0.23,0.11-0.42v-0.56H81.82z"/>
			<path class="st2" d="M80.16,79.94v-1.9h0.26l1.11,1c0.17,0.15,0.3,0.25,0.41,0.31c0.11,0.06,0.21,0.08,0.33,0.08
				c0.15,0,0.28-0.05,0.37-0.14c0.1-0.09,0.14-0.21,0.14-0.37c0-0.18-0.05-0.33-0.16-0.43c-0.1-0.1-0.25-0.15-0.43-0.15v-0.37
				c0.27,0,0.48,0.09,0.65,0.26s0.25,0.4,0.25,0.69c0,0.27-0.07,0.48-0.21,0.64c-0.14,0.16-0.33,0.23-0.56,0.23
				c-0.29,0-0.62-0.18-1.02-0.54l-0.84-0.78v1.45H80.16z"/>
			<path class="st2" d="M80.92,81.93v-1.21l-0.76-0.27v-0.39l2.89,1.11v0.33l-2.89,1.11V82.2L80.92,81.93z M81.23,80.83v0.98
				l1.35-0.49L81.23,80.83z"/>
		</g>
		<g id="Лого_3_">
			<polygon class="st80" points="47.46,32.06 47.46,28.65 37.97,28.65 37.97,43.15 42.29,43.15 42.29,40.05 39.56,40.05 
				39.56,33.85 42.29,33.85 42.29,32.12 			"/>
			<polygon class="st80" points="49.03,32.06 49.03,28.65 58.58,28.65 58.58,59.16 49.03,59.16 49.03,55.66 54.2,55.66 54.23,46.95 
				56.95,46.95 56.95,40.83 54.23,40.83 54.23,32.06 			"/>
			<polygon class="st80" points="42.29,44.66 37.97,44.66 37.97,59.16 47.46,59.16 47.46,55.66 42.29,55.66 42.29,53.9 39.59,53.9 
				39.56,47.76 42.29,47.76 			"/>
			<rect x="40.79" y="34.99" class="st80" width="2.44" height="3.82"/>
			<rect x="53.32" y="41.97" class="st80" width="2.45" height="3.83"/>
			<rect x="40.79" y="48.93" class="st80" width="2.44" height="3.87"/>
			<g>
				<path class="st2" d="M58.51,62.62v1.91H46.47v-1.91H58.51z"/>
				<path class="st2" d="M46.47,72.1v-1.93l2.18-0.33V67.5l-2.18-0.33v-1.75l12.04,1.95v2.8L46.47,72.1z M50.29,67.74v1.84
					l6.09-0.92L50.29,67.74z"/>
				<path class="st2" d="M46.47,76.98c0.31-0.1,0.5-0.17,1.48-0.17h1.89c1.12,0,1.53-0.38,1.53-1.25V74.9h-4.9v-1.91h12.04v2.88
					c0,1.98-0.91,2.83-2.77,2.83h-0.95c-1.24,0-2.05-0.4-2.44-1.25c-0.4,0.96-1.31,1.27-2.56,1.27h-1.86
					c-0.58,0-1.01,0.02-1.46,0.21V76.98z M56.79,74.9h-3.7v0.75c0,0.71,0.31,1.15,1.27,1.15h1.19c0.86,0,1.24-0.29,1.24-0.97V74.9z"
					/>
				<path class="st2" d="M58.51,79.97V83c0,1.91-1.05,2.85-2.98,2.85h-6.09c-1.93,0-2.97-0.94-2.97-2.85v-3.02H58.51z M56.79,81.88
					h-8.6v1.08c0,0.61,0.31,0.97,1.17,0.97h6.26c0.86,0,1.17-0.37,1.17-0.97V81.88z"/>
				<path class="st2" d="M58.51,88.89h-9.29c-0.86,0-1.17,0.38-1.17,0.99s0.31,0.99,1.17,0.99h9.29v1.81h-9.17
					c-1.93,0-3.03-0.97-3.03-2.85s1.1-2.85,3.03-2.85h9.17V88.89z"/>
				<path class="st2" d="M58.51,93.98v1.91H46.47v-1.91H58.51z"/>
				<path class="st2" d="M55.19,98.98h-8.72v-1.72h12.04v2.4l-7.21,1.96h7.21v1.7H46.47v-1.96L55.19,98.98z"/>
				<path class="st2" d="M55.62,104.54c1.93,0,3.03,1.03,3.03,2.9s-1.1,2.9-3.03,2.9h-6.26c-1.93,0-3.03-1.03-3.03-2.9
					s1.1-2.9,3.03-2.9H55.62z M49.24,106.45c-0.86,0-1.19,0.38-1.19,0.99s0.33,0.99,1.19,0.99h6.5c0.86,0,1.19-0.38,1.19-0.99
					s-0.33-0.99-1.19-0.99H49.24z"/>
				<path class="st2" d="M48.29,113.24h-1.82v-1.84h1.82V113.24z"/>
				<path class="st2" d="M46.47,118.63c0.31-0.1,0.5-0.17,1.48-0.17h1.89c1.12,0,1.53-0.38,1.53-1.25v-0.66h-4.9v-1.91h12.04v2.88
					c0,1.98-0.91,2.83-2.77,2.83h-0.95c-1.24,0-2.05-0.4-2.44-1.25c-0.4,0.96-1.31,1.27-2.56,1.27h-1.86
					c-0.58,0-1.01,0.02-1.46,0.21V118.63z M56.79,116.55h-3.7v0.75c0,0.71,0.31,1.15,1.27,1.15h1.19c0.86,0,1.24-0.29,1.24-0.97
					V116.55z"/>
				<path class="st2" d="M58.51,123.44h-9.29c-0.86,0-1.17,0.38-1.17,0.99s0.31,0.99,1.17,0.99h9.29v1.81h-9.17
					c-1.93,0-3.03-0.97-3.03-2.85s1.1-2.85,3.03-2.85h9.17V123.44z"/>
			</g>
			<g>
				<path class="st2" d="M42.88,63.87c0,0.82-0.36,1.15-1.09,1.15h-0.23c-0.52,0-0.84-0.16-0.98-0.62
					c-0.13,0.51-0.51,0.71-1.05,0.71h-0.41c-0.74,0-1.15-0.38-1.15-1.21v-1.21h4.91V63.87z M38.46,63.9c0,0.43,0.21,0.63,0.67,0.63
					h0.44c0.55,0,0.73-0.23,0.73-0.74v-0.51h-1.83V63.9z M40.8,63.72c0,0.47,0.14,0.71,0.65,0.71h0.29c0.43,0,0.65-0.16,0.65-0.58
					v-0.58H40.8V63.72z"/>
				<path class="st2" d="M41.69,67.97h-0.44v-0.56h0.47c0.44,0,0.71-0.19,0.71-0.62c0-0.42-0.27-0.62-0.71-0.62h-2.6
					c-0.44,0-0.71,0.2-0.71,0.62c0,0.43,0.27,0.62,0.71,0.62h0.64v0.56h-0.61c-0.74,0-1.24-0.38-1.24-1.19
					c0-0.81,0.49-1.18,1.24-1.18h2.54c0.74,0,1.24,0.38,1.24,1.18C42.93,67.59,42.44,67.97,41.69,67.97z"/>
				<path class="st2" d="M40.7,70.38h-0.49v-1.29h-1.75v1.58h-0.5V68.5h4.91v2.17h-0.5v-1.58H40.7V70.38z M43.8,69.37h-0.63v-0.51
					h0.63V69.37z M43.8,70.31h-0.63v-0.52h0.63V70.31z"/>
				<path class="st2" d="M37.29,74.98h0.67v-2.16h-0.67v-0.57h1.16v0.34c0.19,0.18,0.41,0.22,0.72,0.23l3.71,0.2v2.12h-4.43v0.4
					h-1.16V74.98z M39.17,73.41c-0.35-0.02-0.56-0.08-0.72-0.24v1.39h3.93v-0.98L39.17,73.41z"/>
				<path class="st2" d="M42.38,77.19l-3.19-0.12c-0.78-0.03-1.22-0.26-1.23-1.06v-0.1h0.5c0,0.49,0.23,0.57,0.7,0.59l3.72,0.14
					v2.15h-4.91V78.2h4.42V77.19z"/>
				<path class="st2" d="M40.06,80.78c0-0.49-0.18-0.77-0.73-0.77h-0.77c-0.33,0-0.46-0.03-0.6-0.1v-0.6
					c0.17,0.09,0.37,0.11,0.59,0.11h0.76c0.53,0,0.89,0.18,1.03,0.66c0.13-0.44,0.47-0.65,1.01-0.65h0.4c0.73,0,1.12,0.35,1.12,1.18
					v1.18h-4.91v-0.59h2.1V80.78z M42.38,80.62c0-0.44-0.23-0.61-0.67-0.61h-0.47c-0.53,0-0.67,0.28-0.67,0.74v0.44h1.82V80.62z"/>
				<path class="st2" d="M42.88,84.71c0,0.83-0.46,1.18-1.2,1.18h-0.59c-0.78,0-1.19-0.39-1.19-1.23v-0.52h-1.94v-0.59h4.91V84.71z
					 M40.39,84.66c0,0.44,0.19,0.65,0.66,0.65h0.65c0.45,0,0.67-0.17,0.67-0.6v-0.57h-1.99V84.66z"/>
				<path class="st2" d="M38.96,86.94l-0.99-0.2V86.2l4.91,1.01v0.85l-4.91,1.01v-0.59l0.99-0.2V86.94z M39.43,87.02v1.18l2.84-0.6
					L39.43,87.02z"/>
				<path class="st2" d="M37.29,92.13h0.67v-2.16h-0.67v-0.57h1.16v0.34c0.19,0.18,0.41,0.22,0.72,0.23l3.71,0.2v2.12h-4.43v0.4
					h-1.16V92.13z M39.17,90.55c-0.35-0.02-0.56-0.08-0.72-0.24v1.39h3.93v-0.98L39.17,90.55z"/>
				<path class="st2" d="M40.23,94.6l-2.27-0.78v-0.61h4.91v0.52h-3.66l1.36,0.47l2.31,0.84v0.66h-4.91v-0.53h3.91L40.23,94.6z"/>
				<path class="st2" d="M41.69,96.25c0.75,0,1.24,0.4,1.24,1.21c0,0.81-0.48,1.21-1.24,1.21h-2.54c-0.74,0-1.24-0.4-1.24-1.21
					c0-0.81,0.49-1.21,1.24-1.21H41.69z M39.12,96.83c-0.45,0-0.71,0.2-0.71,0.63c0,0.43,0.26,0.63,0.71,0.63h2.6
					c0.44,0,0.71-0.2,0.71-0.63c0-0.42-0.27-0.63-0.71-0.63H39.12z"/>
				<path class="st2" d="M42.38,100.35l-3.19-0.12c-0.78-0.03-1.22-0.26-1.23-1.06v-0.1h0.5c0,0.49,0.23,0.57,0.7,0.59l3.72,0.14
					v2.15h-4.91v-0.59h4.42V100.35z"/>
				<path class="st2" d="M41.69,106.35h-2.54c-0.74,0-1.24-0.4-1.24-1.21c0-0.81,0.49-1.21,1.24-1.21h1.02v-0.76h-2.21v-0.59h4.91
					v0.59h-2.21v0.76h1.03c0.75,0,1.24,0.4,1.24,1.21C42.93,105.95,42.44,106.35,41.69,106.35z M41.72,104.51h-2.6
					c-0.44,0-0.71,0.2-0.71,0.63c0,0.42,0.27,0.63,0.71,0.63h2.6c0.45,0,0.71-0.2,0.71-0.63C42.43,104.71,42.17,104.51,41.72,104.51
					z"/>
				<path class="st2" d="M40.85,108.12c0,0.82-0.37,1.24-1.15,1.24h-0.54c-0.77,0-1.19-0.38-1.19-1.21v-1.23h4.91v2.22h-0.5v-1.64
					h-1.53V108.12z M38.46,108.15c0,0.43,0.2,0.63,0.66,0.63h0.61c0.48,0,0.63-0.23,0.63-0.66v-0.62h-1.9V108.15z"/>
				<path class="st2" d="M40.23,111.32l-2.27-0.78v-0.61h4.91v0.52h-3.66l1.36,0.47l2.31,0.84v0.66h-4.91v-0.53h3.91L40.23,111.32z"
					/>
				<path class="st2" d="M37.97,113.82h4.42v-0.97h0.5v2.53h-0.5v-0.97h-4.42V113.82z"/>
				<path class="st2" d="M40.7,117.7h-0.49v-1.29h-1.75v1.58h-0.5v-2.17h4.91v2.17h-0.5v-1.58H40.7V117.7z"/>
				<path class="st2" d="M42.38,119.66l-3.19-0.12c-0.78-0.03-1.22-0.26-1.23-1.06v-0.1h0.5c0,0.49,0.23,0.57,0.7,0.59l3.72,0.14
					v2.15h-4.91v-0.59h4.42V119.66z"/>
				<path class="st2" d="M40.7,123.76h-0.49v-1.29h-1.75v1.58h-0.5v-2.17h4.91v2.17h-0.5v-1.58H40.7V123.76z"/>
				<path class="st2" d="M40.33,126.02l-2.37-0.82v-0.61h4.91v0.52h-3.66l1.42,0.49l2.25,0.82v0.66h-4.91v-0.53h3.91L40.33,126.02z
					 M43.88,126.68c-0.43,0-0.69-0.31-0.69-0.81s0.26-0.8,0.69-0.81v0.37c-0.27,0.02-0.36,0.2-0.36,0.44s0.08,0.43,0.36,0.45V126.68
					z"/>
			</g>
		</g>
		<g>
			<path class="st76" d="M34.92,112.47v2.93c0,1.34-1.1,2.44-2.44,2.44h0c-1.34,0-2.44-1.1-2.44-2.44v-2.93H34.92z"/>
			<path class="st76" d="M30.05,111.87v-2.93c0-1.34,1.1-2.44,2.44-2.44h0c1.34,0,2.44,1.1,2.44,2.44v2.93H30.05z"/>
		</g>
		<g>
			<path class="st76" d="M34.92,126.94v2.93c0,1.34-1.1,2.44-2.44,2.44h0c-1.34,0-2.44-1.1-2.44-2.44v-2.93H34.92z"/>
			<path class="st76" d="M30.05,126.33v-2.93c0-1.34,1.1-2.44,2.44-2.44h0c1.34,0,2.44,1.1,2.44,2.44v2.93H30.05z"/>
		</g>
		<g>
			<path class="st81" d="M32.61,134.24l1.45,0.15v1.49h-0.34v-1.18l-0.79-0.09c0.08,0.14,0.13,0.3,0.13,0.49
				c0,0.26-0.09,0.47-0.26,0.63c-0.17,0.16-0.41,0.23-0.71,0.23c-0.3,0-0.54-0.08-0.71-0.24c-0.17-0.16-0.26-0.39-0.26-0.68
				c0-0.26,0.07-0.47,0.21-0.63s0.34-0.25,0.59-0.28v0.35c-0.17,0.02-0.29,0.08-0.38,0.18c-0.08,0.1-0.13,0.22-0.13,0.38
				c0,0.17,0.06,0.31,0.18,0.4c0.12,0.1,0.28,0.15,0.48,0.15c0.19,0,0.35-0.05,0.47-0.16c0.12-0.11,0.18-0.25,0.18-0.42
				c0-0.16-0.04-0.29-0.11-0.38l-0.08-0.1L32.61,134.24z"/>
			<path class="st81" d="M31.66,137.32l2.4,0.83v0.42l-2.91-1.08v-0.34l2.91-1.08v0.42L31.66,137.32z"/>
		</g>
		<g>
			<path class="st81" d="M32.79,98.91v0.28c0,0.17,0.05,0.31,0.14,0.41c0.09,0.1,0.21,0.15,0.36,0.15c0.34,0,0.51-0.17,0.51-0.51
				c0-0.16-0.05-0.29-0.14-0.38c-0.09-0.1-0.21-0.14-0.36-0.14v-0.37c0.23,0,0.42,0.08,0.57,0.25c0.15,0.17,0.23,0.38,0.23,0.64
				c0,0.27-0.07,0.49-0.22,0.64c-0.15,0.16-0.35,0.23-0.61,0.23c-0.13,0-0.25-0.04-0.37-0.12c-0.12-0.08-0.21-0.19-0.26-0.33
				c-0.05,0.16-0.13,0.28-0.25,0.37c-0.12,0.09-0.26,0.13-0.43,0.13c-0.26,0-0.47-0.08-0.62-0.25c-0.15-0.17-0.23-0.39-0.23-0.67
				s0.07-0.49,0.22-0.67s0.34-0.26,0.58-0.26v0.37c-0.15,0-0.28,0.05-0.37,0.15c-0.09,0.1-0.14,0.23-0.14,0.4
				c0,0.18,0.05,0.31,0.14,0.41c0.09,0.09,0.23,0.14,0.4,0.14c0.17,0,0.3-0.05,0.39-0.16s0.14-0.25,0.14-0.45v-0.28H32.79z"/>
			<path class="st81" d="M31.66,101.63l2.4,0.83v0.42l-2.91-1.08v-0.34l2.91-1.08v0.42L31.66,101.63z"/>
			<path class="st81" d="M32.79,103.61v0.28c0,0.17,0.05,0.31,0.14,0.41c0.09,0.1,0.21,0.15,0.36,0.15c0.34,0,0.51-0.17,0.51-0.51
				c0-0.16-0.05-0.29-0.14-0.38c-0.09-0.1-0.21-0.14-0.36-0.14v-0.37c0.23,0,0.42,0.08,0.57,0.25c0.15,0.17,0.23,0.38,0.23,0.64
				c0,0.27-0.07,0.49-0.22,0.64c-0.15,0.16-0.35,0.23-0.61,0.23c-0.13,0-0.25-0.04-0.37-0.12c-0.12-0.08-0.21-0.19-0.26-0.33
				c-0.05,0.16-0.13,0.28-0.25,0.37c-0.12,0.09-0.26,0.13-0.43,0.13c-0.26,0-0.47-0.08-0.62-0.25c-0.15-0.17-0.23-0.39-0.23-0.67
				s0.07-0.49,0.22-0.67s0.34-0.26,0.58-0.26v0.37c-0.15,0-0.28,0.05-0.37,0.15c-0.09,0.1-0.14,0.23-0.14,0.4
				c0,0.18,0.05,0.31,0.14,0.41c0.09,0.09,0.23,0.14,0.4,0.14c0.17,0,0.3-0.05,0.39-0.16s0.14-0.25,0.14-0.45v-0.28H32.79z"/>
		</g>
		<g>
			<circle class="st30" cx="10.86" cy="81.6" r="1.26"/>
			<circle class="st30" cx="14.47" cy="81.6" r="1.26"/>
			<circle class="st30" cx="10.86" cy="85.29" r="1.26"/>
			<circle class="st30" cx="14.47" cy="85.29" r="1.26"/>
			<circle class="st30" cx="10.86" cy="88.86" r="1.26"/>
			<circle class="st30" cx="14.47" cy="88.86" r="1.26"/>
		</g>
		<g>
			
				<rect x="22.7" y="72.91" transform="matrix(-1 -1.224647e-16 1.224647e-16 -1 46.7123 149.0872)" class="st2" width="1.32" height="3.26"/>
			<path class="st2" d="M18.26,99.13V57.67c0-0.32,0.26-0.58,0.58-0.58h7.58c0.32,0,0.58,0.26,0.58,0.58v41.46
				c0,0.32-0.26,0.58-0.58,0.58h-7.58C18.52,99.71,18.26,99.45,18.26,99.13z M19.47,60.82h2.28v2.38h1.42v-2.38h0.88v4.05h1.38
				v-5.34l-5.96-0.03V60.82z M19.47,70.86h1.44V66.8h4.52v-1.3h-5.96V70.86z M25.46,71.49h-5.99v1.42h1.79v3.26h-1.79v1.43h5.96
				 M21.71,83.03h-0.84v-4.69h-1.4v6.11h3.72v-4.79h0.84v4.79h1.4v-6.11h-3.72V83.03z M25.43,89.74H23.2v-3.36h2.23v-1.32h-5.96
				l0,1.32h2.27v3.36h-2.27l0,1.44h5.96"/>
			<path class="st3" d="M19.16,93.09h0.9v5.28h-0.9V93.09z"/>
			<path class="st3" d="M21.83,93.78c-0.29,0-0.46,0.14-0.46,0.52v0.57h-0.85v-0.51c0-0.84,0.46-1.33,1.34-1.33s1.34,0.48,1.34,1.33
				c0,1.66-1.79,2.28-1.79,3.14c0,0.04,0,0.08,0.01,0.11h1.7v0.75h-2.6v-0.65c0-1.55,1.78-1.81,1.78-3.33
				C22.29,93.91,22.11,93.78,21.83,93.78z"/>
			<path class="st3" d="M26.14,96.39v0.7c0,0.84-0.46,1.33-1.34,1.33s-1.34-0.48-1.34-1.33v-2.74c0-0.84,0.46-1.33,1.34-1.33
				s1.34,0.48,1.34,1.33v0.51H25.3V94.3c0-0.38-0.18-0.52-0.47-0.52c-0.29,0-0.46,0.14-0.46,0.52v2.85c0,0.38,0.18,0.51,0.46,0.51
				c0.29,0,0.47-0.14,0.47-0.51v-0.75H26.14z"/>
		</g>
	</g>
</g>
</svg>
