<?xml version="1.0" encoding="utf-8"?>
<!-- Generator: Adobe Illustrator 22.0.1, SVG Export Plug-In . SVG Version: 6.00 Build 0)  -->
<svg version="1.1" xmlns="http://www.w3.org/2000/svg" xmlns:xlink="http://www.w3.org/1999/xlink" x="0px" y="0px"
	 viewBox="0 0 85.0400009 85.0400009" style="enable-background:new 0 0 85.0400009 85.0400009;" xml:space="preserve">
<style type="text/css">
	.st0{fill:#19191A;}
	.st1{fill:#9E9B9C;}
	.st2{fill:#E5E4E0;}
	.st3{fill:none;stroke:#F6F6F6;stroke-width:0.75;stroke-miterlimit:10;}
	.st4{fill:#CEC7BD;}
	.st5{fill:#918C84;}
	.st6{fill:#FFFFFF;}
	.st7{fill:#CDC7BC;}
	.st8{fill:#363331;}
	.st9{fill:#B5B4B3;}
	.st10{fill:#666566;}
	.st11{fill:none;stroke:#EBAD4F;stroke-width:0.6905763;stroke-miterlimit:10;}
	.st12{fill:#E6E6E6;}
	.st13{fill:#0D0E0F;}
	.st14{fill:url(#SVGID_1_);}
	.st15{fill:url(#SVGID_2_);}
</style>
<g id="Макет_TREMA">
	<path class="st0" d="M-0.000304-0.000304v85.039978h85.039978V-0.000304H-0.000304z M9.921998,79.5114746
		c-2.427917,0-4.3947139-1.9667969-4.3947139-4.3927002c0-2.4279175,1.9667969-4.3947144,4.3947139-4.3947144
		c2.4258423,0,4.3926392,1.9667969,4.3926392,4.3947144C14.3146372,77.5446777,12.3478403,79.5114746,9.921998,79.5114746z
		 M9.921998,14.3146372c-2.427917,0-4.3947139-1.9667969-4.3947139-4.3927002c0-2.427917,1.9667969-4.3947139,4.3947139-4.3947139
		c2.4258423,0,4.3926392,1.9667969,4.3926392,4.3947139C14.3146372,12.3478403,12.3478403,14.3146372,9.921998,14.3146372z
		 M75.1188354,79.5114746c-2.4279175,0-4.3947144-1.9667969-4.3947144-4.3927002
		c0-2.4279175,1.9667969-4.3947144,4.3947144-4.3947144c2.4258423,0,4.3926392,1.9667969,4.3926392,4.3947144
		C79.5114746,77.5446777,77.5446777,79.5114746,75.1188354,79.5114746z M75.1188354,14.3146372
		c-2.4279175,0-4.3947144-1.9667969-4.3947144-4.3927002c0-2.427917,1.9667969-4.3947139,4.3947144-4.3947139
		c2.4258423,0,4.3926392,1.9667969,4.3926392,4.3947139C79.5114746,12.3478403,77.5446777,14.3146372,75.1188354,14.3146372z"/>
	<path class="st1" d="M9.9209604,3.9454968c-3.2877803,0-5.9527588,2.6751711-5.9527588,5.9754639
		c0,3.3002319,2.6649783,5.9754028,5.9527588,5.9754028c3.2877197,0,5.9527588-2.6751709,5.9527588-5.9754028
		C15.8737192,6.6206679,13.2086802,3.9454968,9.9209604,3.9454968z M9.921998,14.3146372
		c-2.427917,0-4.3947139-1.9667969-4.3947139-4.3927002c0-2.427917,1.9667969-4.3947139,4.3947139-4.3947139
		c2.4258423,0,4.3926392,1.9667969,4.3926392,4.3947139C14.3146372,12.3478403,12.3478403,14.3146372,9.921998,14.3146372z"/>
	<path class="st1" d="M75.1178055,3.9454968c-3.2877808,0-5.9527588,2.6751711-5.9527588,5.9754639
		c0,3.3002319,2.664978,5.9754028,5.9527588,5.9754028c3.2877197,0,5.9527588-2.6751709,5.9527588-5.9754028
		C81.0705643,6.6206679,78.4055252,3.9454968,75.1178055,3.9454968z M75.1188431,14.3146372
		c-2.4279175,0-4.3947144-1.9667969-4.3947144-4.3927002c0-2.427917,1.9667969-4.3947139,4.3947144-4.3947139
		c2.4258423,0,4.3926392,1.9667969,4.3926392,4.3947139C79.5114822,12.3478403,77.5446854,14.3146372,75.1188431,14.3146372z"/>
	<path class="st1" d="M9.9209604,69.1423721c-3.2877803,0-5.9527588,2.6751709-5.9527588,5.9754639
		c0,3.3002319,2.6649783,5.9754028,5.9527588,5.9754028c3.2877197,0,5.9527588-2.6751709,5.9527588-5.9754028
		C15.8737192,71.817543,13.2086802,69.1423721,9.9209604,69.1423721z M9.921998,79.5115128
		c-2.427917,0-4.3947139-1.9667969-4.3947139-4.3927002c0-2.4279175,1.9667969-4.3947144,4.3947139-4.3947144
		c2.4258423,0,4.3926392,1.9667969,4.3926392,4.3947144C14.3146372,77.5447159,12.3478403,79.5115128,9.921998,79.5115128z"/>
	<path class="st1" d="M75.1178055,69.1423721c-3.2877808,0-5.9527588,2.6751709-5.9527588,5.9754639
		c0,3.3002319,2.664978,5.9754028,5.9527588,5.9754028c3.2877197,0,5.9527588-2.6751709,5.9527588-5.9754028
		C81.0705643,71.817543,78.4055252,69.1423721,75.1178055,69.1423721z M75.1188431,79.5115128
		c-2.4279175,0-4.3947144-1.9667969-4.3947144-4.3927002c0-2.4279175,1.9667969-4.3947144,4.3947144-4.3947144
		c2.4258423,0,4.3926392,1.9667969,4.3926392,4.3947144C79.5114822,77.5447159,77.5446854,79.5115128,75.1188431,79.5115128z"/>
	<g>
		<path class="st2" d="M35.7822266,80.296875c0.3588867,0,0.640625,0.0810547,0.8447266,0.2441406
			c0.2045898,0.1630859,0.3066406,0.3876953,0.3066406,0.6748047c0,0.1582031-0.0429688,0.2958984-0.128418,0.4121094
			s-0.2104492,0.2099609-0.3754883,0.2822266c0.1865234,0.0546875,0.3208008,0.1455078,0.402832,0.2724609
			c0.081543,0.1269531,0.1225586,0.2841797,0.1225586,0.4726563v0.1591797c0,0.0693359,0.0136719,0.1220703,0.0415039,0.1601563
			c0.0273438,0.0380859,0.0732422,0.0605469,0.1367188,0.0683594l0.078125,0.0107422v0.3789063h-0.328125
			c-0.2070313,0-0.3525391-0.0556641-0.4365234-0.1660156s-0.1259766-0.2529297-0.1259766-0.4287109v-0.1787109
			c0-0.1523438-0.0410156-0.2714844-0.1225586-0.3583984c-0.0820313-0.0869141-0.1972656-0.1328125-0.3466797-0.1367188h-0.519043
			v0.8271484l0.3388672,0.0644531v0.3769531h-1.3100586v-0.3769531l0.3369141-0.0644531v-2.2509766l-0.3369141-0.0644531V80.296875
			h0.3369141H35.7822266z M35.3325195,81.6796875h0.4389648c0.1762695,0,0.309082-0.0380859,0.3974609-0.1123047
			s0.1323242-0.1826172,0.1323242-0.3232422s-0.0439453-0.2529297-0.1313477-0.3369141
			c-0.0878906-0.0839844-0.2167969-0.1259766-0.3876953-0.1259766h-0.449707V81.6796875z"/>
		<path class="st2" d="M38.6928711,80.296875v0.3789063l-0.3388672,0.0644531v1.6367188
			c0,0.2070313,0.0561523,0.3613281,0.168457,0.4648438c0.1123047,0.1025391,0.2661133,0.1533203,0.4614258,0.1533203
			c0.1987305,0,0.3544922-0.0507813,0.4672852-0.1523438c0.112793-0.1025391,0.1694336-0.2578125,0.1694336-0.4658203v-1.6367188
			l-0.3369141-0.0644531V80.296875H40.59375v0.3789063l-0.3388672,0.0644531v1.6367188
			c0,0.3525391-0.1166992,0.6230469-0.3505859,0.8144531s-0.5410156,0.2861328-0.9204102,0.2861328
			c-0.3779297,0-0.6831055-0.0947266-0.9155273-0.2861328s-0.3486328-0.4619141-0.3486328-0.8144531v-1.6367188
			l-0.3364258-0.0644531V80.296875h0.3364258h0.6342773H38.6928711z"/>
		<path class="st2" d="M43.1835938,81.2978516h-0.4760742L42.625,80.8671875
			c-0.0546875-0.0341797-0.1352539-0.0644531-0.2407227-0.0898438c-0.105957-0.0263672-0.2182617-0.0390625-0.3369141-0.0390625
			c-0.1738281,0-0.3081055,0.0361328-0.402832,0.1083984c-0.0952148,0.0722656-0.1425781,0.1660156-0.1425781,0.28125
			c0,0.1064453,0.0498047,0.1933594,0.1489258,0.2617188s0.2705078,0.140625,0.5136719,0.2167969
			c0.3491211,0.0957031,0.6137695,0.2226563,0.7939453,0.3808594c0.1806641,0.1582031,0.2705078,0.3652344,0.2705078,0.6220703
			c0,0.2685547-0.1069336,0.4804688-0.3212891,0.6357422s-0.4970703,0.2324219-0.847168,0.2324219
			c-0.2509766,0-0.4770508-0.0390625-0.6791992-0.1181641c-0.2016602-0.0791016-0.3701172-0.1884766-0.5048828-0.3271484v-0.6552734
			h0.4907227l0.0673828,0.4462891c0.0639648,0.0517578,0.1503906,0.0947266,0.2597656,0.1279297
			c0.109375,0.0341797,0.2314453,0.0507813,0.3662109,0.0507813c0.1738281,0,0.3056641-0.0351563,0.3964844-0.1054688
			c0.090332-0.0703125,0.1357422-0.1650391,0.1357422-0.2822266c0-0.1210938-0.043457-0.2177734-0.1293945-0.2910156
			c-0.0864258-0.0732422-0.2373047-0.1416016-0.453125-0.2070313c-0.375-0.1074219-0.6586914-0.2353516-0.8515625-0.3828125
			c-0.1923828-0.1484375-0.2885742-0.3505859-0.2885742-0.6074219c0-0.2539063,0.1083984-0.4619141,0.3256836-0.6240234
			c0.2172852-0.1611328,0.4902344-0.2441406,0.8188477-0.2480469c0.2431641,0,0.4648438,0.0361328,0.6650391,0.109375
			c0.199707,0.0732422,0.3676758,0.1708984,0.5039063,0.2929688V81.2978516z"/>
		<path class="st2" d="M45.8818359,81.2978516H45.40625l-0.0830078-0.4306641
			c-0.0546875-0.0341797-0.1347656-0.0644531-0.2402344-0.0898438c-0.1064453-0.0263672-0.21875-0.0390625-0.3369141-0.0390625
			c-0.1738281,0-0.3085938,0.0361328-0.4033203,0.1083984s-0.1425781,0.1660156-0.1425781,0.28125
			c0,0.1064453,0.0498047,0.1933594,0.1494141,0.2617188c0.0986328,0.0683594,0.2705078,0.140625,0.5136719,0.2167969
			c0.3486328,0.0957031,0.6132813,0.2226563,0.7939453,0.3808594s0.2705078,0.3652344,0.2705078,0.6220703
			c0,0.2685547-0.1074219,0.4804688-0.3212891,0.6357422c-0.2148438,0.1552734-0.4970703,0.2324219-0.8476563,0.2324219
			c-0.2509766,0-0.4765625-0.0390625-0.6787109-0.1181641s-0.3706055-0.1884766-0.5053711-0.3271484v-0.6552734h0.4907227
			l0.0673828,0.4462891c0.0644531,0.0517578,0.1503906,0.0947266,0.2597656,0.1279297
			c0.109375,0.0341797,0.2314453,0.0507813,0.3662109,0.0507813c0.1738281,0,0.3056641-0.0351563,0.3964844-0.1054688
			s0.1357422-0.1650391,0.1357422-0.2822266c0-0.1210938-0.0429688-0.2177734-0.1289063-0.2910156
			c-0.0869141-0.0732422-0.2373047-0.1416016-0.453125-0.2070313c-0.375-0.1074219-0.6591797-0.2353516-0.8520508-0.3828125
			c-0.1923828-0.1484375-0.2885742-0.3505859-0.2885742-0.6074219c0-0.2539063,0.1083984-0.4619141,0.3256836-0.6240234
			c0.2172852-0.1611328,0.4907227-0.2441406,0.8188477-0.2480469c0.2431641,0,0.4648438,0.0361328,0.6650391,0.109375
			s0.3681641,0.1708984,0.5039063,0.2929688V81.2978516z"/>
		<path class="st2" d="M46.1757813,80.6757813V80.296875h1.3095703v0.3789063l-0.3388672,0.0644531v2.2509766l0.3388672,0.0644531
			v0.3769531h-1.3095703v-0.3769531l0.3388672-0.0644531v-2.2509766L46.1757813,80.6757813z"/>
		<path class="st2" d="M47.6933594,83.0556641l0.2265625-0.0322266l0.9619141-2.7265625H49.53125l0.9560547,2.7265625
			l0.2265625,0.0322266v0.3769531h-1.078125v-0.3769531l0.2197266-0.0390625l-0.1396484-0.4306641h-1.0244141l-0.1396484,0.4306641
			l0.2197266,0.0390625v0.3769531h-1.078125V83.0556641z M48.8408203,82.1230469h0.7255859l-0.3564453-1.1044922h-0.0126953
			L48.8408203,82.1230469z"/>
	</g>
	<g>
		<path class="st3" d="M38.8972855,78.9623947c-3.5066872-0.0077286-6.4477921-0.0142136-7.110487-0.0156708
			c-0.0916157-0.000206-0.1396847-0.0003128-0.1396847-0.0003128l-0.0392761-15.5949364l7.2894402-0.027668"/>
		<path class="st3" d="M31.6078434,78.9623947c-3.5066872-0.0077286-6.4477921-0.0142136-7.110487-0.0156708
			c-0.0916138-0.000206-0.1396847-0.0003128-0.1396847-0.0003128l-0.0392761-15.5949364l7.2894421-0.027668"/>
		<path class="st3" d="M46.133831,78.9783401c-2.3269234-0.005127-4.9065819-0.0108109-7.2365456-0.0159454"/>
		<path class="st3" d="M46.133831,63.2963371l7.2641945-0.0275726l0.0338707,15.3897896
			c0,0,0.0004234,0.1679382,0.0008469,0.3358688c-0.0455399-0.0000992-0.0910759-0.0001984-0.0910759-0.0001984
			s-3.2356834-0.0071335-7.2078362-0.0158844"/>
		<path class="st3" d="M53.4327431,63.2963371l7.2641945-0.0275726l0.0338707,15.3897896
			c0,0,0.0004234,0.1679382,0.0008469,0.3358688c-0.0455399-0.0000992-0.0910759-0.0001984-0.0910759-0.0001984
			s-3.2356834-0.0071335-7.2078362-0.0158844"/>
		<line class="st3" x1="38.8972778" y1="63.3238068" x2="46.133831" y2="63.2963371"/>
		<line class="st3" x1="46.1338272" y1="63.2963371" x2="46.1338272" y2="78.9774094"/>
		<line class="st3" x1="38.8972855" y1="63.3238068" x2="38.8972855" y2="78.9604034"/>
		<path class="st3" d="M45.5896072,67.0776749"/>
		<path class="st4" d="M37.5603256,75.1177673c0,1.2273636-1.0018463,2.2224731-2.2397385,2.2224731
			s-2.2415428-0.9951096-2.2415428-2.2224731s1.0036507-2.2224731,2.2415428-2.2224731S37.5603256,73.8904037,37.5603256,75.1177673
			z"/>
		<ellipse class="st5" cx="35.3196869" cy="75.1177673" rx="1.5316002" ry="1.5185714"/>
		<path class="st4" d="M44.7603264,75.1177673c0,1.2273636-1.0018463,2.2224731-2.2397385,2.2224731
			s-2.2415428-0.9951096-2.2415428-2.2224731s1.0036507-2.2224731,2.2415428-2.2224731S44.7603264,73.8904037,44.7603264,75.1177673
			z"/>
		<ellipse class="st5" cx="42.5196838" cy="75.1177673" rx="1.5316002" ry="1.5185714"/>
		<path class="st4" d="M51.3477554,73.4888458c1.5395126,2.0229187-0.1709862,4.2713089-2.1831703,3.7840042
			c-0.7743721-0.1875381-1.4096413-0.8210754-1.5987854-1.5950546
			C47.0742073,73.6661606,49.3232689,71.9484482,51.3477554,73.4888458z"/>
		<ellipse class="st5" cx="49.7196846" cy="75.1177673" rx="1.5316002" ry="1.5185714"/>
		<g>
			<path class="st2" d="M37.2373047,69.5869141c-0.152832,0.1582031-0.3779297,0.3076172-0.6757813,0.4482422
				s-0.6845703,0.2109375-1.1611328,0.2109375c-0.6958008,0-1.2631836-0.2421875-1.7026367-0.7265625
				c-0.4394531-0.4833984-0.6591797-1.1123047-0.6591797-1.8847656v-0.0849609c0-0.7763672,0.2172852-1.40625,0.6518555-1.8876953
				c0.4345703-0.4824219,1.0131836-0.7236328,1.7348633-0.7236328c0.3862305,0,0.7246094,0.0605469,1.0166016,0.1796875
				s0.5380859,0.2763672,0.737793,0.4726563v0.9355469h-0.4931641l-0.1713867-0.7119141
				c-0.1166992-0.0947266-0.2578125-0.1728516-0.4233398-0.234375s-0.3637695-0.0917969-0.5952148-0.0917969
				c-0.5620117,0-0.9951172,0.1904297-1.2988281,0.5722656c-0.3037109,0.3808594-0.4555664,0.875-0.4555664,1.4824219v0.0917969
				c0,0.6171875,0.1469727,1.1152344,0.4414063,1.4951172c0.2944336,0.3808594,0.699707,0.5703125,1.2167969,0.5703125
				c0.2832031,0,0.515625-0.0292969,0.6967773-0.0878906c0.1811523-0.0595703,0.3261719-0.1240234,0.4360352-0.1953125v-1.1298828
				l-0.8540039-0.0351563v-0.5136719h1.5581055V69.5869141z"/>
		</g>
		<path class="st4" d="M30.2037601,75.1177673c0,1.2273636-1.0018463,2.2224731-2.2397385,2.2224731
			s-2.2415428-0.9951096-2.2415428-2.2224731s1.0036507-2.2224731,2.2415428-2.2224731S30.2037601,73.8904037,30.2037601,75.1177673
			z"/>
		<ellipse class="st5" cx="27.9631195" cy="75.1177673" rx="1.5316002" ry="1.5185714"/>
		<g>
			<path class="st2" d="M28.0234375,65.0166016c0.5668945,0,1.0019531,0.125,1.3041992,0.3740234
				c0.3027344,0.2490234,0.4541016,0.6025391,0.4541016,1.0615234c0,0.25-0.0703125,0.4716797-0.2109375,0.6660156
				c-0.140625,0.1933594-0.3417969,0.3457031-0.6040039,0.4570313c0.2836914,0.0917969,0.487793,0.2421875,0.612793,0.4492188
				c0.125,0.2080078,0.1875,0.4648438,0.1875,0.7695313v0.4140625c0,0.1582031,0.0205078,0.2753906,0.0610352,0.3505859
				c0.0405273,0.0761719,0.1069336,0.1210938,0.2001953,0.1347656l0.1713867,0.0214844v0.4570313h-0.3789063
				c-0.2739258,0-0.46875-0.0947266-0.5839844-0.2832031c-0.1157227-0.1894531-0.1733398-0.4179688-0.1733398-0.6875v-0.4003906
				c0-0.28125-0.0825195-0.5068359-0.246582-0.6767578c-0.1645508-0.1699219-0.3847656-0.2548828-0.6611328-0.2548828h-1.1293945
				v1.7568359l0.5825195,0.0996094v0.4462891h-1.8686523v-0.4462891l0.5820313-0.0996094V65.5625l-0.5820313-0.0996094v-0.4462891
				h0.5820313H28.0234375z M27.0263672,67.3193359h0.9257813c0.3930664,0,0.6787109-0.0742188,0.8574219-0.2226563
				s0.2680664-0.3662109,0.2680664-0.6523438c0-0.2714844-0.0859375-0.4863281-0.2573242-0.6445313
				S28.3833008,65.5625,28.0234375,65.5625h-0.9970703V67.3193359z"/>
		</g>
		<g>
			<path class="st2" d="M41.7285156,65.5732422l-0.4750977,0.0751953L42.418457,69l0.1176758,0.4072266h0.0214844L42.6757813,69
				l1.1611328-3.3554688l-0.4682617-0.0712891v-0.4492188h1.6401367v0.4492188l-0.4179688,0.0566406l-1.7436523,4.6523438
				h-0.6040039l-1.7436523-4.6523438l-0.4145508-0.0566406v-0.4492188h1.6435547V65.5732422z"/>
		</g>
		<g>
			<path class="st2" d="M47.3798828,69.8349609l0.5820313-0.0996094V65.671875l-0.5820313-0.0996094v-0.4492188h1.8681641v0.4492188
				l-0.5820313,0.0996094v1.7324219h0.5390625l1.4550781-1.7822266l-0.3896484-0.0498047v-0.4492188h1.6503906v0.4492188
				l-0.4892578,0.0888672l-1.5898438,1.9560547l1.7363281,2.1289063l0.4892578,0.0888672V70.28125H50.359375v-0.4462891
				l0.3964844-0.0498047l-1.4824219-1.8320313h-0.6074219v1.7822266l0.5820313,0.0996094V70.28125h-1.8681641V69.8349609z"/>
		</g>
		<path class="st4" d="M58.7102699,73.4888458c1.5395088,2.0229187-0.1709862,4.2713089-2.1831703,3.7840042
			c-0.7743721-0.1875381-1.4096413-0.8210754-1.5987854-1.5950546
			C54.436718,73.6661606,56.6857796,71.9484482,58.7102699,73.4888458z"/>
		<ellipse class="st5" cx="57.0821991" cy="75.1177673" rx="1.5316002" ry="1.5185714"/>
		<g>
			<path class="st2" d="M59.2441406,65.1230469v1.140625h-0.6005859l-0.0527344-0.5917969h-1.1542969v4.0634766l0.5820313,0.0996094
				V70.28125h-1.8691406v-0.4462891l0.5830078-0.0996094V65.671875h-1.1582031l-0.0498047,0.5917969h-0.6035156v-1.140625
				H59.2441406z"/>
		</g>
		<rect x="17.466465" y="63.2963371" class="st6" width="5.846035" height="5.846035"/>
		<g>
			<path d="M18.5908203,64c0.3710938-0.0566406,0.8125-0.0986328,1.2958984-0.0986328
				c0.8754883,0,1.4985352,0.203125,1.9121094,0.5888672C22.21875,64.875,22.4638672,65.421875,22.4638672,66.1845703
				c0,0.7705078-0.237793,1.4013672-0.6791992,1.8349609c-0.4414063,0.4414063-1.1699219,0.6796875-2.0874023,0.6796875
				c-0.434082,0-0.7983398-0.0205078-1.1064453-0.0556641V64z M19.2001953,68.1738281
				c0.1542969,0.0283203,0.378418,0.0351563,0.6162109,0.0351563c1.3027344,0,2.0102539-0.7285156,2.0102539-2.0029297
				c0.0068359-1.1132813-0.6235352-1.8212891-1.9121094-1.8212891c-0.3149414,0-0.5532227,0.0283203-0.7143555,0.0634766V68.1738281
				z"/>
		</g>
	</g>
</g>
<g id="Рисунок">
	<g>
		<path class="st2" d="M30.9243164,8.1616211h-0.7597656V7.1445313H27.605957v1.0170898h-0.7705078l-0.0634766-1.6533203h0.3212891
			c0.1489258-0.1269531,0.2788086-0.3271484,0.3896484-0.6010742c0.1108398-0.2734375,0.1757813-0.6757813,0.1948242-1.2060547
			l0.0771484-1.1137695l-0.4067383-0.0791016V3.0078125h3.6044922v0.5004883l-0.4438477,0.0849609v2.9150391h0.4926758
			L30.9243164,8.1616211z M28.5170898,4.7011719C28.5,5.1201172,28.449707,5.4755859,28.3666992,5.7680664
			s-0.1914063,0.5395508-0.3251953,0.7402344h1.6303711V3.6474609h-1.0859375L28.5170898,4.7011719z"/>
		<path class="st2" d="M33.0385742,6.6474609l0.3579102-0.0854492V5.9941406h-0.3637695l-0.5957031,1.1503906h-1.1577148V6.6474609
			l0.4238281-0.0625l0.65625-1.0883789l-0.3608398-0.5566406c-0.0458984-0.0698242-0.1005859-0.1259766-0.1635742-0.1674805
			c-0.0629883-0.0419922-0.1230469-0.0625-0.1806641-0.0625c-0.0400391,0-0.0683594,0.0024414-0.0859375,0.0068359
			c-0.0170898,0.0048828-0.0512695,0.0136719-0.1030273,0.0268555l-0.1401367-0.5737305
			c0.0742188-0.0454102,0.1499023-0.081543,0.2260742-0.1079102c0.0766602-0.0263672,0.1635742-0.0395508,0.2607422-0.0395508
			c0.190918,0,0.3515625,0.0449219,0.4814453,0.1347656s0.2509766,0.2241211,0.3637695,0.4018555l0.4125977,0.6821289h0.3266602
			V4.6557617l-0.3579102-0.0849609v-0.5h1.5527344v0.5l-0.3608398,0.0849609v0.5854492h0.3354492l0.4125977-0.6821289
			c0.1108398-0.1777344,0.230957-0.3120117,0.3608398-0.4018555s0.2915039-0.1347656,0.484375-0.1347656
			c0.0952148,0,0.1811523,0.0131836,0.2578125,0.0395508c0.0761719,0.0263672,0.152832,0.0625,0.2290039,0.1079102
			l-0.1401367,0.5737305c-0.0537109-0.0131836-0.0888672-0.0219727-0.105957-0.0268555
			c-0.0170898-0.0043945-0.0449219-0.0068359-0.0830078-0.0068359c-0.0595703,0-0.1206055,0.0205078-0.1835938,0.0625
			c-0.0629883,0.0415039-0.1166992,0.0976563-0.1606445,0.1674805L35.2763672,5.496582l0.6503906,1.0883789l0.4267578,0.0625
			v0.4970703h-1.1572266l-0.5932617-1.1503906h-0.3725586v0.5678711l0.3608398,0.0854492v0.4970703h-1.5527344V6.6474609z"/>
		<path class="st2" d="M36.6464844,5.5791016c0-0.4584961,0.1293945-0.8339844,0.3881836-1.1264648
			s0.6162109-0.4389648,1.0732422-0.4389648c0.4580078,0,0.8168945,0.1459961,1.0756836,0.4375
			c0.2587891,0.2919922,0.3881836,0.6679688,0.3881836,1.1279297v0.0595703c0,0.4624023-0.1293945,0.8388672-0.3881836,1.1293945
			c-0.2587891,0.2910156-0.6157227,0.4360352-1.0703125,0.4360352c-0.4604492,0-0.8198242-0.1450195-1.0786133-0.4360352
			c-0.2587891-0.2905273-0.3881836-0.6669922-0.3881836-1.1293945V5.5791016z M37.4829102,5.6386719
			c0,0.2802734,0.0498047,0.5053711,0.1489258,0.6748047c0.0996094,0.1694336,0.2597656,0.2543945,0.4814453,0.2543945
			c0.2158203,0,0.3740234-0.0854492,0.4741211-0.2558594c0.1005859-0.1704102,0.1508789-0.3950195,0.1508789-0.6733398V5.5791016
			c0-0.2724609-0.0507813-0.4951172-0.1518555-0.6674805c-0.1015625-0.1723633-0.2607422-0.2587891-0.4785156-0.2587891
			s-0.3764648,0.0864258-0.4760742,0.2587891c-0.0991211,0.1723633-0.1489258,0.3950195-0.1489258,0.6674805V5.6386719z"/>
		<path class="st2" d="M41.6835938,4.0708008v0.5l-0.4008789,0.0849609v1.28125l0.0170898,0.0029297l1.0087891-1.8691406h0.8364258
			h0.4443359v0.5l-0.4443359,0.0849609v1.90625l0.4443359,0.0854492v0.4970703h-1.6821289V6.6474609l0.4013672-0.0854492V5.2753906
			l-0.0175781-0.0029297l-1.0083008,1.8720703h-1.2836914V6.6474609l0.4467773-0.0854492v-1.90625l-0.4467773-0.0849609v-0.5
			h1.2836914H41.6835938z M42.7695313,2.7099609l0.0058594,0.0166016c0.0097656,0.2407227-0.074707,0.4375-0.253418,0.5898438
			s-0.4189453,0.2285156-0.7207031,0.2285156c-0.3037109,0-0.5454102-0.0761719-0.7250977-0.2285156
			S40.8125,2.9672852,40.8242188,2.7265625l0.0058594-0.0166016h0.5673828c0,0.1098633,0.0322266,0.2006836,0.097168,0.2724609
			c0.0649414,0.0722656,0.1669922,0.1079102,0.3066406,0.1079102c0.1357422,0,0.2358398-0.0356445,0.3007813-0.1064453
			s0.0976563-0.1625977,0.0976563-0.2739258H42.7695313z"/>
		<path class="st2" d="M45.4521484,6.5678711c0.1484375,0,0.2675781-0.0429688,0.3574219-0.1293945
			c0.0898438-0.0859375,0.1347656-0.2011719,0.1347656-0.3452148h0.7568359l0.0087891,0.0170898
			c0.0078125,0.3105469-0.1103516,0.5708008-0.3525391,0.7797852C46.1142578,7.0996094,45.8125,7.2041016,45.4521484,7.2041016
			c-0.4628906,0-0.8193359-0.1450195-1.0693359-0.4345703s-0.375-0.6621094-0.375-1.1166992V5.5678711
			c0-0.4526367,0.1279297-0.824707,0.3847656-1.1166992c0.2578125-0.2915039,0.6240234-0.4375,1.0996094-0.4375
			c0.25,0,0.4746094,0.0371094,0.6728516,0.1108398c0.1992188,0.0737305,0.3642578,0.1782227,0.4960938,0.3125l0.0117188,0.8212891
			h-0.6796875L45.8554688,4.777832c-0.0419922-0.0356445-0.09375-0.0654297-0.1542969-0.0893555
			c-0.0615234-0.0234375-0.1308594-0.0356445-0.2089844-0.0356445c-0.2373047,0-0.4042969,0.0854492-0.5019531,0.2558594
			s-0.1455078,0.3901367-0.1455078,0.6591797V5.652832c0,0.2749023,0.0449219,0.4960938,0.1347656,0.6635742
			C45.0683594,6.4838867,45.2265625,6.5678711,45.4521484,6.5678711z"/>
		<path class="st2" d="M50.3027344,4.0708008v1.0483398h-0.640625l-0.0351563-0.4150391h-0.5292969v1.8579102l0.4433594,0.0854492
			v0.4970703H47.8125V6.6474609l0.4443359-0.0854492V4.7041016h-0.5185547l-0.03125,0.4150391h-0.6416016V4.0708008H50.3027344z"/>
		<path class="st2" d="M52.3974609,4.0708008v0.5l-0.4013672,0.0849609v1.28125l0.0166016,0.0029297l1.0087891-1.8691406h0.8369141
			h0.4443359v0.5l-0.4443359,0.0849609v1.90625l0.4443359,0.0854492v0.4970703h-1.6816406V6.6474609l0.4003906-0.0854492V5.2753906
			l-0.0166016-0.0029297l-1.0087891,1.8720703h-1.2841797V6.6474609l0.4472656-0.0854492v-1.90625l-0.4472656-0.0849609v-0.5
			h1.2841797H52.3974609z"/>
		<path class="st2" d="M54.7900391,4.5708008v-0.5h1.6621094v0.5l-0.3808594,0.0849609v0.5854492h0.2861328l0.4638672-0.6821289
			c0.1171875-0.1777344,0.2392578-0.3120117,0.3671875-0.4018555s0.2871094-0.1347656,0.4785156-0.1347656
			c0.0957031,0,0.1816406,0.0131836,0.2578125,0.0395508s0.1513672,0.0625,0.2265625,0.1079102l-0.140625,0.5737305
			c-0.0576172-0.0151367-0.0927734-0.0244141-0.1074219-0.0283203c-0.0146484-0.003418-0.0410156-0.0053711-0.0791016-0.0053711
			c-0.0566406,0-0.1181641,0.0214844-0.1816406,0.0649414c-0.0644531,0.0439453-0.1191406,0.0986328-0.1650391,0.1650391
			l-0.4013672,0.5795898l0.7197266,1.0595703l0.4208984,0.0683594v0.4970703h-1.1484375l-0.6767578-1.1503906h-0.3203125v0.5678711
			l0.3808594,0.0854492v0.4970703h-1.6621094V6.6474609l0.4472656-0.0854492v-1.90625L54.7900391,4.5708008z"/>
	</g>
	<g>
		<g id="XMLID_18_">
			<g>
				<rect x="2.9686029" y="51.8389473" class="st7" width="4.255477" height="3.4376609"/>
			</g>
			<g>
			</g>
		</g>
		<g id="XMLID_17_">
			<g>
				<rect x="2.9278891" y="44.710495" class="st7" width="4.255477" height="3.4376609"/>
			</g>
			<g>
			</g>
		</g>
		<g id="XMLID_16_">
			<g>
				<rect x="3.2783818" y="47.3808899" class="st8" width="3.6058266" height="5.1633434"/>
			</g>
			<g>
			</g>
		</g>
		<g>
			<path class="st9" d="M5.625,50.9023438v0.6972656H5.4936523v-0.2685547h-0.862793v0.2685547H4.5136719
				c0-0.0361328-0.003418-0.0751953-0.0092773-0.1171875c-0.0058594-0.0410156-0.0146484-0.0722656-0.0263672-0.09375
				c-0.0141602-0.0263672-0.0327148-0.0478516-0.0546875-0.0625c-0.0224609-0.015625-0.0522461-0.0244141-0.0898438-0.0263672
				v-0.1347656h1.1601563v-0.2626953H5.625z"/>
			<path class="st9" d="M4.980957,49.8828125c0.230957,0,0.4008789,0.0361328,0.5087891,0.1083984
				s0.1621094,0.1845703,0.1621094,0.3369141c0,0.1542969-0.0546875,0.2666016-0.1640625,0.3378906
				c-0.1098633,0.0712891-0.277832,0.1064453-0.5048828,0.1064453c-0.2290039,0-0.3979492-0.0351563-0.5068359-0.1074219
				c-0.109375-0.0722656-0.1640625-0.1845703-0.1640625-0.3369141c0-0.1542969,0.0556641-0.2675781,0.1665039-0.3388672
				S4.7568359,49.8828125,4.980957,49.8828125z M5.3735352,50.1103516c-0.046875-0.0205078-0.1015625-0.0341797-0.1645508-0.0410156
				c-0.0634766-0.0078125-0.1391602-0.0107422-0.2280273-0.0107422c-0.0874023,0-0.1635742,0.0029297-0.2280273,0.0107422
				c-0.0644531,0.0068359-0.1191406,0.0205078-0.1640625,0.0419922c-0.0444336,0.0195313-0.078125,0.046875-0.1005859,0.0820313
				s-0.0336914,0.0800781-0.0336914,0.1347656c0,0.0537109,0.0112305,0.0986328,0.0336914,0.1337891
				c0.0224609,0.0361328,0.0566406,0.0634766,0.1020508,0.0849609c0.0424805,0.0195313,0.0981445,0.0322266,0.1669922,0.0400391
				c0.0683594,0.0068359,0.1435547,0.0107422,0.2255859,0.0107422c0.0898438,0,0.1650391-0.0029297,0.2255859-0.0097656
				c0.0605469-0.0058594,0.1147461-0.0195313,0.1625977-0.0410156c0.0449219-0.0185547,0.0791016-0.0458984,0.1025391-0.0800781
				c0.0239258-0.0351563,0.0356445-0.0810547,0.0356445-0.1386719c0-0.0546875-0.0112305-0.0996094-0.0336914-0.1347656
				C5.453125,50.1572266,5.4189453,50.1298828,5.3735352,50.1103516z"/>
			<path class="st9" d="M4.980957,48.9345703c0.230957,0,0.4008789,0.0361328,0.5087891,0.1083984
				s0.1621094,0.1845703,0.1621094,0.3369141c0,0.1542969-0.0546875,0.2666016-0.1640625,0.3378906
				c-0.1098633,0.0712891-0.277832,0.1064453-0.5048828,0.1064453c-0.2290039,0-0.3979492-0.0351563-0.5068359-0.1074219
				c-0.109375-0.0722656-0.1640625-0.1845703-0.1640625-0.3369141c0-0.1542969,0.0556641-0.2675781,0.1665039-0.3388672
				S4.7568359,48.9345703,4.980957,48.9345703z M5.3735352,49.1621094c-0.046875-0.0205078-0.1015625-0.0341797-0.1645508-0.0410156
				c-0.0634766-0.0078125-0.1391602-0.0107422-0.2280273-0.0107422c-0.0874023,0-0.1635742,0.0029297-0.2280273,0.0107422
				c-0.0644531,0.0068359-0.1191406,0.0205078-0.1640625,0.0419922c-0.0444336,0.0195313-0.078125,0.046875-0.1005859,0.0820313
				s-0.0336914,0.0800781-0.0336914,0.1347656c0,0.0537109,0.0112305,0.0986328,0.0336914,0.1337891
				c0.0224609,0.0361328,0.0566406,0.0634766,0.1020508,0.0849609c0.0424805,0.0195313,0.0981445,0.0322266,0.1669922,0.0400391
				c0.0683594,0.0068359,0.1435547,0.0107422,0.2255859,0.0107422c0.0898438,0,0.1650391-0.0029297,0.2255859-0.0097656
				c0.0605469-0.0058594,0.1147461-0.0195313,0.1625977-0.0410156c0.0449219-0.0185547,0.0791016-0.0458984,0.1025391-0.0800781
				c0.0239258-0.0351563,0.0356445-0.0810547,0.0356445-0.1386719c0-0.0546875-0.0112305-0.0996094-0.0336914-0.1347656
				C5.453125,49.2089844,5.4189453,49.1816406,5.3735352,49.1621094z"/>
			<path class="st9" d="M5.625,47.984375v0.8710938H5.4443359c-0.0517578-0.0605469-0.1035156-0.1210938-0.1557617-0.1826172
				c-0.0517578-0.0605469-0.1030273-0.1171875-0.1542969-0.1689453c-0.1074219-0.1113281-0.1923828-0.1865234-0.2558594-0.2275391
				c-0.0629883-0.0410156-0.1308594-0.0615234-0.2041016-0.0615234c-0.0668945,0-0.1191406,0.0214844-0.1567383,0.0664063
				c-0.0380859,0.0439453-0.0566406,0.1054688-0.0566406,0.1845703c0,0.0517578,0.0087891,0.1083984,0.0273438,0.1699219
				c0.0185547,0.0605469,0.046875,0.1210938,0.0849609,0.1787109v0.0087891H4.3916016
				c-0.0200195-0.0410156-0.0385742-0.0957031-0.0551758-0.1640625c-0.0170898-0.0683594-0.0253906-0.1337891-0.0253906-0.1982422
				c0-0.1318359,0.0322266-0.2353516,0.0957031-0.3105469c0.0634766-0.0742188,0.1499023-0.1123047,0.2587891-0.1123047
				c0.0488281,0,0.0947266,0.0068359,0.137207,0.0185547c0.0419922,0.0126953,0.0825195,0.03125,0.1206055,0.0556641
				c0.0356445,0.0224609,0.0708008,0.0488281,0.1054688,0.0791016c0.0341797,0.0302734,0.0727539,0.0664063,0.1147461,0.109375
				c0.0605469,0.0625,0.1191406,0.1259766,0.1757813,0.1914063s0.109375,0.1269531,0.1577148,0.1845703V47.984375H5.625z"/>
		</g>
	</g>
	<g>
		<rect x="82.4370041" y="37.9133873" class="st10" width="2.1259842" height="9.2125969"/>
		<rect x="68.2448959" y="32.5984077" class="st10" width="11.3763504" height="2.1259842"/>
		<rect x="68.2448959" y="51.7322845" class="st10" width="11.3763504" height="2.1259842"/>
		<line class="st11" x1="81.4370041" y1="34.3350639" x2="81.4370041" y2="34.724411"/>
		<line class="st11" x1="81.4370041" y1="51.7322845" x2="81.4370041" y2="52.1216278"/>
		<rect x="65.4291306" y="34.724411" class="st12" width="17.0078735" height="17.0078735"/>
		<circle class="st13" cx="73.9330673" cy="43.2283478" r="6.1612325"/>
		<circle class="st13" cx="81.4370041" cy="50.7322845" r="0.5"/>
		<circle class="st13" cx="81.4370041" cy="35.724411" r="0.5"/>
	</g>
	<radialGradient id="SVGID_1_" cx="42.4961319" cy="42.5200005" r="36.8503952" gradientUnits="userSpaceOnUse">
		<stop  offset="0" style="stop-color:#CCCCCC"/>
		<stop  offset="1" style="stop-color:#313131"/>
	</radialGradient>
	<circle class="st14" cx="42.4961319" cy="42.5200005" r="36.8503952"/>
	
		<radialGradient id="SVGID_2_" cx="-4.3942246" cy="56.6743126" r="16.302494" gradientTransform="matrix(1.7387804 0 0 1.7387804 50.1367226 -56.0241814)" gradientUnits="userSpaceOnUse">
		<stop  offset="0" style="stop-color:#666566"/>
		<stop  offset="0.6904762" style="stop-color:#313131"/>
	</radialGradient>
	<circle class="st15" cx="42.4961319" cy="42.5200005" r="28.3464565"/>
	<g>
	</g>
	<g>
	</g>
	<g>
	</g>
	<g>
	</g>
	<g>
	</g>
</g>
</svg>
