<?xml version="1.0" encoding="utf-8"?>
<!-- Generator: Adobe Illustrator 22.0.1, SVG Export Plug-In . SVG Version: 6.00 Build 0)  -->
<svg version="1.1" xmlns="http://www.w3.org/2000/svg" xmlns:xlink="http://www.w3.org/1999/xlink" x="0px" y="0px"
	 viewBox="0 0 338.0881348 198.6519775" style="enable-background:new 0 0 338.0881348 198.6519775;" xml:space="preserve">
<style type="text/css">
	.st0{fill:#0D0E0F;}
	.st1{fill:none;stroke:#FFFFFF;stroke-width:0.5;stroke-miterlimit:10;}
	.st2{fill:#CDC7BC;stroke:#CDC7BC;stroke-width:0.1;stroke-miterlimit:10;}
	.st3{fill:#CDC7BC;stroke:#CDC7BC;stroke-width:0.0916014;stroke-miterlimit:10;}
	.st4{fill:#CEC7BD;}
	.st5{fill:#918C84;}
	.st6{fill:#5D69AD;}
	.st7{fill:#E39344;stroke:#666566;stroke-width:0.0232234;stroke-miterlimit:10;}
	.st8{fill:#EBAD4F;stroke:#B3B3B3;stroke-width:0.0252307;stroke-miterlimit:10;}
	.st9{fill:none;stroke:#808080;stroke-width:0.0114155;stroke-miterlimit:10;}
	.st10{fill:#D24A44;}
	.st11{fill:#EFE94A;}
</style>
<g id="Слой_1">
</g>
<g id="Слой_2">
	<path class="st0" d="M0,7.3575439l0,191.2944336h182.9871216h155.1010132V11.7720337c0,0-3.9088745-3.894043-4.3842163-4.3675537
		c-0.0308228-0.0307007-0.0472412-0.046936-0.0472412-0.046936h-33.2359009L293.0350342,0L197.758606,0l-7.3856812,7.3575439
		h-6.8731689h-66.0661621L110.0478516,0L6.3857422,0L0,7.3575439z M322.7172852,153.3884888c0-2.4852295,2.0147095-4.5,4.499939-4.5
		c2.4852905,0,4.5,2.0147705,4.5,4.5c0,2.4852905-2.0147095,4.5-4.5,4.5
		C324.7319946,157.8884888,322.7172852,155.8737793,322.7172852,153.3884888z M279.5172729,9.3885498
		c0-2.4852905,2.0147095-4.5,4.5-4.5s4.5,2.0147095,4.5,4.5c0,2.4852295-2.0147095,4.5-4.5,4.5
		S279.5172729,11.8737793,279.5172729,9.3885498z M200.3172607,9.3885498c0-2.4852905,2.0147095-4.5,4.5-4.5s4.5,2.0147095,4.5,4.5
		c0,2.4852295-2.0147095,4.5-4.5,4.5S200.3172607,11.8737793,200.3172607,9.3885498z M185.9172974,156.9885254
		c0-2.4852905,2.0147095-4.5,4.5-4.5c2.4852295,0,4.5,2.0147095,4.5,4.5s-2.0147705,4.5-4.5,4.5
		C187.9320068,161.4885254,185.9172974,159.4738159,185.9172974,156.9885254z M174.6281738,23.9061279
		c0-0.9785767,0.7932739-1.7719116,1.7718506-1.7719116c0.9786377,0,1.7719116,0.793335,1.7719116,1.7719116
		s-0.7932739,1.7718506-1.7719116,1.7718506C175.4214478,25.6779785,174.6281738,24.8847046,174.6281738,23.9061279z
		 M174.6281738,16.8890991c0-0.9785767,0.7932739-1.7719116,1.7718506-1.7719116
		c0.9786377,0,1.7719116,0.793335,1.7719116,1.7719116s-0.7932739,1.7718506-1.7719116,1.7718506
		C175.4214478,18.6609497,174.6281738,17.8676758,174.6281738,16.8890991z M167.2580566,23.9061279
		c0-0.9785767,0.7932739-1.7719116,1.7718506-1.7719116c0.9786377,0,1.7719116,0.793335,1.7719116,1.7719116
		s-0.7932739,1.7718506-1.7719116,1.7718506C168.0513306,25.6779785,167.2580566,24.8847046,167.2580566,23.9061279z
		 M167.2580566,16.8890991c0-0.9785767,0.7932739-1.7719116,1.7718506-1.7719116
		c0.9786377,0,1.7719116,0.793335,1.7719116,1.7719116s-0.7932739,1.7718506-1.7719116,1.7718506
		C168.0513306,18.6609497,167.2580566,17.8676758,167.2580566,16.8890991z M159.8875122,23.9061279
		c0-0.9785767,0.7932739-1.7719116,1.7718506-1.7719116c0.9786377,0,1.7719116,0.793335,1.7719116,1.7719116
		s-0.7932739,1.7718506-1.7719116,1.7718506C160.6807861,25.6779785,159.8875122,24.8847046,159.8875122,23.9061279z
		 M159.8875122,16.954895c0-0.9785767,0.7932739-1.7719116,1.7718506-1.7719116c0.9786377,0,1.7719116,0.793335,1.7719116,1.7719116
		s-0.7932739,1.7718506-1.7719116,1.7718506C160.6807861,18.7267456,159.8875122,17.9334717,159.8875122,16.954895z
		 M143.1708984,153.3259888c0-2.4852295,2.0147095-4.5,4.499939-4.5c2.4852905,0,4.5,2.0147705,4.5,4.5
		c0,2.4852905-2.0147095,4.5-4.5,4.5C145.1856079,157.8259888,143.1708984,155.8112793,143.1708984,153.3259888z
		 M99.9708862,9.3260498c0-2.4852905,2.0147095-4.5,4.5-4.5s4.5,2.0147095,4.5,4.5c0,2.4852295-2.0147095,4.5-4.5,4.5
		S99.9708862,11.8112793,99.9708862,9.3260498z M20.770874,9.3260498c0-2.4852905,2.0147095-4.5,4.5-4.5s4.5,2.0147095,4.5,4.5
		c0,2.4852295-2.0147095,4.5-4.5,4.5S20.770874,11.8112793,20.770874,9.3260498z M6.3709106,156.9260254
		c0-2.4852905,2.0147095-4.5,4.5-4.5c2.4852295,0,4.5,2.0147095,4.5,4.5s-2.0147705,4.5-4.5,4.5
		C8.3856201,161.4260254,6.3709106,159.4113159,6.3709106,156.9260254z"/>
	<g id="Разъем_1_">
		<path class="st1" d="M157.5149689,25.5902538c0.7589722,0.7748985,1.1845093,1.2093544,1.9434814,1.9842529h3.9733429
			l1.9077606-0.9886799l1.9185486,0.9886799h3.5437775l1.9077606-0.9886799l1.9185638,0.9886799h4.0014954
			c0.7589722-0.7748985,1.1845093-1.2093544,1.9434814-1.9842529V15.1587582
			c-0.7589722-0.7748985-1.1845093-1.2093525-1.9434814-1.984252h-4.0014954l-1.9185638,1.0349054l-1.9077759-1.0349054h-3.5437622
			l-1.9185333,1.0349054l-1.9077759-1.0349054h-3.9733429c-0.7589722,0.7748995-1.1845093,1.2093534-1.9434814,1.984252V25.5902538z
			"/>
		<path class="st2" d="M173.7203522,23.9061394c0,1.4799194,1.1997681,2.6796875,2.6796875,2.6796875
			c1.4799805,0,2.6796875-1.1997681,2.6796875-2.6796875c0-1.4799805-1.199707-2.6796875-2.6796875-2.6796875
			C174.9201202,21.2264519,173.7203522,22.4261589,173.7203522,23.9061394z M174.6281891,23.9061394
			c0-0.9785767,0.7932739-1.7719116,1.7718506-1.7719116c0.9786377,0,1.7719116,0.793335,1.7719116,1.7719116
			s-0.7932739,1.7718506-1.7719116,1.7718506C175.421463,25.67799,174.6281891,24.884716,174.6281891,23.9061394z"/>
		<path class="st2" d="M166.3502655,23.9061394c0,1.4799194,1.1997681,2.6796875,2.6796875,2.6796875
			c1.4799805,0,2.6796875-1.1997681,2.6796875-2.6796875c0-1.4799805-1.199707-2.6796875-2.6796875-2.6796875
			C167.5500336,21.2264519,166.3502655,22.4261589,166.3502655,23.9061394z M167.2581024,23.9061394
			c0-0.9785767,0.7932739-1.7719116,1.7718506-1.7719116c0.9786377,0,1.7719116,0.793335,1.7719116,1.7719116
			s-0.7932739,1.7718506-1.7719116,1.7718506C168.0513763,25.67799,167.2581024,24.884716,167.2581024,23.9061394z"/>
		<path class="st2" d="M158.9801941,23.9061394c0,1.4799194,1.1997681,2.6796875,2.6796875,2.6796875
			c1.4799805,0,2.6796875-1.1997681,2.6796875-2.6796875c0-1.4799805-1.199707-2.6796875-2.6796875-2.6796875
			C160.1799622,21.2264519,158.9801941,22.4261589,158.9801941,23.9061394z M159.888031,23.9061394
			c0-0.9785767,0.7932739-1.7719116,1.7718506-1.7719116c0.9786377,0,1.7719116,0.793335,1.7719116,1.7719116
			s-0.7932739,1.7718506-1.7719116,1.7718506C160.6813049,25.67799,159.888031,24.884716,159.888031,23.9061394z"/>
		<path class="st2" d="M166.3502655,16.8890991c0,1.4799194,1.1997681,2.6796875,2.6796875,2.6796875
			c1.4799805,0,2.6796875-1.1997681,2.6796875-2.6796875c0-1.4799805-1.199707-2.6796875-2.6796875-2.6796875
			C167.5500336,14.2094116,166.3502655,15.4091187,166.3502655,16.8890991z M167.2581024,16.8890991
			c0-0.9785767,0.7932739-1.7719116,1.7718506-1.7719116c0.9786377,0,1.7719116,0.793335,1.7719116,1.7719116
			s-0.7932739,1.7718506-1.7719116,1.7718506C168.0513763,18.6609497,167.2581024,17.8676758,167.2581024,16.8890991z"/>
		<path class="st2" d="M173.7203522,16.8890991c0,1.4799194,1.1997681,2.6796875,2.6796875,2.6796875
			c1.4799805,0,2.6796875-1.1997681,2.6796875-2.6796875c0-1.4799805-1.199707-2.6796875-2.6796875-2.6796875
			C174.9201202,14.2094116,173.7203522,15.4091187,173.7203522,16.8890991z M174.6281891,16.8890991
			c0-0.9785767,0.7932739-1.7719116,1.7718506-1.7719116c0.9786377,0,1.7719116,0.793335,1.7719116,1.7719116
			s-0.7932739,1.7718506-1.7719116,1.7718506C175.421463,18.6609497,174.6281891,17.8676758,174.6281891,16.8890991z"/>
		<path class="st3" d="M158.9818726,14.2110596v5.3560791h5.3560791v-5.3560791H158.9818726z M159.8875122,16.954895
			c0-0.9785767,0.7932739-1.7719116,1.7718506-1.7719116c0.9786377,0,1.7719116,0.793335,1.7719116,1.7719116
			s-0.7932739,1.7718506-1.7719116,1.7718506C160.6807861,18.7267456,159.8875122,17.9334717,159.8875122,16.954895z"/>
	</g>
	<g>
		<g>
			<g>
				<path class="st4" d="M13.1115217,16.526022c0,1.2273636-1.0018463,2.2224751-2.2397385,2.2224751
					s-2.2415428-0.9951115-2.2415428-2.2224751c0-1.2273617,1.0036497-2.2224731,2.2415428-2.2224731
					S13.1115217,15.2986603,13.1115217,16.526022z"/>
				<ellipse class="st5" cx="10.8708811" cy="16.526022" rx="1.5316002" ry="1.5185714"/>
			</g>
			<g>
				<path class="st4" d="M13.1115217,23.7260303c0,1.2273617-1.0018463,2.2224751-2.2397385,2.2224751
					s-2.2415428-0.9951134-2.2415428-2.2224751s1.0036497-2.2224751,2.2415428-2.2224751
					S13.1115217,22.4986687,13.1115217,23.7260303z"/>
				<ellipse class="st5" cx="10.8708811" cy="23.7260303" rx="1.5316002" ry="1.5185714"/>
			</g>
			<g>
				<path class="st4" d="M13.1115217,30.926033c0,1.2273598-1.0018463,2.2224731-2.2397385,2.2224731
					s-2.2415428-0.9951134-2.2415428-2.2224731c0-1.2273636,1.0036497-2.2224751,2.2415428-2.2224751
					S13.1115217,29.6986694,13.1115217,30.926033z"/>
				<ellipse class="st5" cx="10.8708811" cy="30.926033" rx="1.5316002" ry="1.5185714"/>
			</g>
			<g>
				<path class="st4" d="M13.1115217,38.1261101c0,1.2273636-1.0018463,2.2224731-2.2397385,2.2224731
					s-2.2415428-0.9951096-2.2415428-2.2224731s1.0036497-2.2224731,2.2415428-2.2224731
					S13.1115217,36.8987465,13.1115217,38.1261101z"/>
				<ellipse class="st5" cx="10.8708811" cy="38.1261101" rx="1.5316002" ry="1.5185714"/>
			</g>
			<g>
				<path class="st4" d="M13.1115217,45.3260307c0,1.2273636-1.0018463,2.222477-2.2397385,2.222477
					s-2.2415428-0.9951134-2.2415428-2.222477c0-1.2273598,1.0036497-2.2224731,2.2415428-2.2224731
					S13.1115217,44.098671,13.1115217,45.3260307z"/>
				<ellipse class="st5" cx="10.8708811" cy="45.3260307" rx="1.5316002" ry="1.5185714"/>
			</g>
			<g>
				<path class="st4" d="M13.1115217,52.5260315c0,1.2273636-1.0018463,2.2224731-2.2397385,2.2224731
					s-2.2415428-0.9951096-2.2415428-2.2224731c0-1.2273598,1.0036497-2.2224731,2.2415428-2.2224731
					S13.1115217,51.2986717,13.1115217,52.5260315z"/>
				<ellipse class="st5" cx="10.8708811" cy="52.5260315" rx="1.5316002" ry="1.5185714"/>
			</g>
		</g>
		<g>
			<g>
				<path class="st4" d="M13.1115217,66.9260406c0,1.2273636-1.0018463,2.2224731-2.2397385,2.2224731
					s-2.2415428-0.9951096-2.2415428-2.2224731s1.0036497-2.2224731,2.2415428-2.2224731
					S13.1115217,65.6986771,13.1115217,66.9260406z"/>
				<ellipse class="st5" cx="10.8708811" cy="66.9260406" rx="1.5316002" ry="1.5185714"/>
			</g>
			<g>
				<path class="st4" d="M13.1115217,74.1199875c0,1.2273636-1.0018463,2.2224731-2.2397385,2.2224731
					s-2.2415428-0.9951096-2.2415428-2.2224731s1.0036497-2.2224731,2.2415428-2.2224731
					S13.1115217,72.8926239,13.1115217,74.1199875z"/>
				<ellipse class="st5" cx="10.8708811" cy="74.1199875" rx="1.5316002" ry="1.5185714"/>
			</g>
			<g>
				<path class="st4" d="M13.1115217,81.3259583c0,1.227356-1.0018463,2.2224731-2.2397385,2.2224731
					s-2.2415428-0.9951172-2.2415428-2.2224731c0-1.2273636,1.0036497-2.2224808,2.2415428-2.2224808
					S13.1115217,80.0985947,13.1115217,81.3259583z"/>
				<ellipse class="st5" cx="10.8708811" cy="81.3259583" rx="1.5316002" ry="1.5185714"/>
			</g>
			<g>
				<path class="st4" d="M13.1115217,88.5260315c0,1.2273636-1.0018463,2.2224731-2.2397385,2.2224731
					s-2.2415428-0.9951096-2.2415428-2.2224731s1.0036497-2.2224731,2.2415428-2.2224731
					S13.1115217,87.2986679,13.1115217,88.5260315z"/>
				<ellipse class="st5" cx="10.8708811" cy="88.5260315" rx="1.5316002" ry="1.5185714"/>
			</g>
			<g>
				<path class="st4" d="M13.1115217,95.7260284c0,1.2273636-1.0018463,2.2224808-2.2397385,2.2224808
					s-2.2415428-0.9951172-2.2415428-2.2224808c0-1.227356,1.0036497-2.2224731,2.2415428-2.2224731
					S13.1115217,94.4986725,13.1115217,95.7260284z"/>
				<ellipse class="st5" cx="10.8708811" cy="95.7260284" rx="1.5316002" ry="1.5185714"/>
			</g>
			<g>
				<path class="st4" d="M13.1115217,102.926033c0,1.2273636-1.0018463,2.2224731-2.2397385,2.2224731
					s-2.2415428-0.9951096-2.2415428-2.2224731s1.0036497-2.2224731,2.2415428-2.2224731
					S13.1115217,101.6986694,13.1115217,102.926033z"/>
				<ellipse class="st5" cx="10.8708811" cy="102.926033" rx="1.5316002" ry="1.5185714"/>
			</g>
			<g>
				<path class="st4" d="M13.1115217,110.1200867c0,1.2273636-1.0018463,2.2224731-2.2397385,2.2224731
					s-2.2415428-0.9951096-2.2415428-2.2224731s1.0036497-2.2224731,2.2415428-2.2224731
					S13.1115217,108.8927231,13.1115217,110.1200867z"/>
				<ellipse class="st5" cx="10.8708811" cy="110.1200867" rx="1.5316002" ry="1.5185714"/>
			</g>
			<g>
				<path class="st4" d="M13.1115217,117.3260345c0,1.227356-1.0018463,2.2224731-2.2397385,2.2224731
					s-2.2415428-0.9951172-2.2415428-2.2224731c0-1.2273636,1.0036497-2.2224731,2.2415428-2.2224731
					S13.1115217,116.098671,13.1115217,117.3260345z"/>
				<ellipse class="st5" cx="10.8708811" cy="117.3260345" rx="1.5316002" ry="1.5185714"/>
			</g>
		</g>
		<g>
			<g>
				<path class="st4" d="M149.9115143,16.5260315c0,1.2273636-1.0018463,2.2224751-2.2397308,2.2224751
					c-1.2378998,0-2.2415466-0.9951115-2.2415466-2.2224751c0-1.2273617,1.0036469-2.2224741,2.2415466-2.2224741
					C148.909668,14.3035574,149.9115143,15.2986698,149.9115143,16.5260315z"/>
				<ellipse class="st5" cx="147.6708832" cy="16.5260315" rx="1.5316002" ry="1.5185714"/>
			</g>
			<g>
				<path class="st4" d="M149.9115143,23.7199783c0,1.2273636-1.0018463,2.2224751-2.2397308,2.2224751
					c-1.2378998,0-2.2415466-0.9951115-2.2415466-2.2224751c0-1.2273617,1.0036469-2.2224731,2.2415466-2.2224731
					C148.909668,21.4975052,149.9115143,22.4926167,149.9115143,23.7199783z"/>
				<ellipse class="st5" cx="147.6708832" cy="23.7199783" rx="1.5316002" ry="1.5185714"/>
			</g>
			<g>
				<path class="st4" d="M149.9115143,30.9259491c0,1.2273598-1.0018463,2.2224731-2.2397308,2.2224731
					c-1.2378998,0-2.2415466-0.9951134-2.2415466-2.2224731c0-1.2273636,1.0036469-2.2224751,2.2415466-2.2224751
					C148.909668,28.703474,149.9115143,29.6985855,149.9115143,30.9259491z"/>
				<ellipse class="st5" cx="147.6708832" cy="30.9259491" rx="1.5316002" ry="1.5185714"/>
			</g>
			<g>
				<path class="st4" d="M149.9115143,38.1260262c0,1.2273636-1.0018463,2.2224731-2.2397308,2.2224731
					c-1.2378998,0-2.2415466-0.9951096-2.2415466-2.2224731s1.0036469-2.2224731,2.2415466-2.2224731
					C148.909668,35.903553,149.9115143,36.8986626,149.9115143,38.1260262z"/>
				<ellipse class="st5" cx="147.6708832" cy="38.1260262" rx="1.5316002" ry="1.5185714"/>
			</g>
			<g>
				<path class="st4" d="M149.9115143,45.3260269c0,1.2273598-1.0018463,2.2224731-2.2397308,2.2224731
					c-1.2378998,0-2.2415466-0.9951134-2.2415466-2.2224731c0-1.2273636,1.0036469-2.222477,2.2415466-2.222477
					C148.909668,43.10355,149.9115143,44.0986633,149.9115143,45.3260269z"/>
				<ellipse class="st5" cx="147.6708832" cy="45.3260269" rx="1.5316002" ry="1.5185714"/>
			</g>
			<g>
				<path class="st4" d="M149.9115143,52.5260277c0,1.2273598-1.0018463,2.2224731-2.2397308,2.2224731
					c-1.2378998,0-2.2415466-0.9951134-2.2415466-2.2224731c0-1.2273636,1.0036469-2.222477,2.2415466-2.222477
					C148.909668,50.3035507,149.9115143,51.2986641,149.9115143,52.5260277z"/>
				<ellipse class="st5" cx="147.6708832" cy="52.5260277" rx="1.5316002" ry="1.5185714"/>
			</g>
			<g>
				<path class="st4" d="M149.9115143,59.7200813c0,1.2273636-1.0018463,2.2224731-2.2397308,2.2224731
					c-1.2378998,0-2.2415466-0.9951096-2.2415466-2.2224731s1.0036469-2.2224731,2.2415466-2.2224731
					C148.909668,57.4976082,149.9115143,58.4927177,149.9115143,59.7200813z"/>
				<ellipse class="st5" cx="147.6708832" cy="59.7200813" rx="1.5316002" ry="1.5185714"/>
			</g>
			<g>
				<path class="st4" d="M149.9115143,66.9260254c0,1.2273636-1.0018463,2.2224731-2.2397308,2.2224731
					c-1.2378998,0-2.2415466-0.9951096-2.2415466-2.2224731s1.0036469-2.2224731,2.2415466-2.2224731
					C148.909668,64.7035522,149.9115143,65.6986618,149.9115143,66.9260254z"/>
				<ellipse class="st5" cx="147.6708832" cy="66.9260254" rx="1.5316002" ry="1.5185714"/>
			</g>
		</g>
		<g>
			<g>
				<path class="st4" d="M149.9115143,78.4460297c0,1.2273636-1.0018463,2.2224731-2.2397308,2.2224731
					c-1.2378998,0-2.2415466-0.9951096-2.2415466-2.2224731c0-1.227356,1.0036469-2.2224731,2.2415466-2.2224731
					C148.909668,76.2235565,149.9115143,77.2186737,149.9115143,78.4460297z"/>
				<ellipse class="st5" cx="147.6708832" cy="78.4460297" rx="1.5316002" ry="1.5185714"/>
			</g>
			<g>
				<path class="st4" d="M149.9115143,85.6399765c0,1.2273636-1.0018463,2.2224808-2.2397308,2.2224808
					c-1.2378998,0-2.2415466-0.9951172-2.2415466-2.2224808c0-1.227356,1.0036469-2.2224731,2.2415466-2.2224731
					C148.909668,83.4175034,149.9115143,84.4126205,149.9115143,85.6399765z"/>
				<ellipse class="st5" cx="147.6708832" cy="85.6399765" rx="1.5316002" ry="1.5185714"/>
			</g>
			<g>
				<path class="st4" d="M149.9115143,92.8459473c0,1.2273636-1.0018463,2.2224731-2.2397308,2.2224731
					c-1.2378998,0-2.2415466-0.9951096-2.2415466-2.2224731s1.0036469-2.2224731,2.2415466-2.2224731
					C148.909668,90.6234741,149.9115143,91.6185837,149.9115143,92.8459473z"/>
				<ellipse class="st5" cx="147.6708832" cy="92.8459473" rx="1.5316002" ry="1.5185714"/>
			</g>
			<g>
				<path class="st4" d="M149.9115143,100.0460281c0,1.2273636-1.0018463,2.2224731-2.2397308,2.2224731
					c-1.2378998,0-2.2415466-0.9951096-2.2415466-2.2224731s1.0036469-2.2224731,2.2415466-2.2224731
					C148.909668,97.823555,149.9115143,98.8186646,149.9115143,100.0460281z"/>
				<ellipse class="st5" cx="147.6708832" cy="100.0460281" rx="1.5316002" ry="1.5185714"/>
			</g>
			<g>
				<path class="st4" d="M149.9115143,107.2460251c0,1.2273636-1.0018463,2.2224731-2.2397308,2.2224731
					c-1.2378998,0-2.2415466-0.9951096-2.2415466-2.2224731s1.0036469-2.2224731,2.2415466-2.2224731
					C148.909668,105.0235519,149.9115143,106.0186615,149.9115143,107.2460251z"/>
				<ellipse class="st5" cx="147.6708832" cy="107.2460251" rx="1.5316002" ry="1.5185714"/>
			</g>
			<g>
				<path class="st4" d="M149.9115143,114.446022c0,1.2273636-1.0018463,2.2224808-2.2397308,2.2224808
					c-1.2378998,0-2.2415466-0.9951172-2.2415466-2.2224808c0-1.227356,1.0036469-2.2224731,2.2415466-2.2224731
					C148.909668,112.2235489,149.9115143,113.2186661,149.9115143,114.446022z"/>
				<ellipse class="st5" cx="147.6708832" cy="114.446022" rx="1.5316002" ry="1.5185714"/>
			</g>
			<g>
				<path class="st4" d="M149.9115143,121.6400833c0,1.2273636-1.0018463,2.2224731-2.2397308,2.2224731
					c-1.2378998,0-2.2415466-0.9951096-2.2415466-2.2224731s1.0036469-2.2224731,2.2415466-2.2224731
					C148.909668,119.4176102,149.9115143,120.4127197,149.9115143,121.6400833z"/>
				<ellipse class="st5" cx="147.6708832" cy="121.6400833" rx="1.5316002" ry="1.5185714"/>
			</g>
			<g>
				<path class="st4" d="M149.9115143,128.8460236c0,1.2273712-1.0018463,2.2224731-2.2397308,2.2224731
					c-1.2378998,0-2.2415466-0.9951019-2.2415466-2.2224731c0-1.2273636,1.0036469-2.2224731,2.2415466-2.2224731
					C148.909668,126.6235504,149.9115143,127.61866,149.9115143,128.8460236z"/>
				<ellipse class="st5" cx="147.6708832" cy="128.8460236" rx="1.5316002" ry="1.5185714"/>
			</g>
			<g>
				<path class="st4" d="M149.9115143,136.0317688c0,1.2273712-1.0018463,2.2224731-2.2397308,2.2224731
					c-1.2378998,0-2.2415466-0.9951019-2.2415466-2.2224731c0-1.227356,1.0036469-2.2224731,2.2415466-2.2224731
					C148.909668,133.8092957,149.9115143,134.8044128,149.9115143,136.0317688z"/>
				<ellipse class="st5" cx="147.6708832" cy="136.0317688" rx="1.5316002" ry="1.5185714"/>
			</g>
			<g>
				<path class="st4" d="M149.9115143,143.2460327c0,1.227356-1.0018463,2.2224731-2.2397308,2.2224731
					c-1.2378998,0-2.2415466-0.9951172-2.2415466-2.2224731s1.0036469-2.2224731,2.2415466-2.2224731
					C148.909668,141.0235596,149.9115143,142.0186768,149.9115143,143.2460327z"/>
				<ellipse class="st5" cx="147.6708832" cy="143.2460327" rx="1.5316002" ry="1.5185714"/>
			</g>
		</g>
	</g>
	<g>
		<g>
			<g>
				<path class="st4" d="M192.6579285,16.526022c0,1.2273636-1.0018463,2.2224751-2.2397308,2.2224751
					c-1.2378998,0-2.2415466-0.9951115-2.2415466-2.2224751c0-1.2273617,1.0036469-2.2224731,2.2415466-2.2224731
					C191.6560822,14.3035488,192.6579285,15.2986603,192.6579285,16.526022z"/>
				<ellipse class="st5" cx="190.4172821" cy="16.526022" rx="1.5316002" ry="1.5185714"/>
			</g>
			<g>
				<path class="st4" d="M192.6579285,23.7260303c0,1.2273617-1.0018463,2.2224751-2.2397308,2.2224751
					c-1.2378998,0-2.2415466-0.9951134-2.2415466-2.2224751s1.0036469-2.2224751,2.2415466-2.2224751
					C191.6560822,21.5035553,192.6579285,22.4986687,192.6579285,23.7260303z"/>
				<ellipse class="st5" cx="190.4172821" cy="23.7260303" rx="1.5316002" ry="1.5185714"/>
			</g>
			<g>
				<path class="st4" d="M192.6579285,30.926033c0,1.2273598-1.0018463,2.2224731-2.2397308,2.2224731
					c-1.2378998,0-2.2415466-0.9951134-2.2415466-2.2224731c0-1.2273636,1.0036469-2.2224751,2.2415466-2.2224751
					C191.6560822,28.703558,192.6579285,29.6986694,192.6579285,30.926033z"/>
				<ellipse class="st5" cx="190.4172821" cy="30.926033" rx="1.5316002" ry="1.5185714"/>
			</g>
			<g>
				<path class="st4" d="M192.6579285,38.1261101c0,1.2273636-1.0018463,2.2224731-2.2397308,2.2224731
					c-1.2378998,0-2.2415466-0.9951096-2.2415466-2.2224731s1.0036469-2.2224731,2.2415466-2.2224731
					C191.6560822,35.9036369,192.6579285,36.8987465,192.6579285,38.1261101z"/>
				<ellipse class="st5" cx="190.4172821" cy="38.1261101" rx="1.5316002" ry="1.5185714"/>
			</g>
			<g>
				<path class="st4" d="M192.6579285,45.3260307c0,1.2273636-1.0018463,2.222477-2.2397308,2.222477
					c-1.2378998,0-2.2415466-0.9951134-2.2415466-2.222477c0-1.2273598,1.0036469-2.2224731,2.2415466-2.2224731
					C191.6560822,43.1035576,192.6579285,44.098671,192.6579285,45.3260307z"/>
				<ellipse class="st5" cx="190.4172821" cy="45.3260307" rx="1.5316002" ry="1.5185714"/>
			</g>
			<g>
				<path class="st4" d="M192.6579285,52.5260315c0,1.2273636-1.0018463,2.2224731-2.2397308,2.2224731
					c-1.2378998,0-2.2415466-0.9951096-2.2415466-2.2224731c0-1.2273598,1.0036469-2.2224731,2.2415466-2.2224731
					C191.6560822,50.3035583,192.6579285,51.2986717,192.6579285,52.5260315z"/>
				<ellipse class="st5" cx="190.4172821" cy="52.5260315" rx="1.5316002" ry="1.5185714"/>
			</g>
		</g>
		<g>
			<g>
				<path class="st4" d="M192.6579285,66.9260406c0,1.2273636-1.0018463,2.2224731-2.2397308,2.2224731
					c-1.2378998,0-2.2415466-0.9951096-2.2415466-2.2224731s1.0036469-2.2224731,2.2415466-2.2224731
					C191.6560822,64.7035675,192.6579285,65.6986771,192.6579285,66.9260406z"/>
				<ellipse class="st5" cx="190.4172821" cy="66.9260406" rx="1.5316002" ry="1.5185714"/>
			</g>
			<g>
				<path class="st4" d="M192.6579285,74.1199875c0,1.2273636-1.0018463,2.2224731-2.2397308,2.2224731
					c-1.2378998,0-2.2415466-0.9951096-2.2415466-2.2224731s1.0036469-2.2224731,2.2415466-2.2224731
					C191.6560822,71.8975143,192.6579285,72.8926239,192.6579285,74.1199875z"/>
				<ellipse class="st5" cx="190.4172821" cy="74.1199875" rx="1.5316002" ry="1.5185714"/>
			</g>
			<g>
				<path class="st4" d="M192.6579285,81.3259583c0,1.227356-1.0018463,2.2224731-2.2397308,2.2224731
					c-1.2378998,0-2.2415466-0.9951172-2.2415466-2.2224731c0-1.2273636,1.0036469-2.2224808,2.2415466-2.2224808
					C191.6560822,79.1034775,192.6579285,80.0985947,192.6579285,81.3259583z"/>
				<ellipse class="st5" cx="190.4172821" cy="81.3259583" rx="1.5316002" ry="1.5185714"/>
			</g>
			<g>
				<path class="st4" d="M192.6579285,88.5260315c0,1.2273636-1.0018463,2.2224731-2.2397308,2.2224731
					c-1.2378998,0-2.2415466-0.9951096-2.2415466-2.2224731s1.0036469-2.2224731,2.2415466-2.2224731
					C191.6560822,86.3035583,192.6579285,87.2986679,192.6579285,88.5260315z"/>
				<ellipse class="st5" cx="190.4172821" cy="88.5260315" rx="1.5316002" ry="1.5185714"/>
			</g>
			<g>
				<path class="st4" d="M192.6579285,95.7260284c0,1.2273636-1.0018463,2.2224808-2.2397308,2.2224808
					c-1.2378998,0-2.2415466-0.9951172-2.2415466-2.2224808c0-1.227356,1.0036469-2.2224731,2.2415466-2.2224731
					C191.6560822,93.5035553,192.6579285,94.4986725,192.6579285,95.7260284z"/>
				<ellipse class="st5" cx="190.4172821" cy="95.7260284" rx="1.5316002" ry="1.5185714"/>
			</g>
			<g>
				<path class="st4" d="M192.6579285,102.926033c0,1.2273636-1.0018463,2.2224731-2.2397308,2.2224731
					c-1.2378998,0-2.2415466-0.9951096-2.2415466-2.2224731s1.0036469-2.2224731,2.2415466-2.2224731
					C191.6560822,100.7035599,192.6579285,101.6986694,192.6579285,102.926033z"/>
				<ellipse class="st5" cx="190.4172821" cy="102.926033" rx="1.5316002" ry="1.5185714"/>
			</g>
			<g>
				<path class="st4" d="M192.6579285,110.1200867c0,1.2273636-1.0018463,2.2224731-2.2397308,2.2224731
					c-1.2378998,0-2.2415466-0.9951096-2.2415466-2.2224731s1.0036469-2.2224731,2.2415466-2.2224731
					C191.6560822,107.8976135,192.6579285,108.8927231,192.6579285,110.1200867z"/>
				<ellipse class="st5" cx="190.4172821" cy="110.1200867" rx="1.5316002" ry="1.5185714"/>
			</g>
			<g>
				<path class="st4" d="M192.6579285,117.3260345c0,1.227356-1.0018463,2.2224731-2.2397308,2.2224731
					c-1.2378998,0-2.2415466-0.9951172-2.2415466-2.2224731c0-1.2273636,1.0036469-2.2224731,2.2415466-2.2224731
					C191.6560822,115.1035614,192.6579285,116.098671,192.6579285,117.3260345z"/>
				<ellipse class="st5" cx="190.4172821" cy="117.3260345" rx="1.5316002" ry="1.5185714"/>
			</g>
		</g>
		<g>
			<g>
				<path class="st4" d="M329.4579163,16.5260315c0,1.2273636-1.0018311,2.2224751-2.2397156,2.2224751
					c-1.237915,0-2.2415466-0.9951115-2.2415466-2.2224751c0-1.2273617,1.0036316-2.2224741,2.2415466-2.2224741
					C328.4560852,14.3035574,329.4579163,15.2986698,329.4579163,16.5260315z"/>
				<ellipse class="st5" cx="327.2172852" cy="16.5260315" rx="1.5316002" ry="1.5185714"/>
			</g>
			<g>
				<path class="st4" d="M329.4579163,23.7199783c0,1.2273636-1.0018311,2.2224751-2.2397156,2.2224751
					c-1.237915,0-2.2415466-0.9951115-2.2415466-2.2224751c0-1.2273617,1.0036316-2.2224731,2.2415466-2.2224731
					C328.4560852,21.4975052,329.4579163,22.4926167,329.4579163,23.7199783z"/>
				<ellipse class="st5" cx="327.2172852" cy="23.7199783" rx="1.5316002" ry="1.5185714"/>
			</g>
			<g>
				<path class="st4" d="M329.4579163,30.9259491c0,1.2273598-1.0018311,2.2224731-2.2397156,2.2224731
					c-1.237915,0-2.2415466-0.9951134-2.2415466-2.2224731c0-1.2273636,1.0036316-2.2224751,2.2415466-2.2224751
					C328.4560852,28.703474,329.4579163,29.6985855,329.4579163,30.9259491z"/>
				<ellipse class="st5" cx="327.2172852" cy="30.9259491" rx="1.5316002" ry="1.5185714"/>
			</g>
			<g>
				<path class="st4" d="M329.4579163,38.1260262c0,1.2273636-1.0018311,2.2224731-2.2397156,2.2224731
					c-1.237915,0-2.2415466-0.9951096-2.2415466-2.2224731s1.0036316-2.2224731,2.2415466-2.2224731
					C328.4560852,35.903553,329.4579163,36.8986626,329.4579163,38.1260262z"/>
				<ellipse class="st5" cx="327.2172852" cy="38.1260262" rx="1.5316002" ry="1.5185714"/>
			</g>
			<g>
				<path class="st4" d="M329.4579163,45.3260269c0,1.2273598-1.0018311,2.2224731-2.2397156,2.2224731
					c-1.237915,0-2.2415466-0.9951134-2.2415466-2.2224731c0-1.2273636,1.0036316-2.222477,2.2415466-2.222477
					C328.4560852,43.10355,329.4579163,44.0986633,329.4579163,45.3260269z"/>
				<ellipse class="st5" cx="327.2172852" cy="45.3260269" rx="1.5316002" ry="1.5185714"/>
			</g>
			<g>
				<path class="st4" d="M329.4579163,52.5260277c0,1.2273598-1.0018311,2.2224731-2.2397156,2.2224731
					c-1.237915,0-2.2415466-0.9951134-2.2415466-2.2224731c0-1.2273636,1.0036316-2.222477,2.2415466-2.222477
					C328.4560852,50.3035507,329.4579163,51.2986641,329.4579163,52.5260277z"/>
				<ellipse class="st5" cx="327.2172852" cy="52.5260277" rx="1.5316002" ry="1.5185714"/>
			</g>
			<g>
				<path class="st4" d="M329.4579163,59.7200813c0,1.2273636-1.0018311,2.2224731-2.2397156,2.2224731
					c-1.237915,0-2.2415466-0.9951096-2.2415466-2.2224731s1.0036316-2.2224731,2.2415466-2.2224731
					C328.4560852,57.4976082,329.4579163,58.4927177,329.4579163,59.7200813z"/>
				<ellipse class="st5" cx="327.2172852" cy="59.7200813" rx="1.5316002" ry="1.5185714"/>
			</g>
			<g>
				<path class="st4" d="M329.4579163,66.9260254c0,1.2273636-1.0018311,2.2224731-2.2397156,2.2224731
					c-1.237915,0-2.2415466-0.9951096-2.2415466-2.2224731s1.0036316-2.2224731,2.2415466-2.2224731
					C328.4560852,64.7035522,329.4579163,65.6986618,329.4579163,66.9260254z"/>
				<ellipse class="st5" cx="327.2172852" cy="66.9260254" rx="1.5316002" ry="1.5185714"/>
			</g>
		</g>
		<g>
			<g>
				<path class="st4" d="M329.4579163,78.4460297c0,1.2273636-1.0018311,2.2224731-2.2397156,2.2224731
					c-1.237915,0-2.2415466-0.9951096-2.2415466-2.2224731c0-1.227356,1.0036316-2.2224731,2.2415466-2.2224731
					C328.4560852,76.2235565,329.4579163,77.2186737,329.4579163,78.4460297z"/>
				<ellipse class="st5" cx="327.2172852" cy="78.4460297" rx="1.5316002" ry="1.5185714"/>
			</g>
			<g>
				<path class="st4" d="M329.4579163,85.6399765c0,1.2273636-1.0018311,2.2224808-2.2397156,2.2224808
					c-1.237915,0-2.2415466-0.9951172-2.2415466-2.2224808c0-1.227356,1.0036316-2.2224731,2.2415466-2.2224731
					C328.4560852,83.4175034,329.4579163,84.4126205,329.4579163,85.6399765z"/>
				<ellipse class="st5" cx="327.2172852" cy="85.6399765" rx="1.5316002" ry="1.5185714"/>
			</g>
			<g>
				<path class="st4" d="M329.4579163,92.8459473c0,1.2273636-1.0018311,2.2224731-2.2397156,2.2224731
					c-1.237915,0-2.2415466-0.9951096-2.2415466-2.2224731s1.0036316-2.2224731,2.2415466-2.2224731
					C328.4560852,90.6234741,329.4579163,91.6185837,329.4579163,92.8459473z"/>
				<ellipse class="st5" cx="327.2172852" cy="92.8459473" rx="1.5316002" ry="1.5185714"/>
			</g>
			<g>
				<path class="st4" d="M329.4579163,100.0460281c0,1.2273636-1.0018311,2.2224731-2.2397156,2.2224731
					c-1.237915,0-2.2415466-0.9951096-2.2415466-2.2224731s1.0036316-2.2224731,2.2415466-2.2224731
					C328.4560852,97.823555,329.4579163,98.8186646,329.4579163,100.0460281z"/>
				<ellipse class="st5" cx="327.2172852" cy="100.0460281" rx="1.5316002" ry="1.5185714"/>
			</g>
			<g>
				<path class="st4" d="M329.4579163,107.2460251c0,1.2273636-1.0018311,2.2224731-2.2397156,2.2224731
					c-1.237915,0-2.2415466-0.9951096-2.2415466-2.2224731s1.0036316-2.2224731,2.2415466-2.2224731
					C328.4560852,105.0235519,329.4579163,106.0186615,329.4579163,107.2460251z"/>
				<ellipse class="st5" cx="327.2172852" cy="107.2460251" rx="1.5316002" ry="1.5185714"/>
			</g>
			<g>
				<path class="st4" d="M329.4579163,114.4460297c0,1.227356-1.0018311,2.2224731-2.2397156,2.2224731
					c-1.237915,0-2.2415466-0.9951172-2.2415466-2.2224731c0-1.2273636,1.0036316-2.2224808,2.2415466-2.2224808
					C328.4560852,112.2235489,329.4579163,113.2186661,329.4579163,114.4460297z"/>
				<ellipse class="st5" cx="327.2172852" cy="114.4460297" rx="1.5316002" ry="1.5185714"/>
			</g>
			<g>
				<path class="st4" d="M329.4579163,121.6400833c0,1.2273636-1.0018311,2.2224731-2.2397156,2.2224731
					c-1.237915,0-2.2415466-0.9951096-2.2415466-2.2224731s1.0036316-2.2224731,2.2415466-2.2224731
					C328.4560852,119.4176102,329.4579163,120.4127197,329.4579163,121.6400833z"/>
				<ellipse class="st5" cx="327.2172852" cy="121.6400833" rx="1.5316002" ry="1.5185714"/>
			</g>
			<g>
				<path class="st4" d="M329.4579163,128.8460236c0,1.2273712-1.0018311,2.2224731-2.2397156,2.2224731
					c-1.237915,0-2.2415466-0.9951019-2.2415466-2.2224731c0-1.2273636,1.0036316-2.2224731,2.2415466-2.2224731
					C328.4560852,126.6235504,329.4579163,127.61866,329.4579163,128.8460236z"/>
				<ellipse class="st5" cx="327.2172852" cy="128.8460236" rx="1.5316002" ry="1.5185714"/>
			</g>
			<g>
				<path class="st4" d="M329.4579163,136.0317688c0,1.2273712-1.0018311,2.2224731-2.2397156,2.2224731
					c-1.237915,0-2.2415466-0.9951019-2.2415466-2.2224731c0-1.227356,1.0036316-2.2224731,2.2415466-2.2224731
					C328.4560852,133.8092957,329.4579163,134.8044128,329.4579163,136.0317688z"/>
				<ellipse class="st5" cx="327.2172852" cy="136.0317688" rx="1.5316002" ry="1.5185714"/>
			</g>
			<g>
				<path class="st4" d="M329.4579163,143.2460327c0,1.227356-1.0018311,2.2224731-2.2397156,2.2224731
					c-1.237915,0-2.2415466-0.9951172-2.2415466-2.2224731s1.0036316-2.2224731,2.2415466-2.2224731
					C328.4560852,141.0235596,329.4579163,142.0186768,329.4579163,143.2460327z"/>
				<ellipse class="st5" cx="327.2172852" cy="143.2460327" rx="1.5316002" ry="1.5185714"/>
			</g>
		</g>
	</g>
	<g>
		<g>
			<path class="st4" d="M75.5761337,7.0854092c1.227356,0,2.2224731,1.0018463,2.2224731,2.2397385
				s-0.9951172,2.2415428-2.2224731,2.2415428c-1.2273636,0-2.2224808-1.0036497-2.2224808-2.2415428
				S74.3487701,7.0854092,75.5761337,7.0854092z"/>
			<ellipse class="st5" cx="75.5761337" cy="9.3260498" rx="1.5185714" ry="1.5316002"/>
		</g>
		<g>
			<path class="st4" d="M82.7416229,7.0854092c1.2273636,0,2.2224731,1.0018463,2.2224731,2.2397385
				s-0.9951096,2.2415428-2.2224731,2.2415428s-2.2224731-1.0036497-2.2224731-2.2415428S81.5142593,7.0854092,82.7416229,7.0854092
				z"/>
			<ellipse class="st5" cx="82.7416229" cy="9.3260498" rx="1.5185714" ry="1.5316002"/>
		</g>
		<g>
			<path class="st4" d="M89.9109192,7.0854092c1.2273636,0,2.2224808,1.0018463,2.2224808,2.2397385
				s-0.9951172,2.2415428-2.2224808,2.2415428c-1.227356,0-2.2224731-1.0036497-2.2224731-2.2415428
				S88.6835632,7.0854092,89.9109192,7.0854092z"/>
			<ellipse class="st5" cx="89.9109192" cy="9.3260498" rx="1.5185714" ry="1.5316002"/>
		</g>
		<g>
			<path class="st4" d="M75.5761337,14.250514c1.227356,0,2.2224731,1.0018463,2.2224731,2.2397394
				s-0.9951172,2.2415409-2.2224731,2.2415409c-1.2273636,0-2.2224808-1.0036488-2.2224808-2.2415409
				S74.3487701,14.250514,75.5761337,14.250514z"/>
			<ellipse class="st5" cx="75.5761337" cy="16.4911537" rx="1.5185714" ry="1.5316002"/>
		</g>
		<g>
			<path class="st4" d="M82.7416229,14.250514c1.2273636,0,2.2224731,1.0018463,2.2224731,2.2397394
				s-0.9951096,2.2415409-2.2224731,2.2415409s-2.2224731-1.0036488-2.2224731-2.2415409S81.5142593,14.250514,82.7416229,14.250514
				z"/>
			<ellipse class="st5" cx="82.7416229" cy="16.4911537" rx="1.5185714" ry="1.5316002"/>
		</g>
		<g>
			<path class="st4" d="M89.9109192,14.250514c1.2273636,0,2.2224808,1.0018463,2.2224808,2.2397394
				s-0.9951172,2.2415409-2.2224808,2.2415409c-1.227356,0-2.2224731-1.0036488-2.2224731-2.2415409
				S88.6835632,14.250514,89.9109192,14.250514z"/>
			<ellipse class="st5" cx="89.9109192" cy="16.4911537" rx="1.5185714" ry="1.5316002"/>
		</g>
	</g>
	<g>
		<g>
			<path class="st4" d="M255.1225433,7.1447659c1.2273712,0,2.2224579,1.0018463,2.2224579,2.2397385
				s-0.9950867,2.2415428-2.2224579,2.2415428s-2.2224731-1.0036497-2.2224731-2.2415428
				S253.8951721,7.1447659,255.1225433,7.1447659z"/>
			<ellipse class="st5" cx="255.1225433" cy="9.3854065" rx="1.5185714" ry="1.5316002"/>
		</g>
		<g>
			<path class="st4" d="M262.2880249,7.1447659c1.227356,0,2.2224731,1.0018463,2.2224731,2.2397385
				s-0.9951172,2.2415428-2.2224731,2.2415428s-2.2224731-1.0036497-2.2224731-2.2415428
				S261.0606689,7.1447659,262.2880249,7.1447659z"/>
			<ellipse class="st5" cx="262.2880249" cy="9.3854065" rx="1.5185714" ry="1.5316002"/>
		</g>
		<g>
			<path class="st4" d="M269.4573364,7.1447659c1.227356,0,2.2224731,1.0018463,2.2224731,2.2397385
				s-0.9951172,2.2415428-2.2224731,2.2415428s-2.2224731-1.0036497-2.2224731-2.2415428
				S268.2299805,7.1447659,269.4573364,7.1447659z"/>
			<ellipse class="st5" cx="269.4573364" cy="9.3854065" rx="1.5185714" ry="1.5316002"/>
		</g>
		<g>
			<path class="st4" d="M255.1225433,14.3098707c1.2273712,0,2.2224579,1.0018463,2.2224579,2.2397394
				s-0.9950867,2.2415409-2.2224579,2.2415409s-2.2224731-1.0036488-2.2224731-2.2415409
				S253.8951721,14.3098707,255.1225433,14.3098707z"/>
			<ellipse class="st5" cx="255.1225433" cy="16.5505104" rx="1.5185714" ry="1.5316002"/>
		</g>
		<g>
			<path class="st4" d="M262.2880249,14.3098707c1.227356,0,2.2224731,1.0018463,2.2224731,2.2397394
				s-0.9951172,2.2415409-2.2224731,2.2415409s-2.2224731-1.0036488-2.2224731-2.2415409
				S261.0606689,14.3098707,262.2880249,14.3098707z"/>
			<ellipse class="st5" cx="262.2880249" cy="16.5505104" rx="1.5185714" ry="1.5316002"/>
		</g>
		<g>
			<path class="st4" d="M269.4573364,14.3098707c1.227356,0,2.2224731,1.0018463,2.2224731,2.2397394
				s-0.9951172,2.2415409-2.2224731,2.2415409s-2.2224731-1.0036488-2.2224731-2.2415409
				S268.2299805,14.3098707,269.4573364,14.3098707z"/>
			<ellipse class="st5" cx="269.4573364" cy="16.5505104" rx="1.5185714" ry="1.5316002"/>
		</g>
	</g>
	<g id="Колодка_прав_2_">
		<g>
			<g>
				<g>
					<g>
						<polygon class="st6" points="230.9092255,96.3561401 229.6377411,95.0817261 229.6387177,90.5499878 230.9131317,89.2780151 
							235.4453583,89.27948 236.7168427,90.5534058 236.7158661,95.085144 235.4453583,96.3561401 						"/>
						<path class="st0" d="M235.4407806,89.2843628l1.2697144,1.2697296v4.527153l-1.2697144,1.2697296H230.91362
							l-1.2697144-1.2697296v-4.527153l1.2697144-1.2697296H235.4407806 M235.444931,89.2743607h-4.5354614
							c-0.4981079,0.4981384-0.7774048,0.7774429-1.2755737,1.275589v4.5354309
							c0.4981689,0.4981537,0.7774658,0.7774429,1.2755737,1.275589h4.5354614
							c0.4981689-0.4981461,0.7774658-0.7774353,1.2755737-1.275589v-4.5354309
							C236.2223969,90.0518036,235.9431,89.7724991,235.444931,89.2743607L235.444931,89.2743607z"/>
					</g>
				</g>
				
					<rect x="232.2933655" y="91.9105835" transform="matrix(-1.836970e-16 1 -1 -1.836970e-16 325.994873 -140.3595428)" class="st7" width="1.7676752" height="1.8141732"/>
				
					<rect x="232.6938629" y="92.3216019" transform="matrix(-1.836970e-16 1 -1 -1.836970e-16 325.994873 -140.3595428)" class="st8" width="0.9666973" height="0.992126"/>
				<line class="st9" x1="234.0842896" y1="91.9338303" x2="233.6732635" y2="92.3343201"/>
				<line class="st9" x1="233.6732635" y1="93.3010178" x2="234.0842896" y2="93.7015076"/>
				<line class="st9" x1="232.6811371" y1="93.3010178" x2="232.2701111" y2="93.7015076"/>
				<line class="st9" x1="232.6811371" y1="92.3343201" x2="232.2701111" y2="91.9338303"/>
			</g>
		</g>
		<g>
			<g>
				<g>
					<g>
						<polygon class="st6" points="230.910202,89.1842651 229.6377411,87.9103394 229.6387177,83.3781128 230.9141083,82.1061401 
							235.4453583,82.107605 236.7168427,83.3815308 236.7158661,87.9137573 235.4434052,89.1842651 						"/>
						<path class="st0" d="M235.4411469,82.112709l1.2697144,1.269722v4.5271606l-1.2697144,1.2697296h-4.5270996
							l-0.6348877-0.6348724l-0.6348877-0.6348572V83.382431l0.6348877-0.6348572l0.6348877-0.6348648H235.4411469
							 M235.4452972,82.1027145h-4.5354004c-0.4981689,0.4981384-0.7774658,0.7774353-1.2756348,1.2755737v4.5354462
							c0.4981689,0.4981461,0.7774658,0.7774353,1.2756348,1.275589h4.5354004
							c0.4981689-0.4981537,0.7774658-0.7774429,1.2755737-1.275589v-4.5354462
							C236.2227631,82.8801498,235.9434662,82.600853,235.4452972,82.1027145L235.4452972,82.1027145z"/>
					</g>
				</g>
				
					<rect x="232.2937469" y="84.7389297" transform="matrix(-1.836970e-16 1 -1 -1.836970e-16 318.8235779 -147.5315704)" class="st7" width="1.7676752" height="1.8141732"/>
				
					<rect x="232.6942291" y="85.1499481" transform="matrix(-1.836970e-16 1 -1 -1.836970e-16 318.8235779 -147.5315704)" class="st8" width="0.9666973" height="0.992126"/>
				<line class="st9" x1="234.084671" y1="84.7621765" x2="233.673645" y2="85.1626663"/>
				<line class="st9" x1="233.673645" y1="86.129364" x2="234.084671" y2="86.5298538"/>
				<line class="st9" x1="232.6815186" y1="86.129364" x2="232.2704926" y2="86.5298538"/>
				<line class="st9" x1="232.6815186" y1="85.1626663" x2="232.2704926" y2="84.7621765"/>
			</g>
		</g>
		<g>
			<g>
				<g>
					<g>
						<polygon class="st6" points="230.9092255,110.6989136 229.6377411,109.4244995 229.6387177,104.8932495 
							230.9131317,103.6212769 235.4453583,103.6227417 236.7168427,104.8966675 236.7158661,109.4284058 235.4434052,110.6989136 
													"/>
						<path class="st0" d="M235.4407806,103.6276703l1.2697144,1.2697296v4.527153l-1.2697144,1.2697296H230.91362
							l-1.2697144-1.2697296v-4.527153l1.2697144-1.2697296H235.4407806 M235.444931,103.6176682h-4.5354614
							c-0.4981079,0.4981384-0.7774048,0.7774429-1.2755737,1.275589v4.5354309
							c0.4981689,0.4981537,0.7774658,0.7774429,1.2755737,1.275589h4.5354614
							c0.4981689-0.4981461,0.7774658-0.7774353,1.2755737-1.275589v-4.5354309
							C236.2223969,104.3951111,235.9431,104.1158066,235.444931,103.6176682L235.444931,103.6176682z"/>
					</g>
				</g>
				
					<rect x="232.2933655" y="106.253891" transform="matrix(-1.836970e-16 1 -1 -1.836970e-16 340.3381653 -126.0162277)" class="st7" width="1.7676752" height="1.8141732"/>
				
					<rect x="232.6938629" y="106.6649094" transform="matrix(-1.836970e-16 1 -1 -1.836970e-16 340.3381653 -126.0162277)" class="st8" width="0.9666973" height="0.992126"/>
				<line class="st9" x1="234.0842896" y1="106.2771378" x2="233.6732635" y2="106.6776276"/>
				<line class="st9" x1="233.6732635" y1="107.6443253" x2="234.0842896" y2="108.0448151"/>
				<line class="st9" x1="232.6811371" y1="107.6443253" x2="232.2701111" y2="108.0448151"/>
				<line class="st9" x1="232.6811371" y1="106.6776276" x2="232.2701111" y2="106.2771378"/>
			</g>
		</g>
		<g>
			<g>
				<g>
					<g>
						<polygon class="st6" points="230.910202,103.5275269 229.6377411,102.2536011 229.6387177,97.7213745 230.9141083,96.4494019 
							235.4453583,96.4508667 236.7168427,97.7247925 236.7158661,102.257019 235.4434052,103.5275269 						"/>
						<path class="st0" d="M235.4411469,96.4560165l1.2697144,1.269722v4.5271606l-1.2697144,1.2697296h-4.5270996
							l-0.6348877-0.6348724l-0.6348877-0.6348572v-4.5271606l0.6348877-0.6348572l0.6348877-0.6348648H235.4411469
							 M235.4452972,96.446022h-4.5354004c-0.4981689,0.4981384-0.7774658,0.7774353-1.2756348,1.2755737v4.5354462
							c0.4981689,0.4981461,0.7774658,0.7774353,1.2756348,1.275589h4.5354004
							c0.4981689-0.4981537,0.7774658-0.7774429,1.2755737-1.275589v-4.5354462
							C236.2227631,97.2234573,235.9434662,96.9441605,235.4452972,96.446022L235.4452972,96.446022z"/>
					</g>
				</g>
				
					<rect x="232.2937469" y="99.0822372" transform="matrix(-1.836970e-16 1 -1 -1.836970e-16 333.1669006 -133.1882629)" class="st7" width="1.7676752" height="1.8141732"/>
				
					<rect x="232.6942291" y="99.4932556" transform="matrix(-1.836970e-16 1 -1 -1.836970e-16 333.1669006 -133.1882629)" class="st8" width="0.9666973" height="0.992126"/>
				<line class="st9" x1="234.084671" y1="99.105484" x2="233.673645" y2="99.5059738"/>
				<line class="st9" x1="233.673645" y1="100.4726715" x2="234.084671" y2="100.8731613"/>
				<line class="st9" x1="232.6815186" y1="100.4726715" x2="232.2704926" y2="100.8731613"/>
				<line class="st9" x1="232.6815186" y1="99.5059738" x2="232.2704926" y2="99.105484"/>
			</g>
		</g>
		<g>
			<g>
				<g>
					<g>
						<polygon class="st6" points="230.9092255,125.0426636 229.6377411,123.7682495 229.6387177,119.2369995 
							230.9043427,117.9723511 235.4453583,117.9655151 236.7168427,119.2409058 236.7158661,123.7721558 235.4434052,125.0426636 
													"/>
						<path class="st0" d="M235.4407806,117.9709778l1.2697144,1.2697296v4.5271606l-1.2697144,1.2697144H230.91362
							l-1.2697144-1.2697144v-4.5271606l1.2697144-1.2697296H235.4407806 M235.444931,117.9609756h-4.5354614
							c-0.4981079,0.4981384-0.7774048,0.7774429-1.2755737,1.275589v4.5354385
							c0.4981689,0.4981384,0.7774658,0.7774353,1.2755737,1.275589h4.5354614
							c0.4981689-0.4981537,0.7774658-0.7774506,1.2755737-1.275589v-4.5354385
							C236.2223969,118.7384186,235.9431,118.4591141,235.444931,117.9609756L235.444931,117.9609756z"/>
					</g>
				</g>
				
					<rect x="232.2933655" y="120.5971985" transform="matrix(-1.836970e-16 1 -1 -1.836970e-16 354.681488 -111.6729202)" class="st7" width="1.7676752" height="1.8141732"/>
				
					<rect x="232.6938629" y="121.0082169" transform="matrix(-1.836970e-16 1 -1 -1.836970e-16 354.681488 -111.6729202)" class="st8" width="0.9666973" height="0.992126"/>
				<line class="st9" x1="234.0842896" y1="120.6204453" x2="233.6732635" y2="121.0209351"/>
				<line class="st9" x1="233.6732635" y1="121.9876328" x2="234.0842896" y2="122.3881226"/>
				<line class="st9" x1="232.6811371" y1="121.9876328" x2="232.2701111" y2="122.3881226"/>
				<line class="st9" x1="232.6811371" y1="121.0209351" x2="232.2701111" y2="120.6204453"/>
			</g>
		</g>
		<g>
			<g>
				<g>
					<g>
						<polygon class="st6" points="230.910202,117.8707886 229.6377411,116.5963745 229.6387177,112.0651245 
							230.9141083,110.7936401 235.4453583,110.7946167 236.7168427,112.0690308 236.7158661,116.6002808 235.4434052,117.8707886 
													"/>
						<path class="st0" d="M235.4411469,110.799324l1.2697144,1.269722v4.5271606l-1.2697144,1.2697296h-4.5270996
							l-0.6348877-0.6348724l-0.6348877-0.6348572v-4.5271606l0.6348877-0.6348572l0.6348877-0.6348648H235.4411469
							 M235.4452972,110.7893295h-4.5354004c-0.4981689,0.4981384-0.7774658,0.7774353-1.2756348,1.2755737v4.5354462
							c0.4981689,0.4981461,0.7774658,0.7774353,1.2756348,1.275589h4.5354004
							c0.4981689-0.4981537,0.7774658-0.7774429,1.2755737-1.275589v-4.5354462
							C236.2227631,111.5667648,235.9434662,111.287468,235.4452972,110.7893295L235.4452972,110.7893295z"/>
					</g>
				</g>
				
					<rect x="232.2937469" y="113.4255447" transform="matrix(-1.836970e-16 1 -1 -1.836970e-16 347.5101929 -118.8449478)" class="st7" width="1.7676752" height="1.8141732"/>
				
					<rect x="232.6942291" y="113.8365631" transform="matrix(-1.836970e-16 1 -1 -1.836970e-16 347.5101929 -118.8449478)" class="st8" width="0.9666973" height="0.992126"/>
				<line class="st9" x1="234.084671" y1="113.4487915" x2="233.673645" y2="113.8492813"/>
				<line class="st9" x1="233.673645" y1="114.815979" x2="234.084671" y2="115.2164688"/>
				<line class="st9" x1="232.6815186" y1="114.815979" x2="232.2704926" y2="115.2164688"/>
				<line class="st9" x1="232.6815186" y1="113.8492813" x2="232.2704926" y2="113.4487915"/>
			</g>
		</g>
		<g>
			<g>
				<g>
					<g>
						<polygon class="st6" points="230.9092255,139.3864136 229.6523895,138.1266479 229.6387177,133.5797729 
							230.9131317,132.3082886 235.4453583,132.3092651 236.7168427,133.5836792 236.7158661,138.1149292 235.4434052,139.3864136 
													"/>
						<path class="st0" d="M235.4407806,132.31427l1.2697144,1.2697296v4.5271759l-1.2697144,1.2697144H230.91362
							l-1.2697144-1.2697144v-4.5271759l1.2697144-1.2697296H235.4407806 M235.444931,132.3042755h-4.5354614
							c-0.4981079,0.4981537-0.7774048,0.7774506-1.2755737,1.275589v4.5354462
							c0.4981689,0.4981384,0.7774658,0.7774353,1.2755737,1.275589h4.5354614
							c0.4981689-0.4981537,0.7774658-0.7774506,1.2755737-1.275589v-4.5354462
							C236.2223969,133.0817261,235.9431,132.8024292,235.444931,132.3042755L235.444931,132.3042755z"/>
					</g>
				</g>
				
					<rect x="232.2933655" y="134.940506" transform="matrix(-1.836970e-16 1 -1 -1.836970e-16 369.0247803 -97.3296127)" class="st7" width="1.7676752" height="1.8141732"/>
				
					<rect x="232.6938629" y="135.351532" transform="matrix(-1.836970e-16 1 -1 -1.836970e-16 369.0247803 -97.3296127)" class="st8" width="0.9666973" height="0.992126"/>
				<line class="st9" x1="234.0842896" y1="134.9637451" x2="233.6732635" y2="135.3642426"/>
				<line class="st9" x1="233.6732635" y1="136.3309326" x2="234.0842896" y2="136.7314301"/>
				<line class="st9" x1="232.6811371" y1="136.3309326" x2="232.2701111" y2="136.7314301"/>
				<line class="st9" x1="232.6811371" y1="135.3642426" x2="232.2701111" y2="134.9637451"/>
			</g>
		</g>
		<g>
			<g>
				<g>
					<g>
						<polygon class="st6" points="230.910202,132.2145386 229.6377411,130.9401245 229.6387177,126.4078979 
							230.9141083,125.1364136 235.4453583,125.1373901 236.7168427,126.4118042 236.7158661,130.9440308 235.4434052,132.2145386 
													"/>
						<path class="st0" d="M235.4411469,125.1426392l0.1461182,0.1460876l1.1235962,1.1236267v4.5271606l-1.2697144,1.2697144
							h-4.5270996l-0.8019409-0.8018951l-0.4678345-0.4678192v-4.5271606l0.6348877-0.6348572l0.6348877-0.6348572H235.4411469
							 M235.4452972,125.1326294h-4.5354004c-0.4981689,0.4981537-0.7774658,0.7774353-1.2756348,1.275589v4.5354309
							c0.4981689,0.4981537,0.7774658,0.7774506,1.2756348,1.275589h4.5354004
							c0.4981689-0.4981384,0.7774658-0.7774353,1.2755737-1.275589v-4.5354309
							C236.2227631,125.9100647,235.9434662,125.6307831,235.4452972,125.1326294L235.4452972,125.1326294z"/>
					</g>
				</g>
				
					<rect x="232.2937469" y="127.7688446" transform="matrix(-1.836970e-16 1 -1 -1.836970e-16 361.8535156 -104.5016403)" class="st7" width="1.7676752" height="1.8141732"/>
				
					<rect x="232.6942291" y="128.1798706" transform="matrix(-1.836970e-16 1 -1 -1.836970e-16 361.8535156 -104.5016403)" class="st8" width="0.9666973" height="0.992126"/>
				<line class="st9" x1="234.084671" y1="127.792099" x2="233.673645" y2="128.1925812"/>
				<line class="st9" x1="233.673645" y1="129.1592865" x2="234.084671" y2="129.5597687"/>
				<line class="st9" x1="232.6815186" y1="129.1592865" x2="232.2704926" y2="129.5597687"/>
				<line class="st9" x1="232.6815186" y1="128.1925812" x2="232.2704926" y2="127.792099"/>
			</g>
		</g>
		<g>
			<g>
				<g>
					<g>
						<polygon class="st6" points="230.9092255,153.729187 229.6377411,152.4547729 229.6387177,147.9235229 
							230.9131317,146.651062 235.4453583,146.6520386 236.7168427,147.9274292 236.7158661,152.4586792 235.4434052,153.729187 
													"/>
						<path class="st0" d="M235.4407806,146.6575928l1.2697144,1.2697144v4.5271759l-1.2697144,1.2697296H230.91362
							l-1.2697144-1.2697296v-4.5271759l1.2697144-1.2697144H235.4407806 M235.444931,146.647583h-4.5354614
							c-0.4981079,0.4981537-0.7774048,0.7774506-1.2755737,1.275589v4.5354462
							c0.4981689,0.4981384,0.7774658,0.7774353,1.2755737,1.275589h4.5354614
							c0.4981689-0.4981537,0.7774658-0.7774506,1.2755737-1.275589v-4.5354462
							C236.2223969,147.4250336,235.9431,147.1457367,235.444931,146.647583L235.444931,146.647583z"/>
					</g>
				</g>
				
					<rect x="232.2933655" y="149.2838135" transform="matrix(-1.836970e-16 1 -1 -1.836970e-16 383.368103 -82.9863129)" class="st7" width="1.7676752" height="1.8141732"/>
				
					<rect x="232.6938629" y="149.6948395" transform="matrix(-1.836970e-16 1 -1 -1.836970e-16 383.368103 -82.9863129)" class="st8" width="0.9666973" height="0.992126"/>
				<line class="st9" x1="234.0842896" y1="149.3070526" x2="233.6732635" y2="149.70755"/>
				<line class="st9" x1="233.6732635" y1="150.6742401" x2="234.0842896" y2="151.0747375"/>
				<line class="st9" x1="232.6811371" y1="150.6742401" x2="232.2701111" y2="151.0747375"/>
				<line class="st9" x1="232.6811371" y1="149.70755" x2="232.2701111" y2="149.3070526"/>
			</g>
		</g>
		<g>
			<g>
				<g>
					<g>
						<polygon class="st6" points="230.910202,146.557312 229.6377411,145.2828979 229.6387177,140.7516479 
							230.9141083,139.4801636 235.4453583,139.4811401 236.7168427,140.7555542 236.7158661,145.2868042 235.4434052,146.557312 
													"/>
						<path class="st0" d="M235.4411469,139.4859467l0.1461182,0.1460876l1.1235962,1.1236267v4.5271606l-1.2697144,1.2697144
							h-4.5270996l-0.8019409-0.8018951l-0.4678345-0.4678192v-4.5271606l0.6348877-0.6348572l0.6348877-0.6348572H235.4411469
							 M235.4452972,139.4759369h-4.5354004c-0.4981689,0.4981537-0.7774658,0.7774353-1.2756348,1.275589v4.5354309
							c0.4981689,0.4981537,0.7774658,0.7774506,1.2756348,1.275589h4.5354004
							c0.4981689-0.4981384,0.7774658-0.7774353,1.2755737-1.275589v-4.5354309
							C236.2227631,140.2533722,235.9434662,139.9740906,235.4452972,139.4759369L235.4452972,139.4759369z"/>
					</g>
				</g>
				
					<rect x="232.2937469" y="142.1121521" transform="matrix(-1.836970e-16 1 -1 -1.836970e-16 376.1968079 -90.1583405)" class="st7" width="1.7676752" height="1.8141732"/>
				
					<rect x="232.6942291" y="142.5231781" transform="matrix(-1.836970e-16 1 -1 -1.836970e-16 376.1968079 -90.1583405)" class="st8" width="0.9666973" height="0.992126"/>
				<line class="st9" x1="234.084671" y1="142.1354065" x2="233.673645" y2="142.5358887"/>
				<line class="st9" x1="233.673645" y1="143.502594" x2="234.084671" y2="143.9030762"/>
				<line class="st9" x1="232.6815186" y1="143.502594" x2="232.2704926" y2="143.9030762"/>
				<line class="st9" x1="232.6815186" y1="142.5358887" x2="232.2704926" y2="142.1354065"/>
			</g>
		</g>
		<g>
			<g>
				<g>
					<g>
						<polygon class="st6" points="230.910202,34.4362183 229.6377411,33.1618042 229.6387177,28.6300659 230.9141083,27.357605 
							235.4453583,27.3590698 236.7168427,28.6334839 236.7158661,33.1652222 235.4434052,34.4362183 						"/>
						<path class="st0" d="M235.4411469,27.364357l1.2697144,1.2697296v4.5271606l-1.2697144,1.2697296h-4.5270996
							l-0.6348877-0.6348686l-0.6348877-0.634861v-4.5271606l0.6348877-0.634861l0.6348877-0.6348686H235.4411469
							 M235.4452972,27.3543587h-4.5354004c-0.4981689,0.4981499-0.7774658,0.7774391-1.2756348,1.275589v4.5354385
							c0.4981689,0.4981499,0.7774658,0.7774391,1.2756348,1.275589h4.5354004
							c0.4981689-0.4981499,0.7774658-0.7774391,1.2755737-1.275589v-4.5354385
							C236.2227631,28.1317978,235.9434662,27.8525085,235.4452972,27.3543587L235.4452972,27.3543587z"/>
					</g>
				</g>
				
					<rect x="232.2937469" y="29.9905815" transform="matrix(-1.836970e-16 1 -1 -1.836970e-16 264.0752563 -202.2799072)" class="st7" width="1.7676752" height="1.8141732"/>
				
					<rect x="232.6942291" y="30.4016037" transform="matrix(-1.836970e-16 1 -1 -1.836970e-16 264.0752563 -202.2799072)" class="st8" width="0.9666973" height="0.992126"/>
				<line class="st9" x1="234.084671" y1="30.0138302" x2="233.673645" y2="30.4143181"/>
				<line class="st9" x1="233.673645" y1="31.3810158" x2="234.084671" y2="31.7815056"/>
				<line class="st9" x1="232.6815186" y1="31.3810158" x2="232.2704926" y2="31.7815056"/>
				<line class="st9" x1="232.6815186" y1="30.4143181" x2="232.2704926" y2="30.0138302"/>
			</g>
		</g>
		<g>
			<g>
				<g>
					<g>
						<polygon class="st6" points="230.910202,27.2643433 229.6387177,25.9904175 229.6396942,21.4581909 230.9141083,20.1862183 
							235.4453583,20.1876831 236.7178192,21.4616089 236.7168427,25.9938354 235.4434052,27.2643433 						"/>
						<path class="st0" d="M235.4415131,20.1927032l1.2697144,1.2697296v4.5271606l-1.2697144,1.2697296h-4.5270996
							l-0.6348877-0.6348686l-0.6348877-0.634861v-4.5271606l0.6348877-0.6348591l0.6348877-0.6348705H235.4415131
							 M235.4456635,20.182703h-4.5354004c-0.4981689,0.4981499-0.7774658,0.777441-1.2756348,1.2755909v4.5354385
							c0.4981689,0.4981499,0.7774658,0.7774391,1.2756348,1.275589h4.5354004
							c0.4981689-0.4981499,0.7774658-0.7774391,1.2755737-1.275589v-4.5354385
							C236.2231293,20.960144,235.9438324,20.6808529,235.4456635,20.182703L235.4456635,20.182703z"/>
					</g>
				</g>
				
					<rect x="232.2941132" y="22.8189278" transform="matrix(-1.836970e-16 1 -1 -1.836970e-16 256.9039612 -209.4519348)" class="st7" width="1.7676752" height="1.8141732"/>
				
					<rect x="232.6946106" y="23.22995" transform="matrix(-1.836970e-16 1 -1 -1.836970e-16 256.9039612 -209.4519348)" class="st8" width="0.9666973" height="0.992126"/>
				<line class="st9" x1="234.0850372" y1="22.8421764" x2="233.6740112" y2="23.2426643"/>
				<line class="st9" x1="233.6740112" y1="24.209362" x2="234.0850372" y2="24.6098518"/>
				<line class="st9" x1="232.6818848" y1="24.209362" x2="232.2708588" y2="24.6098518"/>
				<line class="st9" x1="232.6818848" y1="23.2426643" x2="232.2708588" y2="22.8421764"/>
			</g>
		</g>
		<g>
			<g>
				<g>
					<g>
						<polygon class="st6" points="230.910202,48.77948 229.6377411,47.5050659 229.6387177,42.9733276 230.9141083,41.7008667 
							235.4453583,41.7023315 236.7168427,42.9767456 236.7158661,47.5084839 235.4434052,48.77948 						"/>
						<path class="st0" d="M235.4411469,41.7076645l1.2697144,1.2697296v4.5271606l-1.2697144,1.2697296h-4.5270996
							l-0.6348877-0.6348686l-0.6348877-0.634861v-4.5271606l0.6348877-0.634861l0.6348877-0.6348686H235.4411469
							 M235.4452972,41.6976662h-4.5354004c-0.4981689,0.4981499-0.7774658,0.7774391-1.2756348,1.275589v4.5354385
							c0.4981689,0.4981499,0.7774658,0.7774391,1.2756348,1.275589h4.5354004
							c0.4981689-0.4981499,0.7774658-0.7774391,1.2755737-1.275589v-4.5354385
							C236.2227631,42.4751053,235.9434662,42.195816,235.4452972,41.6976662L235.4452972,41.6976662z"/>
					</g>
				</g>
				
					<rect x="232.2937469" y="44.333889" transform="matrix(-1.836970e-16 1 -1 -1.836970e-16 278.4185486 -187.9365997)" class="st7" width="1.7676752" height="1.8141732"/>
				
					<rect x="232.6942291" y="44.7449112" transform="matrix(-1.836970e-16 1 -1 -1.836970e-16 278.4185486 -187.9365997)" class="st8" width="0.9666973" height="0.992126"/>
				<line class="st9" x1="234.084671" y1="44.3571358" x2="233.673645" y2="44.7576256"/>
				<line class="st9" x1="233.673645" y1="45.7243233" x2="234.084671" y2="46.1248131"/>
				<line class="st9" x1="232.6815186" y1="45.7243233" x2="232.2704926" y2="46.1248131"/>
				<line class="st9" x1="232.6815186" y1="44.7576256" x2="232.2704926" y2="44.3571358"/>
			</g>
		</g>
		<g>
			<g>
				<g>
					<g>
						<polygon class="st6" points="230.910202,41.607605 229.6387177,40.3336792 229.6396942,35.8014526 230.9141083,34.52948 
							235.4453583,34.5309448 236.7178192,35.8048706 236.7168427,40.3370972 235.4434052,41.607605 						"/>
						<path class="st0" d="M235.4415131,34.5360107l1.2697144,1.2697296v4.5271606l-1.2697144,1.2697296h-4.5270996
							l-0.6348877-0.6348686l-0.6348877-0.634861v-4.5271606l0.6348877-0.634861l0.6348877-0.6348686H235.4415131
							 M235.4456635,34.5260124h-4.5354004c-0.4981689,0.4981499-0.7774658,0.7774391-1.2756348,1.275589v4.5354385
							c0.4981689,0.4981499,0.7774658,0.7774391,1.2756348,1.275589h4.5354004
							c0.4981689-0.4981499,0.7774658-0.7774391,1.2755737-1.275589v-4.5354385
							C236.2231293,35.3034515,235.9438324,35.0241623,235.4456635,34.5260124L235.4456635,34.5260124z"/>
					</g>
				</g>
				
					<rect x="232.2941132" y="37.1622353" transform="matrix(-1.836970e-16 1 -1 -1.836970e-16 271.2472839 -195.1086273)" class="st7" width="1.7676752" height="1.8141732"/>
				
					<rect x="232.6946106" y="37.5732574" transform="matrix(-1.836970e-16 1 -1 -1.836970e-16 271.2472839 -195.1086273)" class="st8" width="0.9666973" height="0.992126"/>
				<line class="st9" x1="234.0850372" y1="37.185482" x2="233.6740112" y2="37.5859718"/>
				<line class="st9" x1="233.6740112" y1="38.5526695" x2="234.0850372" y2="38.9531593"/>
				<line class="st9" x1="232.6818848" y1="38.5526695" x2="232.2708588" y2="38.9531593"/>
				<line class="st9" x1="232.6818848" y1="37.5859718" x2="232.2708588" y2="37.185482"/>
			</g>
		</g>
		<g>
			<g>
				<g>
					<g>
						<polygon class="st6" points="230.910202,63.1227417 229.6377411,61.8488159 229.6387177,57.3165894 230.9141083,56.0446167 
							235.4453583,56.0460815 236.7168427,57.3200073 236.7158661,61.8522339 235.4434052,63.1227417 						"/>
						<path class="st0" d="M235.4411469,56.0509796l1.2697144,1.269722v4.5271606l-1.2697144,1.269722h-4.5270996
							l-0.6348877-0.6348648l-0.6348877-0.6348572v-4.5271606l0.4748535-0.4748383l0.7949219-0.7948837H235.4411469
							 M235.4452972,56.0409851h-4.5354004c-0.4981689,0.4981384-0.7774658,0.7774277-1.2756348,1.2755737v4.5354462
							c0.4981689,0.4981384,0.7774658,0.7774353,1.2756348,1.2755737h4.5354004
							c0.4981689-0.4981384,0.7774658-0.7774353,1.2755737-1.2755737v-4.5354462
							C236.2227631,56.8184128,235.9434662,56.5391235,235.4452972,56.0409851L235.4452972,56.0409851z"/>
					</g>
				</g>
				
					<rect x="232.2937469" y="58.6771965" transform="matrix(-1.836970e-16 1 -1 -1.836970e-16 292.7618713 -173.5932922)" class="st7" width="1.7676752" height="1.8141732"/>
				
					<rect x="232.6942291" y="59.0882187" transform="matrix(-1.836970e-16 1 -1 -1.836970e-16 292.7618713 -173.5932922)" class="st8" width="0.9666973" height="0.992126"/>
				<line class="st9" x1="234.084671" y1="58.7004433" x2="233.673645" y2="59.1009331"/>
				<line class="st9" x1="233.673645" y1="60.0676308" x2="234.084671" y2="60.4681206"/>
				<line class="st9" x1="232.6815186" y1="60.0676308" x2="232.2704926" y2="60.4681206"/>
				<line class="st9" x1="232.6815186" y1="59.1009331" x2="232.2704926" y2="58.7004433"/>
			</g>
		</g>
		<g>
			<g>
				<g>
					<g>
						<polygon class="st6" points="230.910202,55.9508667 229.6387177,54.6769409 229.6396942,50.1447144 230.9141083,48.8727417 
							235.4453583,48.8742065 236.7178192,50.1481323 236.7168427,54.6803589 235.4434052,55.9508667 						"/>
						<path class="st0" d="M235.4415131,48.8793182l1.2697144,1.2697296v4.5271606l-1.2697144,1.269722h-4.5270996
							l-0.7949219-0.7948837l-0.4748535-0.4748383v-4.5271606l0.6348877-0.634861l0.6348877-0.6348686H235.4415131
							 M235.4456635,48.8693199h-4.5354004c-0.4981689,0.4981499-0.7774658,0.7774391-1.2756348,1.275589v4.5354385
							c0.4981689,0.4981499,0.7774658,0.7774391,1.2756348,1.2755775h4.5354004
							c0.4981689-0.4981384,0.7774658-0.7774277,1.2755737-1.2755775v-4.5354385
							C236.2231293,49.646759,235.9438324,49.3674698,235.4456635,48.8693199L235.4456635,48.8693199z"/>
					</g>
				</g>
				
					<rect x="232.2941132" y="51.5055428" transform="matrix(-1.836970e-16 1 -1 -1.836970e-16 285.5905762 -180.7653198)" class="st7" width="1.7676752" height="1.8141732"/>
				
					<rect x="232.6946106" y="51.9165649" transform="matrix(-1.836970e-16 1 -1 -1.836970e-16 285.5905762 -180.7653198)" class="st8" width="0.9666973" height="0.992126"/>
				<line class="st9" x1="234.0850372" y1="51.5287895" x2="233.6740112" y2="51.9292793"/>
				<line class="st9" x1="233.6740112" y1="52.895977" x2="234.0850372" y2="53.2964668"/>
				<line class="st9" x1="232.6818848" y1="52.895977" x2="232.2708588" y2="53.2964668"/>
				<line class="st9" x1="232.6818848" y1="51.9292793" x2="232.2708588" y2="51.5287895"/>
			</g>
		</g>
		<g>
			<g>
				<g>
					<g>
						<polygon class="st6" points="230.910202,77.4660034 229.6377411,76.1920776 229.6387177,71.6598511 230.9141083,70.3878784 
							235.4453583,70.3893433 236.7168427,71.663269 236.7158661,76.1954956 235.4434052,77.4660034 						"/>
						<path class="st0" d="M235.4411469,70.3942871l1.2697144,1.269722v4.5271606l-1.2697144,1.269722h-4.5270996
							l-0.6348877-0.6348648l-0.6348877-0.6348572v-4.5271606l0.4748535-0.4748383l0.7949219-0.7948837H235.4411469
							 M235.4452972,70.3842926h-4.5354004c-0.4981689,0.4981384-0.7774658,0.7774277-1.2756348,1.2755737v4.5354462
							c0.4981689,0.4981384,0.7774658,0.7774353,1.2756348,1.2755737h4.5354004
							c0.4981689-0.4981384,0.7774658-0.7774353,1.2755737-1.2755737v-4.5354462
							C236.2227631,71.1617203,235.9434662,70.882431,235.4452972,70.3842926L235.4452972,70.3842926z"/>
					</g>
				</g>
				
					<rect x="232.2937469" y="73.0205002" transform="matrix(-1.836970e-16 1 -1 -1.836970e-16 307.1051636 -159.2499847)" class="st7" width="1.7676752" height="1.8141732"/>
				
					<rect x="232.6942291" y="73.4315262" transform="matrix(-1.836970e-16 1 -1 -1.836970e-16 307.1051636 -159.2499847)" class="st8" width="0.9666973" height="0.992126"/>
				<line class="st9" x1="234.084671" y1="73.0437546" x2="233.673645" y2="73.4442368"/>
				<line class="st9" x1="233.673645" y1="74.4109344" x2="234.084671" y2="74.8114243"/>
				<line class="st9" x1="232.6815186" y1="74.4109344" x2="232.2704926" y2="74.8114243"/>
				<line class="st9" x1="232.6815186" y1="73.4442368" x2="232.2704926" y2="73.0437546"/>
			</g>
		</g>
		<g>
			<g>
				<g>
					<g>
						<polygon class="st6" points="230.910202,70.2941284 229.6387177,69.0202026 229.6396942,64.4879761 230.9141083,63.2160034 
							235.4453583,63.2174683 236.7178192,64.491394 236.7168427,69.0236206 235.4434052,70.2941284 						"/>
						<path class="st0" d="M235.4415131,63.2226334l1.2697144,1.269722v4.5271606l-1.2697144,1.269722h-4.5270996
							l-0.6348877-0.6348648l-0.6348877-0.6348572v-4.5271606l0.4748535-0.4748383l0.7949219-0.7948837H235.4415131
							 M235.4456635,63.2126389h-4.5354004c-0.4981689,0.4981384-0.7774658,0.7774277-1.2756348,1.2755737v4.5354462
							c0.4981689,0.4981384,0.7774658,0.7774353,1.2756348,1.2755737h4.5354004
							c0.4981689-0.4981384,0.7774658-0.7774353,1.2755737-1.2755737v-4.5354462
							C236.2231293,63.9900665,235.9438324,63.7107773,235.4456635,63.2126389L235.4456635,63.2126389z"/>
					</g>
				</g>
				
					<rect x="232.2941132" y="65.8488464" transform="matrix(-1.836970e-16 1 -1 -1.836970e-16 299.9338989 -166.4220123)" class="st7" width="1.7676752" height="1.8141732"/>
				
					<rect x="232.6946106" y="66.2598724" transform="matrix(-1.836970e-16 1 -1 -1.836970e-16 299.9338989 -166.4220123)" class="st8" width="0.9666973" height="0.992126"/>
				<line class="st9" x1="234.0850372" y1="65.8721008" x2="233.6740112" y2="66.272583"/>
				<line class="st9" x1="233.6740112" y1="67.2392807" x2="234.0850372" y2="67.6397705"/>
				<line class="st9" x1="232.6818848" y1="67.2392807" x2="232.2708588" y2="67.6397705"/>
				<line class="st9" x1="232.6818848" y1="66.272583" x2="232.2708588" y2="65.8721008"/>
			</g>
		</g>
		<g>
			<g>
				<g>
					<g>
						<polygon class="st10" points="94.1094131,84.8361206 92.8379288,83.5617065 92.8389053,79.0299683 94.1133194,77.7575073 
							98.645546,77.7589722 99.9170303,79.0333862 99.9160538,83.5651245 98.6435928,84.8361206 						"/>
						<path class="st0" d="M98.6411514,77.7643051l0.6348877,0.6348724l0.6348267,0.6348572v4.527153l-0.6077881,0.6078033
							l-0.6619263,0.6619263h-4.5271606l-1.2697144-1.2697296v-4.527153l0.1083984-0.1083755l1.1613159-1.1613541H98.6411514
							 M98.6453018,77.7543106h-4.5354614c-0.4981079,0.4981461-0.7774048,0.7774353-1.2755737,1.275589v4.5354309
							c0.4981689,0.4981461,0.7774658,0.7774506,1.2755737,1.275589h4.5354614
							c0.4981689-0.4981384,0.7774048-0.7774429,1.2755737-1.275589v-4.5354309
							C99.4227066,78.5317459,99.1434708,78.2524567,98.6453018,77.7543106L98.6453018,77.7543106z"/>
					</g>
				</g>
				
					<rect x="95.4937439" y="80.3905258" transform="matrix(-1.836970e-16 1 -1 -1.836970e-16 177.6751862 -15.0799656)" class="st7" width="1.7676752" height="1.8141732"/>
				
					<rect x="95.8942337" y="80.8015518" transform="matrix(-1.836970e-16 1 -1 -1.836970e-16 177.6751862 -15.0799656)" class="st8" width="0.9666973" height="0.992126"/>
				<line class="st9" x1="97.284668" y1="80.4137726" x2="96.873642" y2="80.8142624"/>
				<line class="st9" x1="96.873642" y1="81.7809601" x2="97.284668" y2="82.1814499"/>
				<line class="st9" x1="95.8815155" y1="81.7809601" x2="95.4704895" y2="82.1814499"/>
				<line class="st9" x1="95.8815155" y1="80.8142624" x2="95.4704895" y2="80.4137726"/>
			</g>
		</g>
		<g>
			<g>
				<g>
					<g>
						<polygon class="st10" points="94.1103897,77.6642456 92.8389053,76.3903198 92.8398819,71.8580933 94.114296,70.5861206 
							98.645546,70.5875854 99.9170303,71.8615112 99.9160538,76.3937378 98.6435928,77.6642456 						"/>
						<path class="st0" d="M98.6415176,70.5926514l1.2697144,1.2697296v4.5271606l-1.2697144,1.269722H94.114357
							l-1.2697144-1.269722V71.862381l0.1083984-0.1083832l1.1613159-1.1613464H98.6415176 M98.645668,70.5826492h-4.5354614
							c-0.4981079,0.4981537-0.7774048,0.7774429-1.2755737,1.275589v4.5354462
							c0.4981689,0.4981384,0.7774658,0.7774353,1.2755737,1.2755737h4.5354614
							c0.4981689-0.4981384,0.7774658-0.7774353,1.2755737-1.2755737v-4.5354462
							C99.4231339,71.3600922,99.143837,71.0808029,98.645668,70.5826492L98.645668,70.5826492z"/>
					</g>
				</g>
				
					<rect x="95.4941177" y="73.2188721" transform="matrix(-1.836970e-16 1 -1 -1.836970e-16 170.5039063 -22.2519932)" class="st7" width="1.7676752" height="1.8141732"/>
				
					<rect x="95.8946075" y="73.6298981" transform="matrix(-1.836970e-16 1 -1 -1.836970e-16 170.5039063 -22.2519932)" class="st8" width="0.9666973" height="0.992126"/>
				<line class="st9" x1="97.2850418" y1="73.2421188" x2="96.8740158" y2="73.6426086"/>
				<line class="st9" x1="96.8740158" y1="74.6093063" x2="97.2850418" y2="75.0097961"/>
				<line class="st9" x1="95.8818893" y1="74.6093063" x2="95.4708633" y2="75.0097961"/>
				<line class="st9" x1="95.8818893" y1="73.6426086" x2="95.4708633" y2="73.2421188"/>
			</g>
		</g>
		<g>
			<g>
				<g>
					<g>
						<polygon class="st10" points="94.1094131,99.1793823 92.8379288,97.9054565 92.8389053,93.37323 94.1133194,92.1012573 
							98.645546,92.1027222 99.9170303,93.3766479 99.9160538,97.9088745 98.6435928,99.1793823 						"/>
						<path class="st0" d="M98.6411514,92.1076126l0.6348877,0.6348724l0.6348267,0.6348572v4.527153l-0.6077881,0.6078033
							l-0.6619263,0.6619263h-4.5271606l-1.2697144-1.2697296v-4.527153l0.1083984-0.1083755l1.1613159-1.1613541H98.6411514
							 M98.6453018,92.0976181h-4.5354614c-0.4981079,0.4981461-0.7774048,0.7774353-1.2755737,1.275589v4.5354309
							c0.4981689,0.4981461,0.7774658,0.7774506,1.2755737,1.275589h4.5354614
							c0.4981689-0.4981384,0.7774048-0.7774429,1.2755737-1.275589v-4.5354309
							C99.4227066,92.8750534,99.1434708,92.5957642,98.6453018,92.0976181L98.6453018,92.0976181z"/>
					</g>
				</g>
				
					<rect x="95.4937439" y="94.7338333" transform="matrix(-1.836970e-16 1 -1 -1.836970e-16 192.0184937 -0.7366583)" class="st7" width="1.7676752" height="1.8141732"/>
				
					<rect x="95.8942337" y="95.1448593" transform="matrix(-1.836970e-16 1 -1 -1.836970e-16 192.0184937 -0.7366583)" class="st8" width="0.9666973" height="0.992126"/>
				<line class="st9" x1="97.284668" y1="94.7570801" x2="96.873642" y2="95.1575699"/>
				<line class="st9" x1="96.873642" y1="96.1242676" x2="97.284668" y2="96.5247574"/>
				<line class="st9" x1="95.8815155" y1="96.1242676" x2="95.4704895" y2="96.5247574"/>
				<line class="st9" x1="95.8815155" y1="95.1575699" x2="95.4704895" y2="94.7570801"/>
			</g>
		</g>
		<g>
			<g>
				<g>
					<g>
						<polygon class="st10" points="94.1103897,92.0075073 92.8389053,90.7335815 92.8398819,86.201355 94.114296,84.9293823 
							98.645546,84.9308472 99.9170303,86.2047729 99.9160538,90.7369995 98.6435928,92.0075073 						"/>
						<path class="st0" d="M98.6415176,84.9359589l1.2697144,1.2697296v4.5271606l-1.2697144,1.269722H94.114357
							l-1.2697144-1.269722v-4.5271606l0.1083984-0.1083832l1.1613159-1.1613464H98.6415176 M98.645668,84.9259567h-4.5354614
							c-0.4981079,0.4981537-0.7774048,0.7774429-1.2755737,1.275589v4.5354462
							c0.4981689,0.4981384,0.7774658,0.7774353,1.2755737,1.2755737h4.5354614
							c0.4981689-0.4981384,0.7774658-0.7774353,1.2755737-1.2755737v-4.5354462
							C99.4231339,85.7033997,99.143837,85.4241104,98.645668,84.9259567L98.645668,84.9259567z"/>
					</g>
				</g>
				
					<rect x="95.4941177" y="87.5621796" transform="matrix(-1.836970e-16 1 -1 -1.836970e-16 184.8472137 -7.9086857)" class="st7" width="1.7676752" height="1.8141732"/>
				
					<rect x="95.8946075" y="87.9732056" transform="matrix(-1.836970e-16 1 -1 -1.836970e-16 184.8472137 -7.9086857)" class="st8" width="0.9666973" height="0.992126"/>
				<line class="st9" x1="97.2850418" y1="87.5854263" x2="96.8740158" y2="87.9859161"/>
				<line class="st9" x1="96.8740158" y1="88.9526138" x2="97.2850418" y2="89.3531036"/>
				<line class="st9" x1="95.8818893" y1="88.9526138" x2="95.4708633" y2="89.3531036"/>
				<line class="st9" x1="95.8818893" y1="87.9859161" x2="95.4708633" y2="87.5854263"/>
			</g>
		</g>
		<g>
			<g>
				<g>
					<g>
						<polygon class="st10" points="94.1094131,113.5231323 92.8525772,112.2633667 92.8389053,107.7164917 94.1133194,106.4450073 
							98.645546,106.4459839 99.9170303,107.7203979 99.9160538,112.2516479 98.6435928,113.5231323 						"/>
						<path class="st0" d="M98.6411514,106.4509201l0.6348877,0.6348724l0.6348267,0.6348572v4.527153l-0.6077881,0.6078033
							l-0.6619263,0.6619263h-4.5271606l-1.2697144-1.2697296v-4.527153l0.1083984-0.1083755l1.1613159-1.1613541H98.6411514
							 M98.6453018,106.4409256h-4.5354614c-0.4981079,0.4981461-0.7774048,0.7774353-1.2755737,1.275589v4.5354309
							c0.4981689,0.4981461,0.7774658,0.7774506,1.2755737,1.275589h4.5354614
							c0.4981689-0.4981384,0.7774048-0.7774429,1.2755737-1.275589v-4.5354309
							C99.4227066,107.2183609,99.1434708,106.9390717,98.6453018,106.4409256L98.6453018,106.4409256z"/>
					</g>
				</g>
				
					<rect x="95.4937439" y="109.0771408" transform="matrix(-1.836970e-16 1 -1 -1.836970e-16 206.3618011 13.6066484)" class="st7" width="1.7676752" height="1.8141732"/>
				
					<rect x="95.8942337" y="109.4881668" transform="matrix(-1.836970e-16 1 -1 -1.836970e-16 206.3618011 13.6066484)" class="st8" width="0.9666973" height="0.992126"/>
				<line class="st9" x1="97.284668" y1="109.1003876" x2="96.873642" y2="109.5008774"/>
				<line class="st9" x1="96.873642" y1="110.4675751" x2="97.284668" y2="110.8680649"/>
				<line class="st9" x1="95.8815155" y1="110.4675751" x2="95.4704895" y2="110.8680649"/>
				<line class="st9" x1="95.8815155" y1="109.5008774" x2="95.4704895" y2="109.1003876"/>
			</g>
		</g>
		<g>
			<g>
				<g>
					<g>
						<polygon class="st10" points="94.1103897,106.3512573 92.8672256,105.1056519 92.8398819,100.5446167 94.114296,99.272644 
							98.645546,99.2741089 99.9170303,100.5480347 99.9160538,105.0802612 98.6435928,106.3512573 						"/>
						<path class="st0" d="M98.6415176,99.2792664l1.2697144,1.2697296v4.5271606l-1.2697144,1.269722H94.114357
							l-1.2697144-1.269722v-4.5271606l0.1083984-0.1083832l1.1613159-1.1613464H98.6415176 M98.645668,99.2692642h-4.5354614
							c-0.4981079,0.4981537-0.7774048,0.7774429-1.2755737,1.275589v4.5354462
							c0.4981689,0.4981384,0.7774658,0.7774353,1.2755737,1.2755737h4.5354614
							c0.4981689-0.4981384,0.7774658-0.7774353,1.2755737-1.2755737v-4.5354462
							C99.4231339,100.0467072,99.143837,99.7674179,98.645668,99.2692642L98.645668,99.2692642z"/>
					</g>
				</g>
				
					<rect x="95.4941177" y="101.9054871" transform="matrix(-1.836970e-16 1 -1 -1.836970e-16 199.1905212 6.4346213)" class="st7" width="1.7676752" height="1.8141732"/>
				
					<rect x="95.8946075" y="102.3165131" transform="matrix(-1.836970e-16 1 -1 -1.836970e-16 199.1905212 6.4346213)" class="st8" width="0.9666973" height="0.992126"/>
				<line class="st9" x1="97.2850418" y1="101.9287338" x2="96.8740158" y2="102.3292236"/>
				<line class="st9" x1="96.8740158" y1="103.2959213" x2="97.2850418" y2="103.6964111"/>
				<line class="st9" x1="95.8818893" y1="103.2959213" x2="95.4708633" y2="103.6964111"/>
				<line class="st9" x1="95.8818893" y1="102.3292236" x2="95.4708633" y2="101.9287338"/>
			</g>
		</g>
		<g>
			<g>
				<g>
					<g>
						<polygon class="st10" points="94.1094131,127.8659058 92.8379288,126.5914917 92.8389053,122.0602417 94.1133194,120.7877808 
							98.645546,120.7887573 99.9170303,122.0641479 99.9160538,126.5953979 98.6435928,127.8659058 						"/>
						<path class="st0" d="M98.6411514,120.7942352l0.5825195,0.5825348l0.6871948,0.6871796v4.5271606l-0.5825195,0.5825348
							l-0.6871948,0.6871796h-4.5271606l-1.2697144-1.2697144v-4.5271606l1.2697144-1.2697144H98.6411514 M98.6453018,120.7842255
							h-4.5354614c-0.4981079,0.4981537-0.7774048,0.7774506-1.2755737,1.275589v4.5354309
							c0.4981689,0.4981537,0.7774658,0.7774506,1.2755737,1.275589h4.5354614
							c0.4981689-0.4981384,0.7774048-0.7774353,1.2755737-1.275589v-4.5354309
							C99.4227066,121.561676,99.1434708,121.2823792,98.6453018,120.7842255L98.6453018,120.7842255z"/>
					</g>
				</g>
				
					<rect x="95.4937439" y="123.4204483" transform="matrix(-1.836970e-16 1 -1 -1.836970e-16 220.7051086 27.949955)" class="st7" width="1.7676752" height="1.8141732"/>
				
					<rect x="95.8942337" y="123.8314743" transform="matrix(-1.836970e-16 1 -1 -1.836970e-16 220.7051086 27.949955)" class="st8" width="0.9666973" height="0.992126"/>
				<line class="st9" x1="97.284668" y1="123.4436951" x2="96.873642" y2="123.8441849"/>
				<line class="st9" x1="96.873642" y1="124.8108826" x2="97.284668" y2="125.2113724"/>
				<line class="st9" x1="95.8815155" y1="124.8108826" x2="95.4704895" y2="125.2113724"/>
				<line class="st9" x1="95.8815155" y1="123.8441849" x2="95.4704895" y2="123.4436951"/>
			</g>
		</g>
		<g>
			<g>
				<g>
					<g>
						<polygon class="st10" points="94.1103897,120.6940308 92.8389053,119.4196167 92.8398819,114.8883667 94.114296,113.6168823 
							98.645546,113.6178589 99.9170303,114.8922729 99.9160538,119.4235229 98.6435928,120.6940308 						"/>
						<path class="st0" d="M98.6415176,113.6225739l1.2697144,1.2697296v4.5271606l-1.1235962,1.1236267l-0.1461182,0.1460876
							H94.114357l-1.0054321-1.0054169l-0.2642822-0.2642975v-4.5271606l0.1083984-0.1083832l1.1613159-1.1613464H98.6415176
							 M98.645668,113.6125717h-4.5354614c-0.4981079,0.4981537-0.7774048,0.7774429-1.2755737,1.275589v4.5354462
							c0.4981689,0.4981461,0.7774658,0.7774277,1.2755737,1.2755814h4.5354614
							c0.4981689-0.4981537,0.7774658-0.7774353,1.2755737-1.2755814v-4.5354462
							C99.4231339,114.3900146,99.143837,114.1107254,98.645668,113.6125717L98.645668,113.6125717z"/>
					</g>
				</g>
				
					<rect x="95.4941177" y="116.2487946" transform="matrix(-1.836970e-16 1 -1 -1.836970e-16 213.5338287 20.7779293)" class="st7" width="1.7676752" height="1.8141732"/>
				
					<rect x="95.8946075" y="116.6598206" transform="matrix(-1.836970e-16 1 -1 -1.836970e-16 213.5338287 20.7779293)" class="st8" width="0.9666973" height="0.992126"/>
				<line class="st9" x1="97.2850418" y1="116.2720413" x2="96.8740158" y2="116.6725311"/>
				<line class="st9" x1="96.8740158" y1="117.6392288" x2="97.2850418" y2="118.0397186"/>
				<line class="st9" x1="95.8818893" y1="117.6392288" x2="95.4708633" y2="118.0397186"/>
				<line class="st9" x1="95.8818893" y1="116.6725311" x2="95.4708633" y2="116.2720413"/>
			</g>
		</g>
		<g>
			<g>
				<g>
					<g>
						<polygon class="st11" points="94.1094131,34.4362183 92.8379288,33.1618042 92.8389053,28.6300659 94.1133194,27.357605 
							98.645546,27.3590698 99.9170303,28.6334839 99.9160538,33.1652222 98.6435928,34.4362183 						"/>
						<path class="st0" d="M98.6411514,27.364357l0.6348877,0.6348686l0.6348267,0.634861v4.5271606l-0.6348267,0.634861
							l-0.6348877,0.6348686h-4.5271606l-1.1613159-1.1613503l-0.1083984-0.1083794v-4.5271606l0.1083984-0.1083794
							l1.1613159-1.1613503H98.6411514 M98.6453018,27.3543587h-4.5354614
							c-0.4981079,0.4981499-0.7774048,0.7774391-1.2755737,1.275589v4.5354385
							c0.4981689,0.4981499,0.7774658,0.7774391,1.2755737,1.275589h4.5354614
							c0.4981689-0.4981499,0.7774048-0.7774391,1.2755737-1.275589v-4.5354385
							C99.4227066,28.1317978,99.1434708,27.8525085,98.6453018,27.3543587L98.6453018,27.3543587z"/>
					</g>
				</g>
				
					<rect x="95.4937439" y="29.9905815" transform="matrix(-1.836970e-16 1 -1 -1.836970e-16 127.2752457 -65.4799118)" class="st7" width="1.7676752" height="1.8141732"/>
				
					<rect x="95.8942337" y="30.4016037" transform="matrix(-1.836970e-16 1 -1 -1.836970e-16 127.2752457 -65.4799118)" class="st8" width="0.9666973" height="0.992126"/>
				<line class="st9" x1="97.284668" y1="30.0138302" x2="96.873642" y2="30.4143181"/>
				<line class="st9" x1="96.873642" y1="31.3810158" x2="97.284668" y2="31.7815056"/>
				<line class="st9" x1="95.8815155" y1="31.3810158" x2="95.4704895" y2="31.7815056"/>
				<line class="st9" x1="95.8815155" y1="30.4143181" x2="95.4704895" y2="30.0138302"/>
			</g>
		</g>
		<g>
			<g>
				<g>
					<g>
						<polygon class="st11" points="94.1103897,27.2643433 92.8389053,25.9904175 92.8398819,21.4581909 94.114296,20.1862183 
							98.645546,20.1876831 99.9170303,21.4616089 99.9160538,25.9938354 98.6435928,27.2643433 						"/>
						<path class="st0" d="M98.6415176,20.1927032l1.2697144,1.2697296v4.5271606l-1.2697144,1.2697296H94.114357
							l-1.1613159-1.1613503l-0.1083984-0.1083794v-4.5271606l0.1083984-0.1083794l1.1613159-1.1613503H98.6415176
							 M98.645668,20.182703h-4.5354614c-0.4981079,0.4981499-0.7774048,0.777441-1.2755737,1.2755909v4.5354385
							c0.4981689,0.4981499,0.7774658,0.7774391,1.2755737,1.275589h4.5354614
							c0.4981689-0.4981499,0.7774658-0.7774391,1.2755737-1.275589v-4.5354385
							C99.4231339,20.960144,99.143837,20.6808529,98.645668,20.182703L98.645668,20.182703z"/>
					</g>
				</g>
				
					<rect x="95.4941177" y="22.8189278" transform="matrix(-1.836970e-16 1 -1 -1.836970e-16 120.1039658 -72.6519394)" class="st7" width="1.7676752" height="1.8141732"/>
				
					<rect x="95.8946075" y="23.22995" transform="matrix(-1.836970e-16 1 -1 -1.836970e-16 120.1039658 -72.6519394)" class="st8" width="0.9666973" height="0.992126"/>
				<line class="st9" x1="97.2850418" y1="22.8421764" x2="96.8740158" y2="23.2426643"/>
				<line class="st9" x1="96.8740158" y1="24.209362" x2="97.2850418" y2="24.6098518"/>
				<line class="st9" x1="95.8818893" y1="24.209362" x2="95.4708633" y2="24.6098518"/>
				<line class="st9" x1="95.8818893" y1="23.2426643" x2="95.4708633" y2="22.8421764"/>
			</g>
		</g>
		<g>
			<g>
				<g>
					<g>
						<polygon class="st11" points="94.1094131,48.77948 92.8379288,47.5050659 92.8389053,42.9733276 94.1133194,41.7008667 
							98.645546,41.7023315 99.9170303,42.9767456 99.9160538,47.5084839 98.6435928,48.77948 						"/>
						<path class="st0" d="M98.6411514,41.7076645l0.6348877,0.6348686l0.6348267,0.634861v4.5271606l-0.6348267,0.634861
							l-0.6348877,0.6348686h-4.5271606l-1.1613159-1.1613503l-0.1083984-0.1083794v-4.5271606l0.1083984-0.1083794
							l1.1613159-1.1613503H98.6411514 M98.6453018,41.6976662h-4.5354614
							c-0.4981079,0.4981499-0.7774048,0.7774391-1.2755737,1.275589v4.5354385
							c0.4981689,0.4981499,0.7774658,0.7774391,1.2755737,1.275589h4.5354614
							c0.4981689-0.4981499,0.7774048-0.7774391,1.2755737-1.275589v-4.5354385
							C99.4227066,42.4751053,99.1434708,42.195816,98.6453018,41.6976662L98.6453018,41.6976662z"/>
					</g>
				</g>
				
					<rect x="95.4937439" y="44.333889" transform="matrix(-1.836970e-16 1 -1 -1.836970e-16 141.6185455 -51.1366043)" class="st7" width="1.7676752" height="1.8141732"/>
				
					<rect x="95.8942337" y="44.7449112" transform="matrix(-1.836970e-16 1 -1 -1.836970e-16 141.6185455 -51.1366043)" class="st8" width="0.9666973" height="0.992126"/>
				<line class="st9" x1="97.284668" y1="44.3571358" x2="96.873642" y2="44.7576256"/>
				<line class="st9" x1="96.873642" y1="45.7243233" x2="97.284668" y2="46.1248131"/>
				<line class="st9" x1="95.8815155" y1="45.7243233" x2="95.4704895" y2="46.1248131"/>
				<line class="st9" x1="95.8815155" y1="44.7576256" x2="95.4704895" y2="44.3571358"/>
			</g>
		</g>
		<g>
			<g>
				<g>
					<g>
						<polygon class="st11" points="94.1103897,41.607605 92.8389053,40.3336792 92.8398819,35.8014526 94.114296,34.52948 
							98.645546,34.5309448 99.9170303,35.8048706 99.9160538,40.3370972 98.6435928,41.607605 						"/>
						<path class="st0" d="M98.6415176,34.5360107l1.2697144,1.2697296v4.5271606l-1.2697144,1.2697296H94.114357
							l-1.1613159-1.1613503l-0.1083984-0.1083794v-4.5271606l0.1083984-0.1083794l1.1613159-1.1613503H98.6415176
							 M98.645668,34.5260124h-4.5354614c-0.4981079,0.4981499-0.7774048,0.7774391-1.2755737,1.275589v4.5354385
							c0.4981689,0.4981499,0.7774658,0.7774391,1.2755737,1.275589h4.5354614
							c0.4981689-0.4981499,0.7774658-0.7774391,1.2755737-1.275589v-4.5354385
							C99.4231339,35.3034515,99.143837,35.0241623,98.645668,34.5260124L98.645668,34.5260124z"/>
					</g>
				</g>
				
					<rect x="95.4941177" y="37.1622353" transform="matrix(-1.836970e-16 1 -1 -1.836970e-16 134.4472809 -58.3086319)" class="st7" width="1.7676752" height="1.8141732"/>
				
					<rect x="95.8946075" y="37.5732574" transform="matrix(-1.836970e-16 1 -1 -1.836970e-16 134.4472809 -58.3086319)" class="st8" width="0.9666973" height="0.992126"/>
				<line class="st9" x1="97.2850418" y1="37.185482" x2="96.8740158" y2="37.5859718"/>
				<line class="st9" x1="96.8740158" y1="38.5526695" x2="97.2850418" y2="38.9531593"/>
				<line class="st9" x1="95.8818893" y1="38.5526695" x2="95.4708633" y2="38.9531593"/>
				<line class="st9" x1="95.8818893" y1="37.5859718" x2="95.4708633" y2="37.185482"/>
			</g>
		</g>
		<g>
			<g>
				<g>
					<g>
						<polygon class="st11" points="94.1094131,63.1227417 92.8379288,61.8488159 92.8389053,57.3165894 94.1133194,56.0446167 
							98.645546,56.0460815 99.9170303,57.3200073 99.9160538,61.8522339 98.6435928,63.1227417 						"/>
						<path class="st0" d="M98.6411514,56.0509796l0.6655884,0.6655807l0.604126,0.6041412v4.5271606l-0.6348267,0.6348572
							l-0.6348877,0.6348648h-4.5271606l-1.2697144-1.269722v-4.5271606l0.1309814-0.1309814l1.1387329-1.1387405H98.6411514
							 M98.6453018,56.0409851h-4.5354614c-0.4981079,0.4981384-0.7774048,0.7774277-1.2755737,1.2755737v4.5354462
							c0.4981689,0.4981384,0.7774658,0.7774353,1.2755737,1.2755737h4.5354614
							c0.4981689-0.4981384,0.7774048-0.7774353,1.2755737-1.2755737v-4.5354462
							C99.4227066,56.8184128,99.1434708,56.5391235,98.6453018,56.0409851L98.6453018,56.0409851z"/>
					</g>
				</g>
				
					<rect x="95.4937439" y="58.6771965" transform="matrix(-1.836970e-16 1 -1 -1.836970e-16 155.961853 -36.7932968)" class="st7" width="1.7676752" height="1.8141732"/>
				
					<rect x="95.8942337" y="59.0882187" transform="matrix(-1.836970e-16 1 -1 -1.836970e-16 155.961853 -36.7932968)" class="st8" width="0.9666973" height="0.992126"/>
				<line class="st9" x1="97.284668" y1="58.7004433" x2="96.873642" y2="59.1009331"/>
				<line class="st9" x1="96.873642" y1="60.0676308" x2="97.284668" y2="60.4681206"/>
				<line class="st9" x1="95.8815155" y1="60.0676308" x2="95.4704895" y2="60.4681206"/>
				<line class="st9" x1="95.8815155" y1="59.1009331" x2="95.4704895" y2="58.7004433"/>
			</g>
		</g>
		<g>
			<g>
				<g>
					<g>
						<polygon class="st11" points="94.1103897,55.9508667 92.8389053,54.6769409 92.8398819,50.1447144 94.114296,48.8727417 
							98.645546,48.8742065 99.9170303,50.1481323 99.9160538,54.6803589 98.6435928,55.9508667 						"/>
						<path class="st0" d="M98.6415176,48.8793182l1.2697144,1.2697296v4.5271606l-1.2697144,1.269722H94.114357
							l-1.1387329-1.1387405l-0.1309814-0.1309814v-4.5271606l0.1083984-0.1083794l1.1613159-1.1613503H98.6415176
							 M98.645668,48.8693199h-4.5354614c-0.4981079,0.4981499-0.7774048,0.7774391-1.2755737,1.275589v4.5354385
							c0.4981689,0.4981499,0.7774658,0.7774391,1.2755737,1.2755775h4.5354614
							c0.4981689-0.4981384,0.7774658-0.7774277,1.2755737-1.2755775v-4.5354385
							C99.4231339,49.646759,99.143837,49.3674698,98.645668,48.8693199L98.645668,48.8693199z"/>
					</g>
				</g>
				
					<rect x="95.4941177" y="51.5055428" transform="matrix(-1.836970e-16 1 -1 -1.836970e-16 148.7905731 -43.9653244)" class="st7" width="1.7676752" height="1.8141732"/>
				
					<rect x="95.8946075" y="51.9165649" transform="matrix(-1.836970e-16 1 -1 -1.836970e-16 148.7905731 -43.9653244)" class="st8" width="0.9666973" height="0.992126"/>
				<line class="st9" x1="97.2850418" y1="51.5287895" x2="96.8740158" y2="51.9292793"/>
				<line class="st9" x1="96.8740158" y1="52.895977" x2="97.2850418" y2="53.2964668"/>
				<line class="st9" x1="95.8818893" y1="52.895977" x2="95.4708633" y2="53.2964668"/>
				<line class="st9" x1="95.8818893" y1="51.9292793" x2="95.4708633" y2="51.5287895"/>
			</g>
		</g>
	</g>
</g>
<g id="Режим_изоляции">
	<g>
	</g>
	<g>
	</g>
	<g>
	</g>
	<g>
	</g>
	<g>
	</g>
</g>
</svg>
