<?xml version="1.0" encoding="utf-8"?>
<!-- Generator: Adobe Illustrator 23.1.0, SVG Export Plug-In . SVG Version: 6.00 Build 0)  -->
<svg version="1.1" xmlns="http://www.w3.org/2000/svg" xmlns:xlink="http://www.w3.org/1999/xlink" x="0px" y="0px"
	 viewBox="0 0 85.04 85.04" style="enable-background:new 0 0 85.04 85.04;" xml:space="preserve">
<style type="text/css">
	.st0{fill:#E6E5E1;}
	.st1{fill:#131415;}
	.st2{fill:none;stroke:#CACACA;stroke-width:0.75;stroke-miterlimit:10;}
	.st3{fill:#0C0D0E;}
	.st4{fill:#A19D9E;}
	.st5{fill:none;stroke:#F6F6F7;stroke-width:0.75;stroke-miterlimit:10;}
	.st6{fill:#D1C9BE;}
	.st7{fill:#958E85;}
	.st8{fill:#FFFFFF;}
	.st9{fill:#36322F;}
	.st10{fill:#B6B6B5;}
	.st11{fill:#D0C9BD;}
	.st12{fill:#9B7844;}
	.st13{fill:#878484;}
	.st14{fill:#00B15D;}
	.st15{fill:#B4B4B5;}
	.st16{fill:#666666;}
	.st17{fill:#818181;}
	.st18{fill:#CDCDCD;}
	.st19{fill:#2F2F30;}
	.st20{fill:#E7E7E7;}
	.st21{fill:#48423C;}
	.st22{fill:#CEC5BA;}
	.st23{fill:none;stroke:#E5E5E5;stroke-miterlimit:10;}
	.st24{fill:none;stroke:#C9C8C8;stroke-miterlimit:10;}
	.st25{fill:#4A4A4A;}
</style>
<g id="Слой_11">
	<g>
		<path class="st0" d="M49.26,5.4c-0.36,0-0.64-0.08-0.84-0.24c-0.21-0.16-0.31-0.39-0.31-0.67c0-0.16,0.04-0.3,0.13-0.41
			c0.08-0.12,0.21-0.21,0.38-0.28c-0.19-0.05-0.32-0.15-0.4-0.27s-0.12-0.28-0.12-0.47V2.88c0-0.07-0.01-0.12-0.04-0.16
			s-0.07-0.06-0.14-0.07l-0.08-0.01V2.26h0.33c0.21,0,0.35,0.06,0.44,0.17s0.13,0.25,0.13,0.43v0.18c0,0.15,0.04,0.27,0.12,0.36
			c0.08,0.09,0.2,0.13,0.35,0.14h0.52V2.7l-0.34-0.06V2.26h1.31v0.38L50.34,2.7v2.25l0.34,0.06V5.4h-0.34H49.26z M49.71,4.01h-0.44
			c-0.18,0-0.31,0.04-0.4,0.11s-0.13,0.18-0.13,0.32s0.04,0.25,0.13,0.34s0.22,0.13,0.39,0.13h0.45V4.01z"/>
		<path class="st0" d="M46.35,5.4V5.02l0.34-0.06V3.32c0-0.21-0.06-0.36-0.17-0.46c-0.11-0.1-0.27-0.15-0.46-0.15
			c-0.2,0-0.35,0.05-0.47,0.15c-0.11,0.1-0.17,0.26-0.17,0.47v1.64l0.34,0.06V5.4h-1.31V5.02l0.34-0.06V3.32
			c0-0.35,0.12-0.62,0.35-0.81s0.54-0.29,0.92-0.29s0.68,0.09,0.92,0.29s0.35,0.46,0.35,0.81v1.64l0.34,0.06V5.4h-0.34h-0.63H46.35z
			"/>
		<path class="st0" d="M41.86,4.4h0.48l0.08,0.43c0.05,0.03,0.14,0.06,0.24,0.09c0.11,0.03,0.22,0.04,0.34,0.04
			c0.17,0,0.31-0.04,0.4-0.11c0.1-0.07,0.14-0.17,0.14-0.28c0-0.11-0.05-0.19-0.15-0.26s-0.27-0.14-0.51-0.22
			c-0.35-0.1-0.61-0.22-0.79-0.38c-0.18-0.16-0.27-0.37-0.27-0.62c0-0.27,0.11-0.48,0.32-0.64s0.5-0.23,0.85-0.23
			c0.25,0,0.48,0.04,0.68,0.12c0.2,0.08,0.37,0.19,0.5,0.33v0.66h-0.49L43.6,2.87c-0.06-0.05-0.15-0.09-0.26-0.13
			c-0.11-0.03-0.23-0.05-0.37-0.05c-0.17,0-0.31,0.04-0.4,0.11c-0.09,0.07-0.14,0.17-0.14,0.28c0,0.12,0.04,0.22,0.13,0.29
			c0.09,0.07,0.24,0.14,0.45,0.21c0.38,0.11,0.66,0.24,0.85,0.38c0.19,0.15,0.29,0.35,0.29,0.61c0,0.25-0.11,0.46-0.33,0.62
			c-0.22,0.16-0.49,0.24-0.82,0.25c-0.24,0-0.46-0.04-0.67-0.11c-0.2-0.07-0.37-0.17-0.5-0.29V4.4z"/>
		<path class="st0" d="M39.16,4.4h0.48l0.08,0.43c0.05,0.03,0.14,0.06,0.24,0.09c0.11,0.03,0.22,0.04,0.34,0.04
			c0.17,0,0.31-0.04,0.4-0.11c0.1-0.07,0.14-0.17,0.14-0.28c0-0.11-0.05-0.19-0.15-0.26s-0.27-0.14-0.51-0.22
			c-0.35-0.1-0.61-0.22-0.79-0.38c-0.18-0.16-0.27-0.37-0.27-0.62c0-0.27,0.11-0.48,0.32-0.64s0.5-0.23,0.85-0.23
			c0.25,0,0.48,0.04,0.68,0.12c0.2,0.08,0.37,0.19,0.5,0.33v0.66h-0.49l-0.07-0.45c-0.06-0.05-0.15-0.09-0.26-0.13
			c-0.11-0.03-0.23-0.05-0.37-0.05c-0.17,0-0.31,0.04-0.4,0.11c-0.09,0.07-0.14,0.17-0.14,0.28c0,0.12,0.04,0.22,0.13,0.29
			c0.09,0.07,0.24,0.14,0.45,0.21c0.38,0.11,0.66,0.24,0.85,0.38c0.19,0.15,0.29,0.35,0.29,0.61c0,0.25-0.11,0.46-0.33,0.62
			c-0.22,0.16-0.49,0.24-0.82,0.25c-0.24,0-0.46-0.04-0.67-0.11c-0.2-0.07-0.37-0.17-0.5-0.29V4.4z"/>
		<path class="st0" d="M38.86,5.02V5.4h-1.31V5.02l0.34-0.06V2.7l-0.34-0.06V2.26h1.31v0.38L38.53,2.7v2.25L38.86,5.02z"/>
		<path class="st0" d="M37.35,2.64l-0.23,0.03L36.16,5.4h-0.65l-0.96-2.73l-0.23-0.03V2.26h1.08v0.38l-0.22,0.04l0.14,0.43h1.02
			l0.14-0.43l-0.22-0.04V2.26h1.08V2.64z M36.2,3.57h-0.73l0.36,1.1h0.01L36.2,3.57z"/>
	</g>
	<path class="st1" d="M0,0v85.04h85.04V0H0z M9.92,79.51c-2.43,0-4.39-1.97-4.39-4.39c0-2.43,1.97-4.39,4.39-4.39
		c2.43,0,4.39,1.97,4.39,4.39C14.31,77.54,12.35,79.51,9.92,79.51z M9.92,14.31c-2.43,0-4.39-1.97-4.39-4.39
		c0-2.43,1.97-4.39,4.39-4.39c2.43,0,4.39,1.97,4.39,4.39C14.31,12.35,12.35,14.31,9.92,14.31z M75.12,79.51
		c-2.43,0-4.39-1.97-4.39-4.39c0-2.43,1.97-4.39,4.39-4.39c2.43,0,4.39,1.97,4.39,4.39C79.51,77.54,77.54,79.51,75.12,79.51z
		 M75.12,14.31c-2.43,0-4.39-1.97-4.39-4.39c0-2.43,1.97-4.39,4.39-4.39c2.43,0,4.39,1.97,4.39,4.39
		C79.51,12.35,77.54,14.31,75.12,14.31z M5.87,52.35c0,0.7-0.56,1.26-1.26,1.26s-1.26-0.56-1.26-1.26c0-0.7,0.56-1.26,1.26-1.26
		S5.87,51.65,5.87,52.35z M9.47,52.35c0,0.7-0.56,1.26-1.26,1.26s-1.26-0.56-1.26-1.26c0-0.7,0.56-1.26,1.26-1.26
		S9.47,51.65,9.47,52.35z M5.87,56.04c0,0.7-0.56,1.26-1.26,1.26s-1.26-0.56-1.26-1.26c0-0.7,0.56-1.26,1.26-1.26
		S5.87,55.34,5.87,56.04z M9.47,56.04c0,0.7-0.56,1.26-1.26,1.26s-1.26-0.56-1.26-1.26c0-0.7,0.56-1.26,1.26-1.26
		S9.47,55.34,9.47,56.04z M5.87,59.6c0,0.7-0.56,1.26-1.26,1.26S3.35,60.3,3.35,59.6c0-0.7,0.56-1.26,1.26-1.26
		S5.87,58.91,5.87,59.6z M9.47,59.6c0,0.7-0.56,1.26-1.26,1.26S6.95,60.3,6.95,59.6c0-0.7,0.56-1.26,1.26-1.26S9.47,58.91,9.47,59.6
		z"/>
	<circle class="st2" cx="4.61" cy="52.35" r="1.26"/>
	<circle class="st2" cx="8.21" cy="52.35" r="1.26"/>
	<circle class="st2" cx="4.61" cy="56.04" r="1.26"/>
	<circle class="st2" cx="8.21" cy="56.04" r="1.26"/>
	<circle class="st2" cx="4.61" cy="59.6" r="1.26"/>
	<circle class="st2" cx="8.21" cy="59.6" r="1.26"/>
	<rect x="58.61" y="60.84" class="st0" width="8.14" height="4.41"/>
	<g>
		<path class="st3" d="M59.47,61.7v-0.26h1.09v0.26l-0.34,0.06v2.37l0.34,0.06v0.26h-1.09v-0.26l0.34-0.06v-2.37L59.47,61.7z"/>
		<path class="st3" d="M60.91,64.45v-0.28l1-1.1c0.18-0.2,0.3-0.35,0.36-0.47s0.09-0.23,0.09-0.36c0-0.15-0.04-0.28-0.13-0.38
			c-0.09-0.1-0.21-0.15-0.35-0.15c-0.21,0-0.36,0.05-0.46,0.16c-0.1,0.11-0.15,0.26-0.15,0.45h-0.39l0-0.01
			c-0.01-0.26,0.08-0.48,0.26-0.65c0.18-0.18,0.43-0.26,0.75-0.26c0.27,0,0.49,0.08,0.66,0.24s0.24,0.36,0.24,0.6
			c0,0.17-0.05,0.33-0.15,0.49c-0.1,0.16-0.24,0.34-0.41,0.53l-0.8,0.86l0,0.01h1.08l0.03-0.35h0.35v0.67H60.91z"/>
		<path class="st3" d="M65.58,62.36h-0.29l-0.08-0.43c-0.07-0.06-0.15-0.12-0.25-0.16c-0.1-0.04-0.21-0.06-0.35-0.06
			c-0.32,0-0.56,0.11-0.73,0.34c-0.17,0.23-0.25,0.52-0.25,0.86v0.05c0,0.35,0.08,0.64,0.25,0.87c0.17,0.23,0.4,0.34,0.69,0.34
			c0.14,0,0.26-0.02,0.38-0.06c0.11-0.04,0.2-0.09,0.26-0.16l0.08-0.43h0.29v0.54c-0.09,0.11-0.22,0.21-0.39,0.3
			c-0.18,0.09-0.38,0.13-0.61,0.13c-0.4,0-0.72-0.15-0.97-0.44c-0.25-0.29-0.38-0.65-0.38-1.09v-0.04c0-0.44,0.13-0.81,0.37-1.1
			s0.58-0.43,0.98-0.43c0.23,0,0.43,0.04,0.61,0.13c0.17,0.09,0.31,0.19,0.39,0.3V62.36z"/>
	</g>
</g>
<g id="Макет_TREMA">
	<g id="Креп._отверстия">
		<path class="st4" d="M9.92,3.95c-3.29,0-5.95,2.68-5.95,5.98c0,3.3,2.66,5.98,5.95,5.98c3.29,0,5.95-2.68,5.95-5.98
			C15.87,6.62,13.21,3.95,9.92,3.95z M9.92,14.31c-2.43,0-4.39-1.97-4.39-4.39c0-2.43,1.97-4.39,4.39-4.39
			c2.43,0,4.39,1.97,4.39,4.39C14.31,12.35,12.35,14.31,9.92,14.31z"/>
		<path class="st4" d="M75.12,3.95c-3.29,0-5.95,2.68-5.95,5.98c0,3.3,2.66,5.98,5.95,5.98c3.29,0,5.95-2.68,5.95-5.98
			C81.07,6.62,78.41,3.95,75.12,3.95z M75.12,14.31c-2.43,0-4.39-1.97-4.39-4.39c0-2.43,1.97-4.39,4.39-4.39
			c2.43,0,4.39,1.97,4.39,4.39C79.51,12.35,77.54,14.31,75.12,14.31z"/>
		<path class="st4" d="M9.92,69.14c-3.29,0-5.95,2.68-5.95,5.98c0,3.3,2.66,5.98,5.95,5.98c3.29,0,5.95-2.68,5.95-5.98
			C15.87,71.82,13.21,69.14,9.92,69.14z M9.92,79.51c-2.43,0-4.39-1.97-4.39-4.39c0-2.43,1.97-4.39,4.39-4.39
			c2.43,0,4.39,1.97,4.39,4.39C14.31,77.54,12.35,79.51,9.92,79.51z"/>
		<path class="st4" d="M75.12,69.14c-3.29,0-5.95,2.68-5.95,5.98c0,3.3,2.66,5.98,5.95,5.98c3.29,0,5.95-2.68,5.95-5.98
			C81.07,71.82,78.41,69.14,75.12,69.14z M75.12,79.51c-2.43,0-4.39-1.97-4.39-4.39c0-2.43,1.97-4.39,4.39-4.39
			c2.43,0,4.39,1.97,4.39,4.39C79.51,77.54,77.54,79.51,75.12,79.51z"/>
	</g>
</g>
<g id="Рисунок">
	<g>
		<path class="st0" d="M79.08,23.33c0.21,0.19,0.38,0.43,0.51,0.72c0.13,0.29,0.19,0.61,0.19,0.98c0,0.62-0.21,1.12-0.64,1.51
			c-0.43,0.38-0.98,0.58-1.65,0.58h-0.15c-0.67,0-1.22-0.19-1.65-0.58s-0.64-0.89-0.64-1.5c0-0.36,0.06-0.69,0.19-0.98
			c0.13-0.29,0.3-0.53,0.51-0.72h0.91v0.69l-0.61,0.1c-0.09,0.08-0.16,0.2-0.21,0.35c-0.05,0.15-0.08,0.32-0.08,0.51
			c0,0.35,0.12,0.62,0.35,0.82c0.23,0.2,0.54,0.32,0.93,0.35l0.02-0.01v-1.62h0.71v1.62l0.02,0.01c0.39-0.03,0.7-0.15,0.94-0.35
			c0.23-0.2,0.35-0.48,0.35-0.84c0-0.19-0.03-0.36-0.08-0.5s-0.12-0.25-0.21-0.34l-0.61-0.1v-0.69H79.08z"/>
		<path class="st0" d="M77.98,27.5h0.56v1.83h-0.56l-0.09-0.4h-0.73v1.13h0.73l0.09-0.4h0.56v0.4v0.93v0.5h-0.56l-0.09-0.5h-2.12
			l-0.1,0.5h-0.55v-1.83h0.55l0.1,0.4h0.68v-1.13h-0.68l-0.1,0.4h-0.55V27.5h0.55l0.1,0.5h2.12L77.98,27.5z"/>
		<path class="st0" d="M77.98,32.03h0.56v1.85h-0.56l-0.09-0.42h-0.65v0.32L78,34.29c0.2,0.13,0.35,0.27,0.45,0.41
			c0.1,0.14,0.15,0.32,0.15,0.53c0,0.11-0.02,0.2-0.04,0.29s-0.07,0.17-0.12,0.25l-0.64-0.16c0.02-0.06,0.03-0.1,0.03-0.12
			c0-0.02,0.01-0.05,0.01-0.09c0-0.06-0.02-0.13-0.07-0.2c-0.05-0.07-0.11-0.13-0.18-0.18l-0.64-0.45l-1.18,0.8l-0.08,0.47h-0.55
			v-1.28l1.28-0.75v-0.36h-0.63l-0.1,0.42h-0.55v-1.85h0.55l0.1,0.5h2.12L77.98,32.03z"/>
		<path class="st0" d="M76.86,36.18c0.51,0,0.93,0.14,1.25,0.43c0.33,0.29,0.49,0.69,0.49,1.19c0,0.51-0.16,0.91-0.49,1.2
			c-0.33,0.29-0.74,0.43-1.25,0.43h-0.07c-0.51,0-0.93-0.14-1.26-0.43c-0.32-0.29-0.49-0.69-0.49-1.19c0-0.51,0.16-0.91,0.49-1.2
			s0.74-0.43,1.26-0.43H76.86z M76.79,37.11c-0.31,0-0.56,0.06-0.75,0.17c-0.19,0.11-0.28,0.29-0.28,0.54
			c0,0.24,0.09,0.42,0.28,0.53c0.19,0.11,0.44,0.17,0.75,0.17h0.07c0.3,0,0.55-0.06,0.74-0.17c0.19-0.11,0.29-0.29,0.29-0.53
			c0-0.24-0.1-0.42-0.29-0.53c-0.19-0.11-0.44-0.17-0.74-0.17H76.79z"/>
		<path class="st0" d="M75.83,40.1c0.22,0.21,0.43,0.36,0.65,0.43c0.21,0.07,0.51,0.12,0.91,0.12l0.5,0.01l0.09-0.49h0.56v3.04v0.5
			h-0.56l-0.09-0.5h-2.06v0.5l-1.73-0.06v-0.87h1.02v-2.03h-1.02v-0.87l1.74-0.08V40.1z M77.38,41.58
			c-0.34-0.02-0.64-0.06-0.89-0.13c-0.26-0.07-0.48-0.17-0.66-0.29v1.13h1.97v-0.7L77.38,41.58z"/>
		<path class="st0" d="M75.05,45.79c0-0.5,0.16-0.9,0.47-1.19c0.32-0.3,0.72-0.45,1.2-0.45h0.13c0.51,0,0.93,0.14,1.26,0.42
			c0.33,0.28,0.49,0.66,0.49,1.13c0,0.46-0.14,0.83-0.42,1.08c-0.28,0.26-0.65,0.39-1.13,0.39h-0.5v-2.06l-0.02-0.01
			c-0.23,0.02-0.41,0.09-0.56,0.23c-0.14,0.13-0.22,0.32-0.22,0.55c0,0.21,0.02,0.38,0.06,0.51c0.04,0.14,0.11,0.28,0.19,0.45
			l-0.57,0.25c-0.11-0.14-0.21-0.33-0.28-0.55C75.09,46.32,75.05,46.07,75.05,45.79z M77.89,45.71c0-0.17-0.07-0.31-0.2-0.41
			s-0.3-0.16-0.51-0.19l-0.02,0.01v1.14h0.08c0.2,0,0.35-0.05,0.47-0.14C77.83,46.03,77.89,45.89,77.89,45.71z"/>
		<path class="st0" d="M77.98,47.55h0.56v1.35l-0.4,0.04c0.15,0.1,0.26,0.22,0.34,0.37s0.12,0.31,0.12,0.5c0,0.43-0.17,0.76-0.5,1
			s-0.77,0.35-1.31,0.35h-0.07c-0.51,0-0.91-0.12-1.22-0.35s-0.46-0.57-0.46-0.99c0-0.18,0.03-0.34,0.1-0.48s0.16-0.26,0.29-0.36
			h-0.99l-0.09,0.45H73.8v-1.83h0.56l0.09,0.45h3.43L77.98,47.55z M76.8,50.22c0.32,0,0.58-0.05,0.78-0.16
			c0.2-0.11,0.3-0.27,0.3-0.5c0-0.14-0.03-0.26-0.08-0.36s-0.14-0.18-0.24-0.23h-1.5c-0.1,0.06-0.17,0.14-0.22,0.23
			s-0.08,0.22-0.08,0.37c0,0.23,0.09,0.39,0.26,0.5c0.17,0.1,0.41,0.16,0.71,0.16H76.8z"/>
		<path class="st0" d="M79.17,53.15h0.56v1.92h-0.56l-0.1-0.5h-3.3l-0.1,0.5h-0.55v-1.92h0.55l0.1,0.5h3.3L79.17,53.15z"/>
		<path class="st0" d="M75.12,55.48h0.6l1.6,1.5c0.25,0.22,0.46,0.37,0.62,0.46c0.17,0.09,0.33,0.14,0.47,0.14
			c0.19,0,0.35-0.05,0.48-0.16c0.12-0.1,0.18-0.25,0.18-0.45c0-0.21-0.07-0.38-0.22-0.49c-0.14-0.11-0.34-0.17-0.58-0.17v-0.91
			l0.02-0.01c0.42-0.01,0.77,0.13,1.05,0.41c0.29,0.29,0.43,0.67,0.43,1.16c0,0.48-0.12,0.85-0.37,1.13
			c-0.25,0.27-0.58,0.41-0.99,0.41c-0.28,0-0.54-0.08-0.77-0.23c-0.24-0.15-0.54-0.41-0.92-0.77l-0.89-0.83l-0.02,0.01v1.21
			l0.46,0.04v0.71h-1.16V55.48z"/>
		<path class="st0" d="M78.17,62.83v-0.69l0.61-0.1c0.09-0.09,0.16-0.21,0.21-0.35c0.05-0.14,0.08-0.3,0.08-0.49
			c0-0.4-0.15-0.71-0.44-0.93s-0.67-0.33-1.14-0.33h-0.16c-0.47,0-0.85,0.11-1.14,0.33s-0.44,0.52-0.44,0.92
			c0,0.18,0.03,0.35,0.08,0.5c0.05,0.15,0.12,0.27,0.21,0.35l0.61,0.1v0.69h-0.91c-0.21-0.19-0.39-0.43-0.51-0.72
			c-0.13-0.29-0.19-0.62-0.19-0.97c0-0.62,0.21-1.13,0.64-1.53s0.98-0.6,1.65-0.6h0.15c0.67,0,1.22,0.2,1.65,0.59
			s0.64,0.91,0.64,1.53c0,0.36-0.06,0.68-0.19,0.97s-0.3,0.53-0.51,0.72H78.17z"/>
	</g>
	<g>
		<path class="st5" d="M45.98,6.06c3.51,0.01,6.45,0.01,7.11,0.02c0.09,0,0.14,0,0.14,0l0.04,15.59l-7.29,0.03"/>
		<path class="st5" d="M38.74,6.05c2.33,0.01,4.91,0.01,7.24,0.02"/>
		<path class="st5" d="M38.74,21.73l-7.26,0.03L31.44,6.37c0,0,0-0.17,0-0.34c0.05,0,0.09,0,0.09,0s3.24,0.01,7.21,0.02"/>
		<line class="st5" x1="45.98" y1="21.7" x2="38.74" y2="21.73"/>
		<line class="st5" x1="38.74" y1="21.73" x2="38.74" y2="6.05"/>
		<line class="st5" x1="45.98" y1="21.7" x2="45.98" y2="6.06"/>
		<path class="st5" d="M39.28,17.95"/>
		<path class="st6" d="M47.31,9.91c0-1.23,1-2.22,2.24-2.22s2.24,1,2.24,2.22s-1,2.22-2.24,2.22S47.31,11.13,47.31,9.91z"/>
		<ellipse class="st7" cx="49.55" cy="9.91" rx="1.53" ry="1.52"/>
		<path class="st6" d="M40.11,9.91c0-1.23,1-2.22,2.24-2.22s2.24,1,2.24,2.22s-1,2.22-2.24,2.22S40.11,11.13,40.11,9.91z"/>
		<ellipse class="st7" cx="42.35" cy="9.91" rx="1.53" ry="1.52"/>
		<path class="st6" d="M33.53,11.54c-1.54-2.02,0.17-4.27,2.18-3.78c0.77,0.19,1.41,0.82,1.6,1.6
			C37.8,11.36,35.55,13.08,33.53,11.54z"/>
		<ellipse class="st7" cx="35.15" cy="9.91" rx="1.53" ry="1.52"/>
		<g>
			<path class="st0" d="M47.64,15.44c0.15-0.16,0.38-0.31,0.68-0.45c0.3-0.14,0.68-0.21,1.16-0.21c0.7,0,1.26,0.24,1.7,0.73
				c0.44,0.48,0.66,1.11,0.66,1.88v0.08c0,0.78-0.22,1.41-0.65,1.89c-0.44,0.48-1.01,0.72-1.74,0.72c-0.39,0-0.72-0.06-1.02-0.18
				s-0.54-0.28-0.74-0.47V18.5h0.49l0.17,0.71c0.12,0.09,0.26,0.17,0.42,0.23c0.17,0.06,0.36,0.09,0.6,0.09c0.56,0,1-0.19,1.3-0.57
				c0.3-0.38,0.46-0.88,0.46-1.48v-0.09c0-0.62-0.15-1.12-0.44-1.5c-0.29-0.38-0.7-0.57-1.22-0.57c-0.28,0-0.52,0.03-0.7,0.09
				c-0.18,0.06-0.33,0.12-0.44,0.2v1.13l0.85,0.04v0.51h-1.56V15.44z"/>
		</g>
		<path class="st6" d="M54.67,9.91c0-1.23,1-2.22,2.24-2.22s2.24,1,2.24,2.22s-1,2.22-2.24,2.22S54.67,11.13,54.67,9.91z"/>
		<ellipse class="st7" cx="56.91" cy="9.91" rx="1.53" ry="1.52"/>
		<g>
			<path class="st0" d="M43.15,19.45l0.48-0.08l-1.17-3.35l-0.12-0.41h-0.02l-0.12,0.41l-1.16,3.36l0.47,0.07v0.45h-1.64v-0.45
				l0.42-0.06l1.74-4.65h0.6l1.74,4.65l0.41,0.06v0.45h-1.64V19.45z"/>
		</g>
		<g>
			<path class="st0" d="M33.36,18.38h0.53l0.13,0.74c0.11,0.09,0.25,0.16,0.43,0.22c0.18,0.06,0.39,0.09,0.62,0.09
				c0.37,0,0.66-0.08,0.86-0.24c0.2-0.16,0.3-0.36,0.3-0.61c0-0.22-0.1-0.41-0.31-0.56c-0.2-0.15-0.53-0.28-0.99-0.39
				c-0.55-0.13-0.96-0.33-1.25-0.6c-0.28-0.26-0.43-0.59-0.43-0.97c0-0.42,0.17-0.75,0.51-1s0.79-0.38,1.34-0.38
				c0.4,0,0.76,0.06,1.07,0.19c0.31,0.13,0.56,0.3,0.76,0.51v0.96h-0.53l-0.14-0.74c-0.14-0.11-0.3-0.2-0.49-0.27
				c-0.19-0.07-0.41-0.11-0.68-0.11c-0.35,0-0.64,0.07-0.84,0.22s-0.31,0.35-0.31,0.61c0,0.24,0.09,0.43,0.27,0.59
				s0.49,0.29,0.95,0.4c0.55,0.13,0.98,0.32,1.29,0.57c0.31,0.25,0.46,0.57,0.46,0.95c0,0.4-0.17,0.74-0.52,1.01
				c-0.35,0.27-0.79,0.4-1.35,0.4c-0.36,0-0.7-0.06-1-0.19c-0.3-0.12-0.54-0.27-0.72-0.45V18.38z"/>
		</g>
		<path class="st6" d="M26.16,11.54c-1.54-2.02,0.17-4.27,2.18-3.78c0.77,0.19,1.41,0.82,1.6,1.6
			C30.44,11.36,28.19,13.08,26.16,11.54z"/>
		<ellipse class="st7" cx="27.79" cy="9.91" rx="1.53" ry="1.52"/>
		
			<rect x="62.08" y="15.88" transform="matrix(-1 -1.224647e-16 1.224647e-16 -1 129.9986 37.6105)" class="st8" width="5.85" height="5.85"/>
		<g>
			<path d="M66.8,21.02c-0.37,0.06-0.81,0.1-1.3,0.1c-0.88,0-1.5-0.2-1.91-0.59c-0.42-0.38-0.67-0.93-0.67-1.69
				c0-0.77,0.24-1.4,0.68-1.83c0.44-0.44,1.17-0.68,2.09-0.68c0.43,0,0.8,0.02,1.11,0.06V21.02z M66.19,16.85
				c-0.15-0.03-0.38-0.04-0.62-0.04c-1.3,0-2.01,0.73-2.01,2c-0.01,1.11,0.62,1.82,1.91,1.82c0.32,0,0.55-0.03,0.71-0.06V16.85z"/>
		</g>
		
			<rect x="54.67" y="15.88" transform="matrix(-1 -1.224647e-16 1.224647e-16 -1 115.1877 37.6105)" class="st8" width="5.85" height="5.85"/>
		<g>
			<path d="M58.44,17.85l0.49-1.48h0.63l-1.6,4.72h-0.74l-1.61-4.72h0.65l0.5,1.48H58.44z M56.89,18.33l0.46,1.36
				c0.1,0.31,0.17,0.59,0.25,0.86h0.01c0.07-0.28,0.15-0.57,0.24-0.85l0.46-1.37H56.89z"/>
		</g>
	</g>
	<g>
		<g id="XMLID_6_">
			<g>
				<rect x="20.92" y="17.83" class="st9" width="8.56" height="3.66"/>
			</g>
			<g>
			</g>
		</g>
		<g id="XMLID_18_">
			<g>
				<rect x="24.56" y="21.49" class="st4" width="1.61" height="2.35"/>
			</g>
			<g>
			</g>
		</g>
		<g id="XMLID_16_">
			<g>
				<rect x="21.59" y="15.74" class="st4" width="1.68" height="2.08"/>
			</g>
			<g>
			</g>
		</g>
		<g id="XMLID_17_">
			<g>
				<rect x="27.08" y="15.74" class="st4" width="1.68" height="2.08"/>
			</g>
			<g>
			</g>
		</g>
		<g>
			<path class="st10" d="M27.07,19.36c0-0.18,0.06-0.34,0.18-0.45c0.12-0.12,0.27-0.18,0.45-0.18c0.09,0,0.17,0.01,0.25,0.04
				c0.07,0.03,0.14,0.07,0.2,0.12c0.07,0.07,0.13,0.16,0.16,0.27s0.06,0.25,0.06,0.4c0,0.16-0.02,0.3-0.05,0.43
				c-0.03,0.12-0.09,0.24-0.17,0.33c-0.07,0.09-0.17,0.16-0.28,0.22s-0.25,0.08-0.4,0.08c-0.05,0-0.09,0-0.12-0.01
				c-0.03,0-0.07-0.01-0.1-0.02v-0.23h0.01c0.02,0.01,0.06,0.02,0.1,0.03s0.09,0.02,0.14,0.02c0.18,0,0.32-0.05,0.42-0.16
				c0.11-0.11,0.17-0.26,0.18-0.44c-0.07,0.04-0.14,0.07-0.2,0.09s-0.14,0.03-0.23,0.03c-0.08,0-0.15-0.01-0.21-0.02
				c-0.06-0.01-0.12-0.04-0.18-0.09c-0.07-0.05-0.13-0.11-0.16-0.19C27.09,19.56,27.07,19.47,27.07,19.36z M27.32,19.35
				c0,0.08,0.01,0.14,0.03,0.19c0.02,0.05,0.06,0.09,0.11,0.13c0.04,0.03,0.08,0.04,0.13,0.05c0.05,0.01,0.09,0.01,0.14,0.01
				c0.07,0,0.13-0.01,0.19-0.02c0.06-0.02,0.12-0.04,0.19-0.08c0-0.02,0-0.04,0-0.05c0-0.02,0-0.04,0-0.06
				c0-0.13-0.01-0.23-0.04-0.3s-0.06-0.13-0.11-0.18c-0.04-0.04-0.08-0.06-0.12-0.08s-0.09-0.03-0.14-0.03
				c-0.12,0-0.21,0.04-0.28,0.11S27.32,19.22,27.32,19.35z"/>
			<path class="st10" d="M25.47,19.36c0-0.18,0.06-0.34,0.18-0.45c0.12-0.12,0.27-0.18,0.45-0.18c0.09,0,0.17,0.01,0.25,0.04
				c0.07,0.03,0.14,0.07,0.2,0.12c0.07,0.07,0.13,0.16,0.16,0.27s0.06,0.25,0.06,0.4c0,0.16-0.02,0.3-0.05,0.43
				c-0.03,0.12-0.09,0.24-0.17,0.33c-0.07,0.09-0.17,0.16-0.28,0.22s-0.25,0.08-0.4,0.08c-0.05,0-0.09,0-0.12-0.01
				c-0.03,0-0.07-0.01-0.1-0.02v-0.23h0.01c0.02,0.01,0.06,0.02,0.1,0.03s0.09,0.02,0.14,0.02c0.18,0,0.32-0.05,0.42-0.16
				c0.11-0.11,0.17-0.26,0.18-0.44c-0.07,0.04-0.14,0.07-0.2,0.09s-0.14,0.03-0.23,0.03c-0.08,0-0.15-0.01-0.21-0.02
				c-0.06-0.01-0.12-0.04-0.18-0.09c-0.07-0.05-0.13-0.11-0.16-0.19C25.49,19.56,25.47,19.47,25.47,19.36z M25.72,19.35
				c0,0.08,0.01,0.14,0.03,0.19c0.02,0.05,0.06,0.09,0.11,0.13c0.04,0.03,0.08,0.04,0.13,0.05c0.05,0.01,0.09,0.01,0.14,0.01
				c0.07,0,0.13-0.01,0.19-0.02c0.06-0.02,0.12-0.04,0.19-0.08c0-0.02,0-0.04,0-0.05c0-0.02,0-0.04,0-0.06
				c0-0.13-0.01-0.23-0.04-0.3s-0.06-0.13-0.11-0.18c-0.04-0.04-0.08-0.06-0.12-0.08s-0.09-0.03-0.14-0.03
				c-0.12,0-0.21,0.04-0.28,0.11S25.72,19.22,25.72,19.35z"/>
			<path class="st10" d="M23.89,18.77h1.24v0.25c-0.09,0.07-0.17,0.15-0.26,0.22c-0.09,0.07-0.17,0.15-0.24,0.22
				c-0.16,0.15-0.27,0.27-0.32,0.36c-0.06,0.09-0.09,0.19-0.09,0.29c0,0.09,0.03,0.17,0.09,0.22c0.06,0.05,0.15,0.08,0.26,0.08
				c0.07,0,0.16-0.01,0.24-0.04c0.09-0.03,0.17-0.07,0.25-0.12h0.01v0.26c-0.06,0.03-0.14,0.05-0.23,0.08
				c-0.1,0.02-0.19,0.04-0.28,0.04c-0.19,0-0.34-0.04-0.44-0.13s-0.16-0.21-0.16-0.37c0-0.07,0.01-0.13,0.03-0.19
				s0.04-0.12,0.08-0.17c0.03-0.05,0.07-0.1,0.11-0.15s0.1-0.1,0.16-0.16c0.09-0.09,0.18-0.17,0.27-0.25
				c0.09-0.08,0.18-0.15,0.26-0.22h-0.99V18.77z"/>
			<path class="st10" d="M22.25,18.77h0.31l0.55,0.6l0.15-0.14v-0.46h0.23v1.9h-0.23v-1.22l-0.67,0.68H22.3l0.64-0.63L22.25,18.77z"
				/>
		</g>
	</g>
	<g>
		<path class="st6" d="M33.85,75.82c0,1.23-1,2.22-2.24,2.22s-2.24-1-2.24-2.22s1-2.22,2.24-2.22S33.85,74.59,33.85,75.82z"/>
		<ellipse class="st7" cx="31.61" cy="75.82" rx="1.53" ry="1.52"/>
		<path class="st5" d="M27.95,78.98c-0.12,0-0.19,0-0.19,0l-0.05-17.87c0,0,0-0.03,0-0.06c0.04,0,0.08,0,0.08,0l29.06,0.04
			c0,0,0.02,0,0.05,0c0.01,2.42,0.04,17.54,0.04,17.54s0,0.19,0,0.39c-0.06,0-0.12,0-0.12,0S30.44,78.98,27.95,78.98z"/>
		<line class="st5" x1="35.2" y1="61.11" x2="35.24" y2="78.97"/>
		<line class="st5" x1="42.31" y1="60.91" x2="42.35" y2="78.78"/>
		<line class="st5" x1="49.44" y1="60.91" x2="49.48" y2="78.78"/>
		<path class="st6" d="M41.05,75.82c0,1.23-1,2.22-2.24,2.22s-2.24-1-2.24-2.22s1-2.22,2.24-2.22S41.05,74.59,41.05,75.82z"/>
		<ellipse class="st7" cx="38.81" cy="75.82" rx="1.53" ry="1.52"/>
		<path class="st6" d="M48.25,75.82c0,1.23-1,2.22-2.24,2.22s-2.24-1-2.24-2.22s1-2.22,2.24-2.22S48.25,74.59,48.25,75.82z"/>
		<ellipse class="st7" cx="46.01" cy="75.82" rx="1.53" ry="1.52"/>
		<path class="st6" d="M55.43,75.82c0,1.23-0.99,2.22-2.22,2.22c-1.23,0-2.22-1-2.22-2.22s1-2.22,2.22-2.22
			C54.44,73.59,55.43,74.59,55.43,75.82z"/>
		<ellipse class="st7" cx="53.21" cy="75.82" rx="1.53" ry="1.52"/>
		<g>
			<path class="st0" d="M31.56,70.31c-0.11,0.39-0.25,0.67-0.42,0.85c-0.16,0.18-0.37,0.27-0.61,0.27c-0.27,0-0.5-0.11-0.68-0.33
				c-0.18-0.22-0.27-0.5-0.27-0.84c0-0.24,0.05-0.45,0.14-0.63c0.09-0.18,0.22-0.33,0.38-0.43s0.34-0.15,0.53-0.15v0.46
				c-0.21,0-0.38,0.07-0.5,0.2c-0.12,0.13-0.18,0.32-0.18,0.56c0,0.22,0.05,0.4,0.15,0.52c0.1,0.13,0.24,0.19,0.41,0.19
				c0.14,0,0.26-0.06,0.36-0.18s0.19-0.32,0.27-0.61s0.17-0.51,0.27-0.67s0.21-0.28,0.34-0.36s0.28-0.12,0.46-0.12
				c0.28,0,0.51,0.11,0.68,0.33c0.17,0.22,0.25,0.51,0.25,0.87c0,0.24-0.05,0.46-0.14,0.66c-0.09,0.2-0.22,0.36-0.38,0.47
				c-0.16,0.11-0.34,0.17-0.54,0.17v-0.46c0.21,0,0.38-0.08,0.5-0.23c0.12-0.15,0.18-0.36,0.18-0.62c0-0.24-0.05-0.42-0.15-0.55
				c-0.1-0.13-0.23-0.19-0.4-0.19s-0.3,0.06-0.39,0.18S31.65,70,31.56,70.31z"/>
			<path class="st0" d="M32.01,65.92c0.37,0.04,0.65,0.18,0.85,0.4c0.2,0.23,0.3,0.53,0.3,0.9c0,0.41-0.15,0.73-0.44,0.98
				s-0.69,0.37-1.18,0.37H31.2c-0.32,0-0.61-0.06-0.85-0.17s-0.43-0.28-0.56-0.49c-0.13-0.21-0.2-0.45-0.2-0.73
				c0-0.37,0.1-0.66,0.31-0.88s0.49-0.35,0.85-0.38v0.46c-0.28,0.04-0.48,0.12-0.6,0.26s-0.19,0.32-0.19,0.55
				c0,0.29,0.11,0.52,0.32,0.68c0.22,0.17,0.52,0.25,0.92,0.25h0.34c0.38,0,0.68-0.08,0.9-0.23c0.22-0.16,0.33-0.38,0.33-0.66
				c0-0.25-0.06-0.45-0.17-0.58c-0.11-0.13-0.32-0.22-0.6-0.27V65.92z"/>
			<path class="st0" d="M32.73,64.85v-1.63h0.37v2.09h-3.47v-0.46H32.73z"/>
		</g>
		<g>
			<path class="st0" d="M38.95,70.31c-0.11,0.39-0.25,0.67-0.42,0.85c-0.16,0.18-0.37,0.27-0.61,0.27c-0.27,0-0.5-0.11-0.68-0.33
				c-0.18-0.22-0.27-0.5-0.27-0.84c0-0.24,0.05-0.45,0.14-0.63c0.09-0.18,0.22-0.33,0.38-0.43s0.34-0.15,0.53-0.15v0.46
				c-0.21,0-0.38,0.07-0.5,0.2c-0.12,0.13-0.18,0.32-0.18,0.56c0,0.22,0.05,0.4,0.15,0.52c0.1,0.13,0.24,0.19,0.41,0.19
				c0.14,0,0.26-0.06,0.36-0.18s0.19-0.32,0.27-0.61s0.17-0.51,0.27-0.67s0.21-0.28,0.34-0.36s0.28-0.12,0.46-0.12
				c0.28,0,0.51,0.11,0.68,0.33c0.17,0.22,0.25,0.51,0.25,0.87c0,0.24-0.05,0.46-0.14,0.66c-0.09,0.2-0.22,0.36-0.38,0.47
				c-0.16,0.11-0.34,0.17-0.54,0.17v-0.46c0.21,0,0.38-0.08,0.5-0.23c0.12-0.15,0.18-0.36,0.18-0.62c0-0.24-0.05-0.42-0.15-0.55
				c-0.1-0.13-0.23-0.19-0.4-0.19s-0.3,0.06-0.39,0.18S39.04,70,38.95,70.31z"/>
			<path class="st0" d="M40.5,68.46h-3.47v-0.97c0-0.3,0.07-0.56,0.2-0.79c0.13-0.23,0.32-0.41,0.57-0.53s0.53-0.19,0.85-0.19h0.22
				c0.33,0,0.61,0.06,0.86,0.19c0.25,0.13,0.44,0.3,0.57,0.54s0.2,0.5,0.2,0.81V68.46z M37.4,68h2.72v-0.48
				c0-0.35-0.11-0.62-0.33-0.82c-0.22-0.19-0.53-0.29-0.94-0.29h-0.2c-0.39,0-0.7,0.09-0.92,0.28s-0.33,0.44-0.33,0.78V68z"/>
			<path class="st0" d="M39.59,63.38v1.44l0.91,0.32v0.47l-3.47-1.31v-0.4l3.47-1.32v0.46L39.59,63.38z M39.22,64.69v-1.17
				l-1.62,0.59L39.22,64.69z"/>
		</g>
		<g>
			<path class="st0" d="M47.05,70.19l-2.86-0.98v-0.5l3.47,1.28v0.4l-3.47,1.27v-0.49L47.05,70.19z"/>
			<path class="st0" d="M47.35,67.29c0-0.16-0.05-0.29-0.14-0.41c-0.1-0.12-0.21-0.18-0.36-0.19v-0.41
				c0.15,0.01,0.29,0.06,0.42,0.15c0.13,0.09,0.24,0.22,0.32,0.37c0.08,0.16,0.12,0.32,0.12,0.49c0,0.35-0.12,0.63-0.35,0.83
				c-0.23,0.21-0.55,0.31-0.96,0.31h-0.07c-0.25,0-0.47-0.04-0.67-0.14c-0.2-0.09-0.35-0.22-0.46-0.39
				c-0.11-0.17-0.16-0.37-0.16-0.61c0-0.29,0.09-0.53,0.26-0.71c0.17-0.19,0.4-0.29,0.67-0.3v0.41c-0.17,0.01-0.3,0.08-0.41,0.19
				c-0.11,0.11-0.16,0.25-0.16,0.42c0,0.22,0.08,0.39,0.24,0.52s0.39,0.18,0.7,0.18h0.08c0.3,0,0.53-0.06,0.69-0.18
				C47.27,67.69,47.35,67.52,47.35,67.29z"/>
			<path class="st0" d="M47.35,64.76c0-0.16-0.05-0.29-0.14-0.41c-0.1-0.12-0.21-0.18-0.36-0.19v-0.41
				c0.15,0.01,0.29,0.06,0.42,0.15c0.13,0.09,0.24,0.22,0.32,0.37c0.08,0.16,0.12,0.32,0.12,0.49c0,0.35-0.12,0.63-0.35,0.83
				c-0.23,0.21-0.55,0.31-0.96,0.31h-0.07c-0.25,0-0.47-0.04-0.67-0.14c-0.2-0.09-0.35-0.22-0.46-0.39
				c-0.11-0.17-0.16-0.37-0.16-0.61c0-0.29,0.09-0.53,0.26-0.71c0.17-0.19,0.4-0.29,0.67-0.3v0.41c-0.17,0.01-0.3,0.08-0.41,0.19
				c-0.11,0.11-0.16,0.25-0.16,0.42c0,0.22,0.08,0.39,0.24,0.52s0.39,0.18,0.7,0.18h0.08c0.3,0,0.53-0.06,0.69-0.18
				C47.27,65.16,47.35,64.98,47.35,64.76z"/>
		</g>
		<g>
			<path class="st0" d="M54.55,68.79c0.17,0.12,0.29,0.28,0.38,0.49c0.08,0.21,0.13,0.45,0.13,0.73c0,0.28-0.07,0.53-0.2,0.75
				c-0.13,0.22-0.32,0.38-0.57,0.5c-0.24,0.12-0.53,0.18-0.85,0.18h-0.3c-0.52,0-0.93-0.12-1.21-0.36
				c-0.29-0.24-0.43-0.58-0.43-1.02c0-0.36,0.09-0.65,0.28-0.87c0.19-0.22,0.45-0.35,0.79-0.4v0.45c-0.46,0.09-0.69,0.36-0.69,0.81
				c0,0.3,0.11,0.53,0.32,0.69c0.22,0.16,0.53,0.24,0.94,0.24h0.28c0.39,0,0.7-0.09,0.93-0.26c0.23-0.18,0.34-0.42,0.34-0.72
				c0-0.17-0.02-0.32-0.06-0.45c-0.04-0.13-0.1-0.23-0.19-0.32h-0.78v0.8h-0.37v-1.25H54.55z"/>
			<path class="st0" d="M55,65.39v0.46l-2.67,1.73H55v0.46h-3.47v-0.46l2.69-1.74h-2.69v-0.45H55z"/>
			<path class="st0" d="M55,64.58h-3.47v-0.97c0-0.3,0.07-0.56,0.2-0.79c0.13-0.23,0.32-0.41,0.57-0.53s0.53-0.19,0.85-0.19h0.22
				c0.33,0,0.61,0.06,0.86,0.19c0.25,0.13,0.44,0.3,0.57,0.54s0.2,0.5,0.2,0.81V64.58z M51.91,64.13h2.72v-0.48
				c0-0.35-0.11-0.62-0.33-0.82s-0.53-0.29-0.94-0.29h-0.2c-0.39,0-0.7,0.09-0.92,0.28s-0.33,0.44-0.33,0.78V64.13z"/>
		</g>
	</g>
	<g id="ГРУППА_3_">
		<g>
			<polygon class="st11" points="23.74,10.53 23.74,13.97 19.48,13.97 19.48,10.53 19.79,10.53 19.79,11.23 23.4,11.23 23.4,10.53 
							"/>
			<rect x="19.79" y="10.53" class="st12" width="3.61" height="0.7"/>
			<rect x="19.79" y="6.84" class="st12" width="3.61" height="3.69"/>
			<rect x="19.79" y="6.07" class="st12" width="3.61" height="0.76"/>
			<polygon class="st11" points="19.79,6.07 19.79,6.84 19.44,6.84 19.44,3.4 23.7,3.4 23.7,6.84 23.4,6.84 23.4,6.07 			"/>
		</g>
		<g>
		</g>
	</g>
	<g id="ГРУППА_1_">
		<g>
			<polygon class="st11" points="65.6,10.53 65.6,13.97 61.34,13.97 61.34,10.53 61.65,10.53 61.65,11.23 65.26,11.23 65.26,10.53 
							"/>
			<polygon class="st11" points="65.56,3.4 65.56,6.84 65.26,6.84 65.26,6.07 61.65,6.07 61.65,6.84 61.3,6.84 61.3,3.4 			"/>
			<rect x="61.65" y="10.53" class="st12" width="3.61" height="0.7"/>
			<rect x="61.65" y="6.84" class="st12" width="3.61" height="3.69"/>
			<rect x="61.65" y="6.07" class="st12" width="3.61" height="0.76"/>
		</g>
		<g>
		</g>
	</g>
	<g id="ГРУППА_2_">
		<g>
			<polygon class="st11" points="26.58,66.25 26.58,69.69 22.33,69.69 22.33,66.25 22.64,66.25 22.64,66.95 26.24,66.95 
				26.24,66.25 			"/>
			<rect x="22.64" y="66.25" class="st12" width="3.61" height="0.7"/>
			<rect x="22.64" y="62.56" class="st12" width="3.61" height="3.69"/>
			<rect x="22.64" y="61.79" class="st12" width="3.61" height="0.77"/>
			<polygon class="st11" points="22.64,61.79 22.64,62.56 22.29,62.56 22.29,59.12 26.54,59.12 26.54,62.56 26.24,62.56 
				26.24,61.79 			"/>
		</g>
		<g>
		</g>
	</g>
	<g id="ГРУППА_4_">
		<g>
			<polygon class="st11" points="67.9,24.8 71.34,24.8 71.34,29.06 67.9,29.06 67.9,28.75 68.61,28.75 68.61,25.14 67.9,25.14 			
				"/>
			<polygon class="st11" points="60.77,24.84 64.21,24.84 64.21,25.14 63.44,25.14 63.44,28.75 64.21,28.75 64.21,29.1 60.77,29.1 
							"/>
			<rect x="67.9" y="25.14" class="st12" width="0.7" height="3.61"/>
			<rect x="64.21" y="25.14" class="st12" width="3.69" height="3.61"/>
			<rect x="63.44" y="25.14" class="st12" width="0.77" height="3.61"/>
		</g>
		<g>
		</g>
	</g>
	<g>
		<g id="XMLID_40_">
			<g>
				<rect x="58.42" y="77.64" class="st11" width="4.26" height="3.44"/>
			</g>
			<g>
			</g>
		</g>
		<g id="XMLID_39_">
			<g>
				<rect x="58.38" y="70.52" class="st11" width="4.26" height="3.44"/>
			</g>
			<g>
			</g>
		</g>
		<g id="XMLID_38_">
			<g>
				<rect x="58.73" y="73.19" class="st9" width="3.61" height="5.16"/>
			</g>
			<g>
			</g>
		</g>
		<g>
			<path class="st10" d="M61.08,76.71v0.7h-0.13v-0.27h-0.86v0.27h-0.12c0-0.04,0-0.08-0.01-0.12c-0.01-0.04-0.01-0.07-0.03-0.09
				c-0.01-0.03-0.03-0.05-0.05-0.06c-0.02-0.02-0.05-0.02-0.09-0.03v-0.13h1.16v-0.26H61.08z"/>
			<path class="st10" d="M60.43,75.69c0.23,0,0.4,0.04,0.51,0.11c0.11,0.07,0.16,0.18,0.16,0.34c0,0.15-0.05,0.27-0.16,0.34
				c-0.11,0.07-0.28,0.11-0.5,0.11c-0.23,0-0.4-0.04-0.51-0.11c-0.11-0.07-0.16-0.18-0.16-0.34c0-0.15,0.06-0.27,0.17-0.34
				C60.04,75.72,60.21,75.69,60.43,75.69z M60.83,75.92c-0.05-0.02-0.1-0.03-0.17-0.04c-0.06-0.01-0.14-0.01-0.23-0.01
				c-0.09,0-0.16,0-0.23,0.01c-0.06,0.01-0.12,0.02-0.16,0.04c-0.04,0.02-0.08,0.05-0.1,0.08s-0.03,0.08-0.03,0.13
				c0,0.05,0.01,0.1,0.03,0.13c0.02,0.04,0.06,0.06,0.1,0.08c0.04,0.02,0.1,0.03,0.17,0.04c0.07,0.01,0.14,0.01,0.23,0.01
				c0.09,0,0.17,0,0.23-0.01c0.06-0.01,0.11-0.02,0.16-0.04c0.04-0.02,0.08-0.05,0.1-0.08c0.02-0.04,0.04-0.08,0.04-0.14
				c0-0.05-0.01-0.1-0.03-0.13C60.9,75.96,60.87,75.94,60.83,75.92z"/>
			<path class="st10" d="M60.43,74.74c0.23,0,0.4,0.04,0.51,0.11c0.11,0.07,0.16,0.18,0.16,0.34c0,0.15-0.05,0.27-0.16,0.34
				c-0.11,0.07-0.28,0.11-0.5,0.11c-0.23,0-0.4-0.04-0.51-0.11c-0.11-0.07-0.16-0.18-0.16-0.34c0-0.15,0.06-0.27,0.17-0.34
				C60.04,74.78,60.21,74.74,60.43,74.74z M60.83,74.97c-0.05-0.02-0.1-0.03-0.17-0.04c-0.06-0.01-0.14-0.01-0.23-0.01
				c-0.09,0-0.16,0-0.23,0.01c-0.06,0.01-0.12,0.02-0.16,0.04c-0.04,0.02-0.08,0.05-0.1,0.08s-0.03,0.08-0.03,0.13
				c0,0.05,0.01,0.1,0.03,0.13c0.02,0.04,0.06,0.06,0.1,0.08c0.04,0.02,0.1,0.03,0.17,0.04c0.07,0.01,0.14,0.01,0.23,0.01
				c0.09,0,0.17,0,0.23-0.01c0.06-0.01,0.11-0.02,0.16-0.04c0.04-0.02,0.08-0.05,0.1-0.08c0.02-0.04,0.04-0.08,0.04-0.14
				c0-0.05-0.01-0.1-0.03-0.13C60.9,75.01,60.87,74.99,60.83,74.97z"/>
			<path class="st10" d="M61.08,73.79v0.87H60.9c-0.05-0.06-0.1-0.12-0.16-0.18c-0.05-0.06-0.1-0.12-0.15-0.17
				c-0.11-0.11-0.19-0.19-0.26-0.23s-0.13-0.06-0.2-0.06c-0.07,0-0.12,0.02-0.16,0.07c-0.04,0.04-0.06,0.11-0.06,0.18
				c0,0.05,0.01,0.11,0.03,0.17c0.02,0.06,0.05,0.12,0.08,0.18v0.01h-0.18c-0.02-0.04-0.04-0.1-0.05-0.16
				c-0.02-0.07-0.03-0.13-0.03-0.2c0-0.13,0.03-0.24,0.1-0.31c0.06-0.07,0.15-0.11,0.26-0.11c0.05,0,0.09,0.01,0.14,0.02
				c0.04,0.01,0.08,0.03,0.12,0.06c0.04,0.02,0.07,0.05,0.11,0.08c0.03,0.03,0.07,0.07,0.11,0.11c0.06,0.06,0.12,0.13,0.18,0.19
				s0.11,0.13,0.16,0.18v-0.69H61.08z"/>
		</g>
	</g>
	<g>
		<g id="XMLID_4_">
			<g>
				<rect x="21.92" y="77.68" class="st11" width="4.26" height="3.44"/>
			</g>
			<g>
			</g>
		</g>
		<g id="XMLID_3_">
			<g>
				<rect x="21.88" y="70.55" class="st11" width="4.26" height="3.44"/>
			</g>
			<g>
			</g>
		</g>
		<g id="XMLID_1_">
			<g>
				<rect x="22.23" y="73.22" class="st9" width="3.61" height="5.16"/>
			</g>
			<g>
			</g>
		</g>
		<g>
			<path class="st10" d="M24.58,76.74v0.7h-0.13v-0.27h-0.86v0.27h-0.12c0-0.04,0-0.08-0.01-0.12c-0.01-0.04-0.01-0.07-0.03-0.09
				c-0.01-0.03-0.03-0.05-0.05-0.06c-0.02-0.02-0.05-0.02-0.09-0.03V77h1.16v-0.26H24.58z"/>
			<path class="st10" d="M23.93,75.72c0.23,0,0.4,0.04,0.51,0.11s0.16,0.18,0.16,0.34c0,0.15-0.05,0.27-0.16,0.34
				c-0.11,0.07-0.28,0.11-0.5,0.11c-0.23,0-0.4-0.04-0.51-0.11c-0.11-0.07-0.16-0.18-0.16-0.34c0-0.15,0.06-0.27,0.17-0.34
				S23.71,75.72,23.93,75.72z M24.32,75.95c-0.05-0.02-0.1-0.03-0.16-0.04c-0.06-0.01-0.14-0.01-0.23-0.01c-0.09,0-0.16,0-0.23,0.01
				c-0.06,0.01-0.12,0.02-0.16,0.04c-0.04,0.02-0.08,0.05-0.1,0.08s-0.03,0.08-0.03,0.13c0,0.05,0.01,0.1,0.03,0.13
				c0.02,0.04,0.06,0.06,0.1,0.08c0.04,0.02,0.1,0.03,0.17,0.04c0.07,0.01,0.14,0.01,0.23,0.01c0.09,0,0.17,0,0.23-0.01
				c0.06-0.01,0.11-0.02,0.16-0.04c0.04-0.02,0.08-0.05,0.1-0.08c0.02-0.04,0.04-0.08,0.04-0.14c0-0.05-0.01-0.1-0.03-0.13
				C24.4,75.99,24.37,75.97,24.32,75.95z"/>
			<path class="st10" d="M23.93,74.77c0.23,0,0.4,0.04,0.51,0.11s0.16,0.18,0.16,0.34c0,0.15-0.05,0.27-0.16,0.34
				c-0.11,0.07-0.28,0.11-0.5,0.11c-0.23,0-0.4-0.04-0.51-0.11c-0.11-0.07-0.16-0.18-0.16-0.34c0-0.15,0.06-0.27,0.17-0.34
				S23.71,74.77,23.93,74.77z M24.32,75c-0.05-0.02-0.1-0.03-0.16-0.04c-0.06-0.01-0.14-0.01-0.23-0.01c-0.09,0-0.16,0-0.23,0.01
				c-0.06,0.01-0.12,0.02-0.16,0.04c-0.04,0.02-0.08,0.05-0.1,0.08s-0.03,0.08-0.03,0.13c0,0.05,0.01,0.1,0.03,0.13
				c0.02,0.04,0.06,0.06,0.1,0.08c0.04,0.02,0.1,0.03,0.17,0.04c0.07,0.01,0.14,0.01,0.23,0.01c0.09,0,0.17,0,0.23-0.01
				c0.06-0.01,0.11-0.02,0.16-0.04c0.04-0.02,0.08-0.05,0.1-0.08c0.02-0.04,0.04-0.08,0.04-0.14c0-0.05-0.01-0.1-0.03-0.13
				C24.4,75.05,24.37,75.02,24.32,75z"/>
			<path class="st10" d="M24.58,73.82v0.87H24.4c-0.05-0.06-0.1-0.12-0.16-0.18c-0.05-0.06-0.1-0.12-0.15-0.17
				c-0.11-0.11-0.19-0.19-0.26-0.23c-0.06-0.04-0.13-0.06-0.2-0.06c-0.07,0-0.12,0.02-0.16,0.07c-0.04,0.04-0.06,0.11-0.06,0.18
				c0,0.05,0.01,0.11,0.03,0.17c0.02,0.06,0.05,0.12,0.08,0.18v0.01h-0.18c-0.02-0.04-0.04-0.1-0.06-0.16
				c-0.02-0.07-0.03-0.13-0.03-0.2c0-0.13,0.03-0.24,0.1-0.31c0.06-0.07,0.15-0.11,0.26-0.11c0.05,0,0.09,0.01,0.14,0.02
				c0.04,0.01,0.08,0.03,0.12,0.06c0.04,0.02,0.07,0.05,0.11,0.08c0.03,0.03,0.07,0.07,0.11,0.11c0.06,0.06,0.12,0.13,0.18,0.19
				s0.11,0.13,0.16,0.18v-0.69H24.58z"/>
		</g>
	</g>
	<g>
		<g id="XMLID_12_">
			<g>
				<rect x="13.38" y="57.57" class="st11" width="4.26" height="3.44"/>
			</g>
			<g>
			</g>
		</g>
		<g id="XMLID_11_">
			<g>
				<rect x="13.34" y="50.44" class="st11" width="4.26" height="3.44"/>
			</g>
			<g>
			</g>
		</g>
		<g id="XMLID_10_">
			<g>
				<rect x="13.69" y="53.11" class="st9" width="3.61" height="5.16"/>
			</g>
			<g>
			</g>
		</g>
		<g>
			<path class="st10" d="M16.04,56.63v0.7h-0.13v-0.27h-0.86v0.27h-0.12c0-0.04,0-0.08-0.01-0.12c-0.01-0.04-0.01-0.07-0.03-0.09
				c-0.01-0.03-0.03-0.05-0.05-0.06c-0.02-0.02-0.05-0.02-0.09-0.03V56.9h1.16v-0.26H16.04z"/>
			<path class="st10" d="M15.4,55.61c0.23,0,0.4,0.04,0.51,0.11s0.16,0.18,0.16,0.34c0,0.15-0.05,0.27-0.16,0.34
				c-0.11,0.07-0.28,0.11-0.5,0.11c-0.23,0-0.4-0.04-0.51-0.11c-0.11-0.07-0.16-0.18-0.16-0.34c0-0.15,0.06-0.27,0.17-0.34
				S15.17,55.61,15.4,55.61z M15.79,55.84c-0.05-0.02-0.1-0.03-0.16-0.04c-0.06-0.01-0.14-0.01-0.23-0.01c-0.09,0-0.16,0-0.23,0.01
				s-0.12,0.02-0.16,0.04c-0.04,0.02-0.08,0.05-0.1,0.08c-0.02,0.03-0.03,0.08-0.03,0.13s0.01,0.1,0.03,0.13s0.06,0.06,0.1,0.08
				c0.04,0.02,0.1,0.03,0.17,0.04c0.07,0.01,0.14,0.01,0.23,0.01c0.09,0,0.17,0,0.23-0.01c0.06-0.01,0.11-0.02,0.16-0.04
				c0.04-0.02,0.08-0.05,0.1-0.08c0.02-0.03,0.04-0.08,0.04-0.14c0-0.05-0.01-0.1-0.03-0.13C15.87,55.89,15.84,55.86,15.79,55.84z"
				/>
			<path class="st10" d="M15.4,54.66c0.23,0,0.4,0.04,0.51,0.11s0.16,0.18,0.16,0.34c0,0.15-0.05,0.27-0.16,0.34
				c-0.11,0.07-0.28,0.11-0.5,0.11c-0.23,0-0.4-0.04-0.51-0.11c-0.11-0.07-0.16-0.18-0.16-0.34c0-0.15,0.06-0.27,0.17-0.34
				S15.17,54.66,15.4,54.66z M15.79,54.89c-0.05-0.02-0.1-0.03-0.16-0.04c-0.06-0.01-0.14-0.01-0.23-0.01c-0.09,0-0.16,0-0.23,0.01
				s-0.12,0.02-0.16,0.04c-0.04,0.02-0.08,0.05-0.1,0.08c-0.02,0.03-0.03,0.08-0.03,0.13s0.01,0.1,0.03,0.13s0.06,0.06,0.1,0.08
				c0.04,0.02,0.1,0.03,0.17,0.04c0.07,0.01,0.14,0.01,0.23,0.01c0.09,0,0.17,0,0.23-0.01c0.06-0.01,0.11-0.02,0.16-0.04
				c0.04-0.02,0.08-0.05,0.1-0.08c0.02-0.03,0.04-0.08,0.04-0.14c0-0.05-0.01-0.1-0.03-0.13C15.87,54.94,15.84,54.91,15.79,54.89z"
				/>
			<path class="st10" d="M16.04,53.79v0.7h-0.13v-0.27h-0.86v0.27h-0.12c0-0.04,0-0.08-0.01-0.12c-0.01-0.04-0.01-0.07-0.03-0.09
				c-0.01-0.03-0.03-0.05-0.05-0.06c-0.02-0.02-0.05-0.02-0.09-0.03v-0.13h1.16v-0.26H16.04z"/>
		</g>
	</g>
	<g>
		<g id="XMLID_9_">
			<g>
				<rect x="67.87" y="55.68" class="st11" width="3.44" height="4.26"/>
			</g>
			<g>
			</g>
		</g>
		<g id="XMLID_8_">
			<g>
				<rect x="60.74" y="55.72" class="st11" width="3.44" height="4.26"/>
			</g>
			<g>
			</g>
		</g>
		<g id="XMLID_7_">
			<g>
				<rect x="63.41" y="56.02" class="st9" width="5.16" height="3.61"/>
			</g>
			<g>
			</g>
		</g>
		<g>
			<path class="st10" d="M66.93,57.28h0.7v0.13h-0.27v0.86h0.27v0.12c-0.04,0-0.08,0-0.12,0.01c-0.04,0.01-0.07,0.01-0.09,0.03
				c-0.03,0.01-0.05,0.03-0.06,0.05c-0.02,0.02-0.02,0.05-0.03,0.09H67.2v-1.16h-0.26V57.28z"/>
			<path class="st10" d="M65.91,57.93c0-0.23,0.04-0.4,0.11-0.51s0.18-0.16,0.34-0.16c0.15,0,0.27,0.05,0.34,0.16
				s0.11,0.28,0.11,0.5c0,0.23-0.04,0.4-0.11,0.51c-0.07,0.11-0.18,0.16-0.34,0.16c-0.15,0-0.27-0.06-0.34-0.17
				C65.95,58.32,65.91,58.15,65.91,57.93z M66.14,57.53c-0.02,0.05-0.03,0.1-0.04,0.17c-0.01,0.06-0.01,0.14-0.01,0.23
				c0,0.09,0,0.16,0.01,0.23s0.02,0.12,0.04,0.16s0.05,0.08,0.08,0.1c0.03,0.02,0.08,0.03,0.13,0.03s0.1-0.01,0.13-0.03
				c0.04-0.02,0.06-0.06,0.08-0.1c0.02-0.04,0.03-0.1,0.04-0.17c0.01-0.07,0.01-0.14,0.01-0.23c0-0.09,0-0.17-0.01-0.23
				c-0.01-0.06-0.02-0.12-0.04-0.16c-0.02-0.04-0.05-0.08-0.08-0.1c-0.03-0.02-0.08-0.04-0.14-0.04c-0.05,0-0.1,0.01-0.13,0.03
				C66.19,57.46,66.16,57.49,66.14,57.53z"/>
			<path class="st10" d="M64.96,57.93c0-0.23,0.04-0.4,0.11-0.51s0.18-0.16,0.34-0.16c0.15,0,0.27,0.05,0.34,0.16
				s0.11,0.28,0.11,0.5c0,0.23-0.04,0.4-0.11,0.51c-0.07,0.11-0.18,0.16-0.34,0.16c-0.15,0-0.27-0.06-0.34-0.17
				C65,58.32,64.96,58.15,64.96,57.93z M65.19,57.53c-0.02,0.05-0.03,0.1-0.04,0.17c-0.01,0.06-0.01,0.14-0.01,0.23
				c0,0.09,0,0.16,0.01,0.23s0.02,0.12,0.04,0.16s0.05,0.08,0.08,0.1c0.03,0.02,0.08,0.03,0.13,0.03s0.1-0.01,0.13-0.03
				c0.04-0.02,0.06-0.06,0.08-0.1c0.02-0.04,0.03-0.1,0.04-0.17c0.01-0.07,0.01-0.14,0.01-0.23c0-0.09,0-0.17-0.01-0.23
				c-0.01-0.06-0.02-0.12-0.04-0.16c-0.02-0.04-0.05-0.08-0.08-0.1c-0.03-0.02-0.08-0.04-0.14-0.04c-0.05,0-0.1,0.01-0.13,0.03
				C65.24,57.46,65.21,57.49,65.19,57.53z"/>
			<path class="st10" d="M64.01,57.28h0.87v0.18c-0.06,0.05-0.12,0.1-0.18,0.16c-0.06,0.05-0.12,0.1-0.17,0.15
				c-0.11,0.11-0.19,0.19-0.23,0.26c-0.04,0.06-0.06,0.13-0.06,0.2c0,0.07,0.02,0.12,0.07,0.16c0.04,0.04,0.11,0.06,0.18,0.06
				c0.05,0,0.11-0.01,0.17-0.03c0.06-0.02,0.12-0.05,0.18-0.09h0.01v0.18c-0.04,0.02-0.1,0.04-0.16,0.06s-0.13,0.03-0.2,0.03
				c-0.13,0-0.24-0.03-0.31-0.1s-0.11-0.15-0.11-0.26c0-0.05,0.01-0.09,0.02-0.14c0.01-0.04,0.03-0.08,0.05-0.12
				c0.02-0.04,0.05-0.07,0.08-0.11c0.03-0.03,0.07-0.07,0.11-0.12c0.06-0.06,0.13-0.12,0.19-0.18c0.07-0.06,0.13-0.11,0.18-0.16
				h-0.69V57.28z"/>
		</g>
	</g>
	<g>
		<g>
			<path class="st13" d="M42.52,55.54c-2.27,0-4.1,1.84-4.1,4.12c0,2.28,1.84,4.12,4.1,4.12c2.27,0,4.1-1.84,4.1-4.12
				C46.62,57.39,44.79,55.54,42.52,55.54z M42.52,62.69c-1.67,0-3.03-1.36-3.03-3.03c0-1.67,1.36-3.03,3.03-3.03
				c1.67,0,3.03,1.36,3.03,3.03C45.55,61.34,44.19,62.69,42.52,62.69z"/>
			<path class="st4" d="M42.52,62.69c-1.67,0-3.03-1.36-3.03-3.03c0-1.67,1.36-3.03,3.03-3.03c1.67,0,3.03,1.36,3.03,3.03
				C45.55,61.34,44.19,62.69,42.52,62.69z"/>
		</g>
		<g>
			<path class="st13" d="M42.52,20.37c-2.27,0-4.1,1.84-4.1,4.12c0,2.28,1.84,4.12,4.1,4.12c2.27,0,4.1-1.84,4.1-4.12
				C46.62,22.21,44.79,20.37,42.52,20.37z M42.52,27.52c-1.67,0-3.03-1.36-3.03-3.03c0-1.67,1.36-3.03,3.03-3.03
				c1.67,0,3.03,1.36,3.03,3.03C45.55,26.16,44.19,27.52,42.52,27.52z"/>
			<path class="st4" d="M42.52,27.52c-1.67,0-3.03-1.36-3.03-3.03c0-1.67,1.36-3.03,3.03-3.03c1.67,0,3.03,1.36,3.03,3.03
				C45.55,26.16,44.19,27.52,42.52,27.52z"/>
		</g>
		<path class="st6" d="M64.46,47.15c1.54,2.02-0.17,4.27-2.18,3.78c-0.77-0.19-1.41-0.82-1.6-1.6
			C60.19,47.33,62.44,45.61,64.46,47.15z"/>
		<ellipse class="st7" cx="62.83" cy="48.78" rx="1.53" ry="1.52"/>
		<path class="st6" d="M64.46,40.32c1.54,2.02-0.17,4.27-2.18,3.78c-0.77-0.19-1.41-0.82-1.6-1.6
			C60.19,40.49,62.44,38.78,64.46,40.32z"/>
		<ellipse class="st7" cx="62.83" cy="41.95" rx="1.53" ry="1.52"/>
		<path class="st6" d="M64.46,33.48c1.54,2.02-0.17,4.27-2.18,3.78c-0.77-0.19-1.41-0.82-1.6-1.6
			C60.19,33.66,62.44,31.94,64.46,33.48z"/>
		<ellipse class="st7" cx="62.83" cy="35.11" rx="1.53" ry="1.52"/>
		<path class="st14" d="M56.36,59.66H28.68c-1.74,0-3.17-1.43-3.17-3.17V27.4c0-1.74,1.43-3.17,3.17-3.17h27.67
			c1.74,0,3.17,1.43,3.17,3.17v29.09C59.53,58.24,58.1,59.66,56.36,59.66z"/>
		<path class="st15" d="M55.62,24.23H46.4v0.51h-7.71v-0.51h-9.23c-1.76,0-3.95,2.15-3.95,3.91v13.81v13.81
			c0,1.76,2.15,3.91,3.91,3.91h9.22v-0.51h7.71v0.51h9.23c1.76,0,3.95-2.15,3.95-3.91v-11.6h-1v-4.42h1v-11.6
			C59.53,26.38,57.38,24.23,55.62,24.23z"/>
		<rect x="38.69" y="24.23" class="st16" width="7.71" height="0.51"/>
		
			<rect x="38.64" y="59.15" transform="matrix(-1 -1.224647e-16 1.224647e-16 -1 84.9922 118.8105)" class="st16" width="7.71" height="0.51"/>
		<g>
			<rect x="38.69" y="24.74" class="st17" width="7.71" height="8.33"/>
			<rect x="38.64" y="51.65" class="st17" width="7.71" height="7.49"/>
			<circle class="st17" cx="42.54" cy="41.95" r="10.58"/>
		</g>
		<circle class="st18" cx="42.52" cy="41.95" r="9.95"/>
		<g id="XMLID_2_">
			<g>
				<path class="st16" d="M49.62,37.27c0.89,1.34,1.4,2.95,1.4,4.67c0,4.7-3.81,8.5-8.5,8.5c-1.82,0-3.51-0.57-4.89-1.55
					L49.62,37.27z"/>
				<path class="st19" d="M49.62,37.27L37.63,48.89c-0.88-0.61-1.63-1.39-2.21-2.28l11.77-11.77C48.15,35.48,48.98,36.3,49.62,37.27
					z"/>
				<path class="st16" d="M47.19,34.84L35.42,46.61c-0.89-1.34-1.4-2.95-1.4-4.67c0-4.69,3.8-8.5,8.5-8.5
					C44.25,33.44,45.85,33.95,47.19,34.84z"/>
			</g>
			<g>
			</g>
		</g>
		<rect x="58.52" y="39.74" class="st16" width="1" height="4.42"/>
		<rect x="59.53" y="47.36" class="st20" width="3.31" height="2.83"/>
		<rect x="59.53" y="40.53" class="st20" width="3.31" height="2.83"/>
		<rect x="59.53" y="33.69" class="st20" width="3.31" height="2.83"/>
		<path class="st6" d="M20.64,36.74c-1.54-2.02,0.17-4.27,2.18-3.78c0.77,0.19,1.41,0.82,1.6,1.6
			C24.91,36.56,22.66,38.28,20.64,36.74z"/>
		<ellipse class="st7" cx="22.27" cy="35.11" rx="1.53" ry="1.52"/>
		<path class="st6" d="M20.64,50.41c-1.54-2.02,0.17-4.27,2.18-3.78c0.77,0.19,1.41,0.82,1.6,1.6
			C24.91,50.23,22.66,51.95,20.64,50.41z"/>
		<ellipse class="st7" cx="22.27" cy="48.78" rx="1.53" ry="1.52"/>
		
			<rect x="22.27" y="33.69" transform="matrix(-1 -1.224647e-16 1.224647e-16 -1 47.7799 70.2216)" class="st20" width="3.24" height="2.83"/>
		
			<rect x="22.27" y="47.36" transform="matrix(-1 -1.224647e-16 1.224647e-16 -1 47.7799 97.5602)" class="st20" width="3.24" height="2.83"/>
	</g>
	<g id="Микроконтроллер">
		<path class="st21" d="M19.96,28.34H1.68c-0.16,0-0.28,0.13-0.28,0.28v0.51h18.85v-0.51C20.25,28.46,20.12,28.34,19.96,28.34z"/>
		<path class="st21" d="M20.25,41.16H1.4v0.51c0,0.16,0.13,0.28,0.28,0.28h18.28c0.16,0,0.28-0.13,0.28-0.28V41.16z"/>
		<g id="XMLID_41_">
			<g>
				<rect x="11.05" y="24.72" class="st22" width="1.42" height="2.05"/>
			</g>
			<g>
			</g>
		</g>
		<line class="st23" x1="11.75" y1="25.35" x2="11.75" y2="29.05"/>
		<g id="XMLID_44_">
			<g>
				<rect x="9.18" y="24.72" class="st22" width="1.42" height="2.05"/>
			</g>
			<g>
			</g>
		</g>
		<line class="st23" x1="9.89" y1="25.35" x2="9.89" y2="29.05"/>
		<g id="XMLID_43_">
			<g>
				<rect x="7.31" y="24.72" class="st22" width="1.42" height="2.05"/>
			</g>
			<g>
			</g>
		</g>
		<line class="st23" x1="8.02" y1="25.35" x2="8.02" y2="29.05"/>
		<g id="XMLID_37_">
			<g>
				<rect x="5.44" y="24.72" class="st22" width="1.42" height="2.05"/>
			</g>
			<g>
			</g>
		</g>
		<line class="st23" x1="6.15" y1="25.35" x2="6.15" y2="29.05"/>
		<g id="XMLID_36_">
			<g>
				<rect x="3.57" y="24.72" class="st22" width="1.42" height="2.05"/>
			</g>
			<g>
			</g>
		</g>
		<line class="st23" x1="4.28" y1="25.35" x2="4.28" y2="29.05"/>
		<g id="XMLID_35_">
			<g>
				<rect x="1.7" y="24.72" class="st22" width="1.42" height="2.05"/>
			</g>
			<g>
			</g>
		</g>
		<line class="st23" x1="2.41" y1="25.35" x2="2.41" y2="29.05"/>
		<line class="st24" x1="2.41" y1="29.05" x2="2.41" y2="28.34"/>
		<line class="st24" x1="4.28" y1="29.05" x2="4.28" y2="28.34"/>
		<line class="st24" x1="6.15" y1="29.05" x2="6.15" y2="28.34"/>
		<line class="st24" x1="8.02" y1="29.05" x2="8.02" y2="28.34"/>
		<line class="st24" x1="9.89" y1="29.05" x2="9.89" y2="28.34"/>
		<line class="st24" x1="11.75" y1="29.05" x2="11.75" y2="28.34"/>
		<g id="XMLID_34_">
			<g>
				<rect x="18.52" y="24.72" class="st22" width="1.42" height="2.05"/>
			</g>
			<g>
			</g>
		</g>
		<line class="st23" x1="19.23" y1="25.35" x2="19.23" y2="29.05"/>
		<g id="XMLID_33_">
			<g>
				<rect x="16.65" y="24.72" class="st22" width="1.42" height="2.05"/>
			</g>
			<g>
			</g>
		</g>
		<line class="st23" x1="17.36" y1="25.35" x2="17.36" y2="29.05"/>
		<g id="XMLID_32_">
			<g>
				<rect x="14.78" y="24.72" class="st22" width="1.42" height="2.05"/>
			</g>
			<g>
			</g>
		</g>
		<line class="st23" x1="15.49" y1="25.35" x2="15.49" y2="29.05"/>
		<g id="XMLID_31_">
			<g>
				<rect x="12.92" y="24.72" class="st22" width="1.42" height="2.05"/>
			</g>
			<g>
			</g>
		</g>
		<line class="st23" x1="13.62" y1="25.35" x2="13.62" y2="29.05"/>
		<line class="st24" x1="13.62" y1="29.05" x2="13.62" y2="28.34"/>
		<line class="st24" x1="15.49" y1="29.05" x2="15.49" y2="28.34"/>
		<line class="st24" x1="17.36" y1="29.05" x2="17.36" y2="28.34"/>
		<line class="st24" x1="19.23" y1="29.05" x2="19.23" y2="28.34"/>
		<g id="XMLID_30_">
			<g>
				<rect x="9.18" y="43.5" class="st22" width="1.42" height="2.05"/>
			</g>
			<g>
			</g>
		</g>
		<line class="st23" x1="9.89" y1="44.93" x2="9.89" y2="41.24"/>
		<g id="XMLID_29_">
			<g>
				<rect x="11.05" y="43.5" class="st22" width="1.42" height="2.05"/>
			</g>
			<g>
			</g>
		</g>
		<line class="st23" x1="11.76" y1="44.93" x2="11.76" y2="41.24"/>
		<g id="XMLID_28_">
			<g>
				<rect x="12.92" y="43.5" class="st22" width="1.42" height="2.05"/>
			</g>
			<g>
			</g>
		</g>
		<line class="st23" x1="13.62" y1="44.93" x2="13.62" y2="41.24"/>
		<g id="XMLID_27_">
			<g>
				<rect x="14.78" y="43.5" class="st22" width="1.42" height="2.05"/>
			</g>
			<g>
			</g>
		</g>
		<line class="st23" x1="15.49" y1="44.93" x2="15.49" y2="41.24"/>
		<g id="XMLID_26_">
			<g>
				<rect x="16.65" y="43.5" class="st22" width="1.42" height="2.05"/>
			</g>
			<g>
			</g>
		</g>
		<line class="st23" x1="17.36" y1="44.93" x2="17.36" y2="41.24"/>
		<g id="XMLID_25_">
			<g>
				<rect x="18.52" y="43.5" class="st22" width="1.42" height="2.05"/>
			</g>
			<g>
			</g>
		</g>
		<line class="st23" x1="19.23" y1="44.93" x2="19.23" y2="41.24"/>
		<line class="st24" x1="19.23" y1="41.24" x2="19.23" y2="41.95"/>
		<line class="st24" x1="17.36" y1="41.24" x2="17.36" y2="41.95"/>
		<line class="st24" x1="15.49" y1="41.24" x2="15.49" y2="41.95"/>
		<line class="st24" x1="13.62" y1="41.24" x2="13.62" y2="41.95"/>
		<line class="st24" x1="11.76" y1="41.24" x2="11.76" y2="41.95"/>
		<line class="st24" x1="9.89" y1="41.24" x2="9.89" y2="41.95"/>
		<g id="XMLID_24_">
			<g>
				<rect x="1.7" y="43.5" class="st22" width="1.42" height="2.05"/>
			</g>
			<g>
			</g>
		</g>
		<line class="st23" x1="2.41" y1="44.93" x2="2.41" y2="41.24"/>
		<g id="XMLID_23_">
			<g>
				<rect x="3.57" y="43.5" class="st22" width="1.42" height="2.05"/>
			</g>
			<g>
			</g>
		</g>
		<line class="st23" x1="4.28" y1="44.93" x2="4.28" y2="41.24"/>
		<g id="XMLID_22_">
			<g>
				<rect x="5.44" y="43.5" class="st22" width="1.42" height="2.05"/>
			</g>
			<g>
			</g>
		</g>
		<line class="st23" x1="6.15" y1="44.93" x2="6.15" y2="41.24"/>
		<g id="XMLID_5_">
			<g>
				<rect x="7.31" y="43.5" class="st22" width="1.42" height="2.05"/>
			</g>
			<g>
			</g>
		</g>
		<line class="st23" x1="8.02" y1="44.93" x2="8.02" y2="41.24"/>
		<line class="st24" x1="8.02" y1="41.24" x2="8.02" y2="41.95"/>
		<line class="st24" x1="6.15" y1="41.24" x2="6.15" y2="41.95"/>
		<line class="st24" x1="4.28" y1="41.24" x2="4.28" y2="41.95"/>
		<line class="st24" x1="2.41" y1="41.24" x2="2.41" y2="41.95"/>
		<path class="st25" d="M20.17,41.24H1.47c-0.04,0-0.07-0.04-0.07-0.08V29.12c0-0.04,0.03-0.08,0.07-0.08h18.71
			c0.04,0,0.07,0.04,0.07,0.08v4.39v3.25v4.39C20.25,41.2,20.21,41.24,20.17,41.24z"/>
	</g>
	<g>
	</g>
	<g>
	</g>
	<g>
	</g>
	<g>
	</g>
	<g>
	</g>
</g>
</svg>
