<?xml version="1.0" encoding="utf-8"?>
<!-- Generator: Adobe Illustrator 22.0.1, SVG Export Plug-In . SVG Version: 6.00 Build 0)  -->
<svg version="1.1" id="Слой_1" xmlns="http://www.w3.org/2000/svg" xmlns:xlink="http://www.w3.org/1999/xlink" x="0px" y="0px"
	 viewBox="0 0 115.5574951 243.1165466" style="enable-background:new 0 0 115.5574951 243.1165466;" xml:space="preserve">
<style type="text/css">
	.st0{fill:#E2E2E2;stroke:#000000;stroke-width:2.1716676;stroke-miterlimit:10;}
	.st1{fill:#D24A43;}
	.st2{fill:#74B65F;}
	.st3{fill:#68A99B;}
	.st4{fill:#81589F;}
	.st5{fill:#3B4167;}
	.st6{fill:#292C2C;}
	.st7{fill:#FFFFFF;}
	.st8{fill:none;stroke:#FFFFFF;stroke-miterlimit:10;}
</style>
<g>
	<path class="st0" d="M15.800293,1.0858338l83.9566727,0.0001783c8.0925217,0.0002222,14.7135696,4.9816904,14.7138672,11.0702457
		l0.0008316,218.8040161c-0.0002365,6.0886078-6.6215286,11.0702515-14.7141113,11.0704346l-83.9578476-0.0006256
		c-8.0925188,0.0002136-14.7135715-4.9812469-14.7132778-11.069809L1.0858338,12.1565228
		C1.0855386,6.0678802,7.7071218,1.0860112,15.800293,1.0858338z"/>
	<circle class="st1" cx="91.7944946" cy="29.4322891" r="11.338583"/>
	<circle class="st1" cx="58.0607986" cy="29.4322891" r="11.338583"/>
	<circle class="st1" cx="23.7629986" cy="29.4322891" r="11.338582"/>
	<circle class="st2" cx="91.7944946" cy="57.7787437" r="11.3385849"/>
	<circle class="st3" cx="58.0607986" cy="57.7787437" r="11.3385849"/>
	<circle class="st3" cx="23.7629986" cy="57.7787437" r="11.3385839"/>
	<circle class="st4" cx="91.7944946" cy="86.125206" r="11.3385849"/>
	<circle class="st5" cx="58.0607986" cy="86.125206" r="11.3385849"/>
	<circle class="st5" cx="23.7629986" cy="86.125206" r="11.3385839"/>
	<circle class="st6" cx="91.7944946" cy="114.4716644" r="11.3385849"/>
	<circle class="st6" cx="58.0607986" cy="114.4716644" r="11.3385849"/>
	<circle class="st6" cx="23.7629986" cy="114.4716644" r="11.3385839"/>
	<circle class="st6" cx="91.7944946" cy="142.8181152" r="11.3385811"/>
	<circle class="st6" cx="58.0607986" cy="142.8181152" r="11.3385811"/>
	<circle class="st6" cx="23.7629986" cy="142.8181152" r="11.3385801"/>
	<circle class="st6" cx="91.7944946" cy="171.164566" r="11.3385811"/>
	<circle class="st6" cx="58.0607986" cy="171.164566" r="11.3385811"/>
	<circle class="st6" cx="23.7629986" cy="171.164566" r="11.3385801"/>
	<circle class="st6" cx="91.7944946" cy="199.5110321" r="11.3385811"/>
	<circle class="st6" cx="58.0607986" cy="199.5110321" r="11.3385811"/>
	<circle class="st6" cx="23.7629986" cy="199.5110321" r="11.3385801"/>
	<g>
		<path class="st7" d="M24.2679291,147.9474182h-1.2714844v-8.4287109l-2.5498047,0.9365234v-1.1484375l3.6230469-1.3603516
			h0.1982422V147.9474182z"/>
	</g>
	<g>
		<path class="st7" d="M61.8758392,147.9474182h-6.5214844v-0.9091797l3.4453125-3.828125
			c0.5097656-0.5791016,0.8623047-1.0498047,1.0556641-1.4121094c0.1943359-0.3623047,0.2910156-0.7373047,0.2910156-1.1240234
			c0-0.5195313-0.1572266-0.9462891-0.4716797-1.2783203c-0.3144531-0.3330078-0.734375-0.4990234-1.2578125-0.4990234
			c-0.6289063,0-1.1176758,0.1787109-1.4663086,0.5361328c-0.3486328,0.3583984-0.5229492,0.8554688-0.5229492,1.4941406h-1.2646484
			c0-0.9160156,0.2949219-1.6572266,0.8852539-2.2216797c0.590332-0.5654297,1.3798828-0.8476563,2.3686523-0.8476563
			c0.9248047,0,1.65625,0.2421875,2.1943359,0.7275391c0.5371094,0.4853516,0.8066406,1.1318359,0.8066406,1.9384766
			c0,0.9794922-0.625,2.1464844-1.8730469,3.5l-2.6660156,2.8916016h4.9970703V147.9474182z"/>
	</g>
	<g>
		<path class="st7" d="M90.403183,142.3556213h0.9501953c0.5966797-0.0087891,1.0664063-0.1660156,1.4082031-0.4716797
			c0.3417969-0.3046875,0.5126953-0.7177734,0.5126953-1.2373047c0-1.1660156-0.5810547-1.75-1.7431641-1.75
			c-0.546875,0-0.9833984,0.15625-1.3095703,0.46875c-0.3251953,0.3115234-0.4882813,0.7255859-0.4882813,1.2402344h-1.2646484
			c0-0.7880859,0.2880859-1.4433594,0.8642578-1.9648438c0.5771484-0.5224609,1.3095703-0.7832031,2.1982422-0.7832031
			c0.9384766,0,1.6748047,0.2490234,2.2080078,0.7451172c0.5332031,0.4970703,0.7998047,1.1875,0.7998047,2.0712891
			c0,0.4335938-0.140625,0.8525391-0.4208984,1.2578125c-0.2802734,0.40625-0.6621094,0.7089844-1.1445313,0.9091797
			c0.546875,0.1738281,0.9697266,0.4609375,1.2675781,0.8613281c0.2988281,0.4013672,0.4482422,0.8916016,0.4482422,1.4697266
			c0,0.8935547-0.2919922,1.6025391-0.875,2.1259766c-0.5839844,0.5244141-1.3427734,0.7861328-2.2763672,0.7861328
			c-0.9345703,0-1.6943359-0.2529297-2.2802734-0.7587891c-0.5849609-0.5058594-0.8779297-1.1728516-0.8779297-2.0029297h1.2714844
			c0,0.5244141,0.1708984,0.9433594,0.5126953,1.2578125s0.7998047,0.4716797,1.3740234,0.4716797
			c0.6103516,0,1.0771484-0.1591797,1.4013672-0.4785156c0.3232422-0.3183594,0.4853516-0.7763672,0.4853516-1.3740234
			c0-0.578125-0.1777344-1.0224609-0.5332031-1.3330078c-0.3554688-0.3095703-0.8681641-0.46875-1.5380859-0.4785156H90.403183
			V142.3556213z"/>
	</g>
	<g>
		<path class="st7" d="M26.4158783,115.090004c0,1.480957-0.2529297,2.581543-0.7587891,3.3017578
			s-1.2963867,1.0800781-2.3720703,1.0800781c-1.0620117,0-1.8481445-0.3520508-2.3583984-1.0561523
			s-0.7749023-1.7558594-0.7929688-3.1547852v-1.6884766c0-1.4628906,0.2529297-2.5498047,0.7587891-3.2607422
			s1.2988281-1.0664063,2.3789063-1.0664063c1.0708008,0,1.859375,0.3427734,2.3652344,1.0288086
			s0.765625,1.7441406,0.7792969,3.175293V115.090004z M25.1512299,113.3605118
			c0-1.0708008-0.1503906-1.8515625-0.4511719-2.3413086s-0.7768555-0.7348633-1.4287109-0.7348633
			c-0.6469727,0-1.1186523,0.2436523-1.4150391,0.7314453s-0.4487305,1.2373047-0.4580078,2.2490234v2.0234375
			c0,1.0756836,0.15625,1.8696289,0.4682617,2.3823242s0.7851563,0.769043,1.418457,0.769043
			c0.6245117,0,1.0878906-0.2416992,1.3911133-0.7246094s0.4614258-1.2441406,0.4750977-2.2832031V113.3605118z"/>
	</g>
	<g>
		<path class="st7" d="M52.7606049,118.8375626h-1.0898438v-7.2246094l-2.1855469,0.8027344v-0.984375l3.1054688-1.1660156
			h0.1699219V118.8375626z"/>
		<path class="st7" d="M58.2982025,115.1988907c0,1.2695313-0.2167969,2.2128906-0.6503906,2.8300781
			s-1.1113281,0.9257813-2.0332031,0.9257813c-0.9101563,0-1.5839844-0.3017578-2.0214844-0.9052734
			s-0.6640625-1.5048828-0.6796875-2.7041016v-1.4472656c0-1.2539063,0.2167969-2.1855469,0.6503906-2.7949219
			s1.1132813-0.9140625,2.0390625-0.9140625c0.9179688,0,1.59375,0.2939453,2.0273438,0.8818359
			s0.65625,1.4951172,0.6679688,2.7216797V115.1988907z M57.2142181,113.7164688
			c0-0.9179688-0.1289063-1.5869141-0.3867188-2.0068359s-0.6660156-0.6298828-1.2246094-0.6298828
			c-0.5546875,0-0.9589844,0.2089844-1.2128906,0.6269531s-0.3847656,1.0605469-0.3925781,1.9277344v1.734375
			c0,0.921875,0.1337891,1.6025391,0.4013672,2.0419922s0.6728516,0.6591797,1.2158203,0.6591797
			c0.5351563,0,0.9326172-0.2070313,1.1923828-0.6210938s0.3955078-1.0664063,0.4072266-1.9570313V113.7164688z"/>
		<path class="st7" d="M63.865097,115.1988907c0,1.2695313-0.2167969,2.2128906-0.6503906,2.8300781
			s-1.1113281,0.9257813-2.0332031,0.9257813c-0.9101563,0-1.5839844-0.3017578-2.0214844-0.9052734
			s-0.6645508-1.5048828-0.6801758-2.7041016v-1.4472656c0-1.2539063,0.2172852-2.1855469,0.6508789-2.7949219
			s1.1132813-0.9140625,2.0390625-0.9140625c0.9179688,0,1.59375,0.2939453,2.0273438,0.8818359
			s0.65625,1.4951172,0.6679688,2.7216797V115.1988907z M62.7811127,113.7164688
			c0-0.9179688-0.1289063-1.5869141-0.3867188-2.0068359s-0.6660156-0.6298828-1.2246094-0.6298828
			c-0.5546875,0-0.9589844,0.2089844-1.2128906,0.6269531s-0.3847656,1.0605469-0.3925781,1.9277344v1.734375
			c0,0.921875,0.1337891,1.6025391,0.4013672,2.0419922s0.6728516,0.6591797,1.2158203,0.6591797
			c0.5351563,0,0.9326172-0.2070313,1.1923828-0.6210938s0.3955078-1.0664063,0.4072266-1.9570313V113.7164688z"/>
	</g>
	<g>
		<path class="st7" d="M93.6404877,166.0675354v1.0732422h-0.2324219c-0.984375,0.0185547-1.7685547,0.3105469-2.3515625,0.875
			c-0.5839844,0.5654297-0.9208984,1.3603516-1.0117188,2.3857422c0.5234375-0.6015625,1.2392578-0.9023438,2.1464844-0.9023438
			c0.8652344,0,1.5576172,0.3056641,2.0742188,0.9160156c0.5175781,0.6113281,0.7763672,1.3994141,0.7763672,2.3652344
			c0,1.0253906-0.2792969,1.8457031-0.8378906,2.4609375c-0.5576172,0.6152344-1.3066406,0.9228516-2.2451172,0.9228516
			c-0.953125,0-1.7255859-0.3652344-2.3173828-1.0966797c-0.5927734-0.7314453-0.8886719-1.6738281-0.8886719-2.8271484v-0.4853516
			c0-1.8320313,0.390625-3.2324219,1.171875-4.2001953c0.7822266-0.96875,1.9453125-1.4638672,3.4902344-1.4873047H93.6404877z
			 M91.9793549,170.5519104c-0.4335938,0-0.8320313,0.1298828-1.1962891,0.3896484
			c-0.3652344,0.2597656-0.6181641,0.5859375-0.7587891,0.9775391v0.4648438c0,0.8203125,0.1845703,1.4814453,0.5537109,1.9824219
			c0.3691406,0.5019531,0.8291016,0.7519531,1.3808594,0.7519531c0.5693359,0,1.0175781-0.2089844,1.3427734-0.6289063
			c0.3261719-0.4189453,0.4892578-0.9677734,0.4892578-1.6474609c0-0.6835938-0.1650391-1.2363281-0.4960938-1.6572266
			C92.9647064,170.7628479,92.5262299,170.5519104,91.9793549,170.5519104z"/>
	</g>
	<g>
		<path class="st7" d="M55.4993744,171.037262l0.5058594-4.9628906h5.1000977v1.1689453H57.078476l-0.3007813,2.7138672
			c0.487793-0.2871094,1.0415039-0.4306641,1.6611328-0.4306641c0.9067383,0,1.6274414,0.2998047,2.1606445,0.8994141
			c0.5332031,0.5986328,0.7998047,1.4091797,0.7998047,2.4296875c0,1.0253906-0.2773438,1.8330078-0.8310547,2.4238281
			c-0.5537109,0.5898438-1.3271484,0.8847656-2.3208008,0.8847656c-0.8793945,0-1.597168-0.2431641-2.1533203-0.7314453
			c-0.5561523-0.4873047-0.8725586-1.1621094-0.9501953-2.0234375h1.1962891
			c0.0776367,0.5703125,0.2802734,0.9990234,0.6083984,1.2890625c0.328125,0.2890625,0.7612305,0.4335938,1.2988281,0.4335938
			c0.5883789,0,1.0493164-0.2001953,1.3842773-0.6015625c0.3349609-0.4003906,0.5029297-0.9541016,0.5029297-1.6611328
			c0-0.6650391-0.1816406-1.1992188-0.5439453-1.6025391s-0.84375-0.6054688-1.4458008-0.6054688
			c-0.5512695,0-0.984375,0.1210938-1.2988281,0.3623047l-0.3349609,0.2734375L55.4993744,171.037262z"/>
	</g>
	<g>
		<path class="st7" d="M25.1199799,172.6856995h1.3808594v1.0322266h-1.3808594v2.3105469h-1.2714844v-2.3105469h-4.5322266
			v-0.7451172l4.4570313-6.8974609h1.3466797V172.6856995z M20.7518158,172.6856995h3.0966797v-4.8808594l-0.1503906,0.2734375
			L20.7518158,172.6856995z"/>
	</g>
	<g>
		<path class="st7" d="M93.8367767,200.3126526c-0.2646484,0.3144531-0.5800781,0.5673828-0.9472656,0.7587891
			c-0.3662109,0.1914063-0.7685547,0.2871094-1.2060547,0.2871094c-0.5742188,0-1.0742188-0.140625-1.5009766-0.4238281
			c-0.4257813-0.2822266-0.7548828-0.6796875-0.9873047-1.1923828s-0.3486328-1.0791016-0.3486328-1.6992188
			c0-0.6650391,0.1259766-1.2646484,0.3789063-1.7978516s0.6123047-0.9404297,1.0771484-1.2236328
			c0.4648438-0.2822266,1.0068359-0.4238281,1.6269531-0.4238281c0.984375,0,1.7597656,0.3681641,2.3271484,1.1044922
			c0.5673828,0.7353516,0.8515625,1.7392578,0.8515625,3.0107422v0.3691406c0,1.9375-0.3828125,3.3505859-1.1484375,4.2421875
			c-0.765625,0.890625-1.9208984,1.3476563-3.4658203,1.3701172h-0.2460938v-1.0732422h0.2666016
			c1.0429688-0.0175781,1.8457031-0.2900391,2.40625-0.8154297
			C93.481308,202.2814026,93.7859955,201.4503479,93.8367767,200.3126526z M91.8885345,200.3126526
			c0.4238281,0,0.8144531-0.1298828,1.171875-0.3896484c0.3583984-0.2597656,0.6191406-0.5810547,0.7832031-0.9638672v-0.5058594
			c0-0.8291016-0.1806641-1.5039063-0.5400391-2.0234375c-0.3603516-0.5195313-0.8164063-0.7792969-1.3671875-0.7792969
			c-0.5566406,0-1.0029297,0.2128906-1.3398438,0.6396484c-0.3378906,0.4257813-0.5058594,0.9873047-0.5058594,1.6845703
			c0,0.6796875,0.1630859,1.2382813,0.4882813,1.6787109C90.9051361,200.092926,91.3416595,200.3126526,91.8885345,200.3126526z"/>
	</g>
	<g>
		<path class="st7" d="M60.9959564,197.3321838c0,0.4960938-0.1308594,0.9384766-0.3925781,1.3261719
			c-0.2626953,0.3867188-0.6162109,0.6904297-1.0634766,0.9091797c0.5195313,0.2226563,0.9306641,0.5488281,1.234375,0.9775391
			c0.3027344,0.4277344,0.4541016,0.9130859,0.4541016,1.4560547c0,0.8613281-0.2900391,1.546875-0.8710938,2.0576172
			c-0.5810547,0.5097656-1.3457031,0.765625-2.293457,0.765625c-0.9570313,0-1.7236328-0.2568359-2.300293-0.7695313
			s-0.8647461-1.1972656-0.8647461-2.0537109c0-0.5380859,0.1469727-1.0234375,0.440918-1.4560547
			c0.2939453-0.4335938,0.7006836-0.7617188,1.2202148-0.984375c-0.4418945-0.21875-0.7905273-0.5224609-1.0458984-0.9091797
			c-0.2553711-0.3876953-0.3828125-0.8271484-0.3828125-1.3193359c0-0.8388672,0.269043-1.5039063,0.8066406-1.9960938
			s1.246582-0.7382813,2.1259766-0.7382813c0.8745117,0,1.5825195,0.2460938,2.1225586,0.7382813
			S60.9959564,196.4933167,60.9959564,197.3321838z M59.9637299,201.9737854c0-0.5566406-0.1767578-1.0097656-0.5292969-1.3603516
			c-0.3535156-0.3515625-0.8144531-0.5263672-1.3842773-0.5263672s-1.0263672,0.1728516-1.3706055,0.5195313
			c-0.3442383,0.3457031-0.5161133,0.8017578-0.5161133,1.3671875c0,0.5644531,0.1674805,1.0087891,0.5024414,1.3330078
			c0.3349609,0.3232422,0.8007813,0.4853516,1.3979492,0.4853516c0.5922852,0,1.0571289-0.1630859,1.394043-0.4892578
			C59.7957611,202.9776917,59.9637299,202.5343323,59.9637299,201.9737854z M58.0638275,195.6368713
			c-0.496582,0-0.8989258,0.1533203-1.206543,0.4609375s-0.4614258,0.7255859-0.4614258,1.2548828
			c0,0.5058594,0.1513672,0.9150391,0.4545898,1.2265625c0.3032227,0.3125,0.7075195,0.46875,1.2133789,0.46875
			s0.909668-0.15625,1.2133789-0.46875c0.3027344-0.3115234,0.4541016-0.7207031,0.4541016-1.2265625
			s-0.1572266-0.9189453-0.4716797-1.2373047C58.9451752,195.796051,58.5467377,195.6368713,58.0638275,195.6368713z"/>
	</g>
	<g>
		<path class="st7" d="M27.0608978,195.4454651l-4.1220703,9.2421875h-1.3261719l4.1083984-8.9140625h-5.3867188v-1.0390625
			h6.7265625V195.4454651z"/>
	</g>
	<g>
		<path class="st7" d="M66.2547455,114.1725235h1.3876953v0.5981445h-1.3876953v1.5722656h-0.6357422v-1.5722656H64.231308
			v-0.5981445h1.3876953v-1.4526367h0.6357422V114.1725235z"/>
	</g>
	<g>
		<path class="st7" d="M87.5145111,118.8375626h-5.5898438v-0.7792969l2.953125-3.28125
			c0.4375-0.4960938,0.7392578-0.8994141,0.9052734-1.2099609s0.2490234-0.6318359,0.2490234-0.9638672
			c0-0.4453125-0.1347656-0.8105469-0.4042969-1.0957031s-0.6289063-0.4277344-1.078125-0.4277344
			c-0.5390625,0-0.9580078,0.1533203-1.2568359,0.4599609s-0.4482422,0.7333984-0.4482422,1.2802734h-1.0839844
			c0-0.7851563,0.2529297-1.4199219,0.7587891-1.9042969s1.1826172-0.7265625,2.0302734-0.7265625
			c0.7929688,0,1.4199219,0.2080078,1.8808594,0.6240234s0.6914063,0.9697266,0.6914063,1.6611328
			c0,0.8398438-0.5351563,1.8398438-1.6054688,3l-2.2851563,2.4785156h4.2832031V118.8375626z"/>
		<path class="st7" d="M92.8123627,115.1988907c0,1.2695313-0.2167969,2.2128906-0.6503906,2.8300781
			s-1.1113281,0.9257813-2.0332031,0.9257813c-0.9101563,0-1.5839844-0.3017578-2.0214844-0.9052734
			s-0.6640625-1.5048828-0.6796875-2.7041016v-1.4472656c0-1.2539063,0.2167969-2.1855469,0.6503906-2.7949219
			s1.1132813-0.9140625,2.0390625-0.9140625c0.9179688,0,1.59375,0.2939453,2.0273438,0.8818359
			s0.65625,1.4951172,0.6679688,2.7216797V115.1988907z M91.7283783,113.7164688
			c0-0.9179688-0.1289063-1.5869141-0.3867188-2.0068359s-0.6660156-0.6298828-1.2246094-0.6298828
			c-0.5546875,0-0.9589844,0.2089844-1.2128906,0.6269531s-0.3847656,1.0605469-0.3925781,1.9277344v1.734375
			c0,0.921875,0.1337891,1.6025391,0.4013672,2.0419922s0.6728516,0.6591797,1.2158203,0.6591797
			c0.5351563,0,0.9326172-0.2070313,1.1923828-0.6210938s0.3955078-1.0664063,0.4072266-1.9570313V113.7164688z"/>
		<path class="st7" d="M98.3504486,115.1988907c0,1.2695313-0.2167969,2.2128906-0.6503906,2.8300781
			s-1.1113281,0.9257813-2.0332031,0.9257813c-0.9101563,0-1.5839844-0.3017578-2.0214844-0.9052734
			s-0.6640625-1.5048828-0.6796875-2.7041016v-1.4472656c0-1.2539063,0.2167969-2.1855469,0.6503906-2.7949219
			s1.1132813-0.9140625,2.0390625-0.9140625c0.9179688,0,1.59375,0.2939453,2.0273438,0.8818359
			s0.65625,1.4951172,0.6679688,2.7216797V115.1988907z M97.2664642,113.7164688
			c0-0.9179688-0.1289063-1.5869141-0.3867188-2.0068359s-0.6660156-0.6298828-1.2246094-0.6298828
			c-0.5546875,0-0.9589844,0.2089844-1.2128906,0.6269531s-0.3847656,1.0605469-0.3925781,1.9277344v1.734375
			c0,0.921875,0.1337891,1.6025391,0.4013672,2.0419922s0.6728516,0.6591797,1.2158203,0.6591797
			c0.5351563,0,0.9326172-0.2070313,1.1923828-0.6210938s0.3955078-1.0664063,0.4072266-1.9570313V113.7164688z"/>
	</g>
	<g>
		<path class="st7" d="M100.7723236,114.1725235h1.3876953v0.5981445h-1.3876953v1.5722656h-0.6357422v-1.5722656h-1.3876953
			v-0.5981445h1.3876953v-1.4526367h0.6357422V114.1725235z"/>
	</g>
	<line class="st8" x1="17.9430046" y1="86.125206" x2="29.5829926" y2="86.125206"/>
	<line class="st8" x1="52.2408066" y1="86.125206" x2="63.8807907" y2="86.125206"/>
	<line class="st8" x1="58.0607986" y1="80.3052139" x2="58.0607986" y2="91.9452057"/>
	<g>
		<path class="st7" d="M91.2547455,86.7042618h-3.6972656v3.0234375h4.2949219v0.9199219h-5.4199219v-8.53125h5.3613281v0.9199219
			h-4.2363281v2.7480469h3.6972656V86.7042618z"/>
		<path class="st7" d="M98.568222,86.6573868c0,0.8242188-0.1308594,1.5341797-0.3925781,2.1298828
			s-0.6289063,1.0615234-1.1015625,1.3974609l1.5234375,1.1953125l-0.7675781,0.7089844l-1.7988281-1.4296875
			c-0.28125,0.0703125-0.578125,0.1054688-0.890625,0.1054688c-0.671875,0-1.2675781-0.1650391-1.7871094-0.4951172
			s-0.9228516-0.8007813-1.2099609-1.4121094s-0.4345703-1.3193359-0.4423828-2.1240234v-0.6152344
			c0-0.8203125,0.1425781-1.5449219,0.4277344-2.1738281s0.6884766-1.1103516,1.2099609-1.4443359
			s1.1181641-0.5009766,1.7900391-0.5009766c0.6875,0,1.2919922,0.1660156,1.8134766,0.4980469
			s0.9228516,0.8095703,1.2041016,1.4326172s0.421875,1.3505859,0.421875,2.1826172V86.6573868z M97.443222,86.1066055
			c0-1.0039063-0.2001953-1.7783203-0.6005859-2.3232422s-0.9716797-0.8173828-1.7138672-0.8173828
			c-0.7070313,0-1.2646484,0.2705078-1.6728516,0.8115234s-0.6181641,1.2919922-0.6298828,2.2529297v0.6269531
			c0,0.9765625,0.2041016,1.7460938,0.6123047,2.3085938s0.9755859,0.84375,1.7021484,0.84375s1.2890625-0.2646484,1.6875-0.7939453
			s0.6035156-1.2880859,0.6152344-2.2763672V86.1066055z"/>
	</g>
	<g>
		<polygon class="st8" points="63.3374786,57.7787437 58.3428497,51.885788 58.3428497,63.6717033 		"/>
		<polygon class="st8" points="58.0607986,57.7787437 53.0661774,51.885788 53.0661774,63.6717033 		"/>
		<line class="st8" x1="63.5137329" y1="50.5140419" x2="63.5137329" y2="64.9846344"/>
	</g>
	<g>
		<polygon class="st8" points="93.4924698,57.7493324 86.240097,51.8563766 86.240097,63.642292 		"/>
		<line class="st8" x1="97.4299622" y1="50.4845848" x2="97.4299622" y2="64.9551773"/>
		<line class="st8" x1="95.263298" y1="50.4845848" x2="95.263298" y2="64.9551773"/>
	</g>
	<g>
		<polygon class="st8" points="18.7683754,57.7199211 23.7629986,63.6128807 23.7629986,51.8269653 		"/>
		<polygon class="st8" points="24.0450535,57.7199211 29.0396767,63.6128807 29.0396767,51.8269653 		"/>
		<line class="st8" x1="18.5921173" y1="64.9846344" x2="18.5921173" y2="50.5140419"/>
	</g>
	<g>
		<path class="st7" d="M21.6268158,31.204258c-0.1054688,0.9023438-0.4384766,1.5986328-0.9990234,2.0888672
			s-1.3056641,0.7353516-2.2353516,0.7353516c-1.0078125,0-1.8154297-0.3613281-2.4228516-1.0839844
			s-0.9111328-1.6894531-0.9111328-2.9003906v-0.8203125c0-0.7929688,0.1416016-1.4902344,0.4248047-2.0917969
			s0.6845703-1.0634766,1.2041016-1.3857422s1.1210938-0.4833984,1.8046875-0.4833984
			c0.90625,0,1.6328125,0.2529297,2.1796875,0.7587891s0.8652344,1.2060547,0.9550781,2.1005859h-1.1308594
			c-0.0976563-0.6816406-0.3095703-1.175293-0.6357422-1.480957s-0.7822266-0.4584961-1.3681641-0.4584961
			c-0.71875,0-1.2822266,0.265625-1.6904297,0.7978516c-0.4082031,0.53125-0.6123047,1.2880859-0.6123047,2.269043v0.8271484
			c0,0.9262695,0.1933594,1.6635742,0.5800781,2.2109375s0.9277344,0.8208008,1.6230469,0.8208008
			c0.625,0,1.1044922-0.1416016,1.4384766-0.4248047s0.5556641-0.7763672,0.6650391-1.4794922H21.6268158z"/>
		<path class="st7" d="M28.5184174,33.9112892H27.387558v-3.9433594h-4.3007813v3.9433594h-1.125v-8.53125h1.125v3.6679688
			h4.3007813v-3.6679688h1.1308594V33.9112892z"/>
	</g>
	<line class="st8" x1="29.0996552" y1="29.4322891" x2="33.1171646" y2="29.4322891"/>
	<g>
		<path class="st7" d="M58.2596283,31.204258c-0.1054688,0.9023438-0.4384766,1.5986328-0.9990234,2.0888672
			s-1.3056641,0.7353516-2.2353516,0.7353516c-1.0078125,0-1.8154297-0.3613281-2.4228516-1.0839844
			s-0.9111328-1.6894531-0.9111328-2.9003906v-0.8203125c0-0.7929688,0.1416016-1.4902344,0.4248047-2.0917969
			s0.6845703-1.0634766,1.2041016-1.3857422s1.1210938-0.4833984,1.8046875-0.4833984
			c0.90625,0,1.6328125,0.2529297,2.1796875,0.7587891s0.8652344,1.2060547,0.9550781,2.1005859h-1.1308594
			c-0.0976563-0.6816406-0.3095703-1.175293-0.6357422-1.480957s-0.7822266-0.4584961-1.3681641-0.4584961
			c-0.71875,0-1.2822266,0.265625-1.6904297,0.7978516c-0.4082031,0.53125-0.6123047,1.2880859-0.6123047,2.269043v0.8271484
			c0,0.9262695,0.1933594,1.6635742,0.5800781,2.2109375s0.9277344,0.8208008,1.6230469,0.8208008
			c0.625,0,1.1044922-0.1416016,1.4384766-0.4248047s0.5556641-0.7763672,0.6650391-1.4794922H58.2596283z"/>
		<path class="st7" d="M65.1512299,33.9112892h-1.1308594v-3.9433594h-4.3007813v3.9433594h-1.125v-8.53125h1.125v3.6679688
			h4.3007813v-3.6679688h1.1308594V33.9112892z"/>
	</g>
	<g>
		<path class="st7" d="M89.528183,31.204258c-0.1054688,0.9023438-0.4384766,1.5986328-0.9990234,2.0888672
			s-1.3056641,0.7353516-2.2353516,0.7353516c-1.0078125,0-1.8154297-0.3613281-2.4228516-1.0839844
			s-0.9111328-1.6894531-0.9111328-2.9003906v-0.8203125c0-0.7929688,0.1416016-1.4902344,0.4248047-2.0917969
			s0.6845703-1.0634766,1.2041016-1.3857422s1.1210938-0.4833984,1.8046875-0.4833984
			c0.90625,0,1.6328125,0.2529297,2.1796875,0.7587891s0.8652344,1.2060547,0.9550781,2.1005859h-1.1308594
			c-0.0976563-0.6816406-0.3095703-1.175293-0.6357422-1.480957s-0.7822266-0.4584961-1.3681641-0.4584961
			c-0.71875,0-1.2822266,0.265625-1.6904297,0.7978516c-0.4082031,0.53125-0.6123047,1.2880859-0.6123047,2.269043v0.8271484
			c0,0.9262695,0.1933594,1.6635742,0.5800781,2.2109375s0.9277344,0.8208008,1.6230469,0.8208008
			c0.625,0,1.1044922-0.1416016,1.4384766-0.4248047s0.5556641-0.7763672,0.6650391-1.4794922H89.528183z"/>
		<path class="st7" d="M96.4197845,33.9112892h-1.1308594v-3.9433594h-4.3007813v3.9433594h-1.125v-8.53125h1.125v3.6679688
			h4.3007813v-3.6679688h1.1308594V33.9112892z"/>
	</g>
	<line class="st8" x1="97.0014343" y1="29.4322891" x2="101.0189514" y2="29.4322891"/>
	<line class="st8" x1="99.0101929" y1="27.4235344" x2="99.0101929" y2="31.4410477"/>
</g>
</svg>
