<?xml version="1.0" encoding="utf-8"?>
<!-- Generator: Adobe Illustrator 22.0.1, SVG Export Plug-In . SVG Version: 6.00 Build 0)  -->
<svg version="1.1" xmlns="http://www.w3.org/2000/svg" xmlns:xlink="http://www.w3.org/1999/xlink" x="0px" y="0px"
	 viewBox="0 0 85.0400009 85.0400009" style="enable-background:new 0 0 85.0400009 85.0400009;" xml:space="preserve">
<style type="text/css">
	.st0{fill:#19191A;}
	.st1{fill:#9E9B9C;}
	.st2{fill:#E5E4E0;}
	.st3{fill:none;stroke:#F6F6F6;stroke-width:0.75;stroke-miterlimit:10;}
	.st4{fill:#CEC7BD;}
	.st5{fill:#918C84;}
	.st6{fill:#FFFFFF;}
	.st7{fill:#5DAF61;}
	.st8{fill:#B3B3B3;}
	.st9{fill:#666566;}
	.st10{fill:#808080;}
	.st11{fill:#CCCCCC;}
	.st12{fill:#313131;}
	.st13{fill:#E6E6E6;}
</style>
<g id="Макет_TREMA">
	<g id="Креп._отверстия">
		<path class="st0" d="M-0.000304-0.000304v85.039978h85.039978V-0.000304H-0.000304z M9.921998,79.5114746
			c-2.427917,0-4.3947139-1.9667969-4.3947139-4.3927002c0-2.4279175,1.9667969-4.3947144,4.3947139-4.3947144
			c2.4258423,0,4.3926392,1.9667969,4.3926392,4.3947144C14.3146372,77.5446777,12.3478403,79.5114746,9.921998,79.5114746z
			 M9.921998,14.3146372c-2.427917,0-4.3947139-1.9667969-4.3947139-4.3927002c0-2.427917,1.9667969-4.3947139,4.3947139-4.3947139
			c2.4258423,0,4.3926392,1.9667969,4.3926392,4.3947139C14.3146372,12.3478403,12.3478403,14.3146372,9.921998,14.3146372z
			 M75.1188354,79.5114746c-2.4279175,0-4.3947144-1.9667969-4.3947144-4.3927002
			c0-2.4279175,1.9667969-4.3947144,4.3947144-4.3947144c2.4258423,0,4.3926392,1.9667969,4.3926392,4.3947144
			C79.5114746,77.5446777,77.5446777,79.5114746,75.1188354,79.5114746z M75.1188354,14.3146372
			c-2.4279175,0-4.3947144-1.9667969-4.3947144-4.3927002c0-2.427917,1.9667969-4.3947139,4.3947144-4.3947139
			c2.4258423,0,4.3926392,1.9667969,4.3926392,4.3947139C79.5114746,12.3478403,77.5446777,14.3146372,75.1188354,14.3146372z"/>
		<path class="st1" d="M9.9209604,3.9454968c-3.2877803,0-5.9527588,2.6751711-5.9527588,5.9754639
			c0,3.3002319,2.6649783,5.9754028,5.9527588,5.9754028c3.2877197,0,5.9527588-2.6751709,5.9527588-5.9754028
			C15.8737192,6.6206679,13.2086802,3.9454968,9.9209604,3.9454968z M9.921998,14.3146372
			c-2.427917,0-4.3947139-1.9667969-4.3947139-4.3927002c0-2.427917,1.9667969-4.3947139,4.3947139-4.3947139
			c2.4258423,0,4.3926392,1.9667969,4.3926392,4.3947139C14.3146372,12.3478403,12.3478403,14.3146372,9.921998,14.3146372z"/>
		<path class="st1" d="M75.1178055,3.9454968c-3.2877808,0-5.9527588,2.6751711-5.9527588,5.9754639
			c0,3.3002319,2.664978,5.9754028,5.9527588,5.9754028c3.2877197,0,5.9527588-2.6751709,5.9527588-5.9754028
			C81.0705643,6.6206679,78.4055252,3.9454968,75.1178055,3.9454968z M75.1188431,14.3146372
			c-2.4279175,0-4.3947144-1.9667969-4.3947144-4.3927002c0-2.427917,1.9667969-4.3947139,4.3947144-4.3947139
			c2.4258423,0,4.3926392,1.9667969,4.3926392,4.3947139C79.5114822,12.3478403,77.5446854,14.3146372,75.1188431,14.3146372z"/>
		<path class="st1" d="M9.9209604,69.1423721c-3.2877803,0-5.9527588,2.6751709-5.9527588,5.9754639
			c0,3.3002319,2.6649783,5.9754028,5.9527588,5.9754028c3.2877197,0,5.9527588-2.6751709,5.9527588-5.9754028
			C15.8737192,71.817543,13.2086802,69.1423721,9.9209604,69.1423721z M9.921998,79.5115128
			c-2.427917,0-4.3947139-1.9667969-4.3947139-4.3927002c0-2.4279175,1.9667969-4.3947144,4.3947139-4.3947144
			c2.4258423,0,4.3926392,1.9667969,4.3926392,4.3947144C14.3146372,77.5447159,12.3478403,79.5115128,9.921998,79.5115128z"/>
		<path class="st1" d="M75.1178055,69.1423721c-3.2877808,0-5.9527588,2.6751709-5.9527588,5.9754639
			c0,3.3002319,2.664978,5.9754028,5.9527588,5.9754028c3.2877197,0,5.9527588-2.6751709,5.9527588-5.9754028
			C81.0705643,71.817543,78.4055252,69.1423721,75.1178055,69.1423721z M75.1188431,79.5115128
			c-2.4279175,0-4.3947144-1.9667969-4.3947144-4.3927002c0-2.4279175,1.9667969-4.3947144,4.3947144-4.3947144
			c2.4258423,0,4.3926392,1.9667969,4.3926392,4.3947144C79.5114822,77.5447159,77.5446854,79.5115128,75.1188431,79.5115128z"/>
	</g>
	<g id="Слой_11">
		<g>
			<path class="st2" d="M35.7822266,80.296875c0.3588867,0,0.640625,0.0810547,0.8447266,0.2441406
				c0.2045898,0.1630859,0.3066406,0.3876953,0.3066406,0.6748047c0,0.1582031-0.0429688,0.2958984-0.128418,0.4121094
				s-0.2104492,0.2099609-0.3754883,0.2822266c0.1865234,0.0546875,0.3208008,0.1455078,0.402832,0.2724609
				c0.081543,0.1269531,0.1225586,0.2841797,0.1225586,0.4726563v0.1591797c0,0.0693359,0.0136719,0.1220703,0.0415039,0.1601563
				c0.0273438,0.0380859,0.0732422,0.0605469,0.1367188,0.0683594l0.078125,0.0107422v0.3789063h-0.328125
				c-0.2070313,0-0.3525391-0.0556641-0.4365234-0.1660156s-0.1259766-0.2529297-0.1259766-0.4287109v-0.1787109
				c0-0.1523438-0.0410156-0.2714844-0.1225586-0.3583984c-0.0820313-0.0869141-0.1972656-0.1328125-0.3466797-0.1367188h-0.519043
				v0.8271484l0.3388672,0.0644531v0.3769531h-1.3100586v-0.3769531l0.3369141-0.0644531v-2.2509766l-0.3369141-0.0644531V80.296875
				h0.3369141H35.7822266z M35.3325195,81.6796875h0.4389648c0.1762695,0,0.309082-0.0380859,0.3974609-0.1123047
				s0.1323242-0.1826172,0.1323242-0.3232422s-0.0439453-0.2529297-0.1313477-0.3369141
				c-0.0878906-0.0839844-0.2167969-0.1259766-0.3876953-0.1259766h-0.449707V81.6796875z"/>
			<path class="st2" d="M38.6928711,80.296875v0.3789063l-0.3388672,0.0644531v1.6367188
				c0,0.2070313,0.0561523,0.3613281,0.168457,0.4648438c0.1123047,0.1025391,0.2661133,0.1533203,0.4614258,0.1533203
				c0.1987305,0,0.3544922-0.0507813,0.4672852-0.1523438c0.112793-0.1025391,0.1694336-0.2578125,0.1694336-0.4658203v-1.6367188
				l-0.3369141-0.0644531V80.296875H40.59375v0.3789063l-0.3388672,0.0644531v1.6367188
				c0,0.3525391-0.1166992,0.6230469-0.3505859,0.8144531s-0.5410156,0.2861328-0.9204102,0.2861328
				c-0.3779297,0-0.6831055-0.0947266-0.9155273-0.2861328s-0.3486328-0.4619141-0.3486328-0.8144531v-1.6367188
				l-0.3364258-0.0644531V80.296875h0.3364258h0.6342773H38.6928711z"/>
			<path class="st2" d="M43.1835938,81.2978516h-0.4760742L42.625,80.8671875
				c-0.0546875-0.0341797-0.1352539-0.0644531-0.2407227-0.0898438c-0.105957-0.0263672-0.2182617-0.0390625-0.3369141-0.0390625
				c-0.1738281,0-0.3081055,0.0361328-0.402832,0.1083984c-0.0952148,0.0722656-0.1425781,0.1660156-0.1425781,0.28125
				c0,0.1064453,0.0498047,0.1933594,0.1489258,0.2617188s0.2705078,0.140625,0.5136719,0.2167969
				c0.3491211,0.0957031,0.6137695,0.2226563,0.7939453,0.3808594c0.1806641,0.1582031,0.2705078,0.3652344,0.2705078,0.6220703
				c0,0.2685547-0.1069336,0.4804688-0.3212891,0.6357422s-0.4970703,0.2324219-0.847168,0.2324219
				c-0.2509766,0-0.4770508-0.0390625-0.6791992-0.1181641c-0.2016602-0.0791016-0.3701172-0.1884766-0.5048828-0.3271484
				v-0.6552734h0.4907227l0.0673828,0.4462891c0.0639648,0.0517578,0.1503906,0.0947266,0.2597656,0.1279297
				c0.109375,0.0341797,0.2314453,0.0507813,0.3662109,0.0507813c0.1738281,0,0.3056641-0.0351563,0.3964844-0.1054688
				c0.090332-0.0703125,0.1357422-0.1650391,0.1357422-0.2822266c0-0.1210938-0.043457-0.2177734-0.1293945-0.2910156
				c-0.0864258-0.0732422-0.2373047-0.1416016-0.453125-0.2070313c-0.375-0.1074219-0.6586914-0.2353516-0.8515625-0.3828125
				c-0.1923828-0.1484375-0.2885742-0.3505859-0.2885742-0.6074219c0-0.2539063,0.1083984-0.4619141,0.3256836-0.6240234
				c0.2172852-0.1611328,0.4902344-0.2441406,0.8188477-0.2480469c0.2431641,0,0.4648438,0.0361328,0.6650391,0.109375
				c0.199707,0.0732422,0.3676758,0.1708984,0.5039063,0.2929688V81.2978516z"/>
			<path class="st2" d="M45.8818359,81.2978516H45.40625l-0.0830078-0.4306641
				c-0.0546875-0.0341797-0.1347656-0.0644531-0.2402344-0.0898438c-0.1064453-0.0263672-0.21875-0.0390625-0.3369141-0.0390625
				c-0.1738281,0-0.3085938,0.0361328-0.4033203,0.1083984s-0.1425781,0.1660156-0.1425781,0.28125
				c0,0.1064453,0.0498047,0.1933594,0.1494141,0.2617188c0.0986328,0.0683594,0.2705078,0.140625,0.5136719,0.2167969
				c0.3486328,0.0957031,0.6132813,0.2226563,0.7939453,0.3808594s0.2705078,0.3652344,0.2705078,0.6220703
				c0,0.2685547-0.1074219,0.4804688-0.3212891,0.6357422c-0.2148438,0.1552734-0.4970703,0.2324219-0.8476563,0.2324219
				c-0.2509766,0-0.4765625-0.0390625-0.6787109-0.1181641s-0.3706055-0.1884766-0.5053711-0.3271484v-0.6552734h0.4907227
				l0.0673828,0.4462891c0.0644531,0.0517578,0.1503906,0.0947266,0.2597656,0.1279297
				c0.109375,0.0341797,0.2314453,0.0507813,0.3662109,0.0507813c0.1738281,0,0.3056641-0.0351563,0.3964844-0.1054688
				s0.1357422-0.1650391,0.1357422-0.2822266c0-0.1210938-0.0429688-0.2177734-0.1289063-0.2910156
				c-0.0869141-0.0732422-0.2373047-0.1416016-0.453125-0.2070313c-0.375-0.1074219-0.6591797-0.2353516-0.8520508-0.3828125
				c-0.1923828-0.1484375-0.2885742-0.3505859-0.2885742-0.6074219c0-0.2539063,0.1083984-0.4619141,0.3256836-0.6240234
				c0.2172852-0.1611328,0.4907227-0.2441406,0.8188477-0.2480469c0.2431641,0,0.4648438,0.0361328,0.6650391,0.109375
				s0.3681641,0.1708984,0.5039063,0.2929688V81.2978516z"/>
			<path class="st2" d="M46.1757813,80.6757813V80.296875h1.3095703v0.3789063l-0.3388672,0.0644531v2.2509766l0.3388672,0.0644531
				v0.3769531h-1.3095703v-0.3769531l0.3388672-0.0644531v-2.2509766L46.1757813,80.6757813z"/>
			<path class="st2" d="M47.6933594,83.0556641l0.2265625-0.0322266l0.9619141-2.7265625H49.53125l0.9560547,2.7265625
				l0.2265625,0.0322266v0.3769531h-1.078125v-0.3769531l0.2197266-0.0390625l-0.1396484-0.4306641h-1.0244141l-0.1396484,0.4306641
				l0.2197266,0.0390625v0.3769531h-1.078125V83.0556641z M48.8408203,82.1230469h0.7255859l-0.3564453-1.1044922h-0.0126953
				L48.8408203,82.1230469z"/>
		</g>
		<g>
			<path class="st3" d="M38.8972855,78.9623947c-3.5066872-0.0077286-6.4477921-0.0142136-7.110487-0.0156708
				c-0.0916157-0.000206-0.1396847-0.0003128-0.1396847-0.0003128l-0.0392761-15.5949364l7.2894402-0.027668"/>
			<path class="st3" d="M31.6078434,78.9623947c-3.5066872-0.0077286-6.4477921-0.0142136-7.110487-0.0156708
				c-0.0916138-0.000206-0.1396847-0.0003128-0.1396847-0.0003128l-0.0392761-15.5949364l7.2894421-0.027668"/>
			<path class="st3" d="M46.133831,78.9783401c-2.3269234-0.005127-4.9065819-0.0108109-7.2365456-0.0159454"/>
			<path class="st3" d="M46.133831,63.2963371l7.2641945-0.0275726l0.0338707,15.3897896
				c0,0,0.0004234,0.1679382,0.0008469,0.3358688c-0.0455399-0.0000992-0.0910759-0.0001984-0.0910759-0.0001984
				s-3.2356834-0.0071335-7.2078362-0.0158844"/>
			<path class="st3" d="M53.4327431,63.2963371l7.2641945-0.0275726l0.0338707,15.3897896
				c0,0,0.0004234,0.1679382,0.0008469,0.3358688c-0.0455399-0.0000992-0.0910759-0.0001984-0.0910759-0.0001984
				s-3.2356834-0.0071335-7.2078362-0.0158844"/>
			<line class="st3" x1="38.8972778" y1="63.3238068" x2="46.133831" y2="63.2963371"/>
			<line class="st3" x1="46.1338272" y1="63.2963371" x2="46.1338272" y2="78.9774094"/>
			<line class="st3" x1="38.8972855" y1="63.3238068" x2="38.8972855" y2="78.9604034"/>
			<path class="st3" d="M45.5896072,67.0776749"/>
			<path class="st4" d="M37.5603256,75.1177673c0,1.2273636-1.0018463,2.2224731-2.2397385,2.2224731
				s-2.2415428-0.9951096-2.2415428-2.2224731s1.0036507-2.2224731,2.2415428-2.2224731
				S37.5603256,73.8904037,37.5603256,75.1177673z"/>
			<ellipse class="st5" cx="35.3196869" cy="75.1177673" rx="1.5316002" ry="1.5185714"/>
			<path class="st4" d="M44.7603264,75.1177673c0,1.2273636-1.0018463,2.2224731-2.2397385,2.2224731
				s-2.2415428-0.9951096-2.2415428-2.2224731s1.0036507-2.2224731,2.2415428-2.2224731
				S44.7603264,73.8904037,44.7603264,75.1177673z"/>
			<ellipse class="st5" cx="42.5196838" cy="75.1177673" rx="1.5316002" ry="1.5185714"/>
			<path class="st4" d="M51.3477554,73.4888458c1.5395126,2.0229187-0.1709862,4.2713089-2.1831703,3.7840042
				c-0.7743721-0.1875381-1.4096413-0.8210754-1.5987854-1.5950546
				C47.0742073,73.6661606,49.3232689,71.9484482,51.3477554,73.4888458z"/>
			<ellipse class="st5" cx="49.7196846" cy="75.1177673" rx="1.5316002" ry="1.5185714"/>
			<g>
				<path class="st2" d="M37.2373047,69.5869141c-0.152832,0.1582031-0.3779297,0.3076172-0.6757813,0.4482422
					s-0.6845703,0.2109375-1.1611328,0.2109375c-0.6958008,0-1.2631836-0.2421875-1.7026367-0.7265625
					c-0.4394531-0.4833984-0.6591797-1.1123047-0.6591797-1.8847656v-0.0849609c0-0.7763672,0.2172852-1.40625,0.6518555-1.8876953
					c0.4345703-0.4824219,1.0131836-0.7236328,1.7348633-0.7236328c0.3862305,0,0.7246094,0.0605469,1.0166016,0.1796875
					s0.5380859,0.2763672,0.737793,0.4726563v0.9355469h-0.4931641l-0.1713867-0.7119141
					c-0.1166992-0.0947266-0.2578125-0.1728516-0.4233398-0.234375s-0.3637695-0.0917969-0.5952148-0.0917969
					c-0.5620117,0-0.9951172,0.1904297-1.2988281,0.5722656c-0.3037109,0.3808594-0.4555664,0.875-0.4555664,1.4824219v0.0917969
					c0,0.6171875,0.1469727,1.1152344,0.4414063,1.4951172c0.2944336,0.3808594,0.699707,0.5703125,1.2167969,0.5703125
					c0.2832031,0,0.515625-0.0292969,0.6967773-0.0878906c0.1811523-0.0595703,0.3261719-0.1240234,0.4360352-0.1953125v-1.1298828
					l-0.8540039-0.0351563v-0.5136719h1.5581055V69.5869141z"/>
			</g>
			<path class="st4" d="M30.2037601,75.1177673c0,1.2273636-1.0018463,2.2224731-2.2397385,2.2224731
				s-2.2415428-0.9951096-2.2415428-2.2224731s1.0036507-2.2224731,2.2415428-2.2224731
				S30.2037601,73.8904037,30.2037601,75.1177673z"/>
			<ellipse class="st5" cx="27.9631195" cy="75.1177673" rx="1.5316002" ry="1.5185714"/>
			<g>
				<path class="st2" d="M28.0234375,65.0166016c0.5668945,0,1.0019531,0.125,1.3041992,0.3740234
					c0.3027344,0.2490234,0.4541016,0.6025391,0.4541016,1.0615234c0,0.25-0.0703125,0.4716797-0.2109375,0.6660156
					c-0.140625,0.1933594-0.3417969,0.3457031-0.6040039,0.4570313c0.2836914,0.0917969,0.487793,0.2421875,0.612793,0.4492188
					c0.125,0.2080078,0.1875,0.4648438,0.1875,0.7695313v0.4140625c0,0.1582031,0.0205078,0.2753906,0.0610352,0.3505859
					c0.0405273,0.0761719,0.1069336,0.1210938,0.2001953,0.1347656l0.1713867,0.0214844v0.4570313h-0.3789063
					c-0.2739258,0-0.46875-0.0947266-0.5839844-0.2832031c-0.1157227-0.1894531-0.1733398-0.4179688-0.1733398-0.6875v-0.4003906
					c0-0.28125-0.0825195-0.5068359-0.246582-0.6767578c-0.1645508-0.1699219-0.3847656-0.2548828-0.6611328-0.2548828h-1.1293945
					v1.7568359l0.5825195,0.0996094v0.4462891h-1.8686523v-0.4462891l0.5820313-0.0996094V65.5625l-0.5820313-0.0996094v-0.4462891
					h0.5820313H28.0234375z M27.0263672,67.3193359h0.9257813c0.3930664,0,0.6787109-0.0742188,0.8574219-0.2226563
					s0.2680664-0.3662109,0.2680664-0.6523438c0-0.2714844-0.0859375-0.4863281-0.2573242-0.6445313
					S28.3833008,65.5625,28.0234375,65.5625h-0.9970703V67.3193359z"/>
			</g>
			<g>
				<path class="st2" d="M41.7285156,65.5732422l-0.4750977,0.0751953L42.418457,69l0.1176758,0.4072266h0.0214844L42.6757813,69
					l1.1611328-3.3554688l-0.4682617-0.0712891v-0.4492188h1.6401367v0.4492188l-0.4179688,0.0566406l-1.7436523,4.6523438
					h-0.6040039l-1.7436523-4.6523438l-0.4145508-0.0566406v-0.4492188h1.6435547V65.5732422z"/>
			</g>
			<g>
				<path class="st2" d="M47.3798828,69.8349609l0.5820313-0.0996094V65.671875l-0.5820313-0.0996094v-0.4492188h1.8681641
					v0.4492188l-0.5820313,0.0996094v1.7324219h0.5390625l1.4550781-1.7822266l-0.3896484-0.0498047v-0.4492188h1.6503906v0.4492188
					l-0.4892578,0.0888672l-1.5898438,1.9560547l1.7363281,2.1289063l0.4892578,0.0888672V70.28125H50.359375v-0.4462891
					l0.3964844-0.0498047l-1.4824219-1.8320313h-0.6074219v1.7822266l0.5820313,0.0996094V70.28125h-1.8681641V69.8349609z"/>
			</g>
			<path class="st4" d="M58.7102699,73.4888458c1.5395088,2.0229187-0.1709862,4.2713089-2.1831703,3.7840042
				c-0.7743721-0.1875381-1.4096413-0.8210754-1.5987854-1.5950546
				C54.436718,73.6661606,56.6857796,71.9484482,58.7102699,73.4888458z"/>
			<ellipse class="st5" cx="57.0821991" cy="75.1177673" rx="1.5316002" ry="1.5185714"/>
			<g>
				<path class="st2" d="M59.2441406,65.1230469v1.140625h-0.6005859l-0.0527344-0.5917969h-1.1542969v4.0634766
					l0.5820313,0.0996094V70.28125h-1.8691406v-0.4462891l0.5830078-0.0996094V65.671875h-1.1582031l-0.0498047,0.5917969
					h-0.6035156v-1.140625H59.2441406z"/>
			</g>
			<rect x="17.466465" y="63.2963371" class="st6" width="5.846035" height="5.846035"/>
			<g>
				<path d="M18.5908203,64c0.3710938-0.0566406,0.8125-0.0986328,1.2958984-0.0986328
					c0.8754883,0,1.4985352,0.203125,1.9121094,0.5888672C22.21875,64.875,22.4638672,65.421875,22.4638672,66.1845703
					c0,0.7705078-0.237793,1.4013672-0.6791992,1.8349609c-0.4414063,0.4414063-1.1699219,0.6796875-2.0874023,0.6796875
					c-0.434082,0-0.7983398-0.0205078-1.1064453-0.0556641V64z M19.2001953,68.1738281
					c0.1542969,0.0283203,0.378418,0.0351563,0.6162109,0.0351563c1.3027344,0,2.0102539-0.7285156,2.0102539-2.0029297
					c0.0068359-1.1132813-0.6235352-1.8212891-1.9121094-1.8212891c-0.3149414,0-0.5532227,0.0283203-0.7143555,0.0634766
					V68.1738281z"/>
			</g>
		</g>
	</g>
</g>
<g id="Рисунок">
	<g>
		<path class="st2" d="M29.965332,3.875c0.1699219-0.1914063,0.3847656-0.3447266,0.6445313-0.4604492
			c0.2597656-0.1152344,0.5522461-0.1733398,0.8769531-0.1733398c0.5576172,0,1.0087891,0.1918945,1.3540039,0.5756836
			c0.3447266,0.3833008,0.5170898,0.8779297,0.5170898,1.484375v0.1391602c0,0.6040039-0.1733398,1.0976563-0.5200195,1.4799805
			c-0.3466797,0.3828125-0.7973633,0.5737305-1.3510742,0.5737305c-0.324707,0-0.6171875-0.0566406-0.8769531-0.1704102
			c-0.2597656-0.1132813-0.4746094-0.2670898-0.6445313-0.4599609V6.0454102h0.621582L30.6728516,6.59375
			c0.0727539,0.081543,0.1772461,0.1459961,0.3139648,0.1933594s0.2890625,0.0708008,0.4570313,0.0708008
			c0.3110352,0,0.5576172-0.1044922,0.7392578-0.3139648c0.1811523-0.2089844,0.2866211-0.4882813,0.3149414-0.8364258
			l-0.0053711-0.0141602h-1.4584961V5.0512695h1.4584961l0.0053711-0.0146484
			c-0.0283203-0.3500977-0.1337891-0.6303711-0.3149414-0.8408203c-0.1816406-0.2099609-0.4326172-0.3154297-0.7539063-0.3154297
			c-0.1738281,0-0.3232422,0.0239258-0.4482422,0.0712891s-0.2275391,0.1118164-0.3081055,0.1933594l-0.0859375,0.5478516h-0.621582
			V3.875z"/>
		<path class="st2" d="M33.7075195,4.8637695v-0.5h1.6416016v0.5l-0.3608398,0.0849609v0.6591797h1.0200195V4.9487305
			l-0.3583984-0.0849609v-0.5h0.3583984h0.8369141h0.4467773v0.5l-0.4467773,0.0849609v1.90625l0.4467773,0.0854492V7.4375
			h-1.6420898V6.9404297l0.3583984-0.0854492V6.2441406h-1.0200195v0.6108398l0.3608398,0.0854492V7.4375h-1.6416016V6.9404297
			l0.4467773-0.0854492v-1.90625L33.7075195,4.8637695z"/>
		<path class="st2" d="M37.7792969,4.8637695v-0.5h1.6621094v0.5l-0.3813477,0.0849609v0.5854492h0.2866211l0.4643555-0.6821289
			c0.1162109-0.1777344,0.2387695-0.3120117,0.3666992-0.4018555S40.465332,4.3154297,40.65625,4.3154297
			c0.0952148,0,0.1811523,0.0131836,0.2578125,0.0395508c0.0761719,0.0263672,0.1518555,0.0625,0.2260742,0.1079102L41,5.0366211
			c-0.0571289-0.0151367-0.0932617-0.0244141-0.1074219-0.0283203c-0.0141602-0.003418-0.0405273-0.0053711-0.0786133-0.0053711
			c-0.0576172,0-0.1181641,0.0214844-0.1821289,0.0649414c-0.0639648,0.0439453-0.1191406,0.0986328-0.1650391,0.1650391
			L40.065918,5.8125l0.7192383,1.0595703l0.4208984,0.0683594V7.4375h-1.1489258l-0.6762695-1.1503906h-0.3208008v0.5678711
			l0.3813477,0.0854492V7.4375h-1.6621094V6.9404297l0.4467773-0.0854492v-1.90625L37.7792969,4.8637695z"/>
		<path class="st2" d="M41.5097656,5.8720703c0-0.4584961,0.1293945-0.8339844,0.3881836-1.1264648
			s0.6162109-0.4389648,1.0732422-0.4389648c0.4580078,0,0.8168945,0.1459961,1.0756836,0.4375
			c0.2587891,0.2919922,0.3886719,0.6679688,0.3886719,1.1279297v0.0595703c0,0.4624023-0.1298828,0.8388672-0.3886719,1.1293945
			c-0.2587891,0.2910156-0.6157227,0.4360352-1.0703125,0.4360352c-0.4604492,0-0.8198242-0.1450195-1.0786133-0.4360352
			c-0.2587891-0.2905273-0.3881836-0.6669922-0.3881836-1.1293945V5.8720703z M42.3461914,5.9316406
			c0,0.2802734,0.0498047,0.5053711,0.1489258,0.6748047c0.0996094,0.1694336,0.2597656,0.2543945,0.4814453,0.2543945
			c0.2158203,0,0.3740234-0.0854492,0.4741211-0.2558594c0.1005859-0.1704102,0.1508789-0.3950195,0.1508789-0.6733398V5.8720703
			c0-0.2724609-0.0507813-0.4951172-0.1518555-0.6674805c-0.1015625-0.1723633-0.2607422-0.2587891-0.4785156-0.2587891
			s-0.3764648,0.0864258-0.4760742,0.2587891c-0.0991211,0.1723633-0.1489258,0.3950195-0.1489258,0.6674805V5.9316406z"/>
		<path class="st2" d="M45.0283203,6.7954102c0.1914063-0.1967773,0.3203125-0.390625,0.3867188-0.5810547
			c0.0673828-0.1904297,0.1044922-0.4614258,0.1123047-0.8139648l0.0058594-0.4516602l-0.4384766-0.0849609v-0.5h2.7333984
			h0.4472656v0.5L47.828125,4.9487305v1.8525391h0.4501953l-0.0576172,1.5566406h-0.7792969V7.4375h-1.828125v0.9204102h-0.7822266
			l-0.0712891-1.5625H45.0283203z M46.3642578,5.4003906c-0.015625,0.3051758-0.0556641,0.5727539-0.1210938,0.8027344
			c-0.0644531,0.2299805-0.1503906,0.4287109-0.2578125,0.5952148h1.0117188V5.0253906h-0.6298828L46.3642578,5.4003906z"/>
		<path class="st2" d="M50.1464844,7.4970703c-0.4472656,0-0.8046875-0.1420898-1.0722656-0.4262695
			c-0.2675781-0.2836914-0.4003906-0.6445313-0.4003906-1.0820313V5.875c0-0.456543,0.1259766-0.8325195,0.3789063-1.1279297
			c0.2539063-0.2954102,0.5927734-0.4423828,1.0185547-0.4404297c0.4189453,0,0.7431641,0.125,0.9746094,0.375
			s0.3466797,0.5883789,0.3466797,1.0141602v0.4516602h-1.8505859l-0.0058594,0.0170898
			c0.0146484,0.2026367,0.0830078,0.3696289,0.2050781,0.5c0.1210938,0.1308594,0.2851563,0.1962891,0.4941406,0.1962891
			c0.1845703,0,0.3388672-0.0185547,0.4609375-0.0556641c0.1220703-0.0366211,0.2558594-0.0947266,0.4013672-0.1743164
			l0.2265625,0.5112305c-0.1279297,0.1005859-0.2939453,0.1845703-0.4970703,0.2529297
			C50.6230469,7.4628906,50.3964844,7.4970703,50.1464844,7.4970703z M50.0712891,4.9458008
			c-0.1542969,0-0.2763672,0.059082-0.3662109,0.1762695c-0.0898438,0.1176758-0.1455078,0.2719727-0.1660156,0.4628906
			l0.0078125,0.0146484h1.0263672V5.5253906c0-0.1757813-0.0419922-0.3164063-0.125-0.421875
			C50.3652344,4.9985352,50.2402344,4.9458008,50.0712891,4.9458008z"/>
		<path class="st2" d="M51.7246094,4.8637695v-0.5h1.2148438l0.0400391,0.3579102
			c0.0917969-0.1328125,0.2021484-0.2348633,0.3300781-0.3071289c0.1279297-0.0717773,0.2763672-0.1079102,0.4472656-0.1079102
			c0.3837891,0,0.6816406,0.1489258,0.8935547,0.4462891S54.96875,5.4414063,54.96875,5.9262695v0.0595703
			c0,0.4545898-0.1064453,0.8198242-0.3183594,1.0966797c-0.2119141,0.2763672-0.5078125,0.4145508-0.8886719,0.4145508
			c-0.1621094,0-0.3056641-0.0297852-0.4326172-0.0893555c-0.1259766-0.0595703-0.2333984-0.1474609-0.3232422-0.2626953v0.8891602
			l0.4042969,0.0849609v0.5h-1.6425781v-0.5l0.4042969-0.0849609V4.9487305L51.7246094,4.8637695z M54.1318359,5.9262695
			c0-0.2900391-0.0488281-0.5249023-0.1464844-0.7045898c-0.0966797-0.1801758-0.2460938-0.2700195-0.4462891-0.2700195
			c-0.1259766,0-0.234375,0.0253906-0.3222656,0.0766602c-0.0888672,0.0512695-0.1591797,0.1240234-0.2109375,0.21875V6.59375
			c0.0517578,0.0869141,0.1220703,0.1533203,0.2109375,0.1987305c0.0878906,0.0454102,0.1972656,0.0683594,0.3271484,0.0683594
			c0.203125,0,0.3515625-0.0786133,0.4462891-0.2358398s0.1416016-0.3701172,0.1416016-0.6391602V5.9262695z"/>
		<path class="st2" d="M27.7304688,12.8608398c0.1489258,0,0.2680664-0.0429688,0.3579102-0.1293945
			c0.0898438-0.0859375,0.1347656-0.2011719,0.1347656-0.3452148h0.7563477l0.0087891,0.0170898
			c0.0078125,0.3105469-0.1098633,0.5708008-0.3525391,0.7797852c-0.2426758,0.2094727-0.5444336,0.3139648-0.9052734,0.3139648
			c-0.4624023,0-0.8188477-0.1450195-1.0688477-0.4345703c-0.2504883-0.2895508-0.3754883-0.6621094-0.3754883-1.1166992v-0.0849609
			c0-0.4526367,0.128418-0.824707,0.3852539-1.1166992c0.2573242-0.2915039,0.6235352-0.4375,1.0991211-0.4375
			c0.25,0,0.4746094,0.0371094,0.6733398,0.1108398s0.3637695,0.1782227,0.4956055,0.3125l0.0117188,0.8212891h-0.6791992
			l-0.1376953-0.4804688c-0.0419922-0.0356445-0.09375-0.0654297-0.1547852-0.0893555
			c-0.0610352-0.0234375-0.1308594-0.0356445-0.2089844-0.0356445c-0.2368164,0-0.4038086,0.0854492-0.5014648,0.2558594
			s-0.1459961,0.3901367-0.1459961,0.6591797v0.0849609c0,0.2749023,0.0449219,0.4960938,0.1347656,0.6635742
			C27.347168,12.7768555,27.5048828,12.8608398,27.7304688,12.8608398z"/>
		<path class="st2" d="M30.8681641,12.9404297l0.4467773-0.0854492v-1.90625l-0.4467773-0.0849609v-0.5h3.590332v0.5
			l-0.4443359,0.0849609v1.90625l0.4443359,0.0854492V13.4375h-1.6420898v-0.4970703l0.3613281-0.0854492v-1.8496094h-1.0288086
			v1.8496094l0.3608398,0.0854492V13.4375h-1.6416016V12.9404297z"/>
		<path class="st2" d="M36.8393555,13.4375c-0.0229492-0.0512695-0.0429688-0.1035156-0.0600586-0.1577148
			c-0.0175781-0.0537109-0.0307617-0.1083984-0.0400391-0.1630859c-0.0996094,0.1132813-0.2202148,0.2050781-0.362793,0.2753906
			c-0.1420898,0.0698242-0.3051758,0.1049805-0.4882813,0.1049805c-0.3037109,0-0.5449219-0.0820313-0.7236328-0.2456055
			c-0.1787109-0.1640625-0.2680664-0.3867188-0.2680664-0.6689453c0-0.2880859,0.1166992-0.5107422,0.3496094-0.6679688
			s0.5751953-0.2358398,1.0258789-0.2358398h0.4267578v-0.3007813c0-0.1479492-0.0429688-0.2626953-0.1289063-0.34375
			c-0.0859375-0.081543-0.2128906-0.1225586-0.3808594-0.1225586c-0.0957031,0-0.1806641,0.0112305-0.2548828,0.0327148
			c-0.074707,0.0219727-0.1347656,0.0478516-0.1806641,0.078125l-0.0546875,0.3295898h-0.6303711l0.0029297-0.6816406
			c0.152832-0.1025391,0.328125-0.1884766,0.5258789-0.2587891c0.1977539-0.0698242,0.4130859-0.1049805,0.6459961-0.1049805
			c0.3842773,0,0.6958008,0.0932617,0.9355469,0.2797852s0.3598633,0.4521484,0.3598633,0.796875v1.2700195
			c0,0.0473633,0.0004883,0.0917969,0.0014648,0.1337891c0.0009766,0.0415039,0.0043945,0.0810547,0.0097656,0.1191406
			l0.2553711,0.0341797V13.4375H36.8393555z M36.1142578,12.8833008c0.1259766,0,0.2407227-0.0268555,0.34375-0.0805664
			c0.1035156-0.0541992,0.1835938-0.1220703,0.2407227-0.203125v-0.46875h-0.4267578
			c-0.1777344,0-0.3125,0.0410156-0.4038086,0.1235352c-0.0917969,0.0820313-0.1376953,0.1811523-0.1376953,0.296875
			c0,0.1040039,0.0336914,0.1855469,0.1015625,0.2441406S35.9941406,12.8833008,36.1142578,12.8833008z"/>
		<path class="st2" d="M40.4414063,12.4716797h0.0170898l0.7963867-2.1079102h1.0488281h0.4443359v0.5l-0.4443359,0.0849609v1.90625
			l0.4443359,0.0854492V13.4375h-1.5961914v-0.4970703l0.3149414-0.0854492v-1.2470703l-0.0170898-0.0029297L40.7304688,13.4375
			h-0.5615234l-0.7021484-1.7983398l-0.0170898,0.0029297v1.2128906l0.3183594,0.0854492V13.4375h-1.5991211v-0.4970703
			l0.4467773-0.0854492v-1.90625l-0.4467773-0.0849609v-0.5h0.4467773h1.034668L40.4414063,12.4716797z"/>
		<path class="st2" d="M44.8447266,12.9404297l0.4042969-0.0854492v-0.4941406h-0.5039063L44.140625,13.4375h-0.9145508v-0.4970703
			l0.3779297-0.0571289l0.3725586-0.6586914c-0.1889648-0.0834961-0.3339844-0.1982422-0.4355469-0.34375
			c-0.1010742-0.1459961-0.1518555-0.3115234-0.1518555-0.4975586c0-0.2993164,0.1201172-0.5439453,0.3598633-0.734375
			s0.5625-0.2851563,0.9667969-0.2851563h1.3671875h0.4443359v0.5l-0.4443359,0.0849609v1.90625l0.4443359,0.0854492V13.4375
			h-1.6826172V12.9404297z M44.2236328,11.40625c0,0.105957,0.0410156,0.1982422,0.1240234,0.2768555
			s0.2011719,0.1181641,0.3544922,0.1181641h0.546875v-0.8041992h-0.5332031c-0.15625,0-0.2773438,0.0415039-0.3632813,0.125
			S44.2236328,11.300293,44.2236328,11.40625z"/>
		<path class="st2" d="M50.1201172,10.3637695v1.0483398h-0.6416016l-0.0351563-0.4150391h-0.5292969v1.8579102l0.4433594,0.0854492
			V13.4375h-1.7275391v-0.4970703l0.4443359-0.0854492v-1.8579102h-0.5185547l-0.03125,0.4150391h-0.6416016v-1.0483398H50.1201172z
			"/>
		<path class="st2" d="M51.8300781,10.3637695v0.9912109h0.5820313c0.4199219,0,0.7490234,0.0932617,0.9873047,0.2797852
			c0.2373047,0.1865234,0.3564453,0.4350586,0.3564453,0.7460938c0,0.3178711-0.1191406,0.5737305-0.3583984,0.7670898
			C53.1591797,13.3408203,52.8310547,13.4375,52.4121094,13.4375H50.546875v-0.4970703l0.4472656-0.0854492v-1.90625
			l-0.4472656-0.0849609v-0.5h0.4472656H51.8300781z M52.2773438,10.3637695v0.5l-0.4472656,0.0849609v-0.5849609H52.2773438z
			 M51.8300781,11.9545898v0.8496094h0.5820313c0.171875,0,0.2998047-0.0385742,0.3837891-0.1152344
			s0.1259766-0.1777344,0.1259766-0.3027344c0-0.1289063-0.0410156-0.2329102-0.1240234-0.3125
			s-0.2119141-0.1191406-0.3857422-0.1191406H51.8300781z"/>
		<path class="st2" d="M54.1259766,12.9404297l0.4042969-0.0854492v-1.90625l-0.4472656-0.0849609v-0.5h1.2841797v1.1899414
			h0.4267578c0.0576172-0.375,0.2109375-0.6762695,0.4609375-0.9047852
			c0.2509766-0.2280273,0.5761719-0.3422852,0.9775391-0.3422852c0.4580078,0,0.8173828,0.1459961,1.0761719,0.4375
			c0.2587891,0.2919922,0.3876953,0.6679688,0.3876953,1.1279297v0.0595703c0,0.4624023-0.1289063,0.8388672-0.3876953,1.1293945
			c-0.2587891,0.2910156-0.6162109,0.4360352-1.0703125,0.4360352c-0.4150391,0-0.7490234-0.1186523-1.0019531-0.3564453
			s-0.4033203-0.5537109-0.4511719-0.9472656h-0.4179688v0.6616211l0.4013672,0.0854492V13.4375h-1.6425781V12.9404297z
			 M56.6074219,11.9316406c0,0.2802734,0.0498047,0.5053711,0.1494141,0.6748047s0.2597656,0.2543945,0.4814453,0.2543945
			c0.2158203,0,0.3740234-0.0854492,0.4736328-0.2558594c0.1005859-0.1704102,0.1503906-0.3950195,0.1503906-0.6733398v-0.0595703
			c0-0.2724609-0.0498047-0.4951172-0.1513672-0.6674805s-0.2607422-0.2587891-0.4785156-0.2587891
			s-0.3759766,0.0864258-0.4755859,0.2587891s-0.1494141,0.3950195-0.1494141,0.6674805V11.9316406z"/>
	</g>
	<g>
		<path class="st4" d="M66.253067,47.7253799c1.5395126,2.0229149-0.1709824,4.2713051-2.1831665,3.7840042
			c-0.7743721-0.1875343-1.4096451-0.8210793-1.5987854-1.5950584
			C61.9795189,47.9026947,64.2285843,46.1849823,66.253067,47.7253799z"/>
		<ellipse class="st5" cx="64.625" cy="49.3543015" rx="1.5316002" ry="1.5185714"/>
		<path class="st4" d="M66.253067,40.8907318c1.5395126,2.0229149-0.1709824,4.2713051-2.1831665,3.7840042
			c-0.7743721-0.1875343-1.4096451-0.8210793-1.5987854-1.5950584
			C61.9795189,41.0680466,64.2285843,39.3503342,66.253067,40.8907318z"/>
		<ellipse class="st5" cx="64.625" cy="42.5196533" rx="1.5316002" ry="1.5185714"/>
		<path class="st4" d="M66.253067,34.0560837c1.5395126,2.0229149-0.1709824,4.2713051-2.1831665,3.7840042
			c-0.7743721-0.1875343-1.4096451-0.8210793-1.5987854-1.5950584C61.9795189,34.2333984,64.2285843,32.515686,66.253067,34.0560837
			z"/>
		<ellipse class="st5" cx="64.625" cy="35.6850052" rx="1.5316002" ry="1.5185714"/>
		<path class="st7" d="M56.3568611,60.2362213H28.6825085c-1.7438831,0-3.1706982-1.426815-3.1706982-3.1707001V27.9738483
			c0-1.743885,1.426815-3.1706982,3.1706982-3.1706982h27.6743526c1.743885,0,3.1706963,1.4268131,3.1706963,3.1706982v29.0916729
			C59.5275574,58.8094063,58.1007462,60.2362213,56.3568611,60.2362213z"/>
		<path class="st8" d="M55.6210022,24.803133h-9.2235718v0.5134277h-7.708313V24.803133h-9.2319317
			c-1.7588501,0-3.9453735,2.1477051-3.9453735,3.9065552v13.8099346v13.8099976
			c0,1.7588501,2.1477051,3.9065552,3.9065552,3.9065552h9.2235699v-0.5134277h7.708313v0.5134277h9.2319336
			c1.7588501,0,3.9453735-2.1477051,3.9453735-3.9065552V44.7279968h-1.0039063v-4.416687h1.0039063V28.7096882
			C59.5275574,26.9508381,57.3798523,24.803133,55.6210022,24.803133z"/>
		<rect x="38.6891174" y="24.803133" class="st9" width="7.708313" height="0.5134277"/>
		
			<rect x="38.6419373" y="59.7227478" transform="matrix(-1 -1.224647e-16 1.224647e-16 -1 84.9921875 119.9589233)" class="st9" width="7.708313" height="0.5134277"/>
		<g>
			<rect x="38.6890869" y="25.3165607" class="st10" width="7.7083335" height="8.3281078"/>
			<rect x="38.6419182" y="52.2280197" class="st10" width="7.7083335" height="7.4947305"/>
			<circle class="st10" cx="42.5432549" cy="42.5196686" r="10.583333"/>
		</g>
		<circle class="st11" cx="42.5196838" cy="42.5196838" r="9.947917"/>
		<g id="XMLID_2_">
			<g>
				<path class="st9" d="M49.6230202,37.8471832c0.8899994,1.3400002,1.3999977,2.9500008,1.3999977,4.670002
					c0,4.7000008-3.8100014,8.5-8.5,8.5c-1.8199997,0-3.5099983-0.5699997-4.8899994-1.5499992L49.6230202,37.8471832z"/>
				<path class="st12" d="M49.6230202,37.8471832L37.6330185,49.467186
					c-0.8800011-0.6100006-1.6300011-1.3899994-2.2099991-2.2800026l11.7700005-11.7699966
					C48.153019,36.0571861,48.983017,36.8771858,49.6230202,37.8471832z"/>
				<path class="st9" d="M47.1930199,35.4171867L35.4230194,47.1871834
					c-0.8899994-1.3400002-1.4000015-2.9499969-1.4000015-4.6699982c0-4.6899986,3.7999992-8.5,8.5-8.5
					C44.2530174,34.0171852,45.8530197,34.5271835,47.1930199,35.4171867z"/>
			</g>
			<g>
			</g>
		</g>
		<rect x="58.5236511" y="40.3113098" class="st9" width="1.0039063" height="4.416687"/>
		<rect x="59.5275574" y="47.9369812" class="st13" width="5.0974426" height="2.8346457"/>
		<rect x="59.5275574" y="41.1023331" class="st13" width="5.0974426" height="2.8346457"/>
		<rect x="59.5275574" y="34.2676849" class="st13" width="5.0974426" height="2.8346457"/>
		<path class="st4" d="M18.7862988,37.3139267c-1.5395107-2.0229149,0.1709862-4.2713051,2.1831703-3.7840004
			c0.7743702,0.1875343,1.4096413,0.8210754,1.5987835,1.5950546
			C23.0598488,37.1366158,20.8107853,38.8543243,18.7862988,37.3139267z"/>
		<ellipse class="st5" cx="20.4143696" cy="35.6850052" rx="1.5316002" ry="1.5185714"/>
		<path class="st4" d="M18.7862988,50.983223c-1.5395107-2.0229149,0.1709862-4.2713051,2.1831703-3.7840004
			c0.7743702,0.1875343,1.4096413,0.8210754,1.5987835,1.5950546C23.0598488,50.805912,20.8107853,52.5236206,18.7862988,50.983223z
			"/>
		<ellipse class="st5" cx="20.4143696" cy="49.3543015" rx="1.5316002" ry="1.5185714"/>
		
			<rect x="20.4143696" y="34.2676849" transform="matrix(-1 -1.224647e-16 1.224647e-16 -1 45.9261818 71.3700104)" class="st13" width="5.0974426" height="2.8346457"/>
		
			<rect x="20.4143696" y="47.9369812" transform="matrix(-1 -1.224647e-16 1.224647e-16 -1 45.9261818 98.7086029)" class="st13" width="5.0974426" height="2.8346457"/>
	</g>
	<g>
	</g>
	<g>
	</g>
	<g>
	</g>
	<g>
	</g>
	<g>
	</g>
</g>
</svg>
