<?xml version="1.0" encoding="utf-8"?>
<!-- Generator: Adobe Illustrator 22.1.0, SVG Export Plug-In . SVG Version: 6.00 Build 0)  -->
<svg version="1.1" id="Слой_1" xmlns="http://www.w3.org/2000/svg" xmlns:xlink="http://www.w3.org/1999/xlink" x="0px" y="0px"
	 viewBox="0 0 85.0400009 85.0400009" style="enable-background:new 0 0 85.0400009 85.0400009;" xml:space="preserve">
<style type="text/css">
	.st0{fill:#19191A;}
	.st1{fill:#9E9B9C;}
	.st2{fill:#E5E4E0;}
	.st3{fill:#363331;}
	.st4{fill:#B5B4B3;}
	.st5{fill:#CDC7BC;}
	.st6{fill:#907747;}
	.st7{display:none;fill:#D2D94E;stroke:#EFE94A;stroke-width:0.25;stroke-miterlimit:10;}
	.st8{fill:#EBAD4F;}
	.st9{fill:#68BBC3;}
	.st10{opacity:0.37;fill:none;stroke:#FFFFFF;stroke-width:0.5;stroke-miterlimit:10;}
	.st11{fill:#E39344;}
	.st12{fill:#4C4C4C;}
	.st13{fill:#0D0E0F;}
	.st14{fill:#E6E6E6;}
	.st15{fill:#C5B198;}
	.st16{fill:#B3B3B3;}
	.st17{fill:#3A2924;}
	.st18{fill:#C39B6E;}
	.st19{fill:#896241;}
	.st20{fill:#CEC7BD;}
	.st21{fill:#918C84;}
	.st22{fill:none;stroke:#F6F6F6;stroke-width:0.75;stroke-miterlimit:10;}
	.st23{fill:#151616;}
</style>
<path class="st0" d="M0,0v85.039978h85.039978V0H0z M9.9212646,79.5117798c-2.4264526,0-4.3936768-1.9667969-4.3936768-4.3926392
	c0-2.4279175,1.9672241-4.3947754,4.3936768-4.3947754s4.3936768,1.9668579,4.3936768,4.3947754
	C14.3149414,77.5449829,12.3477173,79.5117798,9.9212646,79.5117798z M9.9223022,14.3149414
	c-2.4279175,0-4.3947144-1.9667969-4.3947144-4.3927002c0-2.4279175,1.9667969-4.3947144,4.3947144-4.3947144
	c2.4258423,0,4.3926392,1.9667969,4.3926392,4.3947144C14.3149414,12.3481445,12.3481445,14.3149414,9.9223022,14.3149414z
	 M75.1170654,79.5117798c-2.4258423,0-4.3926392-1.968811-4.3926392-4.3947144c0-2.4258423,1.9667969-4.3927002,4.3926392-4.3927002
	c2.4279175,0,4.3947754,1.9668579,4.3947754,4.3927002C79.5118408,77.5429688,77.5449829,79.5117798,75.1170654,79.5117798z
	 M75.1191406,14.3149414c-2.4279175,0-4.3947144-1.9667969-4.3947144-4.3927002
	c0-2.4279175,1.9667969-4.3947144,4.3947144-4.3947144c2.4258423,0,4.3927002,1.9667969,4.3927002,4.3947144
	C79.5118408,12.3481445,77.5449829,14.3149414,75.1191406,14.3149414z"/>
<path class="st1" d="M75.118103,3.9458008c-3.300293,0-5.9754028,2.6751709-5.9754028,5.9754639
	c0,3.3002319,2.6751099,5.9754028,5.9754028,5.9754028s5.9754639-2.6751709,5.9754639-5.9754028
	C81.0935669,6.6209717,78.418396,3.9458008,75.118103,3.9458008z M75.1191406,14.3149414
	c-2.4279175,0-4.3947144-1.9667969-4.3947144-4.3927002c0-2.4279175,1.9667969-4.3947144,4.3947144-4.3947144
	c2.4258423,0,4.3927002,1.9667969,4.3927002,4.3947144C79.5118408,12.3481445,77.5449829,14.3149414,75.1191406,14.3149414z"/>
<path class="st1" d="M75.118103,69.1426392c-3.2987671,0-5.9754028,2.6751709-5.9754028,5.9754639
	s2.6766357,5.9754028,5.9754028,5.9754028c3.300293,0,5.9754639-2.6751099,5.9754639-5.9754028
	S78.418396,69.1426392,75.118103,69.1426392z M75.1170654,79.5117798c-2.4258423,0-4.3926392-1.968811-4.3926392-4.3947144
	c0-2.4258423,1.9667969-4.3927002,4.3926392-4.3927002c2.4279175,0,4.3947754,1.9668579,4.3947754,4.3927002
	C79.5118408,77.5429688,77.5449829,79.5117798,75.1170654,79.5117798z"/>
<path class="st1" d="M9.9212646,69.1426392c-3.300293,0-5.9754639,2.6751709-5.9754639,5.9754639
	s2.6751709,5.9754028,5.9754639,5.9754028s5.9754028-2.6751099,5.9754028-5.9754028S13.2215576,69.1426392,9.9212646,69.1426392z
	 M9.9212646,79.5117798c-2.4264526,0-4.3936768-1.9667969-4.3936768-4.3926392c0-2.4279175,1.9672241-4.3947754,4.3936768-4.3947754
	s4.3936768,1.9668579,4.3936768,4.3947754C14.3149414,77.5449829,12.3477173,79.5117798,9.9212646,79.5117798z"/>
<path class="st1" d="M9.9212646,3.9458008c-3.2877808,0-5.9527588,2.6751709-5.9527588,5.9754639
	c0,3.3002319,2.664978,5.9754028,5.9527588,5.9754028c3.2877197,0,5.9527588-2.6751709,5.9527588-5.9754028
	C15.8740234,6.6209717,13.2089844,3.9458008,9.9212646,3.9458008z M9.9223022,14.3149414
	c-2.4279175,0-4.3947144-1.9667969-4.3947144-4.3927002c0-2.4279175,1.9667969-4.3947144,4.3947144-4.3947144
	c2.4258423,0,4.3926392,1.9667969,4.3926392,4.3947144C14.3149414,12.3481445,12.3481445,14.3149414,9.9223022,14.3149414z"/>
<g>
	<path class="st2" d="M24.4404297,8.9790039l0.4804688-0.1020508V6.59375l-0.5317383-0.1020508V5.8930664h1.465332
		l0.0444336,0.5273438c0.1235352-0.1879883,0.2753906-0.3344727,0.456543-0.4389648
		c0.1806641-0.1040039,0.3828125-0.15625,0.6069336-0.15625c0.3754883,0,0.6679688,0.1166992,0.878418,0.3500977
		c0.2104492,0.2338867,0.315918,0.6000977,0.315918,1.0991211v1.6025391l0.4804688,0.1020508v0.5952148H26.722168V8.9790039
		l0.4291992-0.1020508V7.277832c0-0.2470703-0.050293-0.4223633-0.1508789-0.5258789
		c-0.1010742-0.1030273-0.2529297-0.1547852-0.456543-0.1547852c-0.1328125,0-0.2514648,0.0268555-0.3569336,0.0800781
		c-0.1049805,0.0532227-0.1933594,0.1289063-0.2641602,0.2260742v1.9736328l0.4047852,0.1020508v0.5952148h-1.887207V8.9790039z"/>
	<path class="st2" d="M31.1762695,4.6206055c0.5673828,0,1.012207,0.1289063,1.3349609,0.3862305
		s0.4838867,0.612793,0.4838867,1.0664063c0,0.2495117-0.0673828,0.4663086-0.2026367,0.6499023
		c-0.1347656,0.1835938-0.3325195,0.3325195-0.5932617,0.4458008c0.2949219,0.0864258,0.5068359,0.2294922,0.6362305,0.4301758
		s0.1938477,0.449707,0.1938477,0.7470703v0.2514648c0,0.1088867,0.0219727,0.1933594,0.0654297,0.253418
		c0.043457,0.0605469,0.1152344,0.0961914,0.2158203,0.1074219l0.1235352,0.0170898v0.5986328h-0.5180664
		c-0.3271484,0-0.5571289-0.0874023-0.6894531-0.262207c-0.1328125-0.1743164-0.1992188-0.3999023-0.1992188-0.6767578V8.3530273
		c0-0.2407227-0.0644531-0.4291992-0.1938477-0.5664063s-0.3115234-0.2094727-0.5473633-0.2163086h-0.8198242v1.3066406
		l0.5351563,0.1020508v0.5952148h-2.0688477V8.9790039l0.5317383-0.1020508V5.3217773l-0.5317383-0.1020508V4.6206055h0.5317383
		H31.1762695z M30.4663086,6.8046875h0.6928711c0.2792969,0,0.4882813-0.0585938,0.6279297-0.1767578
		c0.1396484-0.1176758,0.2094727-0.2880859,0.2094727-0.5102539s-0.0693359-0.3999023-0.2075195-0.5322266
		c-0.1386719-0.1328125-0.3427734-0.1992188-0.612793-0.1992188h-0.7099609V6.8046875z"/>
	<path class="st2" d="M33.7641602,8.9790039l0.5317383-0.1020508V5.3217773l-0.5317383-0.1020508V4.6206055h3.9765625v1.3574219
		H36.972168l-0.0444336-0.5917969h-1.6298828v1.3642578h1.75v0.765625h-1.75v1.3608398l0.5351563,0.1020508v0.5952148h-2.0688477
		V8.9790039z"/>
	<path class="st2" d="M38.1630859,9.5742188V8.9243164l1.6162109-1.7177734
		c0.2333984-0.265625,0.3989258-0.4897461,0.4975586-0.6723633C40.375,6.3520508,40.4243164,6.1821289,40.4243164,6.0258789
		c0-0.2084961-0.0566406-0.3793945-0.1699219-0.512207s-0.2739258-0.1987305-0.4819336-0.1987305
		c-0.230957,0-0.4067383,0.0776367-0.5268555,0.2329102s-0.1801758,0.3623047-0.1801758,0.6206055h-0.9746094l-0.0068359-0.0200195
		c-0.0112305-0.4467773,0.1367188-0.8251953,0.4443359-1.1347656s0.7226563-0.4643555,1.2441406-0.4643555
		c0.5146484,0,0.9194336,0.1328125,1.2143555,0.3979492c0.2954102,0.265625,0.4428711,0.6191406,0.4428711,1.0615234
		c0,0.2993164-0.0830078,0.5761719-0.2485352,0.8300781c-0.1660156,0.2539063-0.440918,0.5854492-0.8256836,0.9936523
		l-0.8886719,0.9624023l0.0068359,0.0170898h1.2973633l0.0410156-0.4897461h0.7617188v1.2519531H38.1630859z"/>
	<path class="st2" d="M45.0048828,7.7304688h0.5664063v0.659668h-0.5664063v0.4868164l0.5322266,0.1020508v0.5952148h-2.065918
		V8.9790039l0.5356445-0.1020508V8.3901367h-2.0385742l-0.0478516-0.4863281l2.0761719-3.2832031h1.0083008V7.7304688z
		 M42.8569336,7.7304688h1.1499023V5.9443359L43.9858398,5.9375l-0.0820313,0.1425781L42.8569336,7.7304688z"/>
	<path class="st2" d="M45.9492188,9.5742188V8.9790039l0.53125-0.1020508V5.3217773l-0.53125-0.1020508V4.6206055h0.53125h1.0019531
		h0.5351563v0.5991211l-0.5351563,0.1020508v3.4902344h1.4101563l0.0478516-0.6225586h0.765625v1.3847656H45.9492188z"/>
	<path class="st2" d="M53.5869141,7.6450195c0,0.6557617-0.1513672,1.152832-0.4550781,1.4921875
		c-0.3027344,0.3388672-0.7128906,0.5083008-1.2294922,0.5083008c-0.5214844,0-0.9345703-0.1694336-1.2392578-0.5083008
		c-0.3037109-0.3393555-0.4560547-0.8364258-0.4560547-1.4921875V6.5532227c0-0.6533203,0.1513672-1.1503906,0.4550781-1.4916992
		c0.3027344-0.3417969,0.7138672-0.512207,1.2333984-0.512207c0.5166016,0,0.9277344,0.1704102,1.2333984,0.512207
		c0.3056641,0.3413086,0.4580078,0.8383789,0.4580078,1.4916992V7.6450195z M52.5888672,6.4511719
		c0-0.3925781-0.0595703-0.6801758-0.1787109-0.8623047c-0.1191406-0.1826172-0.2910156-0.2739258-0.5146484-0.2739258
		c-0.2265625,0-0.3984375,0.090332-0.5146484,0.2719727c-0.1171875,0.1816406-0.1748047,0.4697266-0.1748047,0.8642578v1.2890625
		c0,0.3994141,0.0585938,0.6899414,0.1767578,0.8710938C51.5,8.7929688,51.6738281,8.8837891,51.9023438,8.8837891
		c0.2236328,0,0.3945313-0.0908203,0.5107422-0.2724609c0.1171875-0.1811523,0.1757813-0.4716797,0.1757813-0.8710938V6.4511719z"/>
	<path class="st2" d="M54.1123047,8.9790039l0.84375-0.1020508V5.5224609h-0.8544922V4.9541016l1.8525391-0.3334961v4.2563477
		l0.8447266,0.1020508v0.5952148h-2.6865234V8.9790039z"/>
	<path class="st2" d="M59.3554688,6.8115234h1.2314453v0.8574219h-1.2314453v1.4086914h-0.9511719V7.6689453h-1.2421875V6.8115234
		h1.2421875v-1.340332h0.9511719V6.8115234z"/>
</g>
<g>
	<g id="XMLID_138_">
		<g>
			<rect x="37.4918861" y="13.3149405" class="st3" width="3.662437" height="8.5589418"/>
		</g>
		<g>
		</g>
	</g>
	<g id="XMLID_137_">
		<g>
			<rect x="34.4386635" y="16.918705" class="st1" width="2.9478152" height="1.6072793"/>
		</g>
		<g>
		</g>
	</g>
	<g id="XMLID_136_">
		<g>
			<rect x="41.1543198" y="14.1113729" class="st1" width="3.5123663" height="1.6811564"/>
		</g>
		<g>
		</g>
	</g>
	<g id="XMLID_135_">
		<g>
			<rect x="41.1543198" y="19.5999069" class="st1" width="3.5123663" height="1.6811564"/>
		</g>
		<g>
		</g>
	</g>
	<g>
		<path class="st4" d="M39.6630859,18.5444336c0.1591797,0,0.2822266,0.0493164,0.3691406,0.1474609
			c0.0859375,0.0981445,0.1289063,0.2294922,0.1289063,0.3945313c0,0.0395508-0.0029297,0.0917969-0.0097656,0.1577148
			s-0.015625,0.1206055-0.0253906,0.1650391h-0.2255859v-0.0136719c0.0107422-0.0336914,0.0224609-0.0751953,0.0351563-0.1245117
			c0.0117188-0.0488281,0.0185547-0.0996094,0.0185547-0.1513672c0-0.0756836-0.0087891-0.1357422-0.0263672-0.1801758
			c-0.0166016-0.0449219-0.0410156-0.078125-0.0732422-0.0991211c-0.0322266-0.0224609-0.0722656-0.0366211-0.1191406-0.0424805
			c-0.0478516-0.0063477-0.1015625-0.0092773-0.1640625-0.0092773h-1.0615234v0.3876953h-0.1923828v-0.6318359H39.6630859z"/>
		<path class="st4" d="M39.2597656,17.0375977c0.0351563-0.0390625,0.0791016-0.0717773,0.1318359-0.097168
			c0.0537109-0.0253906,0.1220703-0.0380859,0.2050781-0.0380859c0.0839844,0,0.1591797,0.0151367,0.2285156,0.0454102
			c0.0693359,0.0307617,0.1298828,0.0732422,0.1806641,0.128418c0.0576172,0.0615234,0.0996094,0.1337891,0.1269531,0.2172852
			s0.0410156,0.1748047,0.0410156,0.2739258c0,0.1020508-0.0126953,0.2021484-0.0361328,0.3007813
			c-0.0244141,0.0986328-0.0507813,0.1791992-0.0791016,0.2426758h-0.2548828v-0.0185547
			c0.0458984-0.0698242,0.0830078-0.1518555,0.1132813-0.246582c0.0302734-0.0942383,0.0449219-0.1855469,0.0449219-0.2734375
			c0-0.0517578-0.0078125-0.1064453-0.0253906-0.1650391c-0.0166016-0.0581055-0.0419922-0.1054688-0.0751953-0.1416016
			c-0.0361328-0.0375977-0.0751953-0.065918-0.1191406-0.0844727c-0.0429688-0.0180664-0.0976563-0.0273438-0.1630859-0.0273438
			s-0.1191406,0.0102539-0.1621094,0.03125s-0.0761719,0.0498047-0.1005859,0.0869141
			c-0.0253906,0.0366211-0.0429688,0.081543-0.0517578,0.1342773C39.2548828,17.4584961,39.25,17.5151367,39.25,17.5761719
			v0.1108398h-0.2021484v-0.0864258c0-0.1245117-0.0263672-0.2241211-0.078125-0.2983398
			c-0.0517578-0.074707-0.1269531-0.1118164-0.2265625-0.1118164c-0.0439453,0-0.0820313,0.0097656-0.1152344,0.0283203
			c-0.0332031,0.019043-0.0595703,0.0454102-0.0810547,0.0791016c-0.0214844,0.0351563-0.0361328,0.0727539-0.0439453,0.1132813
			c-0.0078125,0.0400391-0.0126953,0.0859375-0.0126953,0.1367188c0,0.078125,0.0146484,0.1611328,0.0419922,0.2485352
			c0.0273438,0.0878906,0.0664063,0.1708984,0.1171875,0.2490234v0.012207h-0.2548828
			c-0.0292969-0.0581055-0.0546875-0.1362305-0.0791016-0.2333984s-0.0361328-0.1914063-0.0361328-0.2827148
			c0-0.0893555,0.0078125-0.1679688,0.0244141-0.2363281s0.0419922-0.1298828,0.078125-0.1845703
			c0.0390625-0.0595703,0.0869141-0.1040039,0.1416016-0.1342773c0.0556641-0.0307617,0.1201172-0.0458984,0.1943359-0.0458984
			c0.1005859,0,0.1894531,0.0361328,0.2646484,0.1079102s0.1230469,0.1567383,0.1425781,0.2543945h0.0166016
			c0.0068359-0.0395508,0.0205078-0.0844727,0.0410156-0.1357422C39.203125,17.1162109,39.2294922,17.0732422,39.2597656,17.0375977
			z"/>
		<path class="st4" d="M38.3173828,15.168457l1.0205078,0.6450195h0.7978516v0.2441406h-0.7714844l-1.046875,0.6479492v-0.2700195
			l0.8134766-0.5009766l-0.8134766-0.5063477V15.168457z"/>
	</g>
</g>
<g id="ГРУППА_4_">
	<g>
		<polygon class="st5" points="50.9636192,19.4395885 50.9636192,22.8772488 46.7081451,22.8772488 46.7081451,19.4395885 
			47.0179214,19.4395885 47.0179214,20.1441135 50.6237488,20.1441135 50.6237488,19.4395885 		"/>
		<polygon class="st5" points="50.922905,12.3111324 50.922905,15.7487936 50.6237488,15.7487936 50.6237488,14.9823122 
			47.0179214,14.9823122 47.0179214,15.7487936 46.6674309,15.7487936 46.6674309,12.3111324 		"/>
		<rect x="47.0179214" y="19.4395885" class="st6" width="3.6058266" height="0.7045258"/>
		<rect x="47.0179214" y="15.7487936" class="st6" width="3.6058266" height="3.6907945"/>
		<rect x="47.0179214" y="14.9823122" class="st6" width="3.6058266" height="0.7664815"/>
	</g>
	<g>
	</g>
</g>
<g id="ГРУППА_3_">
	<g>
		<polygon class="st5" points="32.4392548,19.4395885 32.4392548,22.8772488 28.1837769,22.8772488 28.1837769,19.4395885 
			28.493557,19.4395885 28.493557,20.1441135 32.0993843,20.1441135 32.0993843,19.4395885 		"/>
		<polygon class="st5" points="32.3985405,12.3111324 32.3985405,15.7487936 32.0993843,15.7487936 32.0993843,14.9823122 
			28.493557,14.9823122 28.493557,15.7487936 28.1430626,15.7487936 28.1430626,12.3111324 		"/>
		<rect x="28.493557" y="19.4395885" class="st6" width="3.6058266" height="0.7045258"/>
		<rect x="28.493557" y="15.7487936" class="st6" width="3.6058266" height="3.6907945"/>
		<rect x="28.493557" y="14.9823122" class="st6" width="3.6058266" height="0.7664815"/>
	</g>
	<g>
	</g>
</g>
<g>
	<g id="XMLID_197_">
		<g>
			<rect x="59.2189255" y="19.4398251" class="st5" width="4.255477" height="3.4376609"/>
		</g>
		<g>
		</g>
	</g>
	<g id="XMLID_196_">
		<g>
			<rect x="59.1782112" y="12.3113689" class="st5" width="4.255477" height="3.4376609"/>
		</g>
		<g>
		</g>
	</g>
	<g id="XMLID_195_">
		<g>
			<rect x="59.5287018" y="14.9819355" class="st3" width="3.6058266" height="5.1633434"/>
		</g>
		<g>
		</g>
	</g>
	<g>
		<path class="st4" d="M61.875,18.1376953v0.6967773h-0.1308594v-0.2680664h-0.8632813v0.2680664h-0.1171875
			c0-0.0361328-0.0029297-0.0751953-0.0087891-0.1166992s-0.0146484-0.0727539-0.0263672-0.0942383
			c-0.0146484-0.0263672-0.0332031-0.0473633-0.0546875-0.0625c-0.0224609-0.015625-0.0527344-0.0244141-0.0898438-0.0263672
			v-0.1342773h1.1601563v-0.2626953H61.875z"/>
		<path class="st4" d="M61.2314453,17.1176758c0.2304688,0,0.4003906,0.0361328,0.5087891,0.1083984
			c0.1074219,0.0722656,0.1621094,0.1845703,0.1621094,0.3369141c0,0.1542969-0.0546875,0.2670898-0.1640625,0.3383789
			c-0.1103516,0.0712891-0.2783203,0.1064453-0.5048828,0.1064453c-0.2294922,0-0.3984375-0.0356445-0.5068359-0.1079102
			c-0.109375-0.0717773-0.1640625-0.184082-0.1640625-0.3369141c0-0.1542969,0.0556641-0.2670898,0.1660156-0.3383789
			C60.8398438,17.1533203,61.0068359,17.1176758,61.2314453,17.1176758z M61.6240234,17.3452148
			c-0.046875-0.0205078-0.1015625-0.0341797-0.1650391-0.0410156c-0.0634766-0.0073242-0.1386719-0.0107422-0.2275391-0.0107422
			c-0.0878906,0-0.1640625,0.003418-0.2285156,0.0107422c-0.0644531,0.0068359-0.1191406,0.0209961-0.1640625,0.0419922
			c-0.0439453,0.0200195-0.078125,0.0473633-0.1005859,0.0825195c-0.0224609,0.034668-0.0332031,0.0795898-0.0332031,0.1342773
			c0,0.0541992,0.0107422,0.0991211,0.0332031,0.1342773c0.0224609,0.0356445,0.0566406,0.0634766,0.1025391,0.0844727
			c0.0419922,0.0195313,0.0976563,0.0327148,0.1669922,0.0400391c0.0683594,0.0073242,0.1435547,0.0107422,0.2255859,0.0107422
			c0.0898438,0,0.1650391-0.0029297,0.2255859-0.0092773s0.1142578-0.0200195,0.1621094-0.0410156
			c0.0449219-0.0185547,0.0791016-0.0458984,0.1025391-0.0805664c0.0244141-0.034668,0.0361328-0.0810547,0.0361328-0.1386719
			c0-0.0541992-0.0117188-0.0991211-0.0341797-0.1347656S61.6689453,17.3647461,61.6240234,17.3452148z"/>
		<path class="st4" d="M61.875,16.1674805v0.8710938h-0.1806641c-0.0517578-0.0605469-0.1035156-0.1210938-0.1552734-0.1821289
			c-0.0517578-0.0605469-0.1035156-0.1171875-0.1542969-0.1694336c-0.1074219-0.1108398-0.1923828-0.1865234-0.2558594-0.2275391
			s-0.1308594-0.0615234-0.2041016-0.0615234c-0.0673828,0-0.1191406,0.0219727-0.1572266,0.0664063
			c-0.0380859,0.0439453-0.0566406,0.1054688-0.0566406,0.1845703c0,0.0522461,0.0087891,0.1088867,0.0273438,0.1699219
			s0.046875,0.1210938,0.0849609,0.1791992v0.0087891h-0.1816406c-0.0195313-0.0410156-0.0380859-0.0957031-0.0546875-0.1640625
			c-0.0175781-0.0683594-0.0253906-0.1342773-0.0253906-0.1982422c0-0.1318359,0.0322266-0.2353516,0.0957031-0.3105469
			c0.0634766-0.074707,0.1494141-0.1123047,0.2587891-0.1123047c0.0488281,0,0.0947266,0.0063477,0.1367188,0.0185547
			c0.0419922,0.0126953,0.0830078,0.0307617,0.1210938,0.0551758c0.0351563,0.0224609,0.0703125,0.0488281,0.1054688,0.0791016
			c0.0341797,0.0302734,0.0722656,0.0668945,0.1142578,0.1098633c0.0605469,0.0620117,0.1191406,0.1254883,0.1757813,0.1914063
			c0.0566406,0.0654297,0.109375,0.1269531,0.1582031,0.184082v-0.6923828H61.875z"/>
	</g>
</g>
<g>
	<g>
		<g id="XMLID_140_">
			<g>
				<rect x="52.9632072" y="19.441021" class="st5" width="4.255477" height="3.4358907"/>
			</g>
			<g>
			</g>
		</g>
		<g id="XMLID_139_">
			<g>
				<rect x="53.0039215" y="12.3107958" class="st5" width="4.255477" height="3.4376609"/>
			</g>
			<g>
			</g>
		</g>
		<circle class="st7" cx="55.2135315" cy="17.5298195" r="0.5520833"/>
	</g>
	<path class="st8" d="M55.131485,14.9183893c0.2929649,0.0003471,0.6022453-0.1414051,0.6939087-0.4296093
		c0.0212898-0.060648,1.4339752-0.060648,1.4339752-0.060648s0,0.7387772,0,1.4775543h-4.2557678
		c0-0.7387772,0-1.4775543,0-1.4775543s1.4126854,0,1.4339752,0.060648
		C54.5292397,14.7769842,54.8385201,14.9187365,55.131485,14.9183893"/>
	<path class="st8" d="M55.131485,20.2084713c0.2929649-0.0003471,0.6022453,0.141407,0.6939087,0.4296093
		c0.0212898,0.060648,1.4339752,0.060648,1.4339752,0.060648s0-0.7387772,0-1.4775543h-4.2557678
		c0,0.7387772,0,1.4775543,0,1.4775543s1.4126854,0,1.4339752-0.060648
		C54.5292397,20.3498783,54.8385201,20.2081242,55.131485,20.2084713"/>
	
		<rect x="53.4737396" y="15.4355459" transform="matrix(4.498783e-11 1 -1 4.498783e-11 72.6949158 -37.5680542)" class="st9" width="3.3154881" height="4.2557707"/>
	
		<rect x="53.4737396" y="15.4355459" transform="matrix(4.498783e-11 1 -1 4.498783e-11 72.6949158 -37.5680542)" class="st10" width="3.3154881" height="4.2557707"/>
</g>
<g id="сглаживающий_конденсатор_3_">
	<rect x="21.5421467" y="12.3115749" class="st5" width="4.6407447" height="2.7990506"/>
	<rect x="21.5421467" y="20.0781975" class="st5" width="4.6407447" height="2.7990506"/>
	<rect x="21.5421467" y="13.7111006" class="st8" width="4.6407447" height="7.766623"/>
	<rect x="21.5421467" y="20.1980534" class="st11" width="4.6407447" height="1.2796705"/>
</g>
<g>
	<g>
		<rect x="18.5297852" y="25.3720703" class="st12" width="50.7290039" height="34.5722656"/>
		<path class="st13" d="M69.1124115,25.5193062v34.2780609H18.6768684V30.1478062v-4.6285H69.1124115 M69.4064484,25.2252674
			H18.3828278v4.9225388v29.9436016h51.0236206V25.2252674L69.4064484,25.2252674z"/>
	</g>
	<g>
		<g>
			
				<rect x="17.0804062" y="53.5265656" transform="matrix(8.867846e-11 -1 1 8.867846e-11 -37.8930359 74.8024826)" class="st5" width="2.7486296" height="5.642385"/>
			<g>
				<path class="st11" d="M18.6450195,57.5966797l0.3115234-0.3847656c0.4047852-0.5009766,0.4047852-1.2275391,0-1.7285156
					l-0.3115234-0.3847656h2.5058594v2.4980469H18.6450195z"/>
				<path class="st13" d="M21.0259113,55.2234497v2.2486191h-2.1192894l0.1471291-0.181881
					c0.44174-0.5460777,0.44174-1.3387794,0-1.8848572l-0.1471291-0.181881H21.0259113 M21.2759113,54.9734497h-2.8930817
					l0.4765511,0.5891113c0.37043,0.4579277,0.37043,1.1124687,0,1.5703964l-0.4765511,0.5891113h2.8930817V54.9734497
					L21.2759113,54.9734497z"/>
			</g>
			<g>
				<rect x="50.0654297" y="57.1914063" class="st11" width="2.4990234" height="2.6435547"/>
				<path class="st13" d="M52.4389763,57.3165512v2.3930817h-2.2486305v-2.3930817H52.4389763 M52.6889763,57.0665512h-2.7486305
					v2.8930817h2.7486305V57.0665512L52.6889763,57.0665512z"/>
			</g>
		</g>
		<g>
			
				<rect x="17.0804062" y="49.609024" transform="matrix(8.867846e-11 -1 1 8.867846e-11 -33.9754982 70.8849411)" class="st5" width="2.7486296" height="5.642385"/>
			<g>
				<path class="st11" d="M18.6450195,53.6796875l0.3115234-0.3847656c0.4052734-0.5009766,0.4052734-1.2285156,0-1.7294922
					l-0.3115234-0.3847656h2.5058594v2.4990234H18.6450195z"/>
				<path class="st13" d="M21.0259113,51.3059006v2.2486305h-2.1192894l0.1471291-0.181881
					c0.4417286-0.5460777,0.4417286-1.3387794,0-1.8848686l-0.1471291-0.181881H21.0259113 M21.2759113,51.0559006h-2.8930817
					l0.4765511,0.5891113c0.37043,0.4579391,0.37043,1.1124802,0,1.5704079l-0.4765511,0.5891113h2.8930817V51.0559006
					L21.2759113,51.0559006z"/>
			</g>
		</g>
		<g>
			
				<rect x="17.0804062" y="45.699913" transform="matrix(8.867846e-11 -1 1 8.867846e-11 -30.0663834 66.9758301)" class="st5" width="2.7486296" height="5.642385"/>
			<g>
				<path class="st11" d="M18.6450195,49.7705078l0.3115234-0.3847656c0.4052734-0.5019531,0.4052734-1.2285156,0-1.7285156
					l-0.3120117-0.3857422h2.5063477v2.4990234H18.6450195z"/>
				<path class="st13" d="M21.0259113,47.3967934v2.2486305h-2.1192894l0.1471291-0.181881
					c0.4417286-0.5460892,0.4417286-1.3387909,0-1.8848686l-0.1471291-0.181881H21.0259113 M21.2759113,47.1467934h-2.8930817
					l0.4765511,0.5891113c0.37043,0.4579277,0.37043,1.1124687,0,1.5704079l-0.4765511,0.5891113h2.8930817V47.1467934
					L21.2759113,47.1467934z"/>
			</g>
		</g>
		<g>
			
				<rect x="17.0804062" y="41.7572174" transform="matrix(8.867846e-11 -1 1 8.867846e-11 -26.1236897 63.0331345)" class="st5" width="2.7486296" height="5.642385"/>
			<g>
				<path class="st11" d="M18.6445313,45.828125l0.3120117-0.3867188c0.4047852-0.5,0.4047852-1.2265625,0-1.7270508
					l-0.3115234-0.3852539h2.5058594v2.4990234H18.6445313z"/>
				<path class="st13" d="M21.0259113,43.4541016v2.2486191h-2.1192894l0.1471291-0.181881
					c0.44174-0.5460777,0.44174-1.3387794,0-1.8848572l-0.1471291-0.181881H21.0259113 M21.2759113,43.2041016h-2.8930817
					l0.4765511,0.5891113c0.37043,0.4579277,0.37043,1.1124687,0,1.5703964l-0.4765511,0.5891113h2.8930817V43.2041016
					L21.2759113,43.2041016z"/>
			</g>
		</g>
		<g>
			
				<rect x="17.0804062" y="37.8641586" transform="matrix(8.867846e-11 -1 1 8.867846e-11 -22.230629 59.1400719)" class="st5" width="2.7486296" height="5.642385"/>
			<g>
				<path class="st11" d="M18.6450195,41.9345703l0.3115234-0.3852539c0.4052734-0.5009766,0.4052734-1.2275391,0-1.7275391
					l-0.3120117-0.3857422h2.5063477v2.4985352H18.6450195z"/>
				<path class="st13" d="M21.0259113,39.561039v2.2486305h-2.1192894l0.1471291-0.181881
					c0.4417286-0.5460892,0.4417286-1.3387909,0-1.8848686l-0.1471291-0.181881H21.0259113 M21.2759113,39.311039h-2.8930817
					l0.4765511,0.5891113c0.37043,0.4579277,0.37043,1.1124687,0,1.5704079l-0.4765511,0.5891113h2.8930817V39.311039
					L21.2759113,39.311039z"/>
			</g>
		</g>
		<g>
			
				<rect x="17.0804062" y="33.9524689" transform="matrix(8.867846e-11 -1 1 8.867846e-11 -18.3189411 55.2283859)" class="st5" width="2.7486296" height="5.642385"/>
			<g>
				<path class="st11" d="M18.6450195,38.0229492l0.3115234-0.3852539c0.4052734-0.5004883,0.4052734-1.2275391,0-1.7280273
					l-0.3115234-0.3852539h2.5058594v2.4985352H18.6450195z"/>
				<path class="st13" d="M21.0259113,35.649353v2.2486191h-2.1192894l0.1471291-0.181881
					c0.44174-0.5460777,0.44174-1.3387794,0-1.8848572l-0.1471291-0.181881H21.0259113 M21.2759113,35.399353h-2.8930817
					l0.4765511,0.5891113c0.37043,0.4579277,0.37043,1.1124687,0,1.5703964l-0.4765511,0.5891113h2.8930817V35.399353
					L21.2759113,35.399353z"/>
			</g>
		</g>
		<g>
			
				<rect x="17.0804062" y="30.0594101" transform="matrix(8.867846e-11 -1 1 8.867846e-11 -14.4258814 51.3353233)" class="st5" width="2.7486296" height="5.642385"/>
			<g>
				<path class="st11" d="M18.6450195,34.1298828l0.3115234-0.3852539c0.4052734-0.5004883,0.4052734-1.2275391,0-1.7280273
					l-0.3115234-0.3852539h2.5058594v2.4985352H18.6450195z"/>
				<path class="st13" d="M21.0259113,31.7562847v2.2486286h-2.1192894l0.1471291-0.181881
					c0.44174-0.5460777,0.44174-1.3387794,0-1.8848591l-0.1471348-0.1818886H21.0259113 M21.2759113,31.5062847h-2.8930817
					l0.4765511,0.5891209c0.37043,0.4579277,0.37043,1.1124687,0,1.5703964l-0.4765511,0.5891113h2.8930817V31.5062847
					L21.2759113,31.5062847z"/>
			</g>
		</g>
		<g>
			
				<rect x="17.0804062" y="26.1477222" transform="matrix(8.867846e-11 -1 1 8.867846e-11 -10.5141926 47.4236374)" class="st5" width="2.7486296" height="5.642385"/>
			<g>
				<path class="st11" d="M18.6445313,30.2182617l0.3120117-0.3857422c0.4052734-0.5,0.4052734-1.2265625,0-1.7275391
					l-0.3115234-0.3852539h2.5058594v2.4985352H18.6445313z"/>
				<path class="st13" d="M21.0259113,27.8446045v2.2486286h-2.1192951l0.1471348-0.1818886
					c0.44174-0.5460796,0.44174-1.3387814,0-1.884861l-0.1471291-0.181879H21.0259113 M21.2759113,27.5946045h-2.8930817
					l0.4765511,0.5891094c0.37043,0.4579296,0.37043,1.1124706,0,1.5704002l-0.4765511,0.589119h2.8930817V27.5946045
					L21.2759113,27.5946045z"/>
			</g>
		</g>
		<g>
			<circle class="st13" cx="51.3146629" cy="58.5130959" r="0.5937263"/>
		</g>
	</g>
	<polygon class="st11" points="68.4064484,59.5745926 66.5941925,59.5745926 66.5941925,50.6548729 55.9275284,50.6548729 
		55.9275284,45.0221405 66.5941925,45.0221405 66.5941925,43.1263084 55.9275284,43.1263084 55.9275284,37.4942017 
		66.5941925,37.4942017 66.5941925,35.6263084 55.9275284,35.6263084 55.9275284,29.9596424 66.5941925,29.9596424 
		66.5941925,28.1054745 52.2400284,28.1054745 52.2400284,50.6548729 50.4483604,50.6548729 50.4483604,28.1054745 
		48.9639854,28.1054745 48.9639854,26.2252674 68.4064484,26.2252674 68.4064484,31.8658924 57.7921104,31.8658924 
		57.7921104,33.7565155 68.4064484,33.7565155 68.4064484,39.3815155 57.8233604,39.3815155 57.8233604,41.2408905 
		68.4064484,41.2408905 68.4064484,46.8815155 57.8233604,46.8815155 57.8233604,48.7877655 68.4064484,48.7877655 
		68.4064484,59.5221405 	"/>
	<g id="Кварц_1_">
		<path class="st8" d="M29.3910694,52.4302177h8.5039387c0.1565514,0,0.2834625,0.1269112,0.2834625,0.2834663v6.3779526
			c0,0.1565514-0.1269112,0.2834625-0.2834625,0.2834625h-8.5039387c-0.1565533,0-0.2834644-0.1269112-0.2834644-0.2834625
			v-6.3779526C29.107605,52.5571289,29.2345161,52.4302177,29.3910694,52.4302177z"/>
		<path class="st14" d="M30.0288658,52.9971466h7.228344c0.1565552,0,0.2834663,0.1269112,0.2834663,0.2834663v5.2440948
			c0,0.1565514-0.1269112,0.2834625-0.2834663,0.2834625h-7.228344c-0.1565533,0-0.2834644-0.1269112-0.2834644-0.2834625
			v-5.2440948C29.7454014,53.1240578,29.8723125,52.9971466,30.0288658,52.9971466z"/>
		<g>
			<path class="st4" d="M36.074707,56.0742188h0.7871094v0.1484375H36.559082v0.9746094h0.3027344v0.1328125
				c-0.0410156,0-0.0849609,0.0039063-0.1318359,0.0107422s-0.0825195,0.0166016-0.1064453,0.0292969
				c-0.0297852,0.0166016-0.0537109,0.0371094-0.0708008,0.0625c-0.0170898,0.0244141-0.0273438,0.0585938-0.0297852,0.1005859
				H36.371582v-1.3105469h-0.296875V56.0742188z"/>
			<path class="st4" d="M34.6987305,56.5458984c0-0.1474609,0.0488281-0.2685547,0.1459961-0.3613281
				c0.097168-0.09375,0.2167969-0.140625,0.3579102-0.140625c0.0717773,0,0.1367188,0.0117188,0.1953125,0.0332031
				c0.0585938,0.0224609,0.1103516,0.0556641,0.1552734,0.0986328c0.0561523,0.0546875,0.0991211,0.1259766,0.1293945,0.2148438
				c0.0302734,0.0898438,0.0454102,0.1972656,0.0454102,0.3222656c0,0.1289063-0.0136719,0.2431641-0.0415039,0.3427734
				s-0.0717773,0.1884766-0.1323242,0.265625c-0.0571289,0.0742188-0.1313477,0.1308594-0.2216797,0.1728516
				c-0.090332,0.0410156-0.1958008,0.0615234-0.3164063,0.0615234c-0.0385742,0-0.0708008-0.0009766-0.0966797-0.0048828
				c-0.0258789-0.0029297-0.0522461-0.0087891-0.0791016-0.0175781v-0.1865234h0.0097656
				c0.0180664,0.0097656,0.0458984,0.0195313,0.0825195,0.0283203s0.0742188,0.0126953,0.112793,0.0126953
				c0.1401367,0,0.2514648-0.0439453,0.3349609-0.1308594c0.0834961-0.0878906,0.1318359-0.2060547,0.1455078-0.3554688
				c-0.0546875,0.0332031-0.1083984,0.0585938-0.1616211,0.0761719c-0.0532227,0.0166016-0.1142578,0.0253906-0.184082,0.0253906
				c-0.0620117,0-0.1162109-0.0058594-0.1635742-0.0166016c-0.0473633-0.0117188-0.0957031-0.0341797-0.1450195-0.0693359
				c-0.0571289-0.0390625-0.1005859-0.0898438-0.1293945-0.1503906S34.6987305,56.6328125,34.6987305,56.5458984z
				 M34.8969727,56.5380859c0,0.0605469,0.0087891,0.1113281,0.0268555,0.1503906
				c0.0180664,0.0400391,0.0473633,0.0742188,0.0883789,0.1035156c0.0297852,0.0214844,0.0629883,0.0351563,0.0996094,0.0410156
				c0.0366211,0.0068359,0.074707,0.0097656,0.1142578,0.0097656c0.0551758,0,0.1069336-0.0058594,0.1542969-0.0195313
				c0.0473633-0.0126953,0.0961914-0.0332031,0.1464844-0.0605469c0.0014648-0.0136719,0.0024414-0.0283203,0.0029297-0.0410156
				c0.0004883-0.0136719,0.0009766-0.0302734,0.0009766-0.0507813c0-0.1025391-0.0107422-0.1835938-0.0317383-0.2431641
				s-0.050293-0.1064453-0.0874023-0.1416016c-0.0297852-0.0283203-0.0625-0.0498047-0.097168-0.0625
				c-0.034668-0.0136719-0.0727539-0.0205078-0.1137695-0.0205078c-0.0942383,0-0.168457,0.0292969-0.2226563,0.0869141
				S34.8969727,56.4306641,34.8969727,56.5380859z"/>
			<path class="st4" d="M34.1098633,56.0742188h0.2333984v0.2783203h-0.2333984V56.0742188z"/>
			<path class="st4" d="M32.7231445,56.8017578c0-0.2607422,0.0410156-0.4521484,0.1225586-0.5742188
				s0.2084961-0.1835938,0.3803711-0.1835938c0.1743164,0,0.3017578,0.0625,0.3823242,0.1855469
				c0.0805664,0.1240234,0.1206055,0.3144531,0.1206055,0.5703125c0,0.2587891-0.0405273,0.4492188-0.1220703,0.5732422
				c-0.081543,0.1230469-0.2084961,0.1845703-0.3808594,0.1845703c-0.1743164,0-0.3017578-0.0625-0.3823242-0.1875
				C32.7631836,57.2441406,32.7231445,57.0556641,32.7231445,56.8017578z M32.9799805,56.3583984
				c-0.0229492,0.0527344-0.0380859,0.1152344-0.0463867,0.1865234s-0.012207,0.1572266-0.012207,0.2568359
				s0.0039063,0.1855469,0.012207,0.2578125c0.0083008,0.0732422,0.0239258,0.1347656,0.0473633,0.1855469
				c0.0229492,0.0507813,0.0537109,0.0878906,0.0932617,0.1132813s0.0898438,0.0380859,0.1518555,0.0380859
				c0.0610352,0,0.1118164-0.0126953,0.1518555-0.0380859s0.0717773-0.0634766,0.0952148-0.1152344
				c0.0219727-0.0478516,0.0371094-0.1103516,0.0454102-0.1884766c0.0083008-0.0771484,0.012207-0.1621094,0.012207-0.2548828
				c0-0.1015625-0.003418-0.1865234-0.0107422-0.2548828s-0.0224609-0.1289063-0.0458984-0.1835938
				c-0.0214844-0.0507813-0.0517578-0.0888672-0.0913086-0.1162109c-0.0395508-0.0263672-0.0917969-0.0400391-0.1567383-0.0400391
				c-0.0610352,0-0.1118164,0.0126953-0.1523438,0.0380859S33.0019531,56.3076172,32.9799805,56.3583984z"/>
			<path class="st4" d="M31.4516602,56.8017578c0-0.2607422,0.0410156-0.4521484,0.1225586-0.5742188
				s0.2084961-0.1835938,0.3803711-0.1835938c0.1743164,0,0.3017578,0.0625,0.3823242,0.1855469
				c0.0805664,0.1240234,0.1206055,0.3144531,0.1206055,0.5703125c0,0.2587891-0.0405273,0.4492188-0.1220703,0.5732422
				c-0.081543,0.1230469-0.2084961,0.1845703-0.3808594,0.1845703c-0.1743164,0-0.3017578-0.0625-0.3823242-0.1875
				C31.4916992,57.2441406,31.4516602,57.0556641,31.4516602,56.8017578z M31.7084961,56.3583984
				c-0.0229492,0.0527344-0.0380859,0.1152344-0.0463867,0.1865234s-0.012207,0.1572266-0.012207,0.2568359
				s0.0039063,0.1855469,0.012207,0.2578125c0.0083008,0.0732422,0.0239258,0.1347656,0.0473633,0.1855469
				c0.0229492,0.0507813,0.0537109,0.0878906,0.0932617,0.1132813s0.0898438,0.0380859,0.1518555,0.0380859
				c0.0610352,0,0.1118164-0.0126953,0.1518555-0.0380859s0.0717773-0.0634766,0.0952148-0.1152344
				c0.0219727-0.0478516,0.0371094-0.1103516,0.0454102-0.1884766c0.0083008-0.0771484,0.012207-0.1621094,0.012207-0.2548828
				c0-0.1015625-0.003418-0.1865234-0.0107422-0.2548828s-0.0224609-0.1289063-0.0458984-0.1835938
				c-0.0214844-0.0507813-0.0517578-0.0888672-0.0913086-0.1162109c-0.0395508-0.0263672-0.0917969-0.0400391-0.1567383-0.0400391
				c-0.0610352,0-0.1118164,0.0126953-0.1523438,0.0380859S31.7304688,56.3076172,31.7084961,56.3583984z"/>
			<path class="st4" d="M30.1801758,56.8017578c0-0.2607422,0.0410156-0.4521484,0.1225586-0.5742188
				s0.2084961-0.1835938,0.3803711-0.1835938c0.1743164,0,0.3017578,0.0625,0.3823242,0.1855469
				c0.0805664,0.1240234,0.1206055,0.3144531,0.1206055,0.5703125c0,0.2587891-0.0405273,0.4492188-0.1220703,0.5732422
				c-0.081543,0.1230469-0.2084961,0.1845703-0.3808594,0.1845703c-0.1743164,0-0.3017578-0.0625-0.3823242-0.1875
				C30.2202148,57.2441406,30.1801758,57.0556641,30.1801758,56.8017578z M30.4370117,56.3583984
				c-0.0229492,0.0527344-0.0380859,0.1152344-0.0463867,0.1865234s-0.012207,0.1572266-0.012207,0.2568359
				s0.0039063,0.1855469,0.012207,0.2578125c0.0083008,0.0732422,0.0239258,0.1347656,0.0473633,0.1855469
				c0.0229492,0.0507813,0.0537109,0.0878906,0.0932617,0.1132813s0.0898438,0.0380859,0.1518555,0.0380859
				c0.0610352,0,0.1118164-0.0126953,0.1518555-0.0380859s0.0717773-0.0634766,0.0952148-0.1152344
				c0.0219727-0.0478516,0.0371094-0.1103516,0.0454102-0.1884766c0.0083008-0.0771484,0.012207-0.1621094,0.012207-0.2548828
				c0-0.1015625-0.003418-0.1865234-0.0107422-0.2548828s-0.0224609-0.1289063-0.0458984-0.1835938
				c-0.0214844-0.0507813-0.0517578-0.0888672-0.0913086-0.1162109c-0.0395508-0.0263672-0.0917969-0.0400391-0.1567383-0.0400391
				c-0.0610352,0-0.1118164,0.0126953-0.1523438,0.0380859S30.4589844,56.3076172,30.4370117,56.3583984z"/>
			<path class="st4" d="M34.2202148,54.0742188h0.1933594v1.2529297l0.4042969-0.8525391h0.1152344l0.4013672,0.8525391v-1.2529297
				h0.1806641v1.4541016h-0.2636719L34.8637695,54.71875l-0.375,0.8095703h-0.2685547V54.0742188z"/>
			<path class="st4" d="M32.7172852,54.0742188h0.1933594v0.7119141h0.7255859v-0.7119141h0.1933594v1.4541016h-0.1933594
				v-0.5703125h-0.7255859v0.5703125h-0.1933594V54.0742188z"/>
			<path class="st4" d="M31.550293,54.0742188h0.8808594v0.1357422l-0.6357422,0.8017578h0.6220703v0.1533203h-0.8505859v-0.1308594
				l0.6386719-0.8046875H31.550293V54.0742188z"/>
		</g>
		<g id="XMLID_75_">
			<g>
				<rect x="28.8036537" y="52.7404137" class="st1" width="0.3039453" height="1.1338588"/>
			</g>
			<g>
			</g>
		</g>
		<g id="XMLID_74_">
			<g>
				<rect x="28.8036537" y="57.9319267" class="st1" width="0.3039453" height="1.1338588"/>
			</g>
			<g>
			</g>
		</g>
		<g id="XMLID_77_">
			<g>
				<rect x="38.1784019" y="52.7404137" class="st1" width="0.3039453" height="1.1338588"/>
			</g>
			<g>
			</g>
		</g>
		<g id="XMLID_76_">
			<g>
				<rect x="38.1784019" y="57.9319267" class="st1" width="0.3039453" height="1.1338588"/>
			</g>
			<g>
			</g>
		</g>
	</g>
	<g>
		<g id="XMLID_22_">
			<g>
				<rect x="38.1785049" y="35.8901825" class="st1" width="0.3037968" height="1.1338588"/>
			</g>
			<g>
			</g>
		</g>
		<g id="XMLID_18_">
			<g>
				<rect x="38.1785049" y="37.3607712" class="st1" width="0.3037968" height="1.1338588"/>
			</g>
			<g>
			</g>
		</g>
		<g id="XMLID_17_">
			<g>
				<rect x="38.1785049" y="38.8313599" class="st1" width="0.3037968" height="1.1338588"/>
			</g>
			<g>
			</g>
		</g>
		<g id="XMLID_16_">
			<g>
				<rect x="38.1785049" y="40.3019447" class="st1" width="0.3037968" height="1.1338588"/>
			</g>
			<g>
			</g>
		</g>
		<g id="XMLID_7_">
			<g>
				<rect x="38.1785049" y="41.7725334" class="st1" width="0.3037968" height="1.1338588"/>
			</g>
			<g>
			</g>
		</g>
		<g id="XMLID_21_">
			<g>
				<rect x="26.5360413" y="35.8901825" class="st1" width="0.3037968" height="1.1338588"/>
			</g>
			<g>
			</g>
		</g>
		<g id="XMLID_20_">
			<g>
				<rect x="26.5360413" y="37.3607712" class="st1" width="0.3037968" height="1.1338588"/>
			</g>
			<g>
			</g>
		</g>
		<g id="XMLID_6_">
			<g>
				<rect x="26.5360413" y="38.8313599" class="st1" width="0.3037968" height="1.1338588"/>
			</g>
			<g>
			</g>
		</g>
		<g id="XMLID_3_">
			<g>
				<rect x="26.5360413" y="40.3019447" class="st1" width="0.3037968" height="1.1338588"/>
			</g>
			<g>
			</g>
		</g>
		<g id="XMLID_2_">
			<g>
				<rect x="26.5360413" y="41.7725334" class="st1" width="0.3037968" height="1.1338588"/>
			</g>
			<g>
			</g>
		</g>
		<g id="XMLID_192_">
			<g>
				<rect x="34.8836327" y="45.0798149" class="st1" width="1.1338588" height="0.3037968"/>
			</g>
			<g>
			</g>
		</g>
		<g id="XMLID_191_">
			<g>
				<rect x="33.413044" y="45.0798149" class="st1" width="1.1338588" height="0.3037968"/>
			</g>
			<g>
			</g>
		</g>
		<g id="XMLID_190_">
			<g>
				<rect x="31.9424572" y="45.0798149" class="st1" width="1.1338588" height="0.3037968"/>
			</g>
			<g>
			</g>
		</g>
		<g id="XMLID_189_">
			<g>
				<rect x="30.4718685" y="45.0798149" class="st1" width="1.1338588" height="0.3037968"/>
			</g>
			<g>
			</g>
		</g>
		<g id="XMLID_188_">
			<g>
				<rect x="29.0012817" y="45.0798149" class="st1" width="1.1338588" height="0.3037968"/>
			</g>
			<g>
			</g>
		</g>
		<g id="XMLID_184_">
			<g>
				<rect x="34.8836327" y="33.437355" class="st1" width="1.1338588" height="0.3037968"/>
			</g>
			<g>
			</g>
		</g>
		<g id="XMLID_183_">
			<g>
				<rect x="33.413044" y="33.437355" class="st1" width="1.1338588" height="0.3037968"/>
			</g>
			<g>
			</g>
		</g>
		<g id="XMLID_143_">
			<g>
				<rect x="31.9424572" y="33.437355" class="st1" width="1.1338588" height="0.3037968"/>
			</g>
			<g>
			</g>
		</g>
		<g id="XMLID_142_">
			<g>
				<rect x="30.4718685" y="33.437355" class="st1" width="1.1338588" height="0.3037968"/>
			</g>
			<g>
			</g>
		</g>
		<g id="XMLID_141_">
			<g>
				<rect x="29.0012817" y="33.437355" class="st1" width="1.1338588" height="0.3037968"/>
			</g>
			<g>
			</g>
		</g>
		<g id="XMLID_1_">
			<g>
				<path class="st3" d="M26.8395805,44.9379463V33.8595695c0-0.0726814,0.0585823-0.1308289,0.130394-0.1308289h11.0777969
					c0.0718079,0,0.1303902,0.0581474,0.1303902,0.1308289v11.0783768c0,0.0712318-0.0585823,0.1293755-0.1303902,0.1293755
					H26.9699745C26.8981628,45.0673218,26.8395805,45.0091782,26.8395805,44.9379463z"/>
			</g>
			<g>
			</g>
		</g>
	</g>
	<g id="ГРУППА_1_">
		<g>
			<polygon class="st5" points="44.7916527,57.2696037 46.4761086,57.2696037 46.4761086,59.3556557 44.7916527,59.3556557 
				44.7916527,59.2038651 45.1368713,59.2038651 45.1368713,57.436142 44.7916527,57.436142 			"/>
			<polygon class="st5" points="41.2987099,57.2895546 42.9831657,57.2895546 42.9831657,57.436142 42.6075897,57.436142 
				42.6075897,59.2038651 42.9831657,59.2038651 42.9831657,59.3747406 41.2987099,59.3747406 			"/>
			<rect x="44.7916527" y="57.436142" class="st15" width="0.3452176" height="1.7677224"/>
			<rect x="42.9831657" y="57.436142" class="st15" width="1.8084893" height="1.7677224"/>
			<rect x="42.6075897" y="57.436142" class="st15" width="0.375576" height="1.7677224"/>
		</g>
		<g>
		</g>
	</g>
	<g id="ГРУППА_2_">
		<g>
			<polygon class="st5" points="43.3845444,53.3343544 43.3845444,55.0188065 41.2993622,55.0188065 41.2993622,53.3343544 
				41.4511528,53.3343544 41.4511528,53.6795731 43.2180099,53.6795731 43.2180099,53.3343544 			"/>
			<polygon class="st5" points="43.3645973,49.8414116 43.3645973,51.5258636 43.2180099,51.5258636 43.2180099,51.1502876 
				41.4511528,51.1502876 41.4511528,51.5258636 41.2794113,51.5258636 41.2794113,49.8414116 			"/>
			<rect x="41.4511528" y="53.3343544" class="st16" width="1.766855" height="0.3452176"/>
			<rect x="41.4511528" y="51.5258636" class="st16" width="1.766855" height="1.8084893"/>
			<rect x="41.4511528" y="51.1502876" class="st16" width="1.766855" height="0.375576"/>
		</g>
		<g>
		</g>
	</g>
	<g id="ГРУППА_13_">
		<g>
			<polygon class="st5" points="26.8600559,57.6906471 26.8600559,59.3750992 24.7748718,59.3750992 24.7748718,57.6906471 
				24.9266624,57.6906471 24.9266624,58.0358658 26.6935177,58.0358658 26.6935177,57.6906471 			"/>
			<polygon class="st5" points="26.8401051,54.1977043 26.8401051,55.8821564 26.6935177,55.8821564 26.6935177,55.5065804 
				24.9266624,55.5065804 24.9266624,55.8821564 24.754921,55.8821564 24.754921,54.1977043 			"/>
			<rect x="24.9266624" y="57.6906471" class="st16" width="1.766855" height="0.3452176"/>
			<rect x="24.9266624" y="55.8821564" class="st16" width="1.766855" height="1.8084893"/>
			<rect x="24.9266624" y="55.5065804" class="st16" width="1.766855" height="0.375576"/>
		</g>
		<g>
		</g>
	</g>
	<g id="ГРУППА_10_">
		<g>
			<polygon class="st5" points="39.6989899,30.648159 39.6989899,32.3326111 37.6138039,32.3326111 37.6138039,30.648159 
				37.7655983,30.648159 37.7655983,30.9933758 39.5324516,30.9933758 39.5324516,30.648159 			"/>
			<polygon class="st5" points="39.679039,27.1552162 39.679039,28.8396683 39.5324516,28.8396683 39.5324516,28.4640942 
				37.7655983,28.4640942 37.7655983,28.8396683 37.5938568,28.8396683 37.5938568,27.1552162 			"/>
			<rect x="37.7655983" y="30.648159" class="st17" width="1.766855" height="0.3452176"/>
			<rect x="37.7655983" y="28.8396683" class="st17" width="1.766855" height="1.8084893"/>
			<rect x="37.7655983" y="28.4640942" class="st17" width="1.766855" height="0.375576"/>
		</g>
		<g>
		</g>
	</g>
	<g id="ГРУППА_7_">
		<g>
			<polygon class="st5" points="43.3845444,43.3833313 43.3845444,45.0677872 41.2993622,45.0677872 41.2993622,43.3833313 
				41.4511528,43.3833313 41.4511528,43.72855 43.2180099,43.72855 43.2180099,43.3833313 			"/>
			<polygon class="st5" points="43.3645973,39.8903885 43.3645973,41.5748444 43.2180099,41.5748444 43.2180099,41.1992683 
				41.4511528,41.1992683 41.4511528,41.5748444 41.2794113,41.5748444 41.2794113,39.8903885 			"/>
			<rect x="41.4511528" y="43.3833313" class="st14" width="1.766855" height="0.3452176"/>
			<rect x="41.4511528" y="41.5748444" class="st14" width="1.766855" height="1.8084893"/>
			<rect x="41.4511528" y="41.1992683" class="st14" width="1.766855" height="0.375576"/>
		</g>
		<g>
		</g>
	</g>
	<g id="ГРУППА_8_">
		<g>
			<polygon class="st5" points="43.364666,37.2219276 43.364666,38.9063835 41.2794838,38.9063835 41.2794838,37.2219276 
				41.4312744,37.2219276 41.4312744,37.5671463 43.1981316,37.5671463 43.1981316,37.2219276 			"/>
			<polygon class="st5" points="43.3447189,33.7289848 43.3447189,35.4134407 43.1981316,35.4134407 43.1981316,35.0378647 
				41.4312744,35.0378647 41.4312744,35.4134407 41.2595329,35.4134407 41.2595329,33.7289848 			"/>
			<rect x="41.4312744" y="37.2219276" class="st14" width="1.766855" height="0.3452176"/>
			<rect x="41.4312744" y="35.4134407" class="st14" width="1.766855" height="1.8084893"/>
			<rect x="41.4312744" y="35.0378647" class="st14" width="1.766855" height="0.375576"/>
		</g>
		<g>
		</g>
	</g>
	<g id="ГРУППА_5_">
		<g>
			<polygon class="st5" points="46.4763985,53.3343544 46.4763985,55.0188065 44.3912125,55.0188065 44.3912125,53.3343544 
				44.5430031,53.3343544 44.5430031,53.6795731 46.3098602,53.6795731 46.3098602,53.3343544 			"/>
			<polygon class="st5" points="46.4564476,49.8414116 46.4564476,51.5258636 46.3098602,51.5258636 46.3098602,51.1502876 
				44.5430031,51.1502876 44.5430031,51.5258636 44.3712616,51.5258636 44.3712616,49.8414116 			"/>
			<rect x="44.5430031" y="53.3343544" class="st16" width="1.766855" height="0.3452176"/>
			<rect x="44.5430031" y="51.5258636" class="st16" width="1.766855" height="1.8084893"/>
			<rect x="44.5430031" y="51.1502876" class="st16" width="1.766855" height="0.375576"/>
		</g>
		<g>
		</g>
	</g>
	<g id="ГРУППА_6_">
		<g>
			<polygon class="st5" points="41.9889297,47.0721436 43.6733818,47.0721436 43.6733818,49.1581917 41.9889297,49.1581917 
				41.9889297,49.0064011 42.3341484,49.0064011 42.3341484,47.238678 41.9889297,47.238678 			"/>
			<polygon class="st5" points="38.4959869,47.0920906 40.180439,47.0920906 40.180439,47.238678 39.804863,47.238678 
				39.804863,49.0064011 40.180439,49.0064011 40.180439,49.1772766 38.4959869,49.1772766 			"/>
			<rect x="41.9889297" y="47.238678" class="st14" width="0.3452176" height="1.7677224"/>
			<rect x="40.180439" y="47.238678" class="st14" width="1.8084893" height="1.7677224"/>
			<rect x="39.804863" y="47.238678" class="st14" width="0.375576" height="1.7677224"/>
		</g>
		<g>
		</g>
	</g>
	<g id="ГРУППА_14_">
		<g>
			<polygon class="st5" points="34.7875633,47.8540497 36.4720154,47.8540497 36.4720154,49.9401016 34.7875633,49.9401016 
				34.7875633,49.7883072 35.132782,49.7883072 35.132782,48.0205879 34.7875633,48.0205879 			"/>
			<polygon class="st5" points="31.2946205,47.8740005 32.9790726,47.8740005 32.9790726,48.0205879 32.6034966,48.0205879 
				32.6034966,49.7883072 32.9790726,49.7883072 32.9790726,49.9591827 31.2946205,49.9591827 			"/>
			<rect x="34.7875633" y="48.0205879" class="st17" width="0.3452176" height="1.7677224"/>
			<rect x="32.9790726" y="48.0205879" class="st17" width="1.8084893" height="1.7677224"/>
			<rect x="32.6034966" y="48.0205879" class="st17" width="0.375576" height="1.7677224"/>
		</g>
		<g>
		</g>
	</g>
	<g id="ГРУППА_9_">
		<g>
			<polygon class="st5" points="44.7518997,30.2271175 46.4363518,30.2271175 46.4363518,32.3131676 44.7518997,32.3131676 
				44.7518997,32.161377 45.0971184,32.161377 45.0971184,30.3936539 44.7518997,30.3936539 			"/>
			<polygon class="st5" points="41.2589569,30.2470665 42.943409,30.2470665 42.943409,30.3936539 42.5678329,30.3936539 
				42.5678329,32.161377 42.943409,32.161377 42.943409,32.3322525 41.2589569,32.3322525 			"/>
			<rect x="44.7518997" y="30.3936539" class="st15" width="0.3452176" height="1.7677224"/>
			<rect x="42.943409" y="30.3936539" class="st15" width="1.8084893" height="1.7677224"/>
			<rect x="42.5678329" y="30.3936539" class="st15" width="0.375576" height="1.7677224"/>
		</g>
		<g>
		</g>
	</g>
	<g id="ГРУППА_11_">
		<g>
			<polygon class="st5" points="34.4956093,26.1124783 36.1800652,26.1124783 36.1800652,28.1985302 34.4956093,28.1985302 
				34.4956093,28.0467377 34.8408279,28.0467377 34.8408279,26.2790165 34.4956093,26.2790165 			"/>
			<polygon class="st5" points="31.0026665,26.1324291 32.6871185,26.1324291 32.6871185,26.2790165 32.3115425,26.2790165 
				32.3115425,28.0467377 32.6871185,28.0467377 32.6871185,28.2176132 31.0026665,28.2176132 			"/>
			<rect x="34.4956093" y="26.2790165" class="st18" width="0.3452176" height="1.7677224"/>
			<rect x="32.6871185" y="26.2790165" class="st18" width="1.8084893" height="1.7677224"/>
			<rect x="32.3115425" y="26.2790165" class="st18" width="0.375576" height="1.7677224"/>
		</g>
		<g>
		</g>
	</g>
	<g id="ГРУППА_12_">
		<g>
			<polygon class="st5" points="27.8428116,26.1124783 29.5272655,26.1124783 29.5272655,28.1985302 27.8428116,28.1985302 
				27.8428116,28.0467377 28.1880283,28.0467377 28.1880283,26.2790165 27.8428116,26.2790165 			"/>
			<polygon class="st5" points="24.3498688,26.1324291 26.0343227,26.1324291 26.0343227,26.2790165 25.6587467,26.2790165 
				25.6587467,28.0467377 26.0343227,28.0467377 26.0343227,28.2176132 24.3498688,28.2176132 			"/>
			<rect x="27.8428116" y="26.2790165" class="st19" width="0.3452176" height="1.7677224"/>
			<rect x="26.0343227" y="26.2790165" class="st19" width="1.8084893" height="1.7677224"/>
			<rect x="25.6587467" y="26.2790165" class="st19" width="0.375576" height="1.7677224"/>
		</g>
		<g>
		</g>
	</g>
</g>
<polyline class="st5" points="8.6423864,54.9423065 0,54.9423065 0,57.690937 8.6423864,57.690937 "/>
<polyline class="st5" points="8.6423864,51.024765 0,51.024765 0,53.7733955 8.6423864,53.7733955 "/>
<polyline class="st5" points="8.6423864,47.115654 0,47.115654 0,49.8642807 8.6423864,49.8642807 "/>
<polyline class="st5" points="8.6423864,43.1729584 0,43.1729584 0,45.9215889 8.6423864,45.9215889 "/>
<polyline class="st5" points="8.6423864,39.2798996 0,39.2798996 0,42.0285263 8.6423864,42.0285263 "/>
<polyline class="st5" points="8.6423864,35.3682098 0,35.3682098 0,38.1168404 8.6423864,38.1168404 "/>
<polyline class="st5" points="8.6423864,31.4751492 0,31.4751492 0,34.2237778 8.6423864,34.2237778 "/>
<polyline class="st5" points="8.6423864,27.5634613 0,27.5634613 0,30.3120899 8.6423864,30.3120899 "/>
<g>
	<path class="st20" d="M30.0972519,74.9196472c0,1.2273636-1.0018463,2.2224808-2.2397385,2.2224808
		s-2.2415428-0.9951172-2.2415428-2.2224808c0-1.227356,1.0036507-2.2224731,2.2415428-2.2224731
		S30.0972519,73.6922913,30.0972519,74.9196472z"/>
	<g>
		<path class="st2" d="M35.5478516,80.0625c0.3588867,0,0.640625,0.0810547,0.8447266,0.2441406
			c0.2045898,0.1630859,0.3066406,0.3876953,0.3066406,0.6748047c0,0.1582031-0.0429688,0.2958984-0.128418,0.4121094
			s-0.2104492,0.2099609-0.3754883,0.2822266c0.1865234,0.0546875,0.3208008,0.1455078,0.402832,0.2724609
			c0.081543,0.1269531,0.1225586,0.2841797,0.1225586,0.4726563v0.1591797c0,0.0693359,0.0136719,0.1220703,0.0415039,0.1601563
			c0.0273438,0.0380859,0.0732422,0.0605469,0.1367188,0.0683594l0.078125,0.0107422v0.3789063h-0.328125
			c-0.2070313,0-0.3525391-0.0556641-0.4365234-0.1660156s-0.1259766-0.2529297-0.1259766-0.4287109v-0.1787109
			c0-0.1523438-0.0410156-0.2714844-0.1225586-0.3583984c-0.0820313-0.0869141-0.1972656-0.1328125-0.3466797-0.1367188h-0.519043
			v0.8271484l0.3388672,0.0644531v0.3769531h-1.3100586v-0.3769531l0.3369141-0.0644531v-2.2509766l-0.3369141-0.0644531V80.0625
			h0.3369141H35.5478516z M35.0981445,81.4453125h0.4389648c0.1762695,0,0.309082-0.0380859,0.3974609-0.1123047
			s0.1323242-0.1826172,0.1323242-0.3232422s-0.0439453-0.2529297-0.1313477-0.3369141
			c-0.0878906-0.0839844-0.2167969-0.1259766-0.3876953-0.1259766h-0.449707V81.4453125z"/>
		<path class="st2" d="M38.4584961,80.0625v0.3789063l-0.3388672,0.0644531v1.6367188
			c0,0.2070313,0.0561523,0.3613281,0.168457,0.4648438c0.1123047,0.1025391,0.2661133,0.1533203,0.4614258,0.1533203
			c0.1987305,0,0.3544922-0.0507813,0.4672852-0.1523438c0.112793-0.1025391,0.1694336-0.2578125,0.1694336-0.4658203v-1.6367188
			l-0.3369141-0.0644531V80.0625h1.3100586v0.3789063l-0.3388672,0.0644531v1.6367188
			c0,0.3525391-0.1166992,0.6230469-0.3505859,0.8144531s-0.5410156,0.2861328-0.9204102,0.2861328
			c-0.3779297,0-0.6831055-0.0947266-0.9155273-0.2861328s-0.3486328-0.4619141-0.3486328-0.8144531v-1.6367188
			l-0.3364258-0.0644531V80.0625h0.3364258h0.6342773H38.4584961z"/>
		<path class="st2" d="M42.9492188,81.0634766h-0.4760742l-0.0825195-0.4306641
			c-0.0546875-0.0341797-0.1352539-0.0644531-0.2407227-0.0898438c-0.105957-0.0263672-0.2182617-0.0390625-0.3369141-0.0390625
			c-0.1738281,0-0.3081055,0.0361328-0.402832,0.1083984c-0.0952148,0.0722656-0.1425781,0.1660156-0.1425781,0.28125
			c0,0.1064453,0.0498047,0.1933594,0.1489258,0.2617188s0.2705078,0.140625,0.5136719,0.2167969
			c0.3491211,0.0957031,0.6137695,0.2226563,0.7939453,0.3808594c0.1806641,0.1582031,0.2705078,0.3652344,0.2705078,0.6220703
			c0,0.2685547-0.1069336,0.4804688-0.3212891,0.6357422s-0.4970703,0.2324219-0.847168,0.2324219
			c-0.2509766,0-0.4770508-0.0390625-0.6791992-0.1181641c-0.2016602-0.0791016-0.3701172-0.1884766-0.5048828-0.3271484v-0.6552734
			h0.4907227l0.0673828,0.4462891c0.0639648,0.0517578,0.1503906,0.0947266,0.2597656,0.1279297
			c0.109375,0.0341797,0.2314453,0.0507813,0.3662109,0.0507813c0.1738281,0,0.3056641-0.0351563,0.3964844-0.1054688
			c0.090332-0.0703125,0.1357422-0.1650391,0.1357422-0.2822266c0-0.1210938-0.043457-0.2177734-0.1293945-0.2910156
			c-0.0864258-0.0732422-0.2373047-0.1416016-0.453125-0.2070313c-0.375-0.1074219-0.6586914-0.2353516-0.8515625-0.3828125
			c-0.1923828-0.1484375-0.2885742-0.3505859-0.2885742-0.6074219c0-0.2539063,0.1083984-0.4619141,0.3256836-0.6240234
			c0.2172852-0.1611328,0.4902344-0.2441406,0.8188477-0.2480469c0.2431641,0,0.4648438,0.0361328,0.6650391,0.109375
			c0.199707,0.0732422,0.3676758,0.1708984,0.5039063,0.2929688V81.0634766z"/>
		<path class="st2" d="M45.6464844,81.0634766H45.171875l-0.0839844-0.4306641
			c-0.0546875-0.0341797-0.1347656-0.0644531-0.2402344-0.0898438c-0.1054688-0.0263672-0.21875-0.0390625-0.3378906-0.0390625
			c-0.1738281,0-0.3066406,0.0361328-0.4023438,0.1083984c-0.0947266,0.0722656-0.1416016,0.1660156-0.1416016,0.28125
			c0,0.1064453,0.0498047,0.1933594,0.1484375,0.2617188s0.2705078,0.140625,0.5146484,0.2167969
			c0.3476563,0.0957031,0.6132813,0.2226563,0.7929688,0.3808594s0.2714844,0.3652344,0.2714844,0.6220703
			c0,0.2685547-0.1074219,0.4804688-0.3222656,0.6357422S44.875,83.2431641,44.5234375,83.2431641
			c-0.25,0-0.4765625-0.0390625-0.6782227-0.1181641s-0.3701172-0.1884766-0.5048828-0.3271484v-0.6552734h0.4907227
			l0.0673828,0.4462891c0.0639648,0.0517578,0.1503906,0.0947266,0.2597656,0.1279297
			c0.109375,0.0341797,0.2304688,0.0507813,0.3652344,0.0507813c0.1738281,0,0.3066406-0.0351563,0.3964844-0.1054688
			s0.1367188-0.1650391,0.1367188-0.2822266c0-0.1210938-0.0429688-0.2177734-0.1308594-0.2910156
			c-0.0859375-0.0732422-0.2363281-0.1416016-0.4511719-0.2070313c-0.3759766-0.1074219-0.6591797-0.2353516-0.8520508-0.3828125
			c-0.1923828-0.1484375-0.2885742-0.3505859-0.2885742-0.6074219c0-0.2539063,0.1083984-0.4619141,0.3256836-0.6240234
			c0.2172852-0.1611328,0.4887695-0.2441406,0.8188477-0.2480469c0.2421875,0,0.4648438,0.0361328,0.6640625,0.109375
			s0.3671875,0.1708984,0.5039063,0.2929688V81.0634766z"/>
		<path class="st2" d="M45.9394531,80.4414063V80.0625H47.25v0.3789063l-0.3388672,0.0644531v2.2509766L47.25,82.8212891v0.3769531
			h-1.3105469v-0.3769531l0.3388672-0.0644531v-2.2509766L45.9394531,80.4414063z"/>
		<path class="st2" d="M47.4580078,82.8212891l0.2265625-0.0322266L48.6464844,80.0625h0.6494141l0.9560547,2.7265625
			l0.2255859,0.0322266v0.3769531h-1.0771484v-0.3769531l0.2197266-0.0390625l-0.1396484-0.4306641h-1.0253906l-0.1386719,0.4306641
			l0.2197266,0.0390625v0.3769531h-1.078125V82.8212891z M48.6054688,81.8886719h0.7255859l-0.3564453-1.1044922h-0.0126953
			L48.6054688,81.8886719z"/>
	</g>
	<ellipse class="st21" cx="27.8566113" cy="74.9196472" rx="1.5316002" ry="1.5185714"/>
	<path class="st22" d="M45.3548813,64.1339569"/>
	<path class="st20" d="M37.3255997,74.9196472c0,1.2273636-1.0018463,2.2224808-2.2397385,2.2224808
		c-1.237896,0-2.2415428-0.9951172-2.2415428-2.2224808c0-1.227356,1.0036469-2.2224731,2.2415428-2.2224731
		C36.3237534,72.6971741,37.3255997,73.6922913,37.3255997,74.9196472z"/>
	<ellipse class="st21" cx="35.0849571" cy="74.9196472" rx="1.5316002" ry="1.5185714"/>
	<path class="st20" d="M44.5255966,74.9196472c0,1.2273636-1.0018463,2.2224808-2.2397385,2.2224808
		s-2.2415428-0.9951172-2.2415428-2.2224808c0-1.227356,1.0036507-2.2224731,2.2415428-2.2224731
		S44.5255966,73.6922913,44.5255966,74.9196472z"/>
	<ellipse class="st21" cx="42.2849579" cy="74.9196472" rx="1.5316002" ry="1.5185714"/>
	<path class="st20" d="M51.1130257,73.2907333c1.5395126,2.0229111-0.1709824,4.2713013-2.1831665,3.7839966
		c-0.7743721-0.1875305-1.4096413-0.8210754-1.5987854-1.5950546
		C46.8394775,73.4680405,49.0885391,71.7503281,51.1130257,73.2907333z"/>
	<ellipse class="st21" cx="49.4849586" cy="74.9196472" rx="1.5316002" ry="1.5185714"/>
	<path class="st20" d="M58.3130264,73.2907333c1.5395126,2.0229111-0.1709862,4.2713013-2.1831703,3.7839966
		c-0.7743683-0.1875305-1.4096413-0.8210754-1.5987816-1.5950546
		C54.0394783,73.4680405,56.2885399,71.7503281,58.3130264,73.2907333z"/>
	<ellipse class="st21" cx="56.6849556" cy="74.9196472" rx="1.5316002" ry="1.5185714"/>
	<path class="st20" d="M65.6319199,73.2907333c1.5395126,2.0229111-0.17099,4.2713013-2.1831703,3.7839966
		c-0.7743721-0.1875305-1.4096413-0.8210754-1.5987854-1.5950546
		C61.3583679,73.4680405,63.6074295,71.7503281,65.6319199,73.2907333z"/>
	<ellipse class="st21" cx="64.0038452" cy="74.9196472" rx="1.5316002" ry="1.5185714"/>
	<g>
		<path class="st2" d="M48.3916016,69.4140625l-0.0029297,0.0117188l2.8496094,1.0351563v0.2871094l-2.8466797,1.0351563
			l0.0029297,0.0107422l1.4375-0.0439453h1.0302734l0.0683594-0.3574219h0.3076172v1.1484375h-0.3076172l-0.0683594-0.3574219
			H48.0625l-0.0683594,0.3574219h-0.3105469v-0.3574219v-0.5546875l2.8886719-1.0195313v-0.0126953l-2.8886719-1.0175781v-0.9140625
			h0.3105469L48.0625,69.0234375h2.7998047l0.0683594-0.3583984h0.3076172v1.1494141h-0.3076172l-0.0683594-0.3583984h-1.0302734
			L48.3916016,69.4140625z"/>
		<path class="st2" d="M49.4882813,65.9560547c0.5175781,0,0.9472656,0.1337891,1.2890625,0.4013672
			s0.5117188,0.6132813,0.5117188,1.0380859c0,0.4130859-0.1699219,0.7490234-0.5117188,1.0058594
			c-0.3417969,0.2587891-0.7714844,0.3867188-1.2890625,0.3867188h-0.0517578c-0.515625,0-0.9453125-0.1279297-1.2890625-0.3867188
			c-0.34375-0.2568359-0.5146484-0.5927734-0.5146484-1.0058594c0-0.4248047,0.1708984-0.7705078,0.5146484-1.0380859
			s0.7734375-0.4013672,1.2890625-0.4013672H49.4882813z M49.4316406,66.3886719
			c-0.4130859,0-0.7509766,0.0898438-1.0117188,0.2675781c-0.2617188,0.1777344-0.3925781,0.4238281-0.3925781,0.7392578
			c0,0.3017578,0.1318359,0.5371094,0.3935547,0.7060547c0.2617188,0.1699219,0.5986328,0.2539063,1.0107422,0.2539063h0.0566406
			c0.4160156,0,0.7548828-0.0839844,1.0166016-0.2539063c0.2607422-0.1689453,0.3916016-0.4042969,0.3916016-0.7060547
			c0-0.3193359-0.1298828-0.5673828-0.390625-0.7431641s-0.5996094-0.2636719-1.0175781-0.2636719H49.4316406z"/>
		<path class="st2" d="M48.7333984,63.765625v0.3261719l-0.5078125,0.0820313
			c-0.0615234,0.0664063-0.1132813,0.1542969-0.1533203,0.2636719c-0.0410156,0.109375-0.0615234,0.2363281-0.0615234,0.3828125
			c0,0.2294922,0.0537109,0.40625,0.1621094,0.5292969s0.25,0.1835938,0.4238281,0.1835938
			c0.1542969,0,0.2832031-0.0625,0.3867188-0.1875s0.1943359-0.328125,0.2724609-0.6074219
			c0.0927734-0.3369141,0.2294922-0.5927734,0.4101563-0.7675781c0.1806641-0.1757813,0.4042969-0.2636719,0.671875-0.2636719
			c0.2861328,0,0.5166016,0.1054688,0.6904297,0.3164063c0.1738281,0.2099609,0.2607422,0.484375,0.2607422,0.8242188
			c0,0.2460938-0.0439453,0.4648438-0.1337891,0.65625s-0.2070313,0.3476563-0.3515625,0.4667969h-0.6611328v-0.3242188
			L50.6523438,65.5625c0.0761719-0.0839844,0.1386719-0.1835938,0.1875-0.2988281s0.0742188-0.2539063,0.0742188-0.4160156
			c0-0.2177734-0.0517578-0.390625-0.1542969-0.5175781c-0.1025391-0.1259766-0.2421875-0.1894531-0.4179688-0.1894531
			c-0.1621094,0-0.2988281,0.0546875-0.4082031,0.1640625c-0.1103516,0.1113281-0.2021484,0.3046875-0.2773438,0.5830078
			c-0.0898438,0.3388672-0.2216797,0.6025391-0.3955078,0.7939453c-0.1738281,0.1894531-0.3935547,0.2851563-0.6572266,0.2851563
			c-0.2773438,0-0.5097656-0.1064453-0.6943359-0.3183594c-0.1845703-0.2128906-0.2763672-0.4882813-0.2763672-0.828125
			c0-0.2246094,0.0419922-0.4287109,0.1279297-0.6132813c0.0849609-0.1835938,0.1884766-0.3300781,0.3115234-0.4414063H48.7333984z"
			/>
		<path class="st2" d="M47.9941406,63.7929688h-0.3105469v-1.1484375h0.3105469L48.0625,63.0019531h2.7998047l0.0683594-0.3574219
			h0.3076172v1.1484375h-0.3076172l-0.0683594-0.3574219H48.0625L47.9941406,63.7929688z"/>
	</g>
	<g>
		<path class="st2" d="M40.7939453,71.5830078L40.8447266,71.875l2.3095703-0.7158203l0.2802734-0.0722656v-0.0136719
			l-0.2802734-0.0722656l-2.3115234-0.7138672l-0.0488281,0.2871094h-0.3105469v-1.0078125h0.3105469l0.0390625,0.2568359
			l3.2050781,1.0722656v0.3710938l-3.2050781,1.0722656L40.7939453,72.59375h-0.3105469v-1.0107422H40.7939453z"/>
		<path class="st2" d="M41.5751953,67.28125v0.3046875l-0.5039063,0.0820313
			c-0.0761719,0.0703125-0.1386719,0.15625-0.1875,0.2587891s-0.0732422,0.2255859-0.0732422,0.3662109
			c0,0.3339844,0.1337891,0.5888672,0.4013672,0.7675781s0.6074219,0.2675781,1.0195313,0.2675781h0.0566406
			c0.4111328,0,0.7519531-0.0869141,1.0214844-0.2617188c0.2695313-0.1757813,0.4042969-0.4179688,0.4042969-0.7285156
			c0-0.1445313-0.0253906-0.2773438-0.0761719-0.3964844c-0.0507813-0.1171875-0.1123047-0.2089844-0.1855469-0.2734375
			l-0.5029297-0.0820313V67.28125h0.6318359c0.1328125,0.0917969,0.25,0.2304688,0.3535156,0.4140625
			c0.1035156,0.1855469,0.1542969,0.3994141,0.1542969,0.6425781c0,0.4160156-0.1699219,0.7578125-0.5117188,1.0234375
			c-0.3417969,0.2675781-0.7714844,0.4003906-1.2890625,0.4003906h-0.0517578c-0.5205078,0-0.9521484-0.1308594-1.2929688-0.3935547
			s-0.5107422-0.6054688-0.5107422-1.0302734c0-0.2431641,0.0517578-0.4570313,0.1572266-0.6425781
			c0.1044922-0.1835938,0.2226563-0.3222656,0.3525391-0.4140625H41.5751953z"/>
		<path class="st2" d="M41.5751953,64.828125v0.3046875l-0.5039063,0.0820313
			c-0.0761719,0.0703125-0.1386719,0.15625-0.1875,0.2587891s-0.0732422,0.2255859-0.0732422,0.3662109
			c0,0.3339844,0.1337891,0.5888672,0.4013672,0.7675781S41.8193359,66.875,42.2314453,66.875h0.0566406
			c0.4111328,0,0.7519531-0.0869141,1.0214844-0.2617188c0.2695313-0.1757813,0.4042969-0.4179688,0.4042969-0.7285156
			c0-0.1445313-0.0253906-0.2773438-0.0761719-0.3964844c-0.0507813-0.1171875-0.1123047-0.2089844-0.1855469-0.2734375
			l-0.5029297-0.0820313V64.828125h0.6318359c0.1328125,0.0917969,0.25,0.2304688,0.3535156,0.4140625
			c0.1035156,0.1855469,0.1542969,0.3994141,0.1542969,0.6425781c0,0.4160156-0.1699219,0.7578125-0.5117188,1.0234375
			c-0.3417969,0.2675781-0.7714844,0.4003906-1.2890625,0.4003906h-0.0517578c-0.5205078,0-0.9521484-0.1308594-1.2929688-0.3935547
			s-0.5107422-0.6054688-0.5107422-1.0302734c0-0.2431641,0.0517578-0.4570313,0.1572266-0.6425781
			c0.1044922-0.1835938,0.2226563-0.3222656,0.3525391-0.4140625H41.5751953z"/>
	</g>
	<g>
		<path class="st2" d="M36.4355469,69.9941406c0.1083984,0.09375,0.2119141,0.2324219,0.3085938,0.4160156
			s0.1445313,0.4208984,0.1445313,0.7138672c0,0.4277344-0.1660156,0.7763672-0.5,1.046875
			s-0.7666016,0.4052734-1.2988281,0.4052734H35.03125c-0.5351563,0-0.96875-0.1328125-1.3007813-0.4003906
			s-0.4980469-0.6230469-0.4980469-1.0673828c0-0.2373047,0.0410156-0.4453125,0.1230469-0.625
			c0.0820313-0.1787109,0.1904297-0.3310547,0.3261719-0.4541016h0.6445313v0.3037109l-0.4912109,0.1054688
			c-0.0654297,0.0712891-0.1191406,0.1591797-0.1611328,0.2607422s-0.0634766,0.2236328-0.0634766,0.3652344
			c0,0.3457031,0.1318359,0.6123047,0.3945313,0.7988281c0.2626953,0.1875,0.6035156,0.2802734,1.0214844,0.2802734h0.0634766
			c0.4248047,0,0.7685547-0.0908203,1.0302734-0.2714844s0.3935547-0.4306641,0.3935547-0.7480469
			c0-0.1748047-0.0205078-0.3173828-0.0615234-0.4287109s-0.0849609-0.2001953-0.1337891-0.2675781h-0.7792969l-0.0244141,0.5253906
			h-0.3544922v-0.9589844H36.4355469z"/>
		<path class="st2" d="M33.2832031,66.8105469H33.59375l0.0683594,0.3574219h3.1757813v0.4335938L34.09375,69.1396484
			l0.0048828,0.0126953h2.3632813l0.0683594-0.3574219h0.3076172v1.1484375h-0.3076172l-0.0683594-0.3574219h-2.7998047
			L33.59375,69.9433594h-0.3105469v-0.3574219v-0.4335938l2.7421875-1.5380859l-0.0058594-0.0126953h-2.3574219L33.59375,67.9589844
			h-0.3105469v-0.7910156V66.8105469z"/>
		<path class="st2" d="M33.2832031,65.625c0-0.4179688,0.1425781-0.7529297,0.4287109-1.0078125
			c0.2851563-0.2539063,0.6542969-0.3808594,1.1064453-0.3808594h0.4863281c0.4541016,0,0.8232422,0.1269531,1.1074219,0.3808594
			c0.2841797,0.2548828,0.4257813,0.5898438,0.4257813,1.0078125v1.3398438h-0.3076172l-0.0683594-0.3574219h-2.7998047
			L33.59375,66.9648438h-0.3105469v-0.3574219V65.625z M33.6621094,66.1738281h2.7998047V65.625
			c0-0.2949219-0.1083984-0.5292969-0.3251953-0.6992188c-0.2158203-0.1708984-0.4931641-0.2558594-0.8320313-0.2558594h-0.4902344
			c-0.3359375,0-0.6113281,0.0849609-0.828125,0.2558594c-0.2167969,0.1699219-0.3242188,0.4042969-0.3242188,0.6992188V66.1738281z
			"/>
	</g>
	<g>
		<path class="st2" d="M26.7631836,69.4140625l-0.0029297,0.0117188l2.8496094,1.0351563v0.2871094l-2.8466797,1.0351563
			l0.0029297,0.0107422l1.4375-0.0439453h1.0302734l0.0683594-0.3574219h0.3076172v1.1484375h-0.3076172l-0.0683594-0.3574219
			H26.434082l-0.0683594,0.3574219h-0.3105469v-0.3574219v-0.5546875l2.8886719-1.0195313v-0.0126953l-2.8886719-1.0175781
			v-0.9140625h0.3105469l0.0683594,0.3583984h2.7998047l0.0683594-0.3583984h0.3076172v1.1494141h-0.3076172l-0.0683594-0.3583984
			h-1.0302734L26.7631836,69.4140625z"/>
		<path class="st2" d="M26.3657227,68.8085938h-0.3105469v-1.1494141h0.3105469l0.0683594,0.3583984h2.7998047l0.0683594-0.3583984
			h0.3076172v1.1494141h-0.3076172l-0.0683594-0.3583984H26.434082L26.3657227,68.8085938z"/>
		<path class="st2" d="M27.1049805,65.4853516V65.8125l-0.5078125,0.0810547
			c-0.0615234,0.0664063-0.1132813,0.1542969-0.1533203,0.2636719c-0.0410156,0.1103516-0.0615234,0.2373047-0.0615234,0.3828125
			c0,0.2294922,0.0537109,0.40625,0.1621094,0.5292969s0.25,0.1845703,0.4238281,0.1845703
			c0.1542969,0,0.2832031-0.0625,0.3867188-0.1875s0.1943359-0.328125,0.2724609-0.6074219
			c0.0927734-0.3378906,0.2294922-0.59375,0.4101563-0.7685547s0.4042969-0.2626953,0.671875-0.2626953
			c0.2861328,0,0.5166016,0.1054688,0.6904297,0.3154297s0.2607422,0.4853516,0.2607422,0.8251953
			c0,0.2460938-0.0439453,0.4648438-0.1337891,0.65625s-0.2070313,0.3466797-0.3515625,0.4667969h-0.6611328v-0.3251953
			l0.5097656-0.0839844c0.0761719-0.0830078,0.1386719-0.1826172,0.1875-0.2988281
			c0.0488281-0.1152344,0.0742188-0.2539063,0.0742188-0.4150391c0-0.21875-0.0517578-0.390625-0.1542969-0.5175781
			s-0.2421875-0.1894531-0.4179688-0.1894531c-0.1621094,0-0.2988281,0.0546875-0.4082031,0.1640625
			c-0.1103516,0.1103516-0.2021484,0.3046875-0.2773438,0.5820313c-0.0898438,0.3388672-0.2216797,0.6035156-0.3955078,0.7939453
			s-0.3935547,0.2851563-0.6572266,0.2851563c-0.2773438,0-0.5097656-0.1064453-0.6943359-0.3183594
			s-0.2763672-0.4882813-0.2763672-0.828125c0-0.2246094,0.0419922-0.4287109,0.1279297-0.6123047
			c0.0849609-0.1835938,0.1884766-0.3310547,0.3115234-0.4423828H27.1049805z"/>
		<path class="st2" d="M27.8598633,62.6621094c0.5175781,0,0.9472656,0.1328125,1.2890625,0.4003906
			s0.5117188,0.6132813,0.5117188,1.0390625c0,0.4121094-0.1699219,0.7480469-0.5117188,1.0058594
			s-0.7714844,0.3867188-1.2890625,0.3867188h-0.0517578c-0.515625,0-0.9453125-0.1289063-1.2890625-0.3867188
			s-0.5146484-0.59375-0.5146484-1.0058594c0-0.4257813,0.1708984-0.7714844,0.5146484-1.0390625
			s0.7734375-0.4003906,1.2890625-0.4003906H27.8598633z M27.8032227,63.09375
			c-0.4130859,0-0.7509766,0.0898438-1.0117188,0.2675781c-0.2617188,0.1777344-0.3925781,0.4248047-0.3925781,0.7402344
			c0,0.3007813,0.1318359,0.5371094,0.3935547,0.7050781c0.2617188,0.1699219,0.5986328,0.2539063,1.0107422,0.2539063h0.0566406
			c0.4160156,0,0.7548828-0.0839844,1.0166016-0.2539063c0.2607422-0.1679688,0.3916016-0.4042969,0.3916016-0.7050781
			c0-0.3203125-0.1298828-0.5683594-0.390625-0.7441406S28.277832,63.09375,27.8598633,63.09375H27.8032227z"/>
	</g>
	<path class="st20" d="M22.868906,74.9196472c0,1.2273636-1.0018463,2.2224808-2.2397404,2.2224808
		c-1.2378922,0-2.2415409-0.9951172-2.2415409-2.2224808c0-1.227356,1.0036488-2.2224731,2.2415409-2.2224731
		C21.8670597,72.6971741,22.868906,73.6922913,22.868906,74.9196472z"/>
	<ellipse class="st21" cx="20.6282654" cy="74.9196472" rx="1.5316002" ry="1.5185714"/>
	<ellipse class="st21" cx="27.8566113" cy="74.9196472" rx="1.5316002" ry="1.5185714"/>
	<g>
		<path class="st2" d="M19.918457,70.0605469v0.3056641l-0.5039063,0.0810547
			c-0.0761719,0.0703125-0.1386719,0.15625-0.1875,0.2597656c-0.0488281,0.1015625-0.0732422,0.2246094-0.0732422,0.3662109
			c0,0.3330078,0.1337891,0.5888672,0.4013672,0.7666016c0.2675781,0.1796875,0.6074219,0.2685547,1.0195313,0.2685547h0.0566406
			c0.4111328,0,0.7519531-0.0869141,1.0214844-0.2626953c0.2695313-0.1748047,0.4042969-0.4179688,0.4042969-0.7285156
			c0-0.1445313-0.0253906-0.2763672-0.0761719-0.3955078c-0.0507813-0.1181641-0.1123047-0.2099609-0.1855469-0.2744141
			l-0.5029297-0.0810547v-0.3056641h0.6318359c0.1328125,0.0917969,0.25,0.2304688,0.3535156,0.4150391
			s0.1542969,0.3994141,0.1542969,0.6416016c0,0.4160156-0.1699219,0.7578125-0.5117188,1.0244141
			s-0.7714844,0.3994141-1.2890625,0.3994141h-0.0517578c-0.5205078,0-0.9521484-0.1308594-1.2929688-0.3925781
			c-0.3408203-0.2626953-0.5107422-0.6054688-0.5107422-1.03125c0-0.2421875,0.0517578-0.4570313,0.1572266-0.6416016
			c0.1044922-0.1845703,0.2226563-0.3232422,0.3525391-0.4150391H19.918457z"/>
		<path class="st2" d="M22.3813477,70.0888672h-0.3076172l-0.0683594-0.3583984h-2.7998047l-0.0683594,0.3583984h-0.3105469
			v-2.4560547h0.8544922v0.3710938l-0.4755859,0.0351563v1.2587891h1.1494141v-1.2236328h0.3779297v1.2236328h1.2724609v-1.2851563
			l-0.4755859-0.0351563v-0.3691406h0.8515625V70.0888672z"/>
	</g>
	<g>
		<path class="st2" d="M55.9335938,70.2255859v0.3271484l-0.5078125,0.0810547
			c-0.0615234,0.0664063-0.1132813,0.1542969-0.1533203,0.2636719c-0.0410156,0.1103516-0.0615234,0.2373047-0.0615234,0.3828125
			c0,0.2294922,0.0537109,0.40625,0.1621094,0.5292969s0.25,0.1845703,0.4238281,0.1845703
			c0.1542969,0,0.2832031-0.0625,0.3867188-0.1875s0.1943359-0.328125,0.2724609-0.6074219
			c0.0927734-0.3378906,0.2294922-0.59375,0.4101563-0.7685547s0.4042969-0.2626953,0.671875-0.2626953
			c0.2861328,0,0.5166016,0.1054688,0.6904297,0.3154297s0.2607422,0.4853516,0.2607422,0.8251953
			c0,0.2460938-0.0439453,0.4648438-0.1337891,0.65625s-0.2070313,0.3466797-0.3515625,0.4667969h-0.6611328v-0.3251953
			l0.5097656-0.0839844c0.0761719-0.0830078,0.1386719-0.1826172,0.1875-0.2988281
			c0.0488281-0.1152344,0.0742188-0.2539063,0.0742188-0.4150391c0-0.21875-0.0517578-0.390625-0.1542969-0.5175781
			s-0.2421875-0.1894531-0.4179688-0.1894531c-0.1621094,0-0.2988281,0.0546875-0.4082031,0.1640625
			c-0.1103516,0.1103516-0.2021484,0.3046875-0.2773438,0.5820313c-0.0898438,0.3388672-0.2216797,0.6035156-0.3955078,0.7939453
			s-0.3935547,0.2851563-0.6572266,0.2851563c-0.2773438,0-0.5097656-0.1064453-0.6943359-0.3183594
			s-0.2763672-0.4882813-0.2763672-0.828125c0-0.2246094,0.0419922-0.4287109,0.1279297-0.6123047
			c0.0849609-0.1835938,0.1884766-0.3310547,0.3115234-0.4423828H55.9335938z"/>
		<path class="st2" d="M55.9755859,67.7705078v0.3056641l-0.5039063,0.0810547
			c-0.0761719,0.0703125-0.1386719,0.1572266-0.1875,0.2587891c-0.0488281,0.1035156-0.0732422,0.2255859-0.0732422,0.3671875
			c0,0.3330078,0.1337891,0.5878906,0.4013672,0.7675781c0.2675781,0.1777344,0.6074219,0.2675781,1.0195313,0.2675781h0.0566406
			c0.4111328,0,0.7519531-0.0878906,1.0214844-0.2626953s0.4042969-0.4169922,0.4042969-0.7285156
			c0-0.1445313-0.0253906-0.2763672-0.0761719-0.3955078c-0.0507813-0.1181641-0.1123047-0.2099609-0.1855469-0.2744141
			l-0.5029297-0.0810547v-0.3056641h0.6318359c0.1328125,0.0927734,0.25,0.2304688,0.3535156,0.4150391
			s0.1542969,0.3984375,0.1542969,0.6416016c0,0.4169922-0.1699219,0.7578125-0.5117188,1.0244141
			s-0.7714844,0.3994141-1.2890625,0.3994141h-0.0517578c-0.5205078,0-0.9521484-0.1308594-1.2929688-0.3935547
			c-0.3408203-0.2617188-0.5107422-0.6054688-0.5107422-1.0302734c0-0.2431641,0.0517578-0.4570313,0.1572266-0.6416016
			c0.1044922-0.1845703,0.2226563-0.3222656,0.3525391-0.4150391H55.9755859z"/>
		<path class="st2" d="M58.1308594,67.7988281L58.0625,67.4404297h-2.7998047l-0.0683594,0.3583984h-0.3105469v-1.1494141h0.3105469
			l0.0683594,0.3583984h1.1933594v-0.3320313L55.2275391,65.78125l-0.0332031,0.2402344h-0.3105469v-1.015625h0.3105469
			l0.0605469,0.3007813l1.3476563,0.9785156l1.4667969-1.0683594l0.0615234-0.3007813h0.3076172v1.0507813h-0.3076172
			l-0.0341797-0.2441406l-1.2617188,0.9121094v0.3730469H58.0625l0.0683594-0.3583984h0.3076172v1.1494141H58.1308594z"/>
	</g>
	<line class="st22" x1="60.4179916" y1="60.6978455" x2="60.4179916" y2="78.7848969"/>
	<line class="st22" x1="53.1749344" y1="78.8236237" x2="53.1816292" y2="60.6875"/>
	<line class="st22" x1="45.8991013" y1="60.6922417" x2="45.8991013" y2="78.7792892"/>
	<line class="st22" x1="38.6625595" y1="78.762291" x2="38.6625557" y2="60.6762924"/>
	<line class="st22" x1="31.3894939" y1="60.6875" x2="31.3894939" y2="78.8236237"/>
	<line class="st22" x1="24.1529503" y1="78.7678909" x2="24.1529503" y2="60.6818962"/>
	<polygon class="st22" points="67.7005234,60.6875 67.6938248,78.8236237 67.6938248,78.8292236 16.8798866,78.8292236 
		16.8798866,78.8236237 16.8798866,60.6875 16.8798866,60.6762924 24.1529503,60.6875 60.4179916,60.6875 	"/>
	<g>
		<path class="st2" d="M63.2519531,70.2255859v0.3271484l-0.5078125,0.0810547
			c-0.0615234,0.0664063-0.1132813,0.1542969-0.1533203,0.2636719c-0.0410156,0.1103516-0.0615234,0.2373047-0.0615234,0.3828125
			c0,0.2294922,0.0537109,0.40625,0.1621094,0.5292969s0.25,0.1845703,0.4238281,0.1845703
			c0.1542969,0,0.2832031-0.0625,0.3867188-0.1875s0.1943359-0.328125,0.2724609-0.6074219
			c0.0927734-0.3378906,0.2294922-0.59375,0.4101563-0.7685547s0.4042969-0.2626953,0.671875-0.2626953
			c0.2861328,0,0.5166016,0.1054688,0.6904297,0.3154297s0.2607422,0.4853516,0.2607422,0.8251953
			c0,0.2460938-0.0439453,0.4648438-0.1337891,0.65625s-0.2070313,0.3466797-0.3515625,0.4667969h-0.6611328v-0.3251953
			l0.5097656-0.0839844c0.0761719-0.0830078,0.1386719-0.1826172,0.1875-0.2988281
			c0.0488281-0.1152344,0.0742188-0.2539063,0.0742188-0.4150391c0-0.21875-0.0517578-0.390625-0.1542969-0.5175781
			s-0.2421875-0.1894531-0.4179688-0.1894531c-0.1621094,0-0.2988281,0.0546875-0.4082031,0.1640625
			c-0.1103516,0.1103516-0.2021484,0.3046875-0.2773438,0.5820313c-0.0898438,0.3388672-0.2216797,0.6035156-0.3955078,0.7939453
			s-0.3935547,0.2851563-0.6572266,0.2851563c-0.2773438,0-0.5097656-0.1064453-0.6943359-0.3183594
			s-0.2763672-0.4882813-0.2763672-0.828125c0-0.2246094,0.0419922-0.4287109,0.1279297-0.6123047
			c0.0849609-0.1835938,0.1884766-0.3310547,0.3115234-0.4423828H63.2519531z"/>
		<path class="st2" d="M63.2519531,67.9355469v0.3271484L62.7441406,68.34375
			c-0.0615234,0.0664063-0.1132813,0.1542969-0.1533203,0.2636719c-0.0410156,0.1103516-0.0615234,0.2373047-0.0615234,0.3828125
			c0,0.2304688,0.0537109,0.40625,0.1621094,0.5292969s0.25,0.1845703,0.4238281,0.1845703
			c0.1542969,0,0.2832031-0.0625,0.3867188-0.1884766c0.1035156-0.125,0.1943359-0.3271484,0.2724609-0.6074219
			c0.0927734-0.3359375,0.2294922-0.5917969,0.4101563-0.7675781c0.1806641-0.1748047,0.4042969-0.2626953,0.671875-0.2626953
			c0.2861328,0,0.5166016,0.1054688,0.6904297,0.3154297c0.1738281,0.2109375,0.2607422,0.4853516,0.2607422,0.8251953
			c0,0.2460938-0.0439453,0.4648438-0.1337891,0.6552734c-0.0898438,0.1914063-0.2070313,0.3476563-0.3515625,0.4677734h-0.6611328
			v-0.3251953l0.5097656-0.0839844c0.0761719-0.0830078,0.1386719-0.1826172,0.1875-0.2988281
			c0.0488281-0.1152344,0.0742188-0.2539063,0.0742188-0.4150391c0-0.2177734-0.0517578-0.390625-0.1542969-0.5175781
			c-0.1025391-0.1259766-0.2421875-0.1904297-0.4179688-0.1904297c-0.1621094,0-0.2988281,0.0556641-0.4082031,0.1650391
			c-0.1103516,0.1103516-0.2021484,0.3037109-0.2773438,0.5830078c-0.0898438,0.3378906-0.2216797,0.6025391-0.3955078,0.7929688
			s-0.3935547,0.2851563-0.6572266,0.2851563c-0.2773438,0-0.5097656-0.1054688-0.6943359-0.3183594
			s-0.2763672-0.4882813-0.2763672-0.828125c0-0.2246094,0.0419922-0.4277344,0.1279297-0.6123047
			c0.0849609-0.1835938,0.1884766-0.3310547,0.3115234-0.4423828H63.2519531z"/>
		<path class="st2" d="M64.3134766,67.8662109c-0.640625,0-1.1884766-0.1162109-1.6425781-0.3486328
			c-0.4541016-0.234375-0.7568359-0.4785156-0.9082031-0.734375l0.0019531-0.0136719l0.2832031-0.0810547
			c0.1748047,0.2001953,0.4541016,0.375,0.8378906,0.5224609c0.3837891,0.1484375,0.8583984,0.2226563,1.4238281,0.2226563h0.03125
			c0.5664063,0,1.0410156-0.0742188,1.4248047-0.2207031c0.3828125-0.1474609,0.6689453-0.3222656,0.8583984-0.5244141
			l0.2636719,0.0810547v0.0136719c-0.1523438,0.2558594-0.4541016,0.5-0.9072266,0.734375
			c-0.453125,0.2324219-1.0019531,0.3486328-1.6445313,0.3486328H64.3134766z"/>
		<path class="st2" d="M63.2939453,64.4755859V64.78125l-0.5039063,0.0810547
			c-0.0761719,0.0703125-0.1386719,0.1572266-0.1875,0.2587891c-0.0488281,0.1035156-0.0732422,0.2255859-0.0732422,0.3671875
			c0,0.3330078,0.1337891,0.5878906,0.4013672,0.7675781c0.2675781,0.1777344,0.6074219,0.2675781,1.0195313,0.2675781h0.0566406
			c0.4111328,0,0.7519531-0.0878906,1.0214844-0.2626953s0.4042969-0.4169922,0.4042969-0.7285156
			c0-0.1445313-0.0253906-0.2763672-0.0761719-0.3955078c-0.0507813-0.1181641-0.1123047-0.2099609-0.1855469-0.2744141
			L64.6679688,64.78125v-0.3056641h0.6318359c0.1328125,0.0927734,0.25,0.2304688,0.3535156,0.4150391
			s0.1542969,0.3984375,0.1542969,0.6416016c0,0.4169922-0.1699219,0.7578125-0.5117188,1.0244141
			s-0.7714844,0.3994141-1.2890625,0.3994141h-0.0517578c-0.5205078,0-0.9521484-0.1308594-1.2929688-0.3935547
			c-0.3408203-0.2617188-0.5107422-0.6054688-0.5107422-1.0302734c0-0.2431641,0.0517578-0.4570313,0.1572266-0.6416016
			c0.1044922-0.1845703,0.2226563-0.3222656,0.3525391-0.4150391H63.2939453z"/>
		<path class="st2" d="M63.2519531,62.1875v0.3271484l-0.5078125,0.0810547
			C62.6826172,62.6621094,62.6308594,62.75,62.5908203,62.859375c-0.0410156,0.1103516-0.0615234,0.2373047-0.0615234,0.3828125
			c0,0.2304688,0.0537109,0.40625,0.1621094,0.5292969s0.25,0.1845703,0.4238281,0.1845703
			c0.1542969,0,0.2832031-0.0625,0.3867188-0.1884766c0.1035156-0.125,0.1943359-0.3271484,0.2724609-0.6074219
			c0.0927734-0.3359375,0.2294922-0.5927734,0.4101563-0.7675781s0.4042969-0.2626953,0.671875-0.2626953
			c0.2861328,0,0.5166016,0.1054688,0.6904297,0.3154297s0.2607422,0.4853516,0.2607422,0.8251953
			c0,0.2460938-0.0439453,0.4648438-0.1337891,0.6552734c-0.0898438,0.1914063-0.2070313,0.3476563-0.3515625,0.4677734h-0.6611328
			v-0.3251953l0.5097656-0.0839844c0.0761719-0.0830078,0.1386719-0.1826172,0.1875-0.2988281
			c0.0488281-0.1152344,0.0742188-0.2539063,0.0742188-0.4150391c0-0.2177734-0.0517578-0.390625-0.1542969-0.5175781
			s-0.2421875-0.1894531-0.4179688-0.1894531c-0.1621094,0-0.2988281,0.0546875-0.4082031,0.1640625
			C64.3417969,62.8378906,64.25,63.03125,64.1748047,63.3105469c-0.0898438,0.3378906-0.2216797,0.6025391-0.3955078,0.7929688
			s-0.3935547,0.2851563-0.6572266,0.2851563c-0.2773438,0-0.5097656-0.1054688-0.6943359-0.3183594
			s-0.2763672-0.4882813-0.2763672-0.828125c0-0.2246094,0.0419922-0.4277344,0.1279297-0.6123047
			c0.0849609-0.1835938,0.1884766-0.3310547,0.3115234-0.4423828H63.2519531z"/>
		<path class="st2" d="M64.3359375,61.1669922c0.6425781,0,1.1914063,0.1171875,1.6445313,0.3505859
			S66.7353516,61.9960938,66.8876953,62.25v0.0136719l-0.2636719,0.0810547
			c-0.171875-0.1972656-0.4521484-0.3710938-0.84375-0.5205078s-0.8710938-0.2246094-1.4394531-0.2246094h-0.03125
			c-0.5585938,0-1.0341797,0.0771484-1.4257813,0.2314453c-0.3925781,0.1533203-0.6787109,0.3251953-0.8574219,0.5136719
			l-0.2636719-0.0810547V62.25c0.1513672-0.2539063,0.4541016-0.4990234,0.9082031-0.7324219
			s1.0019531-0.3505859,1.6425781-0.3505859H64.3359375z"/>
	</g>
	<rect x="8.1796246" y="60.317646" class="st2" width="7.7170429" height="4.706789"/>
	<g>
		<path class="st23" d="M11.0356445,62.1894531h-0.3110352l-0.0771484-0.4306641
			c-0.0625-0.0527344-0.1464844-0.0966797-0.2504883-0.1308594c-0.1044922-0.0341797-0.2255859-0.0517578-0.3637695-0.0517578
			c-0.2182617,0-0.3862305,0.0458984-0.5029297,0.1376953c-0.1171875,0.0917969-0.175293,0.2119141-0.175293,0.359375
			c0,0.1308594,0.059082,0.2402344,0.1782227,0.328125s0.3115234,0.1650391,0.5776367,0.2304688
			c0.3198242,0.0791016,0.5634766,0.1953125,0.7294922,0.3486328c0.1665039,0.1533203,0.2495117,0.3427734,0.2495117,0.5693359
			c0,0.2421875-0.0996094,0.4375-0.2993164,0.5859375c-0.199707,0.1474609-0.4614258,0.2216797-0.7841797,0.2216797
			c-0.2338867,0-0.4418945-0.0380859-0.6235352-0.1142578s-0.3295898-0.1757813-0.4438477-0.2978516v-0.5615234h0.309082
			l0.0795898,0.4326172c0.0791016,0.0654297,0.1738281,0.1181641,0.2841797,0.1591797
			c0.1098633,0.0419922,0.2412109,0.0625,0.3945313,0.0625c0.2075195,0,0.3710938-0.0439453,0.4916992-0.1308594
			s0.1806641-0.2041016,0.1806641-0.3535156c0-0.1376953-0.0522461-0.2539063-0.1567383-0.3466797
			c-0.1044922-0.09375-0.2885742-0.171875-0.5532227-0.2353516c-0.3217773-0.0761719-0.5727539-0.1875-0.7539063-0.3349609
			c-0.1811523-0.1484375-0.2714844-0.3339844-0.2714844-0.5576172c0-0.2353516,0.1010742-0.4316406,0.3027344-0.5888672
			c0.2021484-0.15625,0.4643555-0.234375,0.7871094-0.234375c0.2133789,0,0.4072266,0.0361328,0.5820313,0.1083984
			c0.1743164,0.0722656,0.3149414,0.1601563,0.4204102,0.2636719V62.1894531z"/>
		<path class="st23" d="M12.8359375,61.2988281c0.3242188,0,0.5766602,0.0830078,0.7568359,0.2480469
			c0.1801758,0.1660156,0.2705078,0.3837891,0.2705078,0.6542969c0,0.2734375-0.090332,0.4921875-0.2705078,0.6572266
			c-0.1801758,0.1640625-0.4326172,0.2460938-0.7568359,0.2460938h-0.6455078v0.8896484l0.340332,0.0585938v0.2607422h-1.0917969
			v-0.2607422l0.340332-0.0585938v-2.3740234l-0.340332-0.0585938v-0.2626953h0.340332H12.8359375z M12.1904297,62.7851563
			h0.6455078c0.2060547,0,0.3598633-0.0546875,0.4624023-0.1640625c0.1025391-0.1103516,0.1533203-0.2480469,0.1533203-0.4150391
			s-0.0507813-0.3066406-0.1533203-0.4189453c-0.1025391-0.1113281-0.2563477-0.1669922-0.4624023-0.1669922h-0.6455078V62.7851563z
			"/>
		<path class="st23" d="M14.1533203,61.5615234v-0.2626953h1.0922852v0.2626953l-0.340332,0.0585938v2.3740234l0.340332,0.0585938
			v0.2607422h-1.0922852v-0.2607422l0.340332-0.0585938v-2.3740234L14.1533203,61.5615234z"/>
	</g>
</g>
<g>
</g>
<g>
</g>
<g>
</g>
<g>
</g>
<g>
</g>
</svg>
