<?xml version="1.0" encoding="utf-8"?>
<!-- Generator: Adobe Illustrator 22.0.1, SVG Export Plug-In . SVG Version: 6.00 Build 0)  -->
<svg version="1.1" id="Слой_13" xmlns="http://www.w3.org/2000/svg" xmlns:xlink="http://www.w3.org/1999/xlink" x="0px"
	 y="0px" viewBox="0 0 131.5111847 56.6929321" style="enable-background:new 0 0 131.5111847 56.6929321;" xml:space="preserve">
<style type="text/css">
	.st0{fill:#E5E4E0;}
	.st1{fill:#9E9B9C;}
	.st2{fill:#CDC7BC;}
	.st3{fill:#363331;}
	.st4{fill:#B5B4B3;}
	.st5{fill:#272624;}
	.st6{fill:#C9C8C8;}
	.st7{fill:none;stroke:#C9C8C8;stroke-width:0.5;stroke-miterlimit:10;}
	.st8{fill:#D24A43;}
	.st9{fill:#CEC7BD;}
	.st10{fill:#918C84;}
	.st11{fill:#46433E;}
	.st12{fill:#AFAFAF;}
	.st13{fill:#151616;}
	.st14{fill:none;stroke:#F6F6F6;stroke-width:0.75;stroke-miterlimit:10;}
	.st15{fill:#E9A854;}
	.st16{fill:#313131;}
	.st17{fill:#666566;}
</style>
<path d="M35.7371216,0v56.6929321h85.0393677V0H35.7371216z M78.2578125,32.7407837
	c-2.4279175,0-4.3947144-1.9667969-4.3947144-4.3926392c0-2.4279175,1.9667969-4.3947144,4.3947144-4.3947144
	c2.4258423,0,4.3927002,1.9667969,4.3927002,4.3947144C82.6505127,30.7739868,80.6836548,32.7407837,78.2578125,32.7407837z
	 M105.1869507,51.8751221c-2.4279175,0-4.3947144-1.9667969-4.3947144-4.3926392
	c0-2.4279175,1.9667969-4.3947144,4.3947144-4.3947144c2.4258423,0,4.3927002,1.9667969,4.3927002,4.3947144
	C109.5796509,49.9083252,107.612793,51.8751221,105.1869507,51.8751221z M105.1869507,13.6052246
	c-2.4279175,0-4.3947144-1.9667969-4.3947144-4.3926392c0-2.4279175,1.9667969-4.3947144,4.3947144-4.3947144
	c2.4258423,0,4.3927002,1.9667969,4.3927002,4.3947144C109.5796509,11.6384277,107.612793,13.6052246,105.1869507,13.6052246z"/>
<rect x="59.4442863" y="5.6869807" class="st0" width="37.625" height="8.5"/>
<path class="st1" d="M105.1859207,3.2361174c-3.2877197,0-5.9527588,2.6751709-5.9527588,5.9754639
	s2.6650391,5.9754028,5.9527588,5.9754028c3.2877808,0,5.9527588-2.6751099,5.9527588-5.9754028
	S108.4737015,3.2361174,105.1859207,3.2361174z M105.1869583,13.605258c-2.4279175,0-4.3947144-1.9667969-4.3947144-4.3926392
	c0-2.4279175,1.9667969-4.3947144,4.3947144-4.3947144c2.4258423,0,4.3927002,1.9667969,4.3927002,4.3947144
	C109.5796585,11.6384611,107.6128006,13.605258,105.1869583,13.605258z"/>
<path class="st1" d="M78.2567902,22.3710442c-3.2877197,0-5.9527588,2.6751709-5.9527588,5.9754639
	s2.6650391,5.9754028,5.9527588,5.9754028c3.2877808,0,5.9527588-2.6751099,5.9527588-5.9754028
	S81.5445709,22.3710442,78.2567902,22.3710442z M78.2578278,32.7401848c-2.4279175,0-4.3947144-1.9667969-4.3947144-4.3926392
	c0-2.4279175,1.9667969-4.3947144,4.3947144-4.3947144c2.4258423,0,4.3927002,1.9667969,4.3927002,4.3947144
	C82.650528,30.7733879,80.68367,32.7401848,78.2578278,32.7401848z"/>
<path class="st1" d="M105.1859207,41.5049019c-3.2877197,0-5.9527588,2.6751709-5.9527588,5.9754639
	s2.6650391,5.9754028,5.9527588,5.9754028c3.2877808,0,5.9527588-2.6751099,5.9527588-5.9754028
	S108.4737015,41.5049019,105.1859207,41.5049019z M105.1869583,51.8740425c-2.4279175,0-4.3947144-1.9667969-4.3947144-4.3926392
	c0-2.4279175,1.9667969-4.3947144,4.3947144-4.3947144c2.4258423,0,4.3927002,1.9667969,4.3927002,4.3947144
	C109.5796585,49.9072456,107.6128006,51.8740425,105.1869583,51.8740425z"/>
<g>
	<g id="XMLID_45_">
		<g>
			<rect x="61.2887802" y="30.192831" class="st2" width="4.2572474" height="3.4358907"/>
		</g>
		<g>
		</g>
	</g>
	<g id="XMLID_44_">
		<g>
			<rect x="61.2480659" y="23.0643749" class="st2" width="4.2572474" height="3.4358907"/>
		</g>
		<g>
		</g>
	</g>
	<g id="XMLID_43_">
		<g>
			<rect x="61.5985565" y="25.7338028" class="st3" width="3.6075966" height="5.1633434"/>
		</g>
		<g>
		</g>
	</g>
	<g>
		<path class="st4" d="M63.9459229,29.2550659v0.6967773h-0.1313477v-0.2680664h-0.862793v0.2680664h-0.1171875
			c0-0.0361328-0.003418-0.0751953-0.0092773-0.1166992s-0.0146484-0.0727539-0.0263672-0.0942383
			c-0.0141602-0.0263672-0.0327148-0.0473633-0.0546875-0.0625c-0.0224609-0.015625-0.0522461-0.0244141-0.0898438-0.0263672
			v-0.1342773h1.1601563v-0.2626953H63.9459229z"/>
		<path class="st4" d="M63.3018799,28.2350464c0.230957,0,0.4008789,0.0361328,0.5087891,0.1083984
			s0.1621094,0.1845703,0.1621094,0.3369141c0,0.1542969-0.0546875,0.2670898-0.1640625,0.3383789
			c-0.1098633,0.0712891-0.277832,0.1064453-0.5048828,0.1064453c-0.2290039,0-0.3979492-0.0356445-0.5068359-0.1079102
			c-0.109375-0.0717773-0.1640625-0.184082-0.1640625-0.3369141c0-0.1542969,0.0556641-0.2670898,0.1665039-0.3383789
			S63.0777588,28.2350464,63.3018799,28.2350464z M63.694458,28.4625854
			c-0.046875-0.0205078-0.1015625-0.0341797-0.1645508-0.0410156c-0.0634766-0.0073242-0.1391602-0.0107422-0.2280273-0.0107422
			c-0.0874023,0-0.1635742,0.003418-0.2280273,0.0107422c-0.0644531,0.0068359-0.1191406,0.0209961-0.1640625,0.0419922
			c-0.0444336,0.0200195-0.078125,0.0473633-0.1005859,0.0825195c-0.0224609,0.034668-0.0336914,0.0795898-0.0336914,0.1342773
			c0,0.0541992,0.0112305,0.0991211,0.0336914,0.1342773c0.0224609,0.0356445,0.0566406,0.0634766,0.1020508,0.0844727
			c0.0424805,0.0195313,0.0981445,0.0327148,0.1669922,0.0400391c0.0683594,0.0073242,0.1435547,0.0107422,0.2255859,0.0107422
			c0.0898438,0,0.1650391-0.0029297,0.2255859-0.0092773s0.1147461-0.0200195,0.1625977-0.0410156
			c0.0449219-0.0185547,0.0791016-0.0458984,0.1025391-0.0805664c0.0239258-0.034668,0.0356445-0.0810547,0.0356445-0.1386719
			c0-0.0541992-0.0112305-0.0991211-0.0336914-0.1347656S63.7398682,28.4821167,63.694458,28.4625854z"/>
		<path class="st4" d="M63.3018799,27.2863159c0.230957,0,0.4008789,0.0361328,0.5087891,0.1083984
			s0.1621094,0.1845703,0.1621094,0.3369141c0,0.1542969-0.0546875,0.2670898-0.1640625,0.3383789
			c-0.1098633,0.0712891-0.277832,0.1064453-0.5048828,0.1064453c-0.2290039,0-0.3979492-0.0356445-0.5068359-0.1079102
			c-0.109375-0.0717773-0.1640625-0.184082-0.1640625-0.3369141c0-0.1542969,0.0556641-0.2670898,0.1665039-0.3383789
			S63.0777588,27.2863159,63.3018799,27.2863159z M63.694458,27.513855
			c-0.046875-0.0205078-0.1015625-0.0341797-0.1645508-0.0410156c-0.0634766-0.0073242-0.1391602-0.0107422-0.2280273-0.0107422
			c-0.0874023,0-0.1635742,0.003418-0.2280273,0.0107422c-0.0644531,0.0068359-0.1191406,0.0209961-0.1640625,0.0419922
			c-0.0444336,0.0200195-0.078125,0.0473633-0.1005859,0.0825195c-0.0224609,0.034668-0.0336914,0.0795898-0.0336914,0.1342773
			c0,0.0541992,0.0112305,0.0991211,0.0336914,0.1342773c0.0224609,0.0356445,0.0566406,0.0634766,0.1020508,0.0844727
			c0.0424805,0.0195313,0.0981445,0.0327148,0.1669922,0.0400391c0.0683594,0.0073242,0.1435547,0.0107422,0.2255859,0.0107422
			c0.0898438,0,0.1650391-0.0029297,0.2255859-0.0092773s0.1147461-0.0200195,0.1625977-0.0410156
			c0.0449219-0.0185547,0.0791016-0.0458984,0.1025391-0.0805664c0.0239258-0.034668,0.0356445-0.0810547,0.0356445-0.1386719
			c0-0.0541992-0.0112305-0.0991211-0.0336914-0.1347656S63.7398682,27.5333862,63.694458,27.513855z"/>
		<path class="st4" d="M63.9459229,26.3366089v0.8710938h-0.1806641c-0.0517578-0.0605469-0.1035156-0.1210938-0.1557617-0.1821289
			c-0.0517578-0.0605469-0.1030273-0.1171875-0.1542969-0.1694336c-0.1074219-0.1108398-0.1923828-0.1865234-0.2558594-0.2275391
			c-0.0629883-0.0410156-0.1308594-0.0615234-0.2041016-0.0615234c-0.0668945,0-0.1191406,0.0219727-0.1567383,0.0664063
			c-0.0380859,0.0439453-0.0566406,0.1054688-0.0566406,0.1845703c0,0.0522461,0.0087891,0.1088867,0.0273438,0.1699219
			s0.046875,0.1210938,0.0849609,0.1791992v0.0087891h-0.1816406c-0.0200195-0.0410156-0.0385742-0.0957031-0.0551758-0.1640625
			c-0.0170898-0.0683594-0.0253906-0.1342773-0.0253906-0.1982422c0-0.1318359,0.0322266-0.2353516,0.0957031-0.3105469
			c0.0634766-0.074707,0.1499023-0.1123047,0.2587891-0.1123047c0.0488281,0,0.0947266,0.0063477,0.137207,0.0185547
			c0.0419922,0.0126953,0.0825195,0.0307617,0.1206055,0.0551758c0.0356445,0.0224609,0.0708008,0.0488281,0.1054688,0.0791016
			c0.0341797,0.0302734,0.0727539,0.0668945,0.1147461,0.1098633c0.0605469,0.0620117,0.1191406,0.1254883,0.1757813,0.1914063
			c0.0566406,0.0654297,0.109375,0.1269531,0.1577148,0.184082v-0.6923828H63.9459229z"/>
	</g>
</g>
<g>
	<path d="M60.37854,12.1744995l0.5317383-0.1020508V8.5172729L60.37854,8.4152222V7.8161011h2.0415039v0.5991211
		l-0.5078125,0.1020508v1.3232422h0.4492188l0.9370117-1.3369141c0.1987305-0.2768555,0.375-0.4682617,0.5283203-0.5751953
		c0.1533203-0.1064453,0.3569336-0.159668,0.6108398-0.159668c0.1166992,0,0.2250977,0.015625,0.3256836,0.0473633
		c0.1010742,0.0317383,0.1933594,0.0737305,0.2783203,0.1259766l-0.168457,0.7451172
		c-0.0732422-0.0161133-0.1230469-0.0268555-0.1489258-0.0322266c-0.0263672-0.0058594-0.0625-0.0087891-0.1083984-0.0087891
		c-0.1049805,0-0.2021484,0.0297852-0.2915039,0.0883789c-0.0893555,0.059082-0.1967773,0.1694336-0.3227539,0.3300781
		l-0.7822266,1.0615234l1.3828125,1.9628906l0.5249023,0.0854492v0.5952148H63.147583v-0.5952148l0.284668-0.0410156
		l-0.9335938-1.3916016h-0.5864258v1.3305664l0.5078125,0.1020508v0.5952148H60.37854V12.1744995z"/>
	<path d="M65.4259033,10.8952026c0-0.5488281,0.1547852-0.9985352,0.4648438-1.3491211
		c0.3100586-0.3500977,0.7382813-0.5253906,1.2851563-0.5253906c0.5488281,0,0.9785156,0.1743164,1.2880859,0.5239258
		c0.3100586,0.3491211,0.465332,0.7993164,0.465332,1.3505859v0.0712891c0,0.5537109-0.1552734,1.0043945-0.465332,1.3525391
		c-0.3095703,0.3481445-0.7368164,0.5219727-1.28125,0.5219727c-0.5512695,0-0.9819336-0.1738281-1.2919922-0.5219727
		s-0.4648438-0.7988281-0.4648438-1.3525391V10.8952026z M66.4278564,10.9664917
		c0,0.3359375,0.059082,0.6049805,0.1782227,0.8081055s0.3110352,0.3046875,0.5766602,0.3046875
		c0.2583008,0,0.4477539-0.1020508,0.5678711-0.3061523c0.1201172-0.2045898,0.1801758-0.4731445,0.1801758-0.8066406v-0.0712891
		c0-0.3266602-0.0610352-0.5932617-0.1821289-0.7998047c-0.1210938-0.2060547-0.3120117-0.3095703-0.5727539-0.3095703
		s-0.4506836,0.1035156-0.5698242,0.3095703c-0.1191406,0.206543-0.1782227,0.4731445-0.1782227,0.7998047V10.9664917z"/>
	<path d="M69.4400635,9.6871948V9.088562h1.9663086v0.5986328l-0.4321289,0.1020508v0.7895508h1.2211914V9.7892456
		l-0.4287109-0.1020508V9.088562h0.4287109h1.0019531h0.5356445v0.5986328l-0.5356445,0.1020508v2.2832031l0.5356445,0.1020508
		v0.5952148h-1.9663086v-0.5952148l0.4287109-0.1020508v-0.7314453h-1.2211914v0.7314453l0.4321289,0.1020508v0.5952148h-1.9663086
		v-0.5952148l0.5356445-0.1020508V9.7892456L69.4400635,9.6871948z"/>
	<path d="M77.9429932,9.088562v2.9223633h0.5595703l-0.0688477,1.8510742h-0.9296875v-1.0922852H74.175415v-0.5952148
		l0.5356445-0.1020508V9.7892456L74.175415,9.6871948V9.088562h0.5356445h0.9985352h0.4560547v0.5986328l-0.4560547,0.1020508
		v2.2182617h1.2280273V9.7892456l-0.4560547-0.1020508V9.088562h0.4560547H77.9429932z M78.4752197,9.088562v0.5986328
		l-0.5322266,0.1020508V9.088562H78.4752197z"/>
	<path d="M80.756958,12.8410034c-0.5351563,0-0.9628906-0.1699219-1.2832031-0.5102539s-0.4804688-0.7719727-0.4804688-1.2958984
		v-0.1362305c0-0.546875,0.1513672-0.9970703,0.4545898-1.3505859c0.3032227-0.3540039,0.7094727-0.5297852,1.2197266-0.5273438
		c0.5009766,0,0.8901367,0.1494141,1.1665039,0.4487305c0.2768555,0.2998047,0.4155273,0.7045898,0.4155273,1.2148438v0.5410156
		h-2.2167969l-0.0068359,0.0205078c0.0185547,0.2426758,0.1000977,0.4418945,0.2456055,0.5986328
		c0.1450195,0.15625,0.3422852,0.2348633,0.5917969,0.2348633c0.2216797,0,0.4057617-0.0224609,0.5522461-0.0664063
		c0.1464844-0.0444336,0.3066406-0.1142578,0.4804688-0.2094727l0.2709961,0.6123047
		c-0.1533203,0.1206055-0.3515625,0.2211914-0.5952148,0.3027344C81.3282471,12.8004761,81.0567627,12.8410034,80.756958,12.8410034
		z M80.6676025,9.7858276c-0.1850586,0-0.331543,0.0703125-0.4389648,0.2109375
		c-0.1079102,0.1411133-0.1738281,0.3256836-0.1992188,0.5546875l0.0102539,0.0170898h1.2285156v-0.0883789
		c0-0.2109375-0.0498047-0.3793945-0.1494141-0.5053711S80.8687744,9.7858276,80.6676025,9.7858276z"/>
	<path d="M84.9053955,9.088562c0.4941406,0,0.8789063,0.0864258,1.1547852,0.2587891
		c0.2753906,0.1723633,0.4135742,0.4287109,0.4135742,0.7685547c0,0.1723633-0.0581055,0.3256836-0.1733398,0.4594727
		c-0.1157227,0.1337891-0.2797852,0.2358398-0.4926758,0.3061523c0.2817383,0.0541992,0.4946289,0.1572266,0.6401367,0.3081055
		c0.1450195,0.1508789,0.2177734,0.3271484,0.2177734,0.5288086c0,0.347168-0.1308594,0.6088867-0.3925781,0.7861328
		c-0.262207,0.1767578-0.6376953,0.2651367-1.1274414,0.2651367h-2.3266602v-0.5952148l0.5356445-0.1020508V9.7892456
		l-0.5356445-0.1020508V9.088562h0.5356445H84.9053955z M84.3531494,10.5890503h0.6074219
		c0.1757813-0.0024414,0.3051758-0.0327148,0.3876953-0.0917969c0.0820313-0.059082,0.1235352-0.1464844,0.1235352-0.262207
		c0-0.1337891-0.046875-0.2319336-0.140625-0.2944336c-0.0942383-0.0620117-0.2358398-0.0932617-0.4257813-0.0932617h-0.5522461
		V10.5890503z M84.3531494,11.2355347v0.7788086h0.7924805c0.1762695,0,0.3066406-0.0322266,0.3911133-0.0966797
		c0.0844727-0.0649414,0.1269531-0.1606445,0.1269531-0.2875977s-0.0405273-0.2246094-0.121582-0.2924805
		c-0.081543-0.0683594-0.2133789-0.1020508-0.3964844-0.1020508H84.3531494z"/>
	<path d="M89.2115479,9.088562v0.5986328l-0.4799805,0.1020508v1.534668l0.0205078,0.003418l1.2075195-2.2387695h1.0019531
		h0.5322266v0.5986328l-0.5322266,0.1020508v2.2832031l0.5322266,0.1020508v0.5952148h-2.0141602v-0.5952148l0.4799805-0.1020508
		v-1.5415039l-0.0205078-0.003418l-1.2075195,2.2421875h-1.5375977v-0.5952148l0.5356445-0.1020508V9.7892456l-0.5356445-0.1020508
		V9.088562h1.5375977H89.2115479z"/>
	<path d="M92.0767822,9.6871948V9.088562h1.9902344v0.5986328l-0.4560547,0.1020508v0.7011719h0.3427734l0.5561523-0.8164063
		c0.1396484-0.2133789,0.2856445-0.3740234,0.4389648-0.4814453c0.1533203-0.1079102,0.3442383-0.1616211,0.5732422-0.1616211
		c0.1142578,0,0.2172852,0.015625,0.3085938,0.0473633c0.0917969,0.0317383,0.1821289,0.074707,0.2714844,0.1293945
		l-0.168457,0.6870117c-0.0683594-0.0180664-0.1113281-0.0292969-0.128418-0.0336914
		C95.788208,9.8561401,95.7564697,9.854187,95.7105713,9.854187c-0.0683594,0-0.1411133,0.0258789-0.2177734,0.078125
		s-0.1420898,0.1181641-0.1972656,0.1972656l-0.4804688,0.6943359l0.8613281,1.2685547l0.5043945,0.0820313v0.5952148h-1.3759766
		l-0.8095703-1.3779297h-0.3842773v0.6806641l0.4560547,0.1020508v0.5952148h-1.9902344v-0.5952148l0.5356445-0.1020508V9.7892456
		L92.0767822,9.6871948z"/>
</g>
<g>
	<circle class="st5" cx="7.0878506" cy="38.0278015" r="7.0866141"/>
	<path class="st6" d="M14.8302479,45.3527832l-9.108675-3.1994209c-2.3425093-0.7363281-3.6566584-3.2553749-2.9203315-5.5978813
		l0.0000029-0.0000114c0.7363267-2.3425064,3.2553744-3.6566582,5.5978832-2.92033l9.108676,3.1994209"/>
	<line class="st7" x1="26.0781288" y1="10.3065729" x2="14.8302479" y2="45.3527832"/>
	<path class="st8" d="M28.3862171,23.599081h-2.9006939c-1.2233677,0-2.2243061-0.8852673-2.2243061-1.9672604v-0.3174496
		c0-1.0819912,1.0009384-1.9672585,2.2243061-1.9672585h2.9006939"/>
	<path class="st0" d="M25.8237171,10.1345139v36.4251709h17.7086773l0.0337143-4.8031654l1.1380234-0.9999924l-0.1001472-6.5196571
		l-1.0715904-0.9999962V23.457325l1.0816917-0.9999962l0.0824928-7.086607l-1.1294708-1.000001l-0.0347137-4.236207H25.8237171z
		 M40.6347504,40.7565231c-1.800354,0-3.2598267-1.4594727-3.2598267-3.2598267s1.4594727-3.2598267,3.2598267-3.2598267
		s3.2598267,1.4594727,3.2598267,3.2598267S42.4351044,40.7565231,40.6347504,40.7565231z M43.894577,19.9977951
		c0,0.2468872-0.0927734,0.4847412-0.2599487,0.6664429l-1.3571777,1.4752197
		c-0.1864014,0.2025757-0.4490967,0.3178711-0.7243652,0.3178711h-1.8366699c-0.2752686,0-0.5380249-0.1152954-0.7244263-0.3178711
		l-1.3571777-1.4752197c-0.1671143-0.1817017-0.2598877-0.4195557-0.2598877-0.6664429v-2.1675415
		c0-0.2468872,0.0927734-0.4847412,0.2598877-0.6664429l1.3571777-1.4752197
		c0.1864014-0.2025757,0.4491577-0.3178711,0.7244263-0.3178711h1.8366699c0.2752686,0,0.5379639,0.1152954,0.7243652,0.3178711
		l1.3571777,1.4752197c0.1671753,0.1817017,0.2599487,0.4195557,0.2599487,0.6664429V19.9977951z"/>
	<path class="st9" d="M50.4391365,14.9972019c-1.2273598,0-2.2224731-1.0018463-2.2224731-2.2397385
		s0.9951134-2.2415428,2.2224731-2.2415428c1.2273636,0,2.222477,1.0036497,2.222477,2.2415428
		S51.6665001,14.9972019,50.4391365,14.9972019z"/>
	<ellipse class="st10" cx="50.4391365" cy="12.7565613" rx="1.5185714" ry="1.5316002"/>
	<path class="st9" d="M50.4391365,30.5877533c-1.2273598,0-2.2224731-1.0018463-2.2224731-2.2397385
		s0.9951134-2.2415428,2.2224731-2.2415428c1.2273636,0,2.222477,1.0036507,2.222477,2.2415428
		S51.6665001,30.5877533,50.4391365,30.5877533z"/>
	<ellipse class="st10" cx="50.4391365" cy="28.3471127" rx="1.5185714" ry="1.5316002"/>
	<path class="st9" d="M52.014801,45.5657349c-2.0229149,1.5395088-4.2713051-0.1709862-3.7840004-2.1831703
		c0.1875343-0.7743721,0.8210754-1.4096413,1.5950584-1.5987854C51.8374901,41.2921829,53.5551987,43.5412483,52.014801,45.5657349z
		"/>
	<ellipse class="st10" cx="50.3858795" cy="43.937664" rx="1.5185714" ry="1.5316002"/>
	<rect x="43.6101837" y="11.906167" class="st6" width="6.8289557" height="1.7007874"/>
	<rect x="43.5569267" y="43.0649147" class="st6" width="6.8289557" height="1.7007874"/>
	<rect x="43.6101837" y="27.5109043" class="st6" width="6.8289557" height="1.7007874"/>
	<path class="st11" d="M37.604229,33.2368774h4.3769684v-9.7795296L37.604229,23.457346
		c-0.4789009,0-0.8671265-0.3882256-0.8671265-0.8671246V10.1345139H25.8237171v36.4251976h10.9133854V34.1040039
		C36.7371025,33.625103,37.1253281,33.2368774,37.604229,33.2368774z"/>
	<rect x="38.2656479" y="26.0227165" class="st0" width="2.2677166" height="4.6771655"/>
	<rect x="38.2656479" y="26.0227165" width="0.4124826" height="4.6771655"/>
	<rect x="25.9310703" y="10.2359848" width="0.5470588" height="0.3176471"/>
	<circle class="st12" cx="7.0878506" cy="38.0278015" r="2.1259842"/>
</g>
<g>
	<g>
		<path class="st0" d="M113.7071533,35.0841675c0-0.3588867,0.0810547-0.640625,0.2441406-0.8447266
			c0.1630859-0.2045898,0.3876953-0.3066406,0.6748047-0.3066406c0.1582031,0,0.2958984,0.0429688,0.4121094,0.128418
			s0.2099609,0.2104492,0.2822266,0.3754883c0.0546875-0.1865234,0.1455078-0.3208008,0.2724609-0.402832
			c0.1269531-0.081543,0.2841797-0.1225586,0.4726563-0.1225586h0.1591797c0.0693359,0,0.1220703-0.0136719,0.1601563-0.0415039
			c0.0380859-0.0273438,0.0605469-0.0732422,0.0683594-0.1367188l0.0107422-0.078125h0.3789063v0.328125
			c0,0.2070313-0.0556641,0.3525391-0.1660156,0.4365234s-0.2529297,0.1259766-0.4287109,0.1259766h-0.1787109
			c-0.1523438,0-0.2714844,0.0410156-0.3583984,0.1225586c-0.0869141,0.0820313-0.1328125,0.1972656-0.1367188,0.3466797v0.519043
			h0.8271484l0.0644531-0.3388672h0.3769531v1.3100586h-0.3769531l-0.0644531-0.3369141h-2.2509766l-0.0644531,0.3369141h-0.3789063
			v-0.3369141V35.0841675z M115.0899658,35.5338745v-0.4389648c0-0.1762695-0.0380859-0.309082-0.1123047-0.3974609
			s-0.1826172-0.1323242-0.3232422-0.1323242s-0.2529297,0.0439453-0.3369141,0.1313477
			c-0.0839844,0.0878906-0.1259766,0.2167969-0.1259766,0.3876953v0.449707H115.0899658z"/>
		<path class="st0" d="M113.7071533,32.1735229h0.3789063l0.0644531,0.3388672h1.6367188
			c0.2070313,0,0.3613281-0.0561523,0.4648438-0.168457c0.1025391-0.1123047,0.1533203-0.2661133,0.1533203-0.4614258
			c0-0.1987305-0.0507813-0.3544922-0.1523438-0.4672852c-0.1025391-0.112793-0.2578125-0.1694336-0.4658203-0.1694336h-1.6367188
			l-0.0644531,0.3369141h-0.3789063V30.272644h0.3789063l0.0644531,0.3388672h1.6367188
			c0.3525391,0,0.6230469,0.1166992,0.8144531,0.3505859s0.2861328,0.5410156,0.2861328,0.9204102
			c0,0.3779297-0.0947266,0.6831055-0.2861328,0.9155273s-0.4619141,0.3486328-0.8144531,0.3486328h-1.6367188l-0.0644531,0.3364258
			h-0.3789063v-0.3364258v-0.6342773V32.1735229z"/>
		<path class="st0" d="M114.7081299,27.6828003v0.4760742l-0.4306641,0.0825195
			c-0.0341797,0.0546875-0.0644531,0.1352539-0.0898438,0.2407227c-0.0263672,0.105957-0.0390625,0.2182617-0.0390625,0.3369141
			c0,0.1738281,0.0361328,0.3081055,0.1083984,0.402832c0.0722656,0.0952148,0.1660156,0.1425781,0.28125,0.1425781
			c0.1064453,0,0.1933594-0.0498047,0.2617188-0.1489258s0.140625-0.2705078,0.2167969-0.5136719
			c0.0957031-0.3491211,0.2226563-0.6137695,0.3808594-0.7939453c0.1582031-0.1806641,0.3652344-0.2705078,0.6220703-0.2705078
			c0.2685547,0,0.4804688,0.1069336,0.6357422,0.3212891s0.2324219,0.4970703,0.2324219,0.847168
			c0,0.2509766-0.0390625,0.4770508-0.1181641,0.6791992c-0.0791016,0.2016602-0.1884766,0.3701172-0.3271484,0.5048828h-0.6552734
			v-0.4907227l0.4462891-0.0673828c0.0517578-0.0639648,0.0947266-0.1503906,0.1279297-0.2597656
			c0.0341797-0.109375,0.0507813-0.2314453,0.0507813-0.3662109c0-0.1738281-0.0351563-0.3056641-0.1054688-0.3964844
			c-0.0703125-0.090332-0.1650391-0.1357422-0.2822266-0.1357422c-0.1210938,0-0.2177734,0.043457-0.2910156,0.1293945
			c-0.0732422,0.0864258-0.1416016,0.2373047-0.2070313,0.453125c-0.1074219,0.375-0.2353516,0.6586914-0.3828125,0.8515625
			c-0.1484375,0.1923828-0.3505859,0.2885742-0.6074219,0.2885742c-0.2539063,0-0.4619141-0.1083984-0.6240234-0.3256836
			c-0.1611328-0.2172852-0.2441406-0.4902344-0.2480469-0.8188477c0-0.2431641,0.0361328-0.4648438,0.109375-0.6650391
			c0.0732422-0.199707,0.1708984-0.3676758,0.2929688-0.5039063H114.7081299z"/>
		<path class="st0" d="M114.7081299,24.9850464v0.4746094l-0.4306641,0.0839844
			c-0.0341797,0.0546875-0.0644531,0.1347656-0.0898438,0.2402344c-0.0263672,0.1054688-0.0390625,0.21875-0.0390625,0.3378906
			c0,0.1738281,0.0361328,0.3066406,0.1083984,0.4023438c0.0722656,0.0947266,0.1660156,0.1420898,0.28125,0.1420898
			c0.1064453,0,0.1933594-0.050293,0.2617188-0.1489258s0.140625-0.2705078,0.2167969-0.5146484
			c0.0957031-0.3476563,0.2226563-0.6132813,0.3808594-0.7929688s0.3652344-0.2714844,0.6220703-0.2714844
			c0.2685547,0,0.4804688,0.1074219,0.6357422,0.3222656s0.2324219,0.4960938,0.2324219,0.8476563
			c0,0.25-0.0390625,0.4765625-0.1181641,0.6787109c-0.0791016,0.2016602-0.1884766,0.3701172-0.3271484,0.5048828h-0.6552734
			v-0.4907227l0.4462891-0.0673828c0.0517578-0.0639648,0.0947266-0.1508789,0.1279297-0.2602539
			c0.0341797-0.109375,0.0507813-0.2304688,0.0507813-0.3652344c0-0.1738281-0.0351563-0.3066406-0.1054688-0.3964844
			s-0.1650391-0.1367188-0.2822266-0.1367188c-0.1210938,0-0.2177734,0.0429688-0.2910156,0.1308594
			c-0.0732422,0.0859375-0.1416016,0.2363281-0.2070313,0.4511719c-0.1074219,0.3759766-0.2353516,0.659668-0.3828125,0.8525391
			c-0.1484375,0.1923828-0.3505859,0.2885742-0.6074219,0.2885742c-0.2539063,0-0.4619141-0.1083984-0.6240234-0.3256836
			c-0.1611328-0.2172852-0.2441406-0.4892578-0.2480469-0.8193359c0-0.2421875,0.0361328-0.4648438,0.109375-0.6640625
			s0.1708984-0.3671875,0.2929688-0.5039063H114.7081299z"/>
		<path class="st0" d="M114.0860596,24.6920776h-0.3789063v-1.3105469h0.3789063l0.0644531,0.3388672h2.2509766l0.0644531-0.3388672
			h0.3769531v1.3105469h-0.3769531l-0.0644531-0.3388672h-2.2509766L114.0860596,24.6920776z"/>
		<path class="st0" d="M116.4659424,23.1735229l-0.0322266-0.2265625l-2.7265625-0.9619141v-0.6494141l2.7265625-0.9560547
			l0.0322266-0.2255859h0.3769531v1.0771484h-0.3769531l-0.0390625-0.2197266l-0.4306641,0.1396484v1.0253906l0.4306641,0.1386719
			l0.0390625-0.2197266h0.3769531v1.078125H116.4659424z M115.5333252,22.026062v-0.7255859l-1.1044922,0.3564453v0.0126953
			L115.5333252,22.026062z"/>
	</g>
	
		<rect x="88.8332672" y="23.3795757" transform="matrix(6.123234e-17 -1 1 6.123234e-17 65.4536896 116.919632)" class="st0" width="4.706789" height="4.706789"/>
	<g>
		<path class="st13" d="M89.5030518,25.7926636c0-0.3969727,0.1210938-0.7163086,0.3632813-0.9575195
			c0.2421875-0.2416992,0.5556641-0.3623047,0.9394531-0.3623047h0.4121094c0.3847656,0,0.6972656,0.1206055,0.9384766,0.3623047
			c0.2412109,0.2412109,0.3613281,0.5605469,0.3613281,0.9575195v1.2734375H92.256958l-0.0585938-0.340332h-2.3740234
			l-0.0585938,0.340332h-0.2626953v-0.340332V25.7926636z M89.8243408,26.3146362h2.3740234v-0.5219727
			c0-0.28125-0.0908203-0.5029297-0.2744141-0.6655273c-0.1835938-0.1621094-0.4189453-0.2431641-0.7060547-0.2431641h-0.4169922
			c-0.2841797,0-0.5175781,0.0810547-0.7011719,0.2431641c-0.1835938,0.1625977-0.2753906,0.3842773-0.2753906,0.6655273V26.3146362
			z"/>
	</g>
	<path class="st14" d="M112.3928223,39.079998c-0.0001984,0.0916176-0.0003052,0.1396866-0.0003052,0.1396866l-15.5419617,0.0391426
		c0,0-0.0264893,0.0000648-0.0529785,0.0001335c0.000061-0.0282974,0.0001221-0.0565948,0.0001221-0.0565948l0.0478134-21.6945534
		c0,0,0.0000305-0.0124226,0.0000763-0.034481c2.1060257-0.0053043,15.2590637-0.0384293,15.2590637-0.0384293
		s0.1679382-0.0004234,0.3358765-0.0008469c-0.0000992,0.0455379-0.0001984,0.0910759-0.0001984,0.0910759
		S112.3969116,37.2253456,112.3928223,39.079998z"/>
	<line class="st14" x1="96.8295898" y1="24.7329693" x2="112.4235153" y2="24.7329693"/>
	<line class="st14" x1="96.8136444" y1="31.9695129" x2="112.4065094" y2="31.9695129"/>
	<path class="st14" d="M100.5237808,25.2771893"/>
	<path class="st9" d="M108.5638733,33.3064728c1.2273636,0,2.2224731,1.0018463,2.2224731,2.2397385
		s-0.9951096,2.2415428-2.2224731,2.2415428s-2.2224731-1.0036507-2.2224731-2.2415428
		S107.3365097,33.3064728,108.5638733,33.3064728z"/>
	<ellipse class="st10" cx="108.5638733" cy="35.5471115" rx="1.5185714" ry="1.5316002"/>
	<path class="st9" d="M108.5638733,26.106472c1.2273636,0,2.2224731,1.0018463,2.2224731,2.2397385
		s-0.9951096,2.2415428-2.2224731,2.2415428s-2.2224731-1.0036507-2.2224731-2.2415428S107.3365097,26.106472,108.5638733,26.106472
		z"/>
	<ellipse class="st10" cx="108.5638733" cy="28.3471127" rx="1.5185714" ry="1.5316002"/>
	<path class="st9" d="M106.9349518,19.519043c2.0229111-1.5395126,4.2713013,0.1709862,3.7840042,2.1831684
		c-0.1875381,0.7743721-0.8210831,1.4096413-1.5950623,1.5987854
		C107.1122665,23.7925911,105.3945541,21.5435295,106.9349518,19.519043z"/>
	<ellipse class="st10" cx="108.5638733" cy="21.1471119" rx="1.5185714" ry="1.5316002"/>
	<g>
		<path class="st0" d="M103.0343018,33.0797729c0.1582031,0.152832,0.3076172,0.3779297,0.4482422,0.6757813
			s0.2109375,0.6845703,0.2109375,1.1611328c0,0.6958008-0.2421875,1.2631836-0.7265625,1.7026367
			c-0.4833984,0.4394531-1.1123047,0.6591797-1.8847656,0.6591797h-0.0849609c-0.7763672,0-1.40625-0.2172852-1.8876953-0.6518555
			c-0.4824219-0.4345703-0.7236328-1.0131836-0.7236328-1.7348633c0-0.3862305,0.0605469-0.7246094,0.1796875-1.0166016
			s0.2763672-0.5380859,0.4726563-0.737793h0.9355469v0.4931641l-0.7119141,0.1713867
			c-0.0947266,0.1166992-0.1728516,0.2578125-0.234375,0.4233398s-0.0917969,0.3637695-0.0917969,0.5952148
			c0,0.5620117,0.1904297,0.9951172,0.5722656,1.2988281c0.3808594,0.3037109,0.875,0.4555664,1.4824219,0.4555664h0.0917969
			c0.6171875,0,1.1152344-0.1469727,1.4951172-0.4414063c0.3808594-0.2944336,0.5703125-0.699707,0.5703125-1.2167969
			c0-0.2832031-0.0292969-0.515625-0.0878906-0.6967773c-0.0595703-0.1811523-0.1240234-0.3261719-0.1953125-0.4360352h-1.1298828
			l-0.0351563,0.8540039h-0.5136719v-1.5581055H103.0343018z"/>
	</g>
	<g>
		<path class="st0" d="M99.0196533,29.1618042l0.0751953,0.4750977l3.3515625-1.1650391l0.4072266-0.1176758v-0.0214844
			l-0.4072266-0.1181641l-3.3554688-1.1611328l-0.0712891,0.4682617h-0.4492188v-1.640625h0.4492188l0.0566406,0.418457
			l4.6523438,1.7436523v0.6040039l-4.6523438,1.7436523l-0.0566406,0.4145508h-0.4492188v-1.6435547H99.0196533z"/>
	</g>
	<g>
		<path class="st0" d="M100.0938721,19.3497925v0.5322266l-0.7373047,0.1323242
			c-0.0898438,0.1074219-0.1640625,0.25-0.2236328,0.4287109c-0.0585938,0.1787109-0.0878906,0.3862305-0.0878906,0.6220703
			c0,0.3740234,0.078125,0.6611328,0.2353516,0.8608398c0.1572266,0.2001953,0.3623047,0.300293,0.6142578,0.300293
			c0.2246094,0,0.4121094-0.1015625,0.5625-0.3056641c0.1494141-0.2036133,0.28125-0.5327148,0.3945313-0.987793
			c0.1347656-0.5478516,0.3330078-0.9643555,0.5957031-1.2490234c0.2617188-0.284668,0.5869141-0.4267578,0.9736328-0.4267578
			c0.4160156,0,0.75,0.1708984,1.0029297,0.5126953s0.3789063,0.7890625,0.3789063,1.3417969
			c0,0.3999023-0.0644531,0.7558594-0.1943359,1.0664063c-0.1298828,0.3110352-0.2998047,0.5639648-0.5107422,0.7592773h-0.9599609
			v-0.5288086l0.7402344-0.1357422c0.1113281-0.1357422,0.2021484-0.2978516,0.2734375-0.4858398
			c0.0703125-0.1879883,0.1054688-0.4130859,0.1054688-0.675293c0-0.3549805-0.0742188-0.6357422-0.2226563-0.8417969
			s-0.3505859-0.309082-0.6054688-0.309082c-0.2363281,0-0.4345703,0.0893555-0.59375,0.2680664
			s-0.2939453,0.4946289-0.4023438,0.9472656c-0.1298828,0.550293-0.3212891,0.9799805-0.5742188,1.2895508
			c-0.2519531,0.3100586-0.5703125,0.4648438-0.953125,0.4648438c-0.4033203,0-0.7392578-0.1728516-1.0078125-0.5180664
			c-0.2675781-0.3457031-0.4023438-0.7944336-0.4023438-1.347168c0-0.3647461,0.0625-0.6962891,0.1865234-0.9951172
			c0.1240234-0.2993164,0.2744141-0.5390625,0.4511719-0.7202148H100.0938721z"/>
	</g>
	
		<rect x="108.5638733" y="34.6967201" transform="matrix(-1 -1.224647e-16 1.224647e-16 -1 220.9566956 71.094223)" class="st15" width="3.8289537" height="1.7007874"/>
	
		<rect x="112.3928223" y="31.8658142" transform="matrix(-1 -1.224647e-16 1.224647e-16 -1 231.8961334 70.945816)" class="st16" width="7.1104875" height="7.2141862"/>
	
		<rect x="112.4065094" y="32.8709068" transform="matrix(-1 -1.224647e-16 1.224647e-16 -1 231.9098206 71.0906372)" class="st17" width="7.0968037" height="5.3488269"/>
	
		<rect x="108.5638733" y="20.3190746" transform="matrix(-1 -1.224647e-16 1.224647e-16 -1 220.9566956 42.3389359)" class="st15" width="3.8289537" height="1.7007874"/>
	
		<rect x="112.3928223" y="17.5918694" transform="matrix(-1 -1.224647e-16 1.224647e-16 -1 231.8961334 42.3471947)" class="st16" width="7.1104875" height="7.1634574"/>
	
		<rect x="112.4065094" y="18.4932613" transform="matrix(-1 -1.224647e-16 1.224647e-16 -1 231.9098206 42.33535)" class="st17" width="7.0968037" height="5.3488269"/>
	
		<rect x="108.5638733" y="27.4825325" transform="matrix(-1 -1.224647e-16 1.224647e-16 -1 220.9566956 56.6658516)" class="st15" width="3.8289537" height="1.7007874"/>
	
		<rect x="112.3928223" y="24.7553253" transform="matrix(-1 -1.224647e-16 1.224647e-16 -1 231.8961334 56.6211395)" class="st16" width="7.1104875" height="7.1104875"/>
	<polygon class="st15" points="131.2205505,27.127779 119.5033112,27.127779 119.5033112,29.11203 131.2205505,29.11203 
		131.5111847,28.9202175 131.5111847,27.335083 	"/>
	<polygon class="st15" points="131.2205505,19.752779 119.5033112,19.752779 119.5033112,21.73703 131.2205505,21.73703 
		131.5111847,21.5452175 131.5111847,19.960083 	"/>
	<polygon class="st15" points="131.2205505,34.554985 119.5033112,34.554985 119.5033112,36.539238 131.2205505,36.539238 
		131.5111847,36.3474236 131.5111847,34.762291 	"/>
	
		<rect x="112.4065094" y="25.6567192" transform="matrix(-1 -1.224647e-16 1.224647e-16 -1 231.9098206 56.6622658)" class="st17" width="7.0968037" height="5.3488269"/>
</g>
<g>
</g>
<g>
</g>
<g>
</g>
<g>
</g>
<g>
</g>
<g>
</g>
</svg>
