<?xml version="1.0" encoding="utf-8"?>
<!-- Generator: Adobe Illustrator 22.1.0, SVG Export Plug-In . SVG Version: 6.00 Build 0)  -->
<svg version="1.1" xmlns="http://www.w3.org/2000/svg" xmlns:xlink="http://www.w3.org/1999/xlink" x="0px" y="0px"
	 viewBox="0 0 119.0707397 72.2855835" style="enable-background:new 0 0 119.0707397 72.2855835;" xml:space="preserve">
<style type="text/css">
	.st0{fill:#19191A;}
	.st1{fill:#E9A854;}
	.st2{fill:#9E9B9C;}
	.st3{fill:#FFFFFF;}
	.st4{fill:#363331;}
	.st5{fill:#B5B4B3;}
	.st6{fill:#CDC7BC;}
	.st7{fill:#907747;}
	.st8{fill:#CEC7BD;}
	.st9{fill:#918C84;}
	.st10{fill:#46433E;}
	.st11{fill:#CBC5BA;}
	.st12{fill:none;stroke:#E5E5E5;stroke-miterlimit:10;}
	.st13{fill:none;stroke:#C9C8C8;stroke-miterlimit:10;}
	.st14{fill:#4C4C4C;}
	.st15{fill:#CCC6BB;}
	.st16{fill:#4C4C4C;stroke:#808080;stroke-width:0.5;stroke-miterlimit:10;}
	.st17{fill:#313131;}
	.st18{fill:#272624;stroke:#808080;stroke-width:0.5;stroke-miterlimit:10;}
</style>
<g id="Фон">
	<path class="st0" d="M17.0234985,72.2855835h102.0472412V0H17.0234985V72.2855835z M111.729187,65.4528809
		c0,0.7827759-0.6345215,1.4173584-1.4172974,1.4173584s-1.4173584-0.6345825-1.4173584-1.4173584
		c0-0.7827148,0.6345825-1.4172974,1.4173584-1.4172974S111.729187,64.670166,111.729187,65.4528809z M108.6450195,65.4528809
		c0,0.7827759-0.6345825,1.4173584-1.4172974,1.4173584c-0.7827759,0-1.4173584-0.6345825-1.4173584-1.4173584
		c0-0.7827148,0.6345825-1.4172974,1.4173584-1.4172974C108.010437,64.0355835,108.6450195,64.670166,108.6450195,65.4528809z
		 M105.5608521,65.4528809c0,0.7827759-0.6345825,1.4173584-1.4172974,1.4173584
		c-0.7827759,0-1.4173584-0.6345825-1.4173584-1.4173584c0-0.7827148,0.6345825-1.4172974,1.4173584-1.4172974
		C104.9262695,64.0355835,105.5608521,64.670166,105.5608521,65.4528809z M111.729187,62.3643188
		c0,0.7827759-0.6345215,1.4172974-1.4172974,1.4172974s-1.4173584-0.6345215-1.4173584-1.4172974
		s0.6345825-1.4172974,1.4173584-1.4172974S111.729187,61.581543,111.729187,62.3643188z M108.6450195,62.3643188
		c0,0.7827759-0.6345825,1.4172974-1.4172974,1.4172974c-0.7827759,0-1.4173584-0.6345215-1.4173584-1.4172974
		s0.6345825-1.4172974,1.4173584-1.4172974C108.010437,60.9470215,108.6450195,61.581543,108.6450195,62.3643188z
		 M105.5608521,62.3643188c0,0.7827759-0.6345825,1.4172974-1.4172974,1.4172974
		c-0.7827759,0-1.4173584-0.6345215-1.4173584-1.4172974s0.6345825-1.4172974,1.4173584-1.4172974
		C104.9262695,60.9470215,105.5608521,61.581543,105.5608521,62.3643188z M31.3391113,63.7805786
		c0,2.4279175-1.9668579,4.3947754-4.3927002,4.3947754c-2.4259033,0-4.3947144-1.9668579-4.3947144-4.3947754
		c0-2.4258423,1.968811-4.3926392,4.3947144-4.3926392C29.3722534,59.3879395,31.3391113,61.3547363,31.3391113,63.7805786z
		 M31.3391113,8.5039063c0,2.4264526-1.9668579,4.3936768-4.3947754,4.3936768
		c-2.4258423,0-4.3926392-1.9672241-4.3926392-4.3936768s1.9667969-4.3936768,4.3926392-4.3936768
		C29.3722534,4.1102295,31.3391113,6.0774536,31.3391113,8.5039063z"/>
	<g>
		<path class="st1" d="M0,21.948637l0-0.4271221c0.2769843-0.2769833,0.4322783-0.4322777,0.7092626-0.7092609h16.2986107v1.8456459
			H0.7092626C0.4322783,22.3809166,0.2769843,22.2256222,0,21.948637z"/>
	</g>
	<g>
		<path class="st1" d="M0,29.1486378l0-0.4271221c0.2769843-0.2769833,0.4322783-0.4322777,0.7092626-0.7092628h16.2986107
			v1.8456478H0.7092626C0.4322783,29.5809155,0.2769843,29.4256229,0,29.1486378z"/>
	</g>
	<g>
		<path class="st1" d="M0,36.3486366l0-0.4271202c0.2769843-0.2769852,0.4322783-0.4322777,0.7092626-0.7092628h16.2986107
			v1.8456459H0.7092626C0.4322783,36.7809143,0.2769843,36.6256218,0,36.3486366z"/>
	</g>
	<g>
		<path class="st1" d="M0,43.5486374l0-0.4271202c0.2769843-0.2769852,0.4322783-0.4322815,0.7092626-0.7092628h16.2986107
			v1.8456459H0.7092626C0.4322783,43.9809151,0.2769843,43.8256226,0,43.5486374z"/>
	</g>
	<g>
		<path class="st1" d="M0,50.7769852l0-0.427124c0.2769843-0.2769814,0.4322783-0.4322777,0.7092626-0.7092628h16.2986107v1.8456497
			H0.7092626C0.4322783,51.2092628,0.2769843,51.0539703,0,50.7769852z"/>
	</g>
	<path class="st2" d="M32.9052124,63.795166c0-3.300293-2.6751709-5.9754028-5.9754639-5.9754028
		c-3.3002319,0-5.9754028,2.6751099-5.9754028,5.9754028s2.6751709,5.9754639,5.9754028,5.9754639
		C30.2300415,69.7706299,32.9052124,67.095459,32.9052124,63.795166z M22.5360718,63.7962036
		c0-2.4279175,1.9667969-4.3947144,4.3927002-4.3947144c2.4279175,0,4.3947144,1.9667969,4.3947144,4.3947144
		c0,2.4258423-1.9667969,4.3927002-4.3947144,4.3927002C24.5028687,68.1889038,22.5360718,66.2220459,22.5360718,63.7962036z"/>
	<path class="st2" d="M111.8709106,62.3643112c0-0.861084-0.6979752-1.5590477-1.5590591-1.5590477
		c-0.8610687,0-1.5590439,0.6979637-1.5590439,1.5590477c0,0.8610802,0.6979752,1.559063,1.5590439,1.559063
		C111.1729355,63.9233742,111.8709106,63.2253914,111.8709106,62.3643112z M108.8945389,62.3646431
		c0-0.7831993,0.6344452-1.4176483,1.4169922-1.4176483c0.7832031,0,1.4176483,0.634449,1.4176483,1.4176483
		c0,0.7825279-0.6344452,1.4169998-1.4176483,1.4169998C109.5289841,63.7816429,108.8945389,63.147171,108.8945389,62.3646431z"/>
	<path class="st2" d="M108.7867432,62.3643112c0-0.861084-0.6979752-1.5590477-1.5590591-1.5590477
		c-0.8610687,0-1.5590439,0.6979637-1.5590439,1.5590477c0,0.8610802,0.6979752,1.559063,1.5590439,1.559063
		C108.088768,63.9233742,108.7867432,63.2253914,108.7867432,62.3643112z M105.8103714,62.3646431
		c0-0.7831993,0.6344452-1.4176483,1.4169922-1.4176483c0.7832031,0,1.4176483,0.634449,1.4176483,1.4176483
		c0,0.7825279-0.6344452,1.4169998-1.4176483,1.4169998C106.4448166,63.7816429,105.8103714,63.147171,105.8103714,62.3646431z"/>
	<path class="st2" d="M105.7025757,65.4529037c0-0.861084-0.6979752-1.5590477-1.5590591-1.5590477
		c-0.8610687,0-1.5590439,0.6979637-1.5590439,1.5590477s0.6979752,1.5590591,1.5590439,1.5590591
		C105.0046005,67.0119629,105.7025757,66.3139877,105.7025757,65.4529037z M102.7262039,65.4532394
		c0-0.7832031,0.6344452-1.4176483,1.4169922-1.4176483c0.7832031,0,1.4176483,0.6344452,1.4176483,1.4176483
		c0,0.7825241-0.6344452,1.4169922-1.4176483,1.4169922C103.3606491,66.8702316,102.7262039,66.2357635,102.7262039,65.4532394z"/>
	<path class="st2" d="M105.7025757,62.3643112c0-0.861084-0.6979752-1.5590477-1.5590591-1.5590477
		c-0.8610687,0-1.5590439,0.6979637-1.5590439,1.5590477c0,0.8610802,0.6979752,1.559063,1.5590439,1.559063
		C105.0046005,63.9233742,105.7025757,63.2253914,105.7025757,62.3643112z M102.7262039,62.3646431
		c0-0.7831993,0.6344452-1.4176483,1.4169922-1.4176483c0.7832031,0,1.4176483,0.634449,1.4176483,1.4176483
		c0,0.7825279-0.6344452,1.4169998-1.4176483,1.4169998C103.3606491,63.7816429,102.7262039,63.147171,102.7262039,62.3646431z"/>
	<path class="st2" d="M108.7867432,65.4529037c0-0.861084-0.6979752-1.5590477-1.5590591-1.5590477
		c-0.8610687,0-1.5590439,0.6979637-1.5590439,1.5590477s0.6979752,1.5590591,1.5590439,1.5590591
		C108.088768,67.0119629,108.7867432,66.3139877,108.7867432,65.4529037z M105.8103714,65.4532394
		c0-0.7832031,0.6344452-1.4176483,1.4169922-1.4176483c0.7832031,0,1.4176483,0.6344452,1.4176483,1.4176483
		c0,0.7825241-0.6344452,1.4169922-1.4176483,1.4169922C106.4448166,66.8702316,105.8103714,66.2357635,105.8103714,65.4532394z"/>
	<path class="st2" d="M111.8709106,65.4529037c0-0.861084-0.6979752-1.5590477-1.5590591-1.5590477
		c-0.8610687,0-1.5590439,0.6979637-1.5590439,1.5590477s0.6979752,1.5590591,1.5590439,1.5590591
		C111.1729355,67.0119629,111.8709106,66.3139877,111.8709106,65.4529037z M108.8945389,65.4532394
		c0-0.7832031,0.6344452-1.4176483,1.4169922-1.4176483c0.7832031,0,1.4176483,0.6344452,1.4176483,1.4176483
		c0,0.7825241-0.6344452,1.4169922-1.4176483,1.4169922C109.5289841,66.8702316,108.8945389,66.2357635,108.8945389,65.4532394z"/>
	<path class="st2" d="M32.9052124,8.5185022c0-3.2877808-2.6751709-5.9527588-5.9754639-5.9527588
		c-3.3002319,0-5.9754028,2.664978-5.9754028,5.9527588c0,3.2877197,2.6751709,5.9527588,5.9754028,5.9527588
		C30.2300415,14.471261,32.9052124,11.806222,32.9052124,8.5185022z M22.5360718,8.5195398
		c0-2.4279175,1.9667969-4.3947144,4.3927002-4.3947144c2.4279175,0,4.3947144,1.9667969,4.3947144,4.3947144
		c0,2.4258423-1.9667969,4.3926392-4.3947144,4.3926392C24.5028687,12.912179,22.5360718,10.9453821,22.5360718,8.5195398z"/>
</g>
<g id="Режим_изоляции">
	<g>
		<path class="st3" d="M25.8886719,47.5859375v0.5136719h-0.9589844V50.90625h0.9614258v0.515625l-1.3833008,0.0019531v-0.3203125
			c-0.1894531-0.1679688-0.4443359-0.3007813-0.7636719-0.4003906c-0.3198242-0.0996094-0.6699219-0.1621094-1.0517578-0.1875
			l-1.6728516-0.0859375v-2.3378906h3.4882813v-0.5117188L25.8886719,47.5859375z M24.5078125,50.515625v-1.90625h-3.0664063
			v1.3242188l1.1503906,0.0566406c0.449707,0.0234375,0.8330078,0.0820313,1.1503906,0.1777344
			C24.059082,50.2636719,24.3144531,50.3798828,24.5078125,50.515625z"/>
		<path class="st3" d="M24.9296875,45.2519531c-0.0571289,0.0292969-0.1591797,0.0527344-0.3061523,0.0703125
			c0.2397461,0.2304688,0.3598633,0.5068359,0.3598633,0.8271484c0,0.2861328-0.0810547,0.5214844-0.2431641,0.7050781
			s-0.3671875,0.2744141-0.6162109,0.2744141c-0.3027344,0-0.5375977-0.1142578-0.7050781-0.34375
			c-0.1674805-0.2304688-0.2509766-0.5546875-0.2509766-0.9707031v-0.484375h-0.2285156
			c-0.1733398,0-0.3115234,0.0527344-0.4145508,0.15625s-0.1547852,0.2568359-0.1547852,0.4589844
			c0,0.1777344,0.0449219,0.3261719,0.1347656,0.4453125c0.0893555,0.1210938,0.1977539,0.1796875,0.324707,0.1796875v0.5
			c-0.1450195,0-0.2851563-0.0507813-0.4204102-0.1542969s-0.2421875-0.2421875-0.3208008-0.4189453
			s-0.1181641-0.3701172-0.1181641-0.5810547c0-0.3349609,0.0834961-0.5976563,0.2509766-0.7871094
			s0.3979492-0.2880859,0.6918945-0.2949219H24.25c0.2670898,0,0.4790039-0.0351563,0.6367188-0.1025391h0.0429688V45.2519531z
			 M24.5507813,46.0761719c0-0.1542969-0.0400391-0.3027344-0.1206055-0.4423828s-0.1850586-0.2412109-0.3139648-0.3037109
			h-0.5966797v0.3896484c0,0.6083984,0.1782227,0.9130859,0.534668,0.9130859c0.1557617,0,0.2773438-0.0517578,0.3652344-0.15625
			C24.5073242,46.3730469,24.5507813,46.2402344,24.5507813,46.0761719z"/>
		<path class="st3" d="M22.4267578,41.9384766v0.9746094h2.5029297v0.4970703h-2.5029297v0.9560547h-0.402832v-2.4277344H22.4267578
			z"/>
		<path class="st3" d="M24.9296875,39.2607422v0.5h-1.0527344c0.0571289,0.2177734,0.0859375,0.4423828,0.0859375,0.6708984
			c0,0.3632813-0.0932617,0.640625-0.2792969,0.8320313c-0.1860352,0.1894531-0.4511719,0.2871094-0.7949219,0.2910156h-0.8671875
			v-0.4970703h0.8833008c0.4331055-0.0087891,0.6499023-0.2177734,0.6499023-0.6259766
			c0-0.2285156-0.0288086-0.453125-0.0859375-0.6708984h-1.4448242v-0.5H24.9296875z"/>
		<path class="st3" d="M22.0239258,36.5859375v-0.4970703h2.9057617v0.4970703h-2.1191406l2.1191406,1.3398438v0.4970703h-2.9057617
			v-0.4970703h2.121582L22.0239258,36.5859375z"/>
		<path class="st3" d="M23.6914063,34.3862305v0.362793h1.2382813v0.4995117h-2.9057617v-0.4995117h1.2299805v-0.324707
			l-1.2299805-0.9775391v-0.6015625l1.3964844,1.1494141l1.5092773-1.2460938v0.6308594L23.6914063,34.3862305z"/>
		<path class="st3" d="M24.9296875,30.8818359h-3.9101563v-1.1035156c0-0.340332,0.0751953-0.6411133,0.2255859-0.9023438
			s0.3642578-0.4633789,0.6416016-0.6054688c0.277832-0.1425781,0.5966797-0.2143555,0.9560547-0.2163086h0.25
			c0.3686523,0,0.6918945,0.0712891,0.9697266,0.2133789c0.2773438,0.1425781,0.4902344,0.3457031,0.6386719,0.6098633
			c0.1489258,0.2641602,0.2250977,0.5712891,0.2285156,0.9223633V30.8818359z M21.4414063,30.3662109h3.0664063v-0.5419922
			c0-0.3974609-0.1235352-0.7070313-0.3706055-0.9282227c-0.2475586-0.2211914-0.5996094-0.331543-1.0566406-0.331543h-0.2285156
			c-0.4443359,0-0.7895508,0.1044922-1.0361328,0.3129883c-0.2460938,0.2084961-0.3710938,0.5043945-0.3745117,0.887207V30.3662109z
			"/>
		<path class="st3" d="M24.9296875,24.2705078v0.5185547h-1.8076172v1.9707031h1.8076172v0.515625h-3.9101563v-0.515625h1.6811523
			v-1.9707031h-1.6811523v-0.5185547H24.9296875z"/>
		<path class="st3" d="M21.4414063,20.7314453v1.2568359h3.4882813v0.5126953h-3.4882813v1.2539063h-0.421875v-3.0234375H21.4414063
			z"/>
	</g>
	<g>
		<g id="XMLID_6_">
			<g>
				<rect x="38.2086487" y="34.5547638" class="st4" width="8.5589418" height="3.662437"/>
			</g>
			<g>
			</g>
		</g>
		<g id="XMLID_18_">
			<g>
				<rect x="41.8124161" y="38.3208199" class="st2" width="1.6072793" height="2.9478152"/>
			</g>
			<g>
			</g>
		</g>
		<g id="XMLID_16_">
			<g>
				<rect x="39.0050812" y="31.0406094" class="st2" width="1.6811564" height="3.5123663"/>
			</g>
			<g>
			</g>
		</g>
		<g id="XMLID_17_">
			<g>
				<rect x="44.493618" y="31.0406094" class="st2" width="1.6811564" height="3.5123663"/>
			</g>
			<g>
			</g>
		</g>
		<g>
			<path class="st5" d="M44.4296875,36.1616211c0-0.1845703,0.0610352-0.3359375,0.184082-0.4521484
				c0.1225586-0.1171875,0.2729492-0.1757813,0.4511719-0.1757813c0.090332,0,0.1723633,0.0136719,0.246582,0.0419922
				c0.0737305,0.0273438,0.1391602,0.0683594,0.1958008,0.1230469c0.0708008,0.0673828,0.125,0.1572266,0.1630859,0.2685547
				s0.0571289,0.2460938,0.0571289,0.4033203c0,0.1611328-0.0170898,0.3037109-0.0522461,0.4287109
				c-0.034668,0.1240234-0.090332,0.2353516-0.1669922,0.3320313c-0.0722656,0.0917969-0.1650391,0.1640625-0.2792969,0.2158203
				s-0.2470703,0.0771484-0.3994141,0.0771484c-0.0483398,0-0.0888672-0.0019531-0.121582-0.0058594
				c-0.0332031-0.0039063-0.0664063-0.0117188-0.1000977-0.0224609v-0.2324219h0.0126953
				c0.0229492,0.0117188,0.0576172,0.0234375,0.1040039,0.0341797s0.09375,0.0166016,0.1420898,0.0166016
				c0.1767578,0,0.3173828-0.0546875,0.4223633-0.1640625c0.1054688-0.109375,0.1665039-0.2578125,0.1835938-0.4443359
				c-0.0688477,0.0419922-0.1367188,0.0732422-0.2036133,0.0947266s-0.1445313,0.0322266-0.2324219,0.0322266
				c-0.078125,0-0.1464844-0.0068359-0.2060547-0.0214844c-0.0595703-0.0136719-0.1206055-0.0429688-0.1831055-0.0859375
				c-0.0722656-0.0498047-0.1264648-0.1123047-0.1630859-0.1875C44.4477539,36.3618164,44.4296875,36.2700195,44.4296875,36.1616211
				z M44.6796875,36.1518555c0,0.0761719,0.0112305,0.1386719,0.0336914,0.1884766
				c0.0224609,0.0488281,0.0595703,0.0927734,0.1113281,0.1289063c0.0380859,0.0263672,0.0795898,0.0429688,0.1259766,0.0517578
				c0.0458984,0.0078125,0.09375,0.0117188,0.144043,0.0117188c0.0698242,0,0.1347656-0.0078125,0.1943359-0.0244141
				c0.0600586-0.015625,0.121582-0.0410156,0.1850586-0.0751953c0.0014648-0.0185547,0.0029297-0.0351563,0.003418-0.0517578
				c0.0009766-0.0175781,0.0014648-0.0380859,0.0014648-0.0634766c0-0.1289063-0.0131836-0.2304688-0.0400391-0.3046875
				s-0.0634766-0.1328125-0.1103516-0.1767578c-0.0375977-0.0351563-0.0786133-0.0615234-0.1225586-0.078125
				s-0.0917969-0.0253906-0.1435547-0.0253906c-0.1191406,0-0.2124023,0.0361328-0.2807617,0.1083984
				S44.6796875,36.0170898,44.6796875,36.1518555z"/>
			<path class="st5" d="M42.8261719,36.1616211c0-0.1845703,0.0610352-0.3359375,0.184082-0.4521484
				c0.1225586-0.1171875,0.2729492-0.1757813,0.4511719-0.1757813c0.090332,0,0.1723633,0.0136719,0.246582,0.0419922
				c0.0737305,0.0273438,0.1391602,0.0683594,0.1958008,0.1230469c0.0708008,0.0673828,0.125,0.1572266,0.1630859,0.2685547
				s0.0571289,0.2460938,0.0571289,0.4033203c0,0.1611328-0.0170898,0.3037109-0.0522461,0.4287109
				c-0.034668,0.1240234-0.090332,0.2353516-0.1669922,0.3320313c-0.0722656,0.0917969-0.1650391,0.1640625-0.2792969,0.2158203
				s-0.2470703,0.0771484-0.3994141,0.0771484c-0.0483398,0-0.0888672-0.0019531-0.121582-0.0058594
				c-0.0332031-0.0039063-0.0664063-0.0117188-0.1000977-0.0224609v-0.2324219h0.0126953
				c0.0229492,0.0117188,0.0576172,0.0234375,0.1040039,0.0341797s0.09375,0.0166016,0.1420898,0.0166016
				c0.1767578,0,0.3173828-0.0546875,0.4223633-0.1640625c0.1054688-0.109375,0.1665039-0.2578125,0.1835938-0.4443359
				c-0.0688477,0.0419922-0.1367188,0.0732422-0.2036133,0.0947266s-0.1445313,0.0322266-0.2324219,0.0322266
				c-0.078125,0-0.1464844-0.0068359-0.2060547-0.0214844c-0.0595703-0.0136719-0.1206055-0.0429688-0.1831055-0.0859375
				c-0.0722656-0.0498047-0.1264648-0.1123047-0.1630859-0.1875C42.8442383,36.3618164,42.8261719,36.2700195,42.8261719,36.1616211
				z M43.0761719,36.1518555c0,0.0761719,0.0112305,0.1386719,0.0336914,0.1884766
				c0.0224609,0.0488281,0.0595703,0.0927734,0.1113281,0.1289063c0.0380859,0.0263672,0.0795898,0.0429688,0.1259766,0.0517578
				c0.0458984,0.0078125,0.09375,0.0117188,0.144043,0.0117188c0.0698242,0,0.1347656-0.0078125,0.1943359-0.0244141
				c0.0600586-0.015625,0.121582-0.0410156,0.1850586-0.0751953c0.0014648-0.0185547,0.0029297-0.0351563,0.003418-0.0517578
				c0.0009766-0.0175781,0.0014648-0.0380859,0.0014648-0.0634766c0-0.1289063-0.0131836-0.2304688-0.0400391-0.3046875
				s-0.0634766-0.1328125-0.1103516-0.1767578c-0.0375977-0.0351563-0.0786133-0.0615234-0.1225586-0.078125
				s-0.0917969-0.0253906-0.1435547-0.0253906c-0.1191406,0-0.2124023,0.0361328-0.2807617,0.1083984
				S43.0761719,36.0170898,43.0761719,36.1518555z"/>
			<path class="st5" d="M41.2495117,35.5717773h1.2416992v0.2548828c-0.0864258,0.0732422-0.1728516,0.1464844-0.2592773,0.2197266
				c-0.0869141,0.0742188-0.1674805,0.1464844-0.2421875,0.21875c-0.1577148,0.1513672-0.265625,0.2724609-0.3237305,0.3613281
				c-0.0585938,0.0888672-0.0874023,0.1855469-0.0874023,0.2890625c0,0.09375,0.03125,0.1679688,0.0942383,0.2216797
				c0.0625,0.0527344,0.1503906,0.0800781,0.2626953,0.0800781c0.074707,0,0.1557617-0.0136719,0.2426758-0.0390625
				c0.0869141-0.0263672,0.171875-0.0664063,0.2548828-0.1201172h0.0126953v0.2568359
				c-0.0585938,0.0283203-0.1362305,0.0537109-0.2338867,0.078125c-0.097168,0.0234375-0.1914063,0.0351563-0.2822266,0.0351563
				c-0.1884766,0-0.3354492-0.0449219-0.4423828-0.1347656s-0.1601563-0.2119141-0.1601563-0.3662109
				c0-0.0693359,0.0087891-0.1337891,0.0263672-0.1933594s0.0439453-0.1162109,0.078125-0.1708984
				c0.0322266-0.0498047,0.0698242-0.0996094,0.112793-0.1484375s0.0957031-0.1035156,0.1572266-0.1621094
				c0.0878906-0.0859375,0.1787109-0.1689453,0.2719727-0.2490234c0.09375-0.0800781,0.1811523-0.1542969,0.2626953-0.2226563
				h-0.9868164V35.5717773z"/>
			<path class="st5" d="M39.3652344,35.5717773h0.3164063l0.7255859,0.8095703l0.1821289-0.1923828v-0.6171875h0.2441406v1.8183594
				h-0.2441406V36.440918l-0.8901367,0.9492188h-0.2958984l0.8193359-0.8544922L39.3652344,35.5717773z"/>
		</g>
	</g>
	<g id="ГРУППА_1_">
		<g>
			<polygon class="st6" points="44.364769,44.6236191 47.8024292,44.6236191 47.8024292,48.879097 44.364769,48.879097 
				44.364769,48.5693169 45.069294,48.5693169 45.069294,44.9634895 44.364769,44.9634895 			"/>
			<polygon class="st6" points="37.2363129,44.6643333 40.6739731,44.6643333 40.6739731,44.9634895 39.9074936,44.9634895 
				39.9074936,48.5693169 40.6739731,48.5693169 40.6739731,48.9198112 37.2363129,48.9198112 			"/>
			<rect x="44.364769" y="44.9634895" class="st7" width="0.7045258" height="3.6058266"/>
			<rect x="40.6739731" y="44.9634895" class="st7" width="3.6907945" height="3.6058266"/>
			<rect x="39.9074936" y="44.9634895" class="st7" width="0.7664815" height="3.6058266"/>
		</g>
		<g>
		</g>
	</g>
	<g id="ГРУППА_3_">
		<g>
			<polygon class="st6" points="44.364769,50.8400726 47.8024292,50.8400726 47.8024292,55.0955467 44.364769,55.0955467 
				44.364769,54.7857704 45.069294,54.7857704 45.069294,51.1799431 44.364769,51.1799431 			"/>
			<polygon class="st6" points="37.2363129,50.8807831 40.6739731,50.8807831 40.6739731,51.1799431 39.9074936,51.1799431 
				39.9074936,54.7857704 40.6739731,54.7857704 40.6739731,55.136261 37.2363129,55.136261 			"/>
			<rect x="44.364769" y="51.1799431" class="st7" width="0.7045258" height="3.6058266"/>
			<rect x="40.6739731" y="51.1799431" class="st7" width="3.6907945" height="3.6058266"/>
			<rect x="39.9074936" y="51.1799431" class="st7" width="0.7664815" height="3.6058266"/>
		</g>
		<g>
		</g>
	</g>
	<g>
		<g id="XMLID_3_">
			<g>
				<rect x="37.237278" y="57.0571442" class="st6" width="3.4358907" height="4.255477"/>
			</g>
			<g>
			</g>
		</g>
		<g id="XMLID_2_">
			<g>
				<rect x="44.3657341" y="57.0164299" class="st6" width="3.4376609" height="4.255477"/>
			</g>
			<g>
			</g>
		</g>
		<g id="XMLID_1_">
			<g>
				<rect x="39.9687386" y="57.3669243" class="st4" width="5.1633434" height="3.6058266"/>
			</g>
			<g>
			</g>
		</g>
		<g>
			<path class="st5" d="M41.9145508,59.7138672h-0.6967773v-0.1318359h0.2680664v-0.8623047h-0.2680664v-0.1171875
				c0.0361328,0,0.0751953-0.0039063,0.1166992-0.0097656s0.0727539-0.0146484,0.0942383-0.0263672
				c0.0263672-0.0136719,0.0473633-0.0322266,0.0625-0.0546875c0.015625-0.0224609,0.0244141-0.0517578,0.0263672-0.0898438
				h0.1342773v1.1601563h0.2626953V59.7138672z"/>
			<path class="st5" d="M42.9345703,59.0693359c0,0.2314453-0.0361328,0.4013672-0.1083984,0.5087891
				c-0.0722656,0.1083984-0.1845703,0.1621094-0.3369141,0.1621094c-0.1542969,0-0.2670898-0.0546875-0.3383789-0.1640625
				s-0.1064453-0.2773438-0.1064453-0.5048828c0-0.2285156,0.0356445-0.3974609,0.1079102-0.5068359
				c0.0717773-0.109375,0.184082-0.1640625,0.3369141-0.1640625c0.1542969,0,0.2670898,0.0556641,0.3383789,0.1669922
				C42.8989258,58.6777344,42.9345703,58.8457031,42.9345703,59.0693359z M42.7070313,59.4619141
				c0.0205078-0.046875,0.0341797-0.1015625,0.0410156-0.1640625c0.0073242-0.0634766,0.0107422-0.1396484,0.0107422-0.2285156
				c0-0.0869141-0.003418-0.1630859-0.0107422-0.2275391c-0.0068359-0.0644531-0.0209961-0.1191406-0.0419922-0.1640625
				c-0.0200195-0.0449219-0.0473633-0.078125-0.0825195-0.1005859c-0.034668-0.0224609-0.0795898-0.0341797-0.1342773-0.0341797
				c-0.0541992,0-0.0991211,0.0117188-0.1342773,0.0341797c-0.0356445,0.0224609-0.0634766,0.0566406-0.0844727,0.1015625
				c-0.0195313,0.0429688-0.0327148,0.0986328-0.0400391,0.1669922s-0.0107422,0.1435547-0.0107422,0.2255859
				c0,0.0898438,0.0029297,0.1650391,0.0092773,0.2255859s0.0200195,0.1152344,0.0410156,0.1630859
				c0.0185547,0.0449219,0.0458984,0.0791016,0.0805664,0.1025391s0.0810547,0.0351563,0.1386719,0.0351563
				c0.0541992,0,0.0991211-0.0107422,0.1347656-0.0332031S42.6875,59.5078125,42.7070313,59.4619141z"/>
			<path class="st5" d="M43.8847656,59.7138672h-0.8710938v-0.1806641c0.0605469-0.0517578,0.1210938-0.1035156,0.1821289-0.15625
				c0.0605469-0.0517578,0.1171875-0.1025391,0.1694336-0.1542969c0.1108398-0.1074219,0.1865234-0.1923828,0.2275391-0.2558594
				c0.0410156-0.0625,0.0615234-0.1308594,0.0615234-0.2041016c0-0.0664063-0.0219727-0.1191406-0.0664063-0.15625
				c-0.0439453-0.0380859-0.1054688-0.0566406-0.1845703-0.0566406c-0.0522461,0-0.1088867,0.0087891-0.1699219,0.0273438
				s-0.1210938,0.046875-0.1791992,0.0849609h-0.0087891v-0.1816406c0.0410156-0.0205078,0.0957031-0.0390625,0.1640625-0.0556641
				s0.1342773-0.0253906,0.1982422-0.0253906c0.1318359,0,0.2353516,0.0322266,0.3105469,0.0957031
				c0.074707,0.0634766,0.1123047,0.1503906,0.1123047,0.2587891c0,0.0488281-0.0063477,0.0947266-0.0185547,0.1376953
				c-0.0126953,0.0419922-0.0307617,0.0820313-0.0551758,0.1201172c-0.0224609,0.0361328-0.0488281,0.0712891-0.0791016,0.1054688
				s-0.0668945,0.0732422-0.1098633,0.1152344c-0.0620117,0.0605469-0.1254883,0.1191406-0.1914063,0.1757813
				c-0.0654297,0.0566406-0.1269531,0.109375-0.184082,0.1572266h0.6923828V59.7138672z"/>
		</g>
	</g>
	<g id="ГРУППА_2_">
		<g>
			<polygon class="st6" points="40.6746025,27.6871033 37.2369423,27.6871033 37.2369423,23.4316254 40.6746025,23.4316254 
				40.6746025,23.7414036 39.9700775,23.7414036 39.9700775,27.3472309 40.6746025,27.3472309 			"/>
			<polygon class="st6" points="47.8030586,27.646389 44.3653984,27.646389 44.3653984,27.3472309 45.1318779,27.3472309 
				45.1318779,23.7414036 44.3653984,23.7414036 44.3653984,23.3909111 47.8030586,23.3909111 			"/>
			<rect x="39.9700775" y="23.7414036" class="st7" width="0.7045258" height="3.6058266"/>
			<rect x="40.6746025" y="23.7414036" class="st7" width="3.6907945" height="3.6058266"/>
			<rect x="44.3653984" y="23.7414036" class="st7" width="0.7664815" height="3.6058266"/>
		</g>
		<g>
		</g>
	</g>
	<g>
		<g id="XMLID_35_">
			<g>
				<rect x="37.237278" y="17.214407" class="st6" width="3.4358907" height="4.255477"/>
			</g>
			<g>
			</g>
		</g>
		<g id="XMLID_34_">
			<g>
				<rect x="44.3657341" y="17.1736927" class="st6" width="3.4376609" height="4.255477"/>
			</g>
			<g>
			</g>
		</g>
		<g id="XMLID_33_">
			<g>
				<rect x="39.9687386" y="17.5241852" class="st4" width="5.1633434" height="3.6058266"/>
			</g>
			<g>
			</g>
		</g>
		<g>
			<path class="st5" d="M41.9760742,19.8720703h-0.6967773v-0.1313477h0.2680664v-0.862793h-0.2680664v-0.1171875
				c0.0361328,0,0.0751953-0.003418,0.1166992-0.0092773s0.0727539-0.0146484,0.0942383-0.0263672
				c0.0263672-0.0141602,0.0473633-0.0327148,0.0625-0.0546875c0.015625-0.0224609,0.0244141-0.0522461,0.0263672-0.0898438
				h0.1342773v1.1601563h0.2626953V19.8720703z"/>
			<path class="st5" d="M42.9960938,19.2280273c0,0.230957-0.0361328,0.4008789-0.1083984,0.5087891
				s-0.1845703,0.1621094-0.3369141,0.1621094c-0.1542969,0-0.2670898-0.0546875-0.3383789-0.1640625
				c-0.0712891-0.1098633-0.1064453-0.277832-0.1064453-0.5048828c0-0.2290039,0.0356445-0.3979492,0.1079102-0.5068359
				c0.0717773-0.109375,0.184082-0.1640625,0.3369141-0.1640625c0.1542969,0,0.2670898,0.0556641,0.3383789,0.1665039
				S42.9960938,19.0039063,42.9960938,19.2280273z M42.7685547,19.6206055
				c0.0205078-0.046875,0.0341797-0.1015625,0.0410156-0.1645508c0.0073242-0.0634766,0.0107422-0.1391602,0.0107422-0.2280273
				c0-0.0874023-0.003418-0.1635742-0.0107422-0.2280273c-0.0068359-0.0644531-0.0209961-0.1191406-0.0419922-0.1640625
				c-0.0200195-0.0444336-0.0473633-0.078125-0.0825195-0.1005859c-0.034668-0.0224609-0.0795898-0.0336914-0.1342773-0.0336914
				c-0.0541992,0-0.0991211,0.0112305-0.1342773,0.0336914c-0.0356445,0.0224609-0.0634766,0.0566406-0.0844727,0.1020508
				c-0.0195313,0.0424805-0.0327148,0.0981445-0.0400391,0.1669922c-0.0073242,0.0683594-0.0107422,0.1435547-0.0107422,0.2255859
				c0,0.0898438,0.0029297,0.1650391,0.0092773,0.2255859s0.0200195,0.1147461,0.0410156,0.1625977
				c0.0185547,0.0449219,0.0458984,0.0791016,0.0805664,0.1025391c0.034668,0.0239258,0.0810547,0.0356445,0.1386719,0.0356445
				c0.0541992,0,0.0991211-0.0112305,0.1347656-0.0336914S42.7490234,19.6660156,42.7685547,19.6206055z"/>
			<path class="st5" d="M43.9462891,19.8720703h-0.8710938v-0.1806641c0.0605469-0.0517578,0.1210938-0.1035156,0.1821289-0.1557617
				c0.0605469-0.0517578,0.1171875-0.1030273,0.1694336-0.1542969c0.1108398-0.1074219,0.1865234-0.1923828,0.2275391-0.2558594
				c0.0410156-0.0629883,0.0615234-0.1308594,0.0615234-0.2041016c0-0.0668945-0.0219727-0.1191406-0.0664063-0.1567383
				c-0.0439453-0.0380859-0.1054688-0.0566406-0.1845703-0.0566406c-0.0522461,0-0.1088867,0.0087891-0.1699219,0.0273438
				s-0.1210938,0.046875-0.1791992,0.0849609h-0.0087891v-0.1816406c0.0410156-0.0200195,0.0957031-0.0385742,0.1640625-0.0551758
				c0.0683594-0.0170898,0.1342773-0.0253906,0.1982422-0.0253906c0.1318359,0,0.2353516,0.0322266,0.3105469,0.0957031
				c0.074707,0.0634766,0.1123047,0.1499023,0.1123047,0.2587891c0,0.0488281-0.0063477,0.0947266-0.0185547,0.137207
				c-0.0126953,0.0419922-0.0307617,0.0825195-0.0551758,0.1206055c-0.0224609,0.0356445-0.0488281,0.0708008-0.0791016,0.1054688
				c-0.0302734,0.0341797-0.0668945,0.0727539-0.1098633,0.1147461c-0.0620117,0.0605469-0.1254883,0.1191406-0.1914063,0.1757813
				c-0.0654297,0.0566406-0.1269531,0.109375-0.184082,0.1577148h0.6923828V19.8720703z"/>
		</g>
	</g>
	<g>
		<g id="XMLID_28_">
			<g>
				<rect x="44.3661995" y="10.9575329" class="st6" width="3.4358907" height="4.255477"/>
			</g>
			<g>
			</g>
		</g>
		<g id="XMLID_27_">
			<g>
				<rect x="37.2359772" y="10.9982462" class="st6" width="3.4376609" height="4.255477"/>
			</g>
			<g>
			</g>
		</g>
		<g id="XMLID_26_">
			<g>
				<rect x="39.9072876" y="11.2974043" class="st4" width="5.1633434" height="3.6058266"/>
			</g>
			<g>
			</g>
		</g>
		<g>
			<path class="st5" d="M41.4404297,13.7958984h-0.6967773v-0.1313477h0.2680664v-0.862793h-0.2680664v-0.1171875
				c0.0361328,0,0.0751953-0.003418,0.1166992-0.0092773s0.0727539-0.0146484,0.0942383-0.0263672
				c0.0263672-0.0141602,0.0473633-0.0327148,0.0625-0.0546875c0.015625-0.0224609,0.0244141-0.0522461,0.0263672-0.0898438
				h0.1342773v1.1601563h0.2626953V13.7958984z"/>
			<path class="st5" d="M42.4604492,13.1518555c0,0.230957-0.0361328,0.4008789-0.1083984,0.5087891
				s-0.1845703,0.1621094-0.3369141,0.1621094c-0.1542969,0-0.2670898-0.0546875-0.3383789-0.1640625
				c-0.0712891-0.1098633-0.1064453-0.277832-0.1064453-0.5048828c0-0.2290039,0.0356445-0.3979492,0.1079102-0.5068359
				c0.0717773-0.109375,0.184082-0.1640625,0.3369141-0.1640625c0.1542969,0,0.2670898,0.0556641,0.3383789,0.1665039
				S42.4604492,12.9277344,42.4604492,13.1518555z M42.2329102,13.5444336
				c0.0205078-0.046875,0.0341797-0.1015625,0.0410156-0.1645508c0.0073242-0.0634766,0.0107422-0.1391602,0.0107422-0.2280273
				c0-0.0874023-0.003418-0.1635742-0.0107422-0.2280273c-0.0068359-0.0644531-0.0209961-0.1191406-0.0419922-0.1640625
				c-0.0200195-0.0444336-0.0473633-0.078125-0.0825195-0.1005859c-0.034668-0.0224609-0.0795898-0.0336914-0.1342773-0.0336914
				c-0.0541992,0-0.0991211,0.0112305-0.1342773,0.0336914c-0.0356445,0.0224609-0.0634766,0.0566406-0.0844727,0.1020508
				c-0.0195313,0.0424805-0.0327148,0.0981445-0.0400391,0.1669922c-0.0073242,0.0683594-0.0107422,0.1435547-0.0107422,0.2255859
				c0,0.0898438,0.0029297,0.1650391,0.0092773,0.2255859s0.0200195,0.1147461,0.0410156,0.1625977
				c0.0185547,0.0449219,0.0458984,0.0791016,0.0805664,0.1025391c0.034668,0.0239258,0.0810547,0.0356445,0.1386719,0.0356445
				c0.0541992,0,0.0991211-0.0112305,0.1347656-0.0336914S42.2133789,13.5898438,42.2329102,13.5444336z"/>
			<path class="st5" d="M43.4091797,13.1518555c0,0.230957-0.0361328,0.4008789-0.1083984,0.5087891
				s-0.1845703,0.1621094-0.3369141,0.1621094c-0.1542969,0-0.2670898-0.0546875-0.3383789-0.1640625
				c-0.0712891-0.1098633-0.1064453-0.277832-0.1064453-0.5048828c0-0.2290039,0.0356445-0.3979492,0.1079102-0.5068359
				c0.0717773-0.109375,0.184082-0.1640625,0.3369141-0.1640625c0.1542969,0,0.2670898,0.0556641,0.3383789,0.1665039
				S43.4091797,12.9277344,43.4091797,13.1518555z M43.1816406,13.5444336
				c0.0205078-0.046875,0.0341797-0.1015625,0.0410156-0.1645508c0.0073242-0.0634766,0.0107422-0.1391602,0.0107422-0.2280273
				c0-0.0874023-0.003418-0.1635742-0.0107422-0.2280273c-0.0068359-0.0644531-0.0209961-0.1191406-0.0419922-0.1640625
				c-0.0200195-0.0444336-0.0473633-0.078125-0.0825195-0.1005859c-0.034668-0.0224609-0.0795898-0.0336914-0.1342773-0.0336914
				c-0.0541992,0-0.0991211,0.0112305-0.1342773,0.0336914c-0.0356445,0.0224609-0.0634766,0.0566406-0.0844727,0.1020508
				c-0.0195313,0.0424805-0.0327148,0.0981445-0.0400391,0.1669922c-0.0073242,0.0683594-0.0107422,0.1435547-0.0107422,0.2255859
				c0,0.0898438,0.0029297,0.1650391,0.0092773,0.2255859s0.0200195,0.1147461,0.0410156,0.1625977
				c0.0185547,0.0449219,0.0458984,0.0791016,0.0805664,0.1025391c0.034668,0.0239258,0.0810547,0.0356445,0.1386719,0.0356445
				c0.0541992,0,0.0991211-0.0112305,0.1347656-0.0336914S43.1621094,13.5898438,43.1816406,13.5444336z"/>
			<path class="st5" d="M44.2456055,13.1762695c0.027832,0.0249023,0.0507813,0.0556641,0.0683594,0.0932617
				c0.0180664,0.0375977,0.0268555,0.0859375,0.0268555,0.1450195s-0.0107422,0.112793-0.0317383,0.1616211
				c-0.0214844,0.0493164-0.0512695,0.0917969-0.0898438,0.1279297c-0.043457,0.0405273-0.0942383,0.0703125-0.152832,0.0898438
				c-0.0585938,0.019043-0.1225586,0.0288086-0.1923828,0.0288086c-0.0712891,0-0.1416016-0.0087891-0.2109375-0.0253906
				c-0.0688477-0.0170898-0.1259766-0.0356445-0.1699219-0.0561523v-0.1801758h0.0126953
				c0.0488281,0.0322266,0.1064453,0.0585938,0.1728516,0.0800781s0.1303711,0.0322266,0.1918945,0.0322266
				c0.0366211,0,0.0751953-0.0063477,0.1157227-0.0185547c0.0410156-0.0117188,0.0742188-0.0297852,0.0996094-0.0532227
				c0.0263672-0.0253906,0.0463867-0.0532227,0.059082-0.0839844c0.0131836-0.0307617,0.0195313-0.0693359,0.0195313-0.1157227
				s-0.0073242-0.0844727-0.0219727-0.1147461s-0.0351563-0.0537109-0.0610352-0.0712891s-0.0571289-0.0297852-0.0942383-0.0366211
				c-0.0366211-0.0068359-0.0766602-0.0097656-0.1191406-0.0097656h-0.0776367v-0.1435547h0.0600586
				c0.0878906,0,0.1577148-0.0185547,0.2099609-0.0551758s0.078125-0.0898438,0.078125-0.1601563
				c0-0.03125-0.0068359-0.0581055-0.0200195-0.081543s-0.0317383-0.0424805-0.0551758-0.0576172
				c-0.0249023-0.0151367-0.0512695-0.0253906-0.0795898-0.03125c-0.0283203-0.0053711-0.0600586-0.0083008-0.0957031-0.0083008
				c-0.0551758,0-0.1132813,0.0097656-0.1748047,0.0292969s-0.1196289,0.0473633-0.1748047,0.0830078h-0.0083008v-0.1806641
				c0.0410156-0.0205078,0.0952148-0.0390625,0.1635742-0.0556641c0.0683594-0.0170898,0.1342773-0.0258789,0.1982422-0.0258789
				c0.0629883,0,0.1181641,0.0058594,0.1660156,0.0175781c0.0478516,0.0112305,0.0913086,0.0297852,0.1298828,0.0551758
				c0.0415039,0.027832,0.0727539,0.0610352,0.0942383,0.1000977c0.0209961,0.0395508,0.0317383,0.0849609,0.0317383,0.1376953
				c0,0.0712891-0.0249023,0.1337891-0.0756836,0.1870117c-0.050293,0.0532227-0.1098633,0.0869141-0.1782227,0.1005859v0.012207
				c0.0273438,0.0048828,0.059082,0.0141602,0.0952148,0.0288086C44.190918,13.1357422,44.2211914,13.1542969,44.2456055,13.1762695
				z"/>
		</g>
	</g>
	<g>
		<g id="XMLID_29_">
			<g>
				<rect x="110.8041992" y="17.1942692" class="st6" width="3.4358907" height="4.255477"/>
			</g>
			<g>
			</g>
		</g>
		<g id="XMLID_25_">
			<g>
				<rect x="103.6739731" y="17.2349815" class="st6" width="3.4376609" height="4.255477"/>
			</g>
			<g>
			</g>
		</g>
		<g id="XMLID_24_">
			<g>
				<rect x="106.3452835" y="17.5341396" class="st4" width="5.1633434" height="3.6058266"/>
			</g>
			<g>
			</g>
		</g>
		<g>
			<path class="st5" d="M107.8779297,20.0322266h-0.6962891v-0.1313477h0.2675781v-0.862793h-0.2675781v-0.1171875
				c0.0351563,0,0.0742188-0.003418,0.1162109-0.0092773s0.0732422-0.0146484,0.0947266-0.0263672
				c0.0253906-0.0141602,0.046875-0.0327148,0.0625-0.0546875c0.015625-0.0224609,0.0234375-0.0522461,0.0253906-0.0898438
				h0.1347656v1.1601563h0.2626953V20.0322266z"/>
			<path class="st5" d="M108.8984375,19.3881836c0,0.230957-0.0371094,0.4008789-0.109375,0.5087891
				s-0.1835938,0.1621094-0.3359375,0.1621094c-0.1542969,0-0.2675781-0.0546875-0.3388672-0.1640625
				c-0.0712891-0.1098633-0.1064453-0.277832-0.1064453-0.5048828c0-0.2290039,0.0351563-0.3979492,0.1074219-0.5068359
				c0.0722656-0.109375,0.1845703-0.1640625,0.3378906-0.1640625c0.1542969,0,0.2666016,0.0556641,0.3378906,0.1665039
				S108.8984375,19.1640625,108.8984375,19.3881836z M108.6699219,19.7807617
				c0.0214844-0.046875,0.0351563-0.1015625,0.0410156-0.1645508c0.0078125-0.0634766,0.0117188-0.1391602,0.0117188-0.2280273
				c0-0.0874023-0.0039063-0.1635742-0.0117188-0.2280273c-0.0058594-0.0644531-0.0205078-0.1191406-0.0410156-0.1640625
				c-0.0205078-0.0444336-0.0478516-0.078125-0.0830078-0.1005859c-0.0341797-0.0224609-0.0791016-0.0336914-0.1337891-0.0336914
				s-0.0996094,0.0112305-0.1347656,0.0336914s-0.0634766,0.0566406-0.0839844,0.1020508
				c-0.0195313,0.0424805-0.0332031,0.0981445-0.0410156,0.1669922c-0.0068359,0.0683594-0.0097656,0.1435547-0.0097656,0.2255859
				c0,0.0898438,0.0019531,0.1650391,0.0087891,0.2255859s0.0205078,0.1147461,0.0410156,0.1625977
				c0.0185547,0.0449219,0.0458984,0.0791016,0.0810547,0.1025391c0.0341797,0.0239258,0.0800781,0.0356445,0.1386719,0.0356445
				c0.0537109,0,0.0986328-0.0112305,0.1347656-0.0336914C108.6230469,19.8603516,108.6503906,19.8261719,108.6699219,19.7807617z"
				/>
			<path class="st5" d="M109.8466797,19.3881836c0,0.230957-0.0361328,0.4008789-0.1083984,0.5087891
				s-0.1845703,0.1621094-0.3369141,0.1621094c-0.1542969,0-0.2666016-0.0546875-0.3388672-0.1640625
				c-0.0703125-0.1098633-0.1054688-0.277832-0.1054688-0.5048828c0-0.2290039,0.0351563-0.3979492,0.1074219-0.5068359
				c0.0722656-0.109375,0.1835938-0.1640625,0.3369141-0.1640625c0.1542969,0,0.2666016,0.0556641,0.3388672,0.1665039
				C109.8105469,18.996582,109.8466797,19.1640625,109.8466797,19.3881836z M109.6191406,19.7807617
				c0.0205078-0.046875,0.0341797-0.1015625,0.0410156-0.1645508c0.0078125-0.0634766,0.0107422-0.1391602,0.0107422-0.2280273
				c0-0.0874023-0.0029297-0.1635742-0.0107422-0.2280273c-0.0068359-0.0644531-0.0214844-0.1191406-0.0419922-0.1640625
				c-0.0205078-0.0444336-0.0478516-0.078125-0.0830078-0.1005859c-0.0341797-0.0224609-0.0791016-0.0336914-0.1337891-0.0336914
				c-0.0537109,0-0.0986328,0.0112305-0.1337891,0.0336914c-0.0361328,0.0224609-0.0644531,0.0566406-0.0849609,0.1020508
				c-0.0195313,0.0424805-0.0322266,0.0981445-0.0400391,0.1669922c-0.0078125,0.0683594-0.0107422,0.1435547-0.0107422,0.2255859
				c0,0.0898438,0.0029297,0.1650391,0.0087891,0.2255859c0.0068359,0.0605469,0.0205078,0.1147461,0.0410156,0.1625977
				c0.0195313,0.0449219,0.046875,0.0791016,0.0810547,0.1025391c0.0341797,0.0239258,0.0810547,0.0356445,0.1386719,0.0356445
				c0.0537109,0,0.0986328-0.0112305,0.1347656-0.0336914S109.5996094,19.8261719,109.6191406,19.7807617z"/>
			<path class="st5" d="M110.796875,20.0322266h-0.8710938v-0.1806641c0.0605469-0.0517578,0.1210938-0.1035156,0.1816406-0.1557617
				c0.0605469-0.0517578,0.1171875-0.1030273,0.1699219-0.1542969c0.1103516-0.1074219,0.1855469-0.1923828,0.2265625-0.2558594
				c0.0410156-0.0629883,0.0625-0.1308594,0.0625-0.2041016c0-0.0668945-0.0224609-0.1191406-0.0664063-0.1567383
				c-0.0449219-0.0380859-0.1054688-0.0566406-0.1855469-0.0566406c-0.0517578,0-0.1083984,0.0087891-0.1699219,0.0273438
				c-0.0605469,0.0185547-0.1210938,0.046875-0.1787109,0.0849609h-0.0087891v-0.1816406
				c0.0410156-0.0200195,0.0957031-0.0385742,0.1640625-0.0551758c0.0683594-0.0170898,0.1347656-0.0253906,0.1982422-0.0253906
				c0.1318359,0,0.2353516,0.0322266,0.3105469,0.0957031s0.1123047,0.1499023,0.1123047,0.2587891
				c0,0.0488281-0.0058594,0.0947266-0.0185547,0.137207c-0.0126953,0.0419922-0.0302734,0.0825195-0.0556641,0.1206055
				c-0.0214844,0.0356445-0.0488281,0.0708008-0.078125,0.1054688c-0.03125,0.0341797-0.0673828,0.0727539-0.1103516,0.1147461
				c-0.0615234,0.0605469-0.1259766,0.1191406-0.1914063,0.1757813s-0.1269531,0.109375-0.1845703,0.1577148h0.6933594V20.0322266z"
				/>
		</g>
	</g>
	<g>
		<path class="st8" d="M90,48.3227844c1.2273636,0,2.2224731,1.0018463,2.2224731,2.2397385S91.2273636,52.8040619,90,52.8040619
			s-2.2224731-1.0036469-2.2224731-2.241539S88.7726364,48.3227844,90,48.3227844z"/>
		<ellipse class="st9" cx="90" cy="50.5634232" rx="1.5185714" ry="1.5316002"/>
		<path class="st8" d="M90,41.0944366c1.2273636,0,2.2224731,1.0018463,2.2224731,2.2397385S91.2273636,45.5757179,90,45.5757179
			s-2.2224731-1.0036507-2.2224731-2.2415428S88.7726364,41.0944366,90,41.0944366z"/>
		<ellipse class="st9" cx="90" cy="43.3350754" rx="1.5185714" ry="1.5316002"/>
		<path class="st8" d="M90,33.8944359c1.2273636,0,2.2224731,1.0018463,2.2224731,2.2397385S91.2273636,38.3757172,90,38.3757172
			s-2.2224731-1.0036507-2.2224731-2.2415428S88.7726364,33.8944359,90,33.8944359z"/>
		<ellipse class="st9" cx="90" cy="36.1350784" rx="1.5185714" ry="1.5316002"/>
		<path class="st8" d="M88.3710785,27.3070068c2.0229111-1.5395126,4.2713089,0.1709862,3.7840042,2.1831684
			c-0.1875381,0.7743721-0.8210831,1.4096432-1.5950623,1.5987854
			C88.5483932,31.580555,86.8306808,29.3314934,88.3710785,27.3070068z"/>
		<ellipse class="st9" cx="90" cy="28.9350777" rx="1.5185714" ry="1.5316002"/>
		<path class="st8" d="M88.3710785,20.1070061c2.0229187-1.5395107,4.2713089,0.1709862,3.7840042,2.1831703
			c-0.1875381,0.7743702-0.8210754,1.4096413-1.5950623,1.5987835
			C88.5483932,24.3805561,86.8306808,22.1314945,88.3710785,20.1070061z"/>
		<ellipse class="st9" cx="90" cy="21.7350769" rx="1.5185714" ry="1.5316002"/>
	</g>
	<g>
		<path class="st8" d="M29.0707436,48.3227844c1.2273617,0,2.2224731,1.0018463,2.2224731,2.2397385
			s-0.9951115,2.241539-2.2224731,2.241539c-1.2273636,0-2.2224751-1.0036469-2.2224751-2.241539
			S27.84338,48.3227844,29.0707436,48.3227844z"/>
		<ellipse class="st9" cx="29.0707436" cy="50.5634232" rx="1.5185714" ry="1.5316002"/>
		<path class="st8" d="M29.0707436,41.0944366c1.2273617,0,2.2224731,1.0018463,2.2224731,2.2397385
			s-0.9951115,2.2415428-2.2224731,2.2415428c-1.2273636,0-2.2224751-1.0036507-2.2224751-2.2415428
			S27.84338,41.0944366,29.0707436,41.0944366z"/>
		<ellipse class="st9" cx="29.0707436" cy="43.3350754" rx="1.5185714" ry="1.5316002"/>
		<path class="st8" d="M29.0707436,33.8944359c1.2273617,0,2.2224731,1.0018463,2.2224731,2.2397385
			s-0.9951115,2.2415428-2.2224731,2.2415428c-1.2273636,0-2.2224751-1.0036507-2.2224751-2.2415428
			S27.84338,33.8944359,29.0707436,33.8944359z"/>
		<ellipse class="st9" cx="29.0707436" cy="36.1350784" rx="1.5185714" ry="1.5316002"/>
		<path class="st8" d="M27.4418221,27.3070068c2.022913-1.5395126,4.2713051,0.1709862,3.7840004,2.1831684
			c-0.1875343,0.7743721-0.8210773,1.4096432-1.5950565,1.5987854
			C27.6191349,31.580555,25.9014225,29.3314934,27.4418221,27.3070068z"/>
		<ellipse class="st9" cx="29.0707436" cy="28.9350777" rx="1.5185714" ry="1.5316002"/>
		<path class="st8" d="M27.4418221,20.1070061c2.0229149-1.5395107,4.2713051,0.1709862,3.7840004,2.1831703
			c-0.1875343,0.7743702-0.8210754,1.4096413-1.5950565,1.5987835
			C27.6191349,24.3805561,25.9014225,22.1314945,27.4418221,20.1070061z"/>
		<ellipse class="st9" cx="29.0707436" cy="21.7350769" rx="1.5185714" ry="1.5316002"/>
	</g>
	<g id="Микроконтроллер">
		<path class="st10" d="M101.1529388,27.0177441v18.2834644c0,0.1565514,0.126915,0.2834663,0.2834702,0.2834663h0.5054626
			V26.7342796h-0.5054626C101.2798538,26.7342796,101.1529388,26.8611908,101.1529388,27.0177441z"/>
		<path class="st10" d="M113.9734879,26.7342796v18.8503952h0.5054626c0.1565552,0,0.2834702-0.126915,0.2834702-0.2834663
			V27.0177441c0-0.1565533-0.126915-0.2834644-0.2834702-0.2834644H113.9734879z"/>
		<g id="XMLID_32_">
			<g>
				<rect x="97.5400009" y="34.51614" class="st11" width="2.0542536" height="1.4175662"/>
			</g>
			<g>
			</g>
		</g>
		<line class="st12" x1="98.1678619" y1="35.2258415" x2="101.8631897" y2="35.2258415"/>
		<g id="XMLID_44_">
			<g>
				<rect x="97.5400009" y="36.3850784" class="st11" width="2.0542536" height="1.4175662"/>
			</g>
			<g>
			</g>
		</g>
		<line class="st12" x1="98.1678619" y1="37.09478" x2="101.8631897" y2="37.09478"/>
		<g id="XMLID_43_">
			<g>
				<rect x="97.5400009" y="38.2540131" class="st11" width="2.0542536" height="1.4175662"/>
			</g>
			<g>
			</g>
		</g>
		<line class="st12" x1="98.1678619" y1="38.9637146" x2="101.8631897" y2="38.9637146"/>
		<g id="XMLID_37_">
			<g>
				<rect x="97.5400009" y="40.1229515" class="st11" width="2.0542536" height="1.4175662"/>
			</g>
			<g>
			</g>
		</g>
		<line class="st12" x1="98.1678619" y1="40.832653" x2="101.8631897" y2="40.832653"/>
		<g id="XMLID_9_">
			<g>
				<rect x="97.5400009" y="41.99189" class="st11" width="2.0542536" height="1.4175662"/>
			</g>
			<g>
			</g>
		</g>
		<line class="st12" x1="98.1678619" y1="42.7015915" x2="101.8631897" y2="42.7015915"/>
		<g id="XMLID_8_">
			<g>
				<rect x="97.5400009" y="43.8608246" class="st11" width="2.0542536" height="1.4175662"/>
			</g>
			<g>
			</g>
		</g>
		<line class="st12" x1="98.1678619" y1="44.5705299" x2="101.8631897" y2="44.5705299"/>
		<line class="st13" x1="101.8631897" y1="44.5705299" x2="101.1529388" y2="44.5705299"/>
		<line class="st13" x1="101.8631897" y1="42.7015915" x2="101.1529388" y2="42.7015915"/>
		<line class="st13" x1="101.8631897" y1="40.832653" x2="101.1529388" y2="40.832653"/>
		<line class="st13" x1="101.8631897" y1="38.9637146" x2="101.1529388" y2="38.9637146"/>
		<line class="st13" x1="101.8631897" y1="37.09478" x2="101.1529388" y2="37.09478"/>
		<line class="st13" x1="101.8631897" y1="35.2258415" x2="101.1529388" y2="35.2258415"/>
		<g id="XMLID_13_">
			<g>
				<rect x="97.5400009" y="27.04039" class="st11" width="2.0542536" height="1.4175662"/>
			</g>
			<g>
			</g>
		</g>
		<line class="st12" x1="98.1678619" y1="27.7500916" x2="101.8631897" y2="27.7500916"/>
		<g id="XMLID_12_">
			<g>
				<rect x="97.5400009" y="28.9093285" class="st11" width="2.0542536" height="1.4175662"/>
			</g>
			<g>
			</g>
		</g>
		<line class="st12" x1="98.1678619" y1="29.61903" x2="101.8631897" y2="29.61903"/>
		<g id="XMLID_11_">
			<g>
				<rect x="97.5400009" y="30.778265" class="st11" width="2.0542536" height="1.4175662"/>
			</g>
			<g>
			</g>
		</g>
		<line class="st12" x1="98.1678619" y1="31.4879665" x2="101.8631897" y2="31.4879665"/>
		<g id="XMLID_10_">
			<g>
				<rect x="97.5400009" y="32.6472015" class="st11" width="2.0542536" height="1.4175662"/>
			</g>
			<g>
			</g>
		</g>
		<line class="st12" x1="98.1678619" y1="33.3569031" x2="101.8631897" y2="33.3569031"/>
		<line class="st13" x1="101.8631897" y1="33.3569031" x2="101.1529388" y2="33.3569031"/>
		<line class="st13" x1="101.8631897" y1="31.4879665" x2="101.1529388" y2="31.4879665"/>
		<line class="st13" x1="101.8631897" y1="29.61903" x2="101.1529388" y2="29.61903"/>
		<line class="st13" x1="101.8631897" y1="27.7500916" x2="101.1529388" y2="27.7500916"/>
		<g id="XMLID_23_">
			<g>
				<rect x="116.321106" y="36.3852463" class="st11" width="2.0542536" height="1.4175662"/>
			</g>
			<g>
			</g>
		</g>
		<line class="st12" x1="117.7474976" y1="37.0931091" x2="114.0521698" y2="37.0931091"/>
		<g id="XMLID_22_">
			<g>
				<rect x="116.321106" y="34.5163078" class="st11" width="2.0542536" height="1.4175662"/>
			</g>
			<g>
			</g>
		</g>
		<line class="st12" x1="117.7474976" y1="35.2241745" x2="114.0521698" y2="35.2241745"/>
		<g id="XMLID_21_">
			<g>
				<rect x="116.321106" y="32.6473732" class="st11" width="2.0542536" height="1.4175662"/>
			</g>
			<g>
			</g>
		</g>
		<line class="st12" x1="117.7474976" y1="33.3552361" x2="114.0521698" y2="33.3552361"/>
		<g id="XMLID_20_">
			<g>
				<rect x="116.321106" y="30.7784348" class="st11" width="2.0542536" height="1.4175662"/>
			</g>
			<g>
			</g>
		</g>
		<line class="st12" x1="117.7474976" y1="31.4862995" x2="114.0521698" y2="31.4862995"/>
		<g id="XMLID_19_">
			<g>
				<rect x="116.321106" y="28.9094982" class="st11" width="2.0542536" height="1.4175662"/>
			</g>
			<g>
			</g>
		</g>
		<line class="st12" x1="117.7474976" y1="29.6173611" x2="114.0521698" y2="29.6173611"/>
		<g id="XMLID_15_">
			<g>
				<rect x="116.321106" y="27.0405598" class="st11" width="2.0542536" height="1.4175662"/>
			</g>
			<g>
			</g>
		</g>
		<line class="st12" x1="117.7474976" y1="27.7484245" x2="114.0521698" y2="27.7484245"/>
		<line class="st13" x1="114.0521698" y1="27.7484245" x2="114.7624207" y2="27.7484245"/>
		<line class="st13" x1="114.0521698" y1="29.6173611" x2="114.7624207" y2="29.6173611"/>
		<line class="st13" x1="114.0521698" y1="31.4862995" x2="114.7624207" y2="31.4862995"/>
		<line class="st13" x1="114.0521698" y1="33.3552361" x2="114.7624207" y2="33.3552361"/>
		<line class="st13" x1="114.0521698" y1="35.2241745" x2="114.7624207" y2="35.2241745"/>
		<line class="st13" x1="114.0521698" y1="37.0931091" x2="114.7624207" y2="37.0931091"/>
		<g id="XMLID_14_">
			<g>
				<rect x="116.321106" y="43.8609962" class="st11" width="2.0542536" height="1.4175662"/>
			</g>
			<g>
			</g>
		</g>
		<line class="st12" x1="117.7474976" y1="44.5688591" x2="114.0521698" y2="44.5688591"/>
		<g id="XMLID_7_">
			<g>
				<rect x="116.321106" y="41.9920578" class="st11" width="2.0542536" height="1.4175662"/>
			</g>
			<g>
			</g>
		</g>
		<line class="st12" x1="117.7474976" y1="42.6999245" x2="114.0521698" y2="42.6999245"/>
		<g id="XMLID_5_">
			<g>
				<rect x="116.321106" y="40.1231232" class="st11" width="2.0542536" height="1.4175662"/>
			</g>
			<g>
			</g>
		</g>
		<line class="st12" x1="117.7474976" y1="40.830986" x2="114.0521698" y2="40.830986"/>
		<g id="XMLID_4_">
			<g>
				<rect x="116.321106" y="38.2541847" class="st11" width="2.0542536" height="1.4175662"/>
			</g>
			<g>
			</g>
		</g>
		<line class="st12" x1="117.7474976" y1="38.9620476" x2="114.0521698" y2="38.9620476"/>
		<line class="st13" x1="114.0521698" y1="38.9620476" x2="114.7624207" y2="38.9620476"/>
		<line class="st13" x1="114.0521698" y1="40.830986" x2="114.7624207" y2="40.830986"/>
		<line class="st13" x1="114.0521698" y1="42.6999245" x2="114.7624207" y2="42.6999245"/>
		<line class="st13" x1="114.0521698" y1="44.5688591" x2="114.7624207" y2="44.5688591"/>
		<path class="st14" d="M114.0521698,26.8062286v18.7064972c0,0.0397339-0.0352249,0.071949-0.0786819,0.071949h-12.0316162
			c-0.043457,0-0.0786819-0.0322151-0.0786819-0.071949V26.8062286c0-0.0397358,0.0352249-0.071949,0.0786819-0.071949h4.3906097
			h3.2503967h4.3906097C114.0169449,26.7342796,114.0521698,26.7664928,114.0521698,26.8062286z"/>
	</g>
	<g>
		<g id="XMLID_191_">
			<g>
				<rect x="55.7876892" y="59.6633606" class="st6" width="2.412019" height="1.4800887"/>
			</g>
			<g>
			</g>
		</g>
		<circle class="st15" cx="64.3188705" cy="61.1740494" r="1.2061198"/>
		<g id="XMLID_190_">
			<g>
				<rect x="63.1131935" y="59.693718" class="st6" width="2.412019" height="1.4800887"/>
			</g>
			<g>
			</g>
		</g>
		<circle class="st15" cx="71.1043015" cy="61.1740494" r="1.2061198"/>
		<g id="XMLID_189_">
			<g>
				<rect x="69.8986282" y="59.693718" class="st6" width="2.412019" height="1.4800887"/>
			</g>
			<g>
			</g>
		</g>
		<circle class="st15" cx="78.1204071" cy="61.1740494" r="1.2061198"/>
		<g id="XMLID_188_">
			<g>
				<rect x="76.9147339" y="59.693718" class="st6" width="2.412019" height="1.4800887"/>
			</g>
			<g>
			</g>
		</g>
		<circle class="st15" cx="56.9933662" cy="61.143692" r="1.2061198"/>
		<path class="st16" d="M71.2925339,17.1737652h13.0728378c0.380867,0,0.689621,0.308754,0.689621,0.6896229v41.1404381
			c0,0.3808708-0.308754,0.6896248-0.689621,0.6896248H51.7288666c-0.380867,0-0.689621-0.308754-0.689621-0.6896248V17.8633881
			c0-0.3808689,0.308754-0.6896229,0.689621-0.6896229h13.894371H71.2925339z"/>
		<rect x="56.3768616" y="30.3801956" class="st17" width="4.4399471" height="4.3982372"/>
		<rect x="62.936142" y="30.3801956" class="st17" width="4.4399471" height="4.3982372"/>
		<rect x="69.5677643" y="30.3801956" class="st17" width="4.4399471" height="4.3982372"/>
		<rect x="59.6786308" y="23.9004059" class="st17" width="4.4399471" height="4.3982372"/>
		<rect x="66.2379074" y="23.9004059" class="st17" width="4.4399471" height="4.3982372"/>
		<rect x="72.8695297" y="23.9004059" class="st17" width="4.4399471" height="4.3982372"/>
		<rect x="75.6169662" y="30.3801956" class="st17" width="4.4399471" height="4.3982372"/>
		<rect x="56.3768616" y="36.8599892" class="st17" width="4.4399471" height="4.3982372"/>
		<rect x="62.936142" y="36.8599892" class="st17" width="4.4399471" height="4.3982372"/>
		<rect x="69.5677643" y="36.8599892" class="st17" width="4.4399471" height="4.3982372"/>
		<rect x="75.6169662" y="36.8599892" class="st17" width="4.4399471" height="4.3982372"/>
		<rect x="56.3768616" y="43.3397789" class="st17" width="4.4399471" height="4.3982372"/>
		<rect x="62.936142" y="43.3397789" class="st17" width="4.4399471" height="4.3982372"/>
		<rect x="69.5677643" y="43.3397789" class="st17" width="4.4399471" height="4.3982372"/>
		<rect x="75.6169662" y="43.3397789" class="st17" width="4.4399471" height="4.3982372"/>
		<g>
			<path class="st17" d="M57.7978516,51.2626953h-0.8911133l-0.199707,0.5507813h-0.2890625l0.8115234-2.1054688h0.2456055
				l0.8129883,2.1054688h-0.2875977L57.7978516,51.2626953z M56.9916992,51.0351563h0.7226563l-0.3618164-0.984375
				L56.9916992,51.0351563z"/>
			<path class="st17" d="M58.5742188,51.8134766v-2.1054688h0.6000977c0.1850586,0,0.3486328,0.0400391,0.4907227,0.1210938
				s0.2519531,0.1962891,0.3291016,0.3457031c0.0776367,0.1494141,0.1166992,0.3212891,0.1176758,0.5146484v0.1347656
				c0,0.1982422-0.0385742,0.3730469-0.1162109,0.5224609c-0.0771484,0.1494141-0.1875,0.2636719-0.3310547,0.34375
				s-0.3110352,0.1210938-0.5019531,0.1230469H58.5742188z M58.8544922,49.9345703v1.6513672h0.2954102
				c0.2158203,0,0.3837891-0.0664063,0.5043945-0.1992188c0.1201172-0.1328125,0.1801758-0.3232422,0.1801758-0.5693359v-0.1230469
				c0-0.2392578-0.0566406-0.4248047-0.1699219-0.5576172c-0.1137695-0.1328125-0.2744141-0.2001953-0.4829102-0.2021484H58.8544922
				z"/>
			<path class="st17" d="M61.1611328,50.875c-0.2402344-0.0683594-0.4150391-0.1523438-0.5244141-0.2529297
				c-0.109375-0.0996094-0.1640625-0.2226563-0.1640625-0.3691406c0-0.1660156,0.0664063-0.3027344,0.2001953-0.4111328
				c0.1337891-0.109375,0.3076172-0.1630859,0.5224609-0.1630859c0.1455078,0,0.2763672,0.0283203,0.390625,0.0839844
				s0.203125,0.1328125,0.265625,0.2314453c0.0625,0.0976563,0.09375,0.2060547,0.09375,0.3222656h-0.28125
				c0-0.1279297-0.0410156-0.2285156-0.1230469-0.3007813c-0.0820313-0.0732422-0.1972656-0.1103516-0.3457031-0.1103516
				c-0.1386719,0-0.2460938,0.0302734-0.3232422,0.0908203c-0.078125,0.0605469-0.1162109,0.1445313-0.1162109,0.2519531
				c0,0.0859375,0.0361328,0.1582031,0.1103516,0.2177734c0.0732422,0.0595703,0.1982422,0.1132813,0.375,0.1630859
				c0.1767578,0.0488281,0.3144531,0.1035156,0.4140625,0.1630859c0.1005859,0.0585938,0.1738281,0.1279297,0.2226563,0.2070313
				c0.0478516,0.0791016,0.0722656,0.171875,0.0722656,0.2792969c0,0.1708984-0.0673828,0.3076172-0.2021484,0.4101563
				c-0.1337891,0.1025391-0.3134766,0.1542969-0.5380859,0.1542969c-0.1464844,0-0.2822266-0.0283203-0.4091797-0.0839844
				c-0.1269531-0.0546875-0.2236328-0.1308594-0.2929688-0.2275391c-0.0683594-0.0966797-0.1025391-0.2060547-0.1025391-0.328125
				h0.28125c0,0.1269531,0.0478516,0.2275391,0.1425781,0.3017578c0.0947266,0.0732422,0.2216797,0.1103516,0.3808594,0.1103516
				c0.1474609,0,0.2607422-0.0302734,0.3398438-0.0898438s0.1181641-0.140625,0.1181641-0.2441406
				s-0.0361328-0.1826172-0.109375-0.2392578S61.3535156,50.9296875,61.1611328,50.875z"/>
			<path class="st17" d="M63.9443359,50.828125c0,0.2070313-0.0351563,0.3867188-0.1054688,0.5410156
				c-0.0693359,0.1533203-0.1689453,0.2705078-0.2978516,0.3515625c-0.1279297,0.0810547-0.2783203,0.1220703-0.4492188,0.1220703
				c-0.1679688,0-0.3164063-0.0410156-0.4453125-0.1230469c-0.1298828-0.0810547-0.2304688-0.1972656-0.3017578-0.3476563
				c-0.0712891-0.1513672-0.1083984-0.3261719-0.1103516-0.5244141v-0.1523438c0-0.2021484,0.0361328-0.3808594,0.1064453-0.5361328
				c0.0712891-0.1552734,0.171875-0.2744141,0.3017578-0.3564453c0.1298828-0.0830078,0.2783203-0.1240234,0.4462891-0.1240234
				c0.1699219,0,0.3203125,0.0410156,0.4501953,0.1220703C63.6689453,49.8828125,63.7695313,50,63.8388672,50.1552734
				c0.0703125,0.1542969,0.1054688,0.3349609,0.1054688,0.5400391V50.828125z M63.6650391,50.6923828
				c0-0.25-0.0498047-0.4414063-0.1513672-0.5751953c-0.1015625-0.1328125-0.2431641-0.2001953-0.4248047-0.2001953
				c-0.1777344,0-0.3164063,0.0673828-0.4189453,0.2001953c-0.1015625,0.1337891-0.1533203,0.3193359-0.15625,0.5566406v0.1542969
				c0,0.2421875,0.0507813,0.4326172,0.1533203,0.5712891c0.1035156,0.1376953,0.2441406,0.2070313,0.4248047,0.2070313
				s0.3212891-0.0654297,0.4199219-0.1953125c0.0996094-0.1308594,0.1503906-0.3183594,0.1533203-0.5625V50.6923828z"/>
			<path class="st17" d="M65.9980469,51.8134766h-0.28125l-1.0703125-1.6230469v1.6230469h-0.2822266v-2.1054688h0.2822266
				l1.0732422,1.6298828v-1.6298828h0.2783203V51.8134766z"/>
			<path class="st17" d="M68.0664063,51.5371094c-0.0722656,0.1025391-0.1728516,0.1787109-0.3017578,0.2294922
				s-0.2792969,0.0761719-0.4501953,0.0761719c-0.1738281,0-0.3271484-0.0410156-0.4619141-0.1210938
				c-0.1337891-0.0800781-0.2382813-0.1953125-0.3115234-0.34375s-0.1113281-0.3203125-0.1132813-0.5166016v-0.1835938
				c0-0.3173828,0.0751953-0.5625,0.2246094-0.7373047s0.359375-0.2617188,0.6298828-0.2617188
				c0.2216797,0,0.4003906,0.0556641,0.5361328,0.1679688c0.1347656,0.1123047,0.2177734,0.2724609,0.2480469,0.4785156h-0.2802734
				c-0.0527344-0.2792969-0.2207031-0.4199219-0.5029297-0.4199219c-0.1875,0-0.3300781,0.0654297-0.4267578,0.1962891
				s-0.1455078,0.3203125-0.1464844,0.5683594v0.1728516c0,0.2363281,0.0546875,0.4238281,0.1630859,0.5634766
				c0.109375,0.1396484,0.2568359,0.2089844,0.4423828,0.2089844c0.1054688,0,0.1972656-0.0117188,0.2763672-0.0341797
				c0.0791016-0.0234375,0.1435547-0.0625,0.1953125-0.1171875v-0.4716797h-0.4921875v-0.2275391h0.7714844V51.5371094z"/>
			<path class="st17" d="M70.4472656,51.2626953h-0.890625l-0.2001953,0.5507813h-0.2890625l0.8115234-2.1054688H70.125
				l0.8125,2.1054688h-0.2871094L70.4472656,51.2626953z M69.6416016,51.0351563h0.7226563l-0.3623047-0.984375
				L69.6416016,51.0351563z"/>
			<path class="st17" d="M71.5859375,49.7080078l0.6953125,1.7177734l0.6953125-1.7177734h0.3632813v2.1054688h-0.2802734
				v-0.8203125l0.0263672-0.8847656l-0.6982422,1.7050781h-0.2148438l-0.6962891-1.7011719l0.0273438,0.8808594v0.8203125
				h-0.2802734v-2.1054688H71.5859375z"/>
			<path class="st17" d="M75.1582031,51.8134766h-1.3935547v-0.1923828l0.7363281-0.8095703
				c0.1083984-0.1230469,0.1835938-0.2226563,0.2255859-0.2988281c0.0410156-0.0771484,0.0615234-0.15625,0.0615234-0.2382813
				c0-0.109375-0.0332031-0.2001953-0.1005859-0.2705078s-0.15625-0.1054688-0.2685547-0.1054688
				c-0.1347656,0-0.2382813,0.0380859-0.3134766,0.1132813c-0.0742188,0.0761719-0.1113281,0.1816406-0.1113281,0.3164063
				h-0.2705078c0-0.1943359,0.0634766-0.3505859,0.1894531-0.4697266c0.1259766-0.1201172,0.2949219-0.1796875,0.5058594-0.1796875
				c0.1972656,0,0.3535156,0.0507813,0.46875,0.1542969c0.1152344,0.1025391,0.171875,0.2392578,0.171875,0.4101563
				c0,0.2070313-0.1328125,0.4541016-0.3994141,0.7402344l-0.5693359,0.6113281h1.0673828V51.8134766z"/>
			<path class="st17" d="M75.8369141,50.6298828h0.203125c0.1269531-0.0019531,0.2275391-0.0351563,0.3007813-0.0996094
				c0.0722656-0.0644531,0.109375-0.1513672,0.109375-0.2617188c0-0.2470703-0.1240234-0.3701172-0.3720703-0.3701172
				c-0.1171875,0-0.2109375,0.0332031-0.2802734,0.0986328c-0.0693359,0.0664063-0.1044922,0.1542969-0.1044922,0.2626953
				h-0.2695313c0-0.1669922,0.0615234-0.3046875,0.1845703-0.4160156c0.1230469-0.1103516,0.2792969-0.1650391,0.4697266-0.1650391
				c0.2001953,0,0.3574219,0.0527344,0.4707031,0.1572266c0.1142578,0.1054688,0.1708984,0.2519531,0.1708984,0.4384766
				c0,0.0917969-0.0292969,0.1806641-0.0898438,0.2666016c-0.0595703,0.0859375-0.140625,0.1494141-0.2441406,0.1923828
				c0.1171875,0.0361328,0.2070313,0.0966797,0.2705078,0.1816406C76.7207031,51,76.7519531,51.1035156,76.7519531,51.2265625
				c0,0.1884766-0.0615234,0.3388672-0.1865234,0.4492188c-0.125,0.1113281-0.2871094,0.1669922-0.4863281,0.1669922
				s-0.3623047-0.0537109-0.4873047-0.1611328c-0.125-0.1064453-0.1875-0.2480469-0.1875-0.4238281h0.2714844
				c0,0.1113281,0.0371094,0.2001953,0.1103516,0.2666016c0.0722656,0.0664063,0.1699219,0.0996094,0.2929688,0.0996094
				c0.1308594,0,0.2304688-0.0341797,0.2998047-0.1015625c0.0683594-0.0673828,0.1035156-0.1640625,0.1035156-0.2900391
				c0-0.1230469-0.0380859-0.2167969-0.1142578-0.2822266s-0.1855469-0.0996094-0.328125-0.1015625h-0.203125V50.6298828z"/>
			<path class="st17" d="M78.5166016,51.8134766h-1.3935547v-0.1923828l0.7363281-0.8095703
				c0.1083984-0.1230469,0.1835938-0.2226563,0.2255859-0.2988281c0.0410156-0.0771484,0.0615234-0.15625,0.0615234-0.2382813
				c0-0.109375-0.0332031-0.2001953-0.1005859-0.2705078s-0.15625-0.1054688-0.2685547-0.1054688
				c-0.1347656,0-0.2382813,0.0380859-0.3134766,0.1132813c-0.0742188,0.0761719-0.1113281,0.1816406-0.1113281,0.3164063
				h-0.2705078c0-0.1943359,0.0634766-0.3505859,0.1894531-0.4697266c0.1259766-0.1201172,0.2949219-0.1796875,0.5058594-0.1796875
				c0.1972656,0,0.3535156,0.0507813,0.46875,0.1542969c0.1152344,0.1025391,0.171875,0.2392578,0.171875,0.4101563
				c0,0.2070313-0.1328125,0.4541016-0.3994141,0.7402344l-0.5693359,0.6113281h1.0673828V51.8134766z"/>
			<path class="st17" d="M80.1357422,50.9150391c0,0.3134766-0.0546875,0.546875-0.1621094,0.6992188
				c-0.1083984,0.1523438-0.2773438,0.2285156-0.5068359,0.2285156c-0.2265625,0-0.3945313-0.0751953-0.5039063-0.2236328
				c-0.109375-0.1494141-0.1650391-0.3720703-0.1689453-0.6679688V50.59375c0-0.3095703,0.0537109-0.5390625,0.1621094-0.6894531
				c0.1074219-0.1503906,0.2773438-0.2255859,0.5078125-0.2255859c0.2285156,0,0.3974609,0.0722656,0.5048828,0.2177734
				c0.1083984,0.1445313,0.1640625,0.3691406,0.1669922,0.671875V50.9150391z M79.8652344,50.5498047
				c0-0.2265625-0.0322266-0.3925781-0.0966797-0.4960938c-0.0634766-0.1035156-0.1660156-0.1552734-0.3046875-0.1552734
				s-0.2392578,0.0517578-0.3027344,0.1552734c-0.0625,0.1025391-0.0957031,0.2617188-0.0976563,0.4755859v0.4277344
				c0,0.2275391,0.0332031,0.3955078,0.1005859,0.5039063c0.0664063,0.1083984,0.1669922,0.1630859,0.3027344,0.1630859
				c0.1328125,0,0.2324219-0.0507813,0.296875-0.1533203s0.0986328-0.2636719,0.1015625-0.4833984V50.5498047z"/>
		</g>
		<g>
			<path class="st17" d="M56.7514648,54.2695313c-0.2402344-0.0683594-0.4155273-0.1523438-0.5249023-0.2529297
				c-0.109375-0.0996094-0.1640625-0.2226563-0.1640625-0.3691406c0-0.1660156,0.0668945-0.3027344,0.2006836-0.4111328
				c0.1337891-0.109375,0.3076172-0.1630859,0.5219727-0.1630859c0.1459961,0,0.2763672,0.0283203,0.390625,0.0839844
				s0.203125,0.1328125,0.265625,0.2314453c0.0629883,0.0976563,0.0942383,0.2060547,0.0942383,0.3222656h-0.2817383
				c0-0.1279297-0.0410156-0.2285156-0.1225586-0.3007813c-0.0820313-0.0732422-0.1972656-0.1103516-0.3461914-0.1103516
				c-0.1381836,0-0.2460938,0.0302734-0.3232422,0.0908203c-0.0776367,0.0605469-0.1162109,0.1445313-0.1162109,0.2519531
				c0,0.0859375,0.0366211,0.1582031,0.1103516,0.2177734c0.0732422,0.0595703,0.1982422,0.1132813,0.375,0.1630859
				c0.1767578,0.0488281,0.3149414,0.1035156,0.4145508,0.1630859c0.1000977,0.0585938,0.1738281,0.1279297,0.222168,0.2070313
				s0.0722656,0.171875,0.0722656,0.2792969c0,0.1708984-0.0673828,0.3076172-0.2016602,0.4101563
				s-0.3139648,0.1542969-0.5385742,0.1542969c-0.1459961,0-0.2822266-0.0283203-0.4086914-0.0839844
				c-0.1269531-0.0546875-0.2241211-0.1308594-0.2929688-0.2275391s-0.1030273-0.2060547-0.1030273-0.328125h0.2817383
				c0,0.1269531,0.0478516,0.2275391,0.1425781,0.3017578c0.0947266,0.0732422,0.2216797,0.1103516,0.3803711,0.1103516
				c0.1479492,0,0.2612305-0.0302734,0.340332-0.0898438c0.0786133-0.0595703,0.1181641-0.140625,0.1181641-0.2441406
				s-0.0366211-0.1826172-0.109375-0.2392578C57.0756836,54.3798828,56.9433594,54.3242188,56.7514648,54.2695313z"/>
			<path class="st17" d="M59.5327148,55.2080078h-0.2817383l-1.0703125-1.6230469v1.6230469h-0.2817383v-2.1054688h0.2817383
				l1.0732422,1.6298828v-1.6298828h0.2788086V55.2080078z"/>
			<path class="st17" d="M59.9799805,55.0673828c0-0.0458984,0.0136719-0.0849609,0.0415039-0.1152344
				c0.027832-0.03125,0.0693359-0.046875,0.125-0.046875c0.0551758,0,0.097168,0.015625,0.1259766,0.046875
				c0.0288086,0.0302734,0.0429688,0.0693359,0.0429688,0.1152344c0,0.0449219-0.0141602,0.0820313-0.0429688,0.1113281
				c-0.0288086,0.0302734-0.0708008,0.0449219-0.1259766,0.0449219c-0.0556641,0-0.097168-0.0146484-0.125-0.0449219
				C59.9936523,55.1494141,59.9799805,55.1123047,59.9799805,55.0673828z M59.9814453,53.7910156
				c0-0.046875,0.0136719-0.0849609,0.0415039-0.1162109s0.0693359-0.0458984,0.125-0.0458984
				c0.0551758,0,0.097168,0.0146484,0.1259766,0.0458984s0.0429688,0.0693359,0.0429688,0.1162109
				c0,0.0439453-0.0141602,0.0810547-0.0429688,0.1113281c-0.0288086,0.0292969-0.0708008,0.0439453-0.1259766,0.0439453
				c-0.0556641,0-0.097168-0.0146484-0.125-0.0439453C59.9951172,53.8720703,59.9814453,53.8349609,59.9814453,53.7910156z"/>
			<path class="st17" d="M61.8173828,54.0244141h0.203125c0.1279297-0.0019531,0.2275391-0.0351563,0.3007813-0.0996094
				s0.109375-0.1513672,0.109375-0.2617188c0-0.2470703-0.1240234-0.3701172-0.3720703-0.3701172
				c-0.1171875,0-0.2099609,0.0332031-0.2792969,0.0986328c-0.0703125,0.0664063-0.1044922,0.1542969-0.1044922,0.2626953
				h-0.2705078c0-0.1669922,0.0615234-0.3046875,0.1845703-0.4160156c0.1230469-0.1103516,0.2802734-0.1650391,0.4697266-0.1650391
				c0.2001953,0,0.3574219,0.0527344,0.4716797,0.1572266c0.1142578,0.1054688,0.1708984,0.2519531,0.1708984,0.4384766
				c0,0.0917969-0.0302734,0.1806641-0.0898438,0.2666016s-0.1416016,0.1494141-0.2441406,0.1923828
				c0.1162109,0.0361328,0.2070313,0.0966797,0.2705078,0.1816406s0.0957031,0.1884766,0.0957031,0.3115234
				c0,0.1884766-0.0625,0.3388672-0.1875,0.4492188c-0.1240234,0.1113281-0.2861328,0.1669922-0.4853516,0.1669922
				c-0.2001953,0-0.3623047-0.0537109-0.4873047-0.1611328c-0.125-0.1064453-0.1875-0.2480469-0.1875-0.4238281h0.2714844
				c0,0.1113281,0.0361328,0.2001953,0.109375,0.2666016s0.1708984,0.0996094,0.2939453,0.0996094
				c0.1298828,0,0.2294922-0.0341797,0.2988281-0.1015625s0.1035156-0.1640625,0.1035156-0.2900391
				c0-0.1230469-0.0380859-0.2167969-0.1132813-0.2822266c-0.0761719-0.0654297-0.1855469-0.0996094-0.3291016-0.1015625h-0.203125
				V54.0244141z"/>
			<path class="st17" d="M63.8007813,54.2695313c-0.2402344-0.0683594-0.4160156-0.1523438-0.5253906-0.2529297
				c-0.109375-0.0996094-0.1640625-0.2226563-0.1640625-0.3691406c0-0.1660156,0.0673828-0.3027344,0.2011719-0.4111328
				c0.1337891-0.109375,0.3076172-0.1630859,0.5214844-0.1630859c0.1464844,0,0.2763672,0.0283203,0.390625,0.0839844
				s0.203125,0.1328125,0.265625,0.2314453c0.0634766,0.0976563,0.0947266,0.2060547,0.0947266,0.3222656h-0.2822266
				c0-0.1279297-0.0410156-0.2285156-0.1220703-0.3007813c-0.0820313-0.0732422-0.1972656-0.1103516-0.3466797-0.1103516
				c-0.1376953,0-0.2460938,0.0302734-0.3232422,0.0908203s-0.1162109,0.1445313-0.1162109,0.2519531
				c0,0.0859375,0.0371094,0.1582031,0.1103516,0.2177734s0.1982422,0.1132813,0.375,0.1630859
				c0.1767578,0.0488281,0.3154297,0.1035156,0.4150391,0.1630859c0.0996094,0.0585938,0.1738281,0.1279297,0.2216797,0.2070313
				c0.0488281,0.0791016,0.0722656,0.171875,0.0722656,0.2792969c0,0.1708984-0.0673828,0.3076172-0.2011719,0.4101563
				c-0.1347656,0.1025391-0.3144531,0.1542969-0.5390625,0.1542969c-0.1455078,0-0.2822266-0.0283203-0.4082031-0.0839844
				c-0.1269531-0.0546875-0.2246094-0.1308594-0.2929688-0.2275391c-0.0693359-0.0966797-0.1035156-0.2060547-0.1035156-0.328125
				h0.2822266c0,0.1269531,0.0478516,0.2275391,0.1425781,0.3017578c0.0947266,0.0732422,0.2216797,0.1103516,0.3798828,0.1103516
				c0.1484375,0,0.2617188-0.0302734,0.3408203-0.0898438c0.078125-0.0595703,0.1181641-0.140625,0.1181641-0.2441406
				s-0.0371094-0.1826172-0.109375-0.2392578C64.125,54.3798828,63.9921875,54.3242188,63.8007813,54.2695313z"/>
			<path class="st17" d="M66.2714844,55.2080078h-1.3935547V55.015625l0.7363281-0.8095703
				c0.1083984-0.1230469,0.1835938-0.2226563,0.2255859-0.2988281c0.0410156-0.0771484,0.0615234-0.15625,0.0615234-0.2382813
				c0-0.109375-0.0332031-0.2001953-0.1005859-0.2705078s-0.15625-0.1054688-0.2685547-0.1054688
				c-0.1347656,0-0.2382813,0.0380859-0.3134766,0.1132813c-0.0742188,0.0761719-0.1113281,0.1816406-0.1113281,0.3164063
				h-0.2705078c0-0.1943359,0.0634766-0.3505859,0.1894531-0.4697266c0.1259766-0.1201172,0.2949219-0.1796875,0.5058594-0.1796875
				c0.1972656,0,0.3535156,0.0507813,0.46875,0.1542969c0.1152344,0.1025391,0.171875,0.2392578,0.171875,0.4101563
				c0,0.2070313-0.1328125,0.4541016-0.3994141,0.7402344l-0.5693359,0.6113281h1.0673828V55.2080078z"/>
			<path class="st17" d="M67.9501953,55.2080078h-1.3925781V55.015625l0.7353516-0.8095703
				c0.109375-0.1230469,0.1845703-0.2226563,0.2255859-0.2988281c0.0419922-0.0771484,0.0625-0.15625,0.0625-0.2382813
				c0-0.109375-0.0341797-0.2001953-0.1005859-0.2705078c-0.0673828-0.0703125-0.1572266-0.1054688-0.2695313-0.1054688
				c-0.1337891,0-0.2382813,0.0380859-0.3125,0.1132813c-0.0742188,0.0761719-0.1123047,0.1816406-0.1123047,0.3164063h-0.2695313
				c0-0.1943359,0.0625-0.3505859,0.1884766-0.4697266C66.8310547,53.1328125,67,53.0732422,67.2109375,53.0732422
				c0.1982422,0,0.3544922,0.0507813,0.46875,0.1542969c0.1152344,0.1025391,0.1728516,0.2392578,0.1728516,0.4101563
				c0,0.2070313-0.1337891,0.4541016-0.4003906,0.7402344l-0.5693359,0.6113281h1.0673828V55.2080078z"/>
			<path class="st17" d="M69.8759766,54.9316406c-0.0722656,0.1025391-0.171875,0.1787109-0.3017578,0.2294922
				c-0.1289063,0.0507813-0.2783203,0.0761719-0.4501953,0.0761719c-0.1728516,0-0.3271484-0.0410156-0.4609375-0.1210938
				c-0.1347656-0.0800781-0.2382813-0.1953125-0.3115234-0.34375c-0.0742188-0.1484375-0.1113281-0.3203125-0.1132813-0.5166016
				v-0.1835938c0-0.3173828,0.0742188-0.5625,0.2236328-0.7373047s0.359375-0.2617188,0.6298828-0.2617188
				c0.2226563,0,0.4003906,0.0556641,0.5361328,0.1679688s0.2177734,0.2724609,0.2480469,0.4785156h-0.2802734
				c-0.0527344-0.2792969-0.2197266-0.4199219-0.5019531-0.4199219c-0.1884766,0-0.3300781,0.0654297-0.4277344,0.1962891
				c-0.0966797,0.1308594-0.1455078,0.3203125-0.1464844,0.5683594v0.1728516c0,0.2363281,0.0546875,0.4238281,0.1640625,0.5634766
				c0.1083984,0.1396484,0.2558594,0.2089844,0.4423828,0.2089844c0.1044922,0,0.1972656-0.0117188,0.2753906-0.0341797
				c0.0791016-0.0234375,0.1445313-0.0625,0.1962891-0.1171875v-0.4716797h-0.4921875v-0.2275391h0.7705078V54.9316406z"/>
			<path class="st17" d="M71.6660156,55.2080078h-1.3925781V55.015625l0.7353516-0.8095703
				c0.109375-0.1230469,0.1845703-0.2226563,0.2255859-0.2988281c0.0419922-0.0771484,0.0625-0.15625,0.0625-0.2382813
				c0-0.109375-0.0341797-0.2001953-0.1005859-0.2705078c-0.0673828-0.0703125-0.1572266-0.1054688-0.2695313-0.1054688
				c-0.1337891,0-0.2382813,0.0380859-0.3125,0.1132813c-0.0742188,0.0761719-0.1123047,0.1816406-0.1123047,0.3164063h-0.2695313
				c0-0.1943359,0.0625-0.3505859,0.1884766-0.4697266c0.1259766-0.1201172,0.2949219-0.1796875,0.5058594-0.1796875
				c0.1982422,0,0.3544922,0.0507813,0.46875,0.1542969c0.1152344,0.1025391,0.1728516,0.2392578,0.1728516,0.4101563
				c0,0.2070313-0.1337891,0.4541016-0.4003906,0.7402344l-0.5693359,0.6113281h1.0673828V55.2080078z"/>
			<path class="st17" d="M73.0927734,54.5009766h0.2949219V54.71875h-0.2949219v0.4892578h-0.2714844V54.71875h-0.96875v-0.1572266
				l0.9521484-1.4589844h0.2880859V54.5009766z M72.1591797,54.5009766h0.6621094v-1.0332031l-0.0322266,0.0576172
				L72.1591797,54.5009766z"/>
			<path class="st17" d="M73.7011719,55.2080078v-2.1054688h0.6005859c0.1845703,0,0.3486328,0.0400391,0.4902344,0.1210938
				c0.1425781,0.0810547,0.2519531,0.1962891,0.3291016,0.3457031c0.078125,0.1494141,0.1171875,0.3212891,0.1181641,0.5146484
				V54.21875c0,0.1982422-0.0390625,0.3730469-0.1162109,0.5224609s-0.1875,0.2636719-0.3310547,0.34375
				s-0.3115234,0.1210938-0.5019531,0.1230469H73.7011719z M73.9814453,53.3291016v1.6513672h0.2958984
				c0.2158203,0,0.3837891-0.0664063,0.5039063-0.1992188s0.1806641-0.3232422,0.1806641-0.5693359v-0.1230469
				c0-0.2392578-0.0566406-0.4248047-0.1699219-0.5576172c-0.1142578-0.1328125-0.2744141-0.2001953-0.4833984-0.2021484H73.9814453
				z"/>
			<path class="st17" d="M76.9853516,55.2080078h-1.3925781V55.015625l0.7353516-0.8095703
				c0.109375-0.1230469,0.1845703-0.2226563,0.2255859-0.2988281c0.0419922-0.0771484,0.0625-0.15625,0.0625-0.2382813
				c0-0.109375-0.0341797-0.2001953-0.1005859-0.2705078c-0.0673828-0.0703125-0.1572266-0.1054688-0.2695313-0.1054688
				c-0.1337891,0-0.2382813,0.0380859-0.3125,0.1132813c-0.0742188,0.0761719-0.1123047,0.1816406-0.1123047,0.3164063h-0.2695313
				c0-0.1943359,0.0625-0.3505859,0.1884766-0.4697266c0.1259766-0.1201172,0.2949219-0.1796875,0.5058594-0.1796875
				c0.1982422,0,0.3544922,0.0507813,0.46875,0.1542969c0.1152344,0.1025391,0.1728516,0.2392578,0.1728516,0.4101563
				c0,0.2070313-0.1337891,0.4541016-0.4003906,0.7402344l-0.5693359,0.6113281h1.0673828V55.2080078z"/>
			<path class="st17" d="M78.5146484,54.2783203h-0.8925781v0.9296875h-0.2802734v-2.1054688h1.3173828v0.2265625h-1.0371094
				v0.7216797h0.8925781V54.2783203z"/>
		</g>
		<path class="st18" d="M71.2925262,17.1737652v0.5224304c0,1.0256233-0.8391418,1.864769-1.864769,1.864769h-1.9397507
			c-1.0256195,0-1.864769-0.8391457-1.864769-1.864769v-0.5224304"/>
		<path class="st18" d="M51.0392456,21.0657597h0.5224304c1.0256233,0,1.864769,0.8391457,1.864769,1.864769v1.9397526
			c0,1.0256233-0.8391457,1.864769-1.864769,1.864769h-0.5224304"/>
		<path class="st18" d="M85.0549927,26.7350521h-0.5224304c-1.0256195,0-1.864769-0.8391476-1.864769-1.864769v-1.9397526
			c0-1.0256233,0.8391495-1.8647709,1.864769-1.8647709h0.5224304"/>
		<path class="st18" d="M51.0392456,50.4829369h0.5224304c1.0256233,0,1.864769,0.8391457,1.864769,1.864769v1.9397545
			c0,1.0256233-0.8391457,1.864769-1.864769,1.864769h-0.5224304"/>
		<path class="st18" d="M85.0549927,56.1522293h-0.5224304c-1.0256195,0-1.864769-0.8391457-1.864769-1.864769v-1.9397545
			c0-1.0256233,0.8391495-1.864769,1.864769-1.864769h0.5224304"/>
	</g>
	<g>
	</g>
	<g>
	</g>
	<g>
	</g>
	<g>
	</g>
	<g>
	</g>
	<g>
	</g>
</g>
</svg>
