<?xml version="1.0" encoding="utf-8"?>
<!-- Generator: Adobe Illustrator 22.1.0, SVG Export Plug-In . SVG Version: 6.00 Build 0)  -->
<svg version="1.1" xmlns="http://www.w3.org/2000/svg" xmlns:xlink="http://www.w3.org/1999/xlink" x="0px" y="0px"
	 viewBox="0 0 72.2834625 119.0551147" style="enable-background:new 0 0 72.2834625 119.0551147;" xml:space="preserve">
<style type="text/css">
	.st0{fill:#19191A;}
	.st1{fill:#E9A854;}
	.st2{fill:#9E9B9C;}
	.st3{fill:#FFFFFF;}
	.st4{fill:#363331;}
	.st5{fill:#B5B4B3;}
	.st6{fill:#CDC7BC;}
	.st7{fill:#907747;}
	.st8{fill:#CEC7BD;}
	.st9{fill:#918C84;}
	.st10{fill:#46433E;}
	.st11{fill:#CBC5BA;}
	.st12{fill:none;stroke:#E5E5E5;stroke-miterlimit:10;}
	.st13{fill:none;stroke:#C9C8C8;stroke-miterlimit:10;}
	.st14{fill:#4C4C4C;}
	.st15{fill:none;stroke:#F6F6F6;stroke-width:0.7234271;stroke-miterlimit:10;}
	.st16{opacity:0.4;fill:url(#SVGID_1_);}
	.st17{fill:#EBAD4F;}
	.st18{fill:none;stroke:#E2E2E2;stroke-width:0.2053135;stroke-miterlimit:10;}
	.st19{fill:#E2E2E2;}
	.st20{fill:#999999;}
</style>
<g id="Фон">
	<path class="st0" d="M0.015625,17.0234985v102.0472412h72.2855835V17.0234985H0.015625z M6.8483276,111.729187
		c-0.7827759,0-1.4173584-0.6345215-1.4173584-1.4172974s0.6345825-1.4173584,1.4173584-1.4173584
		c0.7827148,0,1.4172974,0.6345825,1.4172974,1.4173584S7.6310425,111.729187,6.8483276,111.729187z M6.8483276,108.6450195
		c-0.7827759,0-1.4173584-0.6345825-1.4173584-1.4172974c0-0.7827759,0.6345825-1.4173584,1.4173584-1.4173584
		c0.7827148,0,1.4172974,0.6345825,1.4172974,1.4173584C8.265625,108.010437,7.6310425,108.6450195,6.8483276,108.6450195z
		 M6.8483276,105.5608521c-0.7827759,0-1.4173584-0.6345825-1.4173584-1.4172974
		c0-0.7827759,0.6345825-1.4173584,1.4173584-1.4173584c0.7827148,0,1.4172974,0.6345825,1.4172974,1.4173584
		C8.265625,104.9262695,7.6310425,105.5608521,6.8483276,105.5608521z M9.9368896,111.729187
		c-0.7827759,0-1.4172974-0.6345215-1.4172974-1.4172974s0.6345215-1.4173584,1.4172974-1.4173584
		s1.4172974,0.6345825,1.4172974,1.4173584S10.7196655,111.729187,9.9368896,111.729187z M9.9368896,108.6450195
		c-0.7827759,0-1.4172974-0.6345825-1.4172974-1.4172974c0-0.7827759,0.6345215-1.4173584,1.4172974-1.4173584
		s1.4172974,0.6345825,1.4172974,1.4173584C11.354187,108.010437,10.7196655,108.6450195,9.9368896,108.6450195z
		 M9.9368896,105.5608521c-0.7827759,0-1.4172974-0.6345825-1.4172974-1.4172974
		c0-0.7827759,0.6345215-1.4173584,1.4172974-1.4173584s1.4172974,0.6345825,1.4172974,1.4173584
		C11.354187,104.9262695,10.7196655,105.5608521,9.9368896,105.5608521z M8.5206299,31.3391113
		c-2.4279175,0-4.3947754-1.9668579-4.3947754-4.3927002c0-2.4259033,1.9668579-4.3947144,4.3947754-4.3947144
		c2.4258423,0,4.3926392,1.968811,4.3926392,4.3947144C12.913269,29.3722534,10.9464722,31.3391113,8.5206299,31.3391113z
		 M63.7973022,31.3391113c-2.4264526,0-4.3936768-1.9668579-4.3936768-4.3947754
		c0-2.4258423,1.9672241-4.3926392,4.3936768-4.3926392s4.3936768,1.9667969,4.3936768,4.3926392
		C68.190979,29.3722534,66.2237549,31.3391113,63.7973022,31.3391113z"/>
	<g>
		<path class="st1" d="M43.1525688,0l0.427124,0c0.2769852,0.2769843,0.4322777,0.4322783,0.7092628,0.7092626v16.2986107
			h-1.8456459V0.7092626C42.7202911,0.4322783,42.8755875,0.2769843,43.1525688,0z"/>
	</g>
	<g>
		<path class="st1" d="M35.9570923,0l0.4271202,0c0.2769852,0.2769843,0.4322777,0.4322783,0.7092628,0.7092626v16.2986107
			h-1.8456459V0.7092626C35.5248146,0.4322783,35.6801071,0.2769843,35.9570923,0z"/>
	</g>
	<g>
		<path class="st1" d="M50.3525696,0l0.427124,0c0.2769852,0.2769843,0.4322777,0.4322783,0.7092628,0.7092626v16.2986107
			h-1.8456497V0.7092626C49.9202919,0.4322783,50.0755882,0.2769843,50.3525696,0z"/>
	</g>
	<g>
		<path class="st1" d="M28.7525711,0l0.4271221,0c0.2769833,0.2769843,0.4322777,0.4322783,0.7092628,0.7092626v16.2986107
			h-1.8456478V0.7092626C28.3202915,0.4322783,28.4755859,0.2769843,28.7525711,0z"/>
	</g>
	<g>
		<path class="st1" d="M21.5242233,0l0.4271221,0c0.2769852,0.2769843,0.4322796,0.4322783,0.7092628,0.7092626v16.2986107
			h-1.8456459V0.7092626C21.0919456,0.4322783,21.2472401,0.2769843,21.5242233,0z"/>
	</g>
	<path class="st2" d="M8.5060425,32.9052124c3.300293,0,5.9754028-2.6751709,5.9754028-5.9754639
		c0-3.3002319-2.6751099-5.9754028-5.9754028-5.9754028s-5.9754639,2.6751709-5.9754639,5.9754028
		C2.5305789,30.2300415,5.20575,32.9052124,8.5060425,32.9052124z M8.5050049,22.5360718
		c2.4279175,0,4.3947144,1.9667969,4.3947144,4.3927002c0,2.4279175-1.9667969,4.3947144-4.3947144,4.3947144
		c-2.4258418,0-4.3926997-1.9667969-4.3926997-4.3947144C4.1123052,24.5028687,6.0791631,22.5360718,8.5050049,22.5360718z"/>
	<path class="st2" d="M9.9368973,111.8709106c0.8610821,0,1.5590477-0.6979752,1.5590477-1.5590591
		c0-0.8610687-0.6979656-1.5590439-1.5590477-1.5590439s-1.559063,0.6979752-1.559063,1.5590439
		C8.3778343,111.1729355,9.0758152,111.8709106,9.9368973,111.8709106z M9.9365644,108.8945389
		c0.7831984,0,1.4176483,0.6344452,1.4176483,1.4169922c0,0.7832031-0.63445,1.4176483-1.4176483,1.4176483
		c-0.7825279,0-1.4169979-0.6344452-1.4169979-1.4176483C8.5195665,109.5289841,9.1540365,108.8945389,9.9365644,108.8945389z"/>
	<path class="st2" d="M9.9368973,108.7867432c0.8610821,0,1.5590477-0.6979752,1.5590477-1.5590591
		c0-0.8610687-0.6979656-1.5590439-1.5590477-1.5590439s-1.559063,0.6979752-1.559063,1.5590439
		C8.3778343,108.088768,9.0758152,108.7867432,9.9368973,108.7867432z M9.9365644,105.8103714
		c0.7831984,0,1.4176483,0.6344452,1.4176483,1.4169922c0,0.7832031-0.63445,1.4176483-1.4176483,1.4176483
		c-0.7825279,0-1.4169979-0.6344452-1.4169979-1.4176483C8.5195665,106.4448166,9.1540365,105.8103714,9.9365644,105.8103714z"/>
	<path class="st2" d="M6.8483052,105.7025757c0.8610821,0,1.5590472-0.6979752,1.5590472-1.5590591
		c0-0.8610687-0.6979651-1.5590439-1.5590472-1.5590439s-1.5590634,0.6979752-1.5590634,1.5590439
		C5.2892418,105.0046005,5.9872231,105.7025757,6.8483052,105.7025757z M6.8479724,102.7262039
		c0.7831979,0,1.4176478,0.6344452,1.4176478,1.4169922c0,0.7832031-0.63445,1.4176483-1.4176478,1.4176483
		c-0.7825289,0-1.4169979-0.6344452-1.4169979-1.4176483C5.4309745,103.3606491,6.0654435,102.7262039,6.8479724,102.7262039z"/>
	<path class="st2" d="M9.9368973,105.7025757c0.8610821,0,1.5590477-0.6979752,1.5590477-1.5590591
		c0-0.8610687-0.6979656-1.5590439-1.5590477-1.5590439s-1.559063,0.6979752-1.559063,1.5590439
		C8.3778343,105.0046005,9.0758152,105.7025757,9.9368973,105.7025757z M9.9365644,102.7262039
		c0.7831984,0,1.4176483,0.6344452,1.4176483,1.4169922c0,0.7832031-0.63445,1.4176483-1.4176483,1.4176483
		c-0.7825279,0-1.4169979-0.6344452-1.4169979-1.4176483C8.5195665,103.3606491,9.1540365,102.7262039,9.9365644,102.7262039z"/>
	<path class="st2" d="M6.8483052,108.7867432c0.8610821,0,1.5590472-0.6979752,1.5590472-1.5590591
		c0-0.8610687-0.6979651-1.5590439-1.5590472-1.5590439s-1.5590634,0.6979752-1.5590634,1.5590439
		C5.2892418,108.088768,5.9872231,108.7867432,6.8483052,108.7867432z M6.8479724,105.8103714
		c0.7831979,0,1.4176478,0.6344452,1.4176478,1.4169922c0,0.7832031-0.63445,1.4176483-1.4176478,1.4176483
		c-0.7825289,0-1.4169979-0.6344452-1.4169979-1.4176483C5.4309745,106.4448166,6.0654435,105.8103714,6.8479724,105.8103714z"/>
	<path class="st2" d="M6.8483052,111.8709106c0.8610821,0,1.5590472-0.6979752,1.5590472-1.5590591
		c0-0.8610687-0.6979651-1.5590439-1.5590472-1.5590439s-1.5590634,0.6979752-1.5590634,1.5590439
		C5.2892418,111.1729355,5.9872231,111.8709106,6.8483052,111.8709106z M6.8479724,108.8945389
		c0.7831979,0,1.4176478,0.6344452,1.4176478,1.4169922c0,0.7832031-0.63445,1.4176483-1.4176478,1.4176483
		c-0.7825289,0-1.4169979-0.6344452-1.4169979-1.4176483C5.4309745,109.5289841,6.0654435,108.8945389,6.8479724,108.8945389z"/>
	<path class="st2" d="M63.7827072,32.9052124c3.2877808,0,5.9527588-2.6751709,5.9527588-5.9754639
		c0-3.3002319-2.664978-5.9754028-5.9527588-5.9754028c-3.2877197,0-5.9527588,2.6751709-5.9527588,5.9754028
		C57.8299484,30.2300415,60.4949875,32.9052124,63.7827072,32.9052124z M63.7816696,22.5360718
		c2.4279175,0,4.3947144,1.9667969,4.3947144,4.3927002c0,2.4279175-1.9667969,4.3947144-4.3947144,4.3947144
		c-2.4258423,0-4.3926392-1.9667969-4.3926392-4.3947144C59.3890305,24.5028687,61.3558273,22.5360718,63.7816696,22.5360718z"/>
</g>
<g id="Режим_изоляции">
	<g>
		<path class="st3" d="M25.5605469,23.6889648c-0.0483398,0.4135742-0.2011719,0.7329102-0.4580078,0.9575195
			s-0.5981445,0.3369141-1.0244141,0.3369141c-0.4619141,0-0.8320313-0.1655273-1.1103516-0.4970703
			c-0.2783203-0.3310547-0.4179688-0.7739258-0.4179688-1.3291016V22.78125c0-0.3632813,0.0649414-0.6831055,0.1948242-0.9589844
			c0.1298828-0.2753906,0.3139648-0.4873047,0.5522461-0.6347656c0.237793-0.1479492,0.5136719-0.2216797,0.8271484-0.2216797
			c0.4150391,0,0.7480469,0.1157227,0.9990234,0.3476563c0.2504883,0.2319336,0.3964844,0.5527344,0.4375,0.9628906h-0.5185547
			c-0.0444336-0.3125-0.1416016-0.5385742-0.2910156-0.6787109s-0.3583984-0.2099609-0.6269531-0.2099609
			c-0.3295898,0-0.5878906,0.121582-0.7749023,0.3652344s-0.2807617,0.590332-0.2807617,1.0400391v0.3793945
			c0,0.4243164,0.0888672,0.762207,0.265625,1.0131836c0.1777344,0.2509766,0.425293,0.3759766,0.7441406,0.3759766
			c0.2866211,0,0.5063477-0.0644531,0.6591797-0.1943359c0.1533203-0.1298828,0.2548828-0.355957,0.3046875-0.6782227H25.5605469z"
			/>
		<path class="st3" d="M26.2324219,24.9296875v-2.9057617h1.1328125c0.3867188,0,0.6835938,0.0673828,0.890625,0.2026367
			c0.206543,0.1352539,0.3100586,0.3334961,0.3100586,0.5947266c0,0.1347656-0.0405273,0.2558594-0.1206055,0.3642578
			c-0.0810547,0.1083984-0.199707,0.190918-0.3574219,0.2480469c0.175293,0.0415039,0.3164063,0.1220703,0.4228516,0.2421875
			c0.1064453,0.1196289,0.1601563,0.2626953,0.1601563,0.4296875c0,0.2666016-0.0981445,0.4707031-0.2944336,0.6123047
			c-0.1958008,0.1411133-0.4731445,0.2119141-0.8310547,0.2119141H26.2324219z M26.7290039,23.2568359h0.6420898
			c0.465332,0,0.6982422-0.1362305,0.6982422-0.4082031c0-0.2724609-0.2207031-0.4130859-0.6611328-0.421875h-0.6791992V23.2568359z
			 M26.7290039,23.6542969v0.875h0.8217773c0.2075195,0,0.362793-0.0380859,0.4658203-0.1152344
			s0.1542969-0.1855469,0.1542969-0.3251953c0-0.2900391-0.2128906-0.4345703-0.6386719-0.4345703H26.7290039z"/>
		<path class="st3" d="M30.534668,24.9833984c-0.394043,0-0.7148438-0.1293945-0.9619141-0.3881836
			s-0.3701172-0.6044922-0.3701172-1.0375977v-0.0917969c0-0.2880859,0.0546875-0.5454102,0.1650391-0.7719727
			c0.1098633-0.2265625,0.2641602-0.4038086,0.4619141-0.5317383s0.4121094-0.1918945,0.6430664-0.1918945
			c0.3779297,0,0.6713867,0.1245117,0.8808594,0.3735352c0.2094727,0.2485352,0.3139648,0.6049805,0.3139648,1.0683594v0.2070313
			h-1.9682617c0.0073242,0.2866211,0.0908203,0.5180664,0.2509766,0.6943359s0.3637695,0.2646484,0.6108398,0.2646484
			c0.1757813,0,0.3242188-0.0361328,0.4462891-0.1074219c0.121582-0.0717773,0.2280273-0.1669922,0.3193359-0.2851563
			l0.3037109,0.2363281C31.3867188,24.7963867,31.0214844,24.9833984,30.534668,24.9833984z M30.4726563,22.378418
			c-0.2006836,0-0.3686523,0.0727539-0.5048828,0.21875s-0.2202148,0.3505859-0.2524414,0.6137695h1.4555664v-0.0375977
			c-0.0141602-0.2524414-0.0825195-0.4482422-0.2041016-0.5869141S30.6801758,22.378418,30.4726563,22.378418z"/>
		<path class="st3" d="M34.3720703,22.4267578h-0.9746094v2.5029297h-0.4970703v-2.5029297h-0.9560547v-0.402832h2.4277344
			V22.4267578z"/>
		<path class="st3" d="M34.6401367,23.4501953c0-0.2851563,0.0561523-0.5410156,0.1679688-0.7685547
			c0.1118164-0.2270508,0.2675781-0.4023438,0.4672852-0.5263672c0.199707-0.1230469,0.4277344-0.1850586,0.6835938-0.1850586
			c0.3955078,0,0.7158203,0.137207,0.9599609,0.4106445c0.2451172,0.2744141,0.3671875,0.6386719,0.3671875,1.0932617v0.034668
			c0,0.2832031-0.0546875,0.5371094-0.1630859,0.7617188s-0.2631836,0.3994141-0.4643555,0.5249023
			c-0.2016602,0.1254883-0.4331055,0.1879883-0.6943359,0.1879883c-0.394043,0-0.7128906-0.1367188-0.9575195-0.4111328
			c-0.2441406-0.2734375-0.3666992-0.6362305-0.3666992-1.0874023V23.4501953z M35.1401367,23.5087891
			c0,0.3222656,0.074707,0.5810547,0.2241211,0.7763672s0.3496094,0.2929688,0.6000977,0.2929688
			c0.2524414,0,0.453125-0.0991211,0.6015625-0.296875s0.2226563-0.4750977,0.2226563-0.8310547
			c0-0.3188477-0.0751953-0.5771484-0.2265625-0.7749023s-0.3525391-0.296875-0.6030273-0.296875
			c-0.2451172,0-0.4428711,0.0976563-0.5932617,0.2924805C35.215332,22.8662109,35.1401367,23.1455078,35.1401367,23.5087891z"/>
		<path class="st3" d="M37.6914063,24.5244141l0.171875-0.2124023c0.1933594-0.2504883,0.3037109-0.6264648,0.3300781-1.1279297
			l0.0458984-1.1601563h1.8720703v2.5004883h0.3730469v1.2592773h-0.4970703v-0.8540039h-2.0273438v0.8540039h-0.4970703
			l0.0029297-1.2592773H37.6914063z M38.2792969,24.5244141h1.3349609v-2.0410156h-0.8945313l-0.0292969,0.6923828
			C38.6601563,23.7543945,38.5234375,24.2036133,38.2792969,24.5244141z"/>
		<path class="st3" d="M42.8720703,22.0239258h0.4970703v2.9057617h-0.4970703v-2.1191406l-1.3398438,2.1191406h-0.4970703
			v-2.9057617h0.4970703v2.121582L42.8720703,22.0239258z"/>
		<path class="st3" d="M44.0341797,23.4501953c0-0.2851563,0.0566406-0.5410156,0.1679688-0.7685547
			c0.1123047-0.2270508,0.2675781-0.4023438,0.4677734-0.5263672c0.1992188-0.1230469,0.4277344-0.1850586,0.6835938-0.1850586
			c0.3955078,0,0.7158203,0.137207,0.9599609,0.4106445c0.2441406,0.2744141,0.3662109,0.6386719,0.3662109,1.0932617v0.034668
			c0,0.2832031-0.0537109,0.5371094-0.1621094,0.7617188s-0.2636719,0.3994141-0.4648438,0.5249023
			s-0.4326172,0.1879883-0.6943359,0.1879883c-0.3935547,0-0.7128906-0.1367188-0.9570313-0.4111328
			c-0.2441406-0.2734375-0.3671875-0.6362305-0.3671875-1.0874023V23.4501953z M44.5341797,23.5087891
			c0,0.3222656,0.0751953,0.5810547,0.2246094,0.7763672s0.3496094,0.2929688,0.5996094,0.2929688
			c0.2529297,0,0.453125-0.0991211,0.6015625-0.296875s0.2226563-0.4750977,0.2226563-0.8310547
			c0-0.3188477-0.0751953-0.5771484-0.2265625-0.7749023s-0.3525391-0.296875-0.6025391-0.296875
			c-0.2451172,0-0.4433594,0.0976563-0.59375,0.2924805C44.609375,22.8662109,44.5341797,23.1455078,44.5341797,23.5087891z"/>
		<path class="st3" d="M47.0849609,24.5244141l0.171875-0.2124023c0.1933594-0.2504883,0.3046875-0.6264648,0.3310547-1.1279297
			l0.0458984-1.1601563h1.8710938v2.5004883h0.3730469v1.2592773h-0.4960938v-0.8540039h-2.0273438v0.8540039h-0.4970703
			l0.0029297-1.2592773H47.0849609z M47.6738281,24.5244141h1.3349609v-2.0410156h-0.8945313l-0.0292969,0.6923828
			C48.0537109,23.7543945,47.9169922,24.2036133,47.6738281,24.5244141z"/>
	</g>
	<g>
		<g id="XMLID_6_">
			<g>
				<rect x="34.0840073" y="38.2086487" class="st4" width="3.662437" height="8.5589418"/>
			</g>
			<g>
			</g>
		</g>
		<g id="XMLID_18_">
			<g>
				<rect x="31.0325737" y="41.8124161" class="st2" width="2.9478152" height="1.6072793"/>
			</g>
			<g>
			</g>
		</g>
		<g id="XMLID_16_">
			<g>
				<rect x="37.7482338" y="39.0050812" class="st2" width="3.5123663" height="1.6811564"/>
			</g>
			<g>
			</g>
		</g>
		<g id="XMLID_17_">
			<g>
				<rect x="37.7482338" y="44.493618" class="st2" width="3.5123663" height="1.6811564"/>
			</g>
			<g>
			</g>
		</g>
		<g>
			<path class="st5" d="M36.1396484,44.4296875c0.1845703,0,0.3359375,0.0610352,0.4521484,0.184082
				c0.1171875,0.1225586,0.1757813,0.2729492,0.1757813,0.4511719c0,0.090332-0.0136719,0.1723633-0.0419922,0.246582
				c-0.0273438,0.0737305-0.0683594,0.1391602-0.1230469,0.1958008c-0.0673828,0.0708008-0.1572266,0.125-0.2685547,0.1630859
				s-0.2460938,0.0571289-0.4033203,0.0571289c-0.1611328,0-0.3037109-0.0170898-0.4287109-0.0522461
				c-0.1240234-0.034668-0.2353516-0.090332-0.3320313-0.1669922c-0.0917969-0.0722656-0.1640625-0.1650391-0.2158203-0.2792969
				s-0.0771484-0.2470703-0.0771484-0.3994141c0-0.0483398,0.0019531-0.0888672,0.0058594-0.121582
				c0.0039063-0.0332031,0.0117188-0.0664063,0.0224609-0.1000977h0.2324219v0.0126953
				c-0.0117188,0.0229492-0.0234375,0.0576172-0.0341797,0.1040039s-0.0166016,0.09375-0.0166016,0.1420898
				c0,0.1767578,0.0546875,0.3173828,0.1640625,0.4223633c0.109375,0.1054688,0.2578125,0.1665039,0.4443359,0.1835938
				c-0.0419922-0.0688477-0.0732422-0.1367188-0.0947266-0.2036133s-0.0322266-0.1445313-0.0322266-0.2324219
				c0-0.078125,0.0068359-0.1464844,0.0214844-0.2060547c0.0136719-0.0595703,0.0429688-0.1206055,0.0859375-0.1831055
				c0.0498047-0.0722656,0.1123047-0.1264648,0.1875-0.1630859C35.9394531,44.4477539,36.03125,44.4296875,36.1396484,44.4296875z
				 M36.1494141,44.6796875c-0.0761719,0-0.1386719,0.0112305-0.1884766,0.0336914
				c-0.0488281,0.0224609-0.0927734,0.0595703-0.1289063,0.1113281c-0.0263672,0.0380859-0.0429688,0.0795898-0.0517578,0.1259766
				c-0.0078125,0.0458984-0.0117188,0.09375-0.0117188,0.144043c0,0.0698242,0.0078125,0.1347656,0.0244141,0.1943359
				c0.015625,0.0600586,0.0410156,0.121582,0.0751953,0.1850586c0.0185547,0.0014648,0.0351563,0.0029297,0.0517578,0.003418
				c0.0175781,0.0009766,0.0380859,0.0014648,0.0634766,0.0014648c0.1289063,0,0.2304688-0.0131836,0.3046875-0.0400391
				s0.1328125-0.0634766,0.1767578-0.1103516C36.5,45.2910156,36.5263672,45.25,36.5429688,45.2060547
				s0.0253906-0.0917969,0.0253906-0.1435547c0-0.1191406-0.0361328-0.2124023-0.1083984-0.2807617
				S36.2841797,44.6796875,36.1494141,44.6796875z"/>
			<path class="st5" d="M36.1396484,42.8261719c0.1845703,0,0.3359375,0.0610352,0.4521484,0.184082
				c0.1171875,0.1225586,0.1757813,0.2729492,0.1757813,0.4511719c0,0.090332-0.0136719,0.1723633-0.0419922,0.246582
				c-0.0273438,0.0737305-0.0683594,0.1391602-0.1230469,0.1958008c-0.0673828,0.0708008-0.1572266,0.125-0.2685547,0.1630859
				s-0.2460938,0.0571289-0.4033203,0.0571289c-0.1611328,0-0.3037109-0.0170898-0.4287109-0.0522461
				c-0.1240234-0.034668-0.2353516-0.090332-0.3320313-0.1669922c-0.0917969-0.0722656-0.1640625-0.1650391-0.2158203-0.2792969
				s-0.0771484-0.2470703-0.0771484-0.3994141c0-0.0483398,0.0019531-0.0888672,0.0058594-0.121582
				c0.0039063-0.0332031,0.0117188-0.0664063,0.0224609-0.1000977h0.2324219v0.0126953
				c-0.0117188,0.0229492-0.0234375,0.0576172-0.0341797,0.1040039s-0.0166016,0.09375-0.0166016,0.1420898
				c0,0.1767578,0.0546875,0.3173828,0.1640625,0.4223633c0.109375,0.1054688,0.2578125,0.1665039,0.4443359,0.1835938
				c-0.0419922-0.0688477-0.0732422-0.1367188-0.0947266-0.2036133s-0.0322266-0.1445313-0.0322266-0.2324219
				c0-0.078125,0.0068359-0.1464844,0.0214844-0.2060547c0.0136719-0.0595703,0.0429688-0.1206055,0.0859375-0.1831055
				c0.0498047-0.0722656,0.1123047-0.1264648,0.1875-0.1630859C35.9394531,42.8442383,36.03125,42.8261719,36.1396484,42.8261719z
				 M36.1494141,43.0761719c-0.0761719,0-0.1386719,0.0112305-0.1884766,0.0336914
				c-0.0488281,0.0224609-0.0927734,0.0595703-0.1289063,0.1113281c-0.0263672,0.0380859-0.0429688,0.0795898-0.0517578,0.1259766
				c-0.0078125,0.0458984-0.0117188,0.09375-0.0117188,0.144043c0,0.0698242,0.0078125,0.1347656,0.0244141,0.1943359
				c0.015625,0.0600586,0.0410156,0.121582,0.0751953,0.1850586c0.0185547,0.0014648,0.0351563,0.0029297,0.0517578,0.003418
				C35.9375,43.875,35.9580078,43.8754883,35.9833984,43.8754883c0.1289063,0,0.2304688-0.0131836,0.3046875-0.0400391
				s0.1328125-0.0634766,0.1767578-0.1103516C36.5,43.6875,36.5263672,43.6464844,36.5429688,43.6025391
				s0.0253906-0.0917969,0.0253906-0.1435547c0-0.1191406-0.0361328-0.2124023-0.1083984-0.2807617
				S36.2841797,43.0761719,36.1494141,43.0761719z"/>
			<path class="st5" d="M36.7294922,41.2495117v1.2416992h-0.2548828c-0.0732422-0.0864258-0.1464844-0.1728516-0.2197266-0.2592773
				c-0.0742188-0.0869141-0.1464844-0.1674805-0.21875-0.2421875c-0.1513672-0.1577148-0.2724609-0.265625-0.3613281-0.3237305
				c-0.0888672-0.0585938-0.1855469-0.0874023-0.2890625-0.0874023c-0.09375,0-0.1679688,0.03125-0.2216797,0.0942383
				c-0.0527344,0.0625-0.0800781,0.1503906-0.0800781,0.2626953c0,0.074707,0.0136719,0.1557617,0.0390625,0.2426758
				c0.0263672,0.0869141,0.0664063,0.171875,0.1201172,0.2548828v0.0126953h-0.2568359
				c-0.0283203-0.0585938-0.0537109-0.1362305-0.078125-0.2338867c-0.0234375-0.097168-0.0351563-0.1914063-0.0351563-0.2822266
				c0-0.1884766,0.0449219-0.3354492,0.1347656-0.4423828s0.2119141-0.1601563,0.3662109-0.1601563
				c0.0693359,0,0.1337891,0.0087891,0.1933594,0.0263672s0.1162109,0.0439453,0.1708984,0.078125
				c0.0498047,0.0322266,0.0996094,0.0698242,0.1484375,0.112793s0.1035156,0.0957031,0.1621094,0.1572266
				c0.0859375,0.0878906,0.1689453,0.1787109,0.2490234,0.2719727c0.0800781,0.09375,0.1542969,0.1811523,0.2226563,0.2626953
				v-0.9868164H36.7294922z"/>
			<path class="st5" d="M36.7294922,39.3652344v0.3164063l-0.8095703,0.7255859l0.1923828,0.1821289h0.6171875v0.2441406h-1.8183594
				v-0.2441406h0.9492188l-0.9492188-0.8901367v-0.2958984l0.8544922,0.8193359L36.7294922,39.3652344z"/>
		</g>
	</g>
	<g id="ГРУППА_1_">
		<g>
			<polygon class="st6" points="27.6775894,44.364769 27.6775894,47.8024292 23.4221115,47.8024292 23.4221115,44.364769 
				23.7318916,44.364769 23.7318916,45.069294 27.3377171,45.069294 27.3377171,44.364769 			"/>
			<polygon class="st6" points="27.6368752,37.2363129 27.6368752,40.6739731 27.3377171,40.6739731 27.3377171,39.9074936 
				23.7318916,39.9074936 23.7318916,40.6739731 23.3813992,40.6739731 23.3813992,37.2363129 			"/>
			<rect x="23.7318916" y="44.364769" class="st7" width="3.6058266" height="0.7045258"/>
			<rect x="23.7318916" y="40.6739731" class="st7" width="3.6058266" height="3.6907945"/>
			<rect x="23.7318916" y="39.9074936" class="st7" width="3.6058266" height="0.7664815"/>
		</g>
		<g>
		</g>
	</g>
	<g id="ГРУППА_3_">
		<g>
			<polygon class="st6" points="21.4611378,44.364769 21.4611378,47.8024292 17.2056599,47.8024292 17.2056599,44.364769 
				17.51544,44.364769 17.51544,45.069294 21.1212654,45.069294 21.1212654,44.364769 			"/>
			<polygon class="st6" points="21.4204235,37.2363129 21.4204235,40.6739731 21.1212654,40.6739731 21.1212654,39.9074936 
				17.51544,39.9074936 17.51544,40.6739731 17.1649475,40.6739731 17.1649475,37.2363129 			"/>
			<rect x="17.51544" y="44.364769" class="st7" width="3.6058266" height="0.7045258"/>
			<rect x="17.51544" y="40.6739731" class="st7" width="3.6058266" height="3.6907945"/>
			<rect x="17.51544" y="39.9074936" class="st7" width="3.6058266" height="0.7664815"/>
		</g>
		<g>
		</g>
	</g>
	<g>
		<g id="XMLID_3_">
			<g>
				<rect x="10.9885874" y="37.237278" class="st6" width="4.255477" height="3.4358907"/>
			</g>
			<g>
			</g>
		</g>
		<g id="XMLID_2_">
			<g>
				<rect x="11.0293007" y="44.3657341" class="st6" width="4.255477" height="3.4376609"/>
			</g>
			<g>
			</g>
		</g>
		<g id="XMLID_1_">
			<g>
				<rect x="11.3284588" y="39.9687386" class="st4" width="3.6058266" height="5.1633434"/>
			</g>
			<g>
			</g>
		</g>
		<g>
			<path class="st5" d="M12.5874023,41.9145508v-0.6967773H12.71875v0.2680664h0.862793v-0.2680664h0.1171875
				c0,0.0361328,0.003418,0.0751953,0.0092773,0.1166992s0.0146484,0.0727539,0.0263672,0.0942383
				c0.0141602,0.0263672,0.0327148,0.0473633,0.0546875,0.0625c0.0224609,0.015625,0.0522461,0.0244141,0.0898438,0.0263672
				v0.1342773H12.71875v0.2626953H12.5874023z"/>
			<path class="st5" d="M13.2314453,42.9345703c-0.230957,0-0.4008789-0.0361328-0.5087891-0.1083984
				s-0.1621094-0.1845703-0.1621094-0.3369141c0-0.1542969,0.0546875-0.2670898,0.1640625-0.3383789
				c0.1098633-0.0712891,0.277832-0.1064453,0.5048828-0.1064453c0.2290039,0,0.3979492,0.0356445,0.5068359,0.1079102
				c0.109375,0.0717773,0.1640625,0.184082,0.1640625,0.3369141c0,0.1542969-0.0556641,0.2670898-0.1665039,0.3383789
				S13.4555664,42.9345703,13.2314453,42.9345703z M12.8388672,42.7070313
				c0.046875,0.0205078,0.1015625,0.0341797,0.1645508,0.0410156c0.0634766,0.0073242,0.1391602,0.0107422,0.2280273,0.0107422
				c0.0874023,0,0.1635742-0.003418,0.2280273-0.0107422c0.0644531-0.0068359,0.1191406-0.0209961,0.1640625-0.0419922
				c0.0444336-0.0200195,0.078125-0.0473633,0.1005859-0.0825195c0.0224609-0.034668,0.0336914-0.0795898,0.0336914-0.1342773
				c0-0.0541992-0.0112305-0.0991211-0.0336914-0.1342773c-0.0224609-0.0356445-0.0566406-0.0634766-0.1020508-0.0844727
				c-0.0424805-0.0195313-0.0981445-0.0327148-0.1669922-0.0400391c-0.0683594-0.0073242-0.1435547-0.0107422-0.2255859-0.0107422
				c-0.0898438,0-0.1650391,0.0029297-0.2255859,0.0092773s-0.1147461,0.0200195-0.1625977,0.0410156
				c-0.0449219,0.0185547-0.0791016,0.0458984-0.1025391,0.0805664c-0.0239258,0.034668-0.0356445,0.0810547-0.0356445,0.1386719
				c0,0.0541992,0.0112305,0.0991211,0.0336914,0.1347656S12.793457,42.6875,12.8388672,42.7070313z"/>
			<path class="st5" d="M12.5874023,43.8847656v-0.8710938h0.1806641c0.0517578,0.0605469,0.1035156,0.1210938,0.1557617,0.1821289
				c0.0517578,0.0605469,0.1030273,0.1171875,0.1542969,0.1694336c0.1074219,0.1108398,0.1923828,0.1865234,0.2558594,0.2275391
				c0.0629883,0.0410156,0.1308594,0.0615234,0.2041016,0.0615234c0.0668945,0,0.1191406-0.0219727,0.1567383-0.0664063
				c0.0380859-0.0439453,0.0566406-0.1054688,0.0566406-0.1845703c0-0.0522461-0.0087891-0.1088867-0.0273438-0.1699219
				s-0.046875-0.1210938-0.0849609-0.1791992v-0.0087891h0.1816406c0.0200195,0.0410156,0.0385742,0.0957031,0.0551758,0.1640625
				c0.0170898,0.0683594,0.0253906,0.1342773,0.0253906,0.1982422c0,0.1318359-0.0322266,0.2353516-0.0957031,0.3105469
				c-0.0634766,0.074707-0.1499023,0.1123047-0.2587891,0.1123047c-0.0488281,0-0.0947266-0.0063477-0.137207-0.0185547
				c-0.0419922-0.0126953-0.0825195-0.0307617-0.1206055-0.0551758c-0.0356445-0.0224609-0.0708008-0.0488281-0.1054688-0.0791016
				c-0.0341797-0.0302734-0.0727539-0.0668945-0.1147461-0.1098633c-0.0605469-0.0620117-0.1191406-0.1254883-0.1757813-0.1914063
				c-0.0566406-0.0654297-0.109375-0.1269531-0.1577148-0.184082v0.6923828H12.5874023z"/>
		</g>
	</g>
	<g id="ГРУППА_2_">
		<g>
			<polygon class="st6" points="44.6141052,40.6746025 44.6141052,37.2369423 48.8695831,37.2369423 48.8695831,40.6746025 
				48.559803,40.6746025 48.559803,39.9700775 44.9539795,39.9700775 44.9539795,40.6746025 			"/>
			<polygon class="st6" points="44.6548195,47.8030586 44.6548195,44.3653984 44.9539795,44.3653984 44.9539795,45.1318779 
				48.559803,45.1318779 48.559803,44.3653984 48.9102974,44.3653984 48.9102974,47.8030586 			"/>
			<rect x="44.9539795" y="39.9700775" class="st7" width="3.6058266" height="0.7045258"/>
			<rect x="44.9539795" y="40.6746025" class="st7" width="3.6058266" height="3.6907945"/>
			<rect x="44.9539795" y="44.3653984" class="st7" width="3.6058266" height="0.7664815"/>
		</g>
		<g>
		</g>
	</g>
	<g>
		<g id="XMLID_35_">
			<g>
				<rect x="50.8313255" y="37.237278" class="st6" width="4.255477" height="3.4358907"/>
			</g>
			<g>
			</g>
		</g>
		<g id="XMLID_34_">
			<g>
				<rect x="50.8720398" y="44.3657341" class="st6" width="4.255477" height="3.4376609"/>
			</g>
			<g>
			</g>
		</g>
		<g id="XMLID_33_">
			<g>
				<rect x="51.171196" y="39.9687386" class="st4" width="3.6058266" height="5.1633434"/>
			</g>
			<g>
			</g>
		</g>
		<g>
			<path class="st5" d="M52.4296875,41.9760742v-0.6967773h0.1308594v0.2680664h0.8632813v-0.2680664h0.1171875
				c0,0.0361328,0.0029297,0.0751953,0.0087891,0.1166992s0.0146484,0.0727539,0.0263672,0.0942383
				c0.0136719,0.0263672,0.0332031,0.0473633,0.0546875,0.0625c0.0224609,0.015625,0.0527344,0.0244141,0.0898438,0.0263672
				v0.1342773h-1.1601563v0.2626953H52.4296875z"/>
			<path class="st5" d="M53.0732422,42.9960938c-0.2314453,0-0.4013672-0.0361328-0.5087891-0.1083984
				s-0.1621094-0.1845703-0.1621094-0.3369141c0-0.1542969,0.0546875-0.2670898,0.1640625-0.3383789
				s0.2773438-0.1064453,0.5048828-0.1064453c0.2294922,0,0.3974609,0.0356445,0.5068359,0.1079102
				c0.109375,0.0717773,0.1640625,0.184082,0.1640625,0.3369141c0,0.1542969-0.0556641,0.2670898-0.1660156,0.3383789
				C53.4648438,42.9604492,53.296875,42.9960938,53.0732422,42.9960938z M52.6806641,42.7685547
				c0.046875,0.0205078,0.1015625,0.0341797,0.1650391,0.0410156c0.0625,0.0073242,0.1386719,0.0107422,0.2275391,0.0107422
				c0.0869141,0,0.1630859-0.003418,0.2275391-0.0107422c0.0644531-0.0068359,0.1191406-0.0209961,0.1640625-0.0419922
				c0.0449219-0.0200195,0.078125-0.0473633,0.1015625-0.0825195c0.0214844-0.034668,0.0332031-0.0795898,0.0332031-0.1342773
				c0-0.0541992-0.0117188-0.0991211-0.0332031-0.1342773c-0.0234375-0.0356445-0.0566406-0.0634766-0.1025391-0.0844727
				c-0.0419922-0.0195313-0.0986328-0.0327148-0.1669922-0.0400391S53.1533203,42.28125,53.0712891,42.28125
				c-0.0898438,0-0.1650391,0.0029297-0.2255859,0.0092773s-0.1152344,0.0200195-0.1621094,0.0410156
				c-0.0449219,0.0185547-0.0800781,0.0458984-0.1035156,0.0805664s-0.0351563,0.0810547-0.0351563,0.1386719
				c0,0.0541992,0.0117188,0.0991211,0.0332031,0.1347656C52.6015625,42.7211914,52.6347656,42.7490234,52.6806641,42.7685547z"/>
			<path class="st5" d="M52.4296875,43.9462891v-0.8710938h0.1796875c0.0527344,0.0605469,0.1035156,0.1210938,0.15625,0.1821289
				c0.0517578,0.0605469,0.1035156,0.1171875,0.1542969,0.1694336c0.1074219,0.1108398,0.1923828,0.1865234,0.2558594,0.2275391
				c0.0625,0.0410156,0.1308594,0.0615234,0.2041016,0.0615234c0.0673828,0,0.1191406-0.0219727,0.1572266-0.0664063
				c0.0371094-0.0439453,0.0566406-0.1054688,0.0566406-0.1845703c0-0.0522461-0.0097656-0.1088867-0.0273438-0.1699219
				c-0.0195313-0.0610352-0.046875-0.1210938-0.0859375-0.1791992v-0.0087891h0.1816406
				c0.0205078,0.0410156,0.0390625,0.0957031,0.0556641,0.1640625s0.0253906,0.1342773,0.0253906,0.1982422
				c0,0.1318359-0.0322266,0.2353516-0.0957031,0.3105469c-0.0634766,0.074707-0.1494141,0.1123047-0.2587891,0.1123047
				c-0.0488281,0-0.0947266-0.0063477-0.1367188-0.0185547c-0.0429688-0.0126953-0.0830078-0.0307617-0.1210938-0.0551758
				c-0.0351563-0.0224609-0.0703125-0.0488281-0.1054688-0.0791016c-0.0341797-0.0302734-0.0722656-0.0668945-0.1152344-0.1098633
				c-0.0605469-0.0620117-0.1191406-0.1254883-0.1757813-0.1914063c-0.0566406-0.0654297-0.109375-0.1269531-0.1572266-0.184082
				v0.6923828H52.4296875z"/>
		</g>
	</g>
	<g>
		<g id="XMLID_28_">
			<g>
				<rect x="57.0881996" y="44.3661995" class="st6" width="4.255477" height="3.4358907"/>
			</g>
			<g>
			</g>
		</g>
		<g id="XMLID_27_">
			<g>
				<rect x="57.0474854" y="37.2359772" class="st6" width="4.255477" height="3.4376609"/>
			</g>
			<g>
			</g>
		</g>
		<g id="XMLID_26_">
			<g>
				<rect x="57.3979797" y="39.9072876" class="st4" width="3.6058266" height="5.1633434"/>
			</g>
			<g>
			</g>
		</g>
		<g>
			<path class="st5" d="M58.5058594,41.4404297v-0.6967773h0.1308594v0.2680664H59.5v-0.2680664h0.1171875
				c0,0.0361328,0.0029297,0.0751953,0.0087891,0.1166992s0.0146484,0.0727539,0.0263672,0.0942383
				c0.0136719,0.0263672,0.0332031,0.0473633,0.0546875,0.0625c0.0224609,0.015625,0.0527344,0.0244141,0.0898438,0.0263672
				v0.1342773h-1.1601563v0.2626953H58.5058594z"/>
			<path class="st5" d="M59.1494141,42.4604492c-0.2314453,0-0.4013672-0.0361328-0.5087891-0.1083984
				s-0.1621094-0.1845703-0.1621094-0.3369141c0-0.1542969,0.0546875-0.2670898,0.1640625-0.3383789
				s0.2773438-0.1064453,0.5048828-0.1064453c0.2294922,0,0.3974609,0.0356445,0.5068359,0.1079102
				c0.109375,0.0717773,0.1640625,0.184082,0.1640625,0.3369141c0,0.1542969-0.0556641,0.2670898-0.1660156,0.3383789
				C59.5410156,42.4248047,59.3730469,42.4604492,59.1494141,42.4604492z M58.7568359,42.2329102
				c0.046875,0.0205078,0.1015625,0.0341797,0.1650391,0.0410156c0.0625,0.0073242,0.1386719,0.0107422,0.2275391,0.0107422
				c0.0869141,0,0.1630859-0.003418,0.2275391-0.0107422c0.0644531-0.0068359,0.1191406-0.0209961,0.1640625-0.0419922
				c0.0449219-0.0200195,0.078125-0.0473633,0.1015625-0.0825195c0.0214844-0.034668,0.0332031-0.0795898,0.0332031-0.1342773
				c0-0.0541992-0.0117188-0.0991211-0.0332031-0.1342773c-0.0234375-0.0356445-0.0566406-0.0634766-0.1025391-0.0844727
				c-0.0419922-0.0195313-0.0986328-0.0327148-0.1669922-0.0400391s-0.1435547-0.0107422-0.2255859-0.0107422
				c-0.0898438,0-0.1650391,0.0029297-0.2255859,0.0092773s-0.1152344,0.0200195-0.1621094,0.0410156
				c-0.0449219,0.0185547-0.0800781,0.0458984-0.1035156,0.0805664s-0.0351563,0.0810547-0.0351563,0.1386719
				c0,0.0541992,0.0117188,0.0991211,0.0332031,0.1347656C58.6777344,42.1855469,58.7109375,42.2133789,58.7568359,42.2329102z"/>
			<path class="st5" d="M59.1494141,43.4091797c-0.2314453,0-0.4013672-0.0361328-0.5087891-0.1083984
				s-0.1621094-0.1845703-0.1621094-0.3369141c0-0.1542969,0.0546875-0.2670898,0.1640625-0.3383789
				s0.2773438-0.1064453,0.5048828-0.1064453c0.2294922,0,0.3974609,0.0356445,0.5068359,0.1079102
				c0.109375,0.0717773,0.1640625,0.184082,0.1640625,0.3369141c0,0.1542969-0.0556641,0.2670898-0.1660156,0.3383789
				C59.5410156,43.3735352,59.3730469,43.4091797,59.1494141,43.4091797z M58.7568359,43.1816406
				c0.046875,0.0205078,0.1015625,0.0341797,0.1650391,0.0410156c0.0625,0.0073242,0.1386719,0.0107422,0.2275391,0.0107422
				c0.0869141,0,0.1630859-0.003418,0.2275391-0.0107422c0.0644531-0.0068359,0.1191406-0.0209961,0.1640625-0.0419922
				c0.0449219-0.0200195,0.078125-0.0473633,0.1015625-0.0825195c0.0214844-0.034668,0.0332031-0.0795898,0.0332031-0.1342773
				c0-0.0541992-0.0117188-0.0991211-0.0332031-0.1342773c-0.0234375-0.0356445-0.0566406-0.0634766-0.1025391-0.0844727
				c-0.0419922-0.0195313-0.0986328-0.0327148-0.1669922-0.0400391s-0.1435547-0.0107422-0.2255859-0.0107422
				c-0.0898438,0-0.1650391,0.0029297-0.2255859,0.0092773s-0.1152344,0.0200195-0.1621094,0.0410156
				c-0.0449219,0.0185547-0.0800781,0.0458984-0.1035156,0.0805664s-0.0351563,0.0810547-0.0351563,0.1386719
				c0,0.0541992,0.0117188,0.0991211,0.0332031,0.1347656C58.6777344,43.1342773,58.7109375,43.1621094,58.7568359,43.1816406z"/>
			<path class="st5" d="M59.125,44.2456055c-0.0253906,0.027832-0.0556641,0.0507813-0.09375,0.0683594
				c-0.0371094,0.0180664-0.0859375,0.0268555-0.1445313,0.0268555s-0.1132813-0.0107422-0.1621094-0.0317383
				c-0.0488281-0.0214844-0.0917969-0.0512695-0.1269531-0.0898438c-0.0410156-0.043457-0.0703125-0.0942383-0.0898438-0.152832
				s-0.0292969-0.1225586-0.0292969-0.1923828c0-0.0712891,0.0087891-0.1416016,0.0253906-0.2109375
				c0.0175781-0.0688477,0.0351563-0.1259766,0.0566406-0.1699219h0.1796875v0.0126953
				c-0.0322266,0.0488281-0.0585938,0.1064453-0.0800781,0.1728516s-0.0322266,0.1303711-0.0322266,0.1918945
				c0,0.0366211,0.0068359,0.0751953,0.0185547,0.1157227c0.0117188,0.0410156,0.0292969,0.0742188,0.0527344,0.0996094
				c0.0253906,0.0263672,0.0537109,0.0463867,0.0839844,0.059082c0.03125,0.0131836,0.0703125,0.0195313,0.1162109,0.0195313
				s0.0849609-0.0073242,0.1142578-0.0219727c0.03125-0.0146484,0.0546875-0.0351563,0.0722656-0.0610352
				s0.0292969-0.0571289,0.0361328-0.0942383c0.0068359-0.0366211,0.0097656-0.0766602,0.0097656-0.1191406v-0.0776367h0.1435547
				v0.0600586c0,0.0878906,0.0185547,0.1577148,0.0546875,0.2099609c0.0371094,0.0522461,0.0898438,0.078125,0.1601563,0.078125
				c0.03125,0,0.0585938-0.0068359,0.0820313-0.0200195s0.0429688-0.0317383,0.0576172-0.0551758
				c0.0146484-0.0249023,0.0253906-0.0512695,0.03125-0.0795898c0.0048828-0.0283203,0.0087891-0.0600586,0.0087891-0.0957031
				c0-0.0551758-0.0097656-0.1132813-0.0292969-0.1748047s-0.0478516-0.1196289-0.0839844-0.1748047v-0.0083008h0.1816406
				c0.0195313,0.0410156,0.0390625,0.0952148,0.0546875,0.1635742c0.0175781,0.0683594,0.0263672,0.1342773,0.0263672,0.1982422
				c0,0.0629883-0.0058594,0.1181641-0.0175781,0.1660156c-0.0107422,0.0478516-0.0302734,0.0913086-0.0556641,0.1298828
				c-0.0273438,0.0415039-0.0605469,0.0727539-0.0996094,0.0942383c-0.0390625,0.0209961-0.0849609,0.0317383-0.1376953,0.0317383
				c-0.0712891,0-0.1337891-0.0249023-0.1865234-0.0756836c-0.0537109-0.050293-0.0878906-0.1098633-0.1015625-0.1782227h-0.0117188
				c-0.0048828,0.0273438-0.0136719,0.059082-0.0292969,0.0952148C59.1660156,44.190918,59.1464844,44.2211914,59.125,44.2456055z"
				/>
		</g>
	</g>
	<g>
		<g id="XMLID_31_">
			<g>
				<rect x="18.2874603" y="64.8755417" class="st6" width="3.4358907" height="4.255477"/>
			</g>
			<g>
			</g>
		</g>
		<g id="XMLID_30_">
			<g>
				<rect x="11.1572351" y="64.9162521" class="st6" width="3.4376609" height="4.255477"/>
			</g>
			<g>
			</g>
		</g>
		<g id="XMLID_29_">
			<g>
				<rect x="13.8285484" y="65.215416" class="st4" width="5.1633434" height="3.6058266"/>
			</g>
			<g>
			</g>
		</g>
		<g>
			<path class="st5" d="M15.4643555,67.3515625h-0.1914063v0.3623047h-0.1660156v-0.3623047h-0.6162109v-0.1992188
				l0.6235352-0.7255859h0.1586914v0.7861328h0.1914063V67.3515625z M15.1069336,67.2128906v-0.5800781l-0.4985352,0.5800781
				H15.1069336z"/>
			<path class="st5" d="M16.3862305,66.6191406l-0.5825195,1.0947266h-0.1850586l0.6201172-1.1357422h-0.7329102v-0.1513672
				h0.8803711V66.6191406z"/>
			<path class="st5" d="M17.3300781,67.0693359c0,0.2314453-0.0361328,0.4013672-0.1083984,0.5087891
				c-0.0722656,0.1083984-0.1845703,0.1621094-0.3369141,0.1621094c-0.1542969,0-0.2670898-0.0546875-0.3383789-0.1640625
				s-0.1064453-0.2773438-0.1064453-0.5048828c0-0.2285156,0.0356445-0.3974609,0.1079102-0.5068359
				c0.0717773-0.109375,0.184082-0.1640625,0.3369141-0.1640625c0.1542969,0,0.2670898,0.0556641,0.3383789,0.1669922
				C17.2944336,66.6777344,17.3300781,66.8457031,17.3300781,67.0693359z M17.1025391,67.4619141
				c0.0205078-0.046875,0.0341797-0.1015625,0.0410156-0.1640625c0.0073242-0.0634766,0.0107422-0.1396484,0.0107422-0.2285156
				c0-0.0869141-0.003418-0.1630859-0.0107422-0.2275391c-0.0068359-0.0644531-0.0209961-0.1191406-0.0419922-0.1640625
				c-0.0200195-0.0449219-0.0473633-0.078125-0.0825195-0.1005859c-0.034668-0.0224609-0.0795898-0.0341797-0.1342773-0.0341797
				c-0.0541992,0-0.0991211,0.0117188-0.1342773,0.0341797c-0.0356445,0.0224609-0.0634766,0.0566406-0.0844727,0.1015625
				c-0.0195313,0.0429688-0.0327148,0.0986328-0.0400391,0.1669922s-0.0107422,0.1435547-0.0107422,0.2255859
				c0,0.0898438,0.0029297,0.1650391,0.0092773,0.2255859s0.0200195,0.1152344,0.0410156,0.1630859
				c0.0185547,0.0449219,0.0458984,0.0791016,0.0805664,0.1025391s0.0810547,0.0351563,0.1386719,0.0351563
				c0.0541992,0,0.0991211-0.0107422,0.1347656-0.0332031S17.0830078,67.5078125,17.1025391,67.4619141z"/>
			<path class="st5" d="M18.2783203,67.0693359c0,0.2314453-0.0361328,0.4013672-0.1083984,0.5087891
				c-0.0722656,0.1083984-0.1845703,0.1621094-0.3369141,0.1621094c-0.1542969,0-0.2670898-0.0546875-0.3383789-0.1640625
				s-0.1064453-0.2773438-0.1064453-0.5048828c0-0.2285156,0.0356445-0.3974609,0.1079102-0.5068359
				c0.0717773-0.109375,0.184082-0.1640625,0.3369141-0.1640625c0.1542969,0,0.2670898,0.0556641,0.3383789,0.1669922
				C18.2426758,66.6777344,18.2783203,66.8457031,18.2783203,67.0693359z M18.0507813,67.4619141
				c0.0205078-0.046875,0.0341797-0.1015625,0.0410156-0.1640625c0.0073242-0.0634766,0.0107422-0.1396484,0.0107422-0.2285156
				c0-0.0869141-0.003418-0.1630859-0.0107422-0.2275391c-0.0068359-0.0644531-0.0209961-0.1191406-0.0419922-0.1640625
				c-0.0200195-0.0449219-0.0473633-0.078125-0.0825195-0.1005859c-0.034668-0.0224609-0.0795898-0.0341797-0.1342773-0.0341797
				c-0.0541992,0-0.0991211,0.0117188-0.1342773,0.0341797c-0.0356445,0.0224609-0.0634766,0.0566406-0.0844727,0.1015625
				c-0.0195313,0.0429688-0.0327148,0.0986328-0.0400391,0.1669922s-0.0107422,0.1435547-0.0107422,0.2255859
				c0,0.0898438,0.0029297,0.1650391,0.0092773,0.2255859s0.0200195,0.1152344,0.0410156,0.1630859
				c0.0185547,0.0449219,0.0458984,0.0791016,0.0805664,0.1025391s0.0810547,0.0351563,0.1386719,0.0351563
				c0.0541992,0,0.0991211-0.0107422,0.1347656-0.0332031S18.03125,67.5078125,18.0507813,67.4619141z"/>
		</g>
	</g>
	<g>
		<g id="XMLID_45_">
			<g>
				<rect x="18.2874603" y="55.8389359" class="st6" width="3.4358907" height="4.255477"/>
			</g>
			<g>
			</g>
		</g>
		<g id="XMLID_42_">
			<g>
				<rect x="11.1572351" y="55.8796501" class="st6" width="3.4376609" height="4.255477"/>
			</g>
			<g>
			</g>
		</g>
		<g id="XMLID_36_">
			<g>
				<rect x="13.8285484" y="56.1788063" class="st4" width="5.1633434" height="3.6058266"/>
			</g>
			<g>
			</g>
		</g>
		<g>
			<path class="st5" d="M15.4643555,58.3144531h-0.1914063v0.3623047h-0.1660156v-0.3623047h-0.6162109v-0.1987305
				l0.6235352-0.7260742h0.1586914v0.7866211h0.1914063V58.3144531z M15.1069336,58.1762695v-0.5805664l-0.4985352,0.5805664
				H15.1069336z"/>
			<path class="st5" d="M16.3862305,57.5825195l-0.5825195,1.0942383h-0.1850586l0.6201172-1.1357422h-0.7329102v-0.1513672
				h0.8803711V57.5825195z"/>
			<path class="st5" d="M17.3300781,58.0327148c0,0.230957-0.0361328,0.4008789-0.1083984,0.5087891
				s-0.1845703,0.1621094-0.3369141,0.1621094c-0.1542969,0-0.2670898-0.0546875-0.3383789-0.1640625
				c-0.0712891-0.1098633-0.1064453-0.277832-0.1064453-0.5048828c0-0.2290039,0.0356445-0.3979492,0.1079102-0.5068359
				c0.0717773-0.109375,0.184082-0.1640625,0.3369141-0.1640625c0.1542969,0,0.2670898,0.0556641,0.3383789,0.1665039
				S17.3300781,57.8085938,17.3300781,58.0327148z M17.1025391,58.425293
				c0.0205078-0.046875,0.0341797-0.1015625,0.0410156-0.1645508c0.0073242-0.0634766,0.0107422-0.1391602,0.0107422-0.2280273
				c0-0.0874023-0.003418-0.1635742-0.0107422-0.2280273c-0.0068359-0.0644531-0.0209961-0.1191406-0.0419922-0.1640625
				c-0.0200195-0.0444336-0.0473633-0.078125-0.0825195-0.1005859c-0.034668-0.0224609-0.0795898-0.0336914-0.1342773-0.0336914
				c-0.0541992,0-0.0991211,0.0112305-0.1342773,0.0336914c-0.0356445,0.0224609-0.0634766,0.0566406-0.0844727,0.1020508
				c-0.0195313,0.0424805-0.0327148,0.0981445-0.0400391,0.1669922c-0.0073242,0.0683594-0.0107422,0.1435547-0.0107422,0.2255859
				c0,0.0898438,0.0029297,0.1650391,0.0092773,0.2255859s0.0200195,0.1147461,0.0410156,0.1625977
				c0.0185547,0.0449219,0.0458984,0.0791016,0.0805664,0.1025391c0.034668,0.0239258,0.0810547,0.0356445,0.1386719,0.0356445
				c0.0541992,0,0.0991211-0.0112305,0.1347656-0.0336914S17.0830078,58.4707031,17.1025391,58.425293z"/>
			<path class="st5" d="M18.2783203,58.0327148c0,0.230957-0.0361328,0.4008789-0.1083984,0.5087891
				s-0.1845703,0.1621094-0.3369141,0.1621094c-0.1542969,0-0.2670898-0.0546875-0.3383789-0.1640625
				c-0.0712891-0.1098633-0.1064453-0.277832-0.1064453-0.5048828c0-0.2290039,0.0356445-0.3979492,0.1079102-0.5068359
				c0.0717773-0.109375,0.184082-0.1640625,0.3369141-0.1640625c0.1542969,0,0.2670898,0.0556641,0.3383789,0.1665039
				S18.2783203,57.8085938,18.2783203,58.0327148z M18.0507813,58.425293
				c0.0205078-0.046875,0.0341797-0.1015625,0.0410156-0.1645508c0.0073242-0.0634766,0.0107422-0.1391602,0.0107422-0.2280273
				c0-0.0874023-0.003418-0.1635742-0.0107422-0.2280273c-0.0068359-0.0644531-0.0209961-0.1191406-0.0419922-0.1640625
				c-0.0200195-0.0444336-0.0473633-0.078125-0.0825195-0.1005859c-0.034668-0.0224609-0.0795898-0.0336914-0.1342773-0.0336914
				c-0.0541992,0-0.0991211,0.0112305-0.1342773,0.0336914c-0.0356445,0.0224609-0.0634766,0.0566406-0.0844727,0.1020508
				c-0.0195313,0.0424805-0.0327148,0.0981445-0.0400391,0.1669922c-0.0073242,0.0683594-0.0107422,0.1435547-0.0107422,0.2255859
				c0,0.0898438,0.0029297,0.1650391,0.0092773,0.2255859s0.0200195,0.1147461,0.0410156,0.1625977
				c0.0185547,0.0449219,0.0458984,0.0791016,0.0805664,0.1025391c0.034668,0.0239258,0.0810547,0.0356445,0.1386719,0.0356445
				c0.0541992,0,0.0991211-0.0112305,0.1347656-0.0336914S18.03125,58.4707031,18.0507813,58.425293z"/>
		</g>
	</g>
	<g>
		<g id="XMLID_48_">
			<g>
				<rect x="18.2874603" y="73.9844742" class="st6" width="3.4358907" height="4.255477"/>
			</g>
			<g>
			</g>
		</g>
		<g id="XMLID_47_">
			<g>
				<rect x="11.1572351" y="74.0251846" class="st6" width="3.4376609" height="4.255477"/>
			</g>
			<g>
			</g>
		</g>
		<g id="XMLID_46_">
			<g>
				<rect x="13.8285484" y="74.3243408" class="st4" width="5.1633434" height="3.6058266"/>
			</g>
			<g>
			</g>
		</g>
		<g>
			<path class="st5" d="M15.4643555,76.4599609h-0.1914063v0.3623047h-0.1660156v-0.3623047h-0.6162109v-0.1982422
				l0.6235352-0.7265625h0.1586914v0.7871094h0.1914063V76.4599609z M15.1069336,76.3222656v-0.5810547l-0.4985352,0.5810547
				H15.1069336z"/>
			<path class="st5" d="M16.3862305,75.7285156l-0.5825195,1.09375h-0.1850586l0.6201172-1.1357422h-0.7329102v-0.1513672h0.8803711
				V75.7285156z"/>
			<path class="st5" d="M17.3300781,76.1787109c0,0.2304688-0.0361328,0.4003906-0.1083984,0.5087891
				c-0.0722656,0.1074219-0.1845703,0.1621094-0.3369141,0.1621094c-0.1542969,0-0.2670898-0.0546875-0.3383789-0.1640625
				c-0.0712891-0.1103516-0.1064453-0.2783203-0.1064453-0.5048828c0-0.2294922,0.0356445-0.3984375,0.1079102-0.5068359
				c0.0717773-0.109375,0.184082-0.1640625,0.3369141-0.1640625c0.1542969,0,0.2670898,0.0556641,0.3383789,0.1660156
				C17.2944336,75.7871094,17.3300781,75.9541016,17.3300781,76.1787109z M17.1025391,76.5712891
				c0.0205078-0.046875,0.0341797-0.1015625,0.0410156-0.1650391c0.0073242-0.0634766,0.0107422-0.1386719,0.0107422-0.2275391
				c0-0.0878906-0.003418-0.1640625-0.0107422-0.2285156c-0.0068359-0.0644531-0.0209961-0.1191406-0.0419922-0.1640625
				c-0.0200195-0.0439453-0.0473633-0.078125-0.0825195-0.1005859c-0.034668-0.0224609-0.0795898-0.0332031-0.1342773-0.0332031
				c-0.0541992,0-0.0991211,0.0107422-0.1342773,0.0332031c-0.0356445,0.0224609-0.0634766,0.0566406-0.0844727,0.1025391
				c-0.0195313,0.0419922-0.0327148,0.0976563-0.0400391,0.1669922c-0.0073242,0.0683594-0.0107422,0.1435547-0.0107422,0.2255859
				c0,0.0898438,0.0029297,0.1650391,0.0092773,0.2255859s0.0200195,0.1142578,0.0410156,0.1621094
				c0.0185547,0.0449219,0.0458984,0.0791016,0.0805664,0.1025391c0.034668,0.0244141,0.0810547,0.0361328,0.1386719,0.0361328
				c0.0541992,0,0.0991211-0.0117188,0.1347656-0.0341797S17.0830078,76.6162109,17.1025391,76.5712891z"/>
			<path class="st5" d="M18.2783203,76.1787109c0,0.2304688-0.0361328,0.4003906-0.1083984,0.5087891
				c-0.0722656,0.1074219-0.1845703,0.1621094-0.3369141,0.1621094c-0.1542969,0-0.2670898-0.0546875-0.3383789-0.1640625
				c-0.0712891-0.1103516-0.1064453-0.2783203-0.1064453-0.5048828c0-0.2294922,0.0356445-0.3984375,0.1079102-0.5068359
				c0.0717773-0.109375,0.184082-0.1640625,0.3369141-0.1640625c0.1542969,0,0.2670898,0.0556641,0.3383789,0.1660156
				C18.2426758,75.7871094,18.2783203,75.9541016,18.2783203,76.1787109z M18.0507813,76.5712891
				c0.0205078-0.046875,0.0341797-0.1015625,0.0410156-0.1650391c0.0073242-0.0634766,0.0107422-0.1386719,0.0107422-0.2275391
				c0-0.0878906-0.003418-0.1640625-0.0107422-0.2285156c-0.0068359-0.0644531-0.0209961-0.1191406-0.0419922-0.1640625
				c-0.0200195-0.0439453-0.0473633-0.078125-0.0825195-0.1005859c-0.034668-0.0224609-0.0795898-0.0332031-0.1342773-0.0332031
				c-0.0541992,0-0.0991211,0.0107422-0.1342773,0.0332031c-0.0356445,0.0224609-0.0634766,0.0566406-0.0844727,0.1025391
				c-0.0195313,0.0419922-0.0327148,0.0976563-0.0400391,0.1669922c-0.0073242,0.0683594-0.0107422,0.1435547-0.0107422,0.2255859
				c0,0.0898438,0.0029297,0.1650391,0.0092773,0.2255859s0.0200195,0.1142578,0.0410156,0.1621094
				c0.0185547,0.0449219,0.0458984,0.0791016,0.0805664,0.1025391c0.034668,0.0244141,0.0810547,0.0361328,0.1386719,0.0361328
				c0.0541992,0,0.0991211-0.0117188,0.1347656-0.0341797S18.03125,76.6162109,18.0507813,76.5712891z"/>
		</g>
	</g>
	<g>
		<path class="st8" d="M23.978426,90c0,1.2273636-1.0018463,2.2224731-2.2397385,2.2224731S19.4971447,91.2273636,19.4971447,90
			s1.0036507-2.2224731,2.2415428-2.2224731S23.978426,88.7726364,23.978426,90z"/>
		<ellipse class="st9" cx="21.7377853" cy="90" rx="1.5316002" ry="1.5185714"/>
		<path class="st8" d="M31.2067719,90c0,1.2273636-1.0018463,2.2224731-2.2397385,2.2224731S26.7254906,91.2273636,26.7254906,90
			s1.0036507-2.2224731,2.2415428-2.2224731S31.2067719,88.7726364,31.2067719,90z"/>
		<ellipse class="st9" cx="28.9661312" cy="90" rx="1.5316002" ry="1.5185714"/>
		<path class="st8" d="M38.4067726,90c0,1.2273636-1.0018463,2.2224731-2.2397385,2.2224731S33.9254913,91.2273636,33.9254913,90
			s1.0036507-2.2224731,2.2415428-2.2224731S38.4067726,88.7726364,38.4067726,90z"/>
		<ellipse class="st9" cx="36.1661301" cy="90" rx="1.5316002" ry="1.5185714"/>
		<path class="st8" d="M44.9942017,88.3710785c1.5395126,2.0229111-0.1709862,4.2713089-2.1831703,3.7840042
			c-0.7743683-0.1875381-1.4096413-0.8210831-1.5987816-1.5950623
			C40.7206535,88.5483932,42.9697151,86.8306808,44.9942017,88.3710785z"/>
		<ellipse class="st9" cx="43.3661308" cy="90" rx="1.5316002" ry="1.5185714"/>
		<path class="st8" d="M52.1942024,88.3710785c1.5395126,2.0229187-0.1709862,4.2713089-2.1831703,3.7840042
			c-0.7743721-0.1875381-1.4096413-0.8210754-1.5987854-1.5950623
			C47.9206543,88.5483932,50.1697159,86.8306808,52.1942024,88.3710785z"/>
		<ellipse class="st9" cx="50.5661316" cy="90" rx="1.5316002" ry="1.5185714"/>
	</g>
	<g id="Микроконтроллер">
		<path class="st10" d="M45.2834663,101.1529388H27c-0.1565533,0-0.2834644,0.126915-0.2834644,0.2834702v0.5054626h18.8503933
			v-0.5054626C45.5669289,101.2798538,45.4400177,101.1529388,45.2834663,101.1529388z"/>
		<path class="st10" d="M45.5669289,113.9734879H26.7165356v0.5054626c0,0.1565552,0.1269112,0.2834702,0.2834644,0.2834702
			h18.2834663c0.1565514,0,0.2834625-0.126915,0.2834625-0.2834702V113.9734879z"/>
		<g id="XMLID_32_">
			<g>
				<rect x="36.3675041" y="97.5400009" class="st11" width="1.4175662" height="2.0542536"/>
			</g>
			<g>
			</g>
		</g>
		<line class="st12" x1="37.075367" y1="98.1678619" x2="37.075367" y2="101.8631897"/>
		<g id="XMLID_44_">
			<g>
				<rect x="34.4985657" y="97.5400009" class="st11" width="1.4175662" height="2.0542536"/>
			</g>
			<g>
			</g>
		</g>
		<line class="st12" x1="35.2064285" y1="98.1678619" x2="35.2064285" y2="101.8631897"/>
		<g id="XMLID_43_">
			<g>
				<rect x="32.6296272" y="97.5400009" class="st11" width="1.4175662" height="2.0542536"/>
			</g>
			<g>
			</g>
		</g>
		<line class="st12" x1="33.3374939" y1="98.1678619" x2="33.3374939" y2="101.8631897"/>
		<g id="XMLID_37_">
			<g>
				<rect x="30.7606907" y="97.5400009" class="st11" width="1.4175662" height="2.0542536"/>
			</g>
			<g>
			</g>
		</g>
		<line class="st12" x1="31.4685555" y1="98.1678619" x2="31.4685555" y2="101.8631897"/>
		<g id="XMLID_9_">
			<g>
				<rect x="28.8917542" y="97.5400009" class="st11" width="1.4175662" height="2.0542536"/>
			</g>
			<g>
			</g>
		</g>
		<line class="st12" x1="29.599617" y1="98.1678619" x2="29.599617" y2="101.8631897"/>
		<g id="XMLID_8_">
			<g>
				<rect x="27.0228157" y="97.5400009" class="st11" width="1.4175662" height="2.0542536"/>
			</g>
			<g>
			</g>
		</g>
		<line class="st12" x1="27.7306805" y1="98.1678619" x2="27.7306805" y2="101.8631897"/>
		<line class="st13" x1="27.7306805" y1="101.8631897" x2="27.7306805" y2="101.1529388"/>
		<line class="st13" x1="29.599617" y1="101.8631897" x2="29.599617" y2="101.1529388"/>
		<line class="st13" x1="31.4685555" y1="101.8631897" x2="31.4685555" y2="101.1529388"/>
		<line class="st13" x1="33.3374939" y1="101.8631897" x2="33.3374939" y2="101.1529388"/>
		<line class="st13" x1="35.2064285" y1="101.8631897" x2="35.2064285" y2="101.1529388"/>
		<line class="st13" x1="37.075367" y1="101.8631897" x2="37.075367" y2="101.1529388"/>
		<g id="XMLID_13_">
			<g>
				<rect x="43.8432503" y="97.5400009" class="st11" width="1.4175662" height="2.0542536"/>
			</g>
			<g>
			</g>
		</g>
		<line class="st12" x1="44.5511169" y1="98.1678619" x2="44.5511169" y2="101.8631897"/>
		<g id="XMLID_12_">
			<g>
				<rect x="41.9743156" y="97.5400009" class="st11" width="1.4175662" height="2.0542536"/>
			</g>
			<g>
			</g>
		</g>
		<line class="st12" x1="42.6821785" y1="98.1678619" x2="42.6821785" y2="101.8631897"/>
		<g id="XMLID_11_">
			<g>
				<rect x="40.1053772" y="97.5400009" class="st11" width="1.4175662" height="2.0542536"/>
			</g>
			<g>
			</g>
		</g>
		<line class="st12" x1="40.8132401" y1="98.1678619" x2="40.8132401" y2="101.8631897"/>
		<g id="XMLID_10_">
			<g>
				<rect x="38.2364388" y="97.5400009" class="st11" width="1.4175662" height="2.0542536"/>
			</g>
			<g>
			</g>
		</g>
		<line class="st12" x1="38.9443054" y1="98.1678619" x2="38.9443054" y2="101.8631897"/>
		<line class="st13" x1="38.9443054" y1="101.8631897" x2="38.9443054" y2="101.1529388"/>
		<line class="st13" x1="40.8132401" y1="101.8631897" x2="40.8132401" y2="101.1529388"/>
		<line class="st13" x1="42.6821785" y1="101.8631897" x2="42.6821785" y2="101.1529388"/>
		<line class="st13" x1="44.5511169" y1="101.8631897" x2="44.5511169" y2="101.1529388"/>
		<g id="XMLID_23_">
			<g>
				<rect x="34.498394" y="116.321106" class="st11" width="1.4175662" height="2.0542536"/>
			</g>
			<g>
			</g>
		</g>
		<line class="st12" x1="35.2080994" y1="117.7474976" x2="35.2080994" y2="114.0521698"/>
		<g id="XMLID_22_">
			<g>
				<rect x="36.3673325" y="116.321106" class="st11" width="1.4175662" height="2.0542536"/>
			</g>
			<g>
			</g>
		</g>
		<line class="st12" x1="37.077034" y1="117.7474976" x2="37.077034" y2="114.0521698"/>
		<g id="XMLID_21_">
			<g>
				<rect x="38.2362709" y="116.321106" class="st11" width="1.4175662" height="2.0542536"/>
			</g>
			<g>
			</g>
		</g>
		<line class="st12" x1="38.9459724" y1="117.7474976" x2="38.9459724" y2="114.0521698"/>
		<g id="XMLID_20_">
			<g>
				<rect x="40.1052094" y="116.321106" class="st11" width="1.4175662" height="2.0542536"/>
			</g>
			<g>
			</g>
		</g>
		<line class="st12" x1="40.8149109" y1="117.7474976" x2="40.8149109" y2="114.0521698"/>
		<g id="XMLID_19_">
			<g>
				<rect x="41.974144" y="116.321106" class="st11" width="1.4175662" height="2.0542536"/>
			</g>
			<g>
			</g>
		</g>
		<line class="st12" x1="42.6838455" y1="117.7474976" x2="42.6838455" y2="114.0521698"/>
		<g id="XMLID_15_">
			<g>
				<rect x="43.8430824" y="116.321106" class="st11" width="1.4175662" height="2.0542536"/>
			</g>
			<g>
			</g>
		</g>
		<line class="st12" x1="44.552784" y1="117.7474976" x2="44.552784" y2="114.0521698"/>
		<line class="st13" x1="44.552784" y1="114.0521698" x2="44.552784" y2="114.7624207"/>
		<line class="st13" x1="42.6838455" y1="114.0521698" x2="42.6838455" y2="114.7624207"/>
		<line class="st13" x1="40.8149109" y1="114.0521698" x2="40.8149109" y2="114.7624207"/>
		<line class="st13" x1="38.9459724" y1="114.0521698" x2="38.9459724" y2="114.7624207"/>
		<line class="st13" x1="37.077034" y1="114.0521698" x2="37.077034" y2="114.7624207"/>
		<line class="st13" x1="35.2080994" y1="114.0521698" x2="35.2080994" y2="114.7624207"/>
		<g id="XMLID_14_">
			<g>
				<rect x="27.022646" y="116.321106" class="st11" width="1.4175662" height="2.0542536"/>
			</g>
			<g>
			</g>
		</g>
		<line class="st12" x1="27.7323475" y1="117.7474976" x2="27.7323475" y2="114.0521698"/>
		<g id="XMLID_7_">
			<g>
				<rect x="28.8915844" y="116.321106" class="st11" width="1.4175662" height="2.0542536"/>
			</g>
			<g>
			</g>
		</g>
		<line class="st12" x1="29.6012859" y1="117.7474976" x2="29.6012859" y2="114.0521698"/>
		<g id="XMLID_5_">
			<g>
				<rect x="30.7605209" y="116.321106" class="st11" width="1.4175662" height="2.0542536"/>
			</g>
			<g>
			</g>
		</g>
		<line class="st12" x1="31.4702225" y1="117.7474976" x2="31.4702225" y2="114.0521698"/>
		<g id="XMLID_4_">
			<g>
				<rect x="32.6294594" y="116.321106" class="st11" width="1.4175662" height="2.0542536"/>
			</g>
			<g>
			</g>
		</g>
		<line class="st12" x1="33.3391609" y1="117.7474976" x2="33.3391609" y2="114.0521698"/>
		<line class="st13" x1="33.3391609" y1="114.0521698" x2="33.3391609" y2="114.7624207"/>
		<line class="st13" x1="31.4702225" y1="114.0521698" x2="31.4702225" y2="114.7624207"/>
		<line class="st13" x1="29.6012859" y1="114.0521698" x2="29.6012859" y2="114.7624207"/>
		<line class="st13" x1="27.7323475" y1="114.0521698" x2="27.7323475" y2="114.7624207"/>
		<path class="st14" d="M45.4949799,114.0521698H26.7884846c-0.0397358,0-0.071949-0.0352249-0.071949-0.0786819v-12.0316162
			c0-0.043457,0.0322132-0.0786819,0.071949-0.0786819h18.7064953c0.0397377,0,0.071949,0.0352249,0.071949,0.0786819v4.3906097
			v3.2503967v4.3906097C45.5669289,114.0169449,45.5347176,114.0521698,45.4949799,114.0521698z"/>
	</g>
	<g>
		<path class="st15" d="M33.2240295,60.7021675"/>
		<g id="XMLID_41_">
			<g>
				<rect x="27.3239899" y="69.9535599" class="st6" width="1.8731518" height="3.4376609"/>
			</g>
			<g>
			</g>
		</g>
		<g id="XMLID_40_">
			<g>
				<rect x="27.3239899" y="60.6618919" class="st6" width="1.8731518" height="3.4376609"/>
			</g>
			<g>
			</g>
		</g>
		<g id="XMLID_39_">
			<g>
				<rect x="43.0862579" y="69.9608154" class="st6" width="1.8731518" height="3.4376609"/>
			</g>
			<g>
			</g>
		</g>
		<g id="XMLID_38_">
			<g>
				<rect x="43.0862579" y="60.6691513" class="st6" width="1.8731518" height="3.4376609"/>
			</g>
			<g>
			</g>
		</g>
		<g id="XMLID_25_">
			<g>
				<rect x="27.3239899" y="65.305809" class="st6" width="1.8731518" height="3.4376609"/>
			</g>
			<g>
			</g>
		</g>
		<g id="XMLID_24_">
			<g>
				<rect x="43.0862579" y="65.3130722" class="st6" width="1.8731518" height="3.4376609"/>
			</g>
			<g>
			</g>
		</g>
		<circle class="st3" cx="36.1417313" cy="67.0324783" r="6.0152225"/>
		
			<radialGradient id="SVGID_1_" cx="158.2414398" cy="61.7832756" r="6.2302084" gradientTransform="matrix(0.9645694 0 0 0.9645694 -116.4931183 7.4382215)" gradientUnits="userSpaceOnUse">
			<stop  offset="0" style="stop-color:#FFFFFF;stop-opacity:0.5"/>
			<stop  offset="0.5867767" style="stop-color:#FFFFFF"/>
			<stop  offset="0.865168" style="stop-color:#F4E847;stop-opacity:0.5"/>
			<stop  offset="0.994382" style="stop-color:#FFFFFF"/>
		</radialGradient>
		<circle class="st16" cx="36.1417313" cy="67.0324783" r="6.0094681"/>
		<path class="st17" d="M38.5383797,67.7365265L38.5383797,67.7365265c0.3913841,0,0.7086639-0.3172836,0.7086639-0.7086639l0,0
			c0-0.3913879-0.3172798-0.7086639-0.7086639-0.7086639l0,0c-0.3913803,0-0.7086601,0.317276-0.7086601,0.7086639l0,0
			C37.8297195,67.4192429,38.1469994,67.7365265,38.5383797,67.7365265z"/>
		<g>
			<path class="st18" d="M36.8047562,62.6008301c0,1.4548492-1.8557892,2.6342392-3.3106384,2.6342392
				c-1.1428604,0-2.4959812-0.7844391-2.8606834-1.8018379"/>
			<line class="st18" x1="36.8047562" y1="62.6008301" x2="36.8047562" y2="60.7021675"/>
			<path class="st18" d="M41.8156853,63.5607834c-0.4319,0.8649521-1.4210434,1.6742859-2.4535599,1.6742859
				c-1.1428604,0-2.2679291-1.1121368-2.6326332-2.1295319"/>
			<circle class="st19" cx="40.4094734" cy="65.0182571" r="0.3529412"/>
			<path class="st18" d="M36.8047562,71.4461517c0-1.4548492-1.8557892-2.6342392-3.3106384-2.6342392
				c-1.1428604,0-2.4959812,0.7844391-2.8606834,1.8018341"/>
			<line class="st18" x1="36.8047562" y1="71.4461517" x2="36.8047562" y2="73.3448105"/>
			<path class="st18" d="M41.8156853,70.4862747c-0.4319-0.8649521-1.4210434-1.6743622-2.4535599-1.6743622
				c-1.1428604,0-2.2679291,1.1121368-2.6326332,2.1295319"/>
			<circle class="st19" cx="40.4094734" cy="69.0287247" r="0.3529412"/>
			<line class="st18" x1="40.4094734" y1="69.0287247" x2="40.4094734" y2="65.0182571"/>
		</g>
		<path class="st20" d="M43.0866127,73.9842529V60.0944901H29.1968498v13.8897629H43.0866127z M36.1417618,61.024147
			c3.3220673,0,6.0151939,2.6931267,6.0151939,6.0151901c0,3.3221283-2.6931267,6.0152588-6.0151939,6.0152588
			c-3.3221245,0-6.0152531-2.6931305-6.0152531-6.0152588C30.1265087,63.7172737,32.8196373,61.024147,36.1417618,61.024147z"/>
	</g>
	<g>
		<path class="st8" d="M23.978426,29.0707436c0,1.2273617-1.0018463,2.2224731-2.2397385,2.2224731
			s-2.2415428-0.9951115-2.2415428-2.2224731c0-1.2273636,1.0036507-2.2224751,2.2415428-2.2224751
			S23.978426,27.84338,23.978426,29.0707436z"/>
		<ellipse class="st9" cx="21.7377853" cy="29.0707436" rx="1.5316002" ry="1.5185714"/>
		<path class="st8" d="M31.2067719,29.0707436c0,1.2273617-1.0018463,2.2224731-2.2397385,2.2224731
			s-2.2415428-0.9951115-2.2415428-2.2224731c0-1.2273636,1.0036507-2.2224751,2.2415428-2.2224751
			S31.2067719,27.84338,31.2067719,29.0707436z"/>
		<ellipse class="st9" cx="28.9661312" cy="29.0707436" rx="1.5316002" ry="1.5185714"/>
		<path class="st8" d="M38.4067726,29.0707436c0,1.2273617-1.0018463,2.2224731-2.2397385,2.2224731
			s-2.2415428-0.9951115-2.2415428-2.2224731c0-1.2273636,1.0036507-2.2224751,2.2415428-2.2224751
			S38.4067726,27.84338,38.4067726,29.0707436z"/>
		<ellipse class="st9" cx="36.1661301" cy="29.0707436" rx="1.5316002" ry="1.5185714"/>
		<path class="st8" d="M44.9942017,27.4418221c1.5395126,2.022913-0.1709862,4.2713051-2.1831703,3.7840004
			c-0.7743683-0.1875343-1.4096413-0.8210773-1.5987816-1.5950565
			C40.7206535,27.6191349,42.9697151,25.9014225,44.9942017,27.4418221z"/>
		<ellipse class="st9" cx="43.3661308" cy="29.0707436" rx="1.5316002" ry="1.5185714"/>
		<path class="st8" d="M52.1942024,27.4418221c1.5395126,2.0229149-0.1709862,4.2713051-2.1831703,3.7840004
			c-0.7743721-0.1875343-1.4096413-0.8210754-1.5987854-1.5950565
			C47.9206543,27.6191349,50.1697159,25.9014225,52.1942024,27.4418221z"/>
		<ellipse class="st9" cx="50.5661316" cy="29.0707436" rx="1.5316002" ry="1.5185714"/>
	</g>
	<g>
	</g>
	<g>
	</g>
	<g>
	</g>
	<g>
	</g>
	<g>
	</g>
	<g>
	</g>
</g>
</svg>
