<?xml version="1.0" encoding="utf-8"?>
<!-- Generator: Adobe Illustrator 22.1.0, SVG Export Plug-In . SVG Version: 6.00 Build 0)  -->
<svg version="1.1" xmlns="http://www.w3.org/2000/svg" xmlns:xlink="http://www.w3.org/1999/xlink" x="0px" y="0px"
	 viewBox="0 0 119.0707397 72.2855835" style="enable-background:new 0 0 119.0707397 72.2855835;" xml:space="preserve">
<style type="text/css">
	.st0{fill:#19191A;}
	.st1{fill:#E9A854;}
	.st2{fill:#9E9B9C;}
	.st3{fill:#FFFFFF;}
	.st4{fill:#363331;}
	.st5{fill:#B5B4B3;}
	.st6{fill:#CDC7BC;}
	.st7{fill:#907747;}
	.st8{fill:#CEC7BD;}
	.st9{fill:#918C84;}
	.st10{fill:#46433E;}
	.st11{fill:#CBC5BA;}
	.st12{fill:none;stroke:#E5E5E5;stroke-miterlimit:10;}
	.st13{fill:none;stroke:#C9C8C8;stroke-miterlimit:10;}
	.st14{fill:#4C4C4C;}
	.st15{fill:none;stroke:#F6F6F6;stroke-width:0.7234271;stroke-miterlimit:10;}
	.st16{opacity:0.4;fill:url(#SVGID_1_);}
	.st17{fill:#EBAD4F;}
	.st18{fill:none;stroke:#E2E2E2;stroke-width:0.2053135;stroke-miterlimit:10;}
	.st19{fill:#E2E2E2;}
	.st20{fill:#999999;}
</style>
<g id="Фон">
	<path class="st0" d="M17.0234985,72.2855835h102.0472412V0H17.0234985V72.2855835z M111.729187,65.4528809
		c0,0.7827759-0.6345215,1.4173584-1.4172974,1.4173584s-1.4173584-0.6345825-1.4173584-1.4173584
		c0-0.7827148,0.6345825-1.4172974,1.4173584-1.4172974S111.729187,64.670166,111.729187,65.4528809z M108.6450195,65.4528809
		c0,0.7827759-0.6345825,1.4173584-1.4172974,1.4173584c-0.7827759,0-1.4173584-0.6345825-1.4173584-1.4173584
		c0-0.7827148,0.6345825-1.4172974,1.4173584-1.4172974C108.010437,64.0355835,108.6450195,64.670166,108.6450195,65.4528809z
		 M105.5608521,65.4528809c0,0.7827759-0.6345825,1.4173584-1.4172974,1.4173584
		c-0.7827759,0-1.4173584-0.6345825-1.4173584-1.4173584c0-0.7827148,0.6345825-1.4172974,1.4173584-1.4172974
		C104.9262695,64.0355835,105.5608521,64.670166,105.5608521,65.4528809z M111.729187,62.3643188
		c0,0.7827759-0.6345215,1.4172974-1.4172974,1.4172974s-1.4173584-0.6345215-1.4173584-1.4172974
		s0.6345825-1.4172974,1.4173584-1.4172974S111.729187,61.581543,111.729187,62.3643188z M108.6450195,62.3643188
		c0,0.7827759-0.6345825,1.4172974-1.4172974,1.4172974c-0.7827759,0-1.4173584-0.6345215-1.4173584-1.4172974
		s0.6345825-1.4172974,1.4173584-1.4172974C108.010437,60.9470215,108.6450195,61.581543,108.6450195,62.3643188z
		 M105.5608521,62.3643188c0,0.7827759-0.6345825,1.4172974-1.4172974,1.4172974
		c-0.7827759,0-1.4173584-0.6345215-1.4173584-1.4172974s0.6345825-1.4172974,1.4173584-1.4172974
		C104.9262695,60.9470215,105.5608521,61.581543,105.5608521,62.3643188z M31.3391113,63.7805786
		c0,2.4279175-1.9668579,4.3947754-4.3927002,4.3947754c-2.4259033,0-4.3947144-1.9668579-4.3947144-4.3947754
		c0-2.4258423,1.968811-4.3926392,4.3947144-4.3926392C29.3722534,59.3879395,31.3391113,61.3547363,31.3391113,63.7805786z
		 M31.3391113,8.5039063c0,2.4264526-1.9668579,4.3936768-4.3947754,4.3936768
		c-2.4258423,0-4.3926392-1.9672241-4.3926392-4.3936768s1.9667969-4.3936768,4.3926392-4.3936768
		C29.3722534,4.1102295,31.3391113,6.0774536,31.3391113,8.5039063z"/>
	<g>
		<path class="st1" d="M0,29.1486378l0-0.4271221c0.2769843-0.2769833,0.4322783-0.4322777,0.7092626-0.7092628h16.2986107
			v1.8456478H0.7092626C0.4322783,29.5809155,0.2769843,29.4256229,0,29.1486378z"/>
	</g>
	<g>
		<path class="st1" d="M0,36.3441162l0-0.4271202c0.2769843-0.2769852,0.4322783-0.4322777,0.7092626-0.7092628h16.2986107
			v1.8456459H0.7092626C0.4322783,36.7763939,0.2769843,36.6211014,0,36.3441162z"/>
	</g>
	<g>
		<path class="st1" d="M0,21.948637l0-0.4271221c0.2769843-0.2769833,0.4322783-0.4322777,0.7092626-0.7092609h16.2986107v1.8456459
			H0.7092626C0.4322783,22.3809166,0.2769843,22.2256222,0,21.948637z"/>
	</g>
	<g>
		<path class="st1" d="M0,43.5486374l0-0.4271202c0.2769843-0.2769852,0.4322783-0.4322815,0.7092626-0.7092628h16.2986107
			v1.8456459H0.7092626C0.4322783,43.9809151,0.2769843,43.8256226,0,43.5486374z"/>
	</g>
	<g>
		<path class="st1" d="M0,50.7769852l0-0.427124c0.2769843-0.2769814,0.4322783-0.4322777,0.7092626-0.7092628h16.2986107v1.8456497
			H0.7092626C0.4322783,51.2092628,0.2769843,51.0539703,0,50.7769852z"/>
	</g>
	<path class="st2" d="M32.9052124,63.795166c0-3.300293-2.6751709-5.9754028-5.9754639-5.9754028
		c-3.3002319,0-5.9754028,2.6751099-5.9754028,5.9754028s2.6751709,5.9754639,5.9754028,5.9754639
		C30.2300415,69.7706299,32.9052124,67.095459,32.9052124,63.795166z M22.5360718,63.7962036
		c0-2.4279175,1.9667969-4.3947144,4.3927002-4.3947144c2.4279175,0,4.3947144,1.9667969,4.3947144,4.3947144
		c0,2.4258423-1.9667969,4.3927002-4.3947144,4.3927002C24.5028687,68.1889038,22.5360718,66.2220459,22.5360718,63.7962036z"/>
	<path class="st2" d="M111.8709106,62.3643112c0-0.861084-0.6979752-1.5590477-1.5590591-1.5590477
		c-0.8610687,0-1.5590439,0.6979637-1.5590439,1.5590477c0,0.8610802,0.6979752,1.559063,1.5590439,1.559063
		C111.1729355,63.9233742,111.8709106,63.2253914,111.8709106,62.3643112z M108.8945389,62.3646431
		c0-0.7831993,0.6344452-1.4176483,1.4169922-1.4176483c0.7832031,0,1.4176483,0.634449,1.4176483,1.4176483
		c0,0.7825279-0.6344452,1.4169998-1.4176483,1.4169998C109.5289841,63.7816429,108.8945389,63.147171,108.8945389,62.3646431z"/>
	<path class="st2" d="M108.7867432,62.3643112c0-0.861084-0.6979752-1.5590477-1.5590591-1.5590477
		c-0.8610687,0-1.5590439,0.6979637-1.5590439,1.5590477c0,0.8610802,0.6979752,1.559063,1.5590439,1.559063
		C108.088768,63.9233742,108.7867432,63.2253914,108.7867432,62.3643112z M105.8103714,62.3646431
		c0-0.7831993,0.6344452-1.4176483,1.4169922-1.4176483c0.7832031,0,1.4176483,0.634449,1.4176483,1.4176483
		c0,0.7825279-0.6344452,1.4169998-1.4176483,1.4169998C106.4448166,63.7816429,105.8103714,63.147171,105.8103714,62.3646431z"/>
	<path class="st2" d="M105.7025757,65.4529037c0-0.861084-0.6979752-1.5590477-1.5590591-1.5590477
		c-0.8610687,0-1.5590439,0.6979637-1.5590439,1.5590477s0.6979752,1.5590591,1.5590439,1.5590591
		C105.0046005,67.0119629,105.7025757,66.3139877,105.7025757,65.4529037z M102.7262039,65.4532394
		c0-0.7832031,0.6344452-1.4176483,1.4169922-1.4176483c0.7832031,0,1.4176483,0.6344452,1.4176483,1.4176483
		c0,0.7825241-0.6344452,1.4169922-1.4176483,1.4169922C103.3606491,66.8702316,102.7262039,66.2357635,102.7262039,65.4532394z"/>
	<path class="st2" d="M105.7025757,62.3643112c0-0.861084-0.6979752-1.5590477-1.5590591-1.5590477
		c-0.8610687,0-1.5590439,0.6979637-1.5590439,1.5590477c0,0.8610802,0.6979752,1.559063,1.5590439,1.559063
		C105.0046005,63.9233742,105.7025757,63.2253914,105.7025757,62.3643112z M102.7262039,62.3646431
		c0-0.7831993,0.6344452-1.4176483,1.4169922-1.4176483c0.7832031,0,1.4176483,0.634449,1.4176483,1.4176483
		c0,0.7825279-0.6344452,1.4169998-1.4176483,1.4169998C103.3606491,63.7816429,102.7262039,63.147171,102.7262039,62.3646431z"/>
	<path class="st2" d="M108.7867432,65.4529037c0-0.861084-0.6979752-1.5590477-1.5590591-1.5590477
		c-0.8610687,0-1.5590439,0.6979637-1.5590439,1.5590477s0.6979752,1.5590591,1.5590439,1.5590591
		C108.088768,67.0119629,108.7867432,66.3139877,108.7867432,65.4529037z M105.8103714,65.4532394
		c0-0.7832031,0.6344452-1.4176483,1.4169922-1.4176483c0.7832031,0,1.4176483,0.6344452,1.4176483,1.4176483
		c0,0.7825241-0.6344452,1.4169922-1.4176483,1.4169922C106.4448166,66.8702316,105.8103714,66.2357635,105.8103714,65.4532394z"/>
	<path class="st2" d="M111.8709106,65.4529037c0-0.861084-0.6979752-1.5590477-1.5590591-1.5590477
		c-0.8610687,0-1.5590439,0.6979637-1.5590439,1.5590477s0.6979752,1.5590591,1.5590439,1.5590591
		C111.1729355,67.0119629,111.8709106,66.3139877,111.8709106,65.4529037z M108.8945389,65.4532394
		c0-0.7832031,0.6344452-1.4176483,1.4169922-1.4176483c0.7832031,0,1.4176483,0.6344452,1.4176483,1.4176483
		c0,0.7825241-0.6344452,1.4169922-1.4176483,1.4169922C109.5289841,66.8702316,108.8945389,66.2357635,108.8945389,65.4532394z"/>
	<path class="st2" d="M32.9052124,8.5185022c0-3.2877808-2.6751709-5.9527588-5.9754639-5.9527588
		c-3.3002319,0-5.9754028,2.664978-5.9754028,5.9527588c0,3.2877197,2.6751709,5.9527588,5.9754028,5.9527588
		C30.2300415,14.471261,32.9052124,11.806222,32.9052124,8.5185022z M22.5360718,8.5195398
		c0-2.4279175,1.9667969-4.3947144,4.3927002-4.3947144c2.4279175,0,4.3947144,1.9667969,4.3947144,4.3947144
		c0,2.4258423-1.9667969,4.3926392-4.3947144,4.3926392C24.5028687,12.912179,22.5360718,10.9453821,22.5360718,8.5195398z"/>
</g>
<g id="Режим_изоляции">
	<g>
		<path class="st3" d="M23.6889648,46.7402344c0.4135742,0.0488281,0.7329102,0.2011719,0.9575195,0.4580078
			s0.3369141,0.5986328,0.3369141,1.0244141c0,0.4619141-0.1655273,0.8320313-0.4970703,1.1103516
			c-0.3310547,0.2783203-0.7739258,0.4179688-1.3291016,0.4179688H22.78125c-0.3632813,0-0.6831055-0.0654297-0.9589844-0.1943359
			c-0.2753906-0.1308594-0.4873047-0.3144531-0.6347656-0.5527344c-0.1479492-0.2382813-0.2216797-0.5136719-0.2216797-0.8271484
			c0-0.4150391,0.1157227-0.7480469,0.3476563-0.9990234c0.2319336-0.25,0.5527344-0.3964844,0.9628906-0.4375v0.5185547
			c-0.3125,0.0439453-0.5385742,0.1416016-0.6787109,0.2910156s-0.2099609,0.3583984-0.2099609,0.6269531
			c0,0.3291016,0.121582,0.5878906,0.3652344,0.7744141c0.2436523,0.1875,0.590332,0.28125,1.0400391,0.28125h0.3793945
			c0.4243164,0,0.762207-0.0888672,1.0131836-0.265625c0.2509766-0.1777344,0.3759766-0.4257813,0.3759766-0.7441406
			c0-0.2871094-0.0644531-0.5058594-0.1943359-0.6591797s-0.355957-0.2548828-0.6782227-0.3046875V46.7402344z"/>
		<path class="st3" d="M24.9296875,46.0683594h-2.9057617v-1.1328125c0-0.3867188,0.0673828-0.6835938,0.2026367-0.890625
			s0.3334961-0.3105469,0.5947266-0.3105469c0.1347656,0,0.2558594,0.0410156,0.3642578,0.1210938
			c0.1083984,0.0810547,0.190918,0.1992188,0.2480469,0.3574219c0.0415039-0.1757813,0.1220703-0.3164063,0.2421875-0.4228516
			c0.1196289-0.1064453,0.2626953-0.1601563,0.4296875-0.1601563c0.2666016,0,0.4707031,0.0986328,0.6123047,0.2939453
			c0.1411133,0.1962891,0.2119141,0.4736328,0.2119141,0.8320313V46.0683594z M23.2568359,45.5722656v-0.6425781
			c0-0.4648438-0.1362305-0.6982422-0.4082031-0.6982422c-0.2724609,0-0.4130859,0.2207031-0.421875,0.6611328v0.6796875H23.2568359
			z M23.6542969,45.5722656h0.875V44.75c0-0.2070313-0.0380859-0.3632813-0.1152344-0.4658203
			s-0.1855469-0.1542969-0.3251953-0.1542969c-0.2900391,0-0.4345703,0.2128906-0.4345703,0.6386719V45.5722656z"/>
		<path class="st3" d="M24.9833984,41.7666016c0,0.3935547-0.1293945,0.7148438-0.3881836,0.9619141
			s-0.6044922,0.3701172-1.0375977,0.3701172h-0.0917969c-0.2880859,0-0.5454102-0.0546875-0.7719727-0.1650391
			c-0.2265625-0.109375-0.4038086-0.2636719-0.5317383-0.4619141s-0.1918945-0.4121094-0.1918945-0.6435547
			c0-0.3769531,0.1245117-0.6708984,0.3735352-0.8808594c0.2485352-0.2089844,0.6049805-0.3134766,1.0683594-0.3134766h0.2070313
			v1.9677734c0.2866211-0.0068359,0.5180664-0.0898438,0.6943359-0.25s0.2646484-0.3642578,0.2646484-0.6113281
			c0-0.1757813-0.0361328-0.3242188-0.1074219-0.4462891c-0.0717773-0.1220703-0.1669922-0.2275391-0.2851563-0.3193359
			l0.2363281-0.3037109C24.7963867,40.9140625,24.9833984,41.2792969,24.9833984,41.7666016z M22.378418,41.828125
			c0,0.2011719,0.0727539,0.3691406,0.21875,0.5058594c0.1459961,0.1357422,0.3505859,0.2197266,0.6137695,0.2519531v-1.4550781
			h-0.0375977c-0.2524414,0.0136719-0.4482422,0.0820313-0.5869141,0.203125
			C22.4477539,41.4560547,22.378418,41.6210938,22.378418,41.828125z"/>
		<path class="st3" d="M22.4267578,37.9287109v0.9746094h2.5029297v0.4970703h-2.5029297v0.9560547h-0.402832v-2.4277344H22.4267578
			z"/>
		<path class="st3" d="M23.4501953,37.6601563c-0.2851563,0-0.5410156-0.0556641-0.7685547-0.1674805
			c-0.2270508-0.1118164-0.4023438-0.2675781-0.5263672-0.4672852c-0.1230469-0.199707-0.1850586-0.4277344-0.1850586-0.6835938
			c0-0.3955078,0.137207-0.7158203,0.4106445-0.9599609c0.2744141-0.2446289,0.6386719-0.3666992,1.0932617-0.3666992h0.034668
			c0.2832031,0,0.5371094,0.0541992,0.7617188,0.1625977s0.3994141,0.2631836,0.5249023,0.4643555
			c0.1254883,0.2016602,0.1879883,0.4331055,0.1879883,0.6943359c0,0.394043-0.1367188,0.7128906-0.4111328,0.9575195
			c-0.2734375,0.2441406-0.6362305,0.3662109-1.0874023,0.3662109H23.4501953z M23.5087891,37.1606445
			c0.3222656,0,0.5810547-0.074707,0.7763672-0.2241211s0.2929688-0.3496094,0.2929688-0.6000977
			c0-0.2524414-0.0991211-0.453125-0.296875-0.6015625s-0.4750977-0.2226563-0.8310547-0.2226563
			c-0.3188477,0-0.5771484,0.0751953-0.7749023,0.2265625s-0.296875,0.3525391-0.296875,0.6030273
			c0,0.2451172,0.0976563,0.4428711,0.2924805,0.5932617C22.8662109,37.0854492,23.1455078,37.1606445,23.5087891,37.1606445z"/>
		<path class="st3" d="M24.5244141,34.6098633l-0.2124023-0.171875c-0.2504883-0.1933594-0.6264648-0.3037109-1.1279297-0.3305664
			l-1.1601563-0.0454102v-1.8720703h2.5004883v-0.3730469h1.2592773v0.496582h-0.8540039v2.027832h0.8540039v0.496582
			l-1.2592773-0.0024414V34.6098633z M24.5244141,34.0214844v-1.3344727h-2.0410156v0.894043l0.6923828,0.0297852
			C23.7543945,33.6411133,24.2036133,33.777832,24.5244141,34.0214844z"/>
		<path class="st3" d="M22.0239258,29.4291992v-0.4970703h2.9057617v0.4970703h-2.1191406l2.1191406,1.3398438v0.4970703h-2.9057617
			V30.769043h2.121582L22.0239258,29.4291992z"/>
		<path class="st3" d="M23.4501953,28.2666016c-0.2851563,0-0.5410156-0.0561523-0.7685547-0.1679688
			c-0.2270508-0.1118164-0.4023438-0.2675781-0.5263672-0.4672852c-0.1230469-0.199707-0.1850586-0.4277344-0.1850586-0.6835938
			c0-0.3955078,0.137207-0.7158203,0.4106445-0.9599609c0.2744141-0.2446289,0.6386719-0.3666992,1.0932617-0.3666992h0.034668
			c0.2832031,0,0.5371094,0.0541992,0.7617188,0.1625977s0.3994141,0.2631836,0.5249023,0.4643555
			c0.1254883,0.2016602,0.1879883,0.4331055,0.1879883,0.6943359c0,0.394043-0.1367188,0.7128906-0.4111328,0.9575195
			c-0.2734375,0.2441406-0.6362305,0.3666992-1.0874023,0.3666992H23.4501953z M23.5087891,27.7666016
			c0.3222656,0,0.5810547-0.074707,0.7763672-0.2241211s0.2929688-0.3496094,0.2929688-0.6000977
			c0-0.2524414-0.0991211-0.453125-0.296875-0.6015625s-0.4750977-0.2226563-0.8310547-0.2226563
			c-0.3188477,0-0.5771484,0.0751953-0.7749023,0.2265625s-0.296875,0.3525391-0.296875,0.6030273
			c0,0.2451172,0.0976563,0.4428711,0.2924805,0.5932617C22.8662109,27.6914063,23.1455078,27.7666016,23.5087891,27.7666016z"/>
		<path class="st3" d="M24.5244141,25.2158203l-0.2124023-0.171875c-0.2504883-0.1933594-0.6264648-0.3037109-1.1279297-0.3300781
			l-1.1601563-0.0458984v-1.8720703h2.5004883v-0.3730469h1.2592773v0.4960938h-0.8540039v2.0283203h0.8540039v0.496582
			l-1.2592773-0.0024414V25.2158203z M24.5244141,24.6279297v-1.3349609h-2.0410156v0.8935547l0.6923828,0.0302734
			C23.7543945,24.2470703,24.2036133,24.3837891,24.5244141,24.6279297z"/>
	</g>
	<g>
		<g id="XMLID_6_">
			<g>
				<rect x="38.2086487" y="34.5547638" class="st4" width="8.5589418" height="3.662437"/>
			</g>
			<g>
			</g>
		</g>
		<g id="XMLID_18_">
			<g>
				<rect x="41.8124161" y="38.3208199" class="st2" width="1.6072793" height="2.9478152"/>
			</g>
			<g>
			</g>
		</g>
		<g id="XMLID_16_">
			<g>
				<rect x="39.0050812" y="31.0406094" class="st2" width="1.6811564" height="3.5123663"/>
			</g>
			<g>
			</g>
		</g>
		<g id="XMLID_17_">
			<g>
				<rect x="44.493618" y="31.0406094" class="st2" width="1.6811564" height="3.5123663"/>
			</g>
			<g>
			</g>
		</g>
		<g>
			<path class="st5" d="M44.4296875,36.1616211c0-0.1845703,0.0610352-0.3359375,0.184082-0.4521484
				c0.1225586-0.1171875,0.2729492-0.1757813,0.4511719-0.1757813c0.090332,0,0.1723633,0.0136719,0.246582,0.0419922
				c0.0737305,0.0273438,0.1391602,0.0683594,0.1958008,0.1230469c0.0708008,0.0673828,0.125,0.1572266,0.1630859,0.2685547
				s0.0571289,0.2460938,0.0571289,0.4033203c0,0.1611328-0.0170898,0.3037109-0.0522461,0.4287109
				c-0.034668,0.1240234-0.090332,0.2353516-0.1669922,0.3320313c-0.0722656,0.0917969-0.1650391,0.1640625-0.2792969,0.2158203
				s-0.2470703,0.0771484-0.3994141,0.0771484c-0.0483398,0-0.0888672-0.0019531-0.121582-0.0058594
				c-0.0332031-0.0039063-0.0664063-0.0117188-0.1000977-0.0224609v-0.2324219h0.0126953
				c0.0229492,0.0117188,0.0576172,0.0234375,0.1040039,0.0341797s0.09375,0.0166016,0.1420898,0.0166016
				c0.1767578,0,0.3173828-0.0546875,0.4223633-0.1640625c0.1054688-0.109375,0.1665039-0.2578125,0.1835938-0.4443359
				c-0.0688477,0.0419922-0.1367188,0.0732422-0.2036133,0.0947266s-0.1445313,0.0322266-0.2324219,0.0322266
				c-0.078125,0-0.1464844-0.0068359-0.2060547-0.0214844c-0.0595703-0.0136719-0.1206055-0.0429688-0.1831055-0.0859375
				c-0.0722656-0.0498047-0.1264648-0.1123047-0.1630859-0.1875C44.4477539,36.3618164,44.4296875,36.2700195,44.4296875,36.1616211
				z M44.6796875,36.1518555c0,0.0761719,0.0112305,0.1386719,0.0336914,0.1884766
				c0.0224609,0.0488281,0.0595703,0.0927734,0.1113281,0.1289063c0.0380859,0.0263672,0.0795898,0.0429688,0.1259766,0.0517578
				c0.0458984,0.0078125,0.09375,0.0117188,0.144043,0.0117188c0.0698242,0,0.1347656-0.0078125,0.1943359-0.0244141
				c0.0600586-0.015625,0.121582-0.0410156,0.1850586-0.0751953c0.0014648-0.0185547,0.0029297-0.0351563,0.003418-0.0517578
				c0.0009766-0.0175781,0.0014648-0.0380859,0.0014648-0.0634766c0-0.1289063-0.0131836-0.2304688-0.0400391-0.3046875
				s-0.0634766-0.1328125-0.1103516-0.1767578c-0.0375977-0.0351563-0.0786133-0.0615234-0.1225586-0.078125
				s-0.0917969-0.0253906-0.1435547-0.0253906c-0.1191406,0-0.2124023,0.0361328-0.2807617,0.1083984
				S44.6796875,36.0170898,44.6796875,36.1518555z"/>
			<path class="st5" d="M42.8261719,36.1616211c0-0.1845703,0.0610352-0.3359375,0.184082-0.4521484
				c0.1225586-0.1171875,0.2729492-0.1757813,0.4511719-0.1757813c0.090332,0,0.1723633,0.0136719,0.246582,0.0419922
				c0.0737305,0.0273438,0.1391602,0.0683594,0.1958008,0.1230469c0.0708008,0.0673828,0.125,0.1572266,0.1630859,0.2685547
				s0.0571289,0.2460938,0.0571289,0.4033203c0,0.1611328-0.0170898,0.3037109-0.0522461,0.4287109
				c-0.034668,0.1240234-0.090332,0.2353516-0.1669922,0.3320313c-0.0722656,0.0917969-0.1650391,0.1640625-0.2792969,0.2158203
				s-0.2470703,0.0771484-0.3994141,0.0771484c-0.0483398,0-0.0888672-0.0019531-0.121582-0.0058594
				c-0.0332031-0.0039063-0.0664063-0.0117188-0.1000977-0.0224609v-0.2324219h0.0126953
				c0.0229492,0.0117188,0.0576172,0.0234375,0.1040039,0.0341797s0.09375,0.0166016,0.1420898,0.0166016
				c0.1767578,0,0.3173828-0.0546875,0.4223633-0.1640625c0.1054688-0.109375,0.1665039-0.2578125,0.1835938-0.4443359
				c-0.0688477,0.0419922-0.1367188,0.0732422-0.2036133,0.0947266s-0.1445313,0.0322266-0.2324219,0.0322266
				c-0.078125,0-0.1464844-0.0068359-0.2060547-0.0214844c-0.0595703-0.0136719-0.1206055-0.0429688-0.1831055-0.0859375
				c-0.0722656-0.0498047-0.1264648-0.1123047-0.1630859-0.1875C42.8442383,36.3618164,42.8261719,36.2700195,42.8261719,36.1616211
				z M43.0761719,36.1518555c0,0.0761719,0.0112305,0.1386719,0.0336914,0.1884766
				c0.0224609,0.0488281,0.0595703,0.0927734,0.1113281,0.1289063c0.0380859,0.0263672,0.0795898,0.0429688,0.1259766,0.0517578
				c0.0458984,0.0078125,0.09375,0.0117188,0.144043,0.0117188c0.0698242,0,0.1347656-0.0078125,0.1943359-0.0244141
				c0.0600586-0.015625,0.121582-0.0410156,0.1850586-0.0751953c0.0014648-0.0185547,0.0029297-0.0351563,0.003418-0.0517578
				c0.0009766-0.0175781,0.0014648-0.0380859,0.0014648-0.0634766c0-0.1289063-0.0131836-0.2304688-0.0400391-0.3046875
				s-0.0634766-0.1328125-0.1103516-0.1767578c-0.0375977-0.0351563-0.0786133-0.0615234-0.1225586-0.078125
				s-0.0917969-0.0253906-0.1435547-0.0253906c-0.1191406,0-0.2124023,0.0361328-0.2807617,0.1083984
				S43.0761719,36.0170898,43.0761719,36.1518555z"/>
			<path class="st5" d="M41.2490234,35.5717773h1.2416992v0.2548828c-0.0864258,0.0732422-0.1728516,0.1464844-0.2592773,0.2197266
				c-0.0869141,0.0742188-0.1674805,0.1464844-0.2421875,0.21875c-0.1577148,0.1513672-0.265625,0.2724609-0.3237305,0.3613281
				c-0.0585938,0.0888672-0.0874023,0.1855469-0.0874023,0.2890625c0,0.09375,0.03125,0.1679688,0.0942383,0.2216797
				c0.0625,0.0527344,0.1503906,0.0800781,0.2626953,0.0800781c0.074707,0,0.1557617-0.0136719,0.2426758-0.0390625
				c0.0869141-0.0263672,0.171875-0.0664063,0.2548828-0.1201172h0.0126953v0.2568359
				c-0.0585938,0.0283203-0.1362305,0.0537109-0.2338867,0.078125c-0.097168,0.0234375-0.1914063,0.0351563-0.2822266,0.0351563
				c-0.1884766,0-0.3354492-0.0449219-0.4423828-0.1347656s-0.1601563-0.2119141-0.1601563-0.3662109
				c0-0.0693359,0.0087891-0.1337891,0.0263672-0.1933594s0.0439453-0.1162109,0.078125-0.1708984
				c0.0322266-0.0498047,0.0698242-0.0996094,0.112793-0.1484375s0.0957031-0.1035156,0.1572266-0.1621094
				c0.0878906-0.0859375,0.1787109-0.1689453,0.2719727-0.2490234c0.09375-0.0800781,0.1811523-0.1542969,0.2626953-0.2226563
				h-0.9868164V35.5717773z"/>
			<path class="st5" d="M39.3647461,35.5717773h0.3164063l0.7255859,0.8095703l0.1821289-0.1923828v-0.6171875h0.2441406v1.8183594
				h-0.2441406V36.440918l-0.8901367,0.9492188H39.402832l0.8193359-0.8544922L39.3647461,35.5717773z"/>
		</g>
	</g>
	<g id="ГРУППА_1_">
		<g>
			<polygon class="st6" points="44.364769,44.6236191 47.8024292,44.6236191 47.8024292,48.879097 44.364769,48.879097 
				44.364769,48.5693169 45.069294,48.5693169 45.069294,44.9634895 44.364769,44.9634895 			"/>
			<polygon class="st6" points="37.2363129,44.6643333 40.6739731,44.6643333 40.6739731,44.9634895 39.9074936,44.9634895 
				39.9074936,48.5693169 40.6739731,48.5693169 40.6739731,48.9198112 37.2363129,48.9198112 			"/>
			<rect x="44.364769" y="44.9634895" class="st7" width="0.7045258" height="3.6058266"/>
			<rect x="40.6739731" y="44.9634895" class="st7" width="3.6907945" height="3.6058266"/>
			<rect x="39.9074936" y="44.9634895" class="st7" width="0.7664815" height="3.6058266"/>
		</g>
		<g>
		</g>
	</g>
	<g id="ГРУППА_3_">
		<g>
			<polygon class="st6" points="44.364769,50.8400726 47.8024292,50.8400726 47.8024292,55.0955467 44.364769,55.0955467 
				44.364769,54.7857704 45.069294,54.7857704 45.069294,51.1799431 44.364769,51.1799431 			"/>
			<polygon class="st6" points="37.2363129,50.8807831 40.6739731,50.8807831 40.6739731,51.1799431 39.9074936,51.1799431 
				39.9074936,54.7857704 40.6739731,54.7857704 40.6739731,55.136261 37.2363129,55.136261 			"/>
			<rect x="44.364769" y="51.1799431" class="st7" width="0.7045258" height="3.6058266"/>
			<rect x="40.6739731" y="51.1799431" class="st7" width="3.6907945" height="3.6058266"/>
			<rect x="39.9074936" y="51.1799431" class="st7" width="0.7664815" height="3.6058266"/>
		</g>
		<g>
		</g>
	</g>
	<g>
		<g id="XMLID_3_">
			<g>
				<rect x="37.237278" y="57.0571442" class="st6" width="3.4358907" height="4.255477"/>
			</g>
			<g>
			</g>
		</g>
		<g id="XMLID_2_">
			<g>
				<rect x="44.3657341" y="57.0164299" class="st6" width="3.4376609" height="4.255477"/>
			</g>
			<g>
			</g>
		</g>
		<g id="XMLID_1_">
			<g>
				<rect x="39.9687386" y="57.3669243" class="st4" width="5.1633434" height="3.6058266"/>
			</g>
			<g>
			</g>
		</g>
		<g>
			<path class="st5" d="M41.9145508,59.7138672h-0.6967773v-0.1318359h0.2680664v-0.8623047h-0.2680664v-0.1171875
				c0.0361328,0,0.0751953-0.0039063,0.1166992-0.0097656s0.0727539-0.0146484,0.0942383-0.0263672
				c0.0263672-0.0136719,0.0473633-0.0322266,0.0625-0.0546875c0.015625-0.0224609,0.0244141-0.0517578,0.0263672-0.0898438
				h0.1342773v1.1601563h0.2626953V59.7138672z"/>
			<path class="st5" d="M42.9345703,59.0693359c0,0.2314453-0.0361328,0.4013672-0.1083984,0.5087891
				c-0.0722656,0.1083984-0.1845703,0.1621094-0.3369141,0.1621094c-0.1542969,0-0.2670898-0.0546875-0.3383789-0.1640625
				s-0.1064453-0.2773438-0.1064453-0.5048828c0-0.2285156,0.0356445-0.3974609,0.1079102-0.5068359
				c0.0717773-0.109375,0.184082-0.1640625,0.3369141-0.1640625c0.1542969,0,0.2670898,0.0556641,0.3383789,0.1669922
				C42.8989258,58.6777344,42.9345703,58.8457031,42.9345703,59.0693359z M42.7070313,59.4619141
				c0.0205078-0.046875,0.0341797-0.1015625,0.0410156-0.1640625c0.0073242-0.0634766,0.0107422-0.1396484,0.0107422-0.2285156
				c0-0.0869141-0.003418-0.1630859-0.0107422-0.2275391c-0.0068359-0.0644531-0.0209961-0.1191406-0.0419922-0.1640625
				c-0.0200195-0.0449219-0.0473633-0.078125-0.0825195-0.1005859c-0.034668-0.0224609-0.0795898-0.0341797-0.1342773-0.0341797
				c-0.0541992,0-0.0991211,0.0117188-0.1342773,0.0341797c-0.0356445,0.0224609-0.0634766,0.0566406-0.0844727,0.1015625
				c-0.0195313,0.0429688-0.0327148,0.0986328-0.0400391,0.1669922s-0.0107422,0.1435547-0.0107422,0.2255859
				c0,0.0898438,0.0029297,0.1650391,0.0092773,0.2255859s0.0200195,0.1152344,0.0410156,0.1630859
				c0.0185547,0.0449219,0.0458984,0.0791016,0.0805664,0.1025391s0.0810547,0.0351563,0.1386719,0.0351563
				c0.0541992,0,0.0991211-0.0107422,0.1347656-0.0332031S42.6875,59.5078125,42.7070313,59.4619141z"/>
			<path class="st5" d="M43.8847656,59.7138672h-0.8710938v-0.1806641c0.0605469-0.0517578,0.1210938-0.1035156,0.1821289-0.15625
				c0.0605469-0.0517578,0.1171875-0.1025391,0.1694336-0.1542969c0.1108398-0.1074219,0.1865234-0.1923828,0.2275391-0.2558594
				c0.0410156-0.0625,0.0615234-0.1308594,0.0615234-0.2041016c0-0.0664063-0.0219727-0.1191406-0.0664063-0.15625
				c-0.0439453-0.0380859-0.1054688-0.0566406-0.1845703-0.0566406c-0.0522461,0-0.1088867,0.0087891-0.1699219,0.0273438
				s-0.1210938,0.046875-0.1791992,0.0849609h-0.0087891v-0.1816406c0.0410156-0.0205078,0.0957031-0.0390625,0.1640625-0.0556641
				s0.1342773-0.0253906,0.1982422-0.0253906c0.1318359,0,0.2353516,0.0322266,0.3105469,0.0957031
				c0.074707,0.0634766,0.1123047,0.1503906,0.1123047,0.2587891c0,0.0488281-0.0063477,0.0947266-0.0185547,0.1376953
				c-0.0126953,0.0419922-0.0307617,0.0820313-0.0551758,0.1201172c-0.0224609,0.0361328-0.0488281,0.0712891-0.0791016,0.1054688
				s-0.0668945,0.0732422-0.1098633,0.1152344c-0.0620117,0.0605469-0.1254883,0.1191406-0.1914063,0.1757813
				c-0.0654297,0.0566406-0.1269531,0.109375-0.184082,0.1572266h0.6923828V59.7138672z"/>
		</g>
	</g>
	<g id="ГРУППА_2_">
		<g>
			<polygon class="st6" points="40.6746025,27.6871033 37.2369423,27.6871033 37.2369423,23.4316254 40.6746025,23.4316254 
				40.6746025,23.7414036 39.9700775,23.7414036 39.9700775,27.3472309 40.6746025,27.3472309 			"/>
			<polygon class="st6" points="47.8030586,27.646389 44.3653984,27.646389 44.3653984,27.3472309 45.1318779,27.3472309 
				45.1318779,23.7414036 44.3653984,23.7414036 44.3653984,23.3909111 47.8030586,23.3909111 			"/>
			<rect x="39.9700775" y="23.7414036" class="st7" width="0.7045258" height="3.6058266"/>
			<rect x="40.6746025" y="23.7414036" class="st7" width="3.6907945" height="3.6058266"/>
			<rect x="44.3653984" y="23.7414036" class="st7" width="0.7664815" height="3.6058266"/>
		</g>
		<g>
		</g>
	</g>
	<g>
		<g id="XMLID_35_">
			<g>
				<rect x="37.237278" y="17.214407" class="st6" width="3.4358907" height="4.255477"/>
			</g>
			<g>
			</g>
		</g>
		<g id="XMLID_34_">
			<g>
				<rect x="44.3657341" y="17.1736927" class="st6" width="3.4376609" height="4.255477"/>
			</g>
			<g>
			</g>
		</g>
		<g id="XMLID_33_">
			<g>
				<rect x="39.9687386" y="17.5241852" class="st4" width="5.1633434" height="3.6058266"/>
			</g>
			<g>
			</g>
		</g>
		<g>
			<path class="st5" d="M41.9760742,19.8720703h-0.6967773v-0.1313477h0.2680664v-0.862793h-0.2680664v-0.1171875
				c0.0361328,0,0.0751953-0.003418,0.1166992-0.0092773s0.0727539-0.0146484,0.0942383-0.0263672
				c0.0263672-0.0141602,0.0473633-0.0327148,0.0625-0.0546875c0.015625-0.0224609,0.0244141-0.0522461,0.0263672-0.0898438
				h0.1342773v1.1601563h0.2626953V19.8720703z"/>
			<path class="st5" d="M42.9960938,19.2280273c0,0.230957-0.0361328,0.4008789-0.1083984,0.5087891
				s-0.1845703,0.1621094-0.3369141,0.1621094c-0.1542969,0-0.2670898-0.0546875-0.3383789-0.1640625
				c-0.0712891-0.1098633-0.1064453-0.277832-0.1064453-0.5048828c0-0.2290039,0.0356445-0.3979492,0.1079102-0.5068359
				c0.0717773-0.109375,0.184082-0.1640625,0.3369141-0.1640625c0.1542969,0,0.2670898,0.0556641,0.3383789,0.1665039
				S42.9960938,19.0039063,42.9960938,19.2280273z M42.7685547,19.6206055
				c0.0205078-0.046875,0.0341797-0.1015625,0.0410156-0.1645508c0.0073242-0.0634766,0.0107422-0.1391602,0.0107422-0.2280273
				c0-0.0874023-0.003418-0.1635742-0.0107422-0.2280273c-0.0068359-0.0644531-0.0209961-0.1191406-0.0419922-0.1640625
				c-0.0200195-0.0444336-0.0473633-0.078125-0.0825195-0.1005859c-0.034668-0.0224609-0.0795898-0.0336914-0.1342773-0.0336914
				c-0.0541992,0-0.0991211,0.0112305-0.1342773,0.0336914c-0.0356445,0.0224609-0.0634766,0.0566406-0.0844727,0.1020508
				c-0.0195313,0.0424805-0.0327148,0.0981445-0.0400391,0.1669922c-0.0073242,0.0683594-0.0107422,0.1435547-0.0107422,0.2255859
				c0,0.0898438,0.0029297,0.1650391,0.0092773,0.2255859s0.0200195,0.1147461,0.0410156,0.1625977
				c0.0185547,0.0449219,0.0458984,0.0791016,0.0805664,0.1025391c0.034668,0.0239258,0.0810547,0.0356445,0.1386719,0.0356445
				c0.0541992,0,0.0991211-0.0112305,0.1347656-0.0336914S42.7490234,19.6660156,42.7685547,19.6206055z"/>
			<path class="st5" d="M43.9462891,19.8720703h-0.8710938v-0.1806641c0.0605469-0.0517578,0.1210938-0.1035156,0.1821289-0.1557617
				c0.0605469-0.0517578,0.1171875-0.1030273,0.1694336-0.1542969c0.1108398-0.1074219,0.1865234-0.1923828,0.2275391-0.2558594
				c0.0410156-0.0629883,0.0615234-0.1308594,0.0615234-0.2041016c0-0.0668945-0.0219727-0.1191406-0.0664063-0.1567383
				c-0.0439453-0.0380859-0.1054688-0.0566406-0.1845703-0.0566406c-0.0522461,0-0.1088867,0.0087891-0.1699219,0.0273438
				s-0.1210938,0.046875-0.1791992,0.0849609h-0.0087891v-0.1816406c0.0410156-0.0200195,0.0957031-0.0385742,0.1640625-0.0551758
				c0.0683594-0.0170898,0.1342773-0.0253906,0.1982422-0.0253906c0.1318359,0,0.2353516,0.0322266,0.3105469,0.0957031
				c0.074707,0.0634766,0.1123047,0.1499023,0.1123047,0.2587891c0,0.0488281-0.0063477,0.0947266-0.0185547,0.137207
				c-0.0126953,0.0419922-0.0307617,0.0825195-0.0551758,0.1206055c-0.0224609,0.0356445-0.0488281,0.0708008-0.0791016,0.1054688
				c-0.0302734,0.0341797-0.0668945,0.0727539-0.1098633,0.1147461c-0.0620117,0.0605469-0.1254883,0.1191406-0.1914063,0.1757813
				c-0.0654297,0.0566406-0.1269531,0.109375-0.184082,0.1577148h0.6923828V19.8720703z"/>
		</g>
	</g>
	<g>
		<g id="XMLID_28_">
			<g>
				<rect x="44.3661995" y="10.9575329" class="st6" width="3.4358907" height="4.255477"/>
			</g>
			<g>
			</g>
		</g>
		<g id="XMLID_27_">
			<g>
				<rect x="37.2359772" y="10.9982462" class="st6" width="3.4376609" height="4.255477"/>
			</g>
			<g>
			</g>
		</g>
		<g id="XMLID_26_">
			<g>
				<rect x="39.9072876" y="11.2974043" class="st4" width="5.1633434" height="3.6058266"/>
			</g>
			<g>
			</g>
		</g>
		<g>
			<path class="st5" d="M41.4404297,13.7958984h-0.6967773v-0.1313477h0.2680664v-0.862793h-0.2680664v-0.1171875
				c0.0361328,0,0.0751953-0.003418,0.1166992-0.0092773s0.0727539-0.0146484,0.0942383-0.0263672
				c0.0263672-0.0141602,0.0473633-0.0327148,0.0625-0.0546875c0.015625-0.0224609,0.0244141-0.0522461,0.0263672-0.0898438
				h0.1342773v1.1601563h0.2626953V13.7958984z"/>
			<path class="st5" d="M42.4604492,13.1518555c0,0.230957-0.0361328,0.4008789-0.1083984,0.5087891
				s-0.1845703,0.1621094-0.3369141,0.1621094c-0.1542969,0-0.2670898-0.0546875-0.3383789-0.1640625
				c-0.0712891-0.1098633-0.1064453-0.277832-0.1064453-0.5048828c0-0.2290039,0.0356445-0.3979492,0.1079102-0.5068359
				c0.0717773-0.109375,0.184082-0.1640625,0.3369141-0.1640625c0.1542969,0,0.2670898,0.0556641,0.3383789,0.1665039
				S42.4604492,12.9277344,42.4604492,13.1518555z M42.2329102,13.5444336
				c0.0205078-0.046875,0.0341797-0.1015625,0.0410156-0.1645508c0.0073242-0.0634766,0.0107422-0.1391602,0.0107422-0.2280273
				c0-0.0874023-0.003418-0.1635742-0.0107422-0.2280273c-0.0068359-0.0644531-0.0209961-0.1191406-0.0419922-0.1640625
				c-0.0200195-0.0444336-0.0473633-0.078125-0.0825195-0.1005859c-0.034668-0.0224609-0.0795898-0.0336914-0.1342773-0.0336914
				c-0.0541992,0-0.0991211,0.0112305-0.1342773,0.0336914c-0.0356445,0.0224609-0.0634766,0.0566406-0.0844727,0.1020508
				c-0.0195313,0.0424805-0.0327148,0.0981445-0.0400391,0.1669922c-0.0073242,0.0683594-0.0107422,0.1435547-0.0107422,0.2255859
				c0,0.0898438,0.0029297,0.1650391,0.0092773,0.2255859s0.0200195,0.1147461,0.0410156,0.1625977
				c0.0185547,0.0449219,0.0458984,0.0791016,0.0805664,0.1025391c0.034668,0.0239258,0.0810547,0.0356445,0.1386719,0.0356445
				c0.0541992,0,0.0991211-0.0112305,0.1347656-0.0336914S42.2133789,13.5898438,42.2329102,13.5444336z"/>
			<path class="st5" d="M43.4091797,13.1518555c0,0.230957-0.0361328,0.4008789-0.1083984,0.5087891
				s-0.1845703,0.1621094-0.3369141,0.1621094c-0.1542969,0-0.2670898-0.0546875-0.3383789-0.1640625
				c-0.0712891-0.1098633-0.1064453-0.277832-0.1064453-0.5048828c0-0.2290039,0.0356445-0.3979492,0.1079102-0.5068359
				c0.0717773-0.109375,0.184082-0.1640625,0.3369141-0.1640625c0.1542969,0,0.2670898,0.0556641,0.3383789,0.1665039
				S43.4091797,12.9277344,43.4091797,13.1518555z M43.1816406,13.5444336
				c0.0205078-0.046875,0.0341797-0.1015625,0.0410156-0.1645508c0.0073242-0.0634766,0.0107422-0.1391602,0.0107422-0.2280273
				c0-0.0874023-0.003418-0.1635742-0.0107422-0.2280273c-0.0068359-0.0644531-0.0209961-0.1191406-0.0419922-0.1640625
				c-0.0200195-0.0444336-0.0473633-0.078125-0.0825195-0.1005859c-0.034668-0.0224609-0.0795898-0.0336914-0.1342773-0.0336914
				c-0.0541992,0-0.0991211,0.0112305-0.1342773,0.0336914c-0.0356445,0.0224609-0.0634766,0.0566406-0.0844727,0.1020508
				c-0.0195313,0.0424805-0.0327148,0.0981445-0.0400391,0.1669922c-0.0073242,0.0683594-0.0107422,0.1435547-0.0107422,0.2255859
				c0,0.0898438,0.0029297,0.1650391,0.0092773,0.2255859s0.0200195,0.1147461,0.0410156,0.1625977
				c0.0185547,0.0449219,0.0458984,0.0791016,0.0805664,0.1025391c0.034668,0.0239258,0.0810547,0.0356445,0.1386719,0.0356445
				c0.0541992,0,0.0991211-0.0112305,0.1347656-0.0336914S43.1621094,13.5898438,43.1816406,13.5444336z"/>
			<path class="st5" d="M44.2456055,13.1762695c0.027832,0.0249023,0.0507813,0.0556641,0.0683594,0.0932617
				c0.0180664,0.0375977,0.0268555,0.0859375,0.0268555,0.1450195s-0.0107422,0.112793-0.0317383,0.1616211
				c-0.0214844,0.0493164-0.0512695,0.0917969-0.0898438,0.1279297c-0.043457,0.0405273-0.0942383,0.0703125-0.152832,0.0898438
				c-0.0585938,0.019043-0.1225586,0.0288086-0.1923828,0.0288086c-0.0712891,0-0.1416016-0.0087891-0.2109375-0.0253906
				c-0.0688477-0.0170898-0.1259766-0.0356445-0.1699219-0.0561523v-0.1801758h0.0126953
				c0.0488281,0.0322266,0.1064453,0.0585938,0.1728516,0.0800781s0.1303711,0.0322266,0.1918945,0.0322266
				c0.0366211,0,0.0751953-0.0063477,0.1157227-0.0185547c0.0410156-0.0117188,0.0742188-0.0297852,0.0996094-0.0532227
				c0.0263672-0.0253906,0.0463867-0.0532227,0.059082-0.0839844c0.0131836-0.0307617,0.0195313-0.0693359,0.0195313-0.1157227
				s-0.0073242-0.0844727-0.0219727-0.1147461s-0.0351563-0.0537109-0.0610352-0.0712891s-0.0571289-0.0297852-0.0942383-0.0366211
				c-0.0366211-0.0068359-0.0766602-0.0097656-0.1191406-0.0097656h-0.0776367v-0.1435547h0.0600586
				c0.0878906,0,0.1577148-0.0185547,0.2099609-0.0551758s0.078125-0.0898438,0.078125-0.1601563
				c0-0.03125-0.0068359-0.0581055-0.0200195-0.081543s-0.0317383-0.0424805-0.0551758-0.0576172
				c-0.0249023-0.0151367-0.0512695-0.0253906-0.0795898-0.03125c-0.0283203-0.0053711-0.0600586-0.0083008-0.0957031-0.0083008
				c-0.0551758,0-0.1132813,0.0097656-0.1748047,0.0292969s-0.1196289,0.0473633-0.1748047,0.0830078h-0.0083008v-0.1806641
				c0.0410156-0.0205078,0.0952148-0.0390625,0.1635742-0.0556641c0.0683594-0.0170898,0.1342773-0.0258789,0.1982422-0.0258789
				c0.0629883,0,0.1181641,0.0058594,0.1660156,0.0175781c0.0478516,0.0112305,0.0913086,0.0297852,0.1298828,0.0551758
				c0.0415039,0.027832,0.0727539,0.0610352,0.0942383,0.1000977c0.0209961,0.0395508,0.0317383,0.0849609,0.0317383,0.1376953
				c0,0.0712891-0.0249023,0.1337891-0.0756836,0.1870117c-0.050293,0.0532227-0.1098633,0.0869141-0.1782227,0.1005859v0.012207
				c0.0273438,0.0048828,0.059082,0.0141602,0.0952148,0.0288086C44.190918,13.1357422,44.2211914,13.1542969,44.2456055,13.1762695
				z"/>
		</g>
	</g>
	<g>
		<g id="XMLID_31_">
			<g>
				<rect x="64.8755417" y="50.577858" class="st6" width="4.255477" height="3.4358907"/>
			</g>
			<g>
			</g>
		</g>
		<g id="XMLID_30_">
			<g>
				<rect x="64.9162521" y="57.7063103" class="st6" width="4.255477" height="3.4376609"/>
			</g>
			<g>
			</g>
		</g>
		<g id="XMLID_29_">
			<g>
				<rect x="65.215416" y="53.3093185" class="st4" width="3.6058266" height="5.1633434"/>
			</g>
			<g>
			</g>
		</g>
		<g>
			<path class="st5" d="M67.3515625,56.8369141v0.1914063h0.3623047v0.1660156h-0.3623047v0.6162109h-0.1992188
				l-0.7255859-0.6240234v-0.1582031h0.7861328v-0.1914063H67.3515625z M67.2128906,57.1943359h-0.5800781l0.5800781,0.4980469
				V57.1943359z"/>
			<path class="st5" d="M66.6191406,55.9150391l1.0947266,0.5820313v0.1855469L66.578125,56.0625v0.7324219h-0.1513672v-0.8798828
				H66.6191406z"/>
			<path class="st5" d="M67.0693359,54.9707031c0.2314453,0,0.4013672,0.0361328,0.5087891,0.1083984
				c0.1083984,0.0722656,0.1621094,0.1845703,0.1621094,0.3369141c0,0.1542969-0.0546875,0.2675781-0.1640625,0.3388672
				s-0.2773438,0.1064453-0.5048828,0.1064453c-0.2285156,0-0.3974609-0.0361328-0.5068359-0.1083984
				c-0.109375-0.0712891-0.1640625-0.1835938-0.1640625-0.3369141c0-0.1542969,0.0556641-0.2666016,0.1669922-0.3378906
				C66.6777344,55.0068359,66.8457031,54.9707031,67.0693359,54.9707031z M67.4619141,55.1982422
				c-0.046875-0.0205078-0.1015625-0.0341797-0.1640625-0.0410156c-0.0634766-0.0068359-0.1396484-0.0107422-0.2285156-0.0107422
				c-0.0869141,0-0.1630859,0.0039063-0.2275391,0.0107422s-0.1191406,0.0214844-0.1640625,0.0419922
				s-0.078125,0.0478516-0.1005859,0.0830078c-0.0224609,0.0341797-0.0341797,0.0791016-0.0341797,0.1337891
				s0.0117188,0.0996094,0.0341797,0.1347656s0.0566406,0.0634766,0.1015625,0.0839844
				c0.0429688,0.0195313,0.0986328,0.0332031,0.1669922,0.0400391c0.0683594,0.0078125,0.1435547,0.0107422,0.2255859,0.0107422
				c0.0898438,0,0.1650391-0.0029297,0.2255859-0.0087891c0.0605469-0.0068359,0.1152344-0.0205078,0.1630859-0.0410156
				c0.0449219-0.0185547,0.0791016-0.0458984,0.1025391-0.0810547c0.0234375-0.0341797,0.0351563-0.0810547,0.0351563-0.1386719
				c0-0.0537109-0.0107422-0.0986328-0.0332031-0.1347656C67.5419922,55.2460938,67.5078125,55.2177734,67.4619141,55.1982422z"/>
			<path class="st5" d="M67.0693359,54.0224609c0.2314453,0,0.4013672,0.0361328,0.5087891,0.1083984
				c0.1083984,0.0722656,0.1621094,0.1845703,0.1621094,0.3369141c0,0.1542969-0.0546875,0.2675781-0.1640625,0.3388672
				s-0.2773438,0.1064453-0.5048828,0.1064453c-0.2285156,0-0.3974609-0.0361328-0.5068359-0.1083984
				c-0.109375-0.0712891-0.1640625-0.1835938-0.1640625-0.3369141c0-0.1542969,0.0556641-0.2666016,0.1669922-0.3378906
				C66.6777344,54.0585938,66.8457031,54.0224609,67.0693359,54.0224609z M67.4619141,54.25
				c-0.046875-0.0205078-0.1015625-0.0341797-0.1640625-0.0410156c-0.0634766-0.0068359-0.1396484-0.0107422-0.2285156-0.0107422
				c-0.0869141,0-0.1630859,0.0039063-0.2275391,0.0107422s-0.1191406,0.0214844-0.1640625,0.0419922
				s-0.078125,0.0478516-0.1005859,0.0830078c-0.0224609,0.0341797-0.0341797,0.0791016-0.0341797,0.1337891
				s0.0117188,0.0996094,0.0341797,0.1347656s0.0566406,0.0634766,0.1015625,0.0839844
				c0.0429688,0.0195313,0.0986328,0.0332031,0.1669922,0.0400391c0.0683594,0.0078125,0.1435547,0.0107422,0.2255859,0.0107422
				c0.0898438,0,0.1650391-0.0029297,0.2255859-0.0087891c0.0605469-0.0068359,0.1152344-0.0205078,0.1630859-0.0410156
				c0.0449219-0.0185547,0.0791016-0.0458984,0.1025391-0.0810547c0.0234375-0.0341797,0.0351563-0.0810547,0.0351563-0.1386719
				c0-0.0537109-0.0107422-0.0986328-0.0332031-0.1347656C67.5419922,54.2978516,67.5078125,54.2695313,67.4619141,54.25z"/>
		</g>
	</g>
	<g>
		<g id="XMLID_45_">
			<g>
				<rect x="55.8389359" y="50.577858" class="st6" width="4.255477" height="3.4358907"/>
			</g>
			<g>
			</g>
		</g>
		<g id="XMLID_42_">
			<g>
				<rect x="55.8796501" y="57.7063103" class="st6" width="4.255477" height="3.4376609"/>
			</g>
			<g>
			</g>
		</g>
		<g id="XMLID_36_">
			<g>
				<rect x="56.1788063" y="53.3093185" class="st4" width="3.6058266" height="5.1633434"/>
			</g>
			<g>
			</g>
		</g>
		<g>
			<path class="st5" d="M58.3144531,56.8369141v0.1914063h0.3623047v0.1660156h-0.3623047v0.6162109h-0.1987305
				l-0.7260742-0.6240234v-0.1582031h0.7866211v-0.1914063H58.3144531z M58.1762695,57.1943359h-0.5805664l0.5805664,0.4980469
				V57.1943359z"/>
			<path class="st5" d="M57.5825195,55.9150391l1.0942383,0.5820313v0.1855469L57.5410156,56.0625v0.7324219h-0.1513672v-0.8798828
				H57.5825195z"/>
			<path class="st5" d="M58.0327148,54.9707031c0.230957,0,0.4008789,0.0361328,0.5087891,0.1083984
				s0.1621094,0.1845703,0.1621094,0.3369141c0,0.1542969-0.0546875,0.2675781-0.1640625,0.3388672
				c-0.1098633,0.0712891-0.277832,0.1064453-0.5048828,0.1064453c-0.2290039,0-0.3979492-0.0361328-0.5068359-0.1083984
				c-0.109375-0.0712891-0.1640625-0.1835938-0.1640625-0.3369141c0-0.1542969,0.0556641-0.2666016,0.1665039-0.3378906
				S57.8085938,54.9707031,58.0327148,54.9707031z M58.425293,55.1982422
				c-0.046875-0.0205078-0.1015625-0.0341797-0.1645508-0.0410156c-0.0634766-0.0068359-0.1391602-0.0107422-0.2280273-0.0107422
				c-0.0874023,0-0.1635742,0.0039063-0.2280273,0.0107422s-0.1191406,0.0214844-0.1640625,0.0419922
				c-0.0444336,0.0205078-0.078125,0.0478516-0.1005859,0.0830078c-0.0224609,0.0341797-0.0336914,0.0791016-0.0336914,0.1337891
				s0.0112305,0.0996094,0.0336914,0.1347656s0.0566406,0.0634766,0.1020508,0.0839844
				c0.0424805,0.0195313,0.0981445,0.0332031,0.1669922,0.0400391c0.0683594,0.0078125,0.1435547,0.0107422,0.2255859,0.0107422
				c0.0898438,0,0.1650391-0.0029297,0.2255859-0.0087891c0.0605469-0.0068359,0.1147461-0.0205078,0.1625977-0.0410156
				c0.0449219-0.0185547,0.0791016-0.0458984,0.1025391-0.0810547c0.0239258-0.0341797,0.0356445-0.0810547,0.0356445-0.1386719
				c0-0.0537109-0.0112305-0.0986328-0.0336914-0.1347656C58.5048828,55.2460938,58.4707031,55.2177734,58.425293,55.1982422z"/>
			<path class="st5" d="M58.0327148,54.0224609c0.230957,0,0.4008789,0.0361328,0.5087891,0.1083984
				s0.1621094,0.1845703,0.1621094,0.3369141c0,0.1542969-0.0546875,0.2675781-0.1640625,0.3388672
				c-0.1098633,0.0712891-0.277832,0.1064453-0.5048828,0.1064453c-0.2290039,0-0.3979492-0.0361328-0.5068359-0.1083984
				c-0.109375-0.0712891-0.1640625-0.1835938-0.1640625-0.3369141c0-0.1542969,0.0556641-0.2666016,0.1665039-0.3378906
				S57.8085938,54.0224609,58.0327148,54.0224609z M58.425293,54.25c-0.046875-0.0205078-0.1015625-0.0341797-0.1645508-0.0410156
				c-0.0634766-0.0068359-0.1391602-0.0107422-0.2280273-0.0107422c-0.0874023,0-0.1635742,0.0039063-0.2280273,0.0107422
				s-0.1191406,0.0214844-0.1640625,0.0419922c-0.0444336,0.0205078-0.078125,0.0478516-0.1005859,0.0830078
				c-0.0224609,0.0341797-0.0336914,0.0791016-0.0336914,0.1337891s0.0112305,0.0996094,0.0336914,0.1347656
				s0.0566406,0.0634766,0.1020508,0.0839844c0.0424805,0.0195313,0.0981445,0.0332031,0.1669922,0.0400391
				c0.0683594,0.0078125,0.1435547,0.0107422,0.2255859,0.0107422c0.0898438,0,0.1650391-0.0029297,0.2255859-0.0087891
				C58.3208008,54.7216797,58.375,54.7080078,58.4228516,54.6875c0.0449219-0.0185547,0.0791016-0.0458984,0.1025391-0.0810547
				c0.0239258-0.0341797,0.0356445-0.0810547,0.0356445-0.1386719c0-0.0537109-0.0112305-0.0986328-0.0336914-0.1347656
				C58.5048828,54.2978516,58.4707031,54.2695313,58.425293,54.25z"/>
		</g>
	</g>
	<g>
		<g id="XMLID_48_">
			<g>
				<rect x="73.9844742" y="50.577858" class="st6" width="4.255477" height="3.4358907"/>
			</g>
			<g>
			</g>
		</g>
		<g id="XMLID_47_">
			<g>
				<rect x="74.0251846" y="57.7063103" class="st6" width="4.255477" height="3.4376609"/>
			</g>
			<g>
			</g>
		</g>
		<g id="XMLID_46_">
			<g>
				<rect x="74.3243408" y="53.3093185" class="st4" width="3.6058266" height="5.1633434"/>
			</g>
			<g>
			</g>
		</g>
		<g>
			<path class="st5" d="M76.4599609,56.8369141v0.1914063h0.3623047v0.1660156h-0.3623047v0.6162109h-0.1982422
				l-0.7265625-0.6240234v-0.1582031h0.7871094v-0.1914063H76.4599609z M76.3222656,57.1943359h-0.5810547l0.5810547,0.4980469
				V57.1943359z"/>
			<path class="st5" d="M75.7285156,55.9150391l1.09375,0.5820313v0.1855469L75.6865234,56.0625v0.7324219h-0.1513672v-0.8798828
				H75.7285156z"/>
			<path class="st5" d="M76.1787109,54.9707031c0.2304688,0,0.4003906,0.0361328,0.5087891,0.1083984
				c0.1074219,0.0722656,0.1621094,0.1845703,0.1621094,0.3369141c0,0.1542969-0.0546875,0.2675781-0.1640625,0.3388672
				c-0.1103516,0.0712891-0.2783203,0.1064453-0.5048828,0.1064453c-0.2294922,0-0.3984375-0.0361328-0.5068359-0.1083984
				c-0.109375-0.0712891-0.1640625-0.1835938-0.1640625-0.3369141c0-0.1542969,0.0556641-0.2666016,0.1660156-0.3378906
				C75.7871094,55.0068359,75.9541016,54.9707031,76.1787109,54.9707031z M76.5712891,55.1982422
				c-0.046875-0.0205078-0.1015625-0.0341797-0.1650391-0.0410156s-0.1386719-0.0107422-0.2275391-0.0107422
				c-0.0878906,0-0.1640625,0.0039063-0.2285156,0.0107422s-0.1191406,0.0214844-0.1640625,0.0419922
				c-0.0439453,0.0205078-0.078125,0.0478516-0.1005859,0.0830078c-0.0224609,0.0341797-0.0332031,0.0791016-0.0332031,0.1337891
				s0.0107422,0.0996094,0.0332031,0.1347656s0.0566406,0.0634766,0.1025391,0.0839844
				c0.0419922,0.0195313,0.0976563,0.0332031,0.1669922,0.0400391c0.0683594,0.0078125,0.1435547,0.0107422,0.2255859,0.0107422
				c0.0898438,0,0.1650391-0.0029297,0.2255859-0.0087891c0.0605469-0.0068359,0.1142578-0.0205078,0.1621094-0.0410156
				c0.0449219-0.0185547,0.0791016-0.0458984,0.1025391-0.0810547c0.0244141-0.0341797,0.0361328-0.0810547,0.0361328-0.1386719
				c0-0.0537109-0.0117188-0.0986328-0.0341797-0.1347656C76.6503906,55.2460938,76.6162109,55.2177734,76.5712891,55.1982422z"/>
			<path class="st5" d="M76.1787109,54.0224609c0.2304688,0,0.4003906,0.0361328,0.5087891,0.1083984
				c0.1074219,0.0722656,0.1621094,0.1845703,0.1621094,0.3369141c0,0.1542969-0.0546875,0.2675781-0.1640625,0.3388672
				c-0.1103516,0.0712891-0.2783203,0.1064453-0.5048828,0.1064453c-0.2294922,0-0.3984375-0.0361328-0.5068359-0.1083984
				c-0.109375-0.0712891-0.1640625-0.1835938-0.1640625-0.3369141c0-0.1542969,0.0556641-0.2666016,0.1660156-0.3378906
				C75.7871094,54.0585938,75.9541016,54.0224609,76.1787109,54.0224609z M76.5712891,54.25
				c-0.046875-0.0205078-0.1015625-0.0341797-0.1650391-0.0410156s-0.1386719-0.0107422-0.2275391-0.0107422
				c-0.0878906,0-0.1640625,0.0039063-0.2285156,0.0107422s-0.1191406,0.0214844-0.1640625,0.0419922
				c-0.0439453,0.0205078-0.078125,0.0478516-0.1005859,0.0830078c-0.0224609,0.0341797-0.0332031,0.0791016-0.0332031,0.1337891
				s0.0107422,0.0996094,0.0332031,0.1347656s0.0566406,0.0634766,0.1025391,0.0839844
				c0.0419922,0.0195313,0.0976563,0.0332031,0.1669922,0.0400391c0.0683594,0.0078125,0.1435547,0.0107422,0.2255859,0.0107422
				c0.0898438,0,0.1650391-0.0029297,0.2255859-0.0087891c0.0605469-0.0068359,0.1142578-0.0205078,0.1621094-0.0410156
				c0.0449219-0.0185547,0.0791016-0.0458984,0.1025391-0.0810547c0.0244141-0.0341797,0.0361328-0.0810547,0.0361328-0.1386719
				c0-0.0537109-0.0117188-0.0986328-0.0341797-0.1347656C76.6503906,54.2978516,76.6162109,54.2695313,76.5712891,54.25z"/>
		</g>
	</g>
	<g>
		<path class="st8" d="M90,48.3227844c1.2273636,0,2.2224731,1.0018463,2.2224731,2.2397385S91.2273636,52.8040619,90,52.8040619
			s-2.2224731-1.0036469-2.2224731-2.241539S88.7726364,48.3227844,90,48.3227844z"/>
		<ellipse class="st9" cx="90" cy="50.5634232" rx="1.5185714" ry="1.5316002"/>
		<path class="st8" d="M90,41.0944366c1.2273636,0,2.2224731,1.0018463,2.2224731,2.2397385S91.2273636,45.5757179,90,45.5757179
			s-2.2224731-1.0036507-2.2224731-2.2415428S88.7726364,41.0944366,90,41.0944366z"/>
		<ellipse class="st9" cx="90" cy="43.3350754" rx="1.5185714" ry="1.5316002"/>
		<path class="st8" d="M90,33.8944359c1.2273636,0,2.2224731,1.0018463,2.2224731,2.2397385S91.2273636,38.3757172,90,38.3757172
			s-2.2224731-1.0036507-2.2224731-2.2415428S88.7726364,33.8944359,90,33.8944359z"/>
		<ellipse class="st9" cx="90" cy="36.1350784" rx="1.5185714" ry="1.5316002"/>
		<path class="st8" d="M88.3710785,27.3070068c2.0229111-1.5395126,4.2713089,0.1709862,3.7840042,2.1831684
			c-0.1875381,0.7743721-0.8210831,1.4096432-1.5950623,1.5987854
			C88.5483932,31.580555,86.8306808,29.3314934,88.3710785,27.3070068z"/>
		<ellipse class="st9" cx="90" cy="28.9350777" rx="1.5185714" ry="1.5316002"/>
		<path class="st8" d="M88.3710785,20.1070061c2.0229187-1.5395107,4.2713089,0.1709862,3.7840042,2.1831703
			c-0.1875381,0.7743702-0.8210754,1.4096413-1.5950623,1.5987835
			C88.5483932,24.3805561,86.8306808,22.1314945,88.3710785,20.1070061z"/>
		<ellipse class="st9" cx="90" cy="21.7350769" rx="1.5185714" ry="1.5316002"/>
	</g>
	<g id="Микроконтроллер">
		<path class="st10" d="M101.1529388,27.0177441v18.2834644c0,0.1565514,0.126915,0.2834663,0.2834702,0.2834663h0.5054626
			V26.7342796h-0.5054626C101.2798538,26.7342796,101.1529388,26.8611908,101.1529388,27.0177441z"/>
		<path class="st10" d="M113.9734879,26.7342796v18.8503952h0.5054626c0.1565552,0,0.2834702-0.126915,0.2834702-0.2834663
			V27.0177441c0-0.1565533-0.126915-0.2834644-0.2834702-0.2834644H113.9734879z"/>
		<g id="XMLID_32_">
			<g>
				<rect x="97.5400009" y="34.51614" class="st11" width="2.0542536" height="1.4175662"/>
			</g>
			<g>
			</g>
		</g>
		<line class="st12" x1="98.1678619" y1="35.2258415" x2="101.8631897" y2="35.2258415"/>
		<g id="XMLID_44_">
			<g>
				<rect x="97.5400009" y="36.3850784" class="st11" width="2.0542536" height="1.4175662"/>
			</g>
			<g>
			</g>
		</g>
		<line class="st12" x1="98.1678619" y1="37.09478" x2="101.8631897" y2="37.09478"/>
		<g id="XMLID_43_">
			<g>
				<rect x="97.5400009" y="38.2540131" class="st11" width="2.0542536" height="1.4175662"/>
			</g>
			<g>
			</g>
		</g>
		<line class="st12" x1="98.1678619" y1="38.9637146" x2="101.8631897" y2="38.9637146"/>
		<g id="XMLID_37_">
			<g>
				<rect x="97.5400009" y="40.1229515" class="st11" width="2.0542536" height="1.4175662"/>
			</g>
			<g>
			</g>
		</g>
		<line class="st12" x1="98.1678619" y1="40.832653" x2="101.8631897" y2="40.832653"/>
		<g id="XMLID_9_">
			<g>
				<rect x="97.5400009" y="41.99189" class="st11" width="2.0542536" height="1.4175662"/>
			</g>
			<g>
			</g>
		</g>
		<line class="st12" x1="98.1678619" y1="42.7015915" x2="101.8631897" y2="42.7015915"/>
		<g id="XMLID_8_">
			<g>
				<rect x="97.5400009" y="43.8608246" class="st11" width="2.0542536" height="1.4175662"/>
			</g>
			<g>
			</g>
		</g>
		<line class="st12" x1="98.1678619" y1="44.5705299" x2="101.8631897" y2="44.5705299"/>
		<line class="st13" x1="101.8631897" y1="44.5705299" x2="101.1529388" y2="44.5705299"/>
		<line class="st13" x1="101.8631897" y1="42.7015915" x2="101.1529388" y2="42.7015915"/>
		<line class="st13" x1="101.8631897" y1="40.832653" x2="101.1529388" y2="40.832653"/>
		<line class="st13" x1="101.8631897" y1="38.9637146" x2="101.1529388" y2="38.9637146"/>
		<line class="st13" x1="101.8631897" y1="37.09478" x2="101.1529388" y2="37.09478"/>
		<line class="st13" x1="101.8631897" y1="35.2258415" x2="101.1529388" y2="35.2258415"/>
		<g id="XMLID_13_">
			<g>
				<rect x="97.5400009" y="27.04039" class="st11" width="2.0542536" height="1.4175662"/>
			</g>
			<g>
			</g>
		</g>
		<line class="st12" x1="98.1678619" y1="27.7500916" x2="101.8631897" y2="27.7500916"/>
		<g id="XMLID_12_">
			<g>
				<rect x="97.5400009" y="28.9093285" class="st11" width="2.0542536" height="1.4175662"/>
			</g>
			<g>
			</g>
		</g>
		<line class="st12" x1="98.1678619" y1="29.61903" x2="101.8631897" y2="29.61903"/>
		<g id="XMLID_11_">
			<g>
				<rect x="97.5400009" y="30.778265" class="st11" width="2.0542536" height="1.4175662"/>
			</g>
			<g>
			</g>
		</g>
		<line class="st12" x1="98.1678619" y1="31.4879665" x2="101.8631897" y2="31.4879665"/>
		<g id="XMLID_10_">
			<g>
				<rect x="97.5400009" y="32.6472015" class="st11" width="2.0542536" height="1.4175662"/>
			</g>
			<g>
			</g>
		</g>
		<line class="st12" x1="98.1678619" y1="33.3569031" x2="101.8631897" y2="33.3569031"/>
		<line class="st13" x1="101.8631897" y1="33.3569031" x2="101.1529388" y2="33.3569031"/>
		<line class="st13" x1="101.8631897" y1="31.4879665" x2="101.1529388" y2="31.4879665"/>
		<line class="st13" x1="101.8631897" y1="29.61903" x2="101.1529388" y2="29.61903"/>
		<line class="st13" x1="101.8631897" y1="27.7500916" x2="101.1529388" y2="27.7500916"/>
		<g id="XMLID_23_">
			<g>
				<rect x="116.321106" y="36.3852463" class="st11" width="2.0542536" height="1.4175662"/>
			</g>
			<g>
			</g>
		</g>
		<line class="st12" x1="117.7474976" y1="37.0931091" x2="114.0521698" y2="37.0931091"/>
		<g id="XMLID_22_">
			<g>
				<rect x="116.321106" y="34.5163078" class="st11" width="2.0542536" height="1.4175662"/>
			</g>
			<g>
			</g>
		</g>
		<line class="st12" x1="117.7474976" y1="35.2241745" x2="114.0521698" y2="35.2241745"/>
		<g id="XMLID_21_">
			<g>
				<rect x="116.321106" y="32.6473732" class="st11" width="2.0542536" height="1.4175662"/>
			</g>
			<g>
			</g>
		</g>
		<line class="st12" x1="117.7474976" y1="33.3552361" x2="114.0521698" y2="33.3552361"/>
		<g id="XMLID_20_">
			<g>
				<rect x="116.321106" y="30.7784348" class="st11" width="2.0542536" height="1.4175662"/>
			</g>
			<g>
			</g>
		</g>
		<line class="st12" x1="117.7474976" y1="31.4862995" x2="114.0521698" y2="31.4862995"/>
		<g id="XMLID_19_">
			<g>
				<rect x="116.321106" y="28.9094982" class="st11" width="2.0542536" height="1.4175662"/>
			</g>
			<g>
			</g>
		</g>
		<line class="st12" x1="117.7474976" y1="29.6173611" x2="114.0521698" y2="29.6173611"/>
		<g id="XMLID_15_">
			<g>
				<rect x="116.321106" y="27.0405598" class="st11" width="2.0542536" height="1.4175662"/>
			</g>
			<g>
			</g>
		</g>
		<line class="st12" x1="117.7474976" y1="27.7484245" x2="114.0521698" y2="27.7484245"/>
		<line class="st13" x1="114.0521698" y1="27.7484245" x2="114.7624207" y2="27.7484245"/>
		<line class="st13" x1="114.0521698" y1="29.6173611" x2="114.7624207" y2="29.6173611"/>
		<line class="st13" x1="114.0521698" y1="31.4862995" x2="114.7624207" y2="31.4862995"/>
		<line class="st13" x1="114.0521698" y1="33.3552361" x2="114.7624207" y2="33.3552361"/>
		<line class="st13" x1="114.0521698" y1="35.2241745" x2="114.7624207" y2="35.2241745"/>
		<line class="st13" x1="114.0521698" y1="37.0931091" x2="114.7624207" y2="37.0931091"/>
		<g id="XMLID_14_">
			<g>
				<rect x="116.321106" y="43.8609962" class="st11" width="2.0542536" height="1.4175662"/>
			</g>
			<g>
			</g>
		</g>
		<line class="st12" x1="117.7474976" y1="44.5688591" x2="114.0521698" y2="44.5688591"/>
		<g id="XMLID_7_">
			<g>
				<rect x="116.321106" y="41.9920578" class="st11" width="2.0542536" height="1.4175662"/>
			</g>
			<g>
			</g>
		</g>
		<line class="st12" x1="117.7474976" y1="42.6999245" x2="114.0521698" y2="42.6999245"/>
		<g id="XMLID_5_">
			<g>
				<rect x="116.321106" y="40.1231232" class="st11" width="2.0542536" height="1.4175662"/>
			</g>
			<g>
			</g>
		</g>
		<line class="st12" x1="117.7474976" y1="40.830986" x2="114.0521698" y2="40.830986"/>
		<g id="XMLID_4_">
			<g>
				<rect x="116.321106" y="38.2541847" class="st11" width="2.0542536" height="1.4175662"/>
			</g>
			<g>
			</g>
		</g>
		<line class="st12" x1="117.7474976" y1="38.9620476" x2="114.0521698" y2="38.9620476"/>
		<line class="st13" x1="114.0521698" y1="38.9620476" x2="114.7624207" y2="38.9620476"/>
		<line class="st13" x1="114.0521698" y1="40.830986" x2="114.7624207" y2="40.830986"/>
		<line class="st13" x1="114.0521698" y1="42.6999245" x2="114.7624207" y2="42.6999245"/>
		<line class="st13" x1="114.0521698" y1="44.5688591" x2="114.7624207" y2="44.5688591"/>
		<path class="st14" d="M114.0521698,26.8062286v18.7064972c0,0.0397339-0.0352249,0.071949-0.0786819,0.071949h-12.0316162
			c-0.043457,0-0.0786819-0.0322151-0.0786819-0.071949V26.8062286c0-0.0397358,0.0352249-0.071949,0.0786819-0.071949h4.3906097
			h3.2503967h4.3906097C114.0169449,26.7342796,114.0521698,26.7664928,114.0521698,26.8062286z"/>
	</g>
	<g>
		<path class="st15" d="M60.7021675,39.077179"/>
		<g id="XMLID_41_">
			<g>
				<rect x="69.9535599" y="43.1040649" class="st6" width="3.4376609" height="1.8731518"/>
			</g>
			<g>
			</g>
		</g>
		<g id="XMLID_40_">
			<g>
				<rect x="60.6618919" y="43.1040649" class="st6" width="3.4376609" height="1.8731518"/>
			</g>
			<g>
			</g>
		</g>
		<g id="XMLID_39_">
			<g>
				<rect x="69.9608154" y="27.3418007" class="st6" width="3.4376609" height="1.8731518"/>
			</g>
			<g>
			</g>
		</g>
		<g id="XMLID_38_">
			<g>
				<rect x="60.6691513" y="27.3418007" class="st6" width="3.4376609" height="1.8731518"/>
			</g>
			<g>
			</g>
		</g>
		<g id="XMLID_25_">
			<g>
				<rect x="65.305809" y="43.1040649" class="st6" width="3.4376609" height="1.8731518"/>
			</g>
			<g>
			</g>
		</g>
		<g id="XMLID_24_">
			<g>
				<rect x="65.3130722" y="27.3418007" class="st6" width="3.4376609" height="1.8731518"/>
			</g>
			<g>
			</g>
		</g>
		<circle class="st3" cx="67.0324783" cy="36.1594772" r="6.0152225"/>
		
			<radialGradient id="SVGID_1_" cx="181.6183929" cy="38.3906975" r="6.2302084" gradientTransform="matrix(5.906284e-17 -0.9645694 0.9645694 5.906284e-17 30.0019855 211.3430176)" gradientUnits="userSpaceOnUse">
			<stop  offset="0" style="stop-color:#FFFFFF;stop-opacity:0.5"/>
			<stop  offset="0.5867767" style="stop-color:#FFFFFF"/>
			<stop  offset="0.865168" style="stop-color:#F4E847;stop-opacity:0.5"/>
			<stop  offset="0.994382" style="stop-color:#FFFFFF"/>
		</radialGradient>
		<circle class="st16" cx="67.0324783" cy="36.1594772" r="6.0094681"/>
		<path class="st17" d="M67.7365265,33.7628288L67.7365265,33.7628288c0-0.3913841-0.3172836-0.7086639-0.7086639-0.7086639l0,0
			c-0.3913879,0-0.7086639,0.3172798-0.7086639,0.7086639l0,0c0,0.3913803,0.317276,0.7086601,0.7086639,0.7086601l0,0
			C67.4192429,34.471489,67.7365265,34.1542091,67.7365265,33.7628288z"/>
		<g>
			<path class="st18" d="M62.6008301,35.4964523c1.4548492,0,2.6342392,1.8557892,2.6342392,3.3106384
				c0,1.1428604-0.7844391,2.4959793-1.8018379,2.8606834"/>
			<line class="st18" x1="62.6008301" y1="35.4964523" x2="60.7021675" y2="35.4964523"/>
			<path class="st18" d="M63.5607834,30.4855213c0.8649521,0.4319038,1.6742859,1.4210453,1.6742859,2.4535618
				c0,1.1428604-1.1121368,2.2679291-2.1295319,2.6326332"/>
			<circle class="st19" cx="65.0182571" cy="31.8917351" r="0.3529412"/>
			<path class="st18" d="M71.4461517,35.4964523c-1.4548492,0-2.6342392,1.8557892-2.6342392,3.3106384
				c0,1.1428604,0.7844391,2.4959793,1.8018341,2.8606834"/>
			<line class="st18" x1="71.4461517" y1="35.4964523" x2="73.3448105" y2="35.4964523"/>
			<path class="st18" d="M70.4862747,30.4855213c-0.8649521,0.4319038-1.6743622,1.4210453-1.6743622,2.4535618
				c0,1.1428604,1.1121368,2.2679291,2.1295319,2.6326332"/>
			<circle class="st19" cx="69.0287247" cy="31.8917351" r="0.3529412"/>
			<line class="st18" x1="69.0287247" y1="31.8917351" x2="65.0182571" y2="31.8917351"/>
		</g>
		<path class="st20" d="M73.9842529,29.2145939H60.0944901v13.8897648h13.8897629V29.2145939z M61.024147,36.1594467
			c0-3.3220673,2.6931267-6.0151939,6.0151901-6.0151939c3.3221283,0,6.0152588,2.6931267,6.0152588,6.0151939
			c0,3.3221245-2.6931305,6.015255-6.0152588,6.015255C63.7172737,42.1747017,61.024147,39.4815712,61.024147,36.1594467z"/>
	</g>
	<g>
		<path class="st8" d="M29.0707436,48.3227844c1.2273617,0,2.2224731,1.0018463,2.2224731,2.2397385
			s-0.9951115,2.241539-2.2224731,2.241539c-1.2273636,0-2.2224751-1.0036469-2.2224751-2.241539
			S27.84338,48.3227844,29.0707436,48.3227844z"/>
		<ellipse class="st9" cx="29.0707436" cy="50.5634232" rx="1.5185714" ry="1.5316002"/>
		<path class="st8" d="M29.0707436,41.0944366c1.2273617,0,2.2224731,1.0018463,2.2224731,2.2397385
			s-0.9951115,2.2415428-2.2224731,2.2415428c-1.2273636,0-2.2224751-1.0036507-2.2224751-2.2415428
			S27.84338,41.0944366,29.0707436,41.0944366z"/>
		<ellipse class="st9" cx="29.0707436" cy="43.3350754" rx="1.5185714" ry="1.5316002"/>
		<path class="st8" d="M29.0707436,33.8944359c1.2273617,0,2.2224731,1.0018463,2.2224731,2.2397385
			s-0.9951115,2.2415428-2.2224731,2.2415428c-1.2273636,0-2.2224751-1.0036507-2.2224751-2.2415428
			S27.84338,33.8944359,29.0707436,33.8944359z"/>
		<ellipse class="st9" cx="29.0707436" cy="36.1350784" rx="1.5185714" ry="1.5316002"/>
		<path class="st8" d="M27.4418221,27.3070068c2.022913-1.5395126,4.2713051,0.1709862,3.7840004,2.1831684
			c-0.1875343,0.7743721-0.8210773,1.4096432-1.5950565,1.5987854
			C27.6191349,31.580555,25.9014225,29.3314934,27.4418221,27.3070068z"/>
		<ellipse class="st9" cx="29.0707436" cy="28.9350777" rx="1.5185714" ry="1.5316002"/>
		<path class="st8" d="M27.4418221,20.1070061c2.0229149-1.5395107,4.2713051,0.1709862,3.7840004,2.1831703
			c-0.1875343,0.7743702-0.8210754,1.4096413-1.5950565,1.5987835
			C27.6191349,24.3805561,25.9014225,22.1314945,27.4418221,20.1070061z"/>
		<ellipse class="st9" cx="29.0707436" cy="21.7350769" rx="1.5185714" ry="1.5316002"/>
	</g>
	<g>
	</g>
	<g>
	</g>
	<g>
	</g>
	<g>
	</g>
	<g>
	</g>
	<g>
	</g>
</g>
</svg>
