<?xml version="1.0" encoding="utf-8"?>
<!-- Generator: Adobe Illustrator 24.1.3, SVG Export Plug-In . SVG Version: 6.00 Build 0)  -->
<svg version="1.1" xmlns="http://www.w3.org/2000/svg" xmlns:xlink="http://www.w3.org/1999/xlink" x="0px" y="0px"
	 viewBox="0 0 163.53 57.12" style="enable-background:new 0 0 163.53 57.12;" xml:space="preserve">
<style type="text/css">
	.st0{clip-path:url(#SVGID_2_);fill:#101212;}
	.st1{fill:#FFFFFF;}
	.st2{fill:#49519F;}
	.st3{fill:#101212;}
	.st4{fill:#F59A00;stroke:#746E6A;stroke-width:0.0232;stroke-miterlimit:10;}
	.st5{fill:#FAB723;stroke:#C2C0BE;stroke-width:0.0252;stroke-miterlimit:10;}
	.st6{fill:none;stroke:#8E8884;stroke-width:0.0114;stroke-miterlimit:10;}
	.st7{fill:#E30519;}
	.st8{fill:#5E5954;}
	.st9{fill:#DCD4C8;}
	.st10{fill:#A49788;}
	.st11{clip-path:url(#SVGID_4_);fill:#101212;}
	.st12{fill:#746E6A;}
	.st13{fill:#FFFFFF;stroke:#FFFFFF;stroke-width:0.7315;stroke-miterlimit:10;}
	.st14{fill:none;}
	.st15{fill:none;stroke:#FFFFFF;stroke-miterlimit:10;}
	.st16{fill:none;stroke:#FEFEFD;stroke-width:0.75;stroke-miterlimit:10;}
</style>
<g id="Layer_1">
</g>
<g id="Layer_2">
	<g>
		<g id="днище_4_">
			<g>
				<defs>
					<path id="SVGID_3_" d="M20.64,53.72l121.7,0v-3.57l12.38,0c2.35,0,4.25-1.9,4.25-4.25v-5.67c0-2.35-1.9-4.25-4.25-4.25
						l-12.38,0V21.69v0l12.38,0c2.35,0,4.25-1.9,4.25-4.25v-5.67c0-2.35-1.9-4.25-4.25-4.25l-9.79,0l-2.59,0V3.48l-121.7,0v4.04
						l-13.06,0c-2.35,0-4.25,1.9-4.25,4.25v5.67c0,2.35,1.9,4.25,4.25,4.25c0,0,13.06,0,13.06,0v14.28l-13.06,0
						c-2.35,0-4.25,1.9-4.25,4.25v5.67c0,2.35,1.9,4.25,4.25,4.25c0,0,13.06,0,13.06,0V53.72z"/>
				</defs>
				<clipPath id="SVGID_2_">
					<use xlink:href="#SVGID_3_"  style="overflow:visible;"/>
				</clipPath>
				<path class="st0" d="M158.98,0H3.07v59.04h155.91V0z M143.05,44.53c0,0.39-0.32,0.71-0.71,0.71c-0.39,0-0.71-0.32-0.71-0.71
					s0.32-0.71,0.71-0.71C142.74,43.82,143.05,44.14,143.05,44.53z M143.05,47.3c0,0.39-0.32,0.71-0.71,0.71
					c-0.39,0-0.71-0.32-0.71-0.71c0-0.39,0.32-0.71,0.71-0.71C142.74,46.59,143.05,46.91,143.05,47.3z M143.05,41.56
					c0,0.39-0.32,0.71-0.71,0.71c-0.39,0-0.71-0.32-0.71-0.71s0.32-0.71,0.71-0.71C142.74,40.85,143.05,41.17,143.05,41.56z
					 M143.05,38.79c0,0.39-0.32,0.71-0.71,0.71c-0.39,0-0.71-0.32-0.71-0.71c0-0.39,0.32-0.71,0.71-0.71
					C142.74,38.09,143.05,38.4,143.05,38.79z M143.05,35.96c0,0.39-0.32,0.71-0.71,0.71c-0.39,0-0.71-0.32-0.71-0.71
					c0-0.39,0.32-0.71,0.71-0.71C142.74,35.25,143.05,35.57,143.05,35.96z M143.05,50.13c0,0.39-0.32,0.71-0.71,0.71
					c-0.39,0-0.71-0.32-0.71-0.71c0-0.39,0.32-0.71,0.71-0.71C142.74,49.42,143.05,49.74,143.05,50.13z M20.64,15.38
					c0.39,0,0.71,0.32,0.71,0.71c0,0.39-0.32,0.71-0.71,0.71c-0.39,0-0.71-0.32-0.71-0.71C19.93,15.7,20.25,15.38,20.64,15.38z
					 M20.64,18.15c0.39,0,0.71,0.32,0.71,0.71c0,0.39-0.32,0.71-0.71,0.71c-0.39,0-0.71-0.32-0.71-0.71
					C19.93,18.47,20.25,18.15,20.64,18.15z M20.64,12.41c0.39,0,0.71,0.32,0.71,0.71c0,0.39-0.32,0.71-0.71,0.71
					c-0.39,0-0.71-0.32-0.71-0.71C19.93,12.73,20.25,12.41,20.64,12.41z M20.64,9.64c0.39,0,0.71,0.32,0.71,0.71
					s-0.32,0.71-0.71,0.71c-0.39,0-0.71-0.32-0.71-0.71S20.25,9.64,20.64,9.64z M20.64,6.81c0.39,0,0.71,0.32,0.71,0.71
					c0,0.39-0.32,0.71-0.71,0.71c-0.39,0-0.71-0.32-0.71-0.71C19.93,7.13,20.25,6.81,20.64,6.81z M20.64,20.98
					c0.39,0,0.71,0.32,0.71,0.71c0,0.39-0.32,0.71-0.71,0.71c-0.39,0-0.71-0.32-0.71-0.71C19.93,21.3,20.25,20.98,20.64,20.98z
					 M20.64,43.83c0.39,0,0.71,0.32,0.71,0.71s-0.32,0.71-0.71,0.71c-0.39,0-0.71-0.32-0.71-0.71S20.25,43.83,20.64,43.83z
					 M20.64,46.6c0.39,0,0.71,0.32,0.71,0.71s-0.32,0.71-0.71,0.71c-0.39,0-0.71-0.32-0.71-0.71S20.25,46.6,20.64,46.6z
					 M20.64,40.86c0.39,0,0.71,0.32,0.71,0.71c0,0.39-0.32,0.71-0.71,0.71c-0.39,0-0.71-0.32-0.71-0.71
					C19.94,41.18,20.25,40.86,20.64,40.86z M20.64,38.09c0.39,0,0.71,0.32,0.71,0.71c0,0.39-0.32,0.71-0.71,0.71
					c-0.39,0-0.71-0.32-0.71-0.71C19.94,38.41,20.25,38.09,20.64,38.09z M20.64,35.26c0.39,0,0.71,0.32,0.71,0.71
					c0,0.39-0.32,0.71-0.71,0.71c-0.39,0-0.71-0.32-0.71-0.71C19.94,35.58,20.25,35.26,20.64,35.26z M20.64,49.43
					c0.39,0,0.71,0.32,0.71,0.71c0,0.39-0.32,0.71-0.71,0.71c-0.39,0-0.71-0.32-0.71-0.71C19.94,49.75,20.25,49.43,20.64,49.43z
					 M143.05,16.09c0,0.39-0.32,0.71-0.71,0.71c-0.39,0-0.71-0.32-0.71-0.71c0-0.39,0.32-0.71,0.71-0.71
					C142.74,15.38,143.05,15.7,143.05,16.09z M143.05,18.86c0,0.39-0.32,0.71-0.71,0.71c-0.39,0-0.71-0.32-0.71-0.71
					c0-0.39,0.32-0.71,0.71-0.71C142.74,18.15,143.05,18.47,143.05,18.86z M143.05,13.12c0,0.39-0.32,0.71-0.71,0.71
					c-0.39,0-0.71-0.32-0.71-0.71c0-0.39,0.32-0.71,0.71-0.71C142.74,12.41,143.05,12.73,143.05,13.12z M143.05,10.35
					c0,0.39-0.32,0.71-0.71,0.71c-0.39,0-0.71-0.32-0.71-0.71s0.32-0.71,0.71-0.71C142.74,9.64,143.05,9.96,143.05,10.35z
					 M143.05,7.52c0,0.39-0.32,0.71-0.71,0.71c-0.39,0-0.71-0.32-0.71-0.71c0-0.39,0.32-0.71,0.71-0.71
					C142.74,6.81,143.05,7.13,143.05,7.52z M143.05,21.69c0,0.39-0.32,0.71-0.71,0.71c-0.39,0-0.71-0.32-0.71-0.71
					c0-0.39,0.32-0.71,0.71-0.71C142.74,20.98,143.05,21.3,143.05,21.69z M156.14,43.04c0,2.35-1.9,4.25-4.25,4.25
					s-4.25-1.9-4.25-4.25s1.9-4.25,4.25-4.25S156.14,40.7,156.14,43.04z M156.21,14.61c0,2.35-1.9,4.25-4.25,4.25
					s-4.25-1.9-4.25-4.25s1.9-4.25,4.25-4.25S156.21,12.26,156.21,14.61z M14.64,14.6c0,2.35-1.9,4.25-4.25,4.25
					s-4.25-1.9-4.25-4.25s1.9-4.25,4.25-4.25S14.64,12.26,14.64,14.6z M14.71,43.05c0,2.35-1.9,4.25-4.25,4.25s-4.25-1.9-4.25-4.25
					c0-2.35,1.9-4.25,4.25-4.25S14.71,40.7,14.71,43.05z"/>
			</g>
		</g>
	</g>
	<g>
		<g>
			<path class="st9" d="M30.96,9.37c-1.23,0-2.22-1-2.22-2.24s1-2.24,2.22-2.24c1.23,0,2.22,1,2.22,2.24S32.19,9.37,30.96,9.37z"/>
			<ellipse class="st10" cx="30.96" cy="7.13" rx="1.52" ry="1.53"/>
		</g>
		<g>
			<path class="st9" d="M38.13,9.36c-1.23,0-2.22-1-2.22-2.24s1-2.24,2.22-2.24c1.23,0,2.22,1,2.22,2.24S39.35,9.36,38.13,9.36z"/>
			<ellipse class="st10" cx="38.13" cy="7.12" rx="1.52" ry="1.53"/>
		</g>
		<g>
			<path class="st9" d="M45.29,9.37c-1.23,0-2.22-1-2.22-2.24s1-2.24,2.22-2.24c1.23,0,2.22,1,2.22,2.24S46.52,9.37,45.29,9.37z"/>
			<ellipse class="st10" cx="45.29" cy="7.13" rx="1.52" ry="1.53"/>
		</g>
		<g>
			<path class="st9" d="M52.46,9.37c-1.23,0-2.22-1-2.22-2.24s1-2.24,2.22-2.24c1.23,0,2.22,1,2.22,2.24S53.69,9.37,52.46,9.37z"/>
			<ellipse class="st10" cx="52.46" cy="7.13" rx="1.52" ry="1.53"/>
		</g>
		<g>
			<path class="st9" d="M59.62,9.36c-1.23,0-2.22-1-2.22-2.24s1-2.24,2.22-2.24c1.23,0,2.22,1,2.22,2.24S60.85,9.36,59.62,9.36z"/>
			<ellipse class="st10" cx="59.62" cy="7.12" rx="1.52" ry="1.53"/>
		</g>
		<g>
			<path class="st9" d="M66.79,9.37c-1.23,0-2.22-1-2.22-2.24s1-2.24,2.22-2.24s2.22,1,2.22,2.24S68.02,9.37,66.79,9.37z"/>
			<ellipse class="st10" cx="66.79" cy="7.13" rx="1.52" ry="1.53"/>
		</g>
		<g>
			<path class="st9" d="M74,9.37c-1.23,0-2.22-1-2.22-2.24s1-2.24,2.22-2.24s2.22,1,2.22,2.24S75.23,9.37,74,9.37z"/>
			<ellipse class="st10" cx="74" cy="7.13" rx="1.52" ry="1.53"/>
		</g>
		<g>
			<path class="st9" d="M81.16,9.37c-1.23,0-2.22-1-2.22-2.24s1-2.24,2.22-2.24s2.22,1,2.22,2.24S82.39,9.37,81.16,9.37z"/>
			<ellipse class="st10" cx="81.16" cy="7.13" rx="1.52" ry="1.53"/>
		</g>
		<g>
			<path class="st9" d="M88.31,9.36c-1.23,0-2.22-1-2.22-2.24s1-2.24,2.22-2.24c1.23,0,2.22,1,2.22,2.24S89.54,9.36,88.31,9.36z"/>
			<ellipse class="st10" cx="88.31" cy="7.12" rx="1.52" ry="1.53"/>
		</g>
		<g>
			<path class="st9" d="M95.47,9.37c-1.23,0-2.22-1-2.22-2.24s1-2.24,2.22-2.24s2.22,1,2.22,2.24S96.7,9.37,95.47,9.37z"/>
			<ellipse class="st10" cx="95.47" cy="7.13" rx="1.52" ry="1.53"/>
		</g>
		<g>
			<path class="st9" d="M102.65,9.37c-1.23,0-2.22-1-2.22-2.24s1-2.24,2.22-2.24s2.22,1,2.22,2.24S103.87,9.37,102.65,9.37z"/>
			<ellipse class="st10" cx="102.65" cy="7.13" rx="1.52" ry="1.53"/>
		</g>
		<g>
			<path class="st9" d="M109.81,9.36c-1.23,0-2.22-1-2.22-2.24s1-2.24,2.22-2.24s2.22,1,2.22,2.24S111.04,9.36,109.81,9.36z"/>
			<ellipse class="st10" cx="109.81" cy="7.12" rx="1.52" ry="1.53"/>
		</g>
		<g>
			<path class="st9" d="M116.97,9.37c-1.23,0-2.22-1-2.22-2.24s1-2.24,2.22-2.24s2.22,1,2.22,2.24S118.2,9.37,116.97,9.37z"/>
			<ellipse class="st10" cx="116.97" cy="7.13" rx="1.52" ry="1.53"/>
		</g>
		<g>
			<path class="st9" d="M124.18,9.37c-1.23,0-2.22-1-2.22-2.24s1-2.24,2.22-2.24s2.22,1,2.22,2.24S125.41,9.37,124.18,9.37z"/>
			<ellipse class="st10" cx="124.18" cy="7.13" rx="1.52" ry="1.53"/>
		</g>
		<g>
			<path class="st9" d="M131.35,9.37c-1.23,0-2.22-1-2.22-2.24s1-2.24,2.22-2.24c1.23,0,2.22,1,2.22,2.24S132.58,9.37,131.35,9.37z"
				/>
			<ellipse class="st10" cx="131.35" cy="7.13" rx="1.52" ry="1.53"/>
		</g>
		<g>
			<path class="st9" d="M81.16,52.43c-1.23,0-2.22-1-2.22-2.24s1-2.24,2.22-2.24s2.22,1,2.22,2.24S82.39,52.43,81.16,52.43z"/>
			<ellipse class="st10" cx="81.16" cy="50.19" rx="1.52" ry="1.53"/>
		</g>
		<g>
			<path class="st9" d="M88.31,52.42c-1.23,0-2.22-1-2.22-2.24s1-2.24,2.22-2.24c1.23,0,2.22,1,2.22,2.24S89.54,52.42,88.31,52.42z"
				/>
			<ellipse class="st10" cx="88.31" cy="50.18" rx="1.52" ry="1.53"/>
		</g>
		<g>
			<path class="st9" d="M95.47,52.43c-1.23,0-2.22-1-2.22-2.24s1-2.24,2.22-2.24s2.22,1,2.22,2.24S96.7,52.43,95.47,52.43z"/>
			<ellipse class="st10" cx="95.47" cy="50.19" rx="1.52" ry="1.53"/>
		</g>
		<g>
			<path class="st9" d="M102.65,52.43c-1.23,0-2.22-1-2.22-2.24s1-2.24,2.22-2.24s2.22,1,2.22,2.24S103.87,52.43,102.65,52.43z"/>
			<ellipse class="st10" cx="102.65" cy="50.19" rx="1.52" ry="1.53"/>
		</g>
		<g>
			<path class="st9" d="M109.81,52.42c-1.23,0-2.22-1-2.22-2.24s1-2.24,2.22-2.24s2.22,1,2.22,2.24S111.04,52.42,109.81,52.42z"/>
			<ellipse class="st10" cx="109.81" cy="50.18" rx="1.52" ry="1.53"/>
		</g>
		<g>
			<path class="st9" d="M116.97,52.43c-1.23,0-2.22-1-2.22-2.24s1-2.24,2.22-2.24s2.22,1,2.22,2.24S118.2,52.43,116.97,52.43z"/>
			<ellipse class="st10" cx="116.97" cy="50.19" rx="1.52" ry="1.53"/>
		</g>
		<g>
			<path class="st9" d="M124.18,52.43c-1.23,0-2.22-1-2.22-2.24s1-2.24,2.22-2.24s2.22,1,2.22,2.24S125.41,52.43,124.18,52.43z"/>
			<ellipse class="st10" cx="124.18" cy="50.19" rx="1.52" ry="1.53"/>
		</g>
		<g>
			<path class="st9" d="M131.35,52.43c-1.23,0-2.22-1-2.22-2.24s1-2.24,2.22-2.24c1.23,0,2.22,1,2.22,2.24
				S132.58,52.43,131.35,52.43z"/>
			<ellipse class="st10" cx="131.35" cy="50.19" rx="1.52" ry="1.53"/>
		</g>
	</g>
	<g id="Колодка_8-13">
		<g>
			<rect x="92.75" y="4.53" class="st8" width="5.2" height="5.2"/>
			<path class="st12" d="M96.95,5.53v3.2h-3.2v-3.2H96.95 M98.95,3.53h-7.2v7.2h7.2V3.53L98.95,3.53z"/>
		</g>
		<g>
			<rect x="85.55" y="4.53" class="st8" width="5.2" height="5.2"/>
			<path class="st12" d="M89.75,5.53v3.2h-3.2v-3.2H89.75 M91.75,3.53h-7.2v7.2h7.2V3.53L91.75,3.53z"/>
		</g>
		<g>
			<rect x="78.35" y="4.53" class="st8" width="5.2" height="5.2"/>
			<path class="st12" d="M82.55,5.53v3.2h-3.2v-3.2H82.55 M84.55,3.53h-7.2v7.2h7.2V3.53L84.55,3.53z"/>
		</g>
		<g>
			<rect x="71.15" y="4.53" class="st8" width="5.2" height="5.2"/>
			<path class="st12" d="M75.35,5.53v3.2h-3.2v-3.2H75.35 M77.35,3.53h-7.2v7.2h7.2V3.53L77.35,3.53z"/>
		</g>
		<g>
			<rect x="63.95" y="4.53" class="st8" width="5.2" height="5.2"/>
			<path class="st12" d="M68.15,5.53v3.2h-3.2v-3.2H68.15 M70.15,3.53h-7.2v7.2h7.2V3.53L70.15,3.53z"/>
		</g>
		<g>
			<rect x="56.75" y="4.53" class="st8" width="5.2" height="5.2"/>
			<path class="st12" d="M60.95,5.53v3.2h-3.2v-3.2H60.95 M62.95,3.53h-7.2v7.2h7.2V3.53L62.95,3.53z"/>
		</g>
		<g>
			<rect x="128.73" y="4.53" class="st8" width="5.2" height="5.2"/>
			<path class="st12" d="M132.93,5.53v3.2h-3.2v-3.2H132.93 M134.93,3.53h-7.2v7.2h7.2V3.53L134.93,3.53z"/>
		</g>
		<g>
			<rect x="121.53" y="4.53" class="st8" width="5.2" height="5.2"/>
			<path class="st12" d="M125.73,5.53v3.2h-3.2v-3.2H125.73 M127.73,3.53h-7.2v7.2h7.2V3.53L127.73,3.53z"/>
		</g>
		<g>
			<rect x="114.33" y="4.53" class="st8" width="5.2" height="5.2"/>
			<path class="st12" d="M118.53,5.53v3.2h-3.2v-3.2H118.53 M120.53,3.53h-7.2v7.2h7.2V3.53L120.53,3.53z"/>
		</g>
		<g>
			<rect x="107.13" y="4.53" class="st8" width="5.2" height="5.2"/>
			<path class="st12" d="M111.33,5.53v3.2h-3.2v-3.2H111.33 M113.33,3.53h-7.2v7.2h7.2V3.53L113.33,3.53z"/>
		</g>
		<g>
			<rect x="99.93" y="4.53" class="st8" width="5.2" height="5.2"/>
			<path class="st12" d="M104.13,5.53v3.2h-3.2v-3.2H104.13 M106.13,3.53h-7.2v7.2h7.2V3.53L106.13,3.53z"/>
		</g>
		<g>
			<rect x="49.55" y="4.53" class="st8" width="5.2" height="5.2"/>
			<path class="st12" d="M53.75,5.53v3.2h-3.2v-3.2H53.75 M55.75,3.53h-7.2v7.2h7.2V3.53L55.75,3.53z"/>
		</g>
		<g>
			<rect x="42.35" y="4.53" class="st8" width="5.2" height="5.2"/>
			<path class="st12" d="M46.55,5.53v3.2h-3.2v-3.2H46.55 M48.55,3.53h-7.2v7.2h7.2V3.53L48.55,3.53z"/>
		</g>
		<g>
			<rect x="35.15" y="4.53" class="st8" width="5.2" height="5.2"/>
			<path class="st12" d="M39.35,5.53v3.2h-3.2v-3.2H39.35 M41.35,3.53h-7.2v7.2h7.2V3.53L41.35,3.53z"/>
		</g>
		<g>
			<rect x="27.95" y="4.53" class="st8" width="5.2" height="5.2"/>
			<path class="st12" d="M32.15,5.53v3.2h-3.2v-3.2H32.15 M34.15,3.53h-7.2v7.2h7.2V3.53L34.15,3.53z"/>
		</g>
	</g>
	<g id="Колодка_8-13_1_">
		<g>
			<rect x="92.75" y="47.82" class="st8" width="5.2" height="5.2"/>
			<path class="st12" d="M96.95,48.82v3.2h-3.2v-3.2H96.95 M98.95,46.82h-7.2v7.2h7.2V46.82L98.95,46.82z"/>
		</g>
		<g>
			<rect x="85.55" y="47.82" class="st8" width="5.2" height="5.2"/>
			<path class="st12" d="M89.75,48.82v3.2h-3.2v-3.2H89.75 M91.75,46.82h-7.2v7.2h7.2V46.82L91.75,46.82z"/>
		</g>
		<g>
			<rect x="78.35" y="47.82" class="st8" width="5.2" height="5.2"/>
			<path class="st12" d="M82.55,48.82v3.2h-3.2v-3.2H82.55 M84.55,46.82h-7.2v7.2h7.2V46.82L84.55,46.82z"/>
		</g>
		<g>
			<rect x="71.15" y="47.82" class="st8" width="5.2" height="5.2"/>
			<path class="st12" d="M75.35,48.82v3.2h-3.2v-3.2H75.35 M77.35,46.82h-7.2v7.2h7.2V46.82L77.35,46.82z"/>
		</g>
		<g>
			<rect x="63.95" y="47.82" class="st8" width="5.2" height="5.2"/>
			<path class="st12" d="M68.15,48.82v3.2h-3.2v-3.2H68.15 M70.15,46.82h-7.2v7.2h7.2V46.82L70.15,46.82z"/>
		</g>
		<g>
			<rect x="56.75" y="47.82" class="st8" width="5.2" height="5.2"/>
			<path class="st12" d="M60.95,48.82v3.2h-3.2v-3.2H60.95 M62.95,46.82h-7.2v7.2h7.2V46.82L62.95,46.82z"/>
		</g>
		<g>
			<rect x="128.73" y="47.82" class="st8" width="5.2" height="5.2"/>
			<path class="st12" d="M132.93,48.82v3.2h-3.2v-3.2H132.93 M134.93,46.82h-7.2v7.2h7.2V46.82L134.93,46.82z"/>
		</g>
		<g>
			<rect x="121.53" y="47.82" class="st8" width="5.2" height="5.2"/>
			<path class="st12" d="M125.73,48.82v3.2h-3.2v-3.2H125.73 M127.73,46.82h-7.2v7.2h7.2V46.82L127.73,46.82z"/>
		</g>
		<g>
			<rect x="114.33" y="47.82" class="st8" width="5.2" height="5.2"/>
			<path class="st12" d="M118.53,48.82v3.2h-3.2v-3.2H118.53 M120.53,46.82h-7.2v7.2h7.2V46.82L120.53,46.82z"/>
		</g>
		<g>
			<rect x="107.13" y="47.82" class="st8" width="5.2" height="5.2"/>
			<path class="st12" d="M111.33,48.82v3.2h-3.2v-3.2H111.33 M113.33,46.82h-7.2v7.2h7.2V46.82L113.33,46.82z"/>
		</g>
		<g>
			<rect x="99.93" y="47.82" class="st8" width="5.2" height="5.2"/>
			<path class="st12" d="M104.13,48.82v3.2h-3.2v-3.2H104.13 M106.13,46.82h-7.2v7.2h7.2V46.82L106.13,46.82z"/>
		</g>
		<g>
			<rect x="49.55" y="47.82" class="st8" width="5.2" height="5.2"/>
			<path class="st12" d="M53.75,48.82v3.2h-3.2v-3.2H53.75 M55.75,46.82h-7.2v7.2h7.2V46.82L55.75,46.82z"/>
		</g>
		<g>
			<rect x="42.35" y="47.82" class="st8" width="5.2" height="5.2"/>
			<path class="st12" d="M46.55,48.82v3.2h-3.2v-3.2H46.55 M48.55,46.82h-7.2v7.2h7.2V46.82L48.55,46.82z"/>
		</g>
		<g>
			<rect x="35.15" y="47.82" class="st8" width="5.2" height="5.2"/>
			<path class="st12" d="M39.35,48.82v3.2h-3.2v-3.2H39.35 M41.35,46.82h-7.2v7.2h7.2V46.82L41.35,46.82z"/>
		</g>
		<g>
			<rect x="27.95" y="47.82" class="st8" width="5.2" height="5.2"/>
			<path class="st12" d="M32.15,48.82v3.2h-3.2v-3.2H32.15 M34.15,46.82h-7.2v7.2h7.2V46.82L34.15,46.82z"/>
		</g>
	</g>
	<g>
		<g>
			<path class="st9" d="M136.31,7.38c0-1.23,1-2.22,2.24-2.22c1.24,0,2.24,1,2.24,2.22s-1,2.22-2.24,2.22
				C137.31,9.61,136.31,8.61,136.31,7.38z"/>
			<ellipse class="st10" cx="138.55" cy="7.38" rx="1.53" ry="1.52"/>
		</g>
		<g>
			<path class="st9" d="M136.32,14.55c0-1.23,1-2.22,2.24-2.22c1.24,0,2.24,1,2.24,2.22s-1,2.22-2.24,2.22
				C137.32,16.77,136.32,15.78,136.32,14.55z"/>
			<ellipse class="st10" cx="138.56" cy="14.55" rx="1.53" ry="1.52"/>
		</g>
		<g>
			<path class="st9" d="M136.31,21.71c0-1.23,1-2.22,2.24-2.22c1.24,0,2.24,1,2.24,2.22c0,1.23-1,2.22-2.24,2.22
				C137.31,23.93,136.31,22.94,136.31,21.71z"/>
			<ellipse class="st10" cx="138.55" cy="21.71" rx="1.53" ry="1.52"/>
		</g>
		<g>
			<path class="st9" d="M136.31,28.88c0-1.23,1-2.22,2.24-2.22c1.24,0,2.24,1,2.24,2.22c0,1.23-1,2.22-2.24,2.22
				C137.31,31.11,136.31,30.11,136.31,28.88z"/>
			<ellipse class="st10" cx="138.55" cy="28.88" rx="1.53" ry="1.52"/>
		</g>
		<g>
			<path class="st9" d="M136.32,36.05c0-1.23,1-2.22,2.24-2.22c1.24,0,2.24,1,2.24,2.22c0,1.23-1,2.22-2.24,2.22
				C137.32,38.27,136.32,37.27,136.32,36.05z"/>
			<ellipse class="st10" cx="138.56" cy="36.05" rx="1.53" ry="1.52"/>
		</g>
		<g>
			<path class="st9" d="M136.31,43.21c0-1.23,1-2.22,2.24-2.22c1.24,0,2.24,1,2.24,2.22c0,1.23-1,2.22-2.24,2.22
				C137.32,45.43,136.31,44.44,136.31,43.21z"/>
			<ellipse class="st10" cx="138.55" cy="43.21" rx="1.53" ry="1.52"/>
		</g>
		<g>
			<path class="st9" d="M136.31,50.42c0-1.23,1-2.22,2.24-2.22c1.24,0,2.24,1,2.24,2.22c0,1.23-1,2.22-2.24,2.22
				C137.32,52.65,136.31,51.65,136.31,50.42z"/>
			<ellipse class="st10" cx="138.55" cy="50.42" rx="1.53" ry="1.52"/>
		</g>
	</g>
	<g>
		<path class="st1" d="M22.7,39.24v0.91h2.54v0.37H22.7v0.9H22.4v-2.18H22.7z"/>
		<path class="st1" d="M23.45,37.82c-0.01,0.05-0.01,0.11-0.01,0.18c0,0.24,0.1,0.39,0.3,0.48h1.5v0.36h-2.11v-0.35l0.24-0.01
			c-0.19-0.12-0.28-0.28-0.28-0.5c0-0.07,0.01-0.12,0.03-0.16H23.45z"/>
		<path class="st1" d="M25.28,36.42c0,0.28-0.09,0.52-0.28,0.69s-0.44,0.27-0.75,0.27h-0.07c-0.21,0-0.4-0.04-0.56-0.12
			c-0.16-0.08-0.29-0.19-0.39-0.33s-0.14-0.3-0.14-0.46c0-0.27,0.09-0.48,0.27-0.64c0.18-0.15,0.44-0.23,0.78-0.23h0.15v1.42
			c0.21,0,0.38-0.07,0.5-0.18c0.13-0.12,0.19-0.26,0.19-0.44c0-0.13-0.03-0.23-0.08-0.32s-0.12-0.16-0.21-0.23l0.17-0.22
			C25.14,35.8,25.28,36.07,25.28,36.42z M23.38,36.46c0,0.14,0.05,0.27,0.16,0.36s0.25,0.16,0.45,0.18v-1.05h-0.03
			c-0.18,0.01-0.33,0.06-0.43,0.15C23.43,36.19,23.38,36.31,23.38,36.46z"/>
		<path class="st1" d="M23.13,34.65l0.23-0.01c-0.18-0.15-0.27-0.36-0.27-0.62c0-0.29,0.11-0.49,0.34-0.6
			c-0.1-0.07-0.18-0.16-0.25-0.27s-0.09-0.24-0.09-0.4c0-0.46,0.25-0.69,0.74-0.7h1.42v0.36h-1.39c-0.15,0-0.26,0.03-0.34,0.1
			s-0.11,0.18-0.11,0.34c0,0.13,0.04,0.24,0.12,0.33c0.08,0.09,0.19,0.14,0.32,0.15h1.4v0.36h-1.38c-0.31,0-0.46,0.15-0.46,0.45
			c0,0.23,0.1,0.4,0.3,0.48h1.54v0.36h-2.11V34.65z"/>
		<path class="st1" d="M25.24,30.02c-0.04,0.02-0.12,0.04-0.22,0.05c0.17,0.17,0.26,0.37,0.26,0.6c0,0.21-0.06,0.38-0.18,0.51
			s-0.27,0.2-0.45,0.2c-0.22,0-0.39-0.08-0.51-0.25s-0.18-0.4-0.18-0.7v-0.35h-0.17c-0.13,0-0.23,0.04-0.3,0.11
			c-0.07,0.07-0.11,0.19-0.11,0.33c0,0.13,0.03,0.23,0.1,0.32s0.14,0.13,0.24,0.13v0.36c-0.11,0-0.21-0.04-0.31-0.11
			s-0.18-0.17-0.23-0.3c-0.06-0.13-0.09-0.27-0.09-0.42c0-0.24,0.06-0.43,0.18-0.57s0.29-0.21,0.5-0.21h0.97
			c0.19,0,0.35-0.02,0.46-0.07h0.03V30.02z M24.96,30.62c0-0.11-0.03-0.22-0.09-0.32c-0.06-0.1-0.13-0.17-0.23-0.22h-0.43v0.28
			c0,0.44,0.13,0.66,0.39,0.66c0.11,0,0.2-0.04,0.27-0.11S24.96,30.73,24.96,30.62z"/>
		<path class="st1" d="M23.97,26.89c-0.09,0.32-0.21,0.55-0.34,0.7c-0.13,0.15-0.3,0.22-0.5,0.22c-0.22,0-0.41-0.09-0.56-0.27
			s-0.22-0.41-0.22-0.69c0-0.19,0.04-0.37,0.11-0.52c0.08-0.15,0.18-0.27,0.31-0.35c0.13-0.08,0.28-0.12,0.44-0.12v0.37
			c-0.17,0-0.31,0.05-0.41,0.16s-0.15,0.26-0.15,0.46c0,0.18,0.04,0.33,0.12,0.43c0.08,0.1,0.19,0.15,0.34,0.15
			c0.12,0,0.21-0.05,0.29-0.15c0.08-0.1,0.15-0.26,0.22-0.5c0.07-0.23,0.14-0.42,0.22-0.55s0.17-0.23,0.28-0.29s0.23-0.1,0.38-0.1
			c0.23,0,0.42,0.09,0.55,0.27s0.21,0.42,0.21,0.71c0,0.19-0.04,0.37-0.11,0.54s-0.18,0.3-0.31,0.39c-0.13,0.09-0.28,0.14-0.44,0.14
			v-0.37c0.17,0,0.31-0.06,0.41-0.19c0.1-0.13,0.15-0.29,0.15-0.5c0-0.2-0.04-0.35-0.12-0.45c-0.08-0.1-0.19-0.16-0.33-0.16
			s-0.25,0.05-0.32,0.15C24.12,26.46,24.05,26.64,23.97,26.89z"/>
		<path class="st1" d="M23.38,24.87c-0.2-0.16-0.29-0.37-0.29-0.62c0-0.44,0.25-0.67,0.76-0.67h1.4v0.36h-1.4
			c-0.15,0-0.27,0.04-0.34,0.1c-0.07,0.07-0.11,0.17-0.11,0.32c0,0.12,0.03,0.22,0.09,0.31s0.14,0.16,0.25,0.21h1.51v0.36h-3v-0.36
			H23.38z"/>
		<path class="st1" d="M22.57,22.84c-0.06,0-0.11-0.02-0.15-0.05c-0.04-0.04-0.06-0.09-0.06-0.16c0-0.07,0.02-0.12,0.06-0.16
			s0.09-0.05,0.15-0.05s0.11,0.02,0.15,0.05s0.06,0.09,0.06,0.16c0,0.07-0.02,0.12-0.06,0.16C22.67,22.82,22.62,22.84,22.57,22.84z
			 M25.24,22.46v0.36h-2.11v-0.36H25.24z"/>
		<path class="st1" d="M25.28,20.81c0,0.28-0.09,0.52-0.28,0.69s-0.44,0.27-0.75,0.27h-0.07c-0.21,0-0.4-0.04-0.56-0.12
			c-0.16-0.08-0.29-0.19-0.39-0.33s-0.14-0.3-0.14-0.46c0-0.27,0.09-0.48,0.27-0.64C23.54,20.07,23.8,20,24.14,20h0.15v1.42
			c0.21,0,0.38-0.07,0.5-0.18c0.13-0.12,0.19-0.26,0.19-0.44c0-0.13-0.03-0.23-0.08-0.32s-0.12-0.16-0.21-0.23l0.17-0.22
			C25.14,20.2,25.28,20.46,25.28,20.81z M23.38,20.86c0,0.14,0.05,0.27,0.16,0.36s0.25,0.16,0.45,0.18v-1.05h-0.03
			c-0.18,0.01-0.33,0.06-0.43,0.15C23.43,20.59,23.38,20.71,23.38,20.86z"/>
		<path class="st1" d="M25.24,19v0.36h-3V19H25.24z"/>
		<path class="st1" d="M24.17,18.31c-0.32,0-0.58-0.08-0.78-0.23s-0.3-0.35-0.3-0.6c0-0.25,0.08-0.44,0.25-0.58h-1.1v-0.36h3v0.33
			l-0.23,0.02c0.18,0.14,0.27,0.34,0.27,0.6c0,0.24-0.1,0.44-0.3,0.59c-0.2,0.15-0.46,0.23-0.79,0.23H24.17z M24.21,17.95
			c0.24,0,0.43-0.05,0.56-0.15s0.2-0.23,0.2-0.41c0-0.23-0.1-0.39-0.31-0.5h-0.97c-0.2,0.11-0.3,0.27-0.3,0.49
			c0,0.18,0.07,0.31,0.21,0.41S23.94,17.95,24.21,17.95z"/>
	</g>
	<g>
		<g>
			<g>
				<path class="st9" d="M121.95,14.55c0-1.23,1-2.22,2.24-2.22c1.24,0,2.24,1,2.24,2.22s-1,2.22-2.24,2.22
					C122.95,16.77,121.95,15.78,121.95,14.55z"/>
				<ellipse class="st10" cx="124.19" cy="14.55" rx="1.53" ry="1.52"/>
			</g>
			<g>
				<path class="st9" d="M121.94,21.71c0-1.23,1-2.22,2.24-2.22c1.24,0,2.24,1,2.24,2.22c0,1.23-1,2.22-2.24,2.22
					C122.94,23.93,121.94,22.94,121.94,21.71z"/>
				<ellipse class="st10" cx="124.18" cy="21.71" rx="1.53" ry="1.52"/>
			</g>
			<g>
				<path class="st9" d="M121.94,28.88c0-1.23,1-2.22,2.24-2.22c1.24,0,2.24,1,2.24,2.22c0,1.23-1,2.22-2.24,2.22
					C122.94,31.11,121.94,30.11,121.94,28.88z"/>
				<ellipse class="st10" cx="124.18" cy="28.88" rx="1.53" ry="1.52"/>
			</g>
			<g>
				<path class="st9" d="M121.95,36.05c0-1.23,1-2.22,2.24-2.22c1.24,0,2.24,1,2.24,2.22c0,1.23-1,2.22-2.24,2.22
					S121.95,37.27,121.95,36.05z"/>
				<ellipse class="st10" cx="124.19" cy="36.05" rx="1.53" ry="1.52"/>
			</g>
			<g>
				<path class="st9" d="M121.94,43.21c0-1.23,1-2.22,2.24-2.22c1.24,0,2.24,1,2.24,2.22c0,1.23-1,2.22-2.24,2.22
					S121.94,44.44,121.94,43.21z"/>
				<ellipse class="st10" cx="124.18" cy="43.21" rx="1.53" ry="1.52"/>
			</g>
		</g>
		<g>
			<g>
				<path class="st9" d="M114.95,14.55c0-1.23,1-2.22,2.24-2.22c1.24,0,2.24,1,2.24,2.22s-1,2.22-2.24,2.22
					C115.95,16.77,114.95,15.78,114.95,14.55z"/>
				<ellipse class="st10" cx="117.19" cy="14.55" rx="1.53" ry="1.52"/>
			</g>
			<g>
				<path class="st9" d="M114.95,21.71c0-1.23,1-2.22,2.24-2.22c1.24,0,2.24,1,2.24,2.22c0,1.23-1,2.22-2.24,2.22
					C115.95,23.93,114.95,22.94,114.95,21.71z"/>
				<ellipse class="st10" cx="117.19" cy="21.71" rx="1.53" ry="1.52"/>
			</g>
			<g>
				<path class="st9" d="M114.95,28.88c0-1.23,1-2.22,2.24-2.22c1.24,0,2.24,1,2.24,2.22c0,1.23-1,2.22-2.24,2.22
					C115.95,31.11,114.95,30.11,114.95,28.88z"/>
				<ellipse class="st10" cx="117.19" cy="28.88" rx="1.53" ry="1.52"/>
			</g>
			<g>
				<path class="st9" d="M114.95,36.05c0-1.23,1-2.22,2.24-2.22c1.24,0,2.24,1,2.24,2.22c0,1.23-1,2.22-2.24,2.22
					S114.95,37.27,114.95,36.05z"/>
				<ellipse class="st10" cx="117.19" cy="36.05" rx="1.53" ry="1.52"/>
			</g>
			<g>
				<path class="st9" d="M114.95,43.21c0-1.23,1-2.22,2.24-2.22c1.24,0,2.24,1,2.24,2.22c0,1.23-1,2.22-2.24,2.22
					S114.95,44.44,114.95,43.21z"/>
				<ellipse class="st10" cx="117.19" cy="43.21" rx="1.53" ry="1.52"/>
			</g>
		</g>
		<g>
			<g>
				<path class="st9" d="M107.57,14.55c0-1.23,1-2.22,2.24-2.22c1.24,0,2.24,1,2.24,2.22s-1,2.22-2.24,2.22
					C108.57,16.77,107.57,15.78,107.57,14.55z"/>
				<ellipse class="st10" cx="109.81" cy="14.55" rx="1.53" ry="1.52"/>
			</g>
			<g>
				<path class="st9" d="M107.56,21.71c0-1.23,1-2.22,2.24-2.22c1.24,0,2.24,1,2.24,2.22c0,1.23-1,2.22-2.24,2.22
					C108.57,23.93,107.56,22.94,107.56,21.71z"/>
				<ellipse class="st10" cx="109.81" cy="21.71" rx="1.53" ry="1.52"/>
			</g>
			<g>
				<path class="st9" d="M107.56,28.88c0-1.23,1-2.22,2.24-2.22c1.24,0,2.24,1,2.24,2.22c0,1.23-1,2.22-2.24,2.22
					C108.57,31.11,107.56,30.11,107.56,28.88z"/>
				<ellipse class="st10" cx="109.81" cy="28.88" rx="1.53" ry="1.52"/>
			</g>
			<g>
				<path class="st9" d="M107.57,36.05c0-1.23,1-2.22,2.24-2.22c1.24,0,2.24,1,2.24,2.22c0,1.23-1,2.22-2.24,2.22
					S107.57,37.27,107.57,36.05z"/>
				<ellipse class="st10" cx="109.81" cy="36.05" rx="1.53" ry="1.52"/>
			</g>
			<g>
				<path class="st9" d="M107.56,43.21c0-1.23,1-2.22,2.24-2.22c1.24,0,2.24,1,2.24,2.22c0,1.23-1,2.22-2.24,2.22
					S107.56,44.44,107.56,43.21z"/>
				<ellipse class="st10" cx="109.81" cy="43.21" rx="1.53" ry="1.52"/>
			</g>
		</g>
	</g>
	<g>
		<g>
			<g>
				<path class="st9" d="M94.93,14.55c0-1.23,1-2.22,2.24-2.22s2.24,1,2.24,2.22s-1,2.22-2.24,2.22
					C95.93,16.77,94.93,15.78,94.93,14.55z"/>
				<ellipse class="st10" cx="97.17" cy="14.55" rx="1.53" ry="1.52"/>
			</g>
			<g>
				<path class="st9" d="M94.92,21.72c0-1.23,1-2.22,2.24-2.22c1.24,0,2.24,1,2.24,2.22c0,1.23-1,2.22-2.24,2.22
					C95.92,23.94,94.92,22.94,94.92,21.72z"/>
				<ellipse class="st10" cx="97.16" cy="21.72" rx="1.53" ry="1.52"/>
			</g>
			<g>
				<path class="st9" d="M94.92,28.89c0-1.23,1-2.22,2.24-2.22c1.24,0,2.24,1,2.24,2.22s-1,2.22-2.24,2.22
					C95.92,31.11,94.92,30.12,94.92,28.89z"/>
				<ellipse class="st10" cx="97.16" cy="28.89" rx="1.53" ry="1.52"/>
			</g>
			<g>
				<path class="st9" d="M94.93,36.05c0-1.23,1-2.22,2.24-2.22c1.24,0,2.24,1,2.24,2.22c0,1.23-1,2.22-2.24,2.22
					S94.93,37.28,94.93,36.05z"/>
				<ellipse class="st10" cx="97.17" cy="36.05" rx="1.53" ry="1.52"/>
			</g>
			<g>
				<path class="st9" d="M94.92,43.22c0-1.23,1-2.22,2.24-2.22s2.24,1,2.24,2.22c0,1.23-1,2.22-2.24,2.22
					C95.92,45.44,94.92,44.44,94.92,43.22z"/>
				<ellipse class="st10" cx="97.16" cy="43.22" rx="1.53" ry="1.52"/>
			</g>
		</g>
		<g>
			<g>
				<path class="st9" d="M87.93,14.55c0-1.23,1-2.22,2.24-2.22s2.24,1,2.24,2.22s-1,2.22-2.24,2.22
					C88.93,16.77,87.93,15.78,87.93,14.55z"/>
				<ellipse class="st10" cx="90.17" cy="14.55" rx="1.53" ry="1.52"/>
			</g>
			<g>
				<path class="st9" d="M87.92,21.72c0-1.23,1-2.22,2.24-2.22c1.24,0,2.24,1,2.24,2.22c0,1.23-1,2.22-2.24,2.22
					C88.93,23.94,87.92,22.94,87.92,21.72z"/>
				<ellipse class="st10" cx="90.16" cy="21.72" rx="1.53" ry="1.52"/>
			</g>
			<g>
				<path class="st9" d="M87.92,28.89c0-1.23,1-2.22,2.24-2.22c1.24,0,2.24,1,2.24,2.22c0,1.23-1,2.22-2.24,2.22
					C88.93,31.11,87.92,30.12,87.92,28.89z"/>
				<ellipse class="st10" cx="90.16" cy="28.89" rx="1.53" ry="1.52"/>
			</g>
			<g>
				<path class="st9" d="M87.93,36.05c0-1.23,1-2.22,2.24-2.22c1.24,0,2.24,1,2.24,2.22c0,1.23-1,2.22-2.24,2.22
					S87.93,37.28,87.93,36.05z"/>
				<ellipse class="st10" cx="90.17" cy="36.05" rx="1.53" ry="1.52"/>
			</g>
			<g>
				<path class="st9" d="M87.92,43.22c0-1.23,1-2.22,2.24-2.22s2.24,1,2.24,2.22c0,1.23-1,2.22-2.24,2.22
					C88.93,45.44,87.92,44.44,87.92,43.22z"/>
				<ellipse class="st10" cx="90.16" cy="43.22" rx="1.53" ry="1.52"/>
			</g>
		</g>
		<g>
			<g>
				<path class="st9" d="M80.55,14.55c0-1.23,1-2.22,2.24-2.22s2.24,1,2.24,2.22s-1,2.22-2.24,2.22
					C81.55,16.77,80.55,15.78,80.55,14.55z"/>
				<ellipse class="st10" cx="82.79" cy="14.55" rx="1.53" ry="1.52"/>
			</g>
			<g>
				<path class="st9" d="M80.54,21.72c0-1.23,1-2.22,2.24-2.22c1.24,0,2.24,1,2.24,2.22c0,1.23-1,2.22-2.24,2.22
					C81.54,23.94,80.54,22.94,80.54,21.72z"/>
				<ellipse class="st10" cx="82.78" cy="21.72" rx="1.53" ry="1.52"/>
			</g>
			<g>
				<path class="st9" d="M80.54,28.89c0-1.23,1-2.22,2.24-2.22c1.24,0,2.24,1,2.24,2.22s-1,2.22-2.24,2.22
					C81.54,31.11,80.54,30.12,80.54,28.89z"/>
				<ellipse class="st10" cx="82.78" cy="28.89" rx="1.53" ry="1.52"/>
			</g>
			<g>
				<path class="st9" d="M80.55,36.05c0-1.23,1-2.22,2.24-2.22c1.24,0,2.24,1,2.24,2.22c0,1.23-1,2.22-2.24,2.22
					S80.55,37.28,80.55,36.05z"/>
				<ellipse class="st10" cx="82.79" cy="36.05" rx="1.53" ry="1.52"/>
			</g>
			<g>
				<path class="st9" d="M80.54,43.22c0-1.23,1-2.22,2.24-2.22s2.24,1,2.24,2.22c0,1.23-1,2.22-2.24,2.22
					C81.54,45.44,80.54,44.44,80.54,43.22z"/>
				<ellipse class="st10" cx="82.78" cy="43.22" rx="1.53" ry="1.52"/>
			</g>
		</g>
	</g>
	<g>
		<g>
			<g>
				<path class="st9" d="M67.9,14.55c0-1.23,1-2.22,2.24-2.22c1.24,0,2.24,1,2.24,2.22s-1,2.22-2.24,2.22
					C68.9,16.77,67.9,15.78,67.9,14.55z"/>
				<ellipse class="st10" cx="70.14" cy="14.55" rx="1.53" ry="1.52"/>
			</g>
			<g>
				<path class="st9" d="M67.9,21.71c0-1.23,1-2.22,2.24-2.22c1.24,0,2.24,1,2.24,2.22c0,1.23-1,2.22-2.24,2.22
					C68.9,23.93,67.9,22.94,67.9,21.71z"/>
				<ellipse class="st10" cx="70.14" cy="21.71" rx="1.53" ry="1.52"/>
			</g>
			<g>
				<path class="st9" d="M67.9,28.88c0-1.23,1-2.22,2.24-2.22c1.24,0,2.24,1,2.24,2.22c0,1.23-1,2.22-2.24,2.22
					C68.9,31.11,67.9,30.11,67.9,28.88z"/>
				<ellipse class="st10" cx="70.14" cy="28.88" rx="1.53" ry="1.52"/>
			</g>
			<g>
				<path class="st9" d="M67.9,36.05c0-1.23,1-2.22,2.24-2.22c1.24,0,2.24,1,2.24,2.22c0,1.23-1,2.22-2.24,2.22
					S67.9,37.27,67.9,36.05z"/>
				<ellipse class="st10" cx="70.14" cy="36.05" rx="1.53" ry="1.52"/>
			</g>
			<g>
				<path class="st9" d="M67.9,43.21c0-1.23,1-2.22,2.24-2.22c1.24,0,2.24,1,2.24,2.22c0,1.23-1,2.22-2.24,2.22
					S67.9,44.44,67.9,43.21z"/>
				<ellipse class="st10" cx="70.14" cy="43.21" rx="1.53" ry="1.52"/>
			</g>
		</g>
		<g>
			<g>
				<path class="st9" d="M60.91,14.55c0-1.23,1-2.22,2.24-2.22c1.24,0,2.24,1,2.24,2.22c0,1.23-1,2.22-2.24,2.22
					C61.91,16.77,60.91,15.78,60.91,14.55z"/>
				<ellipse class="st10" cx="63.15" cy="14.55" rx="1.53" ry="1.52"/>
			</g>
			<g>
				<path class="st9" d="M60.9,21.71c0-1.23,1-2.22,2.24-2.22c1.24,0,2.24,1,2.24,2.22c0,1.23-1,2.22-2.24,2.22
					C61.9,23.93,60.9,22.94,60.9,21.71z"/>
				<ellipse class="st10" cx="63.14" cy="21.71" rx="1.53" ry="1.52"/>
			</g>
			<g>
				<path class="st9" d="M60.9,28.88c0-1.23,1-2.22,2.24-2.22c1.24,0,2.24,1,2.24,2.22c0,1.23-1,2.22-2.24,2.22
					C61.9,31.11,60.9,30.11,60.9,28.88z"/>
				<ellipse class="st10" cx="63.14" cy="28.88" rx="1.53" ry="1.52"/>
			</g>
			<g>
				<path class="st9" d="M60.91,36.05c0-1.23,1-2.22,2.24-2.22c1.24,0,2.24,1,2.24,2.22c0,1.23-1,2.22-2.24,2.22
					S60.91,37.27,60.91,36.05z"/>
				<ellipse class="st10" cx="63.15" cy="36.05" rx="1.53" ry="1.52"/>
			</g>
			<g>
				<path class="st9" d="M60.9,43.21c0-1.23,1-2.22,2.24-2.22c1.24,0,2.24,1,2.24,2.22c0,1.23-1,2.22-2.24,2.22
					S60.9,44.44,60.9,43.21z"/>
				<ellipse class="st10" cx="63.14" cy="43.21" rx="1.53" ry="1.52"/>
			</g>
		</g>
		<g>
			<g>
				<path class="st9" d="M53.53,14.55c0-1.23,1-2.22,2.24-2.22c1.24,0,2.24,1,2.24,2.22c0,1.23-1,2.22-2.24,2.22
					C54.53,16.77,53.53,15.78,53.53,14.55z"/>
				<ellipse class="st10" cx="55.77" cy="14.55" rx="1.53" ry="1.52"/>
			</g>
			<g>
				<path class="st9" d="M53.52,21.71c0-1.23,1-2.22,2.24-2.22c1.24,0,2.24,1,2.24,2.22c0,1.23-1,2.22-2.24,2.22
					C54.52,23.93,53.52,22.94,53.52,21.71z"/>
				<ellipse class="st10" cx="55.76" cy="21.71" rx="1.53" ry="1.52"/>
			</g>
			<g>
				<path class="st9" d="M53.52,28.88c0-1.23,1-2.22,2.24-2.22c1.24,0,2.24,1,2.24,2.22c0,1.23-1,2.22-2.24,2.22
					C54.52,31.11,53.52,30.11,53.52,28.88z"/>
				<ellipse class="st10" cx="55.76" cy="28.88" rx="1.53" ry="1.52"/>
			</g>
			<g>
				<path class="st9" d="M53.53,36.05c0-1.23,1-2.22,2.24-2.22c1.24,0,2.24,1,2.24,2.22c0,1.23-1,2.22-2.24,2.22
					S53.53,37.27,53.53,36.05z"/>
				<ellipse class="st10" cx="55.77" cy="36.05" rx="1.53" ry="1.52"/>
			</g>
			<g>
				<path class="st9" d="M53.52,43.21c0-1.23,1-2.22,2.24-2.22c1.24,0,2.24,1,2.24,2.22c0,1.23-1,2.22-2.24,2.22
					S53.52,44.44,53.52,43.21z"/>
				<ellipse class="st10" cx="55.76" cy="43.21" rx="1.53" ry="1.52"/>
			</g>
		</g>
	</g>
	<g>
		<g>
			<g>
				<path class="st9" d="M41.2,14.55c0-1.23,1-2.22,2.24-2.22c1.24,0,2.24,1,2.24,2.22s-1,2.22-2.24,2.22
					C42.2,16.77,41.2,15.78,41.2,14.55z"/>
				<ellipse class="st10" cx="43.44" cy="14.55" rx="1.53" ry="1.52"/>
			</g>
			<g>
				<path class="st9" d="M41.19,21.71c0-1.23,1-2.22,2.24-2.22c1.24,0,2.24,1,2.24,2.22c0,1.23-1,2.22-2.24,2.22
					C42.19,23.93,41.19,22.94,41.19,21.71z"/>
				<ellipse class="st10" cx="43.43" cy="21.71" rx="1.53" ry="1.52"/>
			</g>
			<g>
				<path class="st9" d="M41.19,28.88c0-1.23,1-2.22,2.24-2.22c1.24,0,2.24,1,2.24,2.22c0,1.23-1,2.22-2.24,2.22
					C42.19,31.11,41.19,30.11,41.19,28.88z"/>
				<ellipse class="st10" cx="43.43" cy="28.88" rx="1.53" ry="1.52"/>
			</g>
			<g>
				<path class="st9" d="M41.2,36.05c0-1.23,1-2.22,2.24-2.22c1.24,0,2.24,1,2.24,2.22c0,1.23-1,2.22-2.24,2.22
					S41.2,37.27,41.2,36.05z"/>
				<ellipse class="st10" cx="43.44" cy="36.05" rx="1.53" ry="1.52"/>
			</g>
			<g>
				<path class="st9" d="M41.19,43.21c0-1.23,1-2.22,2.24-2.22c1.24,0,2.24,1,2.24,2.22c0,1.23-1,2.22-2.24,2.22
					S41.19,44.44,41.19,43.21z"/>
				<ellipse class="st10" cx="43.43" cy="43.21" rx="1.53" ry="1.52"/>
			</g>
		</g>
		<g>
			<g>
				<path class="st9" d="M34.2,14.55c0-1.23,1-2.22,2.24-2.22c1.24,0,2.24,1,2.24,2.22s-1,2.22-2.24,2.22
					C35.21,16.77,34.2,15.78,34.2,14.55z"/>
				<ellipse class="st10" cx="36.45" cy="14.55" rx="1.53" ry="1.52"/>
			</g>
			<g>
				<path class="st9" d="M34.2,21.71c0-1.23,1-2.22,2.24-2.22c1.24,0,2.24,1,2.24,2.22c0,1.23-1,2.22-2.24,2.22
					C35.2,23.93,34.2,22.94,34.2,21.71z"/>
				<ellipse class="st10" cx="36.44" cy="21.71" rx="1.53" ry="1.52"/>
			</g>
			<g>
				<path class="st9" d="M34.2,28.88c0-1.23,1-2.22,2.24-2.22c1.24,0,2.24,1,2.24,2.22c0,1.23-1,2.22-2.24,2.22
					C35.2,31.11,34.2,30.11,34.2,28.88z"/>
				<ellipse class="st10" cx="36.44" cy="28.88" rx="1.53" ry="1.52"/>
			</g>
			<g>
				<path class="st9" d="M34.2,36.05c0-1.23,1-2.22,2.24-2.22c1.24,0,2.24,1,2.24,2.22c0,1.23-1,2.22-2.24,2.22
					C35.21,38.27,34.2,37.27,34.2,36.05z"/>
				<ellipse class="st10" cx="36.45" cy="36.05" rx="1.53" ry="1.52"/>
			</g>
			<g>
				<path class="st9" d="M34.2,43.21c0-1.23,1-2.22,2.24-2.22c1.24,0,2.24,1,2.24,2.22c0,1.23-1,2.22-2.24,2.22
					C35.2,45.43,34.2,44.44,34.2,43.21z"/>
				<ellipse class="st10" cx="36.44" cy="43.21" rx="1.53" ry="1.52"/>
			</g>
		</g>
		<g>
			<g>
				<path class="st9" d="M26.82,14.55c0-1.23,1-2.22,2.24-2.22c1.24,0,2.24,1,2.24,2.22s-1,2.22-2.24,2.22
					C27.83,16.77,26.82,15.78,26.82,14.55z"/>
				<ellipse class="st10" cx="29.06" cy="14.55" rx="1.53" ry="1.52"/>
			</g>
			<g>
				<path class="st9" d="M26.82,21.71c0-1.23,1-2.22,2.24-2.22c1.24,0,2.24,1,2.24,2.22c0,1.23-1,2.22-2.24,2.22
					C27.82,23.93,26.82,22.94,26.82,21.71z"/>
				<ellipse class="st10" cx="29.06" cy="21.71" rx="1.53" ry="1.52"/>
			</g>
			<g>
				<path class="st9" d="M26.82,28.88c0-1.23,1-2.22,2.24-2.22c1.24,0,2.24,1,2.24,2.22c0,1.23-1,2.22-2.24,2.22
					C27.82,31.11,26.82,30.11,26.82,28.88z"/>
				<ellipse class="st10" cx="29.06" cy="28.88" rx="1.53" ry="1.52"/>
			</g>
			<g>
				<path class="st9" d="M26.82,36.05c0-1.23,1-2.22,2.24-2.22c1.24,0,2.24,1,2.24,2.22c0,1.23-1,2.22-2.24,2.22
					S26.82,37.27,26.82,36.05z"/>
				<ellipse class="st10" cx="29.06" cy="36.05" rx="1.53" ry="1.52"/>
			</g>
			<g>
				<path class="st9" d="M26.82,43.21c0-1.23,1-2.22,2.24-2.22c1.24,0,2.24,1,2.24,2.22c0,1.23-1,2.22-2.24,2.22
					S26.82,44.44,26.82,43.21z"/>
				<ellipse class="st10" cx="29.06" cy="43.21" rx="1.53" ry="1.52"/>
			</g>
		</g>
	</g>
	<g>
		<rect x="101.47" y="21.9" class="st13" width="3.98" height="14.13"/>
		<g>
			<rect x="101.82" y="22.09" class="st14" width="3.83" height="13.29"/>
			<path d="M102.03,32.45h0.25l0.05,0.32h2.54v0.38l-2.2,1.37l0,0.01h1.89l0.05-0.32h0.25v1.02h-0.25l-0.05-0.32h-2.24l-0.05,0.32
				h-0.25v-0.32v-0.38l2.19-1.37l0-0.01h-1.89l-0.05,0.32h-0.25v-0.7V32.45z"/>
			<path d="M104.62,31.99l-0.03-0.21l-2.57-0.99v-0.33l2.57-0.98l0.03-0.21h0.25v0.82h-0.25l-0.04-0.21l-0.52,0.19v1.14l0.52,0.19
				l0.04-0.21h0.25v0.81H104.62z M103.74,31.08v-0.9l-1.22,0.44v0.01L103.74,31.08z"/>
			<path d="M102.03,25.84h0.25l0.05,0.32h2.54v0.38l-2.2,1.37l0,0.01h1.89l0.05-0.32h0.25v1.02h-0.25l-0.05-0.32h-2.24l-0.05,0.32
				h-0.25v-0.32v-0.38l2.19-1.37l0-0.01h-1.89l-0.05,0.32h-0.25v-0.7V25.84z"/>
			<path d="M103.47,22.65c0.41,0,0.76,0.12,1.03,0.36s0.41,0.55,0.41,0.92c0,0.37-0.14,0.67-0.41,0.89s-0.62,0.34-1.03,0.34h-0.04
				c-0.41,0-0.76-0.11-1.03-0.34s-0.41-0.53-0.41-0.89c0-0.38,0.14-0.69,0.41-0.92s0.62-0.36,1.03-0.36H103.47z M103.42,23.03
				c-0.33,0-0.6,0.08-0.81,0.24s-0.31,0.38-0.31,0.66c0,0.27,0.1,0.48,0.31,0.63s0.48,0.23,0.81,0.23h0.04
				c0.33,0,0.6-0.08,0.81-0.23s0.31-0.36,0.31-0.63c0-0.28-0.1-0.5-0.31-0.66s-0.48-0.23-0.81-0.23H103.42z"/>
		</g>
	</g>
	<rect x="87.35" y="24.35" class="st15" width="5.26" height="9.04"/>
	<polygon class="st15" points="79.67,30.26 68.11,41.81 64.99,41.81 53.09,29.91 53.09,27.61 64.94,15.75 68.16,15.75 79.67,27.26 	
		"/>
	<g>
		<path class="st1" d="M39.26,45.01V44.8c0-0.13-0.04-0.23-0.1-0.31c-0.07-0.08-0.16-0.11-0.27-0.11c-0.26,0-0.39,0.13-0.39,0.38
			c0,0.12,0.03,0.22,0.1,0.29c0.07,0.07,0.16,0.11,0.28,0.11v0.28c-0.18,0-0.32-0.06-0.44-0.19c-0.12-0.13-0.17-0.29-0.17-0.48
			c0-0.21,0.06-0.37,0.17-0.49c0.11-0.12,0.26-0.18,0.46-0.18c0.1,0,0.19,0.03,0.28,0.09c0.09,0.06,0.16,0.15,0.2,0.25
			c0.04-0.12,0.1-0.21,0.19-0.28c0.09-0.07,0.2-0.1,0.33-0.1c0.2,0,0.36,0.06,0.47,0.19c0.12,0.13,0.17,0.3,0.17,0.5
			s-0.06,0.37-0.17,0.5s-0.26,0.19-0.44,0.19v-0.28c0.12,0,0.21-0.04,0.28-0.11s0.1-0.18,0.1-0.3c0-0.13-0.04-0.24-0.11-0.31
			s-0.17-0.11-0.31-0.11c-0.13,0-0.23,0.04-0.3,0.12s-0.1,0.19-0.11,0.34v0.21H39.26z"/>
		<path class="st1" d="M40.12,42.98l-1.82-0.63v-0.32l2.21,0.81v0.26l-2.21,0.81V43.6L40.12,42.98z"/>
		<path class="st1" d="M39.26,41.5v-0.21c0-0.13-0.04-0.23-0.1-0.31c-0.07-0.08-0.16-0.11-0.27-0.11c-0.26,0-0.39,0.13-0.39,0.38
			c0,0.12,0.03,0.22,0.1,0.29c0.07,0.07,0.16,0.11,0.28,0.11v0.28c-0.18,0-0.32-0.06-0.44-0.19c-0.12-0.13-0.17-0.29-0.17-0.48
			c0-0.21,0.06-0.37,0.17-0.49c0.11-0.12,0.26-0.18,0.46-0.18c0.1,0,0.19,0.03,0.28,0.09c0.09,0.06,0.16,0.15,0.2,0.25
			c0.04-0.12,0.1-0.21,0.19-0.28c0.09-0.07,0.2-0.1,0.33-0.1c0.2,0,0.36,0.06,0.47,0.19c0.12,0.13,0.17,0.3,0.17,0.5
			s-0.06,0.37-0.17,0.5s-0.26,0.19-0.44,0.19v-0.28c0.12,0,0.21-0.04,0.28-0.11s0.1-0.18,0.1-0.3c0-0.13-0.04-0.24-0.11-0.31
			s-0.17-0.11-0.31-0.11c-0.13,0-0.23,0.04-0.3,0.12s-0.1,0.19-0.11,0.34v0.21H39.26z"/>
	</g>
	<g>
		<path class="st1" d="M33.39,44.5v0.28h-1.87l0.21,0.56h-0.26l-0.3-0.8V44.5H33.39z"/>
		<path class="st1" d="M32.15,43.37v-0.21c0-0.13-0.04-0.23-0.1-0.31c-0.07-0.08-0.16-0.11-0.27-0.11c-0.26,0-0.39,0.13-0.39,0.38
			c0,0.12,0.03,0.22,0.1,0.29c0.07,0.07,0.16,0.11,0.28,0.11v0.28c-0.18,0-0.32-0.06-0.44-0.19c-0.12-0.13-0.17-0.29-0.17-0.48
			c0-0.21,0.06-0.37,0.17-0.49c0.11-0.12,0.26-0.18,0.46-0.18c0.1,0,0.19,0.03,0.28,0.09c0.09,0.06,0.16,0.15,0.2,0.25
			c0.04-0.12,0.1-0.21,0.19-0.28c0.09-0.07,0.2-0.1,0.33-0.1c0.2,0,0.36,0.06,0.47,0.19c0.12,0.13,0.17,0.3,0.17,0.5
			s-0.06,0.37-0.17,0.5s-0.26,0.19-0.44,0.19v-0.28c0.12,0,0.21-0.04,0.28-0.11s0.1-0.18,0.1-0.3c0-0.13-0.04-0.24-0.11-0.31
			s-0.17-0.11-0.31-0.11c-0.13,0-0.23,0.04-0.3,0.12s-0.1,0.19-0.11,0.34v0.21H32.15z"/>
	</g>
	<g>
		<path class="st1" d="M47.7,44.13v0.92l0.58,0.21v0.3l-2.21-0.84v-0.25l2.21-0.84v0.3L47.7,44.13z M47.46,44.96v-0.75l-1.03,0.37
			L47.46,44.96z"/>
		<path class="st1" d="M47.39,42.62v0.51h0.89v0.29h-2.21V42.7c0-0.25,0.06-0.44,0.17-0.57c0.11-0.13,0.28-0.2,0.49-0.2
			c0.14,0,0.26,0.04,0.36,0.11s0.18,0.18,0.23,0.31l0.94-0.51h0.02v0.31L47.39,42.62z M47.15,43.14v-0.44
			c0-0.14-0.04-0.26-0.11-0.34c-0.07-0.08-0.18-0.13-0.3-0.13c-0.14,0-0.24,0.04-0.31,0.12c-0.07,0.08-0.11,0.2-0.11,0.35v0.44
			H47.15z"/>
		<path class="st1" d="M47.26,40.38v0.95h0.78v-1.1h0.24v1.39h-2.21v-1.38h0.24v1.09h0.71v-0.95H47.26z"/>
		<path class="st1" d="M47.3,38.75v0.92h0.98v0.29h-2.21V38.6h0.24v1.07h0.76v-0.92H47.3z"/>
	</g>
	<g>
		<path class="st1" d="M52.51,44.13v0.92l0.58,0.21v0.3l-2.21-0.84v-0.25l2.21-0.84v0.3L52.51,44.13z M52.27,44.96v-0.75l-1.03,0.37
			L52.27,44.96z"/>
		<path class="st1" d="M52.14,42.12c0.33,0,0.57,0.06,0.73,0.17s0.24,0.29,0.24,0.52c0,0.23-0.08,0.41-0.23,0.52
			s-0.39,0.17-0.7,0.17h-0.38c-0.32,0-0.57-0.06-0.72-0.17c-0.16-0.11-0.24-0.29-0.24-0.52c0-0.24,0.08-0.41,0.23-0.52
			s0.39-0.17,0.71-0.17H52.14z M51.76,42.4c-0.24,0-0.41,0.03-0.52,0.1c-0.11,0.07-0.16,0.17-0.16,0.31c0,0.14,0.05,0.25,0.16,0.31
			c0.11,0.06,0.27,0.1,0.5,0.1h0.45c0.24,0,0.42-0.03,0.53-0.1s0.17-0.17,0.17-0.31c0-0.14-0.05-0.24-0.16-0.31
			c-0.11-0.07-0.28-0.1-0.51-0.1H51.76z"/>
	</g>
	<g>
		<path class="st1" d="M59.8,44.13v0.92l0.58,0.21v0.3l-2.21-0.84v-0.25l2.21-0.84v0.3L59.8,44.13z M59.56,44.96v-0.75l-1.03,0.37
			L59.56,44.96z"/>
		<path class="st1" d="M60.38,42.58v0.28h-1.87l0.21,0.56h-0.26l-0.3-0.8v-0.04H60.38z"/>
	</g>
	<g>
		<path class="st1" d="M67.14,44.13v0.92l0.58,0.21v0.3l-2.21-0.84v-0.25l2.21-0.84v0.3L67.14,44.13z M66.9,44.96v-0.75l-1.03,0.37
			L66.9,44.96z"/>
		<path class="st1" d="M67.71,42.06v1.44h-0.2l-0.85-0.76c-0.13-0.11-0.23-0.19-0.31-0.23c-0.08-0.04-0.16-0.06-0.25-0.06
			c-0.12,0-0.21,0.03-0.28,0.1c-0.07,0.07-0.11,0.16-0.11,0.28c0,0.14,0.04,0.25,0.12,0.32s0.19,0.12,0.33,0.12v0.28
			c-0.2,0-0.37-0.06-0.49-0.19s-0.19-0.3-0.19-0.52c0-0.2,0.05-0.36,0.16-0.48c0.11-0.12,0.25-0.18,0.43-0.18
			c0.22,0,0.48,0.14,0.78,0.41l0.64,0.59v-1.1H67.71z"/>
	</g>
	<g>
		<path class="st1" d="M74.58,44.13v0.92l0.58,0.21v0.3l-2.21-0.84v-0.25l2.21-0.84v0.3L74.58,44.13z M74.34,44.96v-0.75l-1.03,0.37
			L74.34,44.96z"/>
		<path class="st1" d="M73.92,43.09v-0.21c0-0.13-0.04-0.23-0.1-0.31c-0.07-0.08-0.16-0.11-0.27-0.11c-0.26,0-0.39,0.13-0.39,0.38
			c0,0.12,0.03,0.22,0.1,0.29c0.07,0.07,0.16,0.11,0.28,0.11v0.28c-0.18,0-0.32-0.06-0.44-0.19c-0.12-0.13-0.17-0.29-0.17-0.48
			c0-0.21,0.06-0.37,0.17-0.49c0.11-0.12,0.26-0.18,0.46-0.18c0.1,0,0.19,0.03,0.28,0.09c0.09,0.06,0.16,0.15,0.2,0.25
			c0.04-0.12,0.1-0.21,0.19-0.28c0.09-0.07,0.2-0.1,0.33-0.1c0.2,0,0.36,0.06,0.47,0.19c0.12,0.13,0.17,0.3,0.17,0.5
			s-0.06,0.37-0.17,0.5s-0.26,0.19-0.44,0.19v-0.28c0.12,0,0.21-0.04,0.28-0.11s0.1-0.18,0.1-0.3c0-0.13-0.04-0.24-0.11-0.31
			s-0.17-0.11-0.31-0.11c-0.13,0-0.23,0.04-0.3,0.12s-0.1,0.19-0.11,0.34v0.21H73.92z"/>
	</g>
	<g>
		<path class="st1" d="M79.62,44.13v0.92l0.58,0.21v0.3l-2.21-0.84v-0.25l2.21-0.84v0.3L79.62,44.13z M79.38,44.96v-0.75l-1.03,0.37
			L79.38,44.96z"/>
		<path class="st1" d="M79.45,42.32v-0.3h0.23v0.3h0.51v0.28h-0.51v1h-0.17l-1.53-0.98v-0.3H79.45z M79.45,43.28V42.6h-1.08
			l0.06,0.03L79.45,43.28z"/>
	</g>
	<g>
		<path class="st1" d="M87.1,44.13v0.92l0.58,0.21v0.3l-2.21-0.84v-0.25l2.21-0.84v0.3L87.1,44.13z M86.86,44.96v-0.75l-1.03,0.37
			L86.86,44.96z"/>
		<path class="st1" d="M86.57,43.37l-1.1-0.11v-1.12h0.26v0.89l0.6,0.07c-0.06-0.11-0.1-0.23-0.1-0.37c0-0.2,0.07-0.36,0.2-0.48
			c0.13-0.12,0.31-0.18,0.54-0.18c0.23,0,0.41,0.06,0.54,0.18c0.13,0.12,0.2,0.29,0.2,0.51c0,0.19-0.05,0.35-0.16,0.47
			c-0.11,0.12-0.26,0.19-0.45,0.21v-0.26c0.13-0.02,0.22-0.06,0.29-0.13c0.06-0.07,0.1-0.17,0.1-0.29c0-0.13-0.04-0.23-0.13-0.3
			c-0.09-0.07-0.21-0.11-0.37-0.11c-0.15,0-0.27,0.04-0.36,0.12c-0.09,0.08-0.13,0.19-0.13,0.32c0,0.12,0.03,0.22,0.08,0.29
			l0.06,0.07L86.57,43.37z"/>
	</g>
	<g>
		<path class="st1" d="M94.27,44.13v0.92l0.58,0.21v0.3l-2.21-0.84v-0.25l2.21-0.84v0.3L94.27,44.13z M94.03,44.96v-0.75l-1.03,0.37
			L94.03,44.96z"/>
		<path class="st1" d="M92.63,42.4h0.24v0.05c0,0.22,0.07,0.39,0.19,0.52s0.3,0.2,0.53,0.22c-0.13-0.12-0.2-0.27-0.2-0.47
			c0-0.19,0.07-0.34,0.2-0.46c0.14-0.11,0.31-0.17,0.52-0.17c0.23,0,0.41,0.06,0.55,0.18c0.14,0.12,0.21,0.29,0.21,0.49
			c0,0.21-0.08,0.38-0.24,0.51c-0.16,0.13-0.37,0.2-0.63,0.2H93.9c-0.41,0-0.72-0.09-0.93-0.26c-0.21-0.17-0.32-0.43-0.33-0.77V42.4
			z M93.63,42.77c0,0.1,0.03,0.18,0.09,0.26c0.06,0.08,0.13,0.14,0.22,0.17h0.1c0.18,0,0.33-0.04,0.44-0.12
			c0.11-0.08,0.17-0.18,0.17-0.3c0-0.13-0.05-0.22-0.14-0.3c-0.09-0.07-0.21-0.11-0.37-0.11c-0.15,0-0.27,0.04-0.37,0.11
			C93.68,42.55,93.63,42.65,93.63,42.77z"/>
	</g>
	<g>
		<path class="st1" d="M101.54,44.13v0.92l0.58,0.21v0.3l-2.21-0.84v-0.25l2.21-0.84v0.3L101.54,44.13z M101.31,44.96v-0.75
			l-1.03,0.37L101.31,44.96z"/>
		<path class="st1" d="M100.07,42.08l2.05,0.91v0.29l-1.98-0.9v1.19h-0.23v-1.48H100.07z"/>
	</g>
	<g>
		<path class="st1" d="M106.46,45.29l-1.1-0.11v-1.12h0.26v0.89l0.6,0.07c-0.06-0.11-0.1-0.23-0.1-0.37c0-0.2,0.07-0.36,0.2-0.48
			c0.13-0.12,0.31-0.18,0.54-0.18c0.23,0,0.41,0.06,0.54,0.18c0.13,0.12,0.2,0.29,0.2,0.51c0,0.19-0.05,0.35-0.16,0.47
			c-0.11,0.12-0.26,0.19-0.45,0.21V45.1c0.13-0.02,0.22-0.06,0.29-0.13c0.06-0.07,0.1-0.17,0.1-0.29c0-0.13-0.04-0.23-0.13-0.3
			c-0.09-0.07-0.21-0.11-0.37-0.11c-0.15,0-0.27,0.04-0.36,0.12c-0.09,0.08-0.13,0.19-0.13,0.32c0,0.12,0.03,0.22,0.08,0.29
			l0.06,0.07L106.46,45.29z"/>
		<path class="st1" d="M107.18,42.98l-1.82-0.63v-0.32l2.21,0.81v0.26l-2.21,0.81V43.6L107.18,42.98z"/>
	</g>
	<g>
		<path class="st1" d="M113.86,44.54v0.51h0.89v0.29h-2.21v-0.73c0-0.25,0.06-0.44,0.17-0.57c0.11-0.13,0.28-0.2,0.49-0.2
			c0.14,0,0.26,0.04,0.36,0.11s0.18,0.18,0.23,0.31l0.94-0.51h0.02v0.31L113.86,44.54z M113.62,45.05v-0.44
			c0-0.14-0.04-0.26-0.11-0.34c-0.07-0.08-0.18-0.13-0.3-0.13c-0.14,0-0.24,0.04-0.31,0.12c-0.07,0.08-0.11,0.2-0.11,0.35v0.44
			H113.62z"/>
		<path class="st1" d="M113.77,42.89c-0.07,0.25-0.16,0.43-0.26,0.54c-0.1,0.11-0.23,0.17-0.39,0.17c-0.17,0-0.32-0.07-0.43-0.21
			c-0.11-0.14-0.17-0.32-0.17-0.54c0-0.15,0.03-0.28,0.09-0.4c0.06-0.12,0.14-0.21,0.24-0.27c0.1-0.06,0.22-0.1,0.34-0.1v0.29
			c-0.13,0-0.24,0.04-0.32,0.13c-0.08,0.08-0.12,0.2-0.12,0.36c0,0.14,0.03,0.25,0.1,0.33c0.06,0.08,0.15,0.12,0.26,0.12
			c0.09,0,0.17-0.04,0.23-0.11s0.12-0.2,0.17-0.39c0.05-0.18,0.11-0.32,0.17-0.43c0.06-0.1,0.13-0.18,0.22-0.23
			c0.08-0.05,0.18-0.07,0.29-0.07c0.18,0,0.32,0.07,0.43,0.21c0.11,0.14,0.16,0.32,0.16,0.56c0,0.15-0.03,0.29-0.09,0.42
			c-0.06,0.13-0.14,0.23-0.24,0.3s-0.22,0.11-0.34,0.11v-0.29c0.13,0,0.24-0.05,0.32-0.15c0.08-0.1,0.12-0.23,0.12-0.39
			c0-0.15-0.03-0.27-0.09-0.35c-0.06-0.08-0.15-0.12-0.26-0.12s-0.19,0.04-0.25,0.11C113.88,42.56,113.82,42.69,113.77,42.89z"/>
		<path class="st1" d="M112.78,40.29v0.7h1.97v0.29h-1.97v0.7h-0.24v-1.69H112.78z"/>
	</g>
	<g>
		<path class="st1" d="M121.53,43.73c0.11,0.07,0.19,0.18,0.24,0.31s0.08,0.29,0.08,0.46c0,0.18-0.04,0.34-0.13,0.48
			s-0.21,0.25-0.36,0.32s-0.34,0.11-0.54,0.12h-0.19c-0.33,0-0.59-0.08-0.77-0.23c-0.18-0.15-0.27-0.37-0.27-0.65
			c0-0.23,0.06-0.41,0.18-0.55c0.12-0.14,0.29-0.22,0.5-0.26v0.29c-0.29,0.05-0.44,0.23-0.44,0.52c0,0.19,0.07,0.34,0.21,0.44
			c0.14,0.1,0.34,0.15,0.6,0.15h0.18c0.25,0,0.45-0.06,0.59-0.17c0.15-0.11,0.22-0.26,0.22-0.46c0-0.11-0.01-0.2-0.04-0.28
			c-0.02-0.08-0.07-0.15-0.12-0.2h-0.5v0.51h-0.24v-0.79H121.53z"/>
		<path class="st1" d="M121.82,41.65v0.29l-1.7,1.1h1.7v0.29h-2.21v-0.29l1.71-1.11h-1.71v-0.29H121.82z"/>
		<path class="st1" d="M121.82,41.23h-2.21v-0.62c0-0.19,0.04-0.36,0.13-0.51c0.08-0.15,0.21-0.26,0.36-0.34
			c0.16-0.08,0.34-0.12,0.54-0.12h0.14c0.21,0,0.39,0.04,0.55,0.12c0.16,0.08,0.28,0.19,0.36,0.34s0.13,0.32,0.13,0.52V41.23z
			 M119.85,40.94h1.73v-0.3c0-0.22-0.07-0.4-0.21-0.52c-0.14-0.12-0.34-0.19-0.6-0.19h-0.13c-0.25,0-0.45,0.06-0.59,0.18
			c-0.14,0.12-0.21,0.28-0.21,0.5V40.94z"/>
	</g>
	<g>
		<path class="st1" d="M130.96,44.62l-1.82-0.63v-0.32l2.21,0.81v0.26l-2.21,0.81v-0.31L130.96,44.62z"/>
		<path class="st1" d="M131.35,43.16v0.29h-2.21v-0.29H131.35z"/>
		<path class="st1" d="M131.35,41.04v0.29l-1.7,1.1h1.7v0.29h-2.21v-0.29l1.71-1.11h-1.71v-0.29H131.35z"/>
	</g>
	<g>
		<path class="st1" d="M134.35,43.27v0.92l0.58,0.21v0.3l-2.21-0.84V43.6l2.21-0.84v0.3L134.35,43.27z M134.11,44.1v-0.75
			l-1.03,0.37L134.11,44.1z"/>
		<path class="st1" d="M134.04,41.76v0.51h0.89v0.29h-2.21v-0.73c0-0.25,0.06-0.44,0.17-0.57c0.11-0.13,0.28-0.2,0.49-0.2
			c0.14,0,0.26,0.04,0.36,0.11s0.18,0.18,0.23,0.31l0.94-0.51h0.02v0.31L134.04,41.76z M133.8,42.27v-0.44
			c0-0.14-0.04-0.26-0.11-0.34c-0.07-0.08-0.18-0.13-0.3-0.13c-0.14,0-0.24,0.04-0.31,0.12c-0.07,0.08-0.11,0.2-0.11,0.35v0.44
			H133.8z"/>
		<path class="st1" d="M133.91,39.52v0.95h0.78v-1.1h0.24v1.39h-2.21v-1.38h0.24v1.09h0.71v-0.95H133.91z"/>
		<path class="st1" d="M133.96,37.89v0.92h0.98v0.29h-2.21v-1.36h0.24v1.07h0.76v-0.92H133.96z"/>
	</g>
	<g>
		<path class="st1" d="M40.5,13.94v0.28h-1.87l0.21,0.56h-0.26l-0.3-0.8v-0.04H40.5z"/>
		<path class="st1" d="M40.5,12.3v0.28h-1.87l0.21,0.56h-0.26l-0.3-0.8V12.3H40.5z"/>
	</g>
	<g>
		<path class="st1" d="M33.39,13.94v0.28h-1.87l0.21,0.56h-0.26l-0.3-0.8v-0.04H33.39z"/>
		<path class="st1" d="M33.39,11.78v1.44h-0.2l-0.85-0.76c-0.13-0.11-0.23-0.19-0.31-0.23c-0.08-0.04-0.16-0.06-0.25-0.06
			c-0.12,0-0.21,0.03-0.28,0.1c-0.07,0.07-0.11,0.16-0.11,0.28c0,0.14,0.04,0.25,0.12,0.32s0.19,0.12,0.33,0.12v0.28
			c-0.2,0-0.37-0.06-0.49-0.19s-0.19-0.3-0.19-0.52c0-0.2,0.05-0.36,0.16-0.48c0.11-0.12,0.25-0.18,0.43-0.18
			c0.22,0,0.48,0.14,0.78,0.41l0.64,0.59v-1.1H33.39z"/>
	</g>
	<g>
		<path class="st1" d="M48.28,13.94v0.28h-1.87l0.21,0.56h-0.26l-0.3-0.8v-0.04H48.28z"/>
		<path class="st1" d="M47.34,11.84c0.33,0,0.57,0.06,0.73,0.17s0.24,0.29,0.24,0.52c0,0.23-0.08,0.41-0.23,0.52
			s-0.39,0.17-0.7,0.17H47c-0.32,0-0.57-0.06-0.72-0.17c-0.16-0.11-0.24-0.29-0.24-0.52c0-0.24,0.08-0.41,0.23-0.52
			s0.39-0.17,0.71-0.17H47.34z M46.95,12.12c-0.24,0-0.41,0.03-0.52,0.1c-0.11,0.07-0.16,0.17-0.16,0.31c0,0.14,0.05,0.25,0.16,0.31
			c0.11,0.06,0.27,0.1,0.5,0.1h0.45c0.24,0,0.42-0.03,0.53-0.1s0.17-0.17,0.17-0.31c0-0.14-0.05-0.24-0.16-0.31
			c-0.11-0.07-0.28-0.1-0.51-0.1H46.95z"/>
	</g>
	<g>
		<path class="st1" d="M52.11,12.16c0.07,0.06,0.13,0.13,0.17,0.21c0.04,0.08,0.06,0.17,0.06,0.27c0,0.13-0.03,0.24-0.09,0.33
			c-0.06,0.09-0.15,0.17-0.26,0.22c-0.11,0.05-0.24,0.08-0.38,0.08c-0.15,0-0.28-0.03-0.4-0.08c-0.12-0.06-0.21-0.13-0.27-0.24
			c-0.06-0.1-0.09-0.22-0.09-0.36c0-0.22,0.08-0.39,0.25-0.51c0.16-0.13,0.39-0.19,0.67-0.19h0.08c0.43,0,0.74,0.08,0.94,0.25
			s0.3,0.42,0.3,0.76v0.05h-0.24v-0.06c0-0.23-0.06-0.41-0.18-0.53C52.55,12.24,52.37,12.17,52.11,12.16z M52.11,12.59
			c0-0.09-0.03-0.18-0.09-0.26c-0.06-0.08-0.13-0.14-0.21-0.17H51.7c-0.18,0-0.33,0.04-0.45,0.12c-0.12,0.08-0.17,0.18-0.17,0.3
			c0,0.12,0.05,0.22,0.14,0.3c0.09,0.07,0.22,0.11,0.37,0.11c0.15,0,0.27-0.04,0.37-0.11S52.11,12.71,52.11,12.59z"/>
	</g>
	<g>
		<path class="st1" d="M58.75,11.9c0.11,0,0.21,0.03,0.29,0.09c0.09,0.06,0.15,0.14,0.2,0.23c0.05-0.11,0.12-0.21,0.22-0.27
			c0.1-0.07,0.2-0.1,0.32-0.1c0.19,0,0.34,0.06,0.46,0.19s0.17,0.3,0.17,0.51c0,0.21-0.06,0.38-0.17,0.51
			c-0.11,0.13-0.27,0.19-0.46,0.19c-0.12,0-0.23-0.03-0.32-0.1c-0.1-0.06-0.17-0.15-0.22-0.27c-0.05,0.1-0.12,0.17-0.2,0.23
			s-0.18,0.08-0.29,0.08c-0.19,0-0.33-0.06-0.44-0.18c-0.11-0.12-0.16-0.27-0.16-0.47c0-0.19,0.05-0.35,0.16-0.47
			C58.41,11.96,58.56,11.9,58.75,11.9z M58.37,12.54c0,0.11,0.03,0.2,0.1,0.27c0.07,0.07,0.16,0.1,0.28,0.1
			c0.11,0,0.2-0.03,0.27-0.1c0.07-0.07,0.1-0.16,0.1-0.27c0-0.11-0.03-0.2-0.1-0.27c-0.07-0.07-0.16-0.1-0.27-0.1
			s-0.2,0.03-0.27,0.1S58.37,12.44,58.37,12.54z M59.78,12.12c-0.12,0-0.22,0.04-0.3,0.12c-0.08,0.08-0.12,0.18-0.12,0.3
			s0.04,0.23,0.12,0.3c0.08,0.08,0.18,0.11,0.3,0.11s0.22-0.04,0.3-0.11s0.11-0.18,0.11-0.31c0-0.13-0.04-0.23-0.11-0.31
			C60,12.16,59.9,12.12,59.78,12.12z"/>
	</g>
	<g>
		<path class="st1" d="M65.66,14.92l2.05,0.91v0.29l-1.98-0.9v1.19H65.5v-1.48H65.66z"/>
	</g>
	<g>
		<path class="st1" d="M72.32,12.13h0.24v0.05c0,0.22,0.07,0.39,0.19,0.52s0.3,0.2,0.53,0.22c-0.13-0.12-0.2-0.27-0.2-0.47
			c0-0.19,0.07-0.34,0.2-0.46c0.14-0.11,0.31-0.17,0.52-0.17c0.23,0,0.41,0.06,0.55,0.18c0.14,0.12,0.21,0.29,0.21,0.49
			c0,0.21-0.08,0.38-0.24,0.51c-0.16,0.13-0.37,0.2-0.63,0.2h-0.11c-0.41,0-0.72-0.09-0.93-0.26c-0.21-0.17-0.32-0.43-0.33-0.77
			V12.13z M73.32,12.5c0,0.1,0.03,0.18,0.09,0.26c0.06,0.08,0.13,0.14,0.22,0.17h0.1c0.18,0,0.33-0.04,0.44-0.12
			c0.11-0.08,0.17-0.18,0.17-0.3c0-0.13-0.05-0.22-0.14-0.3c-0.09-0.07-0.21-0.11-0.37-0.11c-0.15,0-0.27,0.04-0.37,0.11
			C73.36,12.28,73.32,12.38,73.32,12.5z"/>
	</g>
	<g>
		<path class="st1" d="M78.46,13.1l-1.1-0.11v-1.12h0.26v0.89l0.6,0.07c-0.06-0.11-0.1-0.23-0.1-0.37c0-0.2,0.07-0.36,0.2-0.48
			c0.13-0.12,0.31-0.18,0.54-0.18c0.23,0,0.41,0.06,0.54,0.18c0.13,0.12,0.2,0.29,0.2,0.51c0,0.19-0.05,0.35-0.16,0.47
			c-0.11,0.12-0.26,0.19-0.45,0.21v-0.26c0.13-0.02,0.22-0.06,0.29-0.13c0.06-0.07,0.1-0.17,0.1-0.29c0-0.13-0.04-0.23-0.13-0.3
			c-0.09-0.07-0.21-0.11-0.37-0.11c-0.15,0-0.27,0.04-0.36,0.12c-0.09,0.08-0.13,0.19-0.13,0.32c0,0.12,0.03,0.22,0.08,0.29
			l0.06,0.07L78.46,13.1z"/>
	</g>
	<g>
		<path class="st1" d="M86.66,12.05v-0.3h0.23v0.3h0.51v0.28h-0.51v1h-0.17l-1.53-0.98v-0.3H86.66z M86.66,13.01v-0.68h-1.08
			l0.06,0.03L86.66,13.01z"/>
	</g>
	<g>
		<path class="st1" d="M93.33,12.82v-0.21c0-0.13-0.04-0.23-0.1-0.31c-0.07-0.08-0.16-0.11-0.27-0.11c-0.26,0-0.39,0.13-0.39,0.38
			c0,0.12,0.03,0.22,0.1,0.29c0.07,0.07,0.16,0.11,0.28,0.11v0.28c-0.18,0-0.32-0.06-0.44-0.19c-0.12-0.13-0.17-0.29-0.17-0.48
			c0-0.21,0.06-0.37,0.17-0.49c0.11-0.12,0.26-0.18,0.46-0.18c0.1,0,0.19,0.03,0.28,0.09c0.09,0.06,0.16,0.15,0.2,0.25
			c0.04-0.12,0.1-0.21,0.19-0.28c0.09-0.07,0.2-0.1,0.33-0.1c0.2,0,0.36,0.06,0.47,0.19c0.12,0.13,0.17,0.3,0.17,0.5
			s-0.06,0.37-0.17,0.5s-0.26,0.19-0.44,0.19v-0.28c0.12,0,0.21-0.04,0.28-0.11s0.1-0.18,0.1-0.3c0-0.13-0.04-0.24-0.11-0.31
			s-0.17-0.11-0.31-0.11c-0.13,0-0.23,0.04-0.3,0.12s-0.1,0.19-0.11,0.34v0.21H93.33z"/>
	</g>
	<g>
		<path class="st1" d="M102.53,11.79v1.44h-0.2l-0.85-0.76c-0.13-0.11-0.23-0.19-0.31-0.23c-0.08-0.04-0.16-0.06-0.25-0.06
			c-0.12,0-0.21,0.03-0.28,0.1c-0.07,0.07-0.11,0.16-0.11,0.28c0,0.14,0.04,0.25,0.12,0.32s0.19,0.12,0.33,0.12v0.28
			c-0.2,0-0.37-0.06-0.49-0.19s-0.19-0.3-0.19-0.52c0-0.2,0.05-0.36,0.16-0.48c0.11-0.12,0.25-0.18,0.43-0.18
			c0.22,0,0.48,0.14,0.78,0.41l0.64,0.59v-1.1H102.53z"/>
	</g>
	<g>
		<g>
			<path class="st1" d="M106.64,15.92c0.11,0.07,0.19,0.18,0.24,0.31s0.08,0.29,0.08,0.46c0,0.18-0.04,0.34-0.13,0.48
				s-0.21,0.25-0.36,0.32s-0.34,0.11-0.54,0.12h-0.19c-0.33,0-0.59-0.08-0.77-0.23c-0.18-0.15-0.27-0.37-0.27-0.65
				c0-0.23,0.06-0.41,0.18-0.55c0.12-0.14,0.29-0.22,0.5-0.26v0.29c-0.29,0.05-0.44,0.23-0.44,0.52c0,0.19,0.07,0.34,0.21,0.44
				c0.14,0.1,0.34,0.15,0.6,0.15h0.18c0.25,0,0.45-0.06,0.59-0.17c0.15-0.11,0.22-0.26,0.22-0.46c0-0.11-0.01-0.2-0.04-0.28
				c-0.02-0.08-0.07-0.15-0.12-0.2h-0.5v0.51h-0.24v-0.79H106.64z"/>
			<path class="st1" d="M106.93,13.85v0.29l-1.7,1.1h1.7v0.29h-2.21v-0.29l1.71-1.11h-1.71v-0.29H106.93z"/>
			<path class="st1" d="M106.93,13.43h-2.21v-0.62c0-0.19,0.04-0.36,0.13-0.51c0.08-0.15,0.21-0.26,0.36-0.34
				c0.16-0.08,0.34-0.12,0.54-0.12h0.14c0.21,0,0.39,0.04,0.55,0.12c0.16,0.08,0.28,0.19,0.36,0.34s0.13,0.32,0.13,0.52V13.43z
				 M104.96,13.14h1.73v-0.3c0-0.22-0.07-0.4-0.21-0.52c-0.14-0.12-0.34-0.19-0.6-0.19h-0.13c-0.25,0-0.45,0.06-0.59,0.18
				c-0.14,0.12-0.21,0.28-0.21,0.5V13.14z"/>
		</g>
	</g>
	<g>
		<path class="st1" d="M113.86,16.05v0.51h0.89v0.29h-2.21v-0.73c0-0.25,0.06-0.44,0.17-0.57c0.11-0.13,0.28-0.2,0.49-0.2
			c0.14,0,0.26,0.04,0.36,0.11s0.18,0.18,0.23,0.31l0.94-0.51h0.02v0.31L113.86,16.05z M113.62,16.57v-0.44
			c0-0.14-0.04-0.26-0.11-0.34c-0.07-0.08-0.18-0.13-0.3-0.13c-0.14,0-0.24,0.04-0.31,0.12c-0.07,0.08-0.11,0.2-0.11,0.35v0.44
			H113.62z"/>
		<path class="st1" d="M113.77,14.41c-0.07,0.25-0.16,0.43-0.26,0.54c-0.1,0.11-0.23,0.17-0.39,0.17c-0.17,0-0.32-0.07-0.43-0.21
			c-0.11-0.14-0.17-0.32-0.17-0.54c0-0.15,0.03-0.28,0.09-0.4c0.06-0.12,0.14-0.21,0.24-0.27c0.1-0.06,0.22-0.1,0.34-0.1v0.29
			c-0.13,0-0.24,0.04-0.32,0.13c-0.08,0.08-0.12,0.2-0.12,0.36c0,0.14,0.03,0.25,0.1,0.33c0.06,0.08,0.15,0.12,0.26,0.12
			c0.09,0,0.17-0.04,0.23-0.11s0.12-0.2,0.17-0.39c0.05-0.18,0.11-0.32,0.17-0.43c0.06-0.1,0.13-0.18,0.22-0.23
			c0.08-0.05,0.18-0.07,0.29-0.07c0.18,0,0.32,0.07,0.43,0.21c0.11,0.14,0.16,0.32,0.16,0.56c0,0.15-0.03,0.29-0.09,0.42
			c-0.06,0.13-0.14,0.23-0.24,0.3s-0.22,0.11-0.34,0.11v-0.29c0.13,0,0.24-0.05,0.32-0.15c0.08-0.1,0.12-0.23,0.12-0.39
			c0-0.15-0.03-0.27-0.09-0.35c-0.06-0.08-0.15-0.12-0.26-0.12S114,13.92,113.94,14C113.88,14.07,113.82,14.21,113.77,14.41z"/>
		<path class="st1" d="M112.78,11.8v0.7h1.97v0.29h-1.97v0.7h-0.24V11.8H112.78z"/>
	</g>
	<g>
		<path class="st1" d="M120.93,17.68v0.51h0.89v0.29h-2.21v-0.73c0-0.25,0.06-0.44,0.17-0.57c0.11-0.13,0.28-0.2,0.49-0.2
			c0.14,0,0.26,0.04,0.36,0.11s0.18,0.18,0.23,0.31l0.94-0.51h0.02v0.31L120.93,17.68z M120.69,18.2v-0.44
			c0-0.14-0.04-0.26-0.11-0.34c-0.07-0.08-0.18-0.13-0.3-0.13c-0.14,0-0.24,0.04-0.31,0.12c-0.07,0.08-0.11,0.2-0.11,0.35v0.44
			H120.69z"/>
		<path class="st1" d="M120.46,15.97l-0.85-0.53V15.1l1.1,0.69l1.11-0.71v0.34l-0.86,0.54l0.86,0.54v0.34l-1.11-0.71l-1.1,0.69
			v-0.34L120.46,15.97z"/>
		<path class="st1" d="M121,14.37v0.73h-0.23v-0.73H121z"/>
		<path class="st1" d="M121,13.62v0.73h-0.23v-0.73H121z"/>
		<path class="st1" d="M121.82,12.55v0.28h-1.87l0.21,0.56h-0.26l-0.3-0.8v-0.04H121.82z"/>
	</g>
	<g>
		<path class="st1" d="M129.38,16.97v0.7h1.97v0.29h-1.97v0.7h-0.24v-1.69H129.38z"/>
		<path class="st1" d="M129.98,16.02l-0.85-0.53v-0.34l1.1,0.69l1.11-0.71v0.34l-0.86,0.54l0.86,0.54v0.34l-1.11-0.71l-1.1,0.69
			v-0.34L129.98,16.02z"/>
		<path class="st1" d="M130.52,14.43v0.73h-0.23v-0.73H130.52z"/>
		<path class="st1" d="M130.52,13.67v0.73h-0.23v-0.73H130.52z"/>
		<path class="st1" d="M130.41,12.15c0.33,0,0.57,0.06,0.73,0.17s0.24,0.29,0.24,0.52c0,0.23-0.08,0.41-0.23,0.52
			s-0.39,0.17-0.7,0.17h-0.38c-0.32,0-0.57-0.06-0.72-0.17c-0.16-0.11-0.24-0.29-0.24-0.52c0-0.24,0.08-0.41,0.23-0.52
			s0.39-0.17,0.71-0.17H130.41z M130.02,12.43c-0.24,0-0.41,0.03-0.52,0.1c-0.11,0.07-0.16,0.17-0.16,0.31
			c0,0.14,0.05,0.25,0.16,0.31c0.11,0.06,0.27,0.1,0.5,0.1h0.45c0.24,0,0.42-0.03,0.53-0.1s0.17-0.17,0.17-0.31
			c0-0.14-0.05-0.24-0.16-0.31c-0.11-0.07-0.28-0.1-0.51-0.1H130.02z"/>
	</g>
	<g>
		<path class="st1" d="M134.04,18.44v0.51h0.89v0.29h-2.21v-0.73c0-0.25,0.06-0.44,0.17-0.57c0.11-0.13,0.28-0.2,0.49-0.2
			c0.14,0,0.26,0.04,0.36,0.11s0.18,0.18,0.23,0.31l0.94-0.51h0.02v0.31L134.04,18.44z M133.8,18.95v-0.44
			c0-0.14-0.04-0.26-0.11-0.34c-0.07-0.08-0.18-0.13-0.3-0.13c-0.14,0-0.24,0.04-0.31,0.12c-0.07,0.08-0.11,0.2-0.11,0.35v0.44
			H133.8z"/>
		<path class="st1" d="M133.91,16.2v0.95h0.78v-1.1h0.24v1.39h-2.21v-1.38h0.24v1.09h0.71V16.2H133.91z"/>
		<path class="st1" d="M133.95,15.13c-0.07,0.25-0.16,0.43-0.26,0.54c-0.1,0.11-0.23,0.17-0.39,0.17c-0.17,0-0.32-0.07-0.43-0.21
			c-0.11-0.14-0.17-0.32-0.17-0.54c0-0.15,0.03-0.28,0.09-0.4c0.06-0.12,0.14-0.21,0.24-0.27c0.1-0.06,0.22-0.1,0.34-0.1v0.29
			c-0.13,0-0.24,0.04-0.32,0.13c-0.08,0.08-0.12,0.2-0.12,0.36c0,0.14,0.03,0.25,0.1,0.33c0.06,0.08,0.15,0.12,0.26,0.12
			c0.09,0,0.17-0.04,0.23-0.11s0.12-0.2,0.17-0.39c0.05-0.18,0.11-0.32,0.17-0.43c0.06-0.1,0.13-0.18,0.22-0.23
			c0.08-0.05,0.18-0.07,0.29-0.07c0.18,0,0.32,0.07,0.43,0.21c0.11,0.14,0.16,0.32,0.16,0.56c0,0.15-0.03,0.29-0.09,0.42
			c-0.06,0.13-0.14,0.23-0.24,0.3s-0.22,0.11-0.34,0.11v-0.29c0.13,0,0.24-0.05,0.32-0.15c0.08-0.1,0.12-0.23,0.12-0.39
			c0-0.15-0.03-0.27-0.09-0.35c-0.06-0.08-0.15-0.12-0.26-0.12s-0.19,0.04-0.25,0.11C134.06,14.79,134,14.93,133.95,15.13z"/>
	</g>
	<line class="st16" x1="134.93" y1="44.98" x2="136.75" y2="47.94"/>
	<line class="st16" x1="134.75" y1="12.79" x2="136.75" y2="9.9"/>
</g>
</svg>
