<?xml version="1.0" encoding="utf-8"?>
<!-- Generator: Adobe Illustrator 22.0.1, SVG Export Plug-In . SVG Version: 6.00 Build 0)  -->
<svg version="1.1" id="Макет_TREMA" xmlns="http://www.w3.org/2000/svg" xmlns:xlink="http://www.w3.org/1999/xlink" x="0px"
	 y="0px" viewBox="0 0 184.25 85.0400009" style="enable-background:new 0 0 184.25 85.0400009;" xml:space="preserve">
<style type="text/css">
	.st0{fill:#19191A;}
	.st1{fill:#9E9B9C;}
	.st2{fill:#CEC7BD;}
	.st3{fill:#918C84;}
	.st4{fill:none;stroke:#F6F6F6;stroke-width:0.75;stroke-miterlimit:10;}
	.st5{fill:#E5E4E0;}
	.st6{fill:#313131;stroke:#4C4C4C;stroke-width:0.25;stroke-miterlimit:10;}
	.st7{fill:#D24A43;}
</style>
<path class="st0" d="M0,0v85.039978h184.25V0H0z M9.9212646,79.5117798c-2.4264526,0-4.3936768-1.9667969-4.3936768-4.3926392
	c0-2.4279175,1.9672241-4.3947754,4.3936768-4.3947754s4.3936768,1.9668579,4.3936768,4.3947754
	C14.3149414,77.5449829,12.3477173,79.5117798,9.9212646,79.5117798z M9.9223022,14.3149414
	c-2.4279175,0-4.3947144-1.9667969-4.3947144-4.3927002c0-2.4279175,1.9667969-4.3947144,4.3947144-4.3947144
	c2.4258423,0,4.3926392,1.9667969,4.3926392,4.3947144C14.3149414,12.3481445,12.3481445,14.3149414,9.9223022,14.3149414z
	 M174.3297119,79.5117798c-2.4259033,0-4.3927002-1.968811-4.3927002-4.3947144
	c0-2.4258423,1.9667969-4.3927002,4.3927002-4.3927002c2.4278564,0,4.3947144,1.9668579,4.3947144,4.3927002
	C178.7244263,77.5429688,176.7575684,79.5117798,174.3297119,79.5117798z M174.3317261,14.3149414
	c-2.4279175,0-4.3947144-1.9667969-4.3947144-4.3927002c0-2.4279175,1.9667969-4.3947144,4.3947144-4.3947144
	c2.4258423,0,4.3927002,1.9667969,4.3927002,4.3947144C178.7244263,12.3481445,176.7575684,14.3149414,174.3317261,14.3149414z"/>
<g id="Креп._отверстия">
	<path class="st1" d="M174.3306885,3.9458008c-3.3002319,0-5.9754028,2.6751709-5.9754028,5.9754639
		c0,3.3002319,2.6751709,5.9754028,5.9754028,5.9754028c3.300293,0,5.9754639-2.6751709,5.9754639-5.9754028
		C180.3061523,6.6209717,177.6309814,3.9458008,174.3306885,3.9458008z M174.3317261,14.3149414
		c-2.4279175,0-4.3947144-1.9667969-4.3947144-4.3927002c0-2.4279175,1.9667969-4.3947144,4.3947144-4.3947144
		c2.4258423,0,4.3927002,1.9667969,4.3927002,4.3947144C178.7244263,12.3481445,176.7575684,14.3149414,174.3317261,14.3149414z"/>
	<path class="st1" d="M174.3306885,69.1426392c-3.2987061,0-5.9754028,2.6751709-5.9754028,5.9754639
		s2.6766968,5.9754028,5.9754028,5.9754028c3.300293,0,5.9754639-2.6751099,5.9754639-5.9754028
		S177.6309814,69.1426392,174.3306885,69.1426392z M174.3297119,79.5117798c-2.4259033,0-4.3927002-1.968811-4.3927002-4.3947144
		c0-2.4258423,1.9667969-4.3927002,4.3927002-4.3927002c2.4278564,0,4.3947144,1.9668579,4.3947144,4.3927002
		C178.7244263,77.5429688,176.7575684,79.5117798,174.3297119,79.5117798z"/>
	<path class="st1" d="M9.9212646,69.1426392c-3.300293,0-5.9754639,2.6751709-5.9754639,5.9754639
		s2.6751709,5.9754028,5.9754639,5.9754028s5.9754028-2.6751099,5.9754028-5.9754028S13.2215576,69.1426392,9.9212646,69.1426392z
		 M9.9212646,79.5117798c-2.4264526,0-4.3936768-1.9667969-4.3936768-4.3926392
		c0-2.4279175,1.9672241-4.3947754,4.3936768-4.3947754s4.3936768,1.9668579,4.3936768,4.3947754
		C14.3149414,77.5449829,12.3477173,79.5117798,9.9212646,79.5117798z"/>
	<path class="st1" d="M9.9212646,3.9458008c-3.2877808,0-5.9527588,2.6751709-5.9527588,5.9754639
		c0,3.3002319,2.664978,5.9754028,5.9527588,5.9754028c3.2877197,0,5.9527588-2.6751709,5.9527588-5.9754028
		C15.8740234,6.6209717,13.2089844,3.9458008,9.9212646,3.9458008z M9.9223022,14.3149414
		c-2.4279175,0-4.3947144-1.9667969-4.3947144-4.3927002c0-2.4279175,1.9667969-4.3947144,4.3947144-4.3947144
		c2.4258423,0,4.3926392,1.9667969,4.3926392,4.3947144C14.3149414,12.3481445,12.3481445,14.3149414,9.9223022,14.3149414z"/>
</g>
<g id="Слой_11">
	<g>
		<path class="st2" d="M10.9212656,30.0544415c-1.2273626,0-2.2224751-1.0018463-2.2224751-2.2397385
			s0.9951124-2.2415428,2.2224751-2.2415428s2.2224741,1.0036507,2.2224741,2.2415428S12.1486273,30.0544415,10.9212656,30.0544415z
			"/>
		<ellipse class="st3" cx="10.9212656" cy="27.8138008" rx="1.5185714" ry="1.5316002"/>
		<line class="st4" x1="16.5746078" y1="39.0719643" x2="16.5823746" y2="31.5671253"/>
		<path class="st4" d="M-11.5800838,45.5894737"/>
		<path class="st2" d="M10.9212656,37.5601921c-1.2273626,0-2.2224751-1.0018463-2.2224751-2.2397385
			s0.9951124-2.2415428,2.2224751-2.2415428s2.2224741,1.0036507,2.2224741,2.2415428S12.1486273,37.5601921,10.9212656,37.5601921z
			"/>
		<ellipse class="st3" cx="10.9212656" cy="35.3195496" rx="1.5185714" ry="1.5316002"/>
		<path class="st2" d="M10.9212656,45.0650215c-1.2273626,0-2.2224751-1.0018463-2.2224751-2.2397385
			s0.9951124-2.2415428,2.2224751-2.2415428s2.2224741,1.0036507,2.2224741,2.2415428S12.1486273,45.0650215,10.9212656,45.0650215z
			"/>
		<ellipse class="st3" cx="10.9212656" cy="42.824379" rx="1.5185714" ry="1.5316002"/>
		<path class="st2" d="M12.5501862,51.957283c-2.0229139,1.5395126-4.2713051-0.1709862-3.7840014-2.1831665
			c0.1875353-0.7743721,0.8210773-1.4096413,1.5950565-1.5987854C12.3728743,47.6837349,14.0905848,49.9327965,12.5501862,51.957283
			z"/>
		<ellipse class="st3" cx="10.9212656" cy="50.329216" rx="1.5185714" ry="1.5316002"/>
		<path class="st2" d="M12.5501862,59.4621201c-2.0229139,1.5395088-4.2713051-0.1709862-3.7840014-2.1831703
			c0.1875343-0.7743721,0.8210773-1.4096413,1.5950565-1.5987854
			C12.3728733,55.1885681,14.0905848,57.4376335,12.5501862,59.4621201z"/>
		<ellipse class="st3" cx="10.9212656" cy="57.8340492" rx="1.5185714" ry="1.5316002"/>
		<g>
			<path class="st5" d="M8.2753906,37.2636719c-0.152832,0.1582031-0.3779297,0.3076172-0.6757813,0.4482422
				s-0.6845703,0.2109375-1.1611328,0.2109375c-0.6958008,0-1.2631836-0.2421875-1.7026367-0.7265625
				c-0.4394531-0.4833984-0.6591797-1.1123047-0.6591797-1.8847656v-0.0849609c0-0.7763672,0.2172852-1.40625,0.6518555-1.8876953
				c0.4345703-0.4824219,1.0131836-0.7236328,1.7348633-0.7236328c0.3862305,0,0.7246094,0.0605469,1.0166016,0.1796875
				s0.5380859,0.2763672,0.737793,0.4726563v0.9355469H7.7246094l-0.1713867-0.7119141
				c-0.1166992-0.0947266-0.2578125-0.1728516-0.4233398-0.234375s-0.3637695-0.0917969-0.5952148-0.0917969
				c-0.5620117,0-0.9951172,0.1904297-1.2988281,0.5722656c-0.3037109,0.3808594-0.4555664,0.875-0.4555664,1.4824219v0.0917969
				c0,0.6171875,0.1469727,1.1152344,0.4414063,1.4951172c0.2944336,0.3808594,0.699707,0.5703125,1.2167969,0.5703125
				c0.2832031,0,0.515625-0.0292969,0.6967773-0.0878906c0.1811523-0.0595703,0.3261719-0.1240234,0.4360352-0.1953125v-1.1298828
				l-0.8540039-0.0351563v-0.5136719h1.5581055V37.2636719z"/>
		</g>
		<g>
			<path class="st5" d="M5.4316406,40.730957L4.956543,40.8061523l1.1650391,3.3510742l0.1176758,0.4072266h0.0214844
				l0.1181641-0.4072266l1.1611328-3.3549805L7.0717773,40.730957v-0.4492188h1.640625v0.4492188l-0.418457,0.0566406
				L6.550293,45.4394531H5.9462891l-1.7436523-4.6518555L3.7880859,40.730957v-0.4492188h1.6435547V40.730957z"/>
		</g>
		<g>
			<path class="st5" d="M6.1464844,47.7255859c0.6787109,0,1.2250977,0.2070313,1.6381836,0.6210938
				c0.4135742,0.4150391,0.6201172,0.9501953,0.6201172,1.6074219v0.7050781c0,0.6582031-0.206543,1.1943359-0.6201172,1.6064453
				c-0.4130859,0.4121094-0.9594727,0.6181641-1.6381836,0.6181641H3.9667969V52.4375l0.5820313-0.0996094v-4.0634766
				l-0.5820313-0.0996094v-0.4492188h0.5820313H6.1464844z M5.2529297,48.2744141v4.0634766h0.8935547
				c0.480957,0,0.8603516-0.1572266,1.1381836-0.4707031c0.2773438-0.3144531,0.4160156-0.7167969,0.4160156-1.2080078v-0.7128906
				c0-0.4863281-0.1386719-0.8867188-0.4160156-1.2011719c-0.277832-0.3134766-0.6572266-0.4707031-1.1381836-0.4707031H5.2529297z"
				/>
		</g>
		<g>
			<path class="st5" d="M8.1762695,56.7851563h-0.496582l-0.1323242-0.7294922
				c-0.1142578-0.1113281-0.2548828-0.2021484-0.421875-0.2724609c-0.1665039-0.0712891-0.3657227-0.1064453-0.5966797-0.1064453
				c-0.5405273,0-0.956543,0.1943359-1.2470703,0.5830078c-0.2905273,0.3876953-0.4360352,0.8808594-0.4360352,1.4785156v0.0820313
				c0,0.5976563,0.1425781,1.0917969,0.4272461,1.4824219s0.6791992,0.5859375,1.1845703,0.5859375
				c0.2358398,0,0.4501953-0.0361328,0.6430664-0.109375s0.3417969-0.1630859,0.4467773-0.2695313l0.1323242-0.7294922h0.496582
				v0.9179688c-0.1499023,0.1904297-0.375,0.3613281-0.675293,0.5117188
				c-0.300293,0.1494141-0.6479492,0.2246094-1.043457,0.2246094c-0.6767578,0-1.2319336-0.2480469-1.6650391-0.7441406
				c-0.434082-0.4960938-0.6503906-1.1191406-0.6503906-1.8701172v-0.0742188c0-0.7558594,0.2128906-1.3818359,0.6396484-1.8769531
				C5.2080078,55.375,5.7666016,55.1269531,6.4575195,55.1269531c0.3955078,0,0.7431641,0.0761719,1.043457,0.2285156
				s0.5253906,0.3232422,0.675293,0.5126953V56.7851563z"/>
		</g>
		<path class="st4" d="M4.2631187,39.0719757c-2.0724058,0-3.7524228-1.6800156-3.7524228-3.7524223
			s1.680017-3.7524223,3.7524228-3.7524223"/>
		<line class="st4" x1="4.2631187" y1="31.567131" x2="16.5901413" y2="31.567131"/>
		<line class="st4" x1="4.2631187" y1="39.0719757" x2="16.5901413" y2="39.0719757"/>
		<line class="st4" x1="16.5668411" y1="31.5671139" x2="16.5746078" y2="24.0622749"/>
		<path class="st4" d="M4.2553525,31.5671253c-2.0724061,0-3.752423-1.6800175-3.752423-3.7524223
			s1.680017-3.7524242,3.752423-3.7524242"/>
		<line class="st4" x1="4.2553525" y1="24.0622787" x2="16.5823746" y2="24.0622787"/>
		<line class="st4" x1="4.2553525" y1="31.5671253" x2="16.5823746" y2="31.5671253"/>
		<line class="st4" x1="16.5590744" y1="46.5768013" x2="16.5668411" y2="39.0719604"/>
		<path class="st4" d="M4.2475858,46.5768127c-2.0724058,0-3.7524228-1.6800194-3.7524228-3.7524261
			c0-2.072403,1.680017-3.7524223,3.7524228-3.7524223"/>
		<line class="st4" x1="4.2475858" y1="39.0719643" x2="16.5746078" y2="39.0719643"/>
		<line class="st4" x1="4.2475858" y1="46.5768127" x2="16.5746078" y2="46.5768127"/>
		<line class="st4" x1="16.5435429" y1="54.0816345" x2="16.5513096" y2="46.5767937"/>
		<path class="st4" d="M4.2320528,54.081646c-2.0724061,0-3.7524228-1.6800156-3.7524228-3.7524223
			s1.6800169-3.7524223,3.7524228-3.7524223"/>
		<line class="st4" x1="4.2320528" y1="46.5768013" x2="16.5590744" y2="46.5768013"/>
		<line class="st4" x1="4.2320528" y1="54.081646" x2="16.5590744" y2="54.081646"/>
		<line class="st4" x1="16.5280094" y1="61.5864677" x2="16.5357761" y2="54.0816307"/>
		<path class="st4" d="M4.2165198,61.5864792c-2.0724061,0-3.752423-1.6800156-3.752423-3.7524223
			s1.680017-3.7524223,3.752423-3.7524223"/>
		<line class="st4" x1="4.2165198" y1="54.0816345" x2="16.5435429" y2="54.0816345"/>
		<line class="st4" x1="4.2165198" y1="61.5864792" x2="16.5435429" y2="61.5864792"/>
	</g>
	<rect x="21.2598419" y="15.5905514" class="st6" width="141.7322845" height="53.8582687"/>
</g>
<g id="Циферблат">
	<path class="st7" d="M47.7273788,22.4656448c-0.0217438,0.167181-2.2021255,16.9355812-2.2021255,16.9355812l1.7943344,2.488987
		h1.3457451c0,0,0.2038803,0.0368614,0.5301323-0.4600258s2.1613579-16.1902561,2.1613579-16.1902561
		s0.1223412-3.2306709-2.1613579-3.230217c-0.0467987,0.0000095-0.6312447,0.0070629-1.0449295,0.1324692
		C47.9023209,22.2174282,47.7355347,22.4029522,47.7273788,22.4656448z"/>
	<path class="st7" d="M42.5902901,62.213726c0.0227928-0.167038,2.20504-16.7668915,2.20504-16.7668915l2.7337151-2.6365814
		l1.0005112-0.0000076c0.1448784-0.0491295,0.5596085,0.4532166,0.4944916,1.1049118
		c-0.059288,0.5933418-2.1536674,16.1913109-2.1536674,16.1913109s-0.0594673,1.0706139-2.9290581,2.5308609
		c-0.0417557,0.0212479-0.7940826,0.1830482-1.1600685-0.0494766C42.561657,62.4483376,42.5817451,62.2763672,42.5902901,62.213726z
		"/>
	<g>
		<path class="st7" d="M46.0766983,25.9367924H33.4470444c-0.1911697,0-0.3283806-0.156414-0.3049088-0.3475876l0.3663254-2.9834595
			c0.0234718-0.1911716,0.1990929-0.3475876,0.3902626-0.3475876h12.6296577c0.1911697,0,0.3283806,0.1564159,0.3049088,0.3475876
			l-0.3663254,2.9834595C46.4434929,25.7803783,46.2678719,25.9367924,46.0766983,25.9367924z"/>
	</g>
	<g>
		<path class="st7" d="M41.3562698,62.7174034H28.726614c-0.1911736,0-0.3283825-0.156414-0.3049088-0.3475876l0.3663235-2.9834595
			c0.0234718-0.1911736,0.1990929-0.3475876,0.3902645-0.3475876h12.6296558c0.1911736,0,0.3283806,0.156414,0.3049088,0.3475876
			l-0.3663216,2.9834595C41.7230606,62.5609894,41.5474434,62.7174034,41.3562698,62.7174034z"/>
	</g>
	<g>
		<polygon class="st7" points="44.2883072,44.3600311 30.1797562,44.3600311 28.8246803,42.5207176 30.6580029,40.6814003 
			44.766552,40.6814003 46.2592964,42.2997398 		"/>
	</g>
	<path class="st7" d="M32.504818,22.9855156c-0.0229454,0.1670208-2.3248196,16.9191742-2.3248196,16.9191742l-2.3852444,1.9301071
		l-1.1399384-0.0304832c0,0-0.3649311-0.3410912-0.5491695-0.9062386
		c-0.1842403-0.5651512,2.1683331-16.1893253,2.1683331-16.1893253s0.681673-2.1723423,2.9341183-2.5488644
		c0.2474689-0.0413685,0.7830315-0.2064724,1.1492329,0.0232182C32.5770531,22.320919,32.5134201,22.9228821,32.504818,22.9855156z"
		/>
	<path class="st7" d="M27.5573997,61.9565773c0.0189342-0.1629601,1.9174976-16.5081024,1.9174976-16.5081024l-1.8000164-2.3949432
		l-1.092926-0.2464294c0,0-0.4307861,0.2334061-0.7442207,0.7216072C25.5243015,44.0169106,23.94944,59.3111267,23.94944,59.3111267
		s0.1186752,2.2120552,2.1715851,3.1106377c0.225544,0.0987206,0.6952095,0.3836136,1.1000042,0.2555161
		C27.4639072,62.6004219,27.5502987,62.0176888,27.5573997,61.9565773z"/>
	<circle class="st7" cx="50.5999031" cy="60.8780861" r="2.1582909"/>
	<path class="st7" d="M83.7179413,22.463316c-0.0217438,0.167181-2.2021255,16.9355793-2.2021255,16.9355793l1.7943344,2.488987
		h1.3457489c0,0,0.2038803,0.0368652,0.5301285-0.4600258c0.3262558-0.4968872,2.1613617-16.1902542,2.1613617-16.1902542
		s0.1223373-3.2306728-2.1613617-3.230217c-0.0467987,0.0000095-0.6312408,0.007061-1.0449295,0.1324692
		C83.8928833,22.2150974,83.7260971,22.4006214,83.7179413,22.463316z"/>
	<path class="st7" d="M78.5808563,62.2113953c0.022789-0.1670341,2.20504-16.7668915,2.20504-16.7668915l2.7337112-2.6365814
		l1.0005112-0.0000076c0.1448746-0.0491295,0.5596085,0.4532166,0.4944916,1.1049118
		c-0.059288,0.5933456-2.1536713,16.1913109-2.1536713,16.1913109s-0.0594635,1.0706139-2.9290543,2.5308647
		c-0.0417557,0.0212479-0.7940826,0.1830444-1.1600723-0.0494766
		C78.5522232,62.4460106,78.5723114,62.2740364,78.5808563,62.2113953z"/>
	<g>
		<path class="st7" d="M82.0672607,25.9344635H69.4376068c-0.1911697,0-0.3283768-0.1564159-0.3049088-0.3475876
			l0.3663254-2.9834595c0.0234756-0.1911736,0.1990891-0.3475876,0.3902664-0.3475876h12.6296539
			c0.1911697,0,0.3283844,0.156414,0.3049088,0.3475876l-0.3663254,2.9834595
			C82.4340591,25.7780476,82.2584381,25.9344635,82.0672607,25.9344635z"/>
	</g>
	<g>
		<path class="st7" d="M77.3468323,62.7150726H64.7171783c-0.1911697,0-0.3283844-0.156414-0.3049088-0.3475876l0.3663254-2.9834595
			c0.023468-0.1911736,0.1990891-0.3475876,0.3902588-0.3475876h12.6296616c0.1911697,0,0.3283768,0.156414,0.3049088,0.3475876
			l-0.3663254,2.9834595C77.713623,62.5586586,77.538002,62.7150726,77.3468323,62.7150726z"/>
	</g>
	<g>
		<polygon class="st7" points="80.2788696,44.3577042 66.1703186,44.3577042 64.8152466,42.5183868 66.6485672,40.6790695 
			80.7571182,40.6790695 82.249855,42.2974129 		"/>
	</g>
	<path class="st7" d="M68.4953842,22.9831867c-0.0229492,0.1670189-2.3248215,16.9191723-2.3248215,16.9191723l-2.3852463,1.9301071
		l-1.1399384-0.0304794c0,0-0.3649292-0.341095-0.5491676-0.9062424s2.1683311-16.1893234,2.1683311-16.1893234
		s0.6816711-2.1723442,2.9341202-2.5488663c0.247467-0.0413666,0.7830276-0.2064705,1.149231,0.0232201
		C68.5676193,22.3185902,68.5039825,22.9205532,68.4953842,22.9831867z"/>
	<path class="st7" d="M63.5479622,61.9542465c0.0189362-0.1629601,1.9174995-16.5081024,1.9174995-16.5081024l-1.8000183-2.3949432
		l-1.092926-0.2464294c0,0-0.4307861,0.2334061-0.7442169,0.7216072c-0.3134346,0.4882011-1.888298,15.7824173-1.888298,15.7824173
		s0.1186752,2.2120552,2.1715851,3.1106377c0.225544,0.0987244,0.6952095,0.3836136,1.1000061,0.2555161
		C63.4544716,62.5980911,63.540863,62.015358,63.5479622,61.9542465z"/>
	<circle class="st7" cx="86.5904694" cy="60.8757553" r="2.1582909"/>
	<circle class="st7" cx="92.7187881" cy="33.3327141" r="2.1582909"/>
	<circle class="st7" cx="90.3456573" cy="51.6947403" r="2.1582909"/>
	<path class="st7" d="M119.4938431,22.4586563c-0.0217438,0.167181-2.2021255,16.9355812-2.2021255,16.9355812l1.7943344,2.488987
		h1.3457489c0,0,0.2038803,0.0368614,0.5301285-0.4600258c0.3262558-0.4968872,2.1613617-16.1902561,2.1613617-16.1902561
		s0.1223373-3.2306709-2.1613617-3.230217c-0.0467987,0.0000095-0.6312408,0.0070629-1.0449295,0.1324692
		C119.6687851,22.2104397,119.5019989,22.3959637,119.4938431,22.4586563z"/>
	<path class="st7" d="M114.3567581,62.2067375c0.022789-0.167038,2.20504-16.7668915,2.20504-16.7668915l2.7337112-2.6365814
		l1.0005112-0.0000076c0.1448746-0.0491295,0.5596085,0.4532166,0.4944916,1.1049118
		c-0.059288,0.5933418-2.1536713,16.1913109-2.1536713,16.1913109s-0.0594635,1.0706139-2.9290543,2.5308609
		c-0.0417557,0.0212479-0.7940826,0.1830482-1.1600723-0.0494766
		C114.328125,62.441349,114.3482132,62.2693787,114.3567581,62.2067375z"/>
	<g>
		<path class="st7" d="M117.8431625,25.9298038h-12.6296539c-0.1911697,0-0.3283768-0.156414-0.3049088-0.3475876
			l0.3663254-2.9834595c0.0234756-0.1911736,0.1990891-0.3475876,0.3902664-0.3475876h12.6296539
			c0.1911697,0,0.3283844,0.156414,0.3049088,0.3475876l-0.3663254,2.9834595
			C118.2099609,25.7733898,118.0343399,25.9298038,117.8431625,25.9298038z"/>
	</g>
	<g>
		<path class="st7" d="M113.1227341,62.7104149h-12.6296539c-0.1911697,0-0.3283844-0.156414-0.3049088-0.3475876
			l0.3663254-2.9834595c0.023468-0.1911736,0.1990891-0.3475876,0.3902588-0.3475876h12.6296616
			c0.1911697,0,0.3283768,0.156414,0.3049088,0.3475876l-0.3663254,2.9834595
			C113.4895248,62.5540009,113.3139038,62.7104149,113.1227341,62.7104149z"/>
	</g>
	<g>
		<polygon class="st7" points="116.0547714,44.3530426 101.9462204,44.3530426 100.5911484,42.5137253 102.424469,40.6744118 
			116.53302,40.6744118 118.0257568,42.2927513 		"/>
	</g>
	<path class="st7" d="M104.271286,22.9785271c-0.0229492,0.1670208-2.3248215,16.9191742-2.3248215,16.9191742l-2.3852463,1.9301071
		l-1.1399384-0.0304832c0,0-0.3649292-0.3410912-0.5491714-0.9062386c-0.1842346-0.5651512,2.168335-16.1893253,2.168335-16.1893253
		s0.6816711-2.1723423,2.9341202-2.5488663c0.247467-0.0413666,0.7830276-0.2064705,1.149231,0.0232201
		C104.3435211,22.3139305,104.2798843,22.9158936,104.271286,22.9785271z"/>
	<path class="st7" d="M99.3238678,61.9495888c0.0189285-0.1629601,1.9174957-16.5081024,1.9174957-16.5081024l-1.8000183-2.3949471
		l-1.092926-0.2464256c0,0-0.4307861,0.2334061-0.7442169,0.7216072c-0.3134384,0.4882011-1.888298,15.7824173-1.888298,15.7824173
		s0.1186752,2.2120552,2.1715851,3.1106377c0.2255478,0.0987206,0.6952133,0.3836136,1.1000061,0.2555161
		C99.2303696,62.5934334,99.3167648,62.0107002,99.3238678,61.9495888z"/>
	<circle class="st7" cx="122.3663712" cy="60.8710976" r="2.1582909"/>
	<path class="st7" d="M155.2697449,22.4609852c-0.0217438,0.167181-2.2021179,16.9355793-2.2021179,16.9355793l1.7943268,2.488987
		h1.3457489c0,0,0.2038727,0.0368652,0.5301361-0.460022c0.3262482-0.4968872,2.1613464-16.190258,2.1613464-16.190258
		s0.122345-3.2306709-2.1613464-3.2302151c-0.0467987,0.0000095-0.6312561,0.007061-1.0449371,0.1324673
		C155.4446869,22.2127686,155.2779083,22.3982925,155.2697449,22.4609852z"/>
	<path class="st7" d="M150.1326599,62.2090683c0.0227966-0.167038,2.2050323-16.7668953,2.2050323-16.7668953l2.7337189-2.6365776
		l1.0005188-0.0000076c0.1448669-0.0491333,0.5596008,0.4532127,0.4944916,1.104908
		c-0.0592957,0.5933456-2.1536713,16.1913109-2.1536713,16.1913109s-0.0594635,1.0706177-2.9290619,2.5308647
		c-0.041748,0.0212479-0.7940826,0.1830444-1.1600647-0.0494766
		C150.1040192,62.4436798,150.124115,62.2717056,150.1326599,62.2090683z"/>
	<g>
		<path class="st7" d="M153.6190643,25.9321327h-12.6296539c-0.1911774,0-0.3283844-0.156414-0.3049011-0.3475876
			l0.3663177-2.9834576c0.023468-0.1911736,0.1990967-0.3475876,0.3902588-0.3475876h12.6296539
			c0.1911774,0,0.3283844,0.156414,0.3049164,0.3475876l-0.3663177,2.9834576
			C153.9858551,25.7757187,153.8102417,25.9321327,153.6190643,25.9321327z"/>
	</g>
	<g>
		<path class="st7" d="M148.8986359,62.7127419h-12.6296539c-0.1911774,0-0.3283844-0.156414-0.3049164-0.3475876
			l0.366333-2.9834595c0.023468-0.1911697,0.1990967-0.3475838,0.3902588-0.3475838h12.6296539
			c0.1911774,0,0.3283844,0.156414,0.3049164,0.3475838l-0.366333,2.9834595
			C149.2654266,62.5563278,149.0898132,62.7127419,148.8986359,62.7127419z"/>
	</g>
	<g>
		<polygon class="st7" points="151.8306732,44.3553734 137.7221222,44.3553734 136.3670502,42.5160561 138.2003632,40.6767387 
			152.3089142,40.6767387 153.8016663,42.2950821 		"/>
	</g>
	<path class="st7" d="M140.0471802,22.9808559c-0.022934,0.1670208-2.3248138,16.9191761-2.3248138,16.9191761l-2.3852386,1.9301071
		l-1.1399384-0.0304832c0,0-0.3649445-0.3410912-0.5491791-0.9062424c-0.1842346-0.5651474,2.168335-16.1893215,2.168335-16.1893215
		s0.6816711-2.1723442,2.9341125-2.5488663c0.2474823-0.0413666,0.7830353-0.2064724,1.1492462,0.0232182
		C140.1194153,22.3162594,140.0557861,22.9182224,140.0471802,22.9808559z"/>
	<path class="st7" d="M135.099762,61.9519196c0.0189362-0.1629639,1.9174957-16.5081024,1.9174957-16.5081024l-1.8000031-2.3949471
		l-1.092926-0.2464256c0,0-0.4307861,0.2334023-0.7442322,0.7216034
		c-0.3134308,0.4882011-1.8882904,15.7824211-1.8882904,15.7824211s0.1186829,2.2120552,2.1715851,3.1106339
		c0.2255402,0.0987244,0.6952057,0.3836174,1.1000061,0.2555199
		C135.0062714,62.5957603,135.0926666,62.013031,135.099762,61.9519196z"/>
	<circle class="st7" cx="158.1422729" cy="60.8734245" r="2.1582909"/>
</g>
<g>
	<path class="st5" d="M45.4355469,78.9990234l0.4580078-0.0878906v-1.0429688
		c-0.1318359,0.03125-0.2783203,0.0556641-0.4394531,0.0722656c-0.1621094,0.0166016-0.3056641,0.0244141-0.4316406,0.0244141
		c-0.5283203,0-0.9365234-0.1132813-1.2246094-0.3398438c-0.2885742-0.2265625-0.4331055-0.5771484-0.4331055-1.0517578v-0.7236328
		l-0.4609375-0.0878906v-0.515625h1.3208008h0.4609375v0.515625l-0.4609375,0.0878906v0.7236328
		c0,0.2773438,0.0625,0.46875,0.1894531,0.5742188c0.1259766,0.1054688,0.328125,0.1582031,0.6083984,0.1582031
		c0.1220703,0,0.265625-0.0078125,0.4296875-0.0244141s0.3115234-0.0410156,0.4414063-0.0722656v-1.359375l-0.4580078-0.0878906
		v-0.515625h0.4580078h0.8632813h0.4609375v0.515625l-0.4609375,0.0878906v3.0615234l0.4609375,0.0878906v0.5126953h-1.7822266
		V78.9990234z"/>
	<path class="st5" d="M49.0791016,79.5732422c-0.4609375,0-0.8291016-0.1464844-1.1044922-0.4394531
		c-0.2763672-0.2929688-0.4140625-0.6650391-0.4140625-1.1162109v-0.1171875c0-0.4707031,0.1308594-0.8583984,0.3916016-1.1630859
		s0.6113281-0.4560547,1.0507813-0.4541016c0.4306641,0,0.765625,0.1289063,1.0039063,0.3867188
		s0.3574219,0.6064453,0.3574219,1.0458984v0.4658203h-1.9082031l-0.0058594,0.0175781
		c0.015625,0.2089844,0.0859375,0.3808594,0.2109375,0.515625s0.2949219,0.2021484,0.5097656,0.2021484
		c0.1914063,0,0.3496094-0.0185547,0.4755859-0.0566406s0.2636719-0.0986328,0.4140625-0.1806641l0.2333984,0.5273438
		c-0.1318359,0.1035156-0.3027344,0.1904297-0.5126953,0.2607422S49.3369141,79.5732422,49.0791016,79.5732422z
		 M49.0029297,76.9423828c-0.1601563,0-0.2861328,0.0605469-0.3789063,0.1816406s-0.1494141,0.2802734-0.1708984,0.4775391
		l0.0087891,0.0146484h1.0576172v-0.0761719c0-0.1816406-0.0429688-0.3261719-0.1289063-0.4345703
		C49.3056641,76.9970703,49.1757813,76.9423828,49.0029297,76.9423828z"/>
	<path class="st5" d="M54.0878906,76.3417969v1.0810547h-0.6621094l-0.0351563-0.4277344H52.84375v1.9160156l0.4580078,0.0878906
		v0.5126953h-1.7822266v-0.5126953l0.4580078-0.0878906v-1.9160156h-0.5341797l-0.0332031,0.4277344h-0.6611328v-1.0810547
		H54.0878906z"/>
	<path class="st5" d="M55.8515625,76.3417969v1.0224609h0.5996094c0.4335938,0,0.7734375,0.0966797,1.0185547,0.2890625
		s0.3671875,0.4482422,0.3671875,0.7685547c0,0.328125-0.1230469,0.5917969-0.3691406,0.7910156
		s-0.5849609,0.2988281-1.0166016,0.2988281h-1.9228516v-0.5126953l0.4609375-0.0878906v-1.9658203l-0.4609375-0.0878906v-0.515625
		h0.4609375H55.8515625z M56.3125,76.3417969v0.515625l-0.4609375,0.0878906v-0.6035156H56.3125z M55.8515625,77.9824219v0.8759766
		h0.5996094c0.1777344,0,0.3095703-0.0390625,0.3964844-0.1181641s0.1298828-0.1835938,0.1298828-0.3125
		c0-0.1328125-0.0429688-0.2402344-0.1289063-0.3222656c-0.0849609-0.0820313-0.2177734-0.1230469-0.3974609-0.1230469H55.8515625z
		 M57.8457031,76.8574219v-0.515625h1.3242188v2.5693359l0.4140625,0.0878906v0.5126953H57.890625v-0.5126953l0.4169922-0.0878906
		v-1.9658203L57.8457031,76.8574219z"/>
	<path class="st5" d="M59.7724609,76.8574219v-0.515625h1.2529297l0.0419922,0.3691406
		c0.09375-0.1367188,0.2070313-0.2421875,0.3398438-0.3164063c0.1318359-0.0742188,0.2851563-0.1113281,0.4609375-0.1113281
		c0.3955078,0,0.703125,0.1533203,0.921875,0.4599609c0.2177734,0.3066406,0.3271484,0.7099609,0.3271484,1.2099609v0.0615234
		c0,0.46875-0.109375,0.8457031-0.3271484,1.1308594c-0.21875,0.2851563-0.5244141,0.4277344-0.9160156,0.4277344
		c-0.1679688,0-0.3164063-0.0302734-0.4462891-0.0917969s-0.2412109-0.1523438-0.3339844-0.2714844v0.9169922l0.4160156,0.0878906
		v0.515625h-1.6923828v-0.515625l0.4160156-0.0878906v-3.1816406L59.7724609,76.8574219z M62.2548828,77.953125
		c0-0.2988281-0.0507813-0.5410156-0.1503906-0.7265625c-0.1005859-0.1855469-0.2548828-0.2783203-0.4609375-0.2783203
		c-0.1308594,0-0.2412109,0.0263672-0.3330078,0.0791016s-0.1640625,0.1279297-0.2167969,0.2255859v1.3886719
		c0.0527344,0.0898438,0.125,0.1582031,0.2167969,0.2050781s0.2041016,0.0703125,0.3388672,0.0703125
		c0.2080078,0,0.3613281-0.0810547,0.4589844-0.2431641s0.1464844-0.3818359,0.1464844-0.6591797V77.953125z"/>
	<path class="st5" d="M65.0322266,79.5732422c-0.4609375,0-0.8291016-0.1464844-1.1044922-0.4394531
		c-0.2763672-0.2929688-0.4140625-0.6650391-0.4140625-1.1162109v-0.1171875c0-0.4707031,0.1308594-0.8583984,0.3916016-1.1630859
		s0.6113281-0.4560547,1.0507813-0.4541016c0.4306641,0,0.765625,0.1289063,1.0039063,0.3867188
		s0.3574219,0.6064453,0.3574219,1.0458984v0.4658203h-1.9082031l-0.0058594,0.0175781
		c0.015625,0.2089844,0.0859375,0.3808594,0.2109375,0.515625s0.2949219,0.2021484,0.5097656,0.2021484
		c0.1914063,0,0.3496094-0.0185547,0.4755859-0.0566406s0.2636719-0.0986328,0.4140625-0.1806641l0.2333984,0.5273438
		c-0.1318359,0.1035156-0.3027344,0.1904297-0.5126953,0.2607422S65.2900391,79.5732422,65.0322266,79.5732422z
		 M64.9560547,76.9423828c-0.1601563,0-0.2861328,0.0605469-0.3789063,0.1816406s-0.1494141,0.2802734-0.1708984,0.4775391
		l0.0087891,0.0146484h1.0576172v-0.0761719c0-0.1816406-0.0429688-0.3261719-0.1289063-0.4345703
		C65.2587891,76.9970703,65.1289063,76.9423828,64.9560547,76.9423828z"/>
	<path class="st5" d="M66.6337891,78.9990234l0.2988281-0.046875l0.8681641-1.0429688l-0.8388672-1.0019531l-0.2988281-0.0498047
		v-0.515625h1.4394531v0.4951172l-0.2929688,0.0351563l0.4853516,0.609375l0.4755859-0.609375l-0.2988281-0.0351563v-0.4951172
		h1.4453125v0.515625l-0.2900391,0.0498047l-0.8212891,1.0019531l0.8662109,1.0429688l0.3007813,0.046875v0.5126953h-1.4628906
		v-0.4921875l0.2929688-0.0351563l-0.4960938-0.6386719l-0.5058594,0.6416016l0.2568359,0.0322266v0.4921875h-1.4238281V78.9990234z
		"/>
	<path class="st5" d="M70.1796875,76.8574219v-0.515625h1.2529297l0.0410156,0.3691406
		c0.0947266-0.1367188,0.2080078-0.2421875,0.3398438-0.3164063s0.2851563-0.1113281,0.4609375-0.1113281
		c0.3964844,0,0.703125,0.1533203,0.921875,0.4599609s0.328125,0.7099609,0.328125,1.2099609v0.0615234
		c0,0.46875-0.109375,0.8457031-0.328125,1.1308594s-0.5244141,0.4277344-0.9160156,0.4277344
		c-0.1669922,0-0.3164063-0.0302734-0.4462891-0.0917969S71.5927734,79.3291016,71.5,79.2099609v0.9169922l0.4169922,0.0878906
		v0.515625h-1.6933594v-0.515625l0.4169922-0.0878906v-3.1816406L70.1796875,76.8574219z M72.6611328,77.953125
		c0-0.2988281-0.0498047-0.5410156-0.1503906-0.7265625s-0.2539063-0.2783203-0.4609375-0.2783203
		c-0.1298828,0-0.2402344,0.0263672-0.3320313,0.0791016S71.5537109,77.1552734,71.5,77.2529297v1.3886719
		c0.0537109,0.0898438,0.1259766,0.1582031,0.2177734,0.2050781s0.2041016,0.0703125,0.3378906,0.0703125
		c0.2089844,0,0.3623047-0.0810547,0.4599609-0.2431641s0.1455078-0.3818359,0.1455078-0.6591797V77.953125z"/>
	<path class="st5" d="M75.9443359,79.5117188c-0.0234375-0.0527344-0.0439453-0.1064453-0.0615234-0.1621094
		c-0.0185547-0.0556641-0.0322266-0.1123047-0.0419922-0.1689453c-0.1025391,0.1171875-0.2265625,0.2119141-0.3740234,0.2841797
		c-0.1464844,0.0722656-0.3144531,0.1083984-0.5029297,0.1083984c-0.3134766,0-0.5625-0.0839844-0.7460938-0.2529297
		c-0.1845703-0.1689453-0.2763672-0.3994141-0.2763672-0.6904297c0-0.296875,0.1201172-0.5263672,0.3603516-0.6884766
		s0.5927734-0.2431641,1.0576172-0.2431641h0.4404297v-0.3105469c0-0.1523438-0.0449219-0.2705078-0.1328125-0.3544922
		c-0.0888672-0.0839844-0.2197266-0.1259766-0.3935547-0.1259766c-0.0986328,0-0.1855469,0.0117188-0.2626953,0.0341797
		s-0.1386719,0.0488281-0.1865234,0.0800781l-0.0556641,0.3398438h-0.6503906l0.0029297-0.703125
		c0.1582031-0.1054688,0.3388672-0.1943359,0.5419922-0.2666016c0.2041016-0.0722656,0.4267578-0.1083984,0.6669922-0.1083984
		c0.3955078,0,0.7167969,0.0966797,0.9648438,0.2890625c0.2470703,0.1923828,0.3701172,0.4658203,0.3701172,0.8212891v1.3095703
		c0,0.0488281,0.0009766,0.0947266,0.0019531,0.1376953s0.0039063,0.0839844,0.0097656,0.1230469l0.2636719,0.0351563v0.5126953
		H75.9443359z M75.1972656,78.9404297c0.1298828,0,0.2480469-0.0273438,0.3544922-0.0830078
		s0.1884766-0.1259766,0.2480469-0.2099609v-0.4833984H75.359375c-0.1835938,0-0.3222656,0.0429688-0.4169922,0.1279297
		c-0.09375,0.0849609-0.1416016,0.1865234-0.1416016,0.3056641c0,0.1074219,0.0351563,0.1914063,0.1054688,0.2519531
		C74.9755859,78.9101563,75.0732422,78.9404297,75.1972656,78.9404297z"/>
	<path class="st5" d="M78.6123047,77.6191406c0.1464844,0,0.2539063-0.0302734,0.3222656-0.0908203
		c0.0693359-0.0605469,0.1035156-0.1464844,0.1035156-0.2578125c0-0.1015625-0.0332031-0.1875-0.0986328-0.2578125
		c-0.0664063-0.0703125-0.1738281-0.1054688-0.3242188-0.1054688c-0.1396484,0-0.2519531,0.03125-0.3378906,0.09375
		s-0.1289063,0.1464844-0.1289063,0.2519531H77.3125l-0.0058594-0.0175781
		c-0.0117188-0.2832031,0.1044922-0.5117188,0.3486328-0.6865234s0.5498047-0.2626953,0.9160156-0.2626953
		c0.4101563,0,0.7333984,0.0800781,0.9707031,0.2402344s0.3564453,0.3876953,0.3564453,0.6826172
		c0,0.1425781-0.0439453,0.2734375-0.1308594,0.3916016c-0.0859375,0.1181641-0.2060547,0.2109375-0.3603516,0.2792969
		c0.1777344,0.0625,0.3134766,0.15625,0.40625,0.2802734c0.09375,0.1240234,0.140625,0.2753906,0.140625,0.4550781
		c0,0.296875-0.1279297,0.5302734-0.3828125,0.7001953s-0.5878906,0.2548828-1,0.2548828
		c-0.3642578,0-0.6767578-0.0839844-0.9384766-0.2519531c-0.2607422-0.1679688-0.3847656-0.4101563-0.3730469-0.7265625
		l0.0029297-0.0175781h0.8359375c0,0.109375,0.0449219,0.2001953,0.1357422,0.2724609s0.21875,0.1083984,0.3837891,0.1083984
		c0.1601563,0,0.2792969-0.0380859,0.3583984-0.1142578c0.078125-0.0761719,0.1181641-0.1699219,0.1181641-0.28125
		c0-0.1367188-0.0400391-0.2363281-0.1181641-0.2998047c-0.0791016-0.0634766-0.2001953-0.0957031-0.3642578-0.0957031h-0.4609375
		v-0.5449219H78.6123047z"/>
	<path class="st5" d="M80.3056641,76.8574219v-0.515625h1.2529297l0.0419922,0.3691406
		c0.09375-0.1367188,0.2070313-0.2421875,0.3398438-0.3164063c0.1318359-0.0742188,0.2851563-0.1113281,0.4609375-0.1113281
		c0.3955078,0,0.703125,0.1533203,0.921875,0.4599609c0.2177734,0.3066406,0.3271484,0.7099609,0.3271484,1.2099609v0.0615234
		c0,0.46875-0.109375,0.8457031-0.3271484,1.1308594c-0.21875,0.2851563-0.5244141,0.4277344-0.9160156,0.4277344
		c-0.1679688,0-0.3164063-0.0302734-0.4462891-0.0917969s-0.2412109-0.1523438-0.3339844-0.2714844v0.9169922l0.4160156,0.0878906
		v0.515625h-1.6923828v-0.515625l0.4160156-0.0878906v-3.1816406L80.3056641,76.8574219z M82.7880859,77.953125
		c0-0.2988281-0.0507813-0.5410156-0.1503906-0.7265625c-0.1005859-0.1855469-0.2548828-0.2783203-0.4609375-0.2783203
		c-0.1308594,0-0.2412109,0.0263672-0.3330078,0.0791016s-0.1640625,0.1279297-0.2167969,0.2255859v1.3886719
		c0.0527344,0.0898438,0.125,0.1582031,0.2167969,0.2050781s0.2041016,0.0703125,0.3388672,0.0703125
		c0.2080078,0,0.3613281-0.0810547,0.4589844-0.2431641s0.1464844-0.3818359,0.1464844-0.6591797V77.953125z"/>
	<path class="st5" d="M85.7900391,78.9990234l0.4160156-0.0878906v-0.5097656h-0.5195313L85.0625,79.5117188h-0.9423828v-0.5126953
		l0.390625-0.0585938l0.3837891-0.6796875c-0.1953125-0.0859375-0.3447266-0.2041016-0.4492188-0.3544922
		s-0.15625-0.3212891-0.15625-0.5126953c0-0.3085938,0.1230469-0.5605469,0.3701172-0.7568359
		s0.5800781-0.2949219,0.9980469-0.2949219h1.4091797h0.4580078v0.515625l-0.4580078,0.0878906v1.9658203l0.4580078,0.0878906
		v0.5126953h-1.734375V78.9990234z M85.1484375,77.4169922c0,0.109375,0.0429688,0.2050781,0.1289063,0.2861328
		c0.0849609,0.0810547,0.2070313,0.1210938,0.3642578,0.1210938h0.5644531v-0.8291016h-0.5488281
		c-0.1621094,0-0.2871094,0.0429688-0.3759766,0.1289063S85.1484375,77.3076172,85.1484375,77.4169922z"/>
	<path class="st5" d="M88.1503906,78.8496094c0.1972656-0.203125,0.3300781-0.4023438,0.3994141-0.5986328
		c0.0683594-0.1962891,0.1074219-0.4765625,0.1152344-0.8398438l0.0058594-0.4658203L88.21875,76.8574219v-0.515625h2.8193359
		h0.4609375v0.515625l-0.4609375,0.0878906v1.9101563h0.4638672l-0.0595703,1.6054688h-0.8037109v-0.9492188h-1.8847656v0.9492188
		h-0.8066406l-0.0742188-1.6113281H88.1503906z M89.5273438,77.4111328c-0.015625,0.3144531-0.0566406,0.5908203-0.1240234,0.828125
		c-0.0664063,0.2373047-0.1552734,0.4414063-0.265625,0.6132813h1.0429688v-1.828125h-0.6503906L89.5273438,77.4111328z"/>
	<path class="st5" d="M91.9619141,76.8574219v-0.515625h1.6933594v0.515625l-0.3720703,0.0878906V77.625h1.0517578v-0.6796875
		l-0.3691406-0.0878906v-0.515625h0.3691406h0.8632813h0.4609375v0.515625l-0.4609375,0.0878906v1.9658203l0.4609375,0.0878906
		v0.5126953h-1.6933594v-0.5126953l0.3691406-0.0878906V78.28125h-1.0517578v0.6298828l0.3720703,0.0878906v0.5126953h-1.6933594
		v-0.5126953l0.4609375-0.0878906v-1.9658203L91.9619141,76.8574219z"/>
	<path class="st5" d="M97.4853516,76.3417969v1.0224609h0.5996094c0.4335938,0,0.7724609,0.0966797,1.0175781,0.2890625
		s0.3681641,0.4482422,0.3681641,0.7685547c0,0.328125-0.1230469,0.5917969-0.3691406,0.7910156
		s-0.5849609,0.2988281-1.0166016,0.2988281h-1.9238281v-0.5126953l0.4609375-0.0878906v-1.9658203l-0.4609375-0.0878906v-0.515625
		h0.4609375H97.4853516z M97.9462891,76.3417969v0.515625l-0.4609375,0.0878906v-0.6035156H97.9462891z M97.4853516,77.9824219
		v0.8759766h0.5996094c0.1767578,0,0.3095703-0.0390625,0.3955078-0.1181641
		c0.0869141-0.0791016,0.1298828-0.1835938,0.1298828-0.3125c0-0.1328125-0.0419922-0.2402344-0.1279297-0.3222656
		s-0.21875-0.1230469-0.3974609-0.1230469H97.4853516z M99.4794922,76.8574219v-0.515625h1.3242188v2.5693359l0.4130859,0.0878906
		v0.5126953h-1.6933594v-0.5126953l0.4169922-0.0878906v-1.9658203L99.4794922,76.8574219z"/>
	<path class="st5" d="M103.2734375,76.3417969v0.515625l-0.4140625,0.0878906v1.3212891l0.0185547,0.0029297l1.0400391-1.9277344
		h0.8623047h0.4580078v0.515625l-0.4580078,0.0878906v1.9658203l0.4580078,0.0878906v0.5126953h-1.734375v-0.5126953
		l0.4140625-0.0878906v-1.3271484l-0.0175781-0.0029297l-1.0410156,1.9306641h-1.3232422v-0.5126953l0.4609375-0.0878906v-1.9658203
		l-0.4609375-0.0878906v-0.515625h1.3232422H103.2734375z M104.3935547,74.9384766l0.0058594,0.0175781
		c0.0097656,0.2480469-0.0771484,0.4511719-0.2617188,0.6083984s-0.4316406,0.2353516-0.7431641,0.2353516
		c-0.3134766,0-0.5625-0.078125-0.7470703-0.2353516c-0.1855469-0.1572266-0.2724609-0.3603516-0.2607422-0.6083984
		l0.0058594-0.0175781h0.5849609c0,0.1132813,0.0341797,0.2070313,0.1005859,0.28125
		c0.0673828,0.0742188,0.1728516,0.1113281,0.3164063,0.1113281c0.1396484,0,0.2431641-0.0361328,0.3105469-0.109375
		c0.0664063-0.0732422,0.1005859-0.1679688,0.1005859-0.2832031H104.3935547z"/>
	<path class="st5" d="M108.9443359,76.3417969v0.515625l-0.4140625,0.0878906v1.3212891l0.0175781,0.0029297l1.0400391-1.9277344
		h0.8632813h0.4580078v0.515625l-0.4580078,0.0878906v1.9658203l0.4580078,0.0878906v0.5126953h-1.734375v-0.5126953
		l0.4130859-0.0878906v-1.3271484l-0.0175781-0.0029297l-1.0400391,1.9306641h-1.3242188v-0.5126953l0.4609375-0.0878906v-1.9658203
		l-0.4609375-0.0878906v-0.515625h1.3242188H108.9443359z"/>
	<path class="st5" d="M111.3935547,76.8574219v-0.515625h1.6933594v0.515625l-0.3730469,0.0878906V77.625h1.0527344v-0.6796875
		l-0.3701172-0.0878906v-0.515625h0.3701172h0.8623047h0.4609375v0.515625l-0.4609375,0.0878906v1.9658203l0.4609375,0.0878906
		v0.5126953h-1.6933594v-0.5126953l0.3701172-0.0878906V78.28125h-1.0527344v0.6298828l0.3730469,0.0878906v0.5126953h-1.6933594
		v-0.5126953l0.4609375-0.0878906v-1.9658203L111.3935547,76.8574219z"/>
	<path class="st5" d="M115.7460938,78.8496094c0.1962891-0.203125,0.3300781-0.4023438,0.3984375-0.5986328
		c0.0693359-0.1962891,0.1074219-0.4765625,0.1152344-0.8398438l0.0058594-0.4658203l-0.4521484-0.0878906v-0.515625h2.8193359
		h0.4609375v0.515625l-0.4609375,0.0878906v1.9101563h0.4638672l-0.0595703,1.6054688h-0.8037109v-0.9492188h-1.8847656v0.9492188
		h-0.8066406l-0.0742188-1.6113281H115.7460938z M117.1230469,77.4111328
		c-0.015625,0.3144531-0.0576172,0.5908203-0.1240234,0.828125c-0.0673828,0.2373047-0.15625,0.4414063-0.2666016,0.6132813
		h1.0429688v-1.828125h-0.6494141L117.1230469,77.4111328z"/>
	<path class="st5" d="M121.2949219,76.3417969v0.515625l-0.4130859,0.0878906v1.3212891l0.0175781,0.0029297l1.0400391-1.9277344
		h0.8623047h0.4580078v0.515625l-0.4580078,0.0878906v1.9658203l0.4580078,0.0878906v0.5126953h-1.734375v-0.5126953
		l0.4140625-0.0878906v-1.3271484l-0.0175781-0.0029297l-1.0400391,1.9306641h-1.3242188v-0.5126953l0.4609375-0.0878906v-1.9658203
		l-0.4609375-0.0878906v-0.515625h1.3242188H121.2949219z"/>
	<path class="st5" d="M123.7617188,76.8574219v-0.515625h1.7138672v0.515625l-0.3925781,0.0878906v0.6035156h0.2949219
		l0.4794922-0.703125c0.1201172-0.1835938,0.2460938-0.3212891,0.3779297-0.4140625s0.2958984-0.1396484,0.4931641-0.1396484
		c0.0986328,0,0.1875,0.0136719,0.2666016,0.0410156c0.078125,0.0273438,0.15625,0.0644531,0.2333984,0.1113281
		l-0.1455078,0.5917969c-0.0585938-0.015625-0.0957031-0.0253906-0.1103516-0.0292969s-0.0419922-0.0058594-0.0810547-0.0058594
		c-0.0595703,0-0.1220703,0.0224609-0.1884766,0.0673828c-0.0654297,0.0449219-0.1220703,0.1015625-0.1699219,0.1699219
		l-0.4130859,0.5976563l0.7412109,1.0927734l0.4345703,0.0703125v0.5126953h-1.1845703l-0.6972656-1.1865234h-0.3310547v0.5859375
		l0.3925781,0.0878906v0.5126953h-1.7138672v-0.5126953l0.4609375-0.0878906v-1.9658203L123.7617188,76.8574219z"/>
	<path class="st5" d="M129.6445313,79.5117188c-0.0234375-0.0527344-0.0439453-0.1064453-0.0615234-0.1621094
		s-0.03125-0.1123047-0.0419922-0.1689453c-0.1015625,0.1171875-0.2265625,0.2119141-0.3730469,0.2841797
		c-0.1474609,0.0722656-0.3154297,0.1083984-0.5039063,0.1083984c-0.3134766,0-0.5625-0.0839844-0.7460938-0.2529297
		c-0.1845703-0.1689453-0.2763672-0.3994141-0.2763672-0.6904297c0-0.296875,0.1201172-0.5263672,0.3603516-0.6884766
		s0.5927734-0.2431641,1.0576172-0.2431641H129.5v-0.3105469c0-0.1523438-0.0439453-0.2705078-0.1328125-0.3544922
		s-0.2197266-0.1259766-0.3925781-0.1259766c-0.0986328,0-0.1865234,0.0117188-0.2636719,0.0341797
		c-0.0761719,0.0224609-0.1386719,0.0488281-0.1855469,0.0800781l-0.0566406,0.3398438h-0.6503906l0.0029297-0.703125
		c0.1582031-0.1054688,0.3388672-0.1943359,0.5429688-0.2666016c0.203125-0.0722656,0.4257813-0.1083984,0.6660156-0.1083984
		c0.3955078,0,0.7177734,0.0966797,0.9648438,0.2890625s0.3710938,0.4658203,0.3710938,0.8212891v1.3095703
		c0,0.0488281,0,0.0947266,0.0009766,0.1376953s0.0048828,0.0839844,0.0107422,0.1230469l0.2626953,0.0351563v0.5126953H129.6445313
		z M128.8974609,78.9404297c0.1298828,0,0.2480469-0.0273438,0.3544922-0.0830078s0.1894531-0.1259766,0.2480469-0.2099609
		v-0.4833984h-0.4404297c-0.1826172,0-0.3222656,0.0429688-0.4160156,0.1279297
		c-0.0947266,0.0849609-0.1425781,0.1865234-0.1425781,0.3056641c0,0.1074219,0.0351563,0.1914063,0.1054688,0.2519531
		C128.6757813,78.9101563,128.7734375,78.9404297,128.8974609,78.9404297z"/>
	<path class="st5" d="M134.2490234,76.3417969v1.0810547h-0.6621094l-0.0361328-0.4277344h-0.5458984v1.9160156l0.4580078,0.0878906
		v0.5126953h-1.7822266v-0.5126953l0.4580078-0.0878906v-1.9160156h-0.5351563l-0.0322266,0.4277344h-0.6621094v-1.0810547
		H134.2490234z"/>
	<path class="st5" d="M134.6064453,77.8974609c0-0.4726563,0.1328125-0.859375,0.4003906-1.1611328
		c0.2666016-0.3017578,0.6357422-0.453125,1.1064453-0.453125c0.4726563,0,0.8427734,0.1503906,1.109375,0.4511719
		s0.4003906,0.6884766,0.4003906,1.1630859v0.0615234c0,0.4765625-0.1337891,0.8652344-0.4003906,1.1650391
		s-0.6347656,0.4492188-1.1035156,0.4492188c-0.4746094,0-0.8457031-0.1494141-1.1123047-0.4492188
		c-0.2675781-0.2998047-0.4003906-0.6884766-0.4003906-1.1650391V77.8974609z M135.46875,77.9589844
		c0,0.2890625,0.0517578,0.5214844,0.1533203,0.6962891c0.1025391,0.1748047,0.2685547,0.2617188,0.4970703,0.2617188
		c0.2226563,0,0.3857422-0.0878906,0.4892578-0.2636719c0.1025391-0.1757813,0.1542969-0.4072266,0.1542969-0.6943359v-0.0615234
		c0-0.28125-0.0517578-0.5107422-0.15625-0.6884766s-0.2685547-0.2666016-0.4931641-0.2666016
		s-0.3886719,0.0888672-0.4912109,0.2666016c-0.1015625,0.1777344-0.1533203,0.4072266-0.1533203,0.6884766V77.9589844z"/>
	<path class="st5" d="M137.9335938,76.8574219v-0.515625h1.2529297l0.0410156,0.3691406
		c0.0947266-0.1367188,0.2080078-0.2421875,0.3398438-0.3164063s0.2861328-0.1113281,0.4609375-0.1113281
		c0.3964844,0,0.703125,0.1533203,0.921875,0.4599609s0.328125,0.7099609,0.328125,1.2099609v0.0615234
		c0,0.46875-0.109375,0.8457031-0.328125,1.1308594s-0.5234375,0.4277344-0.9160156,0.4277344
		c-0.1669922,0-0.3154297-0.0302734-0.4462891-0.0917969c-0.1298828-0.0615234-0.2412109-0.1523438-0.3330078-0.2714844v0.9169922
		l0.4160156,0.0878906v0.515625h-1.6933594v-0.515625l0.4169922-0.0878906v-3.1816406L137.9335938,76.8574219z
		 M140.4160156,77.953125c0-0.2988281-0.0507813-0.5410156-0.1513672-0.7265625s-0.2539063-0.2783203-0.4609375-0.2783203
		c-0.1298828,0-0.2402344,0.0263672-0.3320313,0.0791016s-0.1640625,0.1279297-0.2167969,0.2255859v1.3886719
		c0.0527344,0.0898438,0.125,0.1582031,0.2167969,0.2050781s0.2041016,0.0703125,0.3378906,0.0703125
		c0.2089844,0,0.3623047-0.0810547,0.4599609-0.2431641s0.1464844-0.3818359,0.1464844-0.6591797V77.953125z"/>
</g>
<g>
</g>
<g>
</g>
<g>
</g>
<g>
</g>
<g>
</g>
</svg>
