<?xml version="1.0" encoding="utf-8"?>
<!-- Generator: Adobe Illustrator 22.1.0, SVG Export Plug-In . SVG Version: 6.00 Build 0)  -->
<svg version="1.1" id="Слой_1" xmlns="http://www.w3.org/2000/svg" xmlns:xlink="http://www.w3.org/1999/xlink" x="0px" y="0px"
	 viewBox="0 0 212.4 151.2" enable-background="new 0 0 212.4 151.2" xml:space="preserve">
<g id="Питание_4_">
	<path fill="#313131" stroke="#313131" stroke-width="0.25" stroke-miterlimit="10" d="M18,10.8h-7.2c-0.2,0-0.3,0.1-0.3,0.3V36
		c0,0.2,0.1,0.3,0.3,0.3H18"/>
</g>
<g id="USB_3_">
	<path fill="#CCCCCC" d="M18,91H0.6c-0.2,0.2-0.3,0.3-0.6,0.6l0,32.9c0.2,0.2,0.3,0.3,0.6,0.6H18"/>
	<path fill="#FFFFFF" d="M1.9,108.1v-0.2c0-0.5,0.4-1,1-1H18v2.1H2.9C2.3,109,1.9,108.6,1.9,108.1z"/>
	<line fill="none" stroke="#FFFFFF" stroke-width="0.25" stroke-miterlimit="10" x1="0.1" y1="108" x2="1.9" y2="108"/>
	<path fill="#E6E6E6" d="M2.1,108L2.1,108c0-0.5,1.4-0.9,1.9-0.9h14.1v1.8H4C3.5,108.9,2.1,108.5,2.1,108z"/>
	<line fill="none" stroke="#FFFFFF" stroke-width="0.1" stroke-miterlimit="10" x1="0.1" y1="91.6" x2="0.1" y2="124.4"/>
	<path fill="#FFFFFF" d="M1.9,111.6v-1.7c0-0.5-0.4-0.9-0.9-0.9l-0.9,0v3.5l0.9-0.1C1.5,112.4,1.9,112.1,1.9,111.6z"/>
	<path fill="#FFFFFF" d="M1.9,106.1v-1.7c0-0.5-0.4-0.8-0.8-0.9l-0.9,0v3.5l0.9,0C1.5,106.9,1.9,106.5,1.9,106.1z"/>
</g>
<g>
	<g>
		<path fill="#19191A" d="M18.5,150.7V0.5h186.2v6.9l7.2,7.2v92.5l-7.2,7.2v32.4l-4,4H18.5z M61.2,139c-2.8,0-5,2.2-5,5s2.2,5,5,5
			s5-2.2,5-5S63.9,139,61.2,139z M205.2,95.8c-2.8,0-5,2.2-5,5s2.2,5,5,5s5-2.2,5-5S207.9,95.8,205.2,95.8z M205.2,16.6
			c-2.8,0-5,2.2-5,5s2.2,5,5,5s5-2.2,5-5S207.9,16.6,205.2,16.6z M57.6,2.2c-2.8,0-5,2.2-5,5s2.2,5,5,5s5-2.2,5-5S60.3,2.2,57.6,2.2
			z"/>
	</g>
	<g>
		<path fill="#666566" d="M204.2,1v6.2v0.4l0.3,0.3l6.9,6.9v92.1l-6.9,6.9l-0.3,0.3v0.4v32l-3.7,3.7H19V1H204.2 M57.6,12.7
			c3,0,5.5-2.5,5.5-5.5s-2.5-5.5-5.5-5.5c-3,0-5.5,2.5-5.5,5.5S54.6,12.7,57.6,12.7 M205.2,27.1c3,0,5.5-2.5,5.5-5.5
			s-2.5-5.5-5.5-5.5s-5.5,2.5-5.5,5.5S202.2,27.1,205.2,27.1 M205.2,106.3c3,0,5.5-2.5,5.5-5.5c0-3-2.5-5.5-5.5-5.5
			s-5.5,2.5-5.5,5.5C199.7,103.8,202.2,106.3,205.2,106.3 M61.2,149.5c3,0,5.5-2.5,5.5-5.5c0-3-2.5-5.5-5.5-5.5s-5.5,2.5-5.5,5.5
			C55.7,147,58.2,149.5,61.2,149.5 M205.2,0H18v151.2h182.9c0,0,3.8-3.8,4.3-4.3c0,0,0,0,0,0v-32.4l7.2-7.2V14.4l-7.2-7.2V0L205.2,0
			z M57.6,11.7c-2.5,0-4.5-2-4.5-4.5c0-2.5,2-4.5,4.5-4.5s4.5,2,4.5,4.5C62.1,9.7,60.1,11.7,57.6,11.7L57.6,11.7z M205.2,26.1
			c-2.5,0-4.5-2-4.5-4.5s2-4.5,4.5-4.5c2.5,0,4.5,2,4.5,4.5S207.7,26.1,205.2,26.1L205.2,26.1z M205.2,105.3c-2.5,0-4.5-2-4.5-4.5
			s2-4.5,4.5-4.5c2.5,0,4.5,2,4.5,4.5S207.7,105.3,205.2,105.3L205.2,105.3z M61.2,148.5c-2.5,0-4.5-2-4.5-4.5c0-2.5,2-4.5,4.5-4.5
			c2.5,0,4.5,2,4.5,4.5C65.7,146.5,63.7,148.5,61.2,148.5L61.2,148.5z"/>
	</g>
</g>
<g>
	<g>
		<path fill="#CEC7BD" d="M207.4,71.9c0,1.2-1,2.2-2.2,2.2c-1.2,0-2.2-1-2.2-2.2s1-2.2,2.2-2.2C206.4,69.7,207.4,70.7,207.4,71.9z"
			/>
		<ellipse fill="#918C84" cx="205.1" cy="71.9" rx="1.5" ry="1.5"/>
	</g>
	<g>
		<path fill="#CEC7BD" d="M207.4,79.1c0,1.2-1,2.2-2.2,2.2c-1.2,0-2.2-1-2.2-2.2c0-1.2,1-2.2,2.2-2.2
			C206.4,76.8,207.4,77.8,207.4,79.1z"/>
		<ellipse fill="#918C84" cx="205.1" cy="79.1" rx="1.5" ry="1.5"/>
	</g>
	<g>
		<path fill="#CEC7BD" d="M207.4,86.2c0,1.2-1,2.2-2.2,2.2c-1.2,0-2.2-1-2.2-2.2s1-2.2,2.2-2.2C206.4,84,207.4,85,207.4,86.2z"/>
		<ellipse fill="#918C84" cx="205.1" cy="86.2" rx="1.5" ry="1.5"/>
	</g>
	<g>
		<path fill="#CEC7BD" d="M200.2,71.9c0,1.2-1,2.2-2.2,2.2c-1.2,0-2.2-1-2.2-2.2s1-2.2,2.2-2.2C199.2,69.7,200.2,70.7,200.2,71.9z"
			/>
		<ellipse fill="#918C84" cx="198" cy="71.9" rx="1.5" ry="1.5"/>
	</g>
	<g>
		<path fill="#CEC7BD" d="M200.2,79.1c0,1.2-1,2.2-2.2,2.2c-1.2,0-2.2-1-2.2-2.2c0-1.2,1-2.2,2.2-2.2
			C199.2,76.8,200.2,77.8,200.2,79.1z"/>
		<ellipse fill="#918C84" cx="198" cy="79.1" rx="1.5" ry="1.5"/>
	</g>
	<g>
		<path fill="#CEC7BD" d="M200.2,86.2c0,1.2-1,2.2-2.2,2.2c-1.2,0-2.2-1-2.2-2.2s1-2.2,2.2-2.2C199.2,84,200.2,85,200.2,86.2z"/>
		<ellipse fill="#918C84" cx="198" cy="86.2" rx="1.5" ry="1.5"/>
	</g>
</g>
<g id="Питание_3_">
	<circle fill="#CEC7BD" cx="40.5" cy="10.9" r="5.1"/>
	<circle fill="#CEC7BD" cx="49.5" cy="23.6" r="5.1"/>
	<circle fill="#CEC7BD" cx="31.6" cy="23.6" r="5.1"/>
	<circle fill="#918C84" cx="31.6" cy="23.6" r="3.5"/>
	<circle fill="#918C84" cx="40.5" cy="10.9" r="3.5"/>
	<circle fill="#918C84" cx="49.5" cy="23.6" r="3.5"/>
</g>
<g>
	<g>
		<path fill="#CEC7BD" d="M198,9.4c-1.2,0-2.2-1-2.2-2.2s1-2.2,2.2-2.2s2.2,1,2.2,2.2S199.2,9.4,198,9.4z"/>
		<ellipse fill="#918C84" cx="198" cy="7.2" rx="1.5" ry="1.5"/>
	</g>
	<g>
		<path fill="#CEC7BD" d="M190.8,9.4c-1.2,0-2.2-1-2.2-2.2s1-2.2,2.2-2.2c1.2,0,2.2,1,2.2,2.2S192,9.4,190.8,9.4z"/>
		<ellipse fill="#918C84" cx="190.8" cy="7.2" rx="1.5" ry="1.5"/>
	</g>
	<g>
		<path fill="#CEC7BD" d="M183.6,9.4c-1.2,0-2.2-1-2.2-2.2s1-2.2,2.2-2.2s2.2,1,2.2,2.2S184.8,9.4,183.6,9.4z"/>
		<ellipse fill="#918C84" cx="183.6" cy="7.2" rx="1.5" ry="1.5"/>
	</g>
	<g>
		<path fill="#CEC7BD" d="M176.4,9.4c-1.2,0-2.2-1-2.2-2.2s1-2.2,2.2-2.2c1.2,0,2.2,1,2.2,2.2S177.6,9.4,176.4,9.4z"/>
		<ellipse fill="#918C84" cx="176.4" cy="7.2" rx="1.5" ry="1.5"/>
	</g>
	<g>
		<path fill="#CEC7BD" d="M169.2,9.4c-1.2,0-2.2-1-2.2-2.2s1-2.2,2.2-2.2c1.2,0,2.2,1,2.2,2.2S170.4,9.4,169.2,9.4z"/>
		<ellipse fill="#918C84" cx="169.2" cy="7.2" rx="1.5" ry="1.5"/>
	</g>
	<g>
		<path fill="#CEC7BD" d="M162,9.4c-1.2,0-2.2-1-2.2-2.2s1-2.2,2.2-2.2c1.2,0,2.2,1,2.2,2.2S163.2,9.4,162,9.4z"/>
		<ellipse fill="#918C84" cx="162" cy="7.2" rx="1.5" ry="1.5"/>
	</g>
</g>
<g>
	<g>
		<path fill="#CEC7BD" d="M147.6,9.4c-1.2,0-2.2-1-2.2-2.2s1-2.2,2.2-2.2c1.2,0,2.2,1,2.2,2.2S148.8,9.4,147.6,9.4z"/>
		<ellipse fill="#918C84" cx="147.6" cy="7.2" rx="1.5" ry="1.5"/>
	</g>
	<g>
		<path fill="#CEC7BD" d="M140.4,9.4c-1.2,0-2.2-1-2.2-2.2s1-2.2,2.2-2.2s2.2,1,2.2,2.2S141.6,9.4,140.4,9.4z"/>
		<ellipse fill="#918C84" cx="140.4" cy="7.2" rx="1.5" ry="1.5"/>
	</g>
	<g>
		<path fill="#CEC7BD" d="M133.2,9.4c-1.2,0-2.2-1-2.2-2.2s1-2.2,2.2-2.2c1.2,0,2.2,1,2.2,2.2S134.4,9.4,133.2,9.4z"/>
		<ellipse fill="#918C84" cx="133.2" cy="7.2" rx="1.5" ry="1.5"/>
	</g>
	<g>
		<path fill="#CEC7BD" d="M126,9.4c-1.2,0-2.2-1-2.2-2.2s1-2.2,2.2-2.2s2.2,1,2.2,2.2S127.2,9.4,126,9.4z"/>
		<ellipse fill="#918C84" cx="126" cy="7.2" rx="1.5" ry="1.5"/>
	</g>
	<g>
		<path fill="#CEC7BD" d="M118.8,9.4c-1.2,0-2.2-1-2.2-2.2s1-2.2,2.2-2.2c1.2,0,2.2,1,2.2,2.2S120,9.4,118.8,9.4z"/>
		<ellipse fill="#918C84" cx="118.8" cy="7.2" rx="1.5" ry="1.5"/>
	</g>
	<g>
		<path fill="#CEC7BD" d="M111.6,9.4c-1.2,0-2.2-1-2.2-2.2s1-2.2,2.2-2.2s2.2,1,2.2,2.2S112.8,9.4,111.6,9.4z"/>
		<ellipse fill="#918C84" cx="111.6" cy="7.2" rx="1.5" ry="1.5"/>
	</g>
	<g>
		<path fill="#CEC7BD" d="M104.4,9.4c-1.2,0-2.2-1-2.2-2.2s1-2.2,2.2-2.2s2.2,1,2.2,2.2S105.6,9.4,104.4,9.4z"/>
		<ellipse fill="#918C84" cx="104.4" cy="7.2" rx="1.5" ry="1.5"/>
	</g>
	<g>
		<path fill="#CEC7BD" d="M97.2,9.4c-1.2,0-2.2-1-2.2-2.2S96,5,97.2,5s2.2,1,2.2,2.2S98.4,9.4,97.2,9.4z"/>
		<ellipse fill="#918C84" cx="97.2" cy="7.2" rx="1.5" ry="1.5"/>
	</g>
</g>
<g>
	<g>
		<path fill="#CEC7BD" d="M198,146.2c-1.2,0-2.2-1-2.2-2.2c0-1.2,1-2.2,2.2-2.2c1.2,0,2.2,1,2.2,2.2
			C200.2,145.2,199.2,146.2,198,146.2z"/>
		<ellipse fill="#918C84" cx="198" cy="144" rx="1.5" ry="1.5"/>
	</g>
	<g>
		<path fill="#CEC7BD" d="M190.8,146.2c-1.2,0-2.2-1-2.2-2.2c0-1.2,1-2.2,2.2-2.2c1.2,0,2.2,1,2.2,2.2
			C193,145.2,192,146.2,190.8,146.2z"/>
		<ellipse fill="#918C84" cx="190.8" cy="144" rx="1.5" ry="1.5"/>
	</g>
	<g>
		<path fill="#CEC7BD" d="M183.6,146.2c-1.2,0-2.2-1-2.2-2.2c0-1.2,1-2.2,2.2-2.2c1.2,0,2.2,1,2.2,2.2
			C185.8,145.2,184.8,146.2,183.6,146.2z"/>
		<ellipse fill="#918C84" cx="183.6" cy="144" rx="1.5" ry="1.5"/>
	</g>
	<g>
		<path fill="#CEC7BD" d="M176.4,146.2c-1.2,0-2.2-1-2.2-2.2c0-1.2,1-2.2,2.2-2.2c1.2,0,2.2,1,2.2,2.2
			C178.6,145.2,177.6,146.2,176.4,146.2z"/>
		<ellipse fill="#918C84" cx="176.4" cy="144" rx="1.5" ry="1.5"/>
	</g>
	<g>
		<path fill="#CEC7BD" d="M169.2,146.2c-1.2,0-2.2-1-2.2-2.2c0-1.2,1-2.2,2.2-2.2s2.2,1,2.2,2.2
			C171.4,145.2,170.4,146.2,169.2,146.2z"/>
		<ellipse fill="#918C84" cx="169.2" cy="144" rx="1.5" ry="1.5"/>
	</g>
	<g>
		<path fill="#CEC7BD" d="M162,146.2c-1.2,0-2.2-1-2.2-2.2c0-1.2,1-2.2,2.2-2.2c1.2,0,2.2,1,2.2,2.2
			C164.2,145.2,163.2,146.2,162,146.2z"/>
		<ellipse fill="#918C84" cx="162" cy="144" rx="1.5" ry="1.5"/>
	</g>
	<g>
		<path fill="#CEC7BD" d="M154.8,146.2c-1.2,0-2.2-1-2.2-2.2c0-1.2,1-2.2,2.2-2.2c1.2,0,2.2,1,2.2,2.2
			C157,145.2,156,146.2,154.8,146.2z"/>
		<ellipse fill="#918C84" cx="154.8" cy="144" rx="1.5" ry="1.5"/>
	</g>
	<g>
		<path fill="#CEC7BD" d="M147.6,146.2c-1.2,0-2.2-1-2.2-2.2c0-1.2,1-2.2,2.2-2.2c1.2,0,2.2,1,2.2,2.2
			C149.8,145.2,148.8,146.2,147.6,146.2z"/>
		<ellipse fill="#918C84" cx="147.6" cy="144" rx="1.5" ry="1.5"/>
	</g>
</g>
<g>
	<g>
		<path fill="#CEC7BD" d="M136.1,146.2c-1.2,0-2.2-1-2.2-2.2c0-1.2,1-2.2,2.2-2.2c1.2,0,2.2,1,2.2,2.2
			C138.3,145.2,137.3,146.2,136.1,146.2z"/>
		<ellipse fill="#918C84" cx="136.1" cy="144" rx="1.5" ry="1.5"/>
	</g>
	<g>
		<path fill="#CEC7BD" d="M128.9,146.2c-1.2,0-2.2-1-2.2-2.2c0-1.2,1-2.2,2.2-2.2c1.2,0,2.2,1,2.2,2.2
			C131.1,145.2,130.1,146.2,128.9,146.2z"/>
		<ellipse fill="#918C84" cx="128.9" cy="144" rx="1.5" ry="1.5"/>
	</g>
	<g>
		<path fill="#CEC7BD" d="M121.7,146.2c-1.2,0-2.2-1-2.2-2.2c0-1.2,1-2.2,2.2-2.2s2.2,1,2.2,2.2
			C123.9,145.2,122.9,146.2,121.7,146.2z"/>
		<ellipse fill="#918C84" cx="121.7" cy="144" rx="1.5" ry="1.5"/>
	</g>
	<g>
		<path fill="#CEC7BD" d="M114.5,146.2c-1.2,0-2.2-1-2.2-2.2c0-1.2,1-2.2,2.2-2.2s2.2,1,2.2,2.2
			C116.7,145.2,115.7,146.2,114.5,146.2z"/>
		<ellipse fill="#918C84" cx="114.5" cy="144" rx="1.5" ry="1.5"/>
	</g>
	<g>
		<path fill="#CEC7BD" d="M107.3,146.2c-1.2,0-2.2-1-2.2-2.2c0-1.2,1-2.2,2.2-2.2s2.2,1,2.2,2.2
			C109.5,145.2,108.5,146.2,107.3,146.2z"/>
		<ellipse fill="#918C84" cx="107.3" cy="144" rx="1.5" ry="1.5"/>
	</g>
	<g>
		<path fill="#CEC7BD" d="M100.1,146.2c-1.2,0-2.2-1-2.2-2.2c0-1.2,1-2.2,2.2-2.2c1.2,0,2.2,1,2.2,2.2
			C102.3,145.2,101.3,146.2,100.1,146.2z"/>
		<ellipse fill="#918C84" cx="100.1" cy="144" rx="1.5" ry="1.5"/>
	</g>
	<g>
		<path fill="#CEC7BD" d="M92.9,146.2c-1.2,0-2.2-1-2.2-2.2c0-1.2,1-2.2,2.2-2.2s2.2,1,2.2,2.2C95.1,145.2,94.1,146.2,92.9,146.2z"
			/>
		<ellipse fill="#918C84" cx="92.9" cy="144" rx="1.5" ry="1.5"/>
	</g>
	<g>
		<path fill="#CEC7BD" d="M85.7,146.2c-1.2,0-2.2-1-2.2-2.2c0-1.2,1-2.2,2.2-2.2c1.2,0,2.2,1,2.2,2.2
			C87.9,145.2,86.9,146.2,85.7,146.2z"/>
		<ellipse fill="#918C84" cx="85.7" cy="144" rx="1.5" ry="1.5"/>
	</g>
	<g>
		<path fill="#CEC7BD" d="M78.5,146.2c-1.2,0-2.2-1-2.2-2.2c0-1.2,1-2.2,2.2-2.2s2.2,1,2.2,2.2C80.7,145.2,79.7,146.2,78.5,146.2z"
			/>
		<ellipse fill="#918C84" cx="78.5" cy="144" rx="1.5" ry="1.5"/>
	</g>
	<g>
		<path fill="#CEC7BD" d="M71.3,146.2c-1.2,0-2.2-1-2.2-2.2c0-1.2,1-2.2,2.2-2.2s2.2,1,2.2,2.2C73.5,145.2,72.5,146.2,71.3,146.2z"
			/>
		<ellipse fill="#918C84" cx="71.3" cy="144" rx="1.5" ry="1.5"/>
	</g>
</g>
<g id="USB-пайка_1_">
	<g id="USB_2_">
		<circle fill="#CEC7BD" cx="28.9" cy="125" r="5.1"/>
		<circle fill="#CEC7BD" cx="28.9" cy="91" r="5.1"/>
		<circle fill="#918C84" cx="28.9" cy="91" r="3.5"/>
		<circle fill="#918C84" cx="28.9" cy="125" r="3.5"/>
	</g>
	<g>
		<path fill="#CEC7BD" d="M35.7,113.4c-1.2,0-2.2-1-2.2-2.2s1-2.2,2.2-2.2c1.2,0,2.2,1,2.2,2.2S36.9,113.4,35.7,113.4z"/>
		<ellipse fill="#918C84" cx="35.7" cy="111.1" rx="1.5" ry="1.5"/>
	</g>
	<g>
		<path fill="#CEC7BD" d="M35.7,107.1c-1.2,0-2.2-1-2.2-2.2s1-2.2,2.2-2.2c1.2,0,2.2,1,2.2,2.2S36.9,107.1,35.7,107.1z"/>
		<ellipse fill="#918C84" cx="35.7" cy="104.8" rx="1.5" ry="1.5"/>
	</g>
	<g>
		<path fill="#CEC7BD" d="M42,113.4c-1.2,0-2.2-1-2.2-2.2s1-2.2,2.2-2.2c1.2,0,2.2,1,2.2,2.2S43.2,113.4,42,113.4z"/>
		<ellipse fill="#918C84" cx="42" cy="111.1" rx="1.5" ry="1.5"/>
	</g>
	<g>
		<path fill="#CEC7BD" d="M42,107.1c-1.2,0-2.2-1-2.2-2.2s1-2.2,2.2-2.2c1.2,0,2.2,1,2.2,2.2S43.2,107.1,42,107.1z"/>
		<ellipse fill="#918C84" cx="42" cy="104.8" rx="1.5" ry="1.5"/>
	</g>
</g>
<g id="Надписи_2_">
	<line fill="none" x1="142.6" y1="7.2" x2="131" y2="7.2"/>
	<rect x="90.7" y="147.1" fill="#FFFFFF" width="4.4" height="3.1"/>
	<g>
		<path fill="#FFFFFF" d="M28.2,40.1c-0.3,0-0.5-0.1-0.7-0.3c-0.2-0.2-0.2-0.4-0.2-0.7c0-0.3,0.1-0.6,0.4-0.8c0.2-0.2,0.6-0.3,1-0.3
			h0.3c0.3,0,0.5,0,0.7,0.1s0.4,0.2,0.5,0.4s0.2,0.4,0.2,0.6c0,0.3-0.1,0.5-0.3,0.7s-0.4,0.3-0.7,0.3v-0.4c0.2,0,0.4-0.1,0.5-0.2
			s0.2-0.3,0.2-0.5c0-0.2-0.1-0.4-0.3-0.6c-0.2-0.1-0.4-0.2-0.8-0.2h-0.3c-0.3,0-0.6,0.1-0.7,0.2c-0.2,0.1-0.3,0.3-0.3,0.5
			c0,0.2,0,0.4,0.1,0.5s0.3,0.2,0.5,0.2V40.1z"/>
		<path fill="#FFFFFF" d="M26.6,42.9v-0.4h0.7v-2h-0.7v-0.4l1,0v0.2c0.1,0.1,0.3,0.2,0.6,0.3c0.2,0.1,0.5,0.1,0.8,0.1l1.2,0.1v1.7
			h-2.5v0.4L26.6,42.9z M27.6,40.8v1.4h2.2v-1l-0.8,0c-0.3,0-0.6-0.1-0.8-0.1S27.8,40.9,27.6,40.8z"/>
		<path fill="#FFFFFF" d="M28.6,44.8v-1.2h-1V45h-0.3v-1.8h2.8v1.8h-0.3v-1.4H29v1.2H28.6z"/>
		<path fill="#FFFFFF" d="M30.2,47.4h-2.8V47h2.5v-1l-1.1-0.1c-0.4,0-0.7-0.1-0.9-0.1c-0.2-0.1-0.3-0.1-0.4-0.3
			c-0.1-0.1-0.1-0.3-0.1-0.4V45h0.3l0,0.1c0,0.1,0,0.2,0.1,0.3s0.2,0.1,0.3,0.1c0.2,0,0.4,0.1,0.7,0.1l1.4,0.1V47.4z"/>
		<path fill="#FFFFFF" d="M28.1,49.4v-1.2L27.3,48v-0.4l2.8,1.1V49l-2.8,1.1v-0.4L28.1,49.4z M28.4,48.4v1l1.3-0.5L28.4,48.4z"/>
		<path fill="#FFFFFF" d="M27.3,52.4v-0.4h1.3v-1.4h-1.3v-0.4h2.8v0.4H29v1.4h1.2v0.4H27.3z"/>
		<path fill="#FFFFFF" d="M28.7,55.1c-0.3,0-0.5,0-0.7-0.1c-0.2-0.1-0.4-0.2-0.5-0.4s-0.2-0.4-0.2-0.6c0-0.2,0.1-0.4,0.2-0.6
			c0.1-0.2,0.3-0.3,0.5-0.4c0.2-0.1,0.4-0.1,0.7-0.1h0.2c0.3,0,0.5,0,0.7,0.1s0.4,0.2,0.5,0.4s0.2,0.4,0.2,0.6
			c0,0.2-0.1,0.4-0.2,0.6s-0.3,0.3-0.5,0.4c-0.2,0.1-0.5,0.1-0.7,0.1H28.7z M28.8,54.7c0.3,0,0.6-0.1,0.8-0.2s0.3-0.3,0.3-0.6
			c0-0.2-0.1-0.4-0.3-0.6s-0.4-0.2-0.8-0.2h-0.2c-0.3,0-0.6,0.1-0.8,0.2s-0.3,0.3-0.3,0.6c0,0.2,0.1,0.4,0.3,0.6
			c0.2,0.1,0.4,0.2,0.8,0.2H28.8z"/>
		<path fill="#FFFFFF" d="M27.3,56.2h2.8v0.9c0,0.3-0.1,0.5-0.2,0.7S29.7,58,29.4,58c-0.1,0-0.3,0-0.4-0.1c-0.1-0.1-0.2-0.2-0.2-0.3
			c0,0.2-0.1,0.3-0.2,0.4s-0.3,0.1-0.4,0.1c-0.3,0-0.5-0.1-0.6-0.2s-0.2-0.4-0.2-0.7V56.2z M28.7,56.6h-1v0.6c0,0.2,0,0.3,0.1,0.4
			s0.2,0.1,0.4,0.1c0.3,0,0.5-0.2,0.5-0.6V56.6z M29,56.6v0.6c0,0.2,0,0.3,0.1,0.4c0.1,0.1,0.2,0.1,0.3,0.1c0.2,0,0.3,0,0.3-0.1
			c0.1-0.1,0.1-0.2,0.1-0.4v-0.5H29z"/>
		<path fill="#FFFFFF" d="M28.4,59.6h-1.1v-0.4h2.8v1c0,0.3-0.1,0.6-0.2,0.7s-0.4,0.3-0.6,0.3c-0.3,0-0.5-0.1-0.6-0.3
			s-0.2-0.4-0.2-0.7V59.6z M28.8,59.6v0.7c0,0.2,0,0.4,0.1,0.5c0.1,0.1,0.2,0.2,0.4,0.2c0.2,0,0.3-0.1,0.4-0.2
			c0.1-0.1,0.2-0.3,0.2-0.4v-0.7H28.8z"/>
		<path fill="#FFFFFF" d="M28.7,63.7c-0.3,0-0.5,0-0.7-0.1c-0.2-0.1-0.4-0.2-0.5-0.4s-0.2-0.4-0.2-0.6c0-0.2,0.1-0.4,0.2-0.6
			c0.1-0.2,0.3-0.3,0.5-0.4c0.2-0.1,0.4-0.1,0.7-0.1h0.2c0.3,0,0.5,0,0.7,0.1s0.4,0.2,0.5,0.4s0.2,0.4,0.2,0.6
			c0,0.2-0.1,0.4-0.2,0.6s-0.3,0.3-0.5,0.4c-0.2,0.1-0.5,0.1-0.7,0.1H28.7z M28.8,63.4c0.3,0,0.6-0.1,0.8-0.2s0.3-0.3,0.3-0.6
			c0-0.2-0.1-0.4-0.3-0.6s-0.4-0.2-0.8-0.2h-0.2c-0.3,0-0.6,0.1-0.8,0.2s-0.3,0.3-0.3,0.6c0,0.2,0.1,0.4,0.3,0.6
			c0.2,0.1,0.4,0.2,0.8,0.2H28.8z"/>
		<path fill="#FFFFFF" d="M28.2,66.2c-0.3,0-0.5-0.1-0.7-0.3c-0.2-0.2-0.2-0.4-0.2-0.7c0-0.3,0.1-0.6,0.4-0.8c0.2-0.2,0.6-0.3,1-0.3
			h0.3c0.3,0,0.5,0,0.7,0.1c0.2,0.1,0.4,0.2,0.5,0.4c0.1,0.2,0.2,0.4,0.2,0.6c0,0.3-0.1,0.5-0.3,0.7s-0.4,0.3-0.7,0.3v-0.4
			c0.2,0,0.4-0.1,0.5-0.2s0.2-0.3,0.2-0.5c0-0.2-0.1-0.4-0.3-0.6c-0.2-0.1-0.4-0.2-0.8-0.2h-0.3c-0.3,0-0.6,0.1-0.7,0.2
			c-0.2,0.1-0.3,0.3-0.3,0.5c0,0.2,0,0.4,0.1,0.5s0.3,0.2,0.5,0.2V66.2z"/>
		<path fill="#FFFFFF" d="M28.2,68.5c-0.3,0-0.5-0.1-0.7-0.3c-0.2-0.2-0.2-0.4-0.2-0.7c0-0.3,0.1-0.6,0.4-0.8c0.2-0.2,0.6-0.3,1-0.3
			h0.3c0.3,0,0.5,0,0.7,0.1c0.2,0.1,0.4,0.2,0.5,0.4c0.1,0.2,0.2,0.4,0.2,0.6c0,0.3-0.1,0.5-0.3,0.7s-0.4,0.3-0.7,0.3v-0.4
			c0.2,0,0.4-0.1,0.5-0.2s0.2-0.3,0.2-0.5c0-0.2-0.1-0.4-0.3-0.6c-0.2-0.1-0.4-0.2-0.8-0.2h-0.3c-0.3,0-0.6,0.1-0.7,0.2
			c-0.2,0.1-0.3,0.3-0.3,0.5c0,0.2,0,0.4,0.1,0.5s0.3,0.2,0.5,0.2V68.5z"/>
		<path fill="#FFFFFF" d="M30.2,70.6V71h-2.8v-0.4h2.2l-2.2-1.4v-0.4h2.8v0.4H28L30.2,70.6z"/>
		<path fill="#FFFFFF" d="M30.2,73.3v0.4h-2.8v-0.4h2.2l-2.2-1.4v-0.4h2.8v0.4H28L30.2,73.3z"/>
	</g>
	<g>
		<path fill="#FFFFFF" d="M85,133.6v-1.2l-0.7-0.3v-0.4l2.8,1.1v0.3l-2.8,1.1v-0.4L85,133.6z M85.4,132.5v1l1.3-0.5L85.4,132.5z"/>
		<path fill="#FFFFFF" d="M85.5,135.7V135h-1.2v-0.4h2.8v0.9c0,0.3-0.1,0.6-0.2,0.7c-0.1,0.2-0.4,0.3-0.6,0.3c-0.2,0-0.3,0-0.5-0.1
			c-0.1-0.1-0.2-0.2-0.3-0.4l-1.2,0.7h0v-0.4L85.5,135.7z M85.8,135v0.6c0,0.2,0,0.3,0.1,0.4c0.1,0.1,0.2,0.2,0.4,0.2
			c0.2,0,0.3-0.1,0.4-0.2c0.1-0.1,0.1-0.3,0.1-0.5V135H85.8z"/>
		<path fill="#FFFFFF" d="M85.6,138.7v-1.2h-1v1.4h-0.3v-1.8h2.8v1.8h-0.3v-1.4h-0.9v1.2H85.6z"/>
		<path fill="#FFFFFF" d="M85.6,140.9v-1.2h-1.3v-0.4h2.8v1.7h-0.3v-1.4h-1v1.2H85.6z"/>
	</g>
	<g>
		<path fill="#FFFFFF" d="M77.7,138.3v-1.2l-0.7-0.3v-0.4l2.8,1.1v0.3L77,139v-0.4L77.7,138.3z M78,137.3v1l1.3-0.5L78,137.3z"/>
		<path fill="#FFFFFF" d="M77.9,140.8v0.4h-0.3v-0.4H77v-0.4h0.7v-1.3h0.2l2,1.3v0.4H77.9z M77.9,139.6v0.9h1.4l-0.1,0L77.9,139.6z"
			/>
	</g>
	<g>
		<path fill="#FFFFFF" d="M70.6,138.3v-1.2l-0.7-0.3v-0.4l2.8,1.1v0.3l-2.8,1.1v-0.4L70.6,138.3z M70.9,137.3v1l1.3-0.5L70.9,137.3z
			"/>
		<path fill="#FFFFFF" d="M71.3,139.5l1.4,0.1v1.4h-0.3v-1.1l-0.8-0.1c0.1,0.1,0.1,0.3,0.1,0.5c0,0.3-0.1,0.5-0.3,0.6
			c-0.2,0.2-0.4,0.2-0.7,0.2c-0.3,0-0.5-0.1-0.7-0.2s-0.3-0.4-0.3-0.7c0-0.3,0.1-0.5,0.2-0.6s0.3-0.2,0.6-0.3v0.3
			c-0.2,0-0.3,0.1-0.4,0.2s-0.1,0.2-0.1,0.4c0,0.2,0.1,0.3,0.2,0.4s0.3,0.1,0.5,0.1c0.2,0,0.3-0.1,0.5-0.2c0.1-0.1,0.2-0.2,0.2-0.4
			c0-0.2,0-0.3-0.1-0.4l-0.1-0.1L71.3,139.5z"/>
	</g>
	<rect x="90.7" y="133.3" fill="#FFFFFF" width="4.4" height="7.8"/>
	<g>
		<g>
			<path fill="#FFFFFF" d="M197.8,21.6c0.1-0.3,0.2-0.6,0.3-0.7s0.3-0.2,0.5-0.2c0.2,0,0.4,0.1,0.6,0.3c0.1,0.2,0.2,0.4,0.2,0.7
				c0,0.2,0,0.4-0.1,0.5s-0.2,0.3-0.3,0.4s-0.3,0.1-0.4,0.1v-0.4c0.2,0,0.3-0.1,0.4-0.2c0.1-0.1,0.1-0.3,0.1-0.5
				c0-0.2,0-0.3-0.1-0.4c-0.1-0.1-0.2-0.2-0.3-0.2c-0.1,0-0.2,0-0.3,0.1s-0.2,0.3-0.2,0.5c-0.1,0.2-0.1,0.4-0.2,0.5
				c-0.1,0.1-0.2,0.2-0.3,0.3c-0.1,0.1-0.2,0.1-0.4,0.1c-0.2,0-0.4-0.1-0.6-0.3s-0.2-0.4-0.2-0.7c0-0.2,0-0.4,0.1-0.5
				s0.2-0.3,0.3-0.4c0.1-0.1,0.3-0.1,0.4-0.1v0.4c-0.2,0-0.3,0.1-0.4,0.2s-0.1,0.3-0.1,0.5c0,0.2,0,0.3,0.1,0.5s0.2,0.2,0.3,0.2
				s0.2,0,0.3-0.1S197.7,21.8,197.8,21.6z"/>
			<path fill="#FFFFFF" d="M197.4,25.2c-0.3,0-0.5-0.1-0.7-0.3c-0.2-0.2-0.2-0.4-0.2-0.7c0-0.3,0.1-0.6,0.4-0.8
				c0.2-0.2,0.6-0.3,1-0.3h0.3c0.3,0,0.5,0,0.7,0.1s0.4,0.2,0.5,0.4s0.2,0.4,0.2,0.6c0,0.3-0.1,0.5-0.3,0.7s-0.4,0.3-0.7,0.3v-0.4
				c0.2,0,0.4-0.1,0.5-0.2c0.1-0.1,0.2-0.3,0.2-0.5c0-0.2-0.1-0.4-0.3-0.6c-0.2-0.1-0.4-0.2-0.8-0.2h-0.3c-0.3,0-0.6,0.1-0.7,0.2
				s-0.3,0.3-0.3,0.5c0,0.2,0,0.4,0.1,0.5s0.3,0.2,0.5,0.2V25.2z"/>
			<path fill="#FFFFFF" d="M196.8,26v1.3h-0.3v-1.7h2.8V26H196.8z"/>
		</g>
		<g>
			<path fill="#FFFFFF" d="M190.6,21.6c0.1-0.3,0.2-0.6,0.3-0.7s0.3-0.2,0.5-0.2c0.2,0,0.4,0.1,0.6,0.3c0.1,0.2,0.2,0.4,0.2,0.7
				c0,0.2,0,0.4-0.1,0.5s-0.2,0.3-0.3,0.4s-0.3,0.1-0.4,0.1v-0.4c0.2,0,0.3-0.1,0.4-0.2c0.1-0.1,0.1-0.3,0.1-0.5
				c0-0.2,0-0.3-0.1-0.4c-0.1-0.1-0.2-0.2-0.3-0.2c-0.1,0-0.2,0-0.3,0.1s-0.2,0.3-0.2,0.5c-0.1,0.2-0.1,0.4-0.2,0.5
				c-0.1,0.1-0.2,0.2-0.3,0.3c-0.1,0.1-0.2,0.1-0.4,0.1c-0.2,0-0.4-0.1-0.6-0.3s-0.2-0.4-0.2-0.7c0-0.2,0-0.4,0.1-0.5
				s0.2-0.3,0.3-0.4c0.1-0.1,0.3-0.1,0.4-0.1v0.4c-0.2,0-0.3,0.1-0.4,0.2s-0.1,0.3-0.1,0.5c0,0.2,0,0.3,0.1,0.5s0.2,0.2,0.3,0.2
				s0.2,0,0.3-0.1S190.5,21.8,190.6,21.6z"/>
			<path fill="#FFFFFF" d="M189.3,23.1h2.8v0.8c0,0.2-0.1,0.5-0.2,0.7s-0.3,0.3-0.5,0.4s-0.4,0.2-0.7,0.2h-0.2
				c-0.3,0-0.5-0.1-0.7-0.2s-0.4-0.2-0.5-0.4s-0.2-0.4-0.2-0.7V23.1z M191.9,23.4h-2.2v0.4c0,0.3,0.1,0.5,0.3,0.7
				c0.2,0.2,0.4,0.2,0.8,0.2h0.2c0.3,0,0.6-0.1,0.8-0.2c0.2-0.2,0.3-0.4,0.3-0.6V23.4z"/>
			<path fill="#FFFFFF" d="M190.1,27.2V26l-0.7-0.3v-0.4l2.8,1.1v0.3l-2.8,1.1v-0.4L190.1,27.2z M190.4,26.1v1l1.3-0.5L190.4,26.1z"
				/>
		</g>
		<g>
			<path fill="#FFFFFF" d="M197.3,12.7v-1.2l-0.7-0.3v-0.4l2.8,1.1v0.3l-2.8,1.1V13L197.3,12.7z M197.6,11.6v1l1.3-0.5L197.6,11.6z"
				/>
			<path fill="#FFFFFF" d="M197.9,13.8l1.4,0.1v1.4H199v-1.1l-0.8-0.1c0.1,0.1,0.1,0.3,0.1,0.5c0,0.3-0.1,0.5-0.3,0.6
				c-0.2,0.2-0.4,0.2-0.7,0.2c-0.3,0-0.5-0.1-0.7-0.2s-0.3-0.4-0.3-0.7c0-0.2,0.1-0.5,0.2-0.6s0.3-0.2,0.6-0.3V14
				c-0.2,0-0.3,0.1-0.4,0.2s-0.1,0.2-0.1,0.4c0,0.2,0.1,0.3,0.2,0.4c0.1,0.1,0.3,0.1,0.5,0.1c0.2,0,0.3-0.1,0.5-0.2
				c0.1-0.1,0.2-0.2,0.2-0.4c0-0.2,0-0.3-0.1-0.4l-0.1-0.1L197.9,13.8z"/>
		</g>
		<g>
			<path fill="#FFFFFF" d="M190.1,12.7v-1.2l-0.7-0.3v-0.4l2.8,1.1v0.3l-2.8,1.1V13L190.1,12.7z M190.4,11.6v1l1.3-0.5L190.4,11.6z"
				/>
			<path fill="#FFFFFF" d="M190.3,15.1v0.4H190v-0.4h-0.7v-0.4h0.7v-1.3h0.2l2,1.3v0.4H190.3z M190.3,13.9v0.9h1.4l-0.1,0
				L190.3,13.9z"/>
		</g>
		<g>
			
				<rect x="193.9" y="31.6" fill="#FFFFFF" stroke="#FFFFFF" stroke-width="0.3182" stroke-miterlimit="10" width="7" height="4.2"/>
			<g>
				<rect x="193.7" y="32.1" fill="none" width="7.2" height="3.5"/>
				<path d="M200.1,32.1h0.4v3.2h-0.4V32.1z"/>
				<path d="M197.2,32.1h2.1v0.3l-1.1,1.2c-0.2,0.2-0.3,0.3-0.3,0.5c-0.1,0.1-0.1,0.2-0.1,0.4c0,0.2,0.1,0.3,0.2,0.4
					c0.1,0.1,0.2,0.2,0.4,0.2c0.2,0,0.4-0.1,0.5-0.2c0.1-0.1,0.2-0.3,0.2-0.5h0.4c0,0.3-0.1,0.5-0.3,0.7s-0.4,0.3-0.8,0.3
					c-0.3,0-0.5-0.1-0.7-0.2c-0.2-0.2-0.3-0.4-0.3-0.6c0-0.3,0.2-0.7,0.6-1.1l0.9-0.9h-1.6V32.1z"/>
				<path d="M194.1,33.2c0-0.3,0.2-0.6,0.4-0.8c0.2-0.2,0.5-0.3,0.8-0.3c0.4,0,0.7,0.1,0.9,0.4c0.2,0.3,0.3,0.6,0.3,1.1v0.3
					c0,0.3-0.1,0.6-0.2,0.8c-0.1,0.2-0.3,0.4-0.5,0.5c-0.2,0.1-0.4,0.2-0.7,0.2c-0.3,0-0.6-0.1-0.8-0.3c-0.2-0.2-0.3-0.5-0.4-0.8
					h0.4c0,0.3,0.1,0.4,0.2,0.6c0.1,0.1,0.3,0.2,0.5,0.2c0.3,0,0.5-0.1,0.6-0.3s0.2-0.5,0.2-0.9v-0.3c0-0.4-0.1-0.6-0.2-0.8
					c-0.1-0.2-0.4-0.3-0.6-0.3c-0.2,0-0.4,0.1-0.5,0.2c-0.1,0.1-0.2,0.3-0.3,0.6H194.1z"/>
			</g>
		</g>
		<polyline fill="none" stroke="#FFFFFF" stroke-width="0.25" stroke-miterlimit="10" points="201,29.5 201,31 188.2,31 188.2,29.5 
					"/>
	</g>
	<g>
		<rect x="131.6" y="11.2" fill="#FFFFFF" stroke="#FFFFFF" stroke-width="0.75" stroke-miterlimit="10" width="10" height="4.4"/>
		<rect x="131.6" y="1.4" fill="#FFFFFF" stroke="#FFFFFF" stroke-width="0.75" stroke-miterlimit="10" width="10" height="1.7"/>
		<g>
			<rect x="131.9" y="11.3" fill="none" width="9.7" height="3.8"/>
			<path d="M139.2,12.5c0.1-0.1,0.2-0.2,0.4-0.3s0.4-0.1,0.6-0.1c0.2,0,0.4,0.1,0.6,0.2s0.3,0.3,0.4,0.5s0.1,0.4,0.2,0.7v0.2
				c0,0.4-0.1,0.8-0.3,1s-0.5,0.4-0.8,0.4c-0.3,0-0.5-0.1-0.7-0.2s-0.3-0.4-0.3-0.6h0.4c0.1,0.4,0.3,0.6,0.7,0.6
				c0.3,0,0.4-0.1,0.6-0.3s0.2-0.4,0.2-0.8v-0.2c0-0.3-0.1-0.6-0.2-0.8s-0.3-0.3-0.6-0.3c-0.1,0-0.3,0-0.4,0s-0.2,0.1-0.3,0.2v0.6
				h0.7v0.3h-1V12.5z"/>
			<path d="M136,12.1h0.4l1.4,2.2v-2.2h0.4v2.8h-0.4l-1.4-2.2v2.2H136V12.1z"/>
			<path d="M134.9,12.1v2.8h-0.8c-0.2,0-0.5-0.1-0.7-0.2s-0.3-0.3-0.4-0.5s-0.2-0.4-0.2-0.7v-0.2c0-0.3,0.1-0.5,0.2-0.7
				s0.3-0.4,0.4-0.5s0.4-0.2,0.7-0.2H134.9z M134.5,14.6v-2.2h-0.4c-0.3,0-0.5,0.1-0.7,0.3s-0.2,0.4-0.2,0.8v0.2
				c0,0.3,0.1,0.6,0.2,0.8c0.2,0.2,0.4,0.3,0.6,0.3H134.5z"/>
		</g>
		<g>
			<path fill="#FFFFFF" d="M126.2,12.1v0.8h-0.3v-0.8h-0.9v-0.4h0.9v-0.8h0.3v0.8h0.8v0.4H126.2z"/>
			<path fill="#FFFFFF" d="M126.1,13.3l1.4,0.1v1.4h-0.3v-1.1l-0.8-0.1c0.1,0.1,0.1,0.3,0.1,0.5c0,0.3-0.1,0.5-0.3,0.6
				c-0.2,0.2-0.4,0.2-0.7,0.2c-0.3,0-0.5-0.1-0.7-0.2c-0.2-0.2-0.3-0.4-0.3-0.7c0-0.3,0.1-0.5,0.2-0.6s0.3-0.2,0.6-0.3v0.3
				c-0.2,0-0.3,0.1-0.4,0.2s-0.1,0.2-0.1,0.4c0,0.2,0.1,0.3,0.2,0.4s0.3,0.1,0.5,0.1c0.2,0,0.3-0.1,0.5-0.2s0.2-0.2,0.2-0.4
				c0-0.2,0-0.3-0.1-0.4l-0.1-0.1L126.1,13.3z"/>
			<path fill="#FFFFFF" d="M125.1,16.3l2.3,0.8v0.4l-2.8-1v-0.3l2.8-1v0.4L125.1,16.3z"/>
		</g>
		<g>
			<path fill="#FFFFFF" d="M103,11.5v-0.4h2.8v0.4H103z"/>
			<path fill="#FFFFFF" d="M104.3,14.5c-0.3,0-0.5,0-0.7-0.1s-0.4-0.2-0.5-0.4c-0.1-0.2-0.2-0.4-0.2-0.6c0-0.2,0.1-0.4,0.2-0.6
				s0.3-0.3,0.5-0.4s0.4-0.1,0.7-0.1h0.2c0.3,0,0.5,0,0.7,0.1c0.2,0.1,0.4,0.2,0.5,0.4c0.1,0.2,0.2,0.4,0.2,0.6
				c0,0.2-0.1,0.4-0.2,0.6c-0.1,0.2-0.3,0.3-0.5,0.4s-0.5,0.1-0.7,0.1H104.3z M104.5,14.2c0.3,0,0.6-0.1,0.8-0.2
				c0.2-0.1,0.3-0.3,0.3-0.6c0-0.2-0.1-0.4-0.3-0.6s-0.4-0.2-0.8-0.2h-0.2c-0.3,0-0.6,0.1-0.8,0.2c-0.2,0.1-0.3,0.3-0.3,0.6
				c0,0.2,0.1,0.4,0.3,0.6s0.4,0.2,0.8,0.2H104.5z"/>
			<path fill="#FFFFFF" d="M104.1,16.3v-0.7H103v-0.4h2.8v0.9c0,0.3-0.1,0.6-0.2,0.7c-0.1,0.2-0.4,0.3-0.6,0.3c-0.2,0-0.3,0-0.5-0.1
				s-0.2-0.2-0.3-0.4l-1.2,0.7h0v-0.4L104.1,16.3z M104.5,15.7v0.6c0,0.2,0,0.3,0.1,0.4c0.1,0.1,0.2,0.2,0.4,0.2
				c0.2,0,0.3-0.1,0.4-0.2c0.1-0.1,0.1-0.3,0.1-0.5v-0.6H104.5z"/>
			<path fill="#FFFFFF" d="M104.3,19.5v-1.2h-1v1.4H103v-1.8h2.8v1.8h-0.3v-1.4h-0.9v1.2H104.3z"/>
			<path fill="#FFFFFF" d="M104.3,21.9v-1.2H103v-0.4h2.8v1.7h-0.3v-1.4h-1v1.2H104.3z"/>
		</g>
		<g>
			<path fill="#FFFFFF" d="M111.4,12.1v-0.7h-1.2v-0.4h2.8V12c0,0.3-0.1,0.6-0.2,0.7c-0.1,0.2-0.4,0.3-0.6,0.3c-0.2,0-0.3,0-0.5-0.1
				c-0.1-0.1-0.2-0.2-0.3-0.4l-1.2,0.7h0v-0.4L111.4,12.1z M111.7,11.5V12c0,0.2,0,0.3,0.1,0.4c0.1,0.1,0.2,0.2,0.4,0.2
				c0.2,0,0.3-0.1,0.4-0.2c0.1-0.1,0.1-0.3,0.1-0.5v-0.6H111.7z"/>
			<path fill="#FFFFFF" d="M111.6,15.3v-1.2h-1v1.4h-0.3v-1.8h2.8v1.8h-0.3v-1.4h-0.9v1.2H111.6z"/>
			<path fill="#FFFFFF" d="M111.5,17c0.1-0.3,0.2-0.6,0.3-0.7c0.1-0.1,0.3-0.2,0.5-0.2c0.2,0,0.4,0.1,0.6,0.3s0.2,0.4,0.2,0.7
				c0,0.2,0,0.4-0.1,0.5c-0.1,0.2-0.2,0.3-0.3,0.4c-0.1,0.1-0.3,0.1-0.4,0.1v-0.4c0.2,0,0.3-0.1,0.4-0.2c0.1-0.1,0.1-0.3,0.1-0.5
				c0-0.2,0-0.3-0.1-0.4c-0.1-0.1-0.2-0.2-0.3-0.2c-0.1,0-0.2,0-0.3,0.1c-0.1,0.1-0.2,0.3-0.2,0.5s-0.1,0.4-0.2,0.5
				s-0.2,0.2-0.3,0.3s-0.2,0.1-0.4,0.1c-0.2,0-0.4-0.1-0.6-0.3s-0.2-0.4-0.2-0.7c0-0.2,0-0.4,0.1-0.5s0.2-0.3,0.3-0.4
				c0.1-0.1,0.3-0.1,0.4-0.1v0.4c-0.2,0-0.3,0.1-0.4,0.2c-0.1,0.1-0.1,0.3-0.1,0.5c0,0.2,0,0.3,0.1,0.5c0.1,0.1,0.2,0.2,0.3,0.2
				s0.2,0,0.3-0.1C111.4,17.4,111.5,17.3,111.5,17z"/>
			<path fill="#FFFFFF" d="M111.6,20.3v-1.2h-1v1.4h-0.3v-1.8h2.8v1.8h-0.3v-1.4h-0.9v1.2H111.6z"/>
			<path fill="#FFFFFF" d="M112.8,23.2v-0.9h-2.5v-0.4h2.5V21h0.3v2.2H112.8z"/>
		</g>
		<g>
			<path fill="#FFFFFF" d="M119,12.1v0.8h-0.3v-0.8h-0.9v-0.4h0.9v-0.8h0.3v0.8h0.8v0.4H119z"/>
			<path fill="#FFFFFF" d="M119,14v0.3c0,0.2,0,0.3,0.1,0.4s0.2,0.1,0.4,0.1c0.3,0,0.5-0.2,0.5-0.5c0-0.2,0-0.3-0.1-0.4
				c-0.1-0.1-0.2-0.1-0.4-0.1v-0.4c0.2,0,0.4,0.1,0.6,0.2s0.2,0.4,0.2,0.6c0,0.3-0.1,0.5-0.2,0.6s-0.3,0.2-0.6,0.2
				c-0.1,0-0.2,0-0.4-0.1c-0.1-0.1-0.2-0.2-0.3-0.3c0,0.2-0.1,0.3-0.2,0.4c-0.1,0.1-0.3,0.1-0.4,0.1c-0.3,0-0.5-0.1-0.6-0.2
				c-0.2-0.2-0.2-0.4-0.2-0.6c0-0.3,0.1-0.5,0.2-0.6s0.3-0.2,0.6-0.2v0.4c-0.2,0-0.3,0-0.4,0.1s-0.1,0.2-0.1,0.4
				c0,0.2,0,0.3,0.1,0.4s0.2,0.1,0.4,0.1c0.2,0,0.3-0.1,0.4-0.2c0.1-0.1,0.1-0.2,0.1-0.4V14H119z"/>
			<path fill="#FFFFFF" d="M117.9,16.9l2.3,0.8v0.4l-2.8-1v-0.3l2.8-1v0.4L117.9,16.9z"/>
			<path fill="#FFFFFF" d="M119,19.1v0.3c0,0.2,0,0.3,0.1,0.4s0.2,0.1,0.4,0.1c0.3,0,0.5-0.2,0.5-0.5c0-0.2,0-0.3-0.1-0.4
				s-0.2-0.1-0.4-0.1v-0.4c0.2,0,0.4,0.1,0.6,0.2s0.2,0.4,0.2,0.6c0,0.3-0.1,0.5-0.2,0.6s-0.3,0.2-0.6,0.2c-0.1,0-0.2,0-0.4-0.1
				c-0.1-0.1-0.2-0.2-0.3-0.3c0,0.2-0.1,0.3-0.2,0.4c-0.1,0.1-0.3,0.1-0.4,0.1c-0.3,0-0.5-0.1-0.6-0.2c-0.2-0.2-0.2-0.4-0.2-0.6
				s0.1-0.5,0.2-0.6c0.1-0.2,0.3-0.2,0.6-0.2v0.4c-0.2,0-0.3,0-0.4,0.1s-0.1,0.2-0.1,0.4c0,0.2,0,0.3,0.1,0.4s0.2,0.1,0.4,0.1
				c0.2,0,0.3-0.1,0.4-0.2c0.1-0.1,0.1-0.2,0.1-0.4v-0.3H119z"/>
		</g>
		<g>
			<path fill="#FFFFFF" d="M147.7,12.1v0.8h-0.3v-0.8h-0.9v-0.4h0.9v-0.8h0.3v0.8h0.8v0.4H147.7z"/>
			<path fill="#FFFFFF" d="M146.7,14l2.3,0.8v0.4l-2.8-1v-0.3l2.8-1v0.4L146.7,14z"/>
			<path fill="#FFFFFF" d="M146.2,15.7v-0.4h2.8v0.4H146.2z"/>
			<path fill="#FFFFFF" d="M146.2,18.2v-0.4l2.2-1.4h-2.2v-0.4h2.8v0.4l-2.2,1.4h2.2v0.4H146.2z"/>
		</g>
		<g>
			
				<rect x="134.1" y="31.9" fill="#FFFFFF" stroke="#FFFFFF" stroke-width="0.483" stroke-miterlimit="10" width="16.2" height="4.2"/>
			<g>
				<rect x="134.1" y="32.4" fill="none" width="16.2" height="3.5"/>
				<path d="M149.5,33.7v-1.3h0.4v3.2h-1.2c-0.4,0-0.6-0.1-0.8-0.3s-0.3-0.4-0.3-0.7c0-0.3,0.1-0.6,0.3-0.7c0.2-0.2,0.5-0.3,0.8-0.3
					H149.5z M149.5,34.1h-0.8c-0.2,0-0.4,0.1-0.5,0.2s-0.2,0.3-0.2,0.5c0,0.2,0.1,0.3,0.2,0.5c0.1,0.1,0.3,0.2,0.5,0.2h0.8V34.1z"/>
				<path d="M144.4,33.9c0-0.3,0.1-0.6,0.2-0.8c0.1-0.2,0.3-0.4,0.5-0.5c0.2-0.1,0.4-0.2,0.7-0.2c0.3,0,0.5,0.1,0.7,0.2
					s0.3,0.3,0.5,0.5s0.2,0.5,0.2,0.8v0.2c0,0.3-0.1,0.6-0.2,0.8c-0.1,0.2-0.3,0.4-0.5,0.5c-0.2,0.1-0.4,0.2-0.7,0.2
					c-0.3,0-0.5-0.1-0.7-0.2c-0.2-0.1-0.4-0.3-0.5-0.5c-0.1-0.2-0.2-0.5-0.2-0.8V33.9z M144.8,34.2c0,0.4,0.1,0.7,0.2,0.9
					c0.2,0.2,0.4,0.3,0.6,0.3c0.3,0,0.5-0.1,0.6-0.3c0.2-0.2,0.2-0.5,0.2-0.9v-0.2c0-0.4-0.1-0.7-0.2-0.9c-0.2-0.2-0.4-0.3-0.6-0.3
					c-0.3,0-0.5,0.1-0.6,0.3c-0.2,0.2-0.2,0.5-0.2,0.9V34.2z"/>
				<path d="M142.9,33.5l-0.1-0.4l-0.1,0.4l-0.6,2.3h-0.4l-0.6-2.3L141,33l-0.1,0.4l-0.5,2.2H140l0.8-3.2h0.4l0.7,2.4l0.1,0.2
					l0.1-0.2l0.7-2.4h0.4l0.8,3.2h-0.4L142.9,33.5z"/>
				<path d="M137.5,33.9h1.4v-1.1h-1.6v-0.3h2.1v3.2h-2v-0.3h1.6v-1h-1.4V33.9z"/>
				<path d="M135.4,33.7h0.8v-1.3h0.4v3.2h-1.1c-0.4,0-0.6-0.1-0.8-0.2c-0.2-0.2-0.3-0.4-0.3-0.7c0-0.2,0.1-0.4,0.2-0.5
					c0.1-0.1,0.3-0.3,0.5-0.3l-0.8-1.4v0h0.5L135.4,33.7z M136.2,34.1h-0.7c-0.2,0-0.4,0.1-0.5,0.2c-0.1,0.1-0.2,0.3-0.2,0.4
					c0,0.2,0.1,0.4,0.2,0.5c0.1,0.1,0.3,0.2,0.5,0.2h0.7V34.1z"/>
			</g>
		</g>
		<polyline fill="none" stroke="#FFFFFF" stroke-width="0.3348" stroke-miterlimit="10" points="150.4,29.8 150.4,31.3 101.6,31.3 
			101.6,29.8 		"/>
	</g>
	<g>
		<g>
			<path fill="#FFFFFF" d="M168.5,12.7v-1.2l-0.7-0.3v-0.4l2.8,1.1v0.3l-2.8,1.1V13L168.5,12.7z M168.8,11.6v1l1.3-0.5L168.8,11.6z"
				/>
			<path fill="#FFFFFF" d="M167.8,14.8v-0.4h2.4l-0.3-0.7h0.3l0.4,1v0.1H167.8z"/>
		</g>
		<g>
			<path fill="#FFFFFF" d="M161.2,12.7v-1.2l-0.7-0.3v-0.4l2.8,1.1v0.3l-2.8,1.1V13L161.2,12.7z M161.5,11.6v1l1.3-0.5L161.5,11.6z"
				/>
			<path fill="#FFFFFF" d="M161.7,15.4c-0.4,0-0.7-0.1-0.9-0.2c-0.2-0.1-0.3-0.4-0.3-0.7c0-0.3,0.1-0.5,0.3-0.7s0.5-0.2,0.9-0.2h0.5
				c0.4,0,0.7,0.1,0.9,0.2s0.3,0.4,0.3,0.7c0,0.3-0.1,0.5-0.3,0.7c-0.2,0.1-0.5,0.2-0.9,0.2H161.7z M162.2,15c0.3,0,0.5,0,0.7-0.1
				c0.1-0.1,0.2-0.2,0.2-0.4c0-0.2-0.1-0.3-0.2-0.4s-0.4-0.1-0.6-0.1h-0.6c-0.3,0-0.5,0-0.7,0.1c-0.1,0.1-0.2,0.2-0.2,0.4
				c0,0.2,0.1,0.3,0.2,0.4c0.1,0.1,0.4,0.1,0.7,0.1H162.2z"/>
		</g>
		<g>
			<path fill="#FFFFFF" d="M182.9,12.7v-1.2l-0.7-0.3v-0.4l2.8,1.1v0.3l-2.8,1.1V13L182.9,12.7z M183.2,11.6v1l1.3-0.5L183.2,11.6z"
				/>
			<path fill="#FFFFFF" d="M183.8,14.1v0.3c0,0.2,0,0.3,0.1,0.4s0.2,0.1,0.4,0.1c0.3,0,0.5-0.2,0.5-0.5c0-0.2,0-0.3-0.1-0.4
				c-0.1-0.1-0.2-0.1-0.4-0.1v-0.4c0.2,0,0.4,0.1,0.6,0.2s0.2,0.4,0.2,0.6c0,0.3-0.1,0.5-0.2,0.6s-0.3,0.2-0.6,0.2
				c-0.1,0-0.2,0-0.4-0.1c-0.1-0.1-0.2-0.2-0.3-0.3c0,0.2-0.1,0.3-0.2,0.4c-0.1,0.1-0.3,0.1-0.4,0.1c-0.3,0-0.5-0.1-0.6-0.2
				c-0.1-0.2-0.2-0.4-0.2-0.6c0-0.3,0.1-0.5,0.2-0.6s0.3-0.2,0.6-0.2v0.4c-0.1,0-0.3,0-0.4,0.1s-0.1,0.2-0.1,0.4
				c0,0.2,0,0.3,0.1,0.4s0.2,0.1,0.4,0.1c0.2,0,0.3-0.1,0.4-0.2c0.1-0.1,0.1-0.2,0.1-0.4v-0.3H183.8z"/>
		</g>
		<g>
			<rect x="174.1" y="10.8" fill="none" width="3.8" height="4.9"/>
			<path fill="#FFFFFF" d="M175.7,12.7v-1.2l-0.7-0.3v-0.4l2.8,1.1v0.3l-2.8,1.1V13L175.7,12.7z M176,11.6v1l1.3-0.5L176,11.6z"/>
			<path fill="#FFFFFF" d="M175,15.5v-1.9h0.3l1.1,1c0.2,0.1,0.3,0.2,0.4,0.3s0.2,0.1,0.3,0.1c0.1,0,0.3,0,0.4-0.1s0.1-0.2,0.1-0.4
				c0-0.2-0.1-0.3-0.2-0.4S177.2,14,177,14v-0.4c0.3,0,0.5,0.1,0.6,0.3s0.2,0.4,0.2,0.7c0,0.3-0.1,0.5-0.2,0.6s-0.3,0.2-0.6,0.2
				c-0.3,0-0.6-0.2-1-0.5l-0.8-0.8v1.4H175z"/>
		</g>
		<g>
			
				<rect x="161.5" y="31.8" fill="#FFFFFF" stroke="#FFFFFF" stroke-width="0.5969" stroke-miterlimit="10" width="24.7" height="4.2"/>
			<g>
				<rect x="161.5" y="32.4" fill="none" width="24.8" height="3.5"/>
				<path d="M184.2,33.3h1.4l0.3-0.8h0.4l-1.2,3.2h-0.4l-1.2-3.2h0.4L184.2,33.3z M185.4,33.6h-1.1l0.6,1.5L185.4,33.6z"/>
				<path d="M180.3,32.4h0.4l1.6,2.5v-2.5h0.4v3.2h-0.4l-1.6-2.5v2.5h-0.4V32.4z"/>
				<path d="M177.5,33.3h1.4l0.3-0.8h0.4l-1.2,3.2H178l-1.2-3.2h0.4L177.5,33.3z M178.8,33.6h-1.1l0.6,1.5L178.8,33.6z"/>
				<path d="M175.7,32.8h-1.5v-0.3h2v3.2h-0.4V32.8z"/>
				<path d="M171.2,33.9c0-0.3,0.1-0.6,0.2-0.8c0.1-0.2,0.3-0.4,0.5-0.5c0.2-0.1,0.4-0.2,0.7-0.2c0.3,0,0.5,0.1,0.7,0.2
					s0.4,0.3,0.5,0.5s0.2,0.5,0.2,0.8v0.2c0,0.3-0.1,0.6-0.2,0.8c-0.1,0.2-0.3,0.4-0.5,0.5c-0.2,0.1-0.4,0.2-0.7,0.2
					c-0.3,0-0.5-0.1-0.7-0.2c-0.2-0.1-0.3-0.3-0.5-0.5c-0.1-0.2-0.2-0.5-0.2-0.8V33.9z M171.6,34.1c0,0.4,0.1,0.7,0.2,0.9
					s0.4,0.3,0.6,0.3c0.3,0,0.5-0.1,0.6-0.3c0.2-0.2,0.2-0.5,0.2-0.9v-0.2c0-0.4-0.1-0.7-0.2-0.9c-0.2-0.2-0.4-0.3-0.6-0.3
					c-0.3,0-0.5,0.1-0.6,0.3c-0.2,0.2-0.2,0.5-0.2,0.9V34.1z"/>
				<path d="M168,32.8c0.1-0.2,0.3-0.3,0.5-0.4s0.4-0.1,0.7-0.1c0.3,0,0.5,0.1,0.7,0.2c0.2,0.1,0.4,0.3,0.5,0.5
					c0.1,0.2,0.2,0.5,0.2,0.8v0.3c0,0.5-0.1,0.9-0.3,1.1c-0.2,0.3-0.5,0.4-1,0.4c-0.3,0-0.6-0.1-0.8-0.3c-0.2-0.2-0.3-0.4-0.4-0.7
					h0.4c0.1,0.4,0.3,0.6,0.8,0.6c0.3,0,0.5-0.1,0.6-0.3c0.1-0.2,0.2-0.5,0.2-0.9v-0.3c0-0.4-0.1-0.7-0.2-0.9
					c-0.2-0.2-0.4-0.3-0.7-0.3c-0.2,0-0.3,0-0.4,0.1s-0.2,0.1-0.3,0.2v0.7h0.7V34H168V32.8z"/>
				<path d="M165.3,32.4h0.4v3.2h-0.4V32.4z"/>
				<path d="M161.9,32.4h0.4l1.6,2.5v-2.5h0.4v3.2h-0.4l-1.6-2.5v2.5h-0.4V32.4z"/>
			</g>
		</g>
		<polyline fill="none" stroke="#FFFFFF" stroke-width="0.2499" stroke-miterlimit="10" points="186.4,29.8 186.4,31.3 159.2,31.3 
			159.2,29.8 		"/>
	</g>
	<g>
		<g>
			<path fill="#FFFFFF" d="M134.6,124.8v-0.4h2.8v0.4H134.6z"/>
			<path fill="#FFFFFF" d="M135.5,127.6c-0.3,0-0.5-0.1-0.7-0.3c-0.2-0.2-0.2-0.4-0.2-0.7c0-0.3,0.1-0.6,0.4-0.8
				c0.2-0.2,0.6-0.3,1-0.3h0.3c0.3,0,0.5,0,0.7,0.1s0.4,0.2,0.5,0.4s0.2,0.4,0.2,0.6c0,0.3-0.1,0.5-0.3,0.7s-0.4,0.3-0.7,0.3v-0.4
				c0.2,0,0.4-0.1,0.5-0.2c0.1-0.1,0.2-0.3,0.2-0.5c0-0.2-0.1-0.4-0.3-0.6c-0.2-0.1-0.4-0.2-0.8-0.2h-0.3c-0.3,0-0.6,0.1-0.7,0.2
				s-0.3,0.3-0.3,0.5c0,0.2,0,0.4,0.1,0.5s0.3,0.2,0.5,0.2V127.6z"/>
			<path fill="#FFFFFF" d="M135.7,128.5h-1.1v-0.4h2.8v1c0,0.3-0.1,0.5-0.2,0.7c-0.2,0.2-0.4,0.3-0.6,0.3c-0.3,0-0.5-0.1-0.6-0.3
				c-0.1-0.2-0.2-0.4-0.2-0.7V128.5z M136,128.5v0.7c0,0.2,0,0.4,0.1,0.5c0.1,0.1,0.2,0.2,0.4,0.2c0.2,0,0.3-0.1,0.4-0.2
				c0.1-0.1,0.2-0.3,0.2-0.4v-0.7H136z"/>
			<path fill="#FFFFFF" d="M134.6,131.7v-0.4h2.4l-0.3-0.7h0.3l0.4,1v0.1H134.6z"/>
		</g>
		<g>
			<path fill="#FFFFFF" d="M128.7,96.9c-0.3,0-0.5,0-0.7-0.1s-0.4-0.2-0.5-0.4c-0.1-0.2-0.2-0.4-0.2-0.6c0-0.2,0.1-0.4,0.2-0.6
				s0.3-0.3,0.5-0.4s0.4-0.1,0.7-0.1h0.2c0.3,0,0.5,0,0.7,0.1c0.2,0.1,0.4,0.2,0.5,0.4c0.1,0.2,0.2,0.4,0.2,0.6
				c0,0.2-0.1,0.4-0.2,0.6c-0.1,0.2-0.3,0.3-0.5,0.4s-0.5,0.1-0.7,0.1H128.7z M128.9,96.5c0.3,0,0.6-0.1,0.8-0.2
				c0.2-0.1,0.3-0.3,0.3-0.6c0-0.2-0.1-0.4-0.3-0.6s-0.4-0.2-0.8-0.2h-0.2c-0.3,0-0.6,0.1-0.8,0.2c-0.2,0.1-0.3,0.3-0.3,0.6
				c0,0.2,0.1,0.4,0.3,0.6s0.4,0.2,0.8,0.2H128.9z"/>
			<path fill="#FFFFFF" d="M128.3,99.5c-0.3,0-0.5-0.1-0.7-0.3s-0.2-0.4-0.2-0.7c0-0.3,0.1-0.6,0.4-0.8c0.2-0.2,0.6-0.3,1-0.3h0.3
				c0.3,0,0.5,0,0.7,0.1s0.4,0.2,0.5,0.4s0.2,0.4,0.2,0.6c0,0.3-0.1,0.5-0.3,0.7c-0.2,0.2-0.4,0.3-0.7,0.3v-0.4
				c0.2,0,0.4-0.1,0.5-0.2c0.1-0.1,0.2-0.3,0.2-0.5c0-0.2-0.1-0.4-0.3-0.6c-0.2-0.1-0.4-0.2-0.8-0.2h-0.3c-0.3,0-0.6,0.1-0.7,0.2
				c-0.2,0.1-0.3,0.3-0.3,0.5c0,0.2,0,0.4,0.1,0.5s0.3,0.2,0.5,0.2V99.5z"/>
			<path fill="#FFFFFF" d="M127.4,101.1v-0.4h2.4l-0.3-0.7h0.3l0.4,1v0.1H127.4z"/>
			<path fill="#FFFFFF" d="M128.1,103.8v-1.2l-0.7-0.3V102l2.8,1.1v0.3l-2.8,1.1v-0.4L128.1,103.8z M128.5,102.7v1l1.3-0.5
				L128.5,102.7z"/>
			<path fill="#FFFFFF" d="M128.5,106.5v-0.9h0.3v0.9H128.5z"/>
			<path fill="#FFFFFF" d="M128.5,108.3h-1.1v-0.4h2.8v1c0,0.3-0.1,0.5-0.2,0.7c-0.2,0.2-0.4,0.3-0.6,0.3c-0.3,0-0.5-0.1-0.6-0.3
				c-0.1-0.2-0.2-0.4-0.2-0.7V108.3z M128.8,108.3v0.7c0,0.2,0,0.4,0.1,0.5s0.2,0.2,0.4,0.2c0.2,0,0.3-0.1,0.4-0.2s0.2-0.3,0.2-0.4
				v-0.7H128.8z"/>
			<path fill="#FFFFFF" d="M128.3,111l-0.4,0.1l0.3,0.1l2,0.6v0.3l-2,0.5l-0.3,0.1l0.4,0.1l1.9,0.4v0.4l-2.8-0.7v-0.3l2.1-0.6l0.2,0
				l-0.2,0l-2.1-0.6v-0.3l2.8-0.7v0.4L128.3,111z"/>
			<path fill="#FFFFFF" d="M130.2,114.4l-2.3,0.9l2.3,0.9v0.5h-2.8v-0.4h1.1l1.2,0l-2.3-0.9v-0.3l2.3-0.9l-1.2,0h-1.1v-0.4h2.8
				V114.4z"/>
		</g>
		<g>
			<path fill="#FFFFFF" d="M121.6,96.9c-0.3,0-0.5,0-0.7-0.1s-0.4-0.2-0.5-0.4c-0.1-0.2-0.2-0.4-0.2-0.6c0-0.2,0.1-0.4,0.2-0.6
				s0.3-0.3,0.5-0.4s0.4-0.1,0.7-0.1h0.2c0.3,0,0.5,0,0.7,0.1c0.2,0.1,0.4,0.2,0.5,0.4c0.1,0.2,0.2,0.4,0.2,0.6
				c0,0.2-0.1,0.4-0.2,0.6c-0.1,0.2-0.3,0.3-0.5,0.4s-0.5,0.1-0.7,0.1H121.6z M121.8,96.5c0.3,0,0.6-0.1,0.8-0.2
				c0.2-0.1,0.3-0.3,0.3-0.6c0-0.2-0.1-0.4-0.3-0.6s-0.4-0.2-0.8-0.2h-0.2c-0.3,0-0.6,0.1-0.8,0.2c-0.2,0.1-0.3,0.3-0.3,0.6
				c0,0.2,0.1,0.4,0.3,0.6s0.4,0.2,0.8,0.2H121.8z"/>
			<path fill="#FFFFFF" d="M121.2,99.5c-0.3,0-0.5-0.1-0.7-0.3c-0.2-0.2-0.2-0.4-0.2-0.7c0-0.3,0.1-0.6,0.4-0.8
				c0.2-0.2,0.6-0.3,1-0.3h0.3c0.3,0,0.5,0,0.7,0.1s0.4,0.2,0.5,0.4s0.2,0.4,0.2,0.6c0,0.3-0.1,0.5-0.3,0.7s-0.4,0.3-0.7,0.3v-0.4
				c0.2,0,0.4-0.1,0.5-0.2c0.1-0.1,0.2-0.3,0.2-0.5c0-0.2-0.1-0.4-0.3-0.6c-0.2-0.1-0.4-0.2-0.8-0.2h-0.3c-0.3,0-0.6,0.1-0.7,0.2
				c-0.2,0.1-0.3,0.3-0.3,0.5c0,0.2,0,0.4,0.1,0.5s0.3,0.2,0.5,0.2V99.5z"/>
			<path fill="#FFFFFF" d="M120.3,101.1v-0.4h2.4l-0.3-0.7h0.3l0.4,1v0.1H120.3z"/>
			<path fill="#FFFFFF" d="M120.3,102.3h2.8v0.9c0,0.3-0.1,0.5-0.2,0.7s-0.3,0.2-0.6,0.2c-0.1,0-0.3,0-0.4-0.1s-0.2-0.2-0.2-0.3
				c0,0.2-0.1,0.3-0.2,0.4c-0.1,0.1-0.3,0.1-0.4,0.1c-0.3,0-0.5-0.1-0.6-0.2c-0.1-0.2-0.2-0.4-0.2-0.7V102.3z M121.6,102.6h-1v0.6
				c0,0.2,0,0.3,0.1,0.4c0.1,0.1,0.2,0.2,0.4,0.2c0.3,0,0.5-0.2,0.5-0.6V102.6z M121.9,102.6v0.6c0,0.2,0,0.3,0.1,0.4
				c0.1,0.1,0.2,0.1,0.3,0.1c0.2,0,0.3,0,0.3-0.1c0.1-0.1,0.1-0.2,0.1-0.4v-0.5H121.9z"/>
			<path fill="#FFFFFF" d="M121.4,106.4v-0.9h0.3v0.9H121.4z"/>
			<path fill="#FFFFFF" d="M121.4,108.2h-1.1v-0.4h2.8v1c0,0.3-0.1,0.5-0.2,0.7c-0.2,0.2-0.4,0.3-0.6,0.3c-0.3,0-0.5-0.1-0.6-0.3
				c-0.1-0.2-0.2-0.4-0.2-0.7V108.2z M121.7,108.2v0.7c0,0.2,0,0.4,0.1,0.5s0.2,0.2,0.4,0.2c0.2,0,0.3-0.1,0.4-0.2s0.2-0.3,0.2-0.4
				v-0.7H121.7z"/>
			<path fill="#FFFFFF" d="M121.2,110.9l-0.4,0.1l0.3,0.1l2,0.6v0.3l-2,0.5l-0.3,0.1l0.4,0.1l1.9,0.4v0.4l-2.8-0.7v-0.3l2.1-0.6
				l0.2,0l-0.2,0l-2.1-0.6v-0.3l2.8-0.7v0.4L121.2,110.9z"/>
			<path fill="#FFFFFF" d="M123.1,114.3l-2.3,0.9l2.3,0.9v0.5h-2.8v-0.4h1.1l1.2,0l-2.3-0.9v-0.3l2.3-0.9l-1.2,0h-1.1v-0.4h2.8
				V114.3z"/>
		</g>
		<g>
			<path fill="#FFFFFF" d="M114.4,96.9c-0.3,0-0.5,0-0.7-0.1s-0.4-0.2-0.5-0.4c-0.1-0.2-0.2-0.4-0.2-0.6c0-0.2,0.1-0.4,0.2-0.6
				s0.3-0.3,0.5-0.4s0.4-0.1,0.7-0.1h0.2c0.3,0,0.5,0,0.7,0.1c0.2,0.1,0.4,0.2,0.5,0.4c0.1,0.2,0.2,0.4,0.2,0.6
				c0,0.2-0.1,0.4-0.2,0.6c-0.1,0.2-0.3,0.3-0.5,0.4s-0.5,0.1-0.7,0.1H114.4z M114.6,96.5c0.3,0,0.6-0.1,0.8-0.2
				c0.2-0.1,0.3-0.3,0.3-0.6c0-0.2-0.1-0.4-0.3-0.6S115,95,114.6,95h-0.2c-0.3,0-0.6,0.1-0.8,0.2c-0.2,0.1-0.3,0.3-0.3,0.6
				c0,0.2,0.1,0.4,0.3,0.6s0.4,0.2,0.8,0.2H114.6z"/>
			<path fill="#FFFFFF" d="M114,99.5c-0.3,0-0.5-0.1-0.7-0.3s-0.2-0.4-0.2-0.7c0-0.3,0.1-0.6,0.4-0.8c0.2-0.2,0.6-0.3,1-0.3h0.3
				c0.3,0,0.5,0,0.7,0.1s0.4,0.2,0.5,0.4s0.2,0.4,0.2,0.6c0,0.3-0.1,0.5-0.3,0.7c-0.2,0.2-0.4,0.3-0.7,0.3v-0.4
				c0.2,0,0.4-0.1,0.5-0.2c0.1-0.1,0.2-0.3,0.2-0.5c0-0.2-0.1-0.4-0.3-0.6c-0.2-0.1-0.4-0.2-0.8-0.2h-0.3c-0.3,0-0.6,0.1-0.7,0.2
				c-0.2,0.1-0.3,0.3-0.3,0.5c0,0.2,0,0.4,0.1,0.5s0.3,0.2,0.5,0.2V99.5z"/>
			<path fill="#FFFFFF" d="M113.1,101.8V100h0.3l1.1,1c0.2,0.1,0.3,0.2,0.4,0.3s0.2,0.1,0.3,0.1c0.1,0,0.3,0,0.4-0.1
				c0.1-0.1,0.1-0.2,0.1-0.4c0-0.2-0.1-0.3-0.2-0.4c-0.1-0.1-0.2-0.1-0.4-0.1v-0.4c0.3,0,0.5,0.1,0.6,0.3c0.2,0.2,0.2,0.4,0.2,0.7
				c0,0.3-0.1,0.5-0.2,0.6s-0.3,0.2-0.6,0.2c-0.3,0-0.6-0.2-1-0.5l-0.8-0.8v1.4H113.1z"/>
			<path fill="#FFFFFF" d="M113.8,103.8v-1.2l-0.7-0.3V102l2.8,1.1v0.3l-2.8,1.1v-0.4L113.8,103.8z M114.1,102.8v1l1.3-0.5
				L114.1,102.8z"/>
			<path fill="#FFFFFF" d="M114.2,106.5v-0.9h0.3v0.9H114.2z"/>
			<path fill="#FFFFFF" d="M114.2,108.3h-1.1v-0.4h2.8v1c0,0.3-0.1,0.5-0.2,0.7c-0.2,0.2-0.4,0.3-0.6,0.3c-0.3,0-0.5-0.1-0.6-0.3
				c-0.1-0.2-0.2-0.4-0.2-0.7V108.3z M114.5,108.3v0.7c0,0.2,0,0.4,0.1,0.5s0.2,0.2,0.4,0.2c0.2,0,0.3-0.1,0.4-0.2s0.2-0.3,0.2-0.4
				v-0.7H114.5z"/>
			<path fill="#FFFFFF" d="M114,111l-0.4,0.1l0.3,0.1l2,0.6v0.3l-2,0.5l-0.3,0.1l0.4,0.1l1.9,0.4v0.4l-2.8-0.7v-0.3l2.1-0.6l0.2,0
				l-0.2,0l-2.1-0.6v-0.3l2.8-0.7v0.4L114,111z"/>
			<path fill="#FFFFFF" d="M115.9,114.4l-2.3,0.9l2.3,0.9v0.5h-2.8v-0.4h1.1l1.2,0l-2.3-0.9v-0.3l2.3-0.9l-1.2,0h-1.1v-0.4h2.8
				V114.4z"/>
		</g>
		<g>
			<path fill="#FFFFFF" d="M127.4,127.4h2.8v0.8c0,0.2-0.1,0.5-0.2,0.7s-0.3,0.3-0.5,0.4c-0.2,0.1-0.4,0.2-0.7,0.2h-0.2
				c-0.3,0-0.5-0.1-0.7-0.2c-0.2-0.1-0.4-0.3-0.5-0.4s-0.2-0.4-0.2-0.7V127.4z M129.9,127.8h-2.2v0.4c0,0.3,0.1,0.5,0.3,0.7
				c0.2,0.2,0.4,0.2,0.8,0.2h0.2c0.3,0,0.6-0.1,0.8-0.2c0.2-0.2,0.3-0.4,0.3-0.6V127.8z"/>
			<path fill="#FFFFFF" d="M128.7,131.3c-0.1-0.1-0.2-0.2-0.2-0.3c-0.1-0.1-0.1-0.2-0.1-0.3c0-0.2,0-0.3,0.1-0.4s0.2-0.2,0.3-0.3
				c0.1-0.1,0.3-0.1,0.5-0.1c0.2,0,0.4,0,0.5,0.1c0.2,0.1,0.3,0.2,0.3,0.3s0.1,0.3,0.1,0.5c0,0.3-0.1,0.5-0.3,0.7
				c-0.2,0.2-0.5,0.2-0.9,0.2H129c-0.6,0-1-0.1-1.2-0.3s-0.4-0.5-0.4-1v-0.1h0.3v0.1c0,0.3,0.1,0.5,0.2,0.7
				C128.1,131.2,128.3,131.3,128.7,131.3z M128.7,130.8c0,0.1,0,0.2,0.1,0.3c0.1,0.1,0.2,0.2,0.3,0.2h0.1c0.2,0,0.4-0.1,0.6-0.2
				c0.1-0.1,0.2-0.2,0.2-0.4c0-0.2-0.1-0.3-0.2-0.4s-0.3-0.1-0.5-0.1c-0.2,0-0.4,0-0.5,0.1C128.7,130.5,128.7,130.6,128.7,130.8z"/>
		</g>
		<g>
			<path fill="#FFFFFF" d="M121.6,127.6c0.1-0.4,0.2-0.7,0.3-0.8c0.1-0.2,0.3-0.3,0.5-0.3c0.2,0,0.4,0.1,0.6,0.3
				c0.1,0.2,0.2,0.5,0.2,0.8c0,0.2,0,0.4-0.1,0.6s-0.2,0.3-0.3,0.4s-0.3,0.1-0.4,0.1v-0.4c0.2,0,0.3-0.1,0.4-0.2
				c0.1-0.1,0.1-0.3,0.1-0.5c0-0.2,0-0.4-0.1-0.5c-0.1-0.1-0.2-0.2-0.3-0.2c-0.1,0-0.2,0.1-0.3,0.2s-0.2,0.3-0.2,0.6
				c-0.1,0.3-0.1,0.5-0.2,0.6s-0.2,0.3-0.3,0.3s-0.2,0.1-0.4,0.1c-0.2,0-0.4-0.1-0.6-0.3s-0.2-0.5-0.2-0.8c0-0.2,0-0.4,0.1-0.6
				s0.2-0.4,0.3-0.5s0.3-0.2,0.4-0.2v0.4c-0.2,0-0.3,0.1-0.4,0.2c-0.1,0.1-0.1,0.3-0.1,0.6c0,0.2,0,0.4,0.1,0.5
				c0.1,0.1,0.2,0.2,0.3,0.2s0.2-0.1,0.3-0.2S121.5,127.9,121.6,127.6z"/>
			<path fill="#FFFFFF" d="M121.6,130.4c0.1-0.4,0.2-0.7,0.3-0.8c0.1-0.2,0.3-0.3,0.5-0.3c0.2,0,0.4,0.1,0.6,0.3
				c0.1,0.2,0.2,0.5,0.2,0.8c0,0.2,0,0.4-0.1,0.6s-0.2,0.3-0.3,0.4s-0.3,0.1-0.4,0.1v-0.4c0.2,0,0.3-0.1,0.4-0.2
				c0.1-0.1,0.1-0.3,0.1-0.5c0-0.2,0-0.4-0.1-0.5c-0.1-0.1-0.2-0.2-0.3-0.2c-0.1,0-0.2,0.1-0.3,0.2s-0.2,0.3-0.2,0.6
				c-0.1,0.3-0.1,0.5-0.2,0.6s-0.2,0.3-0.3,0.3s-0.2,0.1-0.4,0.1c-0.2,0-0.4-0.1-0.6-0.3s-0.2-0.5-0.2-0.8c0-0.2,0-0.4,0.1-0.6
				s0.2-0.4,0.3-0.5s0.3-0.2,0.4-0.2v0.4c-0.2,0-0.3,0.1-0.4,0.2c-0.1,0.1-0.1,0.3-0.1,0.6c0,0.2,0,0.4,0.1,0.5
				c0.1,0.1,0.2,0.2,0.3,0.2s0.2-0.1,0.3-0.2S121.5,130.7,121.6,130.4z"/>
		</g>
		<g>
			<path fill="#FFFFFF" d="M115.9,123.1l-2.3,0.9l2.3,0.9v0.5h-2.8v-0.4h1.1l1.2,0l-2.3-0.9v-0.3l2.3-0.9l-1.2,0h-1.1v-0.4h2.8
				V123.1z"/>
			<path fill="#FFFFFF" d="M114.4,128.3c-0.3,0-0.5,0-0.7-0.1c-0.2-0.1-0.4-0.2-0.5-0.4c-0.1-0.2-0.2-0.4-0.2-0.6
				c0-0.2,0.1-0.4,0.2-0.6s0.3-0.3,0.5-0.4c0.2-0.1,0.4-0.1,0.7-0.1h0.2c0.3,0,0.5,0,0.7,0.1s0.4,0.2,0.5,0.4
				c0.1,0.2,0.2,0.4,0.2,0.6c0,0.2-0.1,0.4-0.2,0.6c-0.1,0.2-0.3,0.3-0.5,0.4c-0.2,0.1-0.5,0.1-0.7,0.1H114.4z M114.6,127.9
				c0.3,0,0.6-0.1,0.8-0.2c0.2-0.1,0.3-0.3,0.3-0.6c0-0.2-0.1-0.4-0.3-0.6s-0.4-0.2-0.8-0.2h-0.2c-0.3,0-0.6,0.1-0.8,0.2
				c-0.2,0.1-0.3,0.3-0.3,0.6c0,0.2,0.1,0.4,0.3,0.6c0.2,0.1,0.4,0.2,0.8,0.2H114.6z"/>
			<path fill="#FFFFFF" d="M114.4,129.7c0.1-0.3,0.2-0.6,0.3-0.7c0.1-0.1,0.3-0.2,0.5-0.2c0.2,0,0.4,0.1,0.6,0.3s0.2,0.4,0.2,0.7
				c0,0.2,0,0.4-0.1,0.5c-0.1,0.2-0.2,0.3-0.3,0.4c-0.1,0.1-0.3,0.1-0.4,0.1v-0.4c0.2,0,0.3-0.1,0.4-0.2c0.1-0.1,0.1-0.3,0.1-0.5
				c0-0.2,0-0.3-0.1-0.4c-0.1-0.1-0.2-0.2-0.3-0.2c-0.1,0-0.2,0-0.3,0.1c-0.1,0.1-0.2,0.3-0.2,0.5s-0.1,0.4-0.2,0.6
				c-0.1,0.1-0.2,0.2-0.3,0.3s-0.2,0.1-0.4,0.1c-0.2,0-0.4-0.1-0.6-0.3c-0.1-0.2-0.2-0.4-0.2-0.7c0-0.2,0-0.4,0.1-0.5
				s0.2-0.3,0.3-0.4s0.3-0.1,0.4-0.1v0.4c-0.2,0-0.3,0.1-0.4,0.2s-0.1,0.3-0.1,0.5c0,0.2,0,0.3,0.1,0.5c0.1,0.1,0.2,0.2,0.3,0.2
				s0.2,0,0.3-0.1C114.2,130.1,114.3,129.9,114.4,129.7z"/>
			<path fill="#FFFFFF" d="M113.1,131.6v-0.4h2.8v0.4H113.1z"/>
		</g>
		<g>
			<path fill="#FFFFFF" d="M108.7,123.1l-2.3,0.9l2.3,0.9v0.5h-2.8v-0.4h1.1l1.2,0l-2.3-0.9v-0.3l2.3-0.9l-1.2,0h-1.1v-0.4h2.8
				V123.1z"/>
			<path fill="#FFFFFF" d="M105.9,126.5v-0.4h2.8v0.4H105.9z"/>
			<path fill="#FFFFFF" d="M107.2,128c0.1-0.3,0.2-0.6,0.3-0.7c0.1-0.1,0.3-0.2,0.5-0.2c0.2,0,0.4,0.1,0.6,0.3s0.2,0.4,0.2,0.7
				c0,0.2,0,0.4-0.1,0.5s-0.2,0.3-0.3,0.4c-0.1,0.1-0.3,0.1-0.4,0.1v-0.4c0.2,0,0.3-0.1,0.4-0.2c0.1-0.1,0.1-0.3,0.1-0.5
				c0-0.2,0-0.3-0.1-0.4c-0.1-0.1-0.2-0.2-0.3-0.2c-0.1,0-0.2,0-0.3,0.1c-0.1,0.1-0.2,0.3-0.2,0.5s-0.1,0.4-0.2,0.5
				s-0.2,0.2-0.3,0.3c-0.1,0.1-0.2,0.1-0.4,0.1c-0.2,0-0.4-0.1-0.6-0.3s-0.2-0.4-0.2-0.7c0-0.2,0-0.4,0.1-0.5s0.2-0.3,0.3-0.4
				c0.1-0.1,0.3-0.1,0.4-0.1v0.4c-0.2,0-0.3,0.1-0.4,0.2c-0.1,0.1-0.1,0.3-0.1,0.5c0,0.2,0,0.3,0.1,0.5c0.1,0.1,0.2,0.2,0.3,0.2
				s0.2,0,0.3-0.1C107,128.5,107.1,128.3,107.2,128z"/>
			<path fill="#FFFFFF" d="M107.2,131.7c-0.3,0-0.5,0-0.7-0.1c-0.2-0.1-0.4-0.2-0.5-0.4c-0.1-0.2-0.2-0.4-0.2-0.6
				c0-0.2,0.1-0.4,0.2-0.6s0.3-0.3,0.5-0.4c0.2-0.1,0.4-0.1,0.7-0.1h0.2c0.3,0,0.5,0,0.7,0.1s0.4,0.2,0.5,0.4
				c0.1,0.2,0.2,0.4,0.2,0.6c0,0.2-0.1,0.4-0.2,0.6c-0.1,0.2-0.3,0.3-0.5,0.4c-0.2,0.1-0.5,0.1-0.7,0.1H107.2z M107.4,131.3
				c0.3,0,0.6-0.1,0.8-0.2c0.2-0.1,0.3-0.3,0.3-0.6c0-0.2-0.1-0.4-0.3-0.6s-0.4-0.2-0.8-0.2h-0.2c-0.3,0-0.6,0.1-0.8,0.2
				c-0.2,0.1-0.3,0.3-0.3,0.6c0,0.2,0.1,0.4,0.3,0.6c0.2,0.1,0.4,0.2,0.8,0.2H107.4z"/>
		</g>
		<g>
			<path fill="#FFFFFF" d="M99.9,125.4c0.1-0.3,0.2-0.6,0.3-0.7s0.3-0.2,0.5-0.2c0.2,0,0.4,0.1,0.6,0.3c0.1,0.2,0.2,0.4,0.2,0.7
				c0,0.2,0,0.4-0.1,0.5s-0.2,0.3-0.3,0.4s-0.3,0.1-0.4,0.1v-0.4c0.2,0,0.3-0.1,0.4-0.2s0.1-0.3,0.1-0.5c0-0.2,0-0.3-0.1-0.4
				c-0.1-0.1-0.2-0.2-0.3-0.2c-0.1,0-0.2,0-0.3,0.1s-0.2,0.3-0.2,0.5c-0.1,0.2-0.1,0.4-0.2,0.5c-0.1,0.1-0.2,0.2-0.3,0.3
				c-0.1,0.1-0.2,0.1-0.4,0.1c-0.2,0-0.4-0.1-0.6-0.3s-0.2-0.4-0.2-0.7c0-0.2,0-0.4,0.1-0.5s0.2-0.3,0.3-0.4
				c0.1-0.1,0.3-0.1,0.4-0.1v0.4c-0.2,0-0.3,0.1-0.4,0.2s-0.1,0.3-0.1,0.5c0,0.2,0,0.3,0.1,0.5s0.2,0.2,0.3,0.2s0.2,0,0.3-0.1
				S99.8,125.7,99.9,125.4z"/>
			<path fill="#FFFFFF" d="M99.5,129c-0.3,0-0.5-0.1-0.7-0.3c-0.2-0.2-0.2-0.4-0.2-0.7c0-0.3,0.1-0.6,0.4-0.8c0.2-0.2,0.6-0.3,1-0.3
				h0.3c0.3,0,0.5,0,0.7,0.1s0.4,0.2,0.5,0.4s0.2,0.4,0.2,0.6c0,0.3-0.1,0.5-0.3,0.7c-0.2,0.2-0.4,0.3-0.7,0.3v-0.4
				c0.2,0,0.4-0.1,0.5-0.2s0.2-0.3,0.2-0.5c0-0.2-0.1-0.4-0.3-0.6c-0.2-0.1-0.4-0.2-0.8-0.2h-0.3c-0.3,0-0.6,0.1-0.7,0.2
				c-0.2,0.1-0.3,0.3-0.3,0.5c0,0.2,0,0.4,0.1,0.5s0.3,0.2,0.5,0.2V129z"/>
			<path fill="#FFFFFF" d="M100,130.3l-0.4-0.3h-1v-0.4h2.8v0.4h-1.4l1.4,1.3v0.4l-1.3-1.1l-1.6,1.2v-0.4L100,130.3z"/>
		</g>
		<g>
			<path fill="#FFFFFF" d="M134.6,136.8h2.8v0.8c0,0.2-0.1,0.5-0.2,0.7s-0.3,0.3-0.5,0.4c-0.2,0.1-0.4,0.2-0.7,0.2h-0.2
				c-0.3,0-0.5-0.1-0.7-0.2c-0.2-0.1-0.4-0.3-0.5-0.4s-0.2-0.4-0.2-0.7V136.8z M137.1,137.2h-2.2v0.4c0,0.3,0.1,0.5,0.3,0.7
				c0.2,0.2,0.4,0.2,0.8,0.2h0.2c0.3,0,0.6-0.1,0.8-0.2c0.2-0.2,0.3-0.4,0.3-0.6V137.2z"/>
			<path fill="#FFFFFF" d="M136.7,141c-0.1,0-0.3,0-0.4-0.1s-0.2-0.2-0.3-0.3c-0.1,0.1-0.2,0.3-0.3,0.3s-0.3,0.1-0.4,0.1
				c-0.2,0-0.4-0.1-0.6-0.2c-0.1-0.2-0.2-0.4-0.2-0.7c0-0.3,0.1-0.5,0.2-0.7s0.3-0.2,0.6-0.2c0.2,0,0.3,0,0.4,0.1s0.2,0.2,0.3,0.3
				c0.1-0.1,0.1-0.2,0.3-0.3s0.2-0.1,0.4-0.1c0.2,0,0.4,0.1,0.6,0.2c0.1,0.2,0.2,0.4,0.2,0.6c0,0.2-0.1,0.4-0.2,0.6
				S136.9,141,136.7,141z M135.4,140.7c0.2,0,0.3-0.1,0.4-0.2s0.2-0.2,0.2-0.4c0-0.2,0-0.3-0.1-0.4c-0.1-0.1-0.2-0.1-0.4-0.1
				s-0.3,0-0.4,0.1s-0.1,0.2-0.1,0.4c0,0.2,0,0.3,0.1,0.4C135.1,140.7,135.2,140.7,135.4,140.7z M137.2,140.2c0-0.1,0-0.3-0.1-0.3
				s-0.2-0.1-0.4-0.1c-0.1,0-0.3,0-0.4,0.1s-0.1,0.2-0.1,0.3s0,0.3,0.1,0.3s0.2,0.1,0.4,0.1s0.3,0,0.4-0.1S137.2,140.3,137.2,140.2z
				"/>
		</g>
		<g>
			<path fill="#FFFFFF" d="M127.4,136.8h2.8v0.8c0,0.2-0.1,0.5-0.2,0.7s-0.3,0.3-0.5,0.4c-0.2,0.1-0.4,0.2-0.7,0.2h-0.2
				c-0.3,0-0.5-0.1-0.7-0.2c-0.2-0.1-0.4-0.3-0.5-0.4s-0.2-0.4-0.2-0.7V136.8z M129.9,137.2h-2.2v0.4c0,0.3,0.1,0.5,0.3,0.7
				c0.2,0.2,0.4,0.2,0.8,0.2h0.2c0.3,0,0.6-0.1,0.8-0.2c0.2-0.2,0.3-0.4,0.3-0.6V137.2z"/>
			<path fill="#FFFFFF" d="M128.7,140.7c-0.1-0.1-0.2-0.2-0.2-0.3c-0.1-0.1-0.1-0.2-0.1-0.3c0-0.2,0-0.3,0.1-0.4s0.2-0.2,0.3-0.3
				c0.1-0.1,0.3-0.1,0.5-0.1c0.2,0,0.4,0,0.5,0.1c0.2,0.1,0.3,0.2,0.3,0.3s0.1,0.3,0.1,0.5c0,0.3-0.1,0.5-0.3,0.7
				c-0.2,0.2-0.5,0.2-0.9,0.2H129c-0.6,0-1-0.1-1.2-0.3s-0.4-0.5-0.4-1v-0.1h0.3v0.1c0,0.3,0.1,0.5,0.2,0.7
				C128.1,140.6,128.3,140.7,128.7,140.7z M128.7,140.1c0,0.1,0,0.2,0.1,0.3c0.1,0.1,0.2,0.2,0.3,0.2h0.1c0.2,0,0.4-0.1,0.6-0.2
				c0.1-0.1,0.2-0.2,0.2-0.4c0-0.2-0.1-0.3-0.2-0.4s-0.3-0.1-0.5-0.1c-0.2,0-0.4,0-0.5,0.1C128.7,139.9,128.7,140,128.7,140.1z"/>
		</g>
		<g>
			<path fill="#FFFFFF" d="M120.3,133.4h2.8v0.9c0,0.3-0.1,0.5-0.2,0.8s-0.3,0.4-0.5,0.5s-0.4,0.2-0.7,0.2h-0.2
				c-0.3,0-0.5-0.1-0.7-0.2s-0.4-0.3-0.5-0.5s-0.2-0.5-0.2-0.8V133.4z M122.8,133.8h-2.2v0.5c0,0.3,0.1,0.6,0.3,0.8s0.4,0.3,0.8,0.3
				h0.2c0.3,0,0.6-0.1,0.8-0.3c0.2-0.2,0.3-0.4,0.3-0.8V133.8z"/>
			<path fill="#FFFFFF" d="M120.3,137.7v-0.4h2.4l-0.3-0.9h0.3l0.4,1.2v0.1H120.3z"/>
			<path fill="#FFFFFF" d="M121.5,141.1c-0.4,0-0.7-0.1-0.9-0.3s-0.3-0.4-0.3-0.8c0-0.4,0.1-0.6,0.3-0.8s0.5-0.3,0.9-0.3h0.5
				c0.4,0,0.7,0.1,0.9,0.3s0.3,0.4,0.3,0.8c0,0.4-0.1,0.6-0.3,0.8s-0.5,0.3-0.9,0.3H121.5z M122,140.6c0.3,0,0.5-0.1,0.7-0.2
				s0.2-0.3,0.2-0.5c0-0.2-0.1-0.4-0.2-0.5c-0.1-0.1-0.4-0.2-0.6-0.2h-0.6c-0.3,0-0.5,0.1-0.7,0.2s-0.2,0.3-0.2,0.5
				c0,0.2,0.1,0.4,0.2,0.5s0.4,0.2,0.7,0.2H122z"/>
		</g>
		<g>
			<path fill="#FFFFFF" d="M113.1,135.2h2.8v0.8c0,0.2-0.1,0.5-0.2,0.7s-0.3,0.3-0.5,0.4c-0.2,0.1-0.4,0.2-0.7,0.2h-0.2
				c-0.3,0-0.5-0.1-0.7-0.2c-0.2-0.1-0.4-0.3-0.5-0.4s-0.2-0.4-0.2-0.7V135.2z M115.6,135.5h-2.2v0.4c0,0.3,0.1,0.5,0.3,0.7
				c0.2,0.2,0.4,0.2,0.8,0.2h0.2c0.3,0,0.6-0.1,0.8-0.2c0.2-0.2,0.3-0.4,0.3-0.6V135.5z"/>
			<path fill="#FFFFFF" d="M113.1,138.9v-0.4h2.4l-0.3-0.7h0.3l0.4,1v0.1H113.1z"/>
			<path fill="#FFFFFF" d="M113.1,141.1v-0.4h2.4l-0.3-0.7h0.3l0.4,1v0.1H113.1z"/>
		</g>
		<g>
			<path fill="#FFFFFF" d="M105.9,134.5h2.8v0.8c0,0.2-0.1,0.5-0.2,0.7s-0.3,0.3-0.5,0.4c-0.2,0.1-0.4,0.2-0.7,0.2h-0.2
				c-0.3,0-0.5-0.1-0.7-0.2c-0.2-0.1-0.4-0.3-0.5-0.4s-0.2-0.4-0.2-0.7V134.5z M108.4,134.8h-2.2v0.4c0,0.3,0.1,0.5,0.3,0.7
				c0.2,0.2,0.4,0.2,0.8,0.2h0.2c0.3,0,0.6-0.1,0.8-0.2c0.2-0.2,0.3-0.4,0.3-0.6V134.8z"/>
			<path fill="#FFFFFF" d="M105.9,138.2v-0.4h2.4l-0.3-0.7h0.3l0.4,1v0.1H105.9z"/>
			<path fill="#FFFFFF" d="M105.9,141.1v-1.8h0.3l1.1,1c0.2,0.1,0.3,0.2,0.4,0.3s0.2,0.1,0.3,0.1c0.1,0,0.3,0,0.4-0.1
				c0.1-0.1,0.1-0.2,0.1-0.4c0-0.2-0.1-0.3-0.2-0.4c-0.1-0.1-0.2-0.1-0.4-0.1v-0.4c0.3,0,0.5,0.1,0.6,0.3c0.2,0.2,0.2,0.4,0.2,0.7
				c0,0.3-0.1,0.5-0.2,0.6s-0.3,0.2-0.6,0.2c-0.3,0-0.6-0.2-1-0.5l-0.8-0.8v1.4H105.9z"/>
		</g>
		<g>
			<path fill="#FFFFFF" d="M98.6,134.6h2.8v0.8c0,0.2-0.1,0.5-0.2,0.7s-0.3,0.3-0.5,0.4c-0.2,0.1-0.4,0.2-0.7,0.2H100
				c-0.3,0-0.5-0.1-0.7-0.2c-0.2-0.1-0.4-0.3-0.5-0.4s-0.2-0.4-0.2-0.7V134.6z M101.2,135h-2.2v0.4c0,0.3,0.1,0.5,0.3,0.7
				c0.2,0.2,0.4,0.2,0.8,0.2h0.2c0.3,0,0.6-0.1,0.8-0.2c0.2-0.2,0.3-0.4,0.3-0.6V135z"/>
			<path fill="#FFFFFF" d="M98.6,138.3v-0.4h2.4l-0.3-0.7h0.3l0.4,1v0.1H98.6z"/>
			<path fill="#FFFFFF" d="M100.2,139.8v0.3c0,0.2,0,0.3,0.1,0.4s0.2,0.1,0.4,0.1c0.3,0,0.5-0.2,0.5-0.5c0-0.2,0-0.3-0.1-0.4
				c-0.1-0.1-0.2-0.1-0.4-0.1v-0.4c0.2,0,0.4,0.1,0.6,0.2c0.1,0.2,0.2,0.4,0.2,0.6c0,0.3-0.1,0.5-0.2,0.6c-0.1,0.2-0.3,0.2-0.6,0.2
				c-0.1,0-0.2,0-0.4-0.1c-0.1-0.1-0.2-0.2-0.3-0.3c0,0.2-0.1,0.3-0.2,0.4c-0.1,0.1-0.3,0.1-0.4,0.1c-0.3,0-0.5-0.1-0.6-0.2
				c-0.1-0.2-0.2-0.4-0.2-0.6s0.1-0.5,0.2-0.6s0.3-0.2,0.6-0.2v0.4c-0.1,0-0.3,0-0.4,0.1c-0.1,0.1-0.1,0.2-0.1,0.4
				c0,0.2,0,0.3,0.1,0.4s0.2,0.1,0.4,0.1c0.2,0,0.3,0,0.4-0.2c0.1-0.1,0.1-0.2,0.1-0.4v-0.3H100.2z"/>
		</g>
		<g>
			
				<rect x="117.4" y="117.5" fill="#FFFFFF" stroke="#FFFFFF" stroke-width="0.3182" stroke-miterlimit="10" width="7" height="4.2"/>
			<g>
				<rect x="117.2" y="118" fill="none" width="7.2" height="3.5"/>
				<path d="M123.1,119.5c0.4,0.1,0.6,0.2,0.8,0.4c0.2,0.2,0.3,0.3,0.3,0.6c0,0.3-0.1,0.5-0.3,0.6c-0.2,0.2-0.5,0.3-0.8,0.3
					c-0.2,0-0.4,0-0.6-0.1s-0.3-0.2-0.4-0.4s-0.1-0.3-0.1-0.5h0.4c0,0.2,0.1,0.3,0.2,0.5s0.3,0.2,0.5,0.2c0.2,0,0.4,0,0.5-0.1
					s0.2-0.2,0.2-0.4c0-0.1-0.1-0.2-0.2-0.3c-0.1-0.1-0.3-0.2-0.6-0.3c-0.3-0.1-0.5-0.2-0.6-0.3c-0.2-0.1-0.3-0.2-0.3-0.3
					c-0.1-0.1-0.1-0.3-0.1-0.4c0-0.3,0.1-0.5,0.3-0.6c0.2-0.2,0.5-0.2,0.8-0.2c0.2,0,0.4,0,0.6,0.1c0.2,0.1,0.3,0.2,0.4,0.4
					c0.1,0.1,0.2,0.3,0.2,0.5h-0.4c0-0.2-0.1-0.3-0.2-0.5s-0.3-0.2-0.6-0.2c-0.2,0-0.4,0-0.5,0.1c-0.1,0.1-0.2,0.2-0.2,0.4
					s0.1,0.3,0.2,0.4C122.6,119.3,122.8,119.4,123.1,119.5z"/>
				<path d="M120.7,119.3v-1.3h0.4v3.2h-1.2c-0.4,0-0.6-0.1-0.8-0.3c-0.2-0.2-0.3-0.4-0.3-0.7c0-0.3,0.1-0.6,0.3-0.7
					c0.2-0.2,0.5-0.3,0.8-0.3H120.7z M120.7,119.7h-0.8c-0.2,0-0.4,0.1-0.5,0.2c-0.1,0.1-0.2,0.3-0.2,0.5c0,0.2,0.1,0.3,0.2,0.5
					c0.1,0.1,0.3,0.2,0.5,0.2h0.8V119.7z"/>
				<path d="M117.6,118.1h0.4v3.2h-0.4V118.1z"/>
			</g>
		</g>
		<polyline fill="none" stroke="#FFFFFF" stroke-width="0.25" stroke-miterlimit="10" points="97.3,123.8 97.3,122.3 124.5,122.3 
			124.5,123.8 		"/>
	</g>
	<g>
		<g>
			<path fill="#FFFFFF" d="M78.2,125.4c0.1-0.3,0.2-0.6,0.3-0.7s0.3-0.2,0.5-0.2c0.2,0,0.4,0.1,0.6,0.3c0.1,0.2,0.2,0.4,0.2,0.7
				c0,0.2,0,0.4-0.1,0.5s-0.2,0.3-0.3,0.4s-0.3,0.1-0.4,0.1v-0.4c0.2,0,0.3-0.1,0.4-0.2s0.1-0.3,0.1-0.5c0-0.2,0-0.3-0.1-0.4
				c-0.1-0.1-0.2-0.2-0.3-0.2c-0.1,0-0.2,0-0.3,0.1s-0.2,0.3-0.2,0.5c-0.1,0.2-0.1,0.4-0.2,0.5c-0.1,0.1-0.2,0.2-0.3,0.3
				c-0.1,0.1-0.2,0.1-0.4,0.1c-0.2,0-0.4-0.1-0.6-0.3s-0.2-0.4-0.2-0.7c0-0.2,0-0.4,0.1-0.5s0.2-0.3,0.3-0.4
				c0.1-0.1,0.3-0.1,0.4-0.1v0.4c-0.2,0-0.3,0.1-0.4,0.2s-0.1,0.3-0.1,0.5c0,0.2,0,0.3,0.1,0.5s0.2,0.2,0.3,0.2s0.2,0,0.3-0.1
				S78.1,125.7,78.2,125.4z"/>
			<path fill="#FFFFFF" d="M77,127h2.8v0.8c0,0.2-0.1,0.5-0.2,0.7c-0.1,0.2-0.3,0.3-0.5,0.4c-0.2,0.1-0.4,0.2-0.7,0.2h-0.2
				c-0.3,0-0.5-0.1-0.7-0.2c-0.2-0.1-0.4-0.3-0.5-0.4c-0.1-0.2-0.2-0.4-0.2-0.7V127z M79.5,127.3h-2.2v0.4c0,0.3,0.1,0.5,0.3,0.7
				c0.2,0.2,0.4,0.2,0.8,0.2h0.2c0.3,0,0.6-0.1,0.8-0.2c0.2-0.2,0.3-0.4,0.3-0.6V127.3z"/>
			<path fill="#FFFFFF" d="M77.7,131.1v-1.2l-0.7-0.3v-0.4l2.8,1.1v0.3l-2.8,1.1v-0.4L77.7,131.1z M78,130v1l1.3-0.5L78,130z"/>
		</g>
		<g>
			<path fill="#FFFFFF" d="M71.1,125.9c0.1-0.3,0.2-0.6,0.3-0.7s0.3-0.2,0.5-0.2c0.2,0,0.4,0.1,0.6,0.3c0.1,0.2,0.2,0.4,0.2,0.7
				c0,0.2,0,0.4-0.1,0.5s-0.2,0.3-0.3,0.4s-0.3,0.1-0.4,0.1v-0.4c0.2,0,0.3-0.1,0.4-0.2s0.1-0.3,0.1-0.5c0-0.2,0-0.3-0.1-0.4
				c-0.1-0.1-0.2-0.2-0.3-0.2c-0.1,0-0.2,0-0.3,0.1s-0.2,0.3-0.2,0.5c-0.1,0.2-0.1,0.4-0.2,0.5c-0.1,0.1-0.2,0.2-0.3,0.3
				c-0.1,0.1-0.2,0.1-0.4,0.1c-0.2,0-0.4-0.1-0.6-0.3s-0.2-0.4-0.2-0.7c0-0.2,0-0.4,0.1-0.5s0.2-0.3,0.3-0.4
				c0.1-0.1,0.3-0.1,0.4-0.1v0.4c-0.2,0-0.3,0.1-0.4,0.2s-0.1,0.3-0.1,0.5c0,0.2,0,0.3,0.1,0.5s0.2,0.2,0.3,0.2s0.2,0,0.3-0.1
				S71.1,126.1,71.1,125.9z"/>
			<path fill="#FFFFFF" d="M70.8,129.5c-0.3,0-0.5-0.1-0.7-0.3c-0.2-0.2-0.2-0.4-0.2-0.7c0-0.3,0.1-0.6,0.4-0.8
				c0.2-0.2,0.6-0.3,1-0.3h0.3c0.3,0,0.5,0,0.7,0.1s0.4,0.2,0.5,0.4s0.2,0.4,0.2,0.6c0,0.3-0.1,0.5-0.3,0.7
				c-0.2,0.2-0.4,0.3-0.7,0.3v-0.4c0.2,0,0.4-0.1,0.5-0.2s0.2-0.3,0.2-0.5c0-0.2-0.1-0.4-0.3-0.6c-0.2-0.1-0.4-0.2-0.8-0.2h-0.3
				c-0.3,0-0.6,0.1-0.7,0.2c-0.2,0.1-0.3,0.3-0.3,0.5c0,0.2,0,0.4,0.1,0.5s0.3,0.2,0.5,0.2V129.5z"/>
			<path fill="#FFFFFF" d="M70.2,130.4v1.3h-0.3V130h2.8v0.4H70.2z"/>
		</g>
		<g>
			
				<rect x="74.2" y="117.5" fill="#FFFFFF" stroke="#FFFFFF" stroke-width="0.3182" stroke-miterlimit="10" width="7" height="4.2"/>
			<g>
				<rect x="74" y="118" fill="none" width="7.2" height="3.5"/>
				<path d="M80.4,118.1h0.4v3.2h-0.4V118.1z"/>
				<path d="M77.4,118.1h2.1v0.3l-1.1,1.2c-0.2,0.2-0.3,0.3-0.3,0.5c-0.1,0.1-0.1,0.2-0.1,0.4c0,0.2,0.1,0.3,0.2,0.4
					s0.2,0.2,0.4,0.2c0.2,0,0.4-0.1,0.5-0.2c0.1-0.1,0.2-0.3,0.2-0.5h0.4c0,0.3-0.1,0.5-0.3,0.7c-0.2,0.2-0.4,0.3-0.8,0.3
					c-0.3,0-0.5-0.1-0.7-0.2c-0.2-0.2-0.3-0.4-0.3-0.6c0-0.3,0.2-0.7,0.6-1.1l0.9-0.9h-1.6V118.1z"/>
				<path d="M74.3,119.1c0-0.3,0.2-0.6,0.4-0.8s0.5-0.3,0.8-0.3c0.4,0,0.7,0.1,0.9,0.4c0.2,0.3,0.3,0.6,0.3,1.1v0.3
					c0,0.3-0.1,0.6-0.2,0.8c-0.1,0.2-0.3,0.4-0.5,0.5c-0.2,0.1-0.4,0.2-0.7,0.2c-0.3,0-0.6-0.1-0.8-0.3c-0.2-0.2-0.3-0.5-0.4-0.8
					h0.4c0,0.3,0.1,0.4,0.2,0.6c0.1,0.1,0.3,0.2,0.5,0.2c0.3,0,0.5-0.1,0.6-0.3s0.2-0.5,0.2-0.9v-0.3c0-0.4-0.1-0.6-0.2-0.8
					c-0.1-0.2-0.4-0.3-0.6-0.3c-0.2,0-0.4,0.1-0.5,0.2c-0.1,0.1-0.2,0.3-0.3,0.6H74.3z"/>
			</g>
		</g>
		<polyline fill="none" stroke="#FFFFFF" stroke-width="0.25" stroke-miterlimit="10" points="68.5,123.8 68.5,122.3 81.3,122.3 
			81.3,123.8 		"/>
	</g>
	<g>
		<g>
			<path fill="#FFFFFF" d="M170.3,129.6v-0.9h-2.5v-0.4h2.5v-0.9h0.3v2.2H170.3z"/>
			<path fill="#FFFFFF" d="M169,131.7c-0.4,0-0.7-0.1-0.9-0.2c-0.2-0.1-0.3-0.4-0.3-0.7c0-0.3,0.1-0.5,0.3-0.7s0.5-0.2,0.9-0.2h0.5
				c0.4,0,0.7,0.1,0.9,0.2s0.3,0.4,0.3,0.7c0,0.3-0.1,0.5-0.3,0.7c-0.2,0.1-0.5,0.2-0.9,0.2H169z M169.5,131.3c0.3,0,0.5,0,0.7-0.1
				c0.1-0.1,0.2-0.2,0.2-0.4c0-0.2-0.1-0.3-0.2-0.4s-0.4-0.1-0.6-0.1h-0.6c-0.3,0-0.5,0-0.7,0.1c-0.1,0.1-0.2,0.2-0.2,0.4
				c0,0.2,0.1,0.3,0.2,0.4s0.4,0.1,0.7,0.1H169.5z"/>
		</g>
		<g>
			<path fill="#FFFFFF" d="M161.8,96.9c-0.3,0-0.5,0-0.7-0.1s-0.4-0.2-0.5-0.4c-0.1-0.2-0.2-0.4-0.2-0.6c0-0.2,0.1-0.4,0.2-0.6
				s0.3-0.3,0.5-0.4s0.4-0.1,0.7-0.1h0.2c0.3,0,0.5,0,0.7,0.1c0.2,0.1,0.4,0.2,0.5,0.4c0.1,0.2,0.2,0.4,0.2,0.6
				c0,0.2-0.1,0.4-0.2,0.6c-0.1,0.2-0.3,0.3-0.5,0.4s-0.5,0.1-0.7,0.1H161.8z M162,96.5c0.3,0,0.6-0.1,0.8-0.2
				c0.2-0.1,0.3-0.3,0.3-0.6c0-0.2-0.1-0.4-0.3-0.6S162.4,95,162,95h-0.2c-0.3,0-0.6,0.1-0.8,0.2c-0.2,0.1-0.3,0.3-0.3,0.6
				c0,0.2,0.1,0.4,0.3,0.6s0.4,0.2,0.8,0.2H162z"/>
			<path fill="#FFFFFF" d="M161.4,99.5c-0.3,0-0.5-0.1-0.7-0.3s-0.2-0.4-0.2-0.7c0-0.3,0.1-0.6,0.4-0.8c0.2-0.2,0.6-0.3,1-0.3h0.3
				c0.3,0,0.5,0,0.7,0.1s0.4,0.2,0.5,0.4s0.2,0.4,0.2,0.6c0,0.3-0.1,0.5-0.3,0.7c-0.2,0.2-0.4,0.3-0.7,0.3v-0.4
				c0.2,0,0.4-0.1,0.5-0.2c0.1-0.1,0.2-0.3,0.2-0.5c0-0.2-0.1-0.4-0.3-0.6c-0.2-0.1-0.4-0.2-0.8-0.2h-0.3c-0.3,0-0.6,0.1-0.7,0.2
				s-0.3,0.3-0.3,0.5c0,0.2,0,0.4,0.1,0.5s0.3,0.2,0.5,0.2V99.5z"/>
			<path fill="#FFFFFF" d="M161.7,101.7c-0.4,0-0.7-0.1-0.9-0.2s-0.3-0.4-0.3-0.7c0-0.3,0.1-0.5,0.3-0.7s0.5-0.2,0.9-0.2h0.5
				c0.4,0,0.7,0.1,0.9,0.2c0.2,0.1,0.3,0.4,0.3,0.7s-0.1,0.5-0.3,0.7s-0.5,0.2-0.9,0.2H161.7z M162.2,101.3c0.3,0,0.5,0,0.7-0.1
				s0.2-0.2,0.2-0.4c0-0.2-0.1-0.3-0.2-0.4s-0.4-0.1-0.6-0.1h-0.6c-0.3,0-0.5,0-0.7,0.1s-0.2,0.2-0.2,0.4c0,0.2,0.1,0.3,0.2,0.4
				s0.4,0.1,0.7,0.1H162.2z"/>
			<path fill="#FFFFFF" d="M160.5,102.3h2.8v0.9c0,0.3-0.1,0.5-0.2,0.7s-0.3,0.2-0.6,0.2c-0.1,0-0.3,0-0.4-0.1s-0.2-0.2-0.2-0.3
				c0,0.2-0.1,0.3-0.2,0.4c-0.1,0.1-0.3,0.1-0.4,0.1c-0.3,0-0.5-0.1-0.6-0.2s-0.2-0.4-0.2-0.7V102.3z M161.8,102.6h-1v0.6
				c0,0.2,0,0.3,0.1,0.4s0.2,0.1,0.4,0.1c0.3,0,0.5-0.2,0.5-0.6V102.6z M162.1,102.6v0.6c0,0.2,0,0.3,0.1,0.4
				c0.1,0.1,0.2,0.1,0.3,0.1c0.2,0,0.3,0,0.3-0.1c0.1-0.1,0.1-0.2,0.1-0.4v-0.5H162.1z"/>
			<path fill="#FFFFFF" d="M161.6,106.4v-0.9h0.3v0.9H161.6z"/>
			<path fill="#FFFFFF" d="M161.6,108.2h-1.1v-0.4h2.8v1c0,0.3-0.1,0.6-0.2,0.7c-0.2,0.2-0.4,0.3-0.6,0.3c-0.3,0-0.5-0.1-0.6-0.3
				c-0.1-0.2-0.2-0.4-0.2-0.7V108.2z M161.9,108.2v0.7c0,0.2,0,0.4,0.1,0.5c0.1,0.1,0.2,0.2,0.4,0.2c0.2,0,0.3-0.1,0.4-0.2
				c0.1-0.1,0.2-0.3,0.2-0.4v-0.7H161.9z"/>
			<path fill="#FFFFFF" d="M161.4,110.9l-0.4,0.1l0.3,0.1l2,0.6v0.3l-2,0.5l-0.3,0.1l0.4,0.1l1.9,0.4v0.4l-2.8-0.7v-0.3l2.1-0.6
				l0.2,0l-0.2,0l-2.1-0.6v-0.3l2.8-0.7v0.4L161.4,110.9z"/>
			<path fill="#FFFFFF" d="M163.3,114.3l-2.3,0.9l2.3,0.9v0.5h-2.8v-0.4h1.1l1.2,0l-2.3-0.9v-0.3l2.3-0.9l-1.2,0h-1.1v-0.4h2.8
				V114.3z"/>
		</g>
		<g>
			<path fill="#FFFFFF" d="M154.7,96.9c-0.3,0-0.5,0-0.7-0.1s-0.4-0.2-0.5-0.4c-0.1-0.2-0.2-0.4-0.2-0.6c0-0.2,0.1-0.4,0.2-0.6
				s0.3-0.3,0.5-0.4s0.4-0.1,0.7-0.1h0.2c0.3,0,0.5,0,0.7,0.1c0.2,0.1,0.4,0.2,0.5,0.4c0.1,0.2,0.2,0.4,0.2,0.6
				c0,0.2-0.1,0.4-0.2,0.6c-0.1,0.2-0.3,0.3-0.5,0.4s-0.5,0.1-0.7,0.1H154.7z M154.9,96.5c0.3,0,0.6-0.1,0.8-0.2
				c0.2-0.1,0.3-0.3,0.3-0.6c0-0.2-0.1-0.4-0.3-0.6s-0.4-0.2-0.8-0.2h-0.2c-0.3,0-0.6,0.1-0.8,0.2c-0.2,0.1-0.3,0.3-0.3,0.6
				c0,0.2,0.1,0.4,0.3,0.6s0.4,0.2,0.8,0.2H154.9z"/>
			<path fill="#FFFFFF" d="M154.3,99.5c-0.3,0-0.5-0.1-0.7-0.3s-0.2-0.4-0.2-0.7c0-0.3,0.1-0.6,0.4-0.8c0.2-0.2,0.6-0.3,1-0.3h0.3
				c0.3,0,0.5,0,0.7,0.1s0.4,0.2,0.5,0.4s0.2,0.4,0.2,0.6c0,0.3-0.1,0.5-0.3,0.7c-0.2,0.2-0.4,0.3-0.7,0.3v-0.4
				c0.2,0,0.4-0.1,0.5-0.2c0.1-0.1,0.2-0.3,0.2-0.5c0-0.2-0.1-0.4-0.3-0.6c-0.2-0.1-0.4-0.2-0.8-0.2h-0.3c-0.3,0-0.6,0.1-0.7,0.2
				s-0.3,0.3-0.3,0.5c0,0.2,0,0.4,0.1,0.5s0.3,0.2,0.5,0.2V99.5z"/>
			<path fill="#FFFFFF" d="M154.6,101.7c-0.4,0-0.7-0.1-0.9-0.2s-0.3-0.4-0.3-0.7c0-0.3,0.1-0.5,0.3-0.7s0.5-0.2,0.9-0.2h0.5
				c0.4,0,0.7,0.1,0.9,0.2c0.2,0.1,0.3,0.4,0.3,0.7s-0.1,0.5-0.3,0.7s-0.5,0.2-0.9,0.2H154.6z M155.1,101.3c0.3,0,0.5,0,0.7-0.1
				s0.2-0.2,0.2-0.4c0-0.2-0.1-0.3-0.2-0.4s-0.4-0.1-0.6-0.1h-0.6c-0.3,0-0.5,0-0.7,0.1s-0.2,0.2-0.2,0.4c0,0.2,0.1,0.3,0.2,0.4
				s0.4,0.1,0.7,0.1H155.1z"/>
			<path fill="#FFFFFF" d="M154.1,103.8v-1.2l-0.7-0.3V102l2.8,1.1v0.3l-2.8,1.1v-0.4L154.1,103.8z M154.4,102.7v1l1.3-0.5
				L154.4,102.7z"/>
			<path fill="#FFFFFF" d="M154.4,106.5v-0.9h0.3v0.9H154.4z"/>
			<path fill="#FFFFFF" d="M154.5,108.3h-1.1v-0.4h2.8v1c0,0.3-0.1,0.5-0.2,0.7c-0.2,0.2-0.4,0.3-0.6,0.3c-0.3,0-0.5-0.1-0.6-0.3
				c-0.1-0.2-0.2-0.4-0.2-0.7V108.3z M154.8,108.3v0.7c0,0.2,0,0.4,0.1,0.5c0.1,0.1,0.2,0.2,0.4,0.2c0.2,0,0.3-0.1,0.4-0.2
				c0.1-0.1,0.2-0.3,0.2-0.4v-0.7H154.8z"/>
			<path fill="#FFFFFF" d="M154.3,111l-0.4,0.1l0.3,0.1l2,0.6v0.3l-2,0.5l-0.3,0.1l0.4,0.1l1.9,0.4v0.4l-2.8-0.7v-0.3l2.1-0.6l0.2,0
				l-0.2,0l-2.1-0.6v-0.3l2.8-0.7v0.4L154.3,111z"/>
			<path fill="#FFFFFF" d="M156.2,114.4l-2.3,0.9l2.3,0.9v0.5h-2.8v-0.4h1.1l1.2,0l-2.3-0.9v-0.3l2.3-0.9l-1.2,0h-1.1v-0.4h2.8
				V114.4z"/>
		</g>
		<g>
			<rect x="174.1" y="94.4" fill="none" width="3.8" height="22.6"/>
			<path fill="#FFFFFF" d="M176.3,96.9c-0.3,0-0.5,0-0.7-0.1s-0.4-0.2-0.5-0.4c-0.1-0.2-0.2-0.4-0.2-0.6c0-0.2,0.1-0.4,0.2-0.6
				s0.3-0.3,0.5-0.4c0.2-0.1,0.4-0.1,0.7-0.1h0.2c0.3,0,0.5,0,0.7,0.1c0.2,0.1,0.4,0.2,0.5,0.4c0.1,0.2,0.2,0.4,0.2,0.6
				c0,0.2-0.1,0.4-0.2,0.6c-0.1,0.2-0.3,0.3-0.5,0.4s-0.5,0.1-0.7,0.1H176.3z M176.5,96.5c0.3,0,0.6-0.1,0.8-0.2
				c0.2-0.1,0.3-0.3,0.3-0.6c0-0.2-0.1-0.4-0.3-0.6s-0.4-0.2-0.8-0.2h-0.2c-0.3,0-0.6,0.1-0.8,0.2c-0.2,0.1-0.3,0.3-0.3,0.6
				c0,0.2,0.1,0.4,0.3,0.6s0.4,0.2,0.8,0.2H176.5z"/>
			<path fill="#FFFFFF" d="M175.9,99.5c-0.3,0-0.5-0.1-0.7-0.3c-0.2-0.2-0.2-0.4-0.2-0.7c0-0.3,0.1-0.6,0.4-0.8s0.6-0.3,1-0.3h0.3
				c0.3,0,0.5,0,0.7,0.1c0.2,0.1,0.4,0.2,0.5,0.4s0.2,0.4,0.2,0.6c0,0.3-0.1,0.5-0.3,0.7s-0.4,0.3-0.7,0.3v-0.4
				c0.2,0,0.4-0.1,0.5-0.2c0.1-0.1,0.2-0.3,0.2-0.5c0-0.2-0.1-0.4-0.3-0.6c-0.2-0.1-0.4-0.2-0.8-0.2h-0.3c-0.3,0-0.6,0.1-0.7,0.2
				s-0.3,0.3-0.3,0.5c0,0.2,0,0.4,0.1,0.5s0.3,0.2,0.5,0.2V99.5z"/>
			<path fill="#FFFFFF" d="M175,101.8v-1.8h0.3l1.1,1c0.2,0.1,0.3,0.2,0.4,0.3s0.2,0.1,0.3,0.1c0.1,0,0.3,0,0.4-0.1
				c0.1-0.1,0.1-0.2,0.1-0.4c0-0.2-0.1-0.3-0.2-0.4s-0.2-0.1-0.4-0.1v-0.4c0.3,0,0.5,0.1,0.6,0.3c0.2,0.2,0.2,0.4,0.2,0.7
				c0,0.3-0.1,0.5-0.2,0.6s-0.3,0.2-0.6,0.2c-0.3,0-0.6-0.2-1-0.5l-0.8-0.8v1.4H175z"/>
			<path fill="#FFFFFF" d="M175,102.3h2.8v0.9c0,0.3-0.1,0.5-0.2,0.7s-0.3,0.2-0.6,0.2c-0.1,0-0.3,0-0.4-0.1
				c-0.1-0.1-0.2-0.2-0.2-0.3c0,0.2-0.1,0.3-0.2,0.4c-0.1,0.1-0.3,0.1-0.4,0.1c-0.3,0-0.5-0.1-0.6-0.2s-0.2-0.4-0.2-0.7V102.3z
				 M176.3,102.6h-1v0.6c0,0.2,0,0.3,0.1,0.4c0.1,0.1,0.2,0.1,0.4,0.1c0.3,0,0.5-0.2,0.5-0.6V102.6z M176.6,102.6v0.6
				c0,0.2,0,0.3,0.1,0.4s0.2,0.1,0.3,0.1c0.2,0,0.3,0,0.3-0.1c0.1-0.1,0.1-0.2,0.1-0.4v-0.5H176.6z"/>
			<path fill="#FFFFFF" d="M176,106.4v-0.9h0.3v0.9H176z"/>
			<path fill="#FFFFFF" d="M176.1,108.2H175v-0.4h2.8v1c0,0.3-0.1,0.5-0.2,0.7s-0.4,0.3-0.6,0.3c-0.3,0-0.5-0.1-0.6-0.3
				s-0.2-0.4-0.2-0.7V108.2z M176.4,108.2v0.7c0,0.2,0,0.4,0.1,0.5c0.1,0.1,0.2,0.2,0.4,0.2c0.2,0,0.3-0.1,0.4-0.2
				c0.1-0.1,0.2-0.3,0.2-0.4v-0.7H176.4z"/>
			<path fill="#FFFFFF" d="M175.9,110.9l-0.4,0.1l0.3,0.1l2,0.6v0.3l-2,0.5l-0.3,0.1l0.4,0.1l1.9,0.4v0.4l-2.8-0.7v-0.3l2.1-0.6
				l0.2,0l-0.2,0l-2.1-0.6v-0.3l2.8-0.7v0.4L175.9,110.9z"/>
			<path fill="#FFFFFF" d="M177.8,114.3l-2.3,0.9l2.3,0.9v0.5H175v-0.4h1.1l1.2,0l-2.3-0.9v-0.3l2.3-0.9l-1.2,0H175v-0.4h2.8V114.3z
				"/>
		</g>
		<g>
			<path fill="#FFFFFF" d="M163,130.2v-0.9h-2.5v-0.4h2.5V128h0.3v2.2H163z"/>
			<path fill="#FFFFFF" d="M160.5,131.7v-0.4h2.4l-0.3-0.7h0.3l0.4,1v0.1H160.5z"/>
		</g>
		<g>
			<path fill="#FFFFFF" d="M154.1,125.1v-1.2l-0.7-0.3v-0.4l2.8,1.1v0.3l-2.8,1.1v-0.4L154.1,125.1z M154.4,124v1l1.3-0.5L154.4,124
				z"/>
			<path fill="#FFFFFF" d="M153.4,126.5v-0.4h2.8v0.4H153.4z"/>
			<path fill="#FFFFFF" d="M153.4,129.4V129l2.2-1.4h-2.2v-0.4h2.8v0.4L154,129h2.2v0.4H153.4z"/>
			<path fill="#FFFFFF" d="M154.6,131.7c-0.4,0-0.7-0.1-0.9-0.2c-0.2-0.1-0.3-0.4-0.3-0.7c0-0.3,0.1-0.5,0.3-0.7s0.5-0.2,0.9-0.2
				h0.5c0.4,0,0.7,0.1,0.9,0.2c0.2,0.1,0.3,0.4,0.3,0.7c0,0.3-0.1,0.5-0.3,0.7c-0.2,0.1-0.5,0.2-0.9,0.2H154.6z M155.1,131.3
				c0.3,0,0.5,0,0.7-0.1c0.1-0.1,0.2-0.2,0.2-0.4c0-0.2-0.1-0.3-0.2-0.4s-0.4-0.1-0.6-0.1h-0.6c-0.3,0-0.5,0-0.7,0.1
				c-0.1,0.1-0.2,0.2-0.2,0.4c0,0.2,0.1,0.3,0.2,0.4s0.4,0.1,0.7,0.1H155.1z"/>
		</g>
		<g>
			<path fill="#FFFFFF" d="M146.9,125.7v-1.2l-0.7-0.3v-0.4l2.8,1.1v0.3l-2.8,1.1v-0.4L146.9,125.7z M147.2,124.6v1l1.3-0.5
				L147.2,124.6z"/>
			<path fill="#FFFFFF" d="M146.1,127.1v-0.4h2.8v0.4H146.1z"/>
			<path fill="#FFFFFF" d="M146.1,129.9v-0.4l2.2-1.4h-2.2v-0.4h2.8v0.4l-2.2,1.4h2.2v0.4H146.1z"/>
			<path fill="#FFFFFF" d="M146.1,131.7v-0.4h2.4l-0.3-0.7h0.3l0.4,1v0.1H146.1z"/>
		</g>
		<g>
			<path fill="#FFFFFF" d="M197.7,128.2v-0.7h-1.2v-0.4h2.8v0.9c0,0.3-0.1,0.6-0.2,0.7c-0.1,0.2-0.4,0.3-0.6,0.3
				c-0.2,0-0.3,0-0.5-0.1c-0.1-0.1-0.2-0.2-0.3-0.4l-1.2,0.7h0v-0.4L197.7,128.2z M198,127.6v0.6c0,0.2,0,0.3,0.1,0.4
				s0.2,0.2,0.4,0.2c0.2,0,0.3-0.1,0.4-0.2c0.1-0.1,0.1-0.3,0.1-0.5v-0.6H198z"/>
			<path fill="#FFFFFF" d="M198.3,130.6l1.1,0.7v0.4l-1.4-0.9l-1.4,0.9v-0.4l1.1-0.7l-1.1-0.7v-0.4l1.4,0.9l1.4-0.9v0.4L198.3,130.6
				z"/>
		</g>
		<g>
			<path fill="#FFFFFF" d="M191.9,129.2v-0.9h-2.5v-0.4h2.5V127h0.3v2.2H191.9z"/>
			<path fill="#FFFFFF" d="M191.1,130.5l1.1,0.7v0.4l-1.4-0.9l-1.4,0.9v-0.4l1.1-0.7l-1.1-0.7v-0.4l1.4,0.9l1.4-0.9v0.4L191.1,130.5
				z"/>
		</g>
		<g>
			<path fill="#FFFFFF" d="M182.2,124.2v-0.4h2.8v0.4H182.2z"/>
			<path fill="#FFFFFF" d="M182.2,127v-0.4l2.2-1.4h-2.2v-0.4h2.8v0.4l-2.2,1.4h2.2v0.4H182.2z"/>
			<path fill="#FFFFFF" d="M184.7,129.6v-0.9h-2.5v-0.4h2.5v-0.9h0.3v2.2H184.7z"/>
			<path fill="#FFFFFF" d="M183.4,131.7c-0.4,0-0.7-0.1-0.9-0.2s-0.3-0.4-0.3-0.7c0-0.3,0.1-0.5,0.3-0.7s0.5-0.2,0.9-0.2h0.5
				c0.4,0,0.7,0.1,0.9,0.2c0.2,0.1,0.3,0.4,0.3,0.7s-0.1,0.5-0.3,0.7s-0.5,0.2-0.9,0.2H183.4z M183.9,131.3c0.3,0,0.5,0,0.7-0.1
				s0.2-0.2,0.2-0.4c0-0.2-0.1-0.3-0.2-0.4s-0.4-0.1-0.6-0.1h-0.6c-0.3,0-0.5,0-0.7,0.1s-0.2,0.2-0.2,0.4c0,0.2,0.1,0.3,0.2,0.4
				s0.4,0.1,0.7,0.1H183.9z"/>
		</g>
		<g>
			<path fill="#FFFFFF" d="M167.8,136.8h2.8v0.8c0,0.2-0.1,0.5-0.2,0.7s-0.3,0.3-0.5,0.4c-0.2,0.1-0.4,0.2-0.7,0.2h-0.2
				c-0.3,0-0.5-0.1-0.7-0.2c-0.2-0.1-0.4-0.3-0.5-0.4s-0.2-0.4-0.2-0.7V136.8z M170.3,137.2h-2.2v0.4c0,0.3,0.1,0.5,0.3,0.7
				c0.2,0.2,0.4,0.2,0.8,0.2h0.2c0.3,0,0.6-0.1,0.8-0.2c0.2-0.2,0.3-0.4,0.3-0.6V137.2z"/>
			<path fill="#FFFFFF" d="M168.7,140.8v0.4h-0.3v-0.4h-0.7v-0.4h0.7v-1.3h0.2l2,1.3v0.4H168.7z M168.7,139.6v0.9h1.4l-0.1,0
				L168.7,139.6z"/>
		</g>
		<g>
			<path fill="#FFFFFF" d="M160.5,136.8h2.8v0.8c0,0.2-0.1,0.5-0.2,0.7s-0.3,0.3-0.5,0.4c-0.2,0.1-0.4,0.2-0.7,0.2h-0.2
				c-0.3,0-0.5-0.1-0.7-0.2c-0.2-0.1-0.4-0.3-0.5-0.4s-0.2-0.4-0.2-0.7V136.8z M163,137.2h-2.2v0.4c0,0.3,0.1,0.5,0.3,0.7
				c0.2,0.2,0.4,0.2,0.8,0.2h0.2c0.3,0,0.6-0.1,0.8-0.2c0.2-0.2,0.3-0.4,0.3-0.6V137.2z"/>
			<path fill="#FFFFFF" d="M161.9,139.5l1.4,0.1v1.4H163v-1.1l-0.8-0.1c0.1,0.1,0.1,0.3,0.1,0.5c0,0.3-0.1,0.5-0.3,0.6
				c-0.2,0.2-0.4,0.2-0.7,0.2c-0.3,0-0.5-0.1-0.7-0.2s-0.3-0.4-0.3-0.7c0-0.3,0.1-0.5,0.2-0.6s0.3-0.2,0.6-0.3v0.3
				c-0.2,0-0.3,0.1-0.4,0.2s-0.1,0.2-0.1,0.4c0,0.2,0.1,0.3,0.2,0.4s0.3,0.1,0.5,0.1c0.2,0,0.3-0.1,0.5-0.2c0.1-0.1,0.2-0.2,0.2-0.4
				c0-0.2,0-0.3-0.1-0.4l-0.1-0.1L161.9,139.5z"/>
		</g>
		<g>
			<path fill="#FFFFFF" d="M153.4,136.8h2.8v0.8c0,0.2-0.1,0.5-0.2,0.7s-0.3,0.3-0.5,0.4c-0.2,0.1-0.4,0.2-0.7,0.2h-0.2
				c-0.3,0-0.5-0.1-0.7-0.2c-0.2-0.1-0.4-0.3-0.5-0.4s-0.2-0.4-0.2-0.7V136.8z M155.9,137.2h-2.2v0.4c0,0.3,0.1,0.5,0.3,0.7
				c0.2,0.2,0.4,0.2,0.8,0.2h0.2c0.3,0,0.6-0.1,0.8-0.2c0.2-0.2,0.3-0.4,0.3-0.6V137.2z"/>
			<path fill="#FFFFFF" d="M156.2,140.7h-0.3v-0.1c0-0.3-0.1-0.5-0.3-0.7s-0.4-0.3-0.7-0.3c0.2,0.1,0.3,0.4,0.3,0.6
				c0,0.2-0.1,0.4-0.3,0.6s-0.4,0.2-0.7,0.2c-0.3,0-0.5-0.1-0.7-0.2s-0.3-0.4-0.3-0.6c0-0.3,0.1-0.5,0.3-0.7
				c0.2-0.2,0.5-0.3,0.8-0.3h0.1c0.5,0,0.9,0.1,1.2,0.3S156.2,140.2,156.2,140.7L156.2,140.7z M154.9,140.3c0-0.1,0-0.2-0.1-0.3
				c-0.1-0.1-0.2-0.2-0.3-0.2h-0.1c-0.2,0-0.4,0.1-0.6,0.2s-0.2,0.2-0.2,0.4c0,0.2,0.1,0.3,0.2,0.4c0.1,0.1,0.3,0.1,0.5,0.1
				c0.2,0,0.4,0,0.5-0.1S154.9,140.4,154.9,140.3z"/>
		</g>
		<g>
			<path fill="#FFFFFF" d="M146.1,136.8h2.8v0.8c0,0.2-0.1,0.5-0.2,0.7s-0.3,0.3-0.5,0.4c-0.2,0.1-0.4,0.2-0.7,0.2h-0.2
				c-0.3,0-0.5-0.1-0.7-0.2c-0.2-0.1-0.4-0.3-0.5-0.4s-0.2-0.4-0.2-0.7V136.8z M148.7,137.2h-2.2v0.4c0,0.3,0.1,0.5,0.3,0.7
				c0.2,0.2,0.4,0.2,0.8,0.2h0.2c0.3,0,0.6-0.1,0.8-0.2c0.2-0.2,0.3-0.4,0.3-0.6V137.2z"/>
			<path fill="#FFFFFF" d="M148.8,141.1l-2.6-1.2v-0.4l2.5,1.2v-1.5h0.3v1.9H148.8z"/>
		</g>
		<g>
			<path fill="#FFFFFF" d="M196.5,136.8h2.8v0.8c0,0.2-0.1,0.5-0.2,0.7s-0.3,0.3-0.5,0.4c-0.2,0.1-0.4,0.2-0.7,0.2h-0.2
				c-0.3,0-0.5-0.1-0.7-0.2c-0.2-0.1-0.4-0.3-0.5-0.4s-0.2-0.4-0.2-0.7V136.8z M199,137.2h-2.2v0.4c0,0.3,0.1,0.5,0.3,0.7
				c0.2,0.2,0.4,0.2,0.8,0.2h0.2c0.3,0,0.6-0.1,0.8-0.2c0.2-0.2,0.3-0.4,0.3-0.6V137.2z"/>
			<path fill="#FFFFFF" d="M197.7,141.1c-0.4,0-0.7-0.1-0.9-0.2c-0.2-0.1-0.3-0.4-0.3-0.7c0-0.3,0.1-0.5,0.3-0.7s0.5-0.2,0.9-0.2
				h0.5c0.4,0,0.7,0.1,0.9,0.2s0.3,0.4,0.3,0.7c0,0.3-0.1,0.5-0.3,0.7c-0.2,0.1-0.5,0.2-0.9,0.2H197.7z M198.2,140.7
				c0.3,0,0.5,0,0.7-0.1c0.1-0.1,0.2-0.2,0.2-0.4c0-0.2-0.1-0.3-0.2-0.4s-0.4-0.1-0.6-0.1h-0.6c-0.3,0-0.5,0-0.7,0.1
				c-0.1,0.1-0.2,0.2-0.2,0.4c0,0.2,0.1,0.3,0.2,0.4s0.4,0.1,0.7,0.1H198.2z"/>
		</g>
		<g>
			<path fill="#FFFFFF" d="M189.3,136.8h2.8v0.8c0,0.2-0.1,0.5-0.2,0.7s-0.3,0.3-0.5,0.4c-0.2,0.1-0.4,0.2-0.7,0.2h-0.2
				c-0.3,0-0.5-0.1-0.7-0.2c-0.2-0.1-0.4-0.3-0.5-0.4s-0.2-0.4-0.2-0.7V136.8z M191.9,137.2h-2.2v0.4c0,0.3,0.1,0.5,0.3,0.7
				c0.2,0.2,0.4,0.2,0.8,0.2h0.2c0.3,0,0.6-0.1,0.8-0.2c0.2-0.2,0.3-0.4,0.3-0.6V137.2z"/>
			<path fill="#FFFFFF" d="M189.3,140.5v-0.4h2.4l-0.3-0.7h0.3l0.4,1v0.1H189.3z"/>
		</g>
		<g>
			<path fill="#FFFFFF" d="M182.2,136.8h2.8v0.8c0,0.2-0.1,0.5-0.2,0.7s-0.3,0.3-0.5,0.4c-0.2,0.1-0.4,0.2-0.7,0.2h-0.2
				c-0.3,0-0.5-0.1-0.7-0.2c-0.2-0.1-0.4-0.3-0.5-0.4s-0.2-0.4-0.2-0.7V136.8z M184.7,137.2h-2.2v0.4c0,0.3,0.1,0.5,0.3,0.7
				c0.2,0.2,0.4,0.2,0.8,0.2h0.2c0.3,0,0.6-0.1,0.8-0.2c0.2-0.2,0.3-0.4,0.3-0.6V137.2z"/>
			<path fill="#FFFFFF" d="M182.2,141.1v-1.8h0.3l1.1,1c0.2,0.1,0.3,0.2,0.4,0.3s0.2,0.1,0.3,0.1c0.1,0,0.3,0,0.4-0.1
				s0.1-0.2,0.1-0.4c0-0.2-0.1-0.3-0.2-0.4s-0.2-0.1-0.4-0.1v-0.4c0.3,0,0.5,0.1,0.6,0.3s0.2,0.4,0.2,0.7c0,0.3-0.1,0.5-0.2,0.6
				s-0.3,0.2-0.6,0.2c-0.3,0-0.6-0.2-1-0.5l-0.8-0.8v1.4H182.2z"/>
		</g>
		<g>
			<rect x="174.1" y="124" fill="none" width="3.8" height="9.5"/>
			<path fill="#FFFFFF" d="M175,124.8v-0.4h2.8v0.4H175z"/>
			<path fill="#FFFFFF" d="M175,127.6v-0.4l2.2-1.4H175v-0.4h2.8v0.4l-2.2,1.4h2.2v0.4H175z"/>
			<path fill="#FFFFFF" d="M177.5,130.2v-0.9H175v-0.4h2.5V128h0.3v2.2H177.5z"/>
			<path fill="#FFFFFF" d="M175,131.7v-0.4h2.4l-0.3-0.7h0.3l0.4,1v0.1H175z"/>
		</g>
		<g>
			<rect x="174.1" y="136.5" fill="none" width="3.8" height="4.9"/>
			<path fill="#FFFFFF" d="M175,136.8h2.8v0.8c0,0.2-0.1,0.5-0.2,0.7c-0.1,0.2-0.3,0.3-0.5,0.4s-0.4,0.2-0.7,0.2h-0.2
				c-0.3,0-0.5-0.1-0.7-0.2s-0.4-0.3-0.5-0.4c-0.1-0.2-0.2-0.4-0.2-0.7V136.8z M177.5,137.2h-2.2v0.4c0,0.3,0.1,0.5,0.3,0.7
				c0.2,0.2,0.4,0.2,0.8,0.2h0.2c0.3,0,0.6-0.1,0.8-0.2c0.2-0.2,0.3-0.4,0.3-0.6V137.2z"/>
			<path fill="#FFFFFF" d="M176.6,139.9v0.3c0,0.2,0,0.3,0.1,0.4s0.2,0.1,0.4,0.1c0.3,0,0.5-0.2,0.5-0.5c0-0.2,0-0.3-0.1-0.4
				c-0.1-0.1-0.2-0.1-0.4-0.1v-0.4c0.2,0,0.4,0.1,0.6,0.2c0.1,0.2,0.2,0.4,0.2,0.6c0,0.3-0.1,0.5-0.2,0.6s-0.3,0.2-0.6,0.2
				c-0.1,0-0.2,0-0.4-0.1s-0.2-0.2-0.3-0.3c0,0.2-0.1,0.3-0.2,0.4c-0.1,0.1-0.3,0.1-0.4,0.1c-0.3,0-0.5-0.1-0.6-0.3
				c-0.1-0.2-0.2-0.4-0.2-0.7c0-0.3,0.1-0.5,0.2-0.7c0.1-0.2,0.3-0.3,0.6-0.3v0.4c-0.1,0-0.3,0-0.4,0.1s-0.1,0.2-0.1,0.4
				c0,0.2,0,0.3,0.1,0.4c0.1,0.1,0.2,0.1,0.4,0.1c0.2,0,0.3-0.1,0.4-0.2s0.1-0.2,0.1-0.4v-0.3H176.6z"/>
		</g>
		<g>
			<polyline fill="none" stroke="#FFFFFF" stroke-width="0.25" stroke-miterlimit="10" points="188,123.8 188,122.3 200.8,122.3 
				200.8,123.8 			"/>
		</g>
		<g>
			
				<rect x="188.5" y="117.5" fill="#FFFFFF" stroke="#FFFFFF" stroke-width="0.4104" stroke-miterlimit="10" width="11.7" height="4.2"/>
			<g>
				<rect x="188.5" y="118" fill="none" width="11.7" height="3.5"/>
				<path d="M197.6,121.3v-2.2c0-0.3,0.1-0.6,0.3-0.7c0.2-0.2,0.4-0.3,0.8-0.3l0.1,0c0.4,0,0.6,0.1,0.8,0.3s0.3,0.5,0.3,0.8v2.2
					h-0.4v-2.2c0-0.2-0.1-0.4-0.2-0.5c-0.1-0.1-0.3-0.2-0.6-0.2c-0.2,0-0.4,0.1-0.6,0.2c-0.1,0.1-0.2,0.3-0.2,0.5v2.2H197.6z"/>
				<path d="M195,118.9h1.4l0.3-0.8h0.4l-1.2,3.2h-0.4l-1.2-3.2h0.4L195,118.9z M196.2,119.3h-1.1l0.6,1.5L196.2,119.3z"/>
				<path d="M192.4,119.4h0.8v-1.3h0.4v3.2h-1.1c-0.4,0-0.6-0.1-0.8-0.2c-0.2-0.2-0.3-0.4-0.3-0.7c0-0.2,0.1-0.4,0.2-0.5
					s0.3-0.3,0.5-0.3l-0.8-1.4v0h0.5L192.4,119.4z M193.2,119.7h-0.7c-0.2,0-0.4,0.1-0.5,0.2c-0.1,0.1-0.2,0.3-0.2,0.4
					c0,0.2,0.1,0.4,0.2,0.5c0.1,0.1,0.3,0.2,0.5,0.2h0.7V119.7z"/>
				<path d="M188.6,120.9h1v-2.9h0.4v2.9h1v0.3h-2.5V120.9z"/>
			</g>
		</g>
		<polyline fill="none" stroke="#FFFFFF" stroke-width="0.25" stroke-miterlimit="10" points="159.2,123.8 159.2,122.3 172,122.3 
			172,123.8 		"/>
		<polyline fill="none" stroke="#FFFFFF" stroke-width="0.25" stroke-miterlimit="10" points="173.6,123.8 173.6,122.3 186.4,122.3 
			186.4,123.8 		"/>
	</g>
	<g>
		<path fill="#0D0E0F" d="M91.8,135.6c-0.1-0.1-0.2-0.2-0.3-0.4s-0.1-0.4-0.1-0.6c0-0.2,0.1-0.4,0.2-0.6s0.3-0.3,0.5-0.4
			c0.2-0.1,0.4-0.1,0.7-0.2H93c0.4,0,0.8,0.1,1,0.3s0.4,0.5,0.4,0.8c0,0.3-0.1,0.5-0.2,0.7c-0.2,0.2-0.4,0.3-0.6,0.3v-0.4
			c0.4-0.1,0.6-0.3,0.6-0.7c0-0.2-0.1-0.4-0.3-0.6c-0.2-0.1-0.4-0.2-0.8-0.2h-0.2c-0.3,0-0.6,0.1-0.8,0.2c-0.2,0.1-0.3,0.3-0.3,0.6
			c0,0.1,0,0.3,0,0.4s0.1,0.2,0.2,0.3h0.6v-0.7h0.3v1H91.8z"/>
		<path fill="#0D0E0F" d="M91.5,138.4V138l2.2-1.4h-2.2v-0.4h2.8v0.4l-2.2,1.4h2.2v0.4H91.5z"/>
		<path fill="#0D0E0F" d="M91.5,139h2.8v0.8c0,0.2-0.1,0.5-0.2,0.7s-0.3,0.3-0.5,0.4s-0.4,0.2-0.7,0.2h-0.2c-0.3,0-0.5-0.1-0.7-0.2
			s-0.4-0.2-0.5-0.4s-0.2-0.4-0.2-0.7V139z M94,139.4h-2.2v0.4c0,0.3,0.1,0.5,0.3,0.7c0.2,0.2,0.4,0.2,0.8,0.2H93
			c0.3,0,0.6-0.1,0.8-0.2c0.2-0.2,0.3-0.4,0.3-0.6V139.4z"/>
	</g>
</g>
<g>
</g>
<g>
</g>
<g>
</g>
<g>
</g>
<g>
</g>
<g>
</g>
</svg>
