<?xml version="1.0" encoding="utf-8"?>
<!-- Generator: Adobe Illustrator 23.1.0, SVG Export Plug-In . SVG Version: 6.00 Build 0)  -->
<svg version="1.1" xmlns="http://www.w3.org/2000/svg" xmlns:xlink="http://www.w3.org/1999/xlink" x="0px" y="0px"
	 viewBox="0 0 85.04 86.4" style="enable-background:new 0 0 85.04 86.4;" xml:space="preserve">
<style type="text/css">
	.st0{fill:#E6E5E1;}
	.st1{fill:#131415;}
	.st2{fill:#0C0D0E;}
	.st3{fill:none;stroke:#CACACA;stroke-width:0.75;stroke-miterlimit:10;}
	.st4{fill:#A19D9E;}
	.st5{fill:#36322F;}
	.st6{fill:#B6B6B5;}
	.st7{fill:#D1C9BE;}
	.st8{fill:#958E85;}
	.st9{fill:none;stroke:#F6F6F7;stroke-width:0.75;stroke-miterlimit:10;}
	.st10{fill:#D0C9BD;}
	.st11{fill:#9B7844;}
	.st12{fill:#48423C;}
	.st13{fill:#CEC5BA;}
	.st14{fill:none;stroke:#E5E5E5;stroke-miterlimit:10;}
	.st15{fill:none;stroke:#C9C8C8;stroke-miterlimit:10;}
	.st16{fill:#4A4A4A;}
	.st17{fill:#2F2F30;stroke:#4C4C4C;stroke-width:0.5;stroke-miterlimit:10;}
	.st18{fill:#010203;}
	.st19{fill:#818181;}
	.st20{fill:#181311;}
	.st21{fill:#F0EFEF;}
	.st22{fill:#E3E2E3;}
	.st23{fill:#2F2F30;}
	.st24{fill:#F6F6F7;}
	.st25{fill:#E3E3E3;}
</style>
<g id="Слой_11">
	<g>
		<path class="st0" d="M49.26,5.4c-0.36,0-0.64-0.08-0.84-0.24c-0.21-0.16-0.31-0.39-0.31-0.67c0-0.16,0.04-0.3,0.13-0.41
			c0.08-0.12,0.21-0.21,0.38-0.28c-0.19-0.05-0.32-0.15-0.4-0.27s-0.12-0.28-0.12-0.47V2.88c0-0.07-0.01-0.12-0.04-0.16
			s-0.07-0.06-0.14-0.07l-0.08-0.01V2.26h0.33c0.21,0,0.35,0.06,0.44,0.17s0.13,0.25,0.13,0.43v0.18c0,0.15,0.04,0.27,0.12,0.36
			c0.08,0.09,0.2,0.13,0.35,0.14h0.52V2.7l-0.34-0.06V2.26h1.31v0.38L50.34,2.7v2.25l0.34,0.06V5.4h-0.34H49.26z M49.71,4.01h-0.44
			c-0.18,0-0.31,0.04-0.4,0.11s-0.13,0.18-0.13,0.32s0.04,0.25,0.13,0.34s0.22,0.13,0.39,0.13h0.45V4.01z"/>
		<path class="st0" d="M46.35,5.4V5.02l0.34-0.06V3.32c0-0.21-0.06-0.36-0.17-0.46c-0.11-0.1-0.27-0.15-0.46-0.15
			c-0.2,0-0.35,0.05-0.47,0.15c-0.11,0.1-0.17,0.26-0.17,0.47v1.64l0.34,0.06V5.4h-1.31V5.02l0.34-0.06V3.32
			c0-0.35,0.12-0.62,0.35-0.81s0.54-0.29,0.92-0.29s0.68,0.09,0.92,0.29s0.35,0.46,0.35,0.81v1.64l0.34,0.06V5.4h-0.34h-0.63H46.35z
			"/>
		<path class="st0" d="M41.86,4.4h0.48l0.08,0.43c0.05,0.03,0.14,0.06,0.24,0.09c0.11,0.03,0.22,0.04,0.34,0.04
			c0.17,0,0.31-0.04,0.4-0.11c0.1-0.07,0.14-0.17,0.14-0.28c0-0.11-0.05-0.19-0.15-0.26s-0.27-0.14-0.51-0.22
			c-0.35-0.1-0.61-0.22-0.79-0.38c-0.18-0.16-0.27-0.37-0.27-0.62c0-0.27,0.11-0.48,0.32-0.64s0.5-0.23,0.85-0.23
			c0.25,0,0.48,0.04,0.68,0.12c0.2,0.08,0.37,0.19,0.5,0.33v0.66h-0.49L43.6,2.87c-0.06-0.05-0.15-0.09-0.26-0.13
			c-0.11-0.03-0.23-0.05-0.37-0.05c-0.17,0-0.31,0.04-0.4,0.11c-0.09,0.07-0.14,0.17-0.14,0.28c0,0.12,0.04,0.22,0.13,0.29
			c0.09,0.07,0.24,0.14,0.45,0.21c0.38,0.11,0.66,0.24,0.85,0.38c0.19,0.15,0.29,0.35,0.29,0.61c0,0.25-0.11,0.46-0.33,0.62
			c-0.22,0.16-0.49,0.24-0.82,0.25c-0.24,0-0.46-0.04-0.67-0.11c-0.2-0.07-0.37-0.17-0.5-0.29V4.4z"/>
		<path class="st0" d="M39.16,4.4h0.48l0.08,0.43c0.05,0.03,0.14,0.06,0.24,0.09c0.11,0.03,0.22,0.04,0.34,0.04
			c0.17,0,0.31-0.04,0.4-0.11c0.1-0.07,0.14-0.17,0.14-0.28c0-0.11-0.05-0.19-0.15-0.26s-0.27-0.14-0.51-0.22
			c-0.35-0.1-0.61-0.22-0.79-0.38c-0.18-0.16-0.27-0.37-0.27-0.62c0-0.27,0.11-0.48,0.32-0.64s0.5-0.23,0.85-0.23
			c0.25,0,0.48,0.04,0.68,0.12c0.2,0.08,0.37,0.19,0.5,0.33v0.66h-0.49l-0.07-0.45c-0.06-0.05-0.15-0.09-0.26-0.13
			c-0.11-0.03-0.23-0.05-0.37-0.05c-0.17,0-0.31,0.04-0.4,0.11c-0.09,0.07-0.14,0.17-0.14,0.28c0,0.12,0.04,0.22,0.13,0.29
			c0.09,0.07,0.24,0.14,0.45,0.21c0.38,0.11,0.66,0.24,0.85,0.38c0.19,0.15,0.29,0.35,0.29,0.61c0,0.25-0.11,0.46-0.33,0.62
			c-0.22,0.16-0.49,0.24-0.82,0.25c-0.24,0-0.46-0.04-0.67-0.11c-0.2-0.07-0.37-0.17-0.5-0.29V4.4z"/>
		<path class="st0" d="M38.86,5.02V5.4h-1.31V5.02l0.34-0.06V2.7l-0.34-0.06V2.26h1.31v0.38L38.52,2.7v2.25L38.86,5.02z"/>
		<path class="st0" d="M37.35,2.64l-0.23,0.03L36.16,5.4h-0.65l-0.96-2.73l-0.23-0.03V2.26h1.08v0.38l-0.22,0.04l0.14,0.43h1.02
			l0.14-0.43l-0.22-0.04V2.26h1.08V2.64z M36.2,3.57h-0.73l0.36,1.1h0.01L36.2,3.57z"/>
	</g>
	<path class="st1" d="M0,0v85.04h85.04V0H0z M9.92,79.51c-2.43,0-4.39-1.97-4.39-4.39c0-2.43,1.97-4.39,4.39-4.39
		c2.43,0,4.39,1.97,4.39,4.39C14.31,77.54,12.35,79.51,9.92,79.51z M9.92,14.31c-2.43,0-4.39-1.97-4.39-4.39
		c0-2.43,1.97-4.39,4.39-4.39c2.43,0,4.39,1.97,4.39,4.39C14.31,12.35,12.35,14.31,9.92,14.31z M75.12,79.51
		c-2.43,0-4.39-1.97-4.39-4.39c0-2.43,1.97-4.39,4.39-4.39c2.43,0,4.39,1.97,4.39,4.39C79.51,77.54,77.54,79.51,75.12,79.51z
		 M75.12,14.31c-2.43,0-4.39-1.97-4.39-4.39c0-2.43,1.97-4.39,4.39-4.39c2.43,0,4.39,1.97,4.39,4.39
		C79.51,12.35,77.54,14.31,75.12,14.31z M78.1,38.49c0,0.7-0.56,1.26-1.26,1.26c-0.7,0-1.26-0.56-1.26-1.26
		c0-0.7,0.56-1.26,1.26-1.26C77.54,37.23,78.1,37.8,78.1,38.49z M81.7,38.49c0,0.7-0.56,1.26-1.26,1.26s-1.26-0.56-1.26-1.26
		c0-0.7,0.56-1.26,1.26-1.26S81.7,37.8,81.7,38.49z M78.1,42.18c0,0.7-0.56,1.26-1.26,1.26c-0.7,0-1.26-0.56-1.26-1.26
		c0-0.7,0.56-1.26,1.26-1.26C77.54,40.92,78.1,41.49,78.1,42.18z M81.7,42.18c0,0.7-0.56,1.26-1.26,1.26s-1.26-0.56-1.26-1.26
		c0-0.7,0.56-1.26,1.26-1.26S81.7,41.49,81.7,42.18z M78.1,45.75c0,0.7-0.56,1.26-1.26,1.26c-0.7,0-1.26-0.56-1.26-1.26
		c0-0.7,0.56-1.26,1.26-1.26C77.54,44.49,78.1,45.06,78.1,45.75z M81.7,45.75c0,0.7-0.56,1.26-1.26,1.26s-1.26-0.56-1.26-1.26
		c0-0.7,0.56-1.26,1.26-1.26S81.7,45.06,81.7,45.75z"/>
	<rect x="58.39" y="15.1" class="st0" width="8.14" height="4.41"/>
	<g>
		<path class="st2" d="M59.26,15.96V15.7h1.09v0.26l-0.34,0.06v2.37l0.34,0.06v0.26h-1.09v-0.26l0.34-0.06v-2.37L59.26,15.96z"/>
		<path class="st2" d="M60.7,18.71v-0.28l1-1.1c0.18-0.2,0.3-0.35,0.36-0.47s0.09-0.23,0.09-0.36c0-0.15-0.04-0.28-0.13-0.38
			c-0.09-0.1-0.21-0.15-0.35-0.15c-0.21,0-0.36,0.05-0.46,0.16c-0.1,0.11-0.15,0.26-0.15,0.45h-0.39l0-0.01
			c-0.01-0.26,0.08-0.48,0.26-0.65c0.18-0.18,0.43-0.26,0.75-0.26c0.27,0,0.49,0.08,0.66,0.24s0.24,0.36,0.24,0.6
			c0,0.17-0.05,0.33-0.15,0.49c-0.1,0.16-0.24,0.34-0.41,0.53l-0.8,0.86l0,0.01h1.08l0.03-0.35h0.35v0.67H60.7z"/>
		<path class="st2" d="M65.36,16.62h-0.29l-0.08-0.43c-0.07-0.06-0.15-0.12-0.25-0.16c-0.1-0.04-0.21-0.06-0.35-0.06
			c-0.32,0-0.56,0.11-0.73,0.34c-0.17,0.23-0.25,0.52-0.25,0.86v0.05c0,0.35,0.08,0.64,0.25,0.87c0.17,0.23,0.4,0.34,0.69,0.34
			c0.14,0,0.26-0.02,0.38-0.06c0.11-0.04,0.2-0.09,0.26-0.16l0.08-0.43h0.29v0.54c-0.09,0.11-0.22,0.21-0.39,0.3
			c-0.18,0.09-0.38,0.13-0.61,0.13c-0.4,0-0.72-0.15-0.97-0.44C63.13,18.03,63,17.67,63,17.23v-0.04c0-0.44,0.13-0.81,0.37-1.1
			s0.58-0.43,0.98-0.43c0.23,0,0.43,0.04,0.61,0.13c0.17,0.09,0.31,0.19,0.39,0.3V16.62z"/>
	</g>
	<circle class="st3" cx="76.84" cy="38.49" r="1.26"/>
	<circle class="st3" cx="80.44" cy="38.49" r="1.26"/>
	<circle class="st3" cx="76.84" cy="42.18" r="1.26"/>
	<circle class="st3" cx="80.44" cy="42.18" r="1.26"/>
	<circle class="st3" cx="76.84" cy="45.75" r="1.26"/>
	<circle class="st3" cx="80.44" cy="45.75" r="1.26"/>
</g>
<g id="Макет_TREMA">
	<g id="Креп._отверстия">
		<path class="st4" d="M9.92,3.95c-3.29,0-5.95,2.68-5.95,5.98c0,3.3,2.66,5.98,5.95,5.98c3.29,0,5.95-2.68,5.95-5.98
			C15.87,6.62,13.21,3.95,9.92,3.95z M9.92,14.31c-2.43,0-4.39-1.97-4.39-4.39c0-2.43,1.97-4.39,4.39-4.39
			c2.43,0,4.39,1.97,4.39,4.39C14.31,12.35,12.35,14.31,9.92,14.31z"/>
		<path class="st4" d="M75.12,3.95c-3.29,0-5.95,2.68-5.95,5.98c0,3.3,2.66,5.98,5.95,5.98c3.29,0,5.95-2.68,5.95-5.98
			C81.07,6.62,78.41,3.95,75.12,3.95z M75.12,14.31c-2.43,0-4.39-1.97-4.39-4.39c0-2.43,1.97-4.39,4.39-4.39
			c2.43,0,4.39,1.97,4.39,4.39C79.51,12.35,77.54,14.31,75.12,14.31z"/>
		<path class="st4" d="M9.92,69.14c-3.29,0-5.95,2.68-5.95,5.98c0,3.3,2.66,5.98,5.95,5.98c3.29,0,5.95-2.68,5.95-5.98
			C15.87,71.82,13.21,69.14,9.92,69.14z M9.92,79.51c-2.43,0-4.39-1.97-4.39-4.39c0-2.43,1.97-4.39,4.39-4.39
			c2.43,0,4.39,1.97,4.39,4.39C14.31,77.54,12.35,79.51,9.92,79.51z"/>
		<path class="st4" d="M75.12,69.14c-3.29,0-5.95,2.68-5.95,5.98c0,3.3,2.66,5.98,5.95,5.98c3.29,0,5.95-2.68,5.95-5.98
			C81.07,71.82,78.41,69.14,75.12,69.14z M75.12,79.51c-2.43,0-4.39-1.97-4.39-4.39c0-2.43,1.97-4.39,4.39-4.39
			c2.43,0,4.39,1.97,4.39,4.39C79.51,77.54,77.54,79.51,75.12,79.51z"/>
	</g>
</g>
<g id="Рисунок">
	<g>
		<path class="st0" d="M18.75,2.2V1.82h1.32V2.2l-0.34,0.06v2.27l0.34,0.06v0.38h-1.32V4.6l0.34-0.06V2.27L18.75,2.2z"/>
		<path class="st0" d="M20.35,4.99V4.57l1.03-1.1c0.15-0.17,0.25-0.31,0.32-0.43c0.06-0.12,0.09-0.22,0.09-0.32
			c0-0.13-0.04-0.24-0.11-0.33c-0.07-0.08-0.18-0.13-0.31-0.13c-0.15,0-0.26,0.05-0.34,0.15c-0.08,0.1-0.11,0.23-0.11,0.4h-0.62
			l0-0.01c-0.01-0.29,0.09-0.53,0.28-0.72c0.2-0.2,0.46-0.3,0.79-0.3c0.33,0,0.59,0.08,0.78,0.25s0.28,0.4,0.28,0.68
			c0,0.19-0.05,0.37-0.16,0.53C22.18,3.4,22,3.61,21.75,3.87l-0.57,0.61l0,0.01h0.83l0.03-0.31h0.49v0.8H20.35z"/>
		<path class="st0" d="M25.41,2.89h-0.48l-0.07-0.42c-0.06-0.06-0.14-0.11-0.24-0.15c-0.1-0.04-0.21-0.05-0.34-0.05
			c-0.28,0-0.49,0.1-0.64,0.3c-0.15,0.2-0.22,0.46-0.22,0.78v0.11c0,0.32,0.07,0.58,0.22,0.78c0.15,0.2,0.36,0.3,0.63,0.3
			c0.13,0,0.24-0.02,0.35-0.05c0.1-0.04,0.19-0.09,0.24-0.15l0.07-0.42h0.48v0.63c-0.13,0.15-0.29,0.27-0.49,0.35
			c-0.2,0.09-0.42,0.13-0.67,0.13c-0.43,0-0.78-0.15-1.05-0.44c-0.27-0.29-0.41-0.67-0.41-1.13V3.35c0-0.46,0.14-0.84,0.41-1.13
			c0.27-0.3,0.62-0.44,1.05-0.44c0.25,0,0.47,0.04,0.67,0.13c0.2,0.09,0.36,0.21,0.49,0.35V2.89z"/>
		<path class="st0" d="M29.42,2.89h-0.48l-0.07-0.42c-0.06-0.06-0.14-0.11-0.24-0.15c-0.1-0.04-0.21-0.05-0.34-0.05
			c-0.28,0-0.49,0.1-0.64,0.3c-0.15,0.2-0.22,0.46-0.22,0.78v0.11c0,0.32,0.07,0.58,0.22,0.78c0.15,0.2,0.36,0.3,0.63,0.3
			c0.13,0,0.24-0.02,0.35-0.05c0.1-0.04,0.19-0.09,0.24-0.15l0.07-0.42h0.48v0.63c-0.13,0.15-0.29,0.27-0.49,0.35
			c-0.2,0.09-0.42,0.13-0.67,0.13c-0.43,0-0.78-0.15-1.05-0.44C26.93,4.3,26.8,3.92,26.8,3.46V3.35c0-0.46,0.14-0.84,0.41-1.13
			c0.27-0.3,0.62-0.44,1.05-0.44c0.25,0,0.47,0.04,0.67,0.13c0.2,0.09,0.36,0.21,0.49,0.35V2.89z"/>
		<path class="st0" d="M29.71,2.2V1.82h1.32V2.2l-0.34,0.06v0.91h1.3V2.27L31.65,2.2V1.82h0.34h0.64h0.34V2.2l-0.34,0.06v2.27
			l0.34,0.06v0.38h-1.32V4.6l0.34-0.06V3.67h-1.3v0.87l0.34,0.06v0.38h-1.32V4.6l0.34-0.06V2.27L29.71,2.2z"/>
		<path class="st0" d="M33.19,4.6l0.23-0.03l0.97-2.75h0.66l0.96,2.75l0.23,0.03v0.38h-1.09V4.6l0.22-0.04l-0.14-0.43h-1.03
			l-0.14,0.43l0.22,0.04v0.38h-1.09V4.6z M34.34,3.66h0.73l-0.36-1.11H34.7L34.34,3.66z"/>
		<path class="st0" d="M39.7,1.82V2.2l-0.34,0.06v2.72h-0.64l-1.29-2.13l-0.01,0v1.68l0.34,0.06v0.38h-1.32V4.6l0.34-0.06V2.27
			L36.44,2.2V1.82h0.34h0.64l1.29,2.13l0.01,0V2.27L38.38,2.2V1.82h0.98H39.7z"/>
		<path class="st0" d="M42.56,4.63c-0.1,0.1-0.25,0.19-0.45,0.27s-0.45,0.12-0.75,0.12c-0.43,0-0.78-0.14-1.05-0.43
			c-0.27-0.29-0.41-0.66-0.41-1.12V3.38c0-0.47,0.13-0.86,0.4-1.16s0.61-0.45,1.04-0.45c0.25,0,0.48,0.04,0.69,0.12
			c0.21,0.08,0.38,0.19,0.52,0.32v0.64h-0.47l-0.09-0.42c-0.06-0.05-0.14-0.09-0.23-0.12c-0.1-0.03-0.21-0.04-0.33-0.04
			c-0.28,0-0.5,0.1-0.65,0.31c-0.16,0.2-0.23,0.47-0.23,0.8v0.11c0,0.32,0.08,0.58,0.23,0.77c0.15,0.19,0.37,0.29,0.66,0.29
			c0.13,0,0.23-0.01,0.31-0.03c0.08-0.02,0.14-0.05,0.19-0.08V3.9l-0.46-0.03V3.42h1.1V4.63z"/>
		<path class="st0" d="M44.94,3.59h-1.08v0.9h1.03l0.03-0.38h0.49v0.86h-2.53V4.6l0.34-0.06V2.27L42.88,2.2V1.82h0.34h2.18v0.87
			H44.9l-0.03-0.38h-1.02v0.79h1.08V3.59z"/>
		<path class="st0" d="M46.81,4.6l0.23-0.03l0.97-2.75h0.66l0.96,2.75l0.23,0.03v0.38h-1.09V4.6l0.22-0.04l-0.14-0.43h-1.03
			l-0.14,0.43l0.22,0.04v0.38h-1.09V4.6z M47.96,3.66h0.73l-0.36-1.11h-0.01L47.96,3.66z"/>
		<path class="st0" d="M51.5,1.82c0.39,0,0.71,0.12,0.96,0.37c0.25,0.25,0.38,0.56,0.38,0.95v0.52c0,0.39-0.13,0.71-0.38,0.95
			c-0.25,0.25-0.57,0.37-0.96,0.37h-1.43V4.6l0.34-0.06V2.27L50.06,2.2V1.82h0.34H51.5z M51.04,2.31V4.5h0.42
			c0.23,0,0.41-0.08,0.54-0.23c0.13-0.15,0.19-0.35,0.19-0.6V3.14c0-0.24-0.06-0.44-0.19-0.6c-0.13-0.15-0.31-0.23-0.54-0.23H51.04z
			"/>
		<path class="st0" d="M54.59,1.82c0.39,0,0.71,0.12,0.96,0.37c0.25,0.25,0.38,0.56,0.38,0.95v0.52c0,0.39-0.13,0.71-0.38,0.95
			c-0.25,0.25-0.57,0.37-0.96,0.37h-1.43V4.6l0.34-0.06V2.27L53.16,2.2V1.82h0.34H54.59z M54.14,2.31V4.5h0.42
			c0.23,0,0.41-0.08,0.54-0.23c0.13-0.15,0.19-0.35,0.19-0.6V3.14c0-0.24-0.06-0.44-0.19-0.6c-0.13-0.15-0.31-0.23-0.54-0.23H54.14z
			"/>
		<path class="st0" d="M57.68,1.82c0.36,0,0.65,0.08,0.85,0.25c0.21,0.16,0.31,0.39,0.31,0.68c0,0.16-0.04,0.3-0.13,0.41
			c-0.09,0.12-0.21,0.21-0.38,0.28c0.19,0.06,0.32,0.15,0.41,0.27c0.08,0.13,0.12,0.29,0.12,0.48v0.16c0,0.07,0.01,0.12,0.04,0.16
			c0.03,0.04,0.07,0.06,0.14,0.07l0.08,0.01v0.38h-0.33c-0.21,0-0.36-0.06-0.44-0.17c-0.08-0.11-0.13-0.26-0.13-0.43V4.21
			c0-0.15-0.04-0.27-0.12-0.36c-0.08-0.09-0.2-0.13-0.35-0.14h-0.52v0.83l0.34,0.06v0.38h-1.32V4.6l0.34-0.06V2.27L56.25,2.2V1.82
			h0.34H57.68z M57.23,3.22h0.44c0.18,0,0.31-0.04,0.4-0.11c0.09-0.08,0.13-0.18,0.13-0.33c0-0.14-0.04-0.25-0.13-0.34
			c-0.09-0.08-0.22-0.13-0.39-0.13h-0.45V3.22z"/>
		<path class="st0" d="M61.39,3.59h-1.08v0.9h1.03l0.03-0.38h0.49v0.86h-2.52V4.6l0.34-0.06V2.27L59.33,2.2V1.82h0.34h2.18v0.87
			h-0.49l-0.03-0.38h-1.02v0.79h1.08V3.59z"/>
		<path class="st0" d="M64.62,2.83h-0.48L64.06,2.4C64,2.36,63.92,2.33,63.82,2.31c-0.11-0.03-0.22-0.04-0.34-0.04
			c-0.18,0-0.31,0.04-0.41,0.11c-0.1,0.07-0.14,0.17-0.14,0.28c0,0.11,0.05,0.2,0.15,0.26c0.1,0.07,0.27,0.14,0.52,0.22
			c0.35,0.1,0.62,0.23,0.8,0.38c0.18,0.16,0.27,0.37,0.27,0.63c0,0.27-0.11,0.48-0.32,0.64c-0.22,0.16-0.5,0.23-0.85,0.23
			c-0.25,0-0.48-0.04-0.68-0.12s-0.37-0.19-0.51-0.33V3.92h0.5l0.07,0.45c0.06,0.05,0.15,0.1,0.26,0.13
			c0.11,0.03,0.23,0.05,0.37,0.05c0.18,0,0.31-0.04,0.4-0.11c0.09-0.07,0.14-0.17,0.14-0.28c0-0.12-0.04-0.22-0.13-0.29
			c-0.09-0.07-0.24-0.14-0.46-0.21c-0.38-0.11-0.67-0.24-0.86-0.39c-0.19-0.15-0.29-0.35-0.29-0.61c0-0.26,0.11-0.47,0.33-0.63
			c0.22-0.16,0.5-0.25,0.83-0.25c0.25,0,0.47,0.04,0.67,0.11c0.2,0.07,0.37,0.17,0.51,0.3V2.83z"/>
		<path class="st0" d="M67.34,2.83h-0.48L66.78,2.4c-0.06-0.03-0.14-0.07-0.24-0.09c-0.11-0.03-0.22-0.04-0.34-0.04
			c-0.18,0-0.31,0.04-0.41,0.11c-0.1,0.07-0.14,0.17-0.14,0.28c0,0.11,0.05,0.2,0.15,0.26c0.1,0.07,0.27,0.14,0.52,0.22
			c0.35,0.1,0.62,0.23,0.8,0.38c0.18,0.16,0.27,0.37,0.27,0.63c0,0.27-0.11,0.48-0.32,0.64c-0.22,0.16-0.5,0.23-0.85,0.23
			c-0.25,0-0.48-0.04-0.68-0.12s-0.37-0.19-0.51-0.33V3.92h0.5l0.07,0.45c0.06,0.05,0.15,0.1,0.26,0.13
			c0.11,0.03,0.23,0.05,0.37,0.05c0.18,0,0.31-0.04,0.4-0.11c0.09-0.07,0.14-0.17,0.14-0.28c0-0.12-0.04-0.22-0.13-0.29
			c-0.09-0.07-0.24-0.14-0.46-0.21c-0.38-0.11-0.67-0.24-0.86-0.39c-0.19-0.15-0.29-0.35-0.29-0.61c0-0.26,0.11-0.47,0.33-0.63
			c0.22-0.16,0.5-0.25,0.83-0.25c0.25,0,0.47,0.04,0.67,0.11c0.2,0.07,0.37,0.17,0.51,0.3V2.83z"/>
	</g>
	<g>
		<g id="XMLID_6_">
			<g>
				<rect x="63.62" y="40.43" class="st5" width="8.56" height="3.66"/>
			</g>
			<g>
			</g>
		</g>
		<g id="XMLID_18_">
			<g>
				<rect x="67.26" y="44.09" class="st4" width="1.61" height="2.35"/>
			</g>
			<g>
			</g>
		</g>
		<g id="XMLID_2_">
			<g>
				<rect x="64.61" y="44.09" class="st4" width="1.61" height="2.35"/>
			</g>
			<g>
			</g>
		</g>
		<g id="XMLID_13_">
			<g>
				<rect x="70.01" y="44.09" class="st4" width="1.61" height="2.35"/>
			</g>
			<g>
			</g>
		</g>
		<g id="XMLID_16_">
			<g>
				<rect x="64.29" y="38.35" class="st4" width="1.68" height="2.08"/>
			</g>
			<g>
			</g>
		</g>
		<g id="XMLID_17_">
			<g>
				<rect x="69.77" y="38.35" class="st4" width="1.68" height="2.08"/>
			</g>
			<g>
			</g>
		</g>
		<g>
			<path class="st6" d="M65.96,42.74h-0.22l-0.43-0.51h-0.24v0.51H64.9v-1.27h0.36c0.08,0,0.14,0,0.19,0.01
				c0.05,0.01,0.1,0.03,0.14,0.05c0.05,0.03,0.08,0.07,0.11,0.11c0.03,0.04,0.04,0.1,0.04,0.17c0,0.09-0.02,0.17-0.07,0.23
				c-0.05,0.06-0.11,0.11-0.19,0.14L65.96,42.74z M65.56,41.83c0-0.04-0.01-0.07-0.02-0.1c-0.01-0.03-0.04-0.05-0.06-0.07
				c-0.03-0.02-0.05-0.03-0.09-0.03c-0.03-0.01-0.07-0.01-0.12-0.01h-0.2v0.48h0.17c0.05,0,0.1,0,0.14-0.01
				c0.04-0.01,0.07-0.03,0.1-0.05c0.03-0.02,0.04-0.05,0.06-0.08C65.56,41.92,65.56,41.88,65.56,41.83z"/>
			<path class="st6" d="M66.99,41.62h-0.46v1.12h-0.17v-1.12H65.9v-0.15h1.09V41.62z"/>
			<path class="st6" d="M68,42.03c0,0.11-0.01,0.21-0.04,0.3s-0.06,0.17-0.12,0.23c-0.05,0.07-0.12,0.12-0.2,0.15
				c-0.08,0.04-0.17,0.05-0.28,0.05c-0.03,0-0.06,0-0.08,0c-0.03,0-0.05-0.01-0.07-0.02v-0.16h0.01c0.02,0.01,0.04,0.02,0.07,0.02
				c0.03,0.01,0.06,0.01,0.1,0.01c0.13,0,0.23-0.04,0.3-0.11s0.11-0.18,0.13-0.31c-0.05,0.03-0.1,0.05-0.15,0.07
				s-0.1,0.02-0.15,0.02c-0.05,0-0.1,0-0.14-0.02c-0.04-0.01-0.09-0.03-0.13-0.06c-0.05-0.03-0.09-0.08-0.11-0.13
				c-0.03-0.05-0.04-0.12-0.04-0.19c0-0.13,0.04-0.24,0.13-0.32c0.09-0.08,0.19-0.12,0.32-0.12c0.06,0,0.12,0.01,0.17,0.03
				c0.05,0.02,0.1,0.05,0.14,0.09c0.05,0.05,0.09,0.11,0.11,0.18C67.98,41.82,68,41.91,68,42.03z M67.82,41.99
				c0-0.09-0.01-0.16-0.03-0.21c-0.02-0.05-0.04-0.1-0.08-0.13c-0.03-0.03-0.05-0.04-0.09-0.05c-0.03-0.01-0.06-0.02-0.1-0.02
				c-0.08,0-0.15,0.03-0.2,0.08c-0.05,0.05-0.07,0.12-0.07,0.22c0,0.05,0.01,0.1,0.02,0.13s0.04,0.06,0.08,0.09
				c0.03,0.02,0.05,0.03,0.09,0.04c0.03,0.01,0.06,0.01,0.1,0.01c0.04,0,0.09-0.01,0.13-0.02c0.05-0.01,0.09-0.03,0.13-0.05
				c0-0.01,0-0.02,0-0.04C67.82,42.03,67.82,42.01,67.82,41.99z"/>
			<path class="st6" d="M69.04,42.74h-0.69v-0.13h0.27v-0.85h-0.27v-0.12c0.04,0,0.07,0,0.12-0.01c0.04-0.01,0.07-0.01,0.09-0.03
				c0.03-0.01,0.05-0.03,0.06-0.05c0.02-0.02,0.02-0.05,0.03-0.09h0.13v1.15h0.26V42.74z"/>
			<path class="st6" d="M70.24,42.03c0,0.11-0.01,0.21-0.04,0.3s-0.06,0.17-0.12,0.23c-0.05,0.07-0.12,0.12-0.2,0.15
				c-0.08,0.04-0.17,0.05-0.28,0.05c-0.03,0-0.06,0-0.08,0c-0.03,0-0.05-0.01-0.07-0.02v-0.16h0.01c0.02,0.01,0.04,0.02,0.07,0.02
				c0.03,0.01,0.06,0.01,0.1,0.01c0.13,0,0.23-0.04,0.3-0.11s0.11-0.18,0.13-0.31c-0.05,0.03-0.1,0.05-0.15,0.07
				s-0.1,0.02-0.15,0.02c-0.05,0-0.1,0-0.14-0.02c-0.04-0.01-0.09-0.03-0.13-0.06c-0.05-0.03-0.09-0.08-0.11-0.13
				c-0.03-0.05-0.04-0.12-0.04-0.19c0-0.13,0.04-0.24,0.13-0.32c0.09-0.08,0.19-0.12,0.32-0.12c0.06,0,0.12,0.01,0.17,0.03
				c0.05,0.02,0.1,0.05,0.14,0.09c0.05,0.05,0.09,0.11,0.11,0.18C70.23,41.82,70.24,41.91,70.24,42.03z M70.06,41.99
				c0-0.09-0.01-0.16-0.03-0.21c-0.02-0.05-0.04-0.1-0.08-0.13c-0.03-0.03-0.05-0.04-0.09-0.05c-0.03-0.01-0.06-0.02-0.1-0.02
				c-0.08,0-0.15,0.03-0.2,0.08c-0.05,0.05-0.07,0.12-0.07,0.22c0,0.05,0.01,0.1,0.02,0.13s0.04,0.06,0.08,0.09
				c0.03,0.02,0.05,0.03,0.09,0.04c0.03,0.01,0.06,0.01,0.1,0.01c0.04,0,0.09-0.01,0.13-0.02c0.05-0.01,0.09-0.03,0.13-0.05
				c0-0.01,0-0.02,0-0.04C70.06,42.03,70.06,42.01,70.06,41.99z"/>
			<path class="st6" d="M71.25,42.13c0.03,0.02,0.05,0.05,0.07,0.09s0.03,0.08,0.03,0.14s-0.01,0.11-0.03,0.16
				c-0.02,0.05-0.05,0.09-0.09,0.13c-0.04,0.04-0.09,0.07-0.15,0.09c-0.06,0.02-0.12,0.03-0.19,0.03s-0.14-0.01-0.21-0.03
				c-0.07-0.02-0.13-0.04-0.17-0.05v-0.18h0.01c0.05,0.03,0.11,0.06,0.17,0.08c0.07,0.02,0.13,0.03,0.19,0.03
				c0.04,0,0.08-0.01,0.12-0.02c0.04-0.01,0.07-0.03,0.1-0.05c0.03-0.03,0.05-0.05,0.06-0.08s0.02-0.07,0.02-0.11
				s-0.01-0.08-0.02-0.11c-0.01-0.03-0.03-0.05-0.06-0.07c-0.03-0.02-0.06-0.03-0.09-0.04c-0.04-0.01-0.08-0.01-0.12-0.01H70.8
				v-0.14h0.06c0.09,0,0.16-0.02,0.21-0.05c0.05-0.04,0.08-0.09,0.08-0.16c0-0.03-0.01-0.06-0.02-0.08
				c-0.01-0.02-0.03-0.04-0.05-0.06c-0.03-0.02-0.05-0.03-0.08-0.03c-0.03-0.01-0.06-0.01-0.1-0.01c-0.05,0-0.11,0.01-0.17,0.03
				c-0.06,0.02-0.12,0.05-0.17,0.08h-0.01v-0.18c0.04-0.02,0.09-0.04,0.16-0.05c0.07-0.02,0.13-0.03,0.2-0.03
				c0.06,0,0.12,0.01,0.17,0.02c0.05,0.01,0.09,0.03,0.13,0.05c0.04,0.03,0.07,0.06,0.09,0.1c0.02,0.04,0.03,0.08,0.03,0.14
				c0,0.07-0.03,0.13-0.08,0.19c-0.05,0.05-0.11,0.09-0.18,0.1v0.01c0.03,0,0.06,0.01,0.1,0.03C71.2,42.09,71.22,42.11,71.25,42.13z
				"/>
		</g>
	</g>
	<g>
		<path class="st7" d="M51.47,9.8c0-1.23,1-2.22,2.24-2.22c1.24,0,2.24,1,2.24,2.22s-1,2.22-2.24,2.22
			C52.47,12.02,51.47,11.03,51.47,9.8z"/>
		<ellipse class="st8" cx="53.71" cy="9.8" rx="1.53" ry="1.52"/>
		<path class="st9" d="M57.37,6.64c0.12,0,0.19,0,0.19,0L57.6,24.5c0,0,0,0.03,0,0.06c-0.04,0-0.08,0-0.08,0l-29.06-0.04
			c0,0-0.02,0-0.05,0c-0.01-2.42-0.04-17.54-0.04-17.54s0-0.19,0-0.39c0.06,0,0.12,0,0.12,0S54.89,6.63,57.37,6.64z"/>
		<line class="st9" x1="50.12" y1="24.51" x2="50.08" y2="6.65"/>
		<line class="st9" x1="43.02" y1="24.71" x2="42.97" y2="6.84"/>
		<line class="st9" x1="35.89" y1="24.71" x2="35.84" y2="6.84"/>
		<path class="st7" d="M44.27,9.8c0-1.23,1-2.22,2.24-2.22s2.24,1,2.24,2.22s-1,2.22-2.24,2.22S44.27,11.03,44.27,9.8z"/>
		<ellipse class="st8" cx="46.51" cy="9.8" rx="1.53" ry="1.52"/>
		<path class="st7" d="M37.07,9.8c0-1.23,1-2.22,2.24-2.22s2.24,1,2.24,2.22s-1,2.22-2.24,2.22S37.07,11.03,37.07,9.8z"/>
		<ellipse class="st8" cx="39.31" cy="9.8" rx="1.53" ry="1.52"/>
		<path class="st7" d="M29.89,9.8c0-1.23,0.99-2.22,2.22-2.22s2.22,1,2.22,2.22s-1,2.22-2.22,2.22S29.89,11.03,29.89,9.8z"/>
		<ellipse class="st8" cx="32.11" cy="9.8" rx="1.53" ry="1.52"/>
		<g>
			<path class="st0" d="M53.76,15.3c0.11-0.39,0.25-0.67,0.42-0.85c0.17-0.18,0.37-0.27,0.61-0.27c0.27,0,0.5,0.11,0.68,0.33
				c0.18,0.22,0.27,0.5,0.27,0.84c0,0.24-0.05,0.45-0.14,0.63c-0.09,0.18-0.22,0.33-0.38,0.43s-0.34,0.15-0.53,0.15v-0.46
				c0.21,0,0.38-0.07,0.5-0.2c0.12-0.13,0.18-0.32,0.18-0.56c0-0.22-0.05-0.4-0.15-0.52c-0.1-0.13-0.24-0.19-0.41-0.19
				c-0.14,0-0.26,0.06-0.36,0.18s-0.19,0.32-0.27,0.61S54,15.94,53.9,16.1s-0.21,0.28-0.34,0.36s-0.28,0.12-0.46,0.12
				c-0.28,0-0.51-0.11-0.68-0.33c-0.17-0.22-0.25-0.51-0.25-0.87c0-0.24,0.05-0.46,0.14-0.66c0.09-0.2,0.22-0.36,0.38-0.47
				s0.34-0.17,0.54-0.17v0.46c-0.21,0-0.38,0.08-0.5,0.23c-0.12,0.15-0.18,0.36-0.18,0.62c0,0.24,0.05,0.42,0.15,0.55
				c0.1,0.13,0.23,0.19,0.4,0.19s0.3-0.06,0.39-0.18S53.67,15.61,53.76,15.3z"/>
			<path class="st0" d="M53.32,19.69c-0.37-0.04-0.65-0.18-0.85-0.4c-0.2-0.23-0.3-0.53-0.3-0.9c0-0.41,0.15-0.73,0.44-0.98
				c0.29-0.25,0.69-0.37,1.18-0.37h0.33c0.32,0,0.61,0.06,0.85,0.17c0.25,0.11,0.43,0.28,0.56,0.49c0.13,0.21,0.2,0.45,0.2,0.73
				c0,0.37-0.1,0.66-0.31,0.88s-0.49,0.35-0.85,0.38v-0.46c0.28-0.04,0.48-0.12,0.6-0.26s0.19-0.32,0.19-0.55
				c0-0.29-0.11-0.52-0.32-0.68c-0.22-0.17-0.52-0.25-0.92-0.25h-0.34c-0.38,0-0.68,0.08-0.9,0.23c-0.22,0.16-0.33,0.38-0.33,0.66
				c0,0.25,0.06,0.45,0.17,0.58s0.32,0.22,0.6,0.27V19.69z"/>
			<path class="st0" d="M52.59,20.77v1.63h-0.37v-2.09h3.47v0.46H52.59z"/>
		</g>
		<g>
			<path class="st0" d="M46.37,15.3c0.11-0.39,0.25-0.67,0.42-0.85c0.17-0.18,0.37-0.27,0.61-0.27c0.27,0,0.5,0.11,0.68,0.33
				c0.18,0.22,0.27,0.5,0.27,0.84c0,0.24-0.05,0.45-0.14,0.63c-0.09,0.18-0.22,0.33-0.38,0.43s-0.34,0.15-0.53,0.15v-0.46
				c0.21,0,0.38-0.07,0.5-0.2c0.12-0.13,0.18-0.32,0.18-0.56c0-0.22-0.05-0.4-0.15-0.52c-0.1-0.13-0.24-0.19-0.41-0.19
				c-0.14,0-0.26,0.06-0.36,0.18s-0.19,0.32-0.27,0.61s-0.17,0.51-0.27,0.67s-0.21,0.28-0.34,0.36s-0.28,0.12-0.46,0.12
				c-0.28,0-0.51-0.11-0.68-0.33c-0.17-0.22-0.25-0.51-0.25-0.87c0-0.24,0.05-0.46,0.14-0.66c0.09-0.2,0.22-0.36,0.38-0.47
				s0.34-0.17,0.54-0.17v0.46c-0.21,0-0.38,0.08-0.5,0.23c-0.12,0.15-0.18,0.36-0.18,0.62c0,0.24,0.05,0.42,0.15,0.55
				c0.1,0.13,0.23,0.19,0.4,0.19s0.3-0.06,0.39-0.18S46.28,15.61,46.37,15.3z"/>
			<path class="st0" d="M44.83,17.16h3.47v0.97c0,0.3-0.07,0.56-0.2,0.79c-0.13,0.23-0.32,0.41-0.57,0.53s-0.53,0.19-0.85,0.19
				h-0.22c-0.33,0-0.61-0.06-0.86-0.19c-0.25-0.13-0.44-0.3-0.57-0.54c-0.13-0.23-0.2-0.5-0.2-0.81V17.16z M47.92,17.62H45.2v0.48
				c0,0.35,0.11,0.62,0.33,0.82s0.53,0.29,0.94,0.29h0.2c0.39,0,0.7-0.09,0.92-0.28s0.33-0.44,0.33-0.78V17.62z"/>
			<path class="st0" d="M45.73,22.23v-1.44l-0.91-0.32V20l3.47,1.31v0.4l-3.47,1.32v-0.46L45.73,22.23z M46.11,20.93v1.17l1.62-0.59
				L46.11,20.93z"/>
		</g>
		<g>
			<path class="st0" d="M38.27,15.43l2.86,0.98v0.5l-3.47-1.28v-0.4l3.47-1.27v0.49L38.27,15.43z"/>
			<path class="st0" d="M37.98,18.33c0,0.16,0.05,0.29,0.14,0.41c0.1,0.12,0.21,0.18,0.36,0.19v0.41c-0.15-0.01-0.29-0.06-0.42-0.15
				c-0.13-0.09-0.24-0.22-0.32-0.37c-0.08-0.16-0.12-0.32-0.12-0.49c0-0.35,0.12-0.63,0.35-0.83c0.23-0.21,0.55-0.31,0.96-0.31H39
				c0.25,0,0.47,0.04,0.67,0.14c0.2,0.09,0.35,0.22,0.46,0.39c0.11,0.17,0.16,0.37,0.16,0.61c0,0.29-0.09,0.53-0.26,0.71
				c-0.17,0.19-0.4,0.29-0.67,0.3v-0.41c0.17-0.01,0.3-0.08,0.41-0.19c0.11-0.11,0.16-0.25,0.16-0.42c0-0.22-0.08-0.39-0.24-0.52
				s-0.39-0.18-0.7-0.18H38.9c-0.3,0-0.53,0.06-0.69,0.18C38.06,17.93,37.98,18.1,37.98,18.33z"/>
			<path class="st0" d="M37.98,20.86c0,0.16,0.05,0.29,0.14,0.41c0.1,0.12,0.21,0.18,0.36,0.19v0.41c-0.15-0.01-0.29-0.06-0.42-0.15
				c-0.13-0.09-0.24-0.22-0.32-0.37c-0.08-0.16-0.12-0.32-0.12-0.49c0-0.35,0.12-0.63,0.35-0.83c0.23-0.21,0.55-0.31,0.96-0.31H39
				c0.25,0,0.47,0.04,0.67,0.14c0.2,0.09,0.35,0.22,0.46,0.39c0.11,0.17,0.16,0.37,0.16,0.61c0,0.29-0.09,0.53-0.26,0.71
				c-0.17,0.19-0.4,0.29-0.67,0.3v-0.41c0.17-0.01,0.3-0.08,0.41-0.19c0.11-0.11,0.16-0.25,0.16-0.42c0-0.22-0.08-0.39-0.24-0.52
				s-0.39-0.18-0.7-0.18H38.9c-0.3,0-0.53,0.06-0.69,0.18C38.06,20.46,37.98,20.63,37.98,20.86z"/>
		</g>
		<g>
			<path class="st0" d="M30.77,16.83c-0.17-0.12-0.29-0.28-0.38-0.49c-0.08-0.21-0.13-0.45-0.13-0.73c0-0.28,0.07-0.53,0.2-0.75
				c0.13-0.22,0.32-0.38,0.57-0.5c0.24-0.12,0.53-0.18,0.85-0.18h0.3c0.52,0,0.93,0.12,1.21,0.36c0.29,0.24,0.43,0.58,0.43,1.02
				c0,0.36-0.09,0.65-0.28,0.87c-0.19,0.22-0.45,0.35-0.79,0.4v-0.45c0.46-0.09,0.69-0.36,0.69-0.81c0-0.3-0.11-0.53-0.32-0.69
				c-0.22-0.16-0.53-0.24-0.94-0.24h-0.28c-0.39,0-0.7,0.09-0.93,0.26c-0.23,0.18-0.34,0.42-0.34,0.72c0,0.17,0.02,0.32,0.06,0.45
				c0.04,0.13,0.1,0.23,0.19,0.32h0.78v-0.8h0.37v1.25H30.77z"/>
			<path class="st0" d="M30.32,20.23v-0.46l2.67-1.73h-2.67v-0.46h3.47v0.46l-2.69,1.74h2.69v0.45H30.32z"/>
			<path class="st0" d="M30.32,21.04h3.47v0.97c0,0.3-0.07,0.56-0.2,0.79c-0.13,0.23-0.32,0.41-0.57,0.53s-0.53,0.19-0.85,0.19
				h-0.22c-0.33,0-0.61-0.06-0.86-0.19c-0.25-0.13-0.44-0.3-0.57-0.54s-0.2-0.5-0.2-0.81V21.04z M33.42,21.49h-2.72v0.48
				c0,0.35,0.11,0.62,0.33,0.82s0.53,0.29,0.94,0.29h0.2c0.39,0,0.7-0.09,0.92-0.28s0.33-0.44,0.33-0.78V21.49z"/>
		</g>
	</g>
	<g id="ГРУППА_4_">
		<g>
			<polygon class="st10" points="66.76,26.08 66.76,28.14 62.5,28.14 62.5,26.08 62.81,26.08 62.81,26.78 66.42,26.78 66.42,26.08 
							"/>
			<polygon class="st10" points="66.42,22.39 66.42,21.62 62.81,21.62 62.81,22.39 62.46,22.39 62.46,20.17 66.71,20.17 
				66.71,22.39 			"/>
			<rect x="62.81" y="26.08" class="st11" width="3.61" height="0.7"/>
			<rect x="62.81" y="22.39" class="st11" width="3.61" height="3.69"/>
			<rect x="62.81" y="21.62" class="st11" width="3.61" height="0.77"/>
		</g>
		<g>
		</g>
	</g>
	<g id="ГРУППА_2_">
		<g>
			<polygon class="st10" points="57.6,63.84 57.6,65.91 53.35,65.91 53.35,63.84 53.66,63.84 53.66,64.55 57.26,64.55 57.26,63.84 
							"/>
			<polygon class="st10" points="57.56,57.94 57.56,60.15 57.26,60.15 57.26,59.39 53.66,59.39 53.66,60.15 53.31,60.15 
				53.31,57.94 			"/>
			<rect x="53.66" y="63.84" class="st11" width="3.61" height="0.7"/>
			<rect x="53.66" y="60.15" class="st11" width="3.61" height="3.69"/>
			<rect x="53.66" y="59.39" class="st11" width="3.61" height="0.77"/>
		</g>
		<g>
		</g>
	</g>
	<g id="ГРУППА_1_">
		<g>
			<polygon class="st10" points="73.77,26.08 73.77,28.14 69.51,28.14 69.51,26.08 69.82,26.08 69.82,26.78 73.43,26.78 
				73.43,26.08 			"/>
			<polygon class="st10" points="73.73,20.17 73.73,22.39 73.43,22.39 73.43,21.62 69.82,21.62 69.82,22.39 69.47,22.39 
				69.47,20.17 			"/>
			<rect x="69.82" y="26.08" class="st11" width="3.61" height="0.7"/>
			<rect x="69.82" y="22.39" class="st11" width="3.61" height="3.69"/>
			<rect x="69.82" y="21.62" class="st11" width="3.61" height="0.77"/>
		</g>
		<g>
		</g>
	</g>
	<g id="ГРУППА_3_">
		<g>
			<polygon class="st10" points="81.14,26.08 81.14,28.14 76.88,28.14 76.88,26.08 77.19,26.08 77.19,26.78 80.8,26.78 80.8,26.08 
							"/>
			<polygon class="st10" points="81.1,20.17 81.1,22.39 80.8,22.39 80.8,21.62 77.19,21.62 77.19,22.39 76.84,22.39 76.84,20.17 			
				"/>
			<rect x="77.19" y="26.08" class="st11" width="3.61" height="0.7"/>
			<rect x="77.19" y="22.39" class="st11" width="3.61" height="3.69"/>
			<rect x="77.19" y="21.62" class="st11" width="3.61" height="0.77"/>
		</g>
		<g>
		</g>
	</g>
	<g>
		<g id="XMLID_42_">
			<g>
				<rect x="28.21" y="63.8" class="st10" width="4.26" height="1.94"/>
			</g>
			<g>
			</g>
		</g>
		<g id="XMLID_21_">
			<g>
				<rect x="28.17" y="58.15" class="st10" width="4.26" height="1.96"/>
			</g>
			<g>
			</g>
		</g>
		<g id="XMLID_20_">
			<g>
				<rect x="28.52" y="59.34" class="st5" width="3.61" height="5.16"/>
			</g>
			<g>
			</g>
		</g>
		<g>
			<path class="st6" d="M30.87,62.86v0.7h-0.13v-0.27h-0.86v0.27h-0.12c0-0.04,0-0.08-0.01-0.12c-0.01-0.04-0.01-0.07-0.03-0.09
				c-0.01-0.03-0.03-0.05-0.05-0.06c-0.02-0.02-0.05-0.02-0.09-0.03v-0.13h1.16v-0.26H30.87z"/>
			<path class="st6" d="M30.22,61.84c0.23,0,0.4,0.04,0.51,0.11s0.16,0.18,0.16,0.34c0,0.15-0.05,0.27-0.16,0.34
				c-0.11,0.07-0.28,0.11-0.5,0.11c-0.23,0-0.4-0.04-0.51-0.11c-0.11-0.07-0.16-0.18-0.16-0.34c0-0.15,0.06-0.27,0.17-0.34
				S30,61.84,30.22,61.84z M30.62,62.07c-0.05-0.02-0.1-0.03-0.16-0.04c-0.06-0.01-0.14-0.01-0.23-0.01c-0.09,0-0.16,0-0.23,0.01
				c-0.06,0.01-0.12,0.02-0.16,0.04c-0.04,0.02-0.08,0.05-0.1,0.08s-0.03,0.08-0.03,0.13c0,0.05,0.01,0.1,0.03,0.13
				c0.02,0.04,0.06,0.06,0.1,0.08c0.04,0.02,0.1,0.03,0.17,0.04c0.07,0.01,0.14,0.01,0.23,0.01c0.09,0,0.17,0,0.23-0.01
				c0.06-0.01,0.11-0.02,0.16-0.04c0.04-0.02,0.08-0.05,0.1-0.08c0.02-0.04,0.04-0.08,0.04-0.14c0-0.05-0.01-0.1-0.03-0.13
				C30.7,62.12,30.66,62.09,30.62,62.07z"/>
			<path class="st6" d="M30.22,60.89c0.23,0,0.4,0.04,0.51,0.11s0.16,0.18,0.16,0.34c0,0.15-0.05,0.27-0.16,0.34
				c-0.11,0.07-0.28,0.11-0.5,0.11c-0.23,0-0.4-0.04-0.51-0.11c-0.11-0.07-0.16-0.18-0.16-0.34c0-0.15,0.06-0.27,0.17-0.34
				S30,60.89,30.22,60.89z M30.62,61.12c-0.05-0.02-0.1-0.03-0.16-0.04c-0.06-0.01-0.14-0.01-0.23-0.01c-0.09,0-0.16,0-0.23,0.01
				s-0.12,0.02-0.16,0.04c-0.04,0.02-0.08,0.05-0.1,0.08c-0.02,0.03-0.03,0.08-0.03,0.13s0.01,0.1,0.03,0.13s0.06,0.06,0.1,0.08
				c0.04,0.02,0.1,0.03,0.17,0.04c0.07,0.01,0.14,0.01,0.23,0.01c0.09,0,0.17,0,0.23-0.01c0.06-0.01,0.11-0.02,0.16-0.04
				c0.04-0.02,0.08-0.05,0.1-0.08c0.02-0.03,0.04-0.08,0.04-0.14c0-0.05-0.01-0.1-0.03-0.13C30.7,61.17,30.66,61.14,30.62,61.12z"/>
			<path class="st6" d="M30.87,60.02v0.7h-0.13v-0.27h-0.86v0.27h-0.12c0-0.04,0-0.08-0.01-0.12c-0.01-0.04-0.01-0.07-0.03-0.09
				c-0.01-0.03-0.03-0.05-0.05-0.06c-0.02-0.02-0.05-0.02-0.09-0.03v-0.13h1.16v-0.26H30.87z"/>
		</g>
	</g>
	<g>
		<g id="XMLID_19_">
			<g>
				<rect x="4.98" y="25.95" class="st10" width="4.26" height="2.24"/>
			</g>
			<g>
			</g>
		</g>
		<g id="XMLID_15_">
			<g>
				<rect x="4.94" y="20.17" class="st10" width="4.26" height="2.09"/>
			</g>
			<g>
			</g>
		</g>
		<g id="XMLID_14_">
			<g>
				<rect x="5.29" y="21.5" class="st5" width="3.61" height="5.16"/>
			</g>
			<g>
			</g>
		</g>
		<g>
			<path class="st6" d="M7.63,25.02v0.7H7.5v-0.27H6.64v0.27H6.52c0-0.04,0-0.08-0.01-0.12S6.5,25.52,6.48,25.5
				c-0.01-0.03-0.03-0.05-0.05-0.06c-0.02-0.02-0.05-0.02-0.09-0.03v-0.13H7.5v-0.26H7.63z"/>
			<path class="st6" d="M6.99,24c0.23,0,0.4,0.04,0.51,0.11s0.16,0.18,0.16,0.34c0,0.15-0.05,0.27-0.16,0.34
				c-0.11,0.07-0.28,0.11-0.5,0.11c-0.23,0-0.4-0.04-0.51-0.11c-0.11-0.07-0.16-0.18-0.16-0.34c0-0.15,0.06-0.27,0.17-0.34
				S6.76,24,6.99,24z M7.38,24.22c-0.05-0.02-0.1-0.03-0.16-0.04c-0.06-0.01-0.14-0.01-0.23-0.01c-0.09,0-0.16,0-0.23,0.01
				c-0.06,0.01-0.12,0.02-0.16,0.04c-0.04,0.02-0.08,0.05-0.1,0.08c-0.02,0.03-0.03,0.08-0.03,0.13c0,0.05,0.01,0.1,0.03,0.13
				c0.02,0.04,0.06,0.06,0.1,0.08c0.04,0.02,0.1,0.03,0.17,0.04c0.07,0.01,0.14,0.01,0.23,0.01c0.09,0,0.17,0,0.23-0.01
				s0.11-0.02,0.16-0.04c0.04-0.02,0.08-0.05,0.1-0.08c0.02-0.03,0.04-0.08,0.04-0.14c0-0.05-0.01-0.1-0.03-0.13
				S7.43,24.24,7.38,24.22z"/>
			<path class="st6" d="M6.99,23.05c0.23,0,0.4,0.04,0.51,0.11s0.16,0.18,0.16,0.34c0,0.15-0.05,0.27-0.16,0.34
				c-0.11,0.07-0.28,0.11-0.5,0.11c-0.23,0-0.4-0.04-0.51-0.11c-0.11-0.07-0.16-0.18-0.16-0.34c0-0.15,0.06-0.27,0.17-0.34
				S6.76,23.05,6.99,23.05z M7.38,23.27c-0.05-0.02-0.1-0.03-0.16-0.04c-0.06-0.01-0.14-0.01-0.23-0.01c-0.09,0-0.16,0-0.23,0.01
				c-0.06,0.01-0.12,0.02-0.16,0.04c-0.04,0.02-0.08,0.05-0.1,0.08c-0.02,0.03-0.03,0.08-0.03,0.13c0,0.05,0.01,0.1,0.03,0.13
				c0.02,0.04,0.06,0.06,0.1,0.08c0.04,0.02,0.1,0.03,0.17,0.04c0.07,0.01,0.14,0.01,0.23,0.01c0.09,0,0.17,0,0.23-0.01
				s0.11-0.02,0.16-0.04c0.04-0.02,0.08-0.05,0.1-0.08c0.02-0.03,0.04-0.08,0.04-0.14c0-0.05-0.01-0.1-0.03-0.13
				S7.43,23.29,7.38,23.27z"/>
			<path class="st6" d="M7.63,22.1v0.87H7.45c-0.05-0.06-0.1-0.12-0.16-0.18c-0.05-0.06-0.1-0.12-0.15-0.17
				c-0.11-0.11-0.19-0.19-0.26-0.23c-0.06-0.04-0.13-0.06-0.2-0.06c-0.07,0-0.12,0.02-0.16,0.07c-0.04,0.04-0.06,0.11-0.06,0.18
				c0,0.05,0.01,0.11,0.03,0.17s0.05,0.12,0.08,0.18v0.01H6.4c-0.02-0.04-0.04-0.1-0.06-0.16c-0.02-0.07-0.03-0.13-0.03-0.2
				c0-0.13,0.03-0.24,0.1-0.31c0.06-0.07,0.15-0.11,0.26-0.11c0.05,0,0.09,0.01,0.14,0.02c0.04,0.01,0.08,0.03,0.12,0.06
				C6.97,22.25,7,22.27,7.04,22.3c0.03,0.03,0.07,0.07,0.11,0.11c0.06,0.06,0.12,0.13,0.18,0.19c0.06,0.07,0.11,0.13,0.16,0.18V22.1
				H7.63z"/>
		</g>
	</g>
	<g>
		<g id="XMLID_9_">
			<g>
				<rect x="12.21" y="25.95" class="st10" width="4.26" height="2.24"/>
			</g>
			<g>
			</g>
		</g>
		<g id="XMLID_8_">
			<g>
				<rect x="12.17" y="20.17" class="st10" width="4.26" height="2.09"/>
			</g>
			<g>
			</g>
		</g>
		<g id="XMLID_7_">
			<g>
				<rect x="12.52" y="21.5" class="st5" width="3.61" height="5.16"/>
			</g>
			<g>
			</g>
		</g>
		<g>
			<path class="st6" d="M14.86,25.02v0.7h-0.13v-0.27h-0.86v0.27h-0.12c0-0.04,0-0.08-0.01-0.12s-0.01-0.07-0.03-0.09
				c-0.01-0.03-0.03-0.05-0.05-0.06c-0.02-0.02-0.05-0.02-0.09-0.03v-0.13h1.16v-0.26H14.86z"/>
			<path class="st6" d="M14.22,24c0.23,0,0.4,0.04,0.51,0.11s0.16,0.18,0.16,0.34c0,0.15-0.05,0.27-0.16,0.34
				c-0.11,0.07-0.28,0.11-0.5,0.11c-0.23,0-0.4-0.04-0.51-0.11c-0.11-0.07-0.16-0.18-0.16-0.34c0-0.15,0.06-0.27,0.17-0.34
				S14,24,14.22,24z M14.61,24.22c-0.05-0.02-0.1-0.03-0.16-0.04c-0.06-0.01-0.14-0.01-0.23-0.01c-0.09,0-0.16,0-0.23,0.01
				c-0.06,0.01-0.12,0.02-0.16,0.04c-0.04,0.02-0.08,0.05-0.1,0.08c-0.02,0.03-0.03,0.08-0.03,0.13c0,0.05,0.01,0.1,0.03,0.13
				c0.02,0.04,0.06,0.06,0.1,0.08c0.04,0.02,0.1,0.03,0.17,0.04c0.07,0.01,0.14,0.01,0.23,0.01c0.09,0,0.17,0,0.23-0.01
				s0.11-0.02,0.16-0.04c0.04-0.02,0.08-0.05,0.1-0.08c0.02-0.03,0.04-0.08,0.04-0.14c0-0.05-0.01-0.1-0.03-0.13
				S14.66,24.24,14.61,24.22z"/>
			<path class="st6" d="M14.22,23.05c0.23,0,0.4,0.04,0.51,0.11s0.16,0.18,0.16,0.34c0,0.15-0.05,0.27-0.16,0.34
				c-0.11,0.07-0.28,0.11-0.5,0.11c-0.23,0-0.4-0.04-0.51-0.11c-0.11-0.07-0.16-0.18-0.16-0.34c0-0.15,0.06-0.27,0.17-0.34
				S14,23.05,14.22,23.05z M14.61,23.27c-0.05-0.02-0.1-0.03-0.16-0.04c-0.06-0.01-0.14-0.01-0.23-0.01c-0.09,0-0.16,0-0.23,0.01
				c-0.06,0.01-0.12,0.02-0.16,0.04c-0.04,0.02-0.08,0.05-0.1,0.08c-0.02,0.03-0.03,0.08-0.03,0.13c0,0.05,0.01,0.1,0.03,0.13
				c0.02,0.04,0.06,0.06,0.1,0.08c0.04,0.02,0.1,0.03,0.17,0.04c0.07,0.01,0.14,0.01,0.23,0.01c0.09,0,0.17,0,0.23-0.01
				s0.11-0.02,0.16-0.04c0.04-0.02,0.08-0.05,0.1-0.08c0.02-0.03,0.04-0.08,0.04-0.14c0-0.05-0.01-0.1-0.03-0.13
				S14.66,23.29,14.61,23.27z"/>
			<path class="st6" d="M14.86,22.1v0.87h-0.18c-0.05-0.06-0.1-0.12-0.16-0.18c-0.05-0.06-0.1-0.12-0.15-0.17
				c-0.11-0.11-0.19-0.19-0.26-0.23c-0.06-0.04-0.13-0.06-0.2-0.06c-0.07,0-0.12,0.02-0.16,0.07c-0.04,0.04-0.06,0.11-0.06,0.18
				c0,0.05,0.01,0.11,0.03,0.17s0.05,0.12,0.08,0.18v0.01h-0.18c-0.02-0.04-0.04-0.1-0.06-0.16c-0.02-0.07-0.03-0.13-0.03-0.2
				c0-0.13,0.03-0.24,0.1-0.31c0.06-0.07,0.15-0.11,0.26-0.11c0.05,0,0.09,0.01,0.14,0.02c0.04,0.01,0.08,0.03,0.12,0.06
				c0.04,0.02,0.07,0.05,0.11,0.08c0.03,0.03,0.07,0.07,0.11,0.11c0.06,0.06,0.12,0.13,0.18,0.19c0.06,0.07,0.11,0.13,0.16,0.18
				V22.1H14.86z"/>
		</g>
	</g>
	<g>
		<g id="XMLID_12_">
			<g>
				<rect x="19.32" y="25.95" class="st10" width="4.26" height="2.24"/>
			</g>
			<g>
			</g>
		</g>
		<g id="XMLID_11_">
			<g>
				<rect x="19.28" y="20.17" class="st10" width="4.26" height="2.09"/>
			</g>
			<g>
			</g>
		</g>
		<g id="XMLID_10_">
			<g>
				<rect x="19.63" y="21.5" class="st5" width="3.61" height="5.16"/>
			</g>
			<g>
			</g>
		</g>
		<g>
			<path class="st6" d="M21.97,25.02v0.7h-0.13v-0.27h-0.86v0.27h-0.12c0-0.04,0-0.08-0.01-0.12s-0.01-0.07-0.03-0.09
				c-0.01-0.03-0.03-0.05-0.05-0.06c-0.02-0.02-0.05-0.02-0.09-0.03v-0.13h1.16v-0.26H21.97z"/>
			<path class="st6" d="M21.33,24c0.23,0,0.4,0.04,0.51,0.11S22,24.29,22,24.44c0,0.15-0.05,0.27-0.16,0.34
				c-0.11,0.07-0.28,0.11-0.5,0.11c-0.23,0-0.4-0.04-0.51-0.11c-0.11-0.07-0.16-0.18-0.16-0.34c0-0.15,0.06-0.27,0.17-0.34
				S21.11,24,21.33,24z M21.72,24.22c-0.05-0.02-0.1-0.03-0.16-0.04c-0.06-0.01-0.14-0.01-0.23-0.01c-0.09,0-0.16,0-0.23,0.01
				c-0.06,0.01-0.12,0.02-0.16,0.04c-0.04,0.02-0.08,0.05-0.1,0.08c-0.02,0.03-0.03,0.08-0.03,0.13c0,0.05,0.01,0.1,0.03,0.13
				c0.02,0.04,0.06,0.06,0.1,0.08c0.04,0.02,0.1,0.03,0.17,0.04c0.07,0.01,0.14,0.01,0.23,0.01c0.09,0,0.17,0,0.23-0.01
				s0.11-0.02,0.16-0.04c0.04-0.02,0.08-0.05,0.1-0.08c0.02-0.03,0.04-0.08,0.04-0.14c0-0.05-0.01-0.1-0.03-0.13
				S21.77,24.24,21.72,24.22z"/>
			<path class="st6" d="M21.33,23.05c0.23,0,0.4,0.04,0.51,0.11S22,23.34,22,23.49c0,0.15-0.05,0.27-0.16,0.34
				c-0.11,0.07-0.28,0.11-0.5,0.11c-0.23,0-0.4-0.04-0.51-0.11c-0.11-0.07-0.16-0.18-0.16-0.34c0-0.15,0.06-0.27,0.17-0.34
				S21.11,23.05,21.33,23.05z M21.72,23.27c-0.05-0.02-0.1-0.03-0.16-0.04c-0.06-0.01-0.14-0.01-0.23-0.01c-0.09,0-0.16,0-0.23,0.01
				c-0.06,0.01-0.12,0.02-0.16,0.04c-0.04,0.02-0.08,0.05-0.1,0.08c-0.02,0.03-0.03,0.08-0.03,0.13c0,0.05,0.01,0.1,0.03,0.13
				c0.02,0.04,0.06,0.06,0.1,0.08c0.04,0.02,0.1,0.03,0.17,0.04c0.07,0.01,0.14,0.01,0.23,0.01c0.09,0,0.17,0,0.23-0.01
				s0.11-0.02,0.16-0.04c0.04-0.02,0.08-0.05,0.1-0.08c0.02-0.03,0.04-0.08,0.04-0.14c0-0.05-0.01-0.1-0.03-0.13
				S21.77,23.29,21.72,23.27z"/>
			<path class="st6" d="M21.97,22.1v0.87h-0.18c-0.05-0.06-0.1-0.12-0.16-0.18c-0.05-0.06-0.1-0.12-0.15-0.17
				c-0.11-0.11-0.19-0.19-0.26-0.23c-0.06-0.04-0.13-0.06-0.2-0.06c-0.07,0-0.12,0.02-0.16,0.07c-0.04,0.04-0.06,0.11-0.06,0.18
				c0,0.05,0.01,0.11,0.03,0.17s0.05,0.12,0.08,0.18v0.01h-0.18c-0.02-0.04-0.04-0.1-0.06-0.16c-0.02-0.07-0.03-0.13-0.03-0.2
				c0-0.13,0.03-0.24,0.1-0.31c0.06-0.07,0.15-0.11,0.26-0.11c0.05,0,0.09,0.01,0.14,0.02c0.04,0.01,0.08,0.03,0.12,0.06
				c0.04,0.02,0.07,0.05,0.11,0.08c0.03,0.03,0.07,0.07,0.11,0.11c0.06,0.06,0.12,0.13,0.18,0.19c0.06,0.07,0.11,0.13,0.16,0.18
				V22.1H21.97z"/>
		</g>
	</g>
	<g>
		<g id="XMLID_4_">
			<g>
				<rect x="22.91" y="13.34" class="st10" width="4.26" height="2.24"/>
			</g>
			<g>
			</g>
		</g>
		<g id="XMLID_3_">
			<g>
				<rect x="22.87" y="7.55" class="st10" width="4.26" height="2.09"/>
			</g>
			<g>
			</g>
		</g>
		<g id="XMLID_1_">
			<g>
				<rect x="23.22" y="8.88" class="st5" width="3.61" height="5.16"/>
			</g>
			<g>
			</g>
		</g>
		<g>
			<path class="st6" d="M25.56,12.4v0.7h-0.13v-0.27h-0.86v0.27h-0.12c0-0.04,0-0.08-0.01-0.12s-0.01-0.07-0.03-0.09
				c-0.01-0.03-0.03-0.05-0.05-0.06c-0.02-0.02-0.05-0.02-0.09-0.03v-0.13h1.16V12.4H25.56z"/>
			<path class="st6" d="M24.92,11.38c0.23,0,0.4,0.04,0.51,0.11s0.16,0.18,0.16,0.34c0,0.15-0.05,0.27-0.16,0.34
				c-0.11,0.07-0.28,0.11-0.5,0.11c-0.23,0-0.4-0.04-0.51-0.11c-0.11-0.07-0.16-0.18-0.16-0.34c0-0.15,0.06-0.27,0.17-0.34
				S24.7,11.38,24.92,11.38z M25.31,11.61c-0.05-0.02-0.1-0.03-0.16-0.04c-0.06-0.01-0.14-0.01-0.23-0.01c-0.09,0-0.16,0-0.23,0.01
				c-0.06,0.01-0.12,0.02-0.16,0.04c-0.04,0.02-0.08,0.05-0.1,0.08c-0.02,0.03-0.03,0.08-0.03,0.13c0,0.05,0.01,0.1,0.03,0.13
				c0.02,0.04,0.06,0.06,0.1,0.08c0.04,0.02,0.1,0.03,0.17,0.04c0.07,0.01,0.14,0.01,0.23,0.01c0.09,0,0.17,0,0.23-0.01
				s0.11-0.02,0.16-0.04c0.04-0.02,0.08-0.05,0.1-0.08c0.02-0.03,0.04-0.08,0.04-0.14c0-0.05-0.01-0.1-0.03-0.13
				S25.36,11.63,25.31,11.61z"/>
			<path class="st6" d="M24.92,10.43c0.23,0,0.4,0.04,0.51,0.11s0.16,0.18,0.16,0.34c0,0.15-0.05,0.27-0.16,0.34
				c-0.11,0.07-0.28,0.11-0.5,0.11c-0.23,0-0.4-0.04-0.51-0.11c-0.11-0.07-0.16-0.18-0.16-0.34c0-0.15,0.06-0.27,0.17-0.34
				S24.7,10.43,24.92,10.43z M25.31,10.66c-0.05-0.02-0.1-0.03-0.16-0.04c-0.06-0.01-0.14-0.01-0.23-0.01c-0.09,0-0.16,0-0.23,0.01
				c-0.06,0.01-0.12,0.02-0.16,0.04c-0.04,0.02-0.08,0.05-0.1,0.08c-0.02,0.03-0.03,0.08-0.03,0.13c0,0.05,0.01,0.1,0.03,0.13
				c0.02,0.04,0.06,0.06,0.1,0.08c0.04,0.02,0.1,0.03,0.17,0.04c0.07,0.01,0.14,0.01,0.23,0.01c0.09,0,0.17,0,0.23-0.01
				s0.11-0.02,0.16-0.04c0.04-0.02,0.08-0.05,0.1-0.08c0.02-0.03,0.04-0.08,0.04-0.14c0-0.05-0.01-0.1-0.03-0.13
				S25.36,10.68,25.31,10.66z"/>
			<path class="st6" d="M25.56,9.48v0.87h-0.18c-0.05-0.06-0.1-0.12-0.16-0.18c-0.05-0.06-0.1-0.12-0.15-0.17
				c-0.11-0.11-0.19-0.19-0.26-0.23c-0.06-0.04-0.13-0.06-0.2-0.06c-0.07,0-0.12,0.02-0.16,0.07c-0.04,0.04-0.06,0.11-0.06,0.18
				c0,0.05,0.01,0.11,0.03,0.17s0.05,0.12,0.08,0.18v0.01h-0.18c-0.02-0.04-0.04-0.1-0.06-0.16c-0.02-0.07-0.03-0.13-0.03-0.2
				c0-0.13,0.03-0.24,0.1-0.31c0.06-0.07,0.15-0.11,0.26-0.11c0.05,0,0.09,0.01,0.14,0.02c0.04,0.01,0.08,0.03,0.12,0.06
				c0.04,0.02,0.07,0.05,0.11,0.08C25,9.72,25.04,9.75,25.08,9.8c0.06,0.06,0.12,0.13,0.18,0.19c0.06,0.07,0.11,0.13,0.16,0.18V9.48
				H25.56z"/>
		</g>
	</g>
	<g id="Микроконтроллер">
		<path class="st12" d="M21.61,35.94H3.32c-0.16,0-0.28,0.13-0.28,0.28v0.51h18.85v-0.51C21.89,36.07,21.76,35.94,21.61,35.94z"/>
		<path class="st12" d="M21.89,48.76H3.04v0.51c0,0.16,0.13,0.28,0.28,0.28h18.28c0.16,0,0.28-0.13,0.28-0.28V48.76z"/>
		<g id="XMLID_41_">
			<g>
				<rect x="12.69" y="32.33" class="st13" width="1.42" height="2.05"/>
			</g>
			<g>
			</g>
		</g>
		<line class="st14" x1="13.4" y1="32.95" x2="13.4" y2="36.65"/>
		<g id="XMLID_44_">
			<g>
				<rect x="10.82" y="32.33" class="st13" width="1.42" height="2.05"/>
			</g>
			<g>
			</g>
		</g>
		<line class="st14" x1="11.53" y1="32.95" x2="11.53" y2="36.65"/>
		<g id="XMLID_43_">
			<g>
				<rect x="8.95" y="32.33" class="st13" width="1.42" height="2.05"/>
			</g>
			<g>
			</g>
		</g>
		<line class="st14" x1="9.66" y1="32.95" x2="9.66" y2="36.65"/>
		<g id="XMLID_37_">
			<g>
				<rect x="7.08" y="32.33" class="st13" width="1.42" height="2.05"/>
			</g>
			<g>
			</g>
		</g>
		<line class="st14" x1="7.79" y1="32.95" x2="7.79" y2="36.65"/>
		<g id="XMLID_36_">
			<g>
				<rect x="5.21" y="32.33" class="st13" width="1.42" height="2.05"/>
			</g>
			<g>
			</g>
		</g>
		<line class="st14" x1="5.92" y1="32.95" x2="5.92" y2="36.65"/>
		<g id="XMLID_35_">
			<g>
				<rect x="3.34" y="32.33" class="st13" width="1.42" height="2.05"/>
			</g>
			<g>
			</g>
		</g>
		<line class="st14" x1="4.05" y1="32.95" x2="4.05" y2="36.65"/>
		<line class="st15" x1="4.05" y1="36.65" x2="4.05" y2="35.94"/>
		<line class="st15" x1="5.92" y1="36.65" x2="5.92" y2="35.94"/>
		<line class="st15" x1="7.79" y1="36.65" x2="7.79" y2="35.94"/>
		<line class="st15" x1="9.66" y1="36.65" x2="9.66" y2="35.94"/>
		<line class="st15" x1="11.53" y1="36.65" x2="11.53" y2="35.94"/>
		<line class="st15" x1="13.4" y1="36.65" x2="13.4" y2="35.94"/>
		<g id="XMLID_34_">
			<g>
				<rect x="20.17" y="32.33" class="st13" width="1.42" height="2.05"/>
			</g>
			<g>
			</g>
		</g>
		<line class="st14" x1="20.87" y1="32.95" x2="20.87" y2="36.65"/>
		<g id="XMLID_33_">
			<g>
				<rect x="18.3" y="32.33" class="st13" width="1.42" height="2.05"/>
			</g>
			<g>
			</g>
		</g>
		<line class="st14" x1="19" y1="32.95" x2="19" y2="36.65"/>
		<g id="XMLID_32_">
			<g>
				<rect x="16.43" y="32.33" class="st13" width="1.42" height="2.05"/>
			</g>
			<g>
			</g>
		</g>
		<line class="st14" x1="17.14" y1="32.95" x2="17.14" y2="36.65"/>
		<g id="XMLID_31_">
			<g>
				<rect x="14.56" y="32.33" class="st13" width="1.42" height="2.05"/>
			</g>
			<g>
			</g>
		</g>
		<line class="st14" x1="15.27" y1="32.95" x2="15.27" y2="36.65"/>
		<line class="st15" x1="15.27" y1="36.65" x2="15.27" y2="35.94"/>
		<line class="st15" x1="17.14" y1="36.65" x2="17.14" y2="35.94"/>
		<line class="st15" x1="19" y1="36.65" x2="19" y2="35.94"/>
		<line class="st15" x1="20.87" y1="36.65" x2="20.87" y2="35.94"/>
		<g id="XMLID_30_">
			<g>
				<rect x="10.82" y="51.11" class="st13" width="1.42" height="2.05"/>
			</g>
			<g>
			</g>
		</g>
		<line class="st14" x1="11.53" y1="52.53" x2="11.53" y2="48.84"/>
		<g id="XMLID_29_">
			<g>
				<rect x="12.69" y="51.11" class="st13" width="1.42" height="2.05"/>
			</g>
			<g>
			</g>
		</g>
		<line class="st14" x1="13.4" y1="52.53" x2="13.4" y2="48.84"/>
		<g id="XMLID_28_">
			<g>
				<rect x="14.56" y="51.11" class="st13" width="1.42" height="2.05"/>
			</g>
			<g>
			</g>
		</g>
		<line class="st14" x1="15.27" y1="52.53" x2="15.27" y2="48.84"/>
		<g id="XMLID_27_">
			<g>
				<rect x="16.43" y="51.11" class="st13" width="1.42" height="2.05"/>
			</g>
			<g>
			</g>
		</g>
		<line class="st14" x1="17.14" y1="52.53" x2="17.14" y2="48.84"/>
		<g id="XMLID_26_">
			<g>
				<rect x="18.3" y="51.11" class="st13" width="1.42" height="2.05"/>
			</g>
			<g>
			</g>
		</g>
		<line class="st14" x1="19.01" y1="52.53" x2="19.01" y2="48.84"/>
		<g id="XMLID_25_">
			<g>
				<rect x="20.17" y="51.11" class="st13" width="1.42" height="2.05"/>
			</g>
			<g>
			</g>
		</g>
		<line class="st14" x1="20.87" y1="52.53" x2="20.87" y2="48.84"/>
		<line class="st15" x1="20.87" y1="48.84" x2="20.87" y2="49.55"/>
		<line class="st15" x1="19.01" y1="48.84" x2="19.01" y2="49.55"/>
		<line class="st15" x1="17.14" y1="48.84" x2="17.14" y2="49.55"/>
		<line class="st15" x1="15.27" y1="48.84" x2="15.27" y2="49.55"/>
		<line class="st15" x1="13.4" y1="48.84" x2="13.4" y2="49.55"/>
		<line class="st15" x1="11.53" y1="48.84" x2="11.53" y2="49.55"/>
		<g id="XMLID_24_">
			<g>
				<rect x="3.34" y="51.11" class="st13" width="1.42" height="2.05"/>
			</g>
			<g>
			</g>
		</g>
		<line class="st14" x1="4.05" y1="52.53" x2="4.05" y2="48.84"/>
		<g id="XMLID_23_">
			<g>
				<rect x="5.21" y="51.11" class="st13" width="1.42" height="2.05"/>
			</g>
			<g>
			</g>
		</g>
		<line class="st14" x1="5.92" y1="52.53" x2="5.92" y2="48.84"/>
		<g id="XMLID_22_">
			<g>
				<rect x="7.08" y="51.11" class="st13" width="1.42" height="2.05"/>
			</g>
			<g>
			</g>
		</g>
		<line class="st14" x1="7.79" y1="52.53" x2="7.79" y2="48.84"/>
		<g id="XMLID_5_">
			<g>
				<rect x="8.95" y="51.11" class="st13" width="1.42" height="2.05"/>
			</g>
			<g>
			</g>
		</g>
		<line class="st14" x1="9.66" y1="52.53" x2="9.66" y2="48.84"/>
		<line class="st15" x1="9.66" y1="48.84" x2="9.66" y2="49.55"/>
		<line class="st15" x1="7.79" y1="48.84" x2="7.79" y2="49.55"/>
		<line class="st15" x1="5.92" y1="48.84" x2="5.92" y2="49.55"/>
		<line class="st15" x1="4.05" y1="48.84" x2="4.05" y2="49.55"/>
		<path class="st16" d="M21.82,48.84H3.11c-0.04,0-0.07-0.04-0.07-0.08V36.73c0-0.04,0.03-0.08,0.07-0.08h18.71
			c0.04,0,0.07,0.04,0.07,0.08v4.39v3.25v4.39C21.89,48.8,21.86,48.84,21.82,48.84z"/>
	</g>
	<path class="st7" d="M51.48,27.86c0-1.23,1-2.22,2.24-2.22s2.24,1,2.24,2.22c0,1.23-1,2.22-2.24,2.22S51.48,29.09,51.48,27.86z"/>
	<ellipse class="st8" cx="53.72" cy="27.86" rx="1.53" ry="1.52"/>
	<path class="st7" d="M44.28,27.86c0-1.23,1-2.22,2.24-2.22s2.24,1,2.24,2.22c0,1.23-1,2.22-2.24,2.22S44.28,29.09,44.28,27.86z"/>
	<ellipse class="st8" cx="46.52" cy="27.86" rx="1.53" ry="1.52"/>
	<path class="st7" d="M37.08,27.86c0-1.23,1-2.22,2.24-2.22c1.24,0,2.24,1,2.24,2.22c0,1.23-1,2.22-2.24,2.22
		C38.08,30.08,37.08,29.09,37.08,27.86z"/>
	<ellipse class="st8" cx="39.32" cy="27.86" rx="1.53" ry="1.52"/>
	<path class="st7" d="M29.9,27.86c0-1.23,0.99-2.22,2.22-2.22c1.23,0,2.22,1,2.22,2.22c0,1.23-1,2.22-2.22,2.22
		C30.89,30.08,29.9,29.09,29.9,27.86z"/>
	<ellipse class="st8" cx="32.12" cy="27.86" rx="1.53" ry="1.52"/>
	<rect x="26" y="30.83" class="st17" width="33.83" height="22.56"/>
	<g id="USB_2_">
		<rect x="38.48" y="67.69" class="st4" width="1.44" height="4.81"/>
		<rect x="40.35" y="67.69" class="st4" width="1.44" height="4.81"/>
		<rect x="42.21" y="67.69" class="st4" width="1.44" height="4.81"/>
		<rect x="44.07" y="67.69" class="st4" width="1.44" height="4.81"/>
		<rect x="45.93" y="67.69" class="st4" width="1.44" height="4.81"/>
		<path class="st4" d="M29.26,73.88v6h7.56v-6H29.26z M30.22,79.28c-0.39,0-0.7-0.31-0.7-0.7s0.31-0.7,0.7-0.7s0.7,0.31,0.7,0.7
			S30.6,79.28,30.22,79.28z M30.22,75.7c-0.39,0-0.7-0.31-0.7-0.7s0.31-0.7,0.7-0.7s0.7,0.31,0.7,0.7S30.6,75.7,30.22,75.7z"/>
		<path class="st4" d="M56.6,79.88v-6h-7.56v6H56.6z M55.64,74.47c0.39,0,0.7,0.31,0.7,0.7s-0.31,0.7-0.7,0.7s-0.7-0.31-0.7-0.7
			S55.25,74.47,55.64,74.47z M55.64,78.05c0.39,0,0.7,0.31,0.7,0.7s-0.31,0.7-0.7,0.7s-0.7-0.31-0.7-0.7S55.25,78.05,55.64,78.05z"
			/>
		<rect x="33.01" y="69.96" class="st18" width="19.84" height="13.13"/>
		<path class="st19" d="M53.59,84.75c-0.02-0.03-0.03-0.07-0.03-0.1V70.16c0-0.11-0.09-0.2-0.2-0.2H52.3c-0.11,0-0.2,0.09-0.2,0.2
			v1.02c0,0.11-0.09,0.2-0.2,0.2h-1.02c-0.11,0-0.2-0.09-0.2-0.2v-1.02c0-0.11-0.09-0.2-0.2-0.2H35.31c-0.11,0-0.2,0.09-0.2,0.2
			v1.02c0,0.11-0.09,0.2-0.2,0.2h-1.02c-0.11,0-0.2-0.09-0.2-0.2v-1.02c0-0.11-0.09-0.19-0.2-0.2h-1c-0.11,0-0.19,0.09-0.19,0.19
			v14.49c0,0.04-0.01,0.07-0.03,0.1l-1,1.65h0.55l0.9-1.49c0.19-0.31,0.64-0.31,0.83,0l0.84,1.39c0.04,0.06,0.1,0.1,0.17,0.1h16.72
			c0.07,0,0.13-0.04,0.17-0.1l0.84-1.39c0.19-0.31,0.64-0.31,0.83,0l0.9,1.49h0.55L53.59,84.75z M36.48,82.38
			c0,0.39-0.32,0.71-0.71,0.71H35.2c-0.39,0-0.71-0.32-0.71-0.71v-3.4c0-0.39,0.32-0.71,0.71-0.71h0.57c0.39,0,0.71,0.32,0.71,0.71
			V82.38z M51.36,82.38c0,0.39-0.32,0.71-0.71,0.71h-0.57c-0.39,0-0.71-0.32-0.71-0.71v-3.4c0-0.39,0.32-0.71,0.71-0.71h0.57
			c0.39,0,0.71,0.32,0.71,0.71V82.38z"/>
	</g>
	<g id="кнопка">
		
			<rect x="6.3" y="55.44" transform="matrix(-1 -1.224647e-16 1.224647e-16 -1 13.1872 120.2316)" class="st20" width="0.59" height="9.35"/>
		<rect x="18.04" y="55.44" class="st20" width="0.59" height="9.35"/>
		<g id="XMLID_51_">
			<g>
				<rect x="4.05" y="62.17" class="st21" width="2.25" height="1.88"/>
			</g>
			<g>
			</g>
		</g>
		<g id="XMLID_50_">
			<g>
				<rect x="18.63" y="62.17" class="st21" width="2.25" height="1.88"/>
			</g>
			<g>
			</g>
		</g>
		<path class="st21" d="M18.36,55.75v8.73c0,0.17-0.13,0.31-0.3,0.31H6.86c-0.16,0-0.3-0.14-0.3-0.31v-8.73
			c0-0.17,0.13-0.31,0.3-0.31h11.2C18.23,55.44,18.36,55.58,18.36,55.75z"/>
		<path class="st22" d="M17.37,64.01h-9.8c-0.25,0-0.46-0.22-0.46-0.48V56.7c0-0.27,0.2-0.48,0.46-0.48h9.8
			c0.25,0,0.46,0.22,0.46,0.48v6.83C17.82,63.8,17.62,64.01,17.37,64.01z"/>
		<path class="st23" d="M14.93,63.23H10c-0.99,0-1.79-0.8-1.79-1.79v-2.66C8.21,57.8,9.01,57,10,57h4.93c0.99,0,1.79,0.8,1.79,1.79
			v2.66C16.72,62.43,15.92,63.23,14.93,63.23z"/>
		<polygon class="st21" points="18.63,64.05 18.36,64.18 18.36,62.05 18.63,62.17 		"/>
		<polygon class="st21" points="6.3,62.17 6.57,62.05 6.57,64.18 6.3,64.05 		"/>
		<g id="XMLID_39_">
			<g>
				<rect x="4.05" y="56.13" class="st21" width="2.25" height="1.88"/>
			</g>
			<g>
			</g>
		</g>
		<g id="XMLID_38_">
			<g>
				<rect x="18.63" y="56.13" class="st21" width="2.25" height="1.88"/>
			</g>
			<g>
			</g>
		</g>
		<polygon class="st21" points="18.63,58.01 18.36,58.13 18.36,56 18.63,56.13 		"/>
		<polygon class="st21" points="6.3,56.13 6.57,56 6.57,58.13 6.3,58.01 		"/>
	</g>
	<g id="кнопка_1_">
		
			<rect x="36.94" y="55.44" transform="matrix(-1 -1.224647e-16 1.224647e-16 -1 74.4715 120.2316)" class="st20" width="0.59" height="9.35"/>
		<rect x="48.68" y="55.44" class="st20" width="0.59" height="9.35"/>
		<g id="XMLID_47_">
			<g>
				<rect x="34.69" y="62.17" class="st21" width="2.25" height="1.88"/>
			</g>
			<g>
			</g>
		</g>
		<g id="XMLID_46_">
			<g>
				<rect x="49.27" y="62.17" class="st21" width="2.25" height="1.88"/>
			</g>
			<g>
			</g>
		</g>
		<path class="st21" d="M49,55.75v8.73c0,0.17-0.13,0.31-0.3,0.31H37.5c-0.16,0-0.3-0.14-0.3-0.31v-8.73c0-0.17,0.13-0.31,0.3-0.31
			h11.2C48.87,55.44,49,55.58,49,55.75z"/>
		<path class="st22" d="M48.01,64.01h-9.8c-0.25,0-0.46-0.22-0.46-0.48V56.7c0-0.27,0.2-0.48,0.46-0.48h9.8
			c0.25,0,0.46,0.22,0.46,0.48v6.83C48.46,63.8,48.26,64.01,48.01,64.01z"/>
		<path class="st23" d="M45.57,63.23h-4.93c-0.99,0-1.79-0.8-1.79-1.79v-2.66c0-0.99,0.8-1.79,1.79-1.79h4.93
			c0.99,0,1.79,0.8,1.79,1.79v2.66C47.36,62.43,46.56,63.23,45.57,63.23z"/>
		<polygon class="st21" points="49.27,64.05 49,64.18 49,62.05 49.27,62.17 		"/>
		<polygon class="st21" points="36.94,62.17 37.21,62.05 37.21,64.18 36.94,64.05 		"/>
		<g id="XMLID_45_">
			<g>
				<rect x="34.69" y="56.13" class="st21" width="2.25" height="1.88"/>
			</g>
			<g>
			</g>
		</g>
		<g id="XMLID_40_">
			<g>
				<rect x="49.27" y="56.13" class="st21" width="2.25" height="1.88"/>
			</g>
			<g>
			</g>
		</g>
		<polygon class="st21" points="49.27,58.01 49,58.13 49,56 49.27,56.13 		"/>
		<polygon class="st21" points="36.94,56.13 37.21,56 37.21,58.13 36.94,58.01 		"/>
	</g>
	<g id="кнопка_2_">
		
			<rect x="67.27" y="55.44" transform="matrix(-1 -1.224647e-16 1.224647e-16 -1 135.1226 120.2316)" class="st20" width="0.59" height="9.35"/>
		<rect x="79.01" y="55.44" class="st20" width="0.59" height="9.35"/>
		<g id="XMLID_53_">
			<g>
				<rect x="65.01" y="62.17" class="st21" width="2.25" height="1.88"/>
			</g>
			<g>
			</g>
		</g>
		<g id="XMLID_52_">
			<g>
				<rect x="79.6" y="62.17" class="st21" width="2.25" height="1.88"/>
			</g>
			<g>
			</g>
		</g>
		<path class="st21" d="M79.33,55.75v8.73c0,0.17-0.13,0.31-0.3,0.31h-11.2c-0.16,0-0.3-0.14-0.3-0.31v-8.73
			c0-0.17,0.13-0.31,0.3-0.31h11.2C79.2,55.44,79.33,55.58,79.33,55.75z"/>
		<path class="st22" d="M78.33,64.01h-9.8c-0.25,0-0.46-0.22-0.46-0.48V56.7c0-0.27,0.2-0.48,0.46-0.48h9.8
			c0.25,0,0.46,0.22,0.46,0.48v6.83C78.79,63.8,78.59,64.01,78.33,64.01z"/>
		<path class="st23" d="M75.9,63.23h-4.93c-0.99,0-1.79-0.8-1.79-1.79v-2.66c0-0.99,0.8-1.79,1.79-1.79h4.93
			c0.99,0,1.79,0.8,1.79,1.79v2.66C77.68,62.43,76.88,63.23,75.9,63.23z"/>
		<polygon class="st21" points="79.6,64.05 79.33,64.18 79.33,62.05 79.6,62.17 		"/>
		<polygon class="st21" points="67.27,62.17 67.53,62.05 67.53,64.18 67.27,64.05 		"/>
		<g id="XMLID_49_">
			<g>
				<rect x="65.01" y="56.13" class="st21" width="2.25" height="1.88"/>
			</g>
			<g>
			</g>
		</g>
		<g id="XMLID_48_">
			<g>
				<rect x="79.6" y="56.13" class="st21" width="2.25" height="1.88"/>
			</g>
			<g>
			</g>
		</g>
		<polygon class="st21" points="79.6,58.01 79.33,58.13 79.33,56 79.6,56.13 		"/>
		<polygon class="st21" points="67.27,56.13 67.53,56 67.53,58.13 67.27,58.01 		"/>
	</g>
	<polygon class="st24" points="19.98,60.22 25.56,63.98 25.56,56.46 	"/>
	<polygon class="st24" points="66.05,60.22 60.47,63.98 60.47,56.46 	"/>
	<g>
		<path class="st25" d="M76.12,34.85c-0.28-0.08-0.48-0.18-0.6-0.29c-0.13-0.12-0.19-0.26-0.19-0.43c0-0.19,0.08-0.35,0.23-0.48
			c0.15-0.13,0.35-0.19,0.6-0.19c0.17,0,0.32,0.03,0.45,0.1c0.13,0.07,0.23,0.15,0.31,0.27c0.07,0.11,0.11,0.24,0.11,0.37H76.7
			c0-0.15-0.05-0.26-0.14-0.35s-0.23-0.13-0.4-0.13c-0.16,0-0.28,0.04-0.37,0.1c-0.09,0.07-0.13,0.17-0.13,0.29
			c0,0.1,0.04,0.18,0.13,0.25c0.08,0.07,0.23,0.13,0.43,0.19c0.2,0.06,0.36,0.12,0.48,0.19c0.11,0.07,0.2,0.15,0.25,0.24
			c0.06,0.09,0.08,0.2,0.08,0.32c0,0.2-0.08,0.36-0.23,0.48c-0.15,0.12-0.36,0.18-0.62,0.18c-0.17,0-0.32-0.03-0.47-0.1
			c-0.15-0.06-0.26-0.15-0.34-0.26c-0.08-0.11-0.12-0.24-0.12-0.38h0.32c0,0.15,0.05,0.26,0.16,0.35c0.11,0.08,0.25,0.13,0.44,0.13
			c0.17,0,0.3-0.03,0.39-0.1c0.09-0.07,0.14-0.16,0.14-0.28s-0.04-0.21-0.13-0.28C76.49,34.98,76.34,34.91,76.12,34.85z"/>
		<path class="st25" d="M77.88,35.17l0.05,0.32l0.07-0.29l0.48-1.7h0.27l0.47,1.7l0.07,0.29l0.05-0.33l0.38-1.67h0.32l-0.59,2.44
			h-0.29l-0.5-1.78l-0.04-0.19l-0.04,0.19l-0.52,1.78h-0.29l-0.59-2.44h0.32L77.88,35.17z"/>
		<path class="st25" d="M80.31,35.94V33.5H81c0.21,0,0.4,0.05,0.56,0.14c0.16,0.09,0.29,0.23,0.38,0.4c0.09,0.17,0.13,0.37,0.13,0.6
			v0.16c0,0.23-0.04,0.43-0.13,0.6s-0.22,0.31-0.38,0.4c-0.17,0.09-0.36,0.14-0.58,0.14H80.31z M80.63,33.76v1.91h0.34
			c0.25,0,0.44-0.08,0.58-0.23s0.21-0.37,0.21-0.66v-0.14c0-0.28-0.06-0.49-0.19-0.65c-0.13-0.15-0.31-0.23-0.55-0.23H80.63z"/>
	</g>
</g>
<g id="Layer_6">
	<polyline class="st19" points="35.85,41.79 34.92,40.86 34.92,34.16 35.39,34.16 35.39,34.16 36.78,35.55 36.78,40.86 35.85,41.79 
			"/>
	<polyline class="st19" points="35.85,42.59 34.92,43.51 34.92,50.22 35.39,50.22 35.39,50.21 36.78,48.83 36.78,43.51 35.85,42.59 
			"/>
	<polyline class="st19" points="49.17,41.79 48.25,40.86 48.25,34.16 48.71,34.16 48.71,34.16 50.1,35.55 50.1,40.86 49.17,41.79 	
		"/>
	<polyline class="st19" points="49.17,42.59 48.25,43.51 48.25,50.22 48.71,50.22 48.71,50.21 50.1,48.83 50.1,43.51 49.17,42.59 	
		"/>
	<polyline class="st19" points="56.4,41.79 57.33,40.86 57.33,34.16 56.87,34.16 56.87,34.16 55.47,35.55 55.47,40.86 56.4,41.79 	
		"/>
	<polyline class="st19" points="56.4,42.59 57.33,43.51 57.33,50.22 56.87,50.22 56.87,50.21 55.47,48.83 55.47,43.51 56.4,42.59 	
		"/>
	<polyline class="st19" points="42.99,41.79 43.92,40.86 43.92,34.16 43.46,34.16 43.46,34.16 42.07,35.55 42.07,40.86 42.99,41.79 
			"/>
	<path class="st19" d="M39.26,33.12h3.82v0.46h0l-1.38,1.39c0,0-1.07,0-2.25,0h-0.05c-1.18,0-2.25,0-2.25,0l-1.38-1.39h0v-0.46h3.82
		"/>
	<path class="st19" d="M39.26,51.23h3.82v-0.46h0l-1.38-1.39c0,0-1.07,0-2.25,0h-0.05c-1.18,0-2.25,0-2.25,0l-1.38,1.39h0v0.46h3.82
		"/>
	<path class="st19" d="M52.69,33.12h3.82v0.46h0l-1.38,1.39c0,0-1.07,0-2.25,0h-0.05c-1.18,0-2.25,0-2.25,0l-1.38-1.39h0v-0.46H53"
		/>
	<path class="st19" d="M52.69,51.23h3.82v-0.46h0l-1.38-1.39c0,0-1.07,0-2.25,0h-0.05c-1.18,0-2.25,0-2.25,0l-1.38,1.39h0v0.46H53"
		/>
	<polyline class="st19" points="42.99,42.59 43.92,43.51 43.92,50.22 43.46,50.22 43.46,50.21 42.07,48.83 42.07,43.51 42.99,42.59 
			"/>
	<polyline class="st19" points="29.45,41.79 30.38,40.86 30.38,34.16 29.91,34.16 29.91,34.16 28.52,35.55 28.52,40.86 29.45,41.79 
			"/>
	<polyline class="st19" points="29.45,42.59 30.38,43.51 30.38,50.22 29.91,50.22 29.91,50.21 28.52,48.83 28.52,43.51 29.45,42.59 
			"/>
	<polyline class="st19" points="41.59,43.11 42.52,42.18 41.59,41.26 41.35,41.26 37.22,41.26 36.29,42.18 37.22,43.11 41.59,43.11 
			"/>
	<polyline class="st19" points="55.03,43.11 55.96,42.18 55.03,41.26 54.79,41.26 50.66,41.26 49.73,42.18 50.66,43.11 55.03,43.11 
			"/>
	<g>
		<g>
			<path class="st25" d="M39.58,67.47h-0.32V65.3h-1.2v2.18h-0.32v-2.44h1.85V67.47z"/>
			<path class="st25" d="M41.95,66.33c0,0.24-0.04,0.45-0.12,0.63c-0.08,0.18-0.19,0.31-0.34,0.41c-0.15,0.09-0.32,0.14-0.52,0.14
				c-0.19,0-0.36-0.05-0.51-0.14c-0.15-0.09-0.26-0.23-0.35-0.4s-0.12-0.38-0.13-0.61v-0.18c0-0.23,0.04-0.44,0.12-0.62
				s0.2-0.32,0.35-0.41c0.15-0.09,0.32-0.14,0.51-0.14c0.2,0,0.37,0.05,0.52,0.14c0.15,0.09,0.26,0.23,0.34,0.41
				c0.08,0.18,0.12,0.39,0.12,0.63V66.33z M41.63,66.17c0-0.29-0.06-0.51-0.17-0.67c-0.12-0.15-0.28-0.23-0.49-0.23
				c-0.2,0-0.36,0.08-0.48,0.23c-0.12,0.16-0.18,0.37-0.18,0.64v0.18c0,0.28,0.06,0.5,0.18,0.66c0.12,0.16,0.28,0.24,0.49,0.24
				c0.21,0,0.37-0.08,0.48-0.23c0.11-0.15,0.17-0.37,0.18-0.65V66.17z"/>
			<path class="st25" d="M43.89,65.03h0.32v2.44h-0.32v-1.88l-1.2,1.88h-0.32v-2.44h0.32v1.88L43.89,65.03z"/>
			<path class="st25" d="M46.5,66.7c-0.03,0.26-0.13,0.46-0.29,0.6c-0.16,0.14-0.37,0.21-0.64,0.21c-0.29,0-0.52-0.1-0.69-0.31
				c-0.17-0.21-0.26-0.48-0.26-0.83v-0.23c0-0.23,0.04-0.43,0.12-0.6s0.2-0.3,0.34-0.4C45.24,65.05,45.41,65,45.6,65
				c0.26,0,0.47,0.07,0.62,0.22s0.25,0.34,0.27,0.6h-0.32c-0.03-0.2-0.09-0.34-0.18-0.42c-0.09-0.09-0.22-0.13-0.39-0.13
				c-0.21,0-0.37,0.08-0.48,0.23c-0.12,0.15-0.17,0.37-0.17,0.65v0.24c0,0.26,0.06,0.48,0.17,0.63s0.26,0.23,0.46,0.23
				c0.18,0,0.32-0.04,0.41-0.12s0.16-0.22,0.19-0.42H46.5z"/>
			<path class="st25" d="M47.49,66.38h-0.3v1.1h-0.32v-2.44h0.32v1.08h0.25l0.85-1.08h0.4l-0.93,1.18l1,1.26h-0.39L47.49,66.38z"/>
		</g>
	</g>
	<g>
	</g>
	<g>
	</g>
	<g>
	</g>
	<g>
	</g>
	<g>
	</g>
</g>
</svg>
