<?xml version="1.0" encoding="utf-8"?>
<!-- Generator: Adobe Illustrator 22.0.1, SVG Export Plug-In . SVG Version: 6.00 Build 0)  -->
<svg version="1.1" xmlns="http://www.w3.org/2000/svg" xmlns:xlink="http://www.w3.org/1999/xlink" x="0px" y="0px"
	 viewBox="0 0 184.25 85.0400009" style="enable-background:new 0 0 184.25 85.0400009;" xml:space="preserve">
<style type="text/css">
	.st0{fill:#19191A;}
	.st1{fill:#9E9B9C;}
	.st2{fill:#CEC7BD;}
	.st3{fill:#918C84;}
	.st4{fill:none;stroke:#F6F6F6;stroke-width:0.75;stroke-miterlimit:10;}
	.st5{fill:#E5E4E0;}
	.st6{fill:#FFFFFF;}
	.st7{fill:#292828;stroke:#0D0E0F;stroke-width:0.6123725;stroke-miterlimit:10;}
	.st8{fill:none;stroke:#000000;stroke-width:2;stroke-miterlimit:10;}
	.st9{fill:#3D3D3D;}
	.st10{fill:#5D5D5D;stroke:#0D0E0F;stroke-width:0.25;stroke-miterlimit:10;}
	.st11{clip-path:url(#SVGID_2_);fill:none;stroke:#FFFFFF;stroke-width:2;stroke-miterlimit:10;}
	.st12{clip-path:url(#SVGID_2_);fill:none;stroke:#424242;stroke-width:2;stroke-miterlimit:10;}
	.st13{fill:none;}
</style>
<g id="Макет_TREMA">
	<path class="st0" d="M0,0v85.039978h184.25V0H0z M9.9212646,79.5117798c-2.4264526,0-4.3936768-1.9667969-4.3936768-4.3926392
		c0-2.4279175,1.9672241-4.3947754,4.3936768-4.3947754s4.3936768,1.9668579,4.3936768,4.3947754
		C14.3149414,77.5449829,12.3477173,79.5117798,9.9212646,79.5117798z M9.9223022,14.3149414
		c-2.4279175,0-4.3947144-1.9667969-4.3947144-4.3927002c0-2.4279175,1.9667969-4.3947144,4.3947144-4.3947144
		c2.4258423,0,4.3926392,1.9667969,4.3926392,4.3947144C14.3149414,12.3481445,12.3481445,14.3149414,9.9223022,14.3149414z
		 M174.3297119,79.5117798c-2.4259033,0-4.3927002-1.968811-4.3927002-4.3947144
		c0-2.4258423,1.9667969-4.3927002,4.3927002-4.3927002c2.4278564,0,4.3947144,1.9668579,4.3947144,4.3927002
		C178.7244263,77.5429688,176.7575684,79.5117798,174.3297119,79.5117798z M174.3317261,14.3149414
		c-2.4279175,0-4.3947144-1.9667969-4.3947144-4.3927002c0-2.4279175,1.9667969-4.3947144,4.3947144-4.3947144
		c2.4258423,0,4.3927002,1.9667969,4.3927002,4.3947144C178.7244263,12.3481445,176.7575684,14.3149414,174.3317261,14.3149414z"/>
	<g id="Креп._отверстия">
		<path class="st1" d="M174.3306885,3.9458008c-3.3002319,0-5.9754028,2.6751709-5.9754028,5.9754639
			c0,3.3002319,2.6751709,5.9754028,5.9754028,5.9754028c3.300293,0,5.9754639-2.6751709,5.9754639-5.9754028
			C180.3061523,6.6209717,177.6309814,3.9458008,174.3306885,3.9458008z M174.3317261,14.3149414
			c-2.4279175,0-4.3947144-1.9667969-4.3947144-4.3927002c0-2.4279175,1.9667969-4.3947144,4.3947144-4.3947144
			c2.4258423,0,4.3927002,1.9667969,4.3927002,4.3947144C178.7244263,12.3481445,176.7575684,14.3149414,174.3317261,14.3149414z"/>
		<path class="st1" d="M174.3306885,69.1426392c-3.2987061,0-5.9754028,2.6751709-5.9754028,5.9754639
			s2.6766968,5.9754028,5.9754028,5.9754028c3.300293,0,5.9754639-2.6751099,5.9754639-5.9754028
			S177.6309814,69.1426392,174.3306885,69.1426392z M174.3297119,79.5117798c-2.4259033,0-4.3927002-1.968811-4.3927002-4.3947144
			c0-2.4258423,1.9667969-4.3927002,4.3927002-4.3927002c2.4278564,0,4.3947144,1.9668579,4.3947144,4.3927002
			C178.7244263,77.5429688,176.7575684,79.5117798,174.3297119,79.5117798z"/>
		<path class="st1" d="M9.9212646,69.1426392c-3.300293,0-5.9754639,2.6751709-5.9754639,5.9754639
			s2.6751709,5.9754028,5.9754639,5.9754028s5.9754028-2.6751099,5.9754028-5.9754028S13.2215576,69.1426392,9.9212646,69.1426392z
			 M9.9212646,79.5117798c-2.4264526,0-4.3936768-1.9667969-4.3936768-4.3926392
			c0-2.4279175,1.9672241-4.3947754,4.3936768-4.3947754s4.3936768,1.9668579,4.3936768,4.3947754
			C14.3149414,77.5449829,12.3477173,79.5117798,9.9212646,79.5117798z"/>
		<path class="st1" d="M9.9212646,3.9458008c-3.2877808,0-5.9527588,2.6751709-5.9527588,5.9754639
			c0,3.3002319,2.664978,5.9754028,5.9527588,5.9754028c3.2877197,0,5.9527588-2.6751709,5.9527588-5.9754028
			C15.8740234,6.6209717,13.2089844,3.9458008,9.9212646,3.9458008z M9.9223022,14.3149414
			c-2.4279175,0-4.3947144-1.9667969-4.3947144-4.3927002c0-2.4279175,1.9667969-4.3947144,4.3947144-4.3947144
			c2.4258423,0,4.3926392,1.9667969,4.3926392,4.3947144C14.3149414,12.3481445,12.3481445,14.3149414,9.9223022,14.3149414z"/>
	</g>
	<g id="Слой_11">
		<g>
			<path class="st2" d="M9.9212646,30.0544415c-1.2273617,0-2.2224746-1.0018463-2.2224746-2.2397385
				s0.9951129-2.2415428,2.2224746-2.2415428s2.2224741,1.0036507,2.2224741,2.2415428S11.1486263,30.0544415,9.9212646,30.0544415z
				"/>
			<ellipse class="st3" cx="9.9212646" cy="27.8138008" rx="1.5185714" ry="1.5316002"/>
			<path class="st4" d="M-11.5800838,45.5894737"/>
			<path class="st2" d="M9.9212646,37.5601921c-1.2273617,0-2.2224746-1.0018463-2.2224746-2.2397385
				s0.9951129-2.2415428,2.2224746-2.2415428s2.2224741,1.0036507,2.2224741,2.2415428S11.1486263,37.5601921,9.9212646,37.5601921z
				"/>
			<ellipse class="st3" cx="9.9212646" cy="35.3195496" rx="1.5185714" ry="1.5316002"/>
			<path class="st2" d="M9.9212646,45.0650215c-1.2273617,0-2.2224746-1.0018463-2.2224746-2.2397385
				s0.9951129-2.2415428,2.2224746-2.2415428s2.2224741,1.0036507,2.2224741,2.2415428S11.1486263,45.0650215,9.9212646,45.0650215z
				"/>
			<ellipse class="st3" cx="9.9212646" cy="42.824379" rx="1.5185714" ry="1.5316002"/>
			<path class="st2" d="M11.5501862,51.957283c-2.0229149,1.5395126-4.2713056-0.1709862-3.7840018-2.1831665
				c0.1875348-0.7743721,0.8210769-1.4096413,1.595057-1.5987854C11.3728733,47.6837349,13.0905838,49.9327965,11.5501862,51.957283
				z"/>
			<ellipse class="st3" cx="9.9212646" cy="50.329216" rx="1.5185714" ry="1.5316002"/>
			<path class="st2" d="M11.5501852,59.4621201c-2.0229139,1.5395088-4.2713046-0.1709862-3.7840009-2.1831703
				c0.1875343-0.7743721,0.8210769-1.4096413,1.5950561-1.5987854
				C11.3728733,55.1885681,13.0905838,57.4376335,11.5501852,59.4621201z"/>
			<ellipse class="st3" cx="9.9212646" cy="57.8340492" rx="1.5185714" ry="1.5316002"/>
			<g>
				<path class="st5" d="M1.5810547,37.1791992c-0.1582031-0.152832-0.3076172-0.3779297-0.4482422-0.6757813
					S0.921875,35.8188477,0.921875,35.3422852c0-0.6958008,0.2421875-1.2631836,0.7265625-1.7026367
					c0.4833984-0.4394531,1.1123047-0.6591797,1.8847656-0.6591797h0.0849609c0.7763672,0,1.40625,0.2172852,1.8876953,0.6518555
					c0.4824219,0.4345703,0.7236328,1.0131836,0.7236328,1.7348633c0,0.3862305-0.0605469,0.7246094-0.1796875,1.0166016
					s-0.2763672,0.5380859-0.4726563,0.737793H4.6416016V36.628418l0.7119141-0.1713867
					c0.0947266-0.1166992,0.1728516-0.2578125,0.234375-0.4233398s0.0917969-0.3637695,0.0917969-0.5952148
					c0-0.5620117-0.1904297-0.9951172-0.5722656-1.2988281c-0.3808594-0.3037109-0.875-0.4555664-1.4824219-0.4555664H3.5332031
					c-0.6171875,0-1.1152344,0.1469727-1.4951172,0.4414063c-0.3808594,0.2944336-0.5703125,0.699707-0.5703125,1.2167969
					c0,0.2832031,0.0292969,0.515625,0.0878906,0.6967773c0.0595703,0.1811523,0.1240234,0.3261719,0.1953125,0.4360352h1.1298828
					l0.0351563-0.8540039h0.5136719v1.5581055H1.5810547z"/>
			</g>
			<g>
				<path class="st5" d="M5.7050781,42.0092773l-0.0751953-0.4750977l-3.3515625,1.1650391l-0.4072266,0.1176758v0.0214844
					l0.4072266,0.1181641l3.3554688,1.1616211l0.0712891-0.46875h0.4492188v1.640625H5.7050781l-0.0566406-0.4179688
					l-4.6523438-1.7441406v-0.6040039l4.6523438-1.7436523l0.0566406-0.4145508h0.4492188v1.6435547H5.7050781z"/>
			</g>
			<g>
				<path class="st5" d="M4.6308594,52.1210938v-0.5322266l0.7373047-0.1318359
					c0.0898438-0.1074219,0.1640625-0.25,0.2236328-0.4287109c0.0585938-0.1787109,0.0878906-0.3867188,0.0878906-0.6220703
					c0-0.3740234-0.078125-0.6611328-0.2353516-0.8613281s-0.3623047-0.2998047-0.6142578-0.2998047
					c-0.2246094,0-0.4121094,0.1015625-0.5625,0.3056641c-0.1494141,0.203125-0.28125,0.5322266-0.3945313,0.9873047
					c-0.1347656,0.5478516-0.3330078,0.9648438-0.5957031,1.2490234c-0.2617188,0.2851563-0.5869141,0.4267578-0.9736328,0.4267578
					c-0.4160156,0-0.75-0.1708984-1.0029297-0.5126953S0.921875,50.9121094,0.921875,50.359375
					c0-0.3994141,0.0644531-0.7558594,0.1943359-1.0664063s0.2998047-0.5634766,0.5107422-0.7587891h0.9599609V49.0625
					l-0.7402344,0.1357422c-0.1113281,0.1357422-0.2021484,0.2978516-0.2734375,0.4863281
					c-0.0703125,0.1875-0.1054688,0.4130859-0.1054688,0.6748047c0,0.3554688,0.0742188,0.6357422,0.2226563,0.8417969
					s0.3505859,0.3095703,0.6054688,0.3095703c0.2363281,0,0.4345703-0.0898438,0.59375-0.2685547
					s0.2939453-0.4941406,0.4023438-0.9472656c0.1298828-0.5498047,0.3212891-0.9794922,0.5742188-1.2890625
					c0.2519531-0.3105469,0.5703125-0.4648438,0.953125-0.4648438c0.4033203,0,0.7392578,0.1728516,1.0078125,0.5175781
					c0.2675781,0.3457031,0.4023438,0.7949219,0.4023438,1.3476563c0,0.3642578-0.0625,0.6962891-0.1865234,0.9951172
					s-0.2744141,0.5390625-0.4511719,0.7197266H4.6308594z"/>
			</g>
		</g>
	</g>
	<g id="Циферблат">
	</g>
	<g>
		<path class="st5" d="M57.3789063,67.8974609h-0.640625l-0.0888672-0.5683594
			c-0.0849609-0.0839844-0.1914063-0.1503906-0.3203125-0.1992188s-0.28125-0.0732422-0.4570313-0.0732422
			c-0.3740234,0-0.6621094,0.1347656-0.8642578,0.4042969s-0.3027344,0.6210938-0.3027344,1.0546875v0.1494141
			c0,0.4335938,0.1005859,0.7861328,0.3017578,1.0576172c0.2001953,0.2714844,0.484375,0.4072266,0.8505859,0.4072266
			c0.1699219,0,0.3242188-0.0244141,0.4658203-0.0732422c0.140625-0.0488281,0.2490234-0.1152344,0.3261719-0.1992188
			l0.0888672-0.5683594h0.640625v0.84375c-0.1728516,0.1992188-0.3945313,0.3574219-0.6630859,0.4755859
			s-0.5693359,0.1777344-0.9023438,0.1777344c-0.5771484,0-1.0498047-0.1982422-1.4189453-0.5947266
			c-0.3681641-0.3964844-0.5517578-0.9052734-0.5517578-1.5263672v-0.1435547c0-0.6191406,0.1826172-1.1279297,0.5488281-1.5263672
			c0.3671875-0.3984375,0.8408203-0.5976563,1.421875-0.5976563c0.3330078,0,0.6328125,0.0595703,0.9013672,0.1796875
			c0.2675781,0.1201172,0.4892578,0.2792969,0.6640625,0.4765625V67.8974609z"/>
		<path class="st5" d="M59.5625,70.2119141l0.4609375-0.0878906v-1.9072266h-0.7675781v0.6884766
			c0,0.625-0.0976563,1.0839844-0.2910156,1.3779297c-0.1943359,0.2939453-0.5253906,0.4414063-0.9921875,0.4414063h-0.1357422
			l-0.0117188-0.6738281l0.0947266-0.0029297c0.1972656,0,0.3251953-0.0800781,0.3837891-0.2402344
			c0.0595703-0.1601563,0.0888672-0.4609375,0.0888672-0.9023438v-0.7470703l-0.4609375-0.0878906v-0.515625h2.9521484h0.4609375
			v0.515625l-0.4609375,0.0878906v1.9658203l0.4609375,0.0878906v0.5126953H59.5625V70.2119141z"/>
		<path class="st5" d="M63.7734375,70.7246094C63.75,70.671875,63.7294922,70.6171875,63.7119141,70.5615234
			c-0.0185547-0.0556641-0.0322266-0.1113281-0.0419922-0.1679688c-0.1025391,0.1171875-0.2265625,0.2119141-0.3740234,0.2841797
			c-0.1464844,0.0722656-0.3144531,0.1083984-0.5029297,0.1083984c-0.3134766,0-0.5625-0.0849609-0.7460938-0.2539063
			c-0.1845703-0.1689453-0.2763672-0.3984375-0.2763672-0.6894531c0-0.296875,0.1201172-0.5263672,0.3603516-0.6884766
			s0.5927734-0.2431641,1.0576172-0.2431641h0.4404297v-0.3105469c0-0.1523438-0.0449219-0.2705078-0.1328125-0.3544922
			c-0.0888672-0.0839844-0.2197266-0.1259766-0.3935547-0.1259766c-0.0986328,0-0.1855469,0.0107422-0.2626953,0.0332031
			s-0.1386719,0.0498047-0.1865234,0.0810547l-0.0556641,0.3398438h-0.6503906l0.0029297-0.703125
			c0.1582031-0.1054688,0.3388672-0.1943359,0.5419922-0.2666016c0.2041016-0.0722656,0.4267578-0.1083984,0.6669922-0.1083984
			c0.3955078,0,0.7167969,0.0957031,0.9648438,0.2880859c0.2470703,0.1923828,0.3701172,0.4667969,0.3701172,0.8222656v1.3095703
			c0,0.0488281,0.0009766,0.0947266,0.0019531,0.1376953S64.5,70.1376953,64.5058594,70.1767578l0.2636719,0.0351563v0.5126953
			H63.7734375z M63.0263672,70.1533203c0.1298828,0,0.2480469-0.0283203,0.3544922-0.0839844s0.1884766-0.125,0.2480469-0.2089844
			v-0.4833984h-0.4404297c-0.1835938,0-0.3222656,0.0419922-0.4169922,0.1269531
			c-0.09375,0.0849609-0.1416016,0.1875-0.1416016,0.3066406c0,0.1074219,0.0351563,0.1914063,0.1054688,0.2519531
			C62.8046875,70.1230469,62.9023438,70.1533203,63.0263672,70.1533203z"/>
		<path class="st5" d="M66.8642578,67.5546875v0.515625l-0.4140625,0.0878906v1.3212891l0.0185547,0.0029297l1.0400391-1.9277344
			h0.8623047h0.4580078v0.515625l-0.4580078,0.0878906v1.9658203l0.4580078,0.0878906v0.5126953h-1.734375v-0.5126953
			l0.4140625-0.0878906V68.796875l-0.0175781-0.0029297l-1.0410156,1.9306641h-1.3232422v-0.5126953l0.4609375-0.0878906v-1.9658203
			l-0.4609375-0.0878906v-0.515625h1.3232422H66.8642578z M67.984375,66.1513672l0.0058594,0.0175781
			C68,66.4169922,67.9130859,66.6191406,67.7285156,66.7763672s-0.4316406,0.2363281-0.7431641,0.2363281
			c-0.3134766,0-0.5625-0.0791016-0.7470703-0.2363281c-0.1855469-0.1572266-0.2724609-0.359375-0.2607422-0.6074219
			l0.0058594-0.0175781h0.5849609c0,0.1132813,0.0341797,0.2070313,0.1005859,0.28125
			c0.0673828,0.0742188,0.1728516,0.1113281,0.3164063,0.1113281c0.1396484,0,0.2431641-0.0371094,0.3105469-0.1103516
			c0.0664063-0.0732422,0.1005859-0.1669922,0.1005859-0.2822266H67.984375z"/>
		<path class="st5" d="M69.4853516,70.0625c0.1972656-0.203125,0.3300781-0.4033203,0.3984375-0.5996094
			c0.0693359-0.1962891,0.1074219-0.4755859,0.1152344-0.8388672l0.0058594-0.4658203l-0.4511719-0.0878906v-0.515625h2.8183594
			h0.4609375v0.515625l-0.4609375,0.0878906v1.9101563h0.4638672l-0.0585938,1.6054688h-0.8037109v-0.9492188h-1.8857422v0.9492188
			H69.28125L69.2080078,70.0625H69.4853516z M70.8623047,68.6240234c-0.015625,0.3144531-0.0576172,0.5898438-0.1240234,0.8271484
			c-0.0673828,0.2373047-0.15625,0.4423828-0.265625,0.6142578h1.0429688v-1.828125h-0.6503906L70.8623047,68.6240234z"/>
		<path class="st5" d="M74.7626953,70.7861328c-0.4609375,0-0.8300781-0.1464844-1.1054688-0.4394531
			s-0.4140625-0.6650391-0.4140625-1.1162109v-0.1171875c0-0.4707031,0.1308594-0.8583984,0.3916016-1.1630859
			c0.2617188-0.3046875,0.6113281-0.4560547,1.0507813-0.4541016c0.4316406,0,0.7666016,0.1289063,1.0048828,0.3867188
			s0.3574219,0.6064453,0.3574219,1.0458984v0.4658203h-1.9091797l-0.0058594,0.0175781
			c0.015625,0.2089844,0.0859375,0.3808594,0.2119141,0.515625c0.125,0.1347656,0.2949219,0.2021484,0.5097656,0.2021484
			c0.1904297,0,0.3496094-0.0195313,0.4755859-0.0576172s0.2636719-0.0976563,0.4130859-0.1796875l0.2333984,0.5273438
			c-0.1318359,0.1035156-0.3027344,0.1904297-0.5126953,0.2607422S75.0205078,70.7861328,74.7626953,70.7861328z
			 M74.6855469,68.1552734c-0.1591797,0-0.2851563,0.0605469-0.3779297,0.1816406s-0.1503906,0.2802734-0.171875,0.4775391
			l0.0087891,0.0146484h1.0585938v-0.0761719c0-0.1816406-0.0429688-0.3271484-0.1289063-0.4355469
			S74.859375,68.1552734,74.6855469,68.1552734z"/>
		<path class="st5" d="M76.390625,68.0703125v-0.515625h1.2529297l0.0410156,0.3691406
			c0.0947266-0.1367188,0.2080078-0.2421875,0.3398438-0.3164063s0.2851563-0.1113281,0.4609375-0.1113281
			c0.3964844,0,0.703125,0.1533203,0.921875,0.4599609s0.328125,0.7099609,0.328125,1.2099609v0.0615234
			c0,0.46875-0.109375,0.8457031-0.328125,1.1308594s-0.5244141,0.4277344-0.9160156,0.4277344
			c-0.1669922,0-0.3164063-0.03125-0.4462891-0.0927734s-0.2412109-0.1513672-0.3339844-0.2705078v0.9169922l0.4169922,0.0878906
			v0.515625h-1.6933594v-0.515625l0.4169922-0.0878906v-3.1816406L76.390625,68.0703125z M78.8720703,69.1660156
			c0-0.2988281-0.0498047-0.5410156-0.1503906-0.7265625s-0.2539063-0.2783203-0.4609375-0.2783203
			c-0.1298828,0-0.2402344,0.0263672-0.3320313,0.0791016s-0.1640625,0.1279297-0.2177734,0.2255859v1.3886719
			c0.0537109,0.0898438,0.1259766,0.1582031,0.2177734,0.2050781s0.2041016,0.0703125,0.3378906,0.0703125
			c0.2089844,0,0.3623047-0.0810547,0.4599609-0.2431641s0.1455078-0.3818359,0.1455078-0.6591797V69.1660156z"/>
		<path class="st5" d="M81.6796875,68.9902344c0-0.765625,0.1494141-1.4160156,0.4492188-1.9501953
			s0.6386719-0.8798828,1.0166016-1.0380859h0.0175781l0.15625,0.4277344c-0.2578125,0.1914063-0.4746094,0.5-0.6494141,0.9257813
			c-0.1757813,0.4257813-0.2636719,0.96875-0.2636719,1.6289063v0.0761719c0,0.6621094,0.0878906,1.2050781,0.2636719,1.6298828
			c0.1748047,0.4248047,0.3916016,0.7363281,0.6494141,0.9335938l-0.15625,0.4189453h-0.0175781
			c-0.3779297-0.1582031-0.7167969-0.5039063-1.0166016-1.0371094s-0.4492188-1.1835938-0.4492188-1.9511719V68.9902344z"/>
		<path class="st5" d="M87.3945313,66.4589844v1.1367188h-0.6621094l-0.0351563-0.4775391h-0.7919922v3.0058594l0.4609375,0.0878906
			v0.5126953h-1.7851563v-0.5126953l0.4609375-0.0878906v-3.0058594h-0.7890625l-0.0351563,0.4775391h-0.6591797v-1.1367188
			H87.3945313z"/>
		<path class="st5" d="M87.7607422,70.2119141l0.4140625-0.0878906v-1.9658203l-0.4580078-0.0878906v-0.515625h1.2617188
			l0.0380859,0.4628906c0.0751953-0.1640625,0.1708984-0.2919922,0.2890625-0.3837891s0.2558594-0.1376953,0.4111328-0.1376953
			c0.0449219,0,0.0927734,0.0029297,0.1435547,0.0097656c0.0498047,0.0068359,0.0917969,0.015625,0.125,0.0253906
			l-0.0908203,0.7792969l-0.3554688-0.0087891c-0.1259766,0-0.2304688,0.0244141-0.3125,0.0732422
			c-0.0830078,0.0488281-0.1464844,0.1181641-0.1894531,0.2080078v1.5410156l0.4140625,0.0878906v0.5126953h-1.6904297V70.2119141z"
			/>
		<path class="st5" d="M91.7734375,70.7861328c-0.4609375,0-0.8291016-0.1464844-1.1044922-0.4394531
			c-0.2763672-0.2929688-0.4140625-0.6650391-0.4140625-1.1162109v-0.1171875c0-0.4707031,0.1308594-0.8583984,0.3916016-1.1630859
			s0.6113281-0.4560547,1.0507813-0.4541016c0.4306641,0,0.765625,0.1289063,1.0039063,0.3867188
			s0.3574219,0.6064453,0.3574219,1.0458984v0.4658203h-1.9082031l-0.0058594,0.0175781
			c0.015625,0.2089844,0.0859375,0.3808594,0.2109375,0.515625s0.2949219,0.2021484,0.5097656,0.2021484
			c0.1914063,0,0.3496094-0.0195313,0.4755859-0.0576172s0.2636719-0.0976563,0.4140625-0.1796875l0.2333984,0.5273438
			c-0.1318359,0.1035156-0.3027344,0.1904297-0.5126953,0.2607422S92.03125,70.7861328,91.7734375,70.7861328z
			 M91.6972656,68.1552734c-0.1601563,0-0.2861328,0.0605469-0.3789063,0.1816406s-0.1494141,0.2802734-0.1708984,0.4775391
			l0.0087891,0.0146484h1.0576172v-0.0761719c0-0.1816406-0.0429688-0.3271484-0.1289063-0.4355469
			C92,68.2089844,91.8701172,68.1552734,91.6972656,68.1552734z"/>
		<path class="st5" d="M93.3662109,68.0703125v-0.515625h1.2617188l0.0351563,0.4189453
			c0.1025391-0.1523438,0.2314453-0.2705078,0.3857422-0.3535156s0.3339844-0.1240234,0.5361328-0.1240234
			c0.2050781,0,0.3808594,0.0449219,0.5263672,0.1347656s0.2558594,0.2255859,0.3310547,0.4072266
			c0.0986328-0.1699219,0.2265625-0.3027344,0.3837891-0.3984375s0.3427734-0.1435547,0.5556641-0.1435547
			c0.3154297,0,0.5634766,0.1074219,0.7460938,0.3232422s0.2734375,0.5449219,0.2734375,0.9863281v1.3183594l0.4160156,0.0878906
			v0.5126953h-1.6513672v-0.5126953l0.3720703-0.0878906v-1.3212891c0-0.2402344-0.0390625-0.4072266-0.1181641-0.5009766
			c-0.078125-0.09375-0.1953125-0.140625-0.3515625-0.140625c-0.1220703,0-0.2275391,0.0263672-0.3173828,0.0800781
			s-0.1611328,0.1289063-0.2138672,0.2246094c0,0.0371094,0.0009766,0.0683594,0.0029297,0.0947266
			s0.0029297,0.0537109,0.0029297,0.0810547v1.4824219l0.3486328,0.0878906v0.5126953h-1.5576172v-0.5126953l0.3486328-0.0878906
			v-1.3212891c0-0.234375-0.0390625-0.4003906-0.1181641-0.4970703s-0.1972656-0.1445313-0.3544922-0.1445313
			c-0.1162109,0-0.2177734,0.0214844-0.3056641,0.0654297s-0.1601563,0.1064453-0.2167969,0.1865234v1.7109375l0.3720703,0.0878906
			v0.5126953h-1.6494141v-0.5126953l0.4169922-0.0878906v-1.9658203L93.3662109,68.0703125z"/>
		<path class="st5" d="M101.1318359,70.7246094c-0.0244141-0.0527344-0.0449219-0.1074219-0.0625-0.1630859
			s-0.03125-0.1113281-0.0410156-0.1679688c-0.1025391,0.1171875-0.2275391,0.2119141-0.3740234,0.2841797
			s-0.3144531,0.1083984-0.5039063,0.1083984c-0.3134766,0-0.5615234-0.0849609-0.7460938-0.2539063
			s-0.2763672-0.3984375-0.2763672-0.6894531c0-0.296875,0.1201172-0.5263672,0.3603516-0.6884766
			s0.5927734-0.2431641,1.0585938-0.2431641h0.4394531v-0.3105469c0-0.1523438-0.0439453-0.2705078-0.1328125-0.3544922
			s-0.2197266-0.1259766-0.3925781-0.1259766c-0.0986328,0-0.1865234,0.0107422-0.2636719,0.0332031
			c-0.0761719,0.0224609-0.1386719,0.0498047-0.1855469,0.0810547l-0.0566406,0.3398438h-0.6494141l0.0029297-0.703125
			c0.1572266-0.1054688,0.3378906-0.1943359,0.5419922-0.2666016s0.4257813-0.1083984,0.6660156-0.1083984
			c0.3964844,0,0.7177734,0.0957031,0.9648438,0.2880859s0.3710938,0.4667969,0.3710938,0.8222656v1.3095703
			c0,0.0488281,0,0.0947266,0.0009766,0.1376953s0.0048828,0.0839844,0.0107422,0.1230469l0.2626953,0.0351563v0.5126953
			H101.1318359z M100.3837891,70.1533203c0.1298828,0,0.2480469-0.0283203,0.3544922-0.0839844s0.1894531-0.125,0.2480469-0.2089844
			v-0.4833984h-0.4394531c-0.1835938,0-0.3222656,0.0419922-0.4169922,0.1269531s-0.1416016,0.1875-0.1416016,0.3066406
			c0,0.1074219,0.0341797,0.1914063,0.1044922,0.2519531S100.2597656,70.1533203,100.3837891,70.1533203z"/>
		<path class="st5" d="M104.2871094,69.2304688h-1.6660156v-0.6591797h1.6660156V69.2304688z"/>
		<path class="st5" d="M107.2539063,69.7285156h0.0175781l0.8212891-2.1738281h1.0820313h0.4580078v0.515625l-0.4580078,0.0878906
			v1.9658203l0.4580078,0.0878906v0.5126953h-1.6464844v-0.5126953l0.3251953-0.0878906v-1.2861328l-0.0175781-0.0029297
			l-0.7412109,1.8896484h-0.5791016l-0.7246094-1.8544922l-0.0175781,0.0029297v1.2509766l0.328125,0.0878906v0.5126953h-1.6484375
			v-0.5126953l0.4609375-0.0878906v-1.9658203l-0.4609375-0.0878906v-0.515625h0.4609375h1.0664063L107.2539063,69.7285156z"/>
		<path class="st5" d="M110.0400391,69.1103516c0-0.4726563,0.1337891-0.8603516,0.4003906-1.1621094
			s0.6357422-0.4521484,1.1064453-0.4521484c0.4726563,0,0.8427734,0.1503906,1.109375,0.4511719
			s0.4003906,0.6884766,0.4003906,1.1630859v0.0615234c0,0.4765625-0.1337891,0.8642578-0.4003906,1.1640625
			s-0.6347656,0.4501953-1.1035156,0.4501953c-0.4746094,0-0.8457031-0.1503906-1.1123047-0.4501953
			s-0.4003906-0.6875-0.4003906-1.1640625V69.1103516z M110.9023438,69.171875c0,0.2890625,0.0517578,0.5205078,0.1542969,0.6953125
			s0.2675781,0.2626953,0.4960938,0.2626953c0.2226563,0,0.3857422-0.0878906,0.4892578-0.2636719
			s0.1552734-0.4072266,0.1552734-0.6943359v-0.0615234c0-0.28125-0.0527344-0.5107422-0.1572266-0.6884766
			s-0.2685547-0.2666016-0.4931641-0.2666016s-0.3876953,0.0888672-0.4902344,0.2666016s-0.1542969,0.4072266-0.1542969,0.6884766
			V69.171875z"/>
		<path class="st5" d="M113.6679688,70.0625c0.1972656-0.203125,0.3300781-0.4033203,0.3994141-0.5996094
			c0.0683594-0.1962891,0.1064453-0.4755859,0.1142578-0.8388672l0.0058594-0.4658203l-0.4511719-0.0878906v-0.515625h2.8183594
			h0.4609375v0.515625l-0.4609375,0.0878906v1.9101563h0.4648438l-0.0605469,1.6054688H116.15625v-0.9492188h-1.8847656v0.9492188
			h-0.8066406L113.390625,70.0625H113.6679688z M115.0449219,68.6240234
			c-0.015625,0.3144531-0.0566406,0.5898438-0.1230469,0.8271484c-0.0683594,0.2373047-0.15625,0.4423828-0.2675781,0.6142578
			h1.0429688v-1.828125h-0.6484375L115.0449219,68.6240234z"/>
		<path class="st5" d="M120.7236328,68.0703125l-0.2978516,0.0439453L119.25,71.1992188
			c-0.0927734,0.2285156-0.2167969,0.4199219-0.3710938,0.5742188c-0.1552734,0.1542969-0.3876953,0.2314453-0.6992188,0.2314453
			c-0.0722656,0-0.140625-0.0058594-0.2050781-0.0175781s-0.1396484-0.0283203-0.2255859-0.0498047l0.0996094-0.6240234
			c0.0283203,0.0039063,0.0566406,0.0078125,0.0859375,0.0117188s0.0556641,0.0058594,0.0771484,0.0058594
			c0.1435547,0,0.2539063-0.0351563,0.3310547-0.1044922c0.0761719-0.0693359,0.1357422-0.1552734,0.1767578-0.2587891
			l0.0976563-0.2402344l-1.0136719-2.6103516l-0.2978516-0.046875v-0.515625h1.5654297v0.515625l-0.3574219,0.0585938
			l0.4375,1.265625l0.0439453,0.2285156l0.0185547,0.0029297l0.5048828-1.4970703l-0.3603516-0.0585938v-0.515625h1.5654297
			V68.0703125z"/>
		<path class="st5" d="M122.7636719,70.2119141l0.4609375-0.0878906v-1.9072266h-0.7685547v0.6884766
			c0,0.625-0.0966797,1.0839844-0.2910156,1.3779297c-0.1933594,0.2939453-0.5244141,0.4414063-0.9912109,0.4414063h-0.1357422
			l-0.0117188-0.6738281l0.0947266-0.0029297c0.1962891,0,0.3251953-0.0800781,0.3837891-0.2402344
			c0.0595703-0.1601563,0.0888672-0.4609375,0.0888672-0.9023438v-0.7470703l-0.4609375-0.0878906v-0.515625h2.9521484h0.4609375
			v0.515625l-0.4609375,0.0878906v1.9658203l0.4609375,0.0878906v0.5126953h-1.7822266V70.2119141z"/>
		<path class="st5" d="M126.3447266,67.5546875v1.0224609h0.5996094c0.4335938,0,0.7724609,0.0957031,1.0175781,0.2880859
			c0.2460938,0.1923828,0.3681641,0.4492188,0.3681641,0.7695313c0,0.328125-0.1230469,0.5917969-0.3691406,0.7910156
			s-0.5849609,0.2988281-1.0166016,0.2988281h-1.9238281v-0.5126953l0.4609375-0.0878906v-1.9658203l-0.4609375-0.0878906v-0.515625
			h0.4609375H126.3447266z M126.8056641,67.5546875v0.515625l-0.4609375,0.0878906v-0.6035156H126.8056641z M126.3447266,69.1953125
			v0.8759766h0.5996094c0.1777344,0,0.3095703-0.0400391,0.3964844-0.1191406
			c0.0859375-0.0791016,0.1298828-0.1826172,0.1298828-0.3115234c0-0.1328125-0.0429688-0.2402344-0.1289063-0.3222656
			s-0.2177734-0.1230469-0.3974609-0.1230469H126.3447266z"/>
		<path class="st5" d="M130.3212891,69.0546875c0,0.7480469-0.1552734,1.3935547-0.4667969,1.9375
			s-0.6582031,0.8945313-1.0400391,1.0507813h-0.0175781l-0.1591797-0.4189453
			c0.2539063-0.1914063,0.4697266-0.5009766,0.6464844-0.9287109c0.1777344-0.4277344,0.2666016-0.9726563,0.2666016-1.6347656
			V68.984375c0-0.65625-0.0898438-1.2001953-0.2695313-1.6308594c-0.1787109-0.4306641-0.3935547-0.7421875-0.6435547-0.9355469
			l0.1591797-0.4160156h0.0175781c0.3818359,0.15625,0.7285156,0.5068359,1.0400391,1.0517578
			s0.4667969,1.1904297,0.4667969,1.9365234V69.0546875z"/>
	</g>
	<g>
		<path class="st5" d="M63.4150391,22.3754883c0,0.7524414-0.1738281,1.3237305-0.5214844,1.7128906
			c-0.3486328,0.3891602-0.8193359,0.5839844-1.4121094,0.5839844c-0.5996094,0-1.0732422-0.1948242-1.4228516-0.5839844
			s-0.5234375-0.9604492-0.5234375-1.7128906V21.121582c0-0.75,0.1738281-1.3208008,0.5214844-1.7128906
			s0.8203125-0.5878906,1.4160156-0.5878906c0.59375,0,1.0664063,0.1958008,1.4169922,0.5878906
			s0.5253906,0.9628906,0.5253906,1.7128906V22.3754883z M62.2685547,21.0043945
			c0-0.4506836-0.0683594-0.7807617-0.2041016-0.9902344c-0.1367188-0.2094727-0.3339844-0.3144531-0.5917969-0.3144531
			c-0.2597656,0-0.4570313,0.1040039-0.5908203,0.3125s-0.2001953,0.5390625-0.2001953,0.9921875v1.4804688
			c0,0.4584961,0.0673828,0.7915039,0.2021484,1c0.1357422,0.2084961,0.3349609,0.3125,0.5976563,0.3125
			c0.2568359,0,0.4521484-0.1040039,0.5869141-0.3125c0.1337891-0.2084961,0.2001953-0.5415039,0.2001953-1V21.0043945z"/>
		<path class="st5" d="M63.9550781,19.996582c0-0.3359375,0.109375-0.6157227,0.3291016-0.8398438
			c0.21875-0.2241211,0.5244141-0.3359375,0.9160156-0.3359375c0.3964844,0,0.7041016,0.1113281,0.921875,0.3339844
			s0.3271484,0.503418,0.3271484,0.8417969v0.3007813c0,0.3359375-0.109375,0.6147461-0.3271484,0.8359375
			s-0.5224609,0.3320313-0.9140625,0.3320313c-0.3945313,0-0.7011719-0.1108398-0.921875-0.3320313
			s-0.3310547-0.5-0.3310547-0.8359375V19.996582z M64.7197266,20.2973633c0,0.1508789,0.0419922,0.277832,0.1259766,0.3808594
			s0.2041016,0.1542969,0.3623047,0.1542969c0.1523438,0,0.2705078-0.0512695,0.3544922-0.1542969
			s0.1259766-0.2299805,0.1259766-0.3808594V19.996582c0-0.1508789-0.0429688-0.2792969-0.1279297-0.3847656
			c-0.0859375-0.1054688-0.2060547-0.1582031-0.3603516-0.1582031c-0.1552734,0-0.2744141,0.0527344-0.3564453,0.1582031
			c-0.0830078,0.1054688-0.1240234,0.2338867-0.1240234,0.3847656V20.2973633z M65.5351563,24.1645508l-0.5595703-0.2929688
			l2.8007813-4.4453125l0.5595703,0.2929688L65.5351563,24.1645508z M66.6972656,23.1958008
			c0-0.3334961,0.1103516-0.6118164,0.3310547-0.8359375s0.5263672-0.3359375,0.9179688-0.3359375
			c0.3935547,0,0.7001953,0.1113281,0.9199219,0.3339844c0.21875,0.2226563,0.3291016,0.5019531,0.3291016,0.8378906v0.3007813
			c0,0.3383789-0.109375,0.6186523-0.3271484,0.8398438c-0.21875,0.2211914-0.5234375,0.3320313-0.9140625,0.3320313
			c-0.3945313,0-0.7021484-0.1113281-0.9238281-0.3339844c-0.2226563-0.2226563-0.3330078-0.5019531-0.3330078-0.8378906V23.1958008
			z M67.4609375,23.496582c0,0.1484375,0.0458984,0.2753906,0.1367188,0.3808594
			c0.0898438,0.1054688,0.2089844,0.1582031,0.3564453,0.1582031c0.1708984,0,0.2929688-0.0488281,0.3662109-0.1464844
			s0.1103516-0.2285156,0.1103516-0.3925781v-0.3007813c0-0.1484375-0.0419922-0.2753906-0.1259766-0.3808594
			s-0.2041016-0.1582031-0.3583984-0.1582031c-0.1582031,0-0.2783203,0.0527344-0.3603516,0.1582031
			c-0.0830078,0.1054688-0.125,0.2324219-0.125,0.3808594V23.496582z"/>
	</g>
	<g>
		<path class="st5" d="M128.8603516,23.9067383l0.96875-0.1171875v-3.8515625h-0.9804688v-0.6523438l2.1269531-0.3828125v4.8867188
			l0.9697266,0.1171875v0.6835938h-3.0849609V23.9067383z"/>
		<path class="st5" d="M136.4326172,22.3754883c0,0.7524414-0.1738281,1.3237305-0.5224609,1.7128906
			c-0.3476563,0.3891602-0.8183594,0.5839844-1.4121094,0.5839844c-0.5986328,0-1.0732422-0.1948242-1.421875-0.5839844
			c-0.3496094-0.3891602-0.5244141-0.9604492-0.5244141-1.7128906V21.121582c0-0.75,0.1738281-1.3208008,0.5224609-1.7128906
			c0.3476563-0.3920898,0.8193359-0.5878906,1.4160156-0.5878906c0.59375,0,1.0654297,0.1958008,1.4160156,0.5878906
			s0.5263672,0.9628906,0.5263672,1.7128906V22.3754883z M135.2861328,21.0043945
			c0-0.4506836-0.0683594-0.7807617-0.2050781-0.9902344s-0.3330078-0.3144531-0.5908203-0.3144531
			c-0.2597656,0-0.4570313,0.1040039-0.5908203,0.3125s-0.2011719,0.5390625-0.2011719,0.9921875v1.4804688
			c0,0.4584961,0.0673828,0.7915039,0.203125,1c0.1347656,0.2084961,0.3339844,0.3125,0.5966797,0.3125
			c0.2578125,0,0.453125-0.1040039,0.5869141-0.3125s0.2011719-0.5415039,0.2011719-1V21.0043945z"/>
		<path class="st5" d="M141.0419922,22.3754883c0,0.7524414-0.1738281,1.3237305-0.5224609,1.7128906
			c-0.3476563,0.3891602-0.8183594,0.5839844-1.4121094,0.5839844c-0.5986328,0-1.0732422-0.1948242-1.421875-0.5839844
			c-0.3496094-0.3891602-0.5244141-0.9604492-0.5244141-1.7128906V21.121582c0-0.75,0.1738281-1.3208008,0.5224609-1.7128906
			c0.3476563-0.3920898,0.8193359-0.5878906,1.4160156-0.5878906c0.59375,0,1.0654297,0.1958008,1.4160156,0.5878906
			s0.5263672,0.9628906,0.5263672,1.7128906V22.3754883z M139.8955078,21.0043945
			c0-0.4506836-0.0683594-0.7807617-0.2050781-0.9902344s-0.3330078-0.3144531-0.5908203-0.3144531
			c-0.2597656,0-0.4570313,0.1040039-0.5908203,0.3125s-0.2011719,0.5390625-0.2011719,0.9921875v1.4804688
			c0,0.4584961,0.0673828,0.7915039,0.203125,1c0.1347656,0.2084961,0.3339844,0.3125,0.5966797,0.3125
			c0.2578125,0,0.453125-0.1040039,0.5869141-0.3125s0.2011719-0.5415039,0.2011719-1V21.0043945z"/>
		<path class="st5" d="M141.5820313,19.996582c0-0.3359375,0.109375-0.6157227,0.3291016-0.8398438
			c0.21875-0.2241211,0.5244141-0.3359375,0.9160156-0.3359375c0.3964844,0,0.7041016,0.1113281,0.921875,0.3339844
			s0.3271484,0.503418,0.3271484,0.8417969v0.3007813c0,0.3359375-0.109375,0.6147461-0.3271484,0.8359375
			s-0.5224609,0.3320313-0.9140625,0.3320313c-0.3945313,0-0.7011719-0.1108398-0.921875-0.3320313
			s-0.3310547-0.5-0.3310547-0.8359375V19.996582z M142.3466797,20.2973633c0,0.1508789,0.0419922,0.277832,0.1259766,0.3808594
			s0.2041016,0.1542969,0.3623047,0.1542969c0.1523438,0,0.2705078-0.0512695,0.3544922-0.1542969
			s0.1259766-0.2299805,0.1259766-0.3808594V19.996582c0-0.1508789-0.0429688-0.2792969-0.1279297-0.3847656
			c-0.0859375-0.1054688-0.2060547-0.1582031-0.3603516-0.1582031c-0.1552734,0-0.2744141,0.0527344-0.3564453,0.1582031
			c-0.0830078,0.1054688-0.1240234,0.2338867-0.1240234,0.3847656V20.2973633z M143.1621094,24.1645508l-0.5595703-0.2929688
			l2.8007813-4.4453125l0.5595703,0.2929688L143.1621094,24.1645508z M144.3242188,23.1958008
			c0-0.3334961,0.1103516-0.6118164,0.3310547-0.8359375s0.5263672-0.3359375,0.9179688-0.3359375
			c0.3935547,0,0.7001953,0.1113281,0.9199219,0.3339844c0.21875,0.2226563,0.3291016,0.5019531,0.3291016,0.8378906v0.3007813
			c0,0.3383789-0.109375,0.6186523-0.3271484,0.8398438c-0.21875,0.2211914-0.5234375,0.3320313-0.9140625,0.3320313
			c-0.3945313,0-0.7021484-0.1113281-0.9238281-0.3339844c-0.2226563-0.2226563-0.3330078-0.5019531-0.3330078-0.8378906V23.1958008
			z M145.0878906,23.496582c0,0.1484375,0.0458984,0.2753906,0.1367188,0.3808594
			c0.0898438,0.1054688,0.2089844,0.1582031,0.3564453,0.1582031c0.1708984,0,0.2929688-0.0488281,0.3662109-0.1464844
			s0.1103516-0.2285156,0.1103516-0.3925781v-0.3007813c0-0.1484375-0.0419922-0.2753906-0.1259766-0.3808594
			s-0.2041016-0.1582031-0.3583984-0.1582031c-0.1582031,0-0.2783203,0.0527344-0.3603516,0.1582031
			c-0.0830078,0.1054688-0.125,0.2324219-0.125,0.3808594V23.496582z"/>
	</g>
	<g>
		<path class="st6" d="M13.7460327,30.7224846v23.5949936c0,0.7250023,0.5877304,1.3127327,1.3127327,1.3127327h167.8785095
			c0.7250061,0,1.3127289-0.5877304,1.3127289-1.3127327V30.7224846c0-0.7250023-0.5877228-1.3127327-1.3127289-1.3127327
			H15.0587654C14.3337631,29.4097519,13.7460327,29.9974823,13.7460327,30.7224846z M18.7581787,45.1420517
			c-1.4481201,0-2.6220703-1.1739502-2.6220703-2.6220703s1.1739502-2.6220703,2.6220703-2.6220703
			s2.6220703,1.1739502,2.6220703,2.6220703S20.2062988,45.1420517,18.7581787,45.1420517z M179.7510529,45.0933151
			c-1.8472595,0.3501244-3.4367218-1.2393799-3.0865021-3.0866508c0.1945343-1.0261574,1.0339661-1.8655396,2.0601349-2.0600243
			c1.8472748-0.3500938,3.436615,1.2394028,3.0864258,3.0866623
			C181.6165771,44.0594368,180.7771912,44.8988228,179.7510529,45.0933151z"/>
		<path class="st7" d="M98.9980011,32.4569969H16.0137501v4.8754921c3.5224457,0,6.3779526,2.9036713,6.3779526,5.2519684
			s-2.8555069,5.2519684-6.3779526,5.2519684v4.7465553h82.9842529h82.9842529V47.707489
			c-3.5224457,0-6.3779602-2.9036713-6.3779602-5.2519684s2.8555145-5.2519684,6.3779602-5.2519684v-4.7465553H98.9980011z"/>
	</g>
	<line class="st8" x1="22.3917027" y1="42.5844574" x2="175.6042938" y2="42.5844574"/>
	<g>
		<path class="st9" d="M118.3444901,46.6006393v-9.3070869c0-6.6000004,5.4000015-12,11.9999924-12H172.25
			c6.6000061,0,12,5.3999996,12,12v9.3070869c0,6.5999985-5.3999939,12-12,12h-41.9055176
			C123.7444916,58.6006393,118.3444901,53.2006378,118.3444901,46.6006393z"/>
		<path class="st10" d="M127.698822,44.8998528V38.994339c0-6.5999985,5.3999939-12,12-12h23.1968536
			c6.5999908,0,12,5.4000015,12,12v5.9055138c0,6.5999985-5.4000092,12-12,12H139.698822
			C133.0988159,56.8998528,127.698822,51.4998512,127.698822,44.8998528z"/>
		<g>
			<defs>
				<path id="SVGID_1_" d="M127.698822,45.0001602v-5.9055099c0-6.6000023,5.3999939-12,12-12h23.1968536
					c6.5999908,0,12,5.3999977,12,12v5.9055099c0,6.6000023-5.4000092,12-12,12H139.698822
					C133.0988159,57.0001602,127.698822,51.6001625,127.698822,45.0001602z"/>
			</defs>
			<clipPath id="SVGID_2_">
				<use xlink:href="#SVGID_1_"  style="overflow:visible;"/>
			</clipPath>
			<line class="st11" x1="151.2972412" y1="56.8998528" x2="151.2972412" y2="26.994339"/>
			<line class="st12" x1="146.2972412" y1="56.8998528" x2="146.2972412" y2="26.994339"/>
			<line class="st12" x1="141.2972412" y1="56.8998528" x2="141.2972412" y2="26.994339"/>
			<line class="st12" x1="136.2972412" y1="56.8998528" x2="136.2972412" y2="26.994339"/>
			<line class="st12" x1="131.297226" y1="56.8998528" x2="131.297226" y2="27.0946503"/>
			<line class="st12" x1="161.2972565" y1="56.9376602" x2="161.2972565" y2="27.0321503"/>
			<line class="st12" x1="156.2972412" y1="56.9376602" x2="156.2972412" y2="27.0321503"/>
			<line class="st12" x1="171.2972565" y1="57.0001602" x2="171.2972565" y2="27.0946503"/>
			<line class="st12" x1="166.2972565" y1="56.8998528" x2="166.2972565" y2="26.994339"/>
		</g>
	</g>
	<rect x="13.7460327" y="21.1522827" class="st6" width="7.5664673" height="7.5664673"/>
	<g>
		<rect x="122.4940643" y="4.039351" class="st6" width="4.1102362" height="20.5511818"/>
		<rect x="117.3838272" y="7.1316915" class="st6" width="4.1102362" height="17.4588413"/>
		<rect x="112.2735901" y="8.6778622" class="st6" width="4.1102362" height="15.9126701"/>
		<rect x="107.1633606" y="10.2240324" class="st6" width="4.1102362" height="14.3664999"/>
		<rect x="102.0531235" y="11.7702026" class="st6" width="4.1102362" height="12.8203297"/>
		<rect x="96.9428864" y="13.3163729" class="st6" width="4.1102362" height="11.2741585"/>
		<rect x="91.8326492" y="14.8625431" class="st6" width="4.1102362" height="9.7279882"/>
		<rect x="86.7224121" y="16.4087143" class="st6" width="4.1102362" height="8.181818"/>
		<rect x="81.612175" y="17.9548836" class="st6" width="4.1102362" height="6.6356478"/>
		<rect x="76.5019379" y="19.5010548" class="st6" width="4.1102362" height="5.0894775"/>
		<rect x="71.3917007" y="21.047224" class="st6" width="4.1102362" height="3.5433071"/>
	</g>
	<line class="st13" x1="67.3397217" y1="21.047224" x2="112.5523224" y2="4.039351"/>
</g>
<g id="Режим_изоляции">
	<g>
		<path d="M15.1777344,22.4521484l0.0537109,0.3857422l4.6582031,1.8188477v0.6040039l-4.6582031,1.7866211l-0.0537109,0.3823242
			h-0.4462891v-1.4936523h0.4462891l0.0673828,0.3930664l0.9492188-0.3432617V23.902832l-0.9492188-0.3540039l-0.0673828,0.3930664
			h-0.4462891v-1.4897461H15.1777344z M16.7792969,24.1206055v1.6508789l2.2148438-0.8076172v-0.0214844L16.7792969,24.1206055z"/>
	</g>
	<g>
	</g>
	<g>
	</g>
	<g>
	</g>
	<g>
	</g>
	<g>
	</g>
</g>
</svg>
