<?xml version="1.0" encoding="utf-8"?>
<!-- Generator: Adobe Illustrator 22.1.0, SVG Export Plug-In . SVG Version: 6.00 Build 0)  -->
<svg version="1.1" xmlns="http://www.w3.org/2000/svg" xmlns:xlink="http://www.w3.org/1999/xlink" x="0px" y="0px"
	 viewBox="0 0 85.0400009 85.0400009" style="enable-background:new 0 0 85.0400009 85.0400009;" xml:space="preserve">
<style type="text/css">
	.st0{fill:#19191A;}
	.st1{fill:#9E9B9C;}
	.st2{fill:#CDC7BC;}
	.st3{fill:#363331;}
	.st4{fill:#B5B4B3;}
	.st5{fill:#4C4C4C;}
	.st6{fill:#E39344;}
	.st7{fill:#313131;stroke:#0D0E0F;stroke-width:0.0111803;stroke-miterlimit:10;}
	.st8{fill:#E6E6E6;stroke:#0D0E0F;stroke-width:0.0111803;stroke-miterlimit:10;}
	.st9{fill:#FFFFFF;}
	.st10{fill:#4E8B5C;}
	.st11{opacity:0.5;fill:url(#SVGID_1_);}
	.st12{opacity:0.5;fill:url(#SVGID_2_);}
	.st13{fill:#B3B3B3;}
	.st14{fill:#CCCCCC;}
	.st15{opacity:0.5;fill:url(#SVGID_3_);}
	.st16{opacity:0.5;fill:url(#SVGID_4_);}
	.st17{fill:#666566;}
	.st18{fill:#EBAD4F;}
	.st19{display:none;}
	.st20{display:inline;fill:none;}
	.st21{display:inline;fill:#E39344;}
	.st22{opacity:0.5;fill:url(#SVGID_5_);}
	.st23{opacity:0.5;fill:url(#SVGID_6_);}
	.st24{display:none;fill:#D2D94E;stroke:#EFE94A;stroke-width:0.25;stroke-miterlimit:10;}
	.st25{fill:#5DAF61;}
	.st26{opacity:0.37;fill:none;stroke:#FFFFFF;stroke-width:0.5;stroke-miterlimit:10;}
	.st27{fill:none;stroke:#FFFFFF;stroke-width:0.5;stroke-miterlimit:10;}
	.st28{fill:#CEC7BD;}
	.st29{fill:#E5E4E0;}
	.st30{fill:#918C84;}
	.st31{fill:#151616;}
	.st32{fill:none;stroke:#F6F6F6;stroke-width:0.75;stroke-miterlimit:10;}
	.st33{fill:none;stroke:#FFFFFF;stroke-width:0.1865478;stroke-miterlimit:10;}
	.st34{fill:#FFFFFF;stroke:#0D0E0F;stroke-width:0.1301685;stroke-miterlimit:10;}
	.st35{fill:none;stroke:#FFFFFF;stroke-width:0.2148963;stroke-miterlimit:10;}
	.st36{fill:#0D0E0F;}
	.st37{fill:#E39344;stroke:#666566;stroke-width:0.0232234;stroke-miterlimit:10;}
	.st38{fill:#EBAD4F;stroke:#B3B3B3;stroke-width:0.0252307;stroke-miterlimit:10;}
	.st39{fill:none;stroke:#808080;stroke-width:0.0114155;stroke-miterlimit:10;}
</style>
<g id="Лицевая_сторона">
</g>
<g id="Обратная_сторона">
	<g>
		<path class="st0" d="M-0.000304-0.000304v85.039978h85.039978V-0.000304H-0.000304z M9.921998,79.5114746
			c-2.427917,0-4.3947139-1.9667969-4.3947139-4.3927002c0-2.4279175,1.9667969-4.3947144,4.3947139-4.3947144
			c2.4258423,0,4.3926392,1.9667969,4.3926392,4.3947144C14.3146372,77.5446777,12.3478403,79.5114746,9.921998,79.5114746z
			 M9.921998,14.3146372c-2.427917,0-4.3947139-1.9667969-4.3947139-4.3927002c0-2.427917,1.9667969-4.3947139,4.3947139-4.3947139
			c2.4258423,0,4.3926392,1.9667969,4.3926392,4.3947139C14.3146372,12.3478403,12.3478403,14.3146372,9.921998,14.3146372z
			 M75.1188354,79.5114746c-2.4279175,0-4.3947144-1.9667969-4.3947144-4.3927002
			c0-2.4279175,1.9667969-4.3947144,4.3947144-4.3947144c2.4258423,0,4.3926392,1.9667969,4.3926392,4.3947144
			C79.5114746,77.5446777,77.5446777,79.5114746,75.1188354,79.5114746z M75.1188354,14.3146372
			c-2.4279175,0-4.3947144-1.9667969-4.3947144-4.3927002c0-2.427917,1.9667969-4.3947139,4.3947144-4.3947139
			c2.4258423,0,4.3926392,1.9667969,4.3926392,4.3947139C79.5114746,12.3478403,77.5446777,14.3146372,75.1188354,14.3146372z"/>
		<path class="st1" d="M9.9209604,3.9454968c-3.2877803,0-5.9527588,2.6751711-5.9527588,5.9754639
			c0,3.3002319,2.6649783,5.9754028,5.9527588,5.9754028c3.2877197,0,5.9527588-2.6751709,5.9527588-5.9754028
			C15.8737192,6.6206679,13.2086802,3.9454968,9.9209604,3.9454968z M9.921998,14.3146372
			c-2.427917,0-4.3947139-1.9667969-4.3947139-4.3927002c0-2.427917,1.9667969-4.3947139,4.3947139-4.3947139
			c2.4258423,0,4.3926392,1.9667969,4.3926392,4.3947139C14.3146372,12.3478403,12.3478403,14.3146372,9.921998,14.3146372z"/>
		<path class="st1" d="M75.1178055,3.9454968c-3.2877808,0-5.9527588,2.6751711-5.9527588,5.9754639
			c0,3.3002319,2.664978,5.9754028,5.9527588,5.9754028c3.2877197,0,5.9527588-2.6751709,5.9527588-5.9754028
			C81.0705643,6.6206679,78.4055252,3.9454968,75.1178055,3.9454968z M75.1188431,14.3146372
			c-2.4279175,0-4.3947144-1.9667969-4.3947144-4.3927002c0-2.427917,1.9667969-4.3947139,4.3947144-4.3947139
			c2.4258423,0,4.3926392,1.9667969,4.3926392,4.3947139C79.5114822,12.3478403,77.5446854,14.3146372,75.1188431,14.3146372z"/>
		<path class="st1" d="M9.9209604,69.1423721c-3.2877803,0-5.9527588,2.6751709-5.9527588,5.9754639
			c0,3.3002319,2.6649783,5.9754028,5.9527588,5.9754028c3.2877197,0,5.9527588-2.6751709,5.9527588-5.9754028
			C15.8737192,71.817543,13.2086802,69.1423721,9.9209604,69.1423721z M9.921998,79.5115128
			c-2.427917,0-4.3947139-1.9667969-4.3947139-4.3927002c0-2.4279175,1.9667969-4.3947144,4.3947139-4.3947144
			c2.4258423,0,4.3926392,1.9667969,4.3926392,4.3947144C14.3146372,77.5447159,12.3478403,79.5115128,9.921998,79.5115128z"/>
		<path class="st1" d="M75.1178055,69.1423721c-3.2877808,0-5.9527588,2.6751709-5.9527588,5.9754639
			c0,3.3002319,2.664978,5.9754028,5.9527588,5.9754028c3.2877197,0,5.9527588-2.6751709,5.9527588-5.9754028
			C81.0705643,71.817543,78.4055252,69.1423721,75.1178055,69.1423721z M75.1188431,79.5115128
			c-2.4279175,0-4.3947144-1.9667969-4.3947144-4.3927002c0-2.4279175,1.9667969-4.3947144,4.3947144-4.3947144
			c2.4258423,0,4.3926392,1.9667969,4.3926392,4.3947144C79.5114822,77.5447159,77.5446854,79.5115128,75.1188431,79.5115128z"/>
	</g>
	<g>
		<g>
			<path class="st9" d="M71.3691788,46.4804688l-2.6386719-0.9140625v-0.4609375l3.1992188,1.1865234v0.3730469
				l-3.1992188,1.1845703V47.390625L71.3691788,46.4804688z"/>
			<path class="st9" d="M69.5527725,44.3583984l0.2636719-0.0117188c-0.2050781-0.1738281-0.3076172-0.4091797-0.3076172-0.7050781
				c0-0.3320313,0.1269531-0.5585938,0.3818359-0.6787109c-0.1142578-0.0791016-0.2060547-0.1826172-0.2763672-0.3085938
				c-0.0703125-0.1269531-0.1054688-0.2763672-0.1054688-0.4501953c0-0.5205078,0.2763672-0.7861328,0.828125-0.7949219h1.5927734
				v0.40625h-1.5683594c-0.1699219,0-0.296875,0.0390625-0.3818359,0.1171875
				c-0.0839844,0.0771484-0.1259766,0.2080078-0.1259766,0.390625c0,0.1513672,0.0449219,0.2763672,0.1347656,0.3759766
				c0.0908203,0.0996094,0.2119141,0.1572266,0.3642578,0.1728516h1.5771484V43.28125h-1.5576172
				c-0.3457031,0-0.5185547,0.1689453-0.5185547,0.5078125c0,0.2666016,0.1132813,0.4492188,0.3408203,0.546875h1.7353516v0.40625
				h-2.3769531V44.3583984z"/>
			<path class="st9" d="M70.7187881,40.9033203c-0.2324219,0-0.4414063-0.0458984-0.6279297-0.1367188
				c-0.1855469-0.0917969-0.3300781-0.2197266-0.4306641-0.3828125c-0.1015625-0.1630859-0.1513672-0.3496094-0.1513672-0.5595703
				c0-0.3232422,0.1113281-0.5849609,0.3359375-0.7851563c0.2236328-0.2001953,0.5224609-0.2998047,0.8945313-0.2998047h0.0283203
				c0.2314453,0,0.4394531,0.0439453,0.6230469,0.1328125s0.3271484,0.2158203,0.4296875,0.3798828
				c0.1025391,0.1650391,0.1533203,0.3544922,0.1533203,0.5683594c0,0.3222656-0.1123047,0.5830078-0.3359375,0.7832031
				c-0.2246094,0.2001953-0.5205078,0.2998047-0.8896484,0.2998047H70.7187881z M70.7676163,40.4951172
				c0.2636719,0,0.4755859-0.0615234,0.6347656-0.1835938c0.1601563-0.1220703,0.2392578-0.2861328,0.2392578-0.4912109
				c0-0.2070313-0.0800781-0.3701172-0.2421875-0.4921875c-0.1621094-0.1210938-0.3886719-0.1826172-0.6806641-0.1826172
				c-0.2597656,0-0.4716797,0.0625-0.6337891,0.1855469c-0.1611328,0.1240234-0.2421875,0.2890625-0.2421875,0.4931641
				c0,0.2011719,0.0800781,0.3632813,0.2392578,0.4863281C70.2422256,40.4335938,70.4707413,40.4951172,70.7676163,40.4951172z"/>
			<path class="st9" d="M68.9766006,37.6777344h0.5761719V37.234375h0.3134766v0.4433594h1.4765625
				c0.0957031,0,0.1669922-0.0195313,0.2148438-0.0585938c0.0478516-0.0400391,0.0712891-0.1074219,0.0712891-0.203125
				c0-0.0458984-0.0087891-0.1103516-0.0263672-0.1933594h0.328125c0.0283203,0.1074219,0.0429688,0.2109375,0.0429688,0.3125
				c0,0.1816406-0.0546875,0.3183594-0.1650391,0.4111328c-0.109375,0.0917969-0.265625,0.1376953-0.4677734,0.1376953h-1.4746094
				v0.4335938h-0.3134766v-0.4335938h-0.5761719V37.6777344z"/>
		</g>
		<g>
			<path class="st9" d="M80.4258194,45.9150391h1.6455078v-1.5830078h0.4208984v1.5830078h1.6591797v0.4482422h-1.6591797v1.5820313
				h-0.4208984v-1.5820313h-1.6455078V45.9150391z"/>
		</g>
		<g>
			<path class="st9" d="M82.4404678,40.6923828h-0.3505859v-3.5019531h0.3505859V40.6923828z"/>
		</g>
		<g>
			<path class="st28" d="M73.2318039,46.1402855c0-1.2273598,1.0018463-2.2224731,2.2397385-2.2224731
				s2.241539,0.9951134,2.241539,2.2224731c0,1.2273636-1.0036469,2.222477-2.241539,2.222477
				S73.2318039,47.3676491,73.2318039,46.1402855z"/>
			<ellipse class="st30" cx="75.4724426" cy="46.1402855" rx="1.5316002" ry="1.5185714"/>
		</g>
		<g>
			<path class="st28" d="M73.2318039,38.9402809c0-1.2273636,1.0018463-2.222477,2.2397385-2.222477
				s2.241539,0.9951134,2.241539,2.222477c0,1.2273598-1.0036469,2.2224731-2.241539,2.2224731
				S73.2318039,40.1676407,73.2318039,38.9402809z"/>
			<ellipse class="st30" cx="75.4724426" cy="38.9402809" rx="1.5316002" ry="1.5185714"/>
		</g>
	</g>
	<g>
		<g>
			<path class="st9" d="M48.4717178,17.0195313h-2.0966797v-0.2919922l1.1074219-1.2304688
				c0.1640625-0.1860352,0.2773438-0.3374023,0.3398438-0.4541016c0.0625-0.1162109,0.09375-0.2368164,0.09375-0.3613281
				c0-0.1669922-0.0507813-0.3037109-0.1523438-0.4111328c-0.1005859-0.1064453-0.2353516-0.1601563-0.4042969-0.1601563
				c-0.2021484,0-0.359375,0.0576172-0.4707031,0.1723633c-0.1123047,0.1152344-0.1679688,0.2753906-0.1679688,0.4799805h-0.4072266
				c0-0.2939453,0.0947266-0.5322266,0.2851563-0.7138672c0.1894531-0.1816406,0.4433594-0.2724609,0.7607422-0.2724609
				c0.2978516,0,0.5322266,0.078125,0.7050781,0.2338867c0.1728516,0.15625,0.2597656,0.3637695,0.2597656,0.6230469
				c0,0.3149414-0.2011719,0.6899414-0.6015625,1.125L46.8652725,16.6875h1.6064453V17.0195313z"/>
			<path class="st9" d="M50.7744522,16.1826172h-1.3398438l-0.3017578,0.8369141h-0.4345703l1.2216797-3.1992188h0.3691406
				l1.2236328,3.1992188h-0.4326172L50.7744522,16.1826172z M49.5615616,15.8374023h1.0878906l-0.5449219-1.496582
				L49.5615616,15.8374023z"/>
		</g>
		<g>
			<path class="st9" d="M55.739296,17.0195313h-2.0966797v-0.2919922l1.1074219-1.2304688
				c0.1640625-0.1860352,0.2773438-0.3374023,0.3398438-0.4541016c0.0625-0.1162109,0.09375-0.2368164,0.09375-0.3613281
				c0-0.1669922-0.0507813-0.3037109-0.1523438-0.4111328c-0.1005859-0.1064453-0.2353516-0.1601563-0.4042969-0.1601563
				c-0.2021484,0-0.359375,0.0576172-0.4707031,0.1723633c-0.1123047,0.1152344-0.1679688,0.2753906-0.1679688,0.4799805h-0.4072266
				c0-0.2939453,0.0947266-0.5322266,0.2851563-0.7138672c0.1894531-0.1816406,0.4433594-0.2724609,0.7607422-0.2724609
				c0.2978516,0,0.5322266,0.078125,0.7050781,0.2338867c0.1728516,0.15625,0.2597656,0.3637695,0.2597656,0.6230469
				c0,0.3149414-0.2011719,0.6899414-0.6015625,1.125L54.1328506,16.6875h1.6064453V17.0195313z"/>
			<path class="st9" d="M56.2744522,17.0195313v-3.1992188h1.0458984c0.3476563,0,0.6083984,0.0717773,0.7832031,0.215332
				c0.1757813,0.1435547,0.2626953,0.355957,0.2626953,0.637207c0,0.1494141-0.0419922,0.2817383-0.1269531,0.3964844
				c-0.0849609,0.1152344-0.2011719,0.2041016-0.3476563,0.2670898c0.1728516,0.0483398,0.3095703,0.1401367,0.4101563,0.2758789
				c0.1005859,0.1352539,0.1503906,0.296875,0.1503906,0.484375c0,0.2871094-0.0927734,0.5126953-0.2792969,0.6767578
				c-0.1855469,0.1640625-0.4492188,0.2460938-0.7890625,0.2460938H56.2744522z M56.6963272,15.1845703h0.6376953
				c0.1845703,0,0.3320313-0.0458984,0.4423828-0.1386719c0.1103516-0.0922852,0.1660156-0.2177734,0.1660156-0.3764648
				c0-0.1762695-0.0517578-0.3041992-0.1542969-0.3842773s-0.2578125-0.1201172-0.4677734-0.1201172h-0.6240234V15.1845703z
				 M56.6963272,15.5234375v1.1513672h0.6972656c0.1953125,0,0.3505859-0.0512695,0.4638672-0.152832
				c0.1142578-0.1020508,0.1708984-0.2421875,0.1708984-0.4208984c0-0.3852539-0.2099609-0.5776367-0.6289063-0.5776367H56.6963272z
				"/>
		</g>
		<path class="st33" d="M56.0412521,6.0492158V2.96875h-0.8755455c-0.0001755-0.3913829-0.3038101-0.7086613-0.6783638-0.7086613
			S53.8091545,2.5773671,53.8091545,2.96875c0-0.3913829-0.3036346-0.7086613-0.6781883-0.7086613
			S52.452774,2.5773671,52.452774,2.96875c0-0.3913829-0.3036346-0.7086613-0.6781883-0.7086613
			S51.0963974,2.5773671,51.0963974,2.96875c0-0.3913829-0.3036346-0.7086613-0.6781883-0.7086613
			S49.7400208,2.5773671,49.7400208,2.96875h-0.8755455v3.0804658"/>
		<g>
			<path class="st28" d="M48.8412437,7.3711247c1.2273636,0,2.222477,1.0018458,2.222477,2.2397389
				s-0.9951134,2.2415419-2.222477,2.2415419c-1.2273598,0-2.2224731-1.0036497-2.2224731-2.2415419
				S47.613884,7.3711247,48.8412437,7.3711247z"/>
			<ellipse class="st30" cx="48.8412437" cy="9.6117649" rx="1.5185714" ry="1.5316002"/>
		</g>
		<g>
			<path class="st28" d="M56.0412521,7.3711247c1.2273636,0,2.2224731,1.0018458,2.2224731,2.2397389
				s-0.9951096,2.2415419-2.2224731,2.2415419s-2.2224731-1.0036497-2.2224731-2.2415419S54.8138885,7.3711247,56.0412521,7.3711247
				z"/>
			<ellipse class="st30" cx="56.0412521" cy="9.6117649" rx="1.5185714" ry="1.5316002"/>
		</g>
	</g>
	<g>
		<g>
			<path class="st9" d="M27.9365616,17.0195313h-0.4082031v-2.7089844l-0.8203125,0.3007813v-0.3691406l1.1650391-0.4375h0.0634766
				V17.0195313z"/>
			<path class="st9" d="M29.23246,17.0195313v-3.1992188h1.0458984c0.3476563,0,0.6083984,0.0717773,0.7832031,0.215332
				c0.1757813,0.1435547,0.2626953,0.355957,0.2626953,0.637207c0,0.1494141-0.0419922,0.2817383-0.1269531,0.3964844
				c-0.0849609,0.1152344-0.2011719,0.2041016-0.3476563,0.2670898c0.1728516,0.0483398,0.3095703,0.1401367,0.4101563,0.2758789
				c0.1005859,0.1352539,0.1503906,0.296875,0.1503906,0.484375c0,0.2871094-0.0927734,0.5126953-0.2792969,0.6767578
				c-0.1855469,0.1640625-0.4492188,0.2460938-0.7890625,0.2460938H29.23246z M29.654335,15.1845703h0.6376953
				c0.1845703,0,0.3320313-0.0458984,0.4423828-0.1386719c0.1103516-0.0922852,0.1660156-0.2177734,0.1660156-0.3764648
				c0-0.1762695-0.0517578-0.3041992-0.1542969-0.3842773s-0.2578125-0.1201172-0.4677734-0.1201172H29.654335V15.1845703z
				 M29.654335,15.5234375v1.1513672h0.6972656c0.1953125,0,0.3505859-0.0512695,0.4638672-0.152832
				c0.1142578-0.1020508,0.1708984-0.2421875,0.1708984-0.4208984c0-0.3852539-0.2099609-0.5776367-0.6289063-0.5776367H29.654335z"
				/>
		</g>
		<g>
			<path class="st9" d="M35.0683975,17.0195313h-0.4082031v-2.7089844l-0.8203125,0.3007813v-0.3691406l1.1650391-0.4375h0.0634766
				V17.0195313z"/>
			<path class="st9" d="M38.1318741,16.1826172h-1.3398438l-0.3017578,0.8369141h-0.4345703l1.2216797-3.1992188h0.3691406
				l1.2236328,3.1992188h-0.4326172L38.1318741,16.1826172z M36.9189835,15.8374023h1.0878906l-0.5449219-1.496582
				L36.9189835,15.8374023z"/>
		</g>
		<path class="st33" d="M36.1987305,6.0492158V2.96875h-0.8755417c-0.0001755-0.3913829-0.3038139-0.7086613-0.6783676-0.7086613
			c-0.3745499,0-0.6781883,0.3172784-0.6781883,0.7086613c0-0.3913829-0.3036346-0.7086613-0.6781883-0.7086613
			S32.6102562,2.5773671,32.6102562,2.96875c0-0.3913829-0.3036346-0.7086613-0.6781883-0.7086613
			S31.2538776,2.5773671,31.2538776,2.96875c0-0.3913829-0.3036346-0.7086613-0.6781883-0.7086613
			S29.8974972,2.5773671,29.8974972,2.96875h-0.8755417v3.0804658"/>
		<g>
			<path class="st28" d="M28.9987259,7.3711247c1.2273617,0,2.2224731,1.0018458,2.2224731,2.2397389
				s-0.9951115,2.2415419-2.2224731,2.2415419s-2.2224751-1.0036497-2.2224751-2.2415419S27.7713642,7.3711247,28.9987259,7.3711247
				z"/>
			<ellipse class="st30" cx="28.9987259" cy="9.6117649" rx="1.5185714" ry="1.5316002"/>
		</g>
		<g>
			<path class="st28" d="M36.1987343,7.3711247c1.2273598,0,2.2224731,1.0018458,2.2224731,2.2397389
				s-0.9951134,2.2415419-2.2224731,2.2415419c-1.2273636,0-2.222477-1.0036497-2.222477-2.2415419
				S34.9713707,7.3711247,36.1987343,7.3711247z"/>
			<ellipse class="st30" cx="36.1987343" cy="9.6117649" rx="1.5185714" ry="1.5316002"/>
		</g>
	</g>
	<g>
		<g id="Лого_2_">
			<polygon class="st34" points="14.5491972,43.6523705 12.775651,43.6523705 12.775651,48.5825005 20.3091545,48.5825005 
				20.3091545,46.3370972 18.6983185,46.3370972 18.6983185,47.7526779 15.4766474,47.7526779 15.4766474,46.3370972 
				14.5817394,46.3370972 			"/>
			<polygon class="st34" points="14.5491972,42.8388176 12.775651,42.8388176 12.775651,37.8761444 28.6236668,37.8761444 
				28.6236668,42.8388176 26.8043709,42.8388176 26.8043709,40.1491127 22.2836952,40.1368637 22.2836952,38.7218552 
				19.1050949,38.7218552 19.1050949,40.1368637 14.5491972,40.1368637 			"/>
			<polygon class="st34" points="21.0901642,46.3370972 21.0901642,48.5825005 28.6236668,48.5825005 28.6236668,43.6523705 
				26.8043709,43.6523705 26.8043709,46.3370972 25.8901291,46.3370972 25.8901291,47.7364044 22.7010002,47.7526779 
				22.7010002,46.3370972 			"/>
			<rect x="16.072361" y="45.8459015" class="st34" width="1.984687" height="1.2679944"/>
			<rect x="19.6925755" y="39.3344116" class="st34" width="1.9908125" height="1.27412"/>
			<rect x="23.3111649" y="45.8489609" class="st34" width="2.0094764" height="1.2691463"/>
			<g>
				<path class="st9" d="M30.4170303,37.9140625h0.9921875v6.2529297h-0.9921875V37.9140625z"/>
				<path class="st9" d="M35.3437881,44.1669922H34.341835l-0.1708984-1.1347656h-1.21875l-0.1708984,1.1347656h-0.9111328
					l1.0107422-6.2529297h1.4521484L35.3437881,44.1669922z M33.0791397,42.1835938h0.9560547l-0.4775391-3.1621094
					L33.0791397,42.1835938z"/>
				<path class="st9" d="M37.879921,44.1669922c-0.0126953-0.0419922-0.0244141-0.0810547-0.0361328-0.1162109
					c-0.0126953-0.0361328-0.0224609-0.0805664-0.03125-0.1342773c-0.0097656-0.0537109-0.015625-0.1220703-0.0185547-0.2055664
					s-0.0048828-0.1875-0.0048828-0.3125v-0.9824219c0-0.2919922-0.0507813-0.4975586-0.1533203-0.6166992
					c-0.1015625-0.1186523-0.2675781-0.1787109-0.4960938-0.1787109h-0.3427734v2.5463867h-0.9921875v-6.2529297h1.4970703
					c0.5175781,0,0.8925781,0.1191406,1.1240234,0.3574219s0.3476563,0.5981445,0.3476563,1.0805664v0.4912109
					c0,0.6430664-0.2167969,1.065918-0.6503906,1.2685547c0.2529297,0.1010742,0.4257813,0.2666016,0.5195313,0.4956055
					c0.0927734,0.2294922,0.1396484,0.5078125,0.1396484,0.8349609v0.9648438c0,0.1547852,0.0058594,0.2905273,0.0175781,0.40625
					c0.0126953,0.1162109,0.0419922,0.234375,0.0908203,0.3535156H37.879921z M36.7969131,38.8071289v1.9204102h0.3876953
					c0.1865234,0,0.3330078-0.0473633,0.4375-0.1425781c0.1054688-0.0952148,0.1582031-0.2680664,0.1582031-0.5180664v-0.6166992
					c0-0.2260742-0.0400391-0.3896484-0.1220703-0.4912109c-0.0810547-0.1010742-0.2089844-0.1518555-0.3828125-0.1518555
					H36.7969131z"/>
				<path class="st9" d="M39.4316788,37.9140625h1.5693359c0.5,0,0.8710938,0.1308594,1.1152344,0.3930664
					c0.2431641,0.262207,0.3652344,0.6459961,0.3652344,1.1523438v3.1616211c0,0.5063477-0.1220703,0.890625-0.3652344,1.1523438
					c-0.2441406,0.2626953-0.6152344,0.3935547-1.1152344,0.3935547h-1.5693359V37.9140625z M40.4238663,38.8071289v4.4663086
					h0.5595703c0.15625,0,0.2792969-0.0449219,0.3701172-0.1342773c0.0898438-0.0893555,0.1347656-0.2470703,0.1347656-0.4731445
					v-3.2514648c0-0.2260742-0.0449219-0.3837891-0.1347656-0.4731445
					c-0.0908203-0.0893555-0.2138672-0.1342773-0.3701172-0.1342773H40.4238663z"/>
				<path class="st9" d="M44.060585,37.9140625v4.8232422c0,0.2265625,0.0458984,0.3842773,0.1396484,0.4736328
					c0.0927734,0.0893555,0.2177734,0.1337891,0.375,0.1337891c0.15625,0,0.2802734-0.0444336,0.3740234-0.1337891
					c0.0927734-0.0893555,0.1396484-0.2470703,0.1396484-0.4736328v-4.8232422h0.9384766v4.7607422
					c0,0.5063477-0.125,0.8950195-0.3740234,1.1655273c-0.25,0.2709961-0.6181641,0.4067383-1.1054688,0.4067383
					s-0.8564453-0.1357422-1.1054688-0.4067383c-0.25-0.2705078-0.375-0.6591797-0.375-1.1655273v-4.7607422H44.060585z"/>
				<path class="st9" d="M46.7051163,37.9140625h0.9921875v6.2529297h-0.9921875V37.9140625z"/>
				<path class="st9" d="M49.3027725,39.6376953v4.5292969h-0.8935547v-6.2529297h1.2460938l1.0195313,3.7426758v-3.7426758
					h0.8837891v6.2529297h-1.0195313L49.3027725,39.6376953z"/>
				<path class="st9" d="M52.1894913,39.4145508c0-0.5058594,0.1298828-0.8945313,0.3886719-1.1655273
					s0.6318359-0.40625,1.1191406-0.40625s0.859375,0.1352539,1.1181641,0.40625s0.3886719,0.659668,0.3886719,1.1655273v3.2514648
					c0,0.5058594-0.1298828,0.8945313-0.3886719,1.1655273s-0.6308594,0.4067383-1.1181641,0.4067383
					s-0.8603516-0.1357422-1.1191406-0.4067383s-0.3886719-0.659668-0.3886719-1.1655273V39.4145508z M53.1826553,42.7285156
					c0,0.2260742,0.046875,0.3857422,0.1396484,0.4780273c0.09375,0.0922852,0.2177734,0.1381836,0.375,0.1381836
					c0.15625,0,0.2802734-0.0458984,0.3740234-0.1381836c0.0927734-0.0922852,0.1396484-0.2519531,0.1396484-0.4780273v-3.3764648
					c0-0.2260742-0.046875-0.3852539-0.1396484-0.4780273c-0.09375-0.0922852-0.2177734-0.1381836-0.3740234-0.1381836
					c-0.1572266,0-0.28125,0.0458984-0.375,0.1381836c-0.0927734,0.0927734-0.1396484,0.2519531-0.1396484,0.4780273V42.7285156z"/>
				<path class="st9" d="M56.7109756,43.2197266v0.9472656H55.754921v-0.9472656H56.7109756z"/>
				<path class="st9" d="M59.5088272,44.1669922c-0.0126953-0.0419922-0.0244141-0.0810547-0.0361328-0.1162109
					c-0.0126953-0.0361328-0.0224609-0.0805664-0.03125-0.1342773c-0.0097656-0.0537109-0.015625-0.1220703-0.0185547-0.2055664
					s-0.0048828-0.1875-0.0048828-0.3125v-0.9824219c0-0.2919922-0.0507813-0.4975586-0.1533203-0.6166992
					c-0.1015625-0.1186523-0.2675781-0.1787109-0.4960938-0.1787109h-0.3427734v2.5463867h-0.9921875v-6.2529297h1.4970703
					c0.5175781,0,0.8925781,0.1191406,1.1240234,0.3574219s0.3476563,0.5981445,0.3476563,1.0805664v0.4912109
					c0,0.6430664-0.2167969,1.065918-0.6503906,1.2685547c0.2529297,0.1010742,0.4257813,0.2666016,0.5195313,0.4956055
					c0.0927734,0.2294922,0.1396484,0.5078125,0.1396484,0.8349609v0.9648438c0,0.1547852,0.0058594,0.2905273,0.0175781,0.40625
					c0.0126953,0.1162109,0.0419922,0.234375,0.0908203,0.3535156H59.5088272z M58.4258194,38.8071289v1.9204102h0.3876953
					c0.1865234,0,0.3330078-0.0473633,0.4375-0.1425781c0.1054688-0.0952148,0.1582031-0.2680664,0.1582031-0.5180664v-0.6166992
					c0-0.2260742-0.0400391-0.3896484-0.1220703-0.4912109c-0.0810547-0.1010742-0.2089844-0.1518555-0.3828125-0.1518555
					H58.4258194z"/>
				<path class="st9" d="M62.0078506,37.9140625v4.8232422c0,0.2265625,0.0458984,0.3842773,0.1396484,0.4736328
					c0.0927734,0.0893555,0.2177734,0.1337891,0.375,0.1337891c0.15625,0,0.2802734-0.0444336,0.3740234-0.1337891
					c0.0927734-0.0893555,0.1396484-0.2470703,0.1396484-0.4736328v-4.8232422h0.9384766v4.7607422
					c0,0.5063477-0.125,0.8950195-0.3740234,1.1655273c-0.25,0.2709961-0.6181641,0.4067383-1.1054688,0.4067383
					s-0.8564453-0.1357422-1.1054688-0.4067383c-0.25-0.2705078-0.375-0.6591797-0.375-1.1655273v-4.7607422H62.0078506z"/>
			</g>
			<g>
				<path class="st9" d="M31.0664444,46.0302734c0.2138672,0,0.3662109,0.046875,0.4580078,0.140625
					c0.0908203,0.09375,0.1367188,0.2353516,0.1367188,0.4248047v0.1201172c0,0.1357422-0.0234375,0.2460938-0.0703125,0.3300781
					c-0.046875,0.0830078-0.1308594,0.1425781-0.2509766,0.1767578c0.1337891,0.0341797,0.2275391,0.0976563,0.2841797,0.1923828
					c0.0556641,0.0947266,0.0839844,0.2128906,0.0839844,0.3535156v0.2158203c0,0.1914063-0.0507813,0.3388672-0.1523438,0.4423828
					c-0.1025391,0.1035156-0.2597656,0.1552734-0.4736328,0.1552734H30.45121v-2.5517578H31.0664444z M30.9912491,47.1132813
					c0.1230469,0,0.2148438-0.0234375,0.2763672-0.0693359s0.0917969-0.1367188,0.0917969-0.2695313V46.625
					c0-0.1142578-0.0224609-0.1992188-0.0683594-0.2539063s-0.1230469-0.0820313-0.2324219-0.0820313h-0.3017578v0.8242188
					H30.9912491z M31.0820694,48.3232422c0.2158203,0,0.3242188-0.1152344,0.3242188-0.3466797v-0.2255859
					c0-0.1435547-0.0302734-0.2421875-0.0917969-0.296875s-0.1582031-0.0820313-0.2910156-0.0820313h-0.2666016v0.9511719
					H31.0820694z"/>
				<path class="st9" d="M32.5771866,46.0048828c0.2109375,0,0.3671875,0.0585938,0.4677734,0.1748047
					c0.0996094,0.1171875,0.1503906,0.2724609,0.1503906,0.4667969v0.2294922h-0.2900391v-0.2441406
					c0-0.1162109-0.0253906-0.2070313-0.0761719-0.2714844s-0.1328125-0.0966797-0.2441406-0.0966797
					c-0.1103516,0-0.1904297,0.0322266-0.2431641,0.0966797c-0.0517578,0.0644531-0.078125,0.1552734-0.078125,0.2714844v1.3486328
					c0,0.1162109,0.0263672,0.2070313,0.078125,0.2714844c0.0527344,0.0644531,0.1328125,0.0966797,0.2431641,0.0966797
					c0.1113281,0,0.1933594-0.0322266,0.2441406-0.0966797s0.0761719-0.1552734,0.0761719-0.2714844v-0.3320313h0.2900391v0.3173828
					c0,0.1943359-0.0507813,0.3496094-0.1503906,0.4667969c-0.1005859,0.1162109-0.2568359,0.1748047-0.4677734,0.1748047
					c-0.2089844,0-0.3642578-0.0585938-0.4638672-0.1748047c-0.1005859-0.1171875-0.1513672-0.2724609-0.1513672-0.4667969
					v-1.3193359c0-0.0976563,0.0126953-0.1855469,0.0371094-0.2646484c0.0253906-0.078125,0.0625-0.1455078,0.1142578-0.2021484
					c0.0507813-0.0556641,0.1142578-0.0986328,0.1914063-0.1289063S32.4726944,46.0048828,32.5771866,46.0048828z"/>
				<path class="st9" d="M34.4473038,47.1601563v0.2548828h-0.6689453v0.9082031h0.8222656v0.2587891h-1.1279297v-2.5517578
					h1.1279297v0.2587891h-0.8222656v0.8710938H34.4473038z M33.9228897,45.5527344v0.328125h-0.265625v-0.328125H33.9228897z
					 M34.4121475,45.5527344v0.328125h-0.2695313v-0.328125H34.4121475z"/>
				<path class="st9" d="M36.8389053,48.9316406v-0.3496094h-1.1191406v0.3496094h-0.2939453v-0.6015625h0.1767578
					c0.046875-0.0488281,0.0771484-0.1025391,0.0917969-0.1640625c0.0136719-0.0605469,0.0234375-0.1298828,0.0292969-0.2070313
					l0.1054688-1.9287109h1.0996094v2.2998047h0.2080078v0.6015625H36.8389053z M36.020546,47.9550781
					c-0.0048828,0.0917969-0.015625,0.1669922-0.0332031,0.2255859c-0.0166016,0.0585938-0.046875,0.1083984-0.0917969,0.1494141
					h0.7246094v-2.0410156h-0.5087891L36.020546,47.9550781z"/>
				<path class="st9" d="M37.9863663,46.2890625l-0.0634766,1.6582031
					c-0.0048828,0.1025391-0.0166016,0.1923828-0.0351563,0.2705078c-0.0175781,0.0771484-0.0478516,0.1435547-0.0898438,0.1982422
					s-0.0966797,0.0966797-0.1660156,0.1259766s-0.15625,0.0429688-0.2607422,0.0429688h-0.0507813v-0.2587891
					c0.0625,0,0.1132813-0.0068359,0.1523438-0.0214844c0.0400391-0.0146484,0.0703125-0.0371094,0.0927734-0.0673828
					c0.0214844-0.0302734,0.0371094-0.0683594,0.0449219-0.1152344c0.0078125-0.0458984,0.0126953-0.0996094,0.015625-0.1601563
					l0.0742188-1.9316406h1.1152344v2.5517578h-0.3046875v-2.2929688H37.9863663z"/>
				<path class="st9" d="M39.8496475,47.4921875c-0.1279297,0-0.2265625,0.0273438-0.2958984,0.0820313
					s-0.1035156,0.1533203-0.1035156,0.296875v0.4013672c0,0.0849609-0.0039063,0.1484375-0.0117188,0.1904297
					c-0.0078125,0.0429688-0.0205078,0.0820313-0.0390625,0.1191406h-0.3095703
					c0.0234375-0.0439453,0.0390625-0.0917969,0.0449219-0.1445313c0.0068359-0.0517578,0.0097656-0.1054688,0.0097656-0.1621094
					v-0.3974609c0-0.1376953,0.0253906-0.2529297,0.0771484-0.34375c0.0507813-0.0917969,0.1386719-0.1542969,0.2636719-0.1875
					c-0.2246094-0.0683594-0.3369141-0.2431641-0.3369141-0.5253906v-0.2080078
					c0-0.1894531,0.0478516-0.3339844,0.1435547-0.4335938c0.0947266-0.0996094,0.2509766-0.1494141,0.4677734-0.1494141h0.6103516
					v2.5517578h-0.3056641v-1.0898438H39.8496475z M39.7676163,46.2890625c-0.1152344,0-0.1962891,0.0292969-0.2451172,0.0878906
					c-0.0478516,0.0576172-0.0722656,0.1455078-0.0722656,0.2617188v0.2451172c0,0.1376953,0.0341797,0.2314453,0.1015625,0.2783203
					c0.0683594,0.0478516,0.1621094,0.0712891,0.2822266,0.0712891h0.2304688v-0.9443359H39.7676163z"/>
				<path class="st9" d="M41.88871,46.0302734c0.2158203,0,0.3730469,0.0556641,0.4697266,0.1660156
					c0.0957031,0.1103516,0.1445313,0.2626953,0.1445313,0.4570313v0.3066406c0,0.2041016-0.0517578,0.3574219-0.1542969,0.4609375
					c-0.1035156,0.1035156-0.2646484,0.1552734-0.4833984,0.1552734h-0.2705078v1.0058594h-0.3056641v-2.5517578H41.88871z
					 M41.8652725,47.3203125c0.1142578,0,0.1992188-0.0253906,0.2539063-0.078125
					c0.0546875-0.0517578,0.0820313-0.140625,0.0820313-0.2636719v-0.3398438c0-0.1162109-0.0234375-0.2041016-0.0722656-0.2617188
					c-0.0478516-0.0585938-0.1289063-0.0878906-0.2402344-0.0878906h-0.2939453v1.03125H41.8652725z"/>
				<path class="st9" d="M43.0508194,48.0683594l-0.1054688,0.5136719h-0.2822266l0.5244141-2.5517578h0.4423828
					l0.5244141,2.5517578h-0.3046875l-0.1064453-0.5136719H43.0508194z M43.0898819,47.8232422h0.6103516l-0.3085938-1.4716797
					L43.0898819,47.8232422z"/>
				<path class="st9" d="M45.7441788,48.9316406v-0.3496094h-1.1191406v0.3496094h-0.2939453v-0.6015625h0.1767578
					c0.046875-0.0488281,0.0771484-0.1025391,0.0917969-0.1640625c0.0136719-0.0605469,0.0234375-0.1298828,0.0292969-0.2070313
					l0.1054688-1.9287109h1.0996094v2.2998047h0.2080078v0.6015625H45.7441788z M44.9258194,47.9550781
					c-0.0048828,0.0917969-0.015625,0.1669922-0.0332031,0.2255859c-0.0166016,0.0585938-0.046875,0.1083984-0.0917969,0.1494141
					h0.7246094v-2.0410156h-0.5087891L44.9258194,47.9550781z"/>
				<path class="st9" d="M47.0283585,47.4042969l-0.4033203,1.1777344h-0.3173828v-2.5517578h0.2705078v1.9023438
					l0.2421875-0.703125l0.4384766-1.1992188h0.3408203v2.5517578H47.32621v-2.0302734L47.0283585,47.4042969z"/>
				<path class="st9" d="M47.8848038,46.6464844c0-0.1972656,0.0517578-0.3525391,0.1552734-0.46875
					c0.1025391-0.1152344,0.2597656-0.1728516,0.4716797-0.1728516c0.2109375,0,0.3691406,0.0576172,0.4736328,0.1728516
					c0.1035156,0.1162109,0.15625,0.2714844,0.15625,0.46875v1.3193359c0,0.1943359-0.0527344,0.3496094-0.15625,0.4667969
					c-0.1044922,0.1162109-0.2626953,0.1748047-0.4736328,0.1748047c-0.2119141,0-0.3691406-0.0585938-0.4716797-0.1748047
					c-0.1035156-0.1171875-0.1552734-0.2724609-0.1552734-0.4667969V46.6464844z M48.1865616,47.9804688
					c0,0.1162109,0.0263672,0.2070313,0.0800781,0.2714844s0.1347656,0.0966797,0.2451172,0.0966797
					c0.1113281,0,0.1943359-0.0322266,0.2460938-0.0966797c0.0527344-0.0644531,0.078125-0.1552734,0.078125-0.2714844v-1.3486328
					c0-0.1162109-0.0253906-0.2070313-0.078125-0.2714844c-0.0517578-0.0644531-0.1347656-0.0966797-0.2460938-0.0966797
					c-0.1103516,0-0.1914063,0.0322266-0.2451172,0.0966797s-0.0800781,0.1552734-0.0800781,0.2714844V47.9804688z"/>
				<path class="st9" d="M50.0146866,46.2890625L49.95121,47.9472656c-0.0048828,0.1025391-0.0166016,0.1923828-0.0351563,0.2705078
					c-0.0175781,0.0771484-0.0478516,0.1435547-0.0898438,0.1982422s-0.0966797,0.0966797-0.1660156,0.1259766
					s-0.15625,0.0429688-0.2607422,0.0429688H49.348671v-0.2587891c0.0625,0,0.1132813-0.0068359,0.1523438-0.0214844
					c0.0400391-0.0146484,0.0703125-0.0371094,0.0927734-0.0673828c0.0214844-0.0302734,0.0371094-0.0683594,0.0449219-0.1152344
					c0.0078125-0.0458984,0.0126953-0.0996094,0.015625-0.1601563l0.0742188-1.9316406h1.1152344v2.5517578h-0.3046875v-2.2929688
					H50.0146866z"/>
				<path class="st9" d="M52.5000381,46.0048828c0.2119141,0,0.3691406,0.0576172,0.4716797,0.1728516
					c0.1035156,0.1162109,0.1552734,0.2714844,0.1552734,0.46875v1.3193359c0,0.1943359-0.0517578,0.3496094-0.1552734,0.4667969
					c-0.1025391,0.1162109-0.2597656,0.1748047-0.4716797,0.1748047c-0.2109375,0-0.3691406-0.0585938-0.4736328-0.1748047
					c-0.1044922-0.1171875-0.15625-0.2724609-0.15625-0.4667969v-0.5322266h-0.3955078v1.1484375h-0.3056641v-2.5517578h0.3056641
					v1.1484375h0.3955078v-0.5322266c0-0.1972656,0.0517578-0.3525391,0.15625-0.46875
					C52.1308975,46.0625,52.2891006,46.0048828,52.5000381,46.0048828z M52.5000381,46.2636719
					c-0.1123047,0-0.1943359,0.0322266-0.2460938,0.0966797c-0.0527344,0.0644531-0.0791016,0.1552734-0.0791016,0.2714844
					v1.3486328c0,0.1162109,0.0263672,0.2070313,0.0791016,0.2714844c0.0517578,0.0644531,0.1337891,0.0966797,0.2460938,0.0966797
					c0.109375,0,0.1914063-0.0322266,0.2451172-0.0966797c0.0527344-0.0644531,0.0800781-0.1552734,0.0800781-0.2714844v-1.3486328
					c0-0.1162109-0.0273438-0.2070313-0.0800781-0.2714844C52.6914444,46.2958984,52.6094131,46.2636719,52.5000381,46.2636719z"/>
				<path class="st9" d="M54.0469131,47.0839844c0.2138672,0,0.375,0.0478516,0.4833984,0.1435547
					c0.1083984,0.0966797,0.1621094,0.2470703,0.1621094,0.4541016v0.2802734c0,0.1992188-0.0507813,0.3525391-0.1523438,0.4599609
					c-0.1015625,0.1064453-0.2617188,0.1601563-0.4775391,0.1601563h-0.6386719v-2.5517578h1.1552734v0.2587891h-0.8535156
					v0.7949219H54.0469131z M54.0625381,48.3232422c0.1123047,0,0.1943359-0.0273438,0.2460938-0.0820313
					c0.0527344-0.0546875,0.078125-0.1416016,0.078125-0.2607422v-0.3173828c0-0.1240234-0.0283203-0.2089844-0.0859375-0.2548828
					s-0.1416016-0.0693359-0.2539063-0.0693359h-0.3212891v0.984375H54.0625381z"/>
				<path class="st9" d="M55.7099991,47.4042969l-0.4033203,1.1777344H54.989296v-2.5517578h0.2705078v1.9023438l0.2421875-0.703125
					l0.4384766-1.1992188h0.3408203v2.5517578h-0.2734375v-2.0302734L55.7099991,47.4042969z"/>
				<path class="st9" d="M57.0088272,48.5820313v-2.2929688h-0.5048828v-0.2587891h1.3154297v0.2587891h-0.5048828v2.2929688
					H57.0088272z"/>
				<path class="st9" d="M59.020546,47.1601563v0.2548828h-0.6689453v0.9082031h0.8222656v0.2587891h-1.1279297v-2.5517578
					h1.1279297v0.2587891h-0.8222656v0.8710938H59.020546z"/>
				<path class="st9" d="M60.0391006,46.2890625l-0.0634766,1.6582031
					c-0.0048828,0.1025391-0.0166016,0.1923828-0.0351563,0.2705078c-0.0175781,0.0771484-0.0478516,0.1435547-0.0898438,0.1982422
					s-0.0966797,0.0966797-0.1660156,0.1259766s-0.15625,0.0429688-0.2607422,0.0429688H59.373085v-0.2587891
					c0.0625,0,0.1132813-0.0068359,0.1523438-0.0214844c0.0400391-0.0146484,0.0703125-0.0371094,0.0927734-0.0673828
					c0.0214844-0.0302734,0.0371094-0.0683594,0.0449219-0.1152344c0.0078125-0.0458984,0.0126953-0.0996094,0.015625-0.1601563
					l0.0742188-1.9316406h1.1152344v2.5517578h-0.3046875v-2.2929688H60.0391006z"/>
				<path class="st9" d="M62.1680069,47.1601563v0.2548828h-0.6689453v0.9082031h0.8222656v0.2587891h-1.1279297v-2.5517578
					h1.1279297v0.2587891h-0.8222656v0.8710938H62.1680069z"/>
				<path class="st9" d="M63.3467178,47.3535156L62.91996,48.5820313h-0.3173828v-2.5517578h0.2705078v1.9023438
					l0.2539063-0.7353516l0.4267578-1.1669922h0.3408203v2.5517578h-0.2734375v-2.0302734L63.3467178,47.3535156z
					 M63.6875381,45.5097656c0,0.1113281-0.0371094,0.1992188-0.1123047,0.2617188
					c-0.0742188,0.0634766-0.1777344,0.0947266-0.3105469,0.0947266c-0.1337891,0-0.2353516-0.03125-0.3076172-0.0947266
					c-0.0712891-0.0625-0.1103516-0.1503906-0.1152344-0.2617188h0.1914063
					c0.0058594,0.0703125,0.0292969,0.1181641,0.0703125,0.1455078c0.0419922,0.0263672,0.0957031,0.0400391,0.1611328,0.0400391
					s0.1191406-0.0136719,0.1621094-0.0400391c0.0429688-0.0273438,0.0673828-0.0751953,0.0722656-0.1455078H63.6875381z"/>
			</g>
		</g>
		<g>
			<path class="st9" d="M4.7607813,59.9013672H5.194375l0.0957031,0.5576172h3.9208984v-0.6835938l1.7470703,0.0683594v0.6044922
				H9.7373438v3.5888672h1.2265625v0.5742188l-1.7529297,0.0996094v-0.4277344
				c-0.2001953-0.1728516-0.4921875-0.3330078-0.875-0.4785156s-0.9033203-0.2255859-1.5615234-0.2392578l-1.4873047-0.0820313
				L5.194375,64.0097656H4.7607813v-3.5507813V59.9013672z M6.7744532,62.8847656
				c0.5419922,0.0214844,1.0195313,0.0898438,1.4316406,0.2050781c0.4121094,0.1171875,0.7470703,0.265625,1.0048828,0.4482422
				v-2.40625H5.2900782v1.6748047L6.7744532,62.8847656z"/>
			<path class="st9" d="M10.725625,59.3095703l-0.0957031-0.5566406H6.569375l-0.0957031,0.5566406H6.0391016v-1.1347656
				l0.4511719-0.0605469c-0.1689453-0.1230469-0.2978516-0.2734375-0.3857422-0.4501953
				c-0.0898438-0.1767578-0.1337891-0.3808594-0.1337891-0.6132813c0-0.4580078,0.1816406-0.8144531,0.5449219-1.0683594
				s0.84375-0.3808594,1.4404297-0.3808594h0.0722656c0.5332031,0,0.9628906,0.1279297,1.2900391,0.3828125
				s0.4912109,0.6074219,0.4912109,1.0556641c0,0.2285156-0.0390625,0.4287109-0.1152344,0.6005859
				s-0.1894531,0.3183594-0.3398438,0.4384766h1.2753906l0.0957031-0.5566406h0.4335938v1.7871094H10.725625z M7.9560938,56.2783203
				c-0.4208984,0-0.7666016,0.0820313-1.0351563,0.2460938s-0.4033203,0.4082031-0.4033203,0.7314453
				c0,0.1914063,0.0429688,0.3554688,0.1298828,0.4921875s0.2050781,0.2470703,0.3554688,0.3310547H8.80375
				C8.9570704,57.9951172,9.0752344,57.8857422,9.1582422,57.75s0.1240234-0.3027344,0.1240234-0.5009766
				c0-0.3193359-0.1152344-0.5605469-0.3476563-0.7246094s-0.5351563-0.2460938-0.90625-0.2460938H7.9560938z"/>
			<path class="st9" d="M9.7373438,52.5771484c-0.1005859,0.0195313-0.1904297,0.0361328-0.2695313,0.046875
				c-0.0800781,0.0117188-0.1601563,0.0195313-0.2402344,0.0244141c0.1669922,0.1298828,0.3056641,0.2919922,0.4160156,0.4873047
				c0.1103516,0.1943359,0.1660156,0.4023438,0.1660156,0.6230469c0,0.3857422-0.0947266,0.6787109-0.2822266,0.8789063
				c-0.1884766,0.2001953-0.453125,0.3007813-0.7949219,0.3007813c-0.3505859,0-0.6210938-0.1416016-0.8115234-0.4257813
				c-0.1904297-0.2832031-0.2851563-0.6728516-0.2851563-1.1669922v-0.6943359H7.2041407
				c-0.2158203,0-0.3876953,0.0683594-0.5136719,0.2050781c-0.1269531,0.1367188-0.1894531,0.3271484-0.1894531,0.5712891
				c0,0.1689453,0.0214844,0.3173828,0.0644531,0.4462891s0.1025391,0.2324219,0.1777344,0.3125l0.3896484,0.0722656v0.5195313
				H6.4150782c-0.1347656-0.1689453-0.2421875-0.3730469-0.3232422-0.6123047s-0.1210938-0.4990234-0.1210938-0.7792969
				c0-0.4189453,0.1074219-0.7587891,0.3212891-1.0185547s0.5205078-0.3896484,0.9199219-0.3896484h1.7802734
				c0.0478516,0,0.0947266-0.0009766,0.1396484-0.0019531c0.0458984-0.0009766,0.0917969-0.0039063,0.1367188-0.0087891
				l0.0380859-0.2734375h0.4306641V52.5771484z M9.2451563,53.6601563c0-0.2236328-0.0537109-0.4267578-0.1601563-0.6123047
				c-0.1074219-0.1835938-0.2363281-0.3164063-0.3867188-0.3964844H8.0898829v0.71875
				c0,0.2753906,0.0634766,0.4931641,0.1914063,0.6542969c0.1279297,0.1601563,0.2822266,0.2402344,0.4648438,0.2402344
				c0.1621094,0,0.2851563-0.0498047,0.3710938-0.1503906C9.2021875,54.0146484,9.2451563,53.8632813,9.2451563,53.6601563z"/>
			<path class="st9" d="M4.466836,48.0136719l0.0205078-0.0068359c0.2646484-0.0087891,0.4794922,0.078125,0.6464844,0.2636719
				c0.1660156,0.1835938,0.2490234,0.4326172,0.2490234,0.7441406c0,0.3144531-0.0830078,0.5644531-0.2490234,0.7490234
				c-0.1669922,0.1845703-0.3818359,0.2714844-0.6464844,0.2597656L4.466836,50.0166016v-0.5126953
				c0.1484375,0,0.2695313-0.0390625,0.3642578-0.1181641c0.0947266-0.078125,0.1416016-0.2021484,0.1416016-0.3710938
				c0-0.1640625-0.046875-0.2851563-0.1416016-0.3652344s-0.2158203-0.1191406-0.3642578-0.1191406V48.0136719z
				 M6.0391016,49.3232422h0.4345703l0.0957031,0.5566406h2.0878906l0.0068359-0.0205078l-2.625-1.6298828v-0.6738281v-0.5566406
				h0.4345703l0.0957031,0.5566406h2.6416016l0.0957031-0.5566406h0.4306641v1.7871094H9.3066797l-0.0957031-0.5566406H7.1191797
				l-0.0068359,0.0195313l2.625,1.6308594v1.2265625H9.3066797l-0.0957031-0.5566406H6.569375l-0.0957031,0.5566406H6.0391016
				v-1.2265625V49.3232422z"/>
			<path class="st9" d="M6.0391016,44.3222656c0-0.4873047,0.0849609-0.8662109,0.2548828-1.1347656
				s0.4238281-0.4033203,0.7636719-0.4033203c0.1728516,0,0.3271484,0.0527344,0.4628906,0.1572266
				s0.2392578,0.2529297,0.3095703,0.4443359c0.0566406-0.2304688,0.1630859-0.4101563,0.3193359-0.5400391
				s0.3349609-0.1943359,0.5351563-0.1943359c0.3466797,0,0.6083984,0.125,0.7861328,0.3769531
				s0.2666016,0.6044922,0.2666016,1.0585938v2.2480469H9.3066797l-0.0957031-0.5566406H6.569375l-0.0957031,0.5566406H6.0391016
				v-0.5566406V44.3222656z M7.600625,45.1044922v-0.7851563c0-0.2851563-0.0419922-0.5-0.1259766-0.6445313
				s-0.2119141-0.2167969-0.3828125-0.2167969c-0.1757813,0-0.3076172,0.0722656-0.3964844,0.2167969
				s-0.1337891,0.3603516-0.1337891,0.6474609v0.7822266H7.600625z M8.1172266,45.1044922h1.1005859v-1.0175781
				c0-0.2509766-0.046875-0.4404297-0.1416016-0.5683594c-0.0947266-0.1269531-0.2314453-0.1914063-0.4091797-0.1914063
				c-0.1748047,0-0.3105469,0.0644531-0.40625,0.1914063c-0.0957031,0.1279297-0.1435547,0.3173828-0.1435547,0.5683594V45.1044922z
				"/>
			<path class="st9" d="M9.8096094,40.3300781c0,0.5146484-0.171875,0.9238281-0.5146484,1.2285156
				C8.9521875,41.8623047,8.506875,42.0146484,7.96,42.0146484H7.8096094c-0.5263672,0-0.9648438-0.15625-1.3144531-0.4697266
				s-0.5244141-0.6845703-0.5244141-1.1132813c0-0.4960938,0.1503906-0.8730469,0.4511719-1.1289063
				c0.3007813-0.2568359,0.7021484-0.3847656,1.203125-0.3847656h0.4208984v2.3994141l0.0166016,0.0107422
				C8.4180079,41.3203125,8.71,41.2304688,8.9394922,41.0576172c0.2285156-0.1728516,0.3427734-0.4160156,0.3427734-0.7275391
				c0-0.2285156-0.0322266-0.4287109-0.0966797-0.6005859c-0.0654297-0.171875-0.1542969-0.3203125-0.2685547-0.4462891
				l0.4375-0.2626953c0.1279297,0.1318359,0.2353516,0.3066406,0.3232422,0.5244141S9.8096094,40.0244141,9.8096094,40.3300781z
				 M6.5010157,40.4316406c0,0.2265625,0.0947266,0.4189453,0.2851563,0.578125s0.4287109,0.2578125,0.7158203,0.2939453
				l0.0166016-0.0068359v-1.7050781H7.4307032c-0.2646484,0-0.4863281,0.0703125-0.6640625,0.2109375
				C6.5889063,39.9443359,6.5010157,40.1542969,6.5010157,40.4316406z"/>
			<path class="st9" d="M10.725625,38.3359375l-0.0957031-0.5566406H6.569375l-0.0957031,0.5566406H6.0391016v-1.1347656
				l0.4511719-0.0605469c-0.1689453-0.1230469-0.2978516-0.2734375-0.3857422-0.4501953
				c-0.0898438-0.1767578-0.1337891-0.3808594-0.1337891-0.6132813c0-0.4580078,0.1816406-0.8144531,0.5449219-1.0683594
				s0.84375-0.3808594,1.4404297-0.3808594h0.0722656c0.5332031,0,0.9628906,0.1279297,1.2900391,0.3828125
				s0.4912109,0.6074219,0.4912109,1.0556641c0,0.2285156-0.0390625,0.4287109-0.1152344,0.6005859
				s-0.1894531,0.3183594-0.3398438,0.4384766h1.2753906l0.0957031-0.5566406h0.4335938v1.7871094H10.725625z M7.9560938,35.3046875
				c-0.4208984,0-0.7666016,0.0820313-1.0351563,0.2460938s-0.4033203,0.4082031-0.4033203,0.7314453
				c0,0.1914063,0.0429688,0.3554688,0.1298828,0.4921875s0.2050781,0.2470703,0.3554688,0.3310547H8.80375
				c0.1533203-0.0839844,0.2714844-0.1933594,0.3544922-0.3291016s0.1240234-0.3027344,0.1240234-0.5009766
				c0-0.3193359-0.1152344-0.5605469-0.3476563-0.7246094s-0.5351563-0.2460938-0.90625-0.2460938H7.9560938z"/>
			<path class="st9" d="M9.3066797,32.3164063l-0.0957031-0.5566406H5.2900782L5.194375,32.3164063H4.7607813v-1.2304688v-0.5566406
				H5.194375l0.0957031,0.5566406h3.9208984v-1.6816406H5.2900782L5.194375,29.9619141H4.7607813v-1.7841797H5.194375
				l0.0957031,0.5566406h3.9208984v-1.6738281H5.2900782L5.194375,27.6171875H4.7607813v-0.5566406v-0.6738281v-0.5566406H5.194375
				l0.0957031,0.5566406h3.9208984l0.0957031-0.5566406h0.4306641v6.4863281H9.3066797z"/>
			<path class="st9" d="M4.7607813,20.5478516H5.194375l0.0957031,0.5576172h3.9208984V20.421875l1.7470703,0.0683594v0.6044922
				H9.7373438v3.5888672h1.2265625v0.5742188l-1.7529297,0.0996094v-0.4277344
				c-0.2001953-0.1728516-0.4921875-0.3330078-0.875-0.4785156s-0.9033203-0.2255859-1.5615234-0.2392578l-1.4873047-0.0820313
				L5.194375,24.65625H4.7607813v-3.5507813V20.5478516z M6.7744532,23.53125
				c0.5419922,0.0214844,1.0195313,0.0898438,1.4316406,0.2050781c0.4121094,0.1171875,0.7470703,0.265625,1.0048828,0.4482422
				v-2.40625H5.2900782v1.6748047L6.7744532,23.53125z"/>
		</g>
	</g>
	<g>
		<path class="st35" d="M31.7199898,28.1058826c0.0002308,0.3913822,0.4027786,1.0062428,0.8998184,1.0062428
			c0.4970436,0,0.899971-0.3172779,0.899971-0.7086601c0,0.3913822,0.4029312,0.7086601,0.899971,0.7086601
			c0.4970436,0,0.899971-0.3172779,0.899971-0.7086601c0,0.3913822,0.4029312,0.7086601,0.899971,0.7086601
			c0.4970436,0,0.899971-0.3172779,0.899971-0.7086601c0,0.3913822,0.4029312,0.7086601,0.899971,0.7086601
			c0.4970436,0,0.899971-0.6148605,0.899971-1.0062428"/>
		<path class="st35" d="M46.1196861,28.1058826c0.0002327,0.3913822,0.4027824,1.0062428,0.8998222,1.0062428
			s0.899971-0.3172779,0.899971-0.7086601c0,0.3913822,0.4029312,0.7086601,0.899971,0.7086601
			s0.899971-0.3172779,0.899971-0.7086601c0,0.3913822,0.4029312,0.7086601,0.899971,0.7086601
			s0.899971-0.3172779,0.899971-0.7086601c0,0.3913822,0.4029312,0.7086601,0.899971,0.7086601
			s0.899971-0.6148605,0.899971-1.0062428"/>
		<g>
			<g>
				<path class="st28" d="M53.3196945,27.0441055c-1.2273636,0-2.2224731-1.0018463-2.2224731-2.2397385
					c0-1.2378941,0.9951096-2.2415428,2.2224731-2.2415428s2.2224731,1.0036488,2.2224731,2.2415428
					C55.5421677,26.0422592,54.5470581,27.0441055,53.3196945,27.0441055z"/>
				<ellipse class="st30" cx="53.3196945" cy="24.8034649" rx="1.5185714" ry="1.5316002"/>
			</g>
			<g>
				<path class="st28" d="M46.1196861,27.0441055c-1.2273598,0-2.2224731-1.0018463-2.2224731-2.2397385
					c0-1.2378941,0.9951134-2.2415428,2.2224731-2.2415428c1.2273636,0,2.222477,1.0036488,2.222477,2.2415428
					C48.3421631,26.0422592,47.3470497,27.0441055,46.1196861,27.0441055z"/>
				<ellipse class="st30" cx="46.1196861" cy="24.8034649" rx="1.5185714" ry="1.5316002"/>
			</g>
			<g>
				<path class="st28" d="M67.7196884,27.0441055c-1.2273636,0-2.2224808-1.0018463-2.2224808-2.2397385
					c0-1.2378941,0.9951172-2.2415428,2.2224808-2.2415428c1.227356,0,2.2224731,1.0036488,2.2224731,2.2415428
					C69.9421616,26.0422592,68.9470444,27.0441055,67.7196884,27.0441055z"/>
				<ellipse class="st30" cx="67.7196884" cy="24.8034649" rx="1.5185714" ry="1.5316002"/>
			</g>
			<g>
				<path class="st28" d="M60.5196762,27.0441055c-1.2273598,0-2.2224731-1.0018463-2.2224731-2.2397385
					c0-1.2378941,0.9951134-2.2415428,2.2224731-2.2415428c1.2273636,0,2.222477,1.0036488,2.222477,2.2415428
					C62.7421532,26.0422592,61.7470398,27.0441055,60.5196762,27.0441055z"/>
				<ellipse class="st30" cx="60.5196762" cy="24.8034649" rx="1.5185714" ry="1.5316002"/>
			</g>
			<g>
				<path class="st28" d="M38.9196854,27.0441055c-1.2273636,0-2.2224731-1.0018463-2.2224731-2.2397385
					c0-1.2378941,0.9951096-2.2415428,2.2224731-2.2415428s2.2224731,1.0036488,2.2224731,2.2415428
					C41.1421585,26.0422592,40.147049,27.0441055,38.9196854,27.0441055z"/>
				<ellipse class="st30" cx="38.9196854" cy="24.8034649" rx="1.5185714" ry="1.5316002"/>
			</g>
			<g>
				<path class="st28" d="M31.7196064,27.0441055c-1.2273617,0-2.2224731-1.0018463-2.2224731-2.2397385
					c0-1.2378941,0.9951115-2.2415428,2.2224731-2.2415428s2.2224751,1.0036488,2.2224751,2.2415428
					C33.9420815,26.0422592,32.9469681,27.0441055,31.7196064,27.0441055z"/>
				<ellipse class="st30" cx="31.7196064" cy="24.8034649" rx="1.5185714" ry="1.5316002"/>
			</g>
			<g>
				<path class="st28" d="M24.5196857,27.0441055c-1.2273636,0-2.2224751-1.0018463-2.2224751-2.2397385
					c0-1.2378941,0.9951115-2.2415428,2.2224751-2.2415428c1.2273617,0,2.2224731,1.0036488,2.2224731,2.2415428
					C26.7421589,26.0422592,25.7470474,27.0441055,24.5196857,27.0441055z"/>
				<ellipse class="st30" cx="24.5196857" cy="24.8034649" rx="1.5185714" ry="1.5316002"/>
			</g>
			<g>
				<path class="st28" d="M17.319685,27.0441055c-1.2273617,0-2.2224741-1.0018463-2.2224741-2.2397385
					c0-1.2378941,0.9951124-2.2415428,2.2224741-2.2415428S19.54216,23.566473,19.54216,24.8043671
					C19.54216,26.0422592,18.5470467,27.0441055,17.319685,27.0441055z"/>
				<ellipse class="st30" cx="17.319685" cy="24.8034649" rx="1.5185714" ry="1.5316002"/>
			</g>
		</g>
		<g>
			<g>
				<path class="st28" d="M53.3196945,62.4771767c-1.2273636,0-2.2224731-1.0018463-2.2224731-2.2397385
					s0.9951096-2.2415428,2.2224731-2.2415428s2.2224731,1.0036507,2.2224731,2.2415428
					S54.5470581,62.4771767,53.3196945,62.4771767z"/>
				<ellipse class="st30" cx="53.3196945" cy="60.2365341" rx="1.5185714" ry="1.5316002"/>
			</g>
			<g>
				<path class="st28" d="M46.1196861,62.4771767c-1.2273598,0-2.2224731-1.0018463-2.2224731-2.2397385
					s0.9951134-2.2415428,2.2224731-2.2415428c1.2273636,0,2.222477,1.0036507,2.222477,2.2415428
					S47.3470497,62.4771767,46.1196861,62.4771767z"/>
				<ellipse class="st30" cx="46.1196861" cy="60.2365341" rx="1.5185714" ry="1.5316002"/>
			</g>
			<g>
				<path class="st28" d="M67.7196884,62.4771767c-1.2273636,0-2.2224808-1.0018463-2.2224808-2.2397385
					s0.9951172-2.2415428,2.2224808-2.2415428c1.227356,0,2.2224731,1.0036507,2.2224731,2.2415428
					S68.9470444,62.4771767,67.7196884,62.4771767z"/>
				<ellipse class="st30" cx="67.7196884" cy="60.2365341" rx="1.5185714" ry="1.5316002"/>
			</g>
			<g>
				<path class="st28" d="M60.5196762,62.4771767c-1.2273598,0-2.2224731-1.0018463-2.2224731-2.2397385
					s0.9951134-2.2415428,2.2224731-2.2415428c1.2273636,0,2.222477,1.0036507,2.222477,2.2415428
					S61.7470398,62.4771767,60.5196762,62.4771767z"/>
				<ellipse class="st30" cx="60.5196762" cy="60.2365341" rx="1.5185714" ry="1.5316002"/>
			</g>
			<g>
				<path class="st28" d="M38.9196854,62.4771767c-1.2273636,0-2.2224731-1.0018463-2.2224731-2.2397385
					s0.9951096-2.2415428,2.2224731-2.2415428s2.2224731,1.0036507,2.2224731,2.2415428S40.147049,62.4771767,38.9196854,62.4771767
					z"/>
				<ellipse class="st30" cx="38.9196854" cy="60.2365341" rx="1.5185714" ry="1.5316002"/>
			</g>
			<g>
				<path class="st28" d="M31.7196064,62.4771767c-1.2273617,0-2.2224731-1.0018463-2.2224731-2.2397385
					s0.9951115-2.2415428,2.2224731-2.2415428s2.2224751,1.0036507,2.2224751,2.2415428
					S32.9469681,62.4771767,31.7196064,62.4771767z"/>
				<ellipse class="st30" cx="31.7196064" cy="60.2365341" rx="1.5185714" ry="1.5316002"/>
			</g>
			<g>
				<path class="st28" d="M24.5196857,62.4771767c-1.2273636,0-2.2224751-1.0018463-2.2224751-2.2397385
					s0.9951115-2.2415428,2.2224751-2.2415428c1.2273617,0,2.2224731,1.0036507,2.2224731,2.2415428
					S25.7470474,62.4771767,24.5196857,62.4771767z"/>
				<ellipse class="st30" cx="24.5196857" cy="60.2365341" rx="1.5185714" ry="1.5316002"/>
			</g>
			<g>
				<path class="st28" d="M17.319685,62.4771767c-1.2273617,0-2.2224741-1.0018463-2.2224741-2.2397385
					s0.9951124-2.2415428,2.2224741-2.2415428s2.2224751,1.0036507,2.2224751,2.2415428S18.5470467,62.4771767,17.319685,62.4771767
					z"/>
				<ellipse class="st30" cx="17.319685" cy="60.2365341" rx="1.5185714" ry="1.5316002"/>
			</g>
		</g>
		<g>
			<path class="st9" d="M16.0664444,29.7641602c-0.0722647,0.1035156-0.1728506,0.1811523-0.3027334,0.2319336
				c-0.1289063,0.0517578-0.2802734,0.0771484-0.4511719,0.0771484c-0.1748047,0-0.328125-0.0405273-0.4628906-0.1220703
				s-0.2392578-0.1977539-0.3134766-0.3481445c-0.0732422-0.1503906-0.1113281-0.324707-0.1132813-0.5229492V28.894043
				c0-0.3212891,0.0751953-0.5703125,0.2246094-0.7470703c0.1503906-0.1767578,0.3603516-0.2651367,0.6318359-0.2651367
				c0.2226563,0,0.4023438,0.0571289,0.5380859,0.1708984s0.218749,0.2749023,0.2490225,0.4838867h-0.281249
				c-0.0527344-0.2832031-0.2207031-0.4248047-0.5039063-0.4248047c-0.1884766,0-0.3310547,0.0664063-0.4287109,0.1987305
				c-0.0966797,0.1323242-0.1464844,0.3242188-0.1474609,0.5751953v0.1748047c0,0.2392578,0.0546875,0.4296875,0.1640625,0.5708008
				s0.2578125,0.2119141,0.4443359,0.2119141c0.1054688,0,0.1982422-0.0117188,0.2763672-0.0351563
				c0.0800781-0.0234375,0.1445313-0.0629883,0.1972656-0.1181641v-0.4780273h-0.4941406v-0.2299805h0.7734365V29.7641602z"/>
			<path class="st9" d="M18.1748428,30.0439453h-0.2832031l-1.0732422-1.6435547v1.6435547H16.536171v-2.1328125h0.2822266
				l1.0771484,1.6508789v-1.6508789h0.2792969V30.0439453z"/>
			<path class="st9" d="M18.6748428,30.0439453v-2.1328125h0.6015625c0.1855469,0,0.3496094,0.0410156,0.4921875,0.1230469
				s0.2529297,0.1987305,0.3300781,0.3500977c0.078125,0.1513672,0.1171875,0.3251953,0.1181641,0.5214844v0.1362305
				c0,0.2011719-0.0390625,0.3774414-0.1162109,0.5288086c-0.078125,0.1513672-0.1884766,0.2675781-0.3330078,0.3486328
				c-0.1435547,0.0810547-0.3115234,0.1225586-0.5029297,0.1245117H18.6748428z M18.9560928,28.1411133v1.6728516h0.2949219
				c0.2167969,0,0.3857422-0.0673828,0.5068359-0.2021484c0.1201172-0.1352539,0.1806641-0.3271484,0.1806641-0.5761719v-0.125
				c0-0.2421875-0.0566406-0.4306641-0.1708984-0.5649414c-0.1132813-0.1342773-0.2753906-0.2026367-0.4833984-0.2045898H18.9560928
				z"/>
		</g>
		<g>
			<path class="st9" d="M22.9805069,29.6704102l0.609375-1.7592773h0.3085938L23.10746,30.0439453h-0.25l-0.7890625-2.1328125
				h0.3066406L22.9805069,29.6704102z"/>
			<path class="st9" d="M24.7119522,29.8520508c0.0966797,0,0.1806641-0.0292969,0.2529297-0.0878906
				s0.1123047-0.1318359,0.1210938-0.2197266h0.2558594c-0.0048828,0.0908203-0.0361328,0.1772461-0.09375,0.2592773
				S25.1133194,29.9511719,25.0176163,30c-0.0966797,0.0488281-0.1982422,0.0732422-0.3056641,0.0732422
				c-0.2158203,0-0.3876953-0.0717773-0.5146484-0.2158203c-0.1279297-0.144043-0.1914063-0.3413086-0.1914063-0.5913086v-0.0454102
				c0-0.1542969,0.0283203-0.2915039,0.0849609-0.4116211s0.1376953-0.2133789,0.2441406-0.2797852
				c0.1054688-0.0664063,0.2304688-0.0996094,0.3759766-0.0996094c0.1767578,0,0.3251953,0.0532227,0.4423828,0.159668
				c0.1181641,0.1064453,0.1806641,0.2446289,0.1884766,0.4145508h-0.2558594
				c-0.0087891-0.1025391-0.046875-0.1865234-0.1171875-0.2529297c-0.0693359-0.0654297-0.15625-0.0986328-0.2578125-0.0986328
				c-0.1386719,0-0.2451172,0.0498047-0.3203125,0.1484375c-0.0761719,0.0996094-0.1132813,0.2426758-0.1132813,0.4301758v0.0512695
				c0,0.1826172,0.0371094,0.3232422,0.1123047,0.421875S24.5723038,29.8520508,24.7119522,29.8520508z"/>
			<path class="st9" d="M26.2822647,29.8520508c0.0966797,0,0.1806641-0.0292969,0.2529297-0.0878906
				s0.1123047-0.1318359,0.1210938-0.2197266h0.2558594c-0.0048828,0.0908203-0.0361328,0.1772461-0.09375,0.2592773
				S26.6836319,29.9511719,26.5879288,30c-0.0966797,0.0488281-0.1982422,0.0732422-0.3056641,0.0732422
				c-0.2158203,0-0.3876953-0.0717773-0.5146484-0.2158203c-0.1279297-0.144043-0.1914063-0.3413086-0.1914063-0.5913086v-0.0454102
				c0-0.1542969,0.0283203-0.2915039,0.0849609-0.4116211s0.1376953-0.2133789,0.2441406-0.2797852
				c0.1054688-0.0664063,0.2304688-0.0996094,0.3759766-0.0996094c0.1767578,0,0.3251953,0.0532227,0.4423828,0.159668
				c0.1181641,0.1064453,0.1806641,0.2446289,0.1884766,0.4145508h-0.2558594
				c-0.0087891-0.1025391-0.046875-0.1865234-0.1171875-0.2529297c-0.0693359-0.0654297-0.15625-0.0986328-0.2578125-0.0986328
				c-0.1386719,0-0.2451172,0.0498047-0.3203125,0.1484375c-0.0761719,0.0996094-0.1132813,0.2426758-0.1132813,0.4301758v0.0512695
				c0,0.1826172,0.0371094,0.3232422,0.1123047,0.421875S26.1426163,29.8520508,26.2822647,29.8520508z"/>
		</g>
		<g>
			<path class="st9" d="M60.373085,27.9111328l0.6972656,1.7402344l0.6972656-1.7402344h0.3642578v2.1328125h-0.28125v-0.8305664
				l0.0263672-0.8964844l-0.7001953,1.7270508h-0.2158203l-0.6982422-1.7226563l0.0283203,0.8920898v0.8305664h-0.28125v-2.1328125
				H60.373085z"/>
			<path class="st9" d="M64.2695694,29.0463867c0,0.2089844-0.0351563,0.3916016-0.1054688,0.5473633
				s-0.1699219,0.2744141-0.2988281,0.3564453s-0.2802734,0.1230469-0.4511719,0.1230469
				c-0.1689453,0-0.3173828-0.0410156-0.4472656-0.1240234c-0.1298828-0.0820313-0.2304688-0.199707-0.3027344-0.3525391
				c-0.0712891-0.152832-0.1083984-0.3300781-0.1103516-0.53125v-0.1538086c0-0.2050781,0.0351563-0.3862305,0.1064453-0.543457
				s0.1728516-0.2773438,0.3027344-0.3613281c0.1308594-0.0830078,0.2792969-0.125,0.4472656-0.125
				c0.1708984,0,0.3222656,0.0415039,0.4521484,0.1240234c0.1308594,0.0825195,0.2314453,0.2021484,0.3017578,0.3583984
				c0.0703125,0.1572266,0.1054688,0.3393555,0.1054688,0.5473633V29.0463867z M63.989296,28.9086914
				c0-0.2529297-0.0507813-0.4467773-0.1523438-0.5825195c-0.1015625-0.1347656-0.2441406-0.2026367-0.4267578-0.2026367
				c-0.1777344,0-0.3173828,0.0678711-0.4189453,0.2026367c-0.1025391,0.1357422-0.1552734,0.3232422-0.1572266,0.5634766v0.1567383
				c0,0.2451172,0.0507813,0.4379883,0.1542969,0.5776367c0.1025391,0.140625,0.2441406,0.2104492,0.4257813,0.2104492
				s0.3222656-0.065918,0.421875-0.1987305c0.0996094-0.1318359,0.1503906-0.3217773,0.1533203-0.5688477V28.9086914z"/>
			<path class="st9" d="M66.0488663,28.1411133h-0.6855469v1.902832h-0.2792969v-1.902832h-0.6835938v-0.2299805h1.6484375
				V28.1411133z"/>
			<path class="st9" d="M67.7568741,28.8999023h0.5947266V29.15625h-0.5947266v0.6738281h-0.2724609V29.15625h-0.5947266v-0.2563477
				h0.5947266v-0.6225586h0.2724609V28.8999023z"/>
		</g>
		<g>
			<path class="st9" d="M15.2519922,56.9960938v-2.1328125h0.6015625c0.1855459,0,0.3496084,0.0410156,0.4921865,0.1230469
				s0.2529297,0.1982422,0.3300781,0.3496094c0.078125,0.1513672,0.1171875,0.3251953,0.1181641,0.5214844v0.1367188
				c0,0.2011719-0.0390625,0.3769531-0.1162109,0.5283203c-0.078125,0.1513672-0.1884766,0.2675781-0.3330078,0.3486328
				c-0.1435547,0.0810547-0.3115234,0.1230469-0.5029287,0.125H15.2519922z M15.5332422,55.0927734v1.6728516h0.2949219
				c0.2167959,0,0.3857412-0.0673828,0.506835-0.2021484c0.1201172-0.1347656,0.1806641-0.3271484,0.1806641-0.5761719v-0.125
				c0-0.2421875-0.0566406-0.4306641-0.1708984-0.5644531c-0.1132813-0.1347656-0.2753906-0.203125-0.4833975-0.2050781H15.5332422z
				"/>
			<path class="st9" d="M17.520546,56.9960938h-0.28125v-2.1328125h0.28125V56.9960938z"/>
			<path class="st9" d="M18.817421,56.1328125h-0.5v0.8632813h-0.2832031v-2.1328125h0.7060547
				c0.2402344,0,0.4248047,0.0546875,0.5546875,0.1640625c0.1289063,0.109375,0.1943359,0.2685547,0.1943359,0.4775391
				c0,0.1328125-0.0361328,0.2480469-0.1083984,0.3466797c-0.0712891,0.0986328-0.171875,0.1728516-0.2998047,0.2216797
				l0.5019531,0.9052734v0.0175781h-0.3027344L18.817421,56.1328125z M18.317421,55.9033203h0.4316406
				c0.1396484,0,0.2509766-0.0361328,0.3330078-0.1083984c0.0830078-0.0732422,0.1240234-0.1699219,0.1240234-0.2910156
				c0-0.1318359-0.0390625-0.2333984-0.1181641-0.3037109c-0.078125-0.0703125-0.1923828-0.1064453-0.3408203-0.1074219H18.317421
				V55.9033203z"/>
		</g>
		<g>
			<path class="st9" d="M21.8115616,56.0449219c-0.2412109-0.0693359-0.4169922-0.1542969-0.5263672-0.2548828
				c-0.1103516-0.1015625-0.1650391-0.2265625-0.1650391-0.375c0-0.1679688,0.0673828-0.3066406,0.2011719-0.4160156
				c0.1347656-0.1103516,0.3085938-0.1650391,0.5244141-0.1650391c0.1464844,0,0.2763672,0.0283203,0.3916016,0.0849609
				c0.1142578,0.0566406,0.203125,0.1347656,0.2666016,0.234375c0.0625,0.0996094,0.09375,0.2080078,0.09375,0.3261719h-0.2822266
				c0-0.1289063-0.0410156-0.2304688-0.1230469-0.3046875s-0.1982422-0.1113281-0.3466797-0.1113281
				c-0.1396484,0-0.2470703,0.03125-0.3251953,0.0917969c-0.0771484,0.0615234-0.1162109,0.1464844-0.1162109,0.2548828
				c0,0.0869141,0.0371094,0.1601563,0.1103516,0.2207031c0.0742188,0.0605469,0.1992188,0.1152344,0.3769531,0.1650391
				c0.1767578,0.0498047,0.3154297,0.1054688,0.4160156,0.1650391c0.0996094,0.0605469,0.1738281,0.1298828,0.2226563,0.2099609
				c0.0478516,0.0800781,0.0722656,0.1748047,0.0722656,0.2832031c0,0.1728516-0.0673828,0.3115234-0.2021484,0.4150391
				c-0.1347656,0.1044922-0.3144531,0.15625-0.5410156,0.15625c-0.1464844,0-0.2832031-0.0283203-0.4101563-0.0839844
				c-0.1269531-0.0566406-0.2246094-0.1337891-0.2929688-0.2314453c-0.0693359-0.0976563-0.1035156-0.2080078-0.1035156-0.3320313
				h0.2832031c0,0.1289063,0.046875,0.2304688,0.1425781,0.3056641c0.0947266,0.0742188,0.2216797,0.1113281,0.3808594,0.1113281
				c0.1484375,0,0.2626953-0.0302734,0.3417969-0.0908203s0.1191406-0.1425781,0.1191406-0.2470703
				s-0.0371094-0.1855469-0.1103516-0.2421875C22.1367569,56.1572266,22.0039444,56.1005859,21.8115616,56.0449219z"/>
			<path class="st9" d="M24.435585,55.0927734h-0.6855469v1.9033203h-0.2792969v-1.9033203h-0.6835938v-0.2294922h1.6484375
				V55.0927734z"/>
			<path class="st9" d="M25.958046,56.0097656h-0.9238281v0.7558594H26.10746v0.2304688h-1.3544922v-2.1328125h1.3398438v0.2294922
				h-1.0585938v0.6875h0.9238281V56.0097656z"/>
			<path class="st9" d="M26.739296,56.1611328v0.8349609h-0.28125v-2.1328125h0.7861328
				c0.2333984,0,0.4160156,0.0595703,0.5488281,0.1787109c0.1318359,0.1191406,0.1982422,0.2763672,0.1982422,0.4726563
				c0,0.2070313-0.0644531,0.3671875-0.1943359,0.4785156c-0.1289063,0.1123047-0.3144531,0.1679688-0.5556641,0.1679688H26.739296z
				 M26.739296,55.9306641h0.5048828c0.1503906,0,0.265625-0.0351563,0.3457031-0.1064453
				c0.0800781-0.0703125,0.1201172-0.1728516,0.1201172-0.3066406c0-0.1279297-0.0400391-0.2294922-0.1201172-0.3056641
				s-0.1904297-0.1162109-0.3291016-0.1191406H26.739296V55.9306641z"/>
		</g>
		<g>
			<path class="st9" d="M29.9521866,56.0449219c-0.2412109-0.0693359-0.4169922-0.1542969-0.5263672-0.2548828
				c-0.1103516-0.1015625-0.1650391-0.2265625-0.1650391-0.375c0-0.1679688,0.0673828-0.3066406,0.2011719-0.4160156
				c0.1347656-0.1103516,0.3085938-0.1650391,0.5244141-0.1650391c0.1464844,0,0.2763672,0.0283203,0.3916016,0.0849609
				c0.1142578,0.0566406,0.203125,0.1347656,0.2666016,0.234375c0.0625,0.0996094,0.09375,0.2080078,0.09375,0.3261719h-0.2822266
				c0-0.1289063-0.0410156-0.2304688-0.1230469-0.3046875s-0.1982422-0.1113281-0.3466797-0.1113281
				c-0.1396484,0-0.2470703,0.03125-0.3251953,0.0917969c-0.0771484,0.0615234-0.1162109,0.1464844-0.1162109,0.2548828
				c0,0.0869141,0.0371094,0.1601563,0.1103516,0.2207031c0.0742188,0.0605469,0.1992188,0.1152344,0.3769531,0.1650391
				c0.1767578,0.0498047,0.3154297,0.1054688,0.4160156,0.1650391c0.0996094,0.0605469,0.1738281,0.1298828,0.2226563,0.2099609
				c0.0478516,0.0800781,0.0722656,0.1748047,0.0722656,0.2832031c0,0.1728516-0.0673828,0.3115234-0.2021484,0.4150391
				c-0.1347656,0.1044922-0.3144531,0.15625-0.5410156,0.15625c-0.1464844,0-0.2832031-0.0283203-0.4101563-0.0839844
				c-0.1269531-0.0566406-0.2246094-0.1337891-0.2929688-0.2314453c-0.0693359-0.0976563-0.1035156-0.2080078-0.1035156-0.3320313
				h0.2832031c0,0.1289063,0.046875,0.2304688,0.1425781,0.3056641c0.0947266,0.0742188,0.2216797,0.1113281,0.3808594,0.1113281
				c0.1484375,0,0.2626953-0.0302734,0.3417969-0.0908203s0.1191406-0.1425781,0.1191406-0.2470703
				s-0.0371094-0.1855469-0.1103516-0.2421875C30.2773819,56.1572266,30.1445694,56.1005859,29.9521866,56.0449219z"/>
			<path class="st9" d="M31.3867569,56.765625h1.0107422v0.2304688h-1.2929688v-2.1328125h0.2822266V56.765625z"/>
			<path class="st9" d="M33.0000381,56.1611328v0.8349609h-0.28125v-2.1328125h0.7861328
				c0.2333984,0,0.4160156,0.0595703,0.5488281,0.1787109c0.1318359,0.1191406,0.1982422,0.2763672,0.1982422,0.4726563
				c0,0.2070313-0.0644531,0.3671875-0.1943359,0.4785156c-0.1289063,0.1123047-0.3144531,0.1679688-0.5556641,0.1679688H33.0000381
				z M33.0000381,55.9306641h0.5048828c0.1503906,0,0.265625-0.0351563,0.3457031-0.1064453
				c0.0800781-0.0703125,0.1201172-0.1728516,0.1201172-0.3066406c0-0.1279297-0.0400391-0.2294922-0.1201172-0.3056641
				s-0.1904297-0.1162109-0.3291016-0.1191406h-0.5214844V55.9306641z"/>
		</g>
		<g>
			<path class="st9" d="M37.2832413,56.1328125h-0.5v0.8632813h-0.2832031v-2.1328125h0.7060547
				c0.2402344,0,0.4248047,0.0546875,0.5546875,0.1640625c0.1289063,0.109375,0.1943359,0.2685547,0.1943359,0.4775391
				c0,0.1328125-0.0361328,0.2480469-0.1083984,0.3466797c-0.0712891,0.0986328-0.171875,0.1728516-0.2998047,0.2216797
				l0.5019531,0.9052734v0.0175781h-0.3027344L37.2832413,56.1328125z M36.7832413,55.9033203h0.4316406
				c0.1396484,0,0.2509766-0.0361328,0.3330078-0.1083984c0.0830078-0.0732422,0.1240234-0.1699219,0.1240234-0.2910156
				c0-0.1318359-0.0390625-0.2333984-0.1181641-0.3037109c-0.078125-0.0703125-0.1923828-0.1064453-0.3408203-0.1074219h-0.4296875
				V55.9033203z"/>
			<path class="st9" d="M39.5547256,56.0097656h-0.9238281v0.7558594h1.0732422v0.2304688h-1.3544922v-2.1328125h1.3398438
				v0.2294922h-1.0585938v0.6875h0.9238281V56.0097656z"/>
			<path class="st9" d="M40.6826553,56.0449219c-0.2412109-0.0693359-0.4169922-0.1542969-0.5263672-0.2548828
				c-0.1103516-0.1015625-0.1650391-0.2265625-0.1650391-0.375c0-0.1679688,0.0673828-0.3066406,0.2011719-0.4160156
				c0.1347656-0.1103516,0.3085938-0.1650391,0.5244141-0.1650391c0.1464844,0,0.2763672,0.0283203,0.3916016,0.0849609
				c0.1142578,0.0566406,0.203125,0.1347656,0.2666016,0.234375c0.0625,0.0996094,0.09375,0.2080078,0.09375,0.3261719h-0.2822266
				c0-0.1289063-0.0410156-0.2304688-0.1230469-0.3046875s-0.1982422-0.1113281-0.3466797-0.1113281
				c-0.1396484,0-0.2470703,0.03125-0.3251953,0.0917969c-0.0771484,0.0615234-0.1162109,0.1464844-0.1162109,0.2548828
				c0,0.0869141,0.0371094,0.1601563,0.1103516,0.2207031c0.0742188,0.0605469,0.1992188,0.1152344,0.3769531,0.1650391
				c0.1767578,0.0498047,0.3154297,0.1054688,0.4160156,0.1650391c0.0996094,0.0605469,0.1738281,0.1298828,0.2226563,0.2099609
				c0.0478516,0.0800781,0.0722656,0.1748047,0.0722656,0.2832031c0,0.1728516-0.0673828,0.3115234-0.2021484,0.4150391
				c-0.1347656,0.1044922-0.3144531,0.15625-0.5410156,0.15625c-0.1464844,0-0.2832031-0.0283203-0.4101563-0.0839844
				c-0.1269531-0.0566406-0.2246094-0.1337891-0.2929688-0.2314453c-0.0693359-0.0976563-0.1035156-0.2080078-0.1035156-0.3320313
				h0.2832031c0,0.1289063,0.046875,0.2304688,0.1425781,0.3056641c0.0947266,0.0742188,0.2216797,0.1113281,0.3808594,0.1113281
				c0.1484375,0,0.2626953-0.0302734,0.3417969-0.0908203s0.1191406-0.1425781,0.1191406-0.2470703
				s-0.0371094-0.1855469-0.1103516-0.2421875C41.0078506,56.1572266,40.8750381,56.1005859,40.6826553,56.0449219z"/>
		</g>
		<g>
			<path class="st9" d="M43.6894913,54.8632813l0.6972656,1.7402344l0.6972656-1.7402344h0.3642578v2.1328125h-0.28125v-0.8310547
				l0.0263672-0.8964844l-0.7001953,1.7275391h-0.2158203l-0.6982422-1.7226563l0.0283203,0.8916016v0.8310547h-0.28125v-2.1328125
				H43.6894913z"/>
			<path class="st9" d="M46.5732803,56.0449219c-0.2412109-0.0693359-0.4169922-0.1542969-0.5263672-0.2548828
				c-0.1103516-0.1015625-0.1650391-0.2265625-0.1650391-0.375c0-0.1679688,0.0673828-0.3066406,0.2011719-0.4160156
				c0.1347656-0.1103516,0.3085938-0.1650391,0.5244141-0.1650391c0.1464844,0,0.2763672,0.0283203,0.3916016,0.0849609
				c0.1142578,0.0566406,0.203125,0.1347656,0.2666016,0.234375c0.0625,0.0996094,0.09375,0.2080078,0.09375,0.3261719h-0.2822266
				c0-0.1289063-0.0410156-0.2304688-0.1230469-0.3046875s-0.1982422-0.1113281-0.3466797-0.1113281
				c-0.1396484,0-0.2470703,0.03125-0.3251953,0.0917969c-0.0771484,0.0615234-0.1162109,0.1464844-0.1162109,0.2548828
				c0,0.0869141,0.0371094,0.1601563,0.1103516,0.2207031c0.0742188,0.0605469,0.1992188,0.1152344,0.3769531,0.1650391
				c0.1767578,0.0498047,0.3154297,0.1054688,0.4160156,0.1650391c0.0996094,0.0605469,0.1738281,0.1298828,0.2226563,0.2099609
				c0.0478516,0.0800781,0.0722656,0.1748047,0.0722656,0.2832031c0,0.1728516-0.0673828,0.3115234-0.2021484,0.4150391
				c-0.1347656,0.1044922-0.3144531,0.15625-0.5410156,0.15625c-0.1464844,0-0.2832031-0.0283203-0.4101563-0.0839844
				c-0.1269531-0.0566406-0.2246094-0.1337891-0.2929688-0.2314453c-0.0693359-0.0976563-0.1035156-0.2080078-0.1035156-0.3320313
				h0.2832031c0,0.1289063,0.046875,0.2304688,0.1425781,0.3056641c0.0947266,0.0742188,0.2216797,0.1113281,0.3808594,0.1113281
				c0.1484375,0,0.2626953-0.0302734,0.3417969-0.0908203s0.1191406-0.1425781,0.1191406-0.2470703
				s-0.0371094-0.1855469-0.1103516-0.2421875C46.8984756,56.1572266,46.7656631,56.1005859,46.5732803,56.0449219z"/>
			<path class="st9" d="M48.0488663,55.7978516h0.2041016c0.1269531-0.0019531,0.2285156-0.0361328,0.3007813-0.1015625
				c0.0742188-0.0654297,0.1103516-0.1533203,0.1103516-0.2646484c0-0.25-0.1240234-0.375-0.3740234-0.375
				c-0.1171875,0-0.2099609,0.0332031-0.2802734,0.1005859c-0.0693359,0.0664063-0.1044922,0.1552734-0.1044922,0.265625h-0.2714844
				c0-0.1689453,0.0625-0.3095703,0.1855469-0.4208984c0.1240234-0.1123047,0.28125-0.1679688,0.4707031-0.1679688
				c0.2011719,0,0.359375,0.0527344,0.4736328,0.1591797s0.1708984,0.2548828,0.1708984,0.4443359
				c0,0.0927734-0.0292969,0.1826172-0.0898438,0.2695313c-0.0595703,0.0869141-0.1416016,0.1513672-0.2451172,0.1943359
				C48.716835,55.9384766,48.8076553,56,48.8711319,56.0859375c0.0644531,0.0859375,0.0966797,0.1914063,0.0966797,0.3154297
				c0,0.1914063-0.0634766,0.3427734-0.1875,0.4550781c-0.1259766,0.1123047-0.2880859,0.1689453-0.4882813,0.1689453
				s-0.3632813-0.0546875-0.4882813-0.1630859c-0.1259766-0.1083984-0.1884766-0.2509766-0.1884766-0.4287109h0.2724609
				c0,0.1123047,0.0371094,0.2021484,0.109375,0.2695313c0.0742188,0.0673828,0.171875,0.1005859,0.2949219,0.1005859
				c0.1308594,0,0.2304688-0.0341797,0.3007813-0.1025391c0.0683594-0.0683594,0.1035156-0.1660156,0.1035156-0.2939453
				c0-0.1240234-0.0380859-0.2197266-0.1142578-0.2861328s-0.1865234-0.1005859-0.3291016-0.1025391h-0.2041016V55.7978516z"/>
		</g>
		<g>
			<path class="st9" d="M50.88871,54.8632813l0.6972656,1.7402344l0.6972656-1.7402344h0.3642578v2.1328125h-0.28125v-0.8310547
				l0.0263672-0.8964844l-0.7001953,1.7275391h-0.2158203l-0.6982422-1.7226563l0.0283203,0.8916016v0.8310547h-0.28125v-2.1328125
				H50.88871z"/>
			<path class="st9" d="M53.7724991,56.0449219c-0.2412109-0.0693359-0.4169922-0.1542969-0.5263672-0.2548828
				c-0.1103516-0.1015625-0.1650391-0.2265625-0.1650391-0.375c0-0.1679688,0.0673828-0.3066406,0.2011719-0.4160156
				c0.1347656-0.1103516,0.3085938-0.1650391,0.5244141-0.1650391c0.1464844,0,0.2763672,0.0283203,0.3916016,0.0849609
				c0.1142578,0.0566406,0.203125,0.1347656,0.2666016,0.234375c0.0625,0.0996094,0.09375,0.2080078,0.09375,0.3261719h-0.2822266
				c0-0.1289063-0.0410156-0.2304688-0.1230469-0.3046875s-0.1982422-0.1113281-0.3466797-0.1113281
				c-0.1396484,0-0.2470703,0.03125-0.3251953,0.0917969c-0.0771484,0.0615234-0.1162109,0.1464844-0.1162109,0.2548828
				c0,0.0869141,0.0371094,0.1601563,0.1103516,0.2207031c0.0742188,0.0605469,0.1992188,0.1152344,0.3769531,0.1650391
				c0.1767578,0.0498047,0.3154297,0.1054688,0.4160156,0.1650391c0.0996094,0.0605469,0.1738281,0.1298828,0.2226563,0.2099609
				c0.0478516,0.0800781,0.0722656,0.1748047,0.0722656,0.2832031c0,0.1728516-0.0673828,0.3115234-0.2021484,0.4150391
				c-0.1347656,0.1044922-0.3144531,0.15625-0.5410156,0.15625c-0.1464844,0-0.2832031-0.0283203-0.4101563-0.0839844
				c-0.1269531-0.0566406-0.2246094-0.1337891-0.2929688-0.2314453c-0.0693359-0.0976563-0.1035156-0.2080078-0.1035156-0.3320313
				h0.2832031c0,0.1289063,0.046875,0.2304688,0.1425781,0.3056641c0.0947266,0.0742188,0.2216797,0.1113281,0.3808594,0.1113281
				c0.1484375,0,0.2626953-0.0302734,0.3417969-0.0908203s0.1191406-0.1425781,0.1191406-0.2470703
				s-0.0371094-0.1855469-0.1103516-0.2421875C54.0976944,56.1572266,53.9648819,56.1005859,53.7724991,56.0449219z"/>
			<path class="st9" d="M56.2510147,56.9960938h-1.3964844v-0.1953125l0.7382813-0.8203125
				c0.1083984-0.1240234,0.1845703-0.2246094,0.2255859-0.3017578c0.0419922-0.078125,0.0625-0.1582031,0.0625-0.2412109
				c0-0.1113281-0.0341797-0.203125-0.1005859-0.2744141c-0.0683594-0.0712891-0.1582031-0.1064453-0.2695313-0.1064453
				c-0.1347656,0-0.2402344,0.0380859-0.3144531,0.1152344c-0.0751953,0.0761719-0.1123047,0.1826172-0.1123047,0.3193359
				h-0.2705078c0-0.1962891,0.0625-0.3544922,0.1894531-0.4755859c0.1259766-0.1210938,0.2949219-0.1816406,0.5078125-0.1816406
				c0.1972656,0,0.3544922,0.0517578,0.4697266,0.15625c0.1152344,0.1035156,0.1728516,0.2421875,0.1728516,0.4150391
				c0,0.2099609-0.1337891,0.4599609-0.4013672,0.75l-0.5712891,0.6191406h1.0703125V56.9960938z"/>
		</g>
		<g>
			<path class="st9" d="M58.0889053,54.8632813l0.6972656,1.7402344l0.6972656-1.7402344h0.3642578v2.1328125h-0.28125v-0.8310547
				l0.0263672-0.8964844l-0.7001953,1.7275391H58.676796l-0.6982422-1.7226563l0.0283203,0.8916016v0.8310547h-0.28125v-2.1328125
				H58.0889053z"/>
			<path class="st9" d="M60.9726944,56.0449219c-0.2412109-0.0693359-0.4169922-0.1542969-0.5263672-0.2548828
				c-0.1103516-0.1015625-0.1650391-0.2265625-0.1650391-0.375c0-0.1679688,0.0673828-0.3066406,0.2011719-0.4160156
				c0.1347656-0.1103516,0.3085938-0.1650391,0.5244141-0.1650391c0.1464844,0,0.2763672,0.0283203,0.3916016,0.0849609
				c0.1142578,0.0566406,0.203125,0.1347656,0.2666016,0.234375c0.0625,0.0996094,0.09375,0.2080078,0.09375,0.3261719h-0.2822266
				c0-0.1289063-0.0410156-0.2304688-0.1230469-0.3046875s-0.1982422-0.1113281-0.3466797-0.1113281
				c-0.1396484,0-0.2470703,0.03125-0.3251953,0.0917969c-0.0771484,0.0615234-0.1162109,0.1464844-0.1162109,0.2548828
				c0,0.0869141,0.0371094,0.1601563,0.1103516,0.2207031c0.0742188,0.0605469,0.1992188,0.1152344,0.3769531,0.1650391
				c0.1767578,0.0498047,0.3154297,0.1054688,0.4160156,0.1650391c0.0996094,0.0605469,0.1738281,0.1298828,0.2226563,0.2099609
				c0.0478516,0.0800781,0.0722656,0.1748047,0.0722656,0.2832031c0,0.1728516-0.0673828,0.3115234-0.2021484,0.4150391
				c-0.1347656,0.1044922-0.3144531,0.15625-0.5410156,0.15625c-0.1464844,0-0.2832031-0.0283203-0.4101563-0.0839844
				c-0.1269531-0.0566406-0.2246094-0.1337891-0.2929688-0.2314453c-0.0693359-0.0976563-0.1035156-0.2080078-0.1035156-0.3320313
				h0.2832031c0,0.1289063,0.046875,0.2304688,0.1425781,0.3056641c0.0947266,0.0742188,0.2216797,0.1113281,0.3808594,0.1113281
				c0.1484375,0,0.2626953-0.0302734,0.3417969-0.0908203s0.1191406-0.1425781,0.1191406-0.2470703
				s-0.0371094-0.1855469-0.1103516-0.2421875C61.2978897,56.1572266,61.1650772,56.1005859,60.9726944,56.0449219z"/>
			<path class="st9" d="M62.9453506,56.9960938h-0.2734375v-1.8066406l-0.5458984,0.2011719v-0.2460938l0.7763672-0.2919922
				h0.0429688V56.9960938z"/>
		</g>
		<g>
			<path class="st9" d="M67.2510147,56.0097656h-0.9238281v0.7558594h1.0732422v0.2304688h-1.3544922v-2.1328125h1.3398438
				v0.2294922h-1.0585938v0.6875h0.9238281V56.0097656z"/>
			<path class="st9" d="M69.3896866,56.9960938h-0.2832031l-1.0732422-1.6435547v1.6435547h-0.2822266v-2.1328125h0.2822266
				l1.0771484,1.6503906v-1.6503906h0.2792969V56.9960938z"/>
		</g>
	</g>
	<g>
		<g>
			<g>
				<path class="st28" d="M54.5339622,76.1177673c0,1.2273636,1.0018463,2.2224731,2.2397423,2.2224731
					c1.2378922,0,2.241539-0.9951096,2.241539-2.2224731s-1.0036469-2.2224731-2.241539-2.2224731
					C55.5358086,73.8952942,54.5339622,74.8904037,54.5339622,76.1177673z"/>
				<ellipse class="st30" cx="56.7746048" cy="76.1177673" rx="1.5316002" ry="1.5185714"/>
				<path class="st32" d="M31.506958,64.3994064c0,0-0.0124226,0.0000305-0.034481,0.0000763
					c-0.0053043,2.1060333-0.0384293,15.2590714-0.0384293,15.2590714s-0.0004234,0.1679382-0.0008469,0.3358765
					c0.0455379-0.0001068,0.0910759-0.000206,0.0910759-0.000206s19.7002144-0.0434113,21.5548668-0.0475006
					c0.0916176-0.000206,0.1396866-0.0003052,0.1396866-0.0003052l0.0391426-15.5419617
					c0,0,0.0000648-0.0264893,0.0001335-0.0529861c-0.0282974,0.0000687-0.0565948,0.0001297-0.0565948,0.0001297"/>
				<line class="st32" x1="38.7321167" y1="64.3834839" x2="38.7321167" y2="79.9774094"/>
				<line class="st32" x1="45.9686584" y1="64.3675385" x2="45.9686584" y2="79.9604034"/>
				<path class="st28" d="M47.3056183,76.1177673c0,1.2273636,1.0018463,2.2224731,2.2397385,2.2224731
					s2.2415428-0.9951096,2.2415428-2.2224731s-1.0036507-2.2224731-2.2415428-2.2224731
					S47.3056183,74.8904037,47.3056183,76.1177673z"/>
				<ellipse class="st30" cx="49.546257" cy="76.1177673" rx="1.5316002" ry="1.5185714"/>
				<path class="st28" d="M40.1056175,76.1177673c0,1.2273636,1.0018463,2.2224731,2.2397385,2.2224731
					s2.2415428-0.9951096,2.2415428-2.2224731s-1.0036507-2.2224731-2.2415428-2.2224731
					S40.1056175,74.8904037,40.1056175,76.1177673z"/>
				<ellipse class="st30" cx="42.3462563" cy="76.1177673" rx="1.5316002" ry="1.5185714"/>
				<path class="st28" d="M33.5181885,74.4888458c-1.5395126,2.0229187,0.1709862,4.2713089,2.1831703,3.7840042
					c0.7743683-0.1875381,1.4096413-0.8210754,1.5987816-1.5950546
					C37.7917366,74.6661606,35.542675,72.9484482,33.5181885,74.4888458z"/>
				<ellipse class="st30" cx="35.1462593" cy="76.1177673" rx="1.5316002" ry="1.5185714"/>
				<path class="st28" d="M26.3181877,74.4888458c-1.5395107,2.0229187,0.1709862,4.2713089,2.1831703,3.7840042
					c0.7743702-0.1875381,1.4096413-0.8210754,1.5987835-1.5950546
					C30.5917377,74.6661606,28.3426743,72.9484482,26.3181877,74.4888458z"/>
				<ellipse class="st30" cx="27.9462585" cy="76.1177673" rx="1.5316002" ry="1.5185714"/>
				<g>
					<path class="st29" d="M54.6943741,71.171875v-0.4462891l0.5820313-0.0996094V66.5625l-0.5820313-0.0996094v-0.4492188
						h3.9951172v1.2392578h-0.6035156L58.0283585,66.5625h-2.046875v1.6689453h1.9902344v0.5488281h-1.9902344v1.8457031h2.0898438
						l0.0566406-0.6904297h0.6015625v1.2363281H54.6943741z"/>
				</g>
				<g>
					<path class="st29" d="M51.4639053,70.5869141c-0.1533203,0.1582031-0.3779297,0.3076172-0.6757813,0.4482422
						s-0.6845703,0.2109375-1.1611328,0.2109375c-0.6962891,0-1.2636719-0.2421875-1.703125-0.7265625
						c-0.4394531-0.4833984-0.6591797-1.1123047-0.6591797-1.8847656v-0.0849609c0-0.7763672,0.2177734-1.40625,0.6523438-1.8876953
						c0.4345703-0.4824219,1.0126953-0.7236328,1.734375-0.7236328c0.3867188,0,0.7246094,0.0605469,1.0166016,0.1796875
						s0.5380859,0.2763672,0.7382813,0.4726563v0.9355469h-0.4931641l-0.171875-0.7119141
						c-0.1162109-0.0947266-0.2578125-0.1728516-0.4228516-0.234375c-0.1660156-0.0615234-0.3642578-0.0917969-0.5957031-0.0917969
						c-0.5615234,0-0.9951172,0.1904297-1.2988281,0.5722656c-0.3037109,0.3808594-0.4550781,0.875-0.4550781,1.4824219v0.0917969
						c0,0.6171875,0.1464844,1.1152344,0.4414063,1.4951172c0.2939453,0.3808594,0.6992188,0.5703125,1.2167969,0.5703125
						c0.2832031,0,0.515625-0.0292969,0.6962891-0.0878906c0.1816406-0.0595703,0.3261719-0.1240234,0.4365234-0.1953125v-1.1298828
						l-0.8544922-0.0351563v-0.5136719h1.5585938V70.5869141z"/>
				</g>
				<g>
					<path class="st29" d="M43.161171,66.1240234h1.6445313v0.4492188l-0.4150391,0.0566406l-1.7431641,4.6523438h-0.6044922
						l-1.7431641-4.6523438l-0.4189453-0.0566406v-0.4492188h1.640625v0.4492188l-0.4677734,0.0712891L42.2139053,70
						l0.1191406,0.4072266h0.0214844L42.4717178,70l1.1650391-3.3515625l-0.4755859-0.0751953V66.1240234z"/>
				</g>
				<g>
					<path class="st29" d="M36.9375381,67.6464844h-0.5322266l-0.1328125-0.7373047
						c-0.1074219-0.0898438-0.25-0.1640625-0.4287109-0.2236328c-0.1787109-0.0585938-0.3857422-0.0878906-0.6220703-0.0878906
						c-0.3740234,0-0.6611328,0.078125-0.8603516,0.2353516c-0.2001953,0.1572266-0.3007813,0.3623047-0.3007813,0.6142578
						c0,0.2246094,0.1015625,0.4121094,0.3056641,0.5625c0.2041016,0.1494141,0.5332031,0.28125,0.9882813,0.3945313
						C35.9023819,68.5390625,36.3183975,68.7373047,36.6035538,69c0.2841797,0.2617188,0.4267578,0.5869141,0.4267578,0.9736328
						c0,0.4160156-0.1708984,0.75-0.5126953,1.0029297s-0.7890625,0.3789063-1.3417969,0.3789063
						c-0.4003906,0-0.7558594-0.0644531-1.0664063-0.1943359c-0.3115234-0.1298828-0.5644531-0.2998047-0.7597656-0.5107422
						v-0.9599609h0.5292969l0.1357422,0.7402344c0.1357422,0.1113281,0.2978516,0.2021484,0.4853516,0.2734375
						c0.1884766,0.0703125,0.4130859,0.1054688,0.6757813,0.1054688c0.3544922,0,0.6357422-0.0742188,0.8417969-0.2226563
						s0.3085938-0.3505859,0.3085938-0.6054688c0-0.2363281-0.0888672-0.4345703-0.2675781-0.59375
						s-0.4951172-0.2939453-0.9472656-0.4023438c-0.5507813-0.1298828-0.9804688-0.3212891-1.2900391-0.5742188
						c-0.3095703-0.2519531-0.4648438-0.5703125-0.4648438-0.953125c0-0.4033203,0.1728516-0.7392578,0.5185547-1.0078125
						c0.3457031-0.2675781,0.7939453-0.4023438,1.3466797-0.4023438c0.3652344,0,0.6962891,0.0625,0.9951172,0.1865234
						c0.2998047,0.1240234,0.5390625,0.2744141,0.7207031,0.4511719V67.6464844z"/>
				</g>
				<g>
					<path class="st29" d="M27.8447647,66.1230469c0.6787109,0,1.2255859,0.2070313,1.6386719,0.6210938
						c0.4130859,0.4150391,0.6201172,0.9501953,0.6201172,1.6074219v0.7050781c0,0.6582031-0.2070313,1.1943359-0.6201172,1.6064453
						S28.5234756,71.28125,27.8447647,71.28125h-2.1796875v-0.4462891l0.5820313-0.0996094V66.671875l-0.5820313-0.0996094
						v-0.4492188h0.5820313H27.8447647z M26.95121,66.671875v4.0634766h0.8935547
						c0.4814453,0,0.8603516-0.1572266,1.1386719-0.4707031c0.2773438-0.3144531,0.4160156-0.7167969,0.4160156-1.2080078V68.34375
						c0-0.4863281-0.1386719-0.8867188-0.4160156-1.2011719c-0.2783203-0.3134766-0.6572266-0.4707031-1.1386719-0.4707031H26.95121
						z"/>
				</g>
				<path class="st32" d="M53.2015114,64.3516006h7.5819817c-0.0000153,3.0138016,0,15.5948181,0,15.5948181h-7.5646629"/>
				<path class="st32" d="M31.5242767,79.9942245h-7.490797c0-2.4291,0-15.6695633,0-15.6695633l29.1680317,0.0269394"/>
			</g>
			<g>
				<g>
					<g>
						<g>
							<g>
								<polygon class="st9" points="25.7344131,79.65625 24.4629288,78.3818359 24.4639053,73.8496094 25.7383194,72.578125 
									30.270546,72.5791016 31.5420303,73.8535156 31.5410538,78.3857422 30.2685928,79.65625 								"/>
								<path class="st36" d="M30.2659225,72.584465l1.2697144,1.269722v4.5271606l-0.9139862,0.9139862l-0.3557281,0.3557434
									h-4.5271606l-0.6348572-0.6348724l-0.6348572-0.6348572V73.854187l0.6348572-0.6348572l0.6348572-0.6348648H30.2659225
									 M30.2700577,72.5744705h-4.5354309c-0.4981537,0.4981384-0.7774353,0.7774353-1.275589,1.2755737v4.5354462
									c0.4981537,0.4981461,0.7774353,0.7774353,1.275589,1.275589h4.5354309
									c0.4981537-0.4981537,0.7774506-0.7774429,1.275589-1.275589v-4.5354462
									C31.0475082,73.3519058,30.7682114,73.0726089,30.2700577,72.5744705L30.2700577,72.5744705z"/>
							</g>
						</g>
						<rect x="27.1185093" y="75.2106857" class="st37" width="1.7676752" height="1.8141732"/>
						<rect x="27.5189972" y="75.6217041" class="st38" width="0.9666973" height="0.992126"/>
						<line class="st39" x1="27.1185093" y1="75.2106857" x2="27.5189972" y2="75.6217041"/>
						<line class="st39" x1="28.4856949" y1="75.6217041" x2="28.8861828" y2="75.2106857"/>
						<line class="st39" x1="28.4856949" y1="76.6138306" x2="28.8861828" y2="77.0248566"/>
						<line class="st39" x1="27.5189972" y1="76.6138306" x2="27.1185093" y2="77.0248566"/>
					</g>
				</g>
				<g>
					<g>
						<g>
							<g>
								<polygon class="st9" points="40.0781631,79.65625 38.8066788,78.3818359 38.8076553,73.8496094 40.0820694,72.578125 
									44.6133194,72.5791016 45.8848038,73.8535156 45.8838272,78.3857422 44.6113663,79.65625 								"/>
								<path class="st36" d="M44.60923,72.584465l1.2697144,1.269722v4.5271606l-0.9139862,0.9139862L44.60923,79.6510773
									h-4.5271606l-0.6348572-0.6348724l-0.6348572-0.6348572V73.854187l0.6348572-0.6348572l0.6348572-0.6348648H44.60923
									 M44.6133652,72.5744705h-4.5354309c-0.4981537,0.4981384-0.7774353,0.7774353-1.275589,1.2755737v4.5354462
									c0.4981537,0.4981461,0.7774353,0.7774353,1.275589,1.275589h4.5354309
									c0.4981537-0.4981537,0.7774506-0.7774429,1.275589-1.275589v-4.5354462
									C45.3908157,73.3519058,45.1115189,73.0726089,44.6133652,72.5744705L44.6133652,72.5744705z"/>
							</g>
						</g>
						<rect x="41.4618149" y="75.2106857" class="st37" width="1.7676752" height="1.8141732"/>
						<rect x="41.8623047" y="75.6217041" class="st38" width="0.9666973" height="0.992126"/>
						<line class="st39" x1="41.4618149" y1="75.2106857" x2="41.8623047" y2="75.6217041"/>
						<line class="st39" x1="42.8290024" y1="75.6217041" x2="43.2294922" y2="75.2106857"/>
						<line class="st39" x1="42.8290024" y1="76.6138306" x2="43.2294922" y2="77.0248566"/>
						<line class="st39" x1="41.8623047" y1="76.6138306" x2="41.4618149" y2="77.0248566"/>
					</g>
				</g>
				<g>
					<g>
						<g>
							<g>
								<polygon class="st9" points="32.9062881,79.65625 31.6494522,78.3964844 31.6357803,73.8496094 32.9101944,72.578125 
									37.4414444,72.5791016 38.7129288,73.8535156 38.7119522,78.3847656 37.4394913,79.65625 								"/>
								<path class="st36" d="M37.4375839,72.5840912l1.2697144,1.2697296v4.527153l-0.3557281,0.3557281l-0.9139862,0.9140015
									h-4.5271606L32.5546951,79.29496l-0.9139862-0.9139862v-4.527153l1.2697144-1.2697296H37.4375839 M37.4417191,72.5740891
									h-4.5354309c-0.4981537,0.4981384-0.7774506,0.7774429-1.275589,1.275589v4.5354309
									c0.4981384,0.4981537,0.7774353,0.7774429,1.275589,1.275589h4.5354309
									c0.4981384-0.4981461,0.7774353-0.7774353,1.275589-1.275589V73.849678
									C38.2191544,73.351532,37.9398575,73.0722275,37.4417191,72.5740891L37.4417191,72.5740891z"/>
							</g>
						</g>
						<rect x="34.2901611" y="75.2103119" class="st37" width="1.7676752" height="1.8141732"/>
						<rect x="34.6906509" y="75.6213303" class="st38" width="0.9666973" height="0.992126"/>
						<line class="st39" x1="34.2901611" y1="75.2103119" x2="34.6906509" y2="75.6213303"/>
						<line class="st39" x1="35.6573486" y1="75.6213303" x2="36.0578384" y2="75.2103119"/>
						<line class="st39" x1="35.6573486" y1="76.6134567" x2="36.0578384" y2="77.0244827"/>
						<line class="st39" x1="34.6906509" y1="76.6134567" x2="34.2901611" y2="77.0244827"/>
					</g>
				</g>
				<g>
					<g>
						<g>
							<g>
								<polygon class="st9" points="54.4209366,79.65625 53.1494522,78.3818359 53.1504288,73.8496094 54.4248428,72.578125 
									58.9570694,72.5791016 60.2285538,73.8535156 60.2275772,78.3857422 58.9551163,79.65625 								"/>
								<path class="st36" d="M58.9525375,72.584465l1.2697144,1.269722v4.5271606l-0.9139862,0.9139862l-0.3557281,0.3557434
									h-4.5271606l-0.6348572-0.6348724l-0.6348572-0.6348572V73.854187l0.6348572-0.6348572l0.6348572-0.6348648H58.9525375
									 M58.9566727,72.5744705h-4.5354309c-0.4981537,0.4981384-0.7774353,0.7774353-1.275589,1.2755737v4.5354462
									c0.4981537,0.4981461,0.7774353,0.7774353,1.275589,1.275589h4.5354309
									c0.4981537-0.4981537,0.7774506-0.7774429,1.275589-1.275589v-4.5354462
									C59.7341232,73.3519058,59.4548264,73.0726089,58.9566727,72.5744705L58.9566727,72.5744705z"/>
							</g>
						</g>
						<rect x="55.8051224" y="75.2106857" class="st37" width="1.7676752" height="1.8141732"/>
						<rect x="56.2056122" y="75.6217041" class="st38" width="0.9666973" height="0.992126"/>
						<line class="st39" x1="55.8051224" y1="75.2106857" x2="56.2056122" y2="75.6217041"/>
						<line class="st39" x1="57.1723099" y1="75.6217041" x2="57.5727997" y2="75.2106857"/>
						<line class="st39" x1="57.1723099" y1="76.6138306" x2="57.5727997" y2="77.0248566"/>
						<line class="st39" x1="56.2056122" y1="76.6138306" x2="55.8051224" y2="77.0248566"/>
					</g>
				</g>
				<g>
					<g>
						<g>
							<g>
								<polygon class="st9" points="47.2500381,79.65625 45.9775772,78.3808594 45.9785538,73.8496094 47.2539444,72.578125 
									51.7851944,72.5791016 53.0566788,73.8535156 53.0557022,78.3847656 51.7832413,79.65625 								"/>
								<path class="st36" d="M51.7808914,72.5840912l1.2697144,1.2697296v4.527153l-0.3557281,0.3557281l-0.9139862,0.9140015
									h-4.5271606l-0.6348724-0.6348724l-0.6348724-0.6348572v-4.527153l1.2697449-1.2697296H51.7808914 M51.7850266,72.5740891
									h-4.5354309c-0.4981537,0.4981384-0.7774506,0.7774429-1.2756042,1.275589v4.5354309
									c0.4981537,0.4981537,0.7774506,0.7774429,1.2756042,1.275589h4.5354309
									c0.4981384-0.4981461,0.7774353-0.7774353,1.275589-1.275589V73.849678
									C52.5624619,73.351532,52.283165,73.0722275,51.7850266,72.5740891L51.7850266,72.5740891z"/>
							</g>
						</g>
						<rect x="48.6334686" y="75.2103119" class="st37" width="1.7676752" height="1.8141732"/>
						<rect x="49.0339584" y="75.6213303" class="st38" width="0.9666973" height="0.992126"/>
						<line class="st39" x1="48.6334686" y1="75.2103119" x2="49.0339584" y2="75.6213303"/>
						<line class="st39" x1="50.0006561" y1="75.6213303" x2="50.4011459" y2="75.2103119"/>
						<line class="st39" x1="50.0006561" y1="76.6134567" x2="50.4011459" y2="77.0244827"/>
						<line class="st39" x1="49.0339584" y1="76.6134567" x2="48.6334686" y2="77.0244827"/>
					</g>
				</g>
			</g>
		</g>
		<g>
			<path class="st9" d="M48.2930069,82.7148438c-0.0722656,0.1035156-0.1728516,0.1806641-0.3027344,0.2314453
				c-0.1289063,0.0517578-0.2802734,0.0771484-0.4511719,0.0771484c-0.1748047,0-0.328125-0.0400391-0.4628906-0.1220703
				c-0.1347656-0.0810547-0.2392578-0.1972656-0.3134766-0.3476563c-0.0732422-0.1503906-0.1113281-0.3251953-0.1132813-0.5234375
				v-0.1855469c0-0.3212891,0.0751953-0.5703125,0.2246094-0.7470703c0.1503906-0.1767578,0.3603516-0.265625,0.6318359-0.265625
				c0.2226563,0,0.4023438,0.0576172,0.5380859,0.1708984c0.1357422,0.1142578,0.21875,0.2753906,0.2490234,0.484375h-0.28125
				C47.9590225,81.2041016,47.7910538,81.0625,47.5078506,81.0625c-0.1884766,0-0.3310547,0.0664063-0.4287109,0.1982422
				c-0.0966797,0.1328125-0.1464844,0.3242188-0.1474609,0.5751953v0.1748047c0,0.2392578,0.0546875,0.4296875,0.1640625,0.5712891
				c0.109375,0.140625,0.2578125,0.2119141,0.4443359,0.2119141c0.1054688,0,0.1982422-0.0117188,0.2763672-0.0351563
				c0.0800781-0.0234375,0.1445313-0.0634766,0.1972656-0.1181641v-0.4785156h-0.4941406v-0.2294922h0.7734375V82.7148438z"/>
			<path class="st9" d="M50.4014053,82.9941406h-0.2832031L49.04496,81.3505859v1.6435547h-0.2822266v-2.1328125H49.04496
				l1.0771484,1.6513672v-1.6513672h0.2792969V82.9941406z"/>
			<path class="st9" d="M50.9014053,82.9941406v-2.1328125h0.6015625c0.1855469,0,0.3496094,0.0410156,0.4921875,0.1230469
				s0.2529297,0.1992188,0.3300781,0.3505859c0.078125,0.1513672,0.1171875,0.3251953,0.1181641,0.5214844v0.1357422
				c0,0.2011719-0.0390625,0.3779297-0.1162109,0.5292969c-0.078125,0.1513672-0.1884766,0.2675781-0.3330078,0.3486328
				c-0.1435547,0.0810547-0.3115234,0.1220703-0.5029297,0.1240234H50.9014053z M51.1826553,81.0917969v1.6728516h0.2949219
				c0.2167969,0,0.3857422-0.0673828,0.5068359-0.2021484c0.1201172-0.1357422,0.1806641-0.3271484,0.1806641-0.5761719v-0.125
				c0-0.2421875-0.0566406-0.4306641-0.1708984-0.5654297c-0.1132813-0.1337891-0.2753906-0.2021484-0.4833984-0.2041016H51.1826553
				z"/>
		</g>
		<g>
			<path class="st9" d="M40.8066788,82.6210938l0.609375-1.7597656h0.3085938l-0.7910156,2.1328125h-0.25l-0.7890625-2.1328125
				H40.20121L40.8066788,82.6210938z"/>
			<path class="st9" d="M42.5381241,82.8027344c0.0966797,0,0.1806641-0.0292969,0.2529297-0.0878906
				s0.1123047-0.1318359,0.1210938-0.2197266h0.2558594c-0.0048828,0.0908203-0.0361328,0.1767578-0.09375,0.2587891
				s-0.1347656,0.1474609-0.2304688,0.1962891c-0.0966797,0.0488281-0.1982422,0.0732422-0.3056641,0.0732422
				c-0.2158203,0-0.3876953-0.0712891-0.5146484-0.2158203c-0.1279297-0.1435547-0.1914063-0.3408203-0.1914063-0.5908203
				v-0.0458984c0-0.1542969,0.0283203-0.2910156,0.0849609-0.4111328s0.1376953-0.2138672,0.2441406-0.2802734
				c0.1054688-0.0664063,0.2304688-0.0996094,0.3759766-0.0996094c0.1767578,0,0.3251953,0.0537109,0.4423828,0.1601563
				c0.1181641,0.1064453,0.1806641,0.2441406,0.1884766,0.4140625h-0.2558594
				c-0.0087891-0.1025391-0.046875-0.1865234-0.1171875-0.2529297c-0.0693359-0.0654297-0.15625-0.0986328-0.2578125-0.0986328
				c-0.1386719,0-0.2451172,0.0498047-0.3203125,0.1484375c-0.0761719,0.0996094-0.1132813,0.2431641-0.1132813,0.4306641v0.0507813
				c0,0.1826172,0.0371094,0.3232422,0.1123047,0.421875S42.3984756,82.8027344,42.5381241,82.8027344z"/>
			<path class="st9" d="M44.1084366,82.8027344c0.0966797,0,0.1806641-0.0292969,0.2529297-0.0878906
				s0.1123047-0.1318359,0.1210938-0.2197266h0.2558594c-0.0048828,0.0908203-0.0361328,0.1767578-0.09375,0.2587891
				s-0.1347656,0.1474609-0.2304688,0.1962891c-0.0966797,0.0488281-0.1982422,0.0732422-0.3056641,0.0732422
				c-0.2158203,0-0.3876953-0.0712891-0.5146484-0.2158203c-0.1279297-0.1435547-0.1914063-0.3408203-0.1914063-0.5908203
				v-0.0458984c0-0.1542969,0.0283203-0.2910156,0.0849609-0.4111328s0.1376953-0.2138672,0.2441406-0.2802734
				c0.1054688-0.0664063,0.2304688-0.0996094,0.3759766-0.0996094c0.1767578,0,0.3251953,0.0537109,0.4423828,0.1601563
				c0.1181641,0.1064453,0.1806641,0.2441406,0.1884766,0.4140625H44.48246
				c-0.0087891-0.1025391-0.046875-0.1865234-0.1171875-0.2529297c-0.0693359-0.0654297-0.15625-0.0986328-0.2578125-0.0986328
				c-0.1386719,0-0.2451172,0.0498047-0.3203125,0.1484375c-0.0761719,0.0996094-0.1132813,0.2431641-0.1132813,0.4306641v0.0507813
				c0,0.1826172,0.0371094,0.3232422,0.1123047,0.421875S43.9687881,82.8027344,44.1084366,82.8027344z"/>
		</g>
		<g>
			<path class="st9" d="M25.9346085,82.9941406v-2.1328125h0.6015625c0.1855469,0,0.3496094,0.0410156,0.4921875,0.1230469
				s0.2529297,0.1992188,0.3300781,0.3505859c0.078125,0.1513672,0.1171875,0.3251953,0.1181641,0.5214844v0.1357422
				c0,0.2011719-0.0390625,0.3779297-0.1162109,0.5292969c-0.078125,0.1513672-0.1884766,0.2675781-0.3330078,0.3486328
				c-0.1435547,0.0810547-0.3115234,0.1220703-0.5029297,0.1240234H25.9346085z M26.2158585,81.0917969v1.6728516h0.2949219
				c0.2167969,0,0.3857422-0.0673828,0.5068359-0.2021484c0.1201172-0.1357422,0.1806641-0.3271484,0.1806641-0.5761719v-0.125
				c0-0.2421875-0.0566406-0.4306641-0.1708984-0.5654297c-0.1132813-0.1337891-0.2753906-0.2021484-0.4833984-0.2041016H26.2158585
				z"/>
			<path class="st9" d="M28.2031631,82.9941406h-0.28125v-2.1328125h0.28125V82.9941406z"/>
			<path class="st9" d="M29.5000381,82.1318359h-0.5v0.8623047H28.716835v-2.1328125h0.7060547
				c0.2402344,0,0.4248047,0.0546875,0.5546875,0.1640625c0.1289063,0.109375,0.1943359,0.2685547,0.1943359,0.4775391
				c0,0.1328125-0.0361328,0.2490234-0.1083984,0.3476563c-0.0712891,0.0986328-0.171875,0.171875-0.2998047,0.2207031
				l0.5019531,0.9052734v0.0175781h-0.3027344L29.5000381,82.1318359z M29.0000381,81.9013672h0.4316406
				c0.1396484,0,0.2509766-0.0361328,0.3330078-0.1083984c0.0830078-0.0722656,0.1240234-0.1689453,0.1240234-0.2910156
				c0-0.1318359-0.0390625-0.2324219-0.1181641-0.3037109c-0.078125-0.0703125-0.1923828-0.1054688-0.3408203-0.1064453h-0.4296875
				V81.9013672z"/>
		</g>
		<g>
			<path class="st9" d="M32.4658585,82.0439453c-0.2412109-0.0693359-0.4169922-0.1552734-0.5263672-0.2558594
				c-0.1103516-0.1015625-0.1650391-0.2255859-0.1650391-0.3740234c0-0.1679688,0.0673828-0.3076172,0.2011719-0.4169922
				c0.1347656-0.1103516,0.3085938-0.1650391,0.5244141-0.1650391c0.1464844,0,0.2763672,0.0283203,0.3916016,0.0849609
				c0.1142578,0.0566406,0.203125,0.1347656,0.2666016,0.234375c0.0625,0.0996094,0.09375,0.2089844,0.09375,0.3271484h-0.2822266
				c0-0.1298828-0.0410156-0.2314453-0.1230469-0.3056641C32.7646866,81.0996094,32.6484756,81.0625,32.5000381,81.0625
				c-0.1396484,0-0.2470703,0.0302734-0.3251953,0.0917969c-0.0771484,0.0605469-0.1162109,0.1455078-0.1162109,0.2539063
				c0,0.0878906,0.0371094,0.1611328,0.1103516,0.2216797c0.0742188,0.0595703,0.1992188,0.1152344,0.3769531,0.1650391
				c0.1767578,0.0498047,0.3154297,0.1044922,0.4160156,0.1640625c0.0996094,0.0605469,0.1738281,0.1308594,0.2226563,0.2109375
				C33.23246,82.25,33.2568741,82.34375,33.2568741,82.4521484c0,0.1728516-0.0673828,0.3115234-0.2021484,0.4150391
				c-0.1347656,0.1044922-0.3144531,0.15625-0.5410156,0.15625c-0.1464844,0-0.2832031-0.0283203-0.4101563-0.0839844
				s-0.2246094-0.1328125-0.2929688-0.2304688C31.7412491,82.6113281,31.7070694,82.5,31.7070694,82.3759766h0.2832031
				c0,0.1289063,0.046875,0.2304688,0.1425781,0.3056641c0.0947266,0.0742188,0.2216797,0.1123047,0.3808594,0.1123047
				c0.1484375,0,0.2626953-0.0302734,0.3417969-0.0908203s0.1191406-0.1435547,0.1191406-0.2480469
				s-0.0371094-0.1855469-0.1103516-0.2421875C32.7910538,82.1552734,32.6582413,82.0996094,32.4658585,82.0439453z"/>
			<path class="st9" d="M35.0898819,81.0917969H34.404335v1.9023438h-0.2792969v-1.9023438h-0.6835938v-0.2304688h1.6484375
				V81.0917969z"/>
			<path class="st9" d="M36.6123428,82.0087891h-0.9238281v0.7558594h1.0732422v0.2294922h-1.3544922v-2.1328125h1.3398438
				v0.2304688h-1.0585938v0.6865234h0.9238281V82.0087891z"/>
			<path class="st9" d="M37.3935928,82.1591797v0.8349609h-0.28125v-2.1328125h0.7861328
				c0.2333984,0,0.4160156,0.0595703,0.5488281,0.1787109c0.1318359,0.1191406,0.1982422,0.2773438,0.1982422,0.4736328
				c0,0.2070313-0.0644531,0.3662109-0.1943359,0.4775391c-0.1289063,0.1123047-0.3144531,0.1679688-0.5556641,0.1679688H37.3935928
				z M37.3935928,81.9296875h0.5048828c0.1503906,0,0.265625-0.0361328,0.3457031-0.1064453
				c0.0800781-0.0712891,0.1201172-0.1738281,0.1201172-0.3076172c0-0.1269531-0.0400391-0.2285156-0.1201172-0.3056641
				c-0.0800781-0.0761719-0.1904297-0.1152344-0.3291016-0.1181641h-0.5214844V81.9296875z"/>
		</g>
		<g>
			<path class="st9" d="M56.270546,82.0244141h-0.9238281v0.7558594H56.41996v0.2304688h-1.3544922v-2.1328125h1.3398438v0.2294922
				h-1.0585938v0.6875h0.9238281V82.0244141z"/>
			<path class="st9" d="M58.4092178,83.0107422h-0.2832031l-1.0732422-1.6435547v1.6435547H56.770546v-2.1328125h0.2822266
				l1.0771484,1.6503906v-1.6503906h0.2792969V83.0107422z"/>
		</g>
	</g>
</g>
</svg>
