<?xml version="1.0" encoding="utf-8"?>
<!-- Generator: Adobe Illustrator 22.1.0, SVG Export Plug-In . SVG Version: 6.00 Build 0)  -->
<svg version="1.1" xmlns="http://www.w3.org/2000/svg" xmlns:xlink="http://www.w3.org/1999/xlink" x="0px" y="0px"
	 viewBox="0 0 85.0400009 85.0400009" style="enable-background:new 0 0 85.0400009 85.0400009;" xml:space="preserve">
<style type="text/css">
	.st0{fill:#19191A;}
	.st1{fill:#9E9B9C;}
	.st2{fill:#CDC7BC;}
	.st3{fill:#363331;}
	.st4{fill:#B5B4B3;}
	.st5{fill:#4C4C4C;}
	.st6{fill:#E39344;}
	.st7{fill:#313131;stroke:#0D0E0F;stroke-width:0.0111803;stroke-miterlimit:10;}
	.st8{fill:#E6E6E6;stroke:#0D0E0F;stroke-width:0.0111803;stroke-miterlimit:10;}
	.st9{fill:#FFFFFF;}
	.st10{fill:#4E8B5C;}
	.st11{opacity:0.5;fill:url(#SVGID_1_);}
	.st12{opacity:0.5;fill:url(#SVGID_2_);}
	.st13{fill:#B3B3B3;}
	.st14{fill:#CCCCCC;}
	.st15{opacity:0.5;fill:url(#SVGID_3_);}
	.st16{opacity:0.5;fill:url(#SVGID_4_);}
	.st17{fill:#666566;}
	.st18{fill:#EBAD4F;}
	.st19{display:none;}
	.st20{display:inline;fill:none;}
	.st21{display:inline;fill:#E39344;}
	.st22{opacity:0.5;fill:url(#SVGID_5_);}
	.st23{opacity:0.5;fill:url(#SVGID_6_);}
	.st24{display:none;fill:#D2D94E;stroke:#EFE94A;stroke-width:0.25;stroke-miterlimit:10;}
	.st25{fill:#5DAF61;}
	.st26{opacity:0.37;fill:none;stroke:#FFFFFF;stroke-width:0.5;stroke-miterlimit:10;}
	.st27{fill:none;stroke:#FFFFFF;stroke-width:0.5;stroke-miterlimit:10;}
	.st28{fill:#CEC7BD;}
	.st29{fill:#E5E4E0;}
	.st30{fill:#918C84;}
	.st31{fill:#151616;}
	.st32{fill:none;stroke:#F6F6F6;stroke-width:0.75;stroke-miterlimit:10;}
	.st33{fill:none;stroke:#FFFFFF;stroke-width:0.1865478;stroke-miterlimit:10;}
	.st34{fill:#FFFFFF;stroke:#0D0E0F;stroke-width:0.1301685;stroke-miterlimit:10;}
	.st35{fill:none;stroke:#FFFFFF;stroke-width:0.2148963;stroke-miterlimit:10;}
	.st36{fill:#0D0E0F;}
	.st37{fill:#E39344;stroke:#666566;stroke-width:0.0232234;stroke-miterlimit:10;}
	.st38{fill:#EBAD4F;stroke:#B3B3B3;stroke-width:0.0252307;stroke-miterlimit:10;}
	.st39{fill:none;stroke:#808080;stroke-width:0.0114155;stroke-miterlimit:10;}
</style>
<g id="Лицевая_сторона">
	<g>
		<path class="st0" d="M-0.000304-0.000304v85.039978h85.039978V-0.000304H-0.000304z M9.921998,79.5114746
			c-2.427917,0-4.3947139-1.9667969-4.3947139-4.3927002c0-2.4279175,1.9667969-4.3947144,4.3947139-4.3947144
			c2.4258423,0,4.3926392,1.9667969,4.3926392,4.3947144C14.3146372,77.5446777,12.3478403,79.5114746,9.921998,79.5114746z
			 M9.921998,14.3146372c-2.427917,0-4.3947139-1.9667969-4.3947139-4.3927002c0-2.427917,1.9667969-4.3947139,4.3947139-4.3947139
			c2.4258423,0,4.3926392,1.9667969,4.3926392,4.3947139C14.3146372,12.3478403,12.3478403,14.3146372,9.921998,14.3146372z
			 M75.1188354,79.5114746c-2.4279175,0-4.3947144-1.9667969-4.3947144-4.3927002
			c0-2.4279175,1.9667969-4.3947144,4.3947144-4.3947144c2.4258423,0,4.3926392,1.9667969,4.3926392,4.3947144
			C79.5114746,77.5446777,77.5446777,79.5114746,75.1188354,79.5114746z M75.1188354,14.3146372
			c-2.4279175,0-4.3947144-1.9667969-4.3947144-4.3927002c0-2.427917,1.9667969-4.3947139,4.3947144-4.3947139
			c2.4258423,0,4.3926392,1.9667969,4.3926392,4.3947139C79.5114746,12.3478403,77.5446777,14.3146372,75.1188354,14.3146372z"/>
		<path class="st1" d="M9.9209604,3.9454968c-3.2877803,0-5.9527588,2.6751711-5.9527588,5.9754639
			c0,3.3002319,2.6649783,5.9754028,5.9527588,5.9754028c3.2877197,0,5.9527588-2.6751709,5.9527588-5.9754028
			C15.8737192,6.6206679,13.2086802,3.9454968,9.9209604,3.9454968z M9.921998,14.3146372
			c-2.427917,0-4.3947139-1.9667969-4.3947139-4.3927002c0-2.427917,1.9667969-4.3947139,4.3947139-4.3947139
			c2.4258423,0,4.3926392,1.9667969,4.3926392,4.3947139C14.3146372,12.3478403,12.3478403,14.3146372,9.921998,14.3146372z"/>
		<path class="st1" d="M75.1178055,3.9454968c-3.2877808,0-5.9527588,2.6751711-5.9527588,5.9754639
			c0,3.3002319,2.664978,5.9754028,5.9527588,5.9754028c3.2877197,0,5.9527588-2.6751709,5.9527588-5.9754028
			C81.0705643,6.6206679,78.4055252,3.9454968,75.1178055,3.9454968z M75.1188431,14.3146372
			c-2.4279175,0-4.3947144-1.9667969-4.3947144-4.3927002c0-2.427917,1.9667969-4.3947139,4.3947144-4.3947139
			c2.4258423,0,4.3926392,1.9667969,4.3926392,4.3947139C79.5114822,12.3478403,77.5446854,14.3146372,75.1188431,14.3146372z"/>
		<path class="st1" d="M9.9209604,69.1423721c-3.2877803,0-5.9527588,2.6751709-5.9527588,5.9754639
			c0,3.3002319,2.6649783,5.9754028,5.9527588,5.9754028c3.2877197,0,5.9527588-2.6751709,5.9527588-5.9754028
			C15.8737192,71.817543,13.2086802,69.1423721,9.9209604,69.1423721z M9.921998,79.5115128
			c-2.427917,0-4.3947139-1.9667969-4.3947139-4.3927002c0-2.4279175,1.9667969-4.3947144,4.3947139-4.3947144
			c2.4258423,0,4.3926392,1.9667969,4.3926392,4.3947144C14.3146372,77.5447159,12.3478403,79.5115128,9.921998,79.5115128z"/>
		<path class="st1" d="M75.1178055,69.1423721c-3.2877808,0-5.9527588,2.6751709-5.9527588,5.9754639
			c0,3.3002319,2.664978,5.9754028,5.9527588,5.9754028c3.2877197,0,5.9527588-2.6751709,5.9527588-5.9754028
			C81.0705643,71.817543,78.4055252,69.1423721,75.1178055,69.1423721z M75.1188431,79.5115128
			c-2.4279175,0-4.3947144-1.9667969-4.3947144-4.3927002c0-2.4279175,1.9667969-4.3947144,4.3947144-4.3947144
			c2.4258423,0,4.3926392,1.9667969,4.3926392,4.3947144C79.5114822,77.5447159,77.5446854,79.5115128,75.1188431,79.5115128z"/>
	</g>
	<g>
		<g id="XMLID_33_">
			<g>
				<rect x="74.8412781" y="19.5204144" class="st2" width="4.255477" height="3.4376609"/>
			</g>
		</g>
		<g id="XMLID_32_">
			<g>
				<rect x="74.8819885" y="26.6488705" class="st2" width="4.255477" height="3.4376609"/>
			</g>
		</g>
		<g id="XMLID_31_">
			<g>
				<rect x="75.1793747" y="22.2539959" class="st3" width="3.6075966" height="5.1611581"/>
			</g>
		</g>
		<g>
			<path class="st4" d="M76.4375,24.3022461v-0.8710938h0.1816406c0.0507813,0.0605469,0.1035156,0.1210938,0.1552734,0.1821289
				c0.0517578,0.0605469,0.1025391,0.1171875,0.1542969,0.1694336c0.1074219,0.1108398,0.1923828,0.1865234,0.2558594,0.2275391
				s0.1308594,0.0615234,0.2041016,0.0615234c0.0664063,0,0.1191406-0.0219727,0.15625-0.0664063
				c0.0390625-0.0439453,0.0566406-0.1054688,0.0566406-0.1845703c0-0.0522461-0.0078125-0.1088867-0.0273438-0.1699219
				c-0.0175781-0.0610352-0.046875-0.1210938-0.0839844-0.1791992v-0.0087891h0.1816406
				c0.0195313,0.0410156,0.0380859,0.0957031,0.0546875,0.1640625c0.0175781,0.0683594,0.0253906,0.1342773,0.0253906,0.1982422
				c0,0.1318359-0.0322266,0.2353516-0.0957031,0.3105469c-0.0634766,0.074707-0.1503906,0.1123047-0.2587891,0.1123047
				c-0.0488281,0-0.0947266-0.0063477-0.1376953-0.0185547c-0.0410156-0.0126953-0.0820313-0.0307617-0.1201172-0.0551758
				c-0.0361328-0.0224609-0.0712891-0.0488281-0.1054688-0.0791016s-0.0732422-0.0668945-0.1142578-0.1098633
				c-0.0605469-0.0620117-0.1191406-0.1254883-0.1757813-0.1914063c-0.0566406-0.0654297-0.109375-0.1269531-0.1582031-0.184082
				v0.6923828H76.4375z"/>
			<path class="st4" d="M77.5322266,25.2539063L76.4375,24.6713867v-0.1850586l1.1367188,0.6201172v-0.7329102h0.1503906v0.8803711
				H77.5322266z"/>
			<path class="st4" d="M76.4375,26.1992188V25.328125h0.1816406c0.0507813,0.0605469,0.1035156,0.1210938,0.1552734,0.1821289
				c0.0517578,0.0605469,0.1025391,0.1171875,0.1542969,0.1694336c0.1074219,0.1108398,0.1923828,0.1865234,0.2558594,0.2275391
				s0.1308594,0.0615234,0.2041016,0.0615234c0.0664063,0,0.1191406-0.0219727,0.15625-0.0664063
				c0.0390625-0.0439453,0.0566406-0.1054688,0.0566406-0.1845703c0-0.0522461-0.0078125-0.1088867-0.0273438-0.1699219
				c-0.0175781-0.0610352-0.046875-0.1210938-0.0839844-0.1791992v-0.0087891h0.1816406
				c0.0195313,0.0410156,0.0380859,0.0957031,0.0546875,0.1640625c0.0175781,0.0683594,0.0253906,0.1342773,0.0253906,0.1982422
				c0,0.1318359-0.0322266,0.2353516-0.0957031,0.3105469c-0.0634766,0.074707-0.1503906,0.1123047-0.2587891,0.1123047
				c-0.0488281,0-0.0947266-0.0063477-0.1376953-0.0185547c-0.0410156-0.0126953-0.0820313-0.0307617-0.1201172-0.0551758
				c-0.0361328-0.0224609-0.0712891-0.0488281-0.1054688-0.0791016s-0.0732422-0.0668945-0.1142578-0.1098633
				c-0.0605469-0.0620117-0.1191406-0.1254883-0.1757813-0.1914063c-0.0566406-0.0654297-0.109375-0.1269531-0.1582031-0.184082
				v0.6923828H76.4375z"/>
		</g>
	</g>
	<g>
		<g id="XMLID_11_">
			<g>
				<rect x="41.8366356" y="40.4122238" class="st2" width="3.4376609" height="4.255477"/>
			</g>
		</g>
		<g id="XMLID_10_">
			<g>
				<rect x="48.9650917" y="40.3715096" class="st2" width="3.4376609" height="4.255477"/>
			</g>
		</g>
		<g id="XMLID_7_">
			<g>
				<rect x="44.5702171" y="40.7220001" class="st3" width="5.1611581" height="3.6075966"/>
			</g>
		</g>
		<g>
			<path class="st4" d="M46.2109375,43.0708008h-0.6972656v-0.1313477h0.2685547v-0.862793h-0.2685547v-0.1171875
				c0.0371094,0,0.0761719-0.003418,0.1171875-0.0092773s0.0722656-0.0146484,0.09375-0.0263672
				c0.0273438-0.0141602,0.0478516-0.0327148,0.0625-0.0546875c0.015625-0.0224609,0.0253906-0.0522461,0.0273438-0.0898438
				h0.1337891v1.1601563h0.2626953V43.0708008z"/>
			<path class="st4" d="M47.2304688,42.4267578c0,0.230957-0.0351563,0.4008789-0.1074219,0.5087891
				s-0.1855469,0.1621094-0.3378906,0.1621094c-0.1542969,0-0.2666016-0.0546875-0.3378906-0.1640625
				c-0.0712891-0.1098633-0.1064453-0.277832-0.1064453-0.5048828c0-0.2290039,0.0361328-0.3979492,0.1083984-0.5068359
				c0.0712891-0.109375,0.1835938-0.1640625,0.3359375-0.1640625c0.1542969,0,0.2675781,0.0556641,0.3388672,0.1665039
				S47.2304688,42.2026367,47.2304688,42.4267578z M47.0039063,42.8193359
				c0.0195313-0.046875,0.0332031-0.1015625,0.0410156-0.1645508c0.0068359-0.0634766,0.0097656-0.1391602,0.0097656-0.2280273
				c0-0.0874023-0.0029297-0.1635742-0.0097656-0.2280273c-0.0078125-0.0644531-0.0214844-0.1191406-0.0429688-0.1640625
				c-0.0195313-0.0444336-0.046875-0.078125-0.0820313-0.1005859s-0.0800781-0.0336914-0.1347656-0.0336914
				c-0.0537109,0-0.0986328,0.0112305-0.1337891,0.0336914c-0.0361328,0.0224609-0.0634766,0.0566406-0.0849609,0.1020508
				c-0.0195313,0.0424805-0.0322266,0.0981445-0.0390625,0.1669922c-0.0078125,0.0683594-0.0117188,0.1435547-0.0117188,0.2255859
				c0,0.0898438,0.0039063,0.1650391,0.0097656,0.2255859s0.0195313,0.1147461,0.0410156,0.1625977
				c0.0185547,0.0449219,0.0458984,0.0791016,0.0800781,0.1025391c0.0351563,0.0239258,0.0820313,0.0356445,0.1386719,0.0356445
				c0.0546875,0,0.0996094-0.0112305,0.1347656-0.0336914C46.9560547,42.8989258,46.984375,42.8647461,47.0039063,42.8193359z"/>
			<path class="st4" d="M48.1796875,42.4267578c0,0.230957-0.0361328,0.4008789-0.1083984,0.5087891
				s-0.1845703,0.1621094-0.3369141,0.1621094c-0.1542969,0-0.2675781-0.0546875-0.3378906-0.1640625
				c-0.0722656-0.1098633-0.1074219-0.277832-0.1074219-0.5048828c0-0.2290039,0.0361328-0.3979492,0.1083984-0.5068359
				c0.0712891-0.109375,0.1845703-0.1640625,0.3369141-0.1640625c0.1542969,0,0.2675781,0.0556641,0.3378906,0.1665039
				C48.1445313,42.0351563,48.1796875,42.2026367,48.1796875,42.4267578z M47.9521484,42.8193359
				c0.0205078-0.046875,0.0341797-0.1015625,0.0410156-0.1645508C48,42.5913086,48.0039063,42.515625,48.0039063,42.4267578
				c0-0.0874023-0.0039063-0.1635742-0.0107422-0.2280273s-0.0205078-0.1191406-0.0419922-0.1640625
				c-0.0195313-0.0444336-0.046875-0.078125-0.0820313-0.1005859s-0.0800781-0.0336914-0.1347656-0.0336914
				s-0.0996094,0.0112305-0.1347656,0.0336914s-0.0625,0.0566406-0.0839844,0.1020508
				c-0.0195313,0.0424805-0.0332031,0.0981445-0.0400391,0.1669922c-0.0068359,0.0683594-0.0107422,0.1435547-0.0107422,0.2255859
				c0,0.0898438,0.0029297,0.1650391,0.0097656,0.2255859c0.0058594,0.0605469,0.0195313,0.1147461,0.0410156,0.1625977
				c0.0175781,0.0449219,0.0449219,0.0791016,0.0800781,0.1025391c0.0351563,0.0239258,0.0810547,0.0356445,0.1386719,0.0356445
				c0.0546875,0,0.0996094-0.0112305,0.1347656-0.0336914S47.9326172,42.8647461,47.9521484,42.8193359z"/>
			<path class="st4" d="M49.1289063,43.0708008h-0.8710938v-0.1806641c0.0605469-0.0517578,0.1210938-0.1035156,0.1826172-0.1557617
				c0.0605469-0.0517578,0.1171875-0.1030273,0.1689453-0.1542969c0.1113281-0.1074219,0.1875-0.1923828,0.2285156-0.2558594
				c0.0410156-0.0629883,0.0605469-0.1308594,0.0605469-0.2041016c0-0.0668945-0.0214844-0.1191406-0.0664063-0.1567383
				c-0.0429688-0.0380859-0.1054688-0.0566406-0.1835938-0.0566406c-0.0527344,0-0.109375,0.0087891-0.1699219,0.0273438
				c-0.0615234,0.0185547-0.1210938,0.046875-0.1796875,0.0849609h-0.0087891v-0.1816406
				c0.0410156-0.0200195,0.0957031-0.0385742,0.1640625-0.0551758c0.0683594-0.0170898,0.1337891-0.0253906,0.1982422-0.0253906
				c0.1318359,0,0.2353516,0.0322266,0.3105469,0.0957031c0.0742188,0.0634766,0.1123047,0.1499023,0.1123047,0.2587891
				c0,0.0488281-0.0068359,0.0947266-0.0185547,0.137207c-0.0126953,0.0419922-0.03125,0.0825195-0.0546875,0.1206055
				c-0.0234375,0.0356445-0.0488281,0.0708008-0.0800781,0.1054688c-0.0292969,0.0341797-0.0664063,0.0727539-0.109375,0.1147461
				c-0.0625,0.0605469-0.125,0.1191406-0.1914063,0.1757813c-0.0654297,0.0566406-0.1269531,0.109375-0.1835938,0.1577148h0.6914063
				V43.0708008z"/>
		</g>
	</g>
	<g>
		<g id="XMLID_14_">
			<g>
				<rect x="41.8366356" y="34.5980606" class="st2" width="3.4376609" height="4.255477"/>
			</g>
		</g>
		<g id="XMLID_13_">
			<g>
				<rect x="48.9650917" y="34.5573463" class="st2" width="3.4376609" height="4.255477"/>
			</g>
		</g>
		<g id="XMLID_12_">
			<g>
				<rect x="44.5702171" y="34.9078369" class="st3" width="5.1611581" height="3.6075966"/>
			</g>
		</g>
		<g>
			<path class="st4" d="M46.2109375,37.2568359h-0.6972656v-0.1313477h0.2685547v-0.862793h-0.2685547v-0.1171875
				c0.0371094,0,0.0761719-0.003418,0.1171875-0.0092773s0.0722656-0.0146484,0.09375-0.0263672
				c0.0273438-0.0141602,0.0478516-0.0327148,0.0625-0.0546875c0.015625-0.0224609,0.0253906-0.0522461,0.0273438-0.0898438
				h0.1337891v1.1601563h0.2626953V37.2568359z"/>
			<path class="st4" d="M47.2304688,36.612793c0,0.230957-0.0351563,0.4008789-0.1074219,0.5087891
				s-0.1855469,0.1621094-0.3378906,0.1621094c-0.1542969,0-0.2666016-0.0546875-0.3378906-0.1640625
				c-0.0712891-0.1098633-0.1064453-0.277832-0.1064453-0.5048828c0-0.2290039,0.0361328-0.3979492,0.1083984-0.5068359
				c0.0712891-0.109375,0.1835938-0.1640625,0.3359375-0.1640625c0.1542969,0,0.2675781,0.0556641,0.3388672,0.1665039
				S47.2304688,36.3886719,47.2304688,36.612793z M47.0039063,37.0053711
				c0.0195313-0.046875,0.0332031-0.1015625,0.0410156-0.1645508c0.0068359-0.0634766,0.0097656-0.1391602,0.0097656-0.2280273
				c0-0.0874023-0.0029297-0.1635742-0.0097656-0.2280273c-0.0078125-0.0644531-0.0214844-0.1191406-0.0429688-0.1640625
				c-0.0195313-0.0444336-0.046875-0.078125-0.0820313-0.1005859s-0.0800781-0.0336914-0.1347656-0.0336914
				c-0.0537109,0-0.0986328,0.0112305-0.1337891,0.0336914c-0.0361328,0.0224609-0.0634766,0.0566406-0.0849609,0.1020508
				c-0.0195313,0.0424805-0.0322266,0.0981445-0.0390625,0.1669922c-0.0078125,0.0683594-0.0117188,0.1435547-0.0117188,0.2255859
				c0,0.0898438,0.0039063,0.1650391,0.0097656,0.2255859s0.0195313,0.1147461,0.0410156,0.1625977
				c0.0185547,0.0449219,0.0458984,0.0791016,0.0800781,0.1025391c0.0351563,0.0239258,0.0820313,0.0356445,0.1386719,0.0356445
				c0.0546875,0,0.0996094-0.0112305,0.1347656-0.0336914C46.9560547,37.0849609,46.984375,37.0507813,47.0039063,37.0053711z"/>
			<path class="st4" d="M48.1796875,36.612793c0,0.230957-0.0361328,0.4008789-0.1083984,0.5087891
				s-0.1845703,0.1621094-0.3369141,0.1621094c-0.1542969,0-0.2675781-0.0546875-0.3378906-0.1640625
				c-0.0722656-0.1098633-0.1074219-0.277832-0.1074219-0.5048828c0-0.2290039,0.0361328-0.3979492,0.1083984-0.5068359
				c0.0712891-0.109375,0.1845703-0.1640625,0.3369141-0.1640625c0.1542969,0,0.2675781,0.0556641,0.3378906,0.1665039
				C48.1445313,36.2211914,48.1796875,36.3886719,48.1796875,36.612793z M47.9521484,37.0053711
				c0.0205078-0.046875,0.0341797-0.1015625,0.0410156-0.1645508C48,36.7773438,48.0039063,36.7016602,48.0039063,36.612793
				c0-0.0874023-0.0039063-0.1635742-0.0107422-0.2280273s-0.0205078-0.1191406-0.0419922-0.1640625
				c-0.0195313-0.0444336-0.046875-0.078125-0.0820313-0.1005859s-0.0800781-0.0336914-0.1347656-0.0336914
				s-0.0996094,0.0112305-0.1347656,0.0336914s-0.0625,0.0566406-0.0839844,0.1020508
				c-0.0195313,0.0424805-0.0332031,0.0981445-0.0400391,0.1669922c-0.0068359,0.0683594-0.0107422,0.1435547-0.0107422,0.2255859
				c0,0.0898438,0.0029297,0.1650391,0.0097656,0.2255859c0.0058594,0.0605469,0.0195313,0.1147461,0.0410156,0.1625977
				c0.0175781,0.0449219,0.0449219,0.0791016,0.0800781,0.1025391c0.0351563,0.0239258,0.0810547,0.0356445,0.1386719,0.0356445
				c0.0546875,0,0.0996094-0.0112305,0.1347656-0.0336914S47.9326172,37.0507813,47.9521484,37.0053711z"/>
			<path class="st4" d="M49.1289063,37.2568359h-0.8710938v-0.1806641c0.0605469-0.0517578,0.1210938-0.1035156,0.1826172-0.1557617
				c0.0605469-0.0517578,0.1171875-0.1030273,0.1689453-0.1542969c0.1113281-0.1074219,0.1875-0.1923828,0.2285156-0.2558594
				c0.0410156-0.0629883,0.0605469-0.1308594,0.0605469-0.2041016c0-0.0668945-0.0214844-0.1191406-0.0664063-0.1567383
				c-0.0429688-0.0380859-0.1054688-0.0566406-0.1835938-0.0566406c-0.0527344,0-0.109375,0.0087891-0.1699219,0.0273438
				c-0.0615234,0.0185547-0.1210938,0.046875-0.1796875,0.0849609h-0.0087891v-0.1816406
				c0.0410156-0.0200195,0.0957031-0.0385742,0.1640625-0.0551758c0.0683594-0.0170898,0.1337891-0.0253906,0.1982422-0.0253906
				c0.1318359,0,0.2353516,0.0322266,0.3105469,0.0957031c0.0742188,0.0634766,0.1123047,0.1499023,0.1123047,0.2587891
				c0,0.0488281-0.0068359,0.0947266-0.0185547,0.137207c-0.0126953,0.0419922-0.03125,0.0825195-0.0546875,0.1206055
				c-0.0234375,0.0356445-0.0488281,0.0708008-0.0800781,0.1054688c-0.0292969,0.0341797-0.0664063,0.0727539-0.109375,0.1147461
				c-0.0625,0.0605469-0.125,0.1191406-0.1914063,0.1757813c-0.0654297,0.0566406-0.1269531,0.109375-0.1835938,0.1577148h0.6914063
				V37.2568359z"/>
		</g>
	</g>
	<g>
		<g id="XMLID_17_">
			<g>
				<rect x="41.8366356" y="46.2257576" class="st2" width="3.4376609" height="4.255477"/>
			</g>
		</g>
		<g id="XMLID_16_">
			<g>
				<rect x="48.9650917" y="46.1850433" class="st2" width="3.4376609" height="4.255477"/>
			</g>
		</g>
		<g id="XMLID_15_">
			<g>
				<rect x="44.5702171" y="46.5355339" class="st3" width="5.1611581" height="3.6075966"/>
			</g>
		</g>
		<g>
			<path class="st4" d="M46.2109375,48.8847656h-0.6972656v-0.1318359h0.2685547V47.890625h-0.2685547v-0.1171875
				c0.0371094,0,0.0761719-0.0039063,0.1171875-0.0097656s0.0722656-0.0146484,0.09375-0.0263672
				c0.0273438-0.0136719,0.0478516-0.0322266,0.0625-0.0546875c0.015625-0.0224609,0.0253906-0.0517578,0.0273438-0.0898438
				h0.1337891v1.1601563h0.2626953V48.8847656z"/>
			<path class="st4" d="M47.2304688,48.2402344c0,0.2314453-0.0351563,0.4013672-0.1074219,0.5087891
				c-0.0722656,0.1083984-0.1855469,0.1621094-0.3378906,0.1621094c-0.1542969,0-0.2666016-0.0546875-0.3378906-0.1640625
				s-0.1064453-0.2773438-0.1064453-0.5048828c0-0.2285156,0.0361328-0.3974609,0.1083984-0.5068359
				c0.0712891-0.109375,0.1835938-0.1640625,0.3359375-0.1640625c0.1542969,0,0.2675781,0.0556641,0.3388672,0.1669922
				C47.1953125,47.8486328,47.2304688,48.0166016,47.2304688,48.2402344z M47.0039063,48.6328125
				c0.0195313-0.046875,0.0332031-0.1015625,0.0410156-0.1640625c0.0068359-0.0634766,0.0097656-0.1396484,0.0097656-0.2285156
				c0-0.0869141-0.0029297-0.1630859-0.0097656-0.2275391c-0.0078125-0.0644531-0.0214844-0.1191406-0.0429688-0.1640625
				c-0.0195313-0.0449219-0.046875-0.078125-0.0820313-0.1005859s-0.0800781-0.0341797-0.1347656-0.0341797
				c-0.0537109,0-0.0986328,0.0117188-0.1337891,0.0341797c-0.0361328,0.0224609-0.0634766,0.0566406-0.0849609,0.1015625
				c-0.0195313,0.0429688-0.0322266,0.0986328-0.0390625,0.1669922c-0.0078125,0.0683594-0.0117188,0.1435547-0.0117188,0.2255859
				c0,0.0898438,0.0039063,0.1650391,0.0097656,0.2255859s0.0195313,0.1152344,0.0410156,0.1630859
				c0.0185547,0.0449219,0.0458984,0.0791016,0.0800781,0.1025391c0.0351563,0.0234375,0.0820313,0.0351563,0.1386719,0.0351563
				c0.0546875,0,0.0996094-0.0107422,0.1347656-0.0332031C46.9560547,48.7128906,46.984375,48.6787109,47.0039063,48.6328125z"/>
			<path class="st4" d="M48.1796875,48.2402344c0,0.2314453-0.0361328,0.4013672-0.1083984,0.5087891
				c-0.0722656,0.1083984-0.1845703,0.1621094-0.3369141,0.1621094c-0.1542969,0-0.2675781-0.0546875-0.3378906-0.1640625
				c-0.0722656-0.109375-0.1074219-0.2773438-0.1074219-0.5048828c0-0.2285156,0.0361328-0.3974609,0.1083984-0.5068359
				c0.0712891-0.109375,0.1845703-0.1640625,0.3369141-0.1640625c0.1542969,0,0.2675781,0.0556641,0.3378906,0.1669922
				C48.1445313,47.8486328,48.1796875,48.0166016,48.1796875,48.2402344z M47.9521484,48.6328125
				c0.0205078-0.046875,0.0341797-0.1015625,0.0410156-0.1640625C48,48.4052734,48.0039063,48.3291016,48.0039063,48.2402344
				c0-0.0869141-0.0039063-0.1630859-0.0107422-0.2275391s-0.0205078-0.1191406-0.0419922-0.1640625
				c-0.0195313-0.0449219-0.046875-0.078125-0.0820313-0.1005859s-0.0800781-0.0341797-0.1347656-0.0341797
				s-0.0996094,0.0117188-0.1347656,0.0341797s-0.0625,0.0566406-0.0839844,0.1015625
				c-0.0195313,0.0429688-0.0332031,0.0986328-0.0400391,0.1669922s-0.0107422,0.1435547-0.0107422,0.2255859
				c0,0.0898438,0.0029297,0.1650391,0.0097656,0.2255859c0.0058594,0.0605469,0.0195313,0.1152344,0.0410156,0.1630859
				c0.0175781,0.0449219,0.0449219,0.0791016,0.0800781,0.1025391s0.0810547,0.0351563,0.1386719,0.0351563
				c0.0546875,0,0.0996094-0.0107422,0.1347656-0.0332031S47.9326172,48.6787109,47.9521484,48.6328125z"/>
			<path class="st4" d="M49.1289063,48.8847656h-0.8710938v-0.1806641c0.0605469-0.0517578,0.1210938-0.1035156,0.1826172-0.15625
				c0.0605469-0.0517578,0.1171875-0.1025391,0.1689453-0.1542969c0.1113281-0.1074219,0.1875-0.1923828,0.2285156-0.2558594
				c0.0410156-0.0625,0.0605469-0.1308594,0.0605469-0.2041016c0-0.0664063-0.0214844-0.1191406-0.0664063-0.15625
				c-0.0429688-0.0380859-0.1054688-0.0566406-0.1835938-0.0566406c-0.0527344,0-0.109375,0.0087891-0.1699219,0.0273438
				c-0.0615234,0.0185547-0.1210938,0.046875-0.1796875,0.0849609h-0.0087891v-0.1816406
				c0.0410156-0.0205078,0.0957031-0.0390625,0.1640625-0.0556641s0.1337891-0.0253906,0.1982422-0.0253906
				c0.1318359,0,0.2353516,0.0322266,0.3105469,0.0957031c0.0742188,0.0634766,0.1123047,0.1503906,0.1123047,0.2587891
				c0,0.0488281-0.0068359,0.0947266-0.0185547,0.1376953c-0.0126953,0.0419922-0.03125,0.0820313-0.0546875,0.1201172
				c-0.0234375,0.0361328-0.0488281,0.0712891-0.0800781,0.1054688c-0.0292969,0.0341797-0.0664063,0.0732422-0.109375,0.1152344
				c-0.0625,0.0605469-0.125,0.1191406-0.1914063,0.1757813c-0.0654297,0.0566406-0.1269531,0.109375-0.1835938,0.1572266h0.6914063
				V48.8847656z"/>
		</g>
	</g>
	<g>
		<g id="XMLID_3_">
			<g>
				<rect x="74.8412781" y="54.9534836" class="st2" width="4.255477" height="3.4376609"/>
			</g>
		</g>
		<g id="XMLID_2_">
			<g>
				<rect x="74.8819885" y="62.0819397" class="st2" width="4.255477" height="3.4376609"/>
			</g>
		</g>
		<g id="XMLID_1_">
			<g>
				<rect x="75.1793747" y="57.6870689" class="st3" width="3.6075966" height="5.1611581"/>
			</g>
		</g>
		<g>
			<path class="st4" d="M76.4375,59.3271484v-0.6962891h0.1318359v0.2675781h0.8623047v-0.2675781h0.1171875
				c0,0.0351563,0.0039063,0.0742188,0.0097656,0.1162109s0.0146484,0.0732422,0.0263672,0.0947266
				c0.0146484,0.0253906,0.0322266,0.046875,0.0546875,0.0625s0.0517578,0.0234375,0.0898438,0.0253906v0.1347656h-1.1601563
				v0.2626953H76.4375z"/>
			<path class="st4" d="M77.0820313,60.3476563c-0.2304688,0-0.4003906-0.0371094-0.5087891-0.109375
				s-0.1621094-0.1835938-0.1621094-0.3359375c0-0.1542969,0.0546875-0.2675781,0.1640625-0.3388672
				c0.1103516-0.0712891,0.2783203-0.1064453,0.5048828-0.1064453c0.2285156,0,0.3984375,0.0351563,0.5068359,0.1074219
				c0.109375,0.0722656,0.1640625,0.1845703,0.1640625,0.3378906c0,0.1542969-0.0556641,0.2666016-0.1669922,0.3378906
				C77.4736328,60.3115234,77.3066406,60.3476563,77.0820313,60.3476563z M76.6894531,60.1191406
				c0.046875,0.0214844,0.1015625,0.0351563,0.1640625,0.0410156c0.0644531,0.0078125,0.1396484,0.0117188,0.2285156,0.0117188
				c0.0878906,0,0.1640625-0.0039063,0.2285156-0.0117188c0.0644531-0.0058594,0.1191406-0.0205078,0.1640625-0.0410156
				c0.0439453-0.0205078,0.078125-0.0478516,0.0996094-0.0830078c0.0234375-0.0341797,0.0341797-0.0791016,0.0341797-0.1337891
				s-0.0107422-0.0996094-0.0341797-0.1347656c-0.0214844-0.0351563-0.0566406-0.0634766-0.1015625-0.0839844
				c-0.0429688-0.0195313-0.0976563-0.0332031-0.1669922-0.0410156c-0.0683594-0.0068359-0.1435547-0.0097656-0.2255859-0.0097656
				c-0.0898438,0-0.1650391,0.0019531-0.2255859,0.0087891s-0.1142578,0.0205078-0.1630859,0.0410156
				c-0.0449219,0.0185547-0.078125,0.0458984-0.1015625,0.0810547c-0.0244141,0.0341797-0.0361328,0.0800781-0.0361328,0.1386719
				c0,0.0537109,0.0107422,0.0986328,0.0341797,0.1347656C76.609375,60.0722656,76.6445313,60.0996094,76.6894531,60.1191406z"/>
			<path class="st4" d="M77.0820313,61.2958984c-0.2304688,0-0.4003906-0.0361328-0.5087891-0.1083984
				s-0.1621094-0.1845703-0.1621094-0.3369141c0-0.1542969,0.0546875-0.2666016,0.1640625-0.3388672
				c0.1103516-0.0703125,0.2783203-0.1054688,0.5048828-0.1054688c0.2285156,0,0.3984375,0.0351563,0.5068359,0.1074219
				c0.109375,0.0722656,0.1640625,0.1835938,0.1640625,0.3369141c0,0.1542969-0.0556641,0.2666016-0.1669922,0.3388672
				C77.4736328,61.2597656,77.3066406,61.2958984,77.0820313,61.2958984z M76.6894531,61.0683594
				c0.046875,0.0205078,0.1015625,0.0341797,0.1640625,0.0410156c0.0644531,0.0078125,0.1396484,0.0107422,0.2285156,0.0107422
				c0.0878906,0,0.1640625-0.0029297,0.2285156-0.0107422c0.0644531-0.0068359,0.1191406-0.0214844,0.1640625-0.0419922
				c0.0439453-0.0205078,0.078125-0.0478516,0.0996094-0.0830078c0.0234375-0.0341797,0.0341797-0.0791016,0.0341797-0.1337891
				c0-0.0537109-0.0107422-0.0986328-0.0341797-0.1337891c-0.0214844-0.0361328-0.0566406-0.0644531-0.1015625-0.0849609
				c-0.0429688-0.0195313-0.0976563-0.0322266-0.1669922-0.0400391c-0.0683594-0.0078125-0.1435547-0.0107422-0.2255859-0.0107422
				c-0.0898438,0-0.1650391,0.0029297-0.2255859,0.0087891c-0.0605469,0.0068359-0.1142578,0.0205078-0.1630859,0.0410156
				c-0.0449219,0.0195313-0.078125,0.046875-0.1015625,0.0810547c-0.0244141,0.0341797-0.0361328,0.0810547-0.0361328,0.1386719
				c0,0.0537109,0.0107422,0.0986328,0.0341797,0.1347656C76.609375,61.0214844,76.6445313,61.0488281,76.6894531,61.0683594z"/>
			<path class="st4" d="M76.4375,62.2460938V61.375h0.1816406c0.0507813,0.0605469,0.1035156,0.1210938,0.1552734,0.1816406
				s0.1025391,0.1171875,0.1542969,0.1699219c0.1074219,0.1103516,0.1923828,0.1855469,0.2558594,0.2265625
				s0.1308594,0.0625,0.2041016,0.0625c0.0664063,0,0.1191406-0.0224609,0.15625-0.0664063
				c0.0390625-0.0449219,0.0566406-0.1054688,0.0566406-0.1855469c0-0.0517578-0.0078125-0.1083984-0.0273438-0.1699219
				c-0.0175781-0.0605469-0.046875-0.1210938-0.0839844-0.1787109V61.40625h0.1816406
				c0.0195313,0.0410156,0.0380859,0.0957031,0.0546875,0.1640625c0.0175781,0.0683594,0.0253906,0.1347656,0.0253906,0.1982422
				c0,0.1318359-0.0322266,0.2353516-0.0957031,0.3105469s-0.1503906,0.1123047-0.2587891,0.1123047
				c-0.0488281,0-0.0947266-0.0058594-0.1376953-0.0185547c-0.0410156-0.0126953-0.0820313-0.0302734-0.1201172-0.0556641
				c-0.0361328-0.0214844-0.0712891-0.0488281-0.1054688-0.078125C77,62.0078125,76.9609375,61.9716797,76.9199219,61.9287109
				c-0.0605469-0.0615234-0.1191406-0.1259766-0.1757813-0.1914063s-0.109375-0.1269531-0.1582031-0.1845703v0.6933594H76.4375z"/>
		</g>
	</g>
	<g>
		<g id="XMLID_6_">
			<g>
				<rect x="5.9026937" y="54.9534836" class="st2" width="4.255477" height="3.4376609"/>
			</g>
		</g>
		<g id="XMLID_5_">
			<g>
				<rect x="5.943408" y="62.0819397" class="st2" width="4.255477" height="3.4376609"/>
			</g>
		</g>
		<g id="XMLID_4_">
			<g>
				<rect x="6.2407956" y="57.6870689" class="st3" width="3.6075966" height="5.1611581"/>
			</g>
		</g>
		<g>
			<path class="st4" d="M7.4995117,59.3271484v-0.6962891h0.1313477v0.2675781h0.862793v-0.2675781h0.1171875
				c0,0.0351563,0.003418,0.0742188,0.0092773,0.1162109s0.0146484,0.0732422,0.0263672,0.0947266
				c0.0141602,0.0253906,0.0327148,0.046875,0.0546875,0.0625c0.0224609,0.015625,0.0522461,0.0234375,0.0898438,0.0253906
				v0.1347656H7.6308594v0.2626953H7.4995117z"/>
			<path class="st4" d="M8.1435547,60.3476563c-0.230957,0-0.4008789-0.0371094-0.5087891-0.109375
				s-0.1621094-0.1835938-0.1621094-0.3359375c0-0.1542969,0.0546875-0.2675781,0.1640625-0.3388672
				c0.1098633-0.0712891,0.277832-0.1064453,0.5048828-0.1064453c0.2290039,0,0.3979492,0.0351563,0.5068359,0.1074219
				C8.7578125,59.6367188,8.8125,59.7490234,8.8125,59.9023438c0,0.1542969-0.0556641,0.2666016-0.1665039,0.3378906
				S8.3676758,60.3476563,8.1435547,60.3476563z M7.7509766,60.1191406c0.046875,0.0214844,0.1015625,0.0351563,0.1645508,0.0410156
				c0.0634766,0.0078125,0.1391602,0.0117188,0.2280273,0.0117188c0.0874023,0,0.1635742-0.0039063,0.2280273-0.0117188
				c0.0644531-0.0058594,0.1191406-0.0205078,0.1640625-0.0410156c0.0444336-0.0205078,0.078125-0.0478516,0.1005859-0.0830078
				c0.0224609-0.0341797,0.0336914-0.0791016,0.0336914-0.1337891s-0.0112305-0.0996094-0.0336914-0.1347656
				s-0.0566406-0.0634766-0.1020508-0.0839844c-0.0424805-0.0195313-0.0981445-0.0332031-0.1669922-0.0410156
				c-0.0683594-0.0068359-0.1435547-0.0097656-0.2255859-0.0097656c-0.0898438,0-0.1650391,0.0019531-0.2255859,0.0087891
				s-0.1147461,0.0205078-0.1625977,0.0410156c-0.0449219,0.0185547-0.0791016,0.0458984-0.1025391,0.0810547
				c-0.0239258,0.0341797-0.0356445,0.0800781-0.0356445,0.1386719c0,0.0537109,0.0112305,0.0986328,0.0336914,0.1347656
				C7.6713867,60.0722656,7.7055664,60.0996094,7.7509766,60.1191406z"/>
			<path class="st4" d="M8.1435547,61.2958984c-0.230957,0-0.4008789-0.0361328-0.5087891-0.1083984
				s-0.1621094-0.1845703-0.1621094-0.3369141c0-0.1542969,0.0546875-0.2666016,0.1640625-0.3388672
				C7.746582,60.4414063,7.9145508,60.40625,8.1416016,60.40625c0.2290039,0,0.3979492,0.0351563,0.5068359,0.1074219
				C8.7578125,60.5859375,8.8125,60.6972656,8.8125,60.8505859c0,0.1542969-0.0556641,0.2666016-0.1665039,0.3388672
				C8.5351563,61.2597656,8.3676758,61.2958984,8.1435547,61.2958984z M7.7509766,61.0683594
				c0.046875,0.0205078,0.1015625,0.0341797,0.1645508,0.0410156c0.0634766,0.0078125,0.1391602,0.0107422,0.2280273,0.0107422
				c0.0874023,0,0.1635742-0.0029297,0.2280273-0.0107422c0.0644531-0.0068359,0.1191406-0.0214844,0.1640625-0.0419922
				c0.0444336-0.0205078,0.078125-0.0478516,0.1005859-0.0830078c0.0224609-0.0341797,0.0336914-0.0791016,0.0336914-0.1337891
				c0-0.0537109-0.0112305-0.0986328-0.0336914-0.1337891c-0.0224609-0.0361328-0.0566406-0.0644531-0.1020508-0.0849609
				c-0.0424805-0.0195313-0.0981445-0.0322266-0.1669922-0.0400391c-0.0683594-0.0078125-0.1435547-0.0107422-0.2255859-0.0107422
				c-0.0898438,0-0.1650391,0.0029297-0.2255859,0.0087891c-0.0605469,0.0068359-0.1147461,0.0205078-0.1625977,0.0410156
				c-0.0449219,0.0195313-0.0791016,0.046875-0.1025391,0.0810547c-0.0239258,0.0341797-0.0356445,0.0810547-0.0356445,0.1386719
				c0,0.0537109,0.0112305,0.0986328,0.0336914,0.1347656S7.7055664,61.0488281,7.7509766,61.0683594z"/>
			<path class="st4" d="M7.4995117,62.2460938V61.375h0.1806641c0.0517578,0.0605469,0.1035156,0.1210938,0.1557617,0.1816406
				c0.0517578,0.0605469,0.1030273,0.1171875,0.1542969,0.1699219c0.1074219,0.1103516,0.1923828,0.1855469,0.2558594,0.2265625
				c0.0629883,0.0410156,0.1308594,0.0625,0.2041016,0.0625c0.0668945,0,0.1191406-0.0224609,0.1567383-0.0664063
				c0.0380859-0.0449219,0.0566406-0.1054688,0.0566406-0.1855469c0-0.0517578-0.0087891-0.1083984-0.0273438-0.1699219
				c-0.0185547-0.0605469-0.046875-0.1210938-0.0849609-0.1787109V61.40625h0.1816406
				c0.0200195,0.0410156,0.0385742,0.0957031,0.0551758,0.1640625c0.0170898,0.0683594,0.0253906,0.1347656,0.0253906,0.1982422
				c0,0.1318359-0.0322266,0.2353516-0.0957031,0.3105469s-0.1499023,0.1123047-0.2587891,0.1123047
				c-0.0488281,0-0.0947266-0.0058594-0.137207-0.0185547c-0.0419922-0.0126953-0.0825195-0.0302734-0.1206055-0.0556641
				c-0.0356445-0.0214844-0.0708008-0.0488281-0.1054688-0.078125c-0.0341797-0.03125-0.0727539-0.0673828-0.1147461-0.1103516
				c-0.0605469-0.0615234-0.1191406-0.1259766-0.1757813-0.1914063s-0.109375-0.1269531-0.1577148-0.1845703v0.6933594H7.4995117z"
				/>
		</g>
	</g>
	<g>
		<g>
			<path class="st5" d="M74.9856339,50.0823936H60.4537354c-0.1749229,0-0.3167267-0.1418037-0.3167267-0.3167267V35.2337646
				c0-0.1749229,0.1418037-0.3167267,0.3167267-0.3167267h14.5318985c0.1749268,0,0.3167267,0.1418037,0.3167267,0.3167267
				V49.765667C75.3023605,49.9405899,75.1605606,50.0823936,74.9856339,50.0823936z"/>
		</g>
		<g>
			<g id="XMLID_36_">
				<g>
					<rect x="77.7118607" y="37.7838593" class="st1" width="2.4094493" height="1.7633294"/>
				</g>
			</g>
			<rect x="75.3023605" y="37.9564095" class="st6" width="4.6771655" height="1.4173229"/>
		</g>
		<g>
			<g id="XMLID_37_">
				<g>
					<rect x="77.7118607" y="41.6185036" class="st1" width="2.4094493" height="1.7633294"/>
				</g>
			</g>
			<rect x="75.3023605" y="41.7910538" class="st6" width="4.6771655" height="1.4173229"/>
		</g>
		<g>
			<g id="XMLID_38_">
				<g>
					<rect x="77.7118607" y="45.4531517" class="st1" width="2.4094493" height="1.7633294"/>
				</g>
			</g>
			<rect x="75.3023605" y="45.6257019" class="st6" width="4.6771655" height="1.4173229"/>
		</g>
		<g>
			<g id="XMLID_39_">
				<g>
					<rect x="55.318058" y="45.4522438" class="st1" width="2.4094493" height="1.7633294"/>
				</g>
			</g>
			
				<rect x="55.4598427" y="45.6257019" transform="matrix(-1 -1.224647e-16 1.224647e-16 -1 115.5968475 92.6687241)" class="st6" width="4.6771655" height="1.4173229"/>
		</g>
		<g>
			<g id="XMLID_35_">
				<g>
					<rect x="55.318058" y="41.6175995" class="st1" width="2.4094493" height="1.7633294"/>
				</g>
			</g>
			
				<rect x="55.4598427" y="41.7910538" transform="matrix(-1 -1.224647e-16 1.224647e-16 -1 115.5968475 84.9994354)" class="st6" width="4.6771655" height="1.4173229"/>
		</g>
		<g>
			<g id="XMLID_34_">
				<g>
					<rect x="55.318058" y="37.7829514" class="st1" width="2.4094493" height="1.7633294"/>
				</g>
			</g>
			
				<rect x="55.4598427" y="37.9564095" transform="matrix(-1 -1.224647e-16 1.224647e-16 -1 115.5968475 77.3301392)" class="st6" width="4.6771655" height="1.4173229"/>
		</g>
		<g>
			<rect x="63.4677162" y="37.2477455" class="st7" width="8.5039368" height="2.8346457"/>
			<rect x="65.9480286" y="37.2477455" class="st8" width="3.5433071" height="2.8346457"/>
			<rect x="65.9480286" y="37.2477455" class="st8" width="2.2677166" height="2.8346457"/>
		</g>
		<g>
			<rect x="63.4677162" y="41.0925369" class="st7" width="8.5039368" height="2.8346457"/>
			<rect x="65.9480286" y="41.0722504" class="st8" width="3.5433071" height="2.8346457"/>
			<rect x="65.9480286" y="41.0722504" class="st8" width="2.2677166" height="2.8346457"/>
		</g>
		<g>
			<rect x="63.4677162" y="44.9249954" class="st7" width="8.5039368" height="2.8346457"/>
			<rect x="65.9480286" y="44.9090843" class="st8" width="3.5433071" height="2.8346457"/>
			<rect x="65.9480286" y="44.9090843" class="st8" width="2.2677166" height="2.8346457"/>
		</g>
		<g>
			<path class="st9" d="M73.5263672,38.6044922c-0.6972656,0-1.0673828-0.4238281-1.0673828-0.9414063
				c0-0.5341797,0.4150391-0.9101563,1.0283203-0.9101563c0.6435547,0,1.0634766,0.3994141,1.0634766,0.9404297
				C74.5507813,38.2470703,74.1269531,38.6044922,73.5263672,38.6044922z M73.4931641,37.0322266
				c-0.4326172,0-0.8212891,0.234375-0.8212891,0.6464844c0,0.4150391,0.3828125,0.6494141,0.8417969,0.6494141
				c0.4033203,0,0.8242188-0.2109375,0.8242188-0.6464844C74.3378906,37.2490234,73.9375,37.0322266,73.4931641,37.0322266z"/>
			<path class="st9" d="M72.4921875,38.9404297h2.0253906v0.2851563L73.4931641,39.875
				c-0.2373047,0.1503906-0.4501953,0.2675781-0.6582031,0.3642578l0.0029297,0.0058594
				c0.2705078-0.0244141,0.5175781-0.0302734,0.8320313-0.0302734h0.8476563v0.2460938h-2.0253906v-0.2636719l1.0273438-0.6435547
				c0.2265625-0.1416016,0.4570313-0.2763672,0.6777344-0.3789063l-0.0039063-0.0087891
				c-0.2558594,0.0146484-0.4990234,0.0205078-0.8359375,0.0205078h-0.8652344V38.9404297z"/>
		</g>
		<g>
			<path class="st9" d="M62.4980469,38.6044922v-0.0058594l-0.1835938-0.3398438l0.2021484-0.0507813l0.2285156,0.4267578v0.2255859
				h-1.9541016v-0.2558594H62.4980469z"/>
		</g>
		<g>
			<path class="st9" d="M60.7910156,41.8862305h0.1621094l0.2011719,0.2070313
				c0.4755859,0.4990234,0.7285156,0.7246094,1.0224609,0.7275391c0.1982422,0,0.3818359-0.0966797,0.3818359-0.3876953
				c0-0.1777344-0.0898438-0.3251953-0.1660156-0.4150391l0.1875-0.0839844
				c0.1132813,0.1347656,0.1972656,0.3271484,0.1972656,0.5527344c0,0.4208984-0.2880859,0.5986328-0.5673828,0.5986328
				c-0.3603516,0-0.6523438-0.2617188-1.0498047-0.6738281l-0.1435547-0.15625h-0.0068359v0.8779297h-0.21875V41.8862305z"/>
		</g>
		<g>
			<path class="st9" d="M61.0947266,45.7714844c-0.0478516,0.0751953-0.1240234,0.25-0.1240234,0.4326172
				c0,0.3398438,0.2167969,0.4453125,0.3789063,0.4423828c0.2734375-0.0029297,0.390625-0.25,0.390625-0.5048828v-0.1474609
				h0.1992188v0.1474609c0,0.1923828,0.0996094,0.4355469,0.3300781,0.4355469c0.15625,0,0.2949219-0.0986328,0.2949219-0.3427734
				c0-0.15625-0.0683594-0.3066406-0.1289063-0.390625l0.1914063-0.0693359
				c0.0761719,0.1025391,0.1503906,0.3007813,0.1503906,0.5117188c0,0.3847656-0.2285156,0.5585938-0.4648438,0.5585938
				c-0.2011719,0-0.3730469-0.1201172-0.4609375-0.3603516h-0.0058594
				c-0.0478516,0.2402344-0.2285156,0.4355469-0.5019531,0.4355469c-0.3125,0-0.5859375-0.2431641-0.5859375-0.7128906
				c0-0.21875,0.0693359-0.4111328,0.1328125-0.5078125L61.0947266,45.7714844z"/>
		</g>
		<g>
			<path class="st9" d="M74.5175781,45.0117188v0.2617188h-0.9765625v0.0087891
				c0.078125,0.0537109,0.1503906,0.1083984,0.2167969,0.1591797l0.7597656,0.6191406v0.3251953l-0.859375-0.7333984
				l-1.1660156,0.7900391v-0.3095703l0.9951172-0.6669922l-0.2226563-0.1923828h-0.7724609v-0.2617188H74.5175781z"/>
			<path class="st9" d="M73.4414063,47.6865234v-0.7871094h-0.7304688v0.8779297h-0.21875v-1.1396484h2.0253906v1.09375h-0.21875
				v-0.8320313h-0.640625v0.7871094H73.4414063z"/>
		</g>
	</g>
	<g>
		<rect x="22.677166" y="-0.040006" class="st10" width="19.8425198" height="19.1338577"/>
		
			<linearGradient id="SVGID_1_" gradientUnits="userSpaceOnUse" x1="-11.2125597" y1="-96.7918777" x2="-11.2125597" y2="-100.9403076" gradientTransform="matrix(-1 0 0 -1 21.3858662 -96.8321838)">
			<stop  offset="0" style="stop-color:#FFFFFF;stop-opacity:0.5"/>
			<stop  offset="1" style="stop-color:#000000;stop-opacity:0.5"/>
		</linearGradient>
		<rect x="22.677166" y="-0.040158" class="st11" width="19.8425198" height="4.1482821"/>
		
			<linearGradient id="SVGID_2_" gradientUnits="userSpaceOnUse" x1="-11.2125597" y1="-111.7776031" x2="-11.2125597" y2="-115.9260406" gradientTransform="matrix(-1 0 0 -1 21.3858662 -96.8321838)">
			<stop  offset="0" style="stop-color:#FFFFFF;stop-opacity:0.5"/>
			<stop  offset="1" style="stop-color:#000000;stop-opacity:0.5"/>
		</linearGradient>
		<rect x="22.677166" y="14.94557" class="st12" width="19.8425198" height="4.1482821"/>
		<g id="XMLID_9_">
			<g>
				<path class="st13" d="M37.937912,12.897624c-0.1354027,0.0469332-0.2733803,0.0806026-0.4126434,0.1076412
					c-0.139267,0.0270376-0.2798195,0.0474443-0.4229469,0.0545874l-1.339035-6.8969307L35.762001,6.1562905
					c0.1354027-0.0469332,0.2733765-0.0806031,0.4126434-0.1076417c0.1392632-0.0270381,0.2798157-0.0474443,0.4229431-0.0545878
					l0.0012894,0.0066319L37.937912,12.897624z"/>
				<path class="st14" d="M37.937912,12.897624l-1.339035-6.8969312L36.5975876,5.994061
					c1.7641487-0.1291771,3.3816566,1.0776262,3.7280045,2.8615441
					C40.6706505,10.6328907,39.6222305,12.3572836,37.937912,12.897624z"/>
				<path class="st14" d="M35.7632866,6.1629219l1.339035,6.8969307c-1.7641449,0.1291771-3.3816566-1.0776262-3.7267151-2.8549118
					c-0.346344-1.7839184,0.7020721-3.5083098,2.3863945-4.0486503L35.7632866,6.1629219z"/>
			</g>
		</g>
		<g id="XMLID_8_">
			<g>
				<path class="st13" d="M29.4339752,12.897624c-0.1354027,0.0469332-0.2733803,0.0806026-0.4126453,0.1076412
					c-0.1392651,0.0270376-0.2798176,0.0474443-0.422945,0.0545874l-1.339035-6.8969307l-0.0012875-0.0066314
					c0.1354027-0.0469332,0.2733803-0.0806031,0.4126453-0.1076417c0.1392651-0.0270381,0.2798176-0.0474443,0.422945-0.0545878
					l0.0012875,0.0066319L29.4339752,12.897624z"/>
				<path class="st14" d="M29.4339752,12.897624l-1.339035-6.8969312L28.0936527,5.994061
					c1.7641468-0.1291771,3.3816547,1.0776262,3.7280025,2.8615441
					C32.1667137,10.6328907,31.1182938,12.3572836,29.4339752,12.897624z"/>
				<path class="st14" d="M27.2593498,6.1629219l1.339035,6.8969307c-1.7641449,0.1291771-3.3816547-1.0776262-3.7267151-2.8549118
					c-0.3463459-1.7839184,0.7020741-3.5083098,2.3863926-4.0486503L27.2593498,6.1629219z"/>
			</g>
		</g>
	</g>
	<g>
		<rect x="42.5196838" y="-0.040006" class="st10" width="19.8425198" height="19.1338577"/>
		
			<linearGradient id="SVGID_3_" gradientUnits="userSpaceOnUse" x1="-31.0550804" y1="-96.7918777" x2="-31.0550804" y2="-100.9403076" gradientTransform="matrix(-1 0 0 -1 21.3858662 -96.8321838)">
			<stop  offset="0" style="stop-color:#FFFFFF;stop-opacity:0.5"/>
			<stop  offset="1" style="stop-color:#000000;stop-opacity:0.5"/>
		</linearGradient>
		<rect x="42.5196838" y="-0.040158" class="st15" width="19.8425198" height="4.1482821"/>
		
			<linearGradient id="SVGID_4_" gradientUnits="userSpaceOnUse" x1="-31.0550804" y1="-111.7776031" x2="-31.0550804" y2="-115.9260406" gradientTransform="matrix(-1 0 0 -1 21.3858662 -96.8321838)">
			<stop  offset="0" style="stop-color:#FFFFFF;stop-opacity:0.5"/>
			<stop  offset="1" style="stop-color:#000000;stop-opacity:0.5"/>
		</linearGradient>
		<rect x="42.5196838" y="14.94557" class="st16" width="19.8425198" height="4.1482821"/>
		<g id="XMLID_19_">
			<g>
				<path class="st13" d="M57.7804337,12.897624c-0.1354027,0.0469332-0.2733803,0.0806026-0.4126472,0.1076412
					c-0.1392632,0.0270376-0.2798157,0.0474443-0.4229431,0.0545874l-1.339035-6.8969307l-0.0012894-0.0066314
					c0.1354027-0.0469332,0.2733803-0.0806031,0.4126434-0.1076417c0.139267-0.0270381,0.2798195-0.0474443,0.4229469-0.0545878
					l0.0012856,0.0066319L57.7804337,12.897624z"/>
				<path class="st14" d="M57.7804337,12.897624l-1.3390388-6.8969312L56.4401093,5.994061
					c1.7641449-0.1291771,3.3816566,1.0776262,3.7280006,2.8615441
					C60.5131721,10.6328907,59.4647522,12.3572836,57.7804337,12.897624z"/>
				<path class="st14" d="M55.6058083,6.1629219l1.339035,6.8969307c-1.7641487,0.1291771-3.3816566-1.0776262-3.7267151-2.8549118
					c-0.3463478-1.7839184,0.7020721-3.5083098,2.3863907-4.0486503L55.6058083,6.1629219z"/>
			</g>
		</g>
		<g id="XMLID_18_">
			<g>
				<path class="st13" d="M49.2764931,12.897624c-0.1353989,0.0469332-0.2733765,0.0806026-0.4126434,0.1076412
					c-0.1392632,0.0270376-0.2798157,0.0474443-0.4229431,0.0545874l-1.339035-6.8969307l-0.0012894-0.0066314
					c0.1354027-0.0469332,0.2733803-0.0806031,0.4126434-0.1076417c0.139267-0.0270381,0.2798195-0.0474443,0.4229469-0.0545878
					l0.0012856,0.0066319L49.2764931,12.897624z"/>
				<path class="st14" d="M49.2764931,12.897624l-1.339035-6.8969312L47.9361725,5.994061
					c1.7641449-0.1291771,3.3816566,1.0776262,3.7280006,2.8615441
					C52.0092316,10.6328907,50.9608154,12.3572836,49.2764931,12.897624z"/>
				<path class="st14" d="M47.1018715,6.1629219l1.339035,6.8969307c-1.7641487,0.1291771-3.3816566-1.0776262-3.7267151-2.8549118
					c-0.3463478-1.7839184,0.7020721-3.5083098,2.3863907-4.0486503L47.1018715,6.1629219z"/>
			</g>
		</g>
	</g>
	<g id="Колодка_8-13">
		<g>
			<rect x="14.7197266" y="57.6367188" class="st5" width="5.2001953" height="5.2001953"/>
			<path class="st17" d="M18.9196854,58.6365356v3.1999969h-3.2000008v-3.1999969H18.9196854 M20.9196854,56.6365356h-7.2000008
				v7.1999969h7.2000008V56.6365356L20.9196854,56.6365356z"/>
		</g>
		<g>
			<rect x="21.9199219" y="57.6367188" class="st5" width="5.199707" height="5.2001953"/>
			<path class="st17" d="M26.1196842,58.6365356v3.1999969h-3.2000008v-3.1999969H26.1196842 M28.1196842,56.6365356h-7.2000008
				v7.1999969h7.2000008V56.6365356L28.1196842,56.6365356z"/>
		</g>
		<g>
			<rect x="29.1196289" y="57.6367188" class="st5" width="5.2001953" height="5.2001953"/>
			<path class="st17" d="M33.3196831,58.6365356v3.1999969h-3.1999989v-3.1999969H33.3196831 M35.3196831,56.6365356h-7.1999989
				v7.1999969h7.1999989V56.6365356L35.3196831,56.6365356z"/>
		</g>
		<g>
			<rect x="36.3198242" y="57.6367188" class="st5" width="5.199707" height="5.2001953"/>
			<path class="st17" d="M40.5196838,58.6365356v3.1999969h-3.1999969v-3.1999969H40.5196838 M42.5196838,56.6365356h-7.1999969
				v7.1999969h7.1999969V56.6365356L42.5196838,56.6365356z"/>
		</g>
		<g>
			<rect x="43.5195313" y="57.6367188" class="st5" width="5.2001953" height="5.2001953"/>
			<path class="st17" d="M47.7196808,58.6365356v3.1999969h-3.1999969v-3.1999969H47.7196808 M49.7196808,56.6365356h-7.1999969
				v7.1999969h7.1999969V56.6365356L49.7196808,56.6365356z"/>
		</g>
		<g>
			<rect x="50.7197266" y="57.6367188" class="st5" width="5.2001953" height="5.2001953"/>
			<path class="st17" d="M54.9196854,58.6365356v3.1999969h-3.1999969v-3.1999969H54.9196854 M56.9196854,56.6365356h-7.1999969
				v7.1999969h7.1999969V56.6365356L56.9196854,56.6365356z"/>
		</g>
		<g>
			<rect x="57.9199219" y="57.6367188" class="st5" width="5.2001953" height="5.2001953"/>
			<path class="st17" d="M62.1196823,58.6365356v3.1999969h-3.1999969v-3.1999969H62.1196823 M64.1196823,56.6365356h-7.1999969
				v7.1999969h7.1999969V56.6365356L64.1196823,56.6365356z"/>
		</g>
		<g>
			<rect x="65.1201172" y="57.6367188" class="st5" width="5.1992188" height="5.2001953"/>
			<path class="st17" d="M69.3196945,58.6365356v3.1999969h-3.2000122v-3.1999969H69.3196945 M71.3196945,56.6365356h-7.2000122
				v7.1999969h7.2000122V56.6365356L71.3196945,56.6365356z"/>
		</g>
		<g>
			<rect x="14.7197266" y="22.2036133" class="st5" width="5.2001953" height="5.199707"/>
			<path class="st17" d="M18.9196854,23.2034645v3.2000008h-3.2000008v-3.2000008H18.9196854 M20.9196854,21.2034645h-7.2000008
				v7.2000008h7.2000008V21.2034645L20.9196854,21.2034645z"/>
		</g>
		<g>
			<rect x="21.9199219" y="22.2036133" class="st5" width="5.199707" height="5.199707"/>
			<path class="st17" d="M26.1196842,23.2034645v3.2000008h-3.2000008v-3.2000008H26.1196842 M28.1196842,21.2034645h-7.2000008
				v7.2000008h7.2000008V21.2034645L28.1196842,21.2034645z"/>
		</g>
		<g>
			<rect x="29.1196289" y="22.2036133" class="st5" width="5.2001953" height="5.199707"/>
			<path class="st17" d="M33.3196831,23.2034645v3.2000008h-3.1999989v-3.2000008H33.3196831 M35.3196831,21.2034645h-7.1999989
				v7.2000008h7.1999989V21.2034645L35.3196831,21.2034645z"/>
		</g>
		<g>
			<rect x="36.3198242" y="22.2036133" class="st5" width="5.199707" height="5.199707"/>
			<path class="st17" d="M40.5196838,23.2034645v3.2000008h-3.1999969v-3.2000008H40.5196838 M42.5196838,21.2034645h-7.1999969
				v7.2000008h7.1999969V21.2034645L42.5196838,21.2034645z"/>
		</g>
		<g>
			<rect x="43.5195313" y="22.2036133" class="st5" width="5.2001953" height="5.199707"/>
			<path class="st17" d="M47.7196808,23.2034645v3.2000008h-3.1999969v-3.2000008H47.7196808 M49.7196808,21.2034645h-7.1999969
				v7.2000008h7.1999969V21.2034645L49.7196808,21.2034645z"/>
		</g>
		<g>
			<rect x="50.7197266" y="22.2036133" class="st5" width="5.2001953" height="5.199707"/>
			<path class="st17" d="M54.9196854,23.2034645v3.2000008h-3.1999969v-3.2000008H54.9196854 M56.9196854,21.2034645h-7.1999969
				v7.2000008h7.1999969V21.2034645L56.9196854,21.2034645z"/>
		</g>
		<g>
			<rect x="57.9199219" y="22.2036133" class="st5" width="5.2001953" height="5.199707"/>
			<path class="st17" d="M62.1196823,23.2034645v3.2000008h-3.1999969v-3.2000008H62.1196823 M64.1196823,21.2034645h-7.1999969
				v7.2000008h7.1999969V21.2034645L64.1196823,21.2034645z"/>
		</g>
		<g>
			<rect x="65.1201172" y="22.2036133" class="st5" width="5.1992188" height="5.199707"/>
			<path class="st17" d="M69.3196945,23.2034645v3.2000008h-3.2000122v-3.2000008H69.3196945 M71.3196945,21.2034645h-7.2000122
				v7.2000008h7.2000122V21.2034645L71.3196945,21.2034645z"/>
		</g>
	</g>
	<g id="сглаживающий_конденсатор_1_">
		<rect x="22.27244" y="31.8897629" class="st2" width="12.0472441" height="5.6321421"/>
		<rect x="22.27244" y="47.5174637" class="st2" width="12.0472441" height="5.6321421"/>
		<rect x="22.27244" y="34.7058334" class="st18" width="12.0472441" height="15.6276999"/>
		<rect x="22.27244" y="47.7586327" class="st6" width="12.0472441" height="2.5749037"/>
		<g class="st19">
			<rect x="26.7930946" y="36.4059181" class="st20" width="3.0512609" height="9.2118073"/>
			<path class="st21" d="M29.1879883,43.9726563v1.4599609H28.980957l-0.8725586-0.7714844
				c-0.1318359-0.1142578-0.2392578-0.1923828-0.3217773-0.2363281c-0.0825195-0.0429688-0.1679688-0.0644531-0.2563477-0.0644531
				c-0.1181641,0-0.215332,0.0351563-0.2915039,0.1054688c-0.0756836,0.0703125-0.1132813,0.1640625-0.1132813,0.28125
				c0,0.140625,0.0405273,0.25,0.1220703,0.328125s0.1948242,0.1171875,0.340332,0.1171875v0.2832031
				c-0.2084961,0-0.3774414-0.0654297-0.5063477-0.1982422c-0.1289063-0.1318359-0.1928711-0.3085938-0.1928711-0.5302734
				c0-0.2070313,0.0551758-0.3710938,0.1655273-0.4912109c0.1108398-0.1201172,0.2578125-0.1806641,0.4418945-0.1806641
				c0.2231445,0,0.4892578,0.1396484,0.7978516,0.4199219l0.6586914,0.5966797v-1.1191406H29.1879883z"/>
			<path class="st21" d="M29.1879883,42.1660156v1.4599609H28.980957l-0.8725586-0.7714844
				c-0.1318359-0.1142578-0.2392578-0.1923828-0.3217773-0.2363281c-0.0825195-0.0429688-0.1679688-0.0644531-0.2563477-0.0644531
				c-0.1181641,0-0.215332,0.0351563-0.2915039,0.1054688c-0.0756836,0.0703125-0.1132813,0.1640625-0.1132813,0.28125
				c0,0.140625,0.0405273,0.25,0.1220703,0.328125s0.1948242,0.1171875,0.340332,0.1171875v0.2832031
				c-0.2084961,0-0.3774414-0.0654297-0.5063477-0.1982422c-0.1289063-0.1318359-0.1928711-0.3085938-0.1928711-0.5302734
				c0-0.2070313,0.0551758-0.3710938,0.1655273-0.4912109c0.1108398-0.1201172,0.2578125-0.1806641,0.4418945-0.1806641
				c0.2231445,0,0.4892578,0.1396484,0.7978516,0.4199219l0.6586914,0.5966797v-1.1191406H29.1879883z"/>
			<path class="st21" d="M26.9179688,40.7089844h0.2446289v0.0517578c0.0043945,0.2207031,0.0708008,0.3955078,0.199707,0.5263672
				c0.128418,0.1308594,0.3095703,0.2060547,0.543457,0.2265625c-0.137207-0.1171875-0.2055664-0.2773438-0.2055664-0.4804688
				c0-0.1943359,0.0693359-0.3486328,0.2084961-0.4648438c0.1396484-0.1152344,0.3193359-0.1738281,0.5390625-0.1738281
				c0.2338867,0,0.4208984,0.0625,0.5610352,0.1875s0.2104492,0.2929688,0.2104492,0.5029297
				c0,0.2128906-0.0834961,0.3867188-0.25,0.5185547c-0.1669922,0.1328125-0.3813477,0.1992188-0.6445313,0.1992188h-0.1103516
				c-0.4174805,0-0.7368164-0.0869141-0.9575195-0.2626953c-0.2207031-0.1748047-0.3334961-0.4355469-0.3388672-0.78125V40.7089844z
				 M27.9399414,41.0800781c0,0.0976563,0.0297852,0.1865234,0.0888672,0.2685547
				c0.059082,0.0810547,0.1333008,0.1376953,0.2226563,0.1699219h0.105957c0.1870117,0,0.3378906-0.0419922,0.4521484-0.1240234
				c0.1142578-0.0830078,0.1713867-0.1855469,0.1713867-0.3095703c0-0.1269531-0.0478516-0.2275391-0.1435547-0.3007813
				s-0.2207031-0.109375-0.3754883-0.109375c-0.1557617,0-0.2817383,0.0371094-0.3779297,0.1113281
				C27.9882813,40.859375,27.9399414,40.9580078,27.9399414,41.0800781z"/>
			<path class="st21" d="M28.4682617,37.4765625c0.2397461,0.027832,0.4248047,0.1147461,0.5551758,0.2612305
				s0.1958008,0.3408203,0.1958008,0.5839844c0,0.2631836-0.0961914,0.4741211-0.2880859,0.6328125
				c-0.1923828,0.1586914-0.4492188,0.237793-0.7714844,0.237793h-0.2182617c-0.2104492,0-0.3959961-0.0371094-0.5561523-0.1108398
				c-0.159668-0.0742188-0.2827148-0.1787109-0.3681641-0.3144531c-0.0859375-0.1357422-0.128418-0.2929688-0.128418-0.4716797
				c0-0.2368164,0.0668945-0.4262695,0.2016602-0.5693359c0.1342773-0.1425781,0.3208008-0.2260742,0.5585938-0.2495117v0.2954102
				c-0.1816406,0.0258789-0.3125,0.0810547-0.394043,0.1660156c-0.0810547,0.0854492-0.121582,0.2045898-0.121582,0.3574219
				c0,0.1879883,0.0703125,0.3349609,0.2119141,0.4418945c0.1411133,0.1064453,0.3422852,0.159668,0.6035156,0.159668h0.2197266
				c0.2460938,0,0.4423828-0.050293,0.5878906-0.1513672s0.2182617-0.2426758,0.2182617-0.4238281
				c0-0.1635742-0.0375977-0.2885742-0.112793-0.3759766c-0.0756836-0.0874023-0.206543-0.1450195-0.3935547-0.1738281V37.4765625z"
				/>
		</g>
	</g>
	<g>
		<g>
			
				<rect x="-0.3540267" y="32.9530716" transform="matrix(6.123234e-17 -1 1 6.123234e-17 -32.9527664 52.0872345)" class="st10" width="19.8425198" height="19.1338577"/>
			
				<linearGradient id="SVGID_5_" gradientUnits="userSpaceOnUse" x1="104.2234955" y1="-107.2806244" x2="104.2234955" y2="-111.4290619" gradientTransform="matrix(0 1 -1 0 -107.2806244 -61.7034988)">
				<stop  offset="0" style="stop-color:#FFFFFF;stop-opacity:0.5"/>
				<stop  offset="1" style="stop-color:#000000;stop-opacity:0.5"/>
			</linearGradient>
			<rect x="0.000152" y="32.5987396" class="st22" width="4.1482821" height="19.8425198"/>
			
				<linearGradient id="SVGID_6_" gradientUnits="userSpaceOnUse" x1="104.2234955" y1="-122.2663498" x2="104.2234955" y2="-126.4147873" gradientTransform="matrix(0 1 -1 0 -107.2806244 -61.7034988)">
				<stop  offset="0" style="stop-color:#FFFFFF;stop-opacity:0.5"/>
				<stop  offset="1" style="stop-color:#000000;stop-opacity:0.5"/>
			</linearGradient>
			<rect x="14.9858799" y="32.5987396" class="st23" width="4.1482821" height="19.8425198"/>
			<g id="XMLID_21_">
				<g>
					<path class="st13" d="M12.9379339,37.1805115c0.0469332,0.1354027,0.0806026,0.2733803,0.1076412,0.4126472
						c0.0270376,0.1392632,0.0474443,0.2798157,0.0545874,0.4229431l-6.8969307,1.339035l-0.0066314,0.0012894
						c-0.0469332-0.1354027-0.0806031-0.2733803-0.1076412-0.4126472c-0.0270386-0.1392632-0.0474448-0.2798157-0.0545883-0.4229431
						l0.0066319-0.0012894L12.9379339,37.1805115z"/>
					<path class="st14" d="M12.9379339,37.1805115l-6.8969312,1.339035l-0.0066319,0.0012894
						c-0.1291771-1.7641449,1.0776267-3.3816566,2.8615441-3.7280006
						C10.6732016,34.447773,12.3975935,35.4961929,12.9379339,37.1805115z"/>
					<path class="st14" d="M6.2032318,39.3551369l6.8969307-1.339035c0.129178,1.7641487-1.0776262,3.3816566-2.8549118,3.7267151
						c-1.7839174,0.3463478-3.5083098-0.7020721-4.0486503-2.3863907L6.2032318,39.3551369z"/>
				</g>
			</g>
			<g id="XMLID_20_">
				<g>
					<path class="st13" d="M12.9379339,45.6844482c0.0469332,0.1354027,0.0806026,0.2733803,0.1076412,0.4126472
						c0.0270376,0.1392632,0.0474443,0.2798157,0.0545874,0.4229431l-6.8969307,1.339035L6.1966004,47.860363
						c-0.0469332-0.1354027-0.0806031-0.2733803-0.1076412-0.4126434c-0.0270386-0.139267-0.0474448-0.2798195-0.0545883-0.4229469
						l0.0066319-0.0012856L12.9379339,45.6844482z"/>
					<path class="st14" d="M12.9379339,45.6844482l-6.8969312,1.3390388l-0.0066319,0.0012856
						C5.9051938,45.2606277,7.1119976,43.643116,8.895915,43.296772
						C10.6732016,42.9517097,12.3975935,44.0001297,12.9379339,45.6844482z"/>
					<path class="st14" d="M6.2032318,47.8590736l6.8969307-1.339035c0.129178,1.7641487-1.0776262,3.3816566-2.8549118,3.7267151
						c-1.7839174,0.3463478-3.5083098-0.7020721-4.0486503-2.3863907L6.2032318,47.8590736z"/>
				</g>
			</g>
		</g>
		<g>
			<path class="st9" d="M2.2993164,27.6704102v1.6459961h1.5830078v0.4204102H2.2993164v1.659668H1.8510742v-1.659668H0.2685547
				v-0.4204102h1.5825195v-1.6459961H2.2993164z"/>
		</g>
		<g>
			<path class="st9" d="M1.9238281,54.0332031h0.3500977v3.5019531H1.9238281V54.0332031z"/>
		</g>
	</g>
	<g>
		<g>
			<path class="st9" d="M54.6337891,31.4941406l0.9140625-2.6386719h0.4609375l-1.1865234,3.1992188h-0.3730469
				l-1.1845703-3.1992188h0.4589844L54.6337891,31.4941406z"/>
			<path class="st9" d="M58.7626953,31.0395508c-0.0390625,0.3383789-0.1640625,0.5996094-0.375,0.7832031
				c-0.2099609,0.184082-0.4892578,0.2758789-0.8378906,0.2758789c-0.3779297,0-0.6806641-0.1352539-0.9082031-0.40625
				c-0.2285156-0.2709961-0.3417969-0.6337891-0.3417969-1.0878906V30.296875c0-0.2973633,0.0527344-0.5585938,0.1591797-0.7841797
				s0.2568359-0.3989258,0.4511719-0.5200195c0.1953125-0.1206055,0.4208984-0.1811523,0.6767578-0.1811523
				c0.3398438,0,0.6123047,0.0947266,0.8173828,0.284668c0.2050781,0.1894531,0.3242188,0.4521484,0.3583984,0.7875977h-0.4238281
				c-0.0371094-0.2558594-0.1162109-0.440918-0.2382813-0.5551758c-0.1230469-0.1147461-0.2939453-0.1723633-0.5136719-0.1723633
				c-0.2695313,0-0.4804688,0.1000977-0.6337891,0.2993164s-0.2294922,0.4829102-0.2294922,0.8510742v0.3100586
				c0,0.3476563,0.0722656,0.6240234,0.2177734,0.8291016c0.1445313,0.2050781,0.3476563,0.3081055,0.6083984,0.3081055
				c0.234375,0,0.4140625-0.0532227,0.5390625-0.159668c0.1259766-0.105957,0.2089844-0.2910156,0.25-0.5546875H58.7626953z"/>
			<path class="st9" d="M61.6914063,31.0395508c-0.0390625,0.3383789-0.1640625,0.5996094-0.375,0.7832031
				c-0.2099609,0.184082-0.4892578,0.2758789-0.8378906,0.2758789c-0.3779297,0-0.6806641-0.1352539-0.9082031-0.40625
				c-0.2285156-0.2709961-0.3417969-0.6337891-0.3417969-1.0878906V30.296875c0-0.2973633,0.0527344-0.5585938,0.1591797-0.7841797
				s0.2568359-0.3989258,0.4511719-0.5200195c0.1953125-0.1206055,0.4208984-0.1811523,0.6767578-0.1811523
				c0.3398438,0,0.6123047,0.0947266,0.8173828,0.284668c0.2050781,0.1894531,0.3242188,0.4521484,0.3583984,0.7875977h-0.4238281
				c-0.0371094-0.2558594-0.1162109-0.440918-0.2382813-0.5551758C60.90625,29.2138672,60.7353516,29.15625,60.515625,29.15625
				c-0.2695313,0-0.4804688,0.1000977-0.6337891,0.2993164s-0.2294922,0.4829102-0.2294922,0.8510742v0.3100586
				c0,0.3476563,0.0722656,0.6240234,0.2177734,0.8291016c0.1445313,0.2050781,0.3476563,0.3081055,0.6083984,0.3081055
				c0.234375,0,0.4140625-0.0532227,0.5390625-0.159668c0.1259766-0.105957,0.2089844-0.2910156,0.25-0.5546875H61.6914063z"/>
			<path class="st9" d="M65.7431641,31.6347656c-0.1083984,0.1557617-0.2597656,0.2714844-0.4541016,0.3486328
				c-0.1933594,0.0766602-0.4199219,0.1152344-0.6777344,0.1152344c-0.2607422,0-0.4921875-0.0610352-0.6943359-0.1835938
				c-0.2021484-0.1220703-0.3583984-0.2958984-0.46875-0.5214844s-0.1679688-0.4873047-0.1708984-0.784668v-0.2788086
				c0-0.4819336,0.1132813-0.8554688,0.3378906-1.1210938c0.2246094-0.2646484,0.5410156-0.3974609,0.9482422-0.3974609
				c0.3339844,0,0.6025391,0.0854492,0.8056641,0.2558594c0.2041016,0.1708984,0.328125,0.4130859,0.3740234,0.7265625h-0.421875
				c-0.0791016-0.4248047-0.3310547-0.6376953-0.7558594-0.6376953c-0.2832031,0-0.4970703,0.0996094-0.6425781,0.2983398
				s-0.2197266,0.4863281-0.2207031,0.8632813v0.2612305c0,0.359375,0.0820313,0.6450195,0.2460938,0.8569336
				s0.3857422,0.3178711,0.6650391,0.3178711c0.1582031,0,0.296875-0.0175781,0.4160156-0.0527344
				c0.1181641-0.0351563,0.2167969-0.0942383,0.2939453-0.1777344v-0.7167969h-0.7402344v-0.3447266h1.1601563V31.6347656z"/>
			<path class="st9" d="M68.9052734,32.0546875h-0.4238281l-1.6113281-2.465332v2.465332h-0.4238281v-3.1992188h0.4238281
				l1.6152344,2.4765625v-2.4765625h0.4199219V32.0546875z"/>
			<path class="st9" d="M69.6542969,32.0546875v-3.1992188h0.9033203c0.2783203,0,0.5244141,0.0615234,0.7382813,0.1845703
				s0.3789063,0.2983398,0.4951172,0.5253906c0.1171875,0.2270508,0.1757813,0.4873047,0.1777344,0.7822266v0.2041016
				c0,0.3017578-0.0585938,0.5664063-0.1748047,0.7929688c-0.1171875,0.2275391-0.2832031,0.4018555-0.4990234,0.5234375
				s-0.4677734,0.1835938-0.7548828,0.1865234H69.6542969z M70.0761719,29.2001953v2.5097656h0.4443359
				c0.3251953,0,0.578125-0.1015625,0.7587891-0.3037109s0.2714844-0.4902344,0.2714844-0.8642578v-0.1870117
				c0-0.3637695-0.0849609-0.6459961-0.2558594-0.8476563s-0.4130859-0.3037109-0.7265625-0.3071289H70.0761719z"/>
		</g>
		<g>
			<path class="st9" d="M13.0688477,31.4941406l0.9140625-2.6386719h0.4609375l-1.1865234,3.1992188h-0.3730469
				l-1.1845703-3.1992188h0.4589844L13.0688477,31.4941406z"/>
			<path class="st9" d="M15.190918,29.6772461l0.0117188,0.2636719c0.1738281-0.2050781,0.4091797-0.3076172,0.7050781-0.3076172
				c0.3320313,0,0.5585938,0.1274414,0.6787109,0.3823242c0.0791016-0.1142578,0.1826172-0.206543,0.3085938-0.2768555
				c0.1269531-0.0703125,0.2763672-0.1054688,0.4501953-0.1054688c0.5205078,0,0.7861328,0.2763672,0.7949219,0.8286133v1.5927734
				h-0.40625v-1.5688477c0-0.1699219-0.0390625-0.296875-0.1171875-0.3813477
				c-0.0771484-0.0839844-0.2080078-0.1259766-0.390625-0.1259766c-0.1513672,0-0.2763672,0.0449219-0.3759766,0.1347656
				c-0.0996094,0.090332-0.1572266,0.2114258-0.1728516,0.3637695v1.5776367h-0.4091797v-1.5576172
				c0-0.3457031-0.1689453-0.5185547-0.5078125-0.5185547c-0.2666016,0-0.4492188,0.1132813-0.546875,0.340332v1.7358398h-0.40625
				v-2.3774414H15.190918z"/>
			<path class="st9" d="M18.6459961,30.84375c0-0.2324219,0.0458984-0.4418945,0.1367188-0.6279297
				c0.0917969-0.1860352,0.2197266-0.3300781,0.3828125-0.4306641c0.1630859-0.1015625,0.3496094-0.1518555,0.5595703-0.1518555
				c0.3232422,0,0.5849609,0.1118164,0.7851563,0.3364258c0.2001953,0.2236328,0.2998047,0.5219727,0.2998047,0.894043v0.0288086
				c0,0.2314453-0.0439453,0.4389648-0.1328125,0.6225586c-0.0888672,0.184082-0.2158203,0.3271484-0.3798828,0.4296875
				c-0.1650391,0.1025391-0.3544922,0.1538086-0.5683594,0.1538086c-0.3222656,0-0.5830078-0.1123047-0.7832031-0.3359375
				c-0.2001953-0.2246094-0.2998047-0.5209961-0.2998047-0.8901367V30.84375z M19.0541992,30.8925781
				c0,0.2636719,0.0615234,0.4750977,0.1835938,0.6347656s0.2861328,0.2392578,0.4912109,0.2392578
				c0.2070313,0,0.3701172-0.0805664,0.4921875-0.2426758c0.1210938-0.1616211,0.1826172-0.3881836,0.1826172-0.6801758
				c0-0.2602539-0.0625-0.4716797-0.1855469-0.6337891c-0.1240234-0.1616211-0.2890625-0.2426758-0.4931641-0.2426758
				c-0.2011719,0-0.3632813,0.0800781-0.4863281,0.2397461S19.0541992,30.5952148,19.0541992,30.8925781z"/>
			<path class="st9" d="M21.871582,29.1015625v0.5756836h0.4433594v0.3139648H21.871582v1.4765625
				c0,0.0952148,0.0195313,0.1669922,0.0585938,0.2143555c0.0400391,0.0478516,0.1074219,0.0717773,0.203125,0.0717773
				c0.0458984,0,0.1103516-0.0087891,0.1933594-0.0263672v0.3276367c-0.1074219,0.0288086-0.2109375,0.043457-0.3125,0.043457
				c-0.1816406,0-0.3183594-0.0546875-0.4111328-0.1650391c-0.0917969-0.109375-0.1376953-0.265625-0.1376953-0.4677734v-1.4746094
				h-0.4335938v-0.3139648h0.4335938v-0.5756836H21.871582z"/>
		</g>
		<g>
			<path class="st9" d="M55.2294922,54.5859375c-0.3623047-0.1035156-0.6259766-0.2314453-0.7900391-0.3837891
				c-0.1650391-0.1513672-0.2470703-0.3378906-0.2470703-0.5615234c0-0.2509766,0.1005859-0.4599609,0.3017578-0.625
				c0.2011719-0.1640625,0.4628906-0.2470703,0.7851563-0.2470703c0.2197266,0,0.4160156,0.0429688,0.5878906,0.1279297
				s0.3056641,0.2021484,0.4003906,0.3515625c0.09375,0.1494141,0.1416016,0.3125,0.1416016,0.4892578h-0.4238281
				c0-0.1933594-0.0625-0.3457031-0.1855469-0.4570313s-0.2958984-0.1669922-0.5205078-0.1669922
				c-0.2080078,0-0.3701172,0.0458984-0.4863281,0.1376953s-0.1748047,0.2197266-0.1748047,0.3818359
				c0,0.1308594,0.0556641,0.2412109,0.1660156,0.3320313c0.1103516,0.0898438,0.2988281,0.1728516,0.5644531,0.2470703
				c0.265625,0.0751953,0.4736328,0.1572266,0.6240234,0.2480469c0.1503906,0.0898438,0.2617188,0.1953125,0.3339844,0.3144531
				c0.0722656,0.1210938,0.1083984,0.2617188,0.1083984,0.4248047c0,0.2587891-0.1005859,0.4667969-0.3027344,0.6230469
				c-0.2021484,0.1552734-0.4726563,0.2333984-0.8105469,0.2333984c-0.2197266,0-0.4248047-0.0419922-0.6152344-0.1259766
				s-0.3378906-0.1992188-0.4404297-0.3466797c-0.1035156-0.1455078-0.1552734-0.3125-0.1552734-0.4980469h0.4238281
				c0,0.1933594,0.0712891,0.3457031,0.2148438,0.4580078c0.1425781,0.1123047,0.3330078,0.1679688,0.5722656,0.1679688
				c0.2226563,0,0.3925781-0.0449219,0.5117188-0.1367188c0.1191406-0.0898438,0.1777344-0.2138672,0.1777344-0.3710938
				c0-0.15625-0.0546875-0.2773438-0.1640625-0.3632813C55.7167969,54.7539063,55.5175781,54.6689453,55.2294922,54.5859375z"/>
			<path class="st9" d="M59.1669922,53.1572266h-1.0283203v2.8544922H57.71875v-2.8544922h-1.0263672V52.8125h2.4746094V53.1572266z
				"/>
			<path class="st9" d="M61.4501953,54.5332031h-1.3867188v1.1337891h1.6113281v0.3447266h-2.0332031V52.8125h2.0107422v0.3447266
				h-1.5888672v1.03125h1.3867188V54.5332031z"/>
			<path class="st9" d="M62.6210938,54.7597656v1.2519531h-0.421875V52.8125h1.1796875
				c0.3505859,0,0.625,0.0898438,0.8232422,0.2685547S64.5,53.4960938,64.5,53.7900391
				c0,0.3115234-0.0966797,0.5498047-0.2910156,0.7177734S63.7363281,54.7597656,63.375,54.7597656H62.6210938z
				 M62.6210938,54.4140625h0.7578125c0.2255859,0,0.3984375-0.0527344,0.5195313-0.1591797
				c0.1191406-0.1064453,0.1796875-0.2597656,0.1796875-0.4609375c0-0.1904297-0.0605469-0.34375-0.1796875-0.4580078
				c-0.1210938-0.1142578-0.2851563-0.1738281-0.4951172-0.1787109h-0.7822266V54.4140625z"/>
			<path class="st9" d="M66.1523438,56.0117188V52.8125h0.9033203c0.2783203,0,0.5244141,0.0615234,0.7382813,0.1845703
				s0.3789063,0.2988281,0.4951172,0.5253906C68.40625,53.75,68.4648438,54.0097656,68.4667969,54.3046875v0.2041016
				c0,0.3017578-0.0585938,0.5664063-0.1748047,0.7929688c-0.1171875,0.2275391-0.2832031,0.4023438-0.4990234,0.5234375
				c-0.2158203,0.1220703-0.4677734,0.1835938-0.7548828,0.1865234H66.1523438z M66.5742188,53.1572266v2.5097656h0.4443359
				c0.3251953,0,0.578125-0.1015625,0.7587891-0.3037109s0.2714844-0.4902344,0.2714844-0.8642578V54.3125
				c0-0.3642578-0.0849609-0.6464844-0.2558594-0.8476563c-0.1708984-0.2021484-0.4130859-0.3037109-0.7265625-0.3076172H66.5742188
				z"/>
			<path class="st9" d="M69.5566406,56.0117188h-0.421875V52.8125h0.421875V56.0117188z"/>
			<path class="st9" d="M71.5009766,54.7177734h-0.7519531v1.2939453h-0.4238281V52.8125h1.0585938
				c0.3613281,0,0.6376953,0.0820313,0.8320313,0.2460938s0.2910156,0.4033203,0.2910156,0.7167969
				c0,0.1992188-0.0537109,0.3730469-0.1611328,0.5205078c-0.1074219,0.1484375-0.2578125,0.2587891-0.4492188,0.3320313
				l0.7509766,1.3574219v0.0263672h-0.4521484L71.5009766,54.7177734z M70.7490234,54.3730469h0.6484375
				c0.2089844,0,0.3759766-0.0546875,0.5-0.1630859s0.1855469-0.2539063,0.1855469-0.4355469
				c0-0.1982422-0.0585938-0.3505859-0.1767578-0.4560547s-0.2880859-0.1591797-0.5107422-0.1611328h-0.6464844V54.3730469z"/>
		</g>
		<g>
			<path class="st9" d="M39.0107422,49.3378906v2.0859375l1.3022461,0.4677734v0.6767578l-4.9765625-1.9003906V50.09375
				l4.9765625-1.9042969v0.6738281L39.0107422,49.3378906z M38.4741211,51.2246094v-1.6914063l-2.3276367,0.8476563
				L38.4741211,51.2246094z"/>
			<path class="st9" d="M38.6416016,45.0146484v-0.6904297h0.5161133v0.6904297h1.1552734v0.6357422h-1.1552734v2.265625h-0.3725586
				L35.3364258,45.6875v-0.6728516H38.6416016z M38.6416016,47.1992188v-1.5488281h-2.4404297l0.1367188,0.0751953
				L38.6416016,47.1992188z"/>
			<path class="st9" d="M38.1254883,41.3300781c0.1572266,0.1323242,0.2836914,0.2900391,0.3793945,0.4736328
				c0.0957031,0.1831055,0.1435547,0.3842773,0.1435547,0.6030273c0,0.2871094-0.0708008,0.5371094-0.2119141,0.7504883
				c-0.1411133,0.2128906-0.340332,0.3774414-0.5961914,0.4936523c-0.2568359,0.1162109-0.5395508,0.1743164-0.8496094,0.1743164
				c-0.3325195,0-0.6323242-0.0634766-0.8989258-0.1894531c-0.2666016-0.1269531-0.4707031-0.3061523-0.6118164-0.5385742
				s-0.2119141-0.503418-0.2119141-0.8134766c0-0.4921875,0.184082-0.8803711,0.5517578-1.1635742
				c0.3681641-0.2841797,0.8701172-0.4257813,1.5058594-0.4257813h0.1845703c0.9682617,0,1.675293,0.1914063,2.1210938,0.5742188
				c0.4453125,0.3828125,0.6738281,0.9604492,0.6850586,1.7329102v0.1230469h-0.5366211v-0.1333008
				c-0.0092773-0.5219727-0.1450195-0.9228516-0.4077148-1.203125S38.6938477,41.3549805,38.1254883,41.3300781z
				 M38.1254883,42.3041992c0-0.2119141-0.0649414-0.4072266-0.1948242-0.5864258
				c-0.1298828-0.1787109-0.2905273-0.309082-0.4819336-0.3911133h-0.2529297c-0.4145508,0-0.7519531,0.0898438-1.0117188,0.2700195
				s-0.3896484,0.4077148-0.3896484,0.6835938c0,0.277832,0.1064453,0.5014648,0.3193359,0.6699219
				c0.2133789,0.168457,0.4941406,0.2529297,0.8427734,0.2529297c0.3393555,0,0.6191406-0.081543,0.8388672-0.2441406
				C38.015625,42.7958984,38.1254883,42.5776367,38.1254883,42.3041992z"/>
			<path class="st9" d="M36.6352539,36.8046875c0.2485352,0,0.4692383,0.0654297,0.6630859,0.1962891
				c0.1938477,0.1313477,0.3452148,0.3085938,0.4545898,0.5317383c0.1118164-0.2597656,0.2744141-0.465332,0.4887695-0.6166992
				c0.2143555-0.1518555,0.4570313-0.2275391,0.7280273-0.2275391c0.4306641,0,0.7734375,0.1455078,1.0288086,0.4355469
				c0.2553711,0.2910156,0.3828125,0.6728516,0.3828125,1.1469727c0,0.4785156-0.1279297,0.8618164-0.3847656,1.1499023
				c-0.2558594,0.2885742-0.5986328,0.4326172-1.0268555,0.4326172c-0.269043,0-0.5117188-0.0732422-0.7280273-0.2207031
				c-0.2163086-0.1464844-0.3803711-0.3500977-0.4921875-0.6098633c-0.109375,0.2211914-0.2607422,0.3955078-0.4545898,0.5229492
				s-0.4135742,0.1914063-0.659668,0.1914063c-0.4194336,0-0.7519531-0.1342773-0.9980469-0.4033203
				s-0.3691406-0.6230469-0.3691406-1.0629883c0-0.4375,0.1230469-0.7915039,0.3691406-1.0610352
				C35.8833008,36.9394531,36.2158203,36.8046875,36.6352539,36.8046875z M35.7875977,38.2709961
				c0,0.2485352,0.0771484,0.449707,0.2304688,0.6030273c0.1542969,0.1542969,0.3632813,0.230957,0.6274414,0.230957
				c0.2529297,0,0.4575195-0.0756836,0.6137695-0.2270508c0.1557617-0.1518555,0.2338867-0.3540039,0.2338867-0.6069336
				s-0.078125-0.4550781-0.2338867-0.6069336c-0.15625-0.1513672-0.3608398-0.2270508-0.6137695-0.2270508
				s-0.4589844,0.0786133-0.6186523,0.2358398S35.7875977,38.0292969,35.7875977,38.2709961z M38.9560547,37.3208008
				c-0.277832,0-0.5048828,0.0883789-0.6801758,0.2651367c-0.175293,0.1762695-0.2631836,0.4072266-0.2631836,0.6918945
				s0.0864258,0.5131836,0.2597656,0.6850586c0.1733398,0.1723633,0.4008789,0.2583008,0.6835938,0.2583008
				s0.5048828-0.0834961,0.6665039-0.2514648c0.1616211-0.1669922,0.2426758-0.4003906,0.2426758-0.6987305
				c0-0.2963867-0.081543-0.5288086-0.2446289-0.6972656C39.4580078,37.4052734,39.2363281,37.3208008,38.9560547,37.3208008z"/>
			<path class="st9" d="M36.6352539,32.8740234c0.2485352,0,0.4692383,0.0654297,0.6630859,0.1962891
				c0.1938477,0.1313477,0.3452148,0.3085938,0.4545898,0.5317383c0.1118164-0.2597656,0.2744141-0.465332,0.4887695-0.6166992
				c0.2143555-0.1518555,0.4570313-0.2275391,0.7280273-0.2275391c0.4306641,0,0.7734375,0.1455078,1.0288086,0.4355469
				c0.2553711,0.2910156,0.3828125,0.6728516,0.3828125,1.1469727c0,0.4785156-0.1279297,0.8618164-0.3847656,1.1499023
				c-0.2558594,0.2885742-0.5986328,0.4326172-1.0268555,0.4326172c-0.269043,0-0.5117188-0.0732422-0.7280273-0.2207031
				c-0.2163086-0.1464844-0.3803711-0.3500977-0.4921875-0.6098633c-0.109375,0.2211914-0.2607422,0.3955078-0.4545898,0.5229492
				s-0.4135742,0.1914063-0.659668,0.1914063c-0.4194336,0-0.7519531-0.1342773-0.9980469-0.4033203
				s-0.3691406-0.6230469-0.3691406-1.0629883c0-0.4375,0.1230469-0.7915039,0.3691406-1.0610352
				C35.8833008,33.0087891,36.2158203,32.8740234,36.6352539,32.8740234z M35.7875977,34.340332
				c0,0.2485352,0.0771484,0.449707,0.2304688,0.6030273c0.1542969,0.1542969,0.3632813,0.230957,0.6274414,0.230957
				c0.2529297,0,0.4575195-0.0756836,0.6137695-0.2270508c0.1557617-0.1518555,0.2338867-0.3540039,0.2338867-0.6069336
				s-0.078125-0.4550781-0.2338867-0.6069336c-0.15625-0.1513672-0.3608398-0.2270508-0.6137695-0.2270508
				s-0.4589844,0.0786133-0.6186523,0.2358398S35.7875977,34.0986328,35.7875977,34.340332z M38.9560547,33.3901367
				c-0.277832,0-0.5048828,0.0883789-0.6801758,0.2651367c-0.175293,0.1762695-0.2631836,0.4072266-0.2631836,0.6918945
				s0.0864258,0.5131836,0.2597656,0.6850586c0.1733398,0.1723633,0.4008789,0.2583008,0.6835938,0.2583008
				s0.5048828-0.0834961,0.6665039-0.2514648c0.1616211-0.1669922,0.2426758-0.4003906,0.2426758-0.6987305
				c0-0.2963867-0.081543-0.5288086-0.2446289-0.6972656C39.4580078,33.4746094,39.2363281,33.3901367,38.9560547,33.3901367z"/>
		</g>
	</g>
	<g>
		<g>
			<g id="XMLID_65_">
				<g>
					<rect x="5.9030313" y="27.0498791" class="st2" width="4.255477" height="3.4376609"/>
				</g>
			</g>
			<g id="XMLID_64_">
				<g>
					<rect x="5.9419751" y="19.921423" class="st2" width="4.2572474" height="3.4376609"/>
				</g>
			</g>
			<circle class="st24" cx="8.1527233" cy="25.139679" r="0.5520833"/>
		</g>
		<path class="st18" d="M8.0706778,22.5282516c0.2929659,0.0003471,0.6022463-0.141407,0.6939087-0.4296112
			c0.0212898-0.060648,1.4339762-0.060648,1.4339762-0.060648s0,0.7387791,0,1.4775562H5.9427924
			c0-0.7387772,0-1.4775562,0-1.4775562s1.4126863,0,1.4339767,0.060648
			C7.468431,22.3868446,7.7777119,22.5285988,8.0706778,22.5282516"/>
		<path class="st18" d="M8.0706778,27.8183327c0.2929659-0.0003471,0.6022463,0.141407,0.6939087,0.4296093
			c0.0212898,0.060648,1.4339762,0.060648,1.4339762,0.060648s0-0.7387772,0-1.4775543H5.9427924
			c0,0.7387772,0,1.4775543,0,1.4775543s1.4126863,0,1.4339767-0.060648
			C7.468431,27.9597397,7.7777119,27.8179855,8.0706778,27.8183327"/>
		
			<rect x="6.4129338" y="23.0454063" transform="matrix(4.498783e-11 1 -1 4.498783e-11 33.243969 17.1026134)" class="st25" width="3.3154881" height="4.2557707"/>
		
			<rect x="6.4129338" y="23.0454063" transform="matrix(4.498783e-11 1 -1 4.498783e-11 33.243969 17.1026134)" class="st26" width="3.3154881" height="4.2557707"/>
		<line class="st27" x1="5.9427924" y1="19.1198196" x2="10.1579962" y2="19.1198196"/>
	</g>
	<g>
		<path class="st28" d="M30.5057106,76.1177673c0,1.2273636-1.0018463,2.2224731-2.2397385,2.2224731
			c-1.2378941,0-2.2415428-0.9951096-2.2415428-2.2224731s1.0036488-2.2224731,2.2415428-2.2224731
			C29.5038643,73.8952942,30.5057106,74.8904037,30.5057106,76.1177673z"/>
		<g>
			<path class="st29" d="M35.9560547,81.2607422c0.3588867,0,0.640625,0.0810547,0.8447266,0.2441406
				c0.2045898,0.1630859,0.3066406,0.3876953,0.3066406,0.6748047c0,0.1582031-0.0429688,0.2958984-0.128418,0.4121094
				s-0.2104492,0.2099609-0.3754883,0.2822266c0.1865234,0.0546875,0.3208008,0.1455078,0.402832,0.2724609
				c0.081543,0.1269531,0.1225586,0.2841797,0.1225586,0.4726563v0.1591797c0,0.0693359,0.0136719,0.1220703,0.0415039,0.1601563
				c0.0273438,0.0380859,0.0732422,0.0605469,0.1367188,0.0683594l0.078125,0.0107422v0.3789063h-0.328125
				c-0.2070313,0-0.3525391-0.0556641-0.4365234-0.1660156s-0.1259766-0.2529297-0.1259766-0.4287109v-0.1787109
				c0-0.1523438-0.0410156-0.2714844-0.1225586-0.3583984c-0.0820313-0.0869141-0.1972656-0.1328125-0.3466797-0.1367188h-0.519043
				v0.8271484l0.3388672,0.0644531v0.3769531h-1.3100586v-0.3769531l0.3369141-0.0644531v-2.2509766l-0.3369141-0.0644531
				v-0.3789063h0.3369141H35.9560547z M35.5063477,82.6435547h0.4389648c0.1762695,0,0.309082-0.0380859,0.3974609-0.1123047
				s0.1323242-0.1826172,0.1323242-0.3232422s-0.0439453-0.2529297-0.1313477-0.3369141
				c-0.0878906-0.0839844-0.2167969-0.1259766-0.3876953-0.1259766h-0.449707V82.6435547z"/>
			<path class="st29" d="M38.8666992,81.2607422v0.3789063l-0.3388672,0.0644531v1.6367188
				c0,0.2070313,0.0561523,0.3613281,0.168457,0.4648438c0.1123047,0.1025391,0.2661133,0.1533203,0.4614258,0.1533203
				c0.1987305,0,0.3544922-0.0507813,0.4672852-0.1523438c0.112793-0.1025391,0.1694336-0.2578125,0.1694336-0.4658203v-1.6367188
				l-0.3369141-0.0644531v-0.3789063h1.3100586v0.3789063l-0.3388672,0.0644531v1.6367188
				c0,0.3525391-0.1166992,0.6230469-0.3505859,0.8144531s-0.5410156,0.2861328-0.9204102,0.2861328
				c-0.3779297,0-0.6831055-0.0947266-0.9155273-0.2861328s-0.3486328-0.4619141-0.3486328-0.8144531v-1.6367188
				l-0.3364258-0.0644531v-0.3789063h0.3364258h0.6342773H38.8666992z"/>
			<path class="st29" d="M43.3574219,82.2617188h-0.4760742l-0.0825195-0.4306641
				c-0.0546875-0.0341797-0.1352539-0.0644531-0.2407227-0.0898438c-0.105957-0.0263672-0.2182617-0.0390625-0.3369141-0.0390625
				c-0.1738281,0-0.3081055,0.0361328-0.402832,0.1083984c-0.0952148,0.0722656-0.1425781,0.1660156-0.1425781,0.28125
				c0,0.1064453,0.0498047,0.1933594,0.1489258,0.2617188s0.2705078,0.140625,0.5136719,0.2167969
				c0.3491211,0.0957031,0.6137695,0.2226563,0.7939453,0.3808594c0.1806641,0.1582031,0.2705078,0.3652344,0.2705078,0.6220703
				c0,0.2685547-0.1069336,0.4804688-0.3212891,0.6357422s-0.4970703,0.2324219-0.847168,0.2324219
				c-0.2509766,0-0.4770508-0.0390625-0.6791992-0.1181641c-0.2016602-0.0791016-0.3701172-0.1884766-0.5048828-0.3271484
				v-0.6552734h0.4907227l0.0673828,0.4462891c0.0639648,0.0517578,0.1503906,0.0947266,0.2597656,0.1279297
				c0.109375,0.0341797,0.2314453,0.0507813,0.3662109,0.0507813c0.1738281,0,0.3056641-0.0351563,0.3964844-0.1054688
				c0.090332-0.0703125,0.1357422-0.1650391,0.1357422-0.2822266c0-0.1210938-0.043457-0.2177734-0.1293945-0.2910156
				c-0.0864258-0.0732422-0.2373047-0.1416016-0.453125-0.2070313c-0.375-0.1074219-0.6586914-0.2353516-0.8515625-0.3828125
				c-0.1923828-0.1484375-0.2885742-0.3505859-0.2885742-0.6074219c0-0.2539063,0.1083984-0.4619141,0.3256836-0.6240234
				c0.2172852-0.1611328,0.4902344-0.2441406,0.8188477-0.2480469c0.2431641,0,0.4648438,0.0361328,0.6650391,0.109375
				c0.199707,0.0732422,0.3676758,0.1708984,0.5039063,0.2929688V82.2617188z"/>
			<path class="st29" d="M46.0556641,82.2617188h-0.4746094l-0.0839844-0.4306641
				c-0.0546875-0.0341797-0.1347656-0.0644531-0.2402344-0.0898438c-0.1054688-0.0263672-0.21875-0.0390625-0.3378906-0.0390625
				c-0.1738281,0-0.3066406,0.0361328-0.4023438,0.1083984c-0.0947266,0.0722656-0.1425781,0.1660156-0.1425781,0.28125
				c0,0.1064453,0.0507813,0.1933594,0.1494141,0.2617188s0.2705078,0.140625,0.5146484,0.2167969
				c0.3476563,0.0957031,0.6132813,0.2226563,0.7929688,0.3808594s0.2714844,0.3652344,0.2714844,0.6220703
				c0,0.2685547-0.1074219,0.4804688-0.3222656,0.6357422s-0.4960938,0.2324219-0.8476563,0.2324219
				c-0.25,0-0.4765625-0.0390625-0.6787109-0.1181641s-0.3706055-0.1884766-0.5053711-0.3271484v-0.6552734h0.4907227
				l0.0673828,0.4462891c0.0644531,0.0517578,0.1513672,0.0947266,0.2607422,0.1279297
				c0.109375,0.0341797,0.2304688,0.0507813,0.3652344,0.0507813c0.1738281,0,0.3066406-0.0351563,0.3964844-0.1054688
				s0.1367188-0.1650391,0.1367188-0.2822266c0-0.1210938-0.0429688-0.2177734-0.1308594-0.2910156
				c-0.0859375-0.0732422-0.2363281-0.1416016-0.4511719-0.2070313c-0.3759766-0.1074219-0.6601563-0.2353516-0.8525391-0.3828125
				c-0.1928711-0.1484375-0.2890625-0.3505859-0.2890625-0.6074219c0-0.2539063,0.1083984-0.4619141,0.3261719-0.6240234
				c0.2167969-0.1611328,0.4892578-0.2441406,0.8193359-0.2480469c0.2421875,0,0.4648438,0.0361328,0.6640625,0.109375
				s0.3671875,0.1708984,0.5039063,0.2929688V82.2617188z"/>
			<path class="st29" d="M46.3486328,81.6396484v-0.3789063h1.3105469v0.3789063l-0.3388672,0.0644531v2.2509766
				l0.3388672,0.0644531v0.3769531h-1.3105469v-0.3769531L46.6875,83.9550781v-2.2509766L46.3486328,81.6396484z"/>
			<path class="st29" d="M47.8671875,84.0195313l0.2265625-0.0322266l0.9619141-2.7265625h0.6494141l0.9560547,2.7265625
				l0.2255859,0.0322266v0.3769531h-1.0771484v-0.3769531l0.2197266-0.0390625l-0.1396484-0.4306641h-1.0253906
				l-0.1386719,0.4306641l0.2197266,0.0390625v0.3769531h-1.078125V84.0195313z M49.0146484,83.0869141h0.7255859
				l-0.3564453-1.1044922h-0.0126953L49.0146484,83.0869141z"/>
		</g>
		<ellipse class="st30" cx="28.26507" cy="76.1177673" rx="1.5316002" ry="1.5185714"/>
		<rect x="18.3969727" y="63.984375" class="st29" width="4.706789" height="4.706789"/>
		<g>
			<path class="st31" d="M20.690918,64.9658203c0.3969727,0,0.7163086,0.1210938,0.9575195,0.3632813
				c0.2416992,0.2421875,0.3623047,0.5556641,0.3623047,0.9394531v0.4121094c0,0.3847656-0.1206055,0.6972656-0.3623047,0.9384766
				c-0.2412109,0.2412109-0.5605469,0.3613281-0.9575195,0.3613281h-1.2734375v-0.2607422l0.340332-0.0585938v-2.3740234
				l-0.340332-0.0585938v-0.2626953h0.340332H20.690918z M20.1689453,65.2871094v2.3740234h0.5219727
				c0.28125,0,0.5029297-0.0908203,0.6655273-0.2744141c0.1621094-0.1835938,0.2431641-0.4189453,0.2431641-0.7060547v-0.4169922
				c0-0.2841797-0.0810547-0.5175781-0.2431641-0.7011719c-0.1625977-0.1835938-0.3842773-0.2753906-0.6655273-0.2753906H20.1689453
				z"/>
		</g>
		<path class="st32" d="M53.5327148,64.3994064c0,0,0.0124245,0.0000305,0.034481,0.0000763
			c0.0053062,2.1060333,0.0384331,15.2590714,0.0384331,15.2590714s0.0004196,0.1679382,0.000843,0.3358765
			c-0.045536-0.0001068-0.0910759-0.000206-0.0910759-0.000206s-19.7002106-0.0434113-21.5548668-0.0475006
			c-0.0916157-0.000206-0.1396847-0.0003052-0.1396847-0.0003052L31.781702,64.4044571c0,0-0.0000668-0.0264893-0.0001335-0.0529861
			c0.0282974,0.0000687,0.0565948,0.0001297,0.0565948,0.0001297"/>
		<line class="st32" x1="46.30756" y1="64.3834839" x2="46.30756" y2="79.9774094"/>
		<line class="st32" x1="39.0710144" y1="64.3675385" x2="39.0710144" y2="79.9604034"/>
		<path class="st28" d="M37.7340584,76.1177673c0,1.2273636-1.0018463,2.2224731-2.2397423,2.2224731
			c-1.2378922,0-2.241539-0.9951096-2.241539-2.2224731s1.0036469-2.2224731,2.241539-2.2224731
			C36.7322121,73.8952942,37.7340584,74.8904037,37.7340584,76.1177673z"/>
		<ellipse class="st30" cx="35.4934158" cy="76.1177673" rx="1.5316002" ry="1.5185714"/>
		<path class="st28" d="M44.9340553,76.1177673c0,1.2273636-1.0018463,2.2224731-2.2397385,2.2224731
			s-2.2415428-0.9951096-2.2415428-2.2224731s1.0036507-2.2224731,2.2415428-2.2224731S44.9340553,74.8904037,44.9340553,76.1177673
			z"/>
		<ellipse class="st30" cx="42.6934166" cy="76.1177673" rx="1.5316002" ry="1.5185714"/>
		<path class="st28" d="M51.5214844,74.4888458c1.5395126,2.0229187-0.1709862,4.2713089-2.1831665,3.7840042
			c-0.7743721-0.1875381-1.4096413-0.8210754-1.5987854-1.5950546
			C47.2479362,74.6661606,49.4969978,72.9484482,51.5214844,74.4888458z"/>
		<ellipse class="st30" cx="49.8934174" cy="76.1177673" rx="1.5316002" ry="1.5185714"/>
		<path class="st28" d="M58.7214851,74.4888458c1.5395126,2.0229187-0.1709862,4.2713089-2.1831703,3.7840042
			c-0.7743683-0.1875381-1.4096413-0.8210754-1.5987816-1.5950546
			C54.447937,74.6661606,56.6969986,72.9484482,58.7214851,74.4888458z"/>
		<ellipse class="st30" cx="57.0934143" cy="76.1177673" rx="1.5316002" ry="1.5185714"/>
		<g>
			<path class="st29" d="M26.1855469,71.171875v-0.4462891l0.5820313-0.0996094V66.5625l-0.5820313-0.0996094v-0.4492188h3.9946289
				v1.2392578h-0.6035156L29.5195313,66.5625h-2.0478516v1.6689453h1.9902344v0.5488281h-1.9902344v1.8457031h2.090332
				l0.0571289-0.6904297h0.6005859v1.2363281H26.1855469z"/>
		</g>
		<g>
			<path class="st29" d="M37.4111328,70.5869141c-0.152832,0.1582031-0.3779297,0.3076172-0.6757813,0.4482422
				s-0.6845703,0.2109375-1.1611328,0.2109375c-0.6958008,0-1.2631836-0.2421875-1.7026367-0.7265625
				c-0.4394531-0.4833984-0.6591797-1.1123047-0.6591797-1.8847656v-0.0849609c0-0.7763672,0.2172852-1.40625,0.6518555-1.8876953
				c0.4345703-0.4824219,1.0131836-0.7236328,1.7348633-0.7236328c0.3862305,0,0.7246094,0.0605469,1.0166016,0.1796875
				s0.5380859,0.2763672,0.737793,0.4726563v0.9355469h-0.4931641l-0.1713867-0.7119141
				c-0.1166992-0.0947266-0.2578125-0.1728516-0.4233398-0.234375s-0.3637695-0.0917969-0.5952148-0.0917969
				c-0.5620117,0-0.9951172,0.1904297-1.2988281,0.5722656c-0.3037109,0.3808594-0.4555664,0.875-0.4555664,1.4824219v0.0917969
				c0,0.6171875,0.1469727,1.1152344,0.4414063,1.4951172c0.2944336,0.3808594,0.699707,0.5703125,1.2167969,0.5703125
				c0.2832031,0,0.515625-0.0292969,0.6967773-0.0878906c0.1811523-0.0595703,0.3261719-0.1240234,0.4360352-0.1953125v-1.1298828
				l-0.8540039-0.0351563v-0.5136719h1.5581055V70.5869141z"/>
		</g>
		<g>
			<path class="st29" d="M41.878418,66.5732422l-0.4750977,0.0751953L42.5683594,70l0.1176758,0.4072266h0.0214844L42.8256836,70
				l1.1611328-3.3554688l-0.4682617-0.0712891v-0.4492188h1.640625v0.4492188l-0.4179688,0.0566406l-1.7441406,4.6523438h-0.6040039
				l-1.7436523-4.6523438l-0.4145508-0.0566406v-0.4492188h1.6435547V66.5732422z"/>
		</g>
		<g>
			<path class="st29" d="M51.6855469,67.6464844h-0.5322266l-0.1328125-0.7373047
				c-0.1074219-0.0898438-0.25-0.1640625-0.4287109-0.2236328c-0.1787109-0.0585938-0.3857422-0.0878906-0.6220703-0.0878906
				c-0.3740234,0-0.6611328,0.078125-0.8603516,0.2353516c-0.2001953,0.1572266-0.3007813,0.3623047-0.3007813,0.6142578
				c0,0.2246094,0.1015625,0.4121094,0.3056641,0.5625c0.2041016,0.1494141,0.5332031,0.28125,0.9882813,0.3945313
				C50.6503906,68.5390625,51.0664063,68.7373047,51.3515625,69c0.2841797,0.2617188,0.4267578,0.5869141,0.4267578,0.9736328
				c0,0.4160156-0.1708984,0.75-0.5126953,1.0029297s-0.7890625,0.3789063-1.3417969,0.3789063
				c-0.4003906,0-0.7558594-0.0644531-1.0664063-0.1943359c-0.3115234-0.1298828-0.5644531-0.2998047-0.7597656-0.5107422
				v-0.9599609h0.5292969l0.1357422,0.7402344c0.1357422,0.1113281,0.2978516,0.2021484,0.4853516,0.2734375
				c0.1884766,0.0703125,0.4130859,0.1054688,0.6757813,0.1054688c0.3544922,0,0.6357422-0.0742188,0.8417969-0.2226563
				s0.3085938-0.3505859,0.3085938-0.6054688c0-0.2363281-0.0888672-0.4345703-0.2675781-0.59375
				s-0.4951172-0.2939453-0.9472656-0.4023438c-0.5507813-0.1298828-0.9804688-0.3212891-1.2900391-0.5742188
				c-0.3095703-0.2519531-0.4648438-0.5703125-0.4648438-0.953125c0-0.4033203,0.1728516-0.7392578,0.5185547-1.0078125
				c0.3457031-0.2675781,0.7939453-0.4023438,1.3466797-0.4023438c0.3652344,0,0.6962891,0.0625,0.9951172,0.1865234
				c0.2998047,0.1240234,0.5390625,0.2744141,0.7207031,0.4511719V67.6464844z"/>
		</g>
		<g>
			<path class="st29" d="M56.9921875,66.1230469c0.6787109,0,1.2246094,0.2070313,1.6376953,0.6210938
				C59.0439453,67.1591797,59.25,67.6943359,59.25,68.3515625v0.7050781c0,0.6582031-0.2060547,1.1943359-0.6201172,1.6064453
				c-0.4130859,0.4121094-0.9589844,0.6181641-1.6376953,0.6181641H54.8125v-0.4462891l0.5820313-0.0996094V66.671875
				L54.8125,66.5722656v-0.4492188h0.5820313H56.9921875z M56.0986328,66.671875v4.0634766h0.8935547
				c0.4804688,0,0.8603516-0.1572266,1.1376953-0.4707031c0.2773438-0.3144531,0.4160156-0.7167969,0.4160156-1.2080078V68.34375
				c0-0.4863281-0.1386719-0.8867188-0.4160156-1.2011719c-0.2773438-0.3134766-0.6572266-0.4707031-1.1376953-0.4707031H56.0986328
				z"/>
		</g>
		<path class="st32" d="M31.8381634,64.3516006h-7.5819817c0.0000134,3.0138016,0,15.5948181,0,15.5948181h7.5646629"/>
		<path class="st32" d="M53.5153961,79.9942245h7.490799c0-2.4291,0-15.6695633,0-15.6695633l-29.1680317,0.0269394"/>
	</g>
</g>
<g id="Обратная_сторона">
</g>
</svg>
