<?xml version="1.0" encoding="utf-8"?>
<!-- Generator: Adobe Illustrator 22.1.0, SVG Export Plug-In . SVG Version: 6.00 Build 0)  -->
<svg version="1.1" id="Слой_1" xmlns="http://www.w3.org/2000/svg" xmlns:xlink="http://www.w3.org/1999/xlink" x="0px" y="0px"
	 viewBox="0 0 197.5424652 151.1999512" enable-background="new 0 0 197.5424652 151.1999512" xml:space="preserve">
<g id="Разъём">
	<g id="AUX_1_">
		<polygon fill="#666566" points="194.9488068,130.997757 194.9488068,113.7477493 193.4449158,113.7477493 193.4449158,130.997757 
			193.6516113,130.997757 		"/>
		<path fill="#4C4C4C" stroke="#0D0E0F" stroke-width="0.2436912" stroke-miterlimit="10" d="M197.5424652,127.5268555v-10.308075
			c0-0.1565475-0.1269073-0.2834625-0.2834625-0.2834625h-2.3102875v10.875h2.3102875
			C197.4155579,127.810318,197.5424652,127.683403,197.5424652,127.5268555z"/>
		
			<rect x="188.7592773" y="121.6208725" transform="matrix(-1.840489e-12 1 -1 -1.840489e-12 316.5695801 -71.8239517)" fill="#4C4C4C" stroke="#0D0E0F" stroke-width="0.049675" stroke-miterlimit="10" width="10.875" height="1.5038933"/>
	</g>
</g>
<g>
	<g>
		<path fill="#19191A" d="M7.6999803,150.7004089v-6.9072266l-7.2001953-7.2001953V44.1271667l7.2001953-7.2001953V4.5270705
			l4.0268559-4.0268555H193.900177v150.2001953H7.6999803z M154.7995911,139.0002136c-2.7568359,0-5,2.2431641-5,5s2.2431641,5,5,5
			s5-2.2431641,5-5S157.556427,139.0002136,154.7995911,139.0002136z M7.1999803,124.599823c-2.7568359,0-5,2.2431641-5,5
			s2.2431638,5,5,5s5.0000005-2.2431641,5.0000005-5S9.9568167,124.599823,7.1999803,124.599823z M71.8489075,120.1545105
			c-1.2524414,0-2.2714844,1.0195313-2.2714844,2.2724609s1.019043,2.2714844,2.2714844,2.2714844
			c1.2529297,0,2.2719727-1.0185547,2.2719727-2.2714844S73.1018372,120.1545105,71.8489075,120.1545105z M64.6853333,120.1545105
			c-1.2529297,0-2.2719727,1.0195313-2.2719727,2.2724609s1.019043,2.2714844,2.2719727,2.2714844
			s2.2719727-1.0185547,2.2719727-2.2714844S65.9382629,120.1545105,64.6853333,120.1545105z M57.521759,120.1545105
			c-1.2529297,0-2.2719727,1.0195313-2.2719727,2.2724609s1.019043,2.2714844,2.2719727,2.2714844
			s2.2719727-1.0185547,2.2719727-2.2714844S58.7746887,120.1545105,57.521759,120.1545105z M50.3503723,120.1545105
			c-1.2529297,0-2.2719727,1.0195313-2.2719727,2.2724609s1.019043,2.2714844,2.2719727,2.2714844
			c1.2524414,0,2.2714844-1.0185547,2.2714844-2.2714844S51.6028137,120.1545105,50.3503723,120.1545105z M14.4328909,77.7150574
			c-0.8735352,0-1.5839844,0.7109375-1.5839844,1.5839844s0.7104492,1.5839844,1.5839844,1.5839844
			s1.5844717-0.7109375,1.5844717-1.5839844S15.306426,77.7150574,14.4328909,77.7150574z M7.2595506,77.7150574
			c-0.8735352,0-1.5844727,0.7109375-1.5844727,1.5839844s0.7109375,1.5839844,1.5844727,1.5839844
			s1.5839849-0.7109375,1.5839849-1.5839844S8.1330862,77.7150574,7.2595506,77.7150574z M14.4328909,70.4674988
			c-0.8735352,0-1.5839844,0.7109375-1.5839844,1.5844727c0,0.8730469,0.7104492,1.5839844,1.5839844,1.5839844
			s1.5844717-0.7109375,1.5844717-1.5839844C16.0173626,71.1784363,15.306426,70.4674988,14.4328909,70.4674988z
			 M7.2595506,70.4674988c-0.8735352,0-1.5844727,0.7109375-1.5844727,1.5844727
			c0,0.8730469,0.7109375,1.5839844,1.5844727,1.5839844s1.5839849-0.7109375,1.5839849-1.5839844
			C8.8435354,71.1784363,8.1330862,70.4674988,7.2595506,70.4674988z M14.4328909,63.2956238
			c-0.8735352,0-1.5839844,0.7104492-1.5839844,1.5839844s0.7104492,1.5844727,1.5839844,1.5844727
			s1.5844717-0.7109375,1.5844717-1.5844727S15.306426,63.2956238,14.4328909,63.2956238z M7.2595506,63.2956238
			c-0.8735352,0-1.5844727,0.7104492-1.5844727,1.5839844s0.7109375,1.5844727,1.5844727,1.5844727
			s1.5839849-0.7109375,1.5839849-1.5844727S8.1330862,63.2956238,7.2595506,63.2956238z M7.1999803,45.400116
			c-2.7568359,0-5,2.2431641-5,5s2.2431638,5,5,5s5.0000005-2.2431641,5.0000005-5S9.9568167,45.400116,7.1999803,45.400116z
			 M151.1999817,2.1999218c-2.7568359,0-5,2.2431643-5,5s2.2431641,4.9999995,5,4.9999995s5-2.2431641,5-4.9999995
			S153.9568176,2.1999218,151.1999817,2.1999218z"/>
	</g>
	<g>
		<path fill="#666566" d="M193.3999634,1.0000012v149.1999512H8.2000113v-6.2000122v-0.4142151l-0.2928929-0.2928772
			l-6.9071045-6.907074V44.334198l6.9071045-6.9071045l0.2928929-0.2929077v-0.4142151V4.7341628l3.7342072-3.7341616H193.3999634
			 M151.1999512,12.6999521c3.0327148,0,5.5-2.4672546,5.5-5.4999385c0-3.0327148-2.4672852-5.5-5.5-5.5s-5.5,2.4672854-5.5,5.5
			C145.6999512,10.2326975,148.1672363,12.6999521,151.1999512,12.6999521 M7.2000108,55.8999634
			c3.0327001,0,5.5000005-2.4672852,5.5000005-5.5c0-3.0326843-2.4673004-5.5-5.5000005-5.5c-3.0327148,0-5.5,2.4673157-5.5,5.5
			C1.700011,53.4326782,4.1672959,55.8999634,7.2000108,55.8999634 M14.4330282,66.9639893
			c1.1492615,0,2.0842428-0.934967,2.0842428-2.0841675c0-1.1492615-0.9349813-2.0842285-2.0842428-2.0842285
			c-1.1492004,0-2.0841522,0.934967-2.0841522,2.0842285C12.348876,66.0290222,13.2838278,66.9639893,14.4330282,66.9639893
			 M7.2593522,66.9639893c1.1492314,0,2.0842137-0.934967,2.0842137-2.0841675c0-1.1492615-0.9349823-2.0842285-2.0842137-2.0842285
			c-1.1492157,0-2.0841827,0.934967-2.0841827,2.0842285C5.1751695,66.0290222,6.1101365,66.9639893,7.2593522,66.9639893
			 M14.4330282,74.1359253c1.1492615,0,2.0842428-0.934967,2.0842428-2.0842285c0-1.149231-0.9349813-2.0841675-2.0842428-2.0841675
			c-1.1492004,0-2.0841522,0.9349365-2.0841522,2.0841675C12.348876,73.2009583,13.2838278,74.1359253,14.4330282,74.1359253
			 M7.2593522,74.1359253c1.1492314,0,2.0842137-0.934967,2.0842137-2.0842285c0-1.149231-0.9349823-2.0841675-2.0842137-2.0841675
			c-1.1492157,0-2.0841827,0.9349365-2.0841827,2.0841675C5.1751695,73.2009583,6.1101365,74.1359253,7.2593522,74.1359253
			 M14.4330282,81.3833008c1.1492615,0,2.0842428-0.9349976,2.0842428-2.0842285
			c0-1.1492004-0.9349813-2.0841675-2.0842428-2.0841675c-1.1492004,0-2.0841522,0.934967-2.0841522,2.0841675
			C12.348876,80.4483032,13.2838278,81.3833008,14.4330282,81.3833008 M7.2593522,81.3833008
			c1.1492314,0,2.0842137-0.9349976,2.0842137-2.0842285c0-1.1492004-0.9349823-2.0841675-2.0842137-2.0841675
			c-1.1492157,0-2.0841827,0.934967-2.0841827,2.0841675C5.1751695,80.4483032,6.1101365,81.3833008,7.2593522,81.3833008
			 M71.8490601,125.1986694c1.5284424,0,2.7719116-1.2434692,2.7719116-2.7719116
			c0-1.5284119-1.2434692-2.7718506-2.7719116-2.7718506c-1.5283813,0-2.7718506,1.2434387-2.7718506,2.7718506
			C69.0772095,123.9552002,70.3206787,125.1986694,71.8490601,125.1986694 M64.6853638,125.1986694
			c1.5284119,0,2.7718506-1.2434692,2.7718506-2.7719116c0-1.5284119-1.2434387-2.7718506-2.7718506-2.7718506
			c-1.5284424,0-2.7719116,1.2434387-2.7719116,2.7718506C61.9134521,123.9552002,63.1569214,125.1986694,64.6853638,125.1986694
			 M57.5216064,125.1986694c1.5284424,0,2.7719116-1.2434692,2.7719116-2.7719116
			c0-1.5284119-1.2434692-2.7718506-2.7719116-2.7718506c-1.5284119,0-2.7718506,1.2434387-2.7718506,2.7718506
			C54.7497559,123.9552002,55.9931946,125.1986694,57.5216064,125.1986694 M50.3501587,125.1986694
			c1.5284271,0,2.7718964-1.2434692,2.7718964-2.7719116c0-1.5284119-1.2434692-2.7718506-2.7718964-2.7718506
			c-1.5284119,0-2.7718658,1.2434387-2.7718658,2.7718506C47.5782928,123.9552002,48.8217468,125.1986694,50.3501587,125.1986694
			 M7.2000108,135.0999756c3.0327001,0,5.5000005-2.4672852,5.5000005-5.5s-2.4673004-5.5-5.5000005-5.5
			c-3.0327148,0-5.5,2.4672852-5.5,5.5S4.1672959,135.0999756,7.2000108,135.0999756 M154.7999878,149.499939
			c3.0327148,0,5.5-2.4672852,5.5-5.5s-2.4672852-5.5-5.5-5.5s-5.5,2.4672852-5.5,5.5
			S151.7672729,149.499939,154.7999878,149.499939 M194.3999634,0.0000012H11.5200033c0,0-3.8106542,3.8106079-4.2740178,4.2739868
			C7.2159562,4.3040175,7.2000108,4.3200088,7.2000108,4.3200088v32.3999634l-7.1999969,7.2000122v92.8800049l7.1999969,7.1999512
			v7.2000122h187.1999512V0.0000012L194.3999634,0.0000012z M151.1999512,11.6999521c-2.4852295,0-4.5-2.0147095-4.5-4.4999385
			c0-2.4852905,2.0147705-4.5,4.5-4.5c2.4852905,0,4.5,2.0147097,4.5,4.5
			C155.6999512,9.6852427,153.6852417,11.6999521,151.1999512,11.6999521L151.1999512,11.6999521z M7.2000108,54.8999634
			c-2.4852905,0-4.5-2.0147095-4.5-4.5s2.0147092-4.5,4.5-4.5c2.48523,0,4.5000005,2.0147095,4.5000005,4.5
			S9.6852407,54.8999634,7.2000108,54.8999634L7.2000108,54.8999634z M14.4330282,65.9639893
			c-0.5987244,0-1.0841522-0.4854126-1.0841522-1.0841675c0-0.5988159,0.4854279-1.0842285,1.0841522-1.0842285
			c0.5988159,0,1.0842438,0.4854126,1.0842438,1.0842285C15.517272,65.4785767,15.0318441,65.9639893,14.4330282,65.9639893
			L14.4330282,65.9639893z M7.2593522,65.9639893c-0.5987701,0-1.0841827-0.4854126-1.0841827-1.0841675
			c0-0.5988159,0.4854126-1.0842285,1.0841827-1.0842285c0.5988159,0,1.0842137,0.4854126,1.0842137,1.0842285
			C8.3435659,65.4785767,7.8581681,65.9639893,7.2593522,65.9639893L7.2593522,65.9639893z M14.4330282,73.1359253
			c-0.5987244,0-1.0841522-0.4854126-1.0841522-1.0842285c0-0.5987549,0.4854279-1.0841675,1.0841522-1.0841675
			c0.5988159,0,1.0842438,0.4854126,1.0842438,1.0841675C15.517272,72.6505127,15.0318441,73.1359253,14.4330282,73.1359253
			L14.4330282,73.1359253z M7.2593522,73.1359253c-0.5987701,0-1.0841827-0.4854126-1.0841827-1.0842285
			c0-0.5987549,0.4854126-1.0841675,1.0841827-1.0841675c0.5988159,0,1.0842137,0.4854126,1.0842137,1.0841675
			C8.3435659,72.6505127,7.8581681,73.1359253,7.2593522,73.1359253L7.2593522,73.1359253z M14.4330282,80.3833008
			c-0.5987244,0-1.0841522-0.4854126-1.0841522-1.0842285c0-0.5987549,0.4854279-1.0841675,1.0841522-1.0841675
			c0.5988159,0,1.0842438,0.4854126,1.0842438,1.0841675C15.517272,79.8978882,15.0318441,80.3833008,14.4330282,80.3833008
			L14.4330282,80.3833008z M7.2593522,80.3833008c-0.5987701,0-1.0841827-0.4854126-1.0841827-1.0842285
			c0-0.5987549,0.4854126-1.0841675,1.0841827-1.0841675c0.5988159,0,1.0842137,0.4854126,1.0842137,1.0841675
			C8.3435659,79.8978882,7.8581681,80.3833008,7.2593522,80.3833008L7.2593522,80.3833008z M71.8490601,124.1986694
			c-0.9785767,0-1.7718506-0.793335-1.7718506-1.7719116s0.7932739-1.7718506,1.7718506-1.7718506
			s1.7719116,0.7932739,1.7719116,1.7718506S72.8276367,124.1986694,71.8490601,124.1986694L71.8490601,124.1986694z
			 M64.6853638,124.1986694c-0.9785767,0-1.7719116-0.793335-1.7719116-1.7719116s0.793335-1.7718506,1.7719116-1.7718506
			s1.7718506,0.7932739,1.7718506,1.7718506S65.6639404,124.1986694,64.6853638,124.1986694L64.6853638,124.1986694z
			 M57.5216064,124.1986694c-0.9785767,0-1.7718506-0.793335-1.7718506-1.7719116s0.7932739-1.7718506,1.7718506-1.7718506
			s1.7719116,0.7932739,1.7719116,1.7718506S58.5001831,124.1986694,57.5216064,124.1986694L57.5216064,124.1986694z
			 M50.3501587,124.1986694c-0.9785767,0-1.7718658-0.793335-1.7718658-1.7719116s0.7932892-1.7718506,1.7718658-1.7718506
			c0.9785919,0,1.7718964,0.7932739,1.7718964,1.7718506S51.3287506,124.1986694,50.3501587,124.1986694L50.3501587,124.1986694z
			 M7.2000108,134.0999756c-2.4852905,0-4.5-2.0147095-4.5-4.5s2.0147092-4.5,4.5-4.5c2.48523,0,4.5000005,2.0147095,4.5000005,4.5
			S9.6852407,134.0999756,7.2000108,134.0999756L7.2000108,134.0999756z M154.7999878,148.499939
			c-2.4852905,0-4.5-2.0147095-4.5-4.5c0-2.4852295,2.0147095-4.5,4.5-4.5s4.5,2.0147705,4.5,4.5
			C159.2999878,146.4852295,157.2852783,148.499939,154.7999878,148.499939L154.7999878,148.499939z"/>
	</g>
</g>
<g id="Колодка_прав-верх">
	<g>
		<path fill="#4C4C4C" d="M14.3999939,10.7999592h0.0000076c1.9882221,0,3.5999966-1.6117735,3.5999966-3.5999966V7.1999555
			c0-1.9882236-1.6117744-3.5999966-3.5999966-3.5999966h-0.0000076c-1.9882231,0-3.5999966,1.611773-3.5999966,3.5999966v0.0000072
			C10.7999973,9.1881857,12.4117708,10.7999592,14.3999939,10.7999592z"/>
	</g>
	<g>
		<path fill="#4C4C4C" d="M21.5999947,10.7999592h0.0000057c1.988224,0,3.5999966-1.6117735,3.5999966-3.5999966V7.1999555
			c0-1.9882236-1.6117725-3.5999966-3.5999966-3.5999966h-0.0000057c-1.988224,0-3.5999966,1.611773-3.5999966,3.5999966v0.0000072
			C17.9999981,9.1881857,19.6117706,10.7999592,21.5999947,10.7999592z"/>
	</g>
	<g>
		<path fill="#4C4C4C" d="M28.7999935,10.7999592h0.0000076c1.9882221,0,3.5999966-1.6117735,3.5999966-3.5999966V7.1999555
			c0-1.9882236-1.6117744-3.5999966-3.5999966-3.5999966h-0.0000076c-1.9882221,0-3.5999966,1.611773-3.5999966,3.5999966v0.0000072
			C25.1999969,9.1881857,26.8117714,10.7999592,28.7999935,10.7999592z"/>
	</g>
	<g>
		<path fill="#4C4C4C" d="M35.9999924,10.7999592H36c1.988224,0,3.5999985-1.6117735,3.5999985-3.5999966V7.1999555
			c0-1.9882236-1.6117744-3.5999966-3.5999985-3.5999966h-0.0000076c-1.9882202,0-3.5999947,1.611773-3.5999947,3.5999966v0.0000072
			C32.3999977,9.1881857,34.0117722,10.7999592,35.9999924,10.7999592z"/>
	</g>
	<g>
		<path fill="#4C4C4C" d="M43.1999931,10.7999592h0.0000076c1.988224,0,3.5999985-1.6117735,3.5999985-3.5999966V7.1999555
			c0-1.9882236-1.6117744-3.5999966-3.5999985-3.5999966h-0.0000076c-1.988224,0-3.5999947,1.611773-3.5999947,3.5999966v0.0000072
			C39.5999985,9.1881857,41.2117691,10.7999592,43.1999931,10.7999592z"/>
	</g>
	<g>
		<path fill="#4C4C4C" d="M50.3999939,10.7999592h0.0000076c1.988224,0,3.5999947-1.6117735,3.5999947-3.5999966V7.1999555
			c0-1.9882236-1.6117706-3.5999966-3.5999947-3.5999966h-0.0000076c-1.988224,0-3.5999947,1.611773-3.5999947,3.5999966v0.0000072
			C46.7999992,9.1881857,48.4117699,10.7999592,50.3999939,10.7999592z"/>
	</g>
	<g>
		<path fill="#4C4C4C" d="M57.5999947,10.7999592h0.0000076c1.9882202,0,3.5999947-1.6117735,3.5999947-3.5999966V7.1999555
			c0-1.9882236-1.6117744-3.5999966-3.5999947-3.5999966h-0.0000076c-1.988224,0-3.5999985,1.611773-3.5999985,3.5999966v0.0000072
			C53.9999962,9.1881857,55.6117706,10.7999592,57.5999947,10.7999592z"/>
	</g>
	<g>
		<path fill="#4C4C4C" d="M64.7999954,10.7999592h0.0000076c1.9882202,0,3.5999908-1.6117735,3.5999908-3.5999966V7.1999555
			c0-1.9882236-1.6117706-3.5999966-3.5999908-3.5999966h-0.0000076c-1.988224,0-3.5999985,1.611773-3.5999985,3.5999966v0.0000072
			C61.1999969,9.1881857,62.8117714,10.7999592,64.7999954,10.7999592z"/>
	</g>
</g>
<g id="Колодка_прав-ниж">
	<g>
		<path fill="#4C4C4C" d="M76.3199921,10.7999592h0.0000076c1.9882278,0,3.5999985-1.6117735,3.5999985-3.5999966V7.1999555
			c0-1.9882236-1.6117706-3.5999966-3.5999985-3.5999966h-0.0000076c-1.9882202,0-3.5999908,1.611773-3.5999908,3.5999966v0.0000072
			C72.7200012,9.1881857,74.3317719,10.7999592,76.3199921,10.7999592z"/>
	</g>
	<g>
		<path fill="#4C4C4C" d="M83.5199966,10.7999592h0.0000076c1.9882202,0,3.5999908-1.6117735,3.5999908-3.5999966V7.1999555
			c0-1.9882236-1.6117706-3.5999966-3.5999908-3.5999966h-0.0000076c-1.9882278,0-3.5999985,1.611773-3.5999985,3.5999966v0.0000072
			C79.9199982,9.1881857,81.5317688,10.7999592,83.5199966,10.7999592z"/>
	</g>
	<g>
		<path fill="#4C4C4C" d="M90.7199936,10.7999592h0.0000076c1.9882202,0,3.5999985-1.6117735,3.5999985-3.5999966V7.1999555
			c0-1.9882236-1.6117783-3.5999966-3.5999985-3.5999966h-0.0000076c-1.9882202,0-3.5999985,1.611773-3.5999985,3.5999966v0.0000072
			C87.1199951,9.1881857,88.7317734,10.7999592,90.7199936,10.7999592z"/>
	</g>
	<g>
		<path fill="#4C4C4C" d="M97.9199905,10.7999592h0.0000076c1.9882278,0,3.5999985-1.6117735,3.5999985-3.5999966V7.1999555
			c0-1.9882231-1.6117706-3.5999966-3.5999985-3.5999966h-0.0000076c-1.9882202,0-3.5999908,1.611773-3.5999908,3.5999966v0.0000072
			C94.3199997,9.1881857,95.9317703,10.7999592,97.9199905,10.7999592z"/>
	</g>
	<g>
		<path fill="#4C4C4C" d="M105.1199951,10.7999592h0.0000076c1.9882202,0,3.5999985-1.6117735,3.5999985-3.5999966V7.1999555
			c0-1.9882236-1.6117783-3.5999966-3.5999985-3.5999966h-0.0000076c-1.9882278,0-3.5999985,1.611773-3.5999985,3.5999966v0.0000072
			C101.5199966,9.1881857,103.1317673,10.7999592,105.1199951,10.7999592z"/>
	</g>
	<g>
		<path fill="#4C4C4C" d="M112.3199921,10.7999592h0.0000076c1.9882278,0,3.5999985-1.6117735,3.5999985-3.5999966V7.1999555
			c0-1.9882236-1.6117706-3.5999966-3.5999985-3.5999966h-0.0000076c-1.9882202,0-3.5999908,1.611773-3.5999908,3.5999966v0.0000072
			C108.7200012,9.1881857,110.3317719,10.7999592,112.3199921,10.7999592z"/>
	</g>
	<g>
		<path fill="#4C4C4C" d="M119.5199966,10.7999592h0.0000076c1.9882202,0,3.5999908-1.6117735,3.5999908-3.5999966V7.1999555
			c0-1.9882236-1.6117706-3.5999966-3.5999908-3.5999966h-0.0000076c-1.9882278,0-3.5999985,1.611773-3.5999985,3.5999966v0.0000072
			C115.9199982,9.1881857,117.5317688,10.7999592,119.5199966,10.7999592z"/>
	</g>
	<g>
		<path fill="#4C4C4C" d="M126.7199936,10.7999592h0.0000076c1.9882202,0,3.5999908-1.6117735,3.5999908-3.5999966V7.1999555
			c0-1.9882236-1.6117706-3.5999966-3.5999908-3.5999966h-0.0000076c-1.9882202,0-3.5999985,1.611773-3.5999985,3.5999966v0.0000072
			C123.1199951,9.1881857,124.7317734,10.7999592,126.7199936,10.7999592z"/>
	</g>
	<g>
		<path fill="#4C4C4C" d="M133.9199982,10.7999592L133.9199982,10.7999592c1.9882202,0,3.6000061-1.6117735,3.6000061-3.5999966
			V7.1999555c0-1.9882236-1.6117859-3.5999966-3.6000061-3.5999966l0,0c-1.9882202,0-3.6000061,1.611773-3.6000061,3.5999966
			v0.0000072C130.3199921,9.1881857,131.931778,10.7999592,133.9199982,10.7999592z"/>
	</g>
	<g>
		<path fill="#4C4C4C" d="M141.1199951,10.7999592L141.1199951,10.7999592c1.9882355,0,3.6000061-1.6117735,3.6000061-3.5999966
			V7.1999555c0-1.9882236-1.6117706-3.5999966-3.6000061-3.5999966l0,0c-1.9882202,0-3.5999908,1.611773-3.5999908,3.5999966
			v0.0000072C137.5200043,9.1881857,139.1317749,10.7999592,141.1199951,10.7999592z"/>
	</g>
</g>
<g id="Колодка_лев-верх">
	<g>
		<path fill="#4C4C4C" d="M14.3999939,147.5999603h0.0000076c1.9882221,0,3.5999966-1.6117706,3.5999966-3.5999908v-0.0000153
			c0-1.9882202-1.6117744-3.5999908-3.5999966-3.5999908h-0.0000076c-1.9882231,0-3.5999966,1.6117706-3.5999966,3.5999908
			v0.0000153C10.7999973,145.9881897,12.4117708,147.5999603,14.3999939,147.5999603z"/>
	</g>
	<g>
		<path fill="#4C4C4C" d="M21.5999947,147.5999603h0.0000057c1.988224,0,3.5999966-1.6117706,3.5999966-3.5999908v-0.0000153
			c0-1.9882202-1.6117725-3.5999908-3.5999966-3.5999908h-0.0000057c-1.988224,0-3.5999966,1.6117706-3.5999966,3.5999908v0.0000153
			C17.9999981,145.9881897,19.6117706,147.5999603,21.5999947,147.5999603z"/>
	</g>
	<g>
		<path fill="#4C4C4C" d="M28.7999935,147.5999603h0.0000076c1.9882221,0,3.5999966-1.6117706,3.5999966-3.5999908v-0.0000153
			c0-1.9882202-1.6117744-3.5999908-3.5999966-3.5999908h-0.0000076c-1.9882221,0-3.5999966,1.6117706-3.5999966,3.5999908
			v0.0000153C25.1999969,145.9881897,26.8117714,147.5999603,28.7999935,147.5999603z"/>
	</g>
	<g>
		<path fill="#4C4C4C" d="M35.9999924,147.5999603H36c1.988224,0,3.5999985-1.6117706,3.5999985-3.5999908v-0.0000153
			c0-1.9882202-1.6117744-3.5999908-3.5999985-3.5999908h-0.0000076c-1.9882202,0-3.5999947,1.6117706-3.5999947,3.5999908
			v0.0000153C32.3999977,145.9881897,34.0117722,147.5999603,35.9999924,147.5999603z"/>
	</g>
	<g>
		<path fill="#4C4C4C" d="M43.1999931,147.5999603h0.0000076c1.988224,0,3.5999985-1.6117706,3.5999985-3.5999908v-0.0000153
			c0-1.9882202-1.6117744-3.5999908-3.5999985-3.5999908h-0.0000076c-1.988224,0-3.5999947,1.6117706-3.5999947,3.5999908v0.0000153
			C39.5999985,145.9881897,41.2117691,147.5999603,43.1999931,147.5999603z"/>
	</g>
	<g>
		<path fill="#4C4C4C" d="M50.3999939,147.5999603h0.0000076c1.988224,0,3.5999947-1.6117706,3.5999947-3.5999908v-0.0000153
			c0-1.9882202-1.6117706-3.5999908-3.5999947-3.5999908h-0.0000076c-1.988224,0-3.5999947,1.6117706-3.5999947,3.5999908v0.0000153
			C46.7999992,145.9881897,48.4117699,147.5999603,50.3999939,147.5999603z"/>
	</g>
</g>
<g id="Колодка_лев-ниж">
	<g>
		<path fill="#4C4C4C" d="M64.7999954,147.5999603h0.0000076c1.9882202,0,3.5999908-1.6117706,3.5999908-3.5999908v-0.0000153
			c0-1.9882202-1.6117706-3.5999908-3.5999908-3.5999908h-0.0000076c-1.988224,0-3.5999985,1.6117706-3.5999985,3.5999908v0.0000153
			C61.1999969,145.9881897,62.8117714,147.5999603,64.7999954,147.5999603z"/>
	</g>
	<g>
		<path fill="#4C4C4C" d="M71.9999924,147.5999603H72c1.9882278,0,3.5999985-1.6117706,3.5999985-3.5999908v-0.0000153
			c0-1.9882202-1.6117706-3.5999908-3.5999985-3.5999908h-0.0000076c-1.9882202,0-3.5999985,1.6117706-3.5999985,3.5999908
			v0.0000153C68.3999939,145.9881897,70.0117722,147.5999603,71.9999924,147.5999603z"/>
	</g>
	<g>
		<path fill="#4C4C4C" d="M79.1999969,147.5999603h0.0000076c1.9882202,0,3.5999908-1.6117706,3.5999908-3.5999908v-0.0000153
			c0-1.9882202-1.6117706-3.5999908-3.5999908-3.5999908h-0.0000076c-1.9882278,0-3.5999985,1.6117706-3.5999985,3.5999908
			v0.0000153C75.5999985,145.9881897,77.2117691,147.5999603,79.1999969,147.5999603z"/>
	</g>
	<g>
		<path fill="#4C4C4C" d="M86.3999939,147.5999603h0.0000076c1.9882202,0,3.5999985-1.6117706,3.5999985-3.5999908v-0.0000153
			c0-1.9882202-1.6117783-3.5999908-3.5999985-3.5999908h-0.0000076c-1.9882202,0-3.5999985,1.6117706-3.5999985,3.5999908
			v0.0000153C82.7999954,145.9881897,84.4117737,147.5999603,86.3999939,147.5999603z"/>
	</g>
	<g>
		<path fill="#4C4C4C" d="M93.5999908,147.5999603h0.0000076c1.9882278,0,3.5999985-1.6117706,3.5999985-3.5999908v-0.0000153
			c0-1.9882202-1.6117706-3.5999908-3.5999985-3.5999908h-0.0000076C91.6117706,140.3999634,90,142.011734,90,143.9999542v0.0000153
			C90,145.9881897,91.6117706,147.5999603,93.5999908,147.5999603z"/>
	</g>
	<g>
		<path fill="#4C4C4C" d="M100.7999954,147.5999603h0.0000076c1.9882202,0,3.5999908-1.6117706,3.5999908-3.5999908v-0.0000153
			c0-1.9882202-1.6117706-3.5999908-3.5999908-3.5999908h-0.0000076c-1.9882278,0-3.5999985,1.6117706-3.5999985,3.5999908
			v0.0000153C97.1999969,145.9881897,98.8117676,147.5999603,100.7999954,147.5999603z"/>
	</g>
	<g>
		<path fill="#4C4C4C" d="M107.9999924,147.5999603H108c1.9882278,0,3.5999985-1.6117706,3.5999985-3.5999908v-0.0000153
			c0-1.9882202-1.6117706-3.5999908-3.5999985-3.5999908h-0.0000076c-1.9882202,0-3.5999985,1.6117706-3.5999985,3.5999908
			v0.0000153C104.3999939,145.9881897,106.0117722,147.5999603,107.9999924,147.5999603z"/>
	</g>
	<g>
		<path fill="#4C4C4C" d="M115.1999969,147.5999603h0.0000076c1.9882202,0,3.5999908-1.6117706,3.5999908-3.5999908v-0.0000153
			c0-1.9882202-1.6117706-3.5999908-3.5999908-3.5999908h-0.0000076c-1.9882278,0-3.5999985,1.6117706-3.5999985,3.5999908
			v0.0000153C111.5999985,145.9881897,113.2117691,147.5999603,115.1999969,147.5999603z"/>
	</g>
</g>
<rect x="21.0294247" y="6.1547837" transform="matrix(6.123234e-17 -1 1 6.123234e-17 14.3927517 28.7999554)" fill="#E39344" stroke="#D76543" stroke-width="0.02" stroke-miterlimit="10" width="1.1338583" height="2.0976379"/>
<rect x="21.3873997" y="6.4912972" transform="matrix(6.123234e-17 -1 1 6.123234e-17 14.4000387 28.7999554)" fill="#EBAD4F" stroke="#D76543" stroke-width="0.02" stroke-miterlimit="10" width="0.4251969" height="1.4173229"/>
<line fill="none" stroke="#D76543" stroke-width="0.02" stroke-miterlimit="10" x1="20.5475349" y1="7.7705317" x2="20.8913364" y2="7.4125571"/>
<line fill="none" stroke="#D76543" stroke-width="0.02" stroke-miterlimit="10" x1="20.8913364" y1="6.9873605" x2="20.5475349" y2="6.6366735"/>
<line fill="none" stroke="#D76543" stroke-width="0.02" stroke-miterlimit="10" x1="22.3086586" y1="6.9873605" x2="22.6451721" y2="6.6366735"/>
<line fill="none" stroke="#D76543" stroke-width="0.02" stroke-miterlimit="10" x1="22.3086586" y1="7.4125571" x2="22.6451721" y2="7.7705317"/>
<rect x="13.8294249" y="6.1547837" transform="matrix(6.123234e-17 -1 1 6.123234e-17 7.1927514 21.5999565)" fill="#E39344" stroke="#D76543" stroke-width="0.02" stroke-miterlimit="10" width="1.1338583" height="2.0976379"/>
<rect x="14.1873989" y="6.4912972" transform="matrix(6.123234e-17 -1 1 6.123234e-17 7.2000384 21.5999565)" fill="#EBAD4F" stroke="#D76543" stroke-width="0.02" stroke-miterlimit="10" width="0.4251969" height="1.4173229"/>
<line fill="none" stroke="#D76543" stroke-width="0.02" stroke-miterlimit="10" x1="13.3475351" y1="7.7705317" x2="13.6913357" y2="7.4125571"/>
<line fill="none" stroke="#D76543" stroke-width="0.02" stroke-miterlimit="10" x1="13.6913357" y1="6.9873605" x2="13.3475351" y2="6.6366735"/>
<line fill="none" stroke="#D76543" stroke-width="0.02" stroke-miterlimit="10" x1="15.1086588" y1="6.9873605" x2="15.4451733" y2="6.6366735"/>
<line fill="none" stroke="#D76543" stroke-width="0.02" stroke-miterlimit="10" x1="15.1086588" y1="7.4125571" x2="15.4451733" y2="7.7705317"/>
<rect x="28.2294254" y="6.1547837" transform="matrix(6.123234e-17 -1 1 6.123234e-17 21.5927505 35.999958)" fill="#E39344" stroke="#D76543" stroke-width="0.02" stroke-miterlimit="10" width="1.1338583" height="2.0976379"/>
<rect x="28.5873985" y="6.4912972" transform="matrix(6.123234e-17 -1 1 6.123234e-17 21.6000385 35.999958)" fill="#EBAD4F" stroke="#D76543" stroke-width="0.02" stroke-miterlimit="10" width="0.4251969" height="1.4173229"/>
<line fill="none" stroke="#D76543" stroke-width="0.02" stroke-miterlimit="10" x1="27.7475357" y1="7.7705317" x2="28.0913353" y2="7.4125571"/>
<line fill="none" stroke="#D76543" stroke-width="0.02" stroke-miterlimit="10" x1="28.0913353" y1="6.9873605" x2="27.7475357" y2="6.6366735"/>
<line fill="none" stroke="#D76543" stroke-width="0.02" stroke-miterlimit="10" x1="29.5086594" y1="6.9873605" x2="29.8451729" y2="6.6366735"/>
<line fill="none" stroke="#D76543" stroke-width="0.02" stroke-miterlimit="10" x1="29.5086594" y1="7.4125571" x2="29.8451729" y2="7.7705317"/>
<rect x="35.4330673" y="6.1511388" transform="matrix(6.123234e-17 -1 1 6.123234e-17 28.8000393 43.199955)" fill="#E39344" stroke="#D76543" stroke-width="0.02" stroke-miterlimit="10" width="1.1338583" height="2.0976379"/>
<rect x="35.7910423" y="6.4876528" transform="matrix(6.123234e-17 -1 1 6.123234e-17 28.8073273 43.199955)" fill="#EBAD4F" stroke="#D76543" stroke-width="0.02" stroke-miterlimit="10" width="0.4251969" height="1.4173229"/>
<line fill="none" stroke="#D76543" stroke-width="0.02" stroke-miterlimit="10" x1="34.9511795" y1="7.7668867" x2="35.2949791" y2="7.4089127"/>
<line fill="none" stroke="#D76543" stroke-width="0.02" stroke-miterlimit="10" x1="35.2949791" y1="6.9837155" x2="34.9511795" y2="6.6330285"/>
<line fill="none" stroke="#D76543" stroke-width="0.02" stroke-miterlimit="10" x1="36.7123032" y1="6.9837155" x2="37.0488167" y2="6.6330285"/>
<line fill="none" stroke="#D76543" stroke-width="0.02" stroke-miterlimit="10" x1="36.7123032" y1="7.4089127" x2="37.0488167" y2="7.7668867"/>
<rect x="42.6330681" y="6.1547837" transform="matrix(6.123234e-17 -1 1 6.123234e-17 35.9963951 50.4035988)" fill="#E39344" stroke="#D76543" stroke-width="0.02" stroke-miterlimit="10" width="1.1338583" height="2.0976379"/>
<rect x="42.9910431" y="6.4912972" transform="matrix(6.123234e-17 -1 1 6.123234e-17 36.0036812 50.4035988)" fill="#EBAD4F" stroke="#D76543" stroke-width="0.02" stroke-miterlimit="10" width="0.4251969" height="1.4173229"/>
<line fill="none" stroke="#D76543" stroke-width="0.02" stroke-miterlimit="10" x1="42.1511803" y1="7.7705317" x2="42.4949799" y2="7.4125571"/>
<line fill="none" stroke="#D76543" stroke-width="0.02" stroke-miterlimit="10" x1="42.4949799" y1="6.9873605" x2="42.1511803" y2="6.6366735"/>
<line fill="none" stroke="#D76543" stroke-width="0.02" stroke-miterlimit="10" x1="43.9123039" y1="6.9873605" x2="44.2488174" y2="6.6366735"/>
<line fill="none" stroke="#D76543" stroke-width="0.02" stroke-miterlimit="10" x1="43.9123039" y1="7.4125571" x2="44.2488174" y2="7.7705317"/>
<rect x="49.8294258" y="6.1547837" transform="matrix(6.123234e-17 -1 1 6.123234e-17 43.1927528 57.5999565)" fill="#E39344" stroke="#D76543" stroke-width="0.02" stroke-miterlimit="10" width="1.1338583" height="2.0976379"/>
<rect x="50.1874008" y="6.4912972" transform="matrix(6.123234e-17 -1 1 6.123234e-17 43.2000389 57.5999565)" fill="#EBAD4F" stroke="#D76543" stroke-width="0.02" stroke-miterlimit="10" width="0.4251969" height="1.4173229"/>
<line fill="none" stroke="#D76543" stroke-width="0.02" stroke-miterlimit="10" x1="49.3475342" y1="7.7705317" x2="49.6913376" y2="7.4125571"/>
<line fill="none" stroke="#D76543" stroke-width="0.02" stroke-miterlimit="10" x1="49.6913376" y1="6.9873605" x2="49.3475342" y2="6.6366735"/>
<line fill="none" stroke="#D76543" stroke-width="0.02" stroke-miterlimit="10" x1="51.1086578" y1="6.9873605" x2="51.4451714" y2="6.6366735"/>
<line fill="none" stroke="#D76543" stroke-width="0.02" stroke-miterlimit="10" x1="51.1086578" y1="7.4125571" x2="51.4451714" y2="7.7705317"/>
<rect x="57.0294266" y="6.1547837" transform="matrix(6.123234e-17 -1 1 6.123234e-17 50.3927498 64.7999573)" fill="#E39344" stroke="#D76543" stroke-width="0.02" stroke-miterlimit="10" width="1.1338583" height="2.0976379"/>
<rect x="57.3873978" y="6.4912972" transform="matrix(6.123234e-17 -1 1 6.123234e-17 50.4000397 64.7999573)" fill="#EBAD4F" stroke="#D76543" stroke-width="0.02" stroke-miterlimit="10" width="0.4251969" height="1.4173229"/>
<line fill="none" stroke="#D76543" stroke-width="0.02" stroke-miterlimit="10" x1="56.5475349" y1="7.7705317" x2="56.8913345" y2="7.4125571"/>
<line fill="none" stroke="#D76543" stroke-width="0.02" stroke-miterlimit="10" x1="56.8913345" y1="6.9873605" x2="56.5475349" y2="6.6366735"/>
<line fill="none" stroke="#D76543" stroke-width="0.02" stroke-miterlimit="10" x1="58.3086586" y1="6.9873605" x2="58.6451721" y2="6.6366735"/>
<line fill="none" stroke="#D76543" stroke-width="0.02" stroke-miterlimit="10" x1="58.3086586" y1="7.4125571" x2="58.6451721" y2="7.7705317"/>
<rect x="64.2294235" y="6.1547837" transform="matrix(6.123234e-17 -1 1 6.123234e-17 57.5927505 71.9999542)" fill="#E39344" stroke="#D76543" stroke-width="0.02" stroke-miterlimit="10" width="1.1338583" height="2.0976379"/>
<rect x="64.5874023" y="6.4912972" transform="matrix(6.123234e-17 -1 1 6.123234e-17 57.6000404 71.9999542)" fill="#EBAD4F" stroke="#D76543" stroke-width="0.02" stroke-miterlimit="10" width="0.4251969" height="1.4173229"/>
<line fill="none" stroke="#D76543" stroke-width="0.02" stroke-miterlimit="10" x1="63.7475357" y1="7.7705317" x2="64.0913391" y2="7.4125571"/>
<line fill="none" stroke="#D76543" stroke-width="0.02" stroke-miterlimit="10" x1="64.0913391" y1="6.9873605" x2="63.7475357" y2="6.6366735"/>
<line fill="none" stroke="#D76543" stroke-width="0.02" stroke-miterlimit="10" x1="65.5086594" y1="6.9873605" x2="65.8451691" y2="6.6366735"/>
<line fill="none" stroke="#D76543" stroke-width="0.02" stroke-miterlimit="10" x1="65.5086594" y1="7.4125571" x2="65.8451691" y2="7.7705317"/>
<rect x="75.7494278" y="6.1547837" transform="matrix(6.123234e-17 -1 1 6.123234e-17 69.1127548 83.5199585)" fill="#E39344" stroke="#D76543" stroke-width="0.02" stroke-miterlimit="10" width="1.1338583" height="2.0976379"/>
<rect x="76.107399" y="6.4912972" transform="matrix(6.123234e-17 -1 1 6.123234e-17 69.1200409 83.5199585)" fill="#EBAD4F" stroke="#D76543" stroke-width="0.02" stroke-miterlimit="10" width="0.4251969" height="1.4173229"/>
<line fill="none" stroke="#D76543" stroke-width="0.02" stroke-miterlimit="10" x1="75.2675323" y1="7.7705317" x2="75.6113358" y2="7.4125571"/>
<line fill="none" stroke="#D76543" stroke-width="0.02" stroke-miterlimit="10" x1="75.6113358" y1="6.9873605" x2="75.2675323" y2="6.6366735"/>
<line fill="none" stroke="#D76543" stroke-width="0.02" stroke-miterlimit="10" x1="77.028656" y1="6.9873605" x2="77.3651733" y2="6.6366735"/>
<line fill="none" stroke="#D76543" stroke-width="0.02" stroke-miterlimit="10" x1="77.028656" y1="7.4125571" x2="77.3651733" y2="7.7705317"/>
<rect x="82.9494247" y="6.1547837" transform="matrix(6.123234e-17 -1 1 6.123234e-17 76.3127518 90.7199554)" fill="#E39344" stroke="#D76543" stroke-width="0.02" stroke-miterlimit="10" width="1.1338583" height="2.0976379"/>
<rect x="83.3073959" y="6.4912972" transform="matrix(6.123234e-17 -1 1 6.123234e-17 76.3200378 90.7199554)" fill="#EBAD4F" stroke="#D76543" stroke-width="0.02" stroke-miterlimit="10" width="0.4251969" height="1.4173229"/>
<line fill="none" stroke="#D76543" stroke-width="0.02" stroke-miterlimit="10" x1="82.4675369" y1="7.7705317" x2="82.8113327" y2="7.4125571"/>
<line fill="none" stroke="#D76543" stroke-width="0.02" stroke-miterlimit="10" x1="82.8113327" y1="6.9873605" x2="82.4675369" y2="6.6366735"/>
<line fill="none" stroke="#D76543" stroke-width="0.02" stroke-miterlimit="10" x1="84.2286606" y1="6.9873605" x2="84.5651703" y2="6.6366735"/>
<line fill="none" stroke="#D76543" stroke-width="0.02" stroke-miterlimit="10" x1="84.2286606" y1="7.4125571" x2="84.5651703" y2="7.7705317"/>
<rect x="90.1494217" y="6.1547837" transform="matrix(6.123234e-17 -1 1 6.123234e-17 83.5127487 97.91996)" fill="#E39344" stroke="#D76543" stroke-width="0.02" stroke-miterlimit="10" width="1.1338583" height="2.0976379"/>
<rect x="90.5074005" y="6.4912972" transform="matrix(6.123234e-17 -1 1 6.123234e-17 83.5200424 97.91996)" fill="#EBAD4F" stroke="#D76543" stroke-width="0.02" stroke-miterlimit="10" width="0.4251969" height="1.4173229"/>
<line fill="none" stroke="#D76543" stroke-width="0.02" stroke-miterlimit="10" x1="89.6675339" y1="7.7705317" x2="90.0113373" y2="7.4125571"/>
<line fill="none" stroke="#D76543" stroke-width="0.02" stroke-miterlimit="10" x1="90.0113373" y1="6.9873605" x2="89.6675339" y2="6.6366735"/>
<line fill="none" stroke="#D76543" stroke-width="0.02" stroke-miterlimit="10" x1="91.4286575" y1="6.9873605" x2="91.7651749" y2="6.6366735"/>
<line fill="none" stroke="#D76543" stroke-width="0.02" stroke-miterlimit="10" x1="91.4286575" y1="7.4125571" x2="91.7651749" y2="7.7705317"/>
<rect x="97.3494263" y="6.1547837" transform="matrix(6.123234e-17 -1 1 6.123234e-17 90.7127533 105.119957)" fill="#E39344" stroke="#D76543" stroke-width="0.02" stroke-miterlimit="10" width="1.1338583" height="2.0976379"/>
<rect x="97.7073975" y="6.4912972" transform="matrix(6.123234e-17 -1 1 6.123234e-17 90.7200394 105.119957)" fill="#EBAD4F" stroke="#D76543" stroke-width="0.02" stroke-miterlimit="10" width="0.4251969" height="1.4173229"/>
<line fill="none" stroke="#D76543" stroke-width="0.02" stroke-miterlimit="10" x1="96.8675385" y1="7.7705317" x2="97.2113342" y2="7.4125571"/>
<line fill="none" stroke="#D76543" stroke-width="0.02" stroke-miterlimit="10" x1="97.2113342" y1="6.9873605" x2="96.8675385" y2="6.6366735"/>
<line fill="none" stroke="#D76543" stroke-width="0.02" stroke-miterlimit="10" x1="98.6286621" y1="6.9873605" x2="98.9651718" y2="6.6366735"/>
<line fill="none" stroke="#D76543" stroke-width="0.02" stroke-miterlimit="10" x1="98.6286621" y1="7.4125571" x2="98.9651718" y2="7.7705317"/>
<rect x="104.5494232" y="6.1547837" transform="matrix(6.123234e-17 -1 1 6.123234e-17 97.9127502 112.3199539)" fill="#E39344" stroke="#D76543" stroke-width="0.02" stroke-miterlimit="10" width="1.1338583" height="2.0976379"/>
<rect x="104.907402" y="6.4912972" transform="matrix(6.123234e-17 -1 1 6.123234e-17 97.9200363 112.3199539)" fill="#EBAD4F" stroke="#D76543" stroke-width="0.02" stroke-miterlimit="10" width="0.4251969" height="1.4173229"/>
<line fill="none" stroke="#D76543" stroke-width="0.02" stroke-miterlimit="10" x1="104.0675354" y1="7.7705317" x2="104.4113388" y2="7.4125571"/>
<line fill="none" stroke="#D76543" stroke-width="0.02" stroke-miterlimit="10" x1="104.4113388" y1="6.9873605" x2="104.0675354" y2="6.6366735"/>
<line fill="none" stroke="#D76543" stroke-width="0.02" stroke-miterlimit="10" x1="105.8286591" y1="6.9873605" x2="106.1651764" y2="6.6366735"/>
<line fill="none" stroke="#D76543" stroke-width="0.02" stroke-miterlimit="10" x1="105.8286591" y1="7.4125571" x2="106.1651764" y2="7.7705317"/>
<rect x="111.7494278" y="6.1547837" transform="matrix(6.123234e-17 -1 1 6.123234e-17 105.1127548 119.5199585)" fill="#E39344" stroke="#D76543" stroke-width="0.02" stroke-miterlimit="10" width="1.1338583" height="2.0976379"/>
<rect x="112.107399" y="6.4912972" transform="matrix(6.123234e-17 -1 1 6.123234e-17 105.1200409 119.5199585)" fill="#EBAD4F" stroke="#D76543" stroke-width="0.02" stroke-miterlimit="10" width="0.4251969" height="1.4173229"/>
<line fill="none" stroke="#D76543" stroke-width="0.02" stroke-miterlimit="10" x1="111.2675323" y1="7.7705317" x2="111.6113358" y2="7.4125571"/>
<line fill="none" stroke="#D76543" stroke-width="0.02" stroke-miterlimit="10" x1="111.6113358" y1="6.9873605" x2="111.2675323" y2="6.6366735"/>
<line fill="none" stroke="#D76543" stroke-width="0.02" stroke-miterlimit="10" x1="113.028656" y1="6.9873605" x2="113.3651733" y2="6.6366735"/>
<line fill="none" stroke="#D76543" stroke-width="0.02" stroke-miterlimit="10" x1="113.028656" y1="7.4125571" x2="113.3651733" y2="7.7705317"/>
<rect x="118.9494247" y="6.1547837" transform="matrix(6.123234e-17 -1 1 6.123234e-17 112.3127518 126.7199554)" fill="#E39344" stroke="#D76543" stroke-width="0.02" stroke-miterlimit="10" width="1.1338583" height="2.0976379"/>
<rect x="119.3073959" y="6.4912972" transform="matrix(6.123234e-17 -1 1 6.123234e-17 112.3200378 126.7199554)" fill="#EBAD4F" stroke="#D76543" stroke-width="0.02" stroke-miterlimit="10" width="0.4251969" height="1.4173229"/>
<line fill="none" stroke="#D76543" stroke-width="0.02" stroke-miterlimit="10" x1="118.4675369" y1="7.7705317" x2="118.8113327" y2="7.4125571"/>
<line fill="none" stroke="#D76543" stroke-width="0.02" stroke-miterlimit="10" x1="118.8113327" y1="6.9873605" x2="118.4675369" y2="6.6366735"/>
<line fill="none" stroke="#D76543" stroke-width="0.02" stroke-miterlimit="10" x1="120.2286606" y1="6.9873605" x2="120.5651703" y2="6.6366735"/>
<line fill="none" stroke="#D76543" stroke-width="0.02" stroke-miterlimit="10" x1="120.2286606" y1="7.4125571" x2="120.5651703" y2="7.7705317"/>
<rect x="126.1530685" y="6.1547837" transform="matrix(6.123234e-17 -1 1 6.123234e-17 119.5163956 133.9235992)" fill="#E39344" stroke="#D76543" stroke-width="0.02" stroke-miterlimit="10" width="1.1338583" height="2.0976379"/>
<rect x="126.5110397" y="6.4912972" transform="matrix(6.123234e-17 -1 1 6.123234e-17 119.5236816 133.9235992)" fill="#EBAD4F" stroke="#D76543" stroke-width="0.02" stroke-miterlimit="10" width="0.4251969" height="1.4173229"/>
<line fill="none" stroke="#D76543" stroke-width="0.02" stroke-miterlimit="10" x1="125.6711807" y1="7.7705317" x2="126.0149765" y2="7.4125571"/>
<line fill="none" stroke="#D76543" stroke-width="0.02" stroke-miterlimit="10" x1="126.0149765" y1="6.9873605" x2="125.6711807" y2="6.6366735"/>
<line fill="none" stroke="#D76543" stroke-width="0.02" stroke-miterlimit="10" x1="127.4323044" y1="6.9873605" x2="127.7688141" y2="6.6366735"/>
<line fill="none" stroke="#D76543" stroke-width="0.02" stroke-miterlimit="10" x1="127.4323044" y1="7.4125571" x2="127.7688141" y2="7.7705317"/>
<rect x="133.3494263" y="6.1547837" transform="matrix(6.123234e-17 -1 1 6.123234e-17 126.7127533 141.1199493)" fill="#E39344" stroke="#D76543" stroke-width="0.02" stroke-miterlimit="10" width="1.1338583" height="2.0976379"/>
<rect x="133.7073975" y="6.4912972" transform="matrix(6.123234e-17 -1 1 6.123234e-17 126.7200394 141.1199493)" fill="#EBAD4F" stroke="#D76543" stroke-width="0.02" stroke-miterlimit="10" width="0.4251969" height="1.4173229"/>
<line fill="none" stroke="#D76543" stroke-width="0.02" stroke-miterlimit="10" x1="132.8675385" y1="7.7705317" x2="133.2113342" y2="7.4125571"/>
<line fill="none" stroke="#D76543" stroke-width="0.02" stroke-miterlimit="10" x1="133.2113342" y1="6.9873605" x2="132.8675385" y2="6.6366735"/>
<line fill="none" stroke="#D76543" stroke-width="0.02" stroke-miterlimit="10" x1="134.6286621" y1="6.9873605" x2="134.9651794" y2="6.6366735"/>
<line fill="none" stroke="#D76543" stroke-width="0.02" stroke-miterlimit="10" x1="134.6286621" y1="7.4125571" x2="134.9651794" y2="7.7705317"/>
<rect x="140.5494232" y="6.1547837" transform="matrix(6.123234e-17 -1 1 6.123234e-17 133.9127502 148.3199615)" fill="#E39344" stroke="#D76543" stroke-width="0.02" stroke-miterlimit="10" width="1.1338583" height="2.0976379"/>
<rect x="140.9073944" y="6.4912972" transform="matrix(6.123234e-17 -1 1 6.123234e-17 133.9200439 148.3199615)" fill="#EBAD4F" stroke="#D76543" stroke-width="0.02" stroke-miterlimit="10" width="0.4251969" height="1.4173229"/>
<line fill="none" stroke="#D76543" stroke-width="0.02" stroke-miterlimit="10" x1="140.0675354" y1="7.7705317" x2="140.4113312" y2="7.4125571"/>
<line fill="none" stroke="#D76543" stroke-width="0.02" stroke-miterlimit="10" x1="140.4113312" y1="6.9873605" x2="140.0675354" y2="6.6366735"/>
<line fill="none" stroke="#D76543" stroke-width="0.02" stroke-miterlimit="10" x1="141.8286591" y1="6.9873605" x2="142.1651764" y2="6.6366735"/>
<line fill="none" stroke="#D76543" stroke-width="0.02" stroke-miterlimit="10" x1="141.8286591" y1="7.4125571" x2="142.1651764" y2="7.7705317"/>
<rect x="64.2330704" y="142.9254913" transform="matrix(6.123234e-17 -1 1 6.123234e-17 -79.1743088 208.7743073)" fill="#E39344" stroke="#D76543" stroke-width="0.02" stroke-miterlimit="10" width="1.1338583" height="2.0976379"/>
<rect x="64.5910416" y="143.2620087" transform="matrix(6.123234e-17 -1 1 6.123234e-17 -79.1670227 208.7743073)" fill="#EBAD4F" stroke="#D76543" stroke-width="0.02" stroke-miterlimit="10" width="0.4251969" height="1.4173229"/>
<line fill="none" stroke="#D76543" stroke-width="0.02" stroke-miterlimit="10" x1="63.7511787" y1="144.5412445" x2="64.0949783" y2="144.1832581"/>
<line fill="none" stroke="#D76543" stroke-width="0.02" stroke-miterlimit="10" x1="64.0949783" y1="143.7580719" x2="63.7511787" y2="143.4073792"/>
<line fill="none" stroke="#D76543" stroke-width="0.02" stroke-miterlimit="10" x1="65.5123062" y1="143.7580719" x2="65.8488159" y2="143.4073792"/>
<line fill="none" stroke="#D76543" stroke-width="0.02" stroke-miterlimit="10" x1="65.5123062" y1="144.1832581" x2="65.8488159" y2="144.5412445"/>
<rect x="71.4294281" y="142.9547882" transform="matrix(6.123234e-17 -1 1 6.123234e-17 -72.0072479 215.9999542)" fill="#E39344" stroke="#D76543" stroke-width="0.02" stroke-miterlimit="10" width="1.1338583" height="2.0976379"/>
<rect x="71.7873993" y="143.2912903" transform="matrix(6.123234e-17 -1 1 6.123234e-17 -71.9999619 215.9999542)" fill="#EBAD4F" stroke="#D76543" stroke-width="0.02" stroke-miterlimit="10" width="0.4251969" height="1.4173229"/>
<line fill="none" stroke="#D76543" stroke-width="0.02" stroke-miterlimit="10" x1="70.9475327" y1="144.5705261" x2="71.2913361" y2="144.2125549"/>
<line fill="none" stroke="#D76543" stroke-width="0.02" stroke-miterlimit="10" x1="71.2913361" y1="143.7873535" x2="70.9475327" y2="143.436676"/>
<line fill="none" stroke="#D76543" stroke-width="0.02" stroke-miterlimit="10" x1="72.7086563" y1="143.7873535" x2="73.0451736" y2="143.436676"/>
<line fill="none" stroke="#D76543" stroke-width="0.02" stroke-miterlimit="10" x1="72.7086563" y1="144.2125549" x2="73.0451736" y2="144.5705261"/>
<rect x="78.629425" y="142.9547882" transform="matrix(6.123234e-17 -1 1 6.123234e-17 -64.807251 223.1999512)" fill="#E39344" stroke="#D76543" stroke-width="0.02" stroke-miterlimit="10" width="1.1338583" height="2.0976379"/>
<rect x="78.9873962" y="143.2912903" transform="matrix(6.123234e-17 -1 1 6.123234e-17 -64.7999649 223.1999512)" fill="#EBAD4F" stroke="#D76543" stroke-width="0.02" stroke-miterlimit="10" width="0.4251969" height="1.4173229"/>
<line fill="none" stroke="#D76543" stroke-width="0.02" stroke-miterlimit="10" x1="78.1475372" y1="144.5705261" x2="78.491333" y2="144.2125549"/>
<line fill="none" stroke="#D76543" stroke-width="0.02" stroke-miterlimit="10" x1="78.491333" y1="143.7873535" x2="78.1475372" y2="143.436676"/>
<line fill="none" stroke="#D76543" stroke-width="0.02" stroke-miterlimit="10" x1="79.9086609" y1="143.7873535" x2="80.2451706" y2="143.436676"/>
<line fill="none" stroke="#D76543" stroke-width="0.02" stroke-miterlimit="10" x1="79.9086609" y1="144.2125549" x2="80.2451706" y2="144.5705261"/>
<rect x="85.829422" y="142.9547882" transform="matrix(6.123234e-17 -1 1 6.123234e-17 -57.6072502 230.3999634)" fill="#E39344" stroke="#D76543" stroke-width="0.02" stroke-miterlimit="10" width="1.1338583" height="2.0976379"/>
<rect x="86.1874008" y="143.2912903" transform="matrix(6.123234e-17 -1 1 6.123234e-17 -57.5999603 230.3999634)" fill="#EBAD4F" stroke="#D76543" stroke-width="0.02" stroke-miterlimit="10" width="0.4251969" height="1.4173229"/>
<line fill="none" stroke="#D76543" stroke-width="0.02" stroke-miterlimit="10" x1="85.3475342" y1="144.5705261" x2="85.6913376" y2="144.2125549"/>
<line fill="none" stroke="#D76543" stroke-width="0.02" stroke-miterlimit="10" x1="85.6913376" y1="143.7873535" x2="85.3475342" y2="143.436676"/>
<line fill="none" stroke="#D76543" stroke-width="0.02" stroke-miterlimit="10" x1="87.1086578" y1="143.7873535" x2="87.4451752" y2="143.436676"/>
<line fill="none" stroke="#D76543" stroke-width="0.02" stroke-miterlimit="10" x1="87.1086578" y1="144.2125549" x2="87.4451752" y2="144.5705261"/>
<rect x="93.0294266" y="142.9547882" transform="matrix(6.123234e-17 -1 1 6.123234e-17 -50.4072495 237.5999603)" fill="#E39344" stroke="#D76543" stroke-width="0.02" stroke-miterlimit="10" width="1.1338583" height="2.0976379"/>
<rect x="93.3873978" y="143.2912903" transform="matrix(6.123234e-17 -1 1 6.123234e-17 -50.3999596 237.5999603)" fill="#EBAD4F" stroke="#D76543" stroke-width="0.02" stroke-miterlimit="10" width="0.4251969" height="1.4173229"/>
<line fill="none" stroke="#D76543" stroke-width="0.02" stroke-miterlimit="10" x1="92.5475388" y1="144.5705261" x2="92.8913345" y2="144.2125549"/>
<line fill="none" stroke="#D76543" stroke-width="0.02" stroke-miterlimit="10" x1="92.8913345" y1="143.7873535" x2="92.5475388" y2="143.436676"/>
<line fill="none" stroke="#D76543" stroke-width="0.02" stroke-miterlimit="10" x1="94.3086624" y1="143.7873535" x2="94.6451721" y2="143.436676"/>
<line fill="none" stroke="#D76543" stroke-width="0.02" stroke-miterlimit="10" x1="94.3086624" y1="144.2125549" x2="94.6451721" y2="144.5705261"/>
<rect x="100.2294235" y="142.9547882" transform="matrix(6.123234e-17 -1 1 6.123234e-17 -43.2072487 244.7999573)" fill="#E39344" stroke="#D76543" stroke-width="0.02" stroke-miterlimit="10" width="1.1338583" height="2.0976379"/>
<rect x="100.5874023" y="143.2912903" transform="matrix(6.123234e-17 -1 1 6.123234e-17 -43.1999626 244.7999573)" fill="#EBAD4F" stroke="#D76543" stroke-width="0.02" stroke-miterlimit="10" width="0.4251969" height="1.4173229"/>
<line fill="none" stroke="#D76543" stroke-width="0.02" stroke-miterlimit="10" x1="99.7475357" y1="144.5705261" x2="100.0913391" y2="144.2125549"/>
<line fill="none" stroke="#D76543" stroke-width="0.02" stroke-miterlimit="10" x1="100.0913391" y1="143.7873535" x2="99.7475357" y2="143.436676"/>
<line fill="none" stroke="#D76543" stroke-width="0.02" stroke-miterlimit="10" x1="101.5086594" y1="143.7873535" x2="101.8451691" y2="143.436676"/>
<line fill="none" stroke="#D76543" stroke-width="0.02" stroke-miterlimit="10" x1="101.5086594" y1="144.2125549" x2="101.8451691" y2="144.5705261"/>
<rect x="107.4294281" y="142.9547882" transform="matrix(6.123234e-17 -1 1 6.123234e-17 -36.0072479 251.9999542)" fill="#E39344" stroke="#D76543" stroke-width="0.02" stroke-miterlimit="10" width="1.1338583" height="2.0976379"/>
<rect x="107.7873993" y="143.2912903" transform="matrix(6.123234e-17 -1 1 6.123234e-17 -35.9999619 251.9999542)" fill="#EBAD4F" stroke="#D76543" stroke-width="0.02" stroke-miterlimit="10" width="0.4251969" height="1.4173229"/>
<line fill="none" stroke="#D76543" stroke-width="0.02" stroke-miterlimit="10" x1="106.9475327" y1="144.5705261" x2="107.2913361" y2="144.2125549"/>
<line fill="none" stroke="#D76543" stroke-width="0.02" stroke-miterlimit="10" x1="107.2913361" y1="143.7873535" x2="106.9475327" y2="143.436676"/>
<line fill="none" stroke="#D76543" stroke-width="0.02" stroke-miterlimit="10" x1="108.7086563" y1="143.7873535" x2="109.0451736" y2="143.436676"/>
<line fill="none" stroke="#D76543" stroke-width="0.02" stroke-miterlimit="10" x1="108.7086563" y1="144.2125549" x2="109.0451736" y2="144.5705261"/>
<rect x="114.629425" y="142.9547882" transform="matrix(6.123234e-17 -1 1 6.123234e-17 -28.8072491 259.1999512)" fill="#E39344" stroke="#D76543" stroke-width="0.02" stroke-miterlimit="10" width="1.1338583" height="2.0976379"/>
<rect x="114.9873962" y="143.2912903" transform="matrix(6.123234e-17 -1 1 6.123234e-17 -28.7999611 259.1999512)" fill="#EBAD4F" stroke="#D76543" stroke-width="0.02" stroke-miterlimit="10" width="0.4251969" height="1.4173229"/>
<line fill="none" stroke="#D76543" stroke-width="0.02" stroke-miterlimit="10" x1="114.1475372" y1="144.5705261" x2="114.491333" y2="144.2125549"/>
<line fill="none" stroke="#D76543" stroke-width="0.02" stroke-miterlimit="10" x1="114.491333" y1="143.7873535" x2="114.1475372" y2="143.436676"/>
<line fill="none" stroke="#D76543" stroke-width="0.02" stroke-miterlimit="10" x1="115.9086609" y1="143.7873535" x2="116.2451706" y2="143.436676"/>
<line fill="none" stroke="#D76543" stroke-width="0.02" stroke-miterlimit="10" x1="115.9086609" y1="144.2125549" x2="116.2451706" y2="144.5705261"/>
<rect x="49.8330917" y="142.9511414" transform="matrix(6.123234e-17 -1 1 6.123234e-17 -93.5999374 194.3999786)" fill="#E39344" stroke="#D76543" stroke-width="0.02" stroke-miterlimit="10" width="1.1338583" height="2.0976379"/>
<rect x="50.1910667" y="143.2876587" transform="matrix(6.123234e-17 -1 1 6.123234e-17 -93.5926514 194.3999786)" fill="#EBAD4F" stroke="#D76543" stroke-width="0.02" stroke-miterlimit="10" width="0.4251969" height="1.4173229"/>
<line fill="none" stroke="#D76543" stroke-width="0.02" stroke-miterlimit="10" x1="49.3512001" y1="144.5668945" x2="49.6950035" y2="144.2089081"/>
<line fill="none" stroke="#D76543" stroke-width="0.02" stroke-miterlimit="10" x1="49.6950035" y1="143.7837219" x2="49.3512001" y2="143.4330292"/>
<line fill="none" stroke="#D76543" stroke-width="0.02" stroke-miterlimit="10" x1="51.1123276" y1="143.7837219" x2="51.4488411" y2="143.4330292"/>
<line fill="none" stroke="#D76543" stroke-width="0.02" stroke-miterlimit="10" x1="51.1123276" y1="144.2089081" x2="51.4488411" y2="144.5668945"/>
<rect x="42.629425" y="142.9547882" transform="matrix(6.123234e-17 -1 1 6.123234e-17 -100.807251 187.1999512)" fill="#E39344" stroke="#D76543" stroke-width="0.02" stroke-miterlimit="10" width="1.1338583" height="2.0976379"/>
<rect x="42.9874001" y="143.2912903" transform="matrix(6.123234e-17 -1 1 6.123234e-17 -100.7999649 187.1999512)" fill="#EBAD4F" stroke="#D76543" stroke-width="0.02" stroke-miterlimit="10" width="0.4251969" height="1.4173229"/>
<line fill="none" stroke="#D76543" stroke-width="0.02" stroke-miterlimit="10" x1="42.1475334" y1="144.5705261" x2="42.4913368" y2="144.2125549"/>
<line fill="none" stroke="#D76543" stroke-width="0.02" stroke-miterlimit="10" x1="42.4913368" y1="143.7873535" x2="42.1475334" y2="143.436676"/>
<line fill="none" stroke="#D76543" stroke-width="0.02" stroke-miterlimit="10" x1="43.9086571" y1="143.7873535" x2="44.2451744" y2="143.436676"/>
<line fill="none" stroke="#D76543" stroke-width="0.02" stroke-miterlimit="10" x1="43.9086571" y1="144.2125549" x2="44.2451744" y2="144.5705261"/>
<rect x="35.4294243" y="142.9547882" transform="matrix(6.123234e-17 -1 1 6.123234e-17 -108.0072479 179.9999542)" fill="#E39344" stroke="#D76543" stroke-width="0.02" stroke-miterlimit="10" width="1.1338583" height="2.0976379"/>
<rect x="35.7873993" y="143.2912903" transform="matrix(6.123234e-17 -1 1 6.123234e-17 -107.9999619 179.9999542)" fill="#EBAD4F" stroke="#D76543" stroke-width="0.02" stroke-miterlimit="10" width="0.4251969" height="1.4173229"/>
<line fill="none" stroke="#D76543" stroke-width="0.02" stroke-miterlimit="10" x1="34.9475365" y1="144.5705261" x2="35.2913361" y2="144.2125549"/>
<line fill="none" stroke="#D76543" stroke-width="0.02" stroke-miterlimit="10" x1="35.2913361" y1="143.7873535" x2="34.9475365" y2="143.436676"/>
<line fill="none" stroke="#D76543" stroke-width="0.02" stroke-miterlimit="10" x1="36.7086601" y1="143.7873535" x2="37.0451736" y2="143.436676"/>
<line fill="none" stroke="#D76543" stroke-width="0.02" stroke-miterlimit="10" x1="36.7086601" y1="144.2125549" x2="37.0451736" y2="144.5705261"/>
<rect x="28.2294254" y="142.9547882" transform="matrix(6.123234e-17 -1 1 6.123234e-17 -115.2072449 172.7999573)" fill="#E39344" stroke="#D76543" stroke-width="0.02" stroke-miterlimit="10" width="1.1338583" height="2.0976379"/>
<rect x="28.5873985" y="143.2912903" transform="matrix(6.123234e-17 -1 1 6.123234e-17 -115.1999588 172.7999573)" fill="#EBAD4F" stroke="#D76543" stroke-width="0.02" stroke-miterlimit="10" width="0.4251969" height="1.4173229"/>
<line fill="none" stroke="#D76543" stroke-width="0.02" stroke-miterlimit="10" x1="27.7475357" y1="144.5705261" x2="28.0913353" y2="144.2125549"/>
<line fill="none" stroke="#D76543" stroke-width="0.02" stroke-miterlimit="10" x1="28.0913353" y1="143.7873535" x2="27.7475357" y2="143.436676"/>
<line fill="none" stroke="#D76543" stroke-width="0.02" stroke-miterlimit="10" x1="29.5086594" y1="143.7873535" x2="29.8451729" y2="143.436676"/>
<line fill="none" stroke="#D76543" stroke-width="0.02" stroke-miterlimit="10" x1="29.5086594" y1="144.2125549" x2="29.8451729" y2="144.5705261"/>
<rect x="21.0330772" y="142.9511414" transform="matrix(6.123234e-17 -1 1 6.123234e-17 -122.3999481 165.5999603)" fill="#E39344" stroke="#D76543" stroke-width="0.02" stroke-miterlimit="10" width="1.1338583" height="2.0976379"/>
<rect x="21.3910522" y="143.2876587" transform="matrix(6.123234e-17 -1 1 6.123234e-17 -122.392662 165.5999603)" fill="#EBAD4F" stroke="#D76543" stroke-width="0.02" stroke-miterlimit="10" width="0.4251969" height="1.4173229"/>
<line fill="none" stroke="#D76543" stroke-width="0.02" stroke-miterlimit="10" x1="20.5511875" y1="144.5668945" x2="20.894989" y2="144.2089081"/>
<line fill="none" stroke="#D76543" stroke-width="0.02" stroke-miterlimit="10" x1="20.894989" y1="143.7837219" x2="20.5511875" y2="143.4330292"/>
<line fill="none" stroke="#D76543" stroke-width="0.02" stroke-miterlimit="10" x1="22.3123131" y1="143.7837219" x2="22.6488266" y2="143.4330292"/>
<line fill="none" stroke="#D76543" stroke-width="0.02" stroke-miterlimit="10" x1="22.3123131" y1="144.2089081" x2="22.6488266" y2="144.5668945"/>
<rect x="13.8294249" y="142.9547882" transform="matrix(6.123234e-17 -1 1 6.123234e-17 -129.607254 158.3999634)" fill="#E39344" stroke="#D76543" stroke-width="0.02" stroke-miterlimit="10" width="1.1338583" height="2.0976379"/>
<rect x="14.1873989" y="143.2912903" transform="matrix(6.123234e-17 -1 1 6.123234e-17 -129.5999603 158.3999634)" fill="#EBAD4F" stroke="#D76543" stroke-width="0.02" stroke-miterlimit="10" width="0.4251969" height="1.4173229"/>
<line fill="none" stroke="#D76543" stroke-width="0.02" stroke-miterlimit="10" x1="13.3475351" y1="144.5705261" x2="13.6913357" y2="144.2125549"/>
<line fill="none" stroke="#D76543" stroke-width="0.02" stroke-miterlimit="10" x1="13.6913357" y1="143.7873535" x2="13.3475351" y2="143.436676"/>
<line fill="none" stroke="#D76543" stroke-width="0.02" stroke-miterlimit="10" x1="15.1086588" y1="143.7873535" x2="15.4451733" y2="143.436676"/>
<line fill="none" stroke="#D76543" stroke-width="0.02" stroke-miterlimit="10" x1="15.1086588" y1="144.2125549" x2="15.4451733" y2="144.5705261"/>
<g id="Переходные_отверстия_2_" opacity="0.6">
	<g>
		
			<circle fill="#E6E6E6" stroke="#E39344" stroke-width="0.7391897" stroke-miterlimit="10" cx="97.0972519" cy="54.1656189" r="1.0073529"/>
		
			<circle fill="#0D0E0F" stroke="#0D0E0F" stroke-width="0.5" stroke-miterlimit="10" cx="97.0972519" cy="54.1656189" r="0.6088235"/>
	</g>
	<g>
		
			<circle fill="#E6E6E6" stroke="#E39344" stroke-width="0.7391897" stroke-miterlimit="10" cx="172.4810791" cy="38.0317955" r="1.0073529"/>
		
			<circle fill="#0D0E0F" stroke="#0D0E0F" stroke-width="0.5" stroke-miterlimit="10" cx="172.4810791" cy="38.0317955" r="0.6088235"/>
	</g>
	<g>
		
			<circle fill="#E6E6E6" stroke="#E39344" stroke-width="0.7391897" stroke-miterlimit="10" cx="164.4237213" cy="29.1167412" r="1.0073529"/>
		
			<circle fill="#0D0E0F" stroke="#0D0E0F" stroke-width="0.5" stroke-miterlimit="10" cx="164.4237213" cy="29.1167412" r="0.6088235"/>
	</g>
	<g>
		
			<circle fill="#E6E6E6" stroke="#E39344" stroke-width="0.7391897" stroke-miterlimit="10" cx="164.4237213" cy="25.5214577" r="1.0073529"/>
		
			<circle fill="#0D0E0F" stroke="#0D0E0F" stroke-width="0.5" stroke-miterlimit="10" cx="164.4237213" cy="25.5214577" r="0.6088235"/>
	</g>
	<g>
		
			<circle fill="#E6E6E6" stroke="#E39344" stroke-width="0.7391897" stroke-miterlimit="10" cx="39.6272736" cy="101.7974854" r="1.0073529"/>
		
			<circle fill="#0D0E0F" stroke="#0D0E0F" stroke-width="0.5" stroke-miterlimit="10" cx="39.6272736" cy="101.7974854" r="0.6088235"/>
	</g>
</g>
<g id="Контакты_1_">
	<path fill="#CCCCCC" d="M37.2106056,113.0124359v-3.0384827h4.8333359v3.0384827
		c0,1.3346863-1.0819778,2.4166718-2.4166679,2.4166718C38.2925873,115.4291077,37.2106056,114.3471222,37.2106056,113.0124359z"/>
	<path fill="#CCCCCC" d="M42.0439415,106.7200317v3.0384827h-4.8333359v-3.0384827
		c0-1.3346863,1.0819817-2.4166641,2.4166679-2.4166641C40.9619637,104.3033676,42.0439415,105.3853455,42.0439415,106.7200317z"/>
	
		<line fill="#CCCCCC" stroke="#CCCCCC" stroke-width="0.5" stroke-miterlimit="10" x1="39.6272736" y1="107.0309372" x2="39.6272736" y2="112.7015305"/>
	<g>
		<path fill="#FFFFFF" d="M45.8279114,110.9836121c0,0.2558594-0.0771484,0.4521484-0.2314453,0.5898438
			c-0.1542969,0.1386719-0.3603516,0.2070313-0.6201172,0.2070313c-0.0625,0-0.1445313-0.0048828-0.2480469-0.0166016
			c-0.1035156-0.0107422-0.1894531-0.0244141-0.2597656-0.0400391v-0.3613281h0.0214844
			c0.0527344,0.0185547,0.1181641,0.0371094,0.1953125,0.0566406c0.078125,0.0195313,0.1572266,0.0292969,0.2382813,0.0292969
			c0.1191406,0,0.2138672-0.0136719,0.2841797-0.0410156s0.1220703-0.0664063,0.1552734-0.1171875
			c0.0351563-0.0517578,0.0576172-0.1152344,0.0673828-0.1914063c0.0097656-0.0751953,0.0146484-0.1621094,0.0146484-0.2617188
			v-1.6972656h-0.6103516v-0.3085938h0.9931641V110.9836121z"/>
		<path fill="#FFFFFF" d="M48.4597473,109.7101746c0,0.1289063-0.0224609,0.2490234-0.0668945,0.3583984
			c-0.0444336,0.1103516-0.1069336,0.2060547-0.1870117,0.2861328c-0.0996094,0.1005859-0.2167969,0.1757813-0.3525391,0.2255859
			c-0.1347656,0.0507813-0.3066406,0.0751953-0.5126953,0.0751953h-0.3837891v1.0839844h-0.3828125v-2.9082031h0.7822266
			c0.1728516,0,0.3193359,0.0146484,0.4394531,0.0439453s0.2265625,0.0751953,0.3193359,0.1376953
			c0.1098633,0.0742188,0.1948242,0.1669922,0.2548828,0.2773438
			C48.4299622,109.4015808,48.4597473,109.5412292,48.4597473,109.7101746z M48.0613098,109.7199402
			c0-0.0996094-0.0175781-0.1875-0.0527344-0.2617188s-0.0878906-0.1347656-0.1591797-0.1816406
			c-0.0615234-0.0400391-0.1318359-0.0693359-0.2119141-0.0869141c-0.0791016-0.0175781-0.1796875-0.0263672-0.3007813-0.0263672
			h-0.3798828v1.1621094h0.3232422c0.1552734,0,0.28125-0.0136719,0.3779297-0.0419922
			c0.0966797-0.0273438,0.1757813-0.0722656,0.2363281-0.1337891c0.0605469-0.0625,0.1035156-0.1279297,0.1289063-0.1972656
			C48.0486145,109.8840027,48.0613098,109.8058777,48.0613098,109.7199402z"/>
		<path fill="#FFFFFF" d="M52.6330872,111.7394714h-0.4086914l-0.2827148-0.8105469h-1.2470703l-0.2827148,0.8105469h-0.3891602
			l1.0498047-2.9082031h0.5112305L52.6330872,111.7394714z M51.8235168,110.5968933l-0.5053711-1.4277344l-0.5073242,1.4277344
			H51.8235168z"/>
		<path fill="#FFFFFF" d="M55.2707825,111.7394714h-0.4746094l-1.3671875-2.6015625v2.6015625h-0.3583984v-2.9082031h0.5947266
			l1.2470703,2.375v-2.375h0.3583984V111.7394714z"/>
		<path fill="#FFFFFF" d="M58.0940247,109.1750183h-1.0302734v2.5644531h-0.3833008v-2.5644531H55.650177v-0.34375h2.4438477
			V109.1750183z"/>
	</g>
</g>
<g id="Контакты">
	<path fill="#CCCCCC" d="M94.6805801,39.2631645v-3.0384827h4.8333359v3.0384827
		c0,1.3346863-1.0819778,2.4166679-2.4166641,2.4166679C95.762558,41.6798325,94.6805801,40.5978508,94.6805801,39.2631645z"/>
	<path fill="#CCCCCC" d="M99.513916,32.9707603v3.0384827h-4.8333359v-3.0384827
		c0-1.3346863,1.0819778-2.4166641,2.4166718-2.4166641C98.4319382,30.5540962,99.513916,31.6360741,99.513916,32.9707603z"/>
	
		<line fill="#CCCCCC" stroke="#CCCCCC" stroke-width="0.5" stroke-miterlimit="10" x1="97.0972519" y1="33.2816696" x2="97.0972519" y2="38.9522552"/>
	<g>
		<path fill="#FFFFFF" d="M103.3298645,37.2770691c0,0.2553711-0.0771484,0.4516602-0.2314453,0.5898438
			s-0.3603516,0.2070313-0.6201172,0.2070313c-0.0625,0-0.1445313-0.0053711-0.2480469-0.0166016
			s-0.1894531-0.0244141-0.2597656-0.0400391v-0.3613281h0.0214844c0.0527344,0.0180664,0.1181641,0.0371094,0.1953125,0.0566406
			c0.078125,0.0195313,0.1572266,0.0292969,0.2382813,0.0292969c0.1191406,0,0.2138672-0.0136719,0.2841797-0.0410156
			s0.1220703-0.0664063,0.1552734-0.1171875c0.0351563-0.0522461,0.0576172-0.1157227,0.0673828-0.1914063
			s0.0146484-0.1625977,0.0146484-0.2617188v-1.6972656h-0.6103516v-0.3085938h0.9931641V37.2770691z"/>
		<path fill="#FFFFFF" d="M105.9617004,36.0036316c0,0.1289063-0.0224609,0.2485352-0.0673828,0.3583984
			c-0.0439453,0.1098633-0.1064453,0.2055664-0.1865234,0.2861328c-0.0996094,0.1000977-0.2167969,0.175293-0.3525391,0.2255859
			c-0.1347656,0.050293-0.3066406,0.0751953-0.5126953,0.0751953h-0.3837891v1.0839844h-0.3828125v-2.9082031h0.7822266
			c0.1728516,0,0.3193359,0.0146484,0.4394531,0.0439453s0.2265625,0.0751953,0.3193359,0.1376953
			c0.109375,0.0742188,0.1953125,0.1665039,0.2548828,0.2773438S105.9617004,35.834198,105.9617004,36.0036316z
			 M105.5632629,36.0133972c0-0.1000977-0.0175781-0.1875-0.0527344-0.2617188s-0.0878906-0.1347656-0.1591797-0.1816406
			c-0.0615234-0.0405273-0.1318359-0.0693359-0.2119141-0.0869141c-0.0791016-0.0175781-0.1796875-0.0263672-0.3007813-0.0263672
			h-0.3798828v1.1621094h0.3232422c0.1552734,0,0.28125-0.0141602,0.3779297-0.0419922s0.1757813-0.0727539,0.2363281-0.1337891
			c0.0605469-0.0625,0.1035156-0.128418,0.1289063-0.1972656S105.5632629,36.0993347,105.5632629,36.0133972z"/>
		<path fill="#FFFFFF" d="M110.0115051,35.4587097c0.1171875,0.1303711,0.2070313,0.2895508,0.2695313,0.4785156
			s0.09375,0.402832,0.09375,0.6425781s-0.03125,0.4541016-0.0957031,0.6435547
			c-0.0634766,0.1894531-0.1523438,0.347168-0.2675781,0.4736328c-0.1191406,0.1313477-0.2597656,0.2304688-0.421875,0.296875
			s-0.3466797,0.0996094-0.5546875,0.0996094c-0.203125,0-0.3867188-0.0336914-0.5527344-0.1015625
			s-0.3066406-0.1660156-0.4228516-0.2949219s-0.2060547-0.2871094-0.2685547-0.4746094s-0.09375-0.4018555-0.09375-0.6425781
			c0-0.2368164,0.03125-0.449707,0.0927734-0.6376953s0.1523438-0.3491211,0.2714844-0.4833984
			c0.1132813-0.1274414,0.2548828-0.2250977,0.4228516-0.2929688s0.3515625-0.1015625,0.5507813-0.1015625
			c0.2070313,0,0.3925781,0.0341797,0.5566406,0.1025391C109.7566223,35.2350769,109.8962708,35.3322449,110.0115051,35.4587097z
			 M109.9763489,36.5798035c0-0.3774414-0.0839844-0.6689453-0.2519531-0.8740234s-0.3964844-0.3076172-0.6875-0.3076172
			c-0.2929688,0-0.5234375,0.1025391-0.6894531,0.3076172c-0.1679688,0.2050781-0.2519531,0.496582-0.2519531,0.8740234
			c0,0.3813477,0.0859375,0.6733398,0.2558594,0.8759766c0.1708984,0.2026367,0.3994141,0.3037109,0.6855469,0.3037109
			c0.2871094,0,0.515625-0.1010742,0.6845703-0.3037109C109.8913879,37.2531433,109.9763489,36.9611511,109.9763489,36.5798035z"/>
		<path fill="#FFFFFF" d="M112.8249817,35.4684753h-1.4580078v0.8203125h1.2519531v0.34375h-1.2519531v1.4003906h-0.3837891
			v-2.9082031h1.8417969V35.4684753z"/>
		<path fill="#FFFFFF" d="M115.1042786,35.4684753h-1.4580078v0.8203125h1.2519531v0.34375h-1.2519531v1.4003906h-0.3837891
			v-2.9082031h1.8417969V35.4684753z"/>
	</g>
</g>
<g id="прошивка_3_">
	<g>
		
			<circle fill="#0D0E0F" stroke="#CDC7BC" stroke-width="1.4429131" stroke-miterlimit="10" cx="179.8267822" cy="21.0231438" r="1.9663728"/>
		
			<circle fill="#0D0E0F" stroke="#0D0E0F" stroke-width="0.9760099" stroke-miterlimit="10" cx="179.8267822" cy="21.0231438" r="1.1884356"/>
	</g>
	<g>
		
			<circle fill="#0D0E0F" stroke="#CDC7BC" stroke-width="1.4429131" stroke-miterlimit="10" cx="179.8580322" cy="29.5621891" r="1.9663728"/>
		
			<circle fill="#0D0E0F" stroke="#0D0E0F" stroke-width="0.9760099" stroke-miterlimit="10" cx="179.8580322" cy="29.5621891" r="1.1884356"/>
	</g>
</g>
<g>
	<g>
		<g>
			<path fill="#4C4C4C" d="M141.9219055,139.0791321L141.9219055,139.0791321c1.1496582,0,2.0816345-0.9319916,2.0816345-2.0816498
				l0,0c0-1.1496582-0.9319763-2.0816498-2.0816345-2.0816498l0,0c-1.1496735,0-2.0816498,0.9319916-2.0816498,2.0816498l0,0
				C139.8402557,138.1471405,140.7722321,139.0791321,141.9219055,139.0791321z"/>
		</g>
	</g>
	
		<rect x="141.4019012" y="135.9486694" fill="#E39344" stroke="#D76543" stroke-width="0.02" stroke-miterlimit="10" width="1.1338583" height="2.0976379"/>
	
		<rect x="141.7598877" y="136.2924652" fill="#EBAD4F" stroke="#D76543" stroke-width="0.02" stroke-miterlimit="10" width="0.4251969" height="1.4173229"/>
	
		<line fill="none" stroke="#D76543" stroke-width="0.02" stroke-miterlimit="10" x1="141.4019012" y1="135.9486694" x2="141.7598877" y2="136.2924652"/>
	
		<line fill="none" stroke="#D76543" stroke-width="0.02" stroke-miterlimit="10" x1="142.1850739" y1="136.2924652" x2="142.5357666" y2="135.9486694"/>
	
		<line fill="none" stroke="#D76543" stroke-width="0.02" stroke-miterlimit="10" x1="142.1850739" y1="137.7097931" x2="142.5357666" y2="138.0462952"/>
	
		<line fill="none" stroke="#D76543" stroke-width="0.02" stroke-miterlimit="10" x1="141.7598877" y1="137.7097931" x2="141.4019012" y2="138.0462952"/>
</g>
<path fill="#CEC7BD" d="M141.896347,141.7256317c1.227356,0,2.2224731,1.0018463,2.2224731,2.2397308
	c0,1.2378998-0.9951172,2.2415466-2.2224731,2.2415466c-1.2273712,0-2.2224731-1.0036469-2.2224731-2.2415466
	C139.6738739,142.727478,140.6689758,141.7256317,141.896347,141.7256317z"/>
<ellipse fill="#918C84" cx="141.896347" cy="143.9662781" rx="1.5185714" ry="1.5316002"/>
<path fill="#CEC7BD" d="M141.896347,134.5221863c1.227356,0,2.2224731,1.0018463,2.2224731,2.2397308
	c0,1.2378998-0.9951172,2.2415466-2.2224731,2.2415466c-1.2273712,0-2.2224731-1.0036469-2.2224731-2.2415466
	C139.6738739,135.5240326,140.6689758,134.5221863,141.896347,134.5221863z"/>
<ellipse fill="#918C84" cx="141.896347" cy="136.7628174" rx="1.5185714" ry="1.5316002"/>
<path fill="#CEC7BD" d="M141.9301605,118.4261627c1.227356,0,2.2224731,1.0018463,2.2224731,2.2397385
	s-0.9951172,2.241539-2.2224731,2.241539c-1.2273712,0-2.2224884-1.0036469-2.2224884-2.241539
	S140.7027893,118.4261627,141.9301605,118.4261627z"/>
<ellipse fill="#918C84" cx="141.9301605" cy="120.6668015" rx="1.5185714" ry="1.5316002"/>
<path fill="#CEC7BD" d="M141.9301605,111.2109604c1.227356,0,2.2224731,1.0018463,2.2224731,2.2397385
	s-0.9951172,2.2415466-2.2224731,2.2415466c-1.2273712,0-2.2224884-1.0036545-2.2224884-2.2415466
	S140.7027893,111.2109604,141.9301605,111.2109604z"/>
<ellipse fill="#918C84" cx="141.9301605" cy="113.4515991" rx="1.5185714" ry="1.5316002"/>
<g id="прошивка_1_">
	<path fill="#CDC7BC" stroke="#CDC7BC" stroke-width="0.1" stroke-miterlimit="10" d="M47.6705322,122.465889
		c0,1.4799805,1.199707,2.6796875,2.6796875,2.6796875c1.4799194,0,2.6796875-1.199707,2.6796875-2.6796875
		c0-1.4799194-1.1997681-2.6796875-2.6796875-2.6796875C48.8702393,119.7862015,47.6705322,120.9859695,47.6705322,122.465889z
		 M52.1220703,122.465889c0,0.9786377-0.7932739,1.7719116-1.7718506,1.7719116s-1.7719116-0.7932739-1.7719116-1.7719116
		c0-0.9785767,0.793335-1.7718506,1.7719116-1.7718506S52.1220703,121.4873123,52.1220703,122.465889z"/>
	<path fill="#CDC7BC" stroke="#CDC7BC" stroke-width="0.1" stroke-miterlimit="10" d="M54.8419495,122.465889
		c0,1.4799805,1.199707,2.6796875,2.6796875,2.6796875c1.4799194,0,2.6796875-1.199707,2.6796875-2.6796875
		c0-1.4799194-1.1997681-2.6796875-2.6796875-2.6796875C56.0416565,119.7862015,54.8419495,120.9859695,54.8419495,122.465889z
		 M59.2934875,122.465889c0,0.9786377-0.7932739,1.7719116-1.7718506,1.7719116s-1.7719116-0.7932739-1.7719116-1.7719116
		c0-0.9785767,0.793335-1.7718506,1.7719116-1.7718506S59.2934875,121.4873123,59.2934875,122.465889z"/>
	<path fill="#CDC7BC" stroke="#CDC7BC" stroke-width="0.1" stroke-miterlimit="10" d="M62.0056725,122.465889
		c0,1.4799805,1.199707,2.6796875,2.6796837,2.6796875c1.4799194,0,2.6796875-1.199707,2.6796875-2.6796875
		c0-1.4799194-1.1997681-2.6796875-2.6796875-2.6796875C63.2053795,119.7862015,62.0056725,120.9859695,62.0056725,122.465889z
		 M66.4572067,122.465889c0,0.9786377-0.7932739,1.7719116-1.7718506,1.7719116
		c-0.9785728,0-1.7719078-0.7932739-1.7719078-1.7719116c0-0.9785767,0.793335-1.7718506,1.7719078-1.7718506
		C65.6639328,120.6940384,66.4572067,121.4873123,66.4572067,122.465889z"/>
	<path fill="#CDC7BC" stroke="#CDC7BC" stroke-width="0.1" stroke-miterlimit="10" d="M69.1693954,122.465889
		c0,1.4799805,1.199707,2.6796875,2.6796875,2.6796875c1.4799194,0,2.6796875-1.199707,2.6796875-2.6796875
		c0-1.4799194-1.1997681-2.6796875-2.6796875-2.6796875C70.3691025,119.7862015,69.1693954,120.9859695,69.1693954,122.465889z
		 M73.6209335,122.465889c0,0.9786377-0.7932739,1.7719116-1.7718506,1.7719116s-1.7719116-0.7932739-1.7719116-1.7719116
		c0-0.9785767,0.793335-1.7718506,1.7719116-1.7718506S73.6209335,121.4873123,73.6209335,122.465889z"/>
</g>
<g id="разъем_1_">
	<path fill="#FFFFFF" stroke="#0D0E0F" stroke-width="0.1035482" stroke-miterlimit="10" d="M4.8971558,79.2991333
		c0,1.3045654,1.0576172,2.3621826,2.3621826,2.3621826c1.3046265,0,2.3622437-1.0576172,2.3622437-2.3621826
		c0-1.3046265-1.0576172-2.3622437-2.3622437-2.3622437C5.9547729,76.9368896,4.8971558,77.9945068,4.8971558,79.2991333z
		 M8.3435669,79.2990723c0,0.5988159-0.4854126,1.0842285-1.0842285,1.0842285
		c-0.5987549,0-1.0841675-0.4854126-1.0841675-1.0842285c0-0.5987549,0.4854126-1.0841675,1.0841675-1.0841675
		C7.8581543,78.2149048,8.3435669,78.7003174,8.3435669,79.2990723z"/>
	<path fill="#CDC7BC" stroke="#0D0E0F" stroke-width="0.0950539" stroke-miterlimit="10" d="M5.0909424,79.2991333
		c0,1.1975708,0.9708252,2.168396,2.168396,2.168396c1.1976318,0,2.168457-0.9708252,2.168457-2.168396
		c0-1.1976318-0.9708252-2.168457-2.168457-2.168457C6.0617676,77.1306763,5.0909424,78.1015015,5.0909424,79.2991333z
		 M8.3435669,79.2991333c0,0.5987549-0.4854126,1.0841675-1.0842285,1.0841675
		c-0.5987549,0-1.0841675-0.4854126-1.0841675-1.0841675c0-0.5988159,0.4854126-1.0842285,1.0841675-1.0842285
		C7.8581543,78.2149048,8.3435669,78.7003174,8.3435669,79.2991333z"/>
	<path fill="#FFFFFF" stroke="#0D0E0F" stroke-width="0.1035482" stroke-miterlimit="10" d="M4.8971558,72.0517273
		c0,1.3045654,1.0576172,2.3621826,2.3621826,2.3621826c1.3046265,0,2.3622437-1.0576172,2.3622437-2.3621826
		c0-1.3046265-1.0576172-2.3622437-2.3622437-2.3622437C5.9547729,69.6894836,4.8971558,70.7471008,4.8971558,72.0517273z
		 M8.3435669,72.0516663c0,0.5988159-0.4854126,1.0842285-1.0842285,1.0842285
		c-0.5987549,0-1.0841675-0.4854126-1.0841675-1.0842285c0-0.5987549,0.4854126-1.0841675,1.0841675-1.0841675
		C7.8581543,70.9674988,8.3435669,71.4529114,8.3435669,72.0516663z"/>
	<path fill="#CDC7BC" stroke="#0D0E0F" stroke-width="0.0950539" stroke-miterlimit="10" d="M5.0909424,72.0517273
		c0,1.1975708,0.9708252,2.168396,2.168396,2.168396c1.1976318,0,2.168457-0.9708252,2.168457-2.168396
		c0-1.1976318-0.9708252-2.168457-2.168457-2.168457C6.0617676,69.8832703,5.0909424,70.8540955,5.0909424,72.0517273z
		 M8.3435669,72.0517273c0,0.5987549-0.4854126,1.0841675-1.0842285,1.0841675
		c-0.5987549,0-1.0841675-0.4854126-1.0841675-1.0841675c0-0.5988159,0.4854126-1.0842285,1.0841675-1.0842285
		C7.8581543,70.9674988,8.3435669,71.4529114,8.3435669,72.0517273z"/>
	<path fill="#FFFFFF" stroke="#0D0E0F" stroke-width="0.1035482" stroke-miterlimit="10" d="M4.8971558,64.879837
		c0,1.3045654,1.0576172,2.3621826,2.3621826,2.3621826c1.3046265,0,2.3622437-1.0576172,2.3622437-2.3621826
		c0-1.3046265-1.0576172-2.3622437-2.3622437-2.3622437C5.9547729,62.5175934,4.8971558,63.5752106,4.8971558,64.879837z
		 M8.3435669,64.879776c0,0.5988159-0.4854126,1.0842285-1.0842285,1.0842285c-0.5987549,0-1.0841675-0.4854126-1.0841675-1.0842285
		c0-0.5987549,0.4854126-1.0841675,1.0841675-1.0841675C7.8581543,63.7956085,8.3435669,64.2810211,8.3435669,64.879776z"/>
	<path fill="#CDC7BC" stroke="#0D0E0F" stroke-width="0.0950539" stroke-miterlimit="10" d="M5.0909424,64.879837
		c0,1.1975708,0.9708252,2.168396,2.168396,2.168396c1.1976318,0,2.168457-0.9708252,2.168457-2.168396
		c0-1.1976318-0.9708252-2.168457-2.168457-2.168457C6.0617676,62.71138,5.0909424,63.6822052,5.0909424,64.879837z
		 M8.3435669,64.879837c0,0.5987549-0.4854126,1.0841675-1.0842285,1.0841675c-0.5987549,0-1.0841675-0.4854126-1.0841675-1.0841675
		c0-0.5988159,0.4854126-1.0842285,1.0841675-1.0842285C7.8581543,63.7956085,8.3435669,64.2810211,8.3435669,64.879837z"/>
	<path fill="#FFFFFF" stroke="#0D0E0F" stroke-width="0.1035482" stroke-miterlimit="10" d="M12.0708618,79.2991333
		c0,1.3045654,1.0576172,2.3621826,2.3621826,2.3621826c1.3046265,0,2.3622437-1.0576172,2.3622437-2.3621826
		c0-1.3046265-1.0576172-2.3622437-2.3622437-2.3622437C13.128479,76.9368896,12.0708618,77.9945068,12.0708618,79.2991333z
		 M15.5172729,79.2990723c0,0.5988159-0.4854126,1.0842285-1.0842285,1.0842285
		c-0.5987549,0-1.0841675-0.4854126-1.0841675-1.0842285c0-0.5987549,0.4854126-1.0841675,1.0841675-1.0841675
		C15.0318604,78.2149048,15.5172729,78.7003174,15.5172729,79.2990723z"/>
	<path fill="#CDC7BC" stroke="#0D0E0F" stroke-width="0.0950539" stroke-miterlimit="10" d="M12.2646484,79.2991333
		c0,1.1975708,0.9708252,2.168396,2.168396,2.168396c1.1976318,0,2.168457-0.9708252,2.168457-2.168396
		c0-1.1976318-0.9708252-2.168457-2.168457-2.168457C13.2354736,77.1306763,12.2646484,78.1015015,12.2646484,79.2991333z
		 M15.5172729,79.2991333c0,0.5987549-0.4854126,1.0841675-1.0842285,1.0841675
		c-0.5987549,0-1.0841675-0.4854126-1.0841675-1.0841675c0-0.5988159,0.4854126-1.0842285,1.0841675-1.0842285
		C15.0318604,78.2149048,15.5172729,78.7003174,15.5172729,79.2991333z"/>
	<path fill="#FFFFFF" stroke="#0D0E0F" stroke-width="0.1035482" stroke-miterlimit="10" d="M12.0708618,72.0517273
		c0,1.3045654,1.0576172,2.3621826,2.3621826,2.3621826c1.3046265,0,2.3622437-1.0576172,2.3622437-2.3621826
		c0-1.3046265-1.0576172-2.3622437-2.3622437-2.3622437C13.128479,69.6894836,12.0708618,70.7471008,12.0708618,72.0517273z
		 M15.5172729,72.0516663c0,0.5988159-0.4854126,1.0842285-1.0842285,1.0842285
		c-0.5987549,0-1.0841675-0.4854126-1.0841675-1.0842285c0-0.5987549,0.4854126-1.0841675,1.0841675-1.0841675
		C15.0318604,70.9674988,15.5172729,71.4529114,15.5172729,72.0516663z"/>
	<path fill="#CDC7BC" stroke="#0D0E0F" stroke-width="0.0950539" stroke-miterlimit="10" d="M12.2646484,72.0517273
		c0,1.1975708,0.9708252,2.168396,2.168396,2.168396c1.1976318,0,2.168457-0.9708252,2.168457-2.168396
		c0-1.1976318-0.9708252-2.168457-2.168457-2.168457C13.2354736,69.8832703,12.2646484,70.8540955,12.2646484,72.0517273z
		 M15.5172729,72.0517273c0,0.5987549-0.4854126,1.0841675-1.0842285,1.0841675
		c-0.5987549,0-1.0841675-0.4854126-1.0841675-1.0841675c0-0.5988159,0.4854126-1.0842285,1.0841675-1.0842285
		C15.0318604,70.9674988,15.5172729,71.4529114,15.5172729,72.0517273z"/>
	<path fill="#FFFFFF" stroke="#0D0E0F" stroke-width="0.1035482" stroke-miterlimit="10" d="M12.0708618,64.879837
		c0,1.3045654,1.0576172,2.3621826,2.3621826,2.3621826c1.3046265,0,2.3622437-1.0576172,2.3622437-2.3621826
		c0-1.3046265-1.0576172-2.3622437-2.3622437-2.3622437C13.128479,62.5175934,12.0708618,63.5752106,12.0708618,64.879837z
		 M15.5172729,64.879776c0,0.5988159-0.4854126,1.0842285-1.0842285,1.0842285
		c-0.5987549,0-1.0841675-0.4854126-1.0841675-1.0842285c0-0.5987549,0.4854126-1.0841675,1.0841675-1.0841675
		C15.0318604,63.7956085,15.5172729,64.2810211,15.5172729,64.879776z"/>
	<path fill="#CDC7BC" stroke="#0D0E0F" stroke-width="0.0950539" stroke-miterlimit="10" d="M12.2646484,64.879837
		c0,1.1975708,0.9708252,2.168396,2.168396,2.168396c1.1976318,0,2.168457-0.9708252,2.168457-2.168396
		c0-1.1976318-0.9708252-2.168457-2.168457-2.168457C13.2354736,62.71138,12.2646484,63.6822052,12.2646484,64.879837z
		 M15.5172729,64.879837c0,0.5987549-0.4854126,1.0841675-1.0842285,1.0841675
		c-0.5987549,0-1.0841675-0.4854126-1.0841675-1.0841675c0-0.5988159,0.4854126-1.0842285,1.0841675-1.0842285
		C15.0318604,63.7956085,15.5172729,64.2810211,15.5172729,64.879837z"/>
</g>
<polygon fill="#FFFFFF" stroke="#0D0E0F" stroke-width="0.25" stroke-miterlimit="10" points="65.7642822,69.77285 
	62.3580322,69.77285 62.3580322,79.2416 76.8267822,79.2416 76.8267822,74.9291077 73.7330322,74.9291077 73.7330322,77.64785 
	67.5455322,77.64785 67.5455322,74.9291077 65.8267822,74.9291077 "/>
<polygon fill="#FFFFFF" stroke="#0D0E0F" stroke-width="0.25" stroke-miterlimit="10" points="65.7642822,68.21035 
	62.3580322,68.21035 62.3580322,58.6791077 92.7955322,58.6791077 92.7955322,68.21035 89.3014145,68.21035 89.3014145,63.0445404 
	80.6190643,63.0210114 80.6190643,60.3033638 74.5142822,60.3033638 74.5142822,63.0210114 65.7642822,63.0210114 "/>
<polygon fill="#FFFFFF" stroke="#0D0E0F" stroke-width="0.25" stroke-miterlimit="10" points="78.3267822,74.9291077 
	78.3267822,79.2416 92.7955322,79.2416 92.7955322,69.77285 89.3014145,69.77285 89.3014145,74.9291077 87.5455322,74.9291077 
	87.5455322,77.6166 81.4205322,77.64785 81.4205322,74.9291077 "/>
<rect x="68.6896515" y="73.9857178" fill="#FFFFFF" stroke="#0D0E0F" stroke-width="0.25" stroke-miterlimit="10" width="3.8117647" height="2.4352942"/>
<rect x="75.6425934" y="61.4798355" fill="#FFFFFF" stroke="#0D0E0F" stroke-width="0.25" stroke-miterlimit="10" width="3.8235295" height="2.4470589"/>
<rect x="82.5924072" y="73.9916" fill="#FFFFFF" stroke="#0D0E0F" stroke-width="0.25" stroke-miterlimit="10" width="3.859375" height="2.4375064"/>
<g>
	<path fill="#FFFFFF" d="M96.2400208,70.7638855V58.7521667h1.9038086v12.0117188H96.2400208z"/>
	<path fill="#FFFFFF" d="M99.0329895,70.7638855l1.9306641-12.0117188h2.9414063l1.9316406,12.0117188h-1.9042969
		l-0.331543-2.1777344h-2.3339844l-0.3300781,2.1777344H99.0329895z M101.5144348,66.9523621h1.8374023l-0.9213867-6.0458984
		L101.5144348,66.9523621z"/>
	<path fill="#FFFFFF" d="M106.5808411,70.7638855V58.7521667h2.8720703c0.9746094,0,1.6884766,0.2265625,2.1425781,0.6787109
		c0.453125,0.4521484,0.6796875,1.1474609,0.6796875,2.0849609v0.9472656c0,1.234375-0.4150391,2.046875-1.2460938,2.4375
		c0.4550781,0.1894531,0.7792969,0.4970703,0.9726563,0.9208984c0.1933594,0.4248047,0.2910156,0.96875,0.2910156,1.6337891
		v1.8515625c0,0.6640625,0.0585938,1.1503906,0.1777344,1.4570313h-1.9042969
		c-0.0449219-0.1396484-0.0761719-0.2441406-0.0927734-0.3144531c-0.0175781-0.0693359-0.0361328-0.203125-0.0556641-0.4013672
		s-0.0292969-0.4511719-0.0292969-0.7587891v-1.8847656c0-0.5527344-0.0986328-0.9462891-0.2958984-1.1806641
		c-0.1982422-0.234375-0.5136719-0.3515625-0.9482422-0.3515625h-0.6601563v4.8916016H106.5808411z M108.4841614,64.1632996
		h0.7451172c0.3779297,0,0.6630859-0.0966797,0.8544922-0.2890625s0.2880859-0.5205078,0.2880859-0.984375V61.709198
		c0-0.4306641-0.0761719-0.7441406-0.2285156-0.9423828s-0.3984375-0.2978516-0.7363281-0.2978516h-0.9228516V64.1632996z"/>
	<path fill="#FFFFFF" d="M113.5456848,70.7638855V58.7521667h3.0117188c0.9423828,0,1.6513672,0.2539063,2.1289063,0.7617188
		c0.4765625,0.5087891,0.7148438,1.2460938,0.7148438,2.2119141v6.0732422c0,0.9658203-0.2382813,1.7011719-0.7148438,2.2070313
		c-0.4775391,0.5048828-1.1865234,0.7578125-2.1289063,0.7578125H113.5456848z M115.4490051,69.0470886h1.0751953
		c0.3154297,0,0.5566406-0.0908203,0.7236328-0.2724609c0.1660156-0.1816406,0.2490234-0.4785156,0.2490234-0.8925781v-6.2480469
		c0-0.4140625-0.0830078-0.7109375-0.2490234-0.8925781c-0.1669922-0.1816406-0.4082031-0.2724609-0.7236328-0.2724609h-1.0751953
		V69.0470886z"/>
	<path fill="#FFFFFF" d="M120.5271301,67.8996277v-9.1474609h1.9042969v9.2646484c0,0.78125,0.3300781,1.171875,0.9892578,1.171875
		c0.6552734,0,0.9824219-0.390625,0.9824219-1.171875v-9.2646484h1.9033203v9.1474609
		c0,0.9658203-0.2548828,1.7099609-0.7636719,2.2314453c-0.5097656,0.5224609-1.2304688,0.7832031-2.1621094,0.7832031
		c-0.9326172,0-1.640625-0.2607422-2.1259766-0.7832031C120.7693176,69.6095886,120.5271301,68.865448,120.5271301,67.8996277z"/>
	<path fill="#FFFFFF" d="M127.5085754,70.7638855V58.7521667h1.9033203v12.0117188H127.5085754z"/>
	<path fill="#FFFFFF" d="M130.7829895,70.7638855V58.7521667h2.5703125l1.9570313,7.1953125v-7.1953125h1.7011719v12.0117188
		h-1.9628906l-2.3613281-8.6943359v8.6943359H130.7829895z"/>
	<path fill="#FFFFFF" d="M138.0349426,67.8820496v-6.2480469c0-0.9609375,0.25-1.703125,0.75-2.2285156
		c0.5-0.5244141,1.2158203-0.7871094,2.1484375-0.7871094s1.6464844,0.2626953,2.1435547,0.7871094
		c0.4970703,0.5253906,0.7460938,1.2675781,0.7460938,2.2285156v6.2480469c0,0.9609375-0.2490234,1.7041016-0.7460938,2.2285156
		c-0.4970703,0.5253906-1.2109375,0.7871094-2.1435547,0.7871094s-1.6484375-0.2617188-2.1484375-0.7871094
		C138.2849426,69.5861511,138.0349426,68.8429871,138.0349426,67.8820496z M139.9392395,67.9992371
		c0,0.7929688,0.3310547,1.1894531,0.9941406,1.1894531c0.6572266,0,0.9853516-0.3964844,0.9853516-1.1894531v-6.4833984
		c0-0.7871094-0.328125-1.1806641-0.9853516-1.1806641c-0.6630859,0-0.9941406,0.3935547-0.9941406,1.1806641V67.9992371z"/>
	<path fill="#FFFFFF" d="M144.8894348,70.7638855v-1.734375h1.9033203v1.734375H144.8894348z"/>
	<path fill="#FFFFFF" d="M148.1052551,70.7638855V58.7521667h2.8720703c0.9746094,0,1.6884766,0.2265625,2.1425781,0.6787109
		c0.453125,0.4521484,0.6796875,1.1474609,0.6796875,2.0849609v0.9472656c0,1.234375-0.4150391,2.046875-1.2460938,2.4375
		c0.4550781,0.1894531,0.7792969,0.4970703,0.9726563,0.9208984c0.1933594,0.4248047,0.2910156,0.96875,0.2910156,1.6337891
		v1.8515625c0,0.6640625,0.0585938,1.1503906,0.1777344,1.4570313h-1.9042969
		c-0.0449219-0.1396484-0.0761719-0.2441406-0.0927734-0.3144531c-0.0175781-0.0693359-0.0361328-0.203125-0.0556641-0.4013672
		s-0.0292969-0.4511719-0.0292969-0.7587891v-1.8847656c0-0.5527344-0.0986328-0.9462891-0.2958984-1.1806641
		c-0.1982422-0.234375-0.5136719-0.3515625-0.9482422-0.3515625h-0.6601563v4.8916016H148.1052551z M150.0085754,64.1632996
		h0.7451172c0.3779297,0,0.6630859-0.0966797,0.8544922-0.2890625s0.2880859-0.5205078,0.2880859-0.984375V61.709198
		c0-0.4306641-0.0761719-0.7441406-0.2285156-0.9423828s-0.3984375-0.2978516-0.7363281-0.2978516h-0.9228516V64.1632996z"/>
	<path fill="#FFFFFF" d="M154.9851379,67.8996277v-9.1474609h1.9042969v9.2646484c0,0.78125,0.3300781,1.171875,0.9892578,1.171875
		c0.6552734,0,0.9824219-0.390625,0.9824219-1.171875v-9.2646484h1.9033203v9.1474609
		c0,0.9658203-0.2548828,1.7099609-0.7636719,2.2314453c-0.5097656,0.5224609-1.2304688,0.7832031-2.1621094,0.7832031
		c-0.9326172,0-1.640625-0.2607422-2.1259766-0.7832031C155.2273254,69.6095886,154.9851379,68.865448,154.9851379,67.8996277z"/>
</g>
<g>
	<path fill="#FFFFFF" d="M96.3044739,79.2433777v-4.9013672h1.1767578c0.4008789,0,0.6914063,0.0898438,0.8720703,0.2685547
		c0.1811523,0.1787109,0.2714844,0.4511719,0.2714844,0.8183594v0.2285156c0,0.2695313-0.0478516,0.4833984-0.1430664,0.6416016
		s-0.2553711,0.2695313-0.480957,0.3330078c0.4746094,0.1230469,0.7119141,0.4726563,0.7119141,1.0488281v0.4140625
		c0,0.3740234-0.0991211,0.6582031-0.296875,0.8544922s-0.4985352,0.2939453-0.9013672,0.2939453H96.3044739z
		 M96.8918762,76.4230652h0.4472656c0.2426758,0,0.4194336-0.046875,0.5307617-0.1416016
		c0.1118164-0.0947266,0.1674805-0.2646484,0.1674805-0.5107422v-0.2871094c0-0.2207031-0.0444336-0.3837891-0.1328125-0.4873047
		s-0.2358398-0.1552734-0.4418945-0.1552734h-0.5708008V76.4230652z M96.8918762,78.7472839h0.6240234
		c0.215332,0,0.3735352-0.0537109,0.4736328-0.1621094c0.1005859-0.1083984,0.1503906-0.2763672,0.1503906-0.5039063v-0.4335938
		c0-0.2675781-0.0581055-0.4550781-0.1743164-0.5644531s-0.3037109-0.1640625-0.5634766-0.1640625h-0.5102539V78.7472839z"/>
	<path fill="#FFFFFF" d="M99.2043762,78.0607605v-2.5322266c0-0.3828125,0.0986328-0.6845703,0.2949219-0.9042969
		c0.1967773-0.2197266,0.4907227-0.3300781,0.8818359-0.3300781c0.3920898,0,0.6875,0.1103516,0.8857422,0.3300781
		c0.1987305,0.2197266,0.2978516,0.5214844,0.2978516,0.9042969v0.4404297h-0.550293v-0.4716797
		c0-0.4716797-0.206543-0.7070313-0.6186523-0.7070313c-0.2060547,0-0.3608398,0.0605469-0.4638672,0.1835938
		s-0.1547852,0.2978516-0.1547852,0.5234375v2.5908203c0,0.2255859,0.0517578,0.3994141,0.1547852,0.5224609
		s0.2578125,0.1855469,0.4638672,0.1855469c0.4121094,0,0.6186523-0.2363281,0.6186523-0.7080078v-0.6357422h0.550293v0.6083984
		c0,0.3828125-0.0991211,0.6835938-0.2978516,0.9023438c-0.1982422,0.21875-0.4936523,0.328125-0.8857422,0.328125
		c-0.3911133,0-0.6850586-0.109375-0.8818359-0.328125C99.303009,78.7443542,99.2043762,78.443573,99.2043762,78.0607605z"/>
	<path fill="#FFFFFF" d="M102.1042786,79.2433777v-4.9013672h2.1660156v0.4990234h-1.5786133v1.671875h1.284668v0.4921875h-1.284668
		v1.7421875h1.5786133v0.4960938H102.1042786z M102.4568176,74.0549011v-0.6289063h0.5102539v0.6289063H102.4568176z
		 M103.3894348,74.0549011v-0.6289063h0.5244141v0.6289063H103.3894348z"/>
	<path fill="#FFFFFF" d="M105.8523254,78.7609558h0.3378906c0.0830078-0.0859375,0.1416016-0.1845703,0.1748047-0.2949219
		c0.0322266-0.1103516,0.0527344-0.25,0.0605469-0.4189453l0.2011719-3.7050781h2.1113281v4.4189453h0.3994141v1.15625h-0.5722656
		v-0.6738281h-2.1396484v0.6738281h-0.5732422V78.7609558z M106.7624817,78.7609558h1.3876953v-3.9199219h-0.984375
		l-0.1777344,3.1992188c-0.0117188,0.1845703-0.0341797,0.3310547-0.0664063,0.4404297
		S106.8367004,78.6838074,106.7624817,78.7609558z"/>
	<path fill="#FFFFFF" d="M109.493927,79.2502136v-0.4951172c0.2285156,0,0.3818359-0.0537109,0.4580078-0.1591797
		c0.0771484-0.1064453,0.1191406-0.2871094,0.1259766-0.5419922l0.1435547-3.7119141h2.1435547v4.9013672h-0.5878906v-4.4023438
		h-1.0058594l-0.1210938,3.1855469c-0.0146484,0.4150391-0.0986328,0.7216797-0.2529297,0.9208984
		s-0.421875,0.3007813-0.8037109,0.3027344H109.493927z"/>
	<path fill="#FFFFFF" d="M112.8933411,79.2433777c0.0664063-0.1298828,0.0996094-0.3261719,0.0996094-0.5878906v-0.7617188
		c0-0.5585938,0.2177734-0.8994141,0.6533203-1.0224609c-0.4306641-0.1298828-0.6464844-0.4658203-0.6464844-1.0087891v-0.3994141
		c0-0.3710938,0.0947266-0.6513672,0.2832031-0.8388672c0.1884766-0.1884766,0.4853516-0.2822266,0.8916016-0.2822266h1.1708984
		v4.9013672h-0.5869141v-2.0917969h-0.4111328c-0.2568359,0-0.4492188,0.0546875-0.5761719,0.1640625
		c-0.1279297,0.109375-0.1914063,0.296875-0.1914063,0.5644531v0.7685547c0,0.2548828-0.0332031,0.453125-0.0986328,0.5947266
		H112.8933411z M113.5798645,75.9826355c0,0.2529297,0.0605469,0.4277344,0.1816406,0.5244141
		s0.3056641,0.1455078,0.5527344,0.1455078h0.4443359v-1.8115234h-0.5693359c-0.2128906,0-0.3671875,0.0556641-0.4638672,0.1660156
		s-0.1455078,0.2783203-0.1455078,0.5039063V75.9826355z"/>
	<path fill="#FFFFFF" d="M117.1072083,79.2433777v-4.9013672h1.1523438c0.4033203,0,0.7011719,0.1044922,0.8955078,0.3125
		c0.1933594,0.2089844,0.2910156,0.5048828,0.2910156,0.8876953v0.5878906c0,0.7880859-0.4111328,1.1816406-1.2314453,1.1816406
		h-0.5195313v1.9316406H117.1072083z M117.6950989,76.8195496h0.5175781c0.2226563,0,0.3857422-0.0517578,0.4902344-0.1552734
		c0.1035156-0.1035156,0.1552734-0.2705078,0.1552734-0.5009766v-0.6523438c0-0.2275391-0.0478516-0.3964844-0.1425781-0.5058594
		c-0.0957031-0.109375-0.2490234-0.1640625-0.4589844-0.1640625h-0.5615234V76.8195496z"/>
	<path fill="#FFFFFF" d="M119.7429504,79.2433777l1.0048828-4.9013672h0.8632813l1.0058594,4.9013672h-0.5869141
		l-0.203125-0.9882813h-1.3349609l-0.1982422,0.9882813H119.7429504z M120.5867004,77.787323h1.1435547l-0.5791016-2.8076172
		L120.5867004,77.787323z"/>
	<path fill="#FFFFFF" d="M122.9441223,78.7609558h0.3378906c0.0830078-0.0859375,0.1416016-0.1845703,0.1748047-0.2949219
		c0.0322266-0.1103516,0.0527344-0.25,0.0605469-0.4189453l0.2011719-3.7050781h2.1113281v4.4189453h0.3994141v1.15625h-0.5722656
		v-0.6738281h-2.1396484v0.6738281h-0.5732422V78.7609558z M123.8542786,78.7609558h1.3876953v-3.9199219h-0.984375
		l-0.1777344,3.1992188c-0.0117188,0.1845703-0.0341797,0.3310547-0.0664063,0.4404297
		S123.9284973,78.6838074,123.8542786,78.7609558z"/>
	<path fill="#FFFFFF" d="M126.7390442,79.2433777v-4.9013672h0.5253906v3.6533203l0.4824219-1.3447266l0.8291016-2.3085938
		h0.6445313v4.9013672h-0.5244141v-3.8974609l-0.5673828,1.6357422l-0.7744141,2.2617188H126.7390442z"/>
	<path fill="#FFFFFF" d="M129.7683411,78.0607605v-2.5322266c0-0.3857422,0.1015625-0.6875,0.3046875-0.90625
		c0.2021484-0.21875,0.5009766-0.328125,0.8935547-0.328125c0.3974609,0,0.6992188,0.109375,0.9052734,0.328125
		c0.2050781,0.21875,0.3085938,0.5205078,0.3085938,0.90625v2.5322266c0,0.3808594-0.1035156,0.6806641-0.3085938,0.9003906
		c-0.2060547,0.2197266-0.5078125,0.3300781-0.9052734,0.3300781c-0.390625,0-0.6884766-0.1103516-0.8916016-0.3300781
		C129.8708801,78.7414246,129.7683411,78.4416199,129.7683411,78.0607605z M130.3415833,78.0881042
		c0,0.2275391,0.0517578,0.4023438,0.15625,0.5244141s0.2607422,0.1835938,0.46875,0.1835938
		c0.4179688,0,0.6259766-0.2363281,0.6259766-0.7080078v-2.5908203c0-0.2255859-0.0507813-0.4003906-0.1542969-0.5234375
		s-0.2597656-0.1835938-0.4716797-0.1835938c-0.2080078,0-0.3642578,0.0605469-0.46875,0.1835938
		s-0.15625,0.2978516-0.15625,0.5234375V78.0881042z"/>
	<path fill="#FFFFFF" d="M132.5798645,79.2502136v-0.4951172c0.2285156,0,0.3818359-0.0537109,0.4580078-0.1591797
		c0.0771484-0.1064453,0.1191406-0.2871094,0.1259766-0.5419922l0.1435547-3.7119141h2.1435547v4.9013672h-0.5878906v-4.4023438
		h-1.0058594l-0.1210938,3.1855469c-0.0146484,0.4150391-0.0986328,0.7216797-0.2529297,0.9208984
		s-0.421875,0.3007813-0.8037109,0.3027344H132.5798645z"/>
	<path fill="#FFFFFF" d="M136.0710754,79.2433777v-4.9013672h0.5878906v2.2080078h0.7597656v-1.0214844
		c0-0.3857422,0.1025391-0.6875,0.3066406-0.90625c0.2050781-0.21875,0.5058594-0.328125,0.9023438-0.328125
		s0.6962891,0.1103516,0.9023438,0.3300781c0.2050781,0.2197266,0.3076172,0.5214844,0.3076172,0.9042969v2.5322266
		c0,0.3808594-0.1035156,0.6806641-0.3095703,0.9003906c-0.2070313,0.2197266-0.5068359,0.3300781-0.9003906,0.3300781
		c-0.3964844,0-0.6972656-0.1103516-0.9023438-0.3300781c-0.2041016-0.2197266-0.3066406-0.5195313-0.3066406-0.9003906v-1.0224609
		h-0.7597656v2.2050781H136.0710754z M138.0056458,78.0881042c0,0.2255859,0.0517578,0.3994141,0.1542969,0.5224609
		s0.2578125,0.1855469,0.4677734,0.1855469c0.2080078,0,0.3632813-0.0625,0.4667969-0.1855469
		s0.1552734-0.296875,0.1552734-0.5224609v-2.5908203c0-0.2275391-0.0517578-0.4023438-0.1552734-0.5244141
		s-0.2587891-0.1826172-0.4667969-0.1826172c-0.4140625,0-0.6220703,0.2353516-0.6220703,0.7070313V78.0881042z"/>
	<path fill="#FFFFFF" d="M140.3992004,79.2433777v-4.9013672h2.2167969v0.4990234h-1.6298828v1.5244141h0.6152344
		c0.8261719,0,1.2382813,0.3828125,1.2382813,1.1484375v0.5400391c0,0.7929688-0.4042969,1.1894531-1.2128906,1.1894531H140.3992004
		z M140.9861145,78.7472839h0.6445313c0.2148438,0,0.3720703-0.0527344,0.4716797-0.1582031
		c0.1005859-0.1064453,0.1503906-0.2734375,0.1503906-0.5009766v-0.6083984c0-0.2304688-0.0527344-0.3916016-0.1572266-0.4833984
		c-0.1054688-0.0927734-0.2695313-0.1386719-0.4941406-0.1386719h-0.6152344V78.7472839z"/>
	<path fill="#FFFFFF" d="M143.4050598,79.2433777v-4.9013672h0.5253906v3.6533203l0.4824219-1.3447266l0.8291016-2.3085938
		h0.6445313v4.9013672h-0.5244141v-3.8974609l-0.5673828,1.6357422l-0.7744141,2.2617188H143.4050598z"/>
	<path fill="#FFFFFF" d="M146.3122864,74.8410339v-0.4990234h2.5253906v0.4990234h-0.96875v4.4023438h-0.5878906v-4.4023438
		H146.3122864z"/>
	<path fill="#FFFFFF" d="M149.2712708,79.2433777v-4.9013672h2.1660156v0.4990234h-1.578125v1.671875h1.2841797v0.4921875
		h-1.2841797v1.7421875h1.578125v0.4960938H149.2712708z"/>
	<path fill="#FFFFFF" d="M151.822052,79.2502136v-0.4951172c0.2285156,0,0.3818359-0.0537109,0.4580078-0.1591797
		c0.0771484-0.1064453,0.1191406-0.2871094,0.1259766-0.5419922l0.1435547-3.7119141h2.1435547v4.9013672h-0.5878906v-4.4023438
		h-1.0058594l-0.1210938,3.1855469c-0.0146484,0.4150391-0.0986328,0.7216797-0.2529297,0.9208984
		s-0.421875,0.3007813-0.8037109,0.3027344H151.822052z"/>
	<path fill="#FFFFFF" d="M155.3132629,79.2433777v-4.9013672h2.1660156v0.4990234h-1.578125v1.671875h1.2841797v0.4921875
		h-1.2841797v1.7421875h1.578125v0.4960938H155.3132629z"/>
	<path fill="#FFFFFF" d="M158.0193176,79.2433777v-4.9013672h0.5253906v3.6533203l0.5039063-1.40625l0.8056641-2.2470703h0.6464844
		v4.9013672h-0.5244141v-3.9042969l-0.5234375,1.5439453l-0.8193359,2.3603516H158.0193176z M158.4861145,73.3439636h0.3671875
		c0.0097656,0.1298828,0.0517578,0.2216797,0.1279297,0.2753906c0.0751953,0.0537109,0.1796875,0.0800781,0.3134766,0.0800781
		c0.2802734,0,0.4306641-0.1181641,0.4501953-0.3554688h0.359375c0,0.2138672-0.0712891,0.3818359-0.2158203,0.5029297
		c-0.1445313,0.1201172-0.3417969,0.1806641-0.59375,0.1806641c-0.2490234,0-0.4443359-0.0605469-0.5859375-0.1806641
		C158.5671692,73.7257996,158.4929504,73.5578308,158.4861145,73.3439636z"/>
</g>
<g>
</g>
<g>
</g>
<g>
</g>
<g>
</g>
<g>
</g>
<g>
</g>
</svg>
