<?xml version="1.0" encoding="utf-8"?>
<!-- Generator: Adobe Illustrator 22.1.0, SVG Export Plug-In . SVG Version: 6.00 Build 0)  -->
<svg version="1.1" id="Слой_1" xmlns="http://www.w3.org/2000/svg" xmlns:xlink="http://www.w3.org/1999/xlink" x="0px" y="0px"
	 viewBox="0 0 233 320.5" style="enable-background:new 0 0 233 320.5;" xml:space="preserve">
<style type="text/css">
	.st0{fill:#272624;stroke:#000000;stroke-miterlimit:10;}
	.st1{fill:#595651;stroke:#000000;stroke-width:3;stroke-miterlimit:10;}
	.st2{fill:#E2E2E2;}
	.st3{fill:none;stroke:#000000;stroke-width:3;stroke-miterlimit:10;}
	.st4{fill:url(#SVGID_1_);}
	.st5{fill:#595651;}
	.st6{fill:#46433E;}
	.st7{fill:url(#SVGID_2_);}
	.st8{fill:#272624;stroke:url(#SVGID_3_);stroke-miterlimit:10;}
	.st9{fill:#6B6966;}
	.st10{fill:#272624;stroke:url(#SVGID_4_);stroke-miterlimit:10;}
	.st11{fill:#272624;stroke:url(#SVGID_5_);stroke-miterlimit:10;}
	.st12{fill:url(#SVGID_6_);}
	.st13{fill:url(#SVGID_7_);}
	.st14{fill:url(#SVGID_8_);}
	.st15{fill:url(#SVGID_9_);}
	.st16{fill:url(#SVGID_10_);}
	.st17{fill:url(#SVGID_11_);}
	.st18{fill:url(#SVGID_12_);}
	.st19{fill:url(#SVGID_13_);}
	.st20{fill:url(#SVGID_14_);}
	.st21{fill:#272624;stroke:url(#SVGID_15_);stroke-miterlimit:10;}
	.st22{fill:#272624;stroke:url(#SVGID_16_);stroke-miterlimit:10;}
	.st23{fill:#272624;}
	.st24{fill:#D4DE4E;}
	.st25{fill:#46433E;stroke:url(#SVGID_17_);stroke-miterlimit:10;}
	.st26{fill:#46433E;stroke:url(#SVGID_18_);stroke-miterlimit:10;}
	.st27{fill:#7F7E7C;stroke:#46433E;stroke-width:0.25;stroke-miterlimit:10;}
</style>
<g>
	<g>
		<g>
			<path class="st0" d="M201.5,130H29.8c-6.6,0-12-5.4-12-12V28.9c0-6.6,5.4-12,12-12h171.7c6.6,0,12,5.4,12,12V118
				C213.5,124.6,208.1,130,201.5,130z M29.8,23.1c-3.1,0-5.7,2.5-5.7,5.7s2.5,5.7,5.7,5.7s5.7-2.5,5.7-5.7S32.9,23.1,29.8,23.1z
				 M201.8,23.1c-3.1,0-5.7,2.5-5.7,5.7s2.5,5.7,5.7,5.7s5.7-2.5,5.7-5.7S204.9,23.1,201.8,23.1z"/>
			<g>
				<g>
					<path class="st0" d="M66,272.8l-33.3-5l-8.3-17.2l19-30.9 M34.3,250.6c-3.1,0-5.7,2.5-5.7,5.7c0,3.1,2.5,5.7,5.7,5.7
						c3.1,0,5.7-2.5,5.7-5.7C40,253.1,37.5,250.6,34.3,250.6z"/>
					<path class="st0" d="M24.8,249.8c2.1-3.1,5.6-5.1,9.6-5.1c6.4,0,11.5,5.2,11.5,11.5s-5.2,11.5-11.5,11.5s-11.5-5.2-11.5-11.5
						C22.8,253.8,23.5,251.6,24.8,249.8 M34.3,250.6c-3.1,0-5.7,2.5-5.7,5.7c0,3.1,2.5,5.7,5.7,5.7c3.1,0,5.7-2.5,5.7-5.7
						C40,253.1,37.5,250.6,34.3,250.6z"/>
				</g>
				<g>
					<path class="st0" d="M187.8,219.7l19,30.9l-8.3,17.2l-33.3,5 M191.1,256.2c0,3.1,2.5,5.7,5.7,5.7c3.1,0,5.7-2.5,5.7-5.7
						c0-3.1-2.5-5.7-5.7-5.7C193.6,250.6,191.1,253.1,191.1,256.2z"/>
					<path class="st0" d="M206.3,249.8c1.2,1.8,2,4.1,2,6.4c0,6.4-5.2,11.5-11.5,11.5s-11.5-5.2-11.5-11.5s5.2-11.5,11.5-11.5
						C200.7,244.7,204.2,246.7,206.3,249.8 M191.1,256.2c0,3.1,2.5,5.7,5.7,5.7c3.1,0,5.7-2.5,5.7-5.7c0-3.1-2.5-5.7-5.7-5.7
						C193.6,250.6,191.1,253.1,191.1,256.2z"/>
				</g>
			</g>
		</g>
		<path class="st1" d="M216.3,152.8c-16.5,38.7-33,77.4-49.5,116.1c-1.4,3.2-3.4,7.6-6.1,12.5c-2.7,4.8-5.3,8.7-8.6,13.2
			c-8.3,11.2-21.6,18.5-36.6,18.5h0c-15,0-28.3-7.3-36.6-18.5c-3.4-4.6-5.9-8.5-8.6-13.2c-2.8-4.9-4.8-9.3-6.1-12.5
			c-16.5-38.7-33-77.4-49.5-116.1l0,0c-4.5-11.8-6.9-24.7-6.9-38.1C7.8,55.2,56.1,7,115.6,7s107.7,48.2,107.7,107.7
			C223.3,128.1,220.8,140.9,216.3,152.8"/>
		<circle class="st2" cx="115.4" cy="296.1" r="15.6"/>
		<g>
			<path class="st3" d="M115.6,283.8c-5.6,0.1-11-3.3-14.1-8.5L34.3,166"/>
			<path class="st3" d="M115.5,283.8c5.6,0.1,11-3.3,14.1-8.5L196.8,166"/>
		</g>
		<linearGradient id="SVGID_1_" gradientUnits="userSpaceOnUse" x1="46.4135" y1="45.5439" x2="184.7169" y2="183.8474">
			<stop  offset="0" style="stop-color:#FFFFFF"/>
			<stop  offset="1" style="stop-color:#000000"/>
		</linearGradient>
		<circle class="st4" cx="115.6" cy="114.7" r="97.8"/>
		<circle class="st5" cx="115.6" cy="114.7" r="89.6"/>
		<circle class="st6" cx="115.6" cy="267.8" r="16"/>
		<radialGradient id="SVGID_2_" cx="115.5652" cy="267.7665" r="2.8346" gradientUnits="userSpaceOnUse">
			<stop  offset="0" style="stop-color:#FFFFFF"/>
			<stop  offset="1" style="stop-color:#AFAFAF"/>
		</radialGradient>
		<circle class="st7" cx="115.6" cy="267.8" r="2.8"/>
		<g>
			<linearGradient id="SVGID_3_" gradientUnits="userSpaceOnUse" x1="194.6914" y1="101.1468" x2="185.5658" y2="92.0212">
				<stop  offset="0" style="stop-color:#FFFFFF"/>
				<stop  offset="1" style="stop-color:#000000"/>
			</linearGradient>
			<circle class="st8" cx="190.1" cy="96.6" r="6"/>
			<rect x="189.6" y="93.2" class="st9" width="1" height="7.1"/>
			
				<rect x="189.6" y="93.2" transform="matrix(6.123234e-17 -1 1 6.123234e-17 93.4203 286.8369)" class="st9" width="1" height="7.1"/>
		</g>
		<g>
			<linearGradient id="SVGID_4_" gradientUnits="userSpaceOnUse" x1="56.3849" y1="56.61" x2="47.2593" y2="47.4845">
				<stop  offset="0" style="stop-color:#FFFFFF"/>
				<stop  offset="1" style="stop-color:#000000"/>
			</linearGradient>
			<circle class="st10" cx="51.8" cy="52" r="6"/>
			<rect x="51.3" y="48.6" class="st9" width="1" height="7.1"/>
			
				<rect x="51.3" y="48.6" transform="matrix(6.123234e-17 -1 1 6.123234e-17 -0.3495 103.9937)" class="st9" width="1" height="7.1"/>
		</g>
		<g>
			<linearGradient id="SVGID_5_" gradientUnits="userSpaceOnUse" x1="83.8128" y1="201.11" x2="74.6872" y2="191.9845">
				<stop  offset="0" style="stop-color:#FFFFFF"/>
				<stop  offset="1" style="stop-color:#000000"/>
			</linearGradient>
			<circle class="st11" cx="79.3" cy="196.5" r="6"/>
			<rect x="78.7" y="193.1" class="st9" width="1" height="7.1"/>
			
				<rect x="78.7" y="193.1" transform="matrix(6.123234e-17 -1 1 6.123234e-17 -117.4216 275.9216)" class="st9" width="1" height="7.1"/>
		</g>
	</g>
	<path class="st0" d="M20.2,22.3c2.1-3.1,5.6-5.1,9.6-5.1c6.4,0,11.5,5.2,11.5,11.5s-5.2,11.5-11.5,11.5s-11.5-5.2-11.5-11.5
		C18.3,26.4,19,24.1,20.2,22.3 M29.8,23.1c-3.1,0-5.7,2.5-5.7,5.7s2.5,5.7,5.7,5.7s5.7-2.5,5.7-5.7S32.9,23.1,29.8,23.1z"/>
	<path class="st0" d="M192.2,22.3c2.1-3.1,5.6-5.1,9.6-5.1c6.4,0,11.5,5.2,11.5,11.5s-5.2,11.5-11.5,11.5s-11.5-5.2-11.5-11.5
		C190.2,26.4,190.9,24.1,192.2,22.3 M201.8,23.1c-3.1,0-5.7,2.5-5.7,5.7s2.5,5.7,5.7,5.7s5.7-2.5,5.7-5.7S204.9,23.1,201.8,23.1z"/>
</g>
<g>
	<path d="M162.3,88.1H100c0,0-4.3,10.9-4.3,10.9h-15c-6.6,0-12-5.4-12-12V45.3c0-4.1,2.1-7.8,5.3-9.9c12.4-6.5,26.6-10.2,41.5-10.2
		c14.7,0,28.5,3.5,40.8,9.8l0,0c3.5,2.1,5.9,5.9,5.9,10.3V87C162.3,87.4,162.2,87.7,162.3,88.1L162.3,88.1z"/>
	<linearGradient id="SVGID_6_" gradientUnits="userSpaceOnUse" x1="142.437" y1="82.4824" x2="142.437" y2="48.4667">
		<stop  offset="0" style="stop-color:#000000"/>
		<stop  offset="9.058175e-02" style="stop-color:#1F1E1D"/>
		<stop  offset="0.2127" style="stop-color:#34322F"/>
		<stop  offset="0.3415" style="stop-color:#413F3A"/>
		<stop  offset="0.4872" style="stop-color:#46433E"/>
		<stop  offset="0.6073" style="stop-color:#423F3A"/>
		<stop  offset="0.7318" style="stop-color:#35332F"/>
		<stop  offset="0.8582" style="stop-color:#211F1D"/>
		<stop  offset="0.9852" style="stop-color:#040403"/>
		<stop  offset="1" style="stop-color:#000000"/>
	</linearGradient>
	<rect x="137.1" y="48.5" class="st12" width="10.8" height="34"/>
	<linearGradient id="SVGID_7_" gradientUnits="userSpaceOnUse" x1="159.5866" y1="55.884" x2="140.4055" y2="75.0651">
		<stop  offset="0" style="stop-color:#46433E"/>
		<stop  offset="1" style="stop-color:#000000"/>
	</linearGradient>
	<rect x="147.8" y="48.5" class="st13" width="4.3" height="34"/>
	<g>
		<linearGradient id="SVGID_8_" gradientUnits="userSpaceOnUse" x1="149.2657" y1="79.6478" x2="149.2657" y2="90.9864">
			<stop  offset="0" style="stop-color:#46433E"/>
			<stop  offset="1" style="stop-color:#000000"/>
		</linearGradient>
		<rect x="140.8" y="79.6" class="st14" width="17" height="11.3"/>
		<linearGradient id="SVGID_9_" gradientUnits="userSpaceOnUse" x1="149.2657" y1="51.3013" x2="149.2657" y2="39.9628">
			<stop  offset="0" style="stop-color:#46433E"/>
			<stop  offset="1" style="stop-color:#000000"/>
		</linearGradient>
		<rect x="140.8" y="40" class="st15" width="17" height="11.3"/>
		<path class="st6" d="M157.8,79.6h-17V51.3h17V79.6z M140.8,56.3v18.4H155V56.3H140.8z"/>
	</g>
	<path class="st9" d="M162.3,88.1H100L95.8,99h0h54.5C156.5,99,161.7,94.2,162.3,88.1"/>
	<g>
		<linearGradient id="SVGID_10_" gradientUnits="userSpaceOnUse" x1="103.3031" y1="83.4046" x2="103.3031" y2="49.3889">
			<stop  offset="0" style="stop-color:#000000"/>
			<stop  offset="6.999503e-02" style="stop-color:#35332F"/>
			<stop  offset="0.1459" style="stop-color:#55514D"/>
			<stop  offset="0.2244" style="stop-color:#656360"/>
			<stop  offset="0.3055" style="stop-color:#73716F"/>
			<stop  offset="0.3908" style="stop-color:#7C7A79"/>
			<stop  offset="0.4872" style="stop-color:#7F7E7C"/>
			<stop  offset="0.5756" style="stop-color:#7B7A78"/>
			<stop  offset="0.6672" style="stop-color:#6E6E6C"/>
			<stop  offset="0.7603" style="stop-color:#5A5958"/>
			<stop  offset="0.8545" style="stop-color:#3D3C3B"/>
			<stop  offset="0.9485" style="stop-color:#181717"/>
			<stop  offset="1" style="stop-color:#000000"/>
		</linearGradient>
		<rect x="97.2" y="49.4" class="st16" width="12.2" height="34"/>
		<linearGradient id="SVGID_11_" gradientUnits="userSpaceOnUse" x1="111.2402" y1="86.2393" x2="111.2402" y2="46.5542">
			<stop  offset="0" style="stop-color:#000000"/>
			<stop  offset="6.999503e-02" style="stop-color:#35332F"/>
			<stop  offset="0.1459" style="stop-color:#55514D"/>
			<stop  offset="0.2244" style="stop-color:#656360"/>
			<stop  offset="0.3055" style="stop-color:#73716F"/>
			<stop  offset="0.3908" style="stop-color:#7C7A79"/>
			<stop  offset="0.4872" style="stop-color:#7F7E7C"/>
			<stop  offset="0.5756" style="stop-color:#7B7A78"/>
			<stop  offset="0.6672" style="stop-color:#6E6E6C"/>
			<stop  offset="0.7603" style="stop-color:#5A5958"/>
			<stop  offset="0.8545" style="stop-color:#3D3C3B"/>
			<stop  offset="0.9485" style="stop-color:#181717"/>
			<stop  offset="1" style="stop-color:#000000"/>
		</linearGradient>
		<rect x="109.4" y="46.6" class="st17" width="3.7" height="39.7"/>
		<linearGradient id="SVGID_12_" gradientUnits="userSpaceOnUse" x1="125.7126" y1="83.4046" x2="125.7126" y2="49.3889">
			<stop  offset="0" style="stop-color:#000000"/>
			<stop  offset="6.999503e-02" style="stop-color:#35332F"/>
			<stop  offset="0.1459" style="stop-color:#55514D"/>
			<stop  offset="0.2244" style="stop-color:#656360"/>
			<stop  offset="0.3055" style="stop-color:#73716F"/>
			<stop  offset="0.3908" style="stop-color:#7C7A79"/>
			<stop  offset="0.4872" style="stop-color:#7F7E7C"/>
			<stop  offset="0.5756" style="stop-color:#7B7A78"/>
			<stop  offset="0.6672" style="stop-color:#6E6E6C"/>
			<stop  offset="0.7603" style="stop-color:#5A5958"/>
			<stop  offset="0.8545" style="stop-color:#3D3C3B"/>
			<stop  offset="0.9485" style="stop-color:#181717"/>
			<stop  offset="1" style="stop-color:#000000"/>
		</linearGradient>
		<rect x="119.6" y="49.4" class="st18" width="12.2" height="34"/>
		<linearGradient id="SVGID_13_" gradientUnits="userSpaceOnUse" x1="133.6496" y1="86.2393" x2="133.6496" y2="46.5542">
			<stop  offset="0" style="stop-color:#000000"/>
			<stop  offset="6.999503e-02" style="stop-color:#35332F"/>
			<stop  offset="0.1459" style="stop-color:#55514D"/>
			<stop  offset="0.2244" style="stop-color:#656360"/>
			<stop  offset="0.3055" style="stop-color:#73716F"/>
			<stop  offset="0.3908" style="stop-color:#7C7A79"/>
			<stop  offset="0.4872" style="stop-color:#7F7E7C"/>
			<stop  offset="0.5756" style="stop-color:#7B7A78"/>
			<stop  offset="0.6672" style="stop-color:#6E6E6C"/>
			<stop  offset="0.7603" style="stop-color:#5A5958"/>
			<stop  offset="0.8545" style="stop-color:#3D3C3B"/>
			<stop  offset="0.9485" style="stop-color:#181717"/>
			<stop  offset="1" style="stop-color:#000000"/>
		</linearGradient>
		<rect x="131.8" y="46.6" class="st19" width="3.7" height="39.7"/>
		<linearGradient id="SVGID_14_" gradientUnits="userSpaceOnUse" x1="117.7756" y1="86.2393" x2="117.7756" y2="46.5542">
			<stop  offset="0" style="stop-color:#000000"/>
			<stop  offset="6.999503e-02" style="stop-color:#35332F"/>
			<stop  offset="0.1459" style="stop-color:#55514D"/>
			<stop  offset="0.2244" style="stop-color:#656360"/>
			<stop  offset="0.3055" style="stop-color:#73716F"/>
			<stop  offset="0.3908" style="stop-color:#7C7A79"/>
			<stop  offset="0.4872" style="stop-color:#7F7E7C"/>
			<stop  offset="0.5756" style="stop-color:#7B7A78"/>
			<stop  offset="0.6672" style="stop-color:#6E6E6C"/>
			<stop  offset="0.7603" style="stop-color:#5A5958"/>
			<stop  offset="0.8545" style="stop-color:#3D3C3B"/>
			<stop  offset="0.9485" style="stop-color:#181717"/>
			<stop  offset="1" style="stop-color:#000000"/>
		</linearGradient>
		<rect x="115.9" y="46.6" class="st20" width="3.7" height="39.7"/>
		<g>
			<linearGradient id="SVGID_15_" gradientUnits="userSpaceOnUse" x1="107.8643" y1="48.4067" x2="98.7387" y2="39.2811">
				<stop  offset="0" style="stop-color:#979695"/>
				<stop  offset="4.619652e-02" style="stop-color:#7B7A79"/>
				<stop  offset="0.1113" style="stop-color:#5A5959"/>
				<stop  offset="0.1842" style="stop-color:#3E3D3D"/>
				<stop  offset="0.2656" style="stop-color:#272726"/>
				<stop  offset="0.3592" style="stop-color:#151515"/>
				<stop  offset="0.4727" style="stop-color:#090909"/>
				<stop  offset="0.6266" style="stop-color:#020202"/>
				<stop  offset="1" style="stop-color:#000000"/>
			</linearGradient>
			<circle class="st21" cx="103.3" cy="43.8" r="6"/>
			<rect x="102.8" y="40.4" class="st6" width="1" height="7.1"/>
			
				<rect x="102.8" y="40.4" transform="matrix(6.123234e-17 -1 1 6.123234e-17 59.3332 147.2698)" class="st6" width="1" height="7.1"/>
		</g>
		<g>
			<linearGradient id="SVGID_16_" gradientUnits="userSpaceOnUse" x1="130.5415" y1="48.4067" x2="121.4159" y2="39.2811">
				<stop  offset="0" style="stop-color:#FFFFFF"/>
				<stop  offset="1.835048e-03" style="stop-color:#FDFDFD"/>
				<stop  offset="4.798430e-02" style="stop-color:#CECECE"/>
				<stop  offset="9.715259e-02" style="stop-color:#A3A3A3"/>
				<stop  offset="0.152" style="stop-color:#7C7C7C"/>
				<stop  offset="0.2111" style="stop-color:#5A5A5A"/>
				<stop  offset="0.2759" style="stop-color:#3E3E3E"/>
				<stop  offset="0.3482" style="stop-color:#272727"/>
				<stop  offset="0.4314" style="stop-color:#151515"/>
				<stop  offset="0.5321" style="stop-color:#090909"/>
				<stop  offset="0.6687" style="stop-color:#020202"/>
				<stop  offset="1" style="stop-color:#000000"/>
			</linearGradient>
			<circle class="st22" cx="126" cy="43.8" r="6"/>
			<rect x="125.5" y="40.4" class="st6" width="1" height="7.1"/>
			
				<rect x="125.5" y="40.4" transform="matrix(6.123234e-17 -1 1 6.123234e-17 82.0104 169.9469)" class="st6" width="1" height="7.1"/>
		</g>
	</g>
	<rect x="79.5" y="36.3" class="st23" width="17.7" height="58.4"/>
	
		<rect x="46.7" y="64.5" transform="matrix(-1.836970e-16 1 -1 -1.836970e-16 143.9714 -10.4616)" class="st24" width="60.9" height="4.5"/>
</g>
<g>
	<linearGradient id="SVGID_17_" gradientUnits="userSpaceOnUse" x1="140.0095" y1="107.1697" x2="140.0095" y2="107.1697">
		<stop  offset="0" style="stop-color:#FFFFFF"/>
		<stop  offset="2.135086e-02" style="stop-color:#F1F1F1"/>
		<stop  offset="0.1359" style="stop-color:#B8B8B8"/>
		<stop  offset="0.2539" style="stop-color:#888786"/>
		<stop  offset="0.3728" style="stop-color:#656360"/>
		<stop  offset="0.4928" style="stop-color:#4F4C47"/>
		<stop  offset="0.6143" style="stop-color:#312F2C"/>
		<stop  offset="0.7378" style="stop-color:#1B1A19"/>
		<stop  offset="0.8646" style="stop-color:#0B0A0A"/>
		<stop  offset="1" style="stop-color:#000000"/>
	</linearGradient>
	<path class="st25" d="M140,107.2"/>
	<linearGradient id="SVGID_18_" gradientUnits="userSpaceOnUse" x1="144.1318" y1="121.8575" x2="129.8082" y2="107.5338">
		<stop  offset="0" style="stop-color:#FFFFFF"/>
		<stop  offset="2.135086e-02" style="stop-color:#F1F1F1"/>
		<stop  offset="0.1359" style="stop-color:#B8B8B8"/>
		<stop  offset="0.2539" style="stop-color:#888786"/>
		<stop  offset="0.3728" style="stop-color:#656360"/>
		<stop  offset="0.4928" style="stop-color:#4F4C47"/>
		<stop  offset="0.6143" style="stop-color:#312F2C"/>
		<stop  offset="0.7378" style="stop-color:#1B1A19"/>
		<stop  offset="0.8646" style="stop-color:#0B0A0A"/>
		<stop  offset="1" style="stop-color:#000000"/>
	</linearGradient>
	<path class="st26" d="M139.9,122.2h-8.8v-15.1h8.8c4.2,0,7.5,3.4,7.5,7.5C147.5,118.9,144.1,122.2,139.9,122.2z"/>
</g>
<circle class="st27" cx="115.6" cy="114.7" r="18.4"/>
<g>
</g>
<g>
</g>
<g>
</g>
<g>
</g>
<g>
</g>
<g>
</g>
</svg>
