<?xml version="1.0" encoding="utf-8"?>
<!-- Generator: Adobe Illustrator 23.0.3, SVG Export Plug-In . SVG Version: 6.00 Build 0)  -->
<svg version="1.1" id="Слой_1" xmlns="http://www.w3.org/2000/svg" xmlns:xlink="http://www.w3.org/1999/xlink" x="0px" y="0px"
	 viewBox="0 0 212.5984192 184.2520599" style="enable-background:new 0 0 212.5984192 184.2520599;" xml:space="preserve">
<style type="text/css">
	.st0{fill:#0D0E0F;}
	.st1{fill:#FFFFFF;}
	.st2{fill:url(#SVGID_1_);}
	.st3{fill:#313131;}
	.st4{fill:#E39344;}
	.st5{fill:none;stroke:#666566;stroke-width:0.25;stroke-miterlimit:10;}
	.st6{opacity:0.2;fill:#FFFFFF;}
	.st7{fill:none;stroke:#FFFFFF;stroke-width:1.5;stroke-miterlimit:10;}
	.st8{fill:none;stroke:#FFFFFF;stroke-width:4;stroke-miterlimit:10;}
	.st9{opacity:0.7;fill:none;stroke:#FFFFFF;stroke-width:4;stroke-miterlimit:10;}
</style>
<g>
	<rect y="14.1732655" class="st0" width="212.5984192" height="155.9055176"/>
	<g>
		<path class="st0" d="M24.0945168,0h-5.6693115c-2.3483276,0-4.2519531,1.9036865-4.2519531,4.2520142v9.9212646h14.1732178
			V4.2520142C28.3464699,1.9036865,26.4427834,0,24.0945168,0z M21.259861,11.338623
			c-2.3483276,0-4.2520142-1.9036865-4.2520142-4.2520142c0-2.3482666,1.9036865-4.2519531,4.2520142-4.2519531
			c2.3482666,0,4.2519531,1.9036865,4.2519531,4.2519531C25.5118141,9.4349365,23.6081276,11.338623,21.259861,11.338623z"/>
		<circle class="st1" cx="19.775835" cy="14.1732788" r="0.7086614"/>
		<circle class="st1" cx="17.0071716" cy="14.1732788" r="0.7086614"/>
		<circle class="st1" cx="22.7438259" cy="14.1732788" r="0.7086614"/>
		<circle class="st1" cx="25.5124893" cy="14.1732788" r="0.7086614"/>
		<circle class="st1" cx="28.3464699" cy="14.1732788" r="0.7086614"/>
		<circle class="st1" cx="14.1732521" cy="14.1732788" r="0.7086614"/>
	</g>
	<g>
		<path class="st0" d="M184.2519531,4.2520142v9.9212646h14.1732178V4.2520142C198.4251709,1.9036865,196.5215454,0,194.1732178,0
			l-5.6693115,0C186.1556396,0,184.2519531,1.9036865,184.2519531,4.2520142z M187.0866089,7.0866089
			c0-2.3482666,1.9036865-4.2519531,4.2519531-4.2519531c2.3483276,0,4.2520142,1.9036865,4.2520142,4.2519531
			c0,2.3483276-1.9036865,4.2520142-4.2520142,4.2520142C188.9902954,11.338623,187.0866089,9.4349365,187.0866089,7.0866089z"/>
		<circle class="st1" cx="192.8225861" cy="14.1732788" r="0.7086614"/>
		<circle class="st1" cx="195.5912476" cy="14.1732788" r="0.7086614"/>
		<circle class="st1" cx="189.854599" cy="14.1732788" r="0.7086614"/>
		<circle class="st1" cx="187.0859375" cy="14.1732788" r="0.7086614"/>
		<circle class="st1" cx="184.2519531" cy="14.1732788" r="0.7086614"/>
		<circle class="st1" cx="198.4251709" cy="14.1732788" r="0.7086614"/>
	</g>
	<g>
		<path class="st0" d="M188.5039063,184.2520599h5.6693115c2.3483276,0,4.2519531-1.9036865,4.2519531-4.2520142v-9.9212646
			h-14.1732178v9.9212646C184.2519531,182.3483734,186.1556396,184.2520599,188.5039063,184.2520599z M191.338562,172.9134369
			c2.3483276,0,4.2520142,1.9036865,4.2520142,4.2520142c0,2.3482666-1.9036865,4.2519531-4.2520142,4.2519531
			c-2.3482666,0-4.2519531-1.9036865-4.2519531-4.2519531C187.0866089,174.8171234,188.9902954,172.9134369,191.338562,172.9134369z
			"/>
		<circle class="st1" cx="192.8225861" cy="170.0787811" r="0.7086614"/>
		<circle class="st1" cx="195.5912476" cy="170.0787811" r="0.7086614"/>
		<circle class="st1" cx="189.854599" cy="170.0787811" r="0.7086614"/>
		<circle class="st1" cx="187.0859375" cy="170.0787811" r="0.7086614"/>
		<circle class="st1" cx="184.2519531" cy="170.0787811" r="0.7086614"/>
		<circle class="st1" cx="198.4251709" cy="170.0787811" r="0.7086614"/>
	</g>
	<g>
		<path class="st0" d="M28.3464699,180.0000458v-9.9212646H14.1732521v9.9212646
			c0,2.3483276,1.9036255,4.2520142,4.2519531,4.2520142h5.6693115
			C26.4427834,184.2520599,28.3464699,182.3483734,28.3464699,180.0000458z M25.5118141,177.165451
			c0,2.3482666-1.9036865,4.2519531-4.2519531,4.2519531c-2.3483276,0-4.2520142-1.9036865-4.2520142-4.2519531
			c0-2.3483276,1.9036865-4.2520142,4.2520142-4.2520142C23.6081276,172.9134369,25.5118141,174.8171234,25.5118141,177.165451z"/>
		<circle class="st1" cx="19.775835" cy="170.0787811" r="0.7086614"/>
		<circle class="st1" cx="17.0071716" cy="170.0787811" r="0.7086614"/>
		<circle class="st1" cx="22.7438259" cy="170.0787811" r="0.7086614"/>
		<circle class="st1" cx="25.5124893" cy="170.0787811" r="0.7086614"/>
		<circle class="st1" cx="28.3464699" cy="170.0787811" r="0.7086614"/>
		<circle class="st1" cx="14.1732521" cy="170.0787811" r="0.7086614"/>
	</g>
</g>
<rect x="35.4330711" y="-7.0865774" transform="matrix(-1.836970e-16 1 -1 -1.836970e-16 198.4252319 -14.173192)" class="st1" width="141.7322845" height="198.4252014"/>
<rect x="7.0866141" y="44.6457062" class="st0" width="6.2362204" height="94.9606323"/>
<linearGradient id="SVGID_1_" gradientUnits="userSpaceOnUse" x1="30.3307095" y1="92.1260223" x2="201.826767" y2="92.1260223">
	<stop  offset="0.0161774" style="stop-color:#313131;stop-opacity:0.7"/>
	<stop  offset="0.027476" style="stop-color:#252525;stop-opacity:0.7161472"/>
	<stop  offset="0.0499288" style="stop-color:#141414;stop-opacity:0.7482352"/>
	<stop  offset="0.0778987" style="stop-color:#090909;stop-opacity:0.788208"/>
	<stop  offset="0.1171445" style="stop-color:#020202;stop-opacity:0.8442955"/>
	<stop  offset="0.2260947" style="stop-color:#000000"/>
	<stop  offset="0.44897" style="stop-color:#0C0C0B"/>
	<stop  offset="0.868715" style="stop-color:#0D0E0F"/>
	<stop  offset="0.8828093" style="stop-color:#111212"/>
	<stop  offset="0.9008902" style="stop-color:#171919"/>
	<stop  offset="0.921143" style="stop-color:#202222"/>
	<stop  offset="0.9429769" style="stop-color:#2F3031"/>
	<stop  offset="0.9660863" style="stop-color:#454747"/>
	<stop  offset="0.9899334" style="stop-color:#636364"/>
	<stop  offset="0.9916201" style="stop-color:#666566"/>
</linearGradient>
<rect x="30.3307095" y="26.3622417" class="st2" width="171.4960632" height="131.5275574"/>
<rect x="13.322835" y="26.3622417" class="st3" width="17.0078735" height="131.5275574"/>
<g>
	<rect x="7.0866141" y="56.6929512" class="st4" width="6.2362204" height="70.8661423"/>
	<line class="st5" x1="13.322835" y1="58.8338852" x2="7.0866141" y2="58.8338852"/>
	<line class="st5" x1="13.322835" y1="68.8338928" x2="7.0866141" y2="68.8338928"/>
	<line class="st5" x1="13.322835" y1="67.8338928" x2="7.0866141" y2="67.8338928"/>
	<line class="st5" x1="13.322835" y1="66.8338928" x2="7.0866141" y2="66.8338928"/>
	<line class="st5" x1="13.322835" y1="65.8338928" x2="7.0866141" y2="65.8338928"/>
	<line class="st5" x1="13.322835" y1="64.8338928" x2="7.0866141" y2="64.8338928"/>
	<line class="st5" x1="13.322835" y1="63.833889" x2="7.0866141" y2="63.833889"/>
	<line class="st5" x1="13.322835" y1="78.8339081" x2="7.0866141" y2="78.8339081"/>
	<line class="st5" x1="13.322835" y1="77.8339005" x2="7.0866141" y2="77.8339005"/>
	<line class="st5" x1="13.322835" y1="76.8339005" x2="7.0866141" y2="76.8339005"/>
	<line class="st5" x1="13.322835" y1="75.8339005" x2="7.0866141" y2="75.8339005"/>
	<line class="st5" x1="13.322835" y1="88.8339157" x2="7.0866141" y2="88.8339157"/>
	<line class="st5" x1="13.322835" y1="89.8339157" x2="7.0866141" y2="89.8339157"/>
	<line class="st5" x1="13.322835" y1="90.8339157" x2="7.0866141" y2="90.8339157"/>
	<line class="st5" x1="13.322835" y1="98.8339233" x2="7.0866141" y2="98.8339233"/>
	<line class="st5" x1="13.322835" y1="108.8339386" x2="7.0866141" y2="108.8339386"/>
	<line class="st5" x1="13.322835" y1="107.833931" x2="7.0866141" y2="107.833931"/>
	<line class="st5" x1="13.322835" y1="106.833931" x2="7.0866141" y2="106.833931"/>
	<line class="st5" x1="13.322835" y1="105.833931" x2="7.0866141" y2="105.833931"/>
	<line class="st5" x1="13.322835" y1="104.833931" x2="7.0866141" y2="104.833931"/>
	<line class="st5" x1="13.322835" y1="103.833931" x2="7.0866141" y2="103.833931"/>
	<line class="st5" x1="13.322835" y1="102.833931" x2="7.0866141" y2="102.833931"/>
	<line class="st5" x1="13.322835" y1="101.833931" x2="7.0866141" y2="101.833931"/>
	<line class="st5" x1="13.322835" y1="100.8339233" x2="7.0866141" y2="100.8339233"/>
	<line class="st5" x1="13.322835" y1="99.8339233" x2="7.0866141" y2="99.8339233"/>
	<line class="st5" x1="13.322835" y1="118.8339462" x2="7.0866141" y2="118.8339462"/>
	<line class="st5" x1="13.322835" y1="117.8339462" x2="7.0866141" y2="117.8339462"/>
	<line class="st5" x1="13.322835" y1="116.8339462" x2="7.0866141" y2="116.8339462"/>
	<line class="st5" x1="13.322835" y1="115.8339386" x2="7.0866141" y2="115.8339386"/>
	<line class="st5" x1="13.322835" y1="114.8339386" x2="7.0866141" y2="114.8339386"/>
</g>
<rect x="13.322835" y="26.3622417" class="st6" width="188.5039368" height="131.5275574"/>
<path class="st3" d="M7.0866141,21.2598801v141.7322388h198.4252319V21.2598801H7.0866141z M201.826767,157.8897552H13.322835
	V26.362236l188.5039368,0.0000057V157.8897552z"/>
<path class="st4" d="M8.9964685,64.8338928H7.0866137L6.2362204,63.833889V43.5997849l0.8503933-0.5669289h1.9098549
	c0.3118105,0,0.5669289,0.2551193,0.5669289,0.5669289v20.6671753C9.5633974,64.5787735,9.308279,64.8338928,8.9964685,64.8338928z"
	/>
<g>
	<path class="st7" d="M11.2047253,23.81106v135.2126007c0,0.7827606,0.6345568,1.4173126,1.4173231,1.4173126h189.6299133
		c0.7827606,0,1.4173279-0.634552,1.4173279-1.4173126V25.228384c0-0.7827663-0.6345673-1.4173241-1.4173279-1.4173241H10.2307205
		c-0.7827663,0-1.4173231,0.6345577-1.4173231,1.4173241v21.4573536"/>
	<line class="st8" x1="7.0866141" y1="46.6857376" x2="9.5633974" y2="46.6857376"/>
	<line class="st8" x1="7.0866141" y1="56.6857452" x2="9.5633974" y2="56.6857452"/>
	<line class="st8" x1="7.0866141" y1="61.6857529" x2="9.5633974" y2="61.6857529"/>
	<line class="st8" x1="7.0866141" y1="51.6857414" x2="9.5633974" y2="51.6857414"/>
	<line class="st9" x1="9.5633974" y1="61.6857529" x2="10.4536753" y2="61.6857529"/>
	<line class="st8" x1="9.5633974" y1="56.6857452" x2="10.4536753" y2="56.6857452"/>
	<line class="st9" x1="9.5633974" y1="51.6857414" x2="10.4536753" y2="51.6857414"/>
</g>
<g>
</g>
<g>
</g>
<g>
</g>
<g>
</g>
<g>
</g>
</svg>
