<?xml version="1.0" encoding="utf-8"?>
<!-- Generator: Adobe Illustrator 23.1.0, SVG Export Plug-In . SVG Version: 6.00 Build 0)  -->
<svg version="1.1" xmlns="http://www.w3.org/2000/svg" xmlns:xlink="http://www.w3.org/1999/xlink" x="0px" y="0px"
	 viewBox="0 0 155.91 155.91" style="enable-background:new 0 0 155.91 155.91;" xml:space="preserve">
<style type="text/css">
	.st0{clip-path:url(#SVGID_2_);fill:#0D0E0F;}
	.st1{fill:none;stroke:#FFFFFF;stroke-width:0.5;stroke-miterlimit:10;}
	.st2{fill:#FFFFFF;}
	.st3{fill:#0D0E0F;}
	.st4{fill:#E39344;stroke:#666566;stroke-width:0.0232;stroke-miterlimit:10;}
	.st5{fill:#EBAD4F;stroke:#B3B3B3;stroke-width:0.0252;stroke-miterlimit:10;}
	.st6{fill:none;stroke:#808080;stroke-width:0.0114;stroke-miterlimit:10;}
	.st7{fill:#E2E2E2;}
	.st8{fill:none;stroke:#E2E2E2;stroke-linecap:square;stroke-miterlimit:10;}
	.st9{fill:#B5B4B3;}
	.st10{fill:#CDC7BC;}
	.st11{display:none;fill:#D2D94E;stroke:#EFE94A;stroke-width:0.25;stroke-miterlimit:10;}
	.st12{fill:#EBAD4F;}
	.st13{fill:#4CB8F2;}
	.st14{opacity:0.37;fill:none;stroke:#FFFFFF;stroke-width:0.5;stroke-miterlimit:10;}
	.st15{fill:#363331;}
	.st16{fill:#9E9B9C;}
	.st17{fill:#8E7647;}
	.st18{fill:#5DAF61;}
	.st19{fill:none;stroke:#FFFFFF;stroke-width:0.5;stroke-linecap:round;stroke-miterlimit:10;}
	.st20{fill:#4E8B5C;}
	.st21{fill:#CCCCCC;}
	.st22{opacity:0.5;fill:url(#SVGID_3_);}
	.st23{opacity:0.1;fill:#B3B3B3;}
	.st24{opacity:0.5;fill:url(#SVGID_4_);}
	.st25{fill:#B3B3B3;}
	.st26{opacity:0.5;fill:url(#SVGID_5_);}
	.st27{opacity:0.5;fill:url(#SVGID_6_);}
	.st28{opacity:0.5;fill:url(#SVGID_7_);}
	.st29{opacity:0.5;fill:url(#SVGID_8_);}
	.st30{fill:none;stroke:#C9C8C8;stroke-width:0.75;stroke-miterlimit:10;}
	.st31{fill:#46433E;}
	.st32{fill:#CBC5BA;}
	.st33{fill:none;stroke:#E5E5E5;stroke-miterlimit:10;}
	.st34{fill:none;stroke:#C9C8C8;stroke-miterlimit:10;}
	.st35{fill:#4C4C4C;}
	.st36{opacity:0.5;fill:url(#SVGID_9_);}
	.st37{opacity:0.5;fill:url(#SVGID_10_);}
	.st38{opacity:0.5;fill:url(#SVGID_11_);}
	.st39{opacity:0.5;fill:url(#SVGID_12_);}
	.st40{fill:#844745;}
	.st41{fill:none;}
	.st42{clip-path:url(#SVGID_14_);fill:#0D0E0F;}
	.st43{opacity:0.5;fill:url(#SVGID_15_);}
	.st44{opacity:0.5;fill:url(#SVGID_16_);}
	.st45{opacity:0.5;fill:url(#SVGID_17_);}
	.st46{opacity:0.5;fill:url(#SVGID_18_);}
	.st47{opacity:0.5;fill:url(#SVGID_19_);}
	.st48{opacity:0.5;fill:url(#SVGID_20_);}
	.st49{opacity:0.5;fill:url(#SVGID_21_);}
	.st50{opacity:0.5;fill:url(#SVGID_22_);}
	.st51{opacity:0.5;fill:url(#SVGID_23_);}
	.st52{opacity:0.5;fill:url(#SVGID_24_);}
	.st53{clip-path:url(#SVGID_26_);fill:#0D0E0F;}
	.st54{opacity:0.5;fill:url(#SVGID_27_);}
	.st55{opacity:0.5;fill:url(#SVGID_28_);}
	.st56{opacity:0.5;fill:url(#SVGID_29_);}
	.st57{opacity:0.5;fill:url(#SVGID_30_);}
	.st58{opacity:0.5;fill:url(#SVGID_31_);}
	.st59{opacity:0.5;fill:url(#SVGID_32_);}
	.st60{opacity:0.5;fill:url(#SVGID_33_);}
	.st61{opacity:0.5;fill:url(#SVGID_34_);}
	.st62{opacity:0.5;fill:url(#SVGID_35_);}
	.st63{opacity:0.5;fill:url(#SVGID_36_);}
	.st64{clip-path:url(#SVGID_38_);fill:#0D0E0F;}
	.st65{opacity:0.5;fill:url(#SVGID_39_);}
	.st66{opacity:0.5;fill:url(#SVGID_40_);}
	.st67{opacity:0.5;fill:url(#SVGID_41_);}
	.st68{opacity:0.5;fill:url(#SVGID_42_);}
	.st69{opacity:0.5;fill:url(#SVGID_43_);}
	.st70{opacity:0.5;fill:url(#SVGID_44_);}
	.st71{opacity:0.5;fill:url(#SVGID_45_);}
	.st72{opacity:0.5;fill:url(#SVGID_46_);}
	.st73{opacity:0.5;fill:url(#SVGID_47_);}
	.st74{opacity:0.5;fill:url(#SVGID_48_);}
	.st75{clip-path:url(#SVGID_50_);fill:#0D0E0F;}
	.st76{fill:#CEC7BD;}
	.st77{fill:#918C84;}
	.st78{fill:none;stroke:#E2E2E2;stroke-width:0.75;stroke-linecap:round;stroke-miterlimit:10;}
	.st79{fill:none;stroke:#E2E2E2;stroke-width:0.5;stroke-linecap:round;stroke-miterlimit:10;}
	.st80{fill:#FFFFFF;stroke:#0D0E0F;stroke-width:0.1302;stroke-miterlimit:10;}
	.st81{fill:#EFEFEF;}
	.st82{clip-path:url(#SVGID_52_);fill:#0D0E0F;}
	.st83{clip-path:url(#SVGID_54_);fill:#0D0E0F;}
	.st84{clip-path:url(#SVGID_56_);fill:#0D0E0F;}
</style>
<g id="NC">
</g>
<g id="N">
</g>
<g id="Слой_3">
	<g>
		<g id="днище_7_">
			<g>
				<defs>
					<path id="SVGID_55_" d="M141.79,141.86v9.79c0,2.35-1.9,4.25-4.25,4.25h-5.67c-2.35,0-4.25-1.9-4.25-4.25v-9.79l0,0.02
						l-99.25-0.02l0,9.79c0,2.35-1.9,4.25-4.25,4.25h-5.67c-2.35,0-4.25-1.9-4.25-4.25l0-9.79l-9.95,0l-4.21-3.95V18.28l3.98-3.98
						l10.19,0c0,0,0-9.79,0-9.79c0-2.35,1.9-4.25,4.25-4.25h5.67c2.35,0,4.25,1.9,4.25,4.25l0,9.79l0,0l99.24,0c0,0,0-9.79,0-9.79
						c0-2.35,1.9-4.25,4.25-4.25h5.67c2.35,0,4.25,1.9,4.25,4.25l0,9.79v0l10.17,0l3.98,3.98v119.62l-3.98,3.98l-10.17,0"/>
				</defs>
				<clipPath id="SVGID_2_">
					<use xlink:href="#SVGID_55_"  style="overflow:visible;"/>
				</clipPath>
				<path class="st0" d="M155.94,155.91V0H0.03v155.91H155.94z M10.88,90.32c-0.7,0-1.26-0.56-1.26-1.26s0.56-1.26,1.26-1.26
					c0.7,0,1.26,0.56,1.26,1.26S11.58,90.32,10.88,90.32z M14.49,90.32c-0.7,0-1.26-0.56-1.26-1.26s0.56-1.26,1.26-1.26
					s1.26,0.56,1.26,1.26S15.18,90.32,14.49,90.32z M10.88,86.63c-0.7,0-1.26-0.56-1.26-1.26s0.56-1.26,1.26-1.26
					c0.7,0,1.26,0.56,1.26,1.26S11.58,86.63,10.88,86.63z M14.49,86.63c-0.7,0-1.26-0.56-1.26-1.26s0.56-1.26,1.26-1.26
					s1.26,0.56,1.26,1.26S15.18,86.63,14.49,86.63z M10.88,83.06c-0.7,0-1.26-0.56-1.26-1.26c0-0.7,0.56-1.26,1.26-1.26
					c0.7,0,1.26,0.56,1.26,1.26C12.14,82.5,11.58,83.06,10.88,83.06z M14.49,83.06c-0.7,0-1.26-0.56-1.26-1.26
					c0-0.7,0.56-1.26,1.26-1.26s1.26,0.56,1.26,1.26C15.75,82.5,15.18,83.06,14.49,83.06z M19.8,142.44c-0.39,0-0.71-0.32-0.71-0.71
					c0-0.39,0.32-0.71,0.71-0.71c0.39,0,0.71,0.32,0.71,0.71C20.5,142.12,20.19,142.44,19.8,142.44z M17.03,142.44
					c-0.39,0-0.71-0.32-0.71-0.71c0-0.39,0.32-0.71,0.71-0.71c0.39,0,0.71,0.32,0.71,0.71C17.74,142.12,17.42,142.44,17.03,142.44z
					 M22.76,142.44c-0.39,0-0.71-0.32-0.71-0.71c0-0.39,0.32-0.71,0.71-0.71c0.39,0,0.71,0.32,0.71,0.71
					C23.47,142.12,23.15,142.44,22.76,142.44z M25.53,142.44c-0.39,0-0.71-0.32-0.71-0.71c0-0.39,0.32-0.71,0.71-0.71
					c0.39,0,0.71,0.32,0.71,0.71C26.24,142.12,25.92,142.44,25.53,142.44z M28.37,142.44c-0.39,0-0.71-0.32-0.71-0.71
					c0-0.39,0.32-0.71,0.71-0.71c0.39,0,0.71,0.32,0.71,0.71C29.07,142.12,28.76,142.44,28.37,142.44z M14.19,142.44
					c-0.39,0-0.71-0.32-0.71-0.71c0-0.39,0.32-0.71,0.71-0.71s0.71,0.32,0.71,0.71C14.9,142.12,14.58,142.44,14.19,142.44z
					 M133.93,14.46c0,0.39-0.32,0.71-0.71,0.71s-0.71-0.32-0.71-0.71c0-0.39,0.32-0.71,0.71-0.71S133.93,14.07,133.93,14.46z
					 M131.16,14.46c0,0.39-0.32,0.71-0.71,0.71s-0.71-0.32-0.71-0.71c0-0.39,0.32-0.71,0.71-0.71S131.16,14.07,131.16,14.46z
					 M136.89,14.46c0,0.39-0.32,0.71-0.71,0.71c-0.39,0-0.71-0.32-0.71-0.71c0-0.39,0.32-0.71,0.71-0.71
					C136.58,13.75,136.89,14.07,136.89,14.46z M139.66,14.46c0,0.39-0.32,0.71-0.71,0.71c-0.39,0-0.71-0.32-0.71-0.71
					c0-0.39,0.32-0.71,0.71-0.71C139.35,13.75,139.66,14.07,139.66,14.46z M142.5,14.46c0,0.39-0.32,0.71-0.71,0.71
					c-0.39,0-0.71-0.32-0.71-0.71c0-0.39,0.32-0.71,0.71-0.71C142.18,13.75,142.5,14.07,142.5,14.46z M128.32,14.46
					c0,0.39-0.32,0.71-0.71,0.71c-0.39,0-0.71-0.32-0.71-0.71c0-0.39,0.32-0.71,0.71-0.71C128.01,13.75,128.32,14.07,128.32,14.46z
					 M20.5,14.46c0,0.39-0.32,0.71-0.71,0.71c-0.39,0-0.71-0.32-0.71-0.71c0-0.39,0.32-0.71,0.71-0.71
					C20.19,13.75,20.5,14.07,20.5,14.46z M17.74,14.46c0,0.39-0.32,0.71-0.71,0.71c-0.39,0-0.71-0.32-0.71-0.71
					c0-0.39,0.32-0.71,0.71-0.71C17.42,13.75,17.74,14.07,17.74,14.46z M23.47,14.46c0,0.39-0.32,0.71-0.71,0.71
					c-0.39,0-0.71-0.32-0.71-0.71c0-0.39,0.32-0.71,0.71-0.71C23.15,13.75,23.47,14.07,23.47,14.46z M26.24,14.46
					c0,0.39-0.32,0.71-0.71,0.71c-0.39,0-0.71-0.32-0.71-0.71c0-0.39,0.32-0.71,0.71-0.71C25.92,13.75,26.24,14.07,26.24,14.46z
					 M29.07,14.46c0,0.39-0.32,0.71-0.71,0.71c-0.39,0-0.71-0.32-0.71-0.71c0-0.39,0.32-0.71,0.71-0.71
					C28.76,13.75,29.07,14.07,29.07,14.46z M14.9,14.46c0,0.39-0.32,0.71-0.71,0.71s-0.71-0.32-0.71-0.71
					c0-0.39,0.32-0.71,0.71-0.71S14.9,14.07,14.9,14.46z M133.22,142.44c-0.39,0-0.71-0.32-0.71-0.71c0-0.39,0.32-0.71,0.71-0.71
					s0.71,0.32,0.71,0.71C133.93,142.12,133.61,142.44,133.22,142.44z M130.45,142.44c-0.39,0-0.71-0.32-0.71-0.71
					c0-0.39,0.32-0.71,0.71-0.71s0.71,0.32,0.71,0.71C131.16,142.12,130.84,142.44,130.45,142.44z M136.19,142.44
					c-0.39,0-0.71-0.32-0.71-0.71c0-0.39,0.32-0.71,0.71-0.71c0.39,0,0.71,0.32,0.71,0.71
					C136.89,142.12,136.58,142.44,136.19,142.44z M138.95,142.44c-0.39,0-0.71-0.32-0.71-0.71c0-0.39,0.32-0.71,0.71-0.71
					c0.39,0,0.71,0.32,0.71,0.71C139.66,142.12,139.35,142.44,138.95,142.44z M141.79,142.44c-0.39,0-0.71-0.32-0.71-0.71
					c0-0.39,0.32-0.71,0.71-0.71c0.39,0,0.71,0.32,0.71,0.71C142.5,142.12,142.18,142.44,141.79,142.44z M127.61,142.44
					c-0.39,0-0.71-0.32-0.71-0.71c0-0.39,0.32-0.71,0.71-0.71c0.39,0,0.71,0.32,0.71,0.71
					C128.32,142.12,128.01,142.44,127.61,142.44z M21.28,153.07c-2.35,0-4.25-1.9-4.25-4.25s1.9-4.25,4.25-4.25s4.25,1.9,4.25,4.25
					S23.63,153.07,21.28,153.07z M134.7,153.13c-2.35,0-4.25-1.9-4.25-4.25s1.9-4.25,4.25-4.25c2.35,0,4.25,1.9,4.25,4.25
					S137.05,153.13,134.7,153.13z M134.7,11.57c-2.35,0-4.25-1.9-4.25-4.25s1.9-4.25,4.25-4.25s4.25,1.9,4.25,4.25
					S137.05,11.57,134.7,11.57z M21.29,11.63c-2.35,0-4.25-1.9-4.25-4.25s1.9-4.25,4.25-4.25s4.25,1.9,4.25,4.25
					S23.64,11.63,21.29,11.63z"/>
			</g>
		</g>
		<g id="text_7_">
			<g id="I2C_14_">
				<rect x="8.13" y="105.08" class="st1" width="18.24" height="28.75"/>
				<line class="st1" x1="26.37" y1="126.88" x2="8.13" y2="126.88"/>
				<line class="st1" x1="26.37" y1="119.58" x2="8.13" y2="119.58"/>
				<line class="st1" x1="26.37" y1="112.37" x2="8.13" y2="112.37"/>
				<g>
					<path class="st2" d="M17.31,130.42c-0.4-0.12-0.69-0.26-0.87-0.43c-0.18-0.17-0.27-0.38-0.27-0.62c0-0.28,0.11-0.51,0.33-0.7
						c0.22-0.18,0.51-0.27,0.87-0.27c0.24,0,0.46,0.05,0.65,0.14c0.19,0.09,0.34,0.22,0.44,0.39c0.1,0.17,0.16,0.35,0.16,0.54h-0.47
						c0-0.22-0.07-0.39-0.2-0.51c-0.14-0.12-0.33-0.18-0.57-0.18c-0.23,0-0.41,0.05-0.54,0.15c-0.13,0.1-0.19,0.24-0.19,0.42
						c0,0.15,0.06,0.27,0.18,0.37c0.12,0.1,0.33,0.19,0.62,0.28c0.29,0.08,0.52,0.17,0.69,0.27c0.17,0.1,0.29,0.22,0.37,0.35
						c0.08,0.13,0.12,0.29,0.12,0.47c0,0.29-0.11,0.52-0.33,0.69c-0.22,0.17-0.52,0.26-0.89,0.26c-0.24,0-0.47-0.05-0.68-0.14
						c-0.21-0.09-0.37-0.22-0.49-0.38c-0.11-0.16-0.17-0.35-0.17-0.55h0.47c0,0.21,0.08,0.38,0.24,0.51
						c0.16,0.13,0.37,0.19,0.63,0.19c0.25,0,0.43-0.05,0.56-0.15c0.13-0.1,0.2-0.24,0.2-0.41s-0.06-0.31-0.18-0.4
						C17.84,130.61,17.62,130.52,17.31,130.42z"/>
					<path class="st2" d="M21.55,130.88c-0.04,0.38-0.18,0.67-0.41,0.87s-0.54,0.31-0.92,0.31c-0.42,0-0.75-0.15-1-0.45
						c-0.25-0.3-0.38-0.7-0.38-1.21v-0.34c0-0.33,0.06-0.62,0.18-0.87c0.12-0.25,0.28-0.44,0.5-0.58c0.21-0.13,0.46-0.2,0.75-0.2
						c0.38,0,0.67,0.11,0.9,0.32c0.23,0.21,0.36,0.5,0.39,0.88h-0.47c-0.04-0.28-0.13-0.49-0.26-0.62
						c-0.13-0.13-0.32-0.19-0.57-0.19c-0.3,0-0.53,0.11-0.7,0.33c-0.17,0.22-0.25,0.54-0.25,0.95v0.34c0,0.39,0.08,0.69,0.24,0.92
						s0.38,0.34,0.67,0.34c0.26,0,0.46-0.06,0.59-0.18s0.23-0.32,0.27-0.62H21.55z"/>
					<path class="st2" d="M22.41,131.62h1.67v0.38h-2.14v-3.55h0.47V131.62z"/>
				</g>
				<g>
					<path class="st2" d="M17.31,123.24c-0.4-0.12-0.69-0.26-0.87-0.43c-0.18-0.17-0.27-0.38-0.27-0.62c0-0.28,0.11-0.51,0.33-0.7
						c0.22-0.18,0.51-0.27,0.87-0.27c0.24,0,0.46,0.05,0.65,0.14c0.19,0.09,0.34,0.22,0.44,0.39c0.1,0.17,0.16,0.35,0.16,0.54h-0.47
						c0-0.22-0.07-0.39-0.2-0.51c-0.14-0.12-0.33-0.18-0.57-0.18c-0.23,0-0.41,0.05-0.54,0.15c-0.13,0.1-0.19,0.24-0.19,0.42
						c0,0.15,0.06,0.27,0.18,0.37c0.12,0.1,0.33,0.19,0.62,0.28c0.29,0.08,0.52,0.17,0.69,0.27c0.17,0.1,0.29,0.22,0.37,0.35
						c0.08,0.13,0.12,0.29,0.12,0.47c0,0.29-0.11,0.52-0.33,0.69c-0.22,0.17-0.52,0.26-0.89,0.26c-0.24,0-0.47-0.05-0.68-0.14
						c-0.21-0.09-0.37-0.22-0.49-0.38c-0.11-0.16-0.17-0.35-0.17-0.55h0.47c0,0.21,0.08,0.38,0.24,0.51
						c0.16,0.13,0.37,0.19,0.63,0.19c0.25,0,0.43-0.05,0.56-0.15c0.13-0.1,0.2-0.24,0.2-0.41s-0.06-0.31-0.18-0.4
						C17.84,123.43,17.62,123.33,17.31,123.24z"/>
					<path class="st2" d="M18.96,124.82v-3.55h0.99c0.31,0,0.58,0.07,0.81,0.21c0.24,0.14,0.42,0.33,0.54,0.58
						c0.13,0.25,0.19,0.54,0.2,0.87v0.23c0,0.33-0.06,0.63-0.19,0.88c-0.13,0.25-0.31,0.45-0.55,0.58
						c-0.24,0.14-0.52,0.21-0.83,0.21H18.96z M19.43,121.65v2.79h0.49c0.36,0,0.64-0.11,0.84-0.34c0.2-0.22,0.3-0.54,0.3-0.96v-0.21
						c0-0.4-0.09-0.72-0.28-0.94c-0.19-0.22-0.46-0.34-0.8-0.34H19.43z"/>
					<path class="st2" d="M23.91,123.89h-1.48l-0.33,0.93h-0.48l1.35-3.55h0.41l1.35,3.55h-0.48L23.91,123.89z M22.57,123.51h1.2
						l-0.6-1.66L22.57,123.51z"/>
				</g>
				<g>
					<path class="st2" d="M17.44,117.11l1.01-2.93h0.51l-1.31,3.55h-0.41l-1.3-3.55h0.51L17.44,117.11z"/>
					<path class="st2" d="M20.05,117.42c0.16,0,0.3-0.05,0.42-0.15s0.19-0.22,0.2-0.37h0.42c-0.01,0.15-0.06,0.3-0.15,0.43
						s-0.22,0.25-0.38,0.33c-0.16,0.08-0.33,0.12-0.5,0.12c-0.36,0-0.64-0.12-0.85-0.36c-0.21-0.24-0.32-0.57-0.32-0.98v-0.08
						c0-0.26,0.05-0.49,0.14-0.69c0.09-0.2,0.23-0.36,0.4-0.47c0.17-0.11,0.38-0.17,0.62-0.17c0.29,0,0.54,0.09,0.73,0.27
						c0.19,0.18,0.3,0.41,0.31,0.69h-0.42c-0.01-0.17-0.08-0.31-0.19-0.42c-0.12-0.11-0.26-0.17-0.43-0.17
						c-0.23,0-0.4,0.08-0.53,0.25c-0.13,0.17-0.19,0.4-0.19,0.72v0.08c0,0.3,0.06,0.54,0.19,0.7
						C19.64,117.33,19.82,117.42,20.05,117.42z"/>
					<path class="st2" d="M22.4,117.42c0.16,0,0.3-0.05,0.42-0.15c0.12-0.1,0.19-0.22,0.2-0.37h0.42c-0.01,0.15-0.06,0.3-0.15,0.43
						c-0.1,0.14-0.22,0.25-0.38,0.33s-0.33,0.12-0.5,0.12c-0.36,0-0.64-0.12-0.85-0.36s-0.32-0.57-0.32-0.98v-0.08
						c0-0.26,0.05-0.49,0.14-0.69c0.09-0.2,0.23-0.36,0.4-0.47s0.38-0.17,0.62-0.17c0.29,0,0.54,0.09,0.73,0.27
						c0.19,0.18,0.3,0.41,0.31,0.69h-0.42c-0.01-0.17-0.08-0.31-0.19-0.42c-0.12-0.11-0.26-0.17-0.43-0.17
						c-0.23,0-0.4,0.08-0.53,0.25c-0.13,0.17-0.19,0.4-0.19,0.72v0.08c0,0.3,0.06,0.54,0.19,0.7S22.16,117.42,22.4,117.42z"/>
				</g>
				<g>
					<path class="st2" d="M18.87,110.05c-0.12,0.17-0.29,0.3-0.5,0.39c-0.21,0.08-0.46,0.13-0.75,0.13c-0.29,0-0.54-0.07-0.76-0.2
						c-0.22-0.14-0.4-0.33-0.52-0.58c-0.12-0.25-0.18-0.54-0.19-0.87v-0.31c0-0.54,0.12-0.95,0.37-1.24
						c0.25-0.29,0.6-0.44,1.04-0.44c0.37,0,0.66,0.09,0.89,0.28s0.36,0.46,0.41,0.81h-0.46c-0.09-0.47-0.37-0.71-0.83-0.71
						c-0.31,0-0.55,0.11-0.71,0.33c-0.16,0.22-0.24,0.54-0.24,0.96v0.29c0,0.4,0.09,0.72,0.27,0.95s0.43,0.35,0.73,0.35
						c0.17,0,0.33-0.02,0.46-0.06s0.24-0.1,0.32-0.2v-0.8h-0.82v-0.38h1.28V110.05z"/>
					<path class="st2" d="M22.11,110.52h-0.47l-1.77-2.74v2.74H19.4v-3.55h0.47l1.78,2.75v-2.75h0.46V110.52z"/>
					<path class="st2" d="M22.68,110.52v-3.55h0.99c0.31,0,0.58,0.07,0.81,0.21s0.42,0.33,0.55,0.58c0.13,0.25,0.19,0.54,0.2,0.87
						v0.23c0,0.33-0.06,0.63-0.19,0.88c-0.13,0.25-0.31,0.45-0.55,0.58c-0.24,0.14-0.52,0.21-0.83,0.21H22.68z M23.15,107.35v2.79
						h0.49c0.36,0,0.64-0.11,0.84-0.34c0.2-0.22,0.3-0.54,0.3-0.96v-0.21c0-0.4-0.09-0.72-0.28-0.94c-0.19-0.22-0.46-0.34-0.8-0.34
						H23.15z"/>
				</g>
				
					<rect x="0.38" y="117.14" transform="matrix(6.123234e-17 -1 1 6.123234e-17 -115.0126 123.8545)" class="st2" width="8.07" height="4.58"/>
				<g>
					<path class="st3" d="M5.92,115.93h0.31v1.27H5.92l-0.07-0.39h-2.8l-0.07,0.39H2.68v-1.27h0.31l0.07,0.39h2.8L5.92,115.93z"/>
					<path class="st3" d="M2.68,117.6h0.33l1.29,1.16c0.23,0.21,0.42,0.35,0.55,0.42s0.28,0.11,0.42,0.11
						c0.18,0,0.33-0.05,0.45-0.16s0.18-0.24,0.18-0.41c0-0.24-0.06-0.42-0.19-0.54c-0.13-0.12-0.3-0.17-0.53-0.17v-0.46l0.02,0
						c0.31-0.01,0.56,0.09,0.77,0.3c0.21,0.21,0.31,0.5,0.31,0.87c0,0.32-0.09,0.57-0.28,0.76c-0.19,0.19-0.42,0.28-0.71,0.28
						c-0.19,0-0.39-0.06-0.58-0.17c-0.19-0.11-0.4-0.27-0.63-0.48l-1.02-0.93l-0.01,0v1.25l0.41,0.04v0.4H2.68V117.6z"/>
					<path class="st3" d="M5.14,123.01v-0.34l0.5-0.09c0.08-0.08,0.14-0.17,0.19-0.29c0.05-0.11,0.07-0.25,0.07-0.4
						c0-0.37-0.13-0.65-0.4-0.84c-0.27-0.2-0.61-0.3-1.02-0.3H4.43c-0.41,0-0.75,0.1-1.02,0.29c-0.27,0.19-0.4,0.46-0.4,0.8
						c0,0.16,0.03,0.31,0.08,0.44c0.05,0.13,0.11,0.23,0.19,0.3l0.5,0.09v0.34H3.14c-0.13-0.1-0.25-0.25-0.35-0.46
						c-0.1-0.2-0.16-0.44-0.16-0.71c0-0.46,0.17-0.83,0.51-1.13s0.77-0.44,1.29-0.44h0.05c0.52,0,0.95,0.14,1.29,0.43
						c0.34,0.29,0.51,0.67,0.51,1.13c0,0.27-0.05,0.5-0.16,0.71c-0.1,0.2-0.22,0.36-0.35,0.46H5.14z"/>
				</g>
				<g>
					<path class="st76" d="M11.65,128.04c1.23,0,2.22,1,2.22,2.24c0,1.24-1,2.24-2.22,2.24s-2.22-1-2.22-2.24
						C9.42,129.04,10.42,128.04,11.65,128.04z"/>
					<ellipse class="st77" cx="11.65" cy="130.28" rx="1.52" ry="1.53"/>
				</g>
				<g>
					<path class="st76" d="M11.65,120.82c1.23,0,2.22,1,2.22,2.24s-1,2.24-2.22,2.24s-2.22-1-2.22-2.24S10.42,120.82,11.65,120.82z"
						/>
					<ellipse class="st77" cx="11.65" cy="123.06" rx="1.52" ry="1.53"/>
				</g>
				<g>
					<path class="st76" d="M11.65,113.7c1.23,0,2.22,1,2.22,2.24s-1,2.24-2.22,2.24s-2.22-1-2.22-2.24S10.42,113.7,11.65,113.7z"/>
					<ellipse class="st77" cx="11.65" cy="115.94" rx="1.52" ry="1.53"/>
				</g>
				<g>
					<path class="st76" d="M11.65,106.45c1.23,0,2.22,1,2.22,2.24s-1,2.24-2.22,2.24s-2.22-1-2.22-2.24S10.42,106.45,11.65,106.45z"
						/>
					<ellipse class="st77" cx="11.65" cy="108.69" rx="1.52" ry="1.53"/>
				</g>
			</g>
			<g id="I2C_13_">
				<rect x="8.13" y="22.51" class="st1" width="18.24" height="28.75"/>
				<line class="st1" x1="26.37" y1="44.31" x2="8.13" y2="44.31"/>
				<line class="st1" x1="26.37" y1="37" x2="8.13" y2="37"/>
				<line class="st1" x1="26.37" y1="29.79" x2="8.13" y2="29.79"/>
				<g>
					<path class="st2" d="M17.31,47.85c-0.4-0.12-0.69-0.26-0.87-0.43c-0.18-0.17-0.27-0.38-0.27-0.62c0-0.28,0.11-0.51,0.33-0.7
						c0.22-0.18,0.51-0.27,0.87-0.27c0.24,0,0.46,0.05,0.65,0.14c0.19,0.09,0.34,0.22,0.44,0.39c0.1,0.17,0.16,0.35,0.16,0.54h-0.47
						c0-0.22-0.07-0.39-0.2-0.51c-0.14-0.12-0.33-0.18-0.57-0.18c-0.23,0-0.41,0.05-0.54,0.15c-0.13,0.1-0.19,0.24-0.19,0.42
						c0,0.15,0.06,0.27,0.18,0.37c0.12,0.1,0.33,0.19,0.62,0.28c0.29,0.08,0.52,0.17,0.69,0.27c0.17,0.1,0.29,0.22,0.37,0.35
						c0.08,0.13,0.12,0.29,0.12,0.47c0,0.29-0.11,0.52-0.33,0.69c-0.22,0.17-0.52,0.26-0.89,0.26c-0.24,0-0.47-0.05-0.68-0.14
						c-0.21-0.09-0.37-0.22-0.49-0.38c-0.11-0.16-0.17-0.35-0.17-0.55h0.47c0,0.21,0.08,0.38,0.24,0.51
						c0.16,0.13,0.37,0.19,0.63,0.19c0.25,0,0.43-0.05,0.56-0.15c0.13-0.1,0.2-0.24,0.2-0.41s-0.06-0.31-0.18-0.4
						C17.84,48.04,17.62,47.94,17.31,47.85z"/>
					<path class="st2" d="M21.55,48.31c-0.04,0.38-0.18,0.67-0.41,0.87s-0.54,0.31-0.92,0.31c-0.42,0-0.75-0.15-1-0.45
						c-0.25-0.3-0.38-0.7-0.38-1.21v-0.34c0-0.33,0.06-0.62,0.18-0.87c0.12-0.25,0.28-0.44,0.5-0.58c0.21-0.13,0.46-0.2,0.75-0.2
						c0.38,0,0.67,0.11,0.9,0.32c0.23,0.21,0.36,0.5,0.39,0.88h-0.47c-0.04-0.28-0.13-0.49-0.26-0.62
						c-0.13-0.13-0.32-0.19-0.57-0.19c-0.3,0-0.53,0.11-0.7,0.33c-0.17,0.22-0.25,0.54-0.25,0.95v0.34c0,0.39,0.08,0.69,0.24,0.92
						s0.38,0.34,0.67,0.34c0.26,0,0.46-0.06,0.59-0.18s0.23-0.32,0.27-0.62H21.55z"/>
					<path class="st2" d="M22.41,49.05h1.67v0.38h-2.14v-3.55h0.47V49.05z"/>
				</g>
				<g>
					<path class="st2" d="M17.31,40.67c-0.4-0.12-0.69-0.26-0.87-0.43c-0.18-0.17-0.27-0.38-0.27-0.62c0-0.28,0.11-0.51,0.33-0.7
						c0.22-0.18,0.51-0.27,0.87-0.27c0.24,0,0.46,0.05,0.65,0.14c0.19,0.09,0.34,0.22,0.44,0.39c0.1,0.17,0.16,0.35,0.16,0.54h-0.47
						c0-0.22-0.07-0.39-0.2-0.51c-0.14-0.12-0.33-0.18-0.57-0.18c-0.23,0-0.41,0.05-0.54,0.15c-0.13,0.1-0.19,0.24-0.19,0.42
						c0,0.15,0.06,0.27,0.18,0.37c0.12,0.1,0.33,0.19,0.62,0.28c0.29,0.08,0.52,0.17,0.69,0.27c0.17,0.1,0.29,0.22,0.37,0.35
						c0.08,0.13,0.12,0.29,0.12,0.47c0,0.29-0.11,0.52-0.33,0.69c-0.22,0.17-0.52,0.26-0.89,0.26c-0.24,0-0.47-0.05-0.68-0.14
						c-0.21-0.09-0.37-0.22-0.49-0.38c-0.11-0.16-0.17-0.35-0.17-0.55h0.47c0,0.21,0.08,0.38,0.24,0.51
						c0.16,0.13,0.37,0.19,0.63,0.19c0.25,0,0.43-0.05,0.56-0.15c0.13-0.1,0.2-0.24,0.2-0.41s-0.06-0.31-0.18-0.4
						C17.84,40.85,17.62,40.76,17.31,40.67z"/>
					<path class="st2" d="M18.96,42.25V38.7h0.99c0.31,0,0.58,0.07,0.81,0.21c0.24,0.14,0.42,0.33,0.54,0.58
						c0.13,0.25,0.19,0.54,0.2,0.87v0.23c0,0.33-0.06,0.63-0.19,0.88c-0.13,0.25-0.31,0.45-0.55,0.58
						c-0.24,0.14-0.52,0.21-0.83,0.21H18.96z M19.43,39.08v2.79h0.49c0.36,0,0.64-0.11,0.84-0.34c0.2-0.22,0.3-0.54,0.3-0.96v-0.21
						c0-0.4-0.09-0.72-0.28-0.94c-0.19-0.22-0.46-0.34-0.8-0.34H19.43z"/>
					<path class="st2" d="M23.91,41.32h-1.48l-0.33,0.93h-0.48l1.35-3.55h0.41l1.35,3.55h-0.48L23.91,41.32z M22.57,40.94h1.2
						l-0.6-1.66L22.57,40.94z"/>
				</g>
				<g>
					<path class="st2" d="M17.44,34.54l1.01-2.93h0.51l-1.31,3.55h-0.41l-1.3-3.55h0.51L17.44,34.54z"/>
					<path class="st2" d="M20.05,34.84c0.16,0,0.3-0.05,0.42-0.15s0.19-0.22,0.2-0.37h0.42c-0.01,0.15-0.06,0.3-0.15,0.43
						s-0.22,0.25-0.38,0.33c-0.16,0.08-0.33,0.12-0.5,0.12c-0.36,0-0.64-0.12-0.85-0.36c-0.21-0.24-0.32-0.57-0.32-0.98v-0.08
						c0-0.26,0.05-0.49,0.14-0.69c0.09-0.2,0.23-0.36,0.4-0.47c0.17-0.11,0.38-0.17,0.62-0.17c0.29,0,0.54,0.09,0.73,0.27
						c0.19,0.18,0.3,0.41,0.31,0.69h-0.42c-0.01-0.17-0.08-0.31-0.19-0.42c-0.12-0.11-0.26-0.17-0.43-0.17
						c-0.23,0-0.4,0.08-0.53,0.25c-0.13,0.17-0.19,0.4-0.19,0.72v0.08c0,0.3,0.06,0.54,0.19,0.7
						C19.64,34.76,19.82,34.84,20.05,34.84z"/>
					<path class="st2" d="M22.4,34.84c0.16,0,0.3-0.05,0.42-0.15c0.12-0.1,0.19-0.22,0.2-0.37h0.42c-0.01,0.15-0.06,0.3-0.15,0.43
						c-0.1,0.14-0.22,0.25-0.38,0.33s-0.33,0.12-0.5,0.12c-0.36,0-0.64-0.12-0.85-0.36s-0.32-0.57-0.32-0.98v-0.08
						c0-0.26,0.05-0.49,0.14-0.69c0.09-0.2,0.23-0.36,0.4-0.47s0.38-0.17,0.62-0.17c0.29,0,0.54,0.09,0.73,0.27
						c0.19,0.18,0.3,0.41,0.31,0.69h-0.42c-0.01-0.17-0.08-0.31-0.19-0.42c-0.12-0.11-0.26-0.17-0.43-0.17
						c-0.23,0-0.4,0.08-0.53,0.25c-0.13,0.17-0.19,0.4-0.19,0.72v0.08c0,0.3,0.06,0.54,0.19,0.7S22.16,34.84,22.4,34.84z"/>
				</g>
				<g>
					<path class="st2" d="M18.87,27.48c-0.12,0.17-0.29,0.3-0.5,0.39C18.16,27.95,17.91,28,17.62,28c-0.29,0-0.54-0.07-0.76-0.2
						c-0.22-0.14-0.4-0.33-0.52-0.58c-0.12-0.25-0.18-0.54-0.19-0.87v-0.31c0-0.54,0.12-0.95,0.37-1.24
						c0.25-0.29,0.6-0.44,1.04-0.44c0.37,0,0.66,0.09,0.89,0.28s0.36,0.46,0.41,0.81h-0.46c-0.09-0.47-0.37-0.71-0.83-0.71
						c-0.31,0-0.55,0.11-0.71,0.33c-0.16,0.22-0.24,0.54-0.24,0.96v0.29c0,0.4,0.09,0.72,0.27,0.95s0.43,0.35,0.73,0.35
						c0.17,0,0.33-0.02,0.46-0.06s0.24-0.1,0.32-0.2v-0.8h-0.82v-0.38h1.28V27.48z"/>
					<path class="st2" d="M22.11,27.95h-0.47l-1.77-2.74v2.74H19.4v-3.55h0.47l1.78,2.75v-2.75h0.46V27.95z"/>
					<path class="st2" d="M22.68,27.95v-3.55h0.99c0.31,0,0.58,0.07,0.81,0.21s0.42,0.33,0.55,0.58c0.13,0.25,0.19,0.54,0.2,0.87
						v0.23c0,0.33-0.06,0.63-0.19,0.88c-0.13,0.25-0.31,0.45-0.55,0.58c-0.24,0.14-0.52,0.21-0.83,0.21H22.68z M23.15,24.78v2.79
						h0.49c0.36,0,0.64-0.11,0.84-0.34c0.2-0.22,0.3-0.54,0.3-0.96v-0.21c0-0.4-0.09-0.72-0.28-0.94c-0.19-0.22-0.46-0.34-0.8-0.34
						H23.15z"/>
				</g>
				
					<rect x="0.38" y="34.57" transform="matrix(6.123234e-17 -1 1 6.123234e-17 -32.4378 41.2797)" class="st2" width="8.07" height="4.58"/>
				<g>
					<path class="st3" d="M5.92,33.36h0.31v1.27H5.92l-0.07-0.39h-2.8l-0.07,0.39H2.68v-1.27h0.31l0.07,0.39h2.8L5.92,33.36z"/>
					<path class="st3" d="M2.68,35.03h0.33l1.29,1.16c0.23,0.21,0.42,0.35,0.55,0.42s0.28,0.11,0.42,0.11
						c0.18,0,0.33-0.05,0.45-0.16s0.18-0.24,0.18-0.41c0-0.24-0.06-0.42-0.19-0.54c-0.13-0.12-0.3-0.17-0.53-0.17v-0.46l0.02,0
						c0.31-0.01,0.56,0.09,0.77,0.3c0.21,0.21,0.31,0.5,0.31,0.87c0,0.32-0.09,0.57-0.28,0.76c-0.19,0.19-0.42,0.28-0.71,0.28
						c-0.19,0-0.39-0.06-0.58-0.17c-0.19-0.11-0.4-0.27-0.63-0.48l-1.02-0.93l-0.01,0v1.25l0.41,0.04v0.4H2.68V35.03z"/>
					<path class="st3" d="M5.14,40.43V40.1l0.5-0.09c0.08-0.08,0.14-0.17,0.19-0.29c0.05-0.11,0.07-0.25,0.07-0.4
						c0-0.37-0.13-0.65-0.4-0.84c-0.27-0.2-0.61-0.3-1.02-0.3H4.43c-0.41,0-0.75,0.1-1.02,0.29C3.14,38.66,3,38.93,3,39.27
						c0,0.16,0.03,0.31,0.08,0.44c0.05,0.13,0.11,0.23,0.19,0.3l0.5,0.09v0.34H3.14c-0.13-0.1-0.25-0.25-0.35-0.46
						c-0.1-0.2-0.16-0.44-0.16-0.71c0-0.46,0.17-0.83,0.51-1.13s0.77-0.44,1.29-0.44h0.05c0.52,0,0.95,0.14,1.29,0.43
						c0.34,0.29,0.51,0.67,0.51,1.13c0,0.27-0.05,0.5-0.16,0.71c-0.1,0.2-0.22,0.36-0.35,0.46H5.14z"/>
				</g>
				<g>
					<path class="st76" d="M11.65,45.46c1.23,0,2.22,1,2.22,2.24s-1,2.24-2.22,2.24s-2.22-1-2.22-2.24S10.42,45.46,11.65,45.46z"/>
					<ellipse class="st77" cx="11.65" cy="47.71" rx="1.52" ry="1.53"/>
				</g>
				<g>
					<path class="st76" d="M11.65,38.24c1.23,0,2.22,1,2.22,2.24s-1,2.24-2.22,2.24s-2.22-1-2.22-2.24S10.42,38.24,11.65,38.24z"/>
					<ellipse class="st77" cx="11.65" cy="40.48" rx="1.52" ry="1.53"/>
				</g>
				<g>
					<path class="st76" d="M11.65,31.12c1.23,0,2.22,1,2.22,2.24s-1,2.24-2.22,2.24s-2.22-1-2.22-2.24S10.42,31.12,11.65,31.12z"/>
					<ellipse class="st77" cx="11.65" cy="33.36" rx="1.52" ry="1.53"/>
				</g>
				<g>
					<path class="st76" d="M11.65,23.87c1.23,0,2.22,1,2.22,2.24s-1,2.24-2.22,2.24s-2.22-1-2.22-2.24S10.42,23.87,11.65,23.87z"/>
					<ellipse class="st77" cx="11.65" cy="26.11" rx="1.52" ry="1.53"/>
				</g>
			</g>
			<g>
				<path class="st7" d="M147.55,93.33v-1.01l2.59-2.32l-0.62-0.58h-1.97v-0.78h5.82v0.78h-3.04l3.04,2.85v0.95l-2.73-2.62
					L147.55,93.33z"/>
				<path class="st7" d="M150.35,97.1c-0.11,0.13-0.25,0.23-0.42,0.31c-0.17,0.08-0.39,0.12-0.66,0.12c-0.27,0-0.51-0.05-0.73-0.15
					c-0.22-0.1-0.41-0.23-0.58-0.41c-0.18-0.2-0.32-0.43-0.4-0.7c-0.09-0.27-0.13-0.56-0.13-0.88c0-0.33,0.04-0.65,0.12-0.96
					c0.08-0.31,0.16-0.57,0.25-0.78h0.82v0.06c-0.15,0.22-0.27,0.49-0.36,0.79s-0.14,0.59-0.14,0.88c0,0.17,0.03,0.34,0.08,0.53
					s0.14,0.34,0.24,0.45c0.11,0.12,0.24,0.21,0.38,0.27c0.14,0.06,0.31,0.09,0.52,0.09c0.21,0,0.38-0.03,0.52-0.1
					c0.14-0.07,0.24-0.16,0.32-0.28c0.08-0.12,0.14-0.26,0.17-0.43s0.04-0.35,0.04-0.54v-0.35h0.65v0.28c0,0.4,0.08,0.72,0.25,0.96
					c0.17,0.24,0.41,0.36,0.72,0.36c0.14,0,0.26-0.03,0.37-0.09c0.11-0.06,0.19-0.14,0.26-0.25c0.07-0.11,0.11-0.23,0.14-0.36
					s0.04-0.27,0.04-0.44c0-0.25-0.04-0.51-0.13-0.8c-0.09-0.28-0.21-0.55-0.38-0.79v-0.04h0.82c0.09,0.19,0.17,0.44,0.25,0.75
					c0.08,0.31,0.12,0.61,0.12,0.9c0,0.29-0.03,0.54-0.08,0.76s-0.14,0.42-0.25,0.59c-0.13,0.19-0.28,0.33-0.45,0.43
					c-0.18,0.1-0.38,0.15-0.62,0.15c-0.32,0-0.6-0.11-0.85-0.34c-0.24-0.23-0.39-0.5-0.46-0.81h-0.05
					c-0.02,0.13-0.06,0.27-0.13,0.43S150.45,96.99,150.35,97.1z"/>
			</g>
			<g>
				<path class="st7" d="M147.55,121.08v-1.01l2.59-2.32l-0.62-0.58h-1.97v-0.78h5.82v0.78h-3.04l3.04,2.85v0.95l-2.73-2.62
					L147.55,121.08z"/>
				<path class="st7" d="M149.19,125.5v-0.87h-1.64v-0.76h1.64v-2.81h0.9l3.28,2.84v0.73h-3.55v0.87H149.19z M149.81,123.87h2.63
					l-2.63-2.27V123.87z"/>
			</g>
			<g>
				<path class="st7" d="M147.55,64.27v-1.01l2.59-2.32l-0.62-0.58h-1.97v-0.78h5.82v0.78h-3.04l3.04,2.85v0.95l-2.73-2.62
					L147.55,64.27z"/>
				<path class="st7" d="M147.55,68.56v-3.97h0.82c0.23,0.28,0.47,0.55,0.7,0.83c0.23,0.28,0.47,0.54,0.7,0.77
					c0.48,0.5,0.87,0.85,1.15,1.04c0.29,0.19,0.59,0.28,0.92,0.28c0.3,0,0.54-0.1,0.71-0.3c0.17-0.2,0.26-0.48,0.26-0.84
					c0-0.24-0.04-0.5-0.13-0.78s-0.21-0.55-0.38-0.82v-0.04h0.82c0.09,0.19,0.17,0.44,0.25,0.75c0.08,0.31,0.11,0.61,0.11,0.9
					c0,0.6-0.14,1.07-0.43,1.41c-0.29,0.34-0.68,0.51-1.17,0.51c-0.22,0-0.43-0.03-0.62-0.08s-0.37-0.14-0.54-0.25
					c-0.16-0.1-0.32-0.22-0.48-0.36s-0.33-0.31-0.52-0.5c-0.27-0.28-0.54-0.57-0.79-0.87s-0.49-0.58-0.71-0.84v3.16H147.55z"/>
			</g>
			<g>
				<path class="st7" d="M147.55,35.11v-1.01l2.59-2.32l-0.62-0.58h-1.97v-0.78h5.82v0.78h-3.04l3.04,2.85v0.95l-2.73-2.62
					L147.55,35.11z"/>
				<path class="st7" d="M147.55,39.06v-3.17h0.59v1.22h3.9v-1.22h0.53c0,0.17,0.01,0.34,0.04,0.53c0.03,0.19,0.07,0.33,0.12,0.43
					c0.07,0.12,0.15,0.22,0.25,0.29c0.1,0.07,0.24,0.11,0.4,0.12v0.61h-5.24v1.2H147.55z"/>
			</g>
			<line class="st78" x1="154.3" y1="49.55" x2="121.24" y2="49.55"/>
			<line class="st78" x1="154.3" y1="78.3" x2="121.24" y2="78.3"/>
			<line class="st78" x1="154.3" y1="106.99" x2="121.24" y2="106.99"/>
		</g>
		<g>
			<g>
				<g>
					<path class="st7" d="M70.26,132.54v-2.15h-2.13v-0.65h2.13v-2.15h0.63v2.15h2.13v0.65h-2.13v2.15H70.26z"/>
				</g>
			</g>
			<g>
				<g>
					<path class="st7" d="M90.62,130.45h-4.44v-0.71h4.44V130.45z"/>
				</g>
			</g>
		</g>
		<g>
			<g>
				<g>
					<path class="st7" d="M70.51,28.67v-2.15h-2.13v-0.65h2.13v-2.15h0.63v2.15h2.13v0.65h-2.13v2.15H70.51z"/>
				</g>
			</g>
			<g>
				<g>
					<path class="st7" d="M90.87,26.58h-4.44v-0.71h4.44V26.58z"/>
				</g>
			</g>
		</g>
		<g>
			<g>
				<path class="st7" d="M78.47,127.56l-1.87,5.09h-0.91l-1.87-5.09h0.73l1.61,4.48l1.61-4.48H78.47z"/>
				<path class="st7" d="M79.54,128.19h-0.73v-0.67h0.73V128.19z M79.5,132.65h-0.65v-3.82h0.65V132.65z"/>
				<path class="st7" d="M83.65,132.65H83v-2.17c0-0.18-0.01-0.34-0.03-0.49c-0.02-0.15-0.06-0.27-0.11-0.36
					c-0.06-0.1-0.14-0.17-0.25-0.21s-0.25-0.07-0.42-0.07c-0.18,0-0.36,0.04-0.55,0.13c-0.19,0.09-0.38,0.2-0.55,0.33v2.85h-0.65
					v-3.82h0.65v0.42c0.2-0.17,0.41-0.3,0.63-0.39c0.22-0.09,0.44-0.14,0.67-0.14c0.42,0,0.73,0.12,0.95,0.37
					c0.22,0.25,0.33,0.61,0.33,1.07V132.65z"/>
			</g>
		</g>
		<g>
			<g>
				<path class="st7" d="M80.05,28.82l1.87-5.09h0.91l1.87,5.09h-0.73l-1.61-4.48l-1.61,4.48H80.05z"/>
				<path class="st7" d="M78.98,28.19h0.73v0.67h-0.73V28.19z M79.02,23.73h0.65v3.82h-0.65V23.73z"/>
				<path class="st7" d="M74.87,23.73h0.65v2.17c0,0.18,0.01,0.34,0.03,0.49c0.02,0.15,0.06,0.27,0.11,0.36
					c0.06,0.1,0.14,0.17,0.25,0.21s0.25,0.07,0.42,0.07c0.18,0,0.36-0.04,0.55-0.13c0.19-0.09,0.38-0.2,0.55-0.33v-2.85h0.65v3.82
					h-0.65v-0.42c-0.2,0.17-0.41,0.3-0.63,0.39c-0.22,0.09-0.44,0.14-0.67,0.14c-0.42,0-0.73-0.12-0.95-0.37
					c-0.22-0.25-0.33-0.61-0.33-1.07V23.73z"/>
			</g>
		</g>
		<g>
			<circle class="st7" cx="86.33" cy="121.28" r="3.54"/>
			<circle class="st76" cx="86.33" cy="121.28" r="3.54"/>
			<circle class="st77" cx="86.33" cy="121.28" r="2.18"/>
		</g>
		<g>
			<circle class="st76" cx="71.83" cy="121.28" r="3.54"/>
			<circle class="st77" cx="71.83" cy="121.28" r="2.18"/>
		</g>
		<g>
			<circle class="st7" cx="86.33" cy="35.03" r="3.54"/>
			<circle class="st76" cx="86.33" cy="35.03" r="3.54"/>
			<circle class="st77" cx="86.33" cy="35.03" r="2.18"/>
		</g>
		<g>
			<circle class="st76" cx="71.83" cy="35.03" r="3.54"/>
			<circle class="st77" cx="71.83" cy="35.03" r="2.18"/>
		</g>
		<g>
			<g>
				<path class="st7" d="M144.48,114.43h-2.15v2.13h-0.65v-2.13h-2.15v-0.63h2.15v-2.13h0.65v2.13h2.15V114.43z"/>
			</g>
		</g>
		<g>
			<g>
				<path class="st7" d="M120.7,111.28h-1.01v1h-0.31v-1h-1.01v-0.29h1.01v-1h0.31v1h1.01V111.28z"/>
			</g>
		</g>
		<g>
			<g>
				<path class="st7" d="M141.68,130.76v-4.44h0.71v4.44H141.68z"/>
			</g>
		</g>
		<g>
			<g>
				<path class="st7" d="M121.11,115.49l-2.7-0.99v-0.48l2.7-0.99v0.39l-2.38,0.86l2.38,0.86V115.49z"/>
				<path class="st7" d="M118.41,116.13v-0.34h2.03v0.34H118.41z M120.78,116.16v-0.39h0.35v0.39H120.78z"/>
				<path class="st7" d="M118.41,118.43v-0.34h1.15c0.09,0,0.18-0.01,0.26-0.02s0.15-0.03,0.19-0.06c0.05-0.03,0.09-0.07,0.11-0.13
					c0.02-0.06,0.04-0.13,0.04-0.22c0-0.09-0.02-0.19-0.07-0.29s-0.1-0.2-0.18-0.29h-1.51v-0.34h2.03v0.34h-0.23
					c0.09,0.11,0.16,0.22,0.21,0.33c0.05,0.11,0.07,0.23,0.07,0.35c0,0.22-0.07,0.39-0.2,0.5s-0.32,0.17-0.57,0.17H118.41z"/>
			</g>
		</g>
		<g>
			<circle class="st7" cx="134.72" cy="128.46" r="3.54"/>
			<circle class="st76" cx="134.72" cy="128.46" r="3.54"/>
			<circle class="st77" cx="134.72" cy="128.46" r="2.18"/>
		</g>
		<g>
			<circle class="st7" cx="134.72" cy="114.07" r="3.54"/>
			<circle class="st76" cx="134.72" cy="114.07" r="3.54"/>
			<circle class="st77" cx="134.72" cy="114.07" r="2.18"/>
		</g>
		<line class="st79" x1="130.55" y1="114.07" x2="121.47" y2="114.07"/>
		
			<rect x="119.91" y="127.06" transform="matrix(-1 -1.224647e-16 1.224647e-16 -1 240.8542 256.8735)" class="st7" width="1.03" height="2.75"/>
		<polyline class="st79" points="124.07,130.96 129.13,128.44 130.55,128.44 		"/>
		<polyline class="st79" points="124.1,129.17 124.1,128.44 120.86,128.44 		"/>
		<g>
			<g>
				<path class="st7" d="M144.48,85.83h-2.15v2.13h-0.65v-2.13h-2.15v-0.63h2.15v-2.13h0.65v2.13h2.15V85.83z"/>
			</g>
		</g>
		<g>
			<g>
				<path class="st7" d="M120.7,82.68h-1.01v1h-0.31v-1h-1.01v-0.29h1.01v-1h0.31v1h1.01V82.68z"/>
			</g>
		</g>
		<g>
			<g>
				<path class="st7" d="M141.68,102.16v-4.44h0.71v4.44H141.68z"/>
			</g>
		</g>
		<g>
			<g>
				<path class="st7" d="M121.11,86.9l-2.7-0.99v-0.48l2.7-0.99v0.39l-2.38,0.86l2.38,0.86V86.9z"/>
				<path class="st7" d="M118.41,87.53v-0.34h2.03v0.34H118.41z M120.78,87.56v-0.39h0.35v0.39H120.78z"/>
				<path class="st7" d="M118.41,89.83v-0.34h1.15c0.09,0,0.18-0.01,0.26-0.02s0.15-0.03,0.19-0.06c0.05-0.03,0.09-0.07,0.11-0.13
					c0.02-0.06,0.04-0.13,0.04-0.22c0-0.09-0.02-0.19-0.07-0.29s-0.1-0.2-0.18-0.29h-1.51v-0.34h2.03v0.34h-0.23
					c0.09,0.11,0.16,0.22,0.21,0.33c0.05,0.11,0.07,0.23,0.07,0.35c0,0.22-0.07,0.39-0.2,0.5s-0.32,0.17-0.57,0.17H118.41z"/>
			</g>
		</g>
		<g>
			<circle class="st7" cx="134.72" cy="99.86" r="3.54"/>
			<circle class="st76" cx="134.72" cy="99.86" r="3.54"/>
			<circle class="st77" cx="134.72" cy="99.86" r="2.18"/>
		</g>
		<g>
			<circle class="st7" cx="134.72" cy="85.47" r="3.54"/>
			<circle class="st76" cx="134.72" cy="85.47" r="3.54"/>
			<circle class="st77" cx="134.72" cy="85.47" r="2.18"/>
		</g>
		<line class="st79" x1="130.55" y1="85.47" x2="121.47" y2="85.47"/>
		
			<rect x="119.91" y="98.46" transform="matrix(-1 -1.224647e-16 1.224647e-16 -1 240.8542 199.6742)" class="st7" width="1.03" height="2.75"/>
		<polyline class="st79" points="124.07,102.36 129.13,99.84 130.55,99.84 		"/>
		<polyline class="st79" points="124.1,100.57 124.1,99.84 120.43,99.84 		"/>
		<g>
			<g>
				<path class="st7" d="M144.48,56.83h-2.15v2.13h-0.65v-2.13h-2.15v-0.63h2.15v-2.13h0.65v2.13h2.15V56.83z"/>
			</g>
		</g>
		<g>
			<g>
				<path class="st7" d="M120.7,53.68h-1.01v1h-0.31v-1h-1.01v-0.29h1.01v-1h0.31v1h1.01V53.68z"/>
			</g>
		</g>
		<g>
			<g>
				<path class="st7" d="M141.68,73.16v-4.44h0.71v4.44H141.68z"/>
			</g>
		</g>
		<g>
			<g>
				<path class="st7" d="M121.11,57.9l-2.7-0.99v-0.48l2.7-0.99v0.39l-2.38,0.86l2.38,0.86V57.9z"/>
				<path class="st7" d="M118.41,58.53v-0.34h2.03v0.34H118.41z M120.78,58.56v-0.39h0.35v0.39H120.78z"/>
				<path class="st7" d="M118.41,60.83v-0.34h1.15c0.09,0,0.18-0.01,0.26-0.02s0.15-0.03,0.19-0.06c0.05-0.03,0.09-0.07,0.11-0.13
					c0.02-0.06,0.04-0.13,0.04-0.22c0-0.09-0.02-0.19-0.07-0.29s-0.1-0.2-0.18-0.29h-1.51v-0.34h2.03v0.34h-0.23
					c0.09,0.11,0.16,0.22,0.21,0.33c0.05,0.11,0.07,0.23,0.07,0.35c0,0.22-0.07,0.39-0.2,0.5s-0.32,0.17-0.57,0.17H118.41z"/>
			</g>
		</g>
		<g>
			<circle class="st7" cx="134.72" cy="70.86" r="3.54"/>
			<circle class="st76" cx="134.72" cy="70.86" r="3.54"/>
			<circle class="st77" cx="134.72" cy="70.86" r="2.18"/>
		</g>
		<g>
			<circle class="st7" cx="134.72" cy="56.47" r="3.54"/>
			<circle class="st76" cx="134.72" cy="56.47" r="3.54"/>
			<circle class="st77" cx="134.72" cy="56.47" r="2.18"/>
		</g>
		<line class="st79" x1="130.55" y1="56.47" x2="121.47" y2="56.47"/>
		
			<rect x="119.91" y="69.46" transform="matrix(-1 -1.224647e-16 1.224647e-16 -1 240.8542 141.6755)" class="st7" width="1.03" height="2.75"/>
		<polyline class="st79" points="124.07,73.36 129.13,70.84 130.55,70.84 		"/>
		<polyline class="st79" points="124.1,71.57 124.1,70.84 120.65,70.84 		"/>
		<g>
			<g>
				<path class="st7" d="M144.48,28.23h-2.15v2.13h-0.65v-2.13h-2.15v-0.63h2.15v-2.13h0.65v2.13h2.15V28.23z"/>
			</g>
		</g>
		<g>
			<g>
				<path class="st7" d="M120.7,25.08h-1.01v1h-0.31v-1h-1.01v-0.29h1.01v-1h0.31v1h1.01V25.08z"/>
			</g>
		</g>
		<g>
			<g>
				<path class="st7" d="M141.68,44.56v-4.44h0.71v4.44H141.68z"/>
			</g>
		</g>
		<g>
			<g>
				<path class="st7" d="M121.11,29.3l-2.7-0.99v-0.48l2.7-0.99v0.39l-2.38,0.86l2.38,0.86V29.3z"/>
				<path class="st7" d="M118.41,29.94v-0.34h2.03v0.34H118.41z M120.78,29.96v-0.39h0.35v0.39H120.78z"/>
				<path class="st7" d="M118.41,32.23v-0.34h1.15c0.09,0,0.18-0.01,0.26-0.02s0.15-0.03,0.19-0.06c0.05-0.03,0.09-0.07,0.11-0.13
					c0.02-0.06,0.04-0.13,0.04-0.22c0-0.09-0.02-0.19-0.07-0.29s-0.1-0.2-0.18-0.29h-1.51v-0.34h2.03v0.34h-0.23
					c0.09,0.11,0.16,0.22,0.21,0.33c0.05,0.11,0.07,0.23,0.07,0.35c0,0.22-0.07,0.39-0.2,0.5s-0.32,0.17-0.57,0.17H118.41z"/>
			</g>
		</g>
		<g>
			<circle class="st7" cx="134.72" cy="42.26" r="3.54"/>
			<circle class="st76" cx="134.72" cy="42.26" r="3.54"/>
			<circle class="st77" cx="134.72" cy="42.26" r="2.18"/>
		</g>
		<g>
			<circle class="st7" cx="134.72" cy="27.87" r="3.54"/>
			<circle class="st76" cx="134.72" cy="27.87" r="3.54"/>
			<circle class="st77" cx="134.72" cy="27.87" r="2.18"/>
		</g>
		<line class="st79" x1="130.55" y1="27.87" x2="121.47" y2="27.87"/>
		
			<rect x="119.91" y="40.86" transform="matrix(-1 -1.224647e-16 1.224647e-16 -1 240.8542 84.4762)" class="st7" width="1.03" height="2.75"/>
		<polyline class="st79" points="124.07,44.76 129.13,42.24 130.55,42.24 		"/>
		<polyline class="st79" points="124.1,42.97 124.1,42.24 120.62,42.24 		"/>
		<g>
			<path class="st2" d="M5.87,71.09c0,0.4-0.09,0.72-0.28,0.95c-0.18,0.23-0.44,0.34-0.77,0.34c-0.18,0-0.33-0.05-0.47-0.14
				c-0.13-0.1-0.24-0.24-0.32-0.42c-0.06,0.21-0.17,0.36-0.31,0.45c-0.14,0.09-0.32,0.14-0.54,0.14H3.02
				c-0.08,0-0.14,0.02-0.18,0.05c-0.04,0.03-0.07,0.08-0.08,0.15l-0.01,0.09H2.32v-0.37c0-0.23,0.06-0.4,0.19-0.49
				c0.13-0.09,0.29-0.14,0.49-0.14h0.2c0.17,0,0.31-0.05,0.41-0.14s0.15-0.22,0.15-0.39v-0.58H2.82l-0.07,0.38H2.32v-1.47h0.43
				l0.07,0.38h2.55l0.07-0.38h0.43v0.38V71.09z M4.31,70.58v0.49c0,0.2,0.04,0.35,0.13,0.45s0.21,0.15,0.37,0.15
				s0.29-0.05,0.38-0.15c0.1-0.1,0.14-0.24,0.14-0.44v-0.5H4.31z"/>
			<path class="st2" d="M5.87,73.98H5.44L5.37,73.6H3.52c-0.23,0-0.41,0.06-0.53,0.19s-0.17,0.3-0.17,0.52
				c0,0.22,0.06,0.4,0.17,0.53s0.29,0.19,0.53,0.19h1.86l0.07-0.38h0.43v1.47H5.44l-0.07-0.38H3.52c-0.4,0-0.71-0.13-0.92-0.39
				s-0.32-0.61-0.32-1.03c0-0.42,0.11-0.77,0.32-1.03c0.22-0.26,0.52-0.39,0.92-0.39h1.86l0.07-0.38h0.43v0.38v0.71V73.98z"/>
			<path class="st2" d="M4.74,78.66v-0.53l0.49-0.09c0.04-0.06,0.07-0.15,0.1-0.27s0.04-0.25,0.04-0.38c0-0.2-0.04-0.35-0.12-0.45
				s-0.19-0.16-0.32-0.16c-0.12,0-0.22,0.06-0.3,0.17s-0.16,0.3-0.25,0.58C4.28,77.9,4.14,78.2,3.96,78.4
				c-0.18,0.2-0.42,0.3-0.71,0.3c-0.3,0-0.54-0.12-0.72-0.36c-0.18-0.24-0.26-0.56-0.26-0.95c0-0.28,0.04-0.54,0.13-0.76
				c0.09-0.23,0.21-0.42,0.37-0.57h0.74v0.55l-0.5,0.08c-0.06,0.07-0.11,0.17-0.15,0.29s-0.06,0.26-0.06,0.41
				c0,0.2,0.04,0.34,0.12,0.45c0.08,0.1,0.19,0.15,0.32,0.15c0.14,0,0.25-0.05,0.33-0.15c0.08-0.1,0.16-0.27,0.23-0.51
				c0.12-0.42,0.27-0.74,0.43-0.96c0.17-0.22,0.4-0.33,0.69-0.33c0.29,0,0.52,0.12,0.71,0.37c0.18,0.24,0.28,0.55,0.28,0.92
				c0,0.27-0.04,0.52-0.13,0.75c-0.08,0.22-0.19,0.41-0.33,0.57H4.74z"/>
			<path class="st2" d="M4.74,81.31v-0.53l0.49-0.09c0.04-0.06,0.07-0.15,0.1-0.27s0.04-0.25,0.04-0.38c0-0.2-0.04-0.35-0.12-0.45
				s-0.19-0.16-0.32-0.16c-0.12,0-0.22,0.06-0.3,0.17s-0.16,0.3-0.25,0.58c-0.11,0.39-0.25,0.69-0.43,0.89
				c-0.18,0.2-0.42,0.3-0.71,0.3c-0.3,0-0.54-0.12-0.72-0.36c-0.18-0.24-0.26-0.56-0.26-0.95c0-0.28,0.04-0.54,0.13-0.76
				c0.09-0.23,0.21-0.42,0.37-0.57h0.74v0.55l-0.5,0.08c-0.06,0.07-0.11,0.17-0.15,0.29s-0.06,0.26-0.06,0.41
				c0,0.2,0.04,0.34,0.12,0.45c0.08,0.1,0.19,0.15,0.32,0.15c0.14,0,0.25-0.05,0.33-0.15c0.08-0.1,0.16-0.27,0.23-0.51
				c0.12-0.42,0.27-0.74,0.43-0.96c0.17-0.22,0.4-0.33,0.69-0.33c0.29,0,0.52,0.12,0.71,0.37c0.18,0.24,0.28,0.55,0.28,0.92
				c0,0.27-0.04,0.52-0.13,0.75c-0.08,0.22-0.19,0.41-0.33,0.57H4.74z"/>
			<path class="st2" d="M5.44,81.27h0.43v1.47H5.44l-0.07-0.38H2.82l-0.07,0.38H2.32v-1.47h0.43l0.07,0.38h2.55L5.44,81.27z"/>
			<path class="st2" d="M2.75,82.6l0.04,0.25l3.09,1.08v0.73l-3.09,1.07l-0.04,0.25H2.32v-1.21h0.43l0.04,0.25l0.49-0.16v-1.15
				l-0.49-0.16l-0.04,0.25H2.32V82.6H2.75z M3.8,83.89v0.82l1.25-0.4v-0.02L3.8,83.89z"/>
		</g>
		<g>
			<path class="st2" d="M115.58,40.27l0-0.02l-4.01-1.61V38.2l4.01-1.61l0-0.02l-2.03,0.07h-1.45l-0.1,0.56h-0.43v-1.79H112
				l0.1,0.56h3.94l0.1-0.56h0.44v0.56v0.86l-4.07,1.59v0.02l4.07,1.58v1.42h-0.44l-0.1-0.56h-3.94l-0.1,0.56h-0.43v-1.79H112
				l0.1,0.56h1.45L115.58,40.27z"/>
			<path class="st2" d="M113.47,41.81c0.55,0,1,0.15,1.36,0.44c0.36,0.3,0.54,0.7,0.54,1.21c0,0.51-0.18,0.91-0.53,1.21
				c-0.35,0.3-0.81,0.45-1.36,0.45h-0.08c-0.55,0-1.01-0.15-1.36-0.44c-0.35-0.3-0.53-0.7-0.53-1.21c0-0.51,0.18-0.92,0.53-1.21
				c0.35-0.3,0.81-0.44,1.36-0.44H113.47z M113.39,42.48c-0.39,0-0.72,0.08-0.98,0.25c-0.26,0.17-0.38,0.41-0.38,0.74
				c0,0.32,0.13,0.56,0.38,0.73c0.26,0.17,0.58,0.25,0.98,0.25h0.08c0.39,0,0.71-0.08,0.97-0.25c0.26-0.17,0.39-0.41,0.39-0.74
				c0-0.32-0.13-0.57-0.39-0.73c-0.26-0.16-0.58-0.25-0.97-0.25H113.39z"/>
			<path class="st2" d="M112.1,45.52c0.22,0.19,0.45,0.33,0.69,0.43s0.61,0.17,1.1,0.2l0.87,0.03l0.09-0.54h0.44v2.97v0.56h-0.44
				l-0.1-0.56h-2.66v0.49l-1.62-0.07v-0.61h1.09V45.9h-1.09v-0.6l1.62-0.07V45.52z M113.89,46.83c-0.41-0.02-0.76-0.08-1.06-0.18
				c-0.29-0.09-0.54-0.21-0.74-0.36v1.66h2.59v-1.09L113.89,46.83z"/>
			<path class="st2" d="M114.85,53.11l-0.05-0.33l-3.8-1.41c-0.25-0.09-0.47-0.23-0.65-0.4c-0.19-0.17-0.28-0.41-0.28-0.71
				c0-0.05,0.01-0.12,0.02-0.21c0.01-0.08,0.02-0.15,0.04-0.2l0.53,0.07c0-0.01,0,0.03-0.01,0.12c-0.01,0.09-0.01,0.15-0.01,0.18
				c0,0.14,0.06,0.26,0.19,0.35s0.27,0.17,0.43,0.23l0.38,0.16l3.16-1.22l0.05-0.34h0.44v1.49h-0.44l-0.07-0.42l-1.84,0.64
				l-0.47,0.12v0.02l2.31,0.77l0.07-0.42h0.44v1.49H114.85z"/>
			<path class="st2" d="M114.75,54.65h-1.05c-0.73,0-1.27-0.1-1.62-0.29s-0.52-0.52-0.52-0.99v-0.19l0.58,0.01l0,0.14
				c0,0.24,0.12,0.41,0.35,0.5c0.24,0.09,0.63,0.14,1.2,0.14h1.06l0.1-0.56h0.44v3.16v0.56h-0.44l-0.1-0.56h-2.66l-0.1,0.56h-0.43
				v-1.79H112l0.1,0.56h2.65V54.65z"/>
			<path class="st2" d="M115.29,58.83h-1.28v0.92c0,0.44-0.11,0.78-0.33,1.02c-0.22,0.24-0.51,0.37-0.87,0.37
				c-0.36,0-0.66-0.12-0.89-0.37c-0.23-0.25-0.35-0.58-0.35-1.02V57.6H112l0.1,0.56h2.66l0.1-0.56h0.44v0.56V58.83z M113.48,58.83
				h-1.38v0.92c0,0.24,0.06,0.42,0.19,0.54c0.13,0.12,0.29,0.17,0.49,0.17c0.19,0,0.35-0.06,0.49-0.17s0.21-0.3,0.21-0.54V58.83z
				 M115.29,59.39h-0.44l-0.1-0.56h0.53V59.39z"/>
			<path class="st2" d="M112.03,64.77c0,0.22,0.07,0.42,0.21,0.59s0.31,0.25,0.51,0.25v0.6l-0.02,0.01
				c-0.32,0.01-0.61-0.13-0.85-0.43c-0.25-0.29-0.37-0.64-0.37-1.03c0-0.54,0.18-0.95,0.53-1.23c0.35-0.28,0.8-0.43,1.33-0.43h0.14
				c0.53,0,0.97,0.14,1.33,0.43c0.35,0.28,0.53,0.69,0.53,1.23c0,0.3-0.05,0.56-0.15,0.8c-0.1,0.24-0.23,0.43-0.41,0.59l-0.83,0.03
				v-0.54l0.58-0.15c0.08-0.08,0.14-0.18,0.19-0.31c0.05-0.13,0.07-0.27,0.07-0.42c0-0.35-0.13-0.61-0.38-0.76
				c-0.26-0.15-0.57-0.23-0.94-0.23h-0.14c-0.38,0-0.7,0.08-0.95,0.23C112.16,64.16,112.03,64.42,112.03,64.77z"/>
			<path class="st2" d="M115.29,68.52h-0.44l-0.1-0.56h-2.1l-0.01,0.02l2.64,1.63v0.67v0.56h-0.44l-0.1-0.56h-2.66l-0.1,0.56h-0.43
				v-1.79H112l0.1,0.56h2.1l0.01-0.02l-2.64-1.63v-1.23H112l0.1,0.56h2.66l0.1-0.56h0.44v1.23V68.52z"/>
			<path class="st2" d="M114.75,72.71h-1.05c-0.73,0-1.27-0.1-1.62-0.29s-0.52-0.52-0.52-0.99v-0.19l0.58,0.01l0,0.14
				c0,0.24,0.12,0.41,0.35,0.5c0.24,0.09,0.63,0.14,1.2,0.14h1.06l0.1-0.56h0.44v3.16v0.56h-0.44l-0.1-0.56h-2.66l-0.1,0.56h-0.43
				v-1.79H112l0.1,0.56h2.65V72.71z"/>
			<path class="st2" d="M113.47,75.63c0.55,0,1,0.15,1.36,0.44c0.36,0.3,0.54,0.7,0.54,1.21c0,0.51-0.18,0.91-0.53,1.21
				c-0.35,0.3-0.81,0.45-1.36,0.45h-0.08c-0.55,0-1.01-0.15-1.36-0.44c-0.35-0.3-0.53-0.7-0.53-1.21c0-0.51,0.18-0.92,0.53-1.21
				c0.35-0.3,0.81-0.44,1.36-0.44H113.47z M113.39,76.31c-0.39,0-0.72,0.08-0.98,0.25c-0.26,0.17-0.38,0.41-0.38,0.74
				c0,0.32,0.13,0.56,0.38,0.73c0.26,0.17,0.58,0.25,0.98,0.25h0.08c0.39,0,0.71-0.08,0.97-0.25c0.26-0.17,0.39-0.41,0.39-0.74
				c0-0.32-0.13-0.57-0.39-0.73c-0.26-0.16-0.58-0.25-0.97-0.25H113.39z"/>
			<path class="st2" d="M115.29,81.42c0,0.49-0.08,0.87-0.26,1.14c-0.17,0.27-0.43,0.4-0.77,0.4c-0.17,0-0.33-0.05-0.47-0.16
				c-0.14-0.11-0.24-0.25-0.31-0.44c-0.06,0.23-0.16,0.41-0.32,0.54s-0.34,0.19-0.54,0.19c-0.35,0-0.61-0.13-0.79-0.38
				c-0.18-0.25-0.27-0.61-0.27-1.06v-2.25H112l0.1,0.56h2.66l0.1-0.56h0.44v0.56V81.42z M113.2,80.64h-1.11v1.02
				c0,0.25,0.05,0.44,0.14,0.57s0.23,0.19,0.41,0.19c0.18,0,0.31-0.06,0.41-0.19c0.1-0.13,0.14-0.32,0.14-0.57V80.64z M113.72,80.64
				v0.79c0,0.29,0.04,0.5,0.13,0.64s0.21,0.22,0.38,0.22c0.18,0,0.31-0.07,0.4-0.22c0.09-0.14,0.13-0.36,0.13-0.65v-0.78H113.72z"/>
			<path class="st2" d="M115.29,84.81h-1.28v0.92c0,0.44-0.11,0.78-0.33,1.02c-0.22,0.24-0.51,0.37-0.87,0.37
				c-0.36,0-0.66-0.12-0.89-0.37c-0.23-0.25-0.35-0.58-0.35-1.02v-2.15H112l0.1,0.56h2.66l0.1-0.56h0.44v0.56V84.81z M112,87.19
				l0.1,0.56h2.66l0.1-0.56h0.44v1.23h-3.19l-0.1,0.56h-0.43v-1.79H112z M113.48,84.81h-1.38v0.92c0,0.24,0.06,0.42,0.19,0.54
				c0.13,0.12,0.29,0.17,0.49,0.17c0.19,0,0.35-0.06,0.49-0.17s0.21-0.3,0.21-0.54V84.81z M115.29,85.37h-0.44l-0.1-0.56h0.53V85.37
				z"/>
			<path class="st2" d="M112,89.21l0.08,0.4l1.37,1.09l1.32-1.06l0.08-0.4h0.44v1.45h-0.44l-0.04-0.33l-0.89,0.69l0.9,0.69
				l0.04-0.33h0.44v1.46h-0.44l-0.08-0.4l-1.32-1.06l-1.37,1.09L112,92.9h-0.43v-1.45H112l0.04,0.33l0.94-0.72l-0.94-0.72L112,90.66
				h-0.43v-1.46H112z"/>
			<path class="st2" d="M114.85,94.79h0.44v1.79h-0.44l-0.1-0.56h-1.04v0.36l1.04,0.77c0.2,0.14,0.34,0.28,0.44,0.41
				c0.1,0.13,0.15,0.28,0.15,0.45c0,0.1-0.01,0.19-0.04,0.26s-0.07,0.15-0.12,0.23l-0.46-0.1c0.02-0.1,0.03-0.15,0.03-0.17
				c0-0.02,0-0.05,0-0.09c0-0.08-0.03-0.17-0.09-0.25s-0.14-0.15-0.22-0.21l-0.93-0.71l-1.43,1.17L112,98.61h-0.43v-0.9l1.58-1.25
				v-0.44h-1.05l-0.1,0.56h-0.43v-1.79H112l0.1,0.56h2.66L114.85,94.79z"/>
			<path class="st2" d="M114.75,100.31h-1.05c-0.73,0-1.27-0.1-1.62-0.29s-0.52-0.52-0.52-0.99v-0.19l0.58,0.01l0,0.14
				c0,0.24,0.12,0.41,0.35,0.5c0.24,0.09,0.63,0.14,1.2,0.14h1.06l0.1-0.56h0.44v3.16v0.56h-0.44l-0.1-0.56h-2.66l-0.1,0.56h-0.43
				v-1.79H112l0.1,0.56h2.65V100.31z"/>
			<path class="st2" d="M112,103.17l0.1,0.56h2.66l0.1-0.56h0.44v1.23h-1.57v0.91c0.49,0.04,0.88,0.21,1.18,0.5
				c0.3,0.29,0.46,0.67,0.46,1.14c0,0.51-0.18,0.91-0.53,1.21c-0.35,0.3-0.81,0.45-1.36,0.45h-0.08c-0.55,0-1.01-0.15-1.36-0.44
				c-0.35-0.3-0.53-0.7-0.53-1.21c0-0.48,0.16-0.87,0.47-1.16c0.31-0.29,0.72-0.46,1.22-0.49v-0.9h-1.09l-0.1,0.56h-0.43v-1.79H112z
				 M113.39,105.97c-0.39,0-0.72,0.08-0.98,0.25c-0.26,0.17-0.38,0.41-0.38,0.74c0,0.32,0.13,0.56,0.38,0.73
				c0.26,0.17,0.58,0.25,0.98,0.25h0.08c0.39,0,0.71-0.08,0.97-0.25c0.26-0.17,0.39-0.41,0.39-0.74c0-0.32-0.13-0.57-0.39-0.73
				c-0.26-0.16-0.58-0.25-0.97-0.25H113.39z"/>
			<path class="st2" d="M115.29,110.8h-0.43l-0.1-0.56h-0.56c-0.3,0-0.52,0.06-0.66,0.19c-0.14,0.13-0.21,0.32-0.21,0.57
				c0,0.15,0.01,0.29,0.03,0.43s0.04,0.27,0.08,0.41h1.32l0.1-0.56h0.44v1.79h-0.44l-0.1-0.56h-2.66l-0.1,0.56h-0.43v-1.79H112
				l0.1,0.56h0.8c-0.04-0.13-0.06-0.27-0.08-0.4c-0.02-0.14-0.02-0.28-0.02-0.43c0-0.45,0.12-0.8,0.35-1.05s0.59-0.38,1.05-0.38
				h0.56l0.1-0.56h0.43v1.23V110.8z"/>
			<path class="st2" d="M111.5,115.24c0-0.52,0.17-0.92,0.52-1.23c0.34-0.3,0.79-0.46,1.34-0.46h0.15c0.53,0,0.97,0.16,1.32,0.47
				c0.35,0.31,0.53,0.68,0.53,1.11c0,0.5-0.15,0.87-0.45,1.13c-0.3,0.26-0.71,0.38-1.21,0.38h-0.42v-2.4l-0.02-0.01
				c-0.36,0.01-0.65,0.1-0.88,0.27c-0.23,0.17-0.35,0.42-0.35,0.73c0,0.23,0.03,0.43,0.1,0.6c0.07,0.17,0.16,0.32,0.27,0.45
				l-0.44,0.26c-0.13-0.13-0.24-0.31-0.32-0.53C111.54,115.81,111.5,115.55,111.5,115.24z M114.83,115.14c0-0.23-0.1-0.42-0.29-0.58
				c-0.19-0.16-0.43-0.26-0.72-0.29l-0.02,0.01v1.71h0.09c0.27,0,0.49-0.07,0.67-0.21S114.83,115.42,114.83,115.14z"/>
			<path class="st2" d="M115.29,118.95h-0.44l-0.1-0.56h-2.1l-0.01,0.02l2.64,1.63v0.67v0.56h-0.44l-0.1-0.56h-2.66l-0.1,0.56h-0.43
				v-1.79H112l0.1,0.56h2.1l0.01-0.02l-2.64-1.63v-1.23H112l0.1,0.56h2.66l0.1-0.56h0.44v1.23V118.95z M116.87,120.26l-0.02,0.01
				c-0.27,0.01-0.48-0.08-0.65-0.26s-0.25-0.43-0.25-0.75c0-0.31,0.08-0.56,0.25-0.75s0.38-0.27,0.65-0.26l0.02,0.01v0.51
				c-0.15,0-0.27,0.04-0.37,0.12c-0.1,0.08-0.14,0.2-0.14,0.37c0,0.16,0.05,0.29,0.14,0.37c0.09,0.08,0.22,0.12,0.37,0.12V120.26z"
				/>
		</g>
		<g>
			<path class="st2" d="M102.07,38.05v0.64h-0.53v-0.64h-0.63l-0.1,0.52h-0.43v-1.65h0.43l0.1,0.52h0.63v-2.07h0.38l3.47,2.03v0.66
				H102.07z M102.07,36.03v1.41h2.35l0.01-0.02l-0.18-0.06L102.07,36.03z"/>
			<path class="st2" d="M105.39,44.95h-0.44l-0.1-0.52h-4.47v-0.62l3.86-2.22l-0.01-0.02h-3.33l-0.1,0.52h-0.43v-1.66h0.43l0.1,0.52
				h3.94l0.1-0.52h0.44v0.52v0.62l-3.86,2.21l0.01,0.02h3.32l0.1-0.52h0.44v1.14V44.95z"/>
			<path class="st2" d="M102.23,47.02v-1.55h0.53v1.55H102.23z"/>
			<path class="st2" d="M103.85,51.14V50.7l0.71-0.12c0.11-0.1,0.2-0.23,0.26-0.37c0.07-0.15,0.1-0.32,0.1-0.53
				c0-0.48-0.19-0.85-0.57-1.1c-0.38-0.26-0.86-0.39-1.43-0.39h-0.08c-0.58,0-1.06,0.13-1.44,0.38c-0.38,0.25-0.57,0.6-0.57,1.05
				c0,0.21,0.04,0.4,0.11,0.57c0.07,0.17,0.16,0.3,0.26,0.4l0.71,0.12v0.44h-0.89c-0.19-0.13-0.35-0.33-0.5-0.6
				c-0.15-0.27-0.22-0.57-0.22-0.92c0-0.6,0.24-1.09,0.72-1.47s1.09-0.58,1.82-0.58h0.07c0.73,0,1.34,0.19,1.82,0.57
				c0.48,0.38,0.72,0.87,0.72,1.48c0,0.35-0.07,0.66-0.22,0.92c-0.15,0.27-0.31,0.47-0.5,0.6H103.85z"/>
			<path class="st2" d="M104.95,51.59h0.44v1.66h-0.44l-0.1-0.52h-1.73v2.23h1.73l0.1-0.52h0.44v0.52v0.62v0.52h-0.44l-0.1-0.52
				h-3.94l-0.1,0.52h-0.43v-1.66h0.43l0.1,0.52h1.68v-2.23h-1.68l-0.1,0.52h-0.43v-1.66h0.43l0.1,0.52h3.94L104.95,51.59z"/>
			<path class="st2" d="M100.63,57.18c-0.22,0-0.46-0.05-0.7-0.16s-0.45-0.24-0.61-0.42l0.25-0.35c0.17,0.1,0.33,0.17,0.5,0.22
				c0.17,0.05,0.35,0.08,0.55,0.08h0.52v0.62H100.63z"/>
			<path class="st2" d="M100.38,59.05h0.46l1.82,1.51c0.33,0.27,0.59,0.45,0.78,0.55c0.19,0.1,0.39,0.14,0.59,0.14
				c0.25,0,0.46-0.07,0.63-0.2c0.17-0.14,0.26-0.31,0.26-0.54c0-0.32-0.09-0.55-0.26-0.7c-0.18-0.15-0.43-0.22-0.75-0.22v-0.6
				l0.02-0.01c0.43-0.01,0.79,0.12,1.09,0.39c0.29,0.27,0.44,0.65,0.44,1.14c0,0.42-0.13,0.75-0.39,0.99c-0.26,0.25-0.6,0.37-1,0.37
				c-0.27,0-0.55-0.07-0.82-0.22s-0.57-0.36-0.88-0.63l-1.43-1.21l-0.02,0.01v1.64l0.57,0.05v0.53h-1.1V59.05z"/>
			<path class="st2" d="M102.07,65.05v0.64h-0.53v-0.64h-0.63l-0.1,0.52h-0.43v-1.65h0.43l0.1,0.52h0.63v-2.07h0.38l3.47,2.03v0.66
				H102.07z M102.07,63.03v1.41h2.35l0.01-0.02l-0.18-0.06L102.07,63.03z"/>
			<path class="st2" d="M104.95,67.36l-0.07-0.42l-3.25,1.03l-0.4,0.1v0.02l0.4,0.1l3.25,1.03l0.07-0.41h0.44v1.45h-0.44l-0.05-0.37
				l-4.51-1.54v-0.53l4.51-1.54l0.05-0.37h0.44v1.46H104.95z"/>
			<path class="st2" d="M100.63,70.53c-0.22,0-0.46-0.05-0.7-0.16s-0.45-0.24-0.61-0.42l0.25-0.35c0.17,0.1,0.33,0.17,0.5,0.22
				c0.17,0.05,0.35,0.08,0.55,0.08h0.52v0.62H100.63z"/>
			<path class="st2" d="M100.81,72.48l0.1,0.71h3.75l-0.01-0.72h0.42l0.32,1.35h-4.48l-0.1,0.71h-0.43v-2.04H100.81z"/>
			<path class="st2" d="M102.29,77.93c-0.64,0-1.13-0.13-1.47-0.39c-0.34-0.26-0.51-0.62-0.51-1.07c0-0.45,0.17-0.81,0.51-1.07
				c0.34-0.26,0.83-0.4,1.47-0.4h1.19c0.64,0,1.13,0.13,1.47,0.39c0.34,0.26,0.51,0.62,0.51,1.07c0,0.45-0.17,0.81-0.51,1.08
				c-0.34,0.26-0.83,0.4-1.47,0.4H102.29z M103.62,77.3c0.43,0,0.76-0.07,0.98-0.22s0.33-0.36,0.33-0.63c0-0.27-0.11-0.48-0.33-0.62
				s-0.54-0.21-0.98-0.21h-1.47c-0.43,0-0.76,0.07-0.98,0.22c-0.22,0.15-0.33,0.35-0.33,0.63c0,0.28,0.11,0.49,0.33,0.63
				s0.55,0.21,0.98,0.21H103.62z"/>
			<path class="st2" d="M100.81,78.32l0.05,0.34l4.52,1.61v0.54l-4.52,1.58l-0.05,0.34h-0.43V81.4h0.43l0.07,0.35l0.92-0.3V79.6
				l-0.92-0.31l-0.07,0.35h-0.43v-1.32H100.81z M102.37,79.8v1.46l2.15-0.71v-0.02L102.37,79.8z"/>
			<path class="st2" d="M105.39,84.88c0,0.6-0.2,1.08-0.6,1.45s-0.92,0.55-1.56,0.55h-0.68c-0.64,0-1.16-0.18-1.56-0.55
				c-0.4-0.37-0.6-0.85-0.6-1.45v-1.93h0.43l0.1,0.52h3.94l0.1-0.52h0.44v0.52V84.88z M104.85,84.09h-3.94v0.79
				c0,0.43,0.15,0.76,0.46,1.01s0.7,0.37,1.17,0.37h0.69c0.47,0,0.86-0.12,1.17-0.37s0.46-0.58,0.46-1.01V84.09z"/>
			<path class="st2" d="M103.85,90.86v-0.44l0.71-0.12c0.11-0.1,0.2-0.23,0.26-0.37c0.07-0.15,0.1-0.32,0.1-0.53
				c0-0.48-0.19-0.85-0.57-1.1c-0.38-0.26-0.86-0.39-1.43-0.39h-0.08c-0.58,0-1.06,0.13-1.44,0.38c-0.38,0.25-0.57,0.6-0.57,1.05
				c0,0.21,0.04,0.4,0.11,0.57c0.07,0.17,0.16,0.3,0.26,0.4l0.71,0.12v0.44h-0.89c-0.19-0.13-0.35-0.33-0.5-0.6
				c-0.15-0.27-0.22-0.57-0.22-0.92c0-0.6,0.24-1.09,0.72-1.47s1.09-0.58,1.82-0.58h0.07c0.73,0,1.34,0.19,1.82,0.57
				c0.48,0.38,0.72,0.87,0.72,1.48c0,0.35-0.07,0.66-0.22,0.92c-0.15,0.27-0.31,0.47-0.5,0.6H103.85z"/>
			<path class="st2" d="M100.63,92.07c-0.22,0-0.46-0.05-0.7-0.16s-0.45-0.24-0.61-0.42l0.25-0.35c0.17,0.1,0.33,0.17,0.5,0.22
				c0.17,0.05,0.35,0.08,0.55,0.08h0.52v0.62H100.63z"/>
			<path class="st2" d="M105.39,95.98c0,0.49-0.14,0.87-0.41,1.15c-0.27,0.27-0.64,0.41-1.09,0.41c-0.45,0-0.82-0.14-1.09-0.41
				c-0.27-0.27-0.41-0.66-0.41-1.15v-0.98h-1.48l-0.1,0.52h-0.43v-1.66h0.43l0.1,0.52h3.94l0.1-0.52h0.44v0.52V95.98z M102.92,95.01
				v0.98c0,0.31,0.09,0.55,0.27,0.7c0.18,0.16,0.41,0.23,0.69,0.23s0.51-0.08,0.69-0.23s0.28-0.39,0.28-0.7v-0.98H102.92z"/>
			<path class="st2" d="M104.95,99.14l-0.08-0.47l-2.76,0.59l-0.63,0.09l0,0.02l0.63,0.12l3.27,0.85v0.55l-3.27,0.85l-0.64,0.13
				v0.02l0.64,0.09l2.76,0.58l0.08-0.47h0.44v1.46h-0.44l-0.05-0.37l-4.52-1v-0.56l3.47-0.91l0.45-0.08v-0.02l-0.45-0.08l-3.47-0.92
				v-0.55l4.52-1l0.05-0.37h0.44v1.46H104.95z"/>
			<path class="st2" d="M104.39,108.21l0-0.02l-4.01-1.49v-0.41l4.01-1.49l0-0.02l-2.03,0.06h-1.45l-0.1,0.52h-0.43v-1.66h0.43
				l0.1,0.52h3.94l0.1-0.52h0.44v0.52v0.8l-4.07,1.47v0.02l4.07,1.47v1.32h-0.44l-0.1-0.52h-3.94l-0.1,0.52h-0.43v-1.66h0.43
				l0.1,0.52h1.45L104.39,108.21z"/>
			<path class="st2" d="M100.63,110.34c-0.22,0-0.46-0.05-0.7-0.16s-0.45-0.24-0.61-0.42l0.25-0.35c0.17,0.1,0.33,0.17,0.5,0.22
				c0.17,0.05,0.35,0.08,0.55,0.08h0.52v0.62H100.63z"/>
			<path class="st2" d="M104.95,112.13h0.44v1.66h-0.44l-0.1-0.52h-3.94l-0.1,0.52h-0.43v-1.66h0.43l0.1,0.52h3.94L104.95,112.13z"
				/>
			<path class="st2" d="M100.38,114.15h0.46l1.82,1.51c0.33,0.27,0.59,0.45,0.78,0.55c0.19,0.1,0.39,0.14,0.59,0.14
				c0.25,0,0.46-0.07,0.63-0.2c0.17-0.14,0.26-0.31,0.26-0.54c0-0.32-0.09-0.55-0.26-0.7c-0.18-0.15-0.43-0.22-0.75-0.22v-0.6
				l0.02-0.01c0.43-0.01,0.79,0.12,1.09,0.39c0.29,0.27,0.44,0.65,0.44,1.14c0,0.42-0.13,0.75-0.39,0.99c-0.26,0.25-0.6,0.37-1,0.37
				c-0.27,0-0.55-0.07-0.82-0.22s-0.57-0.36-0.88-0.63l-1.43-1.21l-0.02,0.01v1.64l0.57,0.05v0.53h-1.1V114.15z"/>
			<path class="st2" d="M103.85,121.06v-0.44l0.71-0.12c0.11-0.1,0.2-0.23,0.26-0.37c0.07-0.15,0.1-0.32,0.1-0.53
				c0-0.48-0.19-0.85-0.57-1.1c-0.38-0.26-0.86-0.39-1.43-0.39h-0.08c-0.58,0-1.06,0.13-1.44,0.38c-0.38,0.25-0.57,0.6-0.57,1.05
				c0,0.21,0.04,0.4,0.11,0.57c0.07,0.17,0.16,0.3,0.26,0.4l0.71,0.12v0.44h-0.89c-0.19-0.13-0.35-0.33-0.5-0.6
				c-0.15-0.27-0.22-0.57-0.22-0.92c0-0.6,0.24-1.09,0.72-1.47s1.09-0.58,1.82-0.58h0.07c0.73,0,1.34,0.19,1.82,0.57
				c0.48,0.38,0.72,0.87,0.72,1.48c0,0.35-0.07,0.66-0.22,0.92c-0.15,0.27-0.31,0.47-0.5,0.6H103.85z"/>
		</g>
		<g>
			<path class="st2" d="M87.43,55.06l-2.36,0.95l2.36,0.95v0.5h-2.89v-0.38h1.13l1.22,0.04l-2.34-0.95v-0.29l2.34-0.95l-1.21,0.04
				h-1.13v-0.38h2.89V55.06z"/>
			<path class="st2" d="M84.54,59.29c0.04-0.02,0.12-0.04,0.23-0.05c-0.18-0.17-0.27-0.38-0.27-0.61c0-0.21,0.06-0.39,0.18-0.52
				c0.12-0.14,0.27-0.2,0.46-0.2c0.22,0,0.4,0.08,0.52,0.25c0.12,0.17,0.19,0.41,0.19,0.72v0.36h0.17c0.13,0,0.23-0.04,0.31-0.12
				c0.08-0.08,0.11-0.19,0.11-0.34c0-0.13-0.03-0.24-0.1-0.33s-0.15-0.13-0.24-0.13v-0.37c0.11,0,0.21,0.04,0.31,0.11
				c0.1,0.08,0.18,0.18,0.24,0.31c0.06,0.13,0.09,0.27,0.09,0.43c0,0.25-0.06,0.44-0.19,0.58c-0.12,0.14-0.29,0.21-0.51,0.22h-0.99
				c-0.2,0-0.35,0.03-0.47,0.08h-0.03V59.29z M84.82,58.68c0,0.12,0.03,0.22,0.09,0.33s0.14,0.18,0.23,0.22h0.44v-0.29
				c0-0.45-0.13-0.68-0.4-0.68c-0.12,0-0.21,0.04-0.27,0.12C84.85,58.46,84.82,58.56,84.82,58.68z"/>
			<path class="st2" d="M85.45,60.75v-0.27h-0.92v-0.37h2.15v0.37h-0.91v0.24l0.91,0.72v0.45l-1.03-0.85l-1.12,0.92v-0.47
				L85.45,60.75z"/>
			<path class="st2" d="M84.8,63.03c0,0.13,0.04,0.25,0.12,0.34c0.08,0.1,0.18,0.15,0.3,0.16v0.35c-0.12-0.01-0.24-0.05-0.35-0.13
				c-0.11-0.08-0.2-0.18-0.27-0.31s-0.1-0.27-0.1-0.42c0-0.29,0.1-0.53,0.29-0.7c0.2-0.17,0.46-0.26,0.8-0.26h0.06
				c0.21,0,0.4,0.04,0.56,0.12c0.16,0.08,0.29,0.19,0.38,0.33c0.09,0.14,0.13,0.31,0.13,0.51c0,0.24-0.07,0.44-0.22,0.6
				c-0.14,0.16-0.33,0.25-0.56,0.26v-0.35c0.14-0.01,0.25-0.06,0.34-0.16c0.09-0.09,0.13-0.21,0.13-0.35c0-0.19-0.07-0.33-0.2-0.43
				c-0.13-0.1-0.33-0.15-0.58-0.15h-0.07c-0.25,0-0.44,0.05-0.57,0.15C84.86,62.7,84.8,62.85,84.8,63.03z"/>
			<path class="st2" d="M86.69,65.59v0.37h-2.15v-0.37h1.57l-1.57-0.99v-0.37h2.15v0.37h-1.57L86.69,65.59z"/>
			<path class="st2" d="M85.02,67.69l1.66,0.73v0.46h-2.15v-0.37h1.56l-1.56-0.7v-0.25l1.6-0.71h-1.6v-0.37h2.15v0.48L85.02,67.69z"
				/>
			<path class="st2" d="M84.54,70.7c0.04-0.02,0.12-0.04,0.23-0.05c-0.18-0.17-0.27-0.38-0.27-0.61c0-0.21,0.06-0.39,0.18-0.52
				c0.12-0.14,0.27-0.2,0.46-0.2c0.22,0,0.4,0.08,0.52,0.25c0.12,0.17,0.19,0.41,0.19,0.72v0.36h0.17c0.13,0,0.23-0.04,0.31-0.12
				c0.08-0.08,0.11-0.19,0.11-0.34c0-0.13-0.03-0.24-0.1-0.33s-0.15-0.13-0.24-0.13v-0.37c0.11,0,0.21,0.04,0.31,0.11
				c0.1,0.08,0.18,0.18,0.24,0.31c0.06,0.13,0.09,0.27,0.09,0.43c0,0.25-0.06,0.44-0.19,0.58c-0.12,0.14-0.29,0.21-0.51,0.22h-0.99
				c-0.2,0-0.35,0.03-0.47,0.08h-0.03V70.7z M84.82,70.09c0,0.12,0.03,0.22,0.09,0.33s0.14,0.18,0.23,0.22h0.44v-0.29
				c0-0.45-0.13-0.68-0.4-0.68c-0.12,0-0.21,0.04-0.27,0.12C84.85,69.87,84.82,69.96,84.82,70.09z"/>
			<path class="st2" d="M86.69,73.24h-2.15v-0.37h1.85v-0.73l-0.8-0.04c-0.37-0.02-0.63-0.09-0.79-0.19
				c-0.16-0.1-0.24-0.26-0.25-0.48v-0.15h0.32l0.01,0.1c0.01,0.12,0.08,0.21,0.21,0.26c0.12,0.05,0.35,0.08,0.69,0.1l0.92,0.04
				V73.24z"/>
			<path class="st2" d="M85.94,74.13v0.56c0,0.24-0.07,0.44-0.19,0.58c-0.13,0.14-0.29,0.21-0.51,0.21c-0.21,0-0.39-0.07-0.52-0.22
				c-0.13-0.15-0.19-0.34-0.19-0.59v-0.91h2.15v0.37H85.94z M85.65,74.13h-0.81v0.55c0,0.14,0.04,0.24,0.11,0.32
				c0.07,0.08,0.17,0.11,0.29,0.11c0.12,0,0.22-0.04,0.29-0.11c0.08-0.07,0.12-0.18,0.12-0.31V74.13z"/>
			<path class="st2" d="M84.54,77.6v-0.37h0.92v-0.99h-0.92v-0.37h2.15v0.37h-0.93v0.99h0.93v0.37H84.54z"/>
			<path class="st2" d="M84.54,79.42c0.04-0.02,0.12-0.04,0.23-0.05c-0.18-0.17-0.27-0.38-0.27-0.61c0-0.21,0.06-0.39,0.18-0.52
				c0.12-0.14,0.27-0.2,0.46-0.2c0.22,0,0.4,0.08,0.52,0.25c0.12,0.17,0.19,0.41,0.19,0.72v0.36h0.17c0.13,0,0.23-0.04,0.31-0.12
				c0.08-0.08,0.11-0.19,0.11-0.34c0-0.13-0.03-0.24-0.1-0.33s-0.15-0.13-0.24-0.13v-0.37c0.11,0,0.21,0.04,0.31,0.11
				c0.1,0.08,0.18,0.18,0.24,0.31c0.06,0.13,0.09,0.27,0.09,0.43c0,0.25-0.06,0.44-0.19,0.58c-0.12,0.14-0.29,0.21-0.51,0.22h-0.99
				c-0.2,0-0.35,0.03-0.47,0.08h-0.03V79.42z M84.82,78.81c0,0.12,0.03,0.22,0.09,0.33s0.14,0.18,0.23,0.22h0.44v-0.29
				c0-0.45-0.13-0.68-0.4-0.68c-0.12,0-0.21,0.04-0.27,0.12C84.85,78.59,84.82,78.68,84.82,78.81z"/>
			<path class="st2" d="M86.69,81.84h-2.15v-0.37h0.84v-0.55l-0.84-0.51v-0.4l0.89,0.54c0.05-0.14,0.13-0.24,0.23-0.32
				c0.11-0.07,0.23-0.11,0.37-0.11c0.2,0,0.35,0.07,0.47,0.22c0.12,0.15,0.18,0.34,0.18,0.59V81.84z M86.03,80.5
				c-0.1,0-0.19,0.04-0.25,0.11c-0.06,0.07-0.1,0.17-0.1,0.28v0.58h0.71v-0.53c0-0.14-0.03-0.25-0.1-0.33
				C86.22,80.54,86.13,80.5,86.03,80.5z"/>
			<path class="st2" d="M84.54,85v-0.37h0.92v-0.99h-0.92v-0.37h2.15v0.37h-0.93v0.99h0.93V85H84.54z"/>
			<path class="st2" d="M84.54,86.81c0.04-0.02,0.12-0.04,0.23-0.05c-0.18-0.17-0.27-0.38-0.27-0.61c0-0.21,0.06-0.39,0.18-0.52
				c0.12-0.14,0.27-0.2,0.46-0.2c0.22,0,0.4,0.08,0.52,0.25c0.12,0.17,0.19,0.41,0.19,0.72v0.36h0.17c0.13,0,0.23-0.04,0.31-0.12
				c0.08-0.08,0.11-0.19,0.11-0.34c0-0.13-0.03-0.24-0.1-0.33s-0.15-0.13-0.24-0.13v-0.37c0.11,0,0.21,0.04,0.31,0.11
				c0.1,0.08,0.18,0.18,0.24,0.31c0.06,0.13,0.09,0.27,0.09,0.43c0,0.25-0.06,0.44-0.19,0.58c-0.12,0.14-0.29,0.21-0.51,0.22h-0.99
				c-0.2,0-0.35,0.03-0.47,0.08h-0.03V86.81z M84.82,86.2c0,0.12,0.03,0.22,0.09,0.33s0.14,0.18,0.23,0.22h0.44v-0.29
				c0-0.45-0.13-0.68-0.4-0.68c-0.12,0-0.21,0.04-0.27,0.12C84.85,85.98,84.82,86.08,84.82,86.2z"/>
			<path class="st2" d="M86.38,88.99V88h-1.85v-0.37h2.15v1.36H86.38z"/>
			<path class="st2" d="M85.59,91.02c-0.33,0-0.59-0.08-0.79-0.22c-0.2-0.15-0.3-0.35-0.3-0.61c0-0.26,0.08-0.47,0.25-0.62h-1.04
				V89.2h2.98v0.34l-0.24,0.02c0.19,0.15,0.28,0.36,0.28,0.63c0,0.26-0.1,0.46-0.29,0.61c-0.19,0.15-0.47,0.23-0.81,0.23H85.59z
				 M85.63,90.65c0.24,0,0.43-0.05,0.57-0.16s0.21-0.25,0.21-0.42c0-0.22-0.1-0.39-0.3-0.5h-1.03c-0.2,0.11-0.29,0.28-0.29,0.5
				c0,0.18,0.07,0.32,0.21,0.42C85.15,90.6,85.35,90.65,85.63,90.65z"/>
			<path class="st2" d="M85.07,92.09l1.61,0.5v0.39l-2.48-0.87c-0.36-0.13-0.54-0.35-0.54-0.64l0.01-0.07l0.03-0.14H84l-0.01,0.1
				c0,0.12,0.03,0.22,0.08,0.29c0.05,0.07,0.14,0.13,0.28,0.17l0.22,0.08l2.13-0.77v0.4L85.07,92.09z"/>
			<path class="st2" d="M86.1,94.39c0.1,0,0.18-0.04,0.24-0.12c0.06-0.08,0.09-0.18,0.09-0.32c0-0.13-0.03-0.24-0.1-0.32
				s-0.15-0.13-0.24-0.13v-0.37c0.19,0,0.34,0.08,0.46,0.23s0.18,0.35,0.18,0.59c0,0.25-0.05,0.45-0.16,0.59s-0.26,0.21-0.46,0.21
				c-0.1,0-0.19-0.03-0.27-0.09c-0.08-0.06-0.14-0.14-0.19-0.25c-0.08,0.25-0.25,0.38-0.5,0.38c-0.2,0-0.35-0.08-0.47-0.23
				s-0.17-0.36-0.17-0.61c0-0.25,0.06-0.45,0.18-0.61c0.12-0.16,0.29-0.24,0.49-0.24v0.37c-0.1,0-0.19,0.05-0.27,0.14
				c-0.08,0.09-0.11,0.21-0.11,0.35c0,0.14,0.03,0.25,0.1,0.34c0.06,0.09,0.15,0.13,0.25,0.13c0.12,0,0.21-0.04,0.26-0.11
				c0.05-0.07,0.08-0.18,0.08-0.34v-0.37h0.31v0.4C85.79,94.27,85.9,94.39,86.1,94.39z"/>
			<path class="st2" d="M85.45,95.85v-0.27h-0.92v-0.37h2.15v0.37h-0.91v0.24l0.91,0.72v0.45l-1.03-0.85l-1.12,0.92v-0.47
				L85.45,95.85z"/>
			<path class="st2" d="M84.54,98.6c0.04-0.02,0.12-0.04,0.23-0.05c-0.18-0.17-0.27-0.38-0.27-0.61c0-0.21,0.06-0.39,0.18-0.52
				c0.12-0.14,0.27-0.2,0.46-0.2c0.22,0,0.4,0.08,0.52,0.25c0.12,0.17,0.19,0.41,0.19,0.72v0.36h0.17c0.13,0,0.23-0.04,0.31-0.12
				c0.08-0.08,0.11-0.19,0.11-0.34c0-0.13-0.03-0.24-0.1-0.33s-0.15-0.13-0.24-0.13v-0.37c0.11,0,0.21,0.04,0.31,0.11
				c0.1,0.08,0.18,0.18,0.24,0.31c0.06,0.13,0.09,0.27,0.09,0.43c0,0.25-0.06,0.44-0.19,0.58c-0.12,0.14-0.29,0.21-0.51,0.22h-0.99
				c-0.2,0-0.35,0.03-0.47,0.08h-0.03V98.6z M84.82,97.99c0,0.12,0.03,0.22,0.09,0.33s0.14,0.18,0.23,0.22h0.44v-0.29
				c0-0.45-0.13-0.68-0.4-0.68c-0.12,0-0.21,0.04-0.27,0.12C84.85,97.77,84.82,97.87,84.82,97.99z"/>
		</g>
		<g>
			<path class="st2" d="M80.16,72.37v-1.9h0.26l1.11,1c0.17,0.15,0.3,0.25,0.41,0.31c0.11,0.06,0.21,0.08,0.33,0.08
				c0.15,0,0.28-0.05,0.37-0.14c0.1-0.09,0.14-0.21,0.14-0.37c0-0.18-0.05-0.33-0.16-0.43c-0.1-0.1-0.25-0.15-0.43-0.15v-0.37
				c0.27,0,0.48,0.09,0.65,0.26s0.25,0.4,0.25,0.69c0,0.27-0.07,0.48-0.21,0.64c-0.14,0.16-0.33,0.23-0.56,0.23
				c-0.29,0-0.62-0.18-1.02-0.54l-0.84-0.78v1.45H80.16z"/>
			<path class="st2" d="M81.13,74.21v0.4h-0.3v-0.4h-0.67v-0.37h0.67v-1.32h0.22l2.01,1.3v0.39H81.13z M81.13,72.94v0.9h1.42
				l-0.08-0.04L81.13,72.94z"/>
			<path class="st2" d="M80.16,74.94h2.89v0.95c0,0.31-0.07,0.55-0.2,0.71s-0.32,0.24-0.58,0.24c-0.13,0-0.25-0.04-0.36-0.12
				c-0.1-0.08-0.18-0.18-0.24-0.31c-0.04,0.16-0.13,0.28-0.25,0.37c-0.12,0.09-0.27,0.14-0.44,0.14c-0.26,0-0.46-0.08-0.61-0.25
				c-0.15-0.17-0.22-0.41-0.22-0.71V74.94z M81.51,75.32h-1.04v0.63c0,0.18,0.05,0.32,0.14,0.42s0.22,0.15,0.38,0.15
				c0.35,0,0.52-0.19,0.52-0.57V75.32z M81.82,75.32v0.58c0,0.17,0.04,0.3,0.13,0.4c0.08,0.1,0.2,0.15,0.34,0.15
				c0.16,0,0.28-0.05,0.35-0.14s0.11-0.23,0.11-0.42v-0.56H81.82z"/>
			<path class="st2" d="M80.16,79.39v-0.37h2.45l-0.27-0.74h0.33l0.4,1.05v0.06H80.16z"/>
			<path class="st2" d="M81.39,82.18c-0.43,0-0.75-0.07-0.96-0.22c-0.21-0.15-0.31-0.38-0.31-0.69c0-0.31,0.1-0.54,0.31-0.69
				c0.2-0.15,0.51-0.22,0.92-0.23h0.49c0.43,0,0.74,0.07,0.95,0.22s0.31,0.38,0.31,0.69c0,0.31-0.1,0.54-0.3,0.69
				c-0.2,0.15-0.51,0.22-0.92,0.23H81.39z M81.9,81.81c0.31,0,0.54-0.04,0.68-0.13c0.14-0.09,0.21-0.23,0.21-0.42
				c0-0.19-0.07-0.33-0.21-0.41c-0.14-0.09-0.36-0.13-0.65-0.13h-0.59c-0.31,0-0.54,0.04-0.69,0.14c-0.15,0.09-0.22,0.23-0.22,0.41
				c0,0.18,0.07,0.32,0.21,0.4c0.14,0.09,0.36,0.13,0.66,0.14H81.9z"/>
			<path class="st2" d="M80.92,84.24v-1.21l-0.76-0.27v-0.39l2.89,1.11v0.33l-2.89,1.11v-0.39L80.92,84.24z M81.23,83.15v0.98
				l1.35-0.49L81.23,83.15z"/>
		</g>
		<g id="Лого_4_">
			<polygon class="st80" points="47.46,32.19 47.46,28.78 37.97,28.78 37.97,43.28 42.29,43.28 42.29,40.18 39.56,40.18 
				39.56,33.98 42.29,33.98 42.29,32.26 			"/>
			<polygon class="st80" points="49.03,32.19 49.03,28.78 58.58,28.78 58.58,59.29 49.03,59.29 49.03,55.79 54.2,55.79 54.23,47.09 
				56.95,47.09 56.95,40.97 54.23,40.97 54.23,32.19 			"/>
			<polygon class="st80" points="42.29,44.79 37.97,44.79 37.97,59.29 47.46,59.29 47.46,55.79 42.29,55.79 42.29,54.03 
				39.59,54.03 39.56,47.89 42.29,47.89 			"/>
			<rect x="40.79" y="35.13" class="st80" width="2.44" height="3.82"/>
			<rect x="53.32" y="42.1" class="st80" width="2.45" height="3.83"/>
			<rect x="40.79" y="49.06" class="st80" width="2.44" height="3.87"/>
			<g>
				<path class="st2" d="M58.51,62.75v1.91H46.47v-1.91H58.51z"/>
				<path class="st2" d="M46.47,72.23v-1.93l2.18-0.33v-2.35l-2.18-0.33v-1.75l12.04,1.95v2.8L46.47,72.23z M50.29,67.87v1.84
					l6.09-0.92L50.29,67.87z"/>
				<path class="st2" d="M46.47,77.12c0.31-0.1,0.5-0.17,1.48-0.17h1.89c1.12,0,1.53-0.38,1.53-1.25v-0.66h-4.9v-1.91h12.04V76
					c0,1.98-0.91,2.83-2.77,2.83h-0.95c-1.24,0-2.05-0.4-2.44-1.25c-0.4,0.96-1.31,1.27-2.56,1.27h-1.86
					c-0.58,0-1.01,0.02-1.46,0.21V77.12z M56.79,75.03h-3.7v0.75c0,0.71,0.31,1.15,1.27,1.15h1.19c0.86,0,1.24-0.29,1.24-0.97V75.03
					z"/>
				<path class="st2" d="M58.51,80.1v3.02c0,1.91-1.05,2.85-2.98,2.85h-6.09c-1.93,0-2.97-0.94-2.97-2.85V80.1H58.51z M56.79,82.02
					h-8.6v1.08c0,0.61,0.31,0.97,1.17,0.97h6.26c0.86,0,1.17-0.37,1.17-0.97V82.02z"/>
				<path class="st2" d="M58.51,89.02h-9.29c-0.86,0-1.17,0.38-1.17,0.99S48.36,91,49.22,91h9.29v1.81h-9.17
					c-1.93,0-3.03-0.97-3.03-2.85s1.1-2.85,3.03-2.85h9.17V89.02z"/>
				<path class="st2" d="M58.51,94.11v1.91H46.47v-1.91H58.51z"/>
				<path class="st2" d="M55.19,99.11h-8.72v-1.72h12.04v2.4l-7.21,1.96h7.21v1.7H46.47v-1.96L55.19,99.11z"/>
				<path class="st2" d="M55.62,104.67c1.93,0,3.03,1.03,3.03,2.9s-1.1,2.9-3.03,2.9h-6.26c-1.93,0-3.03-1.03-3.03-2.9
					s1.1-2.9,3.03-2.9H55.62z M49.24,106.58c-0.86,0-1.19,0.38-1.19,0.99s0.33,0.99,1.19,0.99h6.5c0.86,0,1.19-0.38,1.19-0.99
					s-0.33-0.99-1.19-0.99H49.24z"/>
				<path class="st2" d="M48.29,113.38h-1.82v-1.84h1.82V113.38z"/>
				<path class="st2" d="M46.47,118.76c0.31-0.1,0.5-0.17,1.48-0.17h1.89c1.12,0,1.53-0.38,1.53-1.25v-0.66h-4.9v-1.91h12.04v2.88
					c0,1.98-0.91,2.83-2.77,2.83h-0.95c-1.24,0-2.05-0.4-2.44-1.25c-0.4,0.96-1.31,1.27-2.56,1.27h-1.86
					c-0.58,0-1.01,0.02-1.46,0.21V118.76z M56.79,116.68h-3.7v0.75c0,0.71,0.31,1.15,1.27,1.15h1.19c0.86,0,1.24-0.29,1.24-0.97
					V116.68z"/>
				<path class="st2" d="M58.51,123.57h-9.29c-0.86,0-1.17,0.38-1.17,0.99s0.31,0.99,1.17,0.99h9.29v1.81h-9.17
					c-1.93,0-3.03-0.97-3.03-2.85s1.1-2.85,3.03-2.85h9.17V123.57z"/>
			</g>
			<g>
				<path class="st2" d="M42.88,64c0,0.82-0.36,1.15-1.09,1.15h-0.23c-0.52,0-0.84-0.16-0.98-0.62c-0.13,0.51-0.51,0.71-1.05,0.71
					h-0.41c-0.74,0-1.15-0.38-1.15-1.21v-1.21h4.91V64z M38.47,64.03c0,0.43,0.21,0.63,0.67,0.63h0.44c0.55,0,0.73-0.23,0.73-0.74
					V63.4h-1.83V64.03z M40.8,63.85c0,0.47,0.14,0.71,0.65,0.71h0.29c0.43,0,0.65-0.16,0.65-0.58V63.4H40.8V63.85z"/>
				<path class="st2" d="M41.69,68.1h-0.44v-0.56h0.47c0.44,0,0.71-0.19,0.71-0.62c0-0.42-0.27-0.62-0.71-0.62h-2.6
					c-0.44,0-0.71,0.2-0.71,0.62c0,0.43,0.27,0.62,0.71,0.62h0.64v0.56h-0.61c-0.74,0-1.24-0.38-1.24-1.19
					c0-0.81,0.49-1.18,1.24-1.18h2.54c0.74,0,1.24,0.38,1.24,1.18C42.93,67.72,42.44,68.1,41.69,68.1z"/>
				<path class="st2" d="M40.7,70.51h-0.49v-1.29h-1.75v1.58h-0.5v-2.17h4.91v2.17h-0.5v-1.58H40.7V70.51z M43.8,69.5h-0.63v-0.51
					h0.63V69.5z M43.8,70.44h-0.63v-0.52h0.63V70.44z"/>
				<path class="st2" d="M37.29,75.11h0.67v-2.16h-0.67v-0.57h1.16v0.34c0.19,0.18,0.41,0.22,0.72,0.23l3.71,0.2v2.12h-4.43v0.4
					h-1.16V75.11z M39.17,73.54c-0.35-0.02-0.56-0.08-0.72-0.24v1.39h3.93v-0.98L39.17,73.54z"/>
				<path class="st2" d="M42.38,77.32l-3.19-0.12c-0.78-0.03-1.22-0.26-1.23-1.06v-0.1h0.5c0,0.49,0.23,0.57,0.7,0.59l3.72,0.14
					v2.15h-4.91v-0.59h4.42V77.32z"/>
				<path class="st2" d="M40.07,80.91c0-0.49-0.18-0.77-0.73-0.77h-0.77c-0.33,0-0.46-0.03-0.6-0.1v-0.6
					c0.17,0.09,0.37,0.11,0.59,0.11h0.76c0.53,0,0.89,0.18,1.03,0.66c0.13-0.44,0.47-0.65,1.01-0.65h0.4c0.73,0,1.12,0.35,1.12,1.18
					v1.18h-4.91v-0.59h2.1V80.91z M42.38,80.75c0-0.44-0.23-0.61-0.67-0.61h-0.47c-0.53,0-0.67,0.28-0.67,0.74v0.44h1.82V80.75z"/>
				<path class="st2" d="M42.88,84.84c0,0.83-0.46,1.18-1.2,1.18h-0.59c-0.78,0-1.19-0.39-1.19-1.23v-0.52h-1.94v-0.59h4.91V84.84z
					 M40.4,84.79c0,0.44,0.19,0.65,0.66,0.65h0.65c0.45,0,0.67-0.17,0.67-0.6v-0.57H40.4V84.79z"/>
				<path class="st2" d="M38.96,87.08l-0.99-0.2v-0.54l4.91,1.01v0.85l-4.91,1.01v-0.59l0.99-0.2V87.08z M39.43,87.15v1.18l2.84-0.6
					L39.43,87.15z"/>
				<path class="st2" d="M37.29,92.26h0.67v-2.16h-0.67v-0.57h1.16v0.34c0.19,0.18,0.41,0.22,0.72,0.23l3.71,0.2v2.12h-4.43v0.4
					h-1.16V92.26z M39.17,90.69c-0.35-0.02-0.56-0.08-0.72-0.24v1.39h3.93v-0.98L39.17,90.69z"/>
				<path class="st2" d="M40.23,94.73l-2.27-0.78v-0.61h4.91v0.52h-3.66l1.36,0.47l2.31,0.84v0.66h-4.91v-0.53h3.91L40.23,94.73z"/>
				<path class="st2" d="M41.69,96.38c0.75,0,1.24,0.4,1.24,1.21c0,0.81-0.48,1.21-1.24,1.21h-2.54c-0.74,0-1.24-0.4-1.24-1.21
					c0-0.81,0.49-1.21,1.24-1.21H41.69z M39.13,96.96c-0.45,0-0.71,0.2-0.71,0.63c0,0.43,0.26,0.63,0.71,0.63h2.6
					c0.44,0,0.71-0.2,0.71-0.63c0-0.42-0.27-0.63-0.71-0.63H39.13z"/>
				<path class="st2" d="M42.38,100.48l-3.19-0.12c-0.78-0.03-1.22-0.26-1.23-1.06v-0.1h0.5c0,0.49,0.23,0.57,0.7,0.59l3.72,0.14
					v2.15h-4.91v-0.59h4.42V100.48z"/>
				<path class="st2" d="M41.69,106.48h-2.54c-0.74,0-1.24-0.4-1.24-1.21c0-0.81,0.49-1.21,1.24-1.21h1.02v-0.76h-2.21v-0.59h4.91
					v0.59h-2.21v0.76h1.03c0.75,0,1.24,0.4,1.24,1.21C42.93,106.08,42.45,106.48,41.69,106.48z M41.72,104.64h-2.6
					c-0.44,0-0.71,0.2-0.71,0.63c0,0.42,0.27,0.63,0.71,0.63h2.6c0.45,0,0.71-0.2,0.71-0.63C42.43,104.84,42.17,104.64,41.72,104.64
					z"/>
				<path class="st2" d="M40.85,108.25c0,0.82-0.37,1.24-1.15,1.24h-0.54c-0.77,0-1.19-0.38-1.19-1.21v-1.23h4.91v2.22h-0.5v-1.64
					h-1.53V108.25z M38.47,108.28c0,0.43,0.2,0.63,0.66,0.63h0.61c0.48,0,0.63-0.23,0.63-0.66v-0.62h-1.9V108.28z"/>
				<path class="st2" d="M40.23,111.45l-2.27-0.78v-0.61h4.91v0.52h-3.66l1.36,0.47l2.31,0.84v0.66h-4.91v-0.53h3.91L40.23,111.45z"
					/>
				<path class="st2" d="M37.97,113.95h4.42v-0.97h0.5v2.53h-0.5v-0.97h-4.42V113.95z"/>
				<path class="st2" d="M40.7,117.83h-0.49v-1.29h-1.75v1.58h-0.5v-2.17h4.91v2.17h-0.5v-1.58H40.7V117.83z"/>
				<path class="st2" d="M42.38,119.79l-3.19-0.12c-0.78-0.03-1.22-0.26-1.23-1.06v-0.1h0.5c0,0.49,0.23,0.57,0.7,0.59l3.72,0.14
					v2.15h-4.91v-0.59h4.42V119.79z"/>
				<path class="st2" d="M40.7,123.89h-0.49v-1.29h-1.75v1.58h-0.5v-2.17h4.91v2.17h-0.5v-1.58H40.7V123.89z"/>
				<path class="st2" d="M40.33,126.15l-2.37-0.82v-0.61h4.91v0.52h-3.66l1.42,0.49l2.25,0.82v0.66h-4.91v-0.53h3.91L40.33,126.15z
					 M43.88,126.81c-0.43,0-0.69-0.31-0.69-0.81s0.26-0.8,0.69-0.81v0.37c-0.27,0.02-0.36,0.2-0.36,0.44s0.08,0.43,0.36,0.45V126.81
					z"/>
			</g>
		</g>
		<g>
			<path class="st76" d="M34.92,112.6v2.93c0,1.34-1.1,2.44-2.44,2.44h0c-1.34,0-2.44-1.1-2.44-2.44v-2.93H34.92z"/>
			<path class="st76" d="M30.05,112v-2.93c0-1.34,1.1-2.44,2.44-2.44h0c1.34,0,2.44,1.1,2.44,2.44V112H30.05z"/>
		</g>
		<g>
			<path class="st76" d="M34.92,127.07V130c0,1.34-1.1,2.44-2.44,2.44h0c-1.34,0-2.44-1.1-2.44-2.44v-2.93H34.92z"/>
			<path class="st76" d="M30.05,126.46v-2.93c0-1.34,1.1-2.44,2.44-2.44h0c1.34,0,2.44,1.1,2.44,2.44v2.93H30.05z"/>
		</g>
		<g>
			<path class="st81" d="M32.61,134.37l1.45,0.15v1.49h-0.34v-1.18l-0.79-0.09c0.08,0.14,0.13,0.3,0.13,0.49
				c0,0.26-0.09,0.47-0.26,0.63c-0.17,0.16-0.41,0.23-0.71,0.23c-0.3,0-0.54-0.08-0.71-0.24c-0.17-0.16-0.26-0.39-0.26-0.68
				c0-0.26,0.07-0.47,0.21-0.63s0.34-0.25,0.59-0.28v0.35c-0.17,0.02-0.29,0.08-0.38,0.18c-0.08,0.1-0.13,0.22-0.13,0.38
				c0,0.17,0.06,0.31,0.18,0.4c0.12,0.1,0.28,0.15,0.48,0.15c0.19,0,0.35-0.05,0.47-0.16c0.12-0.11,0.18-0.25,0.18-0.42
				c0-0.16-0.04-0.29-0.11-0.38l-0.08-0.1L32.61,134.37z"/>
			<path class="st81" d="M31.66,137.45l2.4,0.83v0.42l-2.91-1.08v-0.34l2.91-1.08v0.42L31.66,137.45z"/>
		</g>
		<g>
			<path class="st81" d="M32.79,99.04v0.28c0,0.17,0.05,0.31,0.14,0.41c0.09,0.1,0.21,0.15,0.36,0.15c0.34,0,0.51-0.17,0.51-0.51
				c0-0.16-0.05-0.29-0.14-0.38c-0.09-0.1-0.21-0.14-0.36-0.14v-0.37c0.23,0,0.42,0.08,0.57,0.25c0.15,0.17,0.23,0.38,0.23,0.64
				c0,0.27-0.07,0.49-0.22,0.64c-0.15,0.16-0.35,0.23-0.61,0.23c-0.13,0-0.25-0.04-0.37-0.12c-0.12-0.08-0.21-0.19-0.26-0.33
				c-0.05,0.16-0.13,0.28-0.25,0.37c-0.12,0.09-0.26,0.13-0.43,0.13c-0.26,0-0.47-0.08-0.62-0.25c-0.15-0.17-0.23-0.39-0.23-0.67
				s0.07-0.49,0.22-0.67s0.34-0.26,0.58-0.26v0.37c-0.15,0-0.28,0.05-0.37,0.15c-0.09,0.1-0.14,0.23-0.14,0.4
				c0,0.18,0.05,0.31,0.14,0.41c0.09,0.09,0.23,0.14,0.4,0.14c0.17,0,0.3-0.05,0.39-0.16s0.14-0.25,0.14-0.45v-0.28H32.79z"/>
			<path class="st81" d="M31.66,101.76l2.4,0.83v0.42l-2.91-1.08v-0.34l2.91-1.08v0.42L31.66,101.76z"/>
			<path class="st81" d="M32.79,103.74v0.28c0,0.17,0.05,0.31,0.14,0.41c0.09,0.1,0.21,0.15,0.36,0.15c0.34,0,0.51-0.17,0.51-0.51
				c0-0.16-0.05-0.29-0.14-0.38c-0.09-0.1-0.21-0.14-0.36-0.14v-0.37c0.23,0,0.42,0.08,0.57,0.25c0.15,0.17,0.23,0.38,0.23,0.64
				c0,0.27-0.07,0.49-0.22,0.64c-0.15,0.16-0.35,0.23-0.61,0.23c-0.13,0-0.25-0.04-0.37-0.12c-0.12-0.08-0.21-0.19-0.26-0.33
				c-0.05,0.16-0.13,0.28-0.25,0.37c-0.12,0.09-0.26,0.13-0.43,0.13c-0.26,0-0.47-0.08-0.62-0.25c-0.15-0.17-0.23-0.39-0.23-0.67
				s0.07-0.49,0.22-0.67s0.34-0.26,0.58-0.26v0.37c-0.15,0-0.28,0.05-0.37,0.15c-0.09,0.1-0.14,0.23-0.14,0.4
				c0,0.18,0.05,0.31,0.14,0.41c0.09,0.09,0.23,0.14,0.4,0.14c0.17,0,0.3-0.05,0.39-0.16s0.14-0.25,0.14-0.45v-0.28H32.79z"/>
		</g>
		<g>
			<circle class="st30" cx="10.86" cy="81.73" r="1.26"/>
			<circle class="st30" cx="14.47" cy="81.73" r="1.26"/>
			<circle class="st30" cx="10.86" cy="85.42" r="1.26"/>
			<circle class="st30" cx="14.47" cy="85.42" r="1.26"/>
			<circle class="st30" cx="10.86" cy="88.99" r="1.26"/>
			<circle class="st30" cx="14.47" cy="88.99" r="1.26"/>
		</g>
		<g>
			
				<rect x="22.7" y="73.04" transform="matrix(-1 -1.224647e-16 1.224647e-16 -1 46.7123 149.3488)" class="st2" width="1.32" height="3.26"/>
			<path class="st2" d="M18.26,99.26V57.8c0-0.32,0.26-0.58,0.58-0.58h7.58c0.32,0,0.58,0.26,0.58,0.58v41.46
				c0,0.32-0.26,0.58-0.58,0.58h-7.58C18.52,99.84,18.26,99.58,18.26,99.26z M19.47,60.95h2.28v2.38h1.42v-2.38h0.88V65h1.38v-5.34
				l-5.96-0.03V60.95z M19.47,70.99h1.44v-4.05h4.52v-1.3h-5.96V70.99z M25.46,71.63h-5.99v1.42h1.79v3.26h-1.79v1.43h5.96
				 M21.71,83.16h-0.84v-4.69h-1.4v6.11h3.72v-4.79h0.84v4.79h1.4v-6.11h-3.72V83.16z M25.43,89.87H23.2V86.5h2.23v-1.32h-5.96
				l0,1.32h2.27v3.36h-2.27l0,1.44h5.96"/>
			<path class="st3" d="M19.16,93.22h0.9v5.28h-0.9V93.22z"/>
			<path class="st3" d="M21.83,93.91c-0.29,0-0.46,0.14-0.46,0.52V95h-0.85v-0.51c0-0.84,0.46-1.33,1.34-1.33s1.34,0.48,1.34,1.33
				c0,1.66-1.79,2.28-1.79,3.14c0,0.04,0,0.08,0.01,0.11h1.7v0.75h-2.6v-0.65c0-1.55,1.78-1.81,1.78-3.33
				C22.29,94.04,22.11,93.91,21.83,93.91z"/>
			<path class="st3" d="M26.14,96.52v0.7c0,0.84-0.46,1.33-1.34,1.33s-1.34-0.48-1.34-1.33v-2.74c0-0.84,0.46-1.33,1.34-1.33
				s1.34,0.48,1.34,1.33V95H25.3v-0.57c0-0.38-0.18-0.52-0.47-0.52c-0.29,0-0.46,0.14-0.46,0.52v2.85c0,0.38,0.18,0.51,0.46,0.51
				c0.29,0,0.47-0.14,0.47-0.51v-0.75H26.14z"/>
		</g>
	</g>
</g>
</svg>
