<?xml version="1.0" encoding="utf-8"?>
<!-- Generator: Adobe Illustrator 22.0.1, SVG Export Plug-In . SVG Version: 6.00 Build 0)  -->
<svg version="1.1" xmlns="http://www.w3.org/2000/svg" xmlns:xlink="http://www.w3.org/1999/xlink" x="0px" y="0px"
	 viewBox="0 0 85 85" style="enable-background:new 0 0 85 85;" xml:space="preserve">
<style type="text/css">
	.st0{display:none;}
	.st1{fill:#9E9B9C;}
	.st2{fill:#E5E4E0;}
	.st3{fill:none;stroke:#F6F6F6;stroke-width:0.75;stroke-miterlimit:10;}
	.st4{fill:#CEC7BD;}
	.st5{fill:#918C84;}
	.st6{fill:#151616;}
	.st7{fill:none;stroke:#E5E4E0;stroke-width:1.3;stroke-miterlimit:10;}
	.st8{fill:none;stroke:#E5E4E0;stroke-width:1.5;stroke-miterlimit:10;}
	.st9{fill:none;stroke:#E5E4E0;stroke-width:0.75;stroke-miterlimit:10;}
	.st10{fill:none;stroke:#E5E4E0;stroke-width:0.75;stroke-linecap:round;stroke-miterlimit:10;}
	.st11{fill:#5A9AAE;}
	.st12{fill:#6CBEDA;}
	.st13{opacity:0.5;}
	.st14{fill:#CDC7BC;}
	.st15{opacity:0.5;fill:#CCC6BB;enable-background:new    ;}
	.st16{opacity:0.5;fill:#313131;enable-background:new    ;}
	.st17{fill:#CCC6BC;}
	.st18{fill:#908B83;}
	.st19{fill:#CCC6BB;}
	.st20{fill:#363330;}
	.st21{fill:#B3B3B2;}
	.st22{font-family:'Verdana';}
	.st23{font-size:1.7702px;}
</style>
<g id="Слой_1">
	<g id="Слой_1_1_" class="st0">
		
			<image style="display:inline;overflow:visible;enable-background:new    ;" width="803" height="792" xlink:href="83A2F005.png"  transform="matrix(0.1059 0 0 0.1059 -0.4158 1.2083)">
		</image>
	</g>
	<g id="Макет_TREMA">
		<path d="M0,0v85h85V0H0z M9.9,79.5c-2.4,0-4.4-2-4.4-4.4c0-2.4,2-4.4,4.4-4.4s4.4,2,4.4,4.4C14.3,77.5,12.3,79.5,9.9,79.5z
			 M9.9,14.3c-2.4,0-4.4-2-4.4-4.4c0-2.4,2-4.4,4.4-4.4c2.4,0,4.4,2,4.4,4.4C14.3,12.3,12.3,14.3,9.9,14.3z M75.1,79.5
			c-2.4,0-4.4-2-4.4-4.4c0-2.4,2-4.4,4.4-4.4c2.4,0,4.4,2,4.4,4.4C79.5,77.5,77.5,79.5,75.1,79.5z M75.1,14.3c-2.4,0-4.4-2-4.4-4.4
			c0-2.4,2-4.4,4.4-4.4c2.4,0,4.4,2,4.4,4.4C79.5,12.3,77.5,14.3,75.1,14.3z"/>
		<g id="Креп._отверстия">
			<path class="st1" d="M75.1,3.9c-3.3,0-6,2.7-6,6c0,3.3,2.7,6,6,6s6-2.7,6-6C81.1,6.6,78.4,3.9,75.1,3.9z M75.1,14.3
				c-2.4,0-4.4-2-4.4-4.4c0-2.4,2-4.4,4.4-4.4c2.4,0,4.4,2,4.4,4.4C79.5,12.3,77.5,14.3,75.1,14.3z"/>
			<path class="st1" d="M75.1,69.1c-3.3,0-6,2.7-6,6s2.7,6,6,6c3.3,0,6-2.7,6-6S78.4,69.1,75.1,69.1z M75.1,79.5
				c-2.4,0-4.4-2-4.4-4.4c0-2.4,2-4.4,4.4-4.4c2.4,0,4.4,2,4.4,4.4C79.5,77.5,77.5,79.5,75.1,79.5z"/>
			<path class="st1" d="M9.9,69.1c-3.3,0-6,2.7-6,6s2.7,6,6,6s6-2.7,6-6S13.2,69.1,9.9,69.1z M9.9,79.5c-2.4,0-4.4-2-4.4-4.4
				c0-2.4,2-4.4,4.4-4.4s4.4,2,4.4,4.4C14.3,77.5,12.3,79.5,9.9,79.5z"/>
			<path class="st1" d="M9.9,3.9c-3.3,0-6,2.7-6,6c0,3.3,2.7,6,6,6c3.3,0,6-2.7,6-6C15.9,6.6,13.2,3.9,9.9,3.9z M9.9,14.3
				c-2.4,0-4.4-2-4.4-4.4c0-2.4,2-4.4,4.4-4.4c2.4,0,4.4,2,4.4,4.4C14.3,12.3,12.3,14.3,9.9,14.3z"/>
		</g>
		<g>
			<path class="st2" d="M35.7,78.5c0.4,0,0.6,0.1,0.8,0.2c0.2,0.2,0.3,0.4,0.3,0.7c0,0.2,0,0.3-0.1,0.4s-0.2,0.2-0.4,0.3
				c0.2,0.1,0.3,0.1,0.4,0.3c0.1,0.1,0.1,0.3,0.1,0.5V81c0,0.1,0,0.1,0,0.2c0,0,0.1,0.1,0.1,0.1l0.1,0v0.4h-0.3
				c-0.2,0-0.4-0.1-0.4-0.2s-0.1-0.3-0.1-0.4v-0.2c0-0.2,0-0.3-0.1-0.4c-0.1-0.1-0.2-0.1-0.3-0.1h-0.5v0.8l0.3,0.1v0.4h-1.3v-0.4
				l0.3-0.1v-2.3l-0.3-0.1v-0.4h0.3H35.7z M35.3,79.9h0.4c0.2,0,0.3,0,0.4-0.1s0.1-0.2,0.1-0.3s0-0.3-0.1-0.3C36,79,35.9,79,35.7,79
				h-0.4V79.9z"/>
			<path class="st2" d="M38.7,78.5v0.4l-0.3,0.1v1.6c0,0.2,0.1,0.4,0.2,0.5c0.1,0.1,0.3,0.2,0.5,0.2c0.2,0,0.4-0.1,0.5-0.2
				c0.1-0.1,0.2-0.3,0.2-0.5v-1.6l-0.3-0.1v-0.4h1.3v0.4l-0.3,0.1v1.6c0,0.4-0.1,0.6-0.4,0.8s-0.5,0.3-0.9,0.3
				c-0.4,0-0.7-0.1-0.9-0.3s-0.3-0.5-0.3-0.8v-1.6l-0.3-0.1v-0.4h0.3h0.6H38.7z"/>
			<path class="st2" d="M43.1,79.5h-0.5l-0.1-0.4c-0.1,0-0.1-0.1-0.2-0.1c-0.1,0-0.2,0-0.3,0c-0.2,0-0.3,0-0.4,0.1
				c-0.1,0.1-0.1,0.2-0.1,0.3c0,0.1,0,0.2,0.1,0.3s0.3,0.1,0.5,0.2c0.3,0.1,0.6,0.2,0.8,0.4c0.2,0.2,0.3,0.4,0.3,0.6
				c0,0.3-0.1,0.5-0.3,0.6s-0.5,0.2-0.8,0.2c-0.3,0-0.5,0-0.7-0.1c-0.2-0.1-0.4-0.2-0.5-0.3v-0.7h0.5l0.1,0.4
				c0.1,0.1,0.2,0.1,0.3,0.1c0.1,0,0.2,0.1,0.4,0.1c0.2,0,0.3,0,0.4-0.1c0.1-0.1,0.1-0.2,0.1-0.3c0-0.1,0-0.2-0.1-0.3
				c-0.1-0.1-0.2-0.1-0.5-0.2c-0.4-0.1-0.7-0.2-0.9-0.4c-0.2-0.1-0.3-0.4-0.3-0.6c0-0.3,0.1-0.5,0.3-0.6c0.2-0.2,0.5-0.2,0.8-0.2
				c0.2,0,0.5,0,0.7,0.1c0.2,0.1,0.4,0.2,0.5,0.3V79.5z"/>
			<path class="st2" d="M45.8,79.5h-0.5l-0.1-0.4C45.2,79,45.1,79,45,79c-0.1,0-0.2,0-0.3,0c-0.2,0-0.3,0-0.4,0.1
				c-0.1,0.1-0.1,0.2-0.1,0.3c0,0.1,0,0.2,0.1,0.3c0.1,0.1,0.3,0.1,0.5,0.2c0.3,0.1,0.6,0.2,0.8,0.4c0.2,0.2,0.3,0.4,0.3,0.6
				c0,0.3-0.1,0.5-0.3,0.6c-0.2,0.2-0.5,0.2-0.8,0.2c-0.3,0-0.5,0-0.7-0.1c-0.2-0.1-0.4-0.2-0.5-0.3v-0.7H44l0.1,0.4
				c0.1,0.1,0.2,0.1,0.3,0.1c0.1,0,0.2,0.1,0.4,0.1c0.2,0,0.3,0,0.4-0.1c0.1-0.1,0.1-0.2,0.1-0.3c0-0.1,0-0.2-0.1-0.3
				c-0.1-0.1-0.2-0.1-0.5-0.2c-0.4-0.1-0.7-0.2-0.9-0.4c-0.2-0.1-0.3-0.4-0.3-0.6c0-0.3,0.1-0.5,0.3-0.6c0.2-0.2,0.5-0.2,0.8-0.2
				c0.2,0,0.5,0,0.7,0.1c0.2,0.1,0.4,0.2,0.5,0.3V79.5z"/>
			<path class="st2" d="M46.1,78.9v-0.4h1.3v0.4l-0.3,0.1v2.3l0.3,0.1v0.4h-1.3v-0.4l0.3-0.1v-2.3L46.1,78.9z"/>
			<path class="st2" d="M47.7,81.3l0.2,0l1-2.7h0.6l1,2.7l0.2,0v0.4h-1.1v-0.4l0.2,0l-0.1-0.4h-1l-0.1,0.4l0.2,0v0.4h-1.1V81.3z
				 M48.8,80.3h0.7l-0.4-1.1h0L48.8,80.3z"/>
		</g>
		<path class="st3" d="M31.7,77.2c-0.1,0-0.1,0-0.1,0l0-15.5c0,0,0,0,0-0.1c0,0,0.1,0,0.1,0l21.7,0c0,0,0,0,0,0c0,2.1,0,15.3,0,15.3
			s0,0.2,0,0.3c0,0-0.1,0-0.1,0S33.6,77.2,31.7,77.2z"/>
		<line class="st3" x1="46.1" y1="61.6" x2="46.1" y2="77.2"/>
		<line class="st3" x1="38.9" y1="61.6" x2="38.9" y2="77.2"/>
		<path class="st3" d="M45.5,65.3"/>
		<path class="st4" d="M37.5,73.4c0,1.2-1,2.2-2.2,2.2s-2.2-1-2.2-2.2c0-1.2,1-2.2,2.2-2.2S37.5,72.1,37.5,73.4z"/>
		<ellipse class="st5" cx="35.3" cy="73.4" rx="1.5" ry="1.5"/>
		<path class="st4" d="M44.7,73.4c0,1.2-1,2.2-2.2,2.2s-2.2-1-2.2-2.2c0-1.2,1-2.2,2.2-2.2S44.7,72.1,44.7,73.4z"/>
		<ellipse class="st5" cx="42.5" cy="73.4" rx="1.5" ry="1.5"/>
		<path class="st4" d="M51.3,71.7c1.5,2-0.2,4.3-2.2,3.8c-0.8-0.2-1.4-0.8-1.6-1.6C47,71.9,49.3,70.2,51.3,71.7z"/>
		<ellipse class="st5" cx="49.7" cy="73.4" rx="1.5" ry="1.5"/>
		<g>
			<path class="st2" d="M37.7,67.8c-0.2,0.2-0.4,0.3-0.7,0.4s-0.7,0.2-1.2,0.2c-0.7,0-1.3-0.2-1.7-0.7c-0.4-0.5-0.7-1.1-0.7-1.9
				v-0.1c0-0.8,0.2-1.4,0.7-1.9c0.4-0.5,1-0.7,1.7-0.7c0.4,0,0.7,0.1,1,0.2s0.5,0.3,0.7,0.5v0.9h-0.5L37,64
				c-0.1-0.1-0.3-0.2-0.4-0.2s-0.4-0.1-0.6-0.1c-0.6,0-1,0.2-1.3,0.6c-0.3,0.4-0.5,0.9-0.5,1.5v0.1c0,0.6,0.1,1.1,0.4,1.5
				c0.3,0.4,0.7,0.6,1.2,0.6c0.3,0,0.5,0,0.7-0.1c0.2-0.1,0.3-0.1,0.4-0.2v-1.1l-0.9,0V66h1.6V67.8z"/>
		</g>
		<g>
			<path class="st2" d="M41.7,63.8l-0.5,0.1l1.2,3.4l0.1,0.4h0l0.1-0.4l1.2-3.4l-0.5-0.1v-0.4h1.6v0.4l-0.4,0.1l-1.7,4.7h-0.6
				l-1.7-4.7L40,63.8v-0.4h1.6V63.8z"/>
		</g>
		<g>
			<path class="st2" d="M51.5,64.9h-0.5l-0.1-0.7c-0.1-0.1-0.3-0.2-0.4-0.2c-0.2-0.1-0.4-0.1-0.6-0.1c-0.4,0-0.7,0.1-0.9,0.2
				c-0.2,0.2-0.3,0.4-0.3,0.6c0,0.2,0.1,0.4,0.3,0.6c0.2,0.1,0.5,0.3,1,0.4c0.5,0.1,1,0.3,1.2,0.6c0.3,0.3,0.4,0.6,0.4,1
				c0,0.4-0.2,0.8-0.5,1s-0.8,0.4-1.3,0.4c-0.4,0-0.8-0.1-1.1-0.2c-0.3-0.1-0.6-0.3-0.8-0.5v-1h0.5l0.1,0.7c0.1,0.1,0.3,0.2,0.5,0.3
				c0.2,0.1,0.4,0.1,0.7,0.1c0.4,0,0.6-0.1,0.8-0.2s0.3-0.4,0.3-0.6c0-0.2-0.1-0.4-0.3-0.6s-0.5-0.3-0.9-0.4c-0.6-0.1-1-0.3-1.3-0.6
				c-0.3-0.3-0.5-0.6-0.5-1c0-0.4,0.2-0.7,0.5-1c0.3-0.3,0.8-0.4,1.3-0.4c0.4,0,0.7,0.1,1,0.2c0.3,0.1,0.5,0.3,0.7,0.5V64.9z"/>
		</g>
		<g>
			<rect x="8.2" y="60.2" class="st2" width="6.5" height="6.5"/>
			<g>
				<path class="st6" d="M11.4,61.5c0.6,0,1,0.2,1.3,0.5c0.3,0.3,0.5,0.8,0.5,1.3v0.6c0,0.5-0.2,1-0.5,1.3c-0.3,0.3-0.8,0.5-1.3,0.5
					H9.6v-0.4l0.5-0.1V62l-0.5-0.1v-0.4h0.5H11.4z M10.6,62v3.3h0.7c0.4,0,0.7-0.1,0.9-0.4c0.2-0.3,0.3-0.6,0.3-1v-0.6
					c0-0.4-0.1-0.7-0.3-1S11.8,62,11.4,62H10.6z"/>
			</g>
		</g>
	</g>
	<g id="Слой_11">
		<g id="T">
			<path class="st7" d="M9.5,22.3c0-1.1,0.9-2,2-2s2,0.9,2,2c0,0,0,6.5,0,6.5s0,1,0,1.8c0.8,0.6,1.3,1.5,1.3,2.6
				c0,1.8-1.5,3.3-3.3,3.3S8.2,35,8.2,33.2c0-1.1,0.5-2,1.3-2.6c0-1.7,0-3.3,0-5"/>
			<line class="st7" x1="9.5" y1="22.3" x2="9.5" y2="25.6"/>
			<line class="st7" x1="11.5" y1="25.4" x2="11.5" y2="32.2"/>
			<g>
				<path class="st2" d="M11.5,32.5c0.4,0,0.7,0.3,0.7,0.7s-0.3,0.7-0.7,0.7s-0.7-0.3-0.7-0.7S11.1,32.5,11.5,32.5 M11.5,31.2
					c-1.1,0-2,0.9-2,2s0.9,2,2,2s2-0.9,2-2S12.6,31.2,11.5,31.2L11.5,31.2z"/>
			</g>
			<line class="st8" x1="14.9" y1="24" x2="18.7" y2="24"/>
			<line class="st8" x1="14.9" y1="21.6" x2="18.7" y2="21.6"/>
			<line class="st8" x1="14.9" y1="26.4" x2="18.7" y2="26.4"/>
			<line class="st8" x1="15.6" y1="28.8" x2="18.7" y2="28.8"/>
		</g>
		<g id="H">
			<line class="st9" x1="9.5" y1="42.1" x2="13.4" y2="42.1"/>
			<line class="st9" x1="11.5" y1="40" x2="11.5" y2="44.1"/>
			<path class="st7" d="M15.7,54c0,2.4-1.9,4.3-4.3,4.3S7.2,56.3,7.2,54c0-2.4,3.6-7.1,4.4-7.1C12.5,46.9,15.7,51.6,15.7,54z"/>
			<path class="st10" d="M11.5,55.9c-1.3,0-2.3-1-2.3-2.3"/>
			<g>
				<path class="st2" d="M72.6,62.5h0.3l0.1,0.4h2.7v-0.5l1.2,0v0.4H76v2.4h0.8v0.4l-1.2,0.1v-0.3c-0.1-0.1-0.3-0.2-0.6-0.3
					S74.5,65,74,65l-1-0.1l-0.1,0.4h-0.3v-2.4V62.5z M74,64.5c0.4,0,0.7,0.1,1,0.1c0.3,0.1,0.5,0.2,0.7,0.3v-1.6H73v1.1L74,64.5z"/>
				<path class="st2" d="M76,60.4c-0.1,0-0.1,0-0.2,0c-0.1,0-0.1,0-0.2,0c0.1,0.1,0.2,0.2,0.3,0.3c0.1,0.1,0.1,0.3,0.1,0.4
					c0,0.3-0.1,0.5-0.2,0.6S75.6,62,75.3,62c-0.2,0-0.4-0.1-0.6-0.3c-0.1-0.2-0.2-0.5-0.2-0.8v-0.5h-0.3c-0.1,0-0.3,0-0.4,0.1
					c-0.1,0.1-0.1,0.2-0.1,0.4c0,0.1,0,0.2,0,0.3s0.1,0.2,0.1,0.2l0.3,0v0.4h-0.5c-0.1-0.1-0.2-0.3-0.2-0.4
					c-0.1-0.2-0.1-0.3-0.1-0.5c0-0.3,0.1-0.5,0.2-0.7c0.1-0.2,0.4-0.3,0.6-0.3h1.2c0,0,0.1,0,0.1,0c0,0,0.1,0,0.1,0l0-0.2H76V60.4z
					 M75.7,61.1c0-0.2,0-0.3-0.1-0.4c-0.1-0.1-0.2-0.2-0.3-0.3h-0.4v0.5c0,0.2,0,0.3,0.1,0.4s0.2,0.2,0.3,0.2c0.1,0,0.2,0,0.3-0.1
					S75.7,61.3,75.7,61.1z"/>
				<path class="st2" d="M73.5,57.1h0.8v0.4l-0.4,0V58h1.8l0.1-0.4H76v1.2h-0.3l-0.1-0.4h-1.8V59l0.4,0v0.4h-0.8V57.1z"/>
				<path class="st2" d="M73.5,55.5h0.3l0.1,0.4h0.4c0.2,0,0.4,0,0.4-0.1s0.1-0.2,0.1-0.4c0-0.1,0-0.2,0-0.3c0-0.1,0-0.2-0.1-0.3
					h-0.9l-0.1,0.4h-0.3V54h0.3l0.1,0.4h1.8l0.1-0.4H76v1.2h-0.3l-0.1-0.4h-0.5c0,0.1,0,0.2,0.1,0.3c0,0.1,0,0.2,0,0.3
					c0,0.3-0.1,0.5-0.2,0.7c-0.2,0.2-0.4,0.3-0.7,0.3h-0.4l-0.1,0.4h-0.3v-0.8V55.5z"/>
				<path class="st2" d="M73.5,52.3h0.3l0.1,0.4h1.4l0,0l-1.8-1.1v-0.5v-0.4h0.3l0.1,0.4h1.8l0.1-0.4H76v1.2h-0.3l-0.1-0.4h-1.4l0,0
					l1.8,1.1v0.8h-0.3l-0.1-0.4h-1.8l-0.1,0.4h-0.3v-0.8V52.3z"/>
				<path class="st2" d="M73.8,50.2h-0.3V49h0.3l0.1,0.4h0.7v-0.2l-0.7-0.5c-0.1-0.1-0.2-0.2-0.3-0.3s-0.1-0.2-0.1-0.3
					c0-0.1,0-0.1,0-0.2c0,0,0-0.1,0.1-0.2l0.3,0.1c0,0.1,0,0.1,0,0.1c0,0,0,0,0,0.1c0,0.1,0,0.1,0.1,0.2c0,0.1,0.1,0.1,0.1,0.1
					l0.6,0.5l1-0.8l0.1-0.3H76v0.6L75,49.1v0.3h0.7l0.1-0.4H76v1.2h-0.3l-0.1-0.4h-1.8L73.8,50.2z"/>
				<path class="st2" d="M73.5,44.7c0-0.3,0.1-0.6,0.2-0.8c0.1-0.2,0.3-0.3,0.5-0.3c0.1,0,0.2,0,0.3,0.1c0.1,0.1,0.2,0.2,0.2,0.3
					c0-0.2,0.1-0.3,0.2-0.4s0.2-0.1,0.4-0.1c0.2,0,0.4,0.1,0.5,0.3C76,44,76,44.3,76,44.6v1.5h-0.3l-0.1-0.4h-1.8l-0.1,0.4h-0.3
					v-0.4V44.7z M74.6,45.3v-0.5c0-0.2,0-0.3-0.1-0.4s-0.1-0.1-0.3-0.1c-0.1,0-0.2,0-0.3,0.1s-0.1,0.2-0.1,0.4v0.5H74.6z M74.9,45.3
					h0.7v-0.7c0-0.2,0-0.3-0.1-0.4c-0.1-0.1-0.2-0.1-0.3-0.1c-0.1,0-0.2,0-0.3,0.1c-0.1,0.1-0.1,0.2-0.1,0.4V45.3z"/>
				<path class="st2" d="M73.9,42.2h0.7c0.5,0,0.9,0.1,1.1,0.2c0.2,0.1,0.3,0.4,0.3,0.7v0.1l-0.4,0l0-0.1c0-0.2-0.1-0.3-0.2-0.3
					c-0.2-0.1-0.4-0.1-0.8-0.1h-0.7l-0.1,0.4h-0.3v-2.2v-0.4h0.3l0.1,0.4h1.8l0.1-0.4H76v1.2h-0.3l-0.1-0.4h-1.8V42.2z"/>
				<path class="st2" d="M76,38.5c-0.1,0-0.1,0-0.2,0c-0.1,0-0.1,0-0.2,0c0.1,0.1,0.2,0.2,0.3,0.3c0.1,0.1,0.1,0.3,0.1,0.4
					c0,0.3-0.1,0.5-0.2,0.6s-0.3,0.2-0.5,0.2c-0.2,0-0.4-0.1-0.6-0.3c-0.1-0.2-0.2-0.5-0.2-0.8v-0.5h-0.3c-0.1,0-0.3,0-0.4,0.1
					s-0.1,0.2-0.1,0.4c0,0.1,0,0.2,0,0.3s0.1,0.2,0.1,0.2l0.3,0V40h-0.5c-0.1-0.1-0.2-0.3-0.2-0.4c-0.1-0.2-0.1-0.3-0.1-0.5
					c0-0.3,0.1-0.5,0.2-0.7c0.1-0.2,0.4-0.3,0.6-0.3h1.2c0,0,0.1,0,0.1,0c0,0,0.1,0,0.1,0l0-0.2H76V38.5z M75.7,39.2
					c0-0.2,0-0.3-0.1-0.4c-0.1-0.1-0.2-0.2-0.3-0.3h-0.4V39c0,0.2,0,0.3,0.1,0.4s0.2,0.2,0.3,0.2c0.1,0,0.2,0,0.3-0.1
					S75.7,39.3,75.7,39.2z"/>
				<path class="st2" d="M75,36.2l1.1,0.7v0.7h-0.3l-0.1-0.4l-1-0.7L74.1,37c-0.1,0-0.1,0.1-0.2,0.1c0,0.1-0.1,0.1-0.1,0.2
					c0,0,0,0.1,0,0.1c0,0,0,0,0,0.1l-0.3,0.1c0-0.1-0.1-0.1-0.1-0.2c0,0,0-0.1,0-0.2c0-0.1,0-0.2,0.1-0.3c0.1-0.1,0.2-0.2,0.3-0.3
					l0.7-0.4v-0.3h-0.7l-0.1,0.4h-0.3v-0.4v-0.8h0.3l0.1,0.4h0.7v-0.3l-0.7-0.4c-0.1-0.1-0.2-0.2-0.3-0.3c-0.1-0.1-0.1-0.2-0.1-0.3
					c0-0.1,0-0.1,0-0.2s0-0.1,0.1-0.2l0.3,0.1c0,0.1,0,0.1,0,0.1c0,0,0,0,0,0.1c0,0.1,0,0.1,0.1,0.2c0,0.1,0.1,0.1,0.2,0.1l0.7,0.4
					l1-0.6l0.1-0.4H76v0.7L75,35.2v0.3h0.7l0.1-0.4H76v1.2h-0.3l-0.1-0.4H75V36.2z"/>
				<path class="st2" d="M73.8,33.4h-0.3v-1.2h0.3l0.1,0.4h0.7v-1.1h-0.7l-0.1,0.4h-0.3v-0.4V31v-0.4h0.3l0.1,0.4h1.8l0.1-0.4H76
					v1.2h-0.3l-0.1-0.4H75v1.1h0.7l0.1-0.4H76v1.2h-0.3l-0.1-0.4h-1.8L73.8,33.4z"/>
				<path class="st2" d="M74.7,30.2c-0.4,0-0.7-0.1-0.9-0.3c-0.2-0.2-0.4-0.5-0.4-0.8c0-0.3,0.1-0.6,0.4-0.8
					c0.2-0.2,0.5-0.3,0.9-0.3h0.1c0.4,0,0.7,0.1,0.9,0.3c0.2,0.2,0.4,0.5,0.4,0.8c0,0.3-0.1,0.6-0.4,0.8
					C75.5,30.1,75.2,30.2,74.7,30.2L74.7,30.2z M74.8,29.7c0.3,0,0.5-0.1,0.7-0.2c0.2-0.1,0.3-0.3,0.3-0.5c0-0.2-0.1-0.4-0.3-0.5
					s-0.4-0.2-0.7-0.2h-0.1c-0.3,0-0.5,0.1-0.7,0.2s-0.3,0.3-0.3,0.5c0,0.2,0.1,0.4,0.3,0.5S74.5,29.7,74.8,29.7L74.8,29.7z"/>
				<path class="st2" d="M75.7,26.4c0-0.2,0-0.3-0.1-0.4c-0.1-0.1-0.2-0.2-0.3-0.2v-0.4l0,0c0.2,0,0.4,0.1,0.6,0.3
					c0.2,0.2,0.3,0.4,0.3,0.7c0,0.4-0.1,0.6-0.4,0.8s-0.5,0.3-0.9,0.3h-0.1c-0.4,0-0.7-0.1-0.9-0.3c-0.2-0.2-0.4-0.5-0.4-0.8
					c0-0.2,0-0.4,0.1-0.5c0.1-0.2,0.2-0.3,0.3-0.4l0.6,0v0.4L74,25.9c-0.1,0.1-0.1,0.1-0.1,0.2c0,0.1,0,0.2,0,0.3
					c0,0.2,0.1,0.4,0.3,0.5c0.2,0.1,0.4,0.2,0.6,0.2h0.1c0.3,0,0.5-0.1,0.6-0.2C75.6,26.8,75.7,26.6,75.7,26.4z"/>
				<path class="st2" d="M73.5,22.6h0.8V23l-0.4,0v0.5h1.8l0.1-0.4H76v1.2h-0.3L75.7,24h-1.8v0.5l0.4,0V25h-0.8V22.6z"/>
				<path class="st2" d="M73.5,21h0.3l0.1,0.4h1.4l0,0l-1.8-1.1v-0.5v-0.4h0.3l0.1,0.4h1.8l0.1-0.4H76v1.2h-0.3l-0.1-0.4h-1.4l0,0
					l1.8,1.1v0.8h-0.3l-0.1-0.4h-1.8l-0.1,0.4h-0.3v-0.8V21z"/>
				<path class="st2" d="M79.2,59.7h0.3l0.1,0.4H81l0,0L79.2,59v-0.5v-0.4h0.3l0.1,0.4h1.8l0.1-0.4h0.3v1.2h-0.3L81.4,59H80l0,0
					l1.8,1.1v0.8h-0.3l-0.1-0.4h-1.8l-0.1,0.4h-0.3v-0.8V59.7z"/>
				<path class="st2" d="M79.2,54.2H80v0.4l-0.4,0v0.5h1.8l0.1-0.4h0.3V56h-0.3l-0.1-0.4h-1.8v0.5l0.4,0v0.4h-0.8V54.2z"/>
				<path class="st2" d="M81.8,52.8c0,0.4-0.1,0.6-0.4,0.8s-0.5,0.3-0.9,0.3h-0.1c-0.4,0-0.7-0.1-0.9-0.3c-0.2-0.2-0.4-0.5-0.4-0.8
					c0-0.3,0.1-0.6,0.3-0.8c0.2-0.2,0.5-0.3,0.8-0.3h0.3v1.6l0,0c0.2,0,0.4-0.1,0.6-0.2c0.2-0.1,0.2-0.3,0.2-0.5
					c0-0.2,0-0.3-0.1-0.4s-0.1-0.2-0.2-0.3l0.3-0.2c0.1,0.1,0.2,0.2,0.2,0.4S81.8,52.6,81.8,52.8z M79.5,52.9c0,0.2,0.1,0.3,0.2,0.4
					c0.1,0.1,0.3,0.2,0.5,0.2l0,0v-1.2h-0.1c-0.2,0-0.3,0-0.5,0.1C79.6,52.5,79.5,52.7,79.5,52.9z"/>
				<path class="st2" d="M81.1,49.6L81.1,49.6l-1.9-0.8v-0.6v-0.4h0.3l0.1,0.4h1.8l0.1-0.4h0.3V49h-0.3l-0.1-0.4H80l0,0l1.8,0.8v0.3
					L80,50.5l0,0h1.4l0.1-0.4h0.3v1.2h-0.3L81.4,51h-1.8l-0.1,0.4h-0.3V51v-0.6L81.1,49.6z"/>
				<path class="st2" d="M81.5,47.4L81.4,47h-1.8l-0.1,0.4h-0.3v-2.8h0.3l0.1,0.4h1.8l0.1-0.4h0.3v1.2h-0.3l-0.1-0.4h-1.8v1.1h1.8
					l0.1-0.4h0.3v1.2H81.5z"/>
				<path class="st2" d="M81.8,43c0,0.4-0.1,0.6-0.4,0.8s-0.5,0.3-0.9,0.3h-0.1c-0.4,0-0.7-0.1-0.9-0.3c-0.2-0.2-0.4-0.5-0.4-0.8
					c0-0.3,0.1-0.6,0.3-0.8c0.2-0.2,0.5-0.3,0.8-0.3h0.3v1.6l0,0c0.2,0,0.4-0.1,0.6-0.2s0.2-0.3,0.2-0.5c0-0.2,0-0.3-0.1-0.4
					s-0.1-0.2-0.2-0.3l0.3-0.2c0.1,0.1,0.2,0.2,0.2,0.4C81.8,42.6,81.8,42.8,81.8,43z M79.5,43c0,0.2,0.1,0.3,0.2,0.4
					c0.1,0.1,0.3,0.2,0.5,0.2l0,0v-1.2h-0.1c-0.2,0-0.3,0-0.5,0.1C79.6,42.7,79.5,42.8,79.5,43z"/>
				<path class="st2" d="M82.4,41.6l-0.1-0.4h-2.8l-0.1,0.4h-0.3v-0.8l0.3,0c-0.1-0.1-0.2-0.2-0.3-0.3c-0.1-0.1-0.1-0.3-0.1-0.4
					c0-0.3,0.1-0.6,0.4-0.7c0.2-0.2,0.6-0.3,1-0.3h0c0.4,0,0.7,0.1,0.9,0.3s0.3,0.4,0.3,0.7c0,0.2,0,0.3-0.1,0.4s-0.1,0.2-0.2,0.3
					h0.9l0.1-0.4h0.3v1.2H82.4z M80.5,39.5c-0.3,0-0.5,0.1-0.7,0.2c-0.2,0.1-0.3,0.3-0.3,0.5c0,0.1,0,0.2,0.1,0.3s0.1,0.2,0.2,0.2
					h1.2c0.1-0.1,0.2-0.1,0.2-0.2c0.1-0.1,0.1-0.2,0.1-0.3c0-0.2-0.1-0.4-0.2-0.5C81,39.6,80.8,39.5,80.5,39.5L80.5,39.5z"/>
				<path class="st2" d="M81.7,37c-0.1,0-0.1,0-0.2,0c-0.1,0-0.1,0-0.2,0c0.1,0.1,0.2,0.2,0.3,0.3c0.1,0.1,0.1,0.3,0.1,0.4
					c0,0.3-0.1,0.5-0.2,0.6s-0.3,0.2-0.5,0.2c-0.2,0-0.4-0.1-0.6-0.3c-0.1-0.2-0.2-0.5-0.2-0.8v-0.5H80c-0.1,0-0.3,0-0.4,0.1
					s-0.1,0.2-0.1,0.4c0,0.1,0,0.2,0,0.3s0.1,0.2,0.1,0.2l0.3,0v0.4h-0.5c-0.1-0.1-0.2-0.3-0.2-0.4c-0.1-0.2-0.1-0.3-0.1-0.5
					c0-0.3,0.1-0.5,0.2-0.7c0.1-0.2,0.4-0.3,0.6-0.3h1.2c0,0,0.1,0,0.1,0c0,0,0.1,0,0.1,0l0-0.2h0.3V37z M81.4,37.8
					c0-0.2,0-0.3-0.1-0.4c-0.1-0.1-0.2-0.2-0.3-0.3h-0.4v0.5c0,0.2,0,0.3,0.1,0.4s0.2,0.2,0.3,0.2c0.1,0,0.2,0,0.3-0.1
					S81.4,37.9,81.4,37.8z"/>
				<path class="st2" d="M79.2,33.7H80v0.4l-0.4,0v0.5h1.8l0.1-0.4h0.3v1.2h-0.3l-0.1-0.4h-1.8v0.5l0.4,0v0.4h-0.8V33.7z"/>
				<path class="st2" d="M79.5,30.9l0,0.2l2.6,1c0.2,0.1,0.3,0.2,0.4,0.3s0.2,0.3,0.2,0.5c0,0,0,0.1,0,0.1c0,0.1,0,0.1,0,0.1l-0.4,0
					c0,0,0,0,0-0.1c0-0.1,0-0.1,0-0.1c0-0.1,0-0.2-0.1-0.2c-0.1-0.1-0.2-0.1-0.3-0.2l-0.3-0.1l-2.1,0.8l0,0.2h-0.3v-1h0.3l0,0.3
					l1.2-0.4l0.3-0.1v0l-1.6-0.5l0,0.3h-0.3v-1H79.5z"/>
				<path class="st2" d="M82.4,30.6l-0.1-0.4h-2.8l-0.1,0.4h-0.3v-0.8l0.3,0c-0.1-0.1-0.2-0.2-0.3-0.3c-0.1-0.1-0.1-0.3-0.1-0.4
					c0-0.3,0.1-0.6,0.4-0.7c0.2-0.2,0.6-0.3,1-0.3h0c0.4,0,0.7,0.1,0.9,0.3s0.3,0.4,0.3,0.7c0,0.2,0,0.3-0.1,0.4s-0.1,0.2-0.2,0.3
					h0.9l0.1-0.4h0.3v1.2H82.4z M80.5,28.6c-0.3,0-0.5,0.1-0.7,0.2c-0.2,0.1-0.3,0.3-0.3,0.5c0,0.1,0,0.2,0.1,0.3s0.1,0.2,0.2,0.2
					h1.2c0.1-0.1,0.2-0.1,0.2-0.2c0.1-0.1,0.1-0.2,0.1-0.3c0-0.2-0.1-0.4-0.2-0.5C81,28.6,80.8,28.6,80.5,28.6L80.5,28.6z"/>
				<path class="st2" d="M81.5,25.2l-0.1-0.4h-1.8l-0.1,0.4h-0.3v-0.8h2.2l0.1-0.4h0.3v1.2H81.5z M79.2,26.8h0.9v-0.6
					c0-0.3,0.1-0.5,0.2-0.7c0.2-0.2,0.3-0.2,0.6-0.2c0.2,0,0.4,0.1,0.6,0.3c0.2,0.2,0.2,0.4,0.2,0.7v1.5h-0.3l-0.1-0.4h-1.8
					l-0.1,0.4h-0.3v-0.4V26.8z M79.2,26.5h0.3l0.1,0.4h-0.4V26.5z M80.5,26.8h0.9v-0.6c0-0.2,0-0.3-0.1-0.4
					c-0.1-0.1-0.2-0.1-0.3-0.1c-0.1,0-0.2,0-0.3,0.1s-0.1,0.2-0.1,0.4V26.8z"/>
			</g>
			<g>
				<path class="st2" d="M65.8,46.9c0-0.5,0.2-1,0.5-1.3s0.8-0.5,1.3-0.5h0.7c0.5,0,1,0.2,1.3,0.5c0.3,0.3,0.5,0.8,0.5,1.3v1.9h-0.5
					l-0.1-0.5h-3.1l-0.1,0.5h-0.5v-0.5V46.9z M66.5,47.5h3v-0.6c0-0.3-0.1-0.5-0.3-0.7s-0.5-0.3-0.8-0.3h-0.7
					c-0.3,0-0.6,0.1-0.8,0.3s-0.3,0.4-0.3,0.7V47.5z"/>
				<path class="st2" d="M66.4,44.7h-0.5v-1.8h0.5l0.1,0.5h1.2v-1.7h-1.2l-0.1,0.5h-0.5v-0.5v-0.9v-0.5h0.5l0.1,0.5h3.1l0.1-0.5h0.5
					v1.8h-0.5l-0.1-0.5h-1.2v1.7h1.2l0.1-0.5h0.5v1.8h-0.5l-0.1-0.5h-3.1L66.4,44.7z"/>
				<path class="st2" d="M65.8,36.2H67v0.7l-0.5,0v0.8h3l0.1-0.5h0.5V39h-0.5l-0.1-0.5h-3v0.8l0.5,0V40h-1.1V36.2z"/>
			</g>
		</g>
	</g>
	<g id="Слой_7">
		<g>
			<path class="st11" d="M60.5,21.7V11.6c0-2.2-1.8-3.9-3.9-3.9h-4.5c-0.6,0-5.9,0-6.5,0l0,0c-0.6,0-5.9,0-6.5,0l0,0
				c-0.6,0-5.9,0-6.5,0h-4.5c-2.2,0-3.9,1.8-3.9,3.9v10.1c0,0.6,0,5.9,0,6.5v0.7c0,0.6,0,5.9,0,6.5v7.8c0,0.6,0,5.9,0,6.5v0
				c0,2.2,1.8,3.9,3.9,3.9h28.3c2.2,0,3.9-1.8,3.9-3.9v0c0-0.6,0-5.9,0-6.5v-7.8c0-0.6,0-5.9,0-6.5v-0.7
				C60.5,27.5,60.5,22.3,60.5,21.7z"/>
			<path class="st12" d="M60.6,21.7V11.6c0-2.2-1.8-3.9-3.9-3.9h-4.5c-0.6,0-1.1,0.5-1.1,1.1v2c0,0.6-0.5,1.1-1.1,1.1h-2
				c-0.6,0-1.1-0.5-1.1-1.1v-2c0-0.6-0.5-1.1-1.1-1.1l0,0c-0.6,0-1.1,0.5-1.1,1.1v2c0,0.6-0.5,1.1-1.1,1.1h-2
				c-0.6,0-1.1-0.5-1.1-1.1v-2c0-0.6-0.5-1.1-1.1-1.1l0,0c-0.6,0-1.1,0.5-1.1,1.1v2c0,0.6-0.5,1.1-1.1,1.1h-2
				c-0.6,0-1.1-0.5-1.1-1.1v-2c0-0.6-0.5-1.1-1.1-1.1h-4.5c-2.2,0-3.9,1.8-3.9,3.9v10.1c0,0.6,0.5,1.1,1.1,1.1h2
				c0.6,0,1.1,0.5,1.1,1.1v2c0,0.6-0.5,1.1-1.1,1.1h-2c-0.6,0-1.1,0.5-1.1,1.1v0.7c0,0.6,0.5,1.1,1.1,1.1h2c0.6,0,1.1,0.5,1.1,1.1v2
				c0,0.6-0.5,1.1-1.1,1.1h-2c-0.6,0-1.1,0.5-1.1,1.1v7.8c0,0.6,0.5,1.1,1.1,1.1h2c0.6,0,1.1,0.5,1.1,1.1v2c0,0.6-0.5,1.1-1.1,1.1
				h-2c-0.6,0-1.1,0.5-1.1,1.1v0c0,2.2,1.8,3.9,3.9,3.9h28.3c2.2,0,3.9-1.8,3.9-3.9v0c0-0.6-0.5-1.1-1.1-1.1h-2
				c-0.6,0-1.1-0.5-1.1-1.1v-2c0-0.6,0.5-1.1,1.1-1.1h2c0.6,0,1.1-0.5,1.1-1.1v-7.8c0-0.6-0.5-1.1-1.1-1.1h-2
				c-0.6,0-1.1-0.5-1.1-1.1v-2c0-0.6,0.5-1.1,1.1-1.1h2c0.6,0,1.1-0.5,1.1-1.1v-0.7c0-0.6-0.5-1.1-1.1-1.1h-2
				c-0.6,0-1.1-0.5-1.1-1.1v-2c0-0.6,0.5-1.1,1.1-1.1h2C60.1,22.8,60.6,22.3,60.6,21.7z"/>
			<g id="XMLID_1_" class="st13">
				<g>
					<rect x="29.9" y="53.6" class="st14" width="2.4" height="1.7"/>
				</g>
			</g>
			<ellipse class="st15" cx="38.4" cy="55.5" rx="1.2" ry="1.5"/>
			<g id="XMLID_2_" class="st13">
				<g>
					<rect x="37.2" y="53.7" class="st14" width="2.4" height="1.7"/>
				</g>
			</g>
			<ellipse class="st15" cx="45.2" cy="55.5" rx="1.2" ry="1.5"/>
			<g id="XMLID_3_" class="st13">
				<g>
					<rect x="44" y="53.7" class="st14" width="2.4" height="1.7"/>
				</g>
			</g>
			<ellipse class="st15" cx="52.2" cy="55.5" rx="1.2" ry="1.5"/>
			<g id="XMLID_4_" class="st13">
				<g>
					<rect x="51" y="53.7" class="st14" width="2.4" height="1.7"/>
				</g>
			</g>
			<ellipse class="st15" cx="31.1" cy="55.4" rx="1.2" ry="1.5"/>
			<path class="st16" d="M43.3,48.4h-1.7c-0.7,0-1.3-0.6-1.3-1.3v-1.7c0-0.7,0.6-1.3,1.3-1.3h1.7c0.7,0,1.3,0.6,1.3,1.3v1.7
				C44.6,47.8,44,48.4,43.3,48.4z"/>
			<path class="st16" d="M36.9,48.4h-1.7c-0.7,0-1.3-0.6-1.3-1.3v-1.7c0-0.7,0.6-1.3,1.3-1.3h1.7c0.7,0,1.3,0.6,1.3,1.3v1.7
				C38.1,47.8,37.6,48.4,36.9,48.4z"/>
			<path class="st16" d="M49.8,48.4h-1.7c-0.7,0-1.3-0.6-1.3-1.3v-1.7c0-0.7,0.6-1.3,1.3-1.3h1.7c0.7,0,1.3,0.6,1.3,1.3v1.7
				C51.1,47.8,50.5,48.4,49.8,48.4z"/>
			<path class="st16" d="M43.3,41.3h-1.7c-0.7,0-1.3-0.6-1.3-1.3v-1.7c0-0.7,0.6-1.3,1.3-1.3h1.7c0.7,0,1.3,0.6,1.3,1.3V40
				C44.6,40.7,44,41.3,43.3,41.3z"/>
			<path class="st16" d="M36.9,41.3h-1.7c-0.7,0-1.3-0.6-1.3-1.3v-1.7c0-0.7,0.6-1.3,1.3-1.3h1.7c0.7,0,1.3,0.6,1.3,1.3V40
				C38.1,40.7,37.6,41.3,36.9,41.3z"/>
			<path class="st16" d="M49.8,41.3h-1.7c-0.7,0-1.3-0.6-1.3-1.3v-1.7c0-0.7,0.6-1.3,1.3-1.3h1.7c0.7,0,1.3,0.6,1.3,1.3V40
				C51.1,40.7,50.5,41.3,49.8,41.3z"/>
			<path class="st16" d="M43.3,34.1h-1.7c-0.7,0-1.3-0.6-1.3-1.3v-1.7c0-0.7,0.6-1.3,1.3-1.3h1.7c0.7,0,1.3,0.6,1.3,1.3v1.7
				C44.6,33.6,44,34.1,43.3,34.1z"/>
			<path class="st16" d="M36.9,34.1h-1.7c-0.7,0-1.3-0.6-1.3-1.3v-1.7c0-0.7,0.6-1.3,1.3-1.3h1.7c0.7,0,1.3,0.6,1.3,1.3v1.7
				C38.1,33.6,37.6,34.1,36.9,34.1z"/>
			<path class="st16" d="M49.8,34.1h-1.7c-0.7,0-1.3-0.6-1.3-1.3v-1.7c0-0.7,0.6-1.3,1.3-1.3h1.7c0.7,0,1.3,0.6,1.3,1.3v1.7
				C51.1,33.6,50.5,34.1,49.8,34.1z"/>
			<path class="st16" d="M43.3,27h-1.7c-0.7,0-1.3-0.6-1.3-1.3V24c0-0.7,0.6-1.3,1.3-1.3h1.7c0.7,0,1.3,0.6,1.3,1.3v1.7
				C44.6,26.4,44,27,43.3,27z"/>
			<path class="st16" d="M36.9,27h-1.7c-0.7,0-1.3-0.6-1.3-1.3V24c0-0.7,0.6-1.3,1.3-1.3h1.7c0.7,0,1.3,0.6,1.3,1.3v1.7
				C38.1,26.4,37.6,27,36.9,27z"/>
			<path class="st16" d="M49.8,27h-1.7c-0.7,0-1.3-0.6-1.3-1.3V24c0-0.7,0.6-1.3,1.3-1.3h1.7c0.7,0,1.3,0.6,1.3,1.3v1.7
				C51.1,26.4,50.5,27,49.8,27z"/>
			<path class="st16" d="M43.3,19.9h-1.7c-0.7,0-1.3-0.6-1.3-1.3v-1.7c0-0.7,0.6-1.3,1.3-1.3h1.7c0.7,0,1.3,0.6,1.3,1.3v1.7
				C44.6,19.3,44,19.9,43.3,19.9z"/>
			<path class="st16" d="M36.9,19.9h-1.7c-0.7,0-1.3-0.6-1.3-1.3v-1.7c0-0.7,0.6-1.3,1.3-1.3h1.7c0.7,0,1.3,0.6,1.3,1.3v1.7
				C38.1,19.3,37.6,19.9,36.9,19.9z"/>
			<path class="st16" d="M49.8,19.9h-1.7c-0.7,0-1.3-0.6-1.3-1.3v-1.7c0-0.7,0.6-1.3,1.3-1.3h1.7c0.7,0,1.3,0.6,1.3,1.3v1.7
				C51.1,19.3,50.5,19.9,49.8,19.9z"/>
		</g>
	</g>
</g>
<g id="Макет_TREMA_1_">
	<path class="st17" d="M30.3,73.4c0,1.2-1,2.2-2.2,2.2s-2.2-1-2.2-2.2s1-2.2,2.2-2.2S30.3,72.1,30.3,73.4z"/>
	<ellipse class="st18" cx="28.1" cy="73.4" rx="1.5" ry="1.5"/>
	<path class="st17" d="M59.1,73.4c0,1.2-1,2.2-2.2,2.2s-2.2-1-2.2-2.2s1-2.2,2.2-2.2S59.1,72.1,59.1,73.4z"/>
	<ellipse class="st18" cx="56.9" cy="73.4" rx="1.5" ry="1.5"/>
</g>
<g id="Резистор">
	<g>
		<g id="XMLID_7_">
			<g>
				<rect x="60.1" y="69.7" class="st19" width="4.3" height="3.4"/>
			</g>
			<g>
			</g>
		</g>
		<g id="XMLID_6_">
			<g>
				<rect x="60.1" y="62.6" class="st19" width="4.3" height="3.4"/>
			</g>
			<g>
			</g>
		</g>
		<g id="XMLID_5_">
			<g>
				<rect x="60.4" y="65.3" class="st20" width="3.6" height="5.2"/>
			</g>
			<g>
			</g>
		</g>
		<text transform="matrix(0 -1 1 0 62.7544 69.355)" class="st21 st22 st23">103</text>
	</g>
</g>
</svg>
