<svg id="Макет_TREMA" data-name="Макет TREMA" xmlns="http://www.w3.org/2000/svg" xmlns:xlink="http://www.w3.org/1999/xlink" viewBox="0 0 85.04 85.04"><defs><style>.cls-1{fill:#131414;}.cls-2{fill:#a19d9e;}.cls-3{fill:#e6e5e1;}.cls-15,.cls-16,.cls-4{fill:none;}.cls-4{stroke:#f6f6f7;stroke-width:0.75px;}.cls-15,.cls-16,.cls-18,.cls-4{stroke-miterlimit:10;}.cls-5{fill:#0b0c0c;}.cls-6{fill:#d0c9bd;}.cls-7{fill:#987743;}.cls-8{fill:#6fc055;}.cls-9{fill:#fa953c;}.cls-10{fill:#cdcdcd;}.cls-11{fill:#f2f3f2;}.cls-12{fill:#e8dcce;}.cls-13{fill:#ffaf47;}.cls-14{fill:#7db4e4;}.cls-15,.cls-16{stroke:#fff;}.cls-15{stroke-width:0.5px;opacity:0.37;}.cls-16{stroke-width:0.26px;}.cls-17{fill:#cec6bb;}.cls-18{fill:#010101;stroke:#010101;stroke-width:0.23px;}.cls-19{fill:#8d424a;}.cls-20{fill:#d1c9be;}.cls-21{fill:#958e85;}.cls-22{fill:url(#Безымянный_градиент_83);}.cls-23{fill:#b6b6b5;}.cls-24{fill:#36322f;}.cls-25{fill:#e7e7e7;}</style><linearGradient id="Безымянный_градиент_83" x1="8.74" y1="55.44" x2="8.74" y2="46.88" gradientUnits="userSpaceOnUse"><stop offset="0" stop-color="#2f2f30"/><stop offset="0.06" stop-color="#2f2f30"/><stop offset="0.55" stop-color="#2f2f30"/><stop offset="0.99" stop-color="#666"/></linearGradient></defs><g id="Резистор"><path class="cls-1" d="M0,0V85H85V0ZM9.92,79.51a4.4,4.4,0,1,1,4.39-4.39A4.39,4.39,0,0,1,9.92,79.51Zm0-65.2a4.39,4.39,0,1,1,4.39-4.39A4.38,4.38,0,0,1,9.92,14.31Zm65.2,65.2a4.4,4.4,0,1,1,4.39-4.39A4.4,4.4,0,0,1,75.12,79.51Zm0-65.2a4.39,4.39,0,1,1,4.39-4.39A4.39,4.39,0,0,1,75.12,14.31Z"/><path class="cls-2" d="M9.92,4a6,6,0,1,0,5.95,6A6,6,0,0,0,9.92,4Zm0,10.36a4.39,4.39,0,1,1,4.39-4.39A4.38,4.38,0,0,1,9.92,14.31Z"/><path class="cls-2" d="M9.92,69.14a6,6,0,1,0,5.95,6A6,6,0,0,0,9.92,69.14Zm0,10.37a4.4,4.4,0,1,1,4.39-4.39A4.38,4.38,0,0,1,9.92,79.51Z"/><path class="cls-3" d="M40.7,9.12a2,2,0,0,1-.69.42,3,3,0,0,1-1.16.19,2.11,2.11,0,0,1-1.62-.66,2.38,2.38,0,0,1-.63-1.72V7.19a2.55,2.55,0,0,1,.62-1.78,2,2,0,0,1,1.61-.69,3,3,0,0,1,1.05.18,2.32,2.32,0,0,1,.79.5v1H40l-.14-.66a1.21,1.21,0,0,0-.36-.18,2,2,0,0,0-.51-.07,1.18,1.18,0,0,0-1,.48,2,2,0,0,0-.36,1.23v.17a1.84,1.84,0,0,0,.36,1.19A1.22,1.22,0,0,0,39,9a1.6,1.6,0,0,0,.48-.05.87.87,0,0,0,.29-.12V8l-.71,0V7.25H40.7Z"/><path class="cls-3" d="M43.53,4.79a2,2,0,0,1,1.34.43,1.44,1.44,0,0,1,.48,1.13,1.42,1.42,0,0,1-.48,1.12,2,2,0,0,1-1.34.43h-.82V9l.52.1v.58h-2V9.08l.52-.1V5.48l-.52-.1V4.79h2.33Zm-.82,2.35h.82a.82.82,0,0,0,.63-.22.8.8,0,0,0,.21-.57.84.84,0,0,0-.21-.58.82.82,0,0,0-.63-.23h-.82Z"/><path class="cls-3" d="M49.4,6.35h-.74l-.13-.67a1.19,1.19,0,0,0-.37-.14,2.26,2.26,0,0,0-.53-.06.94.94,0,0,0-.62.17.5.5,0,0,0-.22.43.47.47,0,0,0,.23.41,3.41,3.41,0,0,0,.8.34,2.94,2.94,0,0,1,1.23.59,1.2,1.2,0,0,1,.42,1,1.16,1.16,0,0,1-.5,1,2.2,2.2,0,0,1-1.32.36,2.89,2.89,0,0,1-1-.18A2.29,2.29,0,0,1,45.81,9V8h.77l.1.69a1.25,1.25,0,0,0,.4.2,1.71,1.71,0,0,0,.57.08,1,1,0,0,0,.62-.16.54.54,0,0,0,.21-.44.56.56,0,0,0-.2-.45,2.09,2.09,0,0,0-.7-.32A4.05,4.05,0,0,1,46.25,7a1.12,1.12,0,0,1-.45-.94,1.15,1.15,0,0,1,.51-1,2.15,2.15,0,0,1,1.27-.39,2.82,2.82,0,0,1,1,.18,2.33,2.33,0,0,1,.79.45Z"/><path class="cls-4" d="M25.47,78.93h-.23l0-16.31v-.06h.09l35,0h.06l0,16V79h-.15Z"/><path class="cls-3" d="M38,69a1.6,1.6,0,0,1-.73.56,3.15,3.15,0,0,1-1.11.18,2.14,2.14,0,0,1-1.13-.29,2.06,2.06,0,0,1-.76-.84A3,3,0,0,1,34,67.29v-.45a2.69,2.69,0,0,1,.55-1.8,1.92,1.92,0,0,1,1.54-.65,2,2,0,0,1,1.32.42A1.75,1.75,0,0,1,38,66h-.68a1.13,1.13,0,0,0-1.23-1,1.23,1.23,0,0,0-1.05.48,2.43,2.43,0,0,0-.36,1.39v.42a2.27,2.27,0,0,0,.4,1.39,1.32,1.32,0,0,0,1.09.51,2.26,2.26,0,0,0,.67-.09,1,1,0,0,0,.48-.28V67.61h-1.2v-.56H38Z"/><path class="cls-3" d="M42.85,68.72l1.49-4.26h.75l-1.93,5.16h-.61l-1.93-5.16h.75Z"/><line class="cls-4" x1="46.14" y1="62.62" x2="46.14" y2="78.95"/><line class="cls-4" x1="53.32" y1="62.62" x2="53.32" y2="78.95"/><line class="cls-4" x1="38.9" y1="62.6" x2="38.9" y2="78.93"/><line class="cls-4" x1="31.94" y1="62.6" x2="31.94" y2="78.93"/><path class="cls-3" d="M27.54,67.65v.89H30v.37H27.54v.88h-.3V67.65Z"/><path class="cls-3" d="M28.29,66.34l-1.05-.66v-.43l1.36.87L30,65.23v.43l-1.07.68L30,67v.44l-1.39-.9-1.36.88V67Z"/><path class="cls-3" d="M57.62,68.55v.65h1.11v.37H56v-.92a1.05,1.05,0,0,1,.22-.72.74.74,0,0,1,.61-.25.77.77,0,0,1,.45.14.82.82,0,0,1,.28.39l1.17-.65h0V68Zm-.3.65v-.56a.59.59,0,0,0-.14-.43.46.46,0,0,0-.37-.16.5.5,0,0,0-.39.15.64.64,0,0,0-.14.44v.56Z"/><path class="cls-3" d="M57,66.27,56,65.6v-.43l1.36.88,1.39-.9v.44l-1.07.68,1.07.68v.43l-1.39-.9L56,67.36v-.43Z"/><path class="cls-3" d="M50.58,70h1.07v.36H48.91v-1a1,1,0,0,1,.23-.71.79.79,0,0,1,.61-.26.76.76,0,0,1,.61.26,1,1,0,0,1,.22.72Zm-.3,0v-.66a.69.69,0,0,0-.13-.45.52.52,0,0,0-.4-.15.53.53,0,0,0-.39.15.61.61,0,0,0-.15.43V70Z"/><path class="cls-3" d="M50.58,67.58h1.07V68H48.91v-1a1.07,1.07,0,0,1,.23-.72.78.78,0,0,1,.61-.25.75.75,0,0,1,.61.25,1.05,1.05,0,0,1,.22.72Zm-.3,0v-.65a.65.65,0,0,0-.13-.45.49.49,0,0,0-.4-.16.5.5,0,0,0-.39.16.58.58,0,0,0-.15.43v.67Z"/><path class="cls-3" d="M50.43,64.68a1.72,1.72,0,0,1-.33.68.63.63,0,0,1-.48.21.66.66,0,0,1-.54-.26,1,1,0,0,1-.21-.68,1.12,1.12,0,0,1,.11-.5.78.78,0,0,1,.72-.47V64a.53.53,0,0,0-.39.16.69.69,0,0,0-.14.45.66.66,0,0,0,.12.42.38.38,0,0,0,.61,0,1.44,1.44,0,0,0,.21-.49,2.43,2.43,0,0,1,.21-.54,1,1,0,0,1,.27-.29.75.75,0,0,1,.37-.09.64.64,0,0,1,.53.26,1.16,1.16,0,0,1,.2.7,1.24,1.24,0,0,1-.11.54.94.94,0,0,1-.29.38.73.73,0,0,1-.43.13v-.37a.47.47,0,0,0,.39-.18.76.76,0,0,0,.15-.5.7.7,0,0,0-.12-.44A.39.39,0,0,0,51,64a.35.35,0,0,0-.31.14A1.45,1.45,0,0,0,50.43,64.68Z"/><rect class="cls-3" x="57.93" y="66.68" width="13.46" height="4.71" transform="translate(133.69 4.37) rotate(90)"/><path class="cls-5" d="M66,64.31h-.26L65.71,64H64a.67.67,0,0,0-.52.2.72.72,0,0,0-.18.51.81.81,0,0,0,.18.55.64.64,0,0,0,.52.21h1.72l.06-.34H66v1.09h-.26l-.06-.34H64a.91.91,0,0,1-.75-.32,1.29,1.29,0,0,1-.27-.85,1.2,1.2,0,0,1,.27-.81.91.91,0,0,1,.75-.31h1.72l.06-.34H66v1.09Z"/><path class="cls-5" d="M63.28,66.43l0,.22L66,67.71v.36l-2.72,1,0,.22H63v-.87h.26l0,.23.55-.2V67.27l-.55-.2,0,.23H63v-.87Zm.93,1v1l1.3-.48h0Z"/><path class="cls-5" d="M66,70.93a1.15,1.15,0,0,1-.22.76.74.74,0,0,1-.62.26.67.67,0,0,1-.39-.12.79.79,0,0,1-.26-.35.72.72,0,0,1-.27.36.88.88,0,0,1-.45.11h-.24a.49.49,0,0,0-.2,0,.14.14,0,0,0-.08.12v.1H63V72a.36.36,0,0,1,.16-.34.75.75,0,0,1,.4-.11h.24a.51.51,0,0,0,.39-.14.51.51,0,0,0,.15-.39v-.66h-1l-.06.34H63V69.59h.26l.06.34h2.37l.06-.34H66v1.34Zm-1.35-.59v.54a.84.84,0,0,0,.13.51.5.5,0,0,0,.39.15.48.48,0,0,0,.37-.15.62.62,0,0,0,.14-.46v-.59Z"/><path class="cls-5" d="M66,74.94h-.66v-.35l.34,0v-.67H63.34l-.06.34H63v-1.1h.26l.06.34h2.37V72.8l-.34,0v-.35H66Z"/><g id="конденсатор"><rect class="cls-6" x="15.84" y="53.13" width="4.26" height="2.44"/><rect class="cls-6" x="15.8" y="47" width="4.26" height="2.44"/><rect class="cls-7" x="16.15" y="48.67" width="3.61" height="5.16"/></g><g id="конденсатор-2" data-name="конденсатор"><rect class="cls-6" x="6.95" y="62.48" width="4.26" height="2.44"/><rect class="cls-6" x="6.91" y="56.36" width="4.26" height="2.44"/><rect class="cls-7" x="7.26" y="58.03" width="3.61" height="5.16"/></g><g id="конденсатор-3" data-name="конденсатор"><rect class="cls-6" x="62.57" y="40.08" width="4.26" height="2.44"/><rect class="cls-6" x="62.53" y="33.95" width="4.26" height="2.44"/><rect class="cls-7" x="62.88" y="35.62" width="3.61" height="5.16"/></g><g id="конденсатор-4" data-name="конденсатор"><rect class="cls-6" x="62.57" y="49.41" width="4.26" height="2.44"/><rect class="cls-6" x="62.53" y="43.28" width="4.26" height="2.44"/><rect class="cls-7" x="62.88" y="44.95" width="3.61" height="5.16"/></g><rect class="cls-8" x="29.16" y="18.74" width="27.81" height="29.48"/><rect class="cls-6" x="28.06" y="40.56" width="2.22" height="4.55" transform="translate(-13.67 72) rotate(-90)"/><path class="cls-9" d="M29.37,43.81l.22-.27a1.14,1.14,0,0,0,0-1.42l-.22-.27h1.94v2Z"/><path d="M31.19,42v1.72H29.63l.06-.07a1.26,1.26,0,0,0,0-1.58L29.63,42h1.56m.25-.25H29.11l.38.48a1,1,0,0,1,0,1.26l-.38.48h2.33V41.72Z"/><rect class="cls-6" x="28.06" y="43.62" width="2.22" height="4.55" transform="translate(-16.73 75.06) rotate(-90)"/><path class="cls-9" d="M29.37,46.88l.22-.27a1.16,1.16,0,0,0,0-1.43l-.22-.27h1.94v2Z"/><path d="M31.19,45v1.71H29.63l.06-.06a1.26,1.26,0,0,0,0-1.58L29.63,45h1.56m.25-.25H29.11l.38.47a1,1,0,0,1,0,1.27l-.38.47h2.33V44.79Z"/><rect class="cls-6" x="28.06" y="37.4" width="2.22" height="4.55" transform="translate(-10.51 68.84) rotate(-90)"/><path class="cls-9" d="M29.37,40.66l.22-.28a1.14,1.14,0,0,0,0-1.42l-.22-.27h1.94v2Z"/><path d="M31.19,38.81v1.72H29.63l.06-.07a1.26,1.26,0,0,0,0-1.58l-.06-.07h1.56m.25-.25H29.11l.38.48a1,1,0,0,1,0,1.26l-.38.48h2.33V38.56Z"/><rect class="cls-6" x="28.06" y="34.24" width="2.22" height="4.55" transform="translate(-7.35 65.68) rotate(-90)"/><path class="cls-9" d="M29.37,37.5l.22-.27a1.14,1.14,0,0,0,0-1.42l-.22-.27h1.94v2Z"/><path d="M31.19,35.66v1.72H29.63l.06-.07a1.26,1.26,0,0,0,0-1.58l-.06-.07h1.56m.25-.25H29.11l.38.48a1,1,0,0,1,0,1.26l-.38.48h2.33V35.41Z"/><rect class="cls-6" x="28.06" y="31.06" width="2.22" height="4.55" transform="translate(-4.17 62.5) rotate(-90)"/><path class="cls-9" d="M29.37,34.32l.22-.27a1.14,1.14,0,0,0,0-1.42l-.22-.27h1.94v2Z"/><path d="M31.19,32.48V34.2H29.63l.06-.07a1.26,1.26,0,0,0,0-1.58l-.06-.07h1.56m.25-.25H29.11l.38.48a1,1,0,0,1,0,1.26l-.38.48h2.33V32.23Z"/><rect class="cls-6" x="28.06" y="27.92" width="2.22" height="4.55" transform="translate(-1.03 59.36) rotate(-90)"/><path class="cls-9" d="M29.37,31.18l.22-.27a1.14,1.14,0,0,0,0-1.42l-.22-.27h1.94v2Z"/><path d="M31.19,29.34v1.72H29.63l.06-.07a1.26,1.26,0,0,0,0-1.58l-.06-.07h1.56m.25-.25H29.11l.38.48a1,1,0,0,1,0,1.26l-.38.48h2.33V29.09Z"/><rect class="cls-6" x="28.06" y="24.77" width="2.22" height="4.55" transform="translate(2.12 56.21) rotate(-90)"/><path class="cls-9" d="M29.37,28l.22-.27a1.16,1.16,0,0,0,0-1.43l-.22-.27h1.94v2Z"/><path d="M31.19,26.19V27.9H29.63l.06-.07a1.26,1.26,0,0,0,0-1.58l-.06-.06h1.56m.25-.25H29.11l.38.47a1,1,0,0,1,0,1.27l-.38.47h2.33V25.94Z"/><rect class="cls-6" x="28.06" y="21.63" width="2.22" height="4.55" transform="translate(5.26 53.07) rotate(-90)"/><path class="cls-9" d="M29.37,24.89l.22-.27a1.16,1.16,0,0,0,0-1.43l-.22-.27h1.94v2Z"/><path d="M31.19,23.05v1.71H29.63l.06-.06a1.28,1.28,0,0,0,0-1.59l-.06-.06h1.56m.25-.25H29.11l.38.47a1,1,0,0,1,0,1.27l-.38.47h2.33V22.8Z"/><rect class="cls-6" x="28.06" y="18.47" width="2.22" height="4.55" transform="translate(8.41 49.91) rotate(-90)"/><path class="cls-9" d="M29.37,21.73l.22-.27a1.14,1.14,0,0,0,0-1.42l-.22-.27h1.94v2Z"/><path d="M31.19,19.89v1.72H29.63l.06-.07a1.26,1.26,0,0,0,0-1.58l-.06-.07h1.56m.25-.25H29.11l.38.48a1,1,0,0,1,0,1.26l-.38.48h2.33V19.64Z"/><rect class="cls-6" x="55.81" y="40.56" width="2.22" height="4.55" transform="translate(14.09 99.75) rotate(-90)"/><path class="cls-9" d="M54.77,43.81v-2h1.95l-.22.27a1.12,1.12,0,0,0,0,1.42l.22.27Z"/><path d="M56.45,42,56.4,42a1.26,1.26,0,0,0,0,1.58l.05.07H54.89V42h1.56m.53-.25H54.64v2.22H57l-.39-.48a1,1,0,0,1,0-1.26l.39-.48Z"/><rect class="cls-6" x="55.81" y="43.62" width="2.22" height="4.55" transform="translate(11.02 102.81) rotate(-90)"/><path class="cls-9" d="M54.77,46.88v-2h1.95l-.22.27a1.13,1.13,0,0,0,0,1.43l.21.27Z"/><path d="M56.45,45l-.05.07a1.26,1.26,0,0,0,0,1.58l.05.06H54.89V45h1.56m.53-.25H54.64V47H57l-.39-.47a1,1,0,0,1,0-1.27l.39-.47Z"/><rect class="cls-6" x="55.81" y="37.4" width="2.22" height="4.55" transform="translate(17.25 96.59) rotate(-90)"/><path class="cls-9" d="M54.77,40.66v-2h1.95L56.5,39a1.12,1.12,0,0,0,0,1.42l.22.28Z"/><path d="M56.45,38.81l-.05.07a1.26,1.26,0,0,0,0,1.58l.05.07H54.89V38.81h1.56m.53-.25H54.64v2.22H57l-.39-.48a1,1,0,0,1,0-1.26l.39-.48Z"/><rect class="cls-6" x="55.81" y="34.24" width="2.22" height="4.55" transform="translate(20.4 93.44) rotate(-90)"/><path class="cls-9" d="M54.77,37.5v-2h1.95l-.22.27a1.12,1.12,0,0,0,0,1.42l.22.27Z"/><path d="M56.45,35.66l-.05.07a1.26,1.26,0,0,0,0,1.58l.05.07H54.89V35.66h1.56m.53-.25H54.64v2.22H57l-.39-.48a1,1,0,0,1,0-1.26l.39-.48Z"/><rect class="cls-6" x="55.81" y="31.06" width="2.22" height="4.55" transform="translate(23.58 90.26) rotate(-90)"/><path class="cls-9" d="M54.77,34.32v-2h1.95l-.22.27a1.12,1.12,0,0,0,0,1.42l.22.27Z"/><path d="M56.45,32.48l-.05.07a1.26,1.26,0,0,0,0,1.58l.05.07H54.89V32.48h1.56m.53-.25H54.64v2.22H57L56.59,34a1,1,0,0,1,0-1.26l.39-.48Z"/><rect class="cls-6" x="55.81" y="27.92" width="2.22" height="4.55" transform="translate(26.72 87.12) rotate(-90)"/><path class="cls-9" d="M54.77,31.18v-2h1.95l-.22.27a1.12,1.12,0,0,0,0,1.42l.22.27Z"/><path d="M56.45,29.34l-.05.07a1.26,1.26,0,0,0,0,1.58l.05.07H54.89V29.34h1.56m.53-.25H54.64v2.22H57l-.39-.48a1,1,0,0,1,0-1.26l.39-.48Z"/><rect class="cls-6" x="55.81" y="24.77" width="2.22" height="4.55" transform="translate(29.87 83.96) rotate(-90)"/><path class="cls-9" d="M54.77,28v-2h1.95l-.22.27a1.13,1.13,0,0,0,0,1.43l.22.27Z"/><path d="M56.45,26.19l-.05.06a1.26,1.26,0,0,0,0,1.58l.05.07H54.89V26.19h1.56m.53-.25H54.64v2.21H57l-.39-.47a1,1,0,0,1,0-1.27l.39-.47Z"/><rect class="cls-6" x="55.81" y="21.63" width="2.22" height="4.55" transform="translate(33.01 80.82) rotate(-90)"/><path class="cls-9" d="M54.77,24.89v-2h1.95l-.22.27a1.13,1.13,0,0,0,0,1.43l.22.27Z"/><path d="M56.45,23.05l-.05.06a1.28,1.28,0,0,0,0,1.59l.05.06H54.89V23.05h1.56M57,22.8H54.64V25H57l-.39-.47a1,1,0,0,1,0-1.27L57,22.8Z"/><rect class="cls-6" x="55.81" y="18.47" width="2.22" height="4.55" transform="translate(36.17 77.67) rotate(-90)"/><path class="cls-9" d="M54.77,21.73v-2h1.95L56.5,20a1.12,1.12,0,0,0,0,1.42l.22.27Z"/><path d="M56.45,19.89,56.4,20a1.26,1.26,0,0,0,0,1.58l.05.07H54.89V19.89h1.56m.53-.25H54.64v2.22H57l-.39-.48a1,1,0,0,1,0-1.26l.39-.48Z"/><rect class="cls-10" x="30.13" y="18.74" width="25.82" height="29.48"/><rect class="cls-11" x="31.58" y="19.64" width="23.2" height="27.62" rx="1.43"/><rect class="cls-6" x="26.89" y="50.48" width="4.55" height="8.96"/><rect class="cls-6" x="54.94" y="50.48" width="4.55" height="8.96"/><rect class="cls-12" x="28.72" y="50.59" width="28.72" height="8.74"/><rect class="cls-6" x="7.08" y="29.06" width="4.26" height="2.13"/><rect class="cls-6" x="7.08" y="34.88" width="4.26" height="2.12"/><path class="cls-13" d="M9.21,30.36a.71.71,0,0,1-.69-.43,11.72,11.72,0,0,0-1.44-.06v1.47h4.26V29.87a11.56,11.56,0,0,0-1.43.06.73.73,0,0,1-.7.43"/><path class="cls-13" d="M9.21,30.07a.68.68,0,0,1-.69-.42,10.06,10.06,0,0,0-1.44-.07v1.48h4.26V29.58a9.92,9.92,0,0,0-1.43.07.71.71,0,0,1-.7.42"/><path class="cls-13" d="M9.21,35.65a.69.69,0,0,0-.69.43,11.72,11.72,0,0,1-1.44.06V34.66h4.26v1.48a11.56,11.56,0,0,1-1.43-.06.71.71,0,0,0-.7-.43"/><rect class="cls-14" x="7.55" y="30.87" width="3.32" height="4.26" transform="translate(42.21 23.79) rotate(90)"/><rect class="cls-15" x="7.55" y="30.87" width="3.32" height="4.26" transform="translate(42.21 23.79) rotate(90)"/><g id="диод"><line class="cls-16" x1="19.47" y1="44.19" x2="19.47" y2="40.4"/><rect class="cls-17" x="7.28" y="40.98" width="2.24" height="2.62" transform="translate(-33.9 50.69) rotate(-90)"/><rect class="cls-17" x="16.85" y="41.09" width="2.24" height="2.4" transform="translate(-24.32 60.26) rotate(-90)"/><rect class="cls-18" x="11.35" y="38.76" width="3.79" height="7.07" transform="translate(-29.05 55.53) rotate(-90)"/></g><path class="cls-3" d="M5.23,36.56H6.31v.36H3.56v-1a1,1,0,0,1,.23-.71.79.79,0,0,1,.61-.26.78.78,0,0,1,.62.26,1.07,1.07,0,0,1,.21.72Zm-.29,0V35.9a.64.64,0,0,0-.14-.44.48.48,0,0,0-.4-.16.5.5,0,0,0-.39.16.57.57,0,0,0-.15.42v.68Z"/><path class="cls-3" d="M5.23,33.91H6.31v.36H3.56v-1a1,1,0,0,1,.23-.71.79.79,0,0,1,.61-.26.78.78,0,0,1,.62.26,1.07,1.07,0,0,1,.21.72Zm-.29,0v-.66a.64.64,0,0,0-.14-.44.48.48,0,0,0-.4-.16.5.5,0,0,0-.39.16.57.57,0,0,0-.15.42v.68Z"/><path class="cls-3" d="M5.08,30.81a1.72,1.72,0,0,1-.33.68.64.64,0,0,1-.48.22.65.65,0,0,1-.53-.27,1,1,0,0,1-.22-.68,1.18,1.18,0,0,1,.11-.5.88.88,0,0,1,.31-.35.73.73,0,0,1,.41-.12v.37a.53.53,0,0,0-.39.15.81.81,0,0,0,0,.88.4.4,0,0,0,.33.15.35.35,0,0,0,.28-.15,1.21,1.21,0,0,0,.21-.48A2.76,2.76,0,0,1,5,30.17a.85.85,0,0,1,.27-.29.66.66,0,0,1,.37-.1.64.64,0,0,1,.53.26,1.11,1.11,0,0,1,.2.71,1.2,1.2,0,0,1-.11.53.94.94,0,0,1-.29.38.73.73,0,0,1-.43.13v-.36a.47.47,0,0,0,.39-.19.75.75,0,0,0,.15-.49.73.73,0,0,0-.12-.45.41.41,0,0,0-.63,0A1.77,1.77,0,0,0,5.08,30.81Z"/><path class="cls-19" d="M53.61,52.31A.75.75,0,0,1,54,52a1.45,1.45,0,0,1,.54-.09,1.13,1.13,0,0,1,.56.14,1,1,0,0,1,.38.42,1.63,1.63,0,0,1,.14.64v.22a1.29,1.29,0,0,1-.28.9.92.92,0,0,1-.76.32,1,1,0,0,1-.65-.2,1,1,0,0,1-.3-.59H54a.57.57,0,0,0,.61.51.61.61,0,0,0,.52-.24,1.21,1.21,0,0,0,.17-.69v-.21a1.11,1.11,0,0,0-.19-.69.66.66,0,0,0-.54-.26,1,1,0,0,0-.33,0,.42.42,0,0,0-.24.14V53h.6v.27h-.94Z"/><path class="cls-19" d="M52.71,53V52h.34v2.58H52.1a1,1,0,0,1-.67-.22.81.81,0,0,1,0-1.15,1,1,0,0,1,.67-.2Zm0,.28H52.1a.59.59,0,0,0-.42.13.45.45,0,0,0-.15.37.5.5,0,0,0,.15.37.57.57,0,0,0,.4.14h.63Z"/><path class="cls-19" d="M50,53.12a1.66,1.66,0,0,1,.64.31.59.59,0,0,1,.2.45.6.6,0,0,1-.25.5.92.92,0,0,1-.63.2,1,1,0,0,1-.47-.1.73.73,0,0,1-.32-.28.7.7,0,0,1-.12-.4h.34a.47.47,0,0,0,.15.37.6.6,0,0,0,.42.13.57.57,0,0,0,.39-.11.34.34,0,0,0,.14-.3.32.32,0,0,0-.13-.27,1.37,1.37,0,0,0-.45-.2,2.16,2.16,0,0,1-.51-.2.82.82,0,0,1-.27-.25.74.74,0,0,1-.08-.34.59.59,0,0,1,.24-.5,1,1,0,0,1,.65-.19,1.18,1.18,0,0,1,.5.1.82.82,0,0,1,.35.28.62.62,0,0,1,.13.4h-.34a.43.43,0,0,0-.18-.37.7.7,0,0,0-.46-.14.69.69,0,0,0-.41.11.39.39,0,0,0-.14.3.35.35,0,0,0,.13.3A2,2,0,0,0,50,53.12Z"/><path class="cls-19" d="M47.62,52H48v2.18l.66-.24v.3l-.94.35h-.05Z"/><path class="cls-19" d="M45.05,53.07a1.49,1.49,0,0,1,.19-.85.83.83,0,0,1,1.23,0,1.39,1.39,0,0,1,.2.82v.43a1.51,1.51,0,0,1-.19.85.85.85,0,0,1-1.23,0,1.43,1.43,0,0,1-.2-.83Zm.33.45a1.16,1.16,0,0,0,.11.6.46.46,0,0,0,.74,0,1.33,1.33,0,0,0,.12-.58V53a1.15,1.15,0,0,0-.13-.62.4.4,0,0,0-.36-.2.41.41,0,0,0-.36.19,1.13,1.13,0,0,0-.12.59Z"/><path class="cls-19" d="M43,53.07a1.48,1.48,0,0,1,.2-.85.81.81,0,0,1,1.22,0,1.39,1.39,0,0,1,.21.82v.43a1.5,1.5,0,0,1-.2.85.7.7,0,0,1-.61.27.72.72,0,0,1-.61-.26,1.42,1.42,0,0,1-.21-.83Zm.33.45a1.15,1.15,0,0,0,.12.6.4.4,0,0,0,.37.19.37.37,0,0,0,.36-.19,1.09,1.09,0,0,0,.12-.58V53a1.26,1.26,0,0,0-.12-.62.4.4,0,0,0-.37-.2.41.41,0,0,0-.36.19,1.24,1.24,0,0,0-.12.59Z"/><path class="cls-19" d="M42.12,53.42h-.25a.52.52,0,0,0-.36.12.41.41,0,0,0-.13.32.4.4,0,0,0,.45.45.49.49,0,0,0,.34-.12.44.44,0,0,0,.12-.32h.33a.67.67,0,0,1-.22.51.84.84,0,0,1-.57.2.77.77,0,0,1-.57-.19.7.7,0,0,1-.21-.54.56.56,0,0,1,.11-.32.6.6,0,0,1,.3-.24.57.57,0,0,1-.33-.22.6.6,0,0,1-.12-.38.72.72,0,0,1,.23-.55.81.81,0,0,1,.59-.2.89.89,0,0,1,.59.19.66.66,0,0,1,.22.52h-.33a.41.41,0,0,0-.13-.32.48.48,0,0,0-.35-.13.54.54,0,0,0-.37.13.48.48,0,0,0-.12.35.45.45,0,0,0,.13.35.62.62,0,0,0,.4.12h.25Z"/><circle class="cls-19" cx="56.48" cy="57.05" r="0.67"/><path class="cls-20" d="M30.33,74.92a2.24,2.24,0,1,1-2.24-2.22A2.23,2.23,0,0,1,30.33,74.92Z"/><path class="cls-3" d="M35.78,80.06a1.3,1.3,0,0,1,.85.25.81.81,0,0,1,.3.67.69.69,0,0,1-.12.41,1,1,0,0,1-.38.29.63.63,0,0,1,.4.27.79.79,0,0,1,.13.47v.16a.25.25,0,0,0,0,.16.17.17,0,0,0,.13.07h.08v.38h-.33a.51.51,0,0,1-.43-.17.65.65,0,0,1-.13-.43v-.18a.48.48,0,0,0-.12-.35.45.45,0,0,0-.35-.14h-.52v.83l.34.06v.38H34.36v-.38l.34-.06V80.51l-.34-.07v-.38h1.42Zm-.45,1.39h.44a.58.58,0,0,0,.4-.12A.38.38,0,0,0,36.3,81a.45.45,0,0,0-.13-.34.57.57,0,0,0-.39-.12h-.45Z"/><path class="cls-3" d="M38.69,80.06v.38l-.34.07v1.63a.63.63,0,0,0,.17.47.69.69,0,0,0,.46.15.68.68,0,0,0,.47-.15.61.61,0,0,0,.17-.47V80.51l-.34-.07v-.38h1.31v.38l-.33.07v1.63a1,1,0,0,1-.35.82,1.45,1.45,0,0,1-.93.28,1.39,1.39,0,0,1-.91-.28,1,1,0,0,1-.35-.82V80.51l-.34-.07v-.38h1.31Z"/><path class="cls-3" d="M43.18,81.06h-.47l-.08-.43-.24-.09a1.86,1.86,0,0,0-.34,0,.64.64,0,0,0-.4.11.33.33,0,0,0-.15.28.32.32,0,0,0,.15.27,2.16,2.16,0,0,0,.52.21,2.08,2.08,0,0,1,.79.38.8.8,0,0,1,.27.63.75.75,0,0,1-.32.63,1.4,1.4,0,0,1-.85.23,2.06,2.06,0,0,1-.68-.11,1.37,1.37,0,0,1-.5-.33v-.66h.49l.07.45a.9.9,0,0,0,.26.13,1.3,1.3,0,0,0,.36,0,.64.64,0,0,0,.4-.11.33.33,0,0,0,.13-.28.35.35,0,0,0-.13-.29,1.35,1.35,0,0,0-.45-.21,2.61,2.61,0,0,1-.85-.38.77.77,0,0,1,0-1.23A1.33,1.33,0,0,1,42,80a2,2,0,0,1,.66.11,1.43,1.43,0,0,1,.5.29Z"/><path class="cls-3" d="M45.88,81.06h-.47l-.09-.43a1,1,0,0,0-.24-.09,1.66,1.66,0,0,0-.33,0,.69.69,0,0,0-.41.11.35.35,0,0,0-.14.28.32.32,0,0,0,.15.27,2.23,2.23,0,0,0,.51.21,2.06,2.06,0,0,1,.8.38.8.8,0,0,1,.27.63.75.75,0,0,1-.32.63,1.4,1.4,0,0,1-.85.23,2.06,2.06,0,0,1-.68-.11,1.37,1.37,0,0,1-.5-.33v-.66h.49l.06.45a1,1,0,0,0,.26.13,1.44,1.44,0,0,0,.37,0,.66.66,0,0,0,.4-.11.33.33,0,0,0,.13-.28.35.35,0,0,0-.13-.29,1.35,1.35,0,0,0-.45-.21,2.51,2.51,0,0,1-.85-.38.74.74,0,0,1-.29-.61.75.75,0,0,1,.32-.62,1.35,1.35,0,0,1,.82-.25,2,2,0,0,1,.67.11,1.43,1.43,0,0,1,.5.29Z"/><path class="cls-3" d="M46.18,80.44v-.38h1.31v.38l-.34.07v2.25l.34.06v.38H46.18v-.38l.33-.06V80.51Z"/><path class="cls-3" d="M47.69,82.82l.23,0,1-2.73h.65l1,2.73.22,0v.38H49.64v-.38l.22,0-.14-.43h-1l-.14.43.22,0v.38H47.69Zm1.15-.93h.73l-.36-1.11h0Z"/><ellipse class="cls-21" cx="28.09" cy="74.92" rx="1.53" ry="1.52"/><path class="cls-20" d="M37.56,74.92a2.24,2.24,0,1,1-2.24-2.22A2.23,2.23,0,0,1,37.56,74.92Z"/><ellipse class="cls-21" cx="35.32" cy="74.92" rx="1.53" ry="1.52"/><path class="cls-20" d="M44.76,74.92a2.24,2.24,0,1,1-2.24-2.22A2.23,2.23,0,0,1,44.76,74.92Z"/><ellipse class="cls-21" cx="42.52" cy="74.92" rx="1.53" ry="1.52"/><path class="cls-20" d="M51.35,73.29a2.28,2.28,0,0,1-2.18,3.78,2.19,2.19,0,0,1-1.6-1.59A2.28,2.28,0,0,1,51.35,73.29Z"/><ellipse class="cls-21" cx="49.72" cy="74.92" rx="1.53" ry="1.52"/><path class="cls-20" d="M58.55,73.29a2.28,2.28,0,0,1-2.18,3.78,2.19,2.19,0,0,1-1.6-1.59A2.28,2.28,0,0,1,58.55,73.29Z"/><ellipse class="cls-21" cx="56.92" cy="74.92" rx="1.53" ry="1.52"/><rect class="cls-22" x="6.91" y="46.88" width="3.66" height="8.56"/><rect class="cls-2" x="3.86" y="50.48" width="2.95" height="1.61"/><rect class="cls-2" x="10.57" y="47.68" width="3.51" height="1.68"/><rect class="cls-2" x="10.57" y="53.16" width="3.51" height="1.68"/><path class="cls-23" d="M9.08,52.11a.47.47,0,0,1,.37.15.54.54,0,0,1,.13.39,1,1,0,0,1,0,.16c0,.06,0,.12,0,.16H9.32a1.3,1.3,0,0,0,0-.13.34.34,0,0,0,0-.15.9.9,0,0,0,0-.18.39.39,0,0,0-.08-.1l-.12,0H7.93v.39H7.74v-.63Z"/><path class="cls-23" d="M8.68,50.6a.45.45,0,0,1,.13-.1.56.56,0,0,1,.2,0,.56.56,0,0,1,.23,0,.46.46,0,0,1,.18.13.54.54,0,0,1,.13.22.77.77,0,0,1,0,.27,1.53,1.53,0,0,1,0,.3l-.08.24H9.22a1,1,0,0,0,.11-.25.68.68,0,0,0,.05-.27.51.51,0,0,0,0-.17.31.31,0,0,0-.07-.14.28.28,0,0,0-.12-.08.38.38,0,0,0-.16,0,.43.43,0,0,0-.17,0,.28.28,0,0,0-.1.09.39.39,0,0,0-.05.13.91.91,0,0,0,0,.17v.11h-.2v-.08a.51.51,0,0,0-.08-.3.26.26,0,0,0-.23-.12.2.2,0,0,0-.11,0,.34.34,0,0,0-.09.08.42.42,0,0,0,0,.12.53.53,0,0,0,0,.13.77.77,0,0,0,0,.25,1.15,1.15,0,0,0,.12.25H7.81a1.49,1.49,0,0,1-.08-.23,1.41,1.41,0,0,1,0-.28,1.66,1.66,0,0,1,0-.24.64.64,0,0,1,.08-.19.57.57,0,0,1,.14-.13.42.42,0,0,1,.2,0,.36.36,0,0,1,.26.11.45.45,0,0,1,.14.26h0a1,1,0,0,1,0-.14A.57.57,0,0,1,8.68,50.6Z"/><path class="cls-23" d="M7.74,48.73l1,.65h.79v.24H8.78l-1,.65V50l.81-.5L7.74,49Z"/><rect class="cls-6" x="15.84" y="20.17" width="4.26" height="1.96"/><rect class="cls-6" x="15.88" y="25.82" width="4.26" height="1.96"/><rect class="cls-24" x="16.18" y="21.43" width="3.61" height="5.16"/><path class="cls-23" d="M17.43,23.07v-.7h.14v.27h.86v-.27h.12v.12a.46.46,0,0,0,0,.09.2.2,0,0,0,.06.07l.09,0v.14H17.57v.26Z"/><path class="cls-23" d="M18.08,24.09a1,1,0,0,1-.51-.11.37.37,0,0,1-.16-.34.39.39,0,0,1,.16-.34,1,1,0,0,1,.51-.1.84.84,0,0,1,.5.11.37.37,0,0,1,.17.33.37.37,0,0,1-.17.34A1,1,0,0,1,18.08,24.09Zm-.39-.23a.38.38,0,0,0,.16,0h.46a.38.38,0,0,0,.16,0,.27.27,0,0,0,.1-.08.29.29,0,0,0,0-.14.25.25,0,0,0,0-.13s-.06-.06-.1-.09a.61.61,0,0,0-.17,0h-.45l-.16,0a.21.21,0,0,0-.1.08.23.23,0,0,0,0,.14.29.29,0,0,0,0,.14A.31.31,0,0,0,17.69,23.86Z"/><path class="cls-23" d="M18.08,25a1,1,0,0,1-.51-.11.44.44,0,0,1,0-.68,1,1,0,0,1,.51-.1.94.94,0,0,1,.5.1.4.4,0,0,1,.17.34.37.37,0,0,1-.17.34A1,1,0,0,1,18.08,25Zm-.39-.23.16,0h.46l.16,0a.27.27,0,0,0,.1-.08.29.29,0,0,0,0-.14.25.25,0,0,0,0-.13.22.22,0,0,0-.1-.09.61.61,0,0,0-.17,0h-.45l-.16,0a.21.21,0,0,0-.1.08.21.21,0,0,0,0,.14.29.29,0,0,0,0,.14A.31.31,0,0,0,17.69,24.81Z"/><path class="cls-23" d="M17.43,25.91v-.69h.14v.26h.86v-.26h.12v.11a.41.41,0,0,0,0,.1s0,.05.06.06.05,0,.09,0v.13H17.57v.26Z"/><rect class="cls-6" x="62.48" y="25.58" width="4.26" height="1.96"/><rect class="cls-6" x="62.52" y="31.24" width="4.26" height="1.96"/><rect class="cls-24" x="62.82" y="26.84" width="3.61" height="5.16"/><path class="cls-23" d="M64.08,28.48v-.69h.13v.27h.86v-.27h.12a.45.45,0,0,0,0,.11.22.22,0,0,0,0,.1l.06.06a.12.12,0,0,0,.09,0v.13H64.21v.26Z"/><path class="cls-23" d="M64.72,29.5a1,1,0,0,1-.51-.1.39.39,0,0,1-.16-.34.37.37,0,0,1,.16-.34,1,1,0,0,1,.51-.11.9.9,0,0,1,.5.11.43.43,0,0,1,0,.68A1,1,0,0,1,64.72,29.5Zm-.39-.22.16,0H65l.16,0a.18.18,0,0,0,.1-.09.25.25,0,0,0,0-.13.29.29,0,0,0,0-.14.21.21,0,0,0-.1-.08.61.61,0,0,0-.17,0h-.45l-.16,0a.27.27,0,0,0-.1.08.21.21,0,0,0,0,.14.25.25,0,0,0,0,.13A.24.24,0,0,0,64.33,29.28Z"/><path class="cls-23" d="M64.72,30.45a.88.88,0,0,1-.51-.11.36.36,0,0,1-.16-.33.37.37,0,0,1,.16-.34,1,1,0,0,1,.51-.11.9.9,0,0,1,.5.11.37.37,0,0,1,.17.34.4.4,0,0,1-.17.34A1,1,0,0,1,64.72,30.45Zm-.39-.22.16,0H65a.38.38,0,0,0,.16-.05.16.16,0,0,0,.1-.08.25.25,0,0,0,0-.13.29.29,0,0,0,0-.14.21.21,0,0,0-.1-.08.61.61,0,0,0-.17,0h-.45a.42.42,0,0,0-.16,0,.2.2,0,0,0-.1.08.2.2,0,0,0,0,.14.25.25,0,0,0,0,.13A.24.24,0,0,0,64.33,30.23Z"/><path class="cls-23" d="M64.08,31.33v-.7h.13v.27h.86v-.27h.12a.49.49,0,0,0,0,.12.2.2,0,0,0,0,.09l.06.07.09,0v.14H64.21v.26Z"/><rect class="cls-6" x="7.1" y="20.17" width="4.26" height="1.96"/><rect class="cls-6" x="7.14" y="25.82" width="4.26" height="1.96"/><rect class="cls-24" x="7.44" y="21.43" width="3.61" height="5.16"/><path class="cls-23" d="M8.7,23.07v-.7h.13v.27H9.7v-.27h.11s0,.08,0,.12a.46.46,0,0,0,0,.09.18.18,0,0,0,.05.07l.09,0v.14H8.83v.26Z"/><path class="cls-23" d="M9.35,24.09A.92.92,0,0,1,8.84,24a.37.37,0,0,1-.17-.34.4.4,0,0,1,.17-.34,1,1,0,0,1,.5-.1.88.88,0,0,1,.51.11.36.36,0,0,1,.16.33.37.37,0,0,1-.16.34A1,1,0,0,1,9.35,24.09ZM9,23.86a.43.43,0,0,0,.17,0h.45a.43.43,0,0,0,.17,0,.27.27,0,0,0,.1-.08.29.29,0,0,0,0-.14.25.25,0,0,0,0-.13s-.06-.06-.1-.09l-.17,0H9.12a.62.62,0,0,0-.16,0,.31.31,0,0,0-.11.08.32.32,0,0,0,0,.14.29.29,0,0,0,0,.14A.27.27,0,0,0,9,23.86Z"/><path class="cls-23" d="M9.35,25a.92.92,0,0,1-.51-.11.42.42,0,0,1,0-.68,1,1,0,0,1,.5-.1,1,1,0,0,1,.51.1.39.39,0,0,1,.16.34.37.37,0,0,1-.16.34A1,1,0,0,1,9.35,25ZM9,24.81l.17,0h.45l.17,0a.27.27,0,0,0,.1-.08.29.29,0,0,0,0-.14.25.25,0,0,0,0-.13.22.22,0,0,0-.1-.09l-.17,0H9.12l-.16,0a.31.31,0,0,0-.11.08.34.34,0,0,0,0,.28A.27.27,0,0,0,9,24.81Z"/><path class="cls-23" d="M8.7,25.91v-.69h.13v.26H9.7v-.26h.11s0,.07,0,.11a.41.41,0,0,0,0,.1.15.15,0,0,0,.05.06.32.32,0,0,0,.09,0v.13H8.83v.26Z"/><rect class="cls-6" x="15.82" y="29.39" width="4.26" height="1.96"/><rect class="cls-6" x="15.86" y="35.05" width="4.26" height="1.96"/><rect class="cls-24" x="16.15" y="30.65" width="3.61" height="5.16"/><path class="cls-23" d="M17.41,32.29v-.7h.13v.27h.87v-.27h.11s0,.08,0,.12l0,.1.05.06.09,0V32H17.54v.26Z"/><path class="cls-23" d="M18.06,33.31a1,1,0,0,1-.51-.11.36.36,0,0,1-.16-.33.37.37,0,0,1,.16-.34,1,1,0,0,1,.5-.11,1,1,0,0,1,.51.11.37.37,0,0,1,.17.34.37.37,0,0,1-.17.33A.86.86,0,0,1,18.06,33.31Zm-.4-.23a.47.47,0,0,0,.17,0l.23,0,.22,0a.43.43,0,0,0,.17,0,.2.2,0,0,0,.1-.08.25.25,0,0,0,0-.13.29.29,0,0,0,0-.14.27.27,0,0,0-.1-.08.43.43,0,0,0-.17,0h-.45a.38.38,0,0,0-.16,0,.23.23,0,0,0-.11.08.26.26,0,0,0,0,.14.28.28,0,0,0,0,.13A.2.2,0,0,0,17.66,33.08Z"/><path class="cls-23" d="M18.06,34.26a1,1,0,0,1-.51-.11.37.37,0,0,1-.16-.34.36.36,0,0,1,.16-.33.86.86,0,0,1,.5-.11.88.88,0,0,1,.51.11.37.37,0,0,1,.17.33.37.37,0,0,1-.17.34A1,1,0,0,1,18.06,34.26Zm-.4-.23a.47.47,0,0,0,.17,0h.45a.43.43,0,0,0,.17,0,.27.27,0,0,0,.1-.08.29.29,0,0,0,0-.14.25.25,0,0,0,0-.13.2.2,0,0,0-.1-.08.43.43,0,0,0-.17,0l-.23,0h-.22l-.16,0a.24.24,0,0,0-.11.09.25.25,0,0,0,0,.13.29.29,0,0,0,0,.14A.27.27,0,0,0,17.66,34Z"/><path class="cls-23" d="M17.41,35.14v-.7h.13v.27h.87v-.27h.11s0,.07,0,.12a.46.46,0,0,0,0,.09.1.1,0,0,0,.05.06l.09,0v.13H17.54v.27Z"/><rect class="cls-6" x="15.82" y="56.8" width="4.26" height="1.96"/><rect class="cls-6" x="15.86" y="62.45" width="4.26" height="1.96"/><rect class="cls-24" x="16.15" y="58.06" width="3.61" height="5.16"/><path class="cls-23" d="M17.41,59.7V59h.13v.27h.87V59h.11s0,.08,0,.12a.46.46,0,0,0,0,.09.18.18,0,0,0,.05.07l.09,0v.14H17.54v.26Z"/><path class="cls-23" d="M18.06,60.72a1,1,0,0,1-.51-.11.37.37,0,0,1-.16-.34.39.39,0,0,1,.16-.34,1,1,0,0,1,.5-.1.88.88,0,0,1,.51.11.37.37,0,0,1,.17.33.37.37,0,0,1-.17.34A1,1,0,0,1,18.06,60.72Zm-.4-.23a.47.47,0,0,0,.17,0h.45a.43.43,0,0,0,.17,0,.27.27,0,0,0,.1-.08.29.29,0,0,0,0-.14.25.25,0,0,0,0-.13s-.06-.06-.1-.09l-.17,0h-.45l-.16,0a.31.31,0,0,0-.11.08.34.34,0,0,0,0,.28A.27.27,0,0,0,17.66,60.49Z"/><path class="cls-23" d="M18.06,61.67a1,1,0,0,1-.51-.11.44.44,0,0,1,0-.68,1,1,0,0,1,.5-.1,1,1,0,0,1,.51.1.4.4,0,0,1,.17.34.37.37,0,0,1-.17.34A1,1,0,0,1,18.06,61.67Zm-.4-.23.17,0h.45l.17,0a.27.27,0,0,0,.1-.08.29.29,0,0,0,0-.14.25.25,0,0,0,0-.13.22.22,0,0,0-.1-.09l-.17,0h-.45a.62.62,0,0,0-.16,0,.31.31,0,0,0-.11.08.34.34,0,0,0,0,.28A.27.27,0,0,0,17.66,61.44Z"/><path class="cls-23" d="M17.41,62.54v-.69h.13v.27h.87v-.27h.11s0,.07,0,.11a.62.62,0,0,0,0,.1.15.15,0,0,0,.05.06.32.32,0,0,0,.09,0v.13H17.54v.26Z"/><path class="cls-2" d="M75.12,4a6,6,0,1,0,5.95,6A6,6,0,0,0,75.12,4Zm0,10.36a4.39,4.39,0,1,1,4.39-4.39A4.39,4.39,0,0,1,75.12,14.31Z"/><path class="cls-2" d="M75.12,69.14a6,6,0,1,0,5.95,6A6,6,0,0,0,75.12,69.14Zm0,10.37a4.4,4.4,0,1,1,4.39-4.39A4.39,4.39,0,0,1,75.12,79.51Z"/><rect class="cls-6" x="76.43" y="36.57" width="1.48" height="5.21" transform="translate(116.34 -37.99) rotate(90)"/><rect class="cls-6" x="76.43" y="43.73" width="1.48" height="5.21" transform="translate(123.5 -30.84) rotate(90)"/><rect class="cls-25" x="73.63" y="39.26" width="7.08" height="7.08"/><rect class="cls-6" x="72.67" y="40.96" width="0.95" height="3.61"/><rect class="cls-6" x="80.71" y="40.96" width="0.95" height="3.61"/><circle class="cls-13" cx="77.17" cy="42.8" r="2.87"/><circle class="cls-25" cx="77.17" cy="42.8" r="2.46"/><circle class="cls-13" cx="77.17" cy="42.8" r="0.71"/><path class="cls-3" d="M75,35.24H73.84l-.26.71H73.2l1.06-2.74h.32L75.64,36h-.38Zm-1-.3h.94l-.47-1.28Z"/><path class="cls-3" d="M78.33,36H78l-1.4-2.11V36h-.36V33.21h.36L78,35.33V33.21h.36Z"/><path class="cls-3" d="M81.09,33.51H80.2V36h-.37V33.51H79v-.3h2.14Z"/></g></svg>