<svg id="Макет_TREMA" data-name="Макет TREMA" xmlns="http://www.w3.org/2000/svg" viewBox="0 0 85.04 85.04"><defs><style>.cls-1{fill:#131414;}.cls-2{fill:#a19d9e;}.cls-16,.cls-3,.cls-5,.cls-8{fill:none;}.cls-3{stroke:#f6f6f7;}.cls-10,.cls-14,.cls-15,.cls-16,.cls-3,.cls-5,.cls-8,.cls-9{stroke-miterlimit:10;}.cls-10,.cls-3,.cls-5{stroke-width:0.75px;}.cls-4{fill:#e6e5e1;}.cls-5{stroke:#cdcdcd;}.cls-6{fill:#d0c9bd;}.cls-7{fill:#7c4f35;}.cls-8{stroke:#633d2b;}.cls-8,.cls-9{stroke-width:0.25px;}.cls-9{fill:#818181;stroke:#4c4c4c;}.cls-10{fill:#fa953c;stroke:#fa953c;}.cls-11{fill:#cdcdcd;}.cls-12{fill:#fff;}.cls-13{fill:#010101;}.cls-14{fill:#f29348;stroke:#656565;stroke-width:0.02px;}.cls-15{fill:#f6ad4f;stroke:#b4b3b3;stroke-width:0.03px;}.cls-16{stroke:#828281;stroke-width:0.01px;}.cls-17{fill:#e3e3e3;}</style></defs><g id="Креп._отверстия" data-name="Креп. отверстия"><path class="cls-1" d="M0,0V85H85V0ZM9.92,79.51a4.4,4.4,0,1,1,4.39-4.39A4.39,4.39,0,0,1,9.92,79.51Zm0-65.2a4.39,4.39,0,1,1,4.39-4.39A4.38,4.38,0,0,1,9.92,14.31Zm65.2,65.2a4.4,4.4,0,1,1,4.39-4.39A4.4,4.4,0,0,1,75.12,79.51Zm0-65.2a4.39,4.39,0,1,1,4.39-4.39A4.39,4.39,0,0,1,75.12,14.31Z"/></g><g id="Резистор"><path class="cls-2" d="M9.92,4a6,6,0,1,0,5.95,6A6,6,0,0,0,9.92,4Zm0,10.36a4.39,4.39,0,1,1,4.39-4.39A4.38,4.38,0,0,1,9.92,14.31Z"/><path class="cls-2" d="M75.12,4a6,6,0,1,0,5.95,6A6,6,0,0,0,75.12,4Zm0,10.36a4.39,4.39,0,1,1,4.39-4.39A4.39,4.39,0,0,1,75.12,14.31Z"/><path class="cls-2" d="M9.92,69.14a6,6,0,1,0,5.95,6A6,6,0,0,0,9.92,69.14Zm0,10.37a4.4,4.4,0,1,1,4.39-4.39A4.38,4.38,0,0,1,9.92,79.51Z"/><path class="cls-2" d="M75.12,69.14a6,6,0,1,0,5.95,6A6,6,0,0,0,75.12,69.14Zm0,10.37a4.4,4.4,0,1,1,4.39-4.39A4.39,4.39,0,0,1,75.12,79.51Z"/><path class="cls-3" d="M25.47,78.93h-.23l0-16.31v-.06h.09l35,0h.06l0,16V79h-.15Z"/><path class="cls-4" d="M51.94,69a1.6,1.6,0,0,1-.73.56,3.15,3.15,0,0,1-1.11.18A2.14,2.14,0,0,1,49,69.4a2,2,0,0,1-.76-.84,3,3,0,0,1-.28-1.27v-.45a2.69,2.69,0,0,1,.55-1.8A1.92,1.92,0,0,1,50,64.39a2,2,0,0,1,1.32.42,1.75,1.75,0,0,1,.6,1.17h-.68A1.13,1.13,0,0,0,50,65a1.23,1.23,0,0,0-1.05.48,2.43,2.43,0,0,0-.36,1.39v.42a2.27,2.27,0,0,0,.4,1.39,1.32,1.32,0,0,0,1.09.51,2.26,2.26,0,0,0,.67-.09,1.05,1.05,0,0,0,.48-.28V67.61h-1.2v-.56h1.88Z"/><path class="cls-4" d="M42.85,68.72l1.49-4.26h.75l-1.93,5.16h-.61l-1.93-5.16h.75Z"/><line class="cls-3" x1="46.14" y1="62.62" x2="46.14" y2="78.95"/><line class="cls-3" x1="53.32" y1="62.62" x2="53.32" y2="78.95"/><line class="cls-3" x1="38.9" y1="62.6" x2="38.9" y2="78.93"/><line class="cls-3" x1="31.94" y1="62.6" x2="31.94" y2="78.93"/><path class="cls-4" d="M28.88,68.55v.65H30v.37H27.24v-.92a1.05,1.05,0,0,1,.22-.72.74.74,0,0,1,.61-.25.77.77,0,0,1,.45.14.82.82,0,0,1,.28.39L30,67.56h0V68Zm-.3.65v-.56a.59.59,0,0,0-.14-.43.46.46,0,0,0-.37-.16.5.5,0,0,0-.39.15.64.64,0,0,0-.14.44v.56Z"/><path class="cls-4" d="M28.29,66.27l-1.05-.67v-.43l1.36.88,1.39-.9v.44l-1.07.68L30,67v.43l-1.39-.9-1.36.88v-.43Z"/><path class="cls-4" d="M56.28,67.65v.89h2.45v.37H56.28v.88H56V67.65Z"/><path class="cls-4" d="M57,66.34,56,65.68v-.43l1.36.87,1.39-.89v.43l-1.07.68,1.07.68v.44l-1.39-.9L56,67.44V67Z"/><path class="cls-4" d="M35.78,70.82h1.07v.37H34.11v-1a1,1,0,0,1,.23-.71A.74.74,0,0,1,35,69.2a.75.75,0,0,1,.61.25,1.05,1.05,0,0,1,.22.72Zm-.3,0v-.65a.61.61,0,0,0-.14-.45.47.47,0,0,0-.39-.16.5.5,0,0,0-.39.16.62.62,0,0,0-.16.43v.67Z"/><path class="cls-4" d="M35.78,68.37h1.07v.36H34.11v-1a1,1,0,0,1,.23-.71.77.77,0,0,1,.61-.26.78.78,0,0,1,.61.25,1.05,1.05,0,0,1,.22.72Zm-.3,0v-.66a.64.64,0,0,0-.14-.45.5.5,0,0,0-.39-.15.53.53,0,0,0-.39.15.66.66,0,0,0-.16.43v.68Z"/><path class="cls-4" d="M35.63,65.46a1.72,1.72,0,0,1-.33.68.61.61,0,0,1-.48.22.67.67,0,0,1-.54-.26,1.06,1.06,0,0,1-.21-.68,1.19,1.19,0,0,1,.11-.51.78.78,0,0,1,.72-.47v.37a.48.48,0,0,0-.39.16.61.61,0,0,0-.14.45.72.72,0,0,0,.11.42.4.4,0,0,0,.33.15.38.38,0,0,0,.29-.14,1.81,1.81,0,0,0,.21-.49,2,2,0,0,1,.21-.54.85.85,0,0,1,.27-.29.69.69,0,0,1,.36-.1.64.64,0,0,1,.54.27,1.14,1.14,0,0,1,.2.7,1.32,1.32,0,0,1-.11.53.83.83,0,0,1-.3.38.68.68,0,0,1-.42.14v-.37a.47.47,0,0,0,.39-.19.75.75,0,0,0,.14-.49.77.77,0,0,0-.11-.44.38.38,0,0,0-.32-.16.37.37,0,0,0-.31.14A1.53,1.53,0,0,0,35.63,65.46Z"/><line class="cls-5" x1="42.53" y1="30.25" x2="42.53" y2="23.92"/><rect class="cls-6" x="39.27" y="56.11" width="6.48" height="4.07"/><rect class="cls-6" x="38.96" y="10.17" width="6.71" height="4.98"/><path class="cls-7" d="M24.21,17.13V19.8H22.67V14.17H61.3v3H24.21Z"/><path class="cls-7" d="M41.72,52.57c.49,0,1,0,1.48,0A16.83,16.83,0,0,0,53,23.06V19.8h6.71V17.13H61.3V21l-2.49,2.5a20.81,20.81,0,0,1-15,32.94,21.1,21.1,0,0,1-2.51.07,20.8,20.8,0,0,1-16.18-33S22.67,21,22.67,21V19.8h8.26v3.26A16.83,16.83,0,0,0,41.72,52.57Z"/><path class="cls-8" d="M22.67,19.8V21s2.45,2.47,2.49,2.5a20.8,20.8,0,0,0,16.18,33,21.1,21.1,0,0,0,2.51-.07,20.81,20.81,0,0,0,15-32.94L61.3,21V14.17H22.67Z"/><path class="cls-8" d="M30.93,19.8v3.26A16.83,16.83,0,0,0,41.72,52.57c.49,0,1,0,1.48,0A16.83,16.83,0,0,0,53,23.06V19.8h6.71V17.13H24.21V19.8Z"/><circle class="cls-9" cx="41.98" cy="35.77" r="15.92"/><path class="cls-10" d="M25.11,18.18c3.11,0,6.53.43,9.61.75,8,.83,15.51-.26,23.36-.75-4.2.5-9.62,1.86-16.1,1.87C35.23,20.07,29.42,18.7,25.11,18.18Z"/><path class="cls-11" d="M32.38,35.55h1.47v.33H32v-3.1h.41Z"/><path class="cls-11" d="M34.25,33a.21.21,0,0,1,.24-.22.24.24,0,0,1,.17.06.25.25,0,0,1,.06.16.25.25,0,0,1-.06.17.24.24,0,0,1-.17.06.24.24,0,0,1-.18-.06A.25.25,0,0,1,34.25,33Zm.43,2.92h-.39v-2.3h.39Z"/><path class="cls-11" d="M35.85,33v.56h.43v.3h-.43v1.43a.36.36,0,0,0,0,.21.24.24,0,0,0,.2.07l.19,0v.31a1.17,1.17,0,0,1-.3,0,.51.51,0,0,1-.4-.16.7.7,0,0,1-.14-.46V33.88H35v-.3h.42V33Z"/><path class="cls-11" d="M36.74,33a.25.25,0,0,1,.06-.16.24.24,0,0,1,.17-.06.21.21,0,0,1,.24.22.25.25,0,0,1-.06.17.24.24,0,0,1-.18.06.24.24,0,0,1-.17-.06A.25.25,0,0,1,36.74,33Zm.43,2.92h-.4v-2.3h.4Z"/><path class="cls-11" d="M39.22,35.65a.81.81,0,0,1-.67.28.74.74,0,0,1-.57-.22,1,1,0,0,1-.19-.63v-1.5h.39v1.49c0,.35.15.52.43.52a.58.58,0,0,0,.6-.34V33.58h.39v2.3h-.37Z"/><path class="cls-11" d="M40.57,33.58v.25a.86.86,0,0,1,.69-.3.68.68,0,0,1,.66.37.7.7,0,0,1,.3-.26.86.86,0,0,1,.43-.11c.51,0,.77.27.77.81v1.54H43V34.36a.56.56,0,0,0-.11-.37.51.51,0,0,0-.38-.12.5.5,0,0,0-.53.48v1.53h-.4V34.37a.44.44,0,0,0-.49-.5.52.52,0,0,0-.53.33v1.68h-.4v-2.3Z"/><path class="cls-11" d="M46,35.6a.56.56,0,0,0,.36-.12.46.46,0,0,0,.18-.32H47a.75.75,0,0,1-.13.37,1,1,0,0,1-.34.29,1,1,0,0,1-.44.11.94.94,0,0,1-.75-.32,1.24,1.24,0,0,1-.28-.86v-.06a1.4,1.4,0,0,1,.12-.6.9.9,0,0,1,.36-.41,1,1,0,0,1,.54-.15.92.92,0,0,1,.65.24.81.81,0,0,1,.27.6h-.37a.53.53,0,0,0-.55-.51.55.55,0,0,0-.46.21,1,1,0,0,0-.17.63v.07a1,1,0,0,0,.17.62A.55.55,0,0,0,46,35.6Z"/><path class="cls-11" d="M48.35,35.93a1,1,0,0,1-.76-.31,1.14,1.14,0,0,1-.3-.83v-.07a1.48,1.48,0,0,1,.13-.61,1,1,0,0,1,.37-.42.88.88,0,0,1,.51-.16.87.87,0,0,1,.7.3,1.27,1.27,0,0,1,.25.85v.16H47.69a.77.77,0,0,0,.2.55.61.61,0,0,0,.48.21.68.68,0,0,0,.36-.08.9.9,0,0,0,.25-.23l.24.19A1,1,0,0,1,48.35,35.93Zm-.05-2.07a.54.54,0,0,0-.4.17.88.88,0,0,0-.2.49h1.16v0a.8.8,0,0,0-.17-.47A.47.47,0,0,0,48.3,33.86Z"/><path class="cls-11" d="M50.13,35.88h-.39V32.61h.39Z"/><path class="cls-11" d="M51.19,35.88H50.8V32.61h.39Z"/><path class="cls-11" d="M36.9,41a1.13,1.13,0,0,1-.37.76,1.17,1.17,0,0,1-.81.27,1.1,1.1,0,0,1-.88-.4,1.57,1.57,0,0,1-.33-1.05v-.3a1.81,1.81,0,0,1,.15-.76A1.22,1.22,0,0,1,35.1,39a1.3,1.3,0,0,1,.66-.17,1.13,1.13,0,0,1,.79.27,1.16,1.16,0,0,1,.35.77h-.41a.91.91,0,0,0-.24-.54.68.68,0,0,0-.49-.17.75.75,0,0,0-.62.29,1.34,1.34,0,0,0-.22.83v.3a1.36,1.36,0,0,0,.21.8.68.68,0,0,0,.59.3.79.79,0,0,0,.52-.15.86.86,0,0,0,.25-.54Z"/><path class="cls-11" d="M38.59,40.73h-.72V42h-.42v-3.1h1a1.22,1.22,0,0,1,.81.24.85.85,0,0,1,.28.69.82.82,0,0,1-.16.51.94.94,0,0,1-.43.32L39.71,42v0h-.44Zm-.72-.34h.62a.69.69,0,0,0,.49-.16.52.52,0,0,0,.18-.42.57.57,0,0,0-.17-.44.81.81,0,0,0-.5-.16h-.62Z"/><path class="cls-11" d="M41.34,42h-.4V39.35l-.79.3v-.36l1.13-.43h.06Z"/><path class="cls-11" d="M44.53,42h-2V41.7l1.08-1.19a3.29,3.29,0,0,0,.33-.44.76.76,0,0,0,.09-.35.54.54,0,0,0-.15-.4.5.5,0,0,0-.39-.16.62.62,0,0,0-.46.17.63.63,0,0,0-.16.46h-.4a.9.9,0,0,1,.28-.69,1,1,0,0,1,.74-.26,1,1,0,0,1,.68.22.79.79,0,0,1,.25.61,1.77,1.77,0,0,1-.58,1.09l-.83.9h1.56Z"/><path class="cls-11" d="M47,42h-2V41.7L46,40.51a2.59,2.59,0,0,0,.33-.44.76.76,0,0,0,.09-.35.54.54,0,0,0-.15-.4.5.5,0,0,0-.39-.16.62.62,0,0,0-.46.17.63.63,0,0,0-.16.46h-.4a.94.94,0,0,1,.28-.69,1,1,0,0,1,.74-.26,1,1,0,0,1,.68.22.79.79,0,0,1,.25.61,1.77,1.77,0,0,1-.58,1.09l-.83.9H47Z"/><path class="cls-11" d="M49.34,40.66a1.8,1.8,0,0,1-.24,1,1,1,0,0,1-1.47,0,1.75,1.75,0,0,1-.25-1v-.52a1.74,1.74,0,0,1,.24-1,1,1,0,0,1,1.48,0,1.71,1.71,0,0,1,.24,1ZM49,40.12a1.49,1.49,0,0,0-.14-.73.51.51,0,0,0-.45-.23.48.48,0,0,0-.44.23,1.39,1.39,0,0,0-.14.7v.63a1.54,1.54,0,0,0,.14.74.49.49,0,0,0,.44.24.48.48,0,0,0,.44-.22,1.53,1.53,0,0,0,.15-.71Z"/><path class="cls-11" d="M39.79,46.3h.3a.69.69,0,0,0,.44-.15.52.52,0,0,0,.16-.39.48.48,0,0,0-.55-.54.6.6,0,0,0-.41.14.53.53,0,0,0-.15.39h-.39a.78.78,0,0,1,.27-.61,1,1,0,0,1,.68-.25,1,1,0,0,1,.69.24.81.81,0,0,1,.25.64.63.63,0,0,1-.13.39.79.79,0,0,1-.36.29.76.76,0,0,1,.4.27.73.73,0,0,1,.14.45.85.85,0,0,1-.28.67,1,1,0,0,1-.71.24,1.1,1.1,0,0,1-.71-.23.8.8,0,0,1-.27-.63h.4a.48.48,0,0,0,.16.39.57.57,0,0,0,.42.15.6.6,0,0,0,.44-.15.58.58,0,0,0,.15-.43.5.5,0,0,0-.16-.41.71.71,0,0,0-.48-.15h-.3Z"/><path class="cls-11" d="M42.8,47.5l.88-2.56h.45L43,48h-.36l-1.15-3.1h.44Z"/><line class="cls-5" x1="39.34" y1="27.08" x2="45.67" y2="27.08"/><line class="cls-5" x1="42.53" y1="23.97" x2="42.53" y2="30.3"/><polygon class="cls-12" points="33.37 78.66 32.09 77.38 32.09 72.85 33.37 71.58 37.9 71.58 39.17 72.85 39.17 77.39 37.9 78.66 33.37 78.66"/><path class="cls-13" d="M37.9,71.58l.16.17,1.11,1.1v4.53L37.9,78.65H33.37L32.73,78l-.63-.64V72.85l.46-.46.81-.81H37.9m0,0H33.37l-1.28,1.28v4.54l1.28,1.27H37.9l1.28-1.27V72.85L37.9,71.57Z"/><rect class="cls-14" x="34.75" y="74.21" width="1.77" height="1.81"/><rect class="cls-15" x="35.15" y="74.62" width="0.97" height="0.99"/><line class="cls-16" x1="34.75" y1="74.21" x2="35.15" y2="74.62"/><line class="cls-16" x1="36.12" y1="74.62" x2="36.52" y2="74.21"/><line class="cls-16" x1="36.12" y1="75.61" x2="36.52" y2="76.03"/><line class="cls-16" x1="35.15" y1="75.61" x2="34.75" y2="76.03"/><polygon class="cls-12" points="26.19 78.66 24.92 77.38 24.92 72.85 26.2 71.58 30.73 71.58 32 72.85 32 77.39 30.73 78.66 26.19 78.66"/><path class="cls-13" d="M30.72,71.58l.64.64.63.63v4.53l-.63.64-.64.63H26.2l-1.27-1.27V72.85l1.1-1.1.17-.17h4.52m0,0H26.19l-1.27,1.28v4.54l1.27,1.27h4.54L32,77.39V72.85l-1.27-1.28Z"/><rect class="cls-14" x="27.58" y="74.21" width="1.77" height="1.81"/><rect class="cls-15" x="27.98" y="74.62" width="0.97" height="0.99"/><line class="cls-16" x1="27.58" y1="74.21" x2="27.98" y2="74.62"/><line class="cls-16" x1="28.94" y1="74.62" x2="29.35" y2="74.21"/><line class="cls-16" x1="28.94" y1="75.61" x2="29.35" y2="76.02"/><line class="cls-16" x1="27.98" y1="75.61" x2="27.58" y2="76.02"/><polygon class="cls-12" points="47.71 78.66 46.44 77.38 46.44 72.85 47.71 71.58 52.24 71.58 53.5 72.84 53.52 77.39 52.24 78.66 47.71 78.66"/><path class="cls-13" d="M52.24,71.58l.16.17,1.11,1.1v4.53l-1.27,1.27H47.71L47.08,78l-.64-.64V72.85l.46-.46.81-.81h4.53m0,0H47.71l-1.28,1.28v4.54l1.28,1.27h4.53l1.28-1.27V72.85l-1.28-1.28Z"/><rect class="cls-14" x="49.09" y="74.21" width="1.77" height="1.81"/><rect class="cls-15" x="49.49" y="74.62" width="0.97" height="0.99"/><line class="cls-16" x1="49.09" y1="74.21" x2="49.49" y2="74.62"/><line class="cls-16" x1="50.46" y1="74.62" x2="50.86" y2="74.21"/><line class="cls-16" x1="50.46" y1="75.61" x2="50.86" y2="76.03"/><line class="cls-16" x1="49.49" y1="75.61" x2="49.09" y2="76.03"/><polygon class="cls-12" points="40.54 78.66 39.27 77.38 39.27 72.85 40.54 71.58 45.07 71.58 46.34 72.85 46.34 77.39 45.07 78.66 40.54 78.66"/><path class="cls-13" d="M45.07,71.58l.63.64.64.63v4.53L45.7,78l-.63.63H40.54l-1.27-1.27V72.85l1.11-1.1.16-.17h4.53m0,0H40.54l-1.28,1.28v4.54l1.28,1.27h4.53l1.28-1.27V72.85l-1.28-1.28Z"/><rect class="cls-14" x="41.92" y="74.21" width="1.77" height="1.81"/><rect class="cls-15" x="42.32" y="74.62" width="0.97" height="0.99"/><line class="cls-16" x1="41.92" y1="74.21" x2="42.32" y2="74.62"/><line class="cls-16" x1="43.29" y1="74.62" x2="43.69" y2="74.21"/><line class="cls-16" x1="43.29" y1="75.61" x2="43.69" y2="76.02"/><line class="cls-16" x1="42.32" y1="75.61" x2="41.92" y2="76.02"/><polygon class="cls-12" points="54.88 78.66 53.61 77.38 53.61 72.85 54.88 71.58 59.41 71.58 60.69 72.85 60.69 77.39 59.41 78.66 54.88 78.66"/><path class="cls-13" d="M59.41,71.59l.81.8.46.46v4.53l-1.27,1.27H54.88l-1.27-1.27V72.85l1.11-1.1.16-.16h4.53m0,0H54.88L53.6,72.85v4.54l1.28,1.27h4.54l1.27-1.27V72.85l-1.27-1.27Z"/><rect class="cls-14" x="56.26" y="74.21" width="1.77" height="1.81"/><rect class="cls-15" x="56.66" y="74.62" width="0.97" height="0.99"/><line class="cls-16" x1="56.26" y1="74.21" x2="56.66" y2="74.62"/><line class="cls-16" x1="57.63" y1="74.62" x2="58.03" y2="74.21"/><line class="cls-16" x1="57.63" y1="75.61" x2="58.03" y2="76.03"/><line class="cls-16" x1="56.66" y1="75.61" x2="56.26" y2="76.03"/><rect class="cls-4" x="-9.44" y="40.32" width="31.63" height="4.81" transform="translate(-36.35 49.1) rotate(-90)"/><path d="M4.83,55.21h.84v.49l-.35,0v.58H7.53L7.59,56H8v1.32H7.59l-.06-.34H5.32v.58l.35,0V58H4.83Z"/><path d="M7.59,54.94l-.06-.3H6.08L6,55H5.64V54L6,54a.71.71,0,0,1-.28-.22.44.44,0,0,1-.11-.3s0-.07,0-.1,0-.07,0-.1l.57.07v.26a.52.52,0,0,0,0,.23.4.4,0,0,0,.15.14H7.53l.06-.3H8v1.24Z"/><path d="M8,52a1,1,0,0,1-.32.81,1.12,1.12,0,0,1-.82.31H6.78a1.27,1.27,0,0,1-.85-.29,1,1,0,0,1-.34-.77,1,1,0,0,1,.29-.74A1.08,1.08,0,0,1,6.65,51H7v1.41H7a.59.59,0,0,0,.38-.15.49.49,0,0,0,.15-.38,1.2,1.2,0,0,0,0-.35,1.82,1.82,0,0,0-.13-.3l.39-.17a1.58,1.58,0,0,1,.19.37A1.72,1.72,0,0,1,8,52Zm-1.93.06a.31.31,0,0,0,.13.27.64.64,0,0,0,.35.13h0v-.77H6.52a.53.53,0,0,0-.32.09A.34.34,0,0,0,6.08,52.05Z"/><path d="M6,50.82H5.64v-.93l.31,0a.72.72,0,0,1-.26-.29.81.81,0,0,1,0-.78.6.6,0,0,1,.3-.24.86.86,0,0,1-.29-.28.81.81,0,0,1-.11-.41.66.66,0,0,1,.24-.55,1.08,1.08,0,0,1,.73-.2h1l.06-.31H8V48H7.59l-.06-.28h-1a.57.57,0,0,0-.37.09.32.32,0,0,0-.11.26.41.41,0,0,0,.06.23.44.44,0,0,0,.17.16H7.53l.06-.25H8v1.14H7.59l-.06-.25h-1a.58.58,0,0,0-.37.08.33.33,0,0,0-.11.26.56.56,0,0,0,0,.23.43.43,0,0,0,.14.16H7.53l.06-.28H8v1.22H7.59l-.06-.31H6.08Z"/><path d="M8,45.11l-.12,0-.12,0a.79.79,0,0,1,.2.27.75.75,0,0,1,.08.37.81.81,0,0,1-.18.55.66.66,0,0,1-.51.2.57.57,0,0,1-.51-.26,1.5,1.5,0,0,1-.17-.78v-.32H6.41a.34.34,0,0,0-.26.09.39.39,0,0,0-.1.29.6.6,0,0,0,0,.2.81.81,0,0,0,.06.13l.25,0v.48H5.87a2.13,2.13,0,0,1-.2-.4,1.53,1.53,0,0,1-.08-.49,1.16,1.16,0,0,1,.22-.71.72.72,0,0,1,.6-.27H7.57l0-.19H8Zm-.42.55a.55.55,0,0,0-.06-.26.4.4,0,0,0-.16-.18H7v.32a.46.46,0,0,0,.09.31.29.29,0,0,0,.23.1.19.19,0,0,0,.18-.08A.28.28,0,0,0,7.55,45.66Z"/><path d="M5.65,40h0L8,40.9v.42l-2.31.84v0L7,42.12h.5l.06-.34H8v1.31H7.59l-.06-.34H5.28l-.07.34H4.83V41.92l2.31-.8v0l-2.31-.81V39.12h.38l.07.34H7.53l.06-.34H8v1.31H7.59l-.06-.33H7Z"/><path d="M6.78,38.88a1.25,1.25,0,0,1-.85-.29,1.05,1.05,0,0,1-.34-.82A1,1,0,0,1,5.93,37a1.21,1.21,0,0,1,.85-.3h0a1.21,1.21,0,0,1,.85.3,1,1,0,0,1,.33.81,1,1,0,0,1-.33.82,1.25,1.25,0,0,1-.85.29Zm0-.63a1,1,0,0,0,.51-.12.37.37,0,0,0,.19-.36.39.39,0,0,0-.19-.36,1,1,0,0,0-.51-.11h0a1,1,0,0,0-.5.11.4.4,0,0,0-.2.36.38.38,0,0,0,.2.36,1,1,0,0,0,.5.12Z"/><path d="M7.68,34.86a.77.77,0,0,1,.25.26.66.66,0,0,1,.08.34.81.81,0,0,1-.31.68,1.34,1.34,0,0,1-.83.24h0a1.53,1.53,0,0,1-.89-.24.8.8,0,0,1-.34-.68.69.69,0,0,1,.08-.32.71.71,0,0,1,.22-.24H5.05L5,35.23H4.61v-1H7.53l.06-.3H8v.85Zm-.81.89a1,1,0,0,0,.48-.11.36.36,0,0,0,.18-.34.48.48,0,0,0-.06-.24.41.41,0,0,0-.16-.16h-1a.38.38,0,0,0-.17.16.4.4,0,0,0-.07.24.36.36,0,0,0,.21.34,1.13,1.13,0,0,0,.53.11Z"/><path d="M7.67,32.11a.86.86,0,0,1,.26.28.92.92,0,0,1,.08.38.72.72,0,0,1-.23.58,1.09,1.09,0,0,1-.74.21h-1L6,33.82H5.64v-.89H7.05a.56.56,0,0,0,.36-.09.29.29,0,0,0,.12-.25.67.67,0,0,0,0-.26.44.44,0,0,0-.14-.18H6.08L6,32.43H5.64v-.92H7.53l.06-.28H8v.84Z"/><path d="M5,31.05H4.61v-1H7.53l.06-.3H8V31H7.59l-.06-.3H5.05Z"/><path d="M8,28.44a1.06,1.06,0,0,1-.32.81,1.15,1.15,0,0,1-.82.3H6.78a1.22,1.22,0,0,1-.85-.29,1,1,0,0,1-.34-.77,1,1,0,0,1,.29-.74,1.12,1.12,0,0,1,.77-.26H7v1.4H7a.6.6,0,0,0,.38-.16.47.47,0,0,0,.15-.37,1.16,1.16,0,0,0,0-.35,1.89,1.89,0,0,0-.13-.31l.39-.17a1.45,1.45,0,0,1,.26.9Zm-1.93,0a.33.33,0,0,0,.13.28.73.73,0,0,0,.35.13h0v-.78H6.52a.47.47,0,0,0-.32.1A.32.32,0,0,0,6.08,28.49Z"/><path class="cls-17" d="M10,53.71v.44H9.51v-.44Zm2.82.8-.07-.36H11l-.07.36H10.6v-.8h2.12l.07-.36h.29v1.16Z"/><path class="cls-17" d="M13.08,51.46l-.18,0h-.16a1,1,0,0,1,.27.32.71.71,0,0,1,.11.4.81.81,0,0,1-.18.57.73.73,0,0,1-.54.2.64.64,0,0,1-.54-.28,1.3,1.3,0,0,1-.19-.76V51.5h-.29a.44.44,0,0,0-.34.14.49.49,0,0,0-.13.37.88.88,0,0,0,.05.29.43.43,0,0,0,.11.2l.26,0v.34h-.48a1.22,1.22,0,0,1-.21-.39,1.44,1.44,0,0,1-.08-.51,1,1,0,0,1,.21-.66.76.76,0,0,1,.62-.25h1.37l0-.18h.29Zm-.33.7a.77.77,0,0,0-.11-.4.72.72,0,0,0-.26-.26H12V52a.66.66,0,0,0,.13.42.38.38,0,0,0,.31.16.3.3,0,0,0,.25-.1A.4.4,0,0,0,12.75,52.16Z"/><path class="cls-17" d="M10.89,50.52H10.6v-.75l.36,0a.93.93,0,0,1-.3-.25.6.6,0,0,1-.1-.35V49l0-.08L11,49v.25a.45.45,0,0,0,.08.29.52.52,0,0,0,.23.18h1.42l.07-.36h.29v1.16h-.29l-.07-.36H11Z"/><path class="cls-17" d="M12.78,47.07a.89.89,0,0,1,.26.29.8.8,0,0,1,.08.39.82.82,0,0,1-.32.69,1.45,1.45,0,0,1-.87.24h0a1.76,1.76,0,0,1-1-.24.8.8,0,0,1-.36-.69.79.79,0,0,1,.08-.38.77.77,0,0,1,.23-.28h-1l-.06.37H9.51v-.8h3.21l.07-.36h.29V47Zm-.85,1.18a1.07,1.07,0,0,0,.6-.15.51.51,0,0,0,.23-.46.58.58,0,0,0-.09-.33.71.71,0,0,0-.26-.22H11.26a.88.88,0,0,0-.25.22.58.58,0,0,0-.09.33.5.5,0,0,0,.27.46,1.43,1.43,0,0,0,.7.15Z"/><path class="cls-17" d="M12.71,44.25a.87.87,0,0,1,.31.29.8.8,0,0,1,.1.41.75.75,0,0,1-.25.61,1.22,1.22,0,0,1-.81.22H11l-.07.27H10.6v-.71h1.47a.91.91,0,0,0,.54-.11.4.4,0,0,0,.15-.35.69.69,0,0,0-.1-.39.59.59,0,0,0-.27-.22H11l-.07.32H10.6v-.76h2.12l.07-.28h.29v.67Z"/><path class="cls-17" d="M10,42.41v.44H9.51v-.44Zm2.82.8-.07-.36H11l-.07.36H10.6v-.8h2.12l.07-.36h.29v1.16Z"/><path class="cls-17" d="M12.79,41.78l-.07-.36H11l-.07.36H10.6V41L11,41a1,1,0,0,1-.31-.3.8.8,0,0,1-.1-.41.75.75,0,0,1,.23-.6,1.07,1.07,0,0,1,.72-.21h1.21l.07-.36h.29v1.15h-.29l-.07-.36h-1.2a.65.65,0,0,0-.46.13.49.49,0,0,0-.14.38.52.52,0,0,0,.1.33.64.64,0,0,0,.25.24h1.45l.07-.37h.29v1.16Z"/><path class="cls-17" d="M11.82,38.82a1.42,1.42,0,0,1-.91-.29.93.93,0,0,1-.35-.78,1,1,0,0,1,.35-.79,1.42,1.42,0,0,1,.91-.29h0a1.37,1.37,0,0,1,.9.29,1.06,1.06,0,0,1,0,1.57,1.39,1.39,0,0,1-.9.29Zm0-.44a1.18,1.18,0,0,0,.65-.16.52.52,0,0,0,.25-.48.53.53,0,0,0-.25-.47,1.28,1.28,0,0,0-.65-.16h0a1.28,1.28,0,0,0-.65.16.54.54,0,0,0-.26.48.51.51,0,0,0,.26.47,1.18,1.18,0,0,0,.65.16Z"/><path class="cls-17" d="M13.08,35.72v.43h-.46v-.43Z"/><path class="cls-17" d="M10.89,35.18H10.6v-.75l.36,0a.93.93,0,0,1-.3-.25.57.57,0,0,1-.1-.34v-.11a.31.31,0,0,0,0-.08l.42.06v.24a.43.43,0,0,0,.08.29.62.62,0,0,0,.23.19h1.42l.07-.36h.29v1.15h-.29l-.07-.36H11Z"/><path class="cls-17" d="M12.71,31.59a1,1,0,0,1,.31.29.82.82,0,0,1,.1.42.73.73,0,0,1-.25.6,1.22,1.22,0,0,1-.81.22H11l-.07.28H10.6v-.71h1.47a.89.89,0,0,0,.54-.12.4.4,0,0,0,.15-.35.65.65,0,0,0-.1-.38.61.61,0,0,0-.27-.23H11l-.07.32H10.6v-.76h2.12l.07-.27h.29v.66Z"/></g></svg>