<?xml version="1.0" encoding="utf-8"?>
<!-- Generator: Adobe Illustrator 22.0.1, SVG Export Plug-In . SVG Version: 6.00 Build 0)  -->
<svg version="1.1" id="Слой_2" xmlns="http://www.w3.org/2000/svg" xmlns:xlink="http://www.w3.org/1999/xlink" x="0px" y="0px"
	 viewBox="0 0 85.0393677 85.0393677" style="enable-background:new 0 0 85.0393677 85.0393677;" xml:space="preserve">
<style type="text/css">
	.st0{fill:#0D0E0F;}
	.st1{fill:#9E9B9C;}
	.st2{fill:#E5E4E0;}
	.st3{fill:none;stroke:#F6F6F6;stroke-width:0.7499946;stroke-miterlimit:10;}
	.st4{fill:#CEC7BD;}
	.st5{fill:#918C84;}
	.st6{fill:#151616;}
	.st7{fill:none;stroke:#F6F6F6;stroke-width:1.0994142;stroke-miterlimit:10;}
	.st8{fill:#313131;}
	.st9{opacity:0.4;fill:url(#SVGID_1_);}
	.st10{fill:none;stroke:#0D0E0F;stroke-width:0.2754181;stroke-miterlimit:10;}
	.st11{fill:none;stroke:#CCCCCC;stroke-width:1.1803632;stroke-miterlimit:10;}
	.st12{fill:#FFFFFF;}
	.st13{fill:none;stroke:#FFFFFF;stroke-width:0.7500858;stroke-miterlimit:10;}
</style>
<path class="st0" d="M0,0v85.0393677h85.0393677V0H0z M9.9222317,79.5112076c-2.4279003,0-4.3946834-1.9667816-4.3946834-4.392662
	c0-2.4279022,1.966783-4.3946838,4.3946834-4.3946838c2.4258242,0,4.3926077,1.9667816,4.3926077,4.3946838
	C14.3148394,77.544426,12.3480558,79.5112076,9.9222317,79.5112076z M9.9222317,14.3148394
	c-2.4279003,0-4.3946834-1.9667835-4.3946834-4.3926687c0-2.4279003,1.966783-4.3946834,4.3946834-4.3946834
	c2.4258242,0,4.3926077,1.966783,4.3926077,4.3946834C14.3148394,12.3480558,12.3480558,14.3148394,9.9222317,14.3148394z
	 M75.1186066,79.5112076c-2.4279022,0-4.3946838-1.9667816-4.3946838-4.392662c0-2.4279022,1.9667816-4.3946838,4.3946838-4.3946838
	c2.4258194,0,4.392601,1.9667816,4.392601,4.3946838C79.5112076,77.544426,77.544426,79.5112076,75.1186066,79.5112076z
	 M75.1186066,14.3148394c-2.4279022,0-4.3946838-1.9667835-4.3946838-4.3926687
	c0-2.4279003,1.9667816-4.3946834,4.3946838-4.3946834c2.4258194,0,4.392601,1.966783,4.392601,4.3946834
	C79.5112076,12.3480558,77.544426,14.3148394,75.1186066,14.3148394z"/>
<path class="st1" d="M9.9211941,3.9457726c-3.2877574,0-5.9527168,2.6751518-5.9527168,5.9754214
	c0,3.3002081,2.6649592,5.9753599,5.9527168,5.9753599c3.2876959,0,5.9527159-2.6751518,5.9527159-5.9753599
	C15.87391,6.6209245,13.20889,3.9457726,9.9211941,3.9457726z M9.9222317,14.3148394
	c-2.4279003,0-4.3946834-1.9667835-4.3946834-4.3926687c0-2.4279003,1.966783-4.3946834,4.3946834-4.3946834
	c2.4258242,0,4.3926077,1.966783,4.3926077,4.3946834C14.3148394,12.3480558,12.3480558,14.3148394,9.9222317,14.3148394z"/>
<path class="st1" d="M75.1175766,3.9457726c-3.2877579,0-5.9527206,2.6751518-5.9527206,5.9754214
	c0,3.3002081,2.6649628,5.9753599,5.9527206,5.9753599c3.2876892,0,5.952713-2.6751518,5.952713-5.9753599
	C81.0702896,6.6209245,78.4052658,3.9457726,75.1175766,3.9457726z M75.1186142,14.3148394
	c-2.4279022,0-4.3946838-1.9667835-4.3946838-4.3926687c0-2.4279003,1.9667816-4.3946834,4.3946838-4.3946834
	c2.4258194,0,4.392601,1.966783,4.392601,4.3946834C79.5112152,12.3480558,77.5444336,14.3148394,75.1186142,14.3148394z"/>
<path class="st1" d="M9.9211941,69.1421814c-3.2877574,0-5.9527168,2.6751556-5.9527168,5.9754257
	c0,3.3002014,2.6649592,5.9753571,5.9527168,5.9753571c3.2876959,0,5.9527159-2.6751556,5.9527159-5.9753571
	C15.87391,71.817337,13.20889,69.1421814,9.9211941,69.1421814z M9.9222317,79.5112457
	c-2.4279003,0-4.3946834-1.9667816-4.3946834-4.392662c0-2.4279022,1.966783-4.3946838,4.3946834-4.3946838
	c2.4258242,0,4.3926077,1.9667816,4.3926077,4.3946838C14.3148394,77.5444641,12.3480558,79.5112457,9.9222317,79.5112457z"/>
<path class="st1" d="M75.1175766,69.1421814c-3.2877579,0-5.9527206,2.6751556-5.9527206,5.9754257
	c0,3.3002014,2.6649628,5.9753571,5.9527206,5.9753571c3.2876892,0,5.952713-2.6751556,5.952713-5.9753571
	C81.0702896,71.817337,78.4052658,69.1421814,75.1175766,69.1421814z M75.1186142,79.5112457
	c-2.4279022,0-4.3946838-1.9667816-4.3946838-4.392662c0-2.4279022,1.9667816-4.3946838,4.3946838-4.3946838
	c2.4258194,0,4.392601,1.9667816,4.392601,4.3946838C79.5112152,77.5444641,77.5444336,79.5112457,75.1186142,79.5112457z"/>
<g>
	<path class="st2" d="M21.8745117,5.8007813v0.5410156L21.390625,6.434082v2.0717773l0.0185547,0.0063477l1.8198242-1.8291016
		V6.434082l-0.4804688-0.0922852V5.8007813h0.4804688h0.9082031h0.4804688v0.5410156L24.137207,6.434082v3.2124023
		l0.4804688,0.0917969v0.5380859h-1.8691406V9.7382813l0.4804688-0.0917969V7.6235352l-0.0185547-0.0058594L21.390625,9.449707
		v0.1967773l0.4838867,0.0917969v0.5380859h-1.8696289V9.7382813l0.4838867-0.0917969V6.434082l-0.4838867-0.0922852V5.8007813
		h0.4838867h0.9018555H21.8745117z"/>
	<path class="st2" d="M24.9404297,9.7382813l0.4804688-0.0917969V6.434082l-0.4804688-0.0922852V5.8007813h1.8442383v0.5410156
		L26.3261719,6.434082v1.1958008h0.4057617l0.8466797-1.2080078c0.1796875-0.25,0.3388672-0.4233398,0.4770508-0.5195313
		c0.1386719-0.0961914,0.3227539-0.1445313,0.5517578-0.1445313c0.1054688,0,0.2036133,0.0146484,0.2949219,0.0429688
		c0.0908203,0.0288086,0.1743164,0.0668945,0.2509766,0.1137695l-0.1518555,0.6733398
		c-0.0664063-0.0141602-0.1113281-0.0239258-0.1347656-0.0292969c-0.0239258-0.0048828-0.0566406-0.0078125-0.0976563-0.0078125
		c-0.0952148,0-0.1831055,0.0268555-0.2636719,0.0800781s-0.1777344,0.152832-0.2915039,0.2983398l-0.706543,0.9589844
		l1.2490234,1.7734375l0.4746094,0.0766602v0.5380859h-1.7890625V9.7382813l0.2573242-0.0366211L26.855957,8.4443359h-0.5297852
		v1.2021484l0.4584961,0.0917969v0.5380859h-1.8442383V9.7382813z"/>
	<path class="st2" d="M31.125,9.7382813l0.4833984-0.0917969v-2.0625L31.125,7.4916992V6.9506836h3.8842773v0.5410156
		l-0.4804688,0.0922852v2.0625l0.4804688,0.0917969v0.5380859h-1.7763672V9.7382813l0.390625-0.0917969V7.6450195h-1.112793
		v2.0014648l0.390625,0.0917969v0.5380859H31.125V9.7382813z"/>
	<path class="st2" d="M35.3813477,7.4916992V6.9506836h1.3144531l0.043457,0.387207
		c0.0991211-0.1435547,0.2182617-0.2539063,0.3564453-0.3320313c0.1386719-0.0776367,0.2998047-0.1166992,0.4838867-0.1166992
		c0.4155273,0,0.737793,0.1606445,0.9672852,0.4824219s0.34375,0.7451172,0.34375,1.2695313v0.0644531
		c0,0.4916992-0.1142578,0.887207-0.34375,1.1865234s-0.5498047,0.4487305-0.9614258,0.4487305
		c-0.175293,0-0.331543-0.0322266-0.4677734-0.0966797c-0.1367188-0.0644531-0.253418-0.1591797-0.3505859-0.2841797v0.9619141
		l0.4375,0.0922852v0.5410156h-1.7763672v-0.5410156l0.4370117-0.0922852V7.5839844L35.3813477,7.4916992z M37.9858398,8.6411133
		c0-0.3134766-0.0527344-0.5673828-0.1582031-0.762207S37.5610352,7.5869141,37.34375,7.5869141
		c-0.1362305,0-0.2524414,0.0273438-0.3486328,0.0830078c-0.0961914,0.0551758-0.171875,0.1342773-0.2280273,0.2368164v1.456543
		c0.0561523,0.0942383,0.1318359,0.1660156,0.2280273,0.215332s0.2143555,0.0737305,0.3549805,0.0737305
		c0.2192383,0,0.3798828-0.0849609,0.4819336-0.2548828c0.1025391-0.1704102,0.1538086-0.4008789,0.1538086-0.6918945V8.6411133z"/>
	<path class="st2" d="M41.1850586,6.9506836v0.5410156l-0.434082,0.0922852v1.3862305l0.0185547,0.0029297l1.0913086-2.0224609
		h0.9052734h0.4804688v0.5410156l-0.4804688,0.0922852v2.0625l0.4804688,0.0917969v0.5380859h-1.8198242V9.7382813
		l0.434082-0.0917969V8.2539063l-0.0185547-0.0029297l-1.0913086,2.0253906h-1.3886719V9.7382813l0.4833984-0.0917969v-2.0625
		l-0.4833984-0.0922852V6.9506836h1.3886719H41.1850586z"/>
	<path class="st2" d="M45.2919922,10.3408203c-0.4833984,0-0.8701172-0.1538086-1.1591797-0.4609375
		c-0.2890625-0.3076172-0.434082-0.6977539-0.434082-1.1708984V8.5859375c0-0.4941406,0.137207-0.9008789,0.4106445-1.2202148
		c0.2734375-0.3198242,0.6416016-0.4785156,1.1025391-0.4765625c0.4521484,0,0.8037109,0.1352539,1.0537109,0.4057617
		s0.375,0.6362305,0.375,1.097168v0.4887695h-2.0019531l-0.0068359,0.0185547
		c0.0166016,0.2192383,0.0908203,0.3994141,0.2216797,0.5410156c0.1318359,0.1411133,0.3095703,0.2119141,0.5351563,0.2119141
		c0.2001953,0,0.3662109-0.0200195,0.4990234-0.0600586c0.1318359-0.0395508,0.2763672-0.1030273,0.4335938-0.1889648
		l0.2451172,0.5532227c-0.1386719,0.1088867-0.3173828,0.199707-0.5380859,0.2739258
		C45.8085938,10.3041992,45.5634766,10.3408203,45.2919922,10.3408203z M44.765625,6.3481445H43.9375V5.7211914h0.828125V6.3481445z
		 M45.2119141,7.5805664c-0.1679688,0-0.2998047,0.0634766-0.3964844,0.190918
		c-0.0976563,0.1269531-0.1572266,0.2939453-0.1806641,0.5009766l0.0097656,0.0151367h1.109375V8.2075195
		c0-0.1904297-0.0449219-0.3422852-0.1347656-0.4560547S45.3935547,7.5805664,45.2119141,7.5805664z M46.3154297,6.3481445
		h-0.828125V5.7211914h0.828125V6.3481445z"/>
	<path class="st2" d="M49.6142578,9.2314453h0.0185547l0.8623047-2.2807617h1.1347656h0.4804688v0.5410156l-0.4804688,0.0922852
		v2.0625l0.4804688,0.0917969v0.5380859h-1.7265625V9.7382813l0.3408203-0.0917969V8.296875l-0.0185547-0.0029297
		l-0.7783203,1.9824219h-0.6074219l-0.7597656-1.9458008l-0.0185547,0.003418v1.3125l0.34375,0.0917969v0.5380859H47.15625
		V9.7382813l0.4833984-0.0917969v-2.0625L47.15625,7.4916992V6.9506836h0.4833984h1.1191406L49.6142578,9.2314453z"/>
	<path class="st2" d="M52.6054688,7.4916992V6.9506836h1.7763672v0.5410156l-0.390625,0.0922852V8.296875h1.1035156V7.5839844
		l-0.3876953-0.0922852V6.9506836h0.3876953H56h0.4833984v0.5410156L56,7.5839844v2.0625l0.4833984,0.0917969v0.5380859h-1.7763672
		V9.7382813l0.3876953-0.0917969V8.9853516h-1.1035156v0.6611328l0.390625,0.0917969v0.5380859h-1.7763672V9.7382813
		l0.4833984-0.0917969v-2.0625L52.6054688,7.4916992z"/>
	<path class="st2" d="M58.8144531,6.9506836v0.5410156l-0.4335938,0.0922852v1.3862305l0.0185547,0.0029297l1.0917969-2.0224609
		h0.9042969h0.4814453v0.5410156l-0.4814453,0.0922852v2.0625l0.4814453,0.0917969v0.5380859h-1.8203125V9.7382813
		l0.4345703-0.0917969V8.2539063l-0.0195313-0.0029297l-1.0908203,2.0253906h-1.3886719V9.7382813l0.4833984-0.0917969v-2.0625
		l-0.4833984-0.0922852V6.9506836h1.3886719H58.8144531z"/>
	<path class="st2" d="M61.4042969,7.4916992V6.9506836h1.7978516v0.5410156l-0.4121094,0.0922852v0.6328125h0.3095703
		l0.5029297-0.7373047c0.1259766-0.1928711,0.2578125-0.3378906,0.3964844-0.4350586
		c0.1386719-0.0976563,0.3105469-0.1459961,0.5175781-0.1459961c0.1035156,0,0.1962891,0.0141602,0.2792969,0.0429688
		c0.0820313,0.0288086,0.1640625,0.0673828,0.2451172,0.1166992l-0.1523438,0.6210938
		c-0.0615234-0.0166016-0.1005859-0.0268555-0.1162109-0.0307617C64.7568359,7.644043,64.7285156,7.6420898,64.6875,7.6420898
		c-0.0625,0-0.1279297,0.0234375-0.1972656,0.0708008S64.3613281,7.8193359,64.3125,7.8911133l-0.4345703,0.6269531
		L64.65625,9.6645508l0.4560547,0.0737305v0.5380859h-1.2431641l-0.7324219-1.2446289h-0.3466797v0.6147461l0.4121094,0.0917969
		v0.5380859h-1.7978516V9.7382813l0.4833984-0.0917969v-2.0625L61.4042969,7.4916992z"/>
</g>
<path class="st3" d="M31.7868347,77.5874939c-0.0916138-0.0001984-0.1396828-0.0003052-0.1396828-0.0003052l-0.0391426-15.5418472
	c0,0-0.0000668-0.0264893-0.0001335-0.0529823c0.0282974,0.0000648,0.0565948,0.0001259,0.0565948,0.0001259l21.694397,0.0478096
	c0,0,0.0124245,0.0000267,0.034481,0.0000763c0.0053062,2.1060143,0.0384293,15.2589607,0.0384293,15.2589607
	s0.0004234,0.1679306,0.0008469,0.3358688c-0.045536-0.0000992-0.0910759-0.0001984-0.0910759-0.0001984
	S33.6414757,77.5915833,31.7868347,77.5874939z"/>
<g>
	<path class="st2" d="M37.7841797,68.2285156c-0.1523438,0.1582031-0.3774414,0.3076172-0.675293,0.4482422
		s-0.6845703,0.2109375-1.1611328,0.2109375c-0.6958008,0-1.2631836-0.2421875-1.7026367-0.7265625
		c-0.4394531-0.4833984-0.6591797-1.1123047-0.6591797-1.8847656v-0.0849609c0-0.7763672,0.2172852-1.40625,0.6518555-1.8876953
		c0.4345703-0.4824219,1.0131836-0.7236328,1.7348633-0.7236328c0.3857422,0,0.7246094,0.0605469,1.0166016,0.1796875
		s0.5380859,0.2763672,0.737793,0.4726563v0.9355469h-0.4931641L37.0625,64.4560547
		c-0.1166992-0.0947266-0.2578125-0.1728516-0.4233398-0.234375s-0.3637695-0.0917969-0.5952148-0.0917969
		c-0.5620117,0-0.9951172,0.1904297-1.2988281,0.5722656c-0.3037109,0.3808594-0.4555664,0.875-0.4555664,1.4824219v0.0917969
		c0,0.6171875,0.1469727,1.1152344,0.4414063,1.4951172c0.2939453,0.3808594,0.699707,0.5703125,1.2167969,0.5703125
		c0.2832031,0,0.515625-0.0292969,0.6967773-0.0878906c0.1811523-0.0595703,0.3261719-0.1240234,0.4360352-0.1953125v-1.1298828
		l-0.8540039-0.0351563v-0.5136719h1.5576172V68.2285156z"/>
</g>
<g>
	<path class="st2" d="M41.7026367,64.2138672l-0.4750977,0.0751953l1.1650391,3.3515625l0.1176758,0.4072266h0.0214844
		l0.1181641-0.4072266l1.1611328-3.3554688l-0.4682617-0.0712891v-0.4492188h1.6396484v0.4492188l-0.4179688,0.0566406
		l-1.7431641,4.6523438h-0.6040039l-1.7436523-4.6523438l-0.4145508-0.0566406v-0.4492188h1.6435547V64.2138672z"/>
</g>
<g>
	<path class="st2" d="M51.5166016,65.2880859h-0.5332031l-0.1318359-0.7373047
		c-0.1074219-0.0898438-0.25-0.1640625-0.4287109-0.2236328c-0.1787109-0.0585938-0.3857422-0.0878906-0.6220703-0.0878906
		c-0.3740234,0-0.6611328,0.078125-0.8613281,0.2353516s-0.2998047,0.3623047-0.2998047,0.6152344
		c0,0.2236328,0.1015625,0.4111328,0.3056641,0.5615234c0.203125,0.1494141,0.5332031,0.28125,0.9882813,0.3945313
		c0.5478516,0.1347656,0.9638672,0.3330078,1.2480469,0.5957031c0.2851563,0.2617188,0.4277344,0.5869141,0.4277344,0.9736328
		c0,0.4160156-0.1708984,0.75-0.5126953,1.0029297c-0.3427734,0.2529297-0.7900391,0.3789063-1.3417969,0.3789063
		c-0.4003906,0-0.7558594-0.0644531-1.0673828-0.1943359c-0.3105469-0.1298828-0.5634766-0.2998047-0.7587891-0.5107422v-0.9599609
		h0.5283203l0.1357422,0.7402344c0.1357422,0.1113281,0.2978516,0.2021484,0.4863281,0.2734375
		c0.1884766,0.0703125,0.4130859,0.1054688,0.6757813,0.1054688c0.3544922,0,0.6347656-0.0742188,0.8408203-0.2226563
		s0.3095703-0.3505859,0.3095703-0.6054688c0-0.2363281-0.0898438-0.4345703-0.2685547-0.59375
		s-0.4941406-0.2939453-0.9462891-0.4023438c-0.5507813-0.1298828-0.9804688-0.3212891-1.2900391-0.5742188
		c-0.3095703-0.2519531-0.4648438-0.5703125-0.4648438-0.953125c0-0.4033203,0.1728516-0.7392578,0.5185547-1.0078125
		c0.3447266-0.2675781,0.7939453-0.4023438,1.3466797-0.4023438c0.3642578,0,0.6962891,0.0625,0.9951172,0.1865234
		s0.5390625,0.2744141,0.7207031,0.4511719V65.2880859z"/>
</g>
<line class="st3" x1="46.1376266" y1="62.0248489" x2="46.1376266" y2="77.61866"/>
<line class="st3" x1="38.9011345" y1="62.0088997" x2="38.9011345" y2="77.6016541"/>
<path class="st4" d="M30.3326321,73.5908356c0,1.227356-1.0018387,2.2224579-2.2397232,2.2224579
	c-1.2378826,0-2.2415257-0.9951019-2.2415257-2.2224579c0-1.2273483,1.003643-2.2224579,2.2415257-2.2224579
	C29.3307934,71.3683777,30.3326321,72.3634872,30.3326321,73.5908356z"/>
<g>
	<path class="st2" d="M35.78125,78.7353516c0.3588867,0,0.640625,0.0810547,0.8447266,0.2441406
		c0.2045898,0.1630859,0.3066406,0.3876953,0.3066406,0.6748047c0,0.1582031-0.0429688,0.2958984-0.128418,0.4121094
		s-0.2104492,0.2099609-0.3754883,0.2822266c0.1865234,0.0546875,0.3208008,0.1455078,0.402832,0.2724609
		c0.081543,0.1269531,0.1225586,0.2841797,0.1225586,0.4726563v0.1591797c0,0.0693359,0.0136719,0.1220703,0.0415039,0.1601563
		c0.0273438,0.0380859,0.0727539,0.0605469,0.1367188,0.0683594l0.078125,0.0107422v0.3789063h-0.328125
		c-0.2070313,0-0.3525391-0.0556641-0.4365234-0.1660156s-0.1259766-0.2529297-0.1259766-0.4287109v-0.1787109
		c0-0.1523438-0.0410156-0.2714844-0.1225586-0.3583984C36.1152344,80.6523438,36,80.6064453,35.8505859,80.6025391h-0.519043
		v0.8271484l0.3388672,0.0644531v0.3769531h-1.3100586v-0.3769531l0.3369141-0.0644531v-2.2509766l-0.3369141-0.0644531v-0.3789063
		h0.3369141H35.78125z M35.331543,80.1181641h0.4389648c0.1762695,0,0.309082-0.0380859,0.3974609-0.1123047
		s0.1323242-0.1826172,0.1323242-0.3232422s-0.0439453-0.2529297-0.1313477-0.3369141
		c-0.0878906-0.0839844-0.2167969-0.1259766-0.3876953-0.1259766h-0.449707V80.1181641z"/>
	<path class="st2" d="M38.6918945,78.7353516v0.3789063l-0.3388672,0.0644531v1.6367188
		c0,0.2070313,0.0561523,0.3613281,0.168457,0.4648438c0.1123047,0.1025391,0.2661133,0.1533203,0.4614258,0.1533203
		c0.1987305,0,0.3544922-0.0507813,0.4672852-0.1523438c0.112793-0.1025391,0.1694336-0.2578125,0.1694336-0.4658203v-1.6367188
		l-0.3369141-0.0644531v-0.3789063h1.3100586v0.3789063l-0.3388672,0.0644531v1.6367188
		c0,0.3525391-0.1171875,0.6230469-0.3505859,0.8144531c-0.2338867,0.1914063-0.5410156,0.2861328-0.9204102,0.2861328
		c-0.3779297,0-0.6831055-0.0947266-0.9155273-0.2861328S37.71875,81.1679688,37.71875,80.8154297v-1.6367188l-0.3364258-0.0644531
		v-0.3789063H37.71875h0.6342773H38.6918945z"/>
	<path class="st2" d="M43.1826172,79.7363281H42.706543l-0.0825195-0.4306641
		c-0.0546875-0.0341797-0.1352539-0.0644531-0.2412109-0.0898438c-0.1054688-0.0263672-0.2177734-0.0390625-0.3364258-0.0390625
		c-0.1738281,0-0.3081055,0.0361328-0.402832,0.1083984c-0.0952148,0.0722656-0.1425781,0.1660156-0.1425781,0.28125
		c0,0.1064453,0.0498047,0.1933594,0.1489258,0.2617188s0.2705078,0.140625,0.5136719,0.2167969
		c0.3491211,0.0957031,0.6137695,0.2226563,0.7939453,0.3808594s0.2705078,0.3652344,0.2705078,0.6220703
		c0,0.2685547-0.1069336,0.4804688-0.3212891,0.6357422s-0.4970703,0.2324219-0.847168,0.2324219
		c-0.2509766,0-0.4770508-0.0390625-0.6791992-0.1181641c-0.2016602-0.0791016-0.3701172-0.1884766-0.5048828-0.3271484v-0.6552734
		h0.4907227l0.0673828,0.4462891c0.0639648,0.0517578,0.1503906,0.0947266,0.2597656,0.1279297
		c0.109375,0.0341797,0.2314453,0.0507813,0.3662109,0.0507813c0.1738281,0,0.3056641-0.0351563,0.3964844-0.1054688
		c0.090332-0.0703125,0.1357422-0.1650391,0.1357422-0.2822266c0-0.1210938-0.043457-0.2177734-0.1293945-0.2910156
		c-0.0864258-0.0732422-0.2373047-0.1416016-0.453125-0.2070313c-0.375-0.1074219-0.6586914-0.2353516-0.8515625-0.3828125
		c-0.1923828-0.1484375-0.2885742-0.3505859-0.2885742-0.6074219c0-0.2539063,0.1083984-0.4619141,0.3256836-0.6240234
		c0.2172852-0.1611328,0.4902344-0.2441406,0.8188477-0.2480469c0.2431641,0,0.4648438,0.0361328,0.6650391,0.109375
		c0.199707,0.0732422,0.3676758,0.1708984,0.5039063,0.2929688V79.7363281z"/>
	<path class="st2" d="M45.8808594,79.7363281h-0.4765625l-0.0820313-0.4306641
		c-0.0546875-0.0341797-0.1367188-0.0644531-0.2421875-0.0898438c-0.1054688-0.0263672-0.2167969-0.0390625-0.3359375-0.0390625
		c-0.1738281,0-0.3085938,0.0361328-0.4023438,0.1083984c-0.0957031,0.0722656-0.1425781,0.1660156-0.1425781,0.28125
		c0,0.1064453,0.0488281,0.1933594,0.1484375,0.2617188s0.2695313,0.140625,0.5136719,0.2167969
		c0.3496094,0.0957031,0.6132813,0.2226563,0.7949219,0.3808594c0.1796875,0.1582031,0.2695313,0.3652344,0.2695313,0.6220703
		c0,0.2685547-0.1074219,0.4804688-0.3222656,0.6357422c-0.2128906,0.1552734-0.4960938,0.2324219-0.8457031,0.2324219
		c-0.2519531,0-0.4775391-0.0390625-0.6796875-0.1181641c-0.2016602-0.0791016-0.3701172-0.1884766-0.5048828-0.3271484v-0.6552734
		h0.4912109l0.0664063,0.4462891c0.0644531,0.0517578,0.1503906,0.0947266,0.2597656,0.1279297
		c0.109375,0.0341797,0.2324219,0.0507813,0.3671875,0.0507813c0.1738281,0,0.3046875-0.0351563,0.3964844-0.1054688
		c0.0898438-0.0703125,0.1347656-0.1650391,0.1347656-0.2822266c0-0.1210938-0.0429688-0.2177734-0.1289063-0.2910156
		s-0.2363281-0.1416016-0.453125-0.2070313c-0.375-0.1074219-0.6582031-0.2353516-0.8515625-0.3828125
		c-0.1923828-0.1484375-0.2885742-0.3505859-0.2885742-0.6074219c0-0.2539063,0.1083984-0.4619141,0.3256836-0.6240234
		c0.2167969-0.1611328,0.4902344-0.2441406,0.8183594-0.2480469c0.2441406,0,0.4648438,0.0361328,0.6660156,0.109375
		c0.1992188,0.0732422,0.3671875,0.1708984,0.5039063,0.2929688V79.7363281z"/>
	<path class="st2" d="M46.1728516,79.1142578v-0.3789063h1.3105469v0.3789063l-0.3388672,0.0644531v2.2509766l0.3388672,0.0644531
		v0.3769531h-1.3105469v-0.3769531l0.3388672-0.0644531v-2.2509766L46.1728516,79.1142578z"/>
	<path class="st2" d="M47.6923828,81.4941406l0.2265625-0.0322266l0.9619141-2.7265625h0.6494141l0.9560547,2.7265625
		l0.2255859,0.0322266v0.3769531h-1.0771484v-0.3769531l0.2197266-0.0390625l-0.1396484-0.4306641h-1.0253906l-0.1386719,0.4306641
		l0.2197266,0.0390625v0.3769531h-1.078125V81.4941406z M48.8398438,80.5615234h0.7255859l-0.3564453-1.1044922h-0.0126953
		L48.8398438,80.5615234z"/>
</g>
<ellipse class="st5" cx="28.0920067" cy="73.5908356" rx="1.5315893" ry="1.5185605"/>
<rect x="25.6258755" y="61.4853172" class="st2" width="4.7067552" height="4.7067552"/>
<g>
	<path class="st6" d="M27.8374023,62.46875c0.3969727,0,0.7163086,0.1210938,0.9575195,0.3632813
		c0.2416992,0.2421875,0.3623047,0.5556641,0.3623047,0.9394531v0.4121094c0,0.3847656-0.1206055,0.6972656-0.3623047,0.9384766
		c-0.2412109,0.2412109-0.5605469,0.3613281-0.9575195,0.3613281h-1.2734375v-0.2607422l0.340332-0.0585938v-2.3740234
		l-0.340332-0.0585938V62.46875h0.340332H27.8374023z M27.3154297,62.7900391v2.3740234h0.5219727
		c0.28125,0,0.5029297-0.0908203,0.6655273-0.2744141c0.1621094-0.1835938,0.2431641-0.4189453,0.2431641-0.7060547v-0.4169922
		c0-0.2841797-0.0810547-0.5175781-0.2431641-0.7011719c-0.1625977-0.1835938-0.3842773-0.2753906-0.6655273-0.2753906H27.3154297z"
		/>
</g>
<path class="st3" d="M45.5901527,65.5508041"/>
<path class="st4" d="M37.5609283,73.5908356c0,1.227356-1.0018425,2.2224579-2.2397232,2.2224579
	c-1.2378845,0-2.2415276-0.9951019-2.2415276-2.2224579c0-1.2273483,1.003643-2.2224579,2.2415276-2.2224579
	C36.5590858,71.3683777,37.5609283,72.3634872,37.5609283,73.5908356z"/>
<ellipse class="st5" cx="35.3203011" cy="73.5908356" rx="1.5315893" ry="1.5185605"/>
<path class="st4" d="M44.7608757,73.5908356c0,1.227356-1.0018387,2.2224579-2.2397232,2.2224579
	s-2.2415276-0.9951019-2.2415276-2.2224579c0-1.2273483,1.003643-2.2224579,2.2415276-2.2224579
	S44.7608757,72.3634872,44.7608757,73.5908356z"/>
<ellipse class="st5" cx="42.5202522" cy="73.5908356" rx="1.5315893" ry="1.5185605"/>
<path class="st4" d="M51.348259,71.9619293c1.5394974,2.0229034-0.1709862,4.2712708-2.1831551,3.7839737
	c-0.7743645-0.1875305-1.4096336-0.8210678-1.598774-1.595047C47.0747375,72.1392441,49.3237839,70.4215393,51.348259,71.9619293z"
	/>
<ellipse class="st5" cx="49.7201996" cy="73.5908356" rx="1.5315893" ry="1.5185605"/>
<path class="st4" d="M58.5482063,71.9619293c1.5395012,2.0229034-0.1709862,4.2712708-2.1831551,3.7839737
	c-0.7743645-0.1875305-1.4096298-0.8210678-1.5987701-1.595047C54.2746887,72.1392441,56.523735,70.4215393,58.5482063,71.9619293z"
	/>
<ellipse class="st5" cx="56.9201469" cy="73.5908356" rx="1.5315893" ry="1.5185605"/>
<g>
	<circle class="st4" cx="37.926918" cy="16.2041168" r="1.0177542"/>
	<ellipse class="st5" cx="37.926918" cy="16.2041168" rx="0.7016137" ry="0.6956454"/>
	<circle class="st4" cx="43.0364418" cy="16.2041168" r="1.0177542"/>
	<ellipse class="st5" cx="43.0364418" cy="16.2041168" rx="0.7016137" ry="0.6956454"/>
	<circle class="st4" cx="48.1459618" cy="16.2041168" r="1.0177542"/>
	<ellipse class="st5" cx="48.1459618" cy="16.2041168" rx="0.7016137" ry="0.6956454"/>
	<path class="st7" d="M34.1207733,43.1513023"/>
	
		<rect x="32.1064606" y="28.4936295" transform="matrix(-1.836970e-16 1 -1 -1.836970e-16 81.3780212 -4.6948624)" class="st8" width="21.8599548" height="19.6958961"/>
	<circle class="st0" cx="43.0364418" cy="39.8504868" r="9.1415186"/>
	
		<radialGradient id="SVGID_1_" cx="133.0027161" cy="240.9680786" r="9.1327734" gradientTransform="matrix(0 1 -1 0 284.0045166 -93.1522293)" gradientUnits="userSpaceOnUse">
		<stop  offset="0" style="stop-color:#FFFFFF;stop-opacity:0.5"/>
		<stop  offset="0.5867767" style="stop-color:#FFFFFF"/>
		<stop  offset="0.865168" style="stop-color:#F4E847;stop-opacity:0.5"/>
		<stop  offset="0.994382" style="stop-color:#FFFFFF"/>
	</radialGradient>
	<circle class="st9" cx="43.0364418" cy="39.8504868" r="9.1327734"/>
	<line class="st10" x1="33.1884918" y1="30.3751335" x2="52.884388" y2="30.3751335"/>
	<line class="st11" x1="43.0364418" y1="27.4116001" x2="43.0364418" y2="16.2041168"/>
	<polyline class="st11" points="46.3317947,27.4116001 46.3317947,24.8051376 48.1459618,24.8051376 48.1459618,16.2041168 	"/>
	<polyline class="st11" points="39.7410851,27.4116001 39.7410851,24.8051376 37.926918,24.8051376 37.926918,16.2041168 	"/>
</g>
<g>
	<path class="st12" d="M12.9038086,38.1640625c0-0.2148438,0.0717773-0.3920898,0.2158203-0.5307617
		c0.144043-0.1391602,0.3398438-0.2084961,0.5878906-0.2084961c0.2446289,0,0.4399414,0.0693359,0.5854492,0.2084961
		c0.1455078,0.1386719,0.21875,0.315918,0.21875,0.5307617c0,0.2182617-0.0737305,0.3969727-0.2211914,0.5361328
		c-0.1469727,0.1386719-0.3413086,0.2084961-0.5830078,0.2084961s-0.4360352-0.0698242-0.5830078-0.2084961
		C12.9770508,38.5610352,12.9038086,38.3823242,12.9038086,38.1640625z M14.4272461,44.9228516h-1.4389648v-5.3691406h1.4389648
		V44.9228516z"/>
	<path class="st12" d="M18.3769531,42.277832H17.190918v2.6450195h-1.4887695v-7.2250977h2.6845703
		c0.8535156,0,1.5117188,0.1904297,1.9750977,0.5708008s0.6948242,0.9179688,0.6948242,1.6123047
		c0,0.4931641-0.1069336,0.9042969-0.3203125,1.2333984s-0.5366211,0.5913086-0.9697266,0.7866211l1.5629883,2.9526367v0.0693359
		h-1.5981445L18.3769531,42.277832z M17.190918,41.0722656h1.2006836c0.3740234,0,0.6635742-0.0952148,0.8686523-0.2856445
		C19.465332,40.5966797,19.5678711,40.3344727,19.5678711,40c0-0.340332-0.0966797-0.6083984-0.2900391-0.8037109
		c-0.1938477-0.1953125-0.4907227-0.2929688-0.8911133-0.2929688H17.190918V41.0722656z"/>
</g>
<path class="st13" d="M22.1567898,36.7153435c0.0973358,0.0920029,0.1913548,0.1892433,0.2816772,0.2916946
	c1.5249653,1.7489395,1.4189186,4.3584709-0.1915798,5.9785919"/>
<path class="st13" d="M23.3990402,35.4731712c2.2547855,2.854641,2.2350483,6.2388229,0.1229134,8.787384"/>
<path class="st13" d="M24.8389416,34.0334473c2.5090942,3.6813507,2.4790649,7.9842529,0.0987797,11.6429214"/>
<g>
</g>
<g>
</g>
<g>
</g>
<g>
</g>
<g>
</g>
</svg>
