<?xml version="1.0" encoding="utf-8"?>
<!-- Generator: Adobe Illustrator 23.1.0, SVG Export Plug-In . SVG Version: 6.00 Build 0)  -->
<svg version="1.1" xmlns="http://www.w3.org/2000/svg" xmlns:xlink="http://www.w3.org/1999/xlink" x="0px" y="0px"
	 viewBox="0 0 155.91 155.64" style="enable-background:new 0 0 155.91 155.64;" xml:space="preserve">
<style type="text/css">
	.st0{clip-path:url(#SVGID_2_);fill:#0D0E0F;}
	.st1{fill:none;stroke:#FFFFFF;stroke-width:0.5;stroke-miterlimit:10;}
	.st2{fill:#FFFFFF;}
	.st3{fill:#0D0E0F;}
	.st4{fill:#E39344;stroke:#666566;stroke-width:0.0232;stroke-miterlimit:10;}
	.st5{fill:#EBAD4F;stroke:#B3B3B3;stroke-width:0.0252;stroke-miterlimit:10;}
	.st6{fill:none;stroke:#808080;stroke-width:0.0114;stroke-miterlimit:10;}
	.st7{fill:#E2E2E2;}
	.st8{fill:none;stroke:#E2E2E2;stroke-linecap:square;stroke-miterlimit:10;}
	.st9{fill:#B5B4B3;}
	.st10{fill:#CDC7BC;}
	.st11{display:none;fill:#D2D94E;stroke:#EFE94A;stroke-width:0.25;stroke-miterlimit:10;}
	.st12{fill:#EBAD4F;}
	.st13{fill:#4CB8F2;}
	.st14{opacity:0.37;fill:none;stroke:#FFFFFF;stroke-width:0.5;stroke-miterlimit:10;}
	.st15{fill:#363331;}
	.st16{fill:#9E9B9C;}
	.st17{fill:#8E7647;}
	.st18{fill:#5DAF61;}
	.st19{fill:none;stroke:#FFFFFF;stroke-width:0.5;stroke-linecap:round;stroke-miterlimit:10;}
	.st20{fill:#4E8B5C;}
	.st21{fill:#CCCCCC;}
	.st22{opacity:0.5;fill:url(#SVGID_3_);}
	.st23{opacity:0.1;fill:#B3B3B3;}
	.st24{opacity:0.5;fill:url(#SVGID_4_);}
	.st25{fill:#B3B3B3;}
	.st26{opacity:0.5;fill:url(#SVGID_5_);}
	.st27{opacity:0.5;fill:url(#SVGID_6_);}
	.st28{opacity:0.5;fill:url(#SVGID_7_);}
	.st29{opacity:0.5;fill:url(#SVGID_8_);}
	.st30{fill:none;stroke:#C9C8C8;stroke-width:0.75;stroke-miterlimit:10;}
	.st31{fill:#46433E;}
	.st32{fill:#CBC5BA;}
	.st33{fill:none;stroke:#E5E5E5;stroke-miterlimit:10;}
	.st34{fill:none;stroke:#C9C8C8;stroke-miterlimit:10;}
	.st35{fill:#4C4C4C;}
	.st36{opacity:0.5;fill:url(#SVGID_9_);}
	.st37{opacity:0.5;fill:url(#SVGID_10_);}
	.st38{opacity:0.5;fill:url(#SVGID_11_);}
	.st39{opacity:0.5;fill:url(#SVGID_12_);}
	.st40{fill:#844745;}
	.st41{fill:none;}
	.st42{clip-path:url(#SVGID_14_);fill:#0D0E0F;}
	.st43{opacity:0.5;fill:url(#SVGID_15_);}
	.st44{opacity:0.5;fill:url(#SVGID_16_);}
	.st45{opacity:0.5;fill:url(#SVGID_17_);}
	.st46{opacity:0.5;fill:url(#SVGID_18_);}
	.st47{opacity:0.5;fill:url(#SVGID_19_);}
	.st48{opacity:0.5;fill:url(#SVGID_20_);}
	.st49{opacity:0.5;fill:url(#SVGID_21_);}
	.st50{opacity:0.5;fill:url(#SVGID_22_);}
	.st51{opacity:0.5;fill:url(#SVGID_23_);}
	.st52{opacity:0.5;fill:url(#SVGID_24_);}
	.st53{clip-path:url(#SVGID_26_);fill:#0D0E0F;}
	.st54{opacity:0.5;fill:url(#SVGID_27_);}
	.st55{opacity:0.5;fill:url(#SVGID_28_);}
	.st56{opacity:0.5;fill:url(#SVGID_29_);}
	.st57{opacity:0.5;fill:url(#SVGID_30_);}
	.st58{opacity:0.5;fill:url(#SVGID_31_);}
	.st59{opacity:0.5;fill:url(#SVGID_32_);}
	.st60{opacity:0.5;fill:url(#SVGID_33_);}
	.st61{opacity:0.5;fill:url(#SVGID_34_);}
	.st62{opacity:0.5;fill:url(#SVGID_35_);}
	.st63{opacity:0.5;fill:url(#SVGID_36_);}
	.st64{clip-path:url(#SVGID_38_);fill:#0D0E0F;}
	.st65{opacity:0.5;fill:url(#SVGID_39_);}
	.st66{opacity:0.5;fill:url(#SVGID_40_);}
	.st67{opacity:0.5;fill:url(#SVGID_41_);}
	.st68{opacity:0.5;fill:url(#SVGID_42_);}
	.st69{opacity:0.5;fill:url(#SVGID_43_);}
	.st70{opacity:0.5;fill:url(#SVGID_44_);}
	.st71{opacity:0.5;fill:url(#SVGID_45_);}
	.st72{opacity:0.5;fill:url(#SVGID_46_);}
	.st73{opacity:0.5;fill:url(#SVGID_47_);}
	.st74{opacity:0.5;fill:url(#SVGID_48_);}
	.st75{clip-path:url(#SVGID_50_);fill:#0D0E0F;}
	.st76{fill:#CEC7BD;}
	.st77{fill:#918C84;}
	.st78{fill:none;stroke:#E2E2E2;stroke-width:0.75;stroke-linecap:round;stroke-miterlimit:10;}
	.st79{fill:none;stroke:#E2E2E2;stroke-width:0.5;stroke-linecap:round;stroke-miterlimit:10;}
	.st80{fill:#FFFFFF;stroke:#0D0E0F;stroke-width:0.1302;stroke-miterlimit:10;}
	.st81{fill:#EFEFEF;}
	.st82{clip-path:url(#SVGID_52_);fill:#0D0E0F;}
	.st83{clip-path:url(#SVGID_54_);fill:#0D0E0F;}
	.st84{clip-path:url(#SVGID_56_);fill:#0D0E0F;}
</style>
<g id="NC">
</g>
<g id="N">
</g>
<g id="Слой_3">
	<g>
		<g id="днище_5_">
			<g>
				<defs>
					<path id="SVGID_49_" d="M141.76,141.6v9.79c0,2.35-1.9,4.25-4.25,4.25h-5.67c-2.35,0-4.25-1.9-4.25-4.25v-9.79l0,0.02
						l-99.25-0.02l0,9.79c0,2.35-1.9,4.25-4.25,4.25h-5.67c-2.35,0-4.25-1.9-4.25-4.25l0-9.79l-9.95,0L0,137.65V18.02l3.98-3.98
						l10.19,0c0,0,0-9.79,0-9.79c0-2.35,1.9-4.25,4.25-4.25h5.67c2.35,0,4.25,1.9,4.25,4.25l0,9.79l0,0l99.24,0c0,0,0-9.79,0-9.79
						c0-2.35,1.9-4.25,4.25-4.25h5.67c2.35,0,4.25,1.9,4.25,4.25v9.79v0l10.17,0l3.98,3.98v119.62l-3.98,3.98l-10.17,0"/>
				</defs>
				<clipPath id="SVGID_2_">
					<use xlink:href="#SVGID_49_"  style="overflow:visible;"/>
				</clipPath>
				<path class="st0" d="M155.91,155.64V-0.26H0v155.91H155.91z M10.85,90.06c-0.7,0-1.26-0.56-1.26-1.26c0-0.7,0.56-1.26,1.26-1.26
					s1.26,0.56,1.26,1.26C12.11,89.49,11.54,90.06,10.85,90.06z M14.45,90.06c-0.7,0-1.26-0.56-1.26-1.26c0-0.7,0.56-1.26,1.26-1.26
					c0.7,0,1.26,0.56,1.26,1.26C15.71,89.49,15.15,90.06,14.45,90.06z M10.85,86.37c-0.7,0-1.26-0.56-1.26-1.26
					c0-0.7,0.56-1.26,1.26-1.26s1.26,0.56,1.26,1.26C12.11,85.8,11.54,86.37,10.85,86.37z M14.45,86.37c-0.7,0-1.26-0.56-1.26-1.26
					c0-0.7,0.56-1.26,1.26-1.26c0.7,0,1.26,0.56,1.26,1.26C15.71,85.8,15.15,86.37,14.45,86.37z M10.85,82.8
					c-0.7,0-1.26-0.56-1.26-1.26c0-0.7,0.56-1.26,1.26-1.26s1.26,0.56,1.26,1.26C12.11,82.24,11.54,82.8,10.85,82.8z M14.45,82.8
					c-0.7,0-1.26-0.56-1.26-1.26c0-0.7,0.56-1.26,1.26-1.26c0.7,0,1.26,0.56,1.26,1.26C15.71,82.24,15.15,82.8,14.45,82.8z
					 M19.76,142.18c-0.39,0-0.71-0.32-0.71-0.71c0-0.39,0.32-0.71,0.71-0.71c0.39,0,0.71,0.32,0.71,0.71
					C20.47,141.86,20.15,142.18,19.76,142.18z M16.99,142.18c-0.39,0-0.71-0.32-0.71-0.71c0-0.39,0.32-0.71,0.71-0.71
					c0.39,0,0.71,0.32,0.71,0.71C17.7,141.86,17.39,142.18,16.99,142.18z M22.73,142.18c-0.39,0-0.71-0.32-0.71-0.71
					c0-0.39,0.32-0.71,0.71-0.71c0.39,0,0.71,0.32,0.71,0.71C23.44,141.86,23.12,142.18,22.73,142.18z M25.5,142.18
					c-0.39,0-0.71-0.32-0.71-0.71c0-0.39,0.32-0.71,0.71-0.71s0.71,0.32,0.71,0.71C26.21,141.86,25.89,142.18,25.5,142.18z
					 M28.33,142.18c-0.39,0-0.71-0.32-0.71-0.71c0-0.39,0.32-0.71,0.71-0.71c0.39,0,0.71,0.32,0.71,0.71
					C29.04,141.86,28.72,142.18,28.33,142.18z M14.16,142.18c-0.39,0-0.71-0.32-0.71-0.71c0-0.39,0.32-0.71,0.71-0.71
					c0.39,0,0.71,0.32,0.71,0.71C14.87,141.86,14.55,142.18,14.16,142.18z M133.89,14.2c0,0.39-0.32,0.71-0.71,0.71
					c-0.39,0-0.71-0.32-0.71-0.71s0.32-0.71,0.71-0.71C133.58,13.49,133.89,13.81,133.89,14.2z M131.12,14.2
					c0,0.39-0.32,0.71-0.71,0.71c-0.39,0-0.71-0.32-0.71-0.71s0.32-0.71,0.71-0.71C130.81,13.49,131.12,13.81,131.12,14.2z
					 M136.86,14.2c0,0.39-0.32,0.71-0.71,0.71s-0.71-0.32-0.71-0.71s0.32-0.71,0.71-0.71S136.86,13.81,136.86,14.2z M139.63,14.2
					c0,0.39-0.32,0.71-0.71,0.71s-0.71-0.32-0.71-0.71s0.32-0.71,0.71-0.71S139.63,13.81,139.63,14.2z M142.46,14.2
					c0,0.39-0.32,0.71-0.71,0.71c-0.39,0-0.71-0.32-0.71-0.71s0.32-0.71,0.71-0.71C142.15,13.49,142.46,13.81,142.46,14.2z
					 M128.29,14.2c0,0.39-0.32,0.71-0.71,0.71c-0.39,0-0.71-0.32-0.71-0.71s0.32-0.71,0.71-0.71
					C127.97,13.49,128.29,13.81,128.29,14.2z M20.47,14.2c0,0.39-0.32,0.71-0.71,0.71c-0.39,0-0.71-0.32-0.71-0.71
					s0.32-0.71,0.71-0.71C20.15,13.49,20.47,13.81,20.47,14.2z M17.7,14.2c0,0.39-0.32,0.71-0.71,0.71c-0.39,0-0.71-0.32-0.71-0.71
					s0.32-0.71,0.71-0.71C17.39,13.49,17.7,13.81,17.7,14.2z M23.44,14.2c0,0.39-0.32,0.71-0.71,0.71c-0.39,0-0.71-0.32-0.71-0.71
					s0.32-0.71,0.71-0.71C23.12,13.49,23.44,13.81,23.44,14.2z M26.21,14.2c0,0.39-0.32,0.71-0.71,0.71s-0.71-0.32-0.71-0.71
					s0.32-0.71,0.71-0.71S26.21,13.81,26.21,14.2z M29.04,14.2c0,0.39-0.32,0.71-0.71,0.71c-0.39,0-0.71-0.32-0.71-0.71
					s0.32-0.71,0.71-0.71C28.72,13.49,29.04,13.81,29.04,14.2z M14.87,14.2c0,0.39-0.32,0.71-0.71,0.71c-0.39,0-0.71-0.32-0.71-0.71
					s0.32-0.71,0.71-0.71C14.55,13.49,14.87,13.81,14.87,14.2z M133.18,142.18c-0.39,0-0.71-0.32-0.71-0.71
					c0-0.39,0.32-0.71,0.71-0.71c0.39,0,0.71,0.32,0.71,0.71C133.89,141.86,133.58,142.18,133.18,142.18z M130.42,142.18
					c-0.39,0-0.71-0.32-0.71-0.71c0-0.39,0.32-0.71,0.71-0.71c0.39,0,0.71,0.32,0.71,0.71
					C131.12,141.86,130.81,142.18,130.42,142.18z M136.15,142.18c-0.39,0-0.71-0.32-0.71-0.71c0-0.39,0.32-0.71,0.71-0.71
					s0.71,0.32,0.71,0.71C136.86,141.86,136.54,142.18,136.15,142.18z M138.92,142.18c-0.39,0-0.71-0.32-0.71-0.71
					c0-0.39,0.32-0.71,0.71-0.71s0.71,0.32,0.71,0.71C139.63,141.86,139.31,142.18,138.92,142.18z M141.76,142.18
					c-0.39,0-0.71-0.32-0.71-0.71c0-0.39,0.32-0.71,0.71-0.71c0.39,0,0.71,0.32,0.71,0.71
					C142.46,141.86,142.15,142.18,141.76,142.18z M127.58,142.18c-0.39,0-0.71-0.32-0.71-0.71c0-0.39,0.32-0.71,0.71-0.71
					c0.39,0,0.71,0.32,0.71,0.71C128.29,141.86,127.97,142.18,127.58,142.18z M21.25,152.81c-2.35,0-4.25-1.9-4.25-4.25
					s1.9-4.25,4.25-4.25s4.25,1.9,4.25,4.25S23.6,152.81,21.25,152.81z M134.67,152.87c-2.35,0-4.25-1.9-4.25-4.25
					s1.9-4.25,4.25-4.25s4.25,1.9,4.25,4.25S137.02,152.87,134.67,152.87z M134.67,11.31c-2.35,0-4.25-1.9-4.25-4.25
					s1.9-4.25,4.25-4.25s4.25,1.9,4.25,4.25S137.02,11.31,134.67,11.31z M21.25,11.37c-2.35,0-4.25-1.9-4.25-4.25
					s1.9-4.25,4.25-4.25s4.25,1.9,4.25,4.25S23.6,11.37,21.25,11.37z"/>
			</g>
		</g>
		<g id="text_5_">
			<g id="I2C_5_">
				<rect x="8.1" y="104.82" class="st1" width="18.24" height="28.75"/>
				<line class="st1" x1="26.33" y1="126.62" x2="8.1" y2="126.62"/>
				<line class="st1" x1="26.33" y1="119.31" x2="8.1" y2="119.31"/>
				<line class="st1" x1="26.33" y1="112.11" x2="8.1" y2="112.11"/>
				<g>
					<path class="st2" d="M17.27,130.17c-0.4-0.12-0.69-0.26-0.87-0.43c-0.18-0.17-0.27-0.38-0.27-0.62c0-0.28,0.11-0.51,0.33-0.69
						c0.22-0.18,0.51-0.27,0.87-0.27c0.24,0,0.46,0.05,0.65,0.14c0.19,0.09,0.34,0.22,0.44,0.39c0.1,0.17,0.16,0.35,0.16,0.54h-0.47
						c0-0.21-0.07-0.38-0.2-0.51s-0.33-0.19-0.57-0.19c-0.23,0-0.41,0.05-0.54,0.15c-0.13,0.1-0.19,0.24-0.19,0.42
						c0,0.14,0.06,0.27,0.18,0.37c0.12,0.1,0.33,0.19,0.62,0.28c0.29,0.08,0.52,0.17,0.69,0.28c0.17,0.1,0.29,0.22,0.37,0.35
						c0.08,0.13,0.12,0.29,0.12,0.47c0,0.29-0.11,0.52-0.33,0.69c-0.22,0.17-0.52,0.26-0.89,0.26c-0.24,0-0.47-0.05-0.68-0.14
						s-0.37-0.22-0.49-0.38c-0.11-0.16-0.17-0.35-0.17-0.55h0.47c0,0.21,0.08,0.38,0.24,0.51c0.16,0.13,0.37,0.19,0.63,0.19
						c0.25,0,0.43-0.05,0.56-0.15c0.13-0.1,0.2-0.24,0.2-0.41s-0.06-0.31-0.18-0.4C17.81,130.35,17.59,130.26,17.27,130.17z"/>
					<path class="st2" d="M21.52,130.62c-0.04,0.38-0.18,0.67-0.41,0.87c-0.23,0.21-0.54,0.31-0.92,0.31c-0.42,0-0.75-0.15-1-0.45
						c-0.25-0.3-0.38-0.71-0.38-1.21v-0.34c0-0.33,0.06-0.62,0.18-0.87c0.12-0.25,0.28-0.44,0.5-0.58c0.21-0.13,0.46-0.2,0.75-0.2
						c0.38,0,0.67,0.11,0.9,0.32c0.23,0.21,0.36,0.5,0.39,0.88h-0.47c-0.04-0.28-0.13-0.49-0.26-0.62
						c-0.13-0.13-0.32-0.19-0.57-0.19c-0.3,0-0.53,0.11-0.7,0.33c-0.17,0.22-0.25,0.54-0.25,0.95v0.34c0,0.39,0.08,0.69,0.24,0.92
						s0.38,0.34,0.67,0.34c0.26,0,0.46-0.06,0.59-0.18c0.14-0.12,0.23-0.32,0.27-0.62H21.52z"/>
					<path class="st2" d="M22.38,131.37h1.67v0.38h-2.14v-3.55h0.47V131.37z"/>
				</g>
				<g>
					<path class="st2" d="M17.27,122.98c-0.4-0.12-0.69-0.26-0.87-0.43c-0.18-0.17-0.27-0.38-0.27-0.62c0-0.28,0.11-0.51,0.33-0.69
						c0.22-0.18,0.51-0.27,0.87-0.27c0.24,0,0.46,0.05,0.65,0.14c0.19,0.09,0.34,0.22,0.44,0.39c0.1,0.17,0.16,0.35,0.16,0.54h-0.47
						c0-0.21-0.07-0.38-0.2-0.51s-0.33-0.19-0.57-0.19c-0.23,0-0.41,0.05-0.54,0.15c-0.13,0.1-0.19,0.24-0.19,0.42
						c0,0.14,0.06,0.27,0.18,0.37c0.12,0.1,0.33,0.19,0.62,0.28c0.29,0.08,0.52,0.17,0.69,0.28c0.17,0.1,0.29,0.22,0.37,0.35
						c0.08,0.13,0.12,0.29,0.12,0.47c0,0.29-0.11,0.52-0.33,0.69c-0.22,0.17-0.52,0.26-0.89,0.26c-0.24,0-0.47-0.05-0.68-0.14
						s-0.37-0.22-0.49-0.38c-0.11-0.16-0.17-0.35-0.17-0.55h0.47c0,0.21,0.08,0.38,0.24,0.51c0.16,0.13,0.37,0.19,0.63,0.19
						c0.25,0,0.43-0.05,0.56-0.15c0.13-0.1,0.2-0.24,0.2-0.41s-0.06-0.31-0.18-0.4C17.81,123.17,17.59,123.07,17.27,122.98z"/>
					<path class="st2" d="M18.93,124.57v-3.55h0.99c0.31,0,0.58,0.07,0.81,0.21c0.24,0.14,0.42,0.33,0.54,0.58
						c0.13,0.25,0.19,0.54,0.2,0.87v0.23c0,0.34-0.06,0.63-0.19,0.88c-0.13,0.25-0.31,0.45-0.55,0.58c-0.24,0.13-0.52,0.2-0.83,0.21
						H18.93z M19.39,121.39v2.79h0.49c0.36,0,0.64-0.11,0.84-0.34s0.3-0.54,0.3-0.96v-0.21c0-0.4-0.09-0.72-0.28-0.94
						c-0.19-0.22-0.46-0.34-0.8-0.34H19.39z"/>
					<path class="st2" d="M23.88,123.64H22.4l-0.33,0.93h-0.48l1.35-3.55h0.41l1.35,3.55h-0.48L23.88,123.64z M22.54,123.25h1.2
						l-0.6-1.66L22.54,123.25z"/>
				</g>
				<g>
					<path class="st2" d="M17.4,116.86l1.01-2.93h0.51l-1.31,3.55H17.2l-1.3-3.55h0.51L17.4,116.86z"/>
					<path class="st2" d="M20.02,117.16c0.16,0,0.3-0.05,0.42-0.15s0.19-0.22,0.2-0.37h0.42c-0.01,0.15-0.06,0.29-0.15,0.43
						s-0.22,0.25-0.38,0.33c-0.16,0.08-0.33,0.12-0.5,0.12c-0.36,0-0.64-0.12-0.85-0.36c-0.21-0.24-0.32-0.57-0.32-0.99v-0.08
						c0-0.26,0.05-0.49,0.14-0.69c0.09-0.2,0.23-0.36,0.4-0.47c0.17-0.11,0.38-0.17,0.62-0.17c0.29,0,0.54,0.09,0.73,0.27
						c0.19,0.18,0.3,0.41,0.31,0.69h-0.42c-0.01-0.17-0.08-0.31-0.19-0.42c-0.12-0.11-0.26-0.17-0.43-0.17
						c-0.23,0-0.4,0.08-0.53,0.25s-0.19,0.4-0.19,0.72v0.09c0,0.3,0.06,0.54,0.19,0.7C19.61,117.08,19.78,117.16,20.02,117.16z"/>
					<path class="st2" d="M22.36,117.16c0.16,0,0.3-0.05,0.42-0.15c0.12-0.1,0.19-0.22,0.2-0.37h0.42
						c-0.01,0.15-0.06,0.29-0.15,0.43c-0.1,0.14-0.22,0.25-0.38,0.33s-0.33,0.12-0.5,0.12c-0.36,0-0.64-0.12-0.85-0.36
						c-0.21-0.24-0.32-0.57-0.32-0.99v-0.08c0-0.26,0.05-0.49,0.14-0.69c0.09-0.2,0.23-0.36,0.4-0.47s0.38-0.17,0.62-0.17
						c0.29,0,0.54,0.09,0.73,0.27c0.19,0.18,0.3,0.41,0.31,0.69h-0.42c-0.01-0.17-0.08-0.31-0.19-0.42
						c-0.12-0.11-0.26-0.17-0.43-0.17c-0.23,0-0.4,0.08-0.53,0.25s-0.19,0.4-0.19,0.72v0.09c0,0.3,0.06,0.54,0.19,0.7
						S22.13,117.16,22.36,117.16z"/>
				</g>
				<g>
					<path class="st2" d="M18.84,109.8c-0.12,0.17-0.29,0.3-0.5,0.39c-0.21,0.08-0.46,0.13-0.75,0.13c-0.29,0-0.54-0.07-0.76-0.2
						s-0.4-0.33-0.52-0.58c-0.12-0.25-0.18-0.54-0.19-0.87v-0.31c0-0.54,0.12-0.95,0.37-1.25c0.25-0.29,0.6-0.44,1.04-0.44
						c0.37,0,0.66,0.09,0.89,0.28c0.22,0.19,0.36,0.46,0.41,0.81h-0.46c-0.09-0.47-0.37-0.71-0.83-0.71c-0.31,0-0.55,0.11-0.71,0.33
						c-0.16,0.22-0.24,0.54-0.24,0.96v0.29c0,0.4,0.09,0.72,0.27,0.95s0.43,0.35,0.73,0.35c0.17,0,0.33-0.02,0.46-0.06
						s0.24-0.11,0.32-0.2v-0.8h-0.82v-0.38h1.28V109.8z"/>
					<path class="st2" d="M22.07,110.26h-0.47l-1.77-2.74v2.74h-0.47v-3.55h0.47l1.78,2.75v-2.75h0.46V110.26z"/>
					<path class="st2" d="M22.65,110.26v-3.55h0.99c0.31,0,0.58,0.07,0.81,0.21s0.42,0.33,0.55,0.58c0.13,0.25,0.19,0.54,0.2,0.87
						v0.23c0,0.34-0.06,0.63-0.19,0.88c-0.13,0.25-0.31,0.45-0.55,0.58c-0.24,0.13-0.52,0.2-0.83,0.21H22.65z M23.12,107.09v2.79
						h0.49c0.36,0,0.64-0.11,0.84-0.34s0.3-0.54,0.3-0.96v-0.21c0-0.4-0.09-0.72-0.28-0.94c-0.19-0.22-0.46-0.34-0.8-0.34H23.12z"/>
				</g>
				
					<rect x="0.35" y="116.88" transform="matrix(6.123234e-17 -1 1 6.123234e-17 -114.7836 123.5604)" class="st2" width="8.07" height="4.58"/>
				<g>
					<path class="st3" d="M5.89,115.67H6.2v1.27H5.89l-0.07-0.39h-2.8l-0.07,0.39H2.65v-1.27h0.31l0.07,0.39h2.8L5.89,115.67z"/>
					<path class="st3" d="M2.65,117.34h0.33l1.29,1.16c0.23,0.21,0.42,0.35,0.55,0.42s0.28,0.11,0.42,0.11
						c0.18,0,0.33-0.05,0.45-0.16c0.12-0.1,0.18-0.24,0.18-0.41c0-0.24-0.06-0.42-0.19-0.54c-0.13-0.12-0.3-0.17-0.53-0.17v-0.46
						l0.01,0c0.31-0.01,0.56,0.09,0.77,0.3s0.31,0.5,0.31,0.87c0,0.32-0.09,0.57-0.28,0.76c-0.19,0.19-0.42,0.28-0.71,0.28
						c-0.19,0-0.39-0.06-0.58-0.17c-0.19-0.11-0.4-0.27-0.63-0.48l-1.02-0.93l-0.01,0v1.25l0.41,0.04v0.4H2.65V117.34z"/>
					<path class="st3" d="M5.11,122.75v-0.34l0.5-0.09c0.08-0.08,0.14-0.17,0.19-0.29c0.05-0.11,0.07-0.25,0.07-0.4
						c0-0.37-0.13-0.65-0.4-0.84c-0.27-0.2-0.61-0.3-1.02-0.3H4.4c-0.41,0-0.75,0.1-1.02,0.29c-0.27,0.19-0.4,0.46-0.4,0.8
						c0,0.16,0.03,0.31,0.08,0.44c0.05,0.13,0.11,0.23,0.19,0.3l0.5,0.09v0.34H3.1c-0.13-0.1-0.25-0.25-0.35-0.46
						c-0.1-0.2-0.15-0.44-0.15-0.71c0-0.46,0.17-0.83,0.51-1.13s0.77-0.44,1.29-0.44h0.05c0.52,0,0.95,0.14,1.29,0.43
						c0.34,0.29,0.51,0.67,0.51,1.13c0,0.27-0.05,0.5-0.16,0.71c-0.1,0.2-0.22,0.36-0.35,0.46H5.11z"/>
				</g>
				<g>
					<path class="st76" d="M11.61,127.78c1.23,0,2.22,1,2.22,2.24c0,1.24-1,2.24-2.22,2.24s-2.22-1-2.22-2.24
						C9.39,128.78,10.39,127.78,11.61,127.78z"/>
					<ellipse class="st77" cx="11.61" cy="130.02" rx="1.52" ry="1.53"/>
				</g>
				<g>
					<path class="st76" d="M11.61,120.55c1.23,0,2.22,1,2.22,2.24s-1,2.24-2.22,2.24s-2.22-1-2.22-2.24S10.39,120.55,11.61,120.55z"
						/>
					<ellipse class="st77" cx="11.61" cy="122.79" rx="1.52" ry="1.53"/>
				</g>
				<g>
					<path class="st76" d="M11.61,113.43c1.23,0,2.22,1,2.22,2.24s-1,2.24-2.22,2.24s-2.22-1-2.22-2.24S10.39,113.43,11.61,113.43z"
						/>
					<ellipse class="st77" cx="11.61" cy="115.68" rx="1.52" ry="1.53"/>
				</g>
				<g>
					<path class="st76" d="M11.61,106.18c1.23,0,2.22,1,2.22,2.24s-1,2.24-2.22,2.24s-2.22-1-2.22-2.24S10.39,106.18,11.61,106.18z"
						/>
					<ellipse class="st77" cx="11.61" cy="108.43" rx="1.52" ry="1.53"/>
				</g>
			</g>
			<g id="I2C_1_">
				<rect x="8.1" y="22.25" class="st1" width="18.24" height="28.75"/>
				<line class="st1" x1="26.33" y1="44.05" x2="8.1" y2="44.05"/>
				<line class="st1" x1="26.33" y1="36.74" x2="8.1" y2="36.74"/>
				<line class="st1" x1="26.33" y1="29.53" x2="8.1" y2="29.53"/>
				<g>
					<path class="st2" d="M17.27,47.59c-0.4-0.12-0.69-0.26-0.87-0.43c-0.18-0.17-0.27-0.38-0.27-0.62c0-0.28,0.11-0.51,0.33-0.69
						c0.22-0.18,0.51-0.27,0.87-0.27c0.24,0,0.46,0.05,0.65,0.14c0.19,0.09,0.34,0.22,0.44,0.39c0.1,0.17,0.16,0.35,0.16,0.54h-0.47
						c0-0.21-0.07-0.38-0.2-0.51s-0.33-0.19-0.57-0.19c-0.23,0-0.41,0.05-0.54,0.15c-0.13,0.1-0.19,0.24-0.19,0.42
						c0,0.14,0.06,0.27,0.18,0.37c0.12,0.1,0.33,0.19,0.62,0.28c0.29,0.08,0.52,0.17,0.69,0.28c0.17,0.1,0.29,0.22,0.37,0.35
						c0.08,0.13,0.12,0.29,0.12,0.47c0,0.29-0.11,0.52-0.33,0.69c-0.22,0.17-0.52,0.26-0.89,0.26c-0.24,0-0.47-0.05-0.68-0.14
						s-0.37-0.22-0.49-0.38c-0.11-0.16-0.17-0.35-0.17-0.55h0.47c0,0.21,0.08,0.38,0.24,0.51c0.16,0.13,0.37,0.19,0.63,0.19
						c0.25,0,0.43-0.05,0.56-0.15c0.13-0.1,0.2-0.24,0.2-0.41s-0.06-0.31-0.18-0.4C17.81,47.78,17.59,47.69,17.27,47.59z"/>
					<path class="st2" d="M21.52,48.05c-0.04,0.38-0.18,0.67-0.41,0.87c-0.23,0.21-0.54,0.31-0.92,0.31c-0.42,0-0.75-0.15-1-0.45
						c-0.25-0.3-0.38-0.71-0.38-1.21v-0.34c0-0.33,0.06-0.62,0.18-0.87c0.12-0.25,0.28-0.44,0.5-0.58c0.21-0.13,0.46-0.2,0.75-0.2
						c0.38,0,0.67,0.11,0.9,0.32c0.23,0.21,0.36,0.5,0.39,0.88h-0.47c-0.04-0.28-0.13-0.49-0.26-0.62
						c-0.13-0.13-0.32-0.19-0.57-0.19c-0.3,0-0.53,0.11-0.7,0.33c-0.17,0.22-0.25,0.54-0.25,0.95v0.34c0,0.39,0.08,0.69,0.24,0.92
						s0.38,0.34,0.67,0.34c0.26,0,0.46-0.06,0.59-0.18c0.14-0.12,0.23-0.32,0.27-0.62H21.52z"/>
					<path class="st2" d="M22.38,48.8h1.67v0.38h-2.14v-3.55h0.47V48.8z"/>
				</g>
				<g>
					<path class="st2" d="M17.27,40.41c-0.4-0.12-0.69-0.26-0.87-0.43c-0.18-0.17-0.27-0.38-0.27-0.62c0-0.28,0.11-0.51,0.33-0.69
						c0.22-0.18,0.51-0.27,0.87-0.27c0.24,0,0.46,0.05,0.65,0.14c0.19,0.09,0.34,0.22,0.44,0.39c0.1,0.17,0.16,0.35,0.16,0.54h-0.47
						c0-0.21-0.07-0.38-0.2-0.51s-0.33-0.19-0.57-0.19c-0.23,0-0.41,0.05-0.54,0.15c-0.13,0.1-0.19,0.24-0.19,0.42
						c0,0.14,0.06,0.27,0.18,0.37c0.12,0.1,0.33,0.19,0.62,0.28c0.29,0.08,0.52,0.17,0.69,0.28c0.17,0.1,0.29,0.22,0.37,0.35
						c0.08,0.13,0.12,0.29,0.12,0.47c0,0.29-0.11,0.52-0.33,0.69c-0.22,0.17-0.52,0.26-0.89,0.26c-0.24,0-0.47-0.05-0.68-0.14
						s-0.37-0.22-0.49-0.38c-0.11-0.16-0.17-0.35-0.17-0.55h0.47c0,0.21,0.08,0.38,0.24,0.51c0.16,0.13,0.37,0.19,0.63,0.19
						c0.25,0,0.43-0.05,0.56-0.15c0.13-0.1,0.2-0.24,0.2-0.41s-0.06-0.31-0.18-0.4C17.81,40.6,17.59,40.5,17.27,40.41z"/>
					<path class="st2" d="M18.93,41.99v-3.55h0.99c0.31,0,0.58,0.07,0.81,0.21c0.24,0.14,0.42,0.33,0.54,0.58
						c0.13,0.25,0.19,0.54,0.2,0.87v0.23c0,0.34-0.06,0.63-0.19,0.88c-0.13,0.25-0.31,0.45-0.55,0.58c-0.24,0.13-0.52,0.2-0.83,0.21
						H18.93z M19.39,38.82v2.79h0.49c0.36,0,0.64-0.11,0.84-0.34s0.3-0.54,0.3-0.96v-0.21c0-0.4-0.09-0.72-0.28-0.94
						c-0.19-0.22-0.46-0.34-0.8-0.34H19.39z"/>
					<path class="st2" d="M23.88,41.06H22.4l-0.33,0.93h-0.48l1.35-3.55h0.41l1.35,3.55h-0.48L23.88,41.06z M22.54,40.68h1.2
						l-0.6-1.66L22.54,40.68z"/>
				</g>
				<g>
					<path class="st2" d="M17.4,34.28l1.01-2.93h0.51l-1.31,3.55H17.2l-1.3-3.55h0.51L17.4,34.28z"/>
					<path class="st2" d="M20.02,34.59c0.16,0,0.3-0.05,0.42-0.15s0.19-0.22,0.2-0.37h0.42c-0.01,0.15-0.06,0.29-0.15,0.43
						s-0.22,0.25-0.38,0.33c-0.16,0.08-0.33,0.12-0.5,0.12c-0.36,0-0.64-0.12-0.85-0.36c-0.21-0.24-0.32-0.57-0.32-0.99v-0.08
						c0-0.26,0.05-0.49,0.14-0.69c0.09-0.2,0.23-0.36,0.4-0.47c0.17-0.11,0.38-0.17,0.62-0.17c0.29,0,0.54,0.09,0.73,0.27
						c0.19,0.18,0.3,0.41,0.31,0.69h-0.42c-0.01-0.17-0.08-0.31-0.19-0.42c-0.12-0.11-0.26-0.17-0.43-0.17
						c-0.23,0-0.4,0.08-0.53,0.25s-0.19,0.4-0.19,0.72v0.09c0,0.3,0.06,0.54,0.19,0.7C19.61,34.5,19.78,34.59,20.02,34.59z"/>
					<path class="st2" d="M22.36,34.59c0.16,0,0.3-0.05,0.42-0.15c0.12-0.1,0.19-0.22,0.2-0.37h0.42c-0.01,0.15-0.06,0.29-0.15,0.43
						c-0.1,0.14-0.22,0.25-0.38,0.33s-0.33,0.12-0.5,0.12c-0.36,0-0.64-0.12-0.85-0.36c-0.21-0.24-0.32-0.57-0.32-0.99v-0.08
						c0-0.26,0.05-0.49,0.14-0.69c0.09-0.2,0.23-0.36,0.4-0.47s0.38-0.17,0.62-0.17c0.29,0,0.54,0.09,0.73,0.27
						c0.19,0.18,0.3,0.41,0.31,0.69h-0.42c-0.01-0.17-0.08-0.31-0.19-0.42c-0.12-0.11-0.26-0.17-0.43-0.17
						c-0.23,0-0.4,0.08-0.53,0.25s-0.19,0.4-0.19,0.72v0.09c0,0.3,0.06,0.54,0.19,0.7S22.13,34.59,22.36,34.59z"/>
				</g>
				<g>
					<path class="st2" d="M18.84,27.22c-0.12,0.17-0.29,0.3-0.5,0.39c-0.21,0.08-0.46,0.13-0.75,0.13c-0.29,0-0.54-0.07-0.76-0.2
						s-0.4-0.33-0.52-0.58c-0.12-0.25-0.18-0.54-0.19-0.87v-0.31c0-0.54,0.12-0.95,0.37-1.25c0.25-0.29,0.6-0.44,1.04-0.44
						c0.37,0,0.66,0.09,0.89,0.28c0.22,0.19,0.36,0.46,0.41,0.81h-0.46c-0.09-0.47-0.37-0.71-0.83-0.71c-0.31,0-0.55,0.11-0.71,0.33
						c-0.16,0.22-0.24,0.54-0.24,0.96v0.29c0,0.4,0.09,0.72,0.27,0.95s0.43,0.35,0.73,0.35c0.17,0,0.33-0.02,0.46-0.06
						s0.24-0.11,0.32-0.2v-0.8h-0.82v-0.38h1.28V27.22z"/>
					<path class="st2" d="M22.07,27.69h-0.47l-1.77-2.74v2.74h-0.47v-3.55h0.47l1.78,2.75v-2.75h0.46V27.69z"/>
					<path class="st2" d="M22.65,27.69v-3.55h0.99c0.31,0,0.58,0.07,0.81,0.21s0.42,0.33,0.55,0.58c0.13,0.25,0.19,0.54,0.2,0.87
						v0.23c0,0.34-0.06,0.63-0.19,0.88c-0.13,0.25-0.31,0.45-0.55,0.58c-0.24,0.13-0.52,0.2-0.83,0.21H22.65z M23.12,24.52v2.79
						h0.49c0.36,0,0.64-0.11,0.84-0.34s0.3-0.54,0.3-0.96V25.8c0-0.4-0.09-0.72-0.28-0.94c-0.19-0.22-0.46-0.34-0.8-0.34H23.12z"/>
				</g>
				
					<rect x="0.35" y="34.31" transform="matrix(6.123234e-17 -1 1 6.123234e-17 -32.2088 40.9856)" class="st2" width="8.07" height="4.58"/>
				<g>
					<path class="st3" d="M5.89,33.1H6.2v1.27H5.89l-0.07-0.39h-2.8l-0.07,0.39H2.65V33.1h0.31l0.07,0.39h2.8L5.89,33.1z"/>
					<path class="st3" d="M2.65,34.76h0.33l1.29,1.16c0.23,0.21,0.42,0.35,0.55,0.42s0.28,0.11,0.42,0.11
						c0.18,0,0.33-0.05,0.45-0.16c0.12-0.1,0.18-0.24,0.18-0.41c0-0.24-0.06-0.42-0.19-0.54c-0.13-0.12-0.3-0.17-0.53-0.17v-0.46
						l0.01,0c0.31-0.01,0.56,0.09,0.77,0.3s0.31,0.5,0.31,0.87c0,0.32-0.09,0.57-0.28,0.76c-0.19,0.19-0.42,0.28-0.71,0.28
						c-0.19,0-0.39-0.06-0.58-0.17c-0.19-0.11-0.4-0.27-0.63-0.48l-1.02-0.93l-0.01,0v1.25l0.41,0.04v0.4H2.65V34.76z"/>
					<path class="st3" d="M5.11,40.17v-0.34l0.5-0.09c0.08-0.08,0.14-0.17,0.19-0.29c0.05-0.11,0.07-0.25,0.07-0.4
						c0-0.37-0.13-0.65-0.4-0.84c-0.27-0.2-0.61-0.3-1.02-0.3H4.4c-0.41,0-0.75,0.1-1.02,0.29c-0.27,0.19-0.4,0.46-0.4,0.8
						c0,0.16,0.03,0.31,0.08,0.44c0.05,0.13,0.11,0.23,0.19,0.3l0.5,0.09v0.34H3.1c-0.13-0.1-0.25-0.25-0.35-0.46
						c-0.1-0.2-0.15-0.44-0.15-0.71c0-0.46,0.17-0.83,0.51-1.13s0.77-0.44,1.29-0.44h0.05c0.52,0,0.95,0.14,1.29,0.43
						c0.34,0.29,0.51,0.67,0.51,1.13c0,0.27-0.05,0.5-0.16,0.71c-0.1,0.2-0.22,0.36-0.35,0.46H5.11z"/>
				</g>
				<g>
					<path class="st76" d="M11.61,45.2c1.23,0,2.22,1,2.22,2.24s-1,2.24-2.22,2.24s-2.22-1-2.22-2.24S10.39,45.2,11.61,45.2z"/>
					<ellipse class="st77" cx="11.61" cy="47.44" rx="1.52" ry="1.53"/>
				</g>
				<g>
					<path class="st76" d="M11.61,37.98c1.23,0,2.22,1,2.22,2.24s-1,2.24-2.22,2.24s-2.22-1-2.22-2.24S10.39,37.98,11.61,37.98z"/>
					<ellipse class="st77" cx="11.61" cy="40.22" rx="1.52" ry="1.53"/>
				</g>
				<g>
					<path class="st76" d="M11.61,30.86c1.23,0,2.22,1,2.22,2.24c0,1.24-1,2.24-2.22,2.24s-2.22-1-2.22-2.24
						C9.39,31.86,10.39,30.86,11.61,30.86z"/>
					<ellipse class="st77" cx="11.61" cy="33.1" rx="1.52" ry="1.53"/>
				</g>
				<g>
					<path class="st76" d="M11.61,23.61c1.23,0,2.22,1,2.22,2.24c0,1.24-1,2.24-2.22,2.24s-2.22-1-2.22-2.24
						C9.39,24.61,10.39,23.61,11.61,23.61z"/>
					<ellipse class="st77" cx="11.61" cy="25.85" rx="1.52" ry="1.53"/>
				</g>
			</g>
			<g>
				<path class="st7" d="M147.52,93.07v-1.01l2.59-2.32l-0.62-0.58h-1.97v-0.78h5.82v0.78h-3.04l3.04,2.85v0.95l-2.73-2.62
					L147.52,93.07z"/>
				<path class="st7" d="M150.32,96.84c-0.11,0.13-0.25,0.23-0.42,0.31c-0.17,0.08-0.39,0.12-0.66,0.12c-0.27,0-0.51-0.05-0.73-0.15
					c-0.22-0.1-0.41-0.23-0.58-0.41c-0.18-0.2-0.32-0.43-0.4-0.7c-0.09-0.27-0.13-0.56-0.13-0.88c0-0.33,0.04-0.65,0.12-0.96
					c0.08-0.31,0.16-0.57,0.25-0.78h0.82v0.06c-0.15,0.22-0.27,0.49-0.36,0.79s-0.14,0.59-0.14,0.88c0,0.17,0.03,0.34,0.08,0.53
					s0.14,0.34,0.24,0.45c0.11,0.12,0.24,0.21,0.38,0.27c0.14,0.06,0.31,0.09,0.52,0.09c0.21,0,0.38-0.03,0.52-0.1
					c0.14-0.07,0.24-0.16,0.32-0.28c0.08-0.12,0.14-0.26,0.17-0.43s0.04-0.35,0.04-0.54v-0.35H151v0.28c0,0.4,0.08,0.72,0.25,0.96
					c0.17,0.24,0.41,0.36,0.72,0.36c0.14,0,0.26-0.03,0.37-0.09c0.11-0.06,0.19-0.14,0.26-0.25c0.07-0.11,0.11-0.23,0.14-0.36
					s0.04-0.27,0.04-0.44c0-0.25-0.04-0.51-0.13-0.8c-0.09-0.28-0.21-0.55-0.38-0.79v-0.04h0.82c0.09,0.19,0.17,0.44,0.25,0.75
					c0.08,0.31,0.12,0.61,0.12,0.9c0,0.29-0.03,0.54-0.08,0.76s-0.14,0.42-0.25,0.59c-0.13,0.19-0.28,0.33-0.45,0.43
					c-0.18,0.1-0.38,0.15-0.62,0.15c-0.32,0-0.6-0.11-0.85-0.34c-0.24-0.23-0.39-0.5-0.46-0.81h-0.05
					c-0.02,0.13-0.06,0.27-0.13,0.43S150.42,96.73,150.32,96.84z"/>
			</g>
			<g>
				<path class="st7" d="M147.52,120.82v-1.01l2.59-2.32l-0.62-0.58h-1.97v-0.78h5.82v0.78h-3.04l3.04,2.85v0.95l-2.73-2.62
					L147.52,120.82z"/>
				<path class="st7" d="M149.16,125.24v-0.87h-1.64v-0.76h1.64v-2.81h0.9l3.28,2.84v0.73h-3.55v0.87H149.16z M149.78,123.61h2.63
					l-2.63-2.27V123.61z"/>
			</g>
			<g>
				<path class="st7" d="M147.52,64.01V63l2.59-2.32l-0.62-0.58h-1.97v-0.78h5.82v0.78h-3.04l3.04,2.85v0.95l-2.73-2.62
					L147.52,64.01z"/>
				<path class="st7" d="M147.52,68.3v-3.97h0.82c0.23,0.28,0.47,0.55,0.7,0.83c0.23,0.28,0.47,0.54,0.7,0.77
					c0.48,0.5,0.87,0.85,1.15,1.04c0.29,0.19,0.59,0.28,0.92,0.28c0.3,0,0.54-0.1,0.71-0.3c0.17-0.2,0.26-0.48,0.26-0.84
					c0-0.24-0.04-0.5-0.13-0.78s-0.21-0.55-0.38-0.82v-0.04h0.82c0.09,0.19,0.17,0.44,0.25,0.75c0.08,0.31,0.11,0.61,0.11,0.9
					c0,0.6-0.14,1.07-0.43,1.41c-0.29,0.34-0.68,0.51-1.17,0.51c-0.22,0-0.43-0.03-0.62-0.08s-0.37-0.14-0.54-0.25
					c-0.16-0.1-0.32-0.22-0.48-0.36s-0.33-0.31-0.52-0.5c-0.27-0.28-0.54-0.57-0.79-0.87s-0.49-0.58-0.71-0.84v3.16H147.52z"/>
			</g>
			<g>
				<path class="st7" d="M147.52,34.84v-1.01l2.59-2.32l-0.62-0.58h-1.97v-0.78h5.82v0.78h-3.04l3.04,2.85v0.95l-2.73-2.62
					L147.52,34.84z"/>
				<path class="st7" d="M147.52,38.8v-3.17h0.59v1.22h3.9v-1.22h0.53c0,0.17,0.01,0.34,0.04,0.53c0.03,0.19,0.07,0.33,0.12,0.43
					c0.07,0.12,0.15,0.22,0.25,0.29c0.1,0.07,0.24,0.11,0.4,0.12v0.61h-5.24v1.2H147.52z"/>
			</g>
			<line class="st78" x1="154.26" y1="49.29" x2="121.21" y2="49.29"/>
			<line class="st78" x1="154.26" y1="78.04" x2="121.21" y2="78.04"/>
			<line class="st78" x1="154.26" y1="106.73" x2="121.21" y2="106.73"/>
		</g>
		<g>
			<g>
				<g>
					<path class="st7" d="M70.22,132.29v-2.15H68.1v-0.65h2.13v-2.15h0.63v2.15h2.13v0.65h-2.13v2.15H70.22z"/>
				</g>
			</g>
			<g>
				<g>
					<path class="st7" d="M90.58,130.2h-4.44v-0.71h4.44V130.2z"/>
				</g>
			</g>
		</g>
		<g>
			<g>
				<g>
					<path class="st7" d="M70.48,28.42v-2.15h-2.13v-0.65h2.13v-2.15h0.63v2.15h2.13v0.65H71.1v2.15H70.48z"/>
				</g>
			</g>
			<g>
				<g>
					<path class="st7" d="M90.84,26.33H86.4v-0.71h4.44V26.33z"/>
				</g>
			</g>
		</g>
		<g>
			<g>
				<path class="st7" d="M78.44,127.3l-1.87,5.09h-0.91l-1.87-5.09h0.73l1.61,4.48l1.61-4.48H78.44z"/>
				<path class="st7" d="M79.51,127.93h-0.73v-0.67h0.73V127.93z M79.47,132.39h-0.65v-3.82h0.65V132.39z"/>
				<path class="st7" d="M83.62,132.39h-0.65v-2.17c0-0.18-0.01-0.34-0.03-0.49c-0.02-0.15-0.06-0.27-0.11-0.36
					c-0.06-0.1-0.14-0.17-0.25-0.21s-0.25-0.07-0.42-0.07c-0.18,0-0.36,0.04-0.55,0.13c-0.19,0.09-0.38,0.2-0.55,0.33v2.85H80.4
					v-3.82h0.65v0.42c0.2-0.17,0.41-0.3,0.63-0.39c0.22-0.09,0.44-0.14,0.67-0.14c0.42,0,0.73,0.12,0.95,0.37
					c0.22,0.25,0.33,0.61,0.33,1.07V132.39z"/>
			</g>
		</g>
		<g>
			<g>
				<path class="st7" d="M80.02,28.56l1.87-5.09h0.91l1.87,5.09h-0.73l-1.61-4.48l-1.61,4.48H80.02z"/>
				<path class="st7" d="M78.95,27.93h0.73v0.67h-0.73V27.93z M78.99,23.47h0.65v3.82h-0.65V23.47z"/>
				<path class="st7" d="M74.84,23.47h0.65v2.17c0,0.18,0.01,0.34,0.03,0.49c0.02,0.15,0.06,0.27,0.11,0.36
					c0.06,0.1,0.14,0.17,0.25,0.21s0.25,0.07,0.42,0.07c0.18,0,0.36-0.04,0.55-0.13c0.19-0.09,0.38-0.2,0.55-0.33v-2.85h0.65v3.82
					h-0.65v-0.42c-0.2,0.17-0.41,0.3-0.63,0.39c-0.22,0.09-0.44,0.14-0.67,0.14c-0.42,0-0.73-0.12-0.95-0.37
					c-0.22-0.25-0.33-0.61-0.33-1.07V23.47z"/>
			</g>
		</g>
		<g>
			<circle class="st7" cx="86.3" cy="121.02" r="3.54"/>
			<circle class="st76" cx="86.3" cy="121.02" r="3.54"/>
			<circle class="st77" cx="86.3" cy="121.02" r="2.18"/>
		</g>
		<g>
			<circle class="st76" cx="71.8" cy="121.02" r="3.54"/>
			<circle class="st77" cx="71.8" cy="121.02" r="2.18"/>
		</g>
		<g>
			<circle class="st7" cx="86.3" cy="34.77" r="3.54"/>
			<circle class="st76" cx="86.3" cy="34.77" r="3.54"/>
			<circle class="st77" cx="86.3" cy="34.77" r="2.18"/>
		</g>
		<g>
			<circle class="st76" cx="71.8" cy="34.77" r="3.54"/>
			<circle class="st77" cx="71.8" cy="34.77" r="2.18"/>
		</g>
		<g>
			<g>
				<g>
					<path class="st7" d="M144.44,114.17h-2.15v2.13h-0.65v-2.13h-2.15v-0.63h2.15v-2.13h0.65v2.13h2.15V114.17z"/>
				</g>
			</g>
			<g>
				<g>
					<path class="st7" d="M120.67,111.02h-1.01v1h-0.31v-1h-1.01v-0.29h1.01v-1h0.31v1h1.01V111.02z"/>
				</g>
			</g>
			<g>
				<g>
					<path class="st7" d="M141.65,130.5v-4.44h0.71v4.44H141.65z"/>
				</g>
			</g>
			<g>
				<g>
					<path class="st7" d="M121.08,115.23l-2.7-0.99v-0.48l2.7-0.99v0.39l-2.38,0.86l2.38,0.86V115.23z"/>
					<path class="st7" d="M118.38,115.87v-0.34h2.03v0.34H118.38z M120.75,115.9v-0.39h0.35v0.39H120.75z"/>
					<path class="st7" d="M118.38,118.17v-0.34h1.15c0.09,0,0.18-0.01,0.26-0.02s0.15-0.03,0.19-0.06c0.05-0.03,0.09-0.07,0.11-0.13
						c0.02-0.06,0.04-0.13,0.04-0.22c0-0.09-0.02-0.19-0.07-0.29s-0.1-0.2-0.18-0.29h-1.51v-0.34h2.03v0.34h-0.23
						c0.09,0.11,0.16,0.22,0.21,0.33c0.05,0.11,0.07,0.23,0.07,0.35c0,0.22-0.07,0.39-0.2,0.5s-0.32,0.17-0.57,0.17H118.38z"/>
				</g>
			</g>
			<g>
				<circle class="st7" cx="134.69" cy="128.2" r="3.54"/>
				<circle class="st76" cx="134.69" cy="128.2" r="3.54"/>
				<circle class="st77" cx="134.69" cy="128.2" r="2.18"/>
			</g>
			<g>
				<circle class="st7" cx="134.69" cy="113.81" r="3.54"/>
				<circle class="st76" cx="134.69" cy="113.81" r="3.54"/>
				<circle class="st77" cx="134.69" cy="113.81" r="2.18"/>
			</g>
			<line class="st79" x1="130.51" y1="128.2" x2="120.59" y2="128.2"/>
			
				<rect x="119.88" y="126.8" transform="matrix(-1 -1.224647e-16 1.224647e-16 -1 240.7891 256.3503)" class="st7" width="1.03" height="2.75"/>
			<polyline class="st79" points="124.04,116.33 129.1,113.81 130.51,113.81 			"/>
			<polyline class="st79" points="124.07,114.53 124.07,113.81 121.38,113.81 			"/>
		</g>
		<g>
			<g>
				<g>
					<path class="st7" d="M144.44,85.57h-2.15v2.13h-0.65v-2.13h-2.15v-0.63h2.15v-2.13h0.65v2.13h2.15V85.57z"/>
				</g>
			</g>
			<g>
				<g>
					<path class="st7" d="M120.67,82.42h-1.01v1h-0.31v-1h-1.01v-0.29h1.01v-1h0.31v1h1.01V82.42z"/>
				</g>
			</g>
			<g>
				<g>
					<path class="st7" d="M141.65,101.9v-4.44h0.71v4.44H141.65z"/>
				</g>
			</g>
			<g>
				<g>
					<path class="st7" d="M121.08,86.63l-2.7-0.99v-0.48l2.7-0.99v0.39l-2.38,0.86l2.38,0.86V86.63z"/>
					<path class="st7" d="M118.38,87.27v-0.34h2.03v0.34H118.38z M120.75,87.3v-0.39h0.35v0.39H120.75z"/>
					<path class="st7" d="M118.38,89.57v-0.34h1.15c0.09,0,0.18-0.01,0.26-0.02s0.15-0.03,0.19-0.06c0.05-0.03,0.09-0.07,0.11-0.13
						c0.02-0.06,0.04-0.13,0.04-0.22c0-0.09-0.02-0.19-0.07-0.29s-0.1-0.2-0.18-0.29h-1.51v-0.34h2.03v0.34h-0.23
						c0.09,0.11,0.16,0.22,0.21,0.33c0.05,0.11,0.07,0.23,0.07,0.35c0,0.22-0.07,0.39-0.2,0.5s-0.32,0.17-0.57,0.17H118.38z"/>
				</g>
			</g>
			<g>
				<circle class="st7" cx="134.69" cy="99.6" r="3.54"/>
				<circle class="st76" cx="134.69" cy="99.6" r="3.54"/>
				<circle class="st77" cx="134.69" cy="99.6" r="2.18"/>
			</g>
			<g>
				<circle class="st7" cx="134.69" cy="85.21" r="3.54"/>
				<circle class="st76" cx="134.69" cy="85.21" r="3.54"/>
				<circle class="st77" cx="134.69" cy="85.21" r="2.18"/>
			</g>
			<line class="st79" x1="130.51" y1="99.6" x2="120.59" y2="99.6"/>
			
				<rect x="119.88" y="98.2" transform="matrix(-1 -1.224647e-16 1.224647e-16 -1 240.7891 199.151)" class="st7" width="1.03" height="2.75"/>
			<polyline class="st79" points="124.04,87.73 129.1,85.21 130.51,85.21 			"/>
			<polyline class="st79" points="124.07,85.93 124.07,85.21 121.38,85.21 			"/>
		</g>
		<g>
			<g>
				<g>
					<path class="st7" d="M144.44,56.57h-2.15v2.13h-0.65v-2.13h-2.15v-0.63h2.15v-2.13h0.65v2.13h2.15V56.57z"/>
				</g>
			</g>
			<g>
				<g>
					<path class="st7" d="M120.67,53.42h-1.01v1h-0.31v-1h-1.01v-0.29h1.01v-1h0.31v1h1.01V53.42z"/>
				</g>
			</g>
			<g>
				<g>
					<path class="st7" d="M141.65,72.9v-4.44h0.71v4.44H141.65z"/>
				</g>
			</g>
			<g>
				<g>
					<path class="st7" d="M121.08,57.63l-2.7-0.99v-0.48l2.7-0.99v0.39l-2.38,0.86l2.38,0.86V57.63z"/>
					<path class="st7" d="M118.38,58.27v-0.34h2.03v0.34H118.38z M120.75,58.3v-0.39h0.35v0.39H120.75z"/>
					<path class="st7" d="M118.38,60.57v-0.34h1.15c0.09,0,0.18-0.01,0.26-0.02s0.15-0.03,0.19-0.06c0.05-0.03,0.09-0.07,0.11-0.13
						c0.02-0.06,0.04-0.13,0.04-0.22c0-0.09-0.02-0.19-0.07-0.29s-0.1-0.2-0.18-0.29h-1.51v-0.34h2.03v0.34h-0.23
						c0.09,0.11,0.16,0.22,0.21,0.33c0.05,0.11,0.07,0.23,0.07,0.35c0,0.22-0.07,0.39-0.2,0.5s-0.32,0.17-0.57,0.17H118.38z"/>
				</g>
			</g>
			<g>
				<circle class="st7" cx="134.69" cy="70.6" r="3.54"/>
				<circle class="st76" cx="134.69" cy="70.6" r="3.54"/>
				<circle class="st77" cx="134.69" cy="70.6" r="2.18"/>
			</g>
			<g>
				<circle class="st7" cx="134.69" cy="56.21" r="3.54"/>
				<circle class="st76" cx="134.69" cy="56.21" r="3.54"/>
				<circle class="st77" cx="134.69" cy="56.21" r="2.18"/>
			</g>
			<line class="st79" x1="130.51" y1="70.6" x2="120.59" y2="70.6"/>
			
				<rect x="119.88" y="69.2" transform="matrix(-1 -1.224647e-16 1.224647e-16 -1 240.7891 141.1523)" class="st7" width="1.03" height="2.75"/>
			<polyline class="st79" points="124.04,58.73 129.1,56.21 130.51,56.21 			"/>
			<polyline class="st79" points="124.07,56.94 124.07,56.21 121.38,56.21 			"/>
		</g>
		<g>
			<g>
				<g>
					<path class="st7" d="M144.44,27.97h-2.15v2.13h-0.65v-2.13h-2.15v-0.63h2.15v-2.13h0.65v2.13h2.15V27.97z"/>
				</g>
			</g>
			<g>
				<g>
					<path class="st7" d="M120.67,24.82h-1.01v1h-0.31v-1h-1.01v-0.29h1.01v-1h0.31v1h1.01V24.82z"/>
				</g>
			</g>
			<g>
				<g>
					<path class="st7" d="M141.65,44.3v-4.44h0.71v4.44H141.65z"/>
				</g>
			</g>
			<g>
				<g>
					<path class="st7" d="M121.08,29.03l-2.7-0.99v-0.48l2.7-0.99v0.39l-2.38,0.86l2.38,0.86V29.03z"/>
					<path class="st7" d="M118.38,29.67v-0.34h2.03v0.34H118.38z M120.75,29.7v-0.39h0.35v0.39H120.75z"/>
					<path class="st7" d="M118.38,31.97v-0.34h1.15c0.09,0,0.18-0.01,0.26-0.02s0.15-0.03,0.19-0.06c0.05-0.03,0.09-0.07,0.11-0.13
						c0.02-0.06,0.04-0.13,0.04-0.22c0-0.09-0.02-0.19-0.07-0.29s-0.1-0.2-0.18-0.29h-1.51v-0.34h2.03v0.34h-0.23
						c0.09,0.11,0.16,0.22,0.21,0.33c0.05,0.11,0.07,0.23,0.07,0.35c0,0.22-0.07,0.39-0.2,0.5s-0.32,0.17-0.57,0.17H118.38z"/>
				</g>
			</g>
			<g>
				<circle class="st7" cx="134.69" cy="42" r="3.54"/>
				<circle class="st76" cx="134.69" cy="42" r="3.54"/>
				<circle class="st77" cx="134.69" cy="42" r="2.18"/>
			</g>
			<g>
				<circle class="st7" cx="134.69" cy="27.61" r="3.54"/>
				<circle class="st76" cx="134.69" cy="27.61" r="3.54"/>
				<circle class="st77" cx="134.69" cy="27.61" r="2.18"/>
			</g>
			<line class="st79" x1="130.51" y1="42" x2="120.59" y2="42"/>
			
				<rect x="119.88" y="40.6" transform="matrix(-1 -1.224647e-16 1.224647e-16 -1 240.7891 83.953)" class="st7" width="1.03" height="2.75"/>
			<polyline class="st79" points="124.04,30.13 129.1,27.61 130.51,27.61 			"/>
			<polyline class="st79" points="124.07,28.34 124.07,27.61 121.38,27.61 			"/>
		</g>
		<g>
			<path class="st2" d="M5.84,70.83c0,0.4-0.09,0.72-0.28,0.95c-0.18,0.23-0.44,0.34-0.77,0.34c-0.18,0-0.33-0.05-0.47-0.14
				c-0.13-0.1-0.24-0.24-0.32-0.42c-0.06,0.21-0.17,0.36-0.31,0.45c-0.14,0.09-0.32,0.14-0.54,0.14H2.99
				c-0.08,0-0.14,0.02-0.18,0.05c-0.04,0.03-0.07,0.08-0.08,0.15l-0.01,0.09H2.29v-0.37c0-0.23,0.06-0.4,0.19-0.49
				c0.13-0.09,0.29-0.14,0.49-0.14h0.2c0.17,0,0.31-0.05,0.41-0.14s0.15-0.22,0.15-0.39v-0.58H2.79l-0.07,0.38H2.29v-1.47h0.43
				l0.07,0.38h2.55l0.07-0.38h0.43v0.38V70.83z M4.27,70.33v0.49c0,0.2,0.04,0.35,0.13,0.45s0.21,0.15,0.37,0.15
				s0.29-0.05,0.38-0.15c0.1-0.1,0.14-0.24,0.14-0.44v-0.5H4.27z"/>
			<path class="st2" d="M5.84,73.73H5.41l-0.07-0.38H3.48c-0.23,0-0.41,0.06-0.53,0.19s-0.17,0.3-0.17,0.52
				c0,0.22,0.06,0.4,0.17,0.53s0.29,0.19,0.53,0.19h1.86l0.07-0.38h0.43v1.47H5.41l-0.07-0.38H3.48c-0.4,0-0.71-0.13-0.92-0.39
				s-0.32-0.61-0.32-1.03c0-0.42,0.11-0.77,0.32-1.03c0.22-0.26,0.52-0.39,0.92-0.39h1.86l0.07-0.38h0.43v0.38v0.71V73.73z"/>
			<path class="st2" d="M4.71,78.4v-0.53l0.49-0.09c0.04-0.06,0.07-0.15,0.1-0.27s0.04-0.25,0.04-0.38c0-0.2-0.04-0.35-0.12-0.45
				s-0.19-0.16-0.32-0.16c-0.12,0-0.22,0.06-0.3,0.17s-0.16,0.3-0.25,0.58c-0.11,0.39-0.25,0.69-0.43,0.89
				c-0.18,0.2-0.42,0.3-0.71,0.3c-0.3,0-0.54-0.12-0.72-0.36c-0.18-0.24-0.26-0.56-0.26-0.95c0-0.28,0.04-0.54,0.13-0.76
				c0.09-0.23,0.21-0.42,0.37-0.57h0.74v0.55l-0.5,0.08c-0.06,0.07-0.11,0.17-0.15,0.29s-0.06,0.26-0.06,0.41
				c0,0.2,0.04,0.34,0.12,0.45c0.08,0.1,0.19,0.15,0.32,0.15c0.14,0,0.25-0.05,0.33-0.15c0.08-0.1,0.16-0.27,0.23-0.51
				c0.12-0.42,0.27-0.74,0.43-0.96c0.17-0.22,0.4-0.33,0.69-0.33c0.29,0,0.52,0.12,0.71,0.37c0.18,0.24,0.28,0.55,0.28,0.92
				c0,0.27-0.04,0.52-0.13,0.75c-0.08,0.22-0.19,0.41-0.33,0.57H4.71z"/>
			<path class="st2" d="M4.71,81.06v-0.53l0.49-0.09c0.04-0.06,0.07-0.15,0.1-0.27s0.04-0.25,0.04-0.38c0-0.2-0.04-0.35-0.12-0.45
				s-0.19-0.16-0.32-0.16c-0.12,0-0.22,0.06-0.3,0.17s-0.16,0.3-0.25,0.58C4.25,80.3,4.1,80.6,3.93,80.8
				c-0.18,0.2-0.42,0.3-0.71,0.3c-0.3,0-0.54-0.12-0.72-0.36c-0.18-0.24-0.26-0.56-0.26-0.95c0-0.28,0.04-0.54,0.13-0.76
				c0.09-0.23,0.21-0.42,0.37-0.57h0.74v0.55l-0.5,0.08c-0.06,0.07-0.11,0.17-0.15,0.29s-0.06,0.26-0.06,0.41
				c0,0.2,0.04,0.34,0.12,0.45c0.08,0.1,0.19,0.15,0.32,0.15c0.14,0,0.25-0.05,0.33-0.15c0.08-0.1,0.16-0.27,0.23-0.51
				C3.9,79.32,4.05,79,4.21,78.78c0.17-0.22,0.4-0.33,0.69-0.33c0.29,0,0.52,0.12,0.71,0.37c0.18,0.24,0.28,0.55,0.28,0.92
				c0,0.27-0.04,0.52-0.13,0.75c-0.08,0.22-0.19,0.41-0.33,0.57H4.71z"/>
			<path class="st2" d="M5.41,81.01h0.43v1.47H5.41L5.34,82.1H2.79l-0.07,0.38H2.29v-1.47h0.43l0.07,0.38h2.55L5.41,81.01z"/>
			<path class="st2" d="M2.71,82.34l0.04,0.25l3.09,1.08v0.73l-3.09,1.07l-0.04,0.25H2.29v-1.21h0.43l0.04,0.25l0.49-0.16v-1.15
				l-0.49-0.16l-0.04,0.25H2.29v-1.21H2.71z M3.77,83.63v0.82l1.25-0.4v-0.02L3.77,83.63z"/>
		</g>
		<g>
			<path class="st2" d="M115.55,40.01l0-0.02l-4.01-1.61v-0.45l4.01-1.61l0-0.02l-2.03,0.07h-1.45l-0.1,0.56h-0.43v-1.79h0.43
				l0.1,0.56h3.94l0.1-0.56h0.44v0.56v0.86l-4.07,1.59v0.02l4.07,1.58v1.42h-0.44l-0.1-0.56h-3.94l-0.1,0.56h-0.43v-1.79h0.43
				l0.1,0.56h1.45L115.55,40.01z"/>
			<path class="st2" d="M113.43,41.55c0.55,0,1,0.15,1.36,0.44c0.36,0.3,0.54,0.7,0.54,1.21c0,0.51-0.18,0.91-0.53,1.21
				c-0.35,0.3-0.81,0.45-1.36,0.45h-0.08c-0.55,0-1.01-0.15-1.36-0.44c-0.35-0.3-0.53-0.7-0.53-1.21c0-0.51,0.18-0.92,0.53-1.21
				c0.35-0.3,0.81-0.44,1.36-0.44H113.43z M113.36,42.22c-0.39,0-0.72,0.08-0.98,0.25c-0.26,0.17-0.38,0.41-0.38,0.74
				c0,0.32,0.13,0.56,0.38,0.73c0.26,0.17,0.58,0.25,0.98,0.25h0.08c0.39,0,0.71-0.08,0.97-0.25c0.26-0.17,0.39-0.41,0.39-0.74
				c0-0.32-0.13-0.57-0.39-0.73c-0.26-0.16-0.58-0.25-0.97-0.25H113.36z"/>
			<path class="st2" d="M112.07,45.26c0.22,0.19,0.45,0.33,0.69,0.43s0.61,0.17,1.1,0.2l0.87,0.03l0.09-0.54h0.44v2.97v0.56h-0.44
				l-0.1-0.56h-2.66v0.49l-1.62-0.07v-0.61h1.09v-2.55h-1.09v-0.6l1.62-0.07V45.26z M113.86,46.57c-0.41-0.02-0.76-0.08-1.06-0.18
				c-0.29-0.09-0.54-0.21-0.74-0.36v1.66h2.59V46.6L113.86,46.57z"/>
			<path class="st2" d="M114.82,52.85l-0.05-0.33l-3.8-1.41c-0.25-0.09-0.47-0.23-0.65-0.4c-0.19-0.17-0.28-0.41-0.28-0.71
				c0-0.05,0.01-0.12,0.02-0.21c0.01-0.08,0.02-0.15,0.04-0.2l0.53,0.07c0-0.01,0,0.03-0.01,0.12c-0.01,0.09-0.01,0.15-0.01,0.18
				c0,0.14,0.06,0.26,0.19,0.35s0.27,0.17,0.43,0.23l0.38,0.16l3.16-1.22l0.05-0.34h0.44v1.49h-0.44l-0.07-0.42l-1.84,0.64
				l-0.47,0.12v0.02l2.31,0.77l0.07-0.42h0.44v1.49H114.82z"/>
			<path class="st2" d="M114.72,54.39h-1.05c-0.73,0-1.27-0.1-1.62-0.29s-0.52-0.52-0.52-0.99v-0.19l0.58,0.01l0,0.14
				c0,0.24,0.12,0.41,0.35,0.5c0.24,0.09,0.63,0.14,1.2,0.14h1.06l0.1-0.56h0.44v3.16v0.56h-0.44l-0.1-0.56h-2.66l-0.1,0.56h-0.43
				v-1.79h0.43l0.1,0.56h2.65V54.39z"/>
			<path class="st2" d="M115.26,58.57h-1.28v0.92c0,0.44-0.11,0.78-0.33,1.02c-0.22,0.24-0.51,0.37-0.87,0.37
				c-0.36,0-0.66-0.12-0.89-0.37c-0.23-0.25-0.35-0.58-0.35-1.02v-2.15h0.43l0.1,0.56h2.66l0.1-0.56h0.44v0.56V58.57z M113.45,58.57
				h-1.38v0.92c0,0.24,0.06,0.42,0.19,0.54c0.13,0.12,0.29,0.17,0.49,0.17c0.19,0,0.35-0.06,0.49-0.17s0.21-0.3,0.21-0.54V58.57z
				 M115.26,59.13h-0.44l-0.1-0.56h0.53V59.13z"/>
			<path class="st2" d="M112,64.51c0,0.22,0.07,0.42,0.21,0.59s0.31,0.25,0.51,0.25v0.6l-0.02,0.01c-0.32,0.01-0.61-0.13-0.85-0.43
				c-0.25-0.29-0.37-0.64-0.37-1.03c0-0.54,0.18-0.95,0.53-1.23c0.35-0.28,0.8-0.43,1.33-0.43h0.14c0.53,0,0.97,0.14,1.33,0.43
				c0.35,0.28,0.53,0.69,0.53,1.23c0,0.3-0.05,0.56-0.15,0.8c-0.1,0.24-0.23,0.43-0.41,0.59l-0.83,0.03v-0.54l0.58-0.15
				c0.08-0.08,0.14-0.18,0.19-0.31c0.05-0.13,0.07-0.27,0.07-0.42c0-0.35-0.13-0.61-0.38-0.76c-0.26-0.15-0.57-0.23-0.94-0.23h-0.14
				c-0.38,0-0.7,0.08-0.95,0.23S112,64.15,112,64.51z"/>
			<path class="st2" d="M115.26,68.26h-0.44l-0.1-0.56h-2.1l-0.01,0.02l2.64,1.63v0.67v0.56h-0.44l-0.1-0.56h-2.66l-0.1,0.56h-0.43
				V68.8h0.43l0.1,0.56h2.1l0.01-0.02l-2.64-1.63v-1.23h0.43l0.1,0.56h2.66l0.1-0.56h0.44v1.23V68.26z"/>
			<path class="st2" d="M114.72,72.45h-1.05c-0.73,0-1.27-0.1-1.62-0.29s-0.52-0.52-0.52-0.99v-0.19l0.58,0.01l0,0.14
				c0,0.24,0.12,0.41,0.35,0.5c0.24,0.09,0.63,0.14,1.2,0.14h1.06l0.1-0.56h0.44v3.16v0.56h-0.44l-0.1-0.56h-2.66l-0.1,0.56h-0.43
				v-1.79h0.43l0.1,0.56h2.65V72.45z"/>
			<path class="st2" d="M113.43,75.37c0.55,0,1,0.15,1.36,0.44c0.36,0.3,0.54,0.7,0.54,1.21c0,0.51-0.18,0.91-0.53,1.21
				c-0.35,0.3-0.81,0.45-1.36,0.45h-0.08c-0.55,0-1.01-0.15-1.36-0.44c-0.35-0.3-0.53-0.7-0.53-1.21c0-0.51,0.18-0.92,0.53-1.21
				c0.35-0.3,0.81-0.44,1.36-0.44H113.43z M113.36,76.05c-0.39,0-0.72,0.08-0.98,0.25c-0.26,0.17-0.38,0.41-0.38,0.74
				c0,0.32,0.13,0.56,0.38,0.73c0.26,0.17,0.58,0.25,0.98,0.25h0.08c0.39,0,0.71-0.08,0.97-0.25c0.26-0.17,0.39-0.41,0.39-0.74
				c0-0.32-0.13-0.57-0.39-0.73c-0.26-0.16-0.58-0.25-0.97-0.25H113.36z"/>
			<path class="st2" d="M115.26,81.16c0,0.49-0.08,0.87-0.26,1.14c-0.17,0.27-0.43,0.4-0.77,0.4c-0.17,0-0.33-0.05-0.47-0.16
				c-0.14-0.11-0.24-0.25-0.31-0.44c-0.06,0.23-0.16,0.41-0.32,0.54s-0.34,0.19-0.54,0.19c-0.35,0-0.61-0.13-0.79-0.38
				c-0.18-0.25-0.27-0.61-0.27-1.06v-2.25h0.43l0.1,0.56h2.66l0.1-0.56h0.44v0.56V81.16z M113.17,80.38h-1.11v1.02
				c0,0.25,0.05,0.44,0.14,0.57s0.23,0.19,0.41,0.19c0.18,0,0.31-0.06,0.41-0.19c0.1-0.13,0.14-0.32,0.14-0.57V80.38z M113.69,80.38
				v0.79c0,0.29,0.04,0.5,0.13,0.64s0.21,0.22,0.38,0.22c0.18,0,0.31-0.07,0.4-0.22c0.09-0.14,0.13-0.36,0.13-0.65v-0.78H113.69z"/>
			<path class="st2" d="M115.26,84.55h-1.28v0.92c0,0.44-0.11,0.78-0.33,1.02c-0.22,0.24-0.51,0.37-0.87,0.37
				c-0.36,0-0.66-0.12-0.89-0.37c-0.23-0.25-0.35-0.58-0.35-1.02v-2.15h0.43l0.1,0.56h2.66l0.1-0.56h0.44v0.56V84.55z M111.97,86.93
				l0.1,0.56h2.66l0.1-0.56h0.44v1.23h-3.19l-0.1,0.56h-0.43v-1.79H111.97z M113.45,84.55h-1.38v0.92c0,0.24,0.06,0.42,0.19,0.54
				c0.13,0.12,0.29,0.17,0.49,0.17c0.19,0,0.35-0.06,0.49-0.17s0.21-0.3,0.21-0.54V84.55z M115.26,85.11h-0.44l-0.1-0.56h0.53V85.11
				z"/>
			<path class="st2" d="M111.97,88.95l0.08,0.4l1.37,1.09l1.32-1.06l0.08-0.4h0.44v1.45h-0.44l-0.04-0.33l-0.89,0.69l0.9,0.69
				l0.04-0.33h0.44v1.46h-0.44l-0.08-0.4l-1.32-1.06l-1.37,1.09l-0.08,0.4h-0.43v-1.45h0.43l0.04,0.33l0.94-0.72l-0.94-0.72
				l-0.04,0.33h-0.43v-1.46H111.97z"/>
			<path class="st2" d="M114.82,94.53h0.44v1.79h-0.44l-0.1-0.56h-1.04v0.36l1.04,0.77c0.2,0.14,0.34,0.28,0.44,0.41
				c0.1,0.13,0.15,0.28,0.15,0.45c0,0.1-0.01,0.19-0.04,0.26s-0.07,0.15-0.12,0.23l-0.46-0.1c0.02-0.1,0.03-0.15,0.03-0.17
				c0-0.02,0-0.05,0-0.09c0-0.08-0.03-0.17-0.09-0.25s-0.14-0.15-0.22-0.21l-0.93-0.71l-1.43,1.17l-0.09,0.48h-0.43v-0.9l1.58-1.25
				v-0.44h-1.05l-0.1,0.56h-0.43v-1.79h0.43l0.1,0.56h2.66L114.82,94.53z"/>
			<path class="st2" d="M114.72,100.05h-1.05c-0.73,0-1.27-0.1-1.62-0.29s-0.52-0.52-0.52-0.99v-0.19l0.58,0.01l0,0.14
				c0,0.24,0.12,0.41,0.35,0.5c0.24,0.09,0.63,0.14,1.2,0.14h1.06l0.1-0.56h0.44v3.16v0.56h-0.44l-0.1-0.56h-2.66l-0.1,0.56h-0.43
				v-1.79h0.43l0.1,0.56h2.65V100.05z"/>
			<path class="st2" d="M111.97,102.91l0.1,0.56h2.66l0.1-0.56h0.44v1.23h-1.57v0.91c0.49,0.04,0.88,0.21,1.18,0.5
				c0.3,0.29,0.46,0.67,0.46,1.14c0,0.51-0.18,0.91-0.53,1.21c-0.35,0.3-0.81,0.45-1.36,0.45h-0.08c-0.55,0-1.01-0.15-1.36-0.44
				c-0.35-0.3-0.53-0.7-0.53-1.21c0-0.48,0.16-0.87,0.47-1.16c0.31-0.29,0.72-0.46,1.22-0.49v-0.9h-1.09l-0.1,0.56h-0.43v-1.79
				H111.97z M113.36,105.71c-0.39,0-0.72,0.08-0.98,0.25c-0.26,0.17-0.38,0.41-0.38,0.74c0,0.32,0.13,0.56,0.38,0.73
				c0.26,0.17,0.58,0.25,0.98,0.25h0.08c0.39,0,0.71-0.08,0.97-0.25c0.26-0.17,0.39-0.41,0.39-0.74c0-0.32-0.13-0.57-0.39-0.73
				c-0.26-0.16-0.58-0.25-0.97-0.25H113.36z"/>
			<path class="st2" d="M115.26,110.54h-0.43l-0.1-0.56h-0.56c-0.3,0-0.52,0.06-0.66,0.19c-0.14,0.13-0.21,0.32-0.21,0.57
				c0,0.15,0.01,0.29,0.03,0.43s0.04,0.27,0.08,0.41h1.32l0.1-0.56h0.44v1.79h-0.44l-0.1-0.56h-2.66l-0.1,0.56h-0.43v-1.79h0.43
				l0.1,0.56h0.8c-0.04-0.13-0.06-0.27-0.08-0.4c-0.02-0.14-0.02-0.28-0.02-0.43c0-0.45,0.12-0.8,0.35-1.05s0.59-0.38,1.05-0.38
				h0.56l0.1-0.56h0.43v1.23V110.54z"/>
			<path class="st2" d="M111.47,114.98c0-0.52,0.17-0.92,0.52-1.23c0.34-0.3,0.79-0.46,1.34-0.46h0.15c0.53,0,0.97,0.16,1.32,0.47
				c0.35,0.31,0.53,0.68,0.53,1.11c0,0.5-0.15,0.87-0.45,1.13c-0.3,0.26-0.71,0.38-1.21,0.38h-0.42v-2.4l-0.02-0.01
				c-0.36,0.01-0.65,0.1-0.88,0.27c-0.23,0.17-0.35,0.42-0.35,0.73c0,0.23,0.03,0.43,0.1,0.6c0.07,0.17,0.16,0.32,0.27,0.45
				l-0.44,0.26c-0.13-0.13-0.24-0.31-0.32-0.53C111.51,115.55,111.47,115.29,111.47,114.98z M114.79,114.88
				c0-0.23-0.1-0.42-0.29-0.58c-0.19-0.16-0.43-0.26-0.72-0.29l-0.02,0.01v1.71h0.09c0.27,0,0.49-0.07,0.67-0.21
				S114.79,115.16,114.79,114.88z"/>
			<path class="st2" d="M115.26,118.69h-0.44l-0.1-0.56h-2.1l-0.01,0.02l2.64,1.63v0.67v0.56h-0.44l-0.1-0.56h-2.66l-0.1,0.56h-0.43
				v-1.79h0.43l0.1,0.56h2.1l0.01-0.02l-2.64-1.63v-1.23h0.43l0.1,0.56h2.66l0.1-0.56h0.44v1.23V118.69z M116.84,120l-0.02,0.01
				c-0.27,0.01-0.48-0.08-0.65-0.26s-0.25-0.43-0.25-0.75c0-0.31,0.08-0.56,0.25-0.75s0.38-0.27,0.65-0.26l0.02,0.01v0.51
				c-0.15,0-0.27,0.04-0.37,0.12c-0.1,0.08-0.14,0.2-0.14,0.37c0,0.16,0.05,0.29,0.14,0.37c0.09,0.08,0.22,0.12,0.37,0.12V120z"/>
		</g>
		<g>
			<path class="st2" d="M102.03,37.79v0.64h-0.53v-0.64h-0.63l-0.1,0.52h-0.43v-1.65h0.43l0.1,0.52h0.63V35.1h0.38l3.47,2.03v0.66
				H102.03z M102.03,35.77v1.41h2.35l0.01-0.02l-0.18-0.06L102.03,35.77z"/>
			<path class="st2" d="M105.35,42.29c0,0.49-0.14,0.87-0.41,1.15c-0.27,0.27-0.64,0.41-1.09,0.41c-0.45,0-0.82-0.14-1.09-0.41
				c-0.27-0.27-0.41-0.66-0.41-1.15v-0.98h-1.48l-0.1,0.52h-0.43v-1.66h0.43l0.1,0.52h3.94l0.1-0.52h0.44v0.52V42.29z M102.88,41.31
				v0.98c0,0.31,0.09,0.55,0.27,0.7c0.18,0.16,0.41,0.23,0.69,0.23s0.51-0.08,0.69-0.23s0.28-0.39,0.28-0.7v-0.98H102.88z"/>
			<path class="st2" d="M102.2,45.94v-1.55h0.53v1.55H102.2z"/>
			<path class="st2" d="M103.82,50.06v-0.44l0.71-0.12c0.11-0.1,0.2-0.23,0.26-0.37c0.07-0.15,0.1-0.32,0.1-0.53
				c0-0.48-0.19-0.85-0.57-1.1c-0.38-0.26-0.86-0.39-1.43-0.39h-0.08c-0.58,0-1.06,0.13-1.44,0.38c-0.38,0.25-0.57,0.6-0.57,1.05
				c0,0.21,0.04,0.4,0.11,0.57c0.07,0.17,0.16,0.3,0.26,0.4l0.71,0.12v0.44h-0.89c-0.19-0.13-0.35-0.33-0.5-0.6
				c-0.15-0.27-0.22-0.57-0.22-0.92c0-0.6,0.24-1.09,0.72-1.47s1.09-0.58,1.82-0.58h0.07c0.73,0,1.34,0.19,1.82,0.57
				c0.48,0.38,0.72,0.87,0.72,1.48c0,0.35-0.07,0.66-0.22,0.92c-0.15,0.27-0.31,0.47-0.5,0.6H103.82z"/>
			<path class="st2" d="M104.92,50.51h0.44v1.66h-0.44l-0.1-0.52h-1.73v2.23h1.73l0.1-0.52h0.44v0.52v0.62v0.52h-0.44l-0.1-0.52
				h-3.94l-0.1,0.52h-0.43v-1.66h0.43l0.1,0.52h1.68v-2.23h-1.68l-0.1,0.52h-0.43v-1.66h0.43l0.1,0.52h3.94L104.92,50.51z"/>
			<path class="st2" d="M100.59,56.09c-0.22,0-0.46-0.05-0.7-0.16s-0.45-0.24-0.61-0.42l0.25-0.35c0.17,0.1,0.33,0.17,0.5,0.22
				c0.17,0.05,0.35,0.08,0.55,0.08h0.52v0.62H100.59z"/>
			<path class="st2" d="M100.35,57.97h0.46l1.82,1.51c0.33,0.27,0.59,0.45,0.78,0.55c0.19,0.1,0.39,0.14,0.59,0.14
				c0.25,0,0.46-0.07,0.63-0.2c0.17-0.14,0.26-0.31,0.26-0.54c0-0.32-0.09-0.55-0.26-0.7c-0.18-0.15-0.43-0.22-0.75-0.22v-0.6
				l0.02-0.01c0.43-0.01,0.79,0.12,1.09,0.39c0.29,0.27,0.44,0.65,0.44,1.14c0,0.42-0.13,0.75-0.39,0.99c-0.26,0.25-0.6,0.37-1,0.37
				c-0.27,0-0.55-0.07-0.82-0.22s-0.57-0.36-0.88-0.63l-1.43-1.21l-0.02,0.01v1.64l0.57,0.05v0.53h-1.1V57.97z"/>
			<path class="st2" d="M102.03,63.97v0.64h-0.53v-0.64h-0.63l-0.1,0.52h-0.43v-1.65h0.43l0.1,0.52h0.63v-2.07h0.38l3.47,2.03v0.66
				H102.03z M102.03,61.94v1.41h2.35l0.01-0.02l-0.18-0.06L102.03,61.94z"/>
			<path class="st2" d="M104.92,66.28l-0.07-0.42l-3.25,1.03l-0.4,0.1v0.02l0.4,0.1l3.25,1.03l0.07-0.41h0.44v1.45h-0.44l-0.05-0.37
				l-4.51-1.54v-0.53l4.51-1.54l0.05-0.37h0.44v1.46H104.92z"/>
			<path class="st2" d="M100.59,69.45c-0.22,0-0.46-0.05-0.7-0.16s-0.45-0.24-0.61-0.42l0.25-0.35c0.17,0.1,0.33,0.17,0.5,0.22
				c0.17,0.05,0.35,0.08,0.55,0.08h0.52v0.62H100.59z"/>
			<path class="st2" d="M100.35,71.33h0.46l1.82,1.51c0.33,0.27,0.59,0.45,0.78,0.55c0.19,0.1,0.39,0.14,0.59,0.14
				c0.25,0,0.46-0.07,0.63-0.2c0.17-0.14,0.26-0.31,0.26-0.54c0-0.32-0.09-0.55-0.26-0.7c-0.18-0.15-0.43-0.22-0.75-0.22v-0.6
				l0.02-0.01c0.43-0.01,0.79,0.12,1.09,0.39c0.29,0.27,0.44,0.65,0.44,1.14c0,0.42-0.13,0.75-0.39,0.99c-0.26,0.25-0.6,0.37-1,0.37
				c-0.27,0-0.55-0.07-0.82-0.22s-0.57-0.36-0.88-0.63l-1.43-1.21l-0.02,0.01v1.64l0.57,0.05v0.53h-1.1V71.33z"/>
			<path class="st2" d="M100.78,74.61l0.05,0.34l4.52,1.61v0.54l-4.52,1.58l-0.05,0.34h-0.43V77.7h0.43l0.07,0.35l0.92-0.3v-1.84
				l-0.92-0.31l-0.07,0.35h-0.43v-1.32H100.78z M102.33,76.09v1.46l2.15-0.71v-0.02L102.33,76.09z"/>
			<path class="st2" d="M105.35,81.18c0,0.6-0.2,1.08-0.6,1.45s-0.92,0.55-1.56,0.55h-0.68c-0.64,0-1.16-0.18-1.56-0.55
				c-0.4-0.37-0.6-0.85-0.6-1.45v-1.93h0.43l0.1,0.52h3.94l0.1-0.52h0.44v0.52V81.18z M104.82,80.38h-3.94v0.79
				c0,0.43,0.15,0.76,0.46,1.01s0.7,0.37,1.17,0.37h0.69c0.47,0,0.86-0.12,1.17-0.37s0.46-0.58,0.46-1.01V80.38z"/>
			<path class="st2" d="M103.82,87.15v-0.44l0.71-0.12c0.11-0.1,0.2-0.23,0.26-0.37c0.07-0.15,0.1-0.32,0.1-0.53
				c0-0.48-0.19-0.85-0.57-1.1c-0.38-0.26-0.86-0.39-1.43-0.39h-0.08c-0.58,0-1.06,0.13-1.44,0.38c-0.38,0.25-0.57,0.6-0.57,1.05
				c0,0.21,0.04,0.4,0.11,0.57c0.07,0.17,0.16,0.3,0.26,0.4l0.71,0.12v0.44h-0.89c-0.19-0.13-0.35-0.33-0.5-0.6
				c-0.15-0.27-0.22-0.57-0.22-0.92c0-0.6,0.24-1.09,0.72-1.47s1.09-0.58,1.82-0.58h0.07c0.73,0,1.34,0.19,1.82,0.57
				c0.48,0.38,0.72,0.87,0.72,1.48c0,0.35-0.07,0.66-0.22,0.92c-0.15,0.27-0.31,0.47-0.5,0.6H103.82z"/>
			<path class="st2" d="M100.59,88.37c-0.22,0-0.46-0.05-0.7-0.16s-0.45-0.24-0.61-0.42l0.25-0.35c0.17,0.1,0.33,0.17,0.5,0.22
				c0.17,0.05,0.35,0.08,0.55,0.08h0.52v0.62H100.59z"/>
			<path class="st2" d="M105.35,92.28c0,0.49-0.14,0.87-0.41,1.15c-0.27,0.27-0.64,0.41-1.09,0.41c-0.45,0-0.82-0.14-1.09-0.41
				c-0.27-0.27-0.41-0.66-0.41-1.15V91.3h-1.48l-0.1,0.52h-0.43v-1.66h0.43l0.1,0.52h3.94l0.1-0.52h0.44v0.52V92.28z M102.88,91.3
				v0.98c0,0.31,0.09,0.55,0.27,0.7c0.18,0.16,0.41,0.23,0.69,0.23s0.51-0.08,0.69-0.23s0.28-0.39,0.28-0.7V91.3H102.88z"/>
			<path class="st2" d="M104.92,95.44l-0.08-0.47l-2.76,0.59l-0.63,0.09l0,0.02l0.63,0.12l3.27,0.85v0.55l-3.27,0.85l-0.64,0.13
				v0.02l0.64,0.09l2.76,0.58l0.08-0.47h0.44v1.46h-0.44l-0.05-0.37l-4.52-1v-0.56l3.47-0.91l0.45-0.08v-0.02l-0.45-0.08l-3.47-0.92
				v-0.55l4.52-1l0.05-0.37h0.44v1.46H104.92z"/>
			<path class="st2" d="M104.36,104.5l0-0.02l-4.01-1.49v-0.41l4.01-1.49l0-0.02l-2.03,0.06h-1.45l-0.1,0.52h-0.43V100h0.43
				l0.1,0.52h3.94l0.1-0.52h0.44v0.52v0.8l-4.07,1.47v0.02l4.07,1.47v1.32h-0.44l-0.1-0.52h-3.94l-0.1,0.52h-0.43v-1.66h0.43
				l0.1,0.52h1.45L104.36,104.5z"/>
			<path class="st2" d="M100.59,106.64c-0.22,0-0.46-0.05-0.7-0.16s-0.45-0.24-0.61-0.42l0.25-0.35c0.17,0.1,0.33,0.17,0.5,0.22
				c0.17,0.05,0.35,0.08,0.55,0.08h0.52v0.62H100.59z"/>
			<path class="st2" d="M104.92,108.43h0.44v1.66h-0.44l-0.1-0.52h-3.94l-0.1,0.52h-0.43v-1.66h0.43l0.1,0.52h3.94L104.92,108.43z"
				/>
			<path class="st2" d="M100.35,110.44h0.46l1.82,1.51c0.33,0.27,0.59,0.45,0.78,0.55c0.19,0.1,0.39,0.14,0.59,0.14
				c0.25,0,0.46-0.07,0.63-0.2c0.17-0.14,0.26-0.31,0.26-0.54c0-0.32-0.09-0.55-0.26-0.7c-0.18-0.15-0.43-0.22-0.75-0.22v-0.6
				l0.02-0.01c0.43-0.01,0.79,0.12,1.09,0.39c0.29,0.27,0.44,0.65,0.44,1.14c0,0.42-0.13,0.75-0.39,0.99c-0.26,0.25-0.6,0.37-1,0.37
				c-0.27,0-0.55-0.07-0.82-0.22s-0.57-0.36-0.88-0.63l-1.43-1.21l-0.02,0.01v1.64l0.57,0.05v0.53h-1.1V110.44z"/>
			<path class="st2" d="M103.82,117.35v-0.44l0.71-0.12c0.11-0.1,0.2-0.23,0.26-0.37c0.07-0.15,0.1-0.32,0.1-0.53
				c0-0.48-0.19-0.85-0.57-1.1c-0.38-0.26-0.86-0.39-1.43-0.39h-0.08c-0.58,0-1.06,0.13-1.44,0.38c-0.38,0.25-0.57,0.6-0.57,1.05
				c0,0.21,0.04,0.4,0.11,0.57c0.07,0.17,0.16,0.3,0.26,0.4l0.71,0.12v0.44h-0.89c-0.19-0.13-0.35-0.33-0.5-0.6
				c-0.15-0.27-0.22-0.57-0.22-0.92c0-0.6,0.24-1.09,0.72-1.47s1.09-0.58,1.82-0.58h0.07c0.73,0,1.34,0.19,1.82,0.57
				c0.48,0.38,0.72,0.87,0.72,1.48c0,0.35-0.07,0.66-0.22,0.92c-0.15,0.27-0.31,0.47-0.5,0.6H103.82z"/>
		</g>
		<g>
			<path class="st2" d="M87.4,54.8l-2.36,0.95l2.36,0.95v0.5H84.5v-0.38h1.13l1.22,0.04l-2.34-0.95V55.6l2.34-0.95l-1.21,0.04H84.5
				v-0.38h2.89V54.8z"/>
			<path class="st2" d="M84.5,59.03c0.04-0.02,0.12-0.04,0.23-0.05c-0.18-0.17-0.27-0.38-0.27-0.61c0-0.21,0.06-0.39,0.18-0.52
				c0.12-0.14,0.27-0.2,0.46-0.2c0.22,0,0.4,0.08,0.52,0.25c0.12,0.17,0.19,0.41,0.19,0.72v0.36h0.17c0.13,0,0.23-0.04,0.31-0.12
				c0.08-0.08,0.11-0.19,0.11-0.34c0-0.13-0.03-0.24-0.1-0.33s-0.15-0.13-0.24-0.13v-0.37c0.11,0,0.21,0.04,0.31,0.11
				c0.1,0.08,0.18,0.18,0.24,0.31c0.06,0.13,0.09,0.27,0.09,0.43c0,0.25-0.06,0.44-0.19,0.58c-0.12,0.14-0.29,0.21-0.51,0.22h-0.99
				c-0.2,0-0.35,0.03-0.47,0.08H84.5V59.03z M84.78,58.42c0,0.12,0.03,0.22,0.09,0.33s0.14,0.18,0.23,0.22h0.44v-0.29
				c0-0.45-0.13-0.68-0.4-0.68c-0.12,0-0.21,0.04-0.27,0.12C84.82,58.2,84.78,58.3,84.78,58.42z"/>
			<path class="st2" d="M85.42,60.49v-0.27H84.5v-0.37h2.15v0.37h-0.91v0.24l0.91,0.72v0.45l-1.03-0.85L84.5,61.7v-0.47L85.42,60.49
				z"/>
			<path class="st2" d="M84.76,62.77c0,0.13,0.04,0.25,0.12,0.34c0.08,0.1,0.18,0.15,0.3,0.16v0.35c-0.12-0.01-0.24-0.05-0.35-0.13
				c-0.11-0.08-0.2-0.18-0.27-0.31s-0.1-0.27-0.1-0.42c0-0.29,0.1-0.53,0.29-0.7c0.2-0.17,0.46-0.26,0.8-0.26h0.06
				c0.21,0,0.4,0.04,0.56,0.12c0.16,0.08,0.29,0.19,0.38,0.33c0.09,0.14,0.13,0.31,0.13,0.51c0,0.24-0.07,0.44-0.22,0.6
				c-0.14,0.16-0.33,0.25-0.56,0.26v-0.35c0.14-0.01,0.25-0.06,0.34-0.16c0.09-0.09,0.13-0.21,0.13-0.35c0-0.19-0.07-0.33-0.2-0.43
				c-0.13-0.1-0.33-0.15-0.58-0.15h-0.07c-0.25,0-0.44,0.05-0.57,0.15C84.83,62.44,84.76,62.58,84.76,62.77z"/>
			<path class="st2" d="M86.65,65.33v0.37H84.5v-0.37h1.57l-1.57-0.99v-0.37h2.15v0.37h-1.57L86.65,65.33z"/>
			<path class="st2" d="M84.99,67.43l1.66,0.73v0.46H84.5v-0.37h1.56l-1.56-0.7V67.3l1.6-0.71h-1.6v-0.37h2.15v0.48L84.99,67.43z"/>
			<path class="st2" d="M84.5,70.43c0.04-0.02,0.12-0.04,0.23-0.05c-0.18-0.17-0.27-0.38-0.27-0.61c0-0.21,0.06-0.39,0.18-0.52
				c0.12-0.14,0.27-0.2,0.46-0.2c0.22,0,0.4,0.08,0.52,0.25c0.12,0.17,0.19,0.41,0.19,0.72v0.36h0.17c0.13,0,0.23-0.04,0.31-0.12
				c0.08-0.08,0.11-0.19,0.11-0.34c0-0.13-0.03-0.24-0.1-0.33s-0.15-0.13-0.24-0.13v-0.37c0.11,0,0.21,0.04,0.31,0.11
				c0.1,0.08,0.18,0.18,0.24,0.31c0.06,0.13,0.09,0.27,0.09,0.43c0,0.25-0.06,0.44-0.19,0.58c-0.12,0.14-0.29,0.21-0.51,0.22h-0.99
				c-0.2,0-0.35,0.03-0.47,0.08H84.5V70.43z M84.78,69.82c0,0.12,0.03,0.22,0.09,0.33s0.14,0.18,0.23,0.22h0.44v-0.29
				c0-0.45-0.13-0.68-0.4-0.68c-0.12,0-0.21,0.04-0.27,0.12C84.82,69.6,84.78,69.7,84.78,69.82z"/>
			<path class="st2" d="M86.65,72.98H84.5v-0.37h1.85v-0.73l-0.8-0.04c-0.37-0.02-0.63-0.09-0.79-0.19
				c-0.16-0.1-0.24-0.26-0.25-0.48v-0.15h0.32l0.01,0.1c0.01,0.12,0.08,0.21,0.21,0.26c0.12,0.05,0.35,0.08,0.69,0.1l0.92,0.04
				V72.98z"/>
			<path class="st2" d="M85.91,73.87v0.56c0,0.24-0.07,0.44-0.19,0.58c-0.13,0.14-0.29,0.21-0.51,0.21c-0.21,0-0.39-0.07-0.52-0.22
				c-0.13-0.15-0.19-0.34-0.19-0.59v-0.91h2.15v0.37H85.91z M85.61,73.87H84.8v0.55c0,0.14,0.04,0.24,0.11,0.32
				c0.07,0.08,0.17,0.11,0.29,0.11c0.12,0,0.22-0.04,0.29-0.11c0.08-0.07,0.12-0.18,0.12-0.31V73.87z"/>
			<path class="st2" d="M84.5,77.34v-0.37h0.92v-0.99H84.5v-0.37h2.15v0.37h-0.93v0.99h0.93v0.37H84.5z"/>
			<path class="st2" d="M84.5,79.15c0.04-0.02,0.12-0.04,0.23-0.05c-0.18-0.17-0.27-0.38-0.27-0.61c0-0.21,0.06-0.39,0.18-0.52
				c0.12-0.14,0.27-0.2,0.46-0.2c0.22,0,0.4,0.08,0.52,0.25c0.12,0.17,0.19,0.41,0.19,0.72v0.36h0.17c0.13,0,0.23-0.04,0.31-0.12
				c0.08-0.08,0.11-0.19,0.11-0.34c0-0.13-0.03-0.24-0.1-0.33s-0.15-0.13-0.24-0.13v-0.37c0.11,0,0.21,0.04,0.31,0.11
				c0.1,0.08,0.18,0.18,0.24,0.31c0.06,0.13,0.09,0.27,0.09,0.43c0,0.25-0.06,0.44-0.19,0.58c-0.12,0.14-0.29,0.21-0.51,0.22h-0.99
				c-0.2,0-0.35,0.03-0.47,0.08H84.5V79.15z M84.78,78.54c0,0.12,0.03,0.22,0.09,0.33s0.14,0.18,0.23,0.22h0.44v-0.29
				c0-0.45-0.13-0.68-0.4-0.68c-0.12,0-0.21,0.04-0.27,0.12C84.82,78.32,84.78,78.42,84.78,78.54z"/>
			<path class="st2" d="M86.65,81.58H84.5v-0.37h0.84v-0.55l-0.84-0.51v-0.4l0.89,0.54c0.05-0.14,0.13-0.24,0.23-0.32
				c0.11-0.07,0.23-0.11,0.37-0.11c0.2,0,0.35,0.07,0.47,0.22c0.12,0.15,0.18,0.34,0.18,0.59V81.58z M85.99,80.24
				c-0.1,0-0.19,0.04-0.25,0.11c-0.06,0.07-0.1,0.17-0.1,0.28v0.58h0.71v-0.53c0-0.14-0.03-0.25-0.1-0.33
				C86.19,80.28,86.1,80.24,85.99,80.24z"/>
			<path class="st2" d="M84.5,84.74v-0.37h0.92v-0.99H84.5v-0.37h2.15v0.37h-0.93v0.99h0.93v0.37H84.5z"/>
			<path class="st2" d="M84.5,86.55c0.04-0.02,0.12-0.04,0.23-0.05c-0.18-0.17-0.27-0.38-0.27-0.61c0-0.21,0.06-0.39,0.18-0.52
				c0.12-0.14,0.27-0.2,0.46-0.2c0.22,0,0.4,0.08,0.52,0.25c0.12,0.17,0.19,0.41,0.19,0.72v0.36h0.17c0.13,0,0.23-0.04,0.31-0.12
				c0.08-0.08,0.11-0.19,0.11-0.34c0-0.13-0.03-0.24-0.1-0.33s-0.15-0.13-0.24-0.13v-0.37c0.11,0,0.21,0.04,0.31,0.11
				c0.1,0.08,0.18,0.18,0.24,0.31c0.06,0.13,0.09,0.27,0.09,0.43c0,0.25-0.06,0.44-0.19,0.58c-0.12,0.14-0.29,0.21-0.51,0.22h-0.99
				c-0.2,0-0.35,0.03-0.47,0.08H84.5V86.55z M84.78,85.94c0,0.12,0.03,0.22,0.09,0.33s0.14,0.18,0.23,0.22h0.44v-0.29
				c0-0.45-0.13-0.68-0.4-0.68c-0.12,0-0.21,0.04-0.27,0.12C84.82,85.72,84.78,85.82,84.78,85.94z"/>
			<path class="st2" d="M86.35,88.73v-0.99H84.5v-0.37h2.15v1.36H86.35z"/>
			<path class="st2" d="M85.55,90.76c-0.33,0-0.59-0.08-0.79-0.22c-0.2-0.15-0.3-0.35-0.3-0.61c0-0.26,0.08-0.47,0.25-0.62h-1.04
				v-0.37h2.98v0.34l-0.24,0.02c0.19,0.15,0.28,0.36,0.28,0.63c0,0.26-0.1,0.46-0.29,0.61c-0.19,0.15-0.47,0.23-0.81,0.23H85.55z
				 M85.6,90.39c0.24,0,0.43-0.05,0.57-0.16s0.21-0.25,0.21-0.42c0-0.22-0.1-0.39-0.3-0.5h-1.03c-0.2,0.11-0.29,0.28-0.29,0.5
				c0,0.18,0.07,0.32,0.21,0.42C85.11,90.34,85.32,90.39,85.6,90.39z"/>
			<path class="st2" d="M85.04,91.83l1.61,0.5v0.39l-2.48-0.87c-0.36-0.13-0.54-0.35-0.54-0.64l0.01-0.07l0.03-0.14h0.3l-0.01,0.1
				c0,0.12,0.03,0.22,0.08,0.29c0.05,0.07,0.14,0.13,0.28,0.17l0.22,0.08l2.13-0.77v0.4L85.04,91.83z"/>
			<path class="st2" d="M86.07,94.13c0.1,0,0.18-0.04,0.24-0.12c0.06-0.08,0.09-0.18,0.09-0.32c0-0.13-0.03-0.24-0.1-0.32
				s-0.15-0.13-0.24-0.13v-0.37c0.19,0,0.34,0.08,0.46,0.23s0.18,0.35,0.18,0.59c0,0.25-0.05,0.45-0.16,0.59s-0.26,0.21-0.46,0.21
				c-0.1,0-0.19-0.03-0.27-0.09c-0.08-0.06-0.14-0.14-0.19-0.25c-0.08,0.25-0.25,0.38-0.5,0.38c-0.2,0-0.35-0.08-0.47-0.23
				s-0.17-0.36-0.17-0.61c0-0.25,0.06-0.45,0.18-0.61c0.12-0.16,0.29-0.24,0.49-0.24v0.37c-0.1,0-0.19,0.05-0.27,0.14
				c-0.08,0.09-0.11,0.21-0.11,0.35c0,0.14,0.03,0.25,0.1,0.34c0.06,0.09,0.15,0.13,0.25,0.13c0.12,0,0.21-0.04,0.26-0.11
				c0.05-0.07,0.08-0.18,0.08-0.34v-0.37h0.31v0.4C85.76,94.01,85.87,94.13,86.07,94.13z"/>
			<path class="st2" d="M85.42,95.59v-0.27H84.5v-0.37h2.15v0.37h-0.91v0.24l0.91,0.72v0.45l-1.03-0.85L84.5,96.8v-0.47L85.42,95.59
				z"/>
			<path class="st2" d="M84.5,98.34c0.04-0.02,0.12-0.04,0.23-0.05c-0.18-0.17-0.27-0.38-0.27-0.61c0-0.21,0.06-0.39,0.18-0.52
				c0.12-0.14,0.27-0.2,0.46-0.2c0.22,0,0.4,0.08,0.52,0.25c0.12,0.17,0.19,0.41,0.19,0.72v0.36h0.17c0.13,0,0.23-0.04,0.31-0.12
				c0.08-0.08,0.11-0.19,0.11-0.34c0-0.13-0.03-0.24-0.1-0.33s-0.15-0.13-0.24-0.13V97c0.11,0,0.21,0.04,0.31,0.11
				c0.1,0.08,0.18,0.18,0.24,0.31c0.06,0.13,0.09,0.27,0.09,0.43c0,0.25-0.06,0.44-0.19,0.58c-0.12,0.14-0.29,0.21-0.51,0.22h-0.99
				c-0.2,0-0.35,0.03-0.47,0.08H84.5V98.34z M84.78,97.73c0,0.12,0.03,0.22,0.09,0.33s0.14,0.18,0.23,0.22h0.44V98
				c0-0.45-0.13-0.68-0.4-0.68c-0.12,0-0.21,0.04-0.27,0.12C84.82,97.51,84.78,97.61,84.78,97.73z"/>
		</g>
		<g>
			<path class="st2" d="M80.13,72.11v-1.9h0.26l1.11,1c0.17,0.15,0.3,0.25,0.41,0.31c0.11,0.06,0.21,0.08,0.33,0.08
				c0.15,0,0.28-0.05,0.37-0.14c0.1-0.09,0.14-0.21,0.14-0.37c0-0.18-0.05-0.33-0.16-0.43c-0.1-0.1-0.25-0.15-0.43-0.15v-0.37
				c0.27,0,0.48,0.09,0.65,0.26s0.25,0.4,0.25,0.69c0,0.27-0.07,0.48-0.21,0.64c-0.14,0.16-0.33,0.23-0.56,0.23
				c-0.29,0-0.62-0.18-1.02-0.54l-0.84-0.78v1.45H80.13z"/>
			<path class="st2" d="M81.1,73.95v0.4h-0.3v-0.4h-0.67v-0.37h0.67v-1.32h0.22l2.01,1.3v0.39H81.1z M81.1,72.68v0.9h1.42
				l-0.08-0.04L81.1,72.68z"/>
			<path class="st2" d="M80.13,74.68h2.89v0.95c0,0.31-0.07,0.55-0.2,0.71s-0.32,0.24-0.58,0.24c-0.13,0-0.25-0.04-0.36-0.12
				c-0.1-0.08-0.18-0.18-0.24-0.31c-0.04,0.16-0.13,0.28-0.25,0.37c-0.12,0.09-0.27,0.14-0.44,0.14c-0.26,0-0.46-0.08-0.61-0.25
				c-0.15-0.17-0.22-0.41-0.22-0.71V74.68z M81.48,75.06h-1.04v0.63c0,0.18,0.05,0.32,0.14,0.42s0.22,0.15,0.38,0.15
				c0.35,0,0.52-0.19,0.52-0.57V75.06z M81.79,75.06v0.58c0,0.17,0.04,0.3,0.13,0.4c0.08,0.1,0.2,0.15,0.34,0.15
				c0.16,0,0.28-0.05,0.35-0.14s0.11-0.23,0.11-0.42v-0.56H81.79z"/>
			<path class="st2" d="M80.13,79.81v-1.9h0.26l1.11,1c0.17,0.15,0.3,0.25,0.41,0.31c0.11,0.06,0.21,0.08,0.33,0.08
				c0.15,0,0.28-0.05,0.37-0.14c0.1-0.09,0.14-0.21,0.14-0.37c0-0.18-0.05-0.33-0.16-0.43c-0.1-0.1-0.25-0.15-0.43-0.15v-0.37
				c0.27,0,0.48,0.09,0.65,0.26s0.25,0.4,0.25,0.69c0,0.27-0.07,0.48-0.21,0.64c-0.14,0.16-0.33,0.23-0.56,0.23
				c-0.29,0-0.62-0.18-1.02-0.54l-0.84-0.78v1.45H80.13z"/>
			<path class="st2" d="M80.88,81.8v-1.21l-0.76-0.27v-0.39l2.89,1.11v0.33l-2.89,1.11v-0.39L80.88,81.8z M81.2,80.7v0.98l1.35-0.49
				L81.2,80.7z"/>
		</g>
		<g id="Лого_2_">
			<polygon class="st80" points="47.43,31.93 47.43,28.52 37.93,28.52 37.93,43.02 42.26,43.02 42.26,39.92 39.53,39.92 
				39.53,33.72 42.26,33.72 42.26,31.99 			"/>
			<polygon class="st80" points="48.99,31.93 48.99,28.52 58.55,28.52 58.55,59.03 48.99,59.03 48.99,55.53 54.17,55.53 54.2,46.82 
				56.92,46.82 56.92,40.7 54.2,40.7 54.2,31.93 			"/>
			<polygon class="st80" points="42.26,44.53 37.93,44.53 37.93,59.03 47.43,59.03 47.43,55.53 42.26,55.53 42.26,53.77 
				39.56,53.77 39.53,47.63 42.26,47.63 			"/>
			<rect x="40.76" y="34.86" class="st80" width="2.44" height="3.82"/>
			<rect x="53.29" y="41.83" class="st80" width="2.45" height="3.83"/>
			<rect x="40.75" y="48.8" class="st80" width="2.44" height="3.87"/>
			<g>
				<path class="st2" d="M58.47,62.49v1.91H46.44v-1.91H58.47z"/>
				<path class="st2" d="M46.44,71.97v-1.93l2.18-0.33v-2.35l-2.18-0.33v-1.75l12.04,1.95v2.8L46.44,71.97z M50.25,67.61v1.84
					l6.09-0.92L50.25,67.61z"/>
				<path class="st2" d="M46.44,76.85c0.31-0.1,0.5-0.17,1.48-0.17h1.89c1.12,0,1.53-0.38,1.53-1.25v-0.66h-4.9v-1.91h12.04v2.88
					c0,1.98-0.91,2.83-2.77,2.83h-0.95c-1.24,0-2.05-0.4-2.44-1.25c-0.4,0.96-1.31,1.27-2.56,1.27H47.9c-0.58,0-1.01,0.02-1.46,0.21
					V76.85z M56.76,74.77h-3.7v0.75c0,0.71,0.31,1.15,1.27,1.15h1.19c0.86,0,1.24-0.29,1.24-0.97V74.77z"/>
				<path class="st2" d="M58.47,79.84v3.02c0,1.91-1.05,2.85-2.98,2.85h-6.09c-1.93,0-2.97-0.94-2.97-2.85v-3.02H58.47z
					 M56.76,81.75h-8.6v1.08c0,0.61,0.31,0.97,1.17,0.97h6.26c0.86,0,1.17-0.37,1.17-0.97V81.75z"/>
				<path class="st2" d="M58.47,88.76h-9.29c-0.86,0-1.17,0.38-1.17,0.99s0.31,0.99,1.17,0.99h9.29v1.81h-9.17
					c-1.93,0-3.03-0.97-3.03-2.85s1.1-2.85,3.03-2.85h9.17V88.76z"/>
				<path class="st2" d="M58.47,93.85v1.91H46.44v-1.91H58.47z"/>
				<path class="st2" d="M55.16,98.85h-8.72v-1.72h12.04v2.4l-7.21,1.96h7.21v1.7H46.44v-1.96L55.16,98.85z"/>
				<path class="st2" d="M55.59,104.41c1.93,0,3.03,1.03,3.03,2.9s-1.1,2.9-3.03,2.9h-6.26c-1.93,0-3.03-1.03-3.03-2.9
					s1.1-2.9,3.03-2.9H55.59z M49.21,106.32c-0.86,0-1.19,0.38-1.19,0.99s0.33,0.99,1.19,0.99h6.5c0.86,0,1.19-0.38,1.19-0.99
					s-0.33-0.99-1.19-0.99H49.21z"/>
				<path class="st2" d="M48.26,113.11h-1.82v-1.84h1.82V113.11z"/>
				<path class="st2" d="M46.44,118.5c0.31-0.1,0.5-0.17,1.48-0.17h1.89c1.12,0,1.53-0.38,1.53-1.25v-0.66h-4.9v-1.91h12.04v2.88
					c0,1.98-0.91,2.83-2.77,2.83h-0.95c-1.24,0-2.05-0.4-2.44-1.25c-0.4,0.96-1.31,1.27-2.56,1.27H47.9c-0.58,0-1.01,0.02-1.46,0.21
					V118.5z M56.76,116.42h-3.7v0.75c0,0.71,0.31,1.15,1.27,1.15h1.19c0.86,0,1.24-0.29,1.24-0.97V116.42z"/>
				<path class="st2" d="M58.47,123.31h-9.29c-0.86,0-1.17,0.38-1.17,0.99s0.31,0.99,1.17,0.99h9.29v1.81h-9.17
					c-1.93,0-3.03-0.97-3.03-2.85s1.1-2.85,3.03-2.85h9.17V123.31z"/>
			</g>
			<g>
				<path class="st2" d="M42.85,63.74c0,0.82-0.36,1.15-1.09,1.15h-0.23c-0.52,0-0.84-0.16-0.98-0.62
					c-0.13,0.51-0.51,0.71-1.05,0.71h-0.41c-0.74,0-1.15-0.38-1.15-1.21v-1.21h4.91V63.74z M38.43,63.77c0,0.43,0.21,0.63,0.67,0.63
					h0.44c0.55,0,0.73-0.23,0.73-0.74v-0.51h-1.83V63.77z M40.76,63.59c0,0.47,0.14,0.71,0.65,0.71h0.29c0.43,0,0.65-0.16,0.65-0.58
					v-0.58h-1.59V63.59z"/>
				<path class="st2" d="M41.66,67.84h-0.44v-0.56h0.47c0.44,0,0.71-0.19,0.71-0.62c0-0.42-0.27-0.62-0.71-0.62h-2.6
					c-0.44,0-0.71,0.2-0.71,0.62c0,0.43,0.27,0.62,0.71,0.62h0.64v0.56h-0.61c-0.74,0-1.24-0.38-1.24-1.19
					c0-0.81,0.49-1.18,1.24-1.18h2.54c0.74,0,1.24,0.38,1.24,1.18C42.9,67.46,42.41,67.84,41.66,67.84z"/>
				<path class="st2" d="M40.67,70.25h-0.49v-1.29h-1.75v1.58h-0.5v-2.17h4.91v2.17h-0.5v-1.58h-1.68V70.25z M43.77,69.24h-0.63
					v-0.51h0.63V69.24z M43.77,70.18h-0.63v-0.52h0.63V70.18z"/>
				<path class="st2" d="M37.26,74.85h0.67V72.7h-0.67v-0.57h1.16v0.34c0.19,0.18,0.41,0.22,0.72,0.23l3.71,0.2v2.12h-4.43v0.4
					h-1.16V74.85z M39.14,73.28c-0.35-0.02-0.56-0.08-0.72-0.24v1.39h3.93v-0.98L39.14,73.28z"/>
				<path class="st2" d="M42.35,77.06l-3.19-0.12c-0.78-0.03-1.22-0.26-1.23-1.06v-0.1h0.5c0,0.49,0.23,0.57,0.7,0.59l3.72,0.14
					v2.15h-4.91v-0.59h4.42V77.06z"/>
				<path class="st2" d="M40.03,80.65c0-0.49-0.18-0.77-0.73-0.77h-0.77c-0.33,0-0.46-0.03-0.6-0.1v-0.6
					c0.17,0.09,0.37,0.11,0.59,0.11h0.76c0.53,0,0.89,0.18,1.03,0.66c0.13-0.44,0.47-0.65,1.01-0.65h0.4c0.73,0,1.12,0.35,1.12,1.18
					v1.18h-4.91v-0.59h2.1V80.65z M42.35,80.49c0-0.44-0.23-0.61-0.67-0.61h-0.47c-0.53,0-0.67,0.28-0.67,0.74v0.44h1.82V80.49z"/>
				<path class="st2" d="M42.85,84.58c0,0.83-0.46,1.18-1.2,1.18h-0.59c-0.78,0-1.19-0.39-1.19-1.23v-0.52h-1.94v-0.59h4.91V84.58z
					 M40.36,84.53c0,0.44,0.19,0.65,0.66,0.65h0.65c0.45,0,0.67-0.17,0.67-0.6v-0.57h-1.99V84.53z"/>
				<path class="st2" d="M38.92,86.81l-0.99-0.2v-0.54l4.91,1.01v0.85l-4.91,1.01v-0.59l0.99-0.2V86.81z M39.39,86.89v1.18l2.84-0.6
					L39.39,86.89z"/>
				<path class="st2" d="M37.26,92h0.67v-2.16h-0.67v-0.57h1.16v0.34c0.19,0.18,0.41,0.22,0.72,0.23l3.71,0.2v2.12h-4.43v0.4h-1.16
					V92z M39.14,90.42c-0.35-0.02-0.56-0.08-0.72-0.24v1.39h3.93V90.6L39.14,90.42z"/>
				<path class="st2" d="M40.2,94.47l-2.27-0.78v-0.61h4.91v0.52h-3.66l1.36,0.47l2.31,0.84v0.66h-4.91v-0.53h3.91L40.2,94.47z"/>
				<path class="st2" d="M41.66,96.12c0.75,0,1.24,0.4,1.24,1.21c0,0.81-0.48,1.21-1.24,1.21h-2.54c-0.74,0-1.24-0.4-1.24-1.21
					c0-0.81,0.49-1.21,1.24-1.21H41.66z M39.09,96.7c-0.45,0-0.71,0.2-0.71,0.63c0,0.43,0.26,0.63,0.71,0.63h2.6
					c0.44,0,0.71-0.2,0.71-0.63c0-0.42-0.27-0.63-0.71-0.63H39.09z"/>
				<path class="st2" d="M42.35,100.22l-3.19-0.12c-0.78-0.03-1.22-0.26-1.23-1.06v-0.1h0.5c0,0.49,0.23,0.57,0.7,0.59l3.72,0.14
					v2.15h-4.91v-0.59h4.42V100.22z"/>
				<path class="st2" d="M41.66,106.22h-2.54c-0.74,0-1.24-0.4-1.24-1.21c0-0.81,0.49-1.21,1.24-1.21h1.02v-0.76h-2.21v-0.59h4.91
					v0.59h-2.21v0.76h1.03c0.75,0,1.24,0.4,1.24,1.21C42.9,105.82,42.41,106.22,41.66,106.22z M41.69,104.38h-2.6
					c-0.44,0-0.71,0.2-0.71,0.63c0,0.42,0.27,0.63,0.71,0.63h2.6c0.45,0,0.71-0.2,0.71-0.63C42.4,104.58,42.14,104.38,41.69,104.38z
					"/>
				<path class="st2" d="M40.82,107.99c0,0.82-0.37,1.24-1.15,1.24h-0.54c-0.77,0-1.19-0.38-1.19-1.21v-1.23h4.91v2.22h-0.5v-1.64
					h-1.53V107.99z M38.43,108.02c0,0.43,0.2,0.63,0.66,0.63h0.61c0.48,0,0.63-0.23,0.63-0.66v-0.62h-1.9V108.02z"/>
				<path class="st2" d="M40.2,111.19l-2.27-0.78v-0.61h4.91v0.52h-3.66l1.36,0.47l2.31,0.84v0.66h-4.91v-0.53h3.91L40.2,111.19z"/>
				<path class="st2" d="M37.93,113.69h4.42v-0.97h0.5v2.53h-0.5v-0.97h-4.42V113.69z"/>
				<path class="st2" d="M40.67,117.57h-0.49v-1.29h-1.75v1.58h-0.5v-2.17h4.91v2.17h-0.5v-1.58h-1.68V117.57z"/>
				<path class="st2" d="M42.35,119.53l-3.19-0.12c-0.78-0.03-1.22-0.26-1.23-1.06v-0.1h0.5c0,0.49,0.23,0.57,0.7,0.59l3.72,0.14
					v2.15h-4.91v-0.59h4.42V119.53z"/>
				<path class="st2" d="M40.67,123.63h-0.49v-1.29h-1.75v1.58h-0.5v-2.17h4.91v2.17h-0.5v-1.58h-1.68V123.63z"/>
				<path class="st2" d="M40.3,125.89l-2.37-0.82v-0.61h4.91v0.52h-3.66l1.42,0.49l2.25,0.82v0.66h-4.91v-0.53h3.91L40.3,125.89z
					 M43.85,126.55c-0.43,0-0.69-0.31-0.69-0.81s0.26-0.8,0.69-0.81v0.37c-0.27,0.02-0.36,0.2-0.36,0.44s0.08,0.43,0.36,0.45V126.55
					z"/>
			</g>
		</g>
		<g>
			<path class="st76" d="M34.89,112.34v2.93c0,1.34-1.1,2.44-2.44,2.44h0c-1.34,0-2.44-1.1-2.44-2.44v-2.93H34.89z"/>
			<path class="st76" d="M30.01,111.74v-2.93c0-1.34,1.1-2.44,2.44-2.44h0c1.34,0,2.44,1.1,2.44,2.44v2.93H30.01z"/>
		</g>
		<g>
			<path class="st76" d="M34.89,126.81v2.93c0,1.34-1.1,2.44-2.44,2.44h0c-1.34,0-2.44-1.1-2.44-2.44v-2.93H34.89z"/>
			<path class="st76" d="M30.01,126.2v-2.93c0-1.34,1.1-2.44,2.44-2.44h0c1.34,0,2.44,1.1,2.44,2.44v2.93H30.01z"/>
		</g>
		<g>
			<path class="st81" d="M32.58,134.11l1.45,0.15v1.49h-0.34v-1.18l-0.79-0.09c0.08,0.14,0.13,0.3,0.13,0.49
				c0,0.26-0.09,0.47-0.26,0.63c-0.17,0.16-0.41,0.23-0.71,0.23c-0.3,0-0.54-0.08-0.71-0.24c-0.17-0.16-0.26-0.39-0.26-0.68
				c0-0.26,0.07-0.47,0.21-0.63s0.34-0.25,0.59-0.28v0.35c-0.17,0.02-0.29,0.08-0.38,0.18c-0.08,0.1-0.13,0.22-0.13,0.38
				c0,0.17,0.06,0.31,0.18,0.4c0.12,0.1,0.28,0.15,0.48,0.15c0.19,0,0.35-0.05,0.47-0.16c0.12-0.11,0.18-0.25,0.18-0.42
				c0-0.16-0.04-0.29-0.11-0.38l-0.08-0.1L32.58,134.11z"/>
			<path class="st81" d="M31.63,137.19l2.4,0.83v0.42l-2.91-1.08v-0.34l2.91-1.08v0.42L31.63,137.19z"/>
		</g>
		<g>
			<path class="st81" d="M32.75,98.78v0.28c0,0.17,0.05,0.31,0.14,0.41c0.09,0.1,0.21,0.15,0.36,0.15c0.34,0,0.51-0.17,0.51-0.51
				c0-0.16-0.05-0.29-0.14-0.38c-0.09-0.1-0.21-0.14-0.36-0.14v-0.37c0.23,0,0.42,0.08,0.57,0.25c0.15,0.17,0.23,0.38,0.23,0.64
				c0,0.27-0.07,0.49-0.22,0.64c-0.15,0.16-0.35,0.23-0.61,0.23c-0.13,0-0.25-0.04-0.37-0.12c-0.12-0.08-0.21-0.19-0.26-0.33
				c-0.05,0.16-0.13,0.28-0.25,0.37c-0.12,0.09-0.26,0.13-0.43,0.13c-0.26,0-0.47-0.08-0.62-0.25c-0.15-0.17-0.23-0.39-0.23-0.67
				s0.07-0.49,0.22-0.67s0.34-0.26,0.58-0.26v0.37c-0.15,0-0.28,0.05-0.37,0.15c-0.09,0.1-0.14,0.23-0.14,0.4
				c0,0.18,0.05,0.31,0.14,0.41c0.09,0.09,0.23,0.14,0.4,0.14c0.17,0,0.3-0.05,0.39-0.16s0.14-0.25,0.14-0.45v-0.28H32.75z"/>
			<path class="st81" d="M31.63,101.5l2.4,0.83v0.42l-2.91-1.08v-0.34l2.91-1.08v0.42L31.63,101.5z"/>
			<path class="st81" d="M32.75,103.47v0.28c0,0.17,0.05,0.31,0.14,0.41c0.09,0.1,0.21,0.15,0.36,0.15c0.34,0,0.51-0.17,0.51-0.51
				c0-0.16-0.05-0.29-0.14-0.38c-0.09-0.1-0.21-0.14-0.36-0.14v-0.37c0.23,0,0.42,0.08,0.57,0.25c0.15,0.17,0.23,0.38,0.23,0.64
				c0,0.27-0.07,0.49-0.22,0.64c-0.15,0.16-0.35,0.23-0.61,0.23c-0.13,0-0.25-0.04-0.37-0.12c-0.12-0.08-0.21-0.19-0.26-0.33
				c-0.05,0.16-0.13,0.28-0.25,0.37c-0.12,0.09-0.26,0.13-0.43,0.13c-0.26,0-0.47-0.08-0.62-0.25c-0.15-0.17-0.23-0.39-0.23-0.67
				s0.07-0.49,0.22-0.67s0.34-0.26,0.58-0.26v0.37c-0.15,0-0.28,0.05-0.37,0.15c-0.09,0.1-0.14,0.23-0.14,0.4
				c0,0.18,0.05,0.31,0.14,0.41c0.09,0.09,0.23,0.14,0.4,0.14c0.17,0,0.3-0.05,0.39-0.16s0.14-0.25,0.14-0.45v-0.28H32.75z"/>
		</g>
		<g>
			<circle class="st30" cx="10.83" cy="81.47" r="1.26"/>
			<circle class="st30" cx="14.44" cy="81.47" r="1.26"/>
			<circle class="st30" cx="10.83" cy="85.16" r="1.26"/>
			<circle class="st30" cx="14.44" cy="85.16" r="1.26"/>
			<circle class="st30" cx="10.83" cy="88.72" r="1.26"/>
			<circle class="st30" cx="14.44" cy="88.72" r="1.26"/>
		</g>
		<g>
			
				<rect x="22.66" y="72.78" transform="matrix(-1 -1.224647e-16 1.224647e-16 -1 46.6473 148.8256)" class="st2" width="1.32" height="3.26"/>
			<path class="st2" d="M18.22,99V57.54c0-0.32,0.26-0.58,0.58-0.58h7.58c0.32,0,0.58,0.26,0.58,0.58V99c0,0.32-0.26,0.58-0.58,0.58
				h-7.58C18.49,99.58,18.22,99.32,18.22,99z M19.44,60.69h2.28v2.38h1.42v-2.38h0.88v4.05h1.38v-5.34l-5.96-0.03V60.69z
				 M19.44,70.73h1.44v-4.05h4.52v-1.3h-5.96V70.73z M25.43,71.36h-5.99v1.42h1.79v3.26h-1.79v1.43h5.96 M21.68,82.9h-0.84V78.2
				h-1.4v6.11h3.72v-4.79h0.84v4.79h1.4V78.2h-3.72V82.9z M25.39,89.6h-2.23v-3.36h2.23v-1.32h-5.96l0,1.32h2.27v3.36h-2.27l0,1.44
				h5.96"/>
			<path class="st3" d="M19.13,92.95h0.9v5.28h-0.9V92.95z"/>
			<path class="st3" d="M21.79,93.65c-0.29,0-0.46,0.14-0.46,0.52v0.57h-0.85v-0.51c0-0.84,0.46-1.33,1.34-1.33s1.34,0.48,1.34,1.33
				c0,1.66-1.79,2.28-1.79,3.14c0,0.04,0,0.08,0.01,0.11h1.7v0.75h-2.6v-0.65c0-1.55,1.78-1.81,1.78-3.33
				C22.26,93.78,22.08,93.65,21.79,93.65z"/>
			<path class="st3" d="M26.11,96.26v0.7c0,0.84-0.46,1.33-1.34,1.33s-1.34-0.48-1.34-1.33v-2.74c0-0.84,0.46-1.33,1.34-1.33
				s1.34,0.48,1.34,1.33v0.51h-0.85v-0.57c0-0.38-0.18-0.52-0.47-0.52c-0.29,0-0.46,0.14-0.46,0.52v2.85c0,0.38,0.18,0.51,0.46,0.51
				c0.29,0,0.47-0.14,0.47-0.51v-0.75H26.11z"/>
		</g>
	</g>
</g>
</svg>
