<?xml version="1.0" encoding="utf-8"?>
<!-- Generator: Adobe Illustrator 22.0.1, SVG Export Plug-In . SVG Version: 6.00 Build 0)  -->
<svg version="1.1" id="Режим_изоляции"
	 xmlns="http://www.w3.org/2000/svg" xmlns:xlink="http://www.w3.org/1999/xlink" x="0px" y="0px"
	 viewBox="0 0 85.0400009 85.0400009" style="enable-background:new 0 0 85.0400009 85.0400009;" xml:space="preserve">
<style type="text/css">
	.st0{fill:#0D0E0F;}
	.st1{fill:#9E9B9C;}
	.st2{fill:#CEC7BD;}
	.st3{fill:#E5E4E0;}
	.st4{fill:#918C84;}
	.st5{fill:#151616;}
	.st6{fill:none;stroke:#F6F6F6;stroke-width:0.75;stroke-miterlimit:10;}
	.st7{fill:#363331;}
	.st8{fill:#B5B4B3;}
	.st9{fill:#CCCCCC;}
	.st10{opacity:0.34;fill:#B3B3B3;stroke:#808080;stroke-width:0.25;stroke-miterlimit:10;}
	.st11{fill:none;stroke:#999999;stroke-width:0.25;stroke-miterlimit:10;}
	.st12{fill:#151616;stroke:#E5E4E0;stroke-width:1.5;stroke-miterlimit:10;}
	.st13{fill:none;stroke:#E5E4E0;stroke-miterlimit:10;}
	.st14{fill:none;stroke:#E5E4E0;stroke-width:1.5;stroke-miterlimit:10;}
	.st15{fill:#E5E4E0;stroke:#E5E4E0;stroke-width:0.75;stroke-linejoin:round;stroke-miterlimit:10;}
	.st16{fill:#CDC7BC;}
	.st17{fill:#907747;}
</style>
<path class="st0" d="M0,0v85.039978h85.039978V0H0z M9.9212646,79.5117798c-2.4264526,0-4.3936768-1.9667969-4.3936768-4.3926392
	c0-2.4279175,1.9672241-4.3947754,4.3936768-4.3947754s4.3936768,1.9668579,4.3936768,4.3947754
	C14.3149414,77.5449829,12.3477173,79.5117798,9.9212646,79.5117798z M9.9223022,14.3149414
	c-2.4279175,0-4.3947144-1.9667969-4.3947144-4.3927002c0-2.4279175,1.9667969-4.3947144,4.3947144-4.3947144
	c2.4258423,0,4.3926392,1.9667969,4.3926392,4.3947144C14.3149414,12.3481445,12.3481445,14.3149414,9.9223022,14.3149414z
	 M75.1170654,79.5117798c-2.4258423,0-4.3926392-1.968811-4.3926392-4.3947144c0-2.4258423,1.9667969-4.3927002,4.3926392-4.3927002
	c2.4279175,0,4.3947754,1.9668579,4.3947754,4.3927002C79.5118408,77.5429688,77.5449829,79.5117798,75.1170654,79.5117798z
	 M75.1191406,14.3149414c-2.4279175,0-4.3947144-1.9667969-4.3947144-4.3927002
	c0-2.4279175,1.9667969-4.3947144,4.3947144-4.3947144c2.4258423,0,4.3927002,1.9667969,4.3927002,4.3947144
	C79.5118408,12.3481445,77.5449829,14.3149414,75.1191406,14.3149414z"/>
<path class="st1" d="M75.118103,3.9458008c-3.300293,0-5.9754028,2.6751709-5.9754028,5.9754639
	c0,3.3002319,2.6751099,5.9754028,5.9754028,5.9754028s5.9754639-2.6751709,5.9754639-5.9754028
	C81.0935669,6.6209717,78.418396,3.9458008,75.118103,3.9458008z M75.1191406,14.3149414
	c-2.4279175,0-4.3947144-1.9667969-4.3947144-4.3927002c0-2.4279175,1.9667969-4.3947144,4.3947144-4.3947144
	c2.4258423,0,4.3927002,1.9667969,4.3927002,4.3947144C79.5118408,12.3481445,77.5449829,14.3149414,75.1191406,14.3149414z"/>
<path class="st1" d="M9.9212341,3.9458008c-3.300293,0-5.9754028,2.6751709-5.9754028,5.9754639
	c0,3.3002319,2.6751099,5.9754028,5.9754028,5.9754028s5.9754639-2.6751709,5.9754639-5.9754028
	C15.896698,6.6209717,13.2215271,3.9458008,9.9212341,3.9458008z M9.9222717,14.3149414
	c-2.4279175,0-4.3947144-1.9667969-4.3947144-4.3927002c0-2.4279175,1.9667969-4.3947144,4.3947144-4.3947144
	c2.4258423,0,4.3927002,1.9667969,4.3927002,4.3947144C14.3149719,12.3481445,12.348114,14.3149414,9.9222717,14.3149414z"/>
<path class="st1" d="M9.9212341,69.1426392c-3.300293,0-5.9754028,2.6751709-5.9754028,5.9754639
	c0,3.3002319,2.6751099,5.9754028,5.9754028,5.9754028s5.9754639-2.6751709,5.9754639-5.9754028
	C15.896698,71.8178101,13.2215271,69.1426392,9.9212341,69.1426392z M9.9222717,79.5117798
	c-2.4279175,0-4.3947144-1.9667969-4.3947144-4.3927002c0-2.4279175,1.9667969-4.3947144,4.3947144-4.3947144
	c2.4258423,0,4.3927002,1.9667969,4.3927002,4.3947144C14.3149719,77.5449829,12.348114,79.5117798,9.9222717,79.5117798z"/>
<path class="st1" d="M75.1180801,69.1426392c-3.300293,0-5.9754028,2.6751709-5.9754028,5.9754639
	c0,3.3002319,2.6751099,5.9754028,5.9754028,5.9754028s5.9754639-2.6751709,5.9754639-5.9754028
	C81.093544,71.8178101,78.4183731,69.1426392,75.1180801,69.1426392z M75.1191177,79.5117798
	c-2.4279175,0-4.3947144-1.9667969-4.3947144-4.3927002c0-2.4279175,1.9667969-4.3947144,4.3947144-4.3947144
	c2.4258423,0,4.3927002,1.9667969,4.3927002,4.3947144C79.5118179,77.5449829,77.54496,79.5117798,75.1191177,79.5117798z"/>
<g id="Колодка_i2c">
	<path class="st2" d="M33.9603271,74.9196854c0,1.2273636-1.0018463,2.2224731-2.2397404,2.2224731
		c-1.2378922,0-2.2415428-0.9951096-2.2415428-2.2224731s1.0036507-2.2224731,2.2415428-2.2224731
		C32.9584808,72.6972122,33.9603271,73.6923218,33.9603271,74.9196854z"/>
	<g>
		<path class="st3" d="M35.5375977,79.9794922c0.3588867,0,0.640625,0.0810547,0.8447266,0.2441406
			c0.2045898,0.1630859,0.3066406,0.3876953,0.3066406,0.6748047c0,0.1582031-0.0429688,0.2958984-0.128418,0.4121094
			s-0.2104492,0.2099609-0.3754883,0.2822266c0.1865234,0.0546875,0.3208008,0.1455078,0.402832,0.2724609
			c0.081543,0.1269531,0.1225586,0.2841797,0.1225586,0.4726563v0.1591797c0,0.0693359,0.0136719,0.1220703,0.0415039,0.1601563
			c0.0273438,0.0380859,0.0732422,0.0605469,0.1367188,0.0683594l0.078125,0.0107422v0.3789063h-0.328125
			c-0.2070313,0-0.3525391-0.0556641-0.4365234-0.1660156s-0.1259766-0.2529297-0.1259766-0.4287109v-0.1787109
			c0-0.1523438-0.0410156-0.2714844-0.1225586-0.3583984c-0.0820313-0.0869141-0.1972656-0.1328125-0.3466797-0.1367188h-0.519043
			v0.8271484l0.3388672,0.0644531v0.3769531h-1.3100586v-0.3769531l0.3369141-0.0644531v-2.2509766l-0.3369141-0.0644531v-0.3789063
			h0.3369141H35.5375977z M35.0878906,81.3623047h0.4389648c0.1762695,0,0.309082-0.0380859,0.3974609-0.1123047
			s0.1323242-0.1826172,0.1323242-0.3232422s-0.0439453-0.2529297-0.1313477-0.3369141
			c-0.0878906-0.0839844-0.2167969-0.1259766-0.3876953-0.1259766h-0.449707V81.3623047z"/>
		<path class="st3" d="M38.4482422,79.9794922v0.3789063l-0.3388672,0.0644531v1.6367188
			c0,0.2070313,0.0561523,0.3613281,0.168457,0.4648438c0.1123047,0.1025391,0.2661133,0.1533203,0.4614258,0.1533203
			c0.1987305,0,0.3544922-0.0507813,0.4672852-0.1523438c0.112793-0.1025391,0.1694336-0.2578125,0.1694336-0.4658203v-1.6367188
			l-0.3369141-0.0644531v-0.3789063h1.3100586v0.3789063l-0.3388672,0.0644531v1.6367188
			c0,0.3525391-0.1166992,0.6230469-0.3505859,0.8144531s-0.5410156,0.2861328-0.9204102,0.2861328
			c-0.3779297,0-0.6831055-0.0947266-0.9155273-0.2861328s-0.3486328-0.4619141-0.3486328-0.8144531v-1.6367188
			l-0.3364258-0.0644531v-0.3789063h0.3364258h0.6342773H38.4482422z"/>
		<path class="st3" d="M42.9389648,80.9804688h-0.4760742l-0.0825195-0.4306641
			c-0.0546875-0.0341797-0.1352539-0.0644531-0.2407227-0.0898438c-0.105957-0.0263672-0.2182617-0.0390625-0.3369141-0.0390625
			c-0.1738281,0-0.3081055,0.0361328-0.402832,0.1083984c-0.0952148,0.0722656-0.1425781,0.1660156-0.1425781,0.28125
			c0,0.1064453,0.0498047,0.1933594,0.1489258,0.2617188s0.2705078,0.140625,0.5136719,0.2167969
			c0.3491211,0.0957031,0.6137695,0.2226563,0.7939453,0.3808594c0.1806641,0.1582031,0.2705078,0.3652344,0.2705078,0.6220703
			c0,0.2685547-0.1069336,0.4804688-0.3212891,0.6357422s-0.4970703,0.2324219-0.847168,0.2324219
			c-0.2509766,0-0.4770508-0.0390625-0.6791992-0.1181641c-0.2016602-0.0791016-0.3701172-0.1884766-0.5048828-0.3271484v-0.6552734
			h0.4907227l0.0673828,0.4462891c0.0639648,0.0517578,0.1503906,0.0947266,0.2597656,0.1279297
			c0.109375,0.0341797,0.2314453,0.0507813,0.3662109,0.0507813c0.1738281,0,0.3056641-0.0351563,0.3964844-0.1054688
			c0.090332-0.0703125,0.1357422-0.1650391,0.1357422-0.2822266c0-0.1210938-0.043457-0.2177734-0.1293945-0.2910156
			c-0.0864258-0.0732422-0.2373047-0.1416016-0.453125-0.2070313c-0.375-0.1074219-0.6586914-0.2353516-0.8515625-0.3828125
			c-0.1923828-0.1484375-0.2885742-0.3505859-0.2885742-0.6074219c0-0.2539063,0.1083984-0.4619141,0.3256836-0.6240234
			c0.2172852-0.1611328,0.4902344-0.2441406,0.8188477-0.2480469c0.2431641,0,0.4648438,0.0361328,0.6650391,0.109375
			c0.199707,0.0732422,0.3676758,0.1708984,0.5039063,0.2929688V80.9804688z"/>
		<path class="st3" d="M45.6367188,80.9804688h-0.4746094l-0.0839844-0.4306641
			c-0.0546875-0.0341797-0.1347656-0.0644531-0.2402344-0.0898438c-0.1054688-0.0263672-0.21875-0.0390625-0.3378906-0.0390625
			c-0.1738281,0-0.3066406,0.0361328-0.4023438,0.1083984c-0.0947266,0.0722656-0.1420898,0.1660156-0.1420898,0.28125
			c0,0.1064453,0.050293,0.1933594,0.1489258,0.2617188s0.2705078,0.140625,0.5146484,0.2167969
			c0.3476563,0.0957031,0.6132813,0.2226563,0.7929688,0.3808594s0.2714844,0.3652344,0.2714844,0.6220703
			c0,0.2685547-0.1074219,0.4804688-0.3222656,0.6357422s-0.4960938,0.2324219-0.8476563,0.2324219
			c-0.25,0-0.4765625-0.0390625-0.6787109-0.1181641c-0.2016602-0.0791016-0.3701172-0.1884766-0.5048828-0.3271484v-0.6552734
			h0.4907227l0.0673828,0.4462891c0.0639648,0.0517578,0.1508789,0.0947266,0.2602539,0.1279297
			c0.109375,0.0341797,0.2304688,0.0507813,0.3652344,0.0507813c0.1738281,0,0.3066406-0.0351563,0.3964844-0.1054688
			s0.1367188-0.1650391,0.1367188-0.2822266c0-0.1210938-0.0429688-0.2177734-0.1308594-0.2910156
			c-0.0859375-0.0732422-0.2363281-0.1416016-0.4511719-0.2070313c-0.3759766-0.1074219-0.659668-0.2353516-0.8525391-0.3828125
			c-0.1923828-0.1484375-0.2885742-0.3505859-0.2885742-0.6074219c0-0.2539063,0.1083984-0.4619141,0.3256836-0.6240234
			c0.2172852-0.1611328,0.4892578-0.2441406,0.8193359-0.2480469c0.2421875,0,0.4648438,0.0361328,0.6640625,0.109375
			S45.5,80.2167969,45.6367188,80.3388672V80.9804688z"/>
		<path class="st3" d="M45.9296875,80.3583984v-0.3789063h1.3105469v0.3789063l-0.3388672,0.0644531v2.2509766l0.3388672,0.0644531
			v0.3769531h-1.3105469v-0.3769531l0.3388672-0.0644531v-2.2509766L45.9296875,80.3583984z"/>
		<path class="st3" d="M47.4482422,82.7382813l0.2265625-0.0322266l0.9619141-2.7265625h0.6494141l0.9560547,2.7265625
			l0.2255859,0.0322266v0.3769531H49.390625v-0.3769531l0.2197266-0.0390625l-0.1396484-0.4306641h-1.0253906l-0.1386719,0.4306641
			l0.2197266,0.0390625v0.3769531h-1.078125V82.7382813z M48.5957031,81.8056641h0.7255859l-0.3564453-1.1044922h-0.0126953
			L48.5957031,81.8056641z"/>
	</g>
	<ellipse class="st4" cx="31.7196846" cy="74.9196854" rx="1.5316002" ry="1.5185714"/>
	<rect x="38.320034" y="54.693409" class="st3" width="8.1385031" height="4.4068346"/>
	<g>
		<path class="st5" d="M39.1870117,55.5488281v-0.2626953h1.0922852v0.2626953l-0.340332,0.0585938v2.3740234l0.340332,0.0585938
			v0.2607422h-1.0922852v-0.2607422l0.340332-0.0585938v-2.3740234L39.1870117,55.5488281z"/>
		<path class="st5" d="M40.6259766,58.3007813v-0.2792969l0.9960938-1.0976563
			c0.1782227-0.1972656,0.2988281-0.3535156,0.3623047-0.4697266s0.0947266-0.234375,0.0947266-0.3564453
			c0-0.1503906-0.0444336-0.2773438-0.1333008-0.3798828c-0.0893555-0.1025391-0.2070313-0.1542969-0.3530273-0.1542969
			c-0.2104492,0-0.3647461,0.0537109-0.4633789,0.1591797c-0.0991211,0.1064453-0.1484375,0.2568359-0.1484375,0.4521484h-0.3945313
			l-0.0043945-0.0126953c-0.0068359-0.2597656,0.0795898-0.4775391,0.2597656-0.6542969
			c0.1806641-0.1767578,0.4306641-0.2646484,0.7509766-0.2646484c0.2744141,0,0.4926758,0.078125,0.6547852,0.2363281
			s0.2431641,0.359375,0.2431641,0.6035156c0,0.1650391-0.0493164,0.3291016-0.1474609,0.4931641
			s-0.2363281,0.3417969-0.4140625,0.5322266l-0.7998047,0.8632813l0.0039063,0.0097656h1.0795898l0.0336914-0.3457031h0.3486328
			v0.6650391H40.6259766z"/>
		<path class="st5" d="M45.2910156,56.2119141h-0.2900391l-0.0771484-0.4267578
			c-0.0673828-0.0644531-0.1494141-0.1181641-0.2460938-0.1591797c-0.0976563-0.0419922-0.2148438-0.0625-0.3496094-0.0625
			c-0.3164063,0-0.5585938,0.1132813-0.7285156,0.3408203c-0.1699219,0.2265625-0.2548828,0.515625-0.2548828,0.8642578v0.0478516
			c0,0.3486328,0.0830078,0.6376953,0.2495117,0.8662109s0.3969727,0.3427734,0.6928711,0.3427734
			c0.1367188,0,0.2626953-0.0214844,0.375-0.0644531c0.1132813-0.0429688,0.2001953-0.0947266,0.2617188-0.1572266
			l0.0771484-0.4267578h0.2900391v0.5371094c-0.0878906,0.1113281-0.2197266,0.2109375-0.3945313,0.2988281
			c-0.1757813,0.0878906-0.3789063,0.1318359-0.609375,0.1318359c-0.3959961,0-0.7202148-0.1455078-0.9736328-0.4355469
			s-0.3798828-0.6542969-0.3798828-1.0927734v-0.0439453c0-0.4414063,0.1245117-0.8066406,0.3735352-1.0957031
			c0.2495117-0.2890625,0.5756836-0.4335938,0.9799805-0.4335938c0.2304688,0,0.4335938,0.0439453,0.609375,0.1328125
			c0.1748047,0.0888672,0.3066406,0.1894531,0.3945313,0.2998047V56.2119141z"/>
	</g>
	<path class="st6" d="M28.0601654,78.0837631c-0.1226978-0.0001907-0.1870785-0.0002899-0.1870785-0.0002899l-0.0450478-17.8655434
		c0,0-0.0000763-0.0304527-0.0001526-0.0609016c0.0378971,0.0000572,0.0757961,0.0001144,0.0757961,0.0001144l29.0553551,0.0446663
		c0,0,0.0166397,0.0000229,0.0461807,0.0000687c0.0061035,2.4208908,0.0442276,17.5403633,0.0442276,17.5403633
		s0.0004883,0.1930389,0.0009727,0.3860855c-0.0609856-0.0000916-0.1219749-0.0001831-0.1219749-0.0001831
		S30.5440922,78.0875854,28.0601654,78.0837631z"/>
	<line class="st6" x1="35.3068542" y1="60.2106361" x2="35.351902" y2="78.0761795"/>
	<line class="st6" x1="42.4136162" y1="60.0140495" x2="42.4586601" y2="77.8795929"/>
	<line class="st6" x1="49.5445595" y1="60.0140495" x2="49.5896072" y2="77.8795929"/>
	<path class="st2" d="M41.1603241,74.9196854c0,1.2273636-1.0018463,2.2224731-2.2397385,2.2224731
		s-2.2415428-0.9951096-2.2415428-2.2224731s1.0036507-2.2224731,2.2415428-2.2224731S41.1603241,73.6923218,41.1603241,74.9196854z
		"/>
	<ellipse class="st4" cx="38.9196854" cy="74.9196854" rx="1.5316002" ry="1.5185714"/>
	<path class="st2" d="M48.3603249,74.9196854c0,1.2273636-1.0018463,2.2224731-2.2397385,2.2224731
		s-2.2415428-0.9951096-2.2415428-2.2224731s1.0036507-2.2224731,2.2415428-2.2224731S48.3603249,73.6923218,48.3603249,74.9196854z
		"/>
	<ellipse class="st4" cx="46.1196861" cy="74.9196854" rx="1.5316002" ry="1.5185714"/>
	<path class="st2" d="M55.5420456,74.9196854c0,1.2273636-0.9936714,2.2224731-2.2214661,2.2224731
		s-2.2232552-0.9951096-2.2232552-2.2224731s0.9954605-2.2224731,2.2232552-2.2224731S55.5420456,73.6923218,55.5420456,74.9196854z
		"/>
	<ellipse class="st4" cx="53.3196869" cy="74.9196854" rx="1.5316002" ry="1.5185714"/>
	<g>
		<path class="st3" d="M31.6679688,69.4169922c-0.112793,0.3886719-0.2514648,0.671875-0.4155273,0.8496094
			c-0.1645508,0.1767578-0.3676758,0.265625-0.6088867,0.265625c-0.2734375,0-0.4995117-0.1083984-0.6782227-0.3251953
			c-0.1787109-0.2158203-0.2680664-0.4980469-0.2680664-0.8447266c0-0.2363281,0.0458984-0.4462891,0.1381836-0.6318359
			c0.0922852-0.1845703,0.2192383-0.328125,0.3813477-0.4296875s0.3393555-0.1523438,0.53125-0.1523438v0.4560547
			c-0.2104492,0-0.3759766,0.0654297-0.4960938,0.1982422c-0.1206055,0.1318359-0.1806641,0.3193359-0.1806641,0.5595703
			c0,0.2236328,0.0498047,0.3984375,0.1494141,0.5234375c0.0996094,0.1259766,0.2373047,0.1884766,0.4140625,0.1884766
			c0.1416016,0,0.2617188-0.0595703,0.359375-0.1787109s0.1875-0.3212891,0.2685547-0.6074219
			s0.1708984-0.5097656,0.2685547-0.6708984s0.2114258-0.28125,0.3417969-0.359375s0.2836914-0.1171875,0.4599609-0.1171875
			c0.28125,0,0.5063477,0.109375,0.6757813,0.3261719c0.1689453,0.2177734,0.2539063,0.5087891,0.2539063,0.8720703
			c0,0.2363281-0.0458984,0.4570313-0.137207,0.6621094c-0.0913086,0.2041016-0.2163086,0.3623047-0.3754883,0.4736328
			c-0.1586914,0.1113281-0.3388672,0.1660156-0.5410156,0.1660156v-0.4560547c0.2099609,0,0.3754883-0.0761719,0.4970703-0.2294922
			c0.121582-0.1542969,0.1821289-0.359375,0.1821289-0.6162109c0-0.2392578-0.0493164-0.4228516-0.1474609-0.5507813
			c-0.0986328-0.1269531-0.2329102-0.1914063-0.402832-0.1914063s-0.3017578,0.0595703-0.3945313,0.1777344
			S31.7587891,69.1064453,31.6679688,69.4169922z"/>
		<path class="st3" d="M32.1137695,65.0292969c0.3671875,0.0419922,0.6503906,0.1767578,0.8496094,0.4023438
			c0.1992188,0.2265625,0.2993164,0.5263672,0.2993164,0.9013672c0,0.40625-0.1469727,0.7324219-0.440918,0.9775391
			s-0.6875,0.3671875-1.1796875,0.3671875h-0.3339844c-0.3222656,0-0.605957-0.0566406-0.8505859-0.1708984
			s-0.4326172-0.2763672-0.5639648-0.4863281c-0.1308594-0.2089844-0.1962891-0.4521484-0.1962891-0.7275391
			c0-0.3652344,0.1030273-0.6582031,0.3085938-0.8789063s0.4907227-0.3486328,0.8544922-0.3847656v0.4560547
			c-0.2773438,0.0390625-0.4780273,0.1240234-0.6025391,0.2558594s-0.1865234,0.3154297-0.1865234,0.5517578
			c0,0.2900391,0.1083984,0.5175781,0.324707,0.6816406c0.2158203,0.1650391,0.5239258,0.2470703,0.9228516,0.2470703h0.3364258
			c0.3769531,0,0.6767578-0.078125,0.8989258-0.2333984c0.2226563-0.15625,0.3339844-0.375,0.3339844-0.6552734
			c0-0.2519531-0.0576172-0.4453125-0.1728516-0.5800781c-0.1147461-0.1347656-0.3154297-0.2236328-0.6015625-0.2675781V65.0292969z
			"/>
		<path class="st3" d="M32.8408203,63.9541016v-1.6308594h0.3740234v2.0869141h-3.4702148v-0.4560547H32.8408203z"/>
	</g>
	<g>
		<path class="st3" d="M39.0585938,69.4169922c-0.112793,0.3886719-0.2514648,0.671875-0.4155273,0.8496094
			c-0.1645508,0.1767578-0.3676758,0.265625-0.6088867,0.265625c-0.2734375,0-0.4995117-0.1083984-0.6782227-0.3251953
			c-0.1787109-0.2158203-0.2680664-0.4980469-0.2680664-0.8447266c0-0.2363281,0.0458984-0.4462891,0.1381836-0.6318359
			c0.0922852-0.1845703,0.2192383-0.328125,0.3813477-0.4296875s0.3393555-0.1523438,0.53125-0.1523438v0.4560547
			c-0.2104492,0-0.3759766,0.0654297-0.4960938,0.1982422c-0.1206055,0.1318359-0.1806641,0.3193359-0.1806641,0.5595703
			c0,0.2236328,0.0498047,0.3984375,0.1494141,0.5234375c0.0996094,0.1259766,0.2373047,0.1884766,0.4140625,0.1884766
			c0.1416016,0,0.2617188-0.0595703,0.359375-0.1787109s0.1875-0.3212891,0.2685547-0.6074219
			s0.1708984-0.5097656,0.2685547-0.6708984s0.2114258-0.28125,0.3417969-0.359375s0.2836914-0.1171875,0.4599609-0.1171875
			c0.28125,0,0.5063477,0.109375,0.6757813,0.3261719c0.1689453,0.2177734,0.2539063,0.5087891,0.2539063,0.8720703
			c0,0.2363281-0.0458984,0.4570313-0.137207,0.6621094c-0.0913086,0.2041016-0.2163086,0.3623047-0.3754883,0.4736328
			c-0.1586914,0.1113281-0.3388672,0.1660156-0.5410156,0.1660156v-0.4560547c0.2099609,0,0.3754883-0.0761719,0.4970703-0.2294922
			c0.121582-0.1542969,0.1821289-0.359375,0.1821289-0.6162109c0-0.2392578-0.0493164-0.4228516-0.1474609-0.5507813
			c-0.0986328-0.1269531-0.2329102-0.1914063-0.402832-0.1914063s-0.3017578,0.0595703-0.3945313,0.1777344
			S39.1494141,69.1064453,39.0585938,69.4169922z"/>
		<path class="st3" d="M40.6054688,67.5595703h-3.4702148v-0.9707031c0-0.2998047,0.0668945-0.5644531,0.2001953-0.7939453
			c0.1337891-0.2304688,0.3237305-0.4082031,0.5698242-0.5332031s0.5292969-0.1884766,0.8486328-0.1904297h0.2211914
			c0.3276367,0,0.6142578,0.0625,0.8603516,0.1884766c0.246582,0.125,0.4355469,0.3037109,0.5673828,0.5361328
			s0.199707,0.5029297,0.2026367,0.8115234V67.5595703z M37.5097656,67.1054688h2.7216797v-0.4765625
			c0-0.3496094-0.1098633-0.6220703-0.3291016-0.8164063c-0.2197266-0.1943359-0.5322266-0.2919922-0.9375-0.2919922h-0.203125
			c-0.394043,0-0.7006836,0.0917969-0.9194336,0.2753906s-0.3295898,0.4433594-0.3325195,0.7802734V67.1054688z"/>
		<path class="st3" d="M39.6972656,62.4863281v1.4414063l0.9082031,0.3232422V64.71875l-3.4702148-1.3134766v-0.3974609
			l3.4702148-1.3154297v0.4648438L39.6972656,62.4863281z M39.3232422,63.7900391v-1.1689453l-1.6230469,0.5859375
			L39.3232422,63.7900391z"/>
	</g>
	<g>
		<path class="st3" d="M47.1601563,69.2919922l-2.8632813-0.9833984V67.8125l3.4707031,1.2763672v0.4013672l-3.4707031,1.2734375
			v-0.4931641L47.1601563,69.2919922z"/>
		<path class="st3" d="M47.4550781,66.3945313c0-0.15625-0.0478516-0.2919922-0.1425781-0.4091797
			c-0.0957031-0.1162109-0.2148438-0.1806641-0.3574219-0.1933594v-0.4130859
			c0.1474609,0.0078125,0.2880859,0.0576172,0.421875,0.1503906c0.1328125,0.09375,0.2392578,0.2177734,0.3193359,0.3730469
			c0.0791016,0.1552734,0.1191406,0.3193359,0.1191406,0.4921875c0,0.3486328-0.1171875,0.625-0.3515625,0.8310547
			c-0.234375,0.2050781-0.5546875,0.3076172-0.9619141,0.3076172h-0.0742188c-0.2509766,0-0.4736328-0.0449219-0.6689453-0.1367188
			c-0.1953125-0.0908203-0.3476563-0.2226563-0.4550781-0.3935547c-0.1083984-0.1708984-0.1621094-0.3730469-0.1621094-0.6054688
			c0-0.2871094,0.0859375-0.5253906,0.2597656-0.7148438c0.1728516-0.1904297,0.3974609-0.2910156,0.6738281-0.3037109v0.4130859
			c-0.1669922,0.0126953-0.3037109,0.0751953-0.4111328,0.1875c-0.1074219,0.1132813-0.1601563,0.2519531-0.1601563,0.4179688
			c0,0.2216797,0.0800781,0.3935547,0.2412109,0.515625s0.3945313,0.1835938,0.7001953,0.1835938h0.0830078
			c0.296875,0,0.5263672-0.0605469,0.6865234-0.1826172C47.375,66.7929688,47.4550781,66.6201172,47.4550781,66.3945313z"/>
		<path class="st3" d="M47.4550781,63.8613281c0-0.15625-0.0478516-0.2919922-0.1425781-0.4091797
			c-0.0957031-0.1162109-0.2148438-0.1806641-0.3574219-0.1933594v-0.4130859
			c0.1474609,0.0078125,0.2880859,0.0576172,0.421875,0.1503906c0.1328125,0.09375,0.2392578,0.2177734,0.3193359,0.3730469
			c0.0791016,0.1552734,0.1191406,0.3193359,0.1191406,0.4921875c0,0.3486328-0.1171875,0.625-0.3515625,0.8310547
			C47.2294922,64.8974609,46.9091797,65,46.5019531,65h-0.0742188c-0.2509766,0-0.4736328-0.0449219-0.6689453-0.1367188
			c-0.1953125-0.0908203-0.3476563-0.2226563-0.4550781-0.3935547c-0.1083984-0.1708984-0.1621094-0.3730469-0.1621094-0.6054688
			c0-0.2871094,0.0859375-0.5253906,0.2597656-0.7148438c0.1728516-0.1904297,0.3974609-0.2910156,0.6738281-0.3037109v0.4130859
			c-0.1669922,0.0126953-0.3037109,0.0751953-0.4111328,0.1875c-0.1074219,0.1132813-0.1601563,0.2519531-0.1601563,0.4179688
			c0,0.2216797,0.0800781,0.3935547,0.2412109,0.515625s0.3945313,0.1835938,0.7001953,0.1835938h0.0830078
			c0.296875,0,0.5263672-0.0605469,0.6865234-0.1826172C47.375,64.2597656,47.4550781,64.0869141,47.4550781,63.8613281z"/>
	</g>
	<g>
		<path class="st3" d="M54.65625,67.890625c0.1679688,0.1162109,0.2939453,0.2792969,0.3779297,0.4882813
			c0.0830078,0.2080078,0.125,0.4511719,0.125,0.7285156c0,0.2802734-0.0664063,0.5292969-0.1992188,0.7470703
			c-0.1328125,0.2167969-0.3212891,0.3847656-0.5664063,0.5039063c-0.2441406,0.1191406-0.5283203,0.1806641-0.8505859,0.1835938
			h-0.3027344c-0.5224609,0-0.9277344-0.1210938-1.2148438-0.3632813C51.7373047,69.9375,51.59375,69.5976563,51.59375,69.1591797
			c0-0.359375,0.0927734-0.6484375,0.2773438-0.8671875c0.1855469-0.21875,0.4482422-0.3525391,0.7880859-0.4013672v0.453125
			c-0.4609375,0.0859375-0.6914063,0.3564453-0.6914063,0.8134766c0,0.3037109,0.1074219,0.5341797,0.3232422,0.6914063
			c0.2158203,0.15625,0.5273438,0.2353516,0.9365234,0.2373047h0.2832031c0.3896484,0,0.6992188-0.0888672,0.9296875-0.2646484
			c0.2294922-0.1767578,0.3447266-0.4150391,0.3447266-0.7158203c0-0.1708984-0.0195313-0.3193359-0.0576172-0.4472656
			c-0.0380859-0.1269531-0.1015625-0.2324219-0.1923828-0.3164063h-0.7773438v0.796875h-0.3740234V67.890625H54.65625z"/>
		<path class="st3" d="M55.1113281,64.4902344v0.4560547L52.4375,66.6787109h2.6738281v0.4560547h-3.4697266v-0.4560547
			l2.6855469-1.7363281h-2.6855469v-0.4521484H55.1113281z"/>
		<path class="st3" d="M55.1113281,63.6845703h-3.4697266v-0.9707031c0-0.2998047,0.0664063-0.5644531,0.2001953-0.7939453
			c0.1328125-0.2304688,0.3232422-0.4082031,0.5693359-0.5332031s0.5292969-0.1884766,0.8486328-0.1904297h0.2216797
			c0.3271484,0,0.6142578,0.0625,0.8603516,0.1884766c0.2460938,0.125,0.4355469,0.3037109,0.5673828,0.5361328
			s0.1992188,0.5029297,0.2021484,0.8115234V63.6845703z M52.015625,63.2304688h2.7216797v-0.4765625
			c0-0.3496094-0.109375-0.6220703-0.3291016-0.8164063s-0.5322266-0.2919922-0.9375-0.2919922h-0.203125
			c-0.3945313,0-0.7001953,0.0917969-0.9189453,0.2753906s-0.3300781,0.4433594-0.3330078,0.7802734V63.2304688z"/>
	</g>
</g>
<g id="RT9193">
	<g id="XMLID_71_">
		<g>
			<rect x="42.5198212" y="24.1068859" class="st7" width="8.5589418" height="3.662437"/>
		</g>
		<g>
		</g>
	</g>
	<g id="XMLID_70_">
		<g>
			<rect x="42.8446121" y="21.1584721" class="st1" width="1.6072793" height="2.9478152"/>
		</g>
		<g>
		</g>
	</g>
	<g id="XMLID_72_">
		<g>
			<rect x="49.1571121" y="21.1584721" class="st1" width="1.6072793" height="2.9478152"/>
		</g>
		<g>
		</g>
	</g>
	<g id="XMLID_6_">
		<g>
			<rect x="42.8446121" y="27.6930351" class="st1" width="1.6072793" height="2.9478152"/>
		</g>
		<g>
		</g>
	</g>
	<g id="XMLID_5_">
		<g>
			<rect x="49.1571121" y="27.6930351" class="st1" width="1.6072793" height="2.9478152"/>
		</g>
		<g>
		</g>
	</g>
	<g id="XMLID_73_">
		<g>
			<rect x="46.0008621" y="21.1584721" class="st1" width="1.6072793" height="2.9478152"/>
		</g>
		<g>
		</g>
	</g>
	<g>
		<path class="st8" d="M44.6035156,26.5986328h-0.2197266l-0.4248047-0.5004883h-0.2382813v0.5004883h-0.1689453v-1.2592773
			h0.355957c0.0766602,0,0.1411133,0.0048828,0.1918945,0.0146484c0.0517578,0.0097656,0.0976563,0.0273438,0.1386719,0.0527344
			c0.0458984,0.0288086,0.0820313,0.0649414,0.1074219,0.1088867c0.0263672,0.043457,0.0390625,0.0991211,0.0390625,0.1660156
			c0,0.0908203-0.0234375,0.1669922-0.0693359,0.2280273s-0.109375,0.1074219-0.1904297,0.1381836L44.6035156,26.5986328z
			 M44.2080078,25.6938477c0-0.0361328-0.0058594-0.0683594-0.0185547-0.0961914
			c-0.0136719-0.027832-0.0341797-0.0512695-0.0644531-0.0708008c-0.0244141-0.0161133-0.0527344-0.027832-0.0869141-0.0341797
			c-0.0332031-0.0063477-0.0727539-0.0097656-0.1186523-0.0097656h-0.1987305v0.4755859h0.1708984
			c0.0532227,0,0.1000977-0.0048828,0.1396484-0.0141602c0.0400391-0.0092773,0.0742188-0.0263672,0.1015625-0.0517578
			c0.0263672-0.0239258,0.0449219-0.0512695,0.0566406-0.0820313
			C44.2021484,25.7802734,44.2080078,25.7412109,44.2080078,25.6938477z"/>
		<path class="st8" d="M45.6220703,25.4882813h-0.4541016v1.1103516h-0.1689453v-1.1103516h-0.4541016v-0.1489258h1.0771484
			V25.4882813z"/>
		<path class="st8" d="M46.6171875,25.8930664c0,0.1103516-0.0126953,0.2099609-0.0380859,0.2998047
			c-0.0253906,0.0893555-0.0634766,0.1660156-0.1142578,0.2290039c-0.0517578,0.0644531-0.1171875,0.1137695-0.1943359,0.1489258
			c-0.078125,0.034668-0.1699219,0.0522461-0.2753906,0.0522461c-0.0292969,0-0.0566406-0.0014648-0.0830078-0.0043945
			c-0.0263672-0.003418-0.0498047-0.0083008-0.0703125-0.0151367v-0.1611328h0.0087891
			c0.0166016,0.0083008,0.0400391,0.0161133,0.0693359,0.0239258c0.0302734,0.0073242,0.0644531,0.0112305,0.1015625,0.0112305
			c0.125,0,0.2236328-0.0371094,0.2949219-0.1118164s0.1132813-0.1777344,0.1240234-0.309082
			c-0.0527344,0.03125-0.1025391,0.0541992-0.1494141,0.0673828c-0.0458984,0.0136719-0.0966797,0.0205078-0.1523438,0.0205078
			c-0.0517578,0-0.0996094-0.0053711-0.1416016-0.0151367c-0.0429688-0.0102539-0.0849609-0.0302734-0.1279297-0.0595703
			c-0.0498047-0.0341797-0.0878906-0.078125-0.1132813-0.1308594c-0.0253906-0.0532227-0.0380859-0.1166992-0.0380859-0.1904297
			c0-0.128418,0.0429688-0.2329102,0.1279297-0.3139648c0.0859375-0.0805664,0.1894531-0.1206055,0.3125-0.1206055
			c0.0615234,0,0.1181641,0.0092773,0.1708984,0.0283203c0.0517578,0.0185547,0.0976563,0.0473633,0.1376953,0.0849609
			c0.0478516,0.046875,0.0849609,0.1069336,0.1113281,0.1806641C46.6044922,25.6811523,46.6171875,25.7763672,46.6171875,25.8930664
			z M46.4453125,25.8569336c0-0.0874023-0.0097656-0.1577148-0.0273438-0.2104492
			c-0.0185547-0.0532227-0.0439453-0.0942383-0.0751953-0.1235352c-0.0263672-0.0253906-0.0556641-0.0439453-0.0859375-0.0546875
			c-0.03125-0.0112305-0.0644531-0.0166016-0.1005859-0.0166016c-0.0810547,0-0.1464844,0.0253906-0.1933594,0.0761719
			c-0.0478516,0.0507813-0.0712891,0.1220703-0.0712891,0.2138672c0,0.0537109,0.0078125,0.097168,0.0224609,0.1313477
			c0.015625,0.0336914,0.0419922,0.0634766,0.078125,0.0888672c0.0253906,0.0170898,0.0537109,0.0288086,0.0839844,0.0351563
			c0.03125,0.0058594,0.0654297,0.0087891,0.1025391,0.0087891c0.0449219,0,0.0898438-0.0058594,0.1347656-0.0180664
			c0.0458984-0.0117188,0.0878906-0.0288086,0.1279297-0.0512695c0.0009766-0.012207,0.0019531-0.0239258,0.0019531-0.0351563
			C46.4443359,25.8896484,46.4453125,25.875,46.4453125,25.8569336z"/>
		<path class="st8" d="M47.6572266,26.5986328h-0.6875v-0.128418h0.2646484v-0.8442383h-0.2646484v-0.1152344
			c0.0361328,0,0.0742188-0.0029297,0.1152344-0.0087891s0.0722656-0.0146484,0.0927734-0.0258789
			c0.0263672-0.0141602,0.046875-0.0317383,0.0625-0.0537109c0.0146484-0.0214844,0.0234375-0.0507813,0.0253906-0.0874023
			h0.1328125v1.1352539h0.2587891V26.5986328z"/>
		<path class="st8" d="M48.8388672,25.8930664c0,0.1103516-0.0117188,0.2099609-0.0371094,0.2998047
			c-0.0253906,0.0893555-0.0644531,0.1660156-0.1152344,0.2290039c-0.0517578,0.0644531-0.1171875,0.1137695-0.1943359,0.1489258
			c-0.078125,0.034668-0.1689453,0.0522461-0.2744141,0.0522461c-0.0302734,0-0.0576172-0.0014648-0.0839844-0.0043945
			c-0.0263672-0.003418-0.0498047-0.0083008-0.0703125-0.0151367v-0.1611328h0.0087891
			c0.0166016,0.0083008,0.0400391,0.0161133,0.0693359,0.0239258c0.0302734,0.0073242,0.0644531,0.0112305,0.1015625,0.0112305
			c0.125,0,0.2246094-0.0371094,0.2949219-0.1118164c0.0722656-0.074707,0.1132813-0.1777344,0.125-0.309082
			c-0.0527344,0.03125-0.1035156,0.0541992-0.1503906,0.0673828c-0.0458984,0.0136719-0.0966797,0.0205078-0.1523438,0.0205078
			c-0.0517578,0-0.0996094-0.0053711-0.1416016-0.0151367c-0.0429688-0.0102539-0.0849609-0.0302734-0.1279297-0.0595703
			c-0.0498047-0.0341797-0.0878906-0.078125-0.1132813-0.1308594c-0.0253906-0.0532227-0.0380859-0.1166992-0.0380859-0.1904297
			c0-0.128418,0.0429688-0.2329102,0.1279297-0.3139648c0.0859375-0.0805664,0.1894531-0.1206055,0.3125-0.1206055
			c0.0625,0,0.1191406,0.0092773,0.1708984,0.0283203c0.0517578,0.0185547,0.0986328,0.0473633,0.1376953,0.0849609
			c0.0488281,0.046875,0.0859375,0.1069336,0.1113281,0.1806641C48.8261719,25.6811523,48.8388672,25.7763672,48.8388672,25.8930664
			z M48.6669922,25.8569336c0-0.0874023-0.0097656-0.1577148-0.0273438-0.2104492
			c-0.0175781-0.0532227-0.0429688-0.0942383-0.0751953-0.1235352c-0.0263672-0.0253906-0.0556641-0.0439453-0.0859375-0.0546875
			c-0.0302734-0.0112305-0.0634766-0.0166016-0.1005859-0.0166016c-0.0810547,0-0.1464844,0.0253906-0.1933594,0.0761719
			c-0.0478516,0.0507813-0.0712891,0.1220703-0.0712891,0.2138672c0,0.0537109,0.0078125,0.097168,0.0224609,0.1313477
			c0.015625,0.0336914,0.0419922,0.0634766,0.078125,0.0888672c0.0253906,0.0170898,0.0537109,0.0288086,0.0839844,0.0351563
			c0.03125,0.0058594,0.0654297,0.0087891,0.1035156,0.0087891c0.0439453,0,0.0888672-0.0058594,0.1347656-0.0180664
			c0.0449219-0.0117188,0.0878906-0.0288086,0.1269531-0.0512695c0.0009766-0.012207,0.0019531-0.0239258,0.0019531-0.0351563
			C48.6669922,25.8896484,48.6669922,25.875,48.6669922,25.8569336z"/>
		<path class="st8" d="M49.8408203,25.9921875c0.0273438,0.0244141,0.0498047,0.0546875,0.0673828,0.0913086
			s0.0263672,0.0839844,0.0263672,0.1420898c0,0.0576172-0.0107422,0.1103516-0.03125,0.1582031
			c-0.0214844,0.0478516-0.0507813,0.0898438-0.0888672,0.125c-0.0429688,0.0395508-0.0927734,0.0688477-0.1513672,0.0878906
			C49.6054688,26.6152344,49.5429688,26.625,49.4736328,26.625c-0.0703125,0-0.1396484-0.0083008-0.2080078-0.0249023
			s-0.1240234-0.0351563-0.1679688-0.0546875v-0.1767578h0.0126953c0.0478516,0.0317383,0.1054688,0.0576172,0.1708984,0.0786133
			s0.1279297,0.03125,0.1894531,0.03125c0.0351563,0,0.0732422-0.0058594,0.1142578-0.0175781
			c0.0400391-0.012207,0.0722656-0.0292969,0.0976563-0.0527344c0.0263672-0.0249023,0.0458984-0.0522461,0.0585938-0.0820313
			s0.0195313-0.0673828,0.0195313-0.1132813c0-0.0449219-0.0078125-0.0825195-0.0224609-0.1118164
			c-0.0146484-0.0297852-0.0341797-0.0532227-0.0595703-0.0698242c-0.0253906-0.0175781-0.0566406-0.0297852-0.0927734-0.0361328
			c-0.0371094-0.0063477-0.0761719-0.0097656-0.1181641-0.0097656H49.390625v-0.1401367h0.0605469
			c0.0859375,0,0.1552734-0.0180664,0.2060547-0.0537109c0.0517578-0.0361328,0.0771484-0.0883789,0.0771484-0.1572266
			c0-0.0302734-0.0058594-0.0571289-0.0195313-0.0795898c-0.0126953-0.0229492-0.03125-0.0419922-0.0546875-0.0566406
			c-0.0244141-0.0146484-0.0498047-0.0244141-0.078125-0.0302734c-0.0273438-0.0058594-0.0595703-0.0083008-0.0947266-0.0083008
			c-0.0537109,0-0.1113281,0.0092773-0.171875,0.0288086c-0.0615234,0.019043-0.1191406,0.0458984-0.1728516,0.0810547h-0.0087891
			v-0.1767578c0.0410156-0.0200195,0.0947266-0.0380859,0.1621094-0.0546875s0.1328125-0.0249023,0.1953125-0.0249023
			s0.1171875,0.0058594,0.1640625,0.0170898c0.0478516,0.0112305,0.0898438,0.0292969,0.1279297,0.0541992
			c0.0410156,0.0268555,0.0722656,0.0595703,0.0927734,0.0976563c0.0214844,0.0385742,0.0322266,0.0834961,0.0322266,0.1347656
			c0,0.0698242-0.0253906,0.1308594-0.0751953,0.1831055s-0.1083984,0.0849609-0.1757813,0.0986328v0.0117188
			c0.0273438,0.0043945,0.0585938,0.0141602,0.09375,0.0283203S49.8164063,25.9707031,49.8408203,25.9921875z"/>
	</g>
</g>
<g id="BMP280">
	<path class="st9" d="M64.6618423,29.1660957h-6.5026779c-0.1565552,0-0.2834663-0.1269131-0.2834663-0.2834663v-5.2235928
		c0-0.1565533,0.1269112-0.2834644,0.2834663-0.2834644h6.5026779c0.1565475,0,0.2834625,0.1269112,0.2834625,0.2834644v5.2235928
		C64.9453049,29.0391827,64.8183899,29.1660957,64.6618423,29.1660957z"/>
	<path class="st10" d="M62.8278236,28.428299h-2.8346481c-0.7795258,0-1.4173203-0.6377964-1.4173203-1.4173222v-1.5829487
		c0-0.7795277,0.6377945-1.4173222,1.4173203-1.4173222h2.8346481c0.7795296,0,1.4173241,0.6377945,1.4173241,1.4173222v1.5829487
		C64.2451477,27.7905025,63.6073532,28.428299,62.8278236,28.428299z"/>
	<rect x="58.3972168" y="22.4138336" class="st1" width="0.6378735" height="0.9611673"/>
	<rect x="63.7859116" y="22.4138336" class="st1" width="0.6378735" height="0.9611673"/>
	<rect x="61.9662895" y="22.4138336" class="st1" width="0.6378735" height="0.9611673"/>
	<rect x="60.1466637" y="22.4138336" class="st1" width="0.6378735" height="0.9611673"/>
	<rect x="58.3972168" y="29.166666" class="st1" width="0.6378735" height="0.9611673"/>
	<rect x="63.7859116" y="29.166666" class="st1" width="0.6378735" height="0.9611673"/>
	<rect x="61.9662895" y="29.166666" class="st1" width="0.6378735" height="0.9611673"/>
	<rect x="60.1466637" y="29.166666" class="st1" width="0.6378735" height="0.9611673"/>
	<path class="st11" d="M59.9304237,25.562685L59.9304237,25.562685c-0.1687927,0-0.3068962-0.1381016-0.3068962-0.3068924
		v-0.0000019c0-0.1687908,0.1381035-0.3068924,0.3068962-0.3068924l0,0c0.1687889,0,0.3068924,0.1381016,0.3068924,0.3068924
		v0.0000019C60.2373161,25.4245834,60.0992126,25.562685,59.9304237,25.562685z"/>
</g>
<g id="PCA9306">
	<g id="XMLID_4_">
		<g>
			<rect x="22.1712666" y="20.8138542" class="st7" width="13.9351263" height="10.8112955"/>
		</g>
		<g>
		</g>
	</g>
	<g id="XMLID_11_">
		<g>
			<rect x="22.8858891" y="31.6251507" class="st1" width="1.765116" height="5.0668936"/>
		</g>
		<g>
		</g>
	</g>
	<g id="XMLID_10_">
		<g>
			<rect x="26.526886" y="31.6251507" class="st1" width="1.7633294" height="5.0668936"/>
		</g>
		<g>
		</g>
	</g>
	<g id="XMLID_9_">
		<g>
			<rect x="30.1660976" y="31.6251507" class="st1" width="1.7633294" height="5.0668936"/>
		</g>
		<g>
		</g>
	</g>
	<g id="XMLID_8_">
		<g>
			<rect x="33.7624321" y="31.6251507" class="st1" width="1.7633294" height="5.0668936"/>
		</g>
		<g>
		</g>
	</g>
	<g id="XMLID_12_">
		<g>
			<rect x="33.7624321" y="15.7469606" class="st1" width="1.7633294" height="5.0668936"/>
		</g>
		<g>
		</g>
	</g>
	<g id="XMLID_13_">
		<g>
			<rect x="30.1214352" y="15.7469606" class="st1" width="1.765116" height="5.0668936"/>
		</g>
		<g>
		</g>
	</g>
	<g id="XMLID_14_">
		<g>
			<rect x="26.4804363" y="15.7469606" class="st1" width="1.765116" height="5.0668936"/>
		</g>
		<g>
		</g>
	</g>
	<g id="XMLID_15_">
		<g>
			<rect x="22.8412247" y="15.7469606" class="st1" width="1.7633294" height="5.0668936"/>
		</g>
		<g>
		</g>
	</g>
	<g>
		<path class="st8" d="M25.1572266,23.6689453c0,0.0810547-0.0136719,0.1567383-0.0419922,0.2260742
			s-0.0673828,0.1293945-0.1181641,0.1801758c-0.0625,0.0634766-0.1367188,0.1108398-0.2216797,0.1425781
			c-0.0859375,0.0317383-0.1933594,0.0473633-0.3242188,0.0473633h-0.2412109v0.6835938h-0.2421875v-1.8339844h0.4931641
			c0.109375,0,0.2021484,0.0092773,0.2773438,0.027832c0.0761719,0.0180664,0.1435547,0.0473633,0.2021484,0.0864258
			c0.0683594,0.046875,0.1220703,0.1054688,0.1601563,0.175293S25.1572266,23.5620117,25.1572266,23.6689453z M24.90625,23.675293
			c0-0.0634766-0.0117188-0.1186523-0.0332031-0.1650391c-0.0224609-0.046875-0.0556641-0.0854492-0.1005859-0.1147461
			c-0.0390625-0.0253906-0.0830078-0.0439453-0.1337891-0.0546875c-0.0498047-0.0112305-0.1132813-0.0166016-0.1894531-0.0166016
			h-0.2392578v0.7329102h0.2041016c0.0976563,0,0.1767578-0.0087891,0.2373047-0.0268555
			c0.0615234-0.0175781,0.1113281-0.0454102,0.1494141-0.0839844c0.0380859-0.0395508,0.0654297-0.0810547,0.0810547-0.1245117
			S24.90625,23.7294922,24.90625,23.675293z"/>
		<path class="st8" d="M26.8798828,24.815918c-0.0449219,0.0195313-0.0849609,0.0380859-0.1210938,0.0551758
			s-0.0839844,0.0351563-0.1425781,0.0541992c-0.0498047,0.015625-0.1035156,0.0288086-0.1621094,0.0400391
			c-0.0576172,0.0112305-0.1220703,0.0166016-0.1923828,0.0166016c-0.1318359,0-0.2509766-0.0185547-0.359375-0.0561523
			c-0.1074219-0.0371094-0.2011719-0.0957031-0.28125-0.175293c-0.078125-0.078125-0.1396484-0.1772461-0.1835938-0.2973633
			c-0.0439453-0.1206055-0.0654297-0.2602539-0.0654297-0.4194336c0-0.1513672,0.0205078-0.2861328,0.0634766-0.4052734
			c0.0419922-0.1191406,0.1035156-0.2197266,0.1826172-0.3017578c0.078125-0.0795898,0.1708984-0.140625,0.2802734-0.1826172
			c0.1103516-0.0415039,0.2314453-0.0625,0.3652344-0.0625c0.0976563,0,0.1953125,0.0117188,0.2919922,0.0356445
			c0.0976563,0.0239258,0.2060547,0.0654297,0.3242188,0.1254883v0.2895508h-0.0175781
			c-0.1005859-0.0844727-0.2001953-0.1459961-0.2988281-0.1845703c-0.0976563-0.0385742-0.203125-0.0581055-0.3164063-0.0581055
			c-0.0917969,0-0.1748047,0.0151367-0.2480469,0.0449219s-0.1396484,0.0766602-0.1972656,0.1396484
			c-0.0566406,0.0620117-0.0996094,0.1396484-0.1308594,0.2333984c-0.0322266,0.0942383-0.0478516,0.2026367-0.0478516,0.3261719
			c0,0.1289063,0.0175781,0.2397461,0.0527344,0.3325195c0.0341797,0.0927734,0.0791016,0.168457,0.1337891,0.2265625
			c0.0566406,0.0605469,0.1230469,0.105957,0.1992188,0.1347656c0.0761719,0.0292969,0.15625,0.0439453,0.2412109,0.0439453
			c0.1162109,0,0.2255859-0.0200195,0.3271484-0.0605469c0.1015625-0.0400391,0.1972656-0.1005859,0.2861328-0.1811523h0.0166016
			V24.815918z"/>
		<path class="st8" d="M28.6557617,24.9487305h-0.2578125L28.2197266,24.4375h-0.7871094l-0.1777344,0.5112305h-0.2451172
			l0.6611328-1.8339844h0.3227539L28.6557617,24.9487305z M28.1450195,24.2280273l-0.3188477-0.9003906l-0.3193359,0.9003906
			H28.1450195z"/>
		<path class="st8" d="M30.112793,23.9213867c0,0.1601563-0.0180664,0.3056641-0.0541992,0.4360352
			c-0.0366211,0.1308594-0.0913086,0.2416992-0.1645508,0.3339844c-0.0742188,0.0932617-0.1669922,0.1655273-0.2783203,0.2167969
			c-0.1118164,0.0507813-0.2426758,0.0761719-0.3930664,0.0761719c-0.0424805,0-0.0825195-0.0019531-0.1201172-0.0068359
			c-0.0371094-0.0043945-0.0708008-0.0117188-0.1000977-0.0214844v-0.2353516h0.012207
			c0.0239258,0.0126953,0.0571289,0.0244141,0.1000977,0.0351563c0.043457,0.0112305,0.0913086,0.0166016,0.1445313,0.0166016
			c0.1796875,0,0.3208008-0.0541992,0.4228516-0.1630859s0.1616211-0.2587891,0.1777344-0.4501953
			c-0.0756836,0.0458984-0.1469727,0.0786133-0.2138672,0.0986328c-0.0664063,0.0195313-0.1396484,0.0292969-0.2182617,0.0292969
			c-0.0751953,0-0.1430664-0.0073242-0.2036133-0.0219727s-0.121582-0.043457-0.1826172-0.0864258
			c-0.0712891-0.0498047-0.1254883-0.1137695-0.1616211-0.190918s-0.0541992-0.1694336-0.0541992-0.2768555
			c0-0.1875,0.0610352-0.3398438,0.1831055-0.4570313c0.1220703-0.1176758,0.2709961-0.1762695,0.4467773-0.1762695
			c0.0878906,0,0.1694336,0.0136719,0.2441406,0.0415039c0.0751953,0.0273438,0.140625,0.0683594,0.1967773,0.1235352
			c0.0693359,0.0683594,0.1225586,0.1557617,0.1601563,0.2631836C30.09375,23.612793,30.112793,23.7514648,30.112793,23.9213867z
			 M29.8662109,23.8686523c0-0.1274414-0.0131836-0.2294922-0.0390625-0.3066406
			c-0.0263672-0.0776367-0.0620117-0.137207-0.1079102-0.1801758c-0.0380859-0.0366211-0.0791016-0.0634766-0.1230469-0.0795898
			c-0.0439453-0.015625-0.0917969-0.0239258-0.1430664-0.0239258c-0.1171875,0-0.2099609,0.0371094-0.277832,0.1108398
			c-0.0678711,0.0742188-0.1020508,0.1777344-0.1020508,0.3120117c0,0.0776367,0.0112305,0.1416016,0.0332031,0.190918
			c0.0219727,0.0488281,0.059082,0.0922852,0.1113281,0.1289063c0.0366211,0.0258789,0.0766602,0.0424805,0.1206055,0.0512695
			s0.0927734,0.0131836,0.1464844,0.0131836c0.0634766,0,0.1279297-0.0087891,0.1928711-0.0258789
			c0.0654297-0.0175781,0.1264648-0.0424805,0.1835938-0.0751953c0.0004883-0.0175781,0.0014648-0.0341797,0.0029297-0.0512695
			C29.8652344,23.9165039,29.8662109,23.8945313,29.8662109,23.8686523z"/>
		<path class="st8" d="M31.5449219,24.0654297c0.0390625,0.0356445,0.0712891,0.0795898,0.0966797,0.1333008
			c0.0249023,0.0532227,0.0375977,0.1220703,0.0375977,0.2070313c0,0.0834961-0.0151367,0.1601563-0.0449219,0.2299805
			c-0.0302734,0.0698242-0.0727539,0.1308594-0.1269531,0.1826172c-0.0610352,0.0571289-0.1333008,0.0996094-0.2158203,0.1274414
			c-0.0825195,0.0273438-0.1733398,0.0410156-0.2714844,0.0410156c-0.1010742,0-0.2001953-0.012207-0.2983398-0.0361328
			c-0.0976563-0.0244141-0.1777344-0.0507813-0.2402344-0.0795898v-0.2573242h0.0180664
			c0.0693359,0.0458984,0.1508789,0.0839844,0.2441406,0.1142578c0.09375,0.0307617,0.184082,0.0458984,0.2714844,0.0458984
			c0.0512695,0,0.1054688-0.0087891,0.1635742-0.0258789c0.0576172-0.0175781,0.1044922-0.0429688,0.140625-0.0766602
			c0.0371094-0.0361328,0.0649414-0.0756836,0.0834961-0.1191406c0.0180664-0.043457,0.0273438-0.0986328,0.0273438-0.1650391
			c0-0.065918-0.0102539-0.1201172-0.03125-0.1635742c-0.0205078-0.0429688-0.0493164-0.0766602-0.0859375-0.1015625
			c-0.0366211-0.0253906-0.0810547-0.0429688-0.1333008-0.0522461c-0.0517578-0.0092773-0.1079102-0.0141602-0.168457-0.0141602
			h-0.1098633v-0.2045898h0.0854492c0.1240234,0,0.2226563-0.0258789,0.2963867-0.078125s0.1103516-0.128418,0.1103516-0.2285156
			c0-0.0444336-0.0092773-0.0830078-0.027832-0.1162109c-0.019043-0.0332031-0.0449219-0.0605469-0.0786133-0.0820313
			c-0.034668-0.0214844-0.0722656-0.0361328-0.1123047-0.0444336c-0.0395508-0.0083008-0.0849609-0.012207-0.1352539-0.012207
			c-0.0776367,0-0.159668,0.0141602-0.2470703,0.0419922c-0.0869141,0.027832-0.1689453,0.0673828-0.246582,0.1181641h-0.012207
			v-0.2573242c0.0581055-0.0288086,0.1352539-0.0551758,0.2314453-0.0795898
			c0.0966797-0.0244141,0.1899414-0.0361328,0.2802734-0.0361328c0.0888672,0,0.1669922,0.0078125,0.234375,0.0244141
			c0.0678711,0.0166016,0.1289063,0.0429688,0.1835938,0.0786133c0.0585938,0.0395508,0.1030273,0.0874023,0.1328125,0.1430664
			c0.0302734,0.0561523,0.0454102,0.1210938,0.0454102,0.1958008c0,0.1020508-0.0356445,0.190918-0.1069336,0.2666016
			c-0.0712891,0.0761719-0.1552734,0.1240234-0.2524414,0.1435547v0.0175781
			c0.0395508,0.0063477,0.0839844,0.0200195,0.1347656,0.0410156
			C31.4672852,24.0083008,31.5102539,24.0341797,31.5449219,24.0654297z"/>
		<path class="st8" d="M33.2924805,24.03125c0,0.3291016-0.0512695,0.5708008-0.1533203,0.7246094
			c-0.1020508,0.1542969-0.2607422,0.230957-0.4755859,0.230957c-0.2182617,0-0.3779297-0.078125-0.4780273-0.2338867
			c-0.1005859-0.15625-0.1508789-0.3959961-0.1508789-0.7192383c0-0.3261719,0.0507813-0.5668945,0.1523438-0.7226563
			c0.1020508-0.1557617,0.2607422-0.2333984,0.4765625-0.2333984c0.2182617,0,0.3774414,0.0791016,0.4780273,0.2373047
			C33.2421875,23.4726563,33.2924805,23.7114258,33.2924805,24.03125z M32.9711914,24.590332
			c0.0283203-0.0664063,0.0478516-0.1445313,0.0581055-0.2348633c0.0102539-0.0898438,0.0151367-0.1977539,0.0151367-0.3242188
			c0-0.125-0.0048828-0.2333984-0.0151367-0.3251953c-0.0102539-0.0922852-0.0297852-0.1699219-0.059082-0.234375
			c-0.0288086-0.0629883-0.0673828-0.1108398-0.1166992-0.1425781c-0.0493164-0.0322266-0.112793-0.0483398-0.1899414-0.0483398
			c-0.0766602,0-0.1401367,0.0161133-0.1899414,0.0483398c-0.050293,0.0317383-0.0898438,0.0805664-0.1191406,0.1450195
			c-0.027832,0.0610352-0.046875,0.1401367-0.0566406,0.237793c-0.0102539,0.0976563-0.015625,0.2050781-0.015625,0.3217773
			c0,0.1279297,0.0048828,0.2353516,0.0136719,0.3212891c0.0087891,0.0864258,0.027832,0.1635742,0.0571289,0.2314453
			c0.0268555,0.0644531,0.0649414,0.1132813,0.1142578,0.1469727s0.1147461,0.050293,0.1962891,0.050293
			c0.0761719,0,0.1401367-0.0161133,0.1904297-0.0478516C32.9042969,24.7036133,32.9433594,24.6552734,32.9711914,24.590332z"/>
		<path class="st8" d="M34.9116211,24.3540039c0,0.1860352-0.0610352,0.3383789-0.1826172,0.4560547
			c-0.121582,0.1181641-0.2709961,0.1767578-0.4477539,0.1767578c-0.0893555,0-0.1708984-0.0136719-0.2441406-0.0419922
			c-0.0732422-0.027832-0.1381836-0.0693359-0.1943359-0.1240234c-0.0698242-0.0683594-0.1235352-0.1586914-0.1616211-0.2709961
			c-0.0380859-0.112793-0.0566406-0.2480469-0.0566406-0.4067383c0-0.1625977,0.0170898-0.3066406,0.0517578-0.4321289
			c0.034668-0.1259766,0.0898438-0.2373047,0.1655273-0.3349609c0.0717773-0.0927734,0.1640625-0.1655273,0.2773438-0.2177734
			c0.112793-0.0517578,0.2451172-0.078125,0.3955078-0.078125c0.0478516,0,0.0883789,0.0019531,0.1210938,0.0063477
			c0.0322266,0.0039063,0.0654297,0.0112305,0.0986328,0.0219727V23.34375h-0.012207
			c-0.0224609-0.012207-0.0571289-0.0239258-0.1030273-0.0351563s-0.0932617-0.0166016-0.1411133-0.0166016
			c-0.175293,0-0.3149414,0.0551758-0.4189453,0.1655273c-0.1040039,0.1108398-0.1650391,0.2597656-0.1821289,0.4477539
			c0.0683594-0.0415039,0.1357422-0.0737305,0.2021484-0.0952148c0.0664063-0.0219727,0.1430664-0.0327148,0.2304688-0.0327148
			c0.0771484,0,0.1455078,0.0073242,0.2045898,0.0214844c0.059082,0.0146484,0.1191406,0.043457,0.1811523,0.0869141
			c0.0717773,0.050293,0.1254883,0.1132813,0.1621094,0.1894531C34.8935547,24.1518555,34.9116211,24.2446289,34.9116211,24.3540039
			z M34.6635742,24.3637695c0-0.0766602-0.0112305-0.1396484-0.0336914-0.1899414
			c-0.0224609-0.0498047-0.059082-0.0932617-0.1103516-0.1303711C34.4819336,24.0170898,34.4404297,24,34.3950195,23.9916992
			c-0.0458984-0.0083008-0.0932617-0.012207-0.1430664-0.012207c-0.0688477,0-0.1333008,0.0083008-0.1928711,0.0244141
			c-0.0595703,0.0166016-0.1206055,0.0419922-0.1831055,0.0766602c-0.0014648,0.0180664-0.0029297,0.0351563-0.0039063,0.0522461
			c-0.0004883,0.0166016-0.0009766,0.0380859-0.0009766,0.0634766c0,0.1293945,0.0131836,0.2319336,0.0395508,0.3071289
			s0.0629883,0.1342773,0.109375,0.1782227c0.0375977,0.0361328,0.078125,0.0625,0.121582,0.0791016
			c0.043457,0.0170898,0.0908203,0.0253906,0.1420898,0.0253906c0.1181641,0,0.2109375-0.0361328,0.2788086-0.1088867
			C34.6298828,24.6044922,34.6635742,24.5,34.6635742,24.3637695z"/>
	</g>
</g>
<g id="Рисунок">
	<circle class="st12" cx="12.6128731" cy="42.5200005" r="8.2924128"/>
	<path class="st13" d="M6.547071,45.2652855c0.7935371-0.7201195,2.0205979-0.6606026,2.7407155,0.1329346
		c0.7201185,0.7935371,0.6606007,2.0205994-0.1329365,2.7407188"/>
	<line class="st14" x1="12.5832262" y1="42.4076805" x2="9.24821" y2="45.4341354"/>
	<line class="st14" x1="15.1015692" y1="40.1223373" x2="10.8909197" y2="43.9434128"/>
	<circle class="st3" cx="12.5832262" cy="42.4076805" r="1.5299995"/>
	<polyline class="st15" points="15.1015692,40.1223373 16.6373024,41.8146439 16.7938766,38.5866051 13.5658369,38.4300308 
		15.1015692,40.1223373 	"/>
</g>
<g id="ГРУППА">
	<g>
		<polygon class="st16" points="59.838974,48.2375412 59.838974,51.6752014 55.5834999,51.6752014 55.5834999,48.2375412 
			55.8915062,48.2375412 55.8915062,48.9420662 59.4991035,48.9420662 59.4991035,48.2375412 		"/>
		<polygon class="st16" points="59.7982635,41.1090851 59.7982635,44.5467491 59.4991035,44.5467491 59.4991035,43.7802658 
			55.8915062,43.7802658 55.8915062,44.5467491 55.5427856,44.5467491 55.5427856,41.1090851 		"/>
		<rect x="55.8915062" y="48.2375412" class="st17" width="3.6075966" height="0.7045258"/>
		<rect x="55.8915062" y="44.5467491" class="st17" width="3.6075966" height="3.6907945"/>
		<rect x="55.8915062" y="43.7802658" class="st17" width="3.6075966" height="0.7664815"/>
	</g>
	<g>
	</g>
</g>
<g id="ГРУППА_1_">
	<g>
		<polygon class="st16" points="52.4486885,47.8581696 52.4486885,51.2958298 48.1932144,51.2958298 48.1932144,47.8581696 
			48.5029907,47.8581696 48.5029907,48.5626945 52.1088181,48.5626945 52.1088181,47.8581696 		"/>
		<polygon class="st16" points="52.4079742,40.7297134 52.4079742,44.1673737 52.1088181,44.1673737 52.1088181,43.4008942 
			48.5029907,43.4008942 48.5029907,44.1673737 48.1525002,44.1673737 48.1525002,40.7297134 		"/>
		<rect x="48.5029907" y="47.8581696" class="st17" width="3.6058266" height="0.7045258"/>
		<rect x="48.5029907" y="44.1673737" class="st17" width="3.6058266" height="3.6907945"/>
		<rect x="48.5029907" y="43.4008942" class="st17" width="3.6058266" height="0.7664815"/>
	</g>
	<g>
	</g>
</g>
<g id="ГРУППА_3_">
	<g>
		<polygon class="st16" points="45.370369,47.8581696 45.370369,51.2958298 41.1148911,51.2958298 41.1148911,47.8581696 
			41.4229012,47.8581696 41.4229012,48.5626945 45.0304947,48.5626945 45.0304947,47.8581696 		"/>
		<rect x="41.4229012" y="47.8581696" class="st17" width="3.6075966" height="0.7045258"/>
		<rect x="41.4229012" y="44.1673737" class="st17" width="3.6075966" height="3.6907945"/>
		<rect x="41.4229012" y="43.4008942" class="st17" width="3.6075966" height="0.7664815"/>
		<polygon class="st16" points="41.0741768,44.1673737 41.0741768,40.7297134 45.3296547,40.7297134 45.3296547,44.1673737 
			45.0304947,44.1673737 45.0304947,43.4008942 41.4229012,43.4008942 41.4229012,44.1673737 		"/>
	</g>
	<g>
	</g>
</g>
<g id="ГРУППА_2_">
	<g>
		<polygon class="st16" points="30.6522408,48.2053757 30.6522408,51.6430359 26.3967648,51.6430359 26.3967648,48.2053757 
			26.706543,48.2053757 26.706543,48.9099007 30.3123684,48.9099007 30.3123684,48.2053757 		"/>
		<polygon class="st16" points="30.6115265,41.0769196 30.6115265,44.5145798 30.3123684,44.5145798 30.3123684,43.7480965 
			26.706543,43.7480965 26.706543,44.5145798 26.3560505,44.5145798 26.3560505,41.0769196 		"/>
		<rect x="26.706543" y="48.2053757" class="st17" width="3.6058266" height="0.7045258"/>
		<rect x="26.706543" y="44.5145798" class="st17" width="3.6058266" height="3.6907945"/>
		<rect x="26.706543" y="43.7480965" class="st17" width="3.6058266" height="0.7664815"/>
	</g>
	<g>
	</g>
</g>
<g>
	<g id="XMLID_40_">
		<g>
			<rect x="34.0347977" y="47.8891487" class="st16" width="4.2572474" height="3.4376609"/>
		</g>
		<g>
		</g>
	</g>
	<g id="XMLID_39_">
		<g>
			<rect x="33.9958534" y="40.7606964" class="st16" width="4.255477" height="3.4376609"/>
		</g>
		<g>
		</g>
	</g>
	<g id="XMLID_38_">
		<g>
			<rect x="34.3463478" y="43.431694" class="st7" width="3.6058266" height="5.1633434"/>
		</g>
		<g>
		</g>
	</g>
	<g>
		<path class="st8" d="M36.6923828,46.953125v0.6962891h-0.1313477v-0.2675781h-0.862793v0.2675781h-0.1171875
			c0-0.0361328-0.003418-0.0751953-0.0092773-0.1162109c-0.0058594-0.0419922-0.0146484-0.0732422-0.0263672-0.0947266
			c-0.0141602-0.0263672-0.0327148-0.046875-0.0546875-0.0625c-0.0224609-0.015625-0.0522461-0.0244141-0.0898438-0.0263672
			v-0.1337891h1.1601563V46.953125H36.6923828z"/>
		<path class="st8" d="M36.0483398,45.9326172c0.230957,0,0.4008789,0.0361328,0.5087891,0.1083984
			s0.1621094,0.1845703,0.1621094,0.3369141c0,0.1542969-0.0546875,0.2675781-0.1640625,0.3388672
			c-0.1098633,0.0712891-0.277832,0.1064453-0.5048828,0.1064453c-0.2290039,0-0.3979492-0.0361328-0.5068359-0.1083984
			c-0.109375-0.0712891-0.1640625-0.1835938-0.1640625-0.3369141c0-0.1542969,0.0556641-0.2666016,0.1665039-0.3378906
			S35.8242188,45.9326172,36.0483398,45.9326172z M36.440918,46.1601563
			c-0.046875-0.0205078-0.1015625-0.0341797-0.1645508-0.0410156c-0.0634766-0.0068359-0.1391602-0.0107422-0.2280273-0.0107422
			c-0.0874023,0-0.1635742,0.0039063-0.2280273,0.0107422s-0.1191406,0.0214844-0.1640625,0.0419922
			c-0.0444336,0.0205078-0.078125,0.0478516-0.1005859,0.0830078c-0.0224609,0.0341797-0.0336914,0.0791016-0.0336914,0.1337891
			s0.0112305,0.0996094,0.0336914,0.1347656s0.0566406,0.0634766,0.1020508,0.0839844
			c0.0424805,0.0195313,0.0981445,0.0332031,0.1669922,0.0400391c0.0683594,0.0078125,0.1435547,0.0107422,0.2255859,0.0107422
			c0.0898438,0,0.1650391-0.0029297,0.2255859-0.0087891c0.0605469-0.0068359,0.1147461-0.0205078,0.1625977-0.0410156
			c0.0449219-0.0185547,0.0791016-0.0458984,0.1025391-0.0810547c0.0239258-0.0341797,0.0356445-0.0810547,0.0356445-0.1386719
			c0-0.0537109-0.0112305-0.0986328-0.0336914-0.1347656C36.5205078,46.2080078,36.4863281,46.1796875,36.440918,46.1601563z"/>
		<path class="st8" d="M36.0483398,44.984375c0.230957,0,0.4008789,0.0361328,0.5087891,0.1083984
			s0.1621094,0.1845703,0.1621094,0.3369141c0,0.1542969-0.0546875,0.2666016-0.1640625,0.3378906
			c-0.1098633,0.0712891-0.277832,0.1064453-0.5048828,0.1064453c-0.2290039,0-0.3979492-0.0351563-0.5068359-0.1074219
			c-0.109375-0.0722656-0.1640625-0.1845703-0.1640625-0.3369141c0-0.1542969,0.0556641-0.2675781,0.1665039-0.3388672
			S35.8242188,44.984375,36.0483398,44.984375z M36.440918,45.2119141c-0.046875-0.0205078-0.1015625-0.0341797-0.1645508-0.0410156
			c-0.0634766-0.0078125-0.1391602-0.0107422-0.2280273-0.0107422c-0.0874023,0-0.1635742,0.0029297-0.2280273,0.0107422
			c-0.0644531,0.0068359-0.1191406,0.0205078-0.1640625,0.0419922c-0.0444336,0.0195313-0.078125,0.046875-0.1005859,0.0820313
			S35.5219727,45.375,35.5219727,45.4296875c0,0.0537109,0.0112305,0.0986328,0.0336914,0.1337891
			c0.0224609,0.0361328,0.0566406,0.0634766,0.1020508,0.0849609c0.0424805,0.0195313,0.0981445,0.0322266,0.1669922,0.0400391
			c0.0683594,0.0068359,0.1435547,0.0107422,0.2255859,0.0107422c0.0898438,0,0.1650391-0.0029297,0.2255859-0.0097656
			c0.0605469-0.0058594,0.1147461-0.0195313,0.1625977-0.0410156c0.0449219-0.0185547,0.0791016-0.0458984,0.1025391-0.0800781
			c0.0239258-0.0351563,0.0356445-0.0810547,0.0356445-0.1386719c0-0.0546875-0.0112305-0.0996094-0.0336914-0.1347656
			C36.5205078,45.2587891,36.4863281,45.2314453,36.440918,45.2119141z"/>
		<path class="st8" d="M36.6923828,44.0341797v0.8710938h-0.1806641c-0.0517578-0.0605469-0.1035156-0.1210938-0.1557617-0.1816406
			c-0.0517578-0.0605469-0.1030273-0.1171875-0.1542969-0.1699219c-0.1074219-0.1103516-0.1923828-0.1865234-0.2558594-0.2275391
			c-0.0629883-0.0410156-0.1308594-0.0615234-0.2041016-0.0615234c-0.0668945,0-0.1191406,0.0224609-0.1567383,0.0664063
			C35.546875,44.375,35.5283203,44.4365234,35.5283203,44.515625c0,0.0527344,0.0087891,0.109375,0.0273438,0.1699219
			c0.0185547,0.0615234,0.046875,0.1210938,0.0849609,0.1796875v0.0087891h-0.1816406
			c-0.0200195-0.0410156-0.0385742-0.0957031-0.0551758-0.1640625c-0.0170898-0.0683594-0.0253906-0.1347656-0.0253906-0.1982422
			c0-0.1318359,0.0322266-0.2353516,0.0957031-0.3105469s0.1499023-0.1123047,0.2587891-0.1123047
			c0.0488281,0,0.0947266,0.0058594,0.137207,0.0185547c0.0419922,0.0126953,0.0825195,0.0302734,0.1206055,0.0546875
			c0.0356445,0.0224609,0.0708008,0.0488281,0.1054688,0.0791016c0.0341797,0.0302734,0.0727539,0.0673828,0.1147461,0.1103516
			c0.0605469,0.0615234,0.1191406,0.125,0.1757813,0.1914063c0.0566406,0.0654297,0.109375,0.1269531,0.1577148,0.1835938
			v-0.6923828H36.6923828z"/>
	</g>
</g>
<g>
	<g id="XMLID_3_">
		<g>
			<rect x="64.9461212" y="47.9227524" class="st16" width="4.255477" height="3.4358907"/>
		</g>
		<g>
		</g>
	</g>
	<g id="XMLID_2_">
		<g>
			<rect x="64.9054108" y="40.7925262" class="st16" width="4.255477" height="3.4376609"/>
		</g>
		<g>
		</g>
	</g>
	<g id="XMLID_1_">
		<g>
			<rect x="65.2558975" y="43.4649696" class="st7" width="3.6058266" height="5.1611581"/>
		</g>
		<g>
		</g>
	</g>
	<g>
		<path class="st8" d="M67.6025391,46.984375v0.6972656h-0.1308594v-0.2675781h-0.8632813v0.2675781h-0.1171875
			c0-0.0361328-0.0029297-0.0751953-0.0087891-0.1171875c-0.0058594-0.0410156-0.0146484-0.0722656-0.0263672-0.09375
			c-0.0146484-0.0263672-0.0332031-0.046875-0.0546875-0.0625c-0.0224609-0.015625-0.0527344-0.0244141-0.0898438-0.0263672
			v-0.1337891h1.1601563V46.984375H67.6025391z"/>
		<path class="st8" d="M66.9589844,45.9648438c0.2304688,0,0.4003906,0.0361328,0.5087891,0.1083984
			c0.1074219,0.0722656,0.1621094,0.1845703,0.1621094,0.3369141c0,0.1542969-0.0546875,0.2675781-0.1640625,0.3378906
			c-0.1103516,0.0722656-0.2783203,0.1074219-0.5048828,0.1074219c-0.2294922,0-0.3984375-0.0361328-0.5068359-0.1083984
			c-0.109375-0.0712891-0.1640625-0.1845703-0.1640625-0.3369141c0-0.1542969,0.0556641-0.2675781,0.1660156-0.3378906
			C66.5673828,46,66.734375,45.9648438,66.9589844,45.9648438z M67.3515625,46.1923828
			c-0.046875-0.0205078-0.1015625-0.0341797-0.1650391-0.0410156s-0.1386719-0.0107422-0.2275391-0.0107422
			c-0.0878906,0-0.1640625,0.0039063-0.2285156,0.0107422s-0.1191406,0.0205078-0.1640625,0.0419922
			c-0.0439453,0.0195313-0.078125,0.046875-0.1005859,0.0820313s-0.0332031,0.0800781-0.0332031,0.1347656
			s0.0107422,0.0996094,0.0332031,0.1347656s0.0566406,0.0625,0.1025391,0.0839844
			c0.0419922,0.0195313,0.0976563,0.0332031,0.1669922,0.0400391c0.0683594,0.0068359,0.1435547,0.0107422,0.2255859,0.0107422
			c0.0898438,0,0.1650391-0.0029297,0.2255859-0.0097656c0.0605469-0.0058594,0.1142578-0.0195313,0.1621094-0.0410156
			c0.0449219-0.0175781,0.0791016-0.0449219,0.1025391-0.0800781c0.0244141-0.0351563,0.0361328-0.0810547,0.0361328-0.1386719
			c0-0.0546875-0.0117188-0.0996094-0.0341797-0.1347656S67.3964844,46.2119141,67.3515625,46.1923828z"/>
		<path class="st8" d="M66.9589844,45.015625c0.2304688,0,0.4003906,0.0371094,0.5087891,0.109375
			c0.1074219,0.0722656,0.1621094,0.1835938,0.1621094,0.3359375c0,0.1542969-0.0546875,0.2675781-0.1640625,0.3388672
			C67.3554688,45.8710938,67.1875,45.90625,66.9609375,45.90625c-0.2294922,0-0.3984375-0.0351563-0.5068359-0.1074219
			c-0.109375-0.0722656-0.1640625-0.1845703-0.1640625-0.3378906c0-0.1542969,0.0556641-0.2666016,0.1660156-0.3378906
			C66.5673828,45.0517578,66.734375,45.015625,66.9589844,45.015625z M67.3515625,45.2441406
			c-0.046875-0.0214844-0.1015625-0.0351563-0.1650391-0.0410156c-0.0634766-0.0078125-0.1386719-0.0117188-0.2275391-0.0117188
			c-0.0878906,0-0.1640625,0.0039063-0.2285156,0.0117188c-0.0644531,0.0058594-0.1191406,0.0205078-0.1640625,0.0410156
			c-0.0439453,0.0205078-0.078125,0.0478516-0.1005859,0.0830078c-0.0224609,0.0341797-0.0332031,0.0791016-0.0332031,0.1337891
			s0.0107422,0.0996094,0.0332031,0.1347656s0.0566406,0.0634766,0.1025391,0.0839844
			c0.0419922,0.0195313,0.0976563,0.0332031,0.1669922,0.0410156c0.0683594,0.0068359,0.1435547,0.0097656,0.2255859,0.0097656
			c0.0898438,0,0.1650391-0.0019531,0.2255859-0.0087891s0.1142578-0.0205078,0.1621094-0.0410156
			c0.0449219-0.0185547,0.0791016-0.0458984,0.1025391-0.0810547c0.0244141-0.0341797,0.0361328-0.0800781,0.0361328-0.1386719
			c0-0.0537109-0.0117188-0.0986328-0.0341797-0.1347656C67.4306641,45.2910156,67.3964844,45.2636719,67.3515625,45.2441406z"/>
		<path class="st8" d="M67.6025391,44.0664063V44.9375H67.421875c-0.0517578-0.0605469-0.1035156-0.1210938-0.1552734-0.1816406
			s-0.1035156-0.1171875-0.1542969-0.1699219c-0.1074219-0.1113281-0.1923828-0.1865234-0.2558594-0.2275391
			s-0.1308594-0.0615234-0.2041016-0.0615234c-0.0673828,0-0.1191406,0.0214844-0.1572266,0.0664063
			c-0.0380859,0.0439453-0.0566406,0.1054688-0.0566406,0.1845703c0,0.0517578,0.0087891,0.1083984,0.0273438,0.1699219
			s0.046875,0.1210938,0.0849609,0.1787109V44.90625h-0.1816406c-0.0195313-0.0410156-0.0380859-0.0957031-0.0546875-0.1640625
			c-0.0175781-0.0683594-0.0253906-0.1347656-0.0253906-0.1992188c0-0.1308594,0.0322266-0.234375,0.0957031-0.3105469
			c0.0634766-0.0742188,0.1494141-0.1113281,0.2587891-0.1113281c0.0488281,0,0.0947266,0.0058594,0.1367188,0.0175781
			c0.0419922,0.0136719,0.0830078,0.03125,0.1210938,0.0556641c0.0351563,0.0224609,0.0703125,0.0488281,0.1054688,0.0791016
			c0.0341797,0.0302734,0.0722656,0.0664063,0.1142578,0.109375c0.0605469,0.0625,0.1191406,0.1259766,0.1757813,0.1914063
			c0.0566406,0.0664063,0.109375,0.1269531,0.1582031,0.1845703v-0.6923828H67.6025391z"/>
	</g>
</g>
<g>
	<g id="XMLID_21_">
		<g>
			<rect x="71.9458694" y="47.889389" class="st16" width="4.255477" height="3.4376609"/>
		</g>
		<g>
		</g>
	</g>
	<g id="XMLID_20_">
		<g>
			<rect x="71.905159" y="40.7609329" class="st16" width="4.255477" height="3.4376609"/>
		</g>
		<g>
		</g>
	</g>
	<g id="XMLID_7_">
		<g>
			<rect x="72.2556534" y="43.4314995" class="st7" width="3.6058266" height="5.1633434"/>
		</g>
		<g>
		</g>
	</g>
	<g>
		<path class="st8" d="M74.6025391,46.953125v0.6962891h-0.1318359v-0.2675781h-0.8623047v0.2675781h-0.1171875
			c0-0.0361328-0.0039063-0.0751953-0.0097656-0.1162109c-0.0058594-0.0419922-0.0146484-0.0732422-0.0263672-0.0947266
			c-0.0136719-0.0263672-0.0322266-0.046875-0.0546875-0.0625s-0.0517578-0.0244141-0.0898438-0.0263672v-0.1337891h1.1601563
			V46.953125H74.6025391z"/>
		<path class="st8" d="M73.9580078,45.9326172c0.2314453,0,0.4013672,0.0361328,0.5087891,0.1083984
			c0.1083984,0.0722656,0.1621094,0.1845703,0.1621094,0.3369141c0,0.1542969-0.0546875,0.2675781-0.1640625,0.3388672
			s-0.2773438,0.1064453-0.5048828,0.1064453c-0.2285156,0-0.3974609-0.0361328-0.5068359-0.1083984
			c-0.109375-0.0712891-0.1640625-0.1835938-0.1640625-0.3369141c0-0.1542969,0.0556641-0.2666016,0.1669922-0.3378906
			C73.5664063,45.96875,73.734375,45.9326172,73.9580078,45.9326172z M74.3505859,46.1601563
			c-0.046875-0.0205078-0.1015625-0.0341797-0.1640625-0.0410156c-0.0634766-0.0068359-0.1396484-0.0107422-0.2285156-0.0107422
			c-0.0869141,0-0.1630859,0.0039063-0.2275391,0.0107422s-0.1191406,0.0214844-0.1640625,0.0419922
			s-0.078125,0.0478516-0.1005859,0.0830078c-0.0224609,0.0341797-0.0341797,0.0791016-0.0341797,0.1337891
			s0.0117188,0.0996094,0.0341797,0.1347656s0.0566406,0.0634766,0.1015625,0.0839844
			c0.0429688,0.0195313,0.0986328,0.0332031,0.1669922,0.0400391c0.0683594,0.0078125,0.1435547,0.0107422,0.2255859,0.0107422
			c0.0898438,0,0.1650391-0.0029297,0.2255859-0.0087891c0.0605469-0.0068359,0.1152344-0.0205078,0.1630859-0.0410156
			c0.0449219-0.0185547,0.0791016-0.0458984,0.1025391-0.0810547c0.0234375-0.0341797,0.0351563-0.0810547,0.0351563-0.1386719
			c0-0.0537109-0.0107422-0.0986328-0.0332031-0.1347656C74.4306641,46.2080078,74.3964844,46.1796875,74.3505859,46.1601563z"/>
		<path class="st8" d="M73.9580078,44.984375c0.2314453,0,0.4013672,0.0361328,0.5087891,0.1083984
			c0.1083984,0.0722656,0.1621094,0.1845703,0.1621094,0.3369141c0,0.1542969-0.0546875,0.2666016-0.1640625,0.3378906
			s-0.2773438,0.1064453-0.5048828,0.1064453c-0.2285156,0-0.3974609-0.0351563-0.5068359-0.1074219
			s-0.1640625-0.1845703-0.1640625-0.3369141c0-0.1542969,0.0556641-0.2675781,0.1669922-0.3388672
			C73.5664063,45.0195313,73.734375,44.984375,73.9580078,44.984375z M74.3505859,45.2119141
			c-0.046875-0.0205078-0.1015625-0.0341797-0.1640625-0.0410156c-0.0634766-0.0078125-0.1396484-0.0107422-0.2285156-0.0107422
			c-0.0869141,0-0.1630859,0.0029297-0.2275391,0.0107422c-0.0644531,0.0068359-0.1191406,0.0205078-0.1640625,0.0419922
			c-0.0449219,0.0195313-0.078125,0.046875-0.1005859,0.0820313S73.4316406,45.375,73.4316406,45.4296875
			c0,0.0537109,0.0117188,0.0986328,0.0341797,0.1337891c0.0224609,0.0361328,0.0566406,0.0634766,0.1015625,0.0849609
			c0.0429688,0.0195313,0.0986328,0.0322266,0.1669922,0.0400391c0.0683594,0.0068359,0.1435547,0.0107422,0.2255859,0.0107422
			c0.0898438,0,0.1650391-0.0029297,0.2255859-0.0097656c0.0605469-0.0058594,0.1152344-0.0195313,0.1630859-0.0410156
			c0.0449219-0.0185547,0.0791016-0.0458984,0.1025391-0.0800781c0.0234375-0.0351563,0.0351563-0.0810547,0.0351563-0.1386719
			c0-0.0546875-0.0107422-0.0996094-0.0332031-0.1347656C74.4306641,45.2587891,74.3964844,45.2314453,74.3505859,45.2119141z"/>
		<path class="st8" d="M74.6025391,44.0341797v0.8710938H74.421875c-0.0517578-0.0605469-0.1035156-0.1210938-0.15625-0.1816406
			c-0.0517578-0.0605469-0.1025391-0.1171875-0.1542969-0.1699219c-0.1074219-0.1103516-0.1923828-0.1865234-0.2558594-0.2275391
			c-0.0625-0.0410156-0.1308594-0.0615234-0.2041016-0.0615234c-0.0664063,0-0.1191406,0.0224609-0.15625,0.0664063
			c-0.0380859,0.0439453-0.0566406,0.1054688-0.0566406,0.1845703c0,0.0527344,0.0087891,0.109375,0.0273438,0.1699219
			c0.0185547,0.0615234,0.046875,0.1210938,0.0849609,0.1796875v0.0087891h-0.1816406
			c-0.0205078-0.0410156-0.0390625-0.0957031-0.0556641-0.1640625s-0.0253906-0.1347656-0.0253906-0.1982422
			c0-0.1318359,0.0322266-0.2353516,0.0957031-0.3105469s0.1503906-0.1123047,0.2587891-0.1123047
			c0.0488281,0,0.0947266,0.0058594,0.1376953,0.0185547c0.0419922,0.0126953,0.0820313,0.0302734,0.1201172,0.0546875
			c0.0361328,0.0224609,0.0712891,0.0488281,0.1054688,0.0791016s0.0732422,0.0673828,0.1152344,0.1103516
			c0.0605469,0.0615234,0.1191406,0.125,0.1757813,0.1914063c0.0566406,0.0654297,0.109375,0.1269531,0.1572266,0.1835938
			v-0.6923828H74.6025391z"/>
	</g>
</g>
<g>
	<g id="XMLID_24_">
		<g>
			<rect x="60.9882469" y="71.4521866" class="st16" width="4.2572474" height="3.4358907"/>
		</g>
		<g>
		</g>
	</g>
	<g id="XMLID_23_">
		<g>
			<rect x="60.9475327" y="64.3237381" class="st16" width="4.2572474" height="3.4358907"/>
		</g>
		<g>
		</g>
	</g>
	<g id="XMLID_22_">
		<g>
			<rect x="61.298027" y="66.9931641" class="st7" width="3.6075966" height="5.1633434"/>
		</g>
		<g>
		</g>
	</g>
	<g>
		<path class="st8" d="M63.6455078,70.5146484v0.6962891h-0.1308594v-0.2675781h-0.8632813v0.2675781h-0.1171875
			c0-0.0361328-0.0029297-0.0751953-0.0087891-0.1162109C62.5195313,71.0527344,62.5107422,71.0214844,62.4990234,71
			c-0.0146484-0.0263672-0.0332031-0.046875-0.0546875-0.0625c-0.0224609-0.015625-0.0527344-0.0244141-0.0898438-0.0263672
			v-0.1337891h1.1601563v-0.2626953H63.6455078z"/>
		<path class="st8" d="M63.0019531,69.4941406c0.2304688,0,0.4003906,0.0361328,0.5087891,0.1083984
			c0.1074219,0.0722656,0.1621094,0.1845703,0.1621094,0.3369141c0,0.1542969-0.0546875,0.2675781-0.1640625,0.3388672
			c-0.1103516,0.0712891-0.2783203,0.1064453-0.5048828,0.1064453c-0.2294922,0-0.3984375-0.0361328-0.5068359-0.1083984
			c-0.109375-0.0712891-0.1640625-0.1835938-0.1640625-0.3369141c0-0.1542969,0.0556641-0.2666016,0.1660156-0.3378906
			C62.6103516,69.5302734,62.7773438,69.4941406,63.0019531,69.4941406z M63.3945313,69.7216797
			c-0.046875-0.0205078-0.1015625-0.0341797-0.1650391-0.0410156s-0.1386719-0.0107422-0.2275391-0.0107422
			c-0.0878906,0-0.1640625,0.0039063-0.2285156,0.0107422s-0.1191406,0.0214844-0.1640625,0.0419922
			c-0.0439453,0.0205078-0.078125,0.0478516-0.1005859,0.0830078c-0.0224609,0.0341797-0.0332031,0.0791016-0.0332031,0.1337891
			s0.0107422,0.0996094,0.0332031,0.1347656s0.0566406,0.0634766,0.1025391,0.0839844
			c0.0419922,0.0195313,0.0976563,0.0332031,0.1669922,0.0400391c0.0683594,0.0078125,0.1435547,0.0107422,0.2255859,0.0107422
			c0.0898438,0,0.1650391-0.0029297,0.2255859-0.0087891c0.0605469-0.0068359,0.1142578-0.0205078,0.1621094-0.0410156
			c0.0449219-0.0185547,0.0791016-0.0458984,0.1025391-0.0810547c0.0244141-0.0341797,0.0361328-0.0810547,0.0361328-0.1386719
			c0-0.0537109-0.0117188-0.0986328-0.0341797-0.1347656C63.4736328,69.7695313,63.4394531,69.7412109,63.3945313,69.7216797z"/>
		<path class="st8" d="M63.0019531,68.5458984c0.2304688,0,0.4003906,0.0361328,0.5087891,0.1083984
			c0.1074219,0.0722656,0.1621094,0.1845703,0.1621094,0.3369141c0,0.1542969-0.0546875,0.2666016-0.1640625,0.3378906
			c-0.1103516,0.0712891-0.2783203,0.1064453-0.5048828,0.1064453c-0.2294922,0-0.3984375-0.0351563-0.5068359-0.1074219
			c-0.109375-0.0722656-0.1640625-0.1845703-0.1640625-0.3369141c0-0.1542969,0.0556641-0.2675781,0.1660156-0.3388672
			C62.6103516,68.5810547,62.7773438,68.5458984,63.0019531,68.5458984z M63.3945313,68.7734375
			c-0.046875-0.0205078-0.1015625-0.0341797-0.1650391-0.0410156c-0.0634766-0.0078125-0.1386719-0.0107422-0.2275391-0.0107422
			c-0.0878906,0-0.1640625,0.0029297-0.2285156,0.0107422c-0.0644531,0.0068359-0.1191406,0.0205078-0.1640625,0.0419922
			c-0.0439453,0.0195313-0.078125,0.046875-0.1005859,0.0820313s-0.0332031,0.0800781-0.0332031,0.1347656
			c0,0.0537109,0.0107422,0.0986328,0.0332031,0.1337891c0.0224609,0.0361328,0.0566406,0.0634766,0.1025391,0.0849609
			c0.0419922,0.0195313,0.0976563,0.0322266,0.1669922,0.0400391c0.0683594,0.0068359,0.1435547,0.0107422,0.2255859,0.0107422
			c0.0898438,0,0.1650391-0.0029297,0.2255859-0.0097656c0.0605469-0.0058594,0.1142578-0.0195313,0.1621094-0.0410156
			c0.0449219-0.0185547,0.0791016-0.0458984,0.1025391-0.0800781c0.0244141-0.0351563,0.0361328-0.0810547,0.0361328-0.1386719
			c0-0.0546875-0.0117188-0.0996094-0.0341797-0.1347656C63.4736328,68.8203125,63.4394531,68.7929688,63.3945313,68.7734375z"/>
		<path class="st8" d="M63.6455078,67.5957031v0.8710938h-0.1806641c-0.0517578-0.0605469-0.1035156-0.1210938-0.1552734-0.1816406
			s-0.1035156-0.1171875-0.1542969-0.1699219c-0.1074219-0.1103516-0.1923828-0.1865234-0.2558594-0.2275391
			s-0.1308594-0.0615234-0.2041016-0.0615234c-0.0673828,0-0.1191406,0.0224609-0.1572266,0.0664063
			s-0.0566406,0.1054688-0.0566406,0.1845703c0,0.0527344,0.0087891,0.109375,0.0273438,0.1699219
			c0.0185547,0.0615234,0.046875,0.1210938,0.0849609,0.1796875v0.0087891h-0.1816406
			c-0.0195313-0.0410156-0.0380859-0.0957031-0.0546875-0.1640625c-0.0175781-0.0683594-0.0253906-0.1347656-0.0253906-0.1982422
			c0-0.1318359,0.0322266-0.2353516,0.0957031-0.3105469s0.1494141-0.1123047,0.2587891-0.1123047
			c0.0488281,0,0.0947266,0.0058594,0.1367188,0.0185547s0.0830078,0.0302734,0.1210938,0.0546875
			c0.0351563,0.0224609,0.0703125,0.0488281,0.1054688,0.0791016c0.0341797,0.0302734,0.0722656,0.0673828,0.1142578,0.1103516
			c0.0605469,0.0615234,0.1191406,0.125,0.1757813,0.1914063c0.0566406,0.0654297,0.109375,0.1269531,0.1582031,0.1835938
			v-0.6923828H63.6455078z"/>
	</g>
</g>
<g>
	<g id="XMLID_27_">
		<g>
			<rect x="20.9035454" y="71.4831696" class="st16" width="4.2572474" height="3.4358907"/>
		</g>
		<g>
		</g>
	</g>
	<g id="XMLID_26_">
		<g>
			<rect x="20.8628311" y="64.3547134" class="st16" width="4.2572474" height="3.4358907"/>
		</g>
		<g>
		</g>
	</g>
	<g id="XMLID_25_">
		<g>
			<rect x="21.2133236" y="67.0241394" class="st7" width="3.6075966" height="5.1633434"/>
		</g>
		<g>
		</g>
	</g>
	<g>
		<path class="st8" d="M23.5610352,70.5458984v0.6962891h-0.1313477v-0.2675781h-0.862793v0.2675781H22.449707
			c0-0.0361328-0.003418-0.0751953-0.0092773-0.1162109c-0.0058594-0.0419922-0.0146484-0.0732422-0.0263672-0.0947266
			c-0.0141602-0.0263672-0.0327148-0.046875-0.0546875-0.0625c-0.0224609-0.015625-0.0522461-0.0244141-0.0898438-0.0263672
			v-0.1337891h1.1601563v-0.2626953H23.5610352z"/>
		<path class="st8" d="M22.9169922,69.5253906c0.230957,0,0.4008789,0.0361328,0.5087891,0.1083984
			s0.1621094,0.1845703,0.1621094,0.3369141c0,0.1542969-0.0546875,0.2675781-0.1640625,0.3388672
			c-0.1098633,0.0712891-0.277832,0.1064453-0.5048828,0.1064453c-0.2290039,0-0.3979492-0.0361328-0.5068359-0.1083984
			c-0.109375-0.0712891-0.1640625-0.1835938-0.1640625-0.3369141c0-0.1542969,0.0556641-0.2666016,0.1665039-0.3378906
			S22.6928711,69.5253906,22.9169922,69.5253906z M23.3095703,69.7529297
			c-0.046875-0.0205078-0.1015625-0.0341797-0.1645508-0.0410156c-0.0634766-0.0068359-0.1391602-0.0107422-0.2280273-0.0107422
			c-0.0874023,0-0.1635742,0.0039063-0.2280273,0.0107422s-0.1191406,0.0214844-0.1640625,0.0419922
			c-0.0444336,0.0205078-0.078125,0.0478516-0.1005859,0.0830078c-0.0224609,0.0341797-0.0336914,0.0791016-0.0336914,0.1337891
			s0.0112305,0.0996094,0.0336914,0.1347656s0.0566406,0.0634766,0.1020508,0.0839844
			c0.0424805,0.0195313,0.0981445,0.0332031,0.1669922,0.0400391c0.0683594,0.0078125,0.1435547,0.0107422,0.2255859,0.0107422
			c0.0898438,0,0.1650391-0.0029297,0.2255859-0.0087891c0.0605469-0.0068359,0.1147461-0.0205078,0.1625977-0.0410156
			c0.0449219-0.0185547,0.0791016-0.0458984,0.1025391-0.0810547c0.0239258-0.0341797,0.0356445-0.0810547,0.0356445-0.1386719
			c0-0.0537109-0.0112305-0.0986328-0.0336914-0.1347656C23.3891602,69.8007813,23.3549805,69.7724609,23.3095703,69.7529297z"/>
		<path class="st8" d="M22.9169922,68.5771484c0.230957,0,0.4008789,0.0361328,0.5087891,0.1083984
			s0.1621094,0.1845703,0.1621094,0.3369141c0,0.1542969-0.0546875,0.2666016-0.1640625,0.3378906
			c-0.1098633,0.0712891-0.277832,0.1064453-0.5048828,0.1064453c-0.2290039,0-0.3979492-0.0351563-0.5068359-0.1074219
			c-0.109375-0.0722656-0.1640625-0.1845703-0.1640625-0.3369141c0-0.1542969,0.0556641-0.2675781,0.1665039-0.3388672
			S22.6928711,68.5771484,22.9169922,68.5771484z M23.3095703,68.8046875
			c-0.046875-0.0205078-0.1015625-0.0341797-0.1645508-0.0410156c-0.0634766-0.0078125-0.1391602-0.0107422-0.2280273-0.0107422
			c-0.0874023,0-0.1635742,0.0029297-0.2280273,0.0107422c-0.0644531,0.0068359-0.1191406,0.0205078-0.1640625,0.0419922
			c-0.0444336,0.0195313-0.078125,0.046875-0.1005859,0.0820313s-0.0336914,0.0800781-0.0336914,0.1347656
			c0,0.0537109,0.0112305,0.0986328,0.0336914,0.1337891c0.0224609,0.0361328,0.0566406,0.0634766,0.1020508,0.0849609
			c0.0424805,0.0195313,0.0981445,0.0322266,0.1669922,0.0400391c0.0683594,0.0068359,0.1435547,0.0107422,0.2255859,0.0107422
			c0.0898438,0,0.1650391-0.0029297,0.2255859-0.0097656c0.0605469-0.0058594,0.1147461-0.0195313,0.1625977-0.0410156
			c0.0449219-0.0185547,0.0791016-0.0458984,0.1025391-0.0800781c0.0239258-0.0351563,0.0356445-0.0810547,0.0356445-0.1386719
			c0-0.0546875-0.0112305-0.0996094-0.0336914-0.1347656C23.3891602,68.8515625,23.3549805,68.8242188,23.3095703,68.8046875z"/>
		<path class="st8" d="M23.5610352,67.6269531v0.8710938h-0.1806641c-0.0517578-0.0605469-0.1035156-0.1210938-0.1557617-0.1816406
			c-0.0517578-0.0605469-0.1030273-0.1171875-0.1542969-0.1699219c-0.1074219-0.1103516-0.1923828-0.1865234-0.2558594-0.2275391
			c-0.0629883-0.0410156-0.1308594-0.0615234-0.2041016-0.0615234c-0.0668945,0-0.1191406,0.0224609-0.1567383,0.0664063
			c-0.0380859,0.0439453-0.0566406,0.1054688-0.0566406,0.1845703c0,0.0527344,0.0087891,0.109375,0.0273438,0.1699219
			c0.0185547,0.0615234,0.046875,0.1210938,0.0849609,0.1796875v0.0087891h-0.1816406
			c-0.0200195-0.0410156-0.0385742-0.0957031-0.0551758-0.1640625c-0.0170898-0.0683594-0.0253906-0.1347656-0.0253906-0.1982422
			c0-0.1318359,0.0322266-0.2353516,0.0957031-0.3105469s0.1499023-0.1123047,0.2587891-0.1123047
			c0.0488281,0,0.0947266,0.0058594,0.137207,0.0185547c0.0419922,0.0126953,0.0825195,0.0302734,0.1206055,0.0546875
			c0.0356445,0.0224609,0.0708008,0.0488281,0.1054688,0.0791016c0.0341797,0.0302734,0.0727539,0.0673828,0.1147461,0.1103516
			c0.0605469,0.0615234,0.1191406,0.125,0.1757813,0.1914063c0.0566406,0.0654297,0.109375,0.1269531,0.1577148,0.1835938
			v-0.6923828H23.5610352z"/>
	</g>
</g>
<g>
	<path class="st3" d="M27.0136719,10.8071289l0.543457-0.1044922V7.0712891l-0.543457-0.1044922V6.3554688h3.8696289v1.2822266
		h-0.7851563L30.0561523,7.137207h-1.4614258v1.0913086h0.8759766c0.5913086,0,1.0585938,0.1430664,1.4018555,0.4291992
		c0.34375,0.2861328,0.515625,0.6674805,0.515625,1.1450195c0,0.4838867-0.1733398,0.8740234-0.519043,1.1694336
		s-0.8120117,0.4428711-1.3984375,0.4428711h-2.4570313V10.8071289z M28.5947266,9.0102539v1.6264648h0.8759766
		c0.2875977,0,0.5087891-0.0795898,0.6640625-0.2382813c0.1557617-0.1586914,0.2333984-0.359375,0.2333984-0.6030273
		c0-0.2314453-0.0771484-0.4204102-0.2314453-0.5664063c-0.1542969-0.1455078-0.3764648-0.21875-0.6660156-0.21875H28.5947266z"/>
	<path class="st3" d="M34.2202148,11.4150391c-0.0283203-0.0625-0.0527344-0.1269531-0.0737305-0.1928711
		s-0.0371094-0.1328125-0.0488281-0.199707c-0.121582,0.1386719-0.2695313,0.2514648-0.4433594,0.3369141
		c-0.1743164,0.0859375-0.3735352,0.128418-0.5976563,0.128418c-0.371582,0-0.6665039-0.1000977-0.8852539-0.300293
		c-0.2182617-0.2001953-0.3276367-0.4731445-0.3276367-0.8183594c0-0.3520508,0.1425781-0.6245117,0.4277344-0.8168945
		c0.2851563-0.1918945,0.703125-0.2880859,1.2548828-0.2880859h0.5219727V8.8955078
		c0-0.1806641-0.0527344-0.3208008-0.1577148-0.4204102s-0.2607422-0.1494141-0.4663086-0.1494141
		c-0.1166992,0-0.2207031,0.0131836-0.3115234,0.0400391c-0.0913086,0.0263672-0.1650391,0.0585938-0.2211914,0.0957031
		l-0.0664063,0.402832h-0.7709961l0.003418-0.8339844c0.1870117-0.125,0.4013672-0.2304688,0.6430664-0.3164063
		c0.2416992-0.0854492,0.5053711-0.128418,0.7905273-0.128418c0.4697266,0,0.8510742,0.1142578,1.144043,0.3422852
		c0.293457,0.2285156,0.4399414,0.5532227,0.4399414,0.9746094v1.5537109c0,0.0576172,0.0004883,0.1123047,0.0019531,0.1630859
		c0.0009766,0.0512695,0.0053711,0.0996094,0.012207,0.1459961l0.3120117,0.0419922v0.6079102H34.2202148z M33.3334961,10.7373047
		c0.1542969,0,0.2944336-0.0327148,0.4204102-0.0991211c0.1264648-0.065918,0.2246094-0.1484375,0.2944336-0.2485352V9.8164063
		h-0.5219727c-0.2172852,0-0.3823242,0.050293-0.4941406,0.1513672c-0.1123047,0.1005859-0.168457,0.2216797-0.168457,0.3632813
		c0,0.1274414,0.0415039,0.2270508,0.1245117,0.2988281S33.1860352,10.7373047,33.3334961,10.7373047z"/>
	<path class="st3" d="M35.6708984,8.2666016V7.6547852h1.4863281l0.0488281,0.4379883
		c0.1123047-0.1621094,0.246582-0.2871094,0.4033203-0.375c0.15625-0.0883789,0.3388672-0.1323242,0.546875-0.1323242
		c0.4692383,0,0.8339844,0.1821289,1.0932617,0.5454102c0.2592773,0.3637695,0.3891602,0.8422852,0.3891602,1.4355469v0.0727539
		c0,0.5561523-0.1298828,1.003418-0.3891602,1.3413086c-0.2592773,0.3383789-0.621582,0.5073242-1.0864258,0.5073242
		c-0.1987305,0-0.375-0.0361328-0.5292969-0.109375c-0.1542969-0.0727539-0.2861328-0.1801758-0.3959961-0.3212891v1.0878906
		l0.4941406,0.1040039v0.6118164h-2.0083008v-0.6118164l0.4941406-0.1040039V8.3710938L35.6708984,8.2666016z M38.6152344,9.5664063
		c0-0.3544922-0.0595703-0.6416016-0.1787109-0.8618164s-0.3017578-0.3300781-0.546875-0.3300781
		c-0.1542969,0-0.2856445,0.03125-0.3945313,0.09375c-0.1083984,0.0625-0.1943359,0.1518555-0.2573242,0.2675781v1.6469727
		c0.0629883,0.1069336,0.1489258,0.1879883,0.2573242,0.2431641c0.1088867,0.0556641,0.2426758,0.0834961,0.4013672,0.0834961
		c0.2480469,0,0.4296875-0.0961914,0.5454102-0.2880859c0.1152344-0.1923828,0.1733398-0.453125,0.1733398-0.7822266V9.5664063z"/>
	<path class="st3" d="M40.0942383,9.5004883c0-0.5610352,0.1582031-1.0200195,0.4750977-1.3779297
		c0.3164063-0.3579102,0.7539063-0.5371094,1.3125-0.5371094c0.5605469,0,0.9995117,0.1787109,1.315918,0.5351563
		c0.3168945,0.3569336,0.4750977,0.8168945,0.4750977,1.3798828v0.0727539c0,0.5654297-0.1582031,1.0258789-0.4750977,1.3813477
		c-0.3164063,0.3554688-0.7529297,0.5332031-1.309082,0.5332031c-0.5629883,0-1.0029297-0.1777344-1.3193359-0.5332031
		c-0.3168945-0.3554688-0.4750977-0.815918-0.4750977-1.3813477V9.5004883z M41.1176758,9.5732422
		c0,0.3427734,0.0610352,0.6181641,0.1821289,0.8251953c0.121582,0.2075195,0.3178711,0.3110352,0.5888672,0.3110352
		c0.2641602,0,0.4575195-0.1040039,0.5800781-0.3125c0.1230469-0.2084961,0.184082-0.4833984,0.184082-0.8237305V9.5004883
		c0-0.3339844-0.0620117-0.605957-0.1855469-0.8168945c-0.1240234-0.2109375-0.3188477-0.3164063-0.5854492-0.3164063
		s-0.4604492,0.1054688-0.5820313,0.3164063c-0.1210938,0.2109375-0.1821289,0.4829102-0.1821289,0.8168945V9.5732422z"/>
	<path class="st3" d="M46.9960938,10.2333984h0.0205078l0.9746094-2.5786133h1.2832031h0.5429688v0.6118164l-0.5429688,0.1044922
		v2.331543l0.5429688,0.1044922v0.6079102h-1.9521484v-0.6079102l0.3857422-0.1044922V9.1772461l-0.0214844-0.003418
		l-0.8798828,2.2412109h-0.6865234l-0.859375-2.199707L45.7832031,9.21875v1.4838867l0.3886719,0.1044922v0.6079102h-1.9550781
		v-0.6079102l0.546875-0.1044922v-2.331543l-0.546875-0.1044922V7.6547852h0.546875h1.2646484L46.9960938,10.2333984z"/>
	<path class="st3" d="M52.1162109,11.487793c-0.546875,0-0.9833984-0.1733398-1.3105469-0.5209961
		s-0.4912109-0.7890625-0.4912109-1.3242188V9.5039063c0-0.5585938,0.1552734-1.0185547,0.4648438-1.3798828
		s0.7246094-0.5410156,1.2460938-0.5385742c0.5117188,0,0.9091797,0.152832,1.1914063,0.4589844
		C53.5,8.3500977,53.640625,8.7636719,53.640625,9.284668v0.5527344h-2.2636719l-0.0068359,0.0209961
		c0.0185547,0.2475586,0.1015625,0.4516602,0.25,0.6113281c0.1484375,0.1601563,0.3505859,0.2397461,0.6044922,0.2397461
		c0.2275391,0,0.4150391-0.0224609,0.5644531-0.0678711c0.1494141-0.0449219,0.3134766-0.1162109,0.4912109-0.2133789
		l0.2763672,0.6254883c-0.15625,0.1225586-0.359375,0.2255859-0.6074219,0.309082
		C52.7001953,11.4462891,52.4228516,11.487793,52.1162109,11.487793z M52.0253906,8.3671875
		c-0.1894531,0-0.3388672,0.0722656-0.4482422,0.2158203c-0.1103516,0.1435547-0.1777344,0.3325195-0.2041016,0.5664063
		l0.0107422,0.0170898h1.2548828v-0.090332c0-0.215332-0.0507813-0.387207-0.1523438-0.5161133
		C52.3847656,8.4316406,52.2304688,8.3671875,52.0253906,8.3671875z"/>
	<path class="st3" d="M54.0478516,8.2666016V7.6547852h1.4863281l0.0488281,0.4379883
		c0.1123047-0.1621094,0.2470703-0.2871094,0.4033203-0.375c0.15625-0.0883789,0.3388672-0.1323242,0.546875-0.1323242
		c0.4697266,0,0.8339844,0.1821289,1.09375,0.5454102c0.2587891,0.3637695,0.3886719,0.8422852,0.3886719,1.4355469v0.0727539
		c0,0.5561523-0.1298828,1.003418-0.3886719,1.3413086c-0.2597656,0.3383789-0.6220703,0.5073242-1.0869141,0.5073242
		c-0.1982422,0-0.375-0.0361328-0.5292969-0.109375c-0.1542969-0.0727539-0.2861328-0.1801758-0.3964844-0.3212891v1.0878906
		l0.4941406,0.1040039v0.6118164h-2.0078125v-0.6118164l0.4941406-0.1040039V8.3710938L54.0478516,8.2666016z M56.9921875,9.5664063
		c0-0.3544922-0.0595703-0.6416016-0.1787109-0.8618164s-0.3017578-0.3300781-0.546875-0.3300781
		c-0.1542969,0-0.2861328,0.03125-0.3945313,0.09375s-0.1943359,0.1518555-0.2578125,0.2675781v1.6469727
		c0.0634766,0.1069336,0.1494141,0.1879883,0.2578125,0.2431641c0.1083984,0.0556641,0.2421875,0.0834961,0.4013672,0.0834961
		c0.2480469,0,0.4296875-0.0961914,0.5449219-0.2880859c0.1162109-0.1923828,0.1738281-0.453125,0.1738281-0.7822266V9.5664063z"/>
</g>
<g>
</g>
<g>
</g>
<g>
</g>
<g>
</g>
<g>
</g>
</svg>
