<?xml version="1.0" encoding="utf-8"?>
<!-- Generator: Adobe Illustrator 22.0.1, SVG Export Plug-In . SVG Version: 6.00 Build 0)  -->
<svg version="1.1" id="Слой_1" xmlns="http://www.w3.org/2000/svg" xmlns:xlink="http://www.w3.org/1999/xlink" x="0px" y="0px"
	 viewBox="0 0 85.0400009 85.0400009" style="enable-background:new 0 0 85.0400009 85.0400009;" xml:space="preserve">
<style type="text/css">
	.st0{fill:#19191A;}
	.st1{fill:#9E9B9C;}
	.st2{fill:#E5E4E0;}
	.st3{fill:none;stroke:#F6F6F6;stroke-width:0.75;stroke-miterlimit:10;}
	.st4{fill:#CEC7BD;}
	.st5{fill:#918C84;}
	.st6{fill:#151616;}
	.st7{fill:url(#SVGID_1_);}
	.st8{fill:#B5B4B3;}
	.st9{fill:#CDC7BC;}
	.st10{fill:#363331;}
	.st11{fill:#E6E6E6;}
	.st12{fill:#EFE94A;}
	.st13{opacity:0.4;fill:url(#SVGID_2_);enable-background:new    ;}
	.st14{fill:#0D0E0F;}
	.st15{fill:none;stroke:#D76543;stroke-width:0.25;stroke-miterlimit:10;}
	.st16{display:none;}
</style>
<g id="Макет_TREMA">
	<g id="Креп._отверстия">
		<path class="st0" d="M0,0.0000017v85.039978h85.039978V0.0000017H0z M9.9223022,79.5117798
			c-2.4279175,0-4.3947144-1.9667969-4.3947144-4.3927002c0-2.4279175,1.9667969-4.3947144,4.3947144-4.3947144
			c2.4258423,0,4.3926392,1.9667969,4.3926392,4.3947144C14.3149414,77.5449829,12.3481445,79.5117798,9.9223022,79.5117798z
			 M9.9223022,14.3149433c-2.4279175,0-4.3947144-1.9667969-4.3947144-4.3927002
			c0-2.4279175,1.9667969-4.3947144,4.3947144-4.3947144c2.4258423,0,4.3926392,1.9667969,4.3926392,4.3947144
			C14.3149414,12.3481464,12.3481445,14.3149433,9.9223022,14.3149433z M75.1191406,79.5117798
			c-2.4279175,0-4.3947144-1.9667969-4.3947144-4.3927002c0-2.4279175,1.9667969-4.3947144,4.3947144-4.3947144
			c2.4258423,0,4.3926392,1.9667969,4.3926392,4.3947144C79.5117798,77.5449829,77.5449829,79.5117798,75.1191406,79.5117798z
			 M75.1191406,14.3149433c-2.4279175,0-4.3947144-1.9667969-4.3947144-4.3927002
			c0-2.4279175,1.9667969-4.3947144,4.3947144-4.3947144c2.4258423,0,4.3926392,1.9667969,4.3926392,4.3947144
			C79.5117798,12.3481464,77.5449829,14.3149433,75.1191406,14.3149433z"/>
		<path class="st1" d="M9.9212646,3.9458025c-3.2877808,0-5.9527588,2.6751711-5.9527588,5.9754639
			c0,3.3002319,2.664978,5.9754028,5.9527588,5.9754028c3.2877197,0,5.9527588-2.6751709,5.9527588-5.9754028
			C15.8740234,6.6209736,13.2089844,3.9458025,9.9212646,3.9458025z M9.9223022,14.3149433
			c-2.4279175,0-4.3947144-1.9667969-4.3947144-4.3927002c0-2.4279175,1.9667969-4.3947144,4.3947144-4.3947144
			c2.4258423,0,4.3926392,1.9667969,4.3926392,4.3947144C14.3149414,12.3481464,12.3481445,14.3149433,9.9223022,14.3149433z"/>
		<path class="st1" d="M75.1181107,3.9458025c-3.2877808,0-5.9527588,2.6751711-5.9527588,5.9754639
			c0,3.3002319,2.664978,5.9754028,5.9527588,5.9754028c3.2877197,0,5.9527588-2.6751709,5.9527588-5.9754028
			C81.0708694,6.6209736,78.4058304,3.9458025,75.1181107,3.9458025z M75.1191483,14.3149433
			c-2.4279175,0-4.3947144-1.9667969-4.3947144-4.3927002c0-2.4279175,1.9667969-4.3947144,4.3947144-4.3947144
			c2.4258423,0,4.3926392,1.9667969,4.3926392,4.3947144C79.5117874,12.3481464,77.5449905,14.3149433,75.1191483,14.3149433z"/>
		<path class="st1" d="M9.9212646,69.1426773c-3.2877808,0-5.9527588,2.6751709-5.9527588,5.9754639
			c0,3.3002319,2.664978,5.9754028,5.9527588,5.9754028c3.2877197,0,5.9527588-2.6751709,5.9527588-5.9754028
			C15.8740234,71.8178482,13.2089844,69.1426773,9.9212646,69.1426773z M9.9223022,79.5118179
			c-2.4279175,0-4.3947144-1.9667969-4.3947144-4.3927002c0-2.4279175,1.9667969-4.3947144,4.3947144-4.3947144
			c2.4258423,0,4.3926392,1.9667969,4.3926392,4.3947144C14.3149414,77.5450211,12.3481445,79.5118179,9.9223022,79.5118179z"/>
		<path class="st1" d="M75.1181107,69.1426773c-3.2877808,0-5.9527588,2.6751709-5.9527588,5.9754639
			c0,3.3002319,2.664978,5.9754028,5.9527588,5.9754028c3.2877197,0,5.9527588-2.6751709,5.9527588-5.9754028
			C81.0708694,71.8178482,78.4058304,69.1426773,75.1181107,69.1426773z M75.1191483,79.5118179
			c-2.4279175,0-4.3947144-1.9667969-4.3947144-4.3927002c0-2.4279175,1.9667969-4.3947144,4.3947144-4.3947144
			c2.4258423,0,4.3926392,1.9667969,4.3926392,4.3947144C79.5117874,77.5450211,77.5449905,79.5118179,75.1191483,79.5118179z"/>
		<g>
			<path class="st2" d="M28.796875,8.6367207h-0.6728516L28.03125,8.0405293
				c-0.0888672-0.0878906-0.2011719-0.1577148-0.3364258-0.2089844s-0.2949219-0.0766602-0.4790039-0.0766602
				c-0.3925781,0-0.6948242,0.1411133-0.9067383,0.4238281s-0.3178711,0.6518555-0.3178711,1.1064453v0.1572266
				c0,0.4545898,0.1054688,0.824707,0.3164063,1.109375c0.2104492,0.284668,0.5083008,0.4272461,0.8925781,0.4272461
				c0.1777344,0,0.3408203-0.0253906,0.4882813-0.0766602c0.1479492-0.0512695,0.262207-0.1210938,0.3427734-0.2089844
				l0.0927734-0.5966797h0.6728516v0.8852539c-0.1816406,0.2089844-0.4140625,0.3754883-0.6958008,0.4995117
				c-0.2822266,0.1240234-0.5981445,0.1860352-0.9472656,0.1860352c-0.6054688,0-1.1015625-0.2080078-1.4882813-0.6240234
				c-0.3862305-0.4160156-0.5795898-0.949707-0.5795898-1.6010742V9.2915058c0-0.6494141,0.1923828-1.1835938,0.5766602-1.6015625
				s0.8813477-0.6269531,1.4912109-0.6269531c0.3491211,0,0.6645508,0.0629883,0.9453125,0.1889648
				c0.28125,0.1259766,0.5136719,0.2924805,0.6977539,0.4995117V8.6367207z"/>
			<path class="st2" d="M31.2055664,8.2773457c0.4462891,0,0.7939453,0.0776367,1.043457,0.2333984
				c0.2490234,0.1557617,0.3735352,0.387207,0.3735352,0.6948242c0,0.1557617-0.0522461,0.2939453-0.1567383,0.4150391
				c-0.1044922,0.1206055-0.2529297,0.2128906-0.4448242,0.2763672c0.2539063,0.0493164,0.4467773,0.1420898,0.578125,0.2783203
				s0.1967773,0.2954102,0.1967773,0.4780273c0,0.3134766-0.1181641,0.550293-0.3549805,0.7099609
				s-0.5761719,0.2397461-1.0185547,0.2397461h-2.1015625v-0.5380859l0.4833984-0.0917969V8.9101582l-0.4833984-0.0917969V8.2773457
				h0.4833984H31.2055664z M30.706543,9.6328144h0.5488281c0.1591797-0.0019531,0.2758789-0.0297852,0.3500977-0.0830078
				s0.1118164-0.1323242,0.1118164-0.2368164c0-0.1206055-0.0424805-0.2094727-0.1274414-0.265625
				c-0.0844727-0.0566406-0.2128906-0.0844727-0.3842773-0.0844727H30.706543V9.6328144z M30.706543,10.2167988v0.7036133h0.7158203
				c0.1591797,0,0.2773438-0.0288086,0.3535156-0.0874023c0.0766602-0.0585938,0.1147461-0.1450195,0.1147461-0.2597656
				s-0.0366211-0.2026367-0.1098633-0.2641602c-0.0737305-0.0615234-0.1928711-0.0922852-0.3583984-0.0922852H30.706543z"/>
			<path class="st2" d="M34.8110352,11.6674824c-0.4838867,0-0.8701172-0.1538086-1.159668-0.4609375
				c-0.2890625-0.3076172-0.434082-0.6977539-0.434082-1.1713867V9.9125996c0-0.4941406,0.137207-0.9008789,0.4111328-1.2202148
				c0.2734375-0.3198242,0.6411133-0.4785156,1.1020508-0.4765625c0.4526367,0,0.8037109,0.1352539,1.0537109,0.4057617
				c0.2504883,0.2705078,0.3754883,0.6362305,0.3754883,1.097168v0.4887695h-2.0029297l-0.0063477,0.0185547
				c0.0166016,0.2192383,0.0908203,0.3994141,0.2216797,0.5410156c0.1313477,0.1411133,0.3095703,0.2119141,0.5351563,0.2119141
				c0.2001953,0,0.3666992-0.0200195,0.4990234-0.0600586c0.1323242-0.0395508,0.2768555-0.1030273,0.434082-0.1889648
				l0.2446289,0.5532227c-0.1381836,0.1088867-0.3173828,0.199707-0.5375977,0.2739258
				C35.3271484,11.6308613,35.081543,11.6674824,34.8110352,11.6674824z M34.7304688,8.9072285
				c-0.1674805,0-0.2998047,0.0634766-0.3969727,0.1904297c-0.097168,0.1274414-0.1572266,0.2944336-0.1796875,0.5014648
				l0.0092773,0.0151367h1.1098633V9.5341816c0-0.1904297-0.0449219-0.3427734-0.1347656-0.4560547
				C35.0483398,8.9643574,34.9121094,8.9072285,34.7304688,8.9072285z"/>
			<path class="st2" d="M40.065918,8.2773457V9.411623h-0.6948242l-0.0371094-0.4487305h-0.5732422v2.0102539l0.4804688,0.0917969
				v0.5380859H37.371582v-0.5380859l0.4804688-0.0917969V8.9628925h-0.5610352L37.2568359,9.411623H36.5625V8.2773457H40.065918z"/>
			<path class="st2" d="M40.440918,9.9091816c0-0.4956055,0.1401367-0.9018555,0.4199219-1.21875
				c0.2802734-0.3164063,0.6669922-0.4746094,1.1611328-0.4746094c0.4960938,0,0.8842773,0.1577148,1.1640625,0.4731445
				c0.2802734,0.315918,0.4199219,0.7226563,0.4199219,1.2202148V9.974123c0,0.5-0.1396484,0.9072266-0.4199219,1.2216797
				c-0.2797852,0.3144531-0.6660156,0.4716797-1.1577148,0.4716797c-0.4980469,0-0.887207-0.1572266-1.1674805-0.4716797
				c-0.2797852-0.3144531-0.4199219-0.7216797-0.4199219-1.2216797V9.9091816z M41.3461914,9.974123
				c0,0.3032227,0.0537109,0.5463867,0.1611328,0.7299805c0.1074219,0.1831055,0.28125,0.2749023,0.5209961,0.2749023
				c0.2333984,0,0.4042969-0.0922852,0.5131836-0.2763672c0.1083984-0.1845703,0.1625977-0.4272461,0.1625977-0.7285156V9.9091816
				c0-0.2949219-0.0546875-0.5356445-0.1645508-0.722168c-0.109375-0.1865234-0.2817383-0.2797852-0.5175781-0.2797852
				c-0.2353516,0-0.4072266,0.0932617-0.5146484,0.2797852s-0.1611328,0.4272461-0.1611328,0.722168V9.974123z"/>
			<path class="st2" d="M44.2480469,10.908205c0.2070313-0.2128906,0.3457031-0.4223633,0.4189453-0.628418
				c0.0722656-0.2060547,0.1123047-0.4995117,0.1201172-0.8808594l0.0068359-0.4887695l-0.4746094-0.0917969V8.2773457h2.9580078
				h0.4833984v0.5410156l-0.4833984,0.0917969v2.0043945h0.4863281l-0.0625,1.6845703h-0.8427734v-0.9960938h-1.9775391v0.9960938
				h-0.8466797l-0.0771484-1.690918H44.2480469z M45.6923828,9.3989277
				C45.6757813,9.7290058,45.6328125,10.0185566,45.5625,10.26758s-0.1630859,0.4633789-0.2792969,0.644043h1.0947266V8.993166
				h-0.6826172L45.6923828,9.3989277z"/>
			<path class="st2" d="M50.0693359,8.2773457v0.5410156l-0.4335938,0.0917969v1.3867188l0.0185547,0.0029297l1.0917969-2.0224609
				h0.9042969h0.4814453v0.5410156l-0.4814453,0.0917969v2.0629883l0.4814453,0.0917969v0.5380859h-1.8203125v-0.5380859
				l0.4345703-0.0917969V9.5805683l-0.0195313-0.0029297l-1.0908203,2.0253906h-1.3886719v-0.5380859l0.4833984-0.0917969V8.9101582
				l-0.4833984-0.0917969V8.2773457h1.3886719H50.0693359z"/>
			<path class="st2" d="M52.5712891,9.9091816c0-0.4956055,0.1396484-0.9018555,0.4199219-1.21875
				c0.2802734-0.3164063,0.6669922-0.4746094,1.1611328-0.4746094c0.4960938,0,0.8837891,0.1577148,1.1640625,0.4731445
				c0.2802734,0.315918,0.4199219,0.7226563,0.4199219,1.2202148V9.974123c0,0.5-0.1396484,0.9072266-0.4199219,1.2216797
				s-0.6660156,0.4716797-1.1582031,0.4716797c-0.4980469,0-0.8867188-0.1572266-1.1669922-0.4716797
				s-0.4199219-0.7216797-0.4199219-1.2216797V9.9091816z M53.4765625,9.974123
				c0,0.3032227,0.0537109,0.5463867,0.1611328,0.7299805c0.1074219,0.1831055,0.28125,0.2749023,0.5205078,0.2749023
				c0.234375,0,0.4052734-0.0922852,0.5136719-0.2763672c0.1083984-0.1845703,0.1621094-0.4272461,0.1621094-0.7285156V9.9091816
				c0-0.2949219-0.0546875-0.5356445-0.1640625-0.722168s-0.2822266-0.2797852-0.5175781-0.2797852
				s-0.4072266,0.0932617-0.5146484,0.2797852s-0.1611328,0.4272461-0.1611328,0.722168V9.974123z"/>
			<path class="st2" d="M56.3779297,10.908205c0.2070313-0.2128906,0.3457031-0.4223633,0.4189453-0.628418
				c0.0722656-0.2060547,0.1123047-0.4995117,0.1201172-0.8808594l0.0068359-0.4887695l-0.4746094-0.0917969V8.2773457h2.9580078
				h0.4833984v0.5410156l-0.4833984,0.0917969v2.0043945h0.4863281l-0.0625,1.6845703h-0.8427734v-0.9960938h-1.9775391v0.9960938
				h-0.8466797l-0.0771484-1.690918H56.3779297z M57.8222656,9.3989277
				c-0.0166016,0.3300781-0.0595703,0.6196289-0.1298828,0.8686523s-0.1630859,0.4633789-0.2792969,0.644043h1.0947266V8.993166
				h-0.6826172L57.8222656,9.3989277z"/>
		</g>
		<path class="st3" d="M31.7870636,78.9163361c-0.0916157-0.0001984-0.1396866-0.0003052-0.1396866-0.0003052l-0.0391407-15.5419617
			c0,0-0.0000668-0.0264893-0.0001335-0.0529785c0.0282974,0.000061,0.0565948,0.0001221,0.0565948,0.0001221l21.6945515,0.0478134
			c0,0,0.0124245,0.0000267,0.034481,0.0000763c0.0053062,2.1060257,0.0384293,15.2590637,0.0384293,15.2590637
			s0.0004234,0.1679382,0.0008469,0.3358765c-0.045536-0.0000992-0.0910759-0.0001984-0.0910759-0.0001984
			S33.6417198,78.9204254,31.7870636,78.9163361z"/>
		<g>
			<path class="st2" d="M37.7871094,69.5566406c-0.152832,0.1582031-0.3779297,0.3076172-0.6757813,0.4482422
				s-0.6845703,0.2109375-1.1611328,0.2109375c-0.6958008,0-1.2631836-0.2421875-1.7026367-0.7265625
				c-0.4394531-0.4833984-0.6591797-1.1123047-0.6591797-1.8847656v-0.0849609c0-0.7763672,0.2172852-1.40625,0.6518555-1.8876953
				c0.4345703-0.4824219,1.0131836-0.7236328,1.7348633-0.7236328c0.3862305,0,0.7246094,0.0605469,1.0166016,0.1796875
				s0.5380859,0.2763672,0.737793,0.4726563v0.9355469h-0.4931641l-0.1713867-0.7119141
				c-0.1166992-0.0947266-0.2578125-0.1728516-0.4233398-0.234375s-0.3637695-0.0917969-0.5952148-0.0917969
				c-0.5620117,0-0.9951172,0.1904297-1.2988281,0.5722656c-0.3037109,0.3808594-0.4555664,0.875-0.4555664,1.4824219v0.0917969
				c0,0.6171875,0.1469727,1.1152344,0.4414063,1.4951172c0.2944336,0.3808594,0.699707,0.5703125,1.2167969,0.5703125
				c0.2832031,0,0.515625-0.0292969,0.6967773-0.0878906c0.1811523-0.0595703,0.3261719-0.1240234,0.4360352-0.1953125v-1.1298828
				l-0.8540039-0.0351563v-0.5136719h1.5581055V69.5566406z"/>
		</g>
		<g>
			<path class="st2" d="M41.7050781,65.5419922l-0.4750977,0.0751953l1.1650391,3.3515625l0.1176758,0.4072266h0.0214844
				l0.1181641-0.4072266l1.1611328-3.3554688l-0.4682617-0.0712891v-0.4492188h1.6401367v0.4492188l-0.4179688,0.0566406
				l-1.7436523,4.6523438h-0.6040039l-1.7436523-4.6523438l-0.4145508-0.0566406v-0.4492188h1.6435547V65.5419922z"/>
		</g>
		<g>
			<path class="st2" d="M51.5175781,66.6162109h-0.5322266l-0.1328125-0.7373047
				c-0.1074219-0.0898438-0.25-0.1640625-0.4287109-0.2236328c-0.1787109-0.0585938-0.3857422-0.0878906-0.6220703-0.0878906
				c-0.3740234,0-0.6611328,0.078125-0.8603516,0.2353516c-0.2001953,0.1572266-0.3007813,0.3623047-0.3007813,0.6142578
				c0,0.2246094,0.1015625,0.4121094,0.3056641,0.5625c0.2041016,0.1494141,0.5332031,0.28125,0.9882813,0.3945313
				c0.5478516,0.1347656,0.9638672,0.3330078,1.2490234,0.5957031c0.2841797,0.2617188,0.4267578,0.5869141,0.4267578,0.9736328
				c0,0.4160156-0.1708984,0.75-0.5126953,1.0029297s-0.7890625,0.3789063-1.3417969,0.3789063
				c-0.4003906,0-0.7558594-0.0644531-1.0664063-0.1943359c-0.3115234-0.1298828-0.5644531-0.2998047-0.7597656-0.5107422
				v-0.9599609h0.5292969l0.1357422,0.7402344c0.1357422,0.1113281,0.2978516,0.2021484,0.4853516,0.2734375
				c0.1884766,0.0703125,0.4130859,0.1054688,0.6757813,0.1054688c0.3544922,0,0.6357422-0.0742188,0.8417969-0.2226563
				s0.3085938-0.3505859,0.3085938-0.6054688c0-0.2363281-0.0888672-0.4345703-0.2675781-0.59375
				s-0.4951172-0.2939453-0.9472656-0.4023438c-0.5507813-0.1298828-0.9804688-0.3212891-1.2900391-0.5742188
				c-0.3095703-0.2519531-0.4648438-0.5703125-0.4648438-0.953125c0-0.4033203,0.1728516-0.7392578,0.5185547-1.0078125
				c0.3457031-0.2675781,0.7939453-0.4023438,1.3466797-0.4023438c0.3652344,0,0.6962891,0.0625,0.9951172,0.1865234
				c0.2998047,0.1240234,0.5390625,0.2744141,0.7207031,0.4511719V66.6162109z"/>
		</g>
		<line class="st3" x1="46.1379547" y1="63.3535767" x2="46.1379547" y2="78.9475021"/>
		<line class="st3" x1="38.901413" y1="63.3376312" x2="38.901413" y2="78.9304962"/>
	</g>
	<g id="Слой_11">
		<path class="st4" d="M30.3328495,74.9196472c0,1.2273636-1.0018463,2.2224808-2.2397404,2.2224808
			c-1.2378922,0-2.2415409-0.9951172-2.2415409-2.2224808c0-1.227356,1.0036488-2.2224731,2.2415409-2.2224731
			C29.3310032,72.6971741,30.3328495,73.6922913,30.3328495,74.9196472z"/>
		<g>
			<path class="st2" d="M35.7832031,80.0625c0.3588867,0,0.640625,0.0810547,0.8447266,0.2441406
				c0.2045898,0.1630859,0.3066406,0.3876953,0.3066406,0.6748047c0,0.1582031-0.0429688,0.2958984-0.128418,0.4121094
				s-0.2104492,0.2099609-0.3754883,0.2822266c0.1865234,0.0546875,0.3208008,0.1455078,0.402832,0.2724609
				c0.081543,0.1269531,0.1225586,0.2841797,0.1225586,0.4726563v0.1591797c0,0.0693359,0.0136719,0.1220703,0.0415039,0.1601563
				c0.0273438,0.0380859,0.0732422,0.0605469,0.1367188,0.0683594l0.078125,0.0107422v0.3789063h-0.328125
				c-0.2070313,0-0.3525391-0.0556641-0.4365234-0.1660156s-0.1259766-0.2529297-0.1259766-0.4287109v-0.1787109
				c0-0.1523438-0.0410156-0.2714844-0.1225586-0.3583984c-0.0820313-0.0869141-0.1972656-0.1328125-0.3466797-0.1367188h-0.519043
				v0.8271484l0.3388672,0.0644531v0.3769531h-1.3100586v-0.3769531l0.3369141-0.0644531v-2.2509766l-0.3369141-0.0644531V80.0625
				h0.3369141H35.7832031z M35.3334961,81.4453125h0.4389648c0.1762695,0,0.309082-0.0380859,0.3974609-0.1123047
				s0.1323242-0.1826172,0.1323242-0.3232422s-0.0439453-0.2529297-0.1313477-0.3369141
				c-0.0878906-0.0839844-0.2167969-0.1259766-0.3876953-0.1259766h-0.449707V81.4453125z"/>
			<path class="st2" d="M38.6938477,80.0625v0.3789063l-0.3388672,0.0644531v1.6367188
				c0,0.2070313,0.0561523,0.3613281,0.168457,0.4648438c0.1123047,0.1025391,0.2661133,0.1533203,0.4614258,0.1533203
				c0.1987305,0,0.3544922-0.0507813,0.4672852-0.1523438c0.112793-0.1025391,0.1694336-0.2578125,0.1694336-0.4658203v-1.6367188
				l-0.3369141-0.0644531V80.0625h1.3100586v0.3789063l-0.3388672,0.0644531v1.6367188
				c0,0.3525391-0.1166992,0.6230469-0.3505859,0.8144531s-0.5410156,0.2861328-0.9204102,0.2861328
				c-0.3779297,0-0.6831055-0.0947266-0.9155273-0.2861328s-0.3486328-0.4619141-0.3486328-0.8144531v-1.6367188
				l-0.3364258-0.0644531V80.0625h0.3364258h0.6342773H38.6938477z"/>
			<path class="st2" d="M43.1845703,81.0634766h-0.4760742l-0.0825195-0.4306641
				c-0.0546875-0.0341797-0.1352539-0.0644531-0.2407227-0.0898438c-0.105957-0.0263672-0.2182617-0.0390625-0.3369141-0.0390625
				c-0.1738281,0-0.3081055,0.0361328-0.402832,0.1083984c-0.0952148,0.0722656-0.1425781,0.1660156-0.1425781,0.28125
				c0,0.1064453,0.0498047,0.1933594,0.1489258,0.2617188s0.2705078,0.140625,0.5136719,0.2167969
				c0.3491211,0.0957031,0.6137695,0.2226563,0.7939453,0.3808594c0.1806641,0.1582031,0.2705078,0.3652344,0.2705078,0.6220703
				c0,0.2685547-0.1069336,0.4804688-0.3212891,0.6357422s-0.4970703,0.2324219-0.847168,0.2324219
				c-0.2509766,0-0.4770508-0.0390625-0.6791992-0.1181641c-0.2016602-0.0791016-0.3701172-0.1884766-0.5048828-0.3271484
				v-0.6552734h0.4907227l0.0673828,0.4462891c0.0639648,0.0517578,0.1503906,0.0947266,0.2597656,0.1279297
				c0.109375,0.0341797,0.2314453,0.0507813,0.3662109,0.0507813c0.1738281,0,0.3056641-0.0351563,0.3964844-0.1054688
				c0.090332-0.0703125,0.1357422-0.1650391,0.1357422-0.2822266c0-0.1210938-0.043457-0.2177734-0.1293945-0.2910156
				c-0.0864258-0.0732422-0.2373047-0.1416016-0.453125-0.2070313c-0.375-0.1074219-0.6586914-0.2353516-0.8515625-0.3828125
				c-0.1923828-0.1484375-0.2885742-0.3505859-0.2885742-0.6074219c0-0.2539063,0.1083984-0.4619141,0.3256836-0.6240234
				c0.2172852-0.1611328,0.4902344-0.2441406,0.8188477-0.2480469c0.2431641,0,0.4648438,0.0361328,0.6650391,0.109375
				c0.199707,0.0732422,0.3676758,0.1708984,0.5039063,0.2929688V81.0634766z"/>
			<path class="st2" d="M45.8828125,81.0634766h-0.4746094l-0.0839844-0.4306641
				c-0.0546875-0.0341797-0.1347656-0.0644531-0.2402344-0.0898438c-0.1054688-0.0263672-0.21875-0.0390625-0.3378906-0.0390625
				c-0.1738281,0-0.3066406,0.0361328-0.4023438,0.1083984c-0.0947266,0.0722656-0.1425781,0.1660156-0.1425781,0.28125
				c0,0.1064453,0.0507813,0.1933594,0.1494141,0.2617188s0.2705078,0.140625,0.5146484,0.2167969
				c0.3476563,0.0957031,0.6132813,0.2226563,0.7929688,0.3808594s0.2714844,0.3652344,0.2714844,0.6220703
				c0,0.2685547-0.1074219,0.4804688-0.3222656,0.6357422s-0.4960938,0.2324219-0.8476563,0.2324219
				c-0.25,0-0.4765625-0.0390625-0.6787109-0.1181641s-0.3706055-0.1884766-0.5053711-0.3271484v-0.6552734h0.4907227
				l0.0673828,0.4462891c0.0644531,0.0517578,0.1513672,0.0947266,0.2607422,0.1279297
				c0.109375,0.0341797,0.2304688,0.0507813,0.3652344,0.0507813c0.1738281,0,0.3066406-0.0351563,0.3964844-0.1054688
				s0.1367188-0.1650391,0.1367188-0.2822266c0-0.1210938-0.0429688-0.2177734-0.1308594-0.2910156
				c-0.0859375-0.0732422-0.2363281-0.1416016-0.4511719-0.2070313c-0.3759766-0.1074219-0.6601563-0.2353516-0.8530273-0.3828125
				c-0.1923828-0.1484375-0.2885742-0.3505859-0.2885742-0.6074219c0-0.2539063,0.1083984-0.4619141,0.3256836-0.6240234
				c0.2172852-0.1611328,0.4897461-0.2441406,0.8198242-0.2480469c0.2421875,0,0.4648438,0.0361328,0.6640625,0.109375
				s0.3671875,0.1708984,0.5039063,0.2929688V81.0634766z"/>
			<path class="st2" d="M46.1757813,80.4414063V80.0625h1.3105469v0.3789063l-0.3388672,0.0644531v2.2509766l0.3388672,0.0644531
				v0.3769531h-1.3105469v-0.3769531l0.3388672-0.0644531v-2.2509766L46.1757813,80.4414063z"/>
			<path class="st2" d="M47.6943359,82.8212891l0.2265625-0.0322266L48.8828125,80.0625h0.6494141l0.9560547,2.7265625
				l0.2255859,0.0322266v0.3769531h-1.0771484v-0.3769531l0.2197266-0.0390625l-0.1396484-0.4306641h-1.0253906
				l-0.1386719,0.4306641l0.2197266,0.0390625v0.3769531h-1.078125V82.8212891z M48.8417969,81.8886719h0.7255859
				l-0.3564453-1.1044922h-0.0126953L48.8417969,81.8886719z"/>
		</g>
		<ellipse class="st5" cx="28.0922089" cy="74.9196472" rx="1.531601" ry="1.5185699"/>
		<rect x="25.6260605" y="62.814045" class="st2" width="4.706789" height="4.7067909"/>
		<g>
			<path class="st6" d="M27.840332,63.7958984c0.3969727,0,0.7163086,0.1210938,0.9575195,0.3632813
				c0.2416992,0.2421875,0.3623047,0.5556641,0.3623047,0.9394531v0.4121094c0,0.3847656-0.1206055,0.6972656-0.3623047,0.9384766
				c-0.2412109,0.2412109-0.5605469,0.3613281-0.9575195,0.3613281h-1.2734375v-0.2607422l0.340332-0.0585938v-2.3740234
				l-0.340332-0.0585938v-0.2626953h0.340332H27.840332z M27.3183594,64.1171875v2.3740234h0.5219727
				c0.28125,0,0.5029297-0.0908203,0.6655273-0.2744141c0.1621094-0.1835938,0.2431641-0.4189453,0.2431641-0.7060547V65.09375
				c0-0.2841797-0.0810547-0.5175781-0.2431641-0.7011719c-0.1625977-0.1835938-0.3842773-0.2753906-0.6655273-0.2753906H27.3183594
				z"/>
		</g>
		<path class="st4" d="M37.5611954,74.9196472c0,1.2273636-1.0018463,2.2224808-2.2397385,2.2224808
			s-2.2415428-0.9951172-2.2415428-2.2224808c0-1.227356,1.0036507-2.2224731,2.2415428-2.2224731
			S37.5611954,73.6922913,37.5611954,74.9196472z"/>
		<ellipse class="st5" cx="35.3205528" cy="74.9196472" rx="1.531601" ry="1.5185699"/>
		<path class="st4" d="M44.7611961,74.9196472c0,1.2273636-1.0018463,2.2224808-2.2397385,2.2224808
			s-2.2415428-0.9951172-2.2415428-2.2224808c0-1.227356,1.0036507-2.2224731,2.2415428-2.2224731
			S44.7611961,73.6922913,44.7611961,74.9196472z"/>
		<ellipse class="st5" cx="42.5205536" cy="74.9196472" rx="1.531601" ry="1.5185699"/>
		<path class="st4" d="M51.3486252,73.2907333c1.5395126,2.0229111-0.1709862,4.2713013-2.1831703,3.7839966
			c-0.7743721-0.1875305-1.4096413-0.8210754-1.5987854-1.5950546
			C47.0750771,73.4680405,49.3241386,71.7503281,51.3486252,73.2907333z"/>
		<ellipse class="st5" cx="49.7205544" cy="74.9196472" rx="1.531601" ry="1.5185699"/>
		<path class="st4" d="M58.5486259,73.2907333c1.5395088,2.0229111-0.1709862,4.2713013-2.1831703,3.7839966
			c-0.7743721-0.1875305-1.4096413-0.8210754-1.5987854-1.5950546
			C54.275074,73.4680405,56.5241356,71.7503281,58.5486259,73.2907333z"/>
		<ellipse class="st5" cx="56.9205551" cy="74.9196472" rx="1.531601" ry="1.5185699"/>
	</g>
</g>
<g id="J3y">
	<g id="XMLID_6_">
		<g>
			
				<linearGradient id="SVGID_1_" gradientUnits="userSpaceOnUse" x1="74.2167664" y1="57.1458206" x2="82.7757111" y2="57.1458206" gradientTransform="matrix(1 0 0 -1 0 85.5275574)">
				<stop  offset="0" style="stop-color:#313131"/>
				<stop  offset="0.0640988" style="stop-color:#313131"/>
				<stop  offset="0.55211" style="stop-color:#313131"/>
				<stop  offset="0.994382" style="stop-color:#666566"/>
			</linearGradient>
			<rect x="74.2167664" y="26.5505219" class="st7" width="8.5589447" height="3.6624374"/>
		</g>
	</g>
	<g id="XMLID_18_">
		<g>
			<rect x="77.5646667" y="23.4973011" class="st1" width="1.6072769" height="2.9478149"/>
		</g>
	</g>
	<g id="XMLID_16_">
		<g>
			<rect x="80.2981262" y="30.2129593" class="st1" width="1.68116" height="3.5123653"/>
		</g>
	</g>
	<g id="XMLID_17_">
		<g>
			<rect x="74.8095856" y="30.2129593" class="st1" width="1.68116" height="3.5123653"/>
		</g>
	</g>
	<g>
		<path class="st8" d="M77.546875,28.720705c0,0.1591797-0.0488281,0.2822266-0.1474609,0.3691406
			c-0.0986328,0.0859375-0.2294922,0.1289063-0.3945313,0.1289063c-0.0400391,0-0.0917969-0.0029297-0.1572266-0.0097656
			c-0.0664063-0.0068359-0.1210938-0.015625-0.1660156-0.0253906v-0.2255859h0.0136719
			c0.0341797,0.0107422,0.0761719,0.0224609,0.125,0.0351563c0.0488281,0.0117188,0.0996094,0.0185547,0.1513672,0.0185547
			c0.0751953,0,0.1357422-0.0087891,0.1806641-0.0263672c0.0449219-0.0166016,0.078125-0.0410156,0.0986328-0.0732422
			c0.0224609-0.0322266,0.0361328-0.0722656,0.0419922-0.1191406c0.0068359-0.0478516,0.0097656-0.1015625,0.0097656-0.1640625
			v-1.0615234h-0.3876953v-0.1923828h0.6318359V28.720705z"/>
		<path class="st8" d="M79.0537109,28.3173847c0.0390625,0.0351563,0.0712891,0.0791016,0.0966797,0.1318359
			c0.0253906,0.0537109,0.0390625,0.1220703,0.0390625,0.2050781c0,0.0839844-0.015625,0.1591797-0.0458984,0.2285156
			s-0.0732422,0.1298828-0.1279297,0.1806641c-0.0625,0.0576172-0.1347656,0.0996094-0.2177734,0.1269531
			s-0.1748047,0.0410156-0.2744141,0.0410156c-0.1015625,0-0.2011719-0.0126953-0.3007813-0.0361328
			c-0.0976563-0.0244141-0.1787109-0.0507813-0.2421875-0.0791016V28.86133h0.0185547
			c0.0693359,0.0458984,0.1513672,0.0830078,0.2470703,0.1132813c0.09375,0.0302734,0.1855469,0.0449219,0.2734375,0.0449219
			c0.0507813,0,0.1054688-0.0078125,0.1640625-0.0253906c0.0585938-0.0166016,0.1054688-0.0419922,0.1425781-0.0751953
			c0.0371094-0.0361328,0.0654297-0.0751953,0.0839844-0.1191406c0.0175781-0.0429688,0.0273438-0.0976563,0.0273438-0.1630859
			s-0.0097656-0.1191406-0.03125-0.1621094s-0.0498047-0.0761719-0.0869141-0.1005859
			c-0.0361328-0.0253906-0.0810547-0.0429688-0.1337891-0.0517578c-0.0527344-0.0097656-0.109375-0.0146484-0.1699219-0.0146484
			h-0.1113281v-0.2021484h0.0859375c0.125,0,0.2246094-0.0263672,0.2988281-0.078125s0.1113281-0.1269531,0.1113281-0.2265625
			c0-0.0439453-0.0097656-0.0820313-0.0273438-0.1152344c-0.0195313-0.0332031-0.0458984-0.0595703-0.0800781-0.0810547
			c-0.0351563-0.0214844-0.0722656-0.0361328-0.1132813-0.0439453c-0.0390625-0.0078125-0.0859375-0.0126953-0.1367188-0.0126953
			c-0.078125,0-0.1601563,0.0146484-0.2480469,0.0419922s-0.1708984,0.0664063-0.2490234,0.1171875h-0.0126953v-0.2548828
			c0.0585938-0.0292969,0.1367188-0.0546875,0.234375-0.0791016c0.0966797-0.0244141,0.1914063-0.0361328,0.2822266-0.0361328
			c0.0888672,0,0.1679688,0.0078125,0.2363281,0.0244141s0.1298828,0.0419922,0.1845703,0.078125
			c0.0595703,0.0390625,0.1035156,0.0869141,0.1347656,0.1416016c0.0302734,0.0556641,0.0449219,0.1201172,0.0449219,0.1943359
			c0,0.1005859-0.0351563,0.1894531-0.1074219,0.2646484s-0.15625,0.1230469-0.2539063,0.1425781v0.0166016
			c0.0390625,0.0068359,0.0839844,0.0205078,0.1347656,0.0410156S79.0175781,28.2871113,79.0537109,28.3173847z"/>
		<path class="st8" d="M80.9228516,27.3750019l-0.6455078,1.0205078v0.7978516h-0.2441406v-0.7714844l-0.6474609-1.046875H79.65625
			l0.5,0.8134766l0.5068359-0.8134766H80.9228516z"/>
	</g>
</g>
<g id="Резистор">
	<g>
		<g id="XMLID_12_">
			<g>
				<rect x="67.4928436" y="37.6104317" class="st9" width="4.2554779" height="3.4358902"/>
			</g>
		</g>
		<g id="XMLID_11_">
			<g>
				<rect x="67.5335541" y="44.738884" class="st9" width="4.2554779" height="3.4376602"/>
			</g>
		</g>
		<g id="XMLID_10_">
			<g>
				<rect x="67.8327179" y="40.3426437" class="st10" width="3.6058273" height="5.1633453"/>
			</g>
		</g>
		<g>
			<path class="st8" d="M69.0917969,41.984375v-0.6967773h0.1318359v0.2680664h0.8623047v-0.2680664h0.1171875
				c0,0.0361328,0.0039063,0.0751953,0.0097656,0.1166992s0.0146484,0.0727539,0.0263672,0.0942383
				c0.0146484,0.0263672,0.0322266,0.0473633,0.0546875,0.0625c0.0224609,0.015625,0.0517578,0.0244141,0.0898438,0.0263672
				v0.1342773h-1.1601563v0.2626953H69.0917969z"/>
			<path class="st8" d="M69.7363281,43.0043945c-0.2304688,0-0.4003906-0.0361328-0.5087891-0.1083984
				s-0.1621094-0.1845703-0.1621094-0.3369141c0-0.1542969,0.0546875-0.2670898,0.1640625-0.3383789
				c0.1103516-0.0712891,0.2783203-0.1064453,0.5048828-0.1064453c0.2285156,0,0.3984375,0.0356445,0.5068359,0.1079102
				c0.109375,0.0717773,0.1640625,0.184082,0.1640625,0.3369141c0,0.1542969-0.0556641,0.2670898-0.1669922,0.3383789
				C70.1279297,42.96875,69.9609375,43.0043945,69.7363281,43.0043945z M69.34375,42.7768555
				c0.046875,0.0205078,0.1015625,0.0341797,0.1640625,0.0410156c0.0644531,0.0073242,0.1396484,0.0107422,0.2285156,0.0107422
				c0.0878906,0,0.1640625-0.003418,0.2285156-0.0107422c0.0644531-0.0068359,0.1191406-0.0209961,0.1640625-0.0419922
				c0.0439453-0.0200195,0.078125-0.0473633,0.0996094-0.0825195c0.0234375-0.034668,0.0341797-0.0795898,0.0341797-0.1342773
				c0-0.0541992-0.0107422-0.0991211-0.0341797-0.1342773c-0.0214844-0.0356445-0.0566406-0.0634766-0.1015625-0.0844727
				c-0.0429688-0.0195313-0.0976563-0.0327148-0.1669922-0.0400391c-0.0683594-0.0073242-0.1435547-0.0107422-0.2255859-0.0107422
				c-0.0898438,0-0.1650391,0.0029297-0.2255859,0.0092773s-0.1142578,0.0200195-0.1630859,0.0410156
				c-0.0449219,0.0185547-0.078125,0.0458984-0.1015625,0.0805664c-0.0244141,0.034668-0.0361328,0.0810547-0.0361328,0.1386719
				c0,0.0541992,0.0107422,0.0991211,0.0341797,0.1347656C69.2636719,42.7294922,69.2988281,42.7573242,69.34375,42.7768555z"/>
			<path class="st8" d="M69.7363281,43.953125c-0.2304688,0-0.4003906-0.0361328-0.5087891-0.1083984
				s-0.1621094-0.1845703-0.1621094-0.3369141c0-0.1542969,0.0546875-0.2670898,0.1640625-0.3383789
				c0.1103516-0.0712891,0.2783203-0.1064453,0.5048828-0.1064453c0.2285156,0,0.3984375,0.0356445,0.5068359,0.1079102
				c0.109375,0.0717773,0.1640625,0.184082,0.1640625,0.3369141c0,0.1542969-0.0556641,0.2670898-0.1669922,0.3383789
				C70.1279297,43.9174805,69.9609375,43.953125,69.7363281,43.953125z M69.34375,43.7255859
				c0.046875,0.0205078,0.1015625,0.0341797,0.1640625,0.0410156c0.0644531,0.0073242,0.1396484,0.0107422,0.2285156,0.0107422
				c0.0878906,0,0.1640625-0.003418,0.2285156-0.0107422c0.0644531-0.0068359,0.1191406-0.0209961,0.1640625-0.0419922
				c0.0439453-0.0200195,0.078125-0.0473633,0.0996094-0.0825195c0.0234375-0.034668,0.0341797-0.0795898,0.0341797-0.1342773
				c0-0.0541992-0.0107422-0.0991211-0.0341797-0.1342773c-0.0214844-0.0356445-0.0566406-0.0634766-0.1015625-0.0844727
				c-0.0429688-0.0195313-0.0976563-0.0327148-0.1669922-0.0400391c-0.0683594-0.0073242-0.1435547-0.0107422-0.2255859-0.0107422
				c-0.0898438,0-0.1650391,0.0029297-0.2255859,0.0092773s-0.1142578,0.0200195-0.1630859,0.0410156
				c-0.0449219,0.0185547-0.078125,0.0458984-0.1015625,0.0805664c-0.0244141,0.034668-0.0361328,0.0810547-0.0361328,0.1386719
				c0,0.0541992,0.0107422,0.0991211,0.0341797,0.1347656C69.2636719,43.6782227,69.2988281,43.7060547,69.34375,43.7255859z"/>
			<path class="st8" d="M69.0917969,44.9023438V44.03125h0.1816406c0.0507813,0.0605469,0.1035156,0.1210938,0.1552734,0.1826172
				c0.0517578,0.0605469,0.1025391,0.1171875,0.1542969,0.1689453c0.1074219,0.1113281,0.1923828,0.1875,0.2558594,0.2285156
				s0.1308594,0.0605469,0.2041016,0.0605469c0.0664063,0,0.1191406-0.0214844,0.15625-0.0664063
				C70.2382813,44.5625,70.2558594,44.5,70.2558594,44.421875c0-0.0527344-0.0078125-0.109375-0.0273438-0.1699219
				c-0.0175781-0.0615234-0.046875-0.1210938-0.0839844-0.1796875v-0.0087891h0.1816406
				c0.0195313,0.0410156,0.0380859,0.0957031,0.0546875,0.1640625c0.0175781,0.0683594,0.0253906,0.1337891,0.0253906,0.1982422
				c0,0.1318359-0.0322266,0.2353516-0.0957031,0.3105469c-0.0634766,0.0742188-0.1503906,0.1123047-0.2587891,0.1123047
				c-0.0488281,0-0.0947266-0.0068359-0.1376953-0.0185547c-0.0410156-0.0126953-0.0820313-0.03125-0.1201172-0.0546875
				c-0.0361328-0.0234375-0.0712891-0.0488281-0.1054688-0.0800781c-0.0341797-0.0292969-0.0732422-0.0664063-0.1142578-0.109375
				c-0.0605469-0.0625-0.1191406-0.125-0.1757813-0.1914063c-0.0566406-0.0654297-0.109375-0.1269531-0.1582031-0.1835938v0.6914063
				H69.0917969z"/>
		</g>
	</g>
	<g>
		<g id="XMLID_3_">
			<g>
				<rect x="67.4725571" y="23.0994282" class="st9" width="4.2554779" height="3.4358902"/>
			</g>
		</g>
		<g id="XMLID_2_">
			<g>
				<rect x="67.5132751" y="30.2278843" class="st9" width="4.2554779" height="3.4376602"/>
			</g>
		</g>
		<g id="XMLID_1_">
			<g>
				<rect x="67.8124313" y="25.8316402" class="st10" width="3.6058273" height="5.1633434"/>
			</g>
		</g>
		<g>
			<path class="st8" d="M69.0722656,27.4736347v-0.6967773h0.1308594v0.2680664h0.8632813v-0.2680664h0.1171875
				c0,0.0361328,0.0029297,0.0751953,0.0087891,0.1166992s0.0146484,0.0727539,0.0263672,0.0942383
				c0.0136719,0.0263672,0.0332031,0.0473633,0.0546875,0.0625c0.0224609,0.015625,0.0527344,0.0244141,0.0898438,0.0263672
				v0.1342773H69.203125v0.2626953H69.0722656z"/>
			<path class="st8" d="M69.7158203,28.4936543c-0.2314453,0-0.4013672-0.0361328-0.5087891-0.1083984
				s-0.1621094-0.1845703-0.1621094-0.3369141c0-0.1542969,0.0546875-0.2670898,0.1640625-0.3383789
				s0.2773438-0.1064453,0.5048828-0.1064453c0.2294922,0,0.3974609,0.0356445,0.5068359,0.1079102
				c0.109375,0.0717773,0.1640625,0.184082,0.1640625,0.3369141c0,0.1542969-0.0556641,0.2670898-0.1660156,0.3383789
				C70.1074219,28.4580097,69.9394531,28.4936543,69.7158203,28.4936543z M69.3232422,28.2661152
				c0.046875,0.0205078,0.1015625,0.0341797,0.1650391,0.0410156c0.0625,0.0073242,0.1386719,0.0107422,0.2275391,0.0107422
				c0.0869141,0,0.1630859-0.003418,0.2275391-0.0107422c0.0644531-0.0068359,0.1191406-0.0209961,0.1640625-0.0419922
				c0.0449219-0.0200195,0.078125-0.0473633,0.1015625-0.0825195c0.0214844-0.034668,0.0332031-0.0795898,0.0332031-0.1342773
				c0-0.0541992-0.0117188-0.0991211-0.0332031-0.1342773c-0.0234375-0.0356445-0.0566406-0.0634766-0.1025391-0.0844727
				c-0.0419922-0.0195313-0.0986328-0.0327148-0.1669922-0.0400391s-0.1435547-0.0107422-0.2255859-0.0107422
				c-0.0898438,0-0.1650391,0.0029297-0.2255859,0.0092773s-0.1152344,0.0200195-0.1621094,0.0410156
				c-0.0449219,0.0185547-0.0800781,0.0458984-0.1035156,0.0805664S69.1875,27.9907246,69.1875,28.0483418
				c0,0.0541992,0.0117188,0.0991211,0.0332031,0.1347656C69.2441406,28.2187519,69.2773438,28.2465839,69.3232422,28.2661152z"/>
			<path class="st8" d="M69.7158203,29.4423847c-0.2314453,0-0.4013672-0.0361328-0.5087891-0.1083984
				s-0.1621094-0.1845703-0.1621094-0.3369141c0-0.1542969,0.0546875-0.2670898,0.1640625-0.3383789
				s0.2773438-0.1064453,0.5048828-0.1064453c0.2294922,0,0.3974609,0.0356445,0.5068359,0.1079102
				c0.109375,0.0717773,0.1640625,0.184082,0.1640625,0.3369141c0,0.1542969-0.0556641,0.2670898-0.1660156,0.3383789
				C70.1074219,29.4067402,69.9394531,29.4423847,69.7158203,29.4423847z M69.3232422,29.2148457
				c0.046875,0.0205078,0.1015625,0.0341797,0.1650391,0.0410156c0.0625,0.0073242,0.1386719,0.0107422,0.2275391,0.0107422
				c0.0869141,0,0.1630859-0.003418,0.2275391-0.0107422c0.0644531-0.0068359,0.1191406-0.0209961,0.1640625-0.0419922
				c0.0449219-0.0200195,0.078125-0.0473633,0.1015625-0.0825195c0.0214844-0.034668,0.0332031-0.0795898,0.0332031-0.1342773
				c0-0.0541992-0.0117188-0.0991211-0.0332031-0.1342773c-0.0234375-0.0356445-0.0566406-0.0634766-0.1025391-0.0844727
				c-0.0419922-0.0195313-0.0986328-0.0327148-0.1669922-0.0400391s-0.1435547-0.0107422-0.2255859-0.0107422
				c-0.0898438,0-0.1650391,0.0029297-0.2255859,0.0092773s-0.1152344,0.0200195-0.1621094,0.0410156
				c-0.0449219,0.0185547-0.0800781,0.0458984-0.1035156,0.0805664S69.1875,28.939455,69.1875,28.9970722
				c0,0.0541992,0.0117188,0.0991211,0.0332031,0.1347656C69.2441406,29.1674824,69.2773438,29.1953144,69.3232422,29.2148457z"/>
			<path class="st8" d="M69.0722656,30.3920918V29.520998h0.1796875c0.0527344,0.0605469,0.1035156,0.1210938,0.15625,0.1821289
				c0.0517578,0.0605469,0.1035156,0.1171875,0.1542969,0.1694336c0.1074219,0.1108398,0.1923828,0.1865234,0.2558594,0.2275391
				c0.0625,0.0410156,0.1308594,0.0615234,0.2041016,0.0615234c0.0673828,0,0.1191406-0.0219727,0.1572266-0.0664063
				c0.0371094-0.0439453,0.0566406-0.1054688,0.0566406-0.1845703c0-0.0522461-0.0097656-0.1088867-0.0273438-0.1699219
				c-0.0195313-0.0610352-0.046875-0.1210938-0.0859375-0.1791992v-0.0087891h0.1816406
				c0.0205078,0.0410156,0.0390625,0.0957031,0.0556641,0.1640625s0.0253906,0.1342773,0.0253906,0.1982422
				c0,0.1318359-0.0322266,0.2353516-0.0957031,0.3105469c-0.0634766,0.074707-0.1494141,0.1123047-0.2587891,0.1123047
				c-0.0488281,0-0.0947266-0.0063477-0.1367188-0.0185547c-0.0429688-0.0126953-0.0830078-0.0307617-0.1210938-0.0551758
				c-0.0351563-0.0224609-0.0703125-0.0488281-0.1054688-0.0791016c-0.0341797-0.0302734-0.0722656-0.0668945-0.1152344-0.1098633
				c-0.0605469-0.0620117-0.1191406-0.1254883-0.1757813-0.1914063c-0.0566406-0.0654297-0.109375-0.1269531-0.1572266-0.184082
				v0.6923828H69.0722656z"/>
		</g>
	</g>
	<g>
		<g id="XMLID_19_">
			<g>
				<rect x="74.4791718" y="37.6414108" class="st9" width="4.2554779" height="3.4358902"/>
			</g>
		</g>
		<g id="XMLID_15_">
			<g>
				<rect x="74.5198898" y="44.7698669" class="st9" width="4.2554779" height="3.4376602"/>
			</g>
		</g>
		<g id="XMLID_14_">
			<g>
				<rect x="74.819046" y="40.3736229" class="st10" width="3.6058273" height="5.1633415"/>
			</g>
		</g>
		<g>
			<path class="st8" d="M76.078125,42.015625v-0.6967773h0.1308594v0.2680664h0.8632813v-0.2680664h0.1171875
				c0,0.0361328,0.0029297,0.0751953,0.0087891,0.1166992s0.0146484,0.0727539,0.0263672,0.0942383
				c0.0136719,0.0263672,0.0332031,0.0473633,0.0546875,0.0625c0.0224609,0.015625,0.0527344,0.0244141,0.0898438,0.0263672
				v0.1342773h-1.1601563v0.2626953H76.078125z"/>
			<path class="st8" d="M76.7216797,43.0356445c-0.2314453,0-0.4013672-0.0361328-0.5087891-0.1083984
				s-0.1621094-0.1845703-0.1621094-0.3369141c0-0.1542969,0.0546875-0.2670898,0.1640625-0.3383789
				s0.2773438-0.1064453,0.5048828-0.1064453c0.2294922,0,0.3974609,0.0356445,0.5068359,0.1079102
				c0.109375,0.0717773,0.1640625,0.184082,0.1640625,0.3369141c0,0.1542969-0.0556641,0.2670898-0.1660156,0.3383789
				C77.1132813,43,76.9453125,43.0356445,76.7216797,43.0356445z M76.3291016,42.8081055
				c0.046875,0.0205078,0.1015625,0.0341797,0.1650391,0.0410156c0.0625,0.0073242,0.1386719,0.0107422,0.2275391,0.0107422
				c0.0869141,0,0.1630859-0.003418,0.2275391-0.0107422c0.0644531-0.0068359,0.1191406-0.0209961,0.1640625-0.0419922
				c0.0449219-0.0200195,0.078125-0.0473633,0.1015625-0.0825195c0.0214844-0.034668,0.0332031-0.0795898,0.0332031-0.1342773
				c0-0.0541992-0.0117188-0.0991211-0.0332031-0.1342773c-0.0234375-0.0356445-0.0566406-0.0634766-0.1025391-0.0844727
				c-0.0419922-0.0195313-0.0986328-0.0327148-0.1669922-0.0400391s-0.1435547-0.0107422-0.2255859-0.0107422
				c-0.0898438,0-0.1650391,0.0029297-0.2255859,0.0092773s-0.1152344,0.0200195-0.1621094,0.0410156
				c-0.0449219,0.0185547-0.0800781,0.0458984-0.1035156,0.0805664s-0.0351563,0.0810547-0.0351563,0.1386719
				c0,0.0541992,0.0117188,0.0991211,0.0332031,0.1347656C76.25,42.7607422,76.2832031,42.7885742,76.3291016,42.8081055z"/>
			<path class="st8" d="M76.7216797,43.984375c-0.2314453,0-0.4013672-0.0361328-0.5087891-0.1083984
				s-0.1621094-0.1845703-0.1621094-0.3369141c0-0.1542969,0.0546875-0.2670898,0.1640625-0.3383789
				s0.2773438-0.1064453,0.5048828-0.1064453c0.2294922,0,0.3974609,0.0356445,0.5068359,0.1079102
				c0.109375,0.0717773,0.1640625,0.184082,0.1640625,0.3369141c0,0.1542969-0.0556641,0.2670898-0.1660156,0.3383789
				C77.1132813,43.9487305,76.9453125,43.984375,76.7216797,43.984375z M76.3291016,43.7568359
				c0.046875,0.0205078,0.1015625,0.0341797,0.1650391,0.0410156c0.0625,0.0073242,0.1386719,0.0107422,0.2275391,0.0107422
				c0.0869141,0,0.1630859-0.003418,0.2275391-0.0107422c0.0644531-0.0068359,0.1191406-0.0209961,0.1640625-0.0419922
				c0.0449219-0.0200195,0.078125-0.0473633,0.1015625-0.0825195c0.0214844-0.034668,0.0332031-0.0795898,0.0332031-0.1342773
				c0-0.0541992-0.0117188-0.0991211-0.0332031-0.1342773c-0.0234375-0.0356445-0.0566406-0.0634766-0.1025391-0.0844727
				c-0.0419922-0.0195313-0.0986328-0.0327148-0.1669922-0.0400391s-0.1435547-0.0107422-0.2255859-0.0107422
				c-0.0898438,0-0.1650391,0.0029297-0.2255859,0.0092773s-0.1152344,0.0200195-0.1621094,0.0410156
				c-0.0449219,0.0185547-0.0800781,0.0458984-0.1035156,0.0805664s-0.0351563,0.0810547-0.0351563,0.1386719
				c0,0.0541992,0.0117188,0.0991211,0.0332031,0.1347656C76.25,43.7094727,76.2832031,43.7373047,76.3291016,43.7568359z"/>
			<path class="st8" d="M76.078125,44.9335938V44.0625h0.1796875c0.0527344,0.0605469,0.1035156,0.1210938,0.15625,0.1826172
				c0.0517578,0.0605469,0.1035156,0.1171875,0.1542969,0.1689453c0.1074219,0.1113281,0.1923828,0.1875,0.2558594,0.2285156
				c0.0625,0.0410156,0.1308594,0.0605469,0.2041016,0.0605469c0.0673828,0,0.1191406-0.0214844,0.1572266-0.0664063
				c0.0371094-0.0429688,0.0566406-0.1054688,0.0566406-0.1835938c0-0.0527344-0.0097656-0.109375-0.0273438-0.1699219
				c-0.0195313-0.0615234-0.046875-0.1210938-0.0859375-0.1796875v-0.0087891h0.1816406
				c0.0205078,0.0410156,0.0390625,0.0957031,0.0556641,0.1640625s0.0253906,0.1337891,0.0253906,0.1982422
				c0,0.1318359-0.0322266,0.2353516-0.0957031,0.3105469c-0.0634766,0.0742188-0.1494141,0.1123047-0.2587891,0.1123047
				c-0.0488281,0-0.0947266-0.0068359-0.1367188-0.0185547c-0.0429688-0.0126953-0.0830078-0.03125-0.1210938-0.0546875
				c-0.0351563-0.0234375-0.0703125-0.0488281-0.1054688-0.0800781c-0.0341797-0.0292969-0.0722656-0.0664063-0.1152344-0.109375
				c-0.0605469-0.0625-0.1191406-0.125-0.1757813-0.1914063c-0.0566406-0.0654297-0.109375-0.1269531-0.1572266-0.1835938v0.6914063
				H76.078125z"/>
		</g>
	</g>
	<g>
		<g id="XMLID_22_">
			<g>
				<rect x="67.4522781" y="52.7247467" class="st9" width="4.2554779" height="3.4358902"/>
			</g>
		</g>
		<g id="XMLID_21_">
			<g>
				<rect x="67.4929886" y="59.853199" class="st9" width="4.2554779" height="3.4376602"/>
			</g>
		</g>
		<g id="XMLID_20_">
			<g>
				<rect x="67.7921448" y="55.456955" class="st10" width="3.6058273" height="5.1633453"/>
			</g>
		</g>
		<g>
			<path class="st8" d="M69.0507813,57.0986328v-0.6962891h0.1308594v0.2675781h0.8632813v-0.2675781h0.1171875
				c0,0.0351563,0.0029297,0.0742188,0.0087891,0.1162109s0.0146484,0.0732422,0.0263672,0.0947266
				c0.0136719,0.0253906,0.0332031,0.046875,0.0546875,0.0625c0.0224609,0.015625,0.0527344,0.0234375,0.0898438,0.0253906
				v0.1347656h-1.1601563v0.2626953H69.0507813z"/>
			<path class="st8" d="M69.6943359,58.1191406c-0.2314453,0-0.4013672-0.0371094-0.5087891-0.109375
				s-0.1621094-0.1835938-0.1621094-0.3359375c0-0.1542969,0.0546875-0.2675781,0.1640625-0.3388672
				s0.2773438-0.1064453,0.5048828-0.1064453c0.2294922,0,0.3974609,0.0351563,0.5068359,0.1074219
				s0.1640625,0.1845703,0.1640625,0.3378906c0,0.1542969-0.0556641,0.2666016-0.1660156,0.3378906
				C70.0859375,58.0830078,69.9179688,58.1191406,69.6943359,58.1191406z M69.3017578,57.890625
				c0.046875,0.0214844,0.1015625,0.0351563,0.1650391,0.0410156c0.0625,0.0078125,0.1386719,0.0117188,0.2275391,0.0117188
				c0.0869141,0,0.1630859-0.0039063,0.2275391-0.0117188c0.0644531-0.0058594,0.1191406-0.0205078,0.1640625-0.0410156
				s0.078125-0.0478516,0.1015625-0.0830078c0.0214844-0.0341797,0.0332031-0.0791016,0.0332031-0.1337891
				s-0.0117188-0.0996094-0.0332031-0.1347656c-0.0234375-0.0351563-0.0566406-0.0634766-0.1025391-0.0839844
				c-0.0419922-0.0195313-0.0986328-0.0332031-0.1669922-0.0410156c-0.0683594-0.0068359-0.1435547-0.0097656-0.2255859-0.0097656
				c-0.0898438,0-0.1650391,0.0019531-0.2255859,0.0087891s-0.1152344,0.0205078-0.1621094,0.0410156
				C69.2597656,57.4726563,69.2246094,57.5,69.2011719,57.5351563c-0.0234375,0.0341797-0.0351563,0.0800781-0.0351563,0.1386719
				c0,0.0537109,0.0117188,0.0986328,0.0332031,0.1347656C69.2226563,57.84375,69.2558594,57.8710938,69.3017578,57.890625z"/>
			<path class="st8" d="M69.6943359,59.0673828c-0.2314453,0-0.4013672-0.0361328-0.5087891-0.1083984
				s-0.1621094-0.1845703-0.1621094-0.3369141c0-0.1542969,0.0546875-0.2666016,0.1640625-0.3388672
				c0.109375-0.0703125,0.2773438-0.1054688,0.5048828-0.1054688c0.2294922,0,0.3974609,0.0351563,0.5068359,0.1074219
				s0.1640625,0.1835938,0.1640625,0.3369141c0,0.1542969-0.0556641,0.2666016-0.1660156,0.3388672
				C70.0859375,59.03125,69.9179688,59.0673828,69.6943359,59.0673828z M69.3017578,58.8398438
				c0.046875,0.0205078,0.1015625,0.0341797,0.1650391,0.0410156c0.0625,0.0078125,0.1386719,0.0107422,0.2275391,0.0107422
				c0.0869141,0,0.1630859-0.0029297,0.2275391-0.0107422c0.0644531-0.0068359,0.1191406-0.0214844,0.1640625-0.0419922
				s0.078125-0.0478516,0.1015625-0.0830078c0.0214844-0.0341797,0.0332031-0.0791016,0.0332031-0.1337891
				c0-0.0537109-0.0117188-0.0986328-0.0332031-0.1337891c-0.0234375-0.0361328-0.0566406-0.0644531-0.1025391-0.0849609
				c-0.0419922-0.0195313-0.0986328-0.0322266-0.1669922-0.0400391s-0.1435547-0.0107422-0.2255859-0.0107422
				c-0.0898438,0-0.1650391,0.0029297-0.2255859,0.0087891c-0.0605469,0.0068359-0.1152344,0.0205078-0.1621094,0.0410156
				c-0.0449219,0.0195313-0.0800781,0.046875-0.1035156,0.0810547s-0.0351563,0.0810547-0.0351563,0.1386719
				c0,0.0537109,0.0117188,0.0986328,0.0332031,0.1347656C69.2226563,58.7929688,69.2558594,58.8203125,69.3017578,58.8398438z"/>
			<path class="st8" d="M69.0507813,60.0175781v-0.8710938h0.1796875c0.0527344,0.0605469,0.1035156,0.1210938,0.15625,0.1816406
				c0.0517578,0.0605469,0.1035156,0.1171875,0.1542969,0.1699219c0.1074219,0.1103516,0.1923828,0.1855469,0.2558594,0.2265625
				c0.0625,0.0410156,0.1308594,0.0625,0.2041016,0.0625c0.0673828,0,0.1191406-0.0224609,0.1572266-0.0664063
				c0.0371094-0.0449219,0.0566406-0.1054688,0.0566406-0.1855469c0-0.0517578-0.0097656-0.1083984-0.0273438-0.1699219
				c-0.0195313-0.0605469-0.046875-0.1210938-0.0859375-0.1787109v-0.0087891h0.1816406
				c0.0205078,0.0410156,0.0390625,0.0957031,0.0556641,0.1640625s0.0253906,0.1347656,0.0253906,0.1982422
				c0,0.1318359-0.0322266,0.2353516-0.0957031,0.3105469s-0.1494141,0.1123047-0.2587891,0.1123047
				c-0.0488281,0-0.0947266-0.0058594-0.1367188-0.0185547c-0.0429688-0.0126953-0.0830078-0.0302734-0.1210938-0.0556641
				c-0.0351563-0.0214844-0.0703125-0.0488281-0.1054688-0.078125c-0.0341797-0.03125-0.0722656-0.0673828-0.1152344-0.1103516
				c-0.0605469-0.0615234-0.1191406-0.1259766-0.1757813-0.1914063s-0.109375-0.1269531-0.1572266-0.1845703v0.6933594H69.0507813z"
				/>
		</g>
	</g>
	<g>
		<g id="XMLID_25_">
			<g>
				<rect x="74.4736404" y="52.7557259" class="st9" width="4.2554779" height="3.4358902"/>
			</g>
		</g>
		<g id="XMLID_24_">
			<g>
				<rect x="74.5143585" y="59.884182" class="st9" width="4.2554779" height="3.4376602"/>
			</g>
		</g>
		<g id="XMLID_23_">
			<g>
				<rect x="74.8135147" y="55.4879379" class="st10" width="3.6058273" height="5.1633453"/>
			</g>
		</g>
		<g>
			<path class="st8" d="M76.0722656,57.1308594v-0.6972656h0.1308594v0.2685547h0.8632813v-0.2685547h0.1171875
				c0,0.0371094,0.0029297,0.0761719,0.0087891,0.1171875s0.0146484,0.0722656,0.0263672,0.09375
				c0.0136719,0.0273438,0.0332031,0.0478516,0.0546875,0.0625c0.0224609,0.015625,0.0527344,0.0253906,0.0898438,0.0273438
				v0.1337891H76.203125v0.2626953H76.0722656z"/>
			<path class="st8" d="M76.7158203,58.1503906c-0.2314453,0-0.4013672-0.0351563-0.5087891-0.1074219
				s-0.1621094-0.1855469-0.1621094-0.3378906c0-0.1542969,0.0546875-0.2666016,0.1640625-0.3378906
				s0.2773438-0.1064453,0.5048828-0.1064453c0.2294922,0,0.3974609,0.0361328,0.5068359,0.1083984
				c0.109375,0.0712891,0.1640625,0.1835938,0.1640625,0.3359375c0,0.1542969-0.0556641,0.2675781-0.1660156,0.3388672
				C77.1074219,58.1152344,76.9394531,58.1503906,76.7158203,58.1503906z M76.3232422,57.9238281
				c0.046875,0.0195313,0.1015625,0.0332031,0.1650391,0.0410156c0.0625,0.0068359,0.1386719,0.0097656,0.2275391,0.0097656
				c0.0869141,0,0.1630859-0.0029297,0.2275391-0.0097656c0.0644531-0.0078125,0.1191406-0.0214844,0.1640625-0.0429688
				c0.0449219-0.0195313,0.078125-0.046875,0.1015625-0.0820313c0.0214844-0.0351563,0.0332031-0.0800781,0.0332031-0.1347656
				c0-0.0537109-0.0117188-0.0986328-0.0332031-0.1337891c-0.0234375-0.0361328-0.0566406-0.0634766-0.1025391-0.0849609
				c-0.0419922-0.0195313-0.0986328-0.0322266-0.1669922-0.0390625c-0.0683594-0.0078125-0.1435547-0.0117188-0.2255859-0.0117188
				c-0.0898438,0-0.1650391,0.0039063-0.2255859,0.0097656s-0.1152344,0.0195313-0.1621094,0.0410156
				c-0.0449219,0.0185547-0.0800781,0.0458984-0.1035156,0.0800781C76.1992188,57.6015625,76.1875,57.6484375,76.1875,57.7050781
				c0,0.0546875,0.0117188,0.0996094,0.0332031,0.1347656C76.2441406,57.8759766,76.2773438,57.9042969,76.3232422,57.9238281z"/>
			<path class="st8" d="M76.7158203,59.0996094c-0.2314453,0-0.4013672-0.0361328-0.5087891-0.1083984
				s-0.1621094-0.1845703-0.1621094-0.3369141c0-0.1542969,0.0546875-0.2675781,0.1640625-0.3378906
				c0.109375-0.0722656,0.2773438-0.1074219,0.5048828-0.1074219c0.2294922,0,0.3974609,0.0361328,0.5068359,0.1083984
				c0.109375,0.0712891,0.1640625,0.1845703,0.1640625,0.3369141c0,0.1542969-0.0556641,0.2675781-0.1660156,0.3378906
				C77.1074219,59.0644531,76.9394531,59.0996094,76.7158203,59.0996094z M76.3232422,58.8720703
				c0.046875,0.0205078,0.1015625,0.0341797,0.1650391,0.0410156c0.0625,0.0068359,0.1386719,0.0107422,0.2275391,0.0107422
				c0.0869141,0,0.1630859-0.0039063,0.2275391-0.0107422s0.1191406-0.0205078,0.1640625-0.0419922
				c0.0449219-0.0195313,0.078125-0.046875,0.1015625-0.0820313c0.0214844-0.0351563,0.0332031-0.0800781,0.0332031-0.1347656
				s-0.0117188-0.0996094-0.0332031-0.1347656c-0.0234375-0.0351563-0.0566406-0.0625-0.1025391-0.0839844
				c-0.0419922-0.0195313-0.0986328-0.0332031-0.1669922-0.0400391s-0.1435547-0.0107422-0.2255859-0.0107422
				c-0.0898438,0-0.1650391,0.0029297-0.2255859,0.0097656c-0.0605469,0.0058594-0.1152344,0.0195313-0.1621094,0.0410156
				c-0.0449219,0.0175781-0.0800781,0.0449219-0.1035156,0.0800781S76.1875,58.5966797,76.1875,58.6542969
				c0,0.0546875,0.0117188,0.0996094,0.0332031,0.1347656C76.2441406,58.8242188,76.2773438,58.8525391,76.3232422,58.8720703z"/>
			<path class="st8" d="M76.0722656,60.0488281v-0.8710938h0.1796875c0.0527344,0.0605469,0.1035156,0.1210938,0.15625,0.1826172
				c0.0517578,0.0605469,0.1035156,0.1171875,0.1542969,0.1689453c0.1074219,0.1113281,0.1923828,0.1875,0.2558594,0.2285156
				c0.0625,0.0410156,0.1308594,0.0605469,0.2041016,0.0605469c0.0673828,0,0.1191406-0.0214844,0.1572266-0.0664063
				c0.0371094-0.0429688,0.0566406-0.1054688,0.0566406-0.1835938c0-0.0527344-0.0097656-0.109375-0.0273438-0.1699219
				c-0.0195313-0.0615234-0.046875-0.1210938-0.0859375-0.1796875v-0.0087891h0.1816406
				c0.0205078,0.0410156,0.0390625,0.0957031,0.0556641,0.1640625s0.0253906,0.1337891,0.0253906,0.1982422
				c0,0.1318359-0.0322266,0.2353516-0.0957031,0.3105469c-0.0634766,0.0742188-0.1494141,0.1123047-0.2587891,0.1123047
				c-0.0488281,0-0.0947266-0.0068359-0.1367188-0.0185547c-0.0429688-0.0126953-0.0830078-0.03125-0.1210938-0.0546875
				c-0.0351563-0.0234375-0.0703125-0.0488281-0.1054688-0.0800781c-0.0341797-0.0292969-0.0722656-0.0664063-0.1152344-0.109375
				c-0.0605469-0.0625-0.1191406-0.125-0.1757813-0.1914063c-0.0566406-0.0654297-0.109375-0.1269531-0.1572266-0.1835938v0.6914063
				H76.0722656z"/>
		</g>
	</g>
</g>
<g id="RGB">
	<g id="XMLID_26_">
		<g>
			<rect x="49.7205544" y="36.0920906" class="st9" width="1.8723717" height="3.4376602"/>
		</g>
	</g>
	<g id="XMLID_27_">
		<g>
			<rect x="49.7205544" y="45.3837585" class="st9" width="1.8723717" height="3.4376602"/>
		</g>
	</g>
	<g id="XMLID_28_">
		<g>
			<rect x="49.7205544" y="40.8006668" class="st9" width="1.8723717" height="3.4376602"/>
		</g>
	</g>
	<g id="XMLID_31_">
		<g>
			<rect x="33.4480515" y="36.0848351" class="st9" width="1.8723717" height="3.4376602"/>
		</g>
	</g>
	<g id="XMLID_30_">
		<g>
			<rect x="33.4480515" y="45.3764992" class="st9" width="1.8723717" height="3.4376602"/>
		</g>
	</g>
	<g id="XMLID_29_">
		<g>
			<rect x="33.4480515" y="40.7934074" class="st9" width="1.8723717" height="3.4376602"/>
		</g>
	</g>
	<rect x="35.3205528" y="35.25" class="st11" width="14.4000015" height="14.4000015"/>
	<circle class="st12" cx="42.5205536" cy="42.4500008" r="6.2361755"/>
	
		<radialGradient id="SVGID_2_" cx="42.5205536" cy="43.0835228" r="6.2302094" gradientTransform="matrix(1 0 0 -1 0 85.5275574)" gradientUnits="userSpaceOnUse">
		<stop  offset="0" style="stop-color:#FFFFFF;stop-opacity:0.5"/>
		<stop  offset="0.5867767" style="stop-color:#FFFFFF"/>
		<stop  offset="0.865168" style="stop-color:#F4E847;stop-opacity:0.5"/>
		<stop  offset="0.994382" style="stop-color:#FFFFFF"/>
	</radialGradient>
	<circle class="st13" cx="42.5205536" cy="42.4440346" r="6.2302094"/>
</g>
<g id="Рисунок_1_">
	<rect x="8.125" y="44.2312775" class="st11" width="1.333333" height="9.1853905"/>
	<rect x="10.791667" y="44.2312775" class="st11" width="1.333333" height="7.7687225"/>
	<rect x="6.4583335" y="42.7916679" class="st11" width="7.3333335" height="1.25"/>
	<rect x="4.0625" y="37.8041649" class="st11" width="2.65625" height="0.5708351"/>
	<rect x="13.46875" y="37.8041649" class="st11" width="2.65625" height="0.5708351"/>
	<rect x="9.8395824" y="32.1364594" class="st11" width="0.5708351" height="2.65625"/>
	
		<rect x="6.5625" y="33.4645844" transform="matrix(0.7071068 -0.7071068 0.7071068 0.7071068 -22.5964508 15.0327568)" class="st11" width="0.5708352" height="2.6562502"/>
	
		<rect x="12.140626" y="34.5072937" transform="matrix(0.7071068 -0.7071068 0.7071068 0.7071068 -20.6572571 19.7143936)" class="st11" width="2.6562502" height="0.5708352"/>
	<path class="st11" d="M10.0748997,35.3321915c-1.4854736,0-2.6875005,1.2020264-2.6875005,2.6875v4.3396835H12.28125
		c0,0,0.2405748,0,0.4811497,0c0-0.2734375,0-0.546875,0-0.546875v-3.7928085
		C12.7623997,36.5342178,11.5603733,35.3321915,10.0748997,35.3321915"/>
	<rect x="8.5411768" y="39.0117645" class="st14" width="0.8588238" height="0.8588219"/>
	<rect x="10.8588238" y="39.5176468" class="st14" width="0.8235292" height="1.5609665"/>
	<path class="st14" d="M10.6617346,36.7692032c-0.1710606-0.0864487-0.4637547-0.1929398-0.8205996-0.1400795
		c-0.5566111,0.0824509-0.9076529,0.5461769-1.0700874,0.7561951c-0.1059818,0.1370277-0.1807785,0.2639542-0.2298708,0.3558578
		v0.8705864h0.8588228c0,0,0.0294123,0,0.0588236,0v-0.7411766c0.0716257-0.1520576,0.2218466-0.4177284,0.5136595-0.6589012
		c0.2972479-0.2456627,0.6023216-0.3509521,0.7804193-0.3923149C10.7282362,36.8046417,10.697669,36.787365,10.6617346,36.7692032z"
		/>
	<line class="st15" x1="8.5411768" y1="38.5812492" x2="8.5703125" y2="38.611763"/>
</g>
<g id="Слой_13" class="st16">
</g>
</svg>
