<?xml version="1.0" encoding="utf-8"?>
<!-- Generator: Adobe Illustrator 22.0.1, SVG Export Plug-In . SVG Version: 6.00 Build 0)  -->
<svg version="1.1" xmlns="http://www.w3.org/2000/svg" xmlns:xlink="http://www.w3.org/1999/xlink" x="0px" y="0px"
	 viewBox="0 0 85.0400009 85.0400009" style="enable-background:new 0 0 85.0400009 85.0400009;" xml:space="preserve">
<style type="text/css">
	.st0{fill:#19191A;}
	.st1{fill:#9E9B9C;}
	.st2{fill:#CEC7BD;}
	.st3{fill:#918C84;}
	.st4{fill:none;stroke:#F6F6F6;stroke-width:0.75;stroke-miterlimit:10;}
	.st5{fill:#E5E4E0;}
	.st6{fill:none;}
	.st7{fill:#151616;}
	.st8{fill:#E6E6E6;}
	.st9{fill:#CDC7BC;}
	.st10{fill:#363331;}
	.st11{fill:#B5B4B3;}
	.st12{fill:#666566;}
	.st13{display:none;fill:#D2D94E;stroke:#EFE94A;stroke-width:0.25;stroke-miterlimit:10;}
	.st14{fill:#EBAD4F;}
	.st15{fill:#5DAF61;}
	.st16{opacity:0.37;fill:none;stroke:#FFFFFF;stroke-width:0.5;stroke-miterlimit:10;}
	.st17{fill:none;stroke:#FFFFFF;stroke-width:0.5;stroke-miterlimit:10;}
	.st18{fill:#907747;}
</style>
<g id="Слой_14">
	<g id="Креп._отверстия">
		<path class="st0" d="M0,85.039978h85.039978V0H0V85.039978z M79.5117798,75.1176758
			c0,2.4279175-1.9667969,4.3947144-4.3927002,4.3947144c-2.4279175,0-4.3947144-1.9667969-4.3947144-4.3947144
			c0-2.4258423,1.9667969-4.3926392,4.3947144-4.3926392C77.5449829,70.7250366,79.5117798,72.6918335,79.5117798,75.1176758z
			 M14.3149414,75.1176758c0,2.4279175-1.9667969,4.3947144-4.3927002,4.3947144
			c-2.4279175,0-4.3947144-1.9667969-4.3947144-4.3947144c0-2.4258423,1.9667969-4.3926392,4.3947144-4.3926392
			C12.3481445,70.7250366,14.3149414,72.6918335,14.3149414,75.1176758z M79.5117798,9.9208374
			c0,2.4279175-1.9667969,4.3947144-4.3927002,4.3947144c-2.4279175,0-4.3947144-1.9667969-4.3947144-4.3947144
			c0-2.4258423,1.9667969-4.3926392,4.3947144-4.3926392C77.5449829,5.5281982,79.5117798,7.4949951,79.5117798,9.9208374z
			 M14.3149414,9.9208374c0,2.4279175-1.9667969,4.3947144-4.3927002,4.3947144
			c-2.4279175,0-4.3947144-1.9667969-4.3947144-4.3947144c0-2.4258423,1.9667969-4.3926392,4.3947144-4.3926392
			C12.3481445,5.5281982,14.3149414,7.4949951,14.3149414,9.9208374z"/>
		<path class="st1" d="M3.9454968,75.1190186c0,3.2877808,2.6751711,5.9527588,5.9754639,5.9527588
			c3.3002319,0,5.9754028-2.664978,5.9754028-5.9527588c0-3.2877197-2.6751709-5.9527588-5.9754028-5.9527588
			C6.6206679,69.1662598,3.9454968,71.8312988,3.9454968,75.1190186z M14.3146372,75.117981
			c0,2.4279175-1.9667969,4.3947144-4.3927002,4.3947144c-2.427917,0-4.3947139-1.9667969-4.3947139-4.3947144
			c0-2.4258423,1.9667969-4.3926392,4.3947139-4.3926392C12.3478403,70.7253418,14.3146372,72.6921387,14.3146372,75.117981z"/>
		<path class="st1" d="M3.9454968,9.9221716c0,3.2877808,2.6751711,5.9527588,5.9754639,5.9527588
			c3.3002319,0,5.9754028-2.664978,5.9754028-5.9527588c0-3.2877197-2.6751709-5.9527588-5.9754028-5.9527588
			C6.6206679,3.969413,3.9454968,6.6344519,3.9454968,9.9221716z M14.3146372,9.921134
			c0,2.4279175-1.9667969,4.3947144-4.3927002,4.3947144c-2.427917,0-4.3947139-1.9667969-4.3947139-4.3947144
			c0-2.4258423,1.9667969-4.3926392,4.3947139-4.3926392C12.3478403,5.5284948,14.3146372,7.4952917,14.3146372,9.921134z"/>
		<path class="st1" d="M69.1423721,75.1190186c0,3.2877808,2.6751709,5.9527588,5.9754639,5.9527588
			c3.3002319,0,5.9754028-2.664978,5.9754028-5.9527588c0-3.2877197-2.6751709-5.9527588-5.9754028-5.9527588
			C71.817543,69.1662598,69.1423721,71.8312988,69.1423721,75.1190186z M79.5115128,75.117981
			c0,2.4279175-1.9667969,4.3947144-4.3927002,4.3947144c-2.4279175,0-4.3947144-1.9667969-4.3947144-4.3947144
			c0-2.4258423,1.9667969-4.3926392,4.3947144-4.3926392C77.5447159,70.7253418,79.5115128,72.6921387,79.5115128,75.117981z"/>
		<path class="st1" d="M69.1423721,9.9221716c0,3.2877808,2.6751709,5.9527588,5.9754639,5.9527588
			c3.3002319,0,5.9754028-2.664978,5.9754028-5.9527588c0-3.2877197-2.6751709-5.9527588-5.9754028-5.9527588
			C71.817543,3.969413,69.1423721,6.6344519,69.1423721,9.9221716z M79.5115128,9.921134
			c0,2.4279175-1.9667969,4.3947144-4.3927002,4.3947144c-2.4279175,0-4.3947144-1.9667969-4.3947144-4.3947144
			c0-2.4258423,1.9667969-4.3926392,4.3947144-4.3926392C77.5447159,5.5284948,79.5115128,7.4952917,79.5115128,9.921134z"/>
	</g>
</g>
<g id="текст_и_лого">
	<g>
		<path class="st2" d="M30.3328495,74.9196472c0,1.2273636-1.0018463,2.2224808-2.2397404,2.2224808
			c-1.2378922,0-2.2415409-0.9951172-2.2415409-2.2224808c0-1.227356,1.0036488-2.2224731,2.2415409-2.2224731
			C29.3310032,72.6971741,30.3328495,73.6922913,30.3328495,74.9196472z"/>
		<ellipse class="st3" cx="28.0922089" cy="74.9196472" rx="1.5316002" ry="1.5185714"/>
		<path class="st4" d="M31.7876682,78.7486038c-0.0916157-0.0001984-0.1396866-0.0003052-0.1396866-0.0003052L31.6088409,63.206337
			c0,0-0.0000668-0.0264893-0.0001335-0.0529823c0.0282974,0.0000648,0.0565948,0.0001259,0.0565948,0.0001259l21.6945534,0.0478096
			c0,0,0.0124207,0.0000305,0.034481,0.0000763c0.0053024,2.1060295,0.0384293,15.2590675,0.0384293,15.2590675
			s0.0004234,0.1679382,0.0008469,0.3358765c-0.0455399-0.0000992-0.0910759-0.000206-0.0910759-0.000206
			S33.6423225,78.7526932,31.7876682,78.7486038z"/>
		<line class="st4" x1="46.134697" y1="63.1853676" x2="46.134697" y2="78.7792892"/>
		<line class="st4" x1="38.8981552" y1="63.1694221" x2="38.8981552" y2="78.762291"/>
		<path class="st2" d="M37.5611954,74.9196472c0,1.2273636-1.0018463,2.2224808-2.2397385,2.2224808
			s-2.2415428-0.9951172-2.2415428-2.2224808c0-1.227356,1.0036507-2.2224731,2.2415428-2.2224731
			S37.5611954,73.6922913,37.5611954,74.9196472z"/>
		<ellipse class="st3" cx="35.3205528" cy="74.9196472" rx="1.5316002" ry="1.5185714"/>
		<path class="st2" d="M44.7611961,74.9196472c0,1.2273636-1.0018463,2.2224808-2.2397385,2.2224808
			s-2.2415428-0.9951172-2.2415428-2.2224808c0-1.227356,1.0036507-2.2224731,2.2415428-2.2224731
			S44.7611961,73.6922913,44.7611961,74.9196472z"/>
		<ellipse class="st3" cx="42.5205536" cy="74.9196472" rx="1.5316002" ry="1.5185714"/>
		<path class="st2" d="M51.3486252,73.2907333c1.5395126,2.0229111-0.1709862,4.2713013-2.1831703,3.7839966
			c-0.7743721-0.1875305-1.4096413-0.8210754-1.5987854-1.5950546
			C47.0750771,73.4680405,49.3241386,71.7503281,51.3486252,73.2907333z"/>
		<ellipse class="st3" cx="49.7205544" cy="74.9196472" rx="1.5316002" ry="1.5185714"/>
		<path class="st2" d="M58.5486259,73.2907333c1.5395088,2.0229111-0.1709862,4.2713013-2.1831703,3.7839966
			c-0.7743721-0.1875305-1.4096413-0.8210754-1.5987854-1.5950546
			C54.275074,73.4680405,56.5241356,71.7503281,58.5486259,73.2907333z"/>
		<ellipse class="st3" cx="56.9205551" cy="74.9196472" rx="1.5316002" ry="1.5185714"/>
		<g>
			<path class="st5" d="M37.237793,69.3886719c-0.152832,0.1582031-0.3779297,0.3076172-0.6757813,0.4482422
				s-0.6845703,0.2109375-1.1611328,0.2109375c-0.6958008,0-1.2631836-0.2421875-1.7026367-0.7265625
				c-0.4394531-0.4833984-0.6591797-1.1123047-0.6591797-1.8847656v-0.0849609c0-0.7763672,0.2172852-1.40625,0.6518555-1.8876953
				c0.4345703-0.4824219,1.0131836-0.7236328,1.7348633-0.7236328c0.3862305,0,0.7246094,0.0605469,1.0166016,0.1796875
				s0.5380859,0.2763672,0.737793,0.4726563v0.9355469h-0.4931641l-0.1713867-0.7119141
				c-0.1166992-0.0947266-0.2578125-0.1728516-0.4233398-0.234375s-0.3637695-0.0917969-0.5952148-0.0917969
				c-0.5620117,0-0.9951172,0.1904297-1.2988281,0.5722656c-0.3037109,0.3808594-0.4555664,0.875-0.4555664,1.4824219v0.0917969
				c0,0.6171875,0.1469727,1.1152344,0.4414063,1.4951172c0.2944336,0.3808594,0.699707,0.5703125,1.2167969,0.5703125
				c0.2832031,0,0.515625-0.0292969,0.6967773-0.0878906c0.1811523-0.0595703,0.3261719-0.1240234,0.4360352-0.1953125v-1.1298828
				l-0.8540039-0.0351563v-0.5136719h1.5581055V69.3886719z"/>
		</g>
		<g>
			<path class="st5" d="M41.7060547,65.375l-0.4750977,0.0751953l1.1650391,3.3515625l0.1176758,0.4072266h0.0214844
				l0.1181641-0.4072266l1.1611328-3.3554688L43.3461914,65.375v-0.4492188h1.6411133V65.375l-0.4189453,0.0566406
				l-1.7436523,4.6523438h-0.6040039l-1.7436523-4.6523438L40.0625,65.375v-0.4492188h1.6435547V65.375z"/>
		</g>
		<g>
			<path class="st5" d="M51.5126953,66.4492188h-0.5322266l-0.1328125-0.7373047
				c-0.1074219-0.0898438-0.25-0.1640625-0.4287109-0.2236328c-0.1787109-0.0585938-0.3857422-0.0878906-0.6220703-0.0878906
				c-0.3740234,0-0.6611328,0.078125-0.8603516,0.2353516c-0.2001953,0.1572266-0.3007813,0.3623047-0.3007813,0.6142578
				c0,0.2246094,0.1015625,0.4121094,0.3056641,0.5625c0.2041016,0.1494141,0.5332031,0.28125,0.9882813,0.3945313
				c0.5478516,0.1347656,0.9638672,0.3330078,1.2490234,0.5957031c0.2841797,0.2617188,0.4267578,0.5869141,0.4267578,0.9736328
				c0,0.4160156-0.1708984,0.75-0.5126953,1.0029297s-0.7890625,0.3789063-1.3417969,0.3789063
				c-0.4003906,0-0.7558594-0.0644531-1.0664063-0.1943359c-0.3115234-0.1298828-0.5644531-0.2998047-0.7597656-0.5107422
				v-0.9599609h0.5292969l0.1357422,0.7402344c0.1357422,0.1113281,0.2978516,0.2021484,0.4853516,0.2734375
				c0.1884766,0.0703125,0.4130859,0.1054688,0.6757813,0.1054688c0.3544922,0,0.6357422-0.0742188,0.8417969-0.2226563
				s0.3085938-0.3505859,0.3085938-0.6054688c0-0.2363281-0.0888672-0.4345703-0.2675781-0.59375
				s-0.4951172-0.2939453-0.9472656-0.4023438c-0.5507813-0.1298828-0.9804688-0.3212891-1.2900391-0.5742188
				c-0.3095703-0.2519531-0.4648438-0.5703125-0.4648438-0.953125c0-0.4033203,0.1728516-0.7392578,0.5185547-1.0078125
				c0.3457031-0.2675781,0.7939453-0.4023438,1.3466797-0.4023438c0.3652344,0,0.6962891,0.0625,0.9951172,0.1865234
				c0.2998047,0.1240234,0.5390625,0.2744141,0.7207031,0.4511719V66.4492188z"/>
		</g>
		<path class="st4" d="M31.6653023,63.1534805l-7.5819836-0.0620689c0.0000153,3.0137978,0.0000153,13.7449913,0.0000153,15.7600899
			c0.1265163-0.0016403,0.2085323-0.0026932,0.2085323-0.0026932l7.7498016-0.0996475"/>
		<path class="st4" d="M53.3425369,78.7961044h7.4907951c0-2.4291,0-15.6716805,0-15.6716805l-7.4734764,0.0768661"/>
		<g>
			<rect x="54.4429779" y="62.2255592" class="st6" width="8.3896484" height="9.9697266"/>
			<path class="st5" d="M56.3886719,70.6748047h-0.3095703v-0.8349609l0.3837891-0.046875
				c-0.1357422-0.0751953-0.2412109-0.1679688-0.3183594-0.2792969c-0.0761719-0.1103516-0.1142578-0.2373047-0.1142578-0.3808594
				c0-0.0371094,0.0029297-0.0761719,0.0087891-0.1162109s0.0117188-0.0712891,0.0175781-0.0927734l0.4472656,0.0644531
				l-0.0146484,0.2753906c0,0.1289063,0.0292969,0.2363281,0.0888672,0.3222656
				c0.0595703,0.0878906,0.1425781,0.1542969,0.25,0.203125h1.5166016l0.0683594-0.4023438h0.3076172v1.2880859h-0.3076172
				l-0.0683594-0.4013672h-1.8876953L56.3886719,70.6748047z"/>
			<path class="st5" d="M58.7714844,67.3730469c0,0.3710938-0.1220703,0.6660156-0.3671875,0.8847656
				c-0.2451172,0.2197266-0.5625,0.3291016-0.953125,0.3291016H57.34375c-0.3759766,0-0.6884766-0.1123047-0.9384766-0.3388672
				c-0.25-0.2246094-0.375-0.4921875-0.375-0.8007813c0-0.3583984,0.1074219-0.6289063,0.3222656-0.8144531
				c0.2148438-0.1845703,0.5009766-0.2773438,0.859375-0.2773438h0.2998047v1.7285156l0.0126953,0.0078125
				c0.2539063-0.0048828,0.4628906-0.0693359,0.6259766-0.1943359c0.1640625-0.1240234,0.2460938-0.2998047,0.2460938-0.5244141
				c0-0.1640625-0.0234375-0.3085938-0.0703125-0.4316406c-0.0458984-0.125-0.1103516-0.2314453-0.1914063-0.3222656
				l0.3125-0.1894531c0.0908203,0.0957031,0.1679688,0.2216797,0.2304688,0.3789063
				C58.7402344,66.9648438,58.7714844,67.1533203,58.7714844,67.3730469z M56.4082031,67.4472656
				c0,0.1621094,0.0683594,0.3007813,0.2041016,0.4160156s0.3066406,0.1855469,0.5117188,0.2109375l0.0126953-0.0039063v-1.2285156
				h-0.0644531c-0.1884766,0-0.3457031,0.0507813-0.4726563,0.1523438S56.4082031,67.2460938,56.4082031,67.4472656z"/>
			<path class="st5" d="M56.9091797,63.8398438v0.3642578l-0.3173828,0.0791016
				c-0.0556641,0.0585938-0.0996094,0.1328125-0.1328125,0.2226563s-0.0507813,0.1914063-0.0507813,0.3046875
				c0,0.171875,0.0380859,0.2998047,0.1132813,0.3828125c0.0742188,0.0839844,0.1650391,0.1259766,0.2705078,0.1259766
				c0.1044922,0,0.1865234-0.0361328,0.2470703-0.1103516c0.0595703-0.0742188,0.1132813-0.2246094,0.1601563-0.4511719
				c0.0722656-0.3359375,0.1689453-0.5859375,0.2919922-0.75c0.1230469-0.1650391,0.2880859-0.2470703,0.4951172-0.2470703
				c0.234375,0,0.4238281,0.0957031,0.5683594,0.2871094c0.1445313,0.1904297,0.2167969,0.4404297,0.2167969,0.7490234
				c0,0.203125-0.0224609,0.3837891-0.0693359,0.5449219c-0.0458984,0.1601563-0.1132813,0.3046875-0.2011719,0.4306641
				l-0.6025391,0.0029297v-0.3652344l0.3535156-0.0908203c0.0507813-0.0556641,0.0869141-0.1318359,0.109375-0.2275391
				c0.0234375-0.0957031,0.0351563-0.1943359,0.0351563-0.2949219c0-0.171875-0.0351563-0.3066406-0.1044922-0.4042969
				s-0.1591797-0.1464844-0.2724609-0.1464844c-0.1054688,0-0.1923828,0.0410156-0.2607422,0.1210938
				c-0.0683594,0.0820313-0.1279297,0.2363281-0.1787109,0.4628906c-0.0693359,0.3222656-0.1650391,0.5664063-0.2851563,0.7304688
				s-0.2832031,0.2460938-0.4882813,0.2460938c-0.2148438,0-0.3984375-0.0917969-0.5488281-0.2763672
				c-0.1523438-0.1845703-0.2275391-0.4248047-0.2275391-0.7197266c0-0.203125,0.0263672-0.3837891,0.078125-0.5449219
				c0.0517578-0.1601563,0.1240234-0.2949219,0.2177734-0.4013672L56.9091797,63.8398438z"/>
		</g>
		<rect x="16.6824455" y="63.126545" class="st5" width="6.2484555" height="6.2484555"/>
		<g>
			<path class="st7" d="M19.7265625,64.3183594c0.5332031,0,0.9619141,0.1630859,1.2866211,0.4882813
				S21.5,65.5527344,21.5,66.0683594v0.5537109c0,0.5175781-0.1621094,0.9375-0.4868164,1.2617188
				c-0.324707,0.3232422-0.753418,0.4853516-1.2866211,0.4853516h-1.7114258v-0.3505859l0.4575195-0.078125V64.75
				l-0.4575195-0.078125v-0.3535156h0.4575195H19.7265625z M19.0253906,64.75v3.1904297h0.7011719
				c0.3779297,0,0.6757813-0.1230469,0.894043-0.3701172c0.2177734-0.2460938,0.3266602-0.5625,0.3266602-0.9482422V66.0625
				c0-0.3818359-0.1088867-0.6962891-0.3266602-0.9423828C20.4023438,64.8730469,20.1044922,64.75,19.7265625,64.75H19.0253906z"/>
		</g>
	</g>
	<g>
		<path class="st5" d="M25.5561523,5.0415039h-0.7480469L24.7045898,4.378418
			c-0.0986328-0.0981445-0.2236328-0.175293-0.3740234-0.2324219s-0.328125-0.0854492-0.5327148-0.0854492
			c-0.4365234,0-0.7724609,0.1572266-1.0083008,0.4716797c-0.2353516,0.3144531-0.3530273,0.7246094-0.3530273,1.2304688v0.1743164
			c0,0.5058594,0.1171875,0.9169922,0.3515625,1.2338867s0.5654297,0.4750977,0.9926758,0.4750977
			c0.1977539,0,0.378418-0.0283203,0.5429688-0.0854492c0.1640625-0.0571289,0.2915039-0.1342773,0.3808594-0.2324219
			l0.1035156-0.6630859h0.7480469v0.984375c-0.2021484,0.2324219-0.4604492,0.4174805-0.7739258,0.5556641
			c-0.3134766,0.1376953-0.6645508,0.206543-1.0532227,0.206543c-0.6733398,0-1.2250977-0.2314453-1.6547852-0.6938477
			s-0.6445313-1.0561523-0.6445313-1.7807617V5.7695313c0-0.722168,0.2138672-1.315918,0.6411133-1.7807617
			c0.4277344-0.4648438,0.9804688-0.6972656,1.6582031-0.6972656c0.3886719,0,0.7387695,0.0698242,1.0517578,0.2104492
			c0.3125,0.1396484,0.5708008,0.3251953,0.7753906,0.5551758V5.0415039z"/>
		<path class="st5" d="M29.6982422,4.6416016V5.902832h-0.7719727l-0.0415039-0.4990234h-0.6376953v2.2353516L28.78125,7.7416992
			v0.5981445h-2.0786133V7.7416992l0.5341797-0.1025391V5.4038086H26.612793L26.5751953,5.902832h-0.7724609V4.6416016H29.6982422z"
			/>
		<path class="st5" d="M29.9038086,6.456543c0-0.5512695,0.1557617-1.003418,0.4667969-1.3549805
			c0.3115234-0.3525391,0.7416992-0.5283203,1.2910156-0.5283203c0.5517578,0,0.9833984,0.175293,1.2944336,0.5263672
			c0.3115234,0.3510742,0.4672852,0.8032227,0.4672852,1.3569336v0.0717773c0,0.5561523-0.1557617,1.0087891-0.4672852,1.3583984
			c-0.3110352,0.3500977-0.7402344,0.5249023-1.2871094,0.5249023c-0.5541992,0-0.9868164-0.1748047-1.2983398-0.5249023
			c-0.3110352-0.3496094-0.4667969-0.8022461-0.4667969-1.3583984V6.456543z M30.9101563,6.5283203
			c0,0.3374023,0.0600586,0.6079102,0.1791992,0.8115234c0.1196289,0.2041016,0.3125,0.3061523,0.5795898,0.3061523
			c0.2592773,0,0.449707-0.1025391,0.5703125-0.3076172s0.1811523-0.4750977,0.1811523-0.8100586V6.456543
			c0-0.328125-0.0610352-0.5957031-0.1831055-0.8032227c-0.121582-0.2075195-0.3134766-0.3110352-0.5756836-0.3110352
			c-0.2617188,0-0.4526367,0.1035156-0.5722656,0.3110352c-0.1191406,0.2075195-0.1791992,0.4750977-0.1791992,0.8032227V6.5283203z
			"/>
		<path class="st5" d="M33.5732422,5.2431641V4.6416016h1.4619141l0.0483398,0.4306641
			c0.1103516-0.159668,0.2421875-0.2827148,0.3964844-0.3691406c0.1538086-0.0864258,0.3330078-0.1298828,0.5375977-0.1298828
			c0.4619141,0,0.8203125,0.1787109,1.0756836,0.5366211c0.2548828,0.3579102,0.3823242,0.828125,0.3823242,1.4116211v0.0717773
			c0,0.546875-0.1274414,0.9868164-0.3823242,1.3193359c-0.2553711,0.3325195-0.6113281,0.4990234-1.0688477,0.4990234
			c-0.1953125,0-0.3686523-0.0356445-0.5205078-0.1079102c-0.1518555-0.0712891-0.2817383-0.1767578-0.3896484-0.315918v1.0698242
			l0.4863281,0.1025391v0.6015625H33.625V9.1601563l0.4863281-0.1025391V5.3457031L33.5732422,5.2431641z M36.4692383,6.5214844
			c0-0.3486328-0.0585938-0.6313477-0.1757813-0.8476563s-0.2963867-0.324707-0.5380859-0.324707
			c-0.1513672,0-0.2807617,0.0307617-0.3876953,0.0922852s-0.1914063,0.1494141-0.253418,0.2631836V7.324707
			c0.0620117,0.1049805,0.1464844,0.1845703,0.253418,0.2392578s0.2382813,0.0820313,0.3950195,0.0820313
			c0.2431641,0,0.421875-0.0947266,0.5356445-0.2836914s0.1708984-0.4453125,0.1708984-0.769043V6.5214844z"/>
		<path class="st5" d="M37.7124023,6.456543c0-0.5512695,0.1557617-1.003418,0.4667969-1.3549805
			c0.3115234-0.3525391,0.7416992-0.5283203,1.2910156-0.5283203c0.5517578,0,0.9833984,0.175293,1.2944336,0.5263672
			c0.3115234,0.3510742,0.4672852,0.8032227,0.4672852,1.3569336v0.0717773c0,0.5561523-0.1557617,1.0087891-0.4672852,1.3583984
			c-0.3110352,0.3500977-0.7402344,0.5249023-1.2871094,0.5249023c-0.5541992,0-0.9868164-0.1748047-1.2983398-0.5249023
			c-0.3110352-0.3496094-0.4667969-0.8022461-0.4667969-1.3583984V6.456543z M38.71875,6.5283203
			c0,0.3374023,0.0600586,0.6079102,0.1791992,0.8115234c0.1196289,0.2041016,0.3125,0.3061523,0.5795898,0.3061523
			c0.2592773,0,0.449707-0.1025391,0.5703125-0.3076172s0.1811523-0.4750977,0.1811523-0.8100586V6.456543
			c0-0.328125-0.0610352-0.5957031-0.1831055-0.8032227c-0.121582-0.2075195-0.3134766-0.3110352-0.5756836-0.3110352
			c-0.2617188,0-0.4526367,0.1035156-0.5722656,0.3110352C38.7788086,5.8608398,38.71875,6.128418,38.71875,6.456543V6.5283203z"/>
		<path class="st5" d="M43.4951172,7.7416992l0.4311523-0.1025391V6.9555664h-0.4379883l-0.7167969,1.3842773H41.378418V7.7416992
			l0.5102539-0.0751953l0.7895508-1.309082L42.2436523,5.6875c-0.0546875-0.0844727-0.1206055-0.1513672-0.1962891-0.2016602
			s-0.1484375-0.0751953-0.2172852-0.0751953c-0.0483398,0-0.0825195,0.0029297-0.1035156,0.0083008
			c-0.0205078,0.0058594-0.0620117,0.0166016-0.1240234,0.0327148l-0.1689453-0.6904297
			c0.0898438-0.0546875,0.1806641-0.0981445,0.2724609-0.1298828s0.1967773-0.0478516,0.3139648-0.0478516
			c0.2294922,0,0.4228516,0.0541992,0.5791016,0.1625977c0.15625,0.1079102,0.3022461,0.269043,0.4375,0.4833984l0.496582,0.8203125
			h0.3930664V5.3457031l-0.4311523-0.1025391V4.6416016h1.8681641v0.6015625l-0.4345703,0.1025391v0.7041016h0.4033203
			l0.4970703-0.8203125c0.1328125-0.2143555,0.2773438-0.3754883,0.4345703-0.4833984
			c0.15625-0.1083984,0.3496094-0.1625977,0.5820313-0.1625977c0.1152344,0,0.21875,0.0161133,0.3105469,0.0478516
			s0.1835938,0.0751953,0.2753906,0.1298828l-0.1689453,0.6904297c-0.0644531-0.0161133-0.1064453-0.0268555-0.1269531-0.0327148
			c-0.0214844-0.0053711-0.0546875-0.0083008-0.1005859-0.0083008c-0.0712891,0-0.1445313,0.0249023-0.2207031,0.0751953
			c-0.0751953,0.050293-0.1396484,0.1171875-0.1923828,0.2016602L46.1875,6.3574219l0.7822266,1.309082l0.5136719,0.0751953
			v0.5981445h-1.3925781l-0.7138672-1.3842773h-0.4482422v0.6835938l0.4345703,0.1025391v0.5981445h-1.8681641V7.7416992z"/>
		<path class="st5" d="M49.4091797,8.4116211c-0.5380859,0-0.9677734-0.1708984-1.2900391-0.5126953
			c-0.3212891-0.3417969-0.4824219-0.7758789-0.4824219-1.3022461V6.4599609c0-0.5493164,0.1523438-1.0014648,0.4570313-1.3569336
			s0.7128906-0.5322266,1.2255859-0.5297852c0.5029297,0,0.8935547,0.1503906,1.171875,0.4511719
			s0.4169922,0.7075195,0.4169922,1.2202148v0.543457h-2.2265625l-0.0068359,0.0205078
			c0.0185547,0.2436523,0.1005859,0.4443359,0.2460938,0.6015625c0.1464844,0.1572266,0.3447266,0.2358398,0.5947266,0.2358398
			c0.2226563,0,0.4082031-0.0219727,0.5546875-0.0668945c0.1474609-0.0439453,0.3085938-0.1142578,0.4833984-0.2099609
			l0.2724609,0.6152344c-0.1542969,0.1206055-0.3535156,0.222168-0.5986328,0.3041992S49.7099609,8.4116211,49.4091797,8.4116211z
			 M49.3193359,5.3422852c-0.1865234,0-0.3330078,0.0708008-0.4414063,0.2119141s-0.1748047,0.3271484-0.2001953,0.5571289
			l0.0107422,0.0170898h1.234375V6.0395508c0-0.2119141-0.0507813-0.3813477-0.1503906-0.5073242
			C49.6728516,5.4052734,49.5214844,5.3422852,49.3193359,5.3422852z"/>
		<path class="st5" d="M53.3652344,4.6416016c0.4960938,0,0.8828125,0.0864258,1.1601563,0.2597656
			c0.2763672,0.1733398,0.4150391,0.4306641,0.4150391,0.7724609c0,0.1733398-0.0576172,0.3271484-0.1738281,0.4614258
			s-0.28125,0.2368164-0.4951172,0.3076172c0.2832031,0.0546875,0.4970703,0.1577148,0.6425781,0.309082
			c0.1464844,0.1518555,0.2197266,0.3291016,0.2197266,0.5317383c0,0.3486328-0.1318359,0.6118164-0.3955078,0.7895508
			c-0.2626953,0.1777344-0.640625,0.2666016-1.1318359,0.2666016h-2.3378906V7.7416992l0.5380859-0.1025391v-2.293457
			l-0.5380859-0.1025391V4.6416016h0.5380859H53.3652344z M52.8095703,6.1489258h0.6103516
			c0.1767578-0.0024414,0.3066406-0.0332031,0.3896484-0.0922852s0.1240234-0.1469727,0.1240234-0.2631836
			c0-0.1342773-0.046875-0.2329102-0.1416016-0.2954102c-0.09375-0.0629883-0.2363281-0.0942383-0.4267578-0.0942383h-0.5556641
			V6.1489258z M52.8095703,6.7983398v0.7827148h0.796875c0.1767578,0,0.3076172-0.0322266,0.3925781-0.0976563
			c0.0849609-0.0644531,0.1279297-0.1611328,0.1279297-0.2885742s-0.0410156-0.2255859-0.1220703-0.2939453
			c-0.0820313-0.0683594-0.2148438-0.1025391-0.3984375-0.1025391H52.8095703z"/>
		<path class="st5" d="M55.3769531,6.456543c0-0.5512695,0.1552734-1.003418,0.4667969-1.3549805
			c0.3115234-0.3525391,0.7412109-0.5283203,1.2910156-0.5283203c0.5517578,0,0.9833984,0.175293,1.2939453,0.5263672
			c0.3115234,0.3510742,0.4677734,0.8032227,0.4677734,1.3569336v0.0717773c0,0.5561523-0.15625,1.0087891-0.4677734,1.3583984
			c-0.3105469,0.3500977-0.7402344,0.5249023-1.2871094,0.5249023c-0.5537109,0-0.9863281-0.1748047-1.2978516-0.5249023
			c-0.3115234-0.3496094-0.4667969-0.8022461-0.4667969-1.3583984V6.456543z M56.3828125,6.5283203
			c0,0.3374023,0.0605469,0.6079102,0.1796875,0.8115234c0.1191406,0.2041016,0.3125,0.3061523,0.5791016,0.3061523
			c0.2597656,0,0.4501953-0.1025391,0.5703125-0.3076172c0.1210938-0.2050781,0.1816406-0.4750977,0.1816406-0.8100586V6.456543
			c0-0.328125-0.0615234-0.5957031-0.1835938-0.8032227c-0.1210938-0.2075195-0.3134766-0.3110352-0.5751953-0.3110352
			S56.6816406,5.4458008,56.5625,5.6533203S56.3828125,6.128418,56.3828125,6.456543V6.5283203z"/>
		<path class="st5" d="M61.2246094,4.6416016v0.6015625l-0.4824219,0.1025391V6.887207l0.0205078,0.003418l1.2138672-2.2490234
			h1.0068359h0.5341797v0.6015625l-0.5341797,0.1025391v2.293457l0.5341797,0.1025391v0.5981445h-2.0234375V7.7416992
			l0.4824219-0.1025391V6.0908203l-0.0205078-0.003418l-1.2138672,2.2524414h-1.5439453V7.7416992l0.5371094-0.1025391v-2.293457
			l-0.5371094-0.1025391V4.6416016h1.5439453H61.2246094z M62.53125,3.0043945l0.0068359,0.0205078
			c0.0117188,0.2895508-0.0898438,0.5258789-0.3046875,0.7094727c-0.2148438,0.1831055-0.5039063,0.2749023-0.8671875,0.2749023
			c-0.3652344,0-0.65625-0.0917969-0.8720703-0.2749023c-0.2158203-0.1835938-0.3173828-0.4199219-0.3037109-0.7094727
			l0.0078125-0.0205078h0.6816406c0,0.1323242,0.0390625,0.2416992,0.1171875,0.328125s0.2011719,0.1298828,0.3691406,0.1298828
			c0.1630859,0,0.2841797-0.0424805,0.3623047-0.128418c0.078125-0.0849609,0.1171875-0.1953125,0.1171875-0.3295898H62.53125z"/>
		<path class="st5" d="M33.5527344,10.6416016v1.2612305h-0.7719727l-0.0415039-0.4990234h-0.6376953v2.2353516l0.5341797,0.1025391
			v0.5981445h-2.0786133v-0.5981445l0.5341797-0.1025391v-2.2353516h-0.6240234l-0.0375977,0.4990234h-0.7724609v-1.2612305
			H33.5527344z"/>
		<path class="st5" d="M36.1333008,14.3398438c-0.0273438-0.0615234-0.0517578-0.125-0.0722656-0.1894531
			c-0.0205078-0.0654297-0.0366211-0.1308594-0.0483398-0.1967773c-0.1196289,0.1367188-0.2646484,0.2470703-0.4360352,0.331543
			s-0.3671875,0.1264648-0.5878906,0.1264648c-0.3652344,0-0.6552734-0.0986328-0.8701172-0.2954102
			c-0.215332-0.1972656-0.3227539-0.4658203-0.3227539-0.8051758c0-0.3461914,0.1401367-0.6142578,0.4208984-0.8032227
			c0.2802734-0.1889648,0.6914063-0.2836914,1.2338867-0.2836914h0.5136719v-0.3623047
			c0-0.1777344-0.0517578-0.3154297-0.1547852-0.4135742c-0.1035156-0.0981445-0.2563477-0.1469727-0.4584961-0.1469727
			c-0.1152344,0-0.2172852,0.0131836-0.3071289,0.0395508c-0.0893555,0.0258789-0.1621094,0.0571289-0.2172852,0.09375
			l-0.0654297,0.3964844h-0.7583008l0.003418-0.8203125c0.184082-0.1230469,0.3945313-0.2265625,0.6328125-0.3110352
			c0.237793-0.0844727,0.496582-0.1264648,0.7773438-0.1264648c0.4619141,0,0.8369141,0.1123047,1.1254883,0.3369141
			c0.2880859,0.2241211,0.4326172,0.5439453,0.4326172,0.9584961v1.527832c0,0.0571289,0.0004883,0.1103516,0.0014648,0.1606445
			c0.0014648,0.050293,0.0053711,0.0981445,0.012207,0.1435547l0.3066406,0.0410156v0.5981445H36.1333008z M35.2612305,13.6733398
			c0.1518555,0,0.2895508-0.0327148,0.4135742-0.097168c0.1240234-0.0654297,0.2207031-0.1464844,0.2895508-0.2446289v-0.5639648
			h-0.5136719c-0.2133789,0-0.3754883,0.0498047-0.4858398,0.1484375c-0.1103516,0.0996094-0.1655273,0.2182617-0.1655273,0.3574219
			c0,0.1254883,0.0405273,0.2231445,0.1225586,0.2939453C35.003418,13.6381836,35.1162109,13.6733398,35.2612305,13.6733398z"/>
		<path class="st5" d="M39.5273438,10.6416016v0.6015625l-0.4824219,0.1025391v1.5415039l0.0205078,0.003418l1.2138672-2.2490234
			h1.0063477h0.5341797v0.6015625l-0.5341797,0.1025391v2.293457l0.5341797,0.1025391v0.5981445h-2.0234375v-0.5981445
			l0.4829102-0.1025391v-1.5483398l-0.0209961-0.003418l-1.2133789,2.2524414h-1.5444336v-0.5981445l0.5375977-0.1025391v-2.293457
			l-0.5375977-0.1025391v-0.6015625h1.5444336H39.5273438z M40.8339844,9.0043945l0.0068359,0.0205078
			c0.0117188,0.2895508-0.0898438,0.5258789-0.3051758,0.7094727c-0.2148438,0.1831055-0.503418,0.2749023-0.8666992,0.2749023
			c-0.3652344,0-0.65625-0.0917969-0.8720703-0.2749023c-0.2163086-0.1835938-0.3173828-0.4199219-0.3037109-0.7094727
			l0.0073242-0.0205078h0.6821289c0,0.1323242,0.0390625,0.2416992,0.1171875,0.328125s0.2011719,0.1298828,0.3691406,0.1298828
			c0.1630859,0,0.2836914-0.0424805,0.3618164-0.128418c0.078125-0.0849609,0.1171875-0.1953125,0.1171875-0.3295898H40.8339844z"/>
		<path class="st5" d="M44.9277344,13.1777344h0.0205078l0.9580078-2.5361328h1.2617188h0.5341797v0.6015625l-0.5341797,0.1025391
			v2.293457l0.5341797,0.1025391v0.5981445h-1.9199219v-0.5981445l0.3798828-0.1025391v-1.5004883l-0.0214844-0.003418
			l-0.8652344,2.2045898h-0.6757813l-0.84375-2.1635742l-0.0209961,0.003418v1.4594727l0.3823242,0.1025391v0.5981445h-1.9233398
			v-0.5981445l0.5380859-0.1025391v-2.293457l-0.5380859-0.1025391v-0.6015625h0.5380859h1.2446289L44.9277344,13.1777344z"/>
		<path class="st5" d="M49.7519531,14.4116211c-0.5371094,0-0.9677734-0.1708984-1.2890625-0.5126953
			c-0.3222656-0.3417969-0.4824219-0.7758789-0.4824219-1.3022461v-0.1367188c0-0.5493164,0.1523438-1.0014648,0.4560547-1.3569336
			c0.3046875-0.3554688,0.7138672-0.5322266,1.2255859-0.5297852c0.5039063,0,0.8945313,0.1503906,1.1728516,0.4511719
			c0.2773438,0.3007813,0.4169922,0.7075195,0.4169922,1.2202148v0.543457h-2.2275391l-0.0068359,0.0205078
			c0.0185547,0.2436523,0.1005859,0.4443359,0.2470703,0.6015625c0.1455078,0.1572266,0.34375,0.2358398,0.5947266,0.2358398
			c0.2226563,0,0.4072266-0.0219727,0.5546875-0.0668945c0.1474609-0.0439453,0.3076172-0.1142578,0.4824219-0.2099609
			l0.2724609,0.6152344c-0.1542969,0.1206055-0.3535156,0.222168-0.5976563,0.3041992
			C50.3261719,14.3706055,50.0527344,14.4116211,49.7519531,14.4116211z M49.6621094,11.3422852
			c-0.1855469,0-0.3330078,0.0708008-0.4404297,0.2119141c-0.1083984,0.1411133-0.1748047,0.3271484-0.2001953,0.5571289
			L49.03125,12.128418h1.234375v-0.0888672c0-0.2119141-0.0498047-0.3813477-0.1494141-0.5073242
			C50.015625,11.4052734,49.8642578,11.3422852,49.6621094,11.3422852z"/>
		<path class="st5" d="M51.4394531,11.2431641v-0.6015625h1.4619141l0.0488281,0.4306641
			c0.1103516-0.159668,0.2421875-0.2827148,0.3964844-0.3691406c0.1533203-0.0864258,0.3330078-0.1298828,0.5371094-0.1298828
			c0.4619141,0,0.8203125,0.1787109,1.0761719,0.5366211c0.2548828,0.3579102,0.3818359,0.828125,0.3818359,1.4116211v0.0717773
			c0,0.546875-0.1269531,0.9868164-0.3818359,1.3193359c-0.2558594,0.3325195-0.6113281,0.4990234-1.0693359,0.4990234
			c-0.1953125,0-0.3681641-0.0356445-0.5205078-0.1079102c-0.1513672-0.0712891-0.28125-0.1767578-0.3896484-0.315918v1.0698242
			l0.4863281,0.1025391v0.6015625h-1.9755859v-0.6015625l0.4863281-0.1025391v-3.7119141L51.4394531,11.2431641z
			 M54.3359375,12.5214844c0-0.3486328-0.0585938-0.6313477-0.1757813-0.8476563s-0.296875-0.324707-0.5380859-0.324707
			c-0.1513672,0-0.28125,0.0307617-0.3876953,0.0922852c-0.1074219,0.0615234-0.1914063,0.1494141-0.2539063,0.2631836v1.6201172
			c0.0625,0.1049805,0.1464844,0.1845703,0.2539063,0.2392578c0.1064453,0.0546875,0.2382813,0.0820313,0.3945313,0.0820313
			c0.2431641,0,0.421875-0.0947266,0.5361328-0.2836914c0.1132813-0.1889648,0.1708984-0.4453125,0.1708984-0.769043V12.5214844z"/>
	</g>
	<g>
		<path class="st8" d="M73.3535385,33.5403709c-4.0667953,0-7.3635483,3.2967529-7.3635483,7.3635445
			s3.2967529,7.3635483,7.3635483,7.3635483s7.3635483-3.2967529,7.3635483-7.3635483S77.4203339,33.5403709,73.3535385,33.5403709z
			 M73.3535385,47.0402031c-3.3889618,0-6.1362839-2.7473221-6.1362839-6.1362877
			c0-3.3889618,2.7473221-6.1362877,6.1362839-6.1362877s6.1362915,2.7473259,6.1362915,6.1362877
			C79.48983,44.292881,76.7425003,47.0402031,73.3535385,47.0402031z"/>
		<path class="st8" d="M80.3012238,36.3267441l-2.7023315-2.7023888c0.0239182-0.0298958,0.041626-0.0636826,0.0690842-0.0911369
			c0.5493774-0.5494423,1.6046677-0.3849297,2.3569946,0.3674545c0.7523193,0.7523232,0.916832,1.8076096,0.3674545,2.3569946
			C80.3649673,36.2851219,80.3311234,36.3028297,80.3012238,36.3267441z"/>
		<circle class="st8" cx="73.3535385" cy="40.9039154" r="1.0989169"/>
		<polygon class="st8" points="73.7566071,35.3774185 72.9765396,35.2286339 72.9765396,40.1418953 73.7566071,40.1418953 		"/>
		
			<rect x="76.0887451" y="38.6520119" transform="matrix(9.327466e-12 1 -1 9.327466e-12 117.3826981 -35.5748634)" class="st8" width="0.7800705" height="4.5038133"/>
		<rect x="71.1903534" y="30.484375" class="st8" width="4.3524456" height="1.3333699"/>
		<rect x="72.7339325" y="32.25" class="st8" width="1.2392157" height="1.399084"/>
		<path class="st8" d="M78.0829468,41.2939529c0,0-2.4944382,0-5.1064072,0v-6.0653191
			c3.1343918,0,6.0522842,2.9309311,6.0522842,6.0653191H78.0829468z"/>
	</g>
</g>
<g id="элементы">
	<g>
		<g id="XMLID_24_">
			<g>
				<rect x="67.99263" y="58.2152443" class="st9" width="3.4376609" height="4.255477"/>
			</g>
			<g>
			</g>
		</g>
		<g id="XMLID_23_">
			<g>
				<rect x="75.1210861" y="58.17453" class="st9" width="3.4376609" height="4.255477"/>
			</g>
			<g>
			</g>
		</g>
		<g id="XMLID_18_">
			<g>
				<rect x="70.7262115" y="58.5250244" class="st10" width="5.1611581" height="3.6075966"/>
			</g>
			<g>
			</g>
		</g>
		<g>
			<path class="st11" d="M72.359375,60.5107422h-0.1914063v0.3623047h-0.1660156v-0.3623047h-0.6152344v-0.1992188
				l0.6230469-0.7255859h0.1582031v0.7861328h0.1914063V60.5107422z M72.0019531,60.3720703v-0.5800781l-0.4980469,0.5800781
				H72.0019531z"/>
			<path class="st11" d="M73.28125,59.7783203l-0.5820313,1.0947266h-0.1855469l0.6210938-1.1357422h-0.7333984v-0.1513672H73.28125
				V59.7783203z"/>
			<path class="st11" d="M74.2246094,60.2285156c0,0.2314453-0.0351563,0.4013672-0.1074219,0.5087891
				c-0.0722656,0.1083984-0.1855469,0.1621094-0.3378906,0.1621094c-0.1542969,0-0.2666016-0.0546875-0.3378906-0.1640625
				s-0.1064453-0.2773438-0.1064453-0.5048828c0-0.2285156,0.0361328-0.3974609,0.1083984-0.5068359
				c0.0712891-0.109375,0.1835938-0.1640625,0.3359375-0.1640625c0.1542969,0,0.2675781,0.0556641,0.3388672,0.1669922
				C74.1894531,59.8369141,74.2246094,60.0048828,74.2246094,60.2285156z M73.9980469,60.6210938
				c0.0195313-0.046875,0.0332031-0.1015625,0.0410156-0.1640625c0.0068359-0.0634766,0.0097656-0.1396484,0.0097656-0.2285156
				c0-0.0869141-0.0029297-0.1630859-0.0097656-0.2275391c-0.0078125-0.0644531-0.0214844-0.1191406-0.0429688-0.1640625
				c-0.0195313-0.0449219-0.046875-0.078125-0.0820313-0.1005859s-0.0800781-0.0341797-0.1347656-0.0341797
				c-0.0537109,0-0.0986328,0.0117188-0.1337891,0.0341797c-0.0361328,0.0224609-0.0634766,0.0566406-0.0849609,0.1015625
				c-0.0195313,0.0429688-0.0322266,0.0986328-0.0390625,0.1669922c-0.0078125,0.0683594-0.0117188,0.1435547-0.0117188,0.2255859
				c0,0.0898438,0.0039063,0.1650391,0.0097656,0.2255859s0.0195313,0.1152344,0.0410156,0.1630859
				c0.0185547,0.0449219,0.0458984,0.0791016,0.0800781,0.1025391c0.0351563,0.0234375,0.0820313,0.0351563,0.1386719,0.0351563
				c0.0546875,0,0.0996094-0.0107422,0.1347656-0.0332031C73.9501953,60.7011719,73.9785156,60.6669922,73.9980469,60.6210938z"/>
			<path class="st11" d="M75.1015625,60.8730469h-0.6962891v-0.1318359h0.2685547v-0.8623047h-0.2685547v-0.1171875
				c0.0361328,0,0.0751953-0.0039063,0.1162109-0.0097656c0.0419922-0.0058594,0.0732422-0.0146484,0.0947266-0.0263672
				c0.0263672-0.0136719,0.0478516-0.0322266,0.0625-0.0546875c0.015625-0.0224609,0.0244141-0.0517578,0.0263672-0.0898438
				h0.1347656v1.1601563h0.2617188V60.8730469z"/>
		</g>
	</g>
	<g>
		<g id="XMLID_39_">
			<g>
				<rect x="38.769104" y="51.2265053" class="st9" width="3.4376609" height="4.255477"/>
			</g>
			<g>
			</g>
		</g>
		<g id="XMLID_38_">
			<g>
				<rect x="45.8975601" y="51.185791" class="st9" width="3.4376609" height="4.255477"/>
			</g>
			<g>
			</g>
		</g>
		<g id="XMLID_37_">
			<g>
				<rect x="41.5026855" y="51.5362816" class="st10" width="5.1611581" height="3.6075966"/>
			</g>
			<g>
			</g>
		</g>
		<g>
			<path class="st11" d="M43.1362305,53.5214844h-0.1914063v0.3623047h-0.1660156v-0.3623047h-0.6162109v-0.1982422
				l0.6235352-0.7265625h0.1586914v0.7871094h0.1914063V53.5214844z M42.7788086,53.3837891v-0.5810547l-0.4985352,0.5810547
				H42.7788086z"/>
			<path class="st11" d="M44.0585938,52.7900391l-0.5830078,1.09375h-0.1850586l0.6201172-1.1357422h-0.7329102v-0.1513672
				h0.8808594V52.7900391z"/>
			<path class="st11" d="M45.0019531,53.2402344c0,0.2304688-0.0371094,0.4003906-0.109375,0.5087891
				c-0.0722656,0.1074219-0.1835938,0.1621094-0.3359375,0.1621094c-0.1542969,0-0.2675781-0.0546875-0.3388672-0.1640625
				c-0.0712891-0.1103516-0.1064453-0.2783203-0.1064453-0.5048828c0-0.2294922,0.0351563-0.3984375,0.1074219-0.5068359
				c0.0722656-0.109375,0.1845703-0.1640625,0.3378906-0.1640625c0.1542969,0,0.2666016,0.0556641,0.3378906,0.1660156
				C44.9658203,52.8486328,45.0019531,53.015625,45.0019531,53.2402344z M44.7734375,53.6328125
				c0.0214844-0.046875,0.0351563-0.1015625,0.0410156-0.1650391c0.0078125-0.0634766,0.0117188-0.1386719,0.0117188-0.2275391
				c0-0.0878906-0.0039063-0.1640625-0.0117188-0.2285156c-0.0058594-0.0644531-0.0205078-0.1191406-0.0410156-0.1640625
				c-0.0205078-0.0439453-0.0478516-0.078125-0.0830078-0.1005859c-0.0341797-0.0224609-0.0791016-0.0332031-0.1337891-0.0332031
				s-0.0996094,0.0107422-0.1347656,0.0332031s-0.0634766,0.0566406-0.0839844,0.1025391
				c-0.0195313,0.0419922-0.0332031,0.0976563-0.0410156,0.1669922c-0.0068359,0.0683594-0.0097656,0.1435547-0.0097656,0.2255859
				c0,0.0898438,0.0019531,0.1650391,0.0087891,0.2255859s0.0205078,0.1142578,0.0410156,0.1621094
				c0.0185547,0.0449219,0.0458984,0.0791016,0.0810547,0.1025391c0.0341797,0.0244141,0.0800781,0.0361328,0.1386719,0.0361328
				c0.0537109,0,0.0986328-0.0117188,0.1347656-0.0341797C44.7265625,53.7119141,44.7539063,53.6777344,44.7734375,53.6328125z"/>
			<path class="st11" d="M45.8789063,53.8837891h-0.6972656v-0.1308594h0.2675781v-0.8632813h-0.2675781v-0.1171875
				c0.0361328,0,0.0751953-0.0029297,0.1171875-0.0087891c0.0410156-0.0058594,0.0722656-0.0146484,0.09375-0.0263672
				c0.0263672-0.0146484,0.046875-0.0332031,0.0625-0.0546875c0.015625-0.0224609,0.0244141-0.0527344,0.0263672-0.0898438
				h0.1337891v1.1601563h0.2636719V53.8837891z"/>
		</g>
	</g>
	<g>
		<g id="XMLID_45_">
			<g>
				<rect x="9.9435177" y="29.0432816" class="st9" width="3.4376609" height="4.255477"/>
			</g>
			<g>
			</g>
		</g>
		<g id="XMLID_44_">
			<g>
				<rect x="17.0719719" y="29.0025692" class="st9" width="3.4376609" height="4.255477"/>
			</g>
			<g>
			</g>
		</g>
		<g id="XMLID_43_">
			<g>
				<rect x="12.6770992" y="29.3530617" class="st10" width="5.1611581" height="3.6075966"/>
			</g>
			<g>
			</g>
		</g>
		<g>
			<path class="st11" d="M14.3110352,31.3383789h-0.1914063v0.3623047h-0.1660156v-0.3623047h-0.6162109v-0.1987305
				l0.6235352-0.7260742h0.1586914v0.7866211h0.1914063V31.3383789z M13.9536133,31.2001953v-0.5805664l-0.4985352,0.5805664
				H13.9536133z"/>
			<path class="st11" d="M15.2329102,30.6064453l-0.5825195,1.0942383H14.465332l0.6201172-1.1357422h-0.7329102v-0.1513672
				h0.8803711V30.6064453z"/>
			<path class="st11" d="M16.1762695,31.0566406c0,0.230957-0.0361328,0.4008789-0.1083984,0.5087891
				s-0.1845703,0.1621094-0.3369141,0.1621094c-0.1542969,0-0.2670898-0.0546875-0.3383789-0.1640625
				c-0.0712891-0.1098633-0.1064453-0.277832-0.1064453-0.5048828c0-0.2290039,0.0356445-0.3979492,0.1079102-0.5068359
				c0.0717773-0.109375,0.184082-0.1640625,0.3369141-0.1640625c0.1542969,0,0.2670898,0.0556641,0.3383789,0.1665039
				S16.1762695,30.8325195,16.1762695,31.0566406z M15.9487305,31.4492188
				c0.0205078-0.046875,0.0341797-0.1015625,0.0410156-0.1645508c0.0073242-0.0634766,0.0107422-0.1391602,0.0107422-0.2280273
				c0-0.0874023-0.003418-0.1635742-0.0107422-0.2280273c-0.0068359-0.0644531-0.0209961-0.1191406-0.0419922-0.1640625
				c-0.0200195-0.0444336-0.0473633-0.078125-0.0825195-0.1005859c-0.034668-0.0224609-0.0795898-0.0336914-0.1342773-0.0336914
				c-0.0541992,0-0.0991211,0.0112305-0.1342773,0.0336914c-0.0356445,0.0224609-0.0634766,0.0566406-0.0844727,0.1020508
				c-0.0195313,0.0424805-0.0327148,0.0981445-0.0400391,0.1669922c-0.0073242,0.0683594-0.0107422,0.1435547-0.0107422,0.2255859
				c0,0.0898438,0.0029297,0.1650391,0.0092773,0.2255859s0.0200195,0.1147461,0.0410156,0.1625977
				c0.0185547,0.0449219,0.0458984,0.0791016,0.0805664,0.1025391c0.034668,0.0239258,0.0810547,0.0356445,0.1386719,0.0356445
				c0.0541992,0,0.0991211-0.0112305,0.1347656-0.0336914S15.9291992,31.4946289,15.9487305,31.4492188z"/>
			<path class="st11" d="M17.0532227,31.7006836h-0.6967773v-0.1313477h0.2680664v-0.862793h-0.2680664v-0.1171875
				c0.0361328,0,0.0751953-0.003418,0.1166992-0.0092773s0.0727539-0.0146484,0.0942383-0.0263672
				c0.0263672-0.0141602,0.0473633-0.0327148,0.0625-0.0546875c0.015625-0.0224609,0.0244141-0.0522461,0.0263672-0.0898438
				h0.1342773v1.1601563h0.2626953V31.7006836z"/>
		</g>
	</g>
	<g>
		<g id="XMLID_48_">
			<g>
				<rect x="9.9435177" y="20.3766155" class="st9" width="3.4376609" height="4.255477"/>
			</g>
			<g>
			</g>
		</g>
		<g id="XMLID_47_">
			<g>
				<rect x="17.0719719" y="20.3359013" class="st9" width="3.4376609" height="4.255477"/>
			</g>
			<g>
			</g>
		</g>
		<g id="XMLID_46_">
			<g>
				<rect x="12.6770992" y="20.6863956" class="st10" width="5.1611581" height="3.6075966"/>
			</g>
			<g>
			</g>
		</g>
		<g>
			<path class="st11" d="M14.2080078,23.0341797h-0.6967773V22.902832h0.2680664v-0.862793h-0.2680664v-0.1171875
				c0.0361328,0,0.0751953-0.003418,0.1166992-0.0092773s0.0727539-0.0146484,0.0942383-0.0263672
				c0.0263672-0.0141602,0.0473633-0.0327148,0.0625-0.0546875c0.015625-0.0224609,0.0244141-0.0522461,0.0263672-0.0898438
				h0.1342773v1.1601563h0.2626953V23.0341797z"/>
			<path class="st11" d="M15.2280273,22.3901367c0,0.230957-0.0361328,0.4008789-0.1083984,0.5087891
				s-0.1845703,0.1621094-0.3369141,0.1621094c-0.1542969,0-0.2670898-0.0546875-0.3383789-0.1640625
				c-0.0712891-0.1098633-0.1064453-0.277832-0.1064453-0.5048828c0-0.2290039,0.0356445-0.3979492,0.1079102-0.5068359
				c0.0717773-0.109375,0.184082-0.1640625,0.3369141-0.1640625c0.1542969,0,0.2670898,0.0556641,0.3383789,0.1665039
				S15.2280273,22.1660156,15.2280273,22.3901367z M15.0004883,22.7827148
				c0.0205078-0.046875,0.0341797-0.1015625,0.0410156-0.1645508c0.0073242-0.0634766,0.0107422-0.1391602,0.0107422-0.2280273
				c0-0.0874023-0.003418-0.1635742-0.0107422-0.2280273c-0.0068359-0.0644531-0.0209961-0.1191406-0.0419922-0.1640625
				c-0.0200195-0.0444336-0.0473633-0.078125-0.0825195-0.1005859c-0.034668-0.0224609-0.0795898-0.0336914-0.1342773-0.0336914
				c-0.0541992,0-0.0991211,0.0112305-0.1342773,0.0336914c-0.0356445,0.0224609-0.0634766,0.0566406-0.0844727,0.1020508
				c-0.0195313,0.0424805-0.0327148,0.0981445-0.0400391,0.1669922c-0.0073242,0.0683594-0.0107422,0.1435547-0.0107422,0.2255859
				c0,0.0898438,0.0029297,0.1650391,0.0092773,0.2255859s0.0200195,0.1147461,0.0410156,0.1625977
				c0.0185547,0.0449219,0.0458984,0.0791016,0.0805664,0.1025391c0.034668,0.0239258,0.0810547,0.0356445,0.1386719,0.0356445
				c0.0541992,0,0.0991211-0.0112305,0.1347656-0.0336914S14.980957,22.828125,15.0004883,22.7827148z"/>
			<path class="st11" d="M16.1762695,22.3901367c0,0.230957-0.0361328,0.4008789-0.1083984,0.5087891
				s-0.1845703,0.1621094-0.3369141,0.1621094c-0.1542969,0-0.2670898-0.0546875-0.3383789-0.1640625
				c-0.0712891-0.1098633-0.1064453-0.277832-0.1064453-0.5048828c0-0.2290039,0.0356445-0.3979492,0.1079102-0.5068359
				c0.0717773-0.109375,0.184082-0.1640625,0.3369141-0.1640625c0.1542969,0,0.2670898,0.0556641,0.3383789,0.1665039
				S16.1762695,22.1660156,16.1762695,22.3901367z M15.9487305,22.7827148
				c0.0205078-0.046875,0.0341797-0.1015625,0.0410156-0.1645508c0.0073242-0.0634766,0.0107422-0.1391602,0.0107422-0.2280273
				c0-0.0874023-0.003418-0.1635742-0.0107422-0.2280273c-0.0068359-0.0644531-0.0209961-0.1191406-0.0419922-0.1640625
				c-0.0200195-0.0444336-0.0473633-0.078125-0.0825195-0.1005859c-0.034668-0.0224609-0.0795898-0.0336914-0.1342773-0.0336914
				c-0.0541992,0-0.0991211,0.0112305-0.1342773,0.0336914c-0.0356445,0.0224609-0.0634766,0.0566406-0.0844727,0.1020508
				c-0.0195313,0.0424805-0.0327148,0.0981445-0.0400391,0.1669922c-0.0073242,0.0683594-0.0107422,0.1435547-0.0107422,0.2255859
				c0,0.0898438,0.0029297,0.1650391,0.0092773,0.2255859s0.0200195,0.1147461,0.0410156,0.1625977
				c0.0185547,0.0449219,0.0458984,0.0791016,0.0805664,0.1025391c0.034668,0.0239258,0.0810547,0.0356445,0.1386719,0.0356445
				c0.0541992,0,0.0991211-0.0112305,0.1347656-0.0336914S15.9291992,22.828125,15.9487305,22.7827148z"/>
			<path class="st11" d="M17.0131836,22.4145508c0.027832,0.0249023,0.0507813,0.0556641,0.0683594,0.0932617
				c0.0180664,0.0375977,0.0268555,0.0859375,0.0268555,0.1450195s-0.0107422,0.112793-0.0317383,0.1616211
				c-0.0214844,0.0493164-0.0512695,0.0917969-0.0898438,0.1279297c-0.043457,0.0405273-0.0942383,0.0703125-0.152832,0.0898438
				c-0.0585938,0.019043-0.1225586,0.0288086-0.1923828,0.0288086c-0.0712891,0-0.1416016-0.0087891-0.2109375-0.0253906
				C16.3618164,23.0185547,16.3046875,23,16.2607422,22.9794922v-0.1801758h0.0126953
				c0.0488281,0.0322266,0.1064453,0.0585938,0.1728516,0.0800781s0.1303711,0.0322266,0.1918945,0.0322266
				c0.0366211,0,0.0751953-0.0063477,0.1157227-0.0185547c0.0410156-0.0117188,0.0742188-0.0297852,0.0996094-0.0532227
				c0.0263672-0.0253906,0.0463867-0.0532227,0.059082-0.0839844c0.0131836-0.0307617,0.0195313-0.0693359,0.0195313-0.1157227
				s-0.0073242-0.0844727-0.0219727-0.1147461S16.875,22.4716797,16.8491211,22.4541016s-0.0571289-0.0297852-0.0942383-0.0366211
				c-0.0366211-0.0068359-0.0766602-0.0097656-0.1191406-0.0097656h-0.0776367v-0.1435547h0.0600586
				c0.0878906,0,0.1577148-0.0185547,0.2099609-0.0551758s0.078125-0.0898438,0.078125-0.1601563
				c0-0.03125-0.0068359-0.0581055-0.0200195-0.081543s-0.0317383-0.0424805-0.0551758-0.0576172
				c-0.0249023-0.0151367-0.0512695-0.0253906-0.0795898-0.03125c-0.0283203-0.0053711-0.0600586-0.0083008-0.0957031-0.0083008
				c-0.0551758,0-0.1132813,0.0097656-0.1748047,0.0292969s-0.1196289,0.0473633-0.1748047,0.0830078h-0.0083008v-0.1806641
				c0.0410156-0.0205078,0.0952148-0.0390625,0.1635742-0.0556641c0.0683594-0.0170898,0.1342773-0.0258789,0.1982422-0.0258789
				c0.0629883,0,0.1181641,0.0058594,0.1660156,0.0175781c0.0478516,0.0112305,0.0913086,0.0297852,0.1298828,0.0551758
				c0.0415039,0.027832,0.0727539,0.0610352,0.0942383,0.1000977c0.0209961,0.0395508,0.0317383,0.0849609,0.0317383,0.1376953
				c0,0.0712891-0.0249023,0.1337891-0.0756836,0.1870117c-0.050293,0.0532227-0.1098633,0.0869141-0.1782227,0.1005859v0.012207
				c0.0273438,0.0048828,0.059082,0.0141602,0.0952148,0.0288086
				C16.9584961,22.3740234,16.9887695,22.3925781,17.0131836,22.4145508z"/>
		</g>
	</g>
	<g>
		<g id="XMLID_42_">
			<g>
				<rect x="9.8155851" y="56.7413368" class="st9" width="3.4376609" height="4.255477"/>
			</g>
			<g>
			</g>
		</g>
		<g id="XMLID_41_">
			<g>
				<rect x="16.9440403" y="56.7006226" class="st9" width="3.4376609" height="4.255477"/>
			</g>
			<g>
			</g>
		</g>
		<g id="XMLID_40_">
			<g>
				<rect x="12.5491676" y="57.0511169" class="st10" width="5.1611581" height="3.6075966"/>
			</g>
			<g>
			</g>
		</g>
		<g>
			<path class="st11" d="M14.1831055,59.0361328h-0.1914063v0.3623047h-0.1660156v-0.3623047h-0.6162109v-0.1982422
				l0.6235352-0.7265625h0.1586914v0.7871094h0.1914063V59.0361328z M13.8256836,58.8984375v-0.5810547l-0.4985352,0.5810547
				H13.8256836z"/>
			<path class="st11" d="M15.1049805,58.3046875l-0.5825195,1.09375h-0.1850586l0.6201172-1.1357422h-0.7329102v-0.1513672
				h0.8803711V58.3046875z"/>
			<path class="st11" d="M16.0483398,58.7548828c0,0.2304688-0.0361328,0.4003906-0.1083984,0.5087891
				c-0.0722656,0.1074219-0.1845703,0.1621094-0.3369141,0.1621094c-0.1542969,0-0.2670898-0.0546875-0.3383789-0.1640625
				c-0.0712891-0.1103516-0.1064453-0.2783203-0.1064453-0.5048828c0-0.2294922,0.0356445-0.3984375,0.1079102-0.5068359
				c0.0717773-0.109375,0.184082-0.1640625,0.3369141-0.1640625c0.1542969,0,0.2670898,0.0556641,0.3383789,0.1660156
				C16.0126953,58.3632813,16.0483398,58.5302734,16.0483398,58.7548828z M15.8208008,59.1474609
				c0.0205078-0.046875,0.0341797-0.1015625,0.0410156-0.1650391c0.0073242-0.0634766,0.0107422-0.1386719,0.0107422-0.2275391
				c0-0.0878906-0.003418-0.1640625-0.0107422-0.2285156c-0.0068359-0.0644531-0.0209961-0.1191406-0.0419922-0.1640625
				c-0.0200195-0.0439453-0.0473633-0.078125-0.0825195-0.1005859c-0.034668-0.0224609-0.0795898-0.0332031-0.1342773-0.0332031
				c-0.0541992,0-0.0991211,0.0107422-0.1342773,0.0332031c-0.0356445,0.0224609-0.0634766,0.0566406-0.0844727,0.1025391
				c-0.0195313,0.0419922-0.0327148,0.0976563-0.0400391,0.1669922c-0.0073242,0.0683594-0.0107422,0.1435547-0.0107422,0.2255859
				c0,0.0898438,0.0029297,0.1650391,0.0092773,0.2255859s0.0200195,0.1142578,0.0410156,0.1621094
				c0.0185547,0.0449219,0.0458984,0.0791016,0.0805664,0.1025391c0.034668,0.0244141,0.0810547,0.0361328,0.1386719,0.0361328
				c0.0541992,0,0.0991211-0.0117188,0.1347656-0.0341797S15.8012695,59.1923828,15.8208008,59.1474609z"/>
			<path class="st11" d="M16.925293,59.3984375h-0.6967773v-0.1308594h0.2680664v-0.8632813h-0.2680664v-0.1171875
				c0.0361328,0,0.0751953-0.0029297,0.1166992-0.0087891s0.0727539-0.0146484,0.0942383-0.0263672
				c0.0263672-0.0146484,0.0473633-0.0332031,0.0625-0.0546875c0.015625-0.0224609,0.0244141-0.0527344,0.0263672-0.0898438
				h0.1342773v1.1601563h0.2626953V59.3984375z"/>
		</g>
	</g>
	<g>
		<g id="XMLID_4_">
			<g>
				<rect x="56.7923164" y="45.3677864" class="st1" width="4.9884086" height="1.4756068"/>
			</g>
			<g>
			</g>
		</g>
		<g id="XMLID_5_">
			<g>
				<rect x="56.7923164" y="41.781559" class="st1" width="4.9884086" height="1.4756068"/>
			</g>
			<g>
			</g>
		</g>
		<g id="XMLID_6_">
			<g>
				<rect x="56.7923164" y="38.1953316" class="st1" width="4.9884086" height="1.4756068"/>
			</g>
			<g>
			</g>
		</g>
		<g id="XMLID_49_">
			<g>
				<rect x="56.7923164" y="34.6091042" class="st1" width="4.9884086" height="1.4756068"/>
			</g>
			<g>
			</g>
		</g>
		<g id="XMLID_10_">
			<g>
				<rect x="56.7923164" y="31.0228748" class="st1" width="4.9884086" height="1.4756068"/>
			</g>
			<g>
			</g>
		</g>
		<g id="XMLID_51_">
			<g>
				<rect x="56.7923164" y="27.4366474" class="st1" width="4.9884086" height="1.4756068"/>
			</g>
			<g>
			</g>
		</g>
		<g id="XMLID_50_">
			<g>
				<rect x="56.7923164" y="23.85042" class="st1" width="4.9884086" height="1.4756068"/>
			</g>
			<g>
			</g>
		</g>
		<g id="XMLID_54_">
			<g>
				<rect x="41.2201576" y="45.3677864" class="st1" width="4.9884086" height="1.4756068"/>
			</g>
			<g>
			</g>
		</g>
		<g id="XMLID_53_">
			<g>
				<rect x="41.2201576" y="41.781559" class="st1" width="4.9884086" height="1.4756068"/>
			</g>
			<g>
			</g>
		</g>
		<g id="XMLID_52_">
			<g>
				<rect x="41.2201576" y="38.1953316" class="st1" width="4.9884086" height="1.4756068"/>
			</g>
			<g>
			</g>
		</g>
		<g id="XMLID_22_">
			<g>
				<rect x="41.2201576" y="34.6091042" class="st1" width="4.9884086" height="1.4756068"/>
			</g>
			<g>
			</g>
		</g>
		<g id="XMLID_21_">
			<g>
				<rect x="41.2201576" y="31.0228748" class="st1" width="4.9884086" height="1.4756068"/>
			</g>
			<g>
			</g>
		</g>
		<g id="XMLID_20_">
			<g>
				<rect x="41.2201576" y="27.4366474" class="st1" width="4.9884086" height="1.4756068"/>
			</g>
			<g>
			</g>
		</g>
		<g id="XMLID_19_">
			<g>
				<rect x="41.2201576" y="23.85042" class="st1" width="4.9884086" height="1.4756068"/>
			</g>
			<g>
			</g>
		</g>
		<g id="XMLID_7_">
			<g>
				<path class="st10" d="M46.4591255,22.5414009h10.0809402c0.1391525,0,0.2525406,0.1108265,0.2525406,0.2518787V47.850029
					c0,0.1309738-0.1133881,0.2418022-0.2525406,0.2418022H46.4745865c-0.1339989,0-0.2473831-0.1108284-0.2473831-0.2418022
					l-0.0206146-25.0567493C46.2065887,22.6522274,46.319973,22.5414009,46.4591255,22.5414009z"/>
			</g>
			<g>
			</g>
		</g>
		<g>
			<path class="st12" d="M54.2506523,45.1225395c-0.6202736,0-1.123127,0.4841042-1.123127,1.0812531h2.2462502
				C55.3737755,45.6066437,54.8709488,45.1225395,54.2506523,45.1225395z"/>
			<path class="st12" d="M54.2506523,47.2850456c0.6202698,0,1.1231232-0.4841003,1.1231232-1.0812531h-2.2462502
				C53.1275253,46.8009453,53.630352,47.2850456,54.2506523,47.2850456z"/>
		</g>
	</g>
	<g>
		<g>
			<g id="XMLID_13_">
				<g>
					<rect x="2.0267534" y="58.8962746" class="st9" width="4.255477" height="3.4376609"/>
				</g>
				<g>
				</g>
			</g>
			<g id="XMLID_12_">
				<g>
					<rect x="2.0674672" y="51.7678185" class="st9" width="4.255477" height="3.4376609"/>
				</g>
				<g>
				</g>
			</g>
			<circle class="st13" cx="4.2777419" cy="56.9866982" r="0.5520833"/>
		</g>
		<path class="st14" d="M4.1956964,54.375267c0.2929659,0.0003471,0.6022472-0.1414032,0.6939087-0.4296074
			c0.0212903-0.0606499,1.4339767-0.0606499,1.4339767-0.0606499s0,0.7387772,0,1.4775543H2.0678113
			c0-0.7387772,0-1.4775543,0-1.4775543s1.4126863,0,1.4339769,0.0606499
			C3.5934496,54.2338638,3.9027307,54.3756142,4.1956964,54.375267"/>
		<path class="st14" d="M4.1956964,59.6653519c0.2929659-0.0003471,0.6022472,0.1414032,0.6939087,0.4296074
			c0.0212903,0.0606499,1.4339767,0.0606499,1.4339767,0.0606499s0-0.7387772,0-1.4775543H2.0678113
			c0,0.7387772,0,1.4775543,0,1.4775543s1.4126863,0,1.4339769-0.0606499
			C3.5934496,59.8067551,3.9027307,59.6650047,4.1956964,59.6653519"/>
		
			<rect x="2.5379524" y="54.8924255" transform="matrix(4.498783e-11 1 -1 4.498783e-11 61.2160072 52.8246117)" class="st15" width="3.3154881" height="4.2557707"/>
		
			<rect x="2.5379524" y="54.8924255" transform="matrix(4.498783e-11 1 -1 4.498783e-11 61.2160072 52.8246117)" class="st16" width="3.3154881" height="4.2557707"/>
		<line class="st17" x1="2.0272434" y1="63.126545" x2="6.2830157" y2="63.126545"/>
	</g>
	<g>
		<g id="XMLID_28_">
			<g>
				<rect x="54.863369" y="54.9562492" class="st10" width="8.5589418" height="3.662437"/>
			</g>
			<g>
			</g>
		</g>
		<g id="XMLID_27_">
			<g>
				<rect x="58.3391991" y="51.9030266" class="st1" width="1.6072793" height="2.9478152"/>
			</g>
			<g>
			</g>
		</g>
		<g id="XMLID_26_">
			<g>
				<rect x="60.9447212" y="58.6186867" class="st1" width="1.6811564" height="3.5123663"/>
			</g>
			<g>
			</g>
		</g>
		<g id="XMLID_25_">
			<g>
				<rect x="55.4561882" y="58.6186867" class="st1" width="1.6811564" height="3.5123663"/>
			</g>
			<g>
			</g>
		</g>
		<g>
			<path class="st11" d="M57.9101563,57.1298828c0,0.1591797-0.0488281,0.2822266-0.1474609,0.3691406
				c-0.0986328,0.0859375-0.2294922,0.1289063-0.3945313,0.1289063c-0.0400391,0-0.0917969-0.0029297-0.1572266-0.0097656
				c-0.0664063-0.0068359-0.1210938-0.015625-0.1660156-0.0253906v-0.2255859h0.0136719
				c0.0341797,0.0107422,0.0761719,0.0224609,0.125,0.0351563c0.0488281,0.0117188,0.0996094,0.0185547,0.1513672,0.0185547
				c0.0751953,0,0.1357422-0.0087891,0.1806641-0.0263672c0.0449219-0.0166016,0.078125-0.0410156,0.0986328-0.0732422
				c0.0224609-0.0322266,0.0361328-0.0722656,0.0419922-0.1191406c0.0068359-0.0478516,0.0097656-0.1015625,0.0097656-0.1640625
				v-1.0615234h-0.3876953v-0.1923828h0.6318359V57.1298828z"/>
			<path class="st11" d="M59.4169922,56.7265625c0.0390625,0.0351563,0.0712891,0.0791016,0.0966797,0.1318359
				c0.0253906,0.0537109,0.0390625,0.1220703,0.0390625,0.2050781c0,0.0839844-0.015625,0.1591797-0.0458984,0.2285156
				s-0.0732422,0.1298828-0.1279297,0.1806641c-0.0625,0.0576172-0.1347656,0.0996094-0.2177734,0.1269531
				s-0.1748047,0.0410156-0.2744141,0.0410156c-0.1015625,0-0.2011719-0.0126953-0.3007813-0.0361328
				c-0.0976563-0.0244141-0.1787109-0.0507813-0.2421875-0.0791016v-0.2548828h0.0185547
				c0.0693359,0.0458984,0.1513672,0.0830078,0.2470703,0.1132813c0.09375,0.0302734,0.1855469,0.0449219,0.2734375,0.0449219
				c0.0507813,0,0.1054688-0.0078125,0.1640625-0.0253906c0.0585938-0.0166016,0.1054688-0.0419922,0.1425781-0.0751953
				c0.0371094-0.0361328,0.0654297-0.0751953,0.0839844-0.1191406c0.0175781-0.0429688,0.0273438-0.0976563,0.0273438-0.1630859
				s-0.0097656-0.1191406-0.03125-0.1621094s-0.0498047-0.0761719-0.0869141-0.1005859
				c-0.0361328-0.0253906-0.0810547-0.0429688-0.1337891-0.0517578c-0.0527344-0.0097656-0.109375-0.0146484-0.1699219-0.0146484
				h-0.1113281v-0.2021484h0.0859375c0.125,0,0.2246094-0.0263672,0.2988281-0.078125s0.1113281-0.1269531,0.1113281-0.2265625
				c0-0.0439453-0.0097656-0.0820313-0.0273438-0.1152344c-0.0195313-0.0332031-0.0458984-0.0595703-0.0800781-0.0810547
				c-0.0351563-0.0214844-0.0722656-0.0361328-0.1132813-0.0439453c-0.0390625-0.0078125-0.0859375-0.0126953-0.1367188-0.0126953
				c-0.078125,0-0.1601563,0.0146484-0.2480469,0.0419922s-0.1708984,0.0664063-0.2490234,0.1171875h-0.0126953v-0.2548828
				c0.0585938-0.0292969,0.1367188-0.0546875,0.234375-0.0791016c0.0966797-0.0244141,0.1914063-0.0361328,0.2822266-0.0361328
				c0.0888672,0,0.1679688,0.0078125,0.2363281,0.0244141s0.1298828,0.0419922,0.1845703,0.078125
				c0.0595703,0.0390625,0.1035156,0.0869141,0.1347656,0.1416016c0.0302734,0.0556641,0.0449219,0.1201172,0.0449219,0.1943359
				c0,0.1005859-0.0351563,0.1894531-0.1074219,0.2646484s-0.15625,0.1230469-0.2539063,0.1425781v0.0166016
				c0.0390625,0.0068359,0.0839844,0.0205078,0.1347656,0.0410156S59.3808594,56.6962891,59.4169922,56.7265625z"/>
			<path class="st11" d="M61.2861328,55.7841797l-0.6455078,1.0205078v0.7978516h-0.2441406v-0.7714844l-0.6474609-1.046875
				h0.2705078l0.5,0.8134766l0.5068359-0.8134766H61.2861328z"/>
		</g>
	</g>
	<g>
		<g id="XMLID_32_">
			<g>
				<rect x="25.3443813" y="55.1869354" class="st10" width="8.5589418" height="3.662437"/>
			</g>
			<g>
			</g>
		</g>
		<g id="XMLID_31_">
			<g>
				<rect x="28.8202152" y="58.9547806" class="st1" width="1.6072793" height="2.9478152"/>
			</g>
			<g>
			</g>
		</g>
		<g id="XMLID_30_">
			<g>
				<rect x="26.1408138" y="51.6745682" class="st1" width="1.6811564" height="3.5123663"/>
			</g>
			<g>
			</g>
		</g>
		<g id="XMLID_29_">
			<g>
				<rect x="31.6293488" y="51.6745682" class="st1" width="1.6811564" height="3.5123663"/>
			</g>
			<g>
			</g>
		</g>
		<g>
			<path class="st11" d="M30.8564453,56.6757813c0-0.1591797,0.0493164-0.2822266,0.1474609-0.3691406
				c0.0981445-0.0859375,0.2294922-0.1289063,0.3945313-0.1289063c0.0395508,0,0.0917969,0.0029297,0.1577148,0.0097656
				s0.1206055,0.015625,0.1650391,0.0253906v0.2255859h-0.0136719c-0.0336914-0.0107422-0.0751953-0.0224609-0.1245117-0.0351563
				c-0.0488281-0.0117188-0.0996094-0.0185547-0.1513672-0.0185547c-0.0756836,0-0.1357422,0.0087891-0.1801758,0.0263672
				c-0.0449219,0.0166016-0.078125,0.0410156-0.0991211,0.0732422c-0.0224609,0.0322266-0.0366211,0.0722656-0.0424805,0.1191406
				c-0.0063477,0.0478516-0.0092773,0.1015625-0.0092773,0.1640625v1.0615234h0.3876953v0.1923828h-0.6318359V56.6757813z"/>
			<path class="st11" d="M29.3496094,57.0791016C29.3105469,57.0439453,29.277832,57,29.2524414,56.9472656
				c-0.0253906-0.0537109-0.0380859-0.1220703-0.0380859-0.2050781c0-0.0839844,0.0151367-0.1591797,0.0454102-0.2285156
				c0.0307617-0.0693359,0.0732422-0.1298828,0.128418-0.1806641c0.0615234-0.0576172,0.1337891-0.0996094,0.2172852-0.1269531
				s0.1748047-0.0410156,0.2739258-0.0410156c0.1020508,0,0.2021484,0.0126953,0.3007813,0.0361328
				c0.0986328,0.0244141,0.1791992,0.0507813,0.2426758,0.0791016v0.2548828h-0.0185547
				c-0.0698242-0.0458984-0.1518555-0.0830078-0.246582-0.1132813c-0.0942383-0.0302734-0.1855469-0.0449219-0.2734375-0.0449219
				c-0.0517578,0-0.1064453,0.0078125-0.1650391,0.0253906c-0.0581055,0.0166016-0.1054688,0.0419922-0.1416016,0.0751953
				c-0.0375977,0.0361328-0.065918,0.0751953-0.0844727,0.1191406c-0.0180664,0.0429688-0.0273438,0.0976563-0.0273438,0.1630859
				s0.0102539,0.1191406,0.03125,0.1621094s0.0498047,0.0761719,0.0869141,0.1005859
				c0.0366211,0.0253906,0.081543,0.0429688,0.1342773,0.0517578c0.0522461,0.0097656,0.1088867,0.0146484,0.1699219,0.0146484
				h0.1108398v0.2021484h-0.0864258c-0.1245117,0-0.2241211,0.0263672-0.2983398,0.078125
				c-0.074707,0.0517578-0.1118164,0.1269531-0.1118164,0.2265625c0,0.0439453,0.0097656,0.0820313,0.0283203,0.1152344
				c0.019043,0.0332031,0.0454102,0.0595703,0.0791016,0.0810547c0.0351563,0.0214844,0.0727539,0.0361328,0.1132813,0.0439453
				c0.0400391,0.0078125,0.0859375,0.0126953,0.1367188,0.0126953c0.078125,0,0.1611328-0.0146484,0.2485352-0.0419922
				c0.0878906-0.0273438,0.1708984-0.0664063,0.2490234-0.1171875h0.012207v0.2548828
				c-0.0581055,0.0292969-0.1362305,0.0546875-0.2333984,0.0791016s-0.1914063,0.0361328-0.2827148,0.0361328
				c-0.0893555,0-0.1679688-0.0078125-0.2363281-0.0244141s-0.1298828-0.0419922-0.1845703-0.078125
				c-0.0595703-0.0390625-0.1040039-0.0869141-0.1342773-0.1416016c-0.0307617-0.0556641-0.0458984-0.1201172-0.0458984-0.1943359
				c0-0.1005859,0.0361328-0.1894531,0.1079102-0.2646484s0.1567383-0.1230469,0.2543945-0.1425781v-0.0166016
				c-0.0395508-0.0068359-0.0844727-0.0205078-0.1357422-0.0410156
				C29.4282227,57.1357422,29.3852539,57.109375,29.3496094,57.0791016z"/>
			<path class="st11" d="M27.4804688,58.0214844l0.6450195-1.0205078V56.203125h0.2441406v0.7714844l0.6479492,1.046875h-0.2700195
				l-0.5009766-0.8134766l-0.5063477,0.8134766H27.4804688z"/>
		</g>
	</g>
	<g>
		<g id="XMLID_36_">
			<g>
				<rect x="10.947052" y="47.546093" class="st10" width="8.5589418" height="3.662437"/>
			</g>
			<g>
			</g>
		</g>
		<g id="XMLID_35_">
			<g>
				<rect x="14.4228821" y="44.4928741" class="st1" width="1.6072793" height="2.9478152"/>
			</g>
			<g>
			</g>
		</g>
		<g id="XMLID_34_">
			<g>
				<rect x="17.0284061" y="51.2085304" class="st1" width="1.6811564" height="3.5123663"/>
			</g>
			<g>
			</g>
		</g>
		<g id="XMLID_33_">
			<g>
				<rect x="11.5398712" y="51.2085304" class="st1" width="1.6811564" height="3.5123663"/>
			</g>
			<g>
			</g>
		</g>
		<g>
			<path class="st11" d="M14.3842773,49.2851563c0,0.1650391-0.0361328,0.3144531-0.1088867,0.4492188
				s-0.1694336,0.2382813-0.2900391,0.3125c-0.0839844,0.0517578-0.1772461,0.0888672-0.2802734,0.1113281
				s-0.2387695,0.0341797-0.4072266,0.0341797h-0.4628906v-1.8183594h0.4580078
				c0.1791992,0,0.3212891,0.0126953,0.4267578,0.0380859c0.1054688,0.0263672,0.1948242,0.0615234,0.2680664,0.1054688
				c0.1245117,0.078125,0.222168,0.1806641,0.2919922,0.3095703S14.3842773,49.1083984,14.3842773,49.2851563z M14.1293945,49.28125
				c0-0.1425781-0.0249023-0.2626953-0.0751953-0.3603516s-0.125-0.1748047-0.2241211-0.2304688
				c-0.0722656-0.0410156-0.1489258-0.0693359-0.2304688-0.0849609c-0.0810547-0.015625-0.1787109-0.0244141-0.2919922-0.0244141
				h-0.2290039v1.4033203h0.2290039c0.1176758,0,0.2202148-0.0078125,0.3076172-0.0253906
				c0.0874023-0.0166016,0.1674805-0.0488281,0.2407227-0.0947266c0.0908203-0.0585938,0.1591797-0.1347656,0.2050781-0.2285156
				C14.1064453,49.5410156,14.1293945,49.4228516,14.1293945,49.28125z"/>
			<path class="st11" d="M16.1616211,49.6328125c0,0.0908203-0.0170898,0.1699219-0.0512695,0.2392578
				c-0.034668,0.0693359-0.0810547,0.1269531-0.1396484,0.1708984c-0.0688477,0.0537109-0.1445313,0.0927734-0.2270508,0.1152344
				s-0.1875,0.0341797-0.3149414,0.0341797h-0.6499023v-1.8183594h0.5429688c0.1337891,0,0.2338867,0.0048828,0.3007813,0.0146484
				c0.0664063,0.0097656,0.1298828,0.0302734,0.190918,0.0605469c0.0668945,0.0351563,0.1162109,0.0800781,0.1464844,0.1357422
				c0.0302734,0.0546875,0.0454102,0.1201172,0.0454102,0.1972656c0,0.0859375-0.0219727,0.1591797-0.0664063,0.2197266
				s-0.1035156,0.109375-0.1772461,0.1464844v0.0097656c0.1240234,0.0253906,0.2216797,0.0791016,0.2929688,0.1611328
				C16.1259766,49.4023438,16.1616211,49.5068359,16.1616211,49.6328125z M15.7514648,48.8134766
				c0-0.0439453-0.0073242-0.0810547-0.0219727-0.1113281s-0.0385742-0.0546875-0.0712891-0.0732422
				c-0.0385742-0.0214844-0.0854492-0.0351563-0.140625-0.0410156c-0.0551758-0.0048828-0.1230469-0.0078125-0.2045898-0.0078125
				h-0.2905273v0.5253906h0.3154297c0.0761719,0,0.137207-0.0039063,0.1821289-0.0117188
				c0.0454102-0.0078125,0.0869141-0.0234375,0.1254883-0.0478516s0.065918-0.0566406,0.0820313-0.0947266
				C15.7436523,48.9121094,15.7514648,48.8662109,15.7514648,48.8134766z M15.9082031,49.6425781
				c0-0.0732422-0.0112305-0.1308594-0.0332031-0.1748047c-0.0224609-0.0429688-0.0625-0.0791016-0.1210938-0.109375
				c-0.0390625-0.0205078-0.0869141-0.0341797-0.1430664-0.0400391c-0.0566406-0.0058594-0.125-0.0087891-0.2050781-0.0087891
				h-0.3833008v0.6767578h0.3227539c0.1069336,0,0.1943359-0.0058594,0.262207-0.0166016
				c0.0683594-0.0107422,0.1240234-0.03125,0.1674805-0.0605469c0.0463867-0.0322266,0.0795898-0.0683594,0.1010742-0.1083984
				C15.8974609,49.7597656,15.9082031,49.7070313,15.9082031,49.6425781z"/>
			<path class="st11" d="M17.7016602,50.1923828h-1.2416992V49.9375c0.0864258-0.0732422,0.1728516-0.1464844,0.2592773-0.2197266
				c0.0869141-0.0742188,0.1674805-0.1464844,0.2421875-0.21875c0.1577148-0.1513672,0.265625-0.2724609,0.3237305-0.3613281
				c0.0585938-0.0888672,0.0874023-0.1855469,0.0874023-0.2890625c0-0.09375-0.03125-0.1679688-0.0942383-0.2216797
				c-0.0625-0.0527344-0.1503906-0.0800781-0.2626953-0.0800781c-0.074707,0-0.1557617,0.0136719-0.2426758,0.0390625
				c-0.0869141,0.0263672-0.171875,0.0664063-0.2548828,0.1201172h-0.0126953v-0.2568359
				c0.0585938-0.0283203,0.1362305-0.0537109,0.2338867-0.078125c0.097168-0.0234375,0.1914063-0.0351563,0.2822266-0.0351563
				c0.1884766,0,0.3354492,0.0449219,0.4423828,0.1347656s0.1601563,0.2119141,0.1601563,0.3662109
				c0,0.0693359-0.0087891,0.1337891-0.0263672,0.1933594s-0.0439453,0.1162109-0.078125,0.1708984
				c-0.0322266,0.0498047-0.0698242,0.0996094-0.112793,0.1484375s-0.0957031,0.1035156-0.1572266,0.1621094
				c-0.0878906,0.0859375-0.1787109,0.1689453-0.2719727,0.2490234c-0.09375,0.0800781-0.1811523,0.1542969-0.2626953,0.2226563
				h0.9868164V50.1923828z"/>
		</g>
	</g>
	<g id="ГРУППА_2_">
		<g>
			<polygon class="st9" points="75.1519852,51.2064705 78.5896454,51.2064705 78.5896454,55.4619484 75.1519852,55.4619484 
				75.1519852,55.1521721 75.8565063,55.1521721 75.8565063,51.5463448 75.1519852,51.5463448 			"/>
			<polygon class="st9" points="68.0235291,51.2471848 71.4611893,51.2471848 71.4611893,51.5463448 70.6947098,51.5463448 
				70.6947098,55.1521721 71.4611893,55.1521721 71.4611893,55.5026627 68.0235291,55.5026627 			"/>
			<rect x="75.1519852" y="51.5463448" class="st18" width="0.7045258" height="3.6058266"/>
			<rect x="71.4611893" y="51.5463448" class="st18" width="3.6907945" height="3.6058266"/>
			<rect x="70.6947098" y="51.5463448" class="st18" width="0.7664815" height="3.6058266"/>
		</g>
		<g>
		</g>
	</g>
	<g id="ГРУППА_3_">
		<g>
			<polygon class="st9" points="17.1028671,38.3657875 20.5405293,38.3657875 20.5405293,42.6212654 17.1028671,42.6212654 
				17.1028671,42.3114891 17.807394,42.3114891 17.807394,38.7056618 17.1028671,38.7056618 			"/>
			<polygon class="st9" points="9.9744129,38.4065018 13.4120731,38.4065018 13.4120731,38.7056618 12.6455917,38.7056618 
				12.6455917,42.3114891 13.4120731,42.3114891 13.4120731,42.6619797 9.9744129,42.6619797 			"/>
			<rect x="17.1028671" y="38.7056618" class="st18" width="0.7045258" height="3.6058266"/>
			<rect x="13.4120731" y="38.7056618" class="st18" width="3.6907945" height="3.6058266"/>
			<rect x="12.6455917" y="38.7056618" class="st18" width="0.7664815" height="3.6058266"/>
		</g>
		<g>
		</g>
	</g>
	<g id="ГРУППА_4_">
		<g>
			<polygon class="st9" points="31.4691277,38.3657875 34.9067879,38.3657875 34.9067879,42.6212654 31.4691277,42.6212654 
				31.4691277,42.3114891 32.1736526,42.3114891 32.1736526,38.7056618 31.4691277,38.7056618 			"/>
			<polygon class="st9" points="24.3406715,38.4065018 27.7783337,38.4065018 27.7783337,38.7056618 27.0118523,38.7056618 
				27.0118523,42.3114891 27.7783337,42.3114891 27.7783337,42.6619797 24.3406715,42.6619797 			"/>
			<rect x="31.4691277" y="38.7056618" class="st18" width="0.7045258" height="3.6058266"/>
			<rect x="27.7783337" y="38.7056618" class="st18" width="3.6907945" height="3.6058266"/>
			<rect x="27.0118523" y="38.7056618" class="st18" width="0.7664815" height="3.6058266"/>
		</g>
		<g>
		</g>
	</g>
	<g id="ГРУППА_7_">
		<g>
			<rect x="24.3406715" y="45.9885139" class="st9" width="3.4376609" height="4.255477"/>
			<rect x="31.4691277" y="45.9477997" class="st9" width="3.4376609" height="4.255477"/>
		</g>
		<g>
		</g>
	</g>
	<g id="ГРУППА_5_">
		<g>
			<polygon class="st9" points="31.4691277,29.0232506 34.9067879,29.0232506 34.9067879,33.2787285 31.4691277,33.2787285 
				31.4691277,32.9689484 32.1736526,32.9689484 32.1736526,29.3631229 31.4691277,29.3631229 			"/>
			<polygon class="st9" points="24.3406715,29.0639648 27.7783337,29.0639648 27.7783337,29.3631229 27.0118523,29.3631229 
				27.0118523,32.9689484 27.7783337,32.9689484 27.7783337,33.3194427 24.3406715,33.3194427 			"/>
			<rect x="31.4691277" y="29.3631229" class="st18" width="0.7045258" height="3.6058266"/>
			<rect x="27.7783337" y="29.3631229" class="st18" width="3.6907945" height="3.6058266"/>
			<rect x="27.0118523" y="29.3631229" class="st18" width="0.7664815" height="3.6058266"/>
		</g>
		<g>
		</g>
	</g>
	<g id="ГРУППА_6_">
		<g>
			<polygon class="st9" points="31.4691277,20.3160172 34.9067879,20.3160172 34.9067879,24.5714931 31.4691277,24.5714931 
				31.4691277,24.2617149 32.1736526,24.2617149 32.1736526,20.6558876 31.4691277,20.6558876 			"/>
			<polygon class="st9" points="24.3406715,20.3567295 27.7783337,20.3567295 27.7783337,20.6558876 27.0118523,20.6558876 
				27.0118523,24.2617149 27.7783337,24.2617149 27.7783337,24.6122074 24.3406715,24.6122074 			"/>
			<rect x="31.4691277" y="20.6558876" class="st18" width="0.7045258" height="3.6058266"/>
			<rect x="27.7783337" y="20.6558876" class="st18" width="3.6907945" height="3.6058266"/>
			<rect x="27.0118523" y="20.6558876" class="st18" width="0.7664815" height="3.6058266"/>
		</g>
		<g>
		</g>
	</g>
	<g>
	</g>
	<g>
	</g>
	<g>
	</g>
	<g>
	</g>
	<g>
	</g>
</g>
</svg>
