<?xml version="1.0" encoding="utf-8"?>
<!-- Generator: Adobe Illustrator 23.0.2, SVG Export Plug-In . SVG Version: 6.00 Build 0)  -->
<svg version="1.1" xmlns="http://www.w3.org/2000/svg" xmlns:xlink="http://www.w3.org/1999/xlink" x="0px" y="0px"
	 viewBox="0 0 85.039978 85.039978" style="enable-background:new 0 0 85.039978 85.039978;" xml:space="preserve">
<style type="text/css">
	.st0{fill:#19191A;}
	.st1{fill:#9E9B9C;}
	.st2{fill:#CEC7BD;}
	.st3{fill:#E5E4E0;}
	.st4{fill:#918C84;}
	.st5{fill:none;stroke:#F6F6F6;stroke-width:0.75;stroke-miterlimit:10;}
	.st6{fill:none;stroke:#F6F6F6;stroke-width:0.6790737;stroke-miterlimit:10;}
	.st7{fill:#151616;}
	.st8{fill:#CBC5BA;}
	.st9{fill:#35322E;}
	.st10{fill:#B3B3B2;}
	.st11{fill:url(#SVGID_1_);}
	.st12{fill:#B5B4B3;}
	.st13{fill:url(#SVGID_2_);}
	.st14{fill:url(#SVGID_3_);}
	.st15{fill:none;stroke:#FFFFFF;stroke-miterlimit:10;}
	.st16{fill:#FFFFFF;}
	.st17{fill:#0E0F0F;}
	.st18{fill:#DB924D;stroke:#656465;stroke-width:0.0232234;stroke-miterlimit:10;}
	.st19{fill:#E4AB55;stroke:#B2B2B2;stroke-width:0.0252307;stroke-miterlimit:10;}
	.st20{fill:none;stroke:#808080;stroke-width:0.0114155;stroke-miterlimit:10;}
	.st21{fill:#CDC7BC;}
	.st22{display:none;fill:#D2D94E;stroke:#EFE94A;stroke-width:0.25;stroke-miterlimit:10;}
	.st23{fill:#EBAD4F;}
	.st24{fill:#D24A44;}
	.st25{opacity:0.37;fill:none;stroke:#FFFFFF;stroke-width:0.5;stroke-miterlimit:10;}
	.st26{fill:none;stroke:#FFFFFF;stroke-width:0.5;stroke-miterlimit:10;}
</style>
<g id="Слой_1">
	<g>
		<g id="Фон">
			<path class="st0" d="M0,0v85.039978h85.039978V0H0z M9.9212646,79.5117798c-2.4264526,0-4.3936768-1.9667969-4.3936768-4.3926392
				c0-2.4279175,1.9672241-4.3947754,4.3936768-4.3947754s4.3936768,1.9668579,4.3936768,4.3947754
				C14.3149414,77.5449829,12.3477173,79.5117798,9.9212646,79.5117798z M9.9223022,14.3149414
				c-2.4279175,0-4.3947144-1.9667969-4.3947144-4.3927002c0-2.4279175,1.9667969-4.3947144,4.3947144-4.3947144
				c2.4258423,0,4.3926392,1.9667969,4.3926392,4.3947144C14.3149414,12.3481445,12.3481445,14.3149414,9.9223022,14.3149414z
				 M75.1170654,79.5117798c-2.4258423,0-4.3926392-1.968811-4.3926392-4.3947144
				c0-2.4258423,1.9667969-4.3927002,4.3926392-4.3927002c2.4279175,0,4.3947754,1.9668579,4.3947754,4.3927002
				C79.5118408,77.5429688,77.5449829,79.5117798,75.1170654,79.5117798z M75.1191406,14.3149414
				c-2.4279175,0-4.3947144-1.9667969-4.3947144-4.3927002c0-2.4279175,1.9667969-4.3947144,4.3947144-4.3947144
				c2.4258423,0,4.3927002,1.9667969,4.3927002,4.3947144C79.5118408,12.3481445,77.5449829,14.3149414,75.1191406,14.3149414z"/>
			<path class="st1" d="M75.118103,3.9458008c-3.300293,0-5.9754028,2.6751709-5.9754028,5.9754639
				c0,3.3002319,2.6751099,5.9754028,5.9754028,5.9754028s5.9754639-2.6751709,5.9754639-5.9754028
				C81.0935669,6.6209717,78.418396,3.9458008,75.118103,3.9458008z M75.1191406,14.3149414
				c-2.4279175,0-4.3947144-1.9667969-4.3947144-4.3927002c0-2.4279175,1.9667969-4.3947144,4.3947144-4.3947144
				c2.4258423,0,4.3927002,1.9667969,4.3927002,4.3947144C79.5118408,12.3481445,77.5449829,14.3149414,75.1191406,14.3149414z"/>
			<path class="st1" d="M75.118103,69.1426392c-3.2987671,0-5.9754028,2.6751709-5.9754028,5.9754639
				s2.6766357,5.9754028,5.9754028,5.9754028c3.300293,0,5.9754639-2.6751099,5.9754639-5.9754028
				S78.418396,69.1426392,75.118103,69.1426392z M75.1170654,79.5117798c-2.4258423,0-4.3926392-1.968811-4.3926392-4.3947144
				c0-2.4258423,1.9667969-4.3927002,4.3926392-4.3927002c2.4279175,0,4.3947754,1.9668579,4.3947754,4.3927002
				C79.5118408,77.5429688,77.5449829,79.5117798,75.1170654,79.5117798z"/>
			<path class="st1" d="M9.9212646,69.1426392c-3.300293,0-5.9754639,2.6751709-5.9754639,5.9754639
				s2.6751709,5.9754028,5.9754639,5.9754028s5.9754028-2.6751099,5.9754028-5.9754028S13.2215576,69.1426392,9.9212646,69.1426392z
				 M9.9212646,79.5117798c-2.4264526,0-4.3936768-1.9667969-4.3936768-4.3926392
				c0-2.4279175,1.9672241-4.3947754,4.3936768-4.3947754s4.3936768,1.9668579,4.3936768,4.3947754
				C14.3149414,77.5449829,12.3477173,79.5117798,9.9212646,79.5117798z"/>
			<path class="st1" d="M9.9212646,3.9458008c-3.2877808,0-5.9527588,2.6751709-5.9527588,5.9754639
				c0,3.3002319,2.664978,5.9754028,5.9527588,5.9754028c3.2877197,0,5.9527588-2.6751709,5.9527588-5.9754028
				C15.8740234,6.6209717,13.2089844,3.9458008,9.9212646,3.9458008z M9.9223022,14.3149414
				c-2.4279175,0-4.3947144-1.9667969-4.3947144-4.3927002c0-2.4279175,1.9667969-4.3947144,4.3947144-4.3947144
				c2.4258423,0,4.3926392,1.9667969,4.3926392,4.3947144C14.3149414,12.3481445,12.3481445,14.3149414,9.9223022,14.3149414z"/>
		</g>
		<g id="Колодка">
			<path class="st2" d="M30.0972519,76.39431c0,1.2273636-1.0018463,2.2224731-2.2397385,2.2224731
				s-2.2415428-0.9951096-2.2415428-2.2224731s1.0036507-2.2224731,2.2415428-2.2224731S30.0972519,75.1669464,30.0972519,76.39431z
				"/>
			<g>
				<path class="st3" d="M35.5475693,81.536972c0.359375,0,0.640625,0.0810547,0.8447266,0.2441406
					c0.2050781,0.1630859,0.3066406,0.3876953,0.3066406,0.6748047c0,0.1582031-0.0429688,0.2958984-0.1279297,0.4121094
					c-0.0859375,0.1162109-0.2109375,0.2099609-0.3759766,0.2822266c0.1865234,0.0546875,0.3212891,0.1455078,0.4033203,0.2724609
					c0.0810547,0.1269531,0.1220703,0.2841797,0.1220703,0.4726563v0.1591797c0,0.0693359,0.0136719,0.1220703,0.0419922,0.1601563
					c0.0273438,0.0380859,0.0732422,0.0605469,0.1367188,0.0683594l0.078125,0.0107422v0.3789063h-0.328125
					c-0.2070313,0-0.3525391-0.0556641-0.4365234-0.1660156s-0.1259766-0.2529297-0.1259766-0.4287109v-0.1787109
					c0-0.1523438-0.0410156-0.2714844-0.1230469-0.3583984s-0.1972656-0.1328125-0.3466797-0.1367188h-0.5185547v0.8271484
					l0.3388672,0.0644531v0.3769531h-1.3105469v-0.3769531l0.3369141-0.0644531v-2.2509766l-0.3369141-0.0644531V81.536972
					h0.3369141H35.5475693z M35.0983505,82.9197845h0.4384766c0.1767578,0,0.3095703-0.0380859,0.3974609-0.1123047
					c0.0888672-0.0742188,0.1328125-0.1826172,0.1328125-0.3232422s-0.0439453-0.2529297-0.1318359-0.3369141
					s-0.2167969-0.1259766-0.3876953-0.1259766h-0.4492188V82.9197845z"/>
				<path class="st3" d="M38.4587021,81.536972v0.3789063l-0.3388672,0.0644531v1.6367188
					c0,0.2070313,0.0556641,0.3613281,0.1679688,0.4648438c0.1123047,0.1025391,0.2666016,0.1533203,0.4619141,0.1533203
					c0.1982422,0,0.3544922-0.0507813,0.4667969-0.1523438c0.1132813-0.1025391,0.1699219-0.2578125,0.1699219-0.4658203v-1.6367188
					l-0.3369141-0.0644531V81.536972h1.3095703v0.3789063l-0.3388672,0.0644531v1.6367188
					c0,0.3525391-0.1162109,0.6230469-0.3505859,0.8144531c-0.2333984,0.1914063-0.5410156,0.2861328-0.9199219,0.2861328
					c-0.3779297,0-0.6835938-0.0947266-0.9160156-0.2861328s-0.3486328-0.4619141-0.3486328-0.8144531v-1.6367188
					l-0.3359375-0.0644531V81.536972h0.3359375h0.6347656H38.4587021z"/>
				<path class="st3" d="M42.9489365,82.5379486h-0.4755859l-0.0830078-0.4306641
					c-0.0546875-0.0341797-0.1347656-0.0644531-0.2402344-0.0898438c-0.1064453-0.0263672-0.21875-0.0390625-0.3369141-0.0390625
					c-0.1738281,0-0.3085938,0.0361328-0.4033203,0.1083984s-0.1425781,0.1660156-0.1425781,0.28125
					c0,0.1064453,0.0498047,0.1933594,0.1494141,0.2617188c0.0986328,0.0683594,0.2705078,0.140625,0.5136719,0.2167969
					c0.3486328,0.0957031,0.6132813,0.2226563,0.7939453,0.3808594s0.2705078,0.3652344,0.2705078,0.6220703
					c0,0.2685547-0.1074219,0.4804688-0.3212891,0.6357422c-0.2148438,0.1552734-0.4970703,0.2324219-0.8476563,0.2324219
					c-0.2509766,0-0.4765625-0.0390625-0.6787109-0.1181641s-0.3701172-0.1884766-0.5048828-0.3271484v-0.6552734h0.4902344
					l0.0673828,0.4462891c0.0644531,0.0517578,0.1503906,0.0947266,0.2597656,0.1279297
					c0.109375,0.0341797,0.2314453,0.0507813,0.3662109,0.0507813c0.1738281,0,0.3056641-0.0351563,0.3964844-0.1054688
					s0.1357422-0.1650391,0.1357422-0.2822266c0-0.1210938-0.0429688-0.2177734-0.1289063-0.2910156
					c-0.0869141-0.0732422-0.2373047-0.1416016-0.453125-0.2070313c-0.375-0.1074219-0.6591797-0.2353516-0.8515625-0.3828125
					c-0.1923828-0.1484375-0.2890625-0.3505859-0.2890625-0.6074219c0-0.2539063,0.1083984-0.4619141,0.3261719-0.6240234
					c0.2167969-0.1611328,0.4902344-0.2441406,0.8183594-0.2480469c0.2431641,0,0.4648438,0.0361328,0.6650391,0.109375
					s0.3681641,0.1708984,0.5039063,0.2929688V82.5379486z"/>
				<path class="st3" d="M45.6471786,82.5379486h-0.4746094l-0.0839844-0.4306641
					c-0.0546875-0.0341797-0.1347656-0.0644531-0.2402344-0.0898438c-0.1054688-0.0263672-0.21875-0.0390625-0.3378906-0.0390625
					c-0.1738281,0-0.3066406,0.0361328-0.4023438,0.1083984c-0.0947266,0.0722656-0.1425781,0.1660156-0.1425781,0.28125
					c0,0.1064453,0.0507813,0.1933594,0.1494141,0.2617188s0.2705078,0.140625,0.5146484,0.2167969
					c0.3476563,0.0957031,0.6132813,0.2226563,0.7929688,0.3808594s0.2714844,0.3652344,0.2714844,0.6220703
					c0,0.2685547-0.1074219,0.4804688-0.3222656,0.6357422s-0.4960938,0.2324219-0.8476563,0.2324219
					c-0.25,0-0.4765625-0.0390625-0.6787109-0.1181641s-0.3701172-0.1884766-0.5048828-0.3271484v-0.6552734h0.4902344
					l0.0673828,0.4462891c0.0644531,0.0517578,0.1513672,0.0947266,0.2607422,0.1279297
					c0.109375,0.0341797,0.2304688,0.0507813,0.3652344,0.0507813c0.1738281,0,0.3066406-0.0351563,0.3964844-0.1054688
					s0.1367188-0.1650391,0.1367188-0.2822266c0-0.1210938-0.0429688-0.2177734-0.1308594-0.2910156
					c-0.0859375-0.0732422-0.2363281-0.1416016-0.4511719-0.2070313c-0.3759766-0.1074219-0.6601563-0.2353516-0.8525391-0.3828125
					c-0.1923828-0.1484375-0.2890625-0.3505859-0.2890625-0.6074219c0-0.2539063,0.1083984-0.4619141,0.3261719-0.6240234
					c0.2167969-0.1611328,0.4892578-0.2441406,0.8193359-0.2480469c0.2421875,0,0.4648438,0.0361328,0.6640625,0.109375
					s0.3671875,0.1708984,0.5039063,0.2929688V82.5379486z"/>
				<path class="st3" d="M45.9401474,81.9158783V81.536972h1.3105469v0.3789063l-0.3388672,0.0644531v2.2509766l0.3388672,0.0644531
					v0.3769531h-1.3105469v-0.3769531l0.3388672-0.0644531v-2.2509766L45.9401474,81.9158783z"/>
				<path class="st3" d="M47.4587021,84.2957611l0.2265625-0.0322266l0.9619141-2.7265625h0.6494141l0.9560547,2.7265625
					l0.2255859,0.0322266v0.3769531h-1.0771484v-0.3769531l0.2197266-0.0390625l-0.1396484-0.4306641h-1.0253906
					l-0.1386719,0.4306641l0.2197266,0.0390625v0.3769531h-1.078125V84.2957611z M48.606163,83.3631439h0.7255859
					l-0.3564453-1.1044922h-0.0126953L48.606163,83.3631439z"/>
			</g>
			<ellipse class="st4" cx="27.8566113" cy="76.39431" rx="1.5316002" ry="1.5185714"/>
			<path class="st5" d="M45.3548813,65.6086121"/>
			<path class="st2" d="M37.3255997,76.39431c0,1.2273636-1.0018463,2.2224731-2.2397385,2.2224731
				c-1.237896,0-2.2415428-0.9951096-2.2415428-2.2224731s1.0036469-2.2224731,2.2415428-2.2224731
				C36.3237534,74.1718369,37.3255997,75.1669464,37.3255997,76.39431z"/>
			<ellipse class="st4" cx="35.0849571" cy="76.39431" rx="1.5316002" ry="1.5185714"/>
			<path class="st2" d="M44.5255966,76.39431c0,1.2273636-1.0018463,2.2224731-2.2397385,2.2224731
				s-2.2415428-0.9951096-2.2415428-2.2224731s1.0036507-2.2224731,2.2415428-2.2224731S44.5255966,75.1669464,44.5255966,76.39431z
				"/>
			<ellipse class="st4" cx="42.2849579" cy="76.39431" rx="1.5316002" ry="1.5185714"/>
			<path class="st2" d="M51.1130257,74.7653885c1.5395126,2.0229111-0.1709824,4.2713013-2.1831665,3.7839966
				c-0.7743721-0.1875305-1.4096413-0.8210754-1.5987854-1.5950546
				C46.8394775,74.9427032,49.0885391,73.2249908,51.1130257,74.7653885z"/>
			<ellipse class="st4" cx="49.4849586" cy="76.39431" rx="1.5316002" ry="1.5185714"/>
			<path class="st2" d="M58.3130264,74.7653885c1.5395126,2.0229111-0.1709862,4.2713013-2.1831703,3.7840042
				c-0.7743683-0.1875381-1.4096413-0.8210831-1.5987816-1.5950623
				C54.0394783,74.9427032,56.2885399,73.2249908,58.3130264,74.7653885z"/>
			<ellipse class="st4" cx="56.6849556" cy="76.39431" rx="1.5316002" ry="1.5185714"/>
			<g>
				<g>
					<path class="st3" d="M47.8376083,72.9061127v-0.5273438l1.6772461-2.0703125
						c0.2998047-0.3720703,0.503418-0.6679688,0.6098633-0.8867188s0.1601563-0.4423828,0.1601563-0.671875
						c0-0.2841797-0.0751953-0.5224609-0.2250977-0.7167969s-0.3481445-0.2910156-0.5942383-0.2910156
						c-0.3540039,0-0.6142578,0.1005859-0.7802734,0.3007813c-0.1665039,0.2001953-0.25,0.484375-0.25,0.8515625h-0.6640625
						l-0.0073242-0.0234375c-0.0117188-0.4892578,0.1342773-0.9013672,0.4379883-1.234375
						c0.3032227-0.3330078,0.7246094-0.5,1.2636719-0.5c0.4619141,0,0.8291016,0.1494141,1.1020508,0.4472656
						s0.409668,0.6777344,0.409668,1.1386719c0,0.3095703-0.0825195,0.6201172-0.2480469,0.9296875
						c-0.1650391,0.3095703-0.3974609,0.6445313-0.6977539,1.0039063l-1.3461914,1.6289063l0.0068359,0.0195313h1.8173828
						l0.0566406-0.6523438h0.5869141v1.2539063H47.8376083z"/>
				</g>
			</g>
			<g>
				<path class="st3" d="M41.4831161,67.7142181l-0.4672852,0.0820313l1.1459961,3.6953125l0.1162109,0.4492188h0.0209961
					l0.1157227-0.4492188l1.1425781-3.6992188l-0.4604492-0.078125v-0.4960938h1.6137695v0.4960938l-0.4111328,0.0625
					l-1.7158203,5.1289063h-0.5942383l-1.715332-5.1289063l-0.4082031-0.0625v-0.4960938h1.6171875V67.7142181z"/>
			</g>
			<g>
				<path class="st3" d="M36.9713974,72.2610931c-0.1503906,0.1748047-0.3720703,0.3388672-0.6650391,0.4941406
					s-0.6738281,0.2324219-1.1425781,0.2324219c-0.6835938,0-1.2421875-0.2666016-1.6748047-0.8007813
					s-0.6484375-1.2265625-0.6484375-2.078125v-0.09375c0-0.8564453,0.2138672-1.5507813,0.6416016-2.0820313
					s0.9960938-0.796875,1.7070313-0.796875c0.3789063,0,0.7128906,0.0654297,1,0.1972656s0.5292969,0.3056641,0.7255859,0.5214844
					v1.03125h-0.4853516l-0.1679688-0.7851563c-0.1152344-0.1044922-0.2539063-0.1904297-0.4169922-0.2578125
					s-0.3583984-0.1015625-0.5849609-0.1015625c-0.5537109,0-0.9794922,0.2099609-1.2783203,0.6308594
					s-0.4482422,0.9658203-0.4482422,1.6347656v0.1015625c0,0.6796875,0.1445313,1.2294922,0.4345703,1.6484375
					c0.2890625,0.4189453,0.6884766,0.6289063,1.1962891,0.6289063c0.2792969,0,0.5078125-0.0322266,0.6855469-0.0976563
					c0.1787109-0.0654297,0.3212891-0.1367188,0.4296875-0.2148438v-1.2460938l-0.8408203-0.0390625v-0.5664063h1.5332031
					V72.2610931z"/>
			</g>
			<g>
				<path class="st3" d="M26.7985458,72.4139252l0.7910156-0.109375v-4.2617188l-0.8051758,0.015625v-0.4804688l1.4980469-0.359375
					v5.0859375l0.7871094,0.109375v0.4921875h-2.2709961V72.4139252z"/>
			</g>
			<ellipse class="st4" cx="27.8566113" cy="76.39431" rx="1.5316002" ry="1.5185714"/>
			<g>
				<path class="st3" d="M56.0168076,69.7059174h0.6044922c0.3071289,0,0.5244141-0.0849609,0.6523438-0.2558594
					c0.1274414-0.1708984,0.1914063-0.4082031,0.1914063-0.7128906c0-0.3251953-0.0727539-0.5732422-0.2177734-0.7421875
					c-0.1455078-0.1689453-0.3598633-0.2539063-0.6435547-0.2539063c-0.2695313,0-0.4858398,0.0878906-0.6484375,0.2636719
					c-0.1630859,0.1757813-0.2446289,0.4091797-0.2446289,0.7011719h-0.6645508l-0.0068359-0.0234375
					c-0.0117188-0.4296875,0.128418-0.7949219,0.4199219-1.0957031c0.2919922-0.3007813,0.6733398-0.4511719,1.1445313-0.4511719
					c0.4736328,0,0.8505859,0.1396484,1.1318359,0.4199219s0.421875,0.6787109,0.421875,1.1972656
					c0,0.234375-0.0634766,0.4677734-0.1914063,0.7011719s-0.3193359,0.4111328-0.574707,0.5332031
					c0.3071289,0.1123047,0.5244141,0.2880859,0.6518555,0.5273438c0.1279297,0.2392578,0.1918945,0.5078125,0.1918945,0.8046875
					c0,0.5185547-0.152832,0.9257813-0.4589844,1.2226563c-0.3056641,0.296875-0.6967773,0.4453125-1.1723633,0.4453125
					c-0.46875,0-0.8554688-0.1396484-1.1601563-0.4199219s-0.4511719-0.6591797-0.4394531-1.1386719l0.0107422-0.0234375h0.6606445
					c0,0.2998047,0.0825195,0.5380859,0.2480469,0.7148438c0.1650391,0.1767578,0.3920898,0.265625,0.6801758,0.265625
					c0.2929688,0,0.5224609-0.0888672,0.6889648-0.265625s0.2495117-0.4384766,0.2495117-0.7851563
					c0-0.3515625-0.0737305-0.6103516-0.2211914-0.7773438c-0.1479492-0.1669922-0.3808594-0.25-0.699707-0.25h-0.6044922
					V69.7059174z"/>
			</g>
			<line class="st5" x1="53.1749344" y1="80.2982788" x2="53.1816292" y2="65.4208374"/>
			<line class="st5" x1="45.8991013" y1="65.4255753" x2="45.8991013" y2="80.253952"/>
			<line class="st5" x1="38.6625595" y1="80.2369461" x2="38.6625557" y2="65.4096298"/>
			<line class="st5" x1="31.3894939" y1="65.4208374" x2="31.3894939" y2="80.2982788"/>
			<polygon class="st6" points="60.4146423,65.4311829 60.4146423,80.3038864 24.1529503,80.3038864 24.1529503,65.4217834 			"/>
			<rect x="17.4474373" y="65.0800171" class="st3" width="5.7055125" height="6.2663264"/>
			<g>
				<path class="st7" d="M20.2819443,66.0809174c0.5615234,0,1.0131836,0.171875,1.3549805,0.5136719
					c0.3417969,0.34375,0.5126953,0.7861328,0.5126953,1.3291016v0.5830078c0,0.5449219-0.1708984,0.9882813-0.5126953,1.328125
					c-0.3417969,0.3417969-0.793457,0.5117188-1.3549805,0.5117188h-1.8022461v-0.3691406l0.4814453-0.0820313v-3.3603516
					l-0.4814453-0.0820313v-0.3720703h0.4814453H20.2819443z M19.5431747,66.5350189v3.3603516h0.7387695
					c0.3979492,0,0.7114258-0.1298828,0.940918-0.3896484s0.3442383-0.5927734,0.3442383-0.9990234v-0.5888672
					c0-0.4023438-0.1147461-0.7333984-0.3442383-0.9931641s-0.5429688-0.3896484-0.940918-0.3896484H19.5431747z"/>
			</g>
		</g>
		<g id="Резистор">
			<g id="XMLID_20_">
				<g>
					<rect x="12.0905666" y="22.8591461" class="st8" width="3.4376609" height="4.255477"/>
				</g>
				<g>
				</g>
			</g>
			<g id="XMLID_17_">
				<g>
					<rect x="4.9621115" y="22.8998585" class="st8" width="3.4376609" height="4.255477"/>
				</g>
				<g>
				</g>
			</g>
			<g id="XMLID_8_">
				<g>
					<rect x="7.6334825" y="23.198967" class="st9" width="5.1611581" height="3.6058266"/>
				</g>
				<g>
				</g>
			</g>
			<g>
				<path class="st10" d="M11.2648544,24.457386h0.6967773v0.1313477h-0.2680664v0.862793h0.2680664v0.1171875
					c-0.0361328,0-0.0751953,0.003418-0.1166992,0.0092773s-0.0727539,0.0146484-0.0942383,0.0263672
					c-0.0263672,0.0141602-0.0473633,0.0327148-0.0625,0.0546875c-0.015625,0.0224609-0.0244141,0.0522461-0.0263672,0.0898438
					h-0.1342773v-1.1601563h-0.2626953V24.457386z"/>
				<path class="st10" d="M10.2448349,25.101429c0-0.230957,0.0361328-0.4008789,0.1083984-0.5087891
					s0.1845703-0.1621094,0.3369141-0.1621094c0.1542969,0,0.2670898,0.0546875,0.3383789,0.1640625
					c0.0712891,0.1098633,0.1064453,0.277832,0.1064453,0.5048828c0,0.2290039-0.0356445,0.3979492-0.1079102,0.5068359
					c-0.0717773,0.109375-0.184082,0.1640625-0.3369141,0.1640625c-0.1542969,0-0.2670898-0.0556641-0.3383789-0.1665039
					S10.2448349,25.3255501,10.2448349,25.101429z M10.472374,24.7088509
					c-0.0205078,0.046875-0.0341797,0.1015625-0.0410156,0.1645508c-0.0073242,0.0634766-0.0107422,0.1391602-0.0107422,0.2280273
					c0,0.0874023,0.003418,0.1635742,0.0107422,0.2280273c0.0068359,0.0644531,0.0209961,0.1191406,0.0419922,0.1640625
					c0.0200195,0.0444336,0.0473633,0.078125,0.0825195,0.1005859c0.034668,0.0224609,0.0795898,0.0336914,0.1342773,0.0336914
					c0.0541992,0,0.0991211-0.0112305,0.1342773-0.0336914c0.0356445-0.0224609,0.0634766-0.0566406,0.0844727-0.1020508
					c0.0195313-0.0424805,0.0327148-0.0981445,0.0400391-0.1669922c0.0073242-0.0683594,0.0107422-0.1435547,0.0107422-0.2255859
					c0-0.0898438-0.0029297-0.1650391-0.0092773-0.2255859s-0.0200195-0.1147461-0.0410156-0.1625977
					c-0.0185547-0.0449219-0.0458984-0.0791016-0.0805664-0.1025391c-0.034668-0.0239258-0.0810547-0.0356445-0.1386719-0.0356445
					c-0.0541992,0-0.0991211,0.0112305-0.1347656,0.0336914S10.4919052,24.6634407,10.472374,24.7088509z"/>
				<path class="st10" d="M9.2961044,25.101429c0-0.230957,0.0361328-0.4008789,0.1083984-0.5087891
					s0.1845703-0.1621094,0.3369141-0.1621094c0.1542969,0,0.2670898,0.0546875,0.3383789,0.1640625
					c0.0712891,0.1098633,0.1064453,0.277832,0.1064453,0.5048828c0,0.2290039-0.0356445,0.3979492-0.1079102,0.5068359
					c-0.0717773,0.109375-0.184082,0.1640625-0.3369141,0.1640625c-0.1542969,0-0.2670898-0.0556641-0.3383789-0.1665039
					S9.2961044,25.3255501,9.2961044,25.101429z M9.5236435,24.7088509
					c-0.0205078,0.046875-0.0341797,0.1015625-0.0410156,0.1645508c-0.0073242,0.0634766-0.0107422,0.1391602-0.0107422,0.2280273
					c0,0.0874023,0.003418,0.1635742,0.0107422,0.2280273c0.0068359,0.0644531,0.0209961,0.1191406,0.0419922,0.1640625
					c0.0200195,0.0444336,0.0473633,0.078125,0.0825195,0.1005859c0.034668,0.0224609,0.0795898,0.0336914,0.1342773,0.0336914
					c0.0541992,0,0.0991211-0.0112305,0.1342773-0.0336914c0.0356445-0.0224609,0.0634766-0.0566406,0.0844727-0.1020508
					c0.0195313-0.0424805,0.0327148-0.0981445,0.0400391-0.1669922c0.0073242-0.0683594,0.0107422-0.1435547,0.0107422-0.2255859
					c0-0.0898438-0.0029297-0.1650391-0.0092773-0.2255859s-0.0200195-0.1147461-0.0410156-0.1625977
					c-0.0185547-0.0449219-0.0458984-0.0791016-0.0805664-0.1025391c-0.034668-0.0239258-0.0810547-0.0356445-0.1386719-0.0356445
					c-0.0541992,0-0.0991211,0.0112305-0.1347656,0.0336914S9.5431747,24.6634407,9.5236435,24.7088509z"/>
				<path class="st10" d="M8.4196396,24.457386h0.6967773v0.1313477H8.8483505v0.862793h0.2680664v0.1171875
					c-0.0361328,0-0.0751953,0.003418-0.1166992,0.0092773s-0.0727539,0.0146484-0.0942383,0.0263672
					c-0.0263672,0.0141602-0.0473633,0.0327148-0.0625,0.0546875c-0.015625,0.0224609-0.0244141,0.0522461-0.0263672,0.0898438
					H8.6823349v-1.1601563H8.4196396V24.457386z"/>
			</g>
		</g>
		<g>
			<g id="XMLID_13_">
				<g>
					
						<linearGradient id="SVGID_1_" gradientUnits="userSpaceOnUse" x1="27.2167721" y1="25.2168541" x2="18.6578293" y2="25.2168541">
						<stop  offset="0" style="stop-color:#313131"/>
						<stop  offset="0.0640988" style="stop-color:#313131"/>
						<stop  offset="0.55211" style="stop-color:#313131"/>
						<stop  offset="0.994382" style="stop-color:#666566"/>
					</linearGradient>
					<rect x="18.6578293" y="23.3856354" class="st11" width="8.5589418" height="3.662437"/>
				</g>
				<g>
				</g>
			</g>
			<g id="XMLID_18_">
				<g>
					<rect x="22.2615948" y="27.1534786" class="st1" width="1.6072793" height="2.9478152"/>
				</g>
				<g>
				</g>
			</g>
			<g id="XMLID_16_">
				<g>
					<rect x="19.4542618" y="19.87327" class="st1" width="1.6811564" height="3.5123663"/>
				</g>
				<g>
				</g>
			</g>
			<g id="XMLID_12_">
				<g>
					<rect x="24.9427967" y="19.87327" class="st1" width="1.6811564" height="3.5123663"/>
				</g>
				<g>
				</g>
			</g>
			<g>
				<path class="st12" d="M23.8883896,24.8787727c0-0.1591797,0.0493164-0.2822266,0.1474609-0.3691406
					c0.0981445-0.0859375,0.2294922-0.1289063,0.3945313-0.1289063c0.0395508,0,0.0917969,0.0029297,0.1577148,0.0097656
					s0.1206055,0.015625,0.1650391,0.0253906v0.2255859h-0.0136719c-0.0336914-0.0107422-0.0751953-0.0224609-0.1245117-0.0351563
					c-0.0488281-0.0117188-0.0996094-0.0185547-0.1513672-0.0185547c-0.0756836,0-0.1357422,0.0087891-0.1801758,0.0263672
					c-0.0449219,0.0166016-0.078125,0.0410156-0.0991211,0.0732422c-0.0224609,0.0322266-0.0366211,0.0722656-0.0424805,0.1191406
					c-0.0063477,0.0478516-0.0092773,0.1015625-0.0092773,0.1640625v1.0615234h0.3876953v0.1923828h-0.6318359V24.8787727z"/>
				<path class="st12" d="M22.3815536,25.282093c-0.0390625-0.0351563-0.0717773-0.0791016-0.097168-0.1318359
					c-0.0253906-0.0537109-0.0380859-0.1220703-0.0380859-0.2050781c0-0.0839844,0.0151367-0.1591797,0.0454102-0.2285156
					c0.0307617-0.0693359,0.0732422-0.1298828,0.128418-0.1806641c0.0615234-0.0576172,0.1337891-0.0996094,0.2172852-0.1269531
					s0.1748047-0.0410156,0.2739258-0.0410156c0.1020508,0,0.2021484,0.0126953,0.3007813,0.0361328
					c0.0986328,0.0244141,0.1791992,0.0507813,0.2426758,0.0791016v0.2548828h-0.0185547
					c-0.0698242-0.0458984-0.1518555-0.0830078-0.246582-0.1132813c-0.0942383-0.0302734-0.1855469-0.0449219-0.2734375-0.0449219
					c-0.0517578,0-0.1064453,0.0078125-0.1650391,0.0253906c-0.0581055,0.0166016-0.1054688,0.0419922-0.1416016,0.0751953
					c-0.0375977,0.0361328-0.065918,0.0751953-0.0844727,0.1191406c-0.0180664,0.0429688-0.0273438,0.0976563-0.0273438,0.1630859
					s0.0102539,0.1191406,0.03125,0.1621094s0.0498047,0.0761719,0.0869141,0.1005859
					c0.0366211,0.0253906,0.081543,0.0429688,0.1342773,0.0517578c0.0522461,0.0097656,0.1088867,0.0146484,0.1699219,0.0146484
					h0.1108398v0.2021484h-0.0864258c-0.1245117,0-0.2241211,0.0263672-0.2983398,0.078125
					c-0.074707,0.0517578-0.1118164,0.1269531-0.1118164,0.2265625c0,0.0439453,0.0097656,0.0820313,0.0283203,0.1152344
					c0.019043,0.0332031,0.0454102,0.0595703,0.0791016,0.0810547c0.0351563,0.0214844,0.0727539,0.0361328,0.1132813,0.0439453
					c0.0400391,0.0078125,0.0859375,0.0126953,0.1367188,0.0126953c0.078125,0,0.1611328-0.0146484,0.2485352-0.0419922
					c0.0878906-0.0273438,0.1708984-0.0664063,0.2490234-0.1171875h0.012207v0.2548828
					c-0.0581055,0.0292969-0.1362305,0.0546875-0.2333984,0.0791016s-0.1914063,0.0361328-0.2827148,0.0361328
					c-0.0893555,0-0.1679688-0.0078125-0.2363281-0.0244141s-0.1298828-0.0419922-0.1845703-0.078125
					c-0.0595703-0.0390625-0.1040039-0.0869141-0.1342773-0.1416016c-0.0307617-0.0556641-0.0458984-0.1201172-0.0458984-0.1943359
					c0-0.1005859,0.0361328-0.1894531,0.1079102-0.2646484s0.1567383-0.1230469,0.2543945-0.1425781v-0.0166016
					c-0.0395508-0.0068359-0.0844727-0.0205078-0.1357422-0.0410156
					C22.4601669,25.3387337,22.4171982,25.3123665,22.3815536,25.282093z"/>
				<path class="st12" d="M20.512413,26.2244759l0.6450195-1.0205078v-0.7978516h0.2441406v0.7714844l0.6479492,1.046875h-0.2700195
					l-0.5009766-0.8134766l-0.5063477,0.8134766H20.512413z"/>
			</g>
		</g>
		<g id="Резистор_1_">
			<g id="XMLID_14_">
				<g>
					<rect x="38.5204926" y="22.8591461" class="st8" width="3.4376609" height="4.255477"/>
				</g>
				<g>
				</g>
			</g>
			<g id="XMLID_11_">
				<g>
					<rect x="31.3920364" y="22.8998585" class="st8" width="3.4376609" height="4.255477"/>
				</g>
				<g>
				</g>
			</g>
			<g id="XMLID_10_">
				<g>
					<rect x="34.0634079" y="23.198967" class="st9" width="5.1611581" height="3.6058266"/>
				</g>
				<g>
				</g>
			</g>
			<g>
				<path class="st10" d="M37.6950302,24.457386h0.6967773v0.1313477h-0.2680664v0.862793h0.2680664v0.1171875
					c-0.0361328,0-0.0751953,0.003418-0.1166992,0.0092773s-0.0727539,0.0146484-0.0942383,0.0263672
					c-0.0263672,0.0141602-0.0473633,0.0327148-0.0625,0.0546875c-0.015625,0.0224609-0.0244141,0.0522461-0.0263672,0.0898438
					h-0.1342773v-1.1601563h-0.2626953V24.457386z"/>
				<path class="st10" d="M36.6750107,25.101429c0-0.230957,0.0361328-0.4008789,0.1083984-0.5087891
					s0.1845703-0.1621094,0.3369141-0.1621094c0.1542969,0,0.2670898,0.0546875,0.3383789,0.1640625
					c0.0712891,0.1098633,0.1064453,0.277832,0.1064453,0.5048828c0,0.2290039-0.0356445,0.3979492-0.1079102,0.5068359
					c-0.0717773,0.109375-0.184082,0.1640625-0.3369141,0.1640625c-0.1542969,0-0.2670898-0.0556641-0.3383789-0.1665039
					S36.6750107,25.3255501,36.6750107,25.101429z M36.9025497,24.7088509
					c-0.0205078,0.046875-0.0341797,0.1015625-0.0410156,0.1645508c-0.0073242,0.0634766-0.0107422,0.1391602-0.0107422,0.2280273
					c0,0.0874023,0.003418,0.1635742,0.0107422,0.2280273c0.0068359,0.0644531,0.0209961,0.1191406,0.0419922,0.1640625
					c0.0200195,0.0444336,0.0473633,0.078125,0.0825195,0.1005859c0.034668,0.0224609,0.0795898,0.0336914,0.1342773,0.0336914
					c0.0541992,0,0.0991211-0.0112305,0.1342773-0.0336914c0.0356445-0.0224609,0.0634766-0.0566406,0.0844727-0.1020508
					c0.0195313-0.0424805,0.0327148-0.0981445,0.0400391-0.1669922c0.0073242-0.0683594,0.0107422-0.1435547,0.0107422-0.2255859
					c0-0.0898438-0.0029297-0.1650391-0.0092773-0.2255859s-0.0200195-0.1147461-0.0410156-0.1625977
					c-0.0185547-0.0449219-0.0458984-0.0791016-0.0805664-0.1025391c-0.034668-0.0239258-0.0810547-0.0356445-0.1386719-0.0356445
					c-0.0541992,0-0.0991211,0.0112305-0.1347656,0.0336914S36.922081,24.6634407,36.9025497,24.7088509z"/>
				<path class="st10" d="M35.7262802,25.101429c0-0.230957,0.0361328-0.4008789,0.1083984-0.5087891
					s0.1845703-0.1621094,0.3369141-0.1621094c0.1542969,0,0.2670898,0.0546875,0.3383789,0.1640625
					c0.0712891,0.1098633,0.1064453,0.277832,0.1064453,0.5048828c0,0.2290039-0.0356445,0.3979492-0.1079102,0.5068359
					c-0.0717773,0.109375-0.184082,0.1640625-0.3369141,0.1640625c-0.1542969,0-0.2670898-0.0556641-0.3383789-0.1665039
					S35.7262802,25.3255501,35.7262802,25.101429z M35.9538193,24.7088509
					c-0.0205078,0.046875-0.0341797,0.1015625-0.0410156,0.1645508c-0.0073242,0.0634766-0.0107422,0.1391602-0.0107422,0.2280273
					c0,0.0874023,0.003418,0.1635742,0.0107422,0.2280273c0.0068359,0.0644531,0.0209961,0.1191406,0.0419922,0.1640625
					c0.0200195,0.0444336,0.0473633,0.078125,0.0825195,0.1005859c0.034668,0.0224609,0.0795898,0.0336914,0.1342773,0.0336914
					c0.0541992,0,0.0991211-0.0112305,0.1342773-0.0336914c0.0356445-0.0224609,0.0634766-0.0566406,0.0844727-0.1020508
					c0.0195313-0.0424805,0.0327148-0.0981445,0.0400391-0.1669922c0.0073242-0.0683594,0.0107422-0.1435547,0.0107422-0.2255859
					c0-0.0898438-0.0029297-0.1650391-0.0092773-0.2255859s-0.0200195-0.1147461-0.0410156-0.1625977
					c-0.0185547-0.0449219-0.0458984-0.0791016-0.0805664-0.1025391c-0.034668-0.0239258-0.0810547-0.0356445-0.1386719-0.0356445
					c-0.0541992,0-0.0991211,0.0112305-0.1347656,0.0336914S35.9733505,24.6634407,35.9538193,24.7088509z"/>
				<path class="st10" d="M34.8498154,24.457386h0.6967773v0.1313477h-0.2680664v0.862793h0.2680664v0.1171875
					c-0.0361328,0-0.0751953,0.003418-0.1166992,0.0092773s-0.0727539,0.0146484-0.0942383,0.0263672
					c-0.0263672,0.0141602-0.0473633,0.0327148-0.0625,0.0546875c-0.015625,0.0224609-0.0244141,0.0522461-0.0263672,0.0898438
					h-0.1342773v-1.1601563h-0.2626953V24.457386z"/>
			</g>
		</g>
		<g>
			<g id="XMLID_9_">
				<g>
					
						<linearGradient id="SVGID_2_" gradientUnits="userSpaceOnUse" x1="53.646698" y1="25.2168541" x2="45.0877533" y2="25.2168541">
						<stop  offset="0" style="stop-color:#313131"/>
						<stop  offset="0.0640988" style="stop-color:#313131"/>
						<stop  offset="0.55211" style="stop-color:#313131"/>
						<stop  offset="0.994382" style="stop-color:#666566"/>
					</linearGradient>
					<rect x="45.0877533" y="23.3856354" class="st13" width="8.5589418" height="3.662437"/>
				</g>
				<g>
				</g>
			</g>
			<g id="XMLID_7_">
				<g>
					<rect x="48.6915207" y="27.1534786" class="st1" width="1.6072793" height="2.9478152"/>
				</g>
				<g>
				</g>
			</g>
			<g id="XMLID_6_">
				<g>
					<rect x="45.8841858" y="19.87327" class="st1" width="1.6811564" height="3.5123663"/>
				</g>
				<g>
				</g>
			</g>
			<g id="XMLID_5_">
				<g>
					<rect x="51.3727226" y="19.87327" class="st1" width="1.6811564" height="3.5123663"/>
				</g>
				<g>
				</g>
			</g>
			<g>
				<path class="st12" d="M50.3180771,24.8787727c0-0.1591797,0.0493164-0.2822266,0.1474609-0.3691406
					c0.0981445-0.0859375,0.2294922-0.1289063,0.3945313-0.1289063c0.0395508,0,0.0917969,0.0029297,0.1577148,0.0097656
					s0.1206055,0.015625,0.1650391,0.0253906v0.2255859h-0.0136719c-0.0336914-0.0107422-0.0751953-0.0224609-0.1245117-0.0351563
					c-0.0488281-0.0117188-0.0996094-0.0185547-0.1513672-0.0185547c-0.0756836,0-0.1357422,0.0087891-0.1801758,0.0263672
					c-0.0449219,0.0166016-0.078125,0.0410156-0.0991211,0.0732422c-0.0224609,0.0322266-0.0366211,0.0722656-0.0424805,0.1191406
					c-0.0063477,0.0478516-0.0092773,0.1015625-0.0092773,0.1640625v1.0615234h0.3876953v0.1923828h-0.6318359V24.8787727z"/>
				<path class="st12" d="M48.8112411,25.282093c-0.0390625-0.0351563-0.0717773-0.0791016-0.097168-0.1318359
					c-0.0253906-0.0537109-0.0380859-0.1220703-0.0380859-0.2050781c0-0.0839844,0.0151367-0.1591797,0.0454102-0.2285156
					c0.0307617-0.0693359,0.0732422-0.1298828,0.128418-0.1806641c0.0615234-0.0576172,0.1337891-0.0996094,0.2172852-0.1269531
					s0.1748047-0.0410156,0.2739258-0.0410156c0.1020508,0,0.2021484,0.0126953,0.3007813,0.0361328
					c0.0986328,0.0244141,0.1791992,0.0507813,0.2426758,0.0791016v0.2548828h-0.0185547
					c-0.0698242-0.0458984-0.1518555-0.0830078-0.246582-0.1132813c-0.0942383-0.0302734-0.1855469-0.0449219-0.2734375-0.0449219
					c-0.0517578,0-0.1064453,0.0078125-0.1650391,0.0253906c-0.0581055,0.0166016-0.1054688,0.0419922-0.1416016,0.0751953
					c-0.0375977,0.0361328-0.065918,0.0751953-0.0844727,0.1191406c-0.0180664,0.0429688-0.0273438,0.0976563-0.0273438,0.1630859
					s0.0102539,0.1191406,0.03125,0.1621094s0.0498047,0.0761719,0.0869141,0.1005859
					c0.0366211,0.0253906,0.081543,0.0429688,0.1342773,0.0517578c0.0522461,0.0097656,0.1088867,0.0146484,0.1699219,0.0146484
					h0.1108398v0.2021484h-0.0864258c-0.1245117,0-0.2241211,0.0263672-0.2983398,0.078125
					c-0.074707,0.0517578-0.1118164,0.1269531-0.1118164,0.2265625c0,0.0439453,0.0097656,0.0820313,0.0283203,0.1152344
					c0.019043,0.0332031,0.0454102,0.0595703,0.0791016,0.0810547c0.0351563,0.0214844,0.0727539,0.0361328,0.1132813,0.0439453
					c0.0400391,0.0078125,0.0859375,0.0126953,0.1367188,0.0126953c0.078125,0,0.1611328-0.0146484,0.2485352-0.0419922
					c0.0878906-0.0273438,0.1708984-0.0664063,0.2490234-0.1171875h0.012207v0.2548828
					c-0.0581055,0.0292969-0.1362305,0.0546875-0.2333984,0.0791016s-0.1914063,0.0361328-0.2827148,0.0361328
					c-0.0893555,0-0.1679688-0.0078125-0.2363281-0.0244141s-0.1298828-0.0419922-0.1845703-0.078125
					c-0.0595703-0.0390625-0.1040039-0.0869141-0.1342773-0.1416016c-0.0307617-0.0556641-0.0458984-0.1201172-0.0458984-0.1943359
					c0-0.1005859,0.0361328-0.1894531,0.1079102-0.2646484s0.1567383-0.1230469,0.2543945-0.1425781v-0.0166016
					c-0.0395508-0.0068359-0.0844727-0.0205078-0.1357422-0.0410156
					C48.8898544,25.3387337,48.8468857,25.3123665,48.8112411,25.282093z"/>
				<path class="st12" d="M46.9421005,26.2244759l0.6450195-1.0205078v-0.7978516h0.2441406v0.7714844l0.6479492,1.046875
					h-0.2700195l-0.5009766-0.8134766l-0.5063477,0.8134766H46.9421005z"/>
			</g>
		</g>
		<g id="Резистор_2_">
			<g id="XMLID_31_">
				<g>
					<rect x="64.9504166" y="22.8591461" class="st8" width="3.4376609" height="4.255477"/>
				</g>
				<g>
				</g>
			</g>
			<g id="XMLID_30_">
				<g>
					<rect x="57.8219604" y="22.8998585" class="st8" width="3.4376609" height="4.255477"/>
				</g>
				<g>
				</g>
			</g>
			<g id="XMLID_26_">
				<g>
					<rect x="60.4933319" y="23.198967" class="st9" width="5.1611581" height="3.6058266"/>
				</g>
				<g>
				</g>
			</g>
			<g>
				<path class="st10" d="M64.1247177,24.457386h0.6967773v0.1313477h-0.2680664v0.862793h0.2680664v0.1171875
					c-0.0361328,0-0.0751953,0.003418-0.1166992,0.0092773s-0.0727539,0.0146484-0.0942383,0.0263672
					c-0.0263672,0.0141602-0.0473633,0.0327148-0.0625,0.0546875c-0.015625,0.0224609-0.0244141,0.0522461-0.0263672,0.0898438
					H64.387413v-1.1601563h-0.2626953V24.457386z"/>
				<path class="st10" d="M63.1046982,25.101429c0-0.230957,0.0361328-0.4008789,0.1083984-0.5087891
					s0.1845703-0.1621094,0.3369141-0.1621094c0.1542969,0,0.2670898,0.0546875,0.3383789,0.1640625
					c0.0712891,0.1098633,0.1064453,0.277832,0.1064453,0.5048828c0,0.2290039-0.0356445,0.3979492-0.1079102,0.5068359
					c-0.0717773,0.109375-0.184082,0.1640625-0.3369141,0.1640625c-0.1542969,0-0.2670898-0.0556641-0.3383789-0.1665039
					S63.1046982,25.3255501,63.1046982,25.101429z M63.3322372,24.7088509
					c-0.0205078,0.046875-0.0341797,0.1015625-0.0410156,0.1645508c-0.0073242,0.0634766-0.0107422,0.1391602-0.0107422,0.2280273
					c0,0.0874023,0.003418,0.1635742,0.0107422,0.2280273c0.0068359,0.0644531,0.0209961,0.1191406,0.0419922,0.1640625
					c0.0200195,0.0444336,0.0473633,0.078125,0.0825195,0.1005859c0.034668,0.0224609,0.0795898,0.0336914,0.1342773,0.0336914
					c0.0541992,0,0.0991211-0.0112305,0.1342773-0.0336914c0.0356445-0.0224609,0.0634766-0.0566406,0.0844727-0.1020508
					c0.0195313-0.0424805,0.0327148-0.0981445,0.0400391-0.1669922c0.0073242-0.0683594,0.0107422-0.1435547,0.0107422-0.2255859
					c0-0.0898438-0.0029297-0.1650391-0.0092773-0.2255859s-0.0200195-0.1147461-0.0410156-0.1625977
					c-0.0185547-0.0449219-0.0458984-0.0791016-0.0805664-0.1025391c-0.034668-0.0239258-0.0810547-0.0356445-0.1386719-0.0356445
					c-0.0541992,0-0.0991211,0.0112305-0.1347656,0.0336914S63.3517685,24.6634407,63.3322372,24.7088509z"/>
				<path class="st10" d="M62.1559677,25.101429c0-0.230957,0.0361328-0.4008789,0.1083984-0.5087891
					s0.1845703-0.1621094,0.3369141-0.1621094c0.1542969,0,0.2670898,0.0546875,0.3383789,0.1640625
					c0.0712891,0.1098633,0.1064453,0.277832,0.1064453,0.5048828c0,0.2290039-0.0356445,0.3979492-0.1079102,0.5068359
					c-0.0717773,0.109375-0.184082,0.1640625-0.3369141,0.1640625c-0.1542969,0-0.2670898-0.0556641-0.3383789-0.1665039
					S62.1559677,25.3255501,62.1559677,25.101429z M62.3835068,24.7088509
					c-0.0205078,0.046875-0.0341797,0.1015625-0.0410156,0.1645508c-0.0073242,0.0634766-0.0107422,0.1391602-0.0107422,0.2280273
					c0,0.0874023,0.003418,0.1635742,0.0107422,0.2280273c0.0068359,0.0644531,0.0209961,0.1191406,0.0419922,0.1640625
					c0.0200195,0.0444336,0.0473633,0.078125,0.0825195,0.1005859c0.034668,0.0224609,0.0795898,0.0336914,0.1342773,0.0336914
					c0.0541992,0,0.0991211-0.0112305,0.1342773-0.0336914c0.0356445-0.0224609,0.0634766-0.0566406,0.0844727-0.1020508
					c0.0195313-0.0424805,0.0327148-0.0981445,0.0400391-0.1669922c0.0073242-0.0683594,0.0107422-0.1435547,0.0107422-0.2255859
					c0-0.0898438-0.0029297-0.1650391-0.0092773-0.2255859s-0.0200195-0.1147461-0.0410156-0.1625977
					c-0.0185547-0.0449219-0.0458984-0.0791016-0.0805664-0.1025391c-0.034668-0.0239258-0.0810547-0.0356445-0.1386719-0.0356445
					c-0.0541992,0-0.0991211,0.0112305-0.1347656,0.0336914S62.403038,24.6634407,62.3835068,24.7088509z"/>
				<path class="st10" d="M61.2795029,24.457386h0.6967773v0.1313477h-0.2680664v0.862793h0.2680664v0.1171875
					c-0.0361328,0-0.0751953,0.003418-0.1166992,0.0092773s-0.0727539,0.0146484-0.0942383,0.0263672
					c-0.0263672,0.0141602-0.0473633,0.0327148-0.0625,0.0546875c-0.015625,0.0224609-0.0244141,0.0522461-0.0263672,0.0898438
					h-0.1342773v-1.1601563h-0.2626953V24.457386z"/>
			</g>
		</g>
		<g>
			<g id="XMLID_25_">
				<g>
					
						<linearGradient id="SVGID_3_" gradientUnits="userSpaceOnUse" x1="80.076622" y1="25.2168541" x2="71.5176773" y2="25.2168541">
						<stop  offset="0" style="stop-color:#313131"/>
						<stop  offset="0.0640988" style="stop-color:#313131"/>
						<stop  offset="0.55211" style="stop-color:#313131"/>
						<stop  offset="0.994382" style="stop-color:#666566"/>
					</linearGradient>
					<rect x="71.5176773" y="23.3856354" class="st14" width="8.5589418" height="3.662437"/>
				</g>
				<g>
				</g>
			</g>
			<g id="XMLID_24_">
				<g>
					<rect x="75.1214447" y="27.1534786" class="st1" width="1.6072793" height="2.9478152"/>
				</g>
				<g>
				</g>
			</g>
			<g id="XMLID_19_">
				<g>
					<rect x="72.3141098" y="19.87327" class="st1" width="1.6811564" height="3.5123663"/>
				</g>
				<g>
				</g>
			</g>
			<g id="XMLID_15_">
				<g>
					<rect x="77.8026428" y="19.87327" class="st1" width="1.6811564" height="3.5123663"/>
				</g>
				<g>
				</g>
			</g>
			<g>
				<path class="st12" d="M76.7482529,24.8787727c0-0.1591797,0.0493164-0.2822266,0.1474609-0.3691406
					c0.0981445-0.0859375,0.2294922-0.1289063,0.3945313-0.1289063c0.0395508,0,0.0917969,0.0029297,0.1577148,0.0097656
					s0.1206055,0.015625,0.1650391,0.0253906v0.2255859h-0.0136719c-0.0336914-0.0107422-0.0751953-0.0224609-0.1245117-0.0351563
					c-0.0488281-0.0117188-0.0996094-0.0185547-0.1513672-0.0185547c-0.0756836,0-0.1357422,0.0087891-0.1801758,0.0263672
					c-0.0449219,0.0166016-0.078125,0.0410156-0.0991211,0.0732422c-0.0224609,0.0322266-0.0366211,0.0722656-0.0424805,0.1191406
					c-0.0063477,0.0478516-0.0092773,0.1015625-0.0092773,0.1640625v1.0615234h0.3876953v0.1923828h-0.6318359V24.8787727z"/>
				<path class="st12" d="M75.2414169,25.282093c-0.0390625-0.0351563-0.0717773-0.0791016-0.097168-0.1318359
					c-0.0253906-0.0537109-0.0380859-0.1220703-0.0380859-0.2050781c0-0.0839844,0.0151367-0.1591797,0.0454102-0.2285156
					c0.0307617-0.0693359,0.0732422-0.1298828,0.128418-0.1806641c0.0615234-0.0576172,0.1337891-0.0996094,0.2172852-0.1269531
					s0.1748047-0.0410156,0.2739258-0.0410156c0.1020508,0,0.2021484,0.0126953,0.3007813,0.0361328
					c0.0986328,0.0244141,0.1791992,0.0507813,0.2426758,0.0791016v0.2548828h-0.0185547
					c-0.0698242-0.0458984-0.1518555-0.0830078-0.246582-0.1132813c-0.0942383-0.0302734-0.1855469-0.0449219-0.2734375-0.0449219
					c-0.0517578,0-0.1064453,0.0078125-0.1650391,0.0253906c-0.0581055,0.0166016-0.1054688,0.0419922-0.1416016,0.0751953
					c-0.0375977,0.0361328-0.065918,0.0751953-0.0844727,0.1191406c-0.0180664,0.0429688-0.0273438,0.0976563-0.0273438,0.1630859
					s0.0102539,0.1191406,0.03125,0.1621094s0.0498047,0.0761719,0.0869141,0.1005859
					c0.0366211,0.0253906,0.081543,0.0429688,0.1342773,0.0517578c0.0522461,0.0097656,0.1088867,0.0146484,0.1699219,0.0146484
					h0.1108398v0.2021484h-0.0864258c-0.1245117,0-0.2241211,0.0263672-0.2983398,0.078125
					c-0.074707,0.0517578-0.1118164,0.1269531-0.1118164,0.2265625c0,0.0439453,0.0097656,0.0820313,0.0283203,0.1152344
					c0.019043,0.0332031,0.0454102,0.0595703,0.0791016,0.0810547c0.0351563,0.0214844,0.0727539,0.0361328,0.1132813,0.0439453
					c0.0400391,0.0078125,0.0859375,0.0126953,0.1367188,0.0126953c0.078125,0,0.1611328-0.0146484,0.2485352-0.0419922
					c0.0878906-0.0273438,0.1708984-0.0664063,0.2490234-0.1171875h0.012207v0.2548828
					c-0.0581055,0.0292969-0.1362305,0.0546875-0.2333984,0.0791016s-0.1914063,0.0361328-0.2827148,0.0361328
					c-0.0893555,0-0.1679688-0.0078125-0.2363281-0.0244141s-0.1298828-0.0419922-0.1845703-0.078125
					c-0.0595703-0.0390625-0.1040039-0.0869141-0.1342773-0.1416016c-0.0307617-0.0556641-0.0458984-0.1201172-0.0458984-0.1943359
					c0-0.1005859,0.0361328-0.1894531,0.1079102-0.2646484s0.1567383-0.1230469,0.2543945-0.1425781v-0.0166016
					c-0.0395508-0.0068359-0.0844727-0.0205078-0.1357422-0.0410156
					C75.3200302,25.3387337,75.2770615,25.3123665,75.2414169,25.282093z"/>
				<path class="st12" d="M73.3722763,26.2244759l0.6450195-1.0205078v-0.7978516h0.2441406v0.7714844l0.6479492,1.046875
					h-0.2700195l-0.5009766-0.8134766l-0.5063477,0.8134766H73.3722763z"/>
			</g>
		</g>
		<g>
			<polyline class="st15" points="31.8050289,47.200119 53.234951,47.200119 53.234951,32.6454659 31.8050289,32.6454659 
				31.8050289,47.200119 38.9766808,47.2004929 38.9766808,32.6454659 46.1483345,32.6454659 46.1483345,47.2004929 			"/>
			<g>
				<g>
					<g>
						<g>
							<polygon class="st16" points="47.4241562,47.1952438 46.1516953,45.9213181 46.1531601,41.3890915 47.4275742,40.1171188 
								51.9593124,40.1185837 53.2317734,41.3925095 53.2303085,45.924736 51.9573593,47.1952438 							"/>
							<path class="st17" d="M51.9552231,40.1235046l0.6348572,0.6348724l0.6348572,0.6348572v4.527153l-0.5356293,0.5356369
								l-0.7340851,0.7340927h-4.5271606l-0.7340851-0.7340927l-0.5356293-0.5356369v-4.527153l0.6348572-0.6348572
								l0.6348572-0.6348724H51.9552231 M51.9593582,40.1135101h-4.5354309
								c-0.4981537,0.4981461-0.7774353,0.7774353-1.275589,1.275589V45.92453
								c0.4981537,0.4981461,0.7774353,0.7774506,1.275589,1.275589h4.5354309
								c0.4981537-0.4981384,0.7774353-0.7774429,1.275589-1.275589v-4.5354309
								C52.7367935,40.8909454,52.4575119,40.6116562,51.9593582,40.1135101L51.9593582,40.1135101z"/>
						</g>
					</g>
					
						<rect x="48.8078041" y="42.7497253" transform="matrix(-1 -1.224647e-16 1.224647e-16 -1 99.3832855 87.3136292)" class="st18" width="1.7676752" height="1.8141732"/>
					
						<rect x="49.2082939" y="43.1607513" transform="matrix(-1 -1.224647e-16 1.224647e-16 -1 99.3832855 87.3136292)" class="st19" width="0.9666973" height="0.992126"/>
					<line class="st20" x1="50.5754814" y1="44.5639" x2="50.1749916" y2="44.1528778"/>
					<line class="st20" x1="49.2082939" y1="44.1528778" x2="48.8078041" y2="44.5639"/>
					<line class="st20" x1="49.2082939" y1="43.1607513" x2="48.8078041" y2="42.7497253"/>
					<line class="st20" x1="50.1749916" y1="43.1607513" x2="50.5754814" y2="42.7497253"/>
				</g>
			</g>
			<g>
				<g>
					<g>
						<g>
							<polygon class="st16" points="33.0804062,47.1952438 31.8084335,45.9213181 31.8098984,41.3890915 33.0838242,40.1171188 
								37.6160507,40.1185837 38.8880234,41.3925095 38.8865585,45.924736 37.6140976,47.1952438 							"/>
							<path class="st17" d="M37.6119156,40.1235046l0.3557281,0.3557434l0.9139862,0.9139862v4.527153l-1.2697144,1.2697296
								h-4.5271606l-0.7340851-0.7340927l-0.5356293-0.5356369v-4.527153l0.6348572-0.6348572l0.6348572-0.6348724H37.6119156
								 M37.6160507,40.1135101h-4.5354309c-0.4981537,0.4981461-0.7774353,0.7774353-1.275589,1.275589V45.92453
								c0.4981537,0.4981461,0.7774353,0.7774506,1.275589,1.275589h4.5354309
								c0.4981537-0.4981384,0.7774506-0.7774429,1.275589-1.275589v-4.5354309
								C38.3935013,40.8909454,38.1142044,40.6116562,37.6160507,40.1135101L37.6160507,40.1135101z"/>
						</g>
					</g>
					
						<rect x="34.4644966" y="42.7497253" transform="matrix(-1 -1.224647e-16 1.224647e-16 -1 70.6966705 87.3136292)" class="st18" width="1.7676752" height="1.8141732"/>
					
						<rect x="34.8649864" y="43.1607513" transform="matrix(-1 -1.224647e-16 1.224647e-16 -1 70.6966705 87.3136292)" class="st19" width="0.9666973" height="0.992126"/>
					<line class="st20" x1="36.2321739" y1="44.5639" x2="35.8316841" y2="44.1528778"/>
					<line class="st20" x1="34.8649864" y1="44.1528778" x2="34.4644966" y2="44.5639"/>
					<line class="st20" x1="34.8649864" y1="43.1607513" x2="34.4644966" y2="42.7497253"/>
					<line class="st20" x1="35.8316841" y1="43.1607513" x2="36.2321739" y2="42.7497253"/>
				</g>
			</g>
			<g>
				<g>
					<g>
						<g>
							<polygon class="st16" points="40.2522812,47.1957321 38.9803085,45.9213181 38.9817734,41.3895798 40.2556992,40.1171188 
								44.7879257,40.1185837 46.0598984,41.3929977 46.0584335,45.924736 44.7859726,47.1957321 							"/>
							<path class="st17" d="M44.783577,40.1238785l0.8095703,0.8095703l0.4601593,0.4601593v4.5271606l-1.2697296,1.269722
								h-4.5271759l-1.2697144-1.269722v-4.5271606l0.3557281-0.3557281l0.9139862-0.9140015H44.783577 M44.7877121,40.1138763
								h-4.5354462c-0.4981384,0.4981537-0.7774353,0.7774429-1.275589,1.275589v4.5354462
								c0.4981537,0.4981384,0.7774506,0.7774353,1.275589,1.2755737h4.5354462
								c0.4981384-0.4981384,0.7774353-0.7774353,1.275589-1.2755737v-4.5354462
								C45.5651474,40.8913193,45.2858505,40.61203,44.7877121,40.1138763L44.7877121,40.1138763z"/>
						</g>
					</g>
					
						<rect x="41.6361504" y="42.7500992" transform="matrix(-1 -1.224647e-16 1.224647e-16 -1 85.039978 87.3143768)" class="st18" width="1.7676752" height="1.8141732"/>
					
						<rect x="42.0366402" y="43.1611252" transform="matrix(-1 -1.224647e-16 1.224647e-16 -1 85.039978 87.3143768)" class="st19" width="0.9666973" height="0.992126"/>
					<line class="st20" x1="43.4038277" y1="44.5642738" x2="43.0033379" y2="44.1532516"/>
					<line class="st20" x1="42.0366402" y1="44.1532516" x2="41.6361504" y2="44.5642738"/>
					<line class="st20" x1="42.0366402" y1="43.1611252" x2="41.6361504" y2="42.7500992"/>
					<line class="st20" x1="43.0033379" y1="43.1611252" x2="43.4038277" y2="42.7500992"/>
				</g>
			</g>
			<g>
				<path class="st16" d="M37.0656357,38.1658821c-0.1386719,0.1367188-0.3408203,0.2602539-0.6064453,0.3706055
					s-0.6015625,0.1655273-1.0078125,0.1655273c-0.5761719,0-1.0449219-0.1928711-1.40625-0.5786133
					s-0.5419922-0.887207-0.5419922-1.5043945v-0.1464844c0-0.6386719,0.1782227-1.1582031,0.534668-1.5585938
					s0.8217773-0.6005859,1.3959961-0.6005859c0.3339844,0,0.6391602,0.0532227,0.9155273,0.159668
					s0.5063477,0.2504883,0.6899414,0.4321289v0.8583984H36.406456l-0.1201172-0.5712891
					c-0.078125-0.0664063-0.1811523-0.1196289-0.309082-0.159668s-0.2749023-0.0600586-0.440918-0.0600586
					c-0.3730469,0-0.6630859,0.1376953-0.8701172,0.4130859s-0.3105469,0.6357422-0.3105469,1.0810547v0.1523438
					c0,0.4335938,0.1015625,0.7797852,0.3046875,1.0385742s0.4960938,0.3881836,0.8789063,0.3881836
					c0.171875,0,0.3110352-0.0146484,0.4174805-0.0439453s0.1899414-0.0634766,0.2504883-0.1025391v-0.7236328l-0.609375-0.046875
					v-0.6005859h1.4677734V38.1658821z"/>
			</g>
			<g>
				<path class="st16" d="M42.0270615,34.8904915l-0.3251953,0.0585938l0.7558594,2.5576172l0.0527344,0.234375h0.0175781
					l0.0498047-0.2285156l0.7587891-2.5634766l-0.3222656-0.0585938v-0.515625h1.5585938v0.515625l-0.3574219,0.046875
					l-1.2568359,3.703125h-0.8789063l-1.2597656-3.703125l-0.3515625-0.046875v-0.515625h1.5585938V34.8904915z"/>
			</g>
			<g>
				<path class="st16" d="M48.2472763,38.6404915v-0.5595703l1.3798828-1.4794922
					c0.1992188-0.2285156,0.3408203-0.4213867,0.4248047-0.5786133s0.1259766-0.3032227,0.1259766-0.4379883
					c0-0.1796875-0.0483398-0.3266602-0.1450195-0.440918s-0.2338867-0.1713867-0.4116211-0.1713867
					c-0.1972656,0-0.347168,0.0668945-0.449707,0.2006836s-0.1538086,0.3120117-0.1538086,0.534668h-0.8320313l-0.0058594-0.0175781
					c-0.0097656-0.3847656,0.1166992-0.7104492,0.3793945-0.9770508s0.6166992-0.3999023,1.0620117-0.3999023
					c0.4394531,0,0.7851563,0.1142578,1.0371094,0.3427734s0.3779297,0.5332031,0.3779297,0.9140625
					c0,0.2578125-0.0708008,0.4960938-0.2124023,0.7148438s-0.3764648,0.5039063-0.7045898,0.8554688l-0.7587891,0.8291016
					l0.0058594,0.0146484h1.1074219l0.0351563-0.421875h0.6503906v1.078125H48.2472763z"/>
			</g>
		</g>
		<g>
			<polyline class="st15" points="5.375104,47.200119 26.8050251,47.200119 26.8050251,32.6454659 5.375104,32.6454659 
				5.375104,47.200119 12.5467577,47.2004929 12.5467577,32.6454659 19.7184105,32.6454659 19.7184105,47.2004929 			"/>
			<g>
				<g>
					<g>
						<g>
							<polygon class="st16" points="20.9942322,47.1952438 19.7217712,45.9213181 19.7232361,41.3890915 20.9976501,40.1171188 
								25.5293884,40.1185837 26.8018494,41.3925095 26.8003845,45.924736 25.5274353,47.1952438 							"/>
							<path class="st17" d="M25.5252991,40.1235046l0.6348572,0.6348724l0.6348572,0.6348572v4.527153l-0.5356293,0.5356369
								l-0.7340851,0.7340927h-4.5271606l-0.7340851-0.7340927l-0.5356293-0.5356369v-4.527153l0.6348572-0.6348572
								l0.6348572-0.6348724H25.5252991 M25.5294342,40.1135101h-4.5354309
								c-0.4981537,0.4981461-0.7774353,0.7774353-1.275589,1.275589V45.92453
								c0.4981537,0.4981461,0.7774353,0.7774506,1.275589,1.275589h4.5354309
								c0.4981537-0.4981384,0.7774353-0.7774429,1.275589-1.275589v-4.5354309
								C26.3068695,40.8909454,26.0275879,40.6116562,25.5294342,40.1135101L25.5294342,40.1135101z"/>
						</g>
					</g>
					
						<rect x="22.3778801" y="42.7497253" transform="matrix(-1 -1.224647e-16 1.224647e-16 -1 46.5234375 87.3136292)" class="st18" width="1.7676752" height="1.8141732"/>
					
						<rect x="22.7783699" y="43.1607513" transform="matrix(-1 -1.224647e-16 1.224647e-16 -1 46.5234375 87.3136292)" class="st19" width="0.9666973" height="0.992126"/>
					<line class="st20" x1="24.1455555" y1="44.5639" x2="23.7450676" y2="44.1528778"/>
					<line class="st20" x1="22.7783699" y1="44.1528778" x2="22.3778801" y2="44.5639"/>
					<line class="st20" x1="22.7783699" y1="43.1607513" x2="22.3778801" y2="42.7497253"/>
					<line class="st20" x1="23.7450676" y1="43.1607513" x2="24.1455555" y2="42.7497253"/>
				</g>
			</g>
			<g>
				<g>
					<g>
						<g>
							<polygon class="st16" points="6.6504817,47.1952438 5.378509,45.9213181 5.3799739,41.3890915 6.6538997,40.1171188 
								11.1861258,40.1185837 12.4580984,41.3925095 12.4566336,45.924736 11.1841726,47.1952438 							"/>
							<path class="st17" d="M11.1819906,40.1235046l0.3557281,0.3557434l0.9139862,0.9139862v4.527153l-1.2697144,1.2697296
								H6.6548305l-0.7340851-0.7340927l-0.5356293-0.5356369v-4.527153l0.6348572-0.6348572l0.6348572-0.6348724H11.1819906
								 M11.1861258,40.1135101H6.6506953c-0.4981537,0.4981461-0.7774353,0.7774353-1.275589,1.275589V45.92453
								c0.4981537,0.4981461,0.7774353,0.7774506,1.275589,1.275589h4.5354304
								c0.4981537-0.4981384,0.7774506-0.7774429,1.275589-1.275589v-4.5354309
								C11.9635763,40.8909454,11.6842794,40.6116562,11.1861258,40.1135101L11.1861258,40.1135101z"/>
						</g>
					</g>
					
						<rect x="8.0345736" y="42.7497253" transform="matrix(-1 -1.224647e-16 1.224647e-16 -1 17.8368225 87.3136292)" class="st18" width="1.7676752" height="1.8141732"/>
					
						<rect x="8.4350624" y="43.1607513" transform="matrix(-1 -1.224647e-16 1.224647e-16 -1 17.8368225 87.3136292)" class="st19" width="0.9666973" height="0.992126"/>
					<line class="st20" x1="9.802249" y1="44.5639" x2="9.4017601" y2="44.1528778"/>
					<line class="st20" x1="8.4350624" y1="44.1528778" x2="8.0345736" y2="44.5639"/>
					<line class="st20" x1="8.4350624" y1="43.1607513" x2="8.0345736" y2="42.7497253"/>
					<line class="st20" x1="9.4017601" y1="43.1607513" x2="9.802249" y2="42.7497253"/>
				</g>
			</g>
			<g>
				<g>
					<g>
						<g>
							<polygon class="st16" points="13.8223562,47.1957321 12.5503836,45.9213181 12.5518484,41.3895798 13.8257742,40.1171188 
								18.3580017,40.1185837 19.6299744,41.3929977 19.6285095,45.924736 18.3560486,47.1957321 							"/>
							<path class="st17" d="M18.353653,40.1238785l0.8095703,0.8095703l0.4601593,0.4601593v4.5271606l-1.2697296,1.269722
								h-4.5271769l-1.2697144-1.269722v-4.5271606l0.3557281-0.3557281l0.9139862-0.9140015H18.353653 M18.3577881,40.1138763
								H13.822341c-0.4981384,0.4981537-0.7774353,0.7774429-1.275589,1.275589v4.5354462
								c0.4981537,0.4981384,0.7774506,0.7774353,1.275589,1.2755737h4.5354471
								c0.4981384-0.4981384,0.7774353-0.7774353,1.275589-1.2755737v-4.5354462
								C19.1352234,40.8913193,18.8559265,40.61203,18.3577881,40.1138763L18.3577881,40.1138763z"/>
						</g>
					</g>
					
						<rect x="15.2062273" y="42.7500992" transform="matrix(-1 -1.224647e-16 1.224647e-16 -1 32.18013 87.3143768)" class="st18" width="1.7676752" height="1.8141732"/>
					
						<rect x="15.6067162" y="43.1611252" transform="matrix(-1 -1.224647e-16 1.224647e-16 -1 32.18013 87.3143768)" class="st19" width="0.9666973" height="0.992126"/>
					<line class="st20" x1="16.9739017" y1="44.5642738" x2="16.5734138" y2="44.1532516"/>
					<line class="st20" x1="15.6067162" y1="44.1532516" x2="15.2062273" y2="44.5642738"/>
					<line class="st20" x1="15.6067162" y1="43.1611252" x2="15.2062273" y2="42.7500992"/>
					<line class="st20" x1="16.5734138" y1="43.1611252" x2="16.9739017" y2="42.7500992"/>
				</g>
			</g>
			<g>
				<path class="st16" d="M10.6354599,38.1658821c-0.1386719,0.1367188-0.3408203,0.2602539-0.6064453,0.3706055
					s-0.6015625,0.1655273-1.0078125,0.1655273c-0.5761719,0-1.0449224-0.1928711-1.4062505-0.5786133
					s-0.5419922-0.887207-0.5419922-1.5043945v-0.1464844c0-0.6386719,0.1782227-1.1582031,0.534668-1.5585938
					S8.4294052,34.313343,9.003624,34.313343c0.3339844,0,0.6391602,0.0532227,0.9155273,0.159668
					s0.5063477,0.2504883,0.6899414,0.4321289v0.8583984H9.9762802L9.856163,35.1922493
					c-0.078125-0.0664063-0.1811523-0.1196289-0.309082-0.159668s-0.2749023-0.0600586-0.440918-0.0600586
					c-0.3730469,0-0.6630859,0.1376953-0.8701172,0.4130859s-0.3105474,0.6357422-0.3105474,1.0810547v0.1523438
					c0,0.4335938,0.101563,0.7797852,0.304688,1.0385742s0.4960938,0.3881836,0.8789063,0.3881836
					c0.171875,0,0.3110352-0.0146484,0.4174805-0.0439453s0.1899414-0.0634766,0.2504883-0.1025391v-0.7236328l-0.609375-0.046875
					v-0.6005859h1.4677734V38.1658821z"/>
			</g>
			<g>
				<path class="st16" d="M15.5968857,34.8904915l-0.3251953,0.0585938l0.7558594,2.5576172l0.0527344,0.234375h0.0175781
					l0.0498047-0.2285156l0.7587891-2.5634766l-0.3222656-0.0585938v-0.515625h1.5585938v0.515625l-0.3574219,0.046875
					l-1.2568359,3.703125h-0.8789063l-1.2597656-3.703125l-0.3515625-0.046875v-0.515625h1.5585938V34.8904915z"/>
			</g>
			<g>
				<path class="st16" d="M22.1261826,38.1277962l0.7207031-0.0878906v-2.8886719h-0.7294922v-0.4892578l1.5820313-0.2871094
					v3.6650391l0.7207031,0.0878906v0.5126953h-2.2939453V38.1277962z"/>
			</g>
		</g>
		<g>
			<polyline class="st15" points="58.234951,47.200119 79.6648712,47.200119 79.6648712,32.6454659 58.234951,32.6454659 
				58.234951,47.200119 65.4066086,47.2004929 65.4066086,32.6454659 72.5782623,32.6454659 72.5782623,47.2004929 			"/>
			<g>
				<g>
					<g>
						<g>
							<polygon class="st16" points="73.8540802,47.1952438 72.5816193,45.9213181 72.5830841,41.3890915 73.8574982,40.1171188 
								78.3892365,40.1185837 79.6616974,41.3925095 79.6602325,45.924736 78.3872833,47.1952438 							"/>
							<path class="st17" d="M78.3851471,40.1235046l0.6348572,0.6348724l0.6348572,0.6348572v4.527153l-0.5356293,0.5356369
								l-0.7340851,0.7340927h-4.5271606l-0.7340851-0.7340927l-0.5356293-0.5356369v-4.527153l0.6348572-0.6348572
								l0.6348572-0.6348724H78.3851471 M78.3892822,40.1135101h-4.5354309
								c-0.4981537,0.4981461-0.7774353,0.7774353-1.275589,1.275589V45.92453
								c0.4981537,0.4981461,0.7774353,0.7774506,1.275589,1.275589h4.5354309
								c0.4981537-0.4981384,0.7774353-0.7774429,1.275589-1.275589v-4.5354309
								C79.1667175,40.8909454,78.8874359,40.6116562,78.3892822,40.1135101L78.3892822,40.1135101z"/>
						</g>
					</g>
					
						<rect x="75.2377319" y="42.7497253" transform="matrix(-1 -1.224647e-16 1.224647e-16 -1 152.2431335 87.3136292)" class="st18" width="1.7676752" height="1.8141732"/>
					
						<rect x="75.6382217" y="43.1607513" transform="matrix(-1 -1.224647e-16 1.224647e-16 -1 152.2431335 87.3136292)" class="st19" width="0.9666973" height="0.992126"/>
					<line class="st20" x1="77.0054016" y1="44.5639" x2="76.6049194" y2="44.1528778"/>
					<line class="st20" x1="75.6382217" y1="44.1528778" x2="75.2377319" y2="44.5639"/>
					<line class="st20" x1="75.6382217" y1="43.1607513" x2="75.2377319" y2="42.7497253"/>
					<line class="st20" x1="76.6049194" y1="43.1607513" x2="77.0054016" y2="42.7497253"/>
				</g>
			</g>
			<g>
				<g>
					<g>
						<g>
							<polygon class="st16" points="59.5103302,47.1952438 58.2383575,45.9213181 58.2398224,41.3890915 59.5137482,40.1171188 
								64.0459747,40.1185837 65.3179474,41.3925095 65.3164825,45.924736 64.0440216,47.1952438 							"/>
							<path class="st17" d="M64.0418396,40.1235046l0.3557281,0.3557434l0.9139862,0.9139862v4.527153l-1.2697144,1.2697296
								H59.514679l-0.7340851-0.7340927l-0.5356293-0.5356369v-4.527153l0.6348572-0.6348572l0.6348572-0.6348724H64.0418396
								 M64.0459747,40.1135101h-4.5354309c-0.4981537,0.4981461-0.7774353,0.7774353-1.275589,1.275589V45.92453
								c0.4981537,0.4981461,0.7774353,0.7774506,1.275589,1.275589h4.5354309
								c0.4981537-0.4981384,0.7774506-0.7774429,1.275589-1.275589v-4.5354309
								C64.8234253,40.8909454,64.5441284,40.6116562,64.0459747,40.1135101L64.0459747,40.1135101z"/>
						</g>
					</g>
					
						<rect x="60.8944206" y="42.7497253" transform="matrix(-1 -1.224647e-16 1.224647e-16 -1 123.5565186 87.3136292)" class="st18" width="1.7676752" height="1.8141732"/>
					
						<rect x="61.2949104" y="43.1607513" transform="matrix(-1 -1.224647e-16 1.224647e-16 -1 123.5565186 87.3136292)" class="st19" width="0.9666973" height="0.992126"/>
					<line class="st20" x1="62.6620979" y1="44.5639" x2="62.2616081" y2="44.1528778"/>
					<line class="st20" x1="61.2949104" y1="44.1528778" x2="60.8944206" y2="44.5639"/>
					<line class="st20" x1="61.2949104" y1="43.1607513" x2="60.8944206" y2="42.7497253"/>
					<line class="st20" x1="62.2616081" y1="43.1607513" x2="62.6620979" y2="42.7497253"/>
				</g>
			</g>
			<g>
				<g>
					<g>
						<g>
							<polygon class="st16" points="66.6822052,47.1957321 65.4102325,45.9213181 65.4116974,41.3895798 66.6856232,40.1171188 
								71.2178497,40.1185837 72.4898224,41.3929977 72.4883575,45.924736 71.2158966,47.1957321 							"/>
							<path class="st17" d="M71.213501,40.1238785l0.8095703,0.8095703l0.4601593,0.4601593v4.5271606l-1.2697296,1.269722
								h-4.5271759l-1.2697144-1.269722v-4.5271606l0.3557281-0.3557281l0.9139862-0.9140015H71.213501 M71.2176361,40.1138763
								h-4.5354462c-0.4981384,0.4981537-0.7774353,0.7774429-1.275589,1.275589v4.5354462
								c0.4981537,0.4981384,0.7774506,0.7774353,1.275589,1.2755737h4.5354462
								c0.4981384-0.4981384,0.7774353-0.7774353,1.275589-1.2755737v-4.5354462
								C71.9950714,40.8913193,71.7157745,40.61203,71.2176361,40.1138763L71.2176361,40.1138763z"/>
						</g>
					</g>
					
						<rect x="68.0660782" y="42.7500992" transform="matrix(-1 -1.224647e-16 1.224647e-16 -1 137.899826 87.3143768)" class="st18" width="1.7676752" height="1.8141732"/>
					
						<rect x="68.466568" y="43.1611252" transform="matrix(-1 -1.224647e-16 1.224647e-16 -1 137.899826 87.3143768)" class="st19" width="0.9666973" height="0.992126"/>
					<line class="st20" x1="69.8337479" y1="44.5642738" x2="69.4332657" y2="44.1532516"/>
					<line class="st20" x1="68.466568" y1="44.1532516" x2="68.0660782" y2="44.5642738"/>
					<line class="st20" x1="68.466568" y1="43.1611252" x2="68.0660782" y2="42.7500992"/>
					<line class="st20" x1="69.4332657" y1="43.1611252" x2="69.8337479" y2="42.7500992"/>
				</g>
			</g>
			<g>
				<path class="st16" d="M63.4953232,38.1658821c-0.1386719,0.1367188-0.3408203,0.2602539-0.6064453,0.3706055
					s-0.6015625,0.1655273-1.0078125,0.1655273c-0.5761719,0-1.0449219-0.1928711-1.40625-0.5786133
					s-0.5419922-0.887207-0.5419922-1.5043945v-0.1464844c0-0.6386719,0.1782227-1.1582031,0.534668-1.5585938
					s0.8217773-0.6005859,1.3959961-0.6005859c0.3339844,0,0.6391602,0.0532227,0.9155273,0.159668
					s0.5063477,0.2504883,0.6899414,0.4321289v0.8583984h-0.6328125l-0.1201172-0.5712891
					c-0.078125-0.0664063-0.1811523-0.1196289-0.309082-0.159668s-0.2749023-0.0600586-0.440918-0.0600586
					c-0.3730469,0-0.6630859,0.1376953-0.8701172,0.4130859s-0.3105469,0.6357422-0.3105469,1.0810547v0.1523438
					c0,0.4335938,0.1015625,0.7797852,0.3046875,1.0385742s0.4960938,0.3881836,0.8789063,0.3881836
					c0.171875,0,0.3110352-0.0146484,0.4174805-0.0439453s0.1899414-0.0634766,0.2504883-0.1025391v-0.7236328l-0.609375-0.046875
					v-0.6005859h1.4677734V38.1658821z"/>
			</g>
			<g>
				<path class="st16" d="M68.456749,34.8904915l-0.3251953,0.0585938l0.7558594,2.5576172l0.0527344,0.234375h0.0175781
					l0.0498047-0.2285156l0.7587891-2.5634766l-0.3222656-0.0585938v-0.515625h1.5585938v0.515625l-0.3574219,0.046875
					l-1.2568359,3.703125h-0.8789063l-1.2597656-3.703125l-0.3515625-0.046875v-0.515625h1.5585938V34.8904915z"/>
			</g>
			<g>
				<path class="st16" d="M75.6086044,36.1443977h0.4804688c0.203125,0,0.3535156-0.0532227,0.4511719-0.159668
					s0.1464844-0.2543945,0.1464844-0.4438477c0-0.171875-0.0488281-0.3095703-0.1464844-0.4130859
					s-0.2392578-0.1552734-0.4248047-0.1552734c-0.1601563,0-0.2949219,0.046875-0.4042969,0.140625
					s-0.1640625,0.2167969-0.1640625,0.3691406h-0.8291016l-0.0058594-0.0175781
					c-0.0117188-0.3339844,0.1162109-0.609375,0.3837891-0.8261719s0.5996094-0.3251953,0.9960938-0.3251953
					c0.4414063,0,0.793457,0.1054688,1.0561523,0.3164063s0.394043,0.5117188,0.394043,0.9023438
					c0,0.1855469-0.0585938,0.3618164-0.1757813,0.5288086s-0.2783203,0.2973633-0.4833984,0.3911133
					c0.2363281,0.0839844,0.4165039,0.2128906,0.5405273,0.3867188s0.1860352,0.3759766,0.1860352,0.6064453
					c0,0.390625-0.1420898,0.6977539-0.4262695,0.9213867s-0.6479492,0.3354492-1.0913086,0.3354492
					c-0.3964844,0-0.7368164-0.1049805-1.0209961-0.3149414s-0.4213867-0.5063477-0.4116211-0.8891602l0.0058594-0.0175781
					h0.8291016c0,0.1640625,0.0585938,0.2993164,0.1757813,0.4057617s0.265625,0.159668,0.4453125,0.159668
					c0.1972656,0,0.3530273-0.0546875,0.4672852-0.1640625s0.1713867-0.2578125,0.1713867-0.4453125
					c0-0.2246094-0.0561523-0.3891602-0.168457-0.4936523s-0.277832-0.1567383-0.496582-0.1567383h-0.4804688V36.1443977z"/>
			</g>
		</g>
		<g>
			<path class="st16" d="M29.8019638,8.089221H29.047081l-0.1313477-0.6835933
				c-0.0874023-0.0546875-0.2148438-0.1025391-0.3823242-0.1435547c-0.1679688-0.0410156-0.3461914-0.0615234-0.534668-0.0615234
				c-0.2753906,0-0.4887695,0.0576172-0.6391602,0.1723633c-0.1508789,0.1152344-0.2260742,0.2641602-0.2260742,0.4462891
				c0,0.168457,0.0786133,0.3071284,0.2363281,0.4150386c0.1572266,0.1083984,0.4291992,0.2231445,0.8154297,0.34375
				c0.5537109,0.152832,0.9736328,0.3544922,1.2597656,0.6049805s0.4291992,0.5800781,0.4291992,0.987793
				c0,0.4262695-0.1699219,0.762207-0.5102539,1.0083008c-0.3398438,0.2460938-0.7880859,0.3691406-1.3442383,0.3691406
				c-0.3979492,0-0.7568359-0.0625-1.0776367-0.1879883c-0.3203125-0.1254883-0.5874023-0.2983398-0.8012695-0.5195313V9.8016233
				h0.7792969l0.1064453,0.7075195c0.1010742,0.0820313,0.2387695,0.1499023,0.4121094,0.2036133
				c0.1733398,0.0532227,0.3671875,0.0800781,0.5810547,0.0800781c0.2758789,0,0.4853516-0.0556641,0.6289063-0.1674805
				s0.215332-0.2607422,0.215332-0.4477539c0-0.1914063-0.0683594-0.3452148-0.2050781-0.4614258
				s-0.3759766-0.2255859-0.71875-0.328125c-0.5952148-0.1708984-1.0454102-0.3735352-1.3510742-0.6083984
				s-0.4584961-0.5561523-0.4584961-0.9638667c0-0.4033203,0.1723633-0.7329102,0.5170898-0.9897461
				c0.3447266-0.2558594,0.777832-0.3876953,1.2993164-0.3945313c0.3862305,0,0.737793,0.0581055,1.0551758,0.1743164
				c0.3168945,0.1162109,0.5834961,0.2709961,0.7998047,0.4648438V8.089221z"/>
			<path class="st16" d="M33.1584091,9.288928h-1.699707v1.421875h1.6201172l0.0449219-0.5947266h0.765625v1.3603516h-3.9716797
				v-0.5981445l0.534668-0.1025391V7.2039676l-0.534668-0.1025391V6.499866h0.534668h3.4296875v1.3637695h-0.7719727
				L33.0651474,7.268909h-1.6064453v1.2509761h1.699707V9.288928z"/>
			<path class="st16" d="M38.4933701,6.499866v1.3261719h-0.7719727L37.6798935,7.268909h-0.9238281v3.5068355l0.5375977,0.1025391
				v0.5981445h-2.0820313v-0.5981445l0.5380859-0.1025391V7.268909h-0.9204102l-0.0415039,0.5571289h-0.769043V6.499866H38.4933701z
				"/>
			<path class="st16" d="M45.3839951,10.9227171c-0.1630859,0.159668-0.4013672,0.3037109-0.7138672,0.4326172
				c-0.3125,0.128418-0.7075195,0.1928711-1.1855469,0.1928711c-0.6782227,0-1.2294922-0.2250977-1.6547852-0.675293
				c-0.425293-0.449707-0.6376953-1.034668-0.6376953-1.7548828V8.9471312c0-0.7451172,0.2094727-1.3510737,0.6289063-1.8183589
				s0.9672852-0.7006836,1.6425781-0.7006836c0.3930664,0,0.7524414,0.0620117,1.0776367,0.1860352
				c0.3251953,0.1245117,0.5957031,0.2924805,0.8115234,0.5043945v1.0014644h-0.7446289l-0.1411133-0.6665034
				c-0.0917969-0.0776367-0.2133789-0.1396484-0.3637695-0.1860352c-0.1503906-0.046875-0.3232422-0.0703125-0.5185547-0.0703125
				c-0.4394531,0-0.7802734,0.1606445-1.0239258,0.4819336c-0.2436523,0.3212886-0.3657227,0.7416987-0.3657227,1.26123v0.1777344
				c0,0.5058594,0.1196289,0.909668,0.3588867,1.2119141c0.2387695,0.3017578,0.5834961,0.4526367,1.0341797,0.4526367
				c0.2021484,0,0.3657227-0.0170898,0.4912109-0.0512695c0.125-0.0341797,0.2231445-0.0742188,0.2944336-0.1196289V9.7674437
				l-0.7167969-0.0546875V9.0120726h1.7270508V10.9227171z"/>
			<path class="st16" d="M47.7370224,9.733264h-1.9443359V8.964221h1.9443359V9.733264z"/>
			<path class="st16" d="M49.7487411,7.1014285l-0.3828125,0.0683594l0.8896484,2.9838862l0.0620117,0.2734375h0.0205078
				l0.0585938-0.2666016l0.8930664-2.9907222l-0.3793945-0.0683594V6.499866h1.8339844v0.6015625L52.3239365,7.156116
				l-1.4790039,4.320312h-1.0341797L48.328331,7.156116l-0.4135742-0.0546875V6.499866h1.8339844V7.1014285z"/>
			<path class="st16" d="M54.9010849,9.733264H52.956749V8.964221h1.9443359V9.733264z"/>
			<path class="st16" d="M58.9679794,8.089221h-0.7548828L58.081749,7.4056277
				c-0.0874023-0.0546875-0.2148438-0.1025391-0.3823242-0.1435547c-0.1679688-0.0410156-0.3461914-0.0615234-0.534668-0.0615234
				c-0.2753906,0-0.4887695,0.0576172-0.6391602,0.1723633c-0.1508789,0.1152344-0.2260742,0.2641602-0.2260742,0.4462891
				c0,0.168457,0.0786133,0.3071284,0.2363281,0.4150386c0.1572266,0.1083984,0.4291992,0.2231445,0.8154297,0.34375
				c0.5537109,0.152832,0.9736328,0.3544922,1.2597656,0.6049805s0.4291992,0.5800781,0.4291992,0.987793
				c0,0.4262695-0.1699219,0.762207-0.5102539,1.0083008c-0.3398438,0.2460938-0.7880859,0.3691406-1.3442383,0.3691406
				c-0.3979492,0-0.7568359-0.0625-1.0776367-0.1879883c-0.3203125-0.1254883-0.5874023-0.2983398-0.8012695-0.5195313V9.8016233
				h0.7792969l0.1064453,0.7075195c0.1010742,0.0820313,0.2387695,0.1499023,0.4121094,0.2036133
				c0.1733398,0.0532227,0.3671875,0.0800781,0.5810547,0.0800781c0.2758789,0,0.4853516-0.0556641,0.6289063-0.1674805
				s0.215332-0.2607422,0.215332-0.4477539c0-0.1914063-0.0683594-0.3452148-0.2050781-0.4614258
				s-0.3759766-0.2255859-0.71875-0.328125c-0.5952148-0.1708984-1.0454102-0.3735352-1.3510742-0.6083984
				s-0.4584961-0.5561523-0.4584961-0.9638667c0-0.4033203,0.1723633-0.7329102,0.5170898-0.9897461
				c0.3447266-0.2558594,0.777832-0.3876953,1.2993164-0.3945313c0.3862305,0,0.737793,0.0581055,1.0551758,0.1743164
				c0.3168945,0.1162109,0.5834961,0.2709961,0.7998047,0.4648438V8.089221z"/>
		</g>
		<g>
			<g>
				<g id="XMLID_65_">
					<g>
						<rect x="10.7760754" y="50.0074883" class="st21" width="3.4358907" height="4.255477"/>
					</g>
					<g>
					</g>
				</g>
				<g id="XMLID_64_">
					<g>
						<rect x="17.9045315" y="50.0482025" class="st21" width="3.4358907" height="4.255477"/>
					</g>
					<g>
					</g>
				</g>
				<circle class="st22" cx="16.1229" cy="52.2573662" r="0.5520833"/>
			</g>
			<path class="st23" d="M18.7343292,52.1753197c-0.0003471,0.2929688,0.1414051,0.6022491,0.4296093,0.6939087
				c0.060648,0.0212936,0.060648,1.433979,0.060648,1.433979s-0.7387772,0-1.4775543,0v-4.2557716
				c0.7387772,0,1.4775543,0,1.4775543,0s0,1.4126854-0.060648,1.433979
				C18.8757343,51.5730743,18.7339821,51.8823547,18.7343292,52.1753197"/>
			<path class="st23" d="M13.4442472,52.1753197c0.0003471,0.2929688-0.1414061,0.6022491-0.4296093,0.6939087
				c-0.060648,0.0212936-0.060648,1.433979-0.060648,1.433979s0.7387772,0,1.4775543,0v-4.2557716
				c-0.7387772,0-1.4775543,0-1.4775543,0s0,1.4126854,0.060648,1.433979
				C13.3028412,51.5730743,13.4445944,51.8823547,13.4442472,52.1753197"/>
			
				<rect x="14.4315443" y="50.0474358" transform="matrix(-1 4.498789e-11 -4.498789e-11 -1 32.1785774 104.3506393)" class="st24" width="3.3154881" height="4.2557707"/>
			
				<rect x="14.4315443" y="50.0474358" transform="matrix(-1 4.498789e-11 -4.498789e-11 -1 32.1785774 104.3506393)" class="st25" width="3.3154881" height="4.2557707"/>
			<line class="st26" x1="22.1427612" y1="50.0474358" x2="22.1427612" y2="54.2626419"/>
		</g>
		<g>
			<g>
				<g id="XMLID_22_">
					<g>
						<rect x="37.2060013" y="50.0074883" class="st21" width="3.4358907" height="4.255477"/>
					</g>
					<g>
					</g>
				</g>
				<g id="XMLID_21_">
					<g>
						<rect x="44.3344536" y="50.0482025" class="st21" width="3.4358907" height="4.255477"/>
					</g>
					<g>
					</g>
				</g>
				<circle class="st22" cx="42.5528259" cy="52.2573662" r="0.5520833"/>
			</g>
			<path class="st23" d="M45.1642532,52.1753197c-0.0003471,0.2929688,0.141407,0.6022491,0.4296112,0.6939087
				c0.0606461,0.0212936,0.0606461,1.433979,0.0606461,1.433979s-0.7387772,0-1.4775543,0v-4.2557716
				c0.7387772,0,1.4775543,0,1.4775543,0s0,1.4126854-0.0606461,1.433979
				C45.3056602,51.5730743,45.1639061,51.8823547,45.1642532,52.1753197"/>
			<path class="st23" d="M39.8741722,52.1753197c0.0003471,0.2929688-0.141407,0.6022491-0.4296112,0.6939087
				c-0.0606461,0.0212936-0.0606461,1.433979-0.0606461,1.433979s0.7387772,0,1.4775543,0v-4.2557716
				c-0.7387772,0-1.4775543,0-1.4775543,0s0,1.4126854,0.0606461,1.433979
				C39.7327652,51.5730743,39.8745193,51.8823547,39.8741722,52.1753197"/>
			
				<rect x="40.8614693" y="50.0474358" transform="matrix(-1 4.498789e-11 -4.498789e-11 -1 85.0384216 104.3506393)" class="st24" width="3.3154881" height="4.2557707"/>
			
				<rect x="40.8614693" y="50.0474358" transform="matrix(-1 4.498789e-11 -4.498789e-11 -1 85.0384216 104.3506393)" class="st25" width="3.3154881" height="4.2557707"/>
			<line class="st26" x1="48.5726852" y1="50.0474358" x2="48.5726852" y2="54.2626419"/>
		</g>
		<g>
			<g>
				<g id="XMLID_27_">
					<g>
						<rect x="63.6359253" y="50.0074883" class="st21" width="3.4358907" height="4.255477"/>
					</g>
					<g>
					</g>
				</g>
				<g id="XMLID_23_">
					<g>
						<rect x="70.7643814" y="50.0482025" class="st21" width="3.4358907" height="4.255477"/>
					</g>
					<g>
					</g>
				</g>
				<circle class="st22" cx="68.9827499" cy="52.2573662" r="0.5520833"/>
			</g>
			<path class="st23" d="M71.5941772,52.1753197c-0.0003433,0.2929688,0.1414032,0.6022491,0.4296112,0.6939087
				c0.0606461,0.0212936,0.0606461,1.433979,0.0606461,1.433979s-0.7387772,0-1.4775543,0v-4.2557716
				c0.7387772,0,1.4775543,0,1.4775543,0s0,1.4126854-0.0606461,1.433979
				C71.7355804,51.5730743,71.5938339,51.8823547,71.5941772,52.1753197"/>
			<path class="st23" d="M66.3040924,52.1753197c0.000351,0.2929688-0.1414032,0.6022491-0.4296036,0.6939087
				c-0.0606537,0.0212936-0.0606537,1.433979-0.0606537,1.433979s0.7387772,0,1.4775543,0v-4.2557716
				c-0.7387772,0-1.4775543,0-1.4775543,0s0,1.4126854,0.0606537,1.433979
				C66.1626892,51.5730743,66.3044434,51.8823547,66.3040924,52.1753197"/>
			
				<rect x="67.2913895" y="50.0474358" transform="matrix(-1 4.498789e-11 -4.498789e-11 -1 137.8982697 104.3506393)" class="st24" width="3.3154881" height="4.2557707"/>
			
				<rect x="67.2913895" y="50.0474358" transform="matrix(-1 4.498789e-11 -4.498789e-11 -1 137.8982697 104.3506393)" class="st25" width="3.3154881" height="4.2557707"/>
			<line class="st26" x1="75.0026093" y1="50.0474358" x2="75.0026093" y2="54.2626419"/>
		</g>
	</g>
</g>
<g id="Платы">
</g>
<g id="Режим_изоляции">
	<g>
	</g>
	<g>
	</g>
	<g>
	</g>
	<g>
	</g>
	<g>
	</g>
</g>
</svg>
