<?xml version="1.0" encoding="utf-8"?>
<!-- Generator: Adobe Illustrator 22.1.0, SVG Export Plug-In . SVG Version: 6.00 Build 0)  -->
<svg version="1.1" xmlns="http://www.w3.org/2000/svg" xmlns:xlink="http://www.w3.org/1999/xlink" x="0px" y="0px"
	 viewBox="0 0 85.0400009 85.0400009" style="enable-background:new 0 0 85.0400009 85.0400009;" xml:space="preserve">
<style type="text/css">
	.st0{fill:#0D0E0F;}
	.st1{fill:#9E9B9C;}
	.st2{fill:#CEC7BD;}
	.st3{fill:#E5E4E0;}
	.st4{fill:#918C84;}
	.st5{fill:#151616;}
	.st6{fill:none;stroke:#F6F6F6;stroke-width:0.75;stroke-miterlimit:10;}
	.st7{fill:#CDC7BC;}
	.st8{fill:#363331;}
	.st9{fill:#B5B4B3;}
	.st10{fill:#8E7647;}
	.st11{fill:#313131;}
	.st12{fill:none;stroke:#0D0E0F;stroke-width:0.25;stroke-miterlimit:10;}
	.st13{fill:url(#SVGID_1_);}
	.st14{fill:url(#SVGID_2_);}
	.st15{fill:#EBAD4F;}
	.st16{fill:#E39344;}
	.st17{display:none;}
	.st18{display:inline;fill:none;}
	.st19{display:inline;fill:#E39344;}
	.st20{fill:none;stroke:#FFFFFF;stroke-width:0.6974375;stroke-miterlimit:10;}
	.st21{fill:#0D0E0F;stroke:#FFFFFF;stroke-width:0.6974375;stroke-miterlimit:10;}
</style>
<g id="Макет_TREMA">
	<path class="st0" d="M0,0v85.039978h85.039978V0H0z M9.9212646,79.5117798c-2.4264526,0-4.3936768-1.9667969-4.3936768-4.3926392
		c0-2.4279175,1.9672241-4.3947754,4.3936768-4.3947754s4.3936768,1.9668579,4.3936768,4.3947754
		C14.3149414,77.5449829,12.3477173,79.5117798,9.9212646,79.5117798z M9.9223022,14.3149414
		c-2.4279175,0-4.3947144-1.9667969-4.3947144-4.3927002c0-2.4279175,1.9667969-4.3947144,4.3947144-4.3947144
		c2.4258423,0,4.3926392,1.9667969,4.3926392,4.3947144C14.3149414,12.3481445,12.3481445,14.3149414,9.9223022,14.3149414z
		 M75.1170654,79.5117798c-2.4258423,0-4.3926392-1.968811-4.3926392-4.3947144
		c0-2.4258423,1.9667969-4.3927002,4.3926392-4.3927002c2.4279175,0,4.3947754,1.9668579,4.3947754,4.3927002
		C79.5118408,77.5429688,77.5449829,79.5117798,75.1170654,79.5117798z M75.1191406,14.3149414
		c-2.4279175,0-4.3947144-1.9667969-4.3947144-4.3927002c0-2.4279175,1.9667969-4.3947144,4.3947144-4.3947144
		c2.4258423,0,4.3927002,1.9667969,4.3927002,4.3947144C79.5118408,12.3481445,77.5449829,14.3149414,75.1191406,14.3149414z"/>
	<path class="st1" d="M75.118103,3.9458008c-3.300293,0-5.9754028,2.6751709-5.9754028,5.9754639
		c0,3.3002319,2.6751099,5.9754028,5.9754028,5.9754028s5.9754639-2.6751709,5.9754639-5.9754028
		C81.0935669,6.6209717,78.418396,3.9458008,75.118103,3.9458008z M75.1191406,14.3149414
		c-2.4279175,0-4.3947144-1.9667969-4.3947144-4.3927002c0-2.4279175,1.9667969-4.3947144,4.3947144-4.3947144
		c2.4258423,0,4.3927002,1.9667969,4.3927002,4.3947144C79.5118408,12.3481445,77.5449829,14.3149414,75.1191406,14.3149414z"/>
	<path class="st1" d="M75.118103,69.1426392c-3.2987671,0-5.9754028,2.6751709-5.9754028,5.9754639
		s2.6766357,5.9754028,5.9754028,5.9754028c3.300293,0,5.9754639-2.6751099,5.9754639-5.9754028
		S78.418396,69.1426392,75.118103,69.1426392z M75.1170654,79.5117798c-2.4258423,0-4.3926392-1.968811-4.3926392-4.3947144
		c0-2.4258423,1.9667969-4.3927002,4.3926392-4.3927002c2.4279175,0,4.3947754,1.9668579,4.3947754,4.3927002
		C79.5118408,77.5429688,77.5449829,79.5117798,75.1170654,79.5117798z"/>
	<path class="st1" d="M9.9212646,69.1426392c-3.300293,0-5.9754639,2.6751709-5.9754639,5.9754639
		s2.6751709,5.9754028,5.9754639,5.9754028s5.9754028-2.6751099,5.9754028-5.9754028S13.2215576,69.1426392,9.9212646,69.1426392z
		 M9.9212646,79.5117798c-2.4264526,0-4.3936768-1.9667969-4.3936768-4.3926392
		c0-2.4279175,1.9672241-4.3947754,4.3936768-4.3947754s4.3936768,1.9668579,4.3936768,4.3947754
		C14.3149414,77.5449829,12.3477173,79.5117798,9.9212646,79.5117798z"/>
	<path class="st1" d="M9.9212646,3.9458008c-3.2877808,0-5.9527588,2.6751709-5.9527588,5.9754639
		c0,3.3002319,2.664978,5.9754028,5.9527588,5.9754028c3.2877197,0,5.9527588-2.6751709,5.9527588-5.9754028
		C15.8740234,6.6209717,13.2089844,3.9458008,9.9212646,3.9458008z M9.9223022,14.3149414
		c-2.4279175,0-4.3947144-1.9667969-4.3947144-4.3927002c0-2.4279175,1.9667969-4.3947144,4.3947144-4.3947144
		c2.4258423,0,4.3926392,1.9667969,4.3926392,4.3947144C14.3149414,12.3481445,12.3481445,14.3149414,9.9223022,14.3149414z"/>
	<g id="Колодка_i2c">
		<path class="st2" d="M33.9603271,74.9196854c0,1.2273636-1.0018463,2.2224731-2.2397404,2.2224731
			c-1.2378922,0-2.2415428-0.9951096-2.2415428-2.2224731s1.0036507-2.2224731,2.2415428-2.2224731
			C32.9584808,72.6972122,33.9603271,73.6923218,33.9603271,74.9196854z"/>
		<g>
			<path class="st3" d="M35.5375977,79.9794922c0.3588867,0,0.640625,0.0810547,0.8447266,0.2441406
				c0.2045898,0.1630859,0.3066406,0.3876953,0.3066406,0.6748047c0,0.1582031-0.0429688,0.2958984-0.128418,0.4121094
				s-0.2104492,0.2099609-0.3754883,0.2822266c0.1865234,0.0546875,0.3208008,0.1455078,0.402832,0.2724609
				c0.081543,0.1269531,0.1225586,0.2841797,0.1225586,0.4726563v0.1591797c0,0.0693359,0.0136719,0.1220703,0.0415039,0.1601563
				c0.0273438,0.0380859,0.0732422,0.0605469,0.1367188,0.0683594l0.078125,0.0107422v0.3789063h-0.328125
				c-0.2070313,0-0.3525391-0.0556641-0.4365234-0.1660156s-0.1259766-0.2529297-0.1259766-0.4287109v-0.1787109
				c0-0.1523438-0.0410156-0.2714844-0.1225586-0.3583984c-0.0820313-0.0869141-0.1972656-0.1328125-0.3466797-0.1367188h-0.519043
				v0.8271484l0.3388672,0.0644531v0.3769531h-1.3100586v-0.3769531l0.3369141-0.0644531v-2.2509766l-0.3369141-0.0644531
				v-0.3789063h0.3369141H35.5375977z M35.0878906,81.3623047h0.4389648c0.1762695,0,0.309082-0.0380859,0.3974609-0.1123047
				s0.1323242-0.1826172,0.1323242-0.3232422s-0.0439453-0.2529297-0.1313477-0.3369141
				c-0.0878906-0.0839844-0.2167969-0.1259766-0.3876953-0.1259766h-0.449707V81.3623047z"/>
			<path class="st3" d="M38.4482422,79.9794922v0.3789063l-0.3388672,0.0644531v1.6367188
				c0,0.2070313,0.0561523,0.3613281,0.168457,0.4648438c0.1123047,0.1025391,0.2661133,0.1533203,0.4614258,0.1533203
				c0.1987305,0,0.3544922-0.0507813,0.4672852-0.1523438c0.112793-0.1025391,0.1694336-0.2578125,0.1694336-0.4658203v-1.6367188
				l-0.3369141-0.0644531v-0.3789063h1.3100586v0.3789063l-0.3388672,0.0644531v1.6367188
				c0,0.3525391-0.1166992,0.6230469-0.3505859,0.8144531s-0.5410156,0.2861328-0.9204102,0.2861328
				c-0.3779297,0-0.6831055-0.0947266-0.9155273-0.2861328s-0.3486328-0.4619141-0.3486328-0.8144531v-1.6367188
				l-0.3364258-0.0644531v-0.3789063h0.3364258h0.6342773H38.4482422z"/>
			<path class="st3" d="M42.9389648,80.9804688h-0.4760742l-0.0825195-0.4306641
				c-0.0546875-0.0341797-0.1352539-0.0644531-0.2407227-0.0898438c-0.105957-0.0263672-0.2182617-0.0390625-0.3369141-0.0390625
				c-0.1738281,0-0.3081055,0.0361328-0.402832,0.1083984c-0.0952148,0.0722656-0.1425781,0.1660156-0.1425781,0.28125
				c0,0.1064453,0.0498047,0.1933594,0.1489258,0.2617188s0.2705078,0.140625,0.5136719,0.2167969
				c0.3491211,0.0957031,0.6137695,0.2226563,0.7939453,0.3808594c0.1806641,0.1582031,0.2705078,0.3652344,0.2705078,0.6220703
				c0,0.2685547-0.1069336,0.4804688-0.3212891,0.6357422s-0.4970703,0.2324219-0.847168,0.2324219
				c-0.2509766,0-0.4770508-0.0390625-0.6791992-0.1181641c-0.2016602-0.0791016-0.3701172-0.1884766-0.5048828-0.3271484
				v-0.6552734h0.4907227l0.0673828,0.4462891c0.0639648,0.0517578,0.1503906,0.0947266,0.2597656,0.1279297
				c0.109375,0.0341797,0.2314453,0.0507813,0.3662109,0.0507813c0.1738281,0,0.3056641-0.0351563,0.3964844-0.1054688
				c0.090332-0.0703125,0.1357422-0.1650391,0.1357422-0.2822266c0-0.1210938-0.043457-0.2177734-0.1293945-0.2910156
				c-0.0864258-0.0732422-0.2373047-0.1416016-0.453125-0.2070313c-0.375-0.1074219-0.6586914-0.2353516-0.8515625-0.3828125
				c-0.1923828-0.1484375-0.2885742-0.3505859-0.2885742-0.6074219c0-0.2539063,0.1083984-0.4619141,0.3256836-0.6240234
				c0.2172852-0.1611328,0.4902344-0.2441406,0.8188477-0.2480469c0.2431641,0,0.4648438,0.0361328,0.6650391,0.109375
				c0.199707,0.0732422,0.3676758,0.1708984,0.5039063,0.2929688V80.9804688z"/>
			<path class="st3" d="M45.6367188,80.9804688h-0.4746094l-0.0839844-0.4306641
				c-0.0546875-0.0341797-0.1347656-0.0644531-0.2402344-0.0898438c-0.1054688-0.0263672-0.21875-0.0390625-0.3378906-0.0390625
				c-0.1738281,0-0.3066406,0.0361328-0.4023438,0.1083984c-0.0947266,0.0722656-0.1420898,0.1660156-0.1420898,0.28125
				c0,0.1064453,0.050293,0.1933594,0.1489258,0.2617188s0.2705078,0.140625,0.5146484,0.2167969
				c0.3476563,0.0957031,0.6132813,0.2226563,0.7929688,0.3808594s0.2714844,0.3652344,0.2714844,0.6220703
				c0,0.2685547-0.1074219,0.4804688-0.3222656,0.6357422s-0.4960938,0.2324219-0.8476563,0.2324219
				c-0.25,0-0.4765625-0.0390625-0.6787109-0.1181641c-0.2016602-0.0791016-0.3701172-0.1884766-0.5048828-0.3271484v-0.6552734
				h0.4907227l0.0673828,0.4462891c0.0639648,0.0517578,0.1508789,0.0947266,0.2602539,0.1279297
				c0.109375,0.0341797,0.2304688,0.0507813,0.3652344,0.0507813c0.1738281,0,0.3066406-0.0351563,0.3964844-0.1054688
				s0.1367188-0.1650391,0.1367188-0.2822266c0-0.1210938-0.0429688-0.2177734-0.1308594-0.2910156
				c-0.0859375-0.0732422-0.2363281-0.1416016-0.4511719-0.2070313c-0.3759766-0.1074219-0.659668-0.2353516-0.8525391-0.3828125
				c-0.1923828-0.1484375-0.2885742-0.3505859-0.2885742-0.6074219c0-0.2539063,0.1083984-0.4619141,0.3256836-0.6240234
				c0.2172852-0.1611328,0.4892578-0.2441406,0.8193359-0.2480469c0.2421875,0,0.4648438,0.0361328,0.6640625,0.109375
				S45.5,80.2167969,45.6367188,80.3388672V80.9804688z"/>
			<path class="st3" d="M45.9296875,80.3583984v-0.3789063h1.3105469v0.3789063l-0.3388672,0.0644531v2.2509766l0.3388672,0.0644531
				v0.3769531h-1.3105469v-0.3769531l0.3388672-0.0644531v-2.2509766L45.9296875,80.3583984z"/>
			<path class="st3" d="M47.4482422,82.7382813l0.2265625-0.0322266l0.9619141-2.7265625h0.6494141l0.9560547,2.7265625
				l0.2255859,0.0322266v0.3769531H49.390625v-0.3769531l0.2197266-0.0390625l-0.1396484-0.4306641h-1.0253906l-0.1386719,0.4306641
				l0.2197266,0.0390625v0.3769531h-1.078125V82.7382813z M48.5957031,81.8056641h0.7255859l-0.3564453-1.1044922h-0.0126953
				L48.5957031,81.8056641z"/>
		</g>
		<ellipse class="st4" cx="31.7196846" cy="74.9196854" rx="1.5316002" ry="1.5185714"/>
		<rect x="38.320034" y="54.693409" class="st3" width="8.1385031" height="4.4068346"/>
		<g>
			<path class="st5" d="M39.1870117,55.5488281v-0.2626953h1.0922852v0.2626953l-0.340332,0.0585938v2.3740234l0.340332,0.0585938
				v0.2607422h-1.0922852v-0.2607422l0.340332-0.0585938v-2.3740234L39.1870117,55.5488281z"/>
			<path class="st5" d="M40.6259766,58.3007813v-0.2792969l0.9960938-1.0976563
				c0.1782227-0.1972656,0.2988281-0.3535156,0.3623047-0.4697266s0.0947266-0.234375,0.0947266-0.3564453
				c0-0.1503906-0.0444336-0.2773438-0.1333008-0.3798828c-0.0893555-0.1025391-0.2070313-0.1542969-0.3530273-0.1542969
				c-0.2104492,0-0.3647461,0.0537109-0.4633789,0.1591797c-0.0991211,0.1064453-0.1484375,0.2568359-0.1484375,0.4521484
				h-0.3945313l-0.0043945-0.0126953c-0.0068359-0.2597656,0.0795898-0.4775391,0.2597656-0.6542969
				c0.1806641-0.1767578,0.4306641-0.2646484,0.7509766-0.2646484c0.2744141,0,0.4926758,0.078125,0.6547852,0.2363281
				s0.2431641,0.359375,0.2431641,0.6035156c0,0.1650391-0.0493164,0.3291016-0.1474609,0.4931641
				s-0.2363281,0.3417969-0.4140625,0.5322266l-0.7998047,0.8632813l0.0039063,0.0097656h1.0795898l0.0336914-0.3457031h0.3486328
				v0.6650391H40.6259766z"/>
			<path class="st5" d="M45.2910156,56.2119141h-0.2900391l-0.0771484-0.4267578
				c-0.0673828-0.0644531-0.1494141-0.1181641-0.2460938-0.1591797c-0.0976563-0.0419922-0.2148438-0.0625-0.3496094-0.0625
				c-0.3164063,0-0.5585938,0.1132813-0.7285156,0.3408203c-0.1699219,0.2265625-0.2548828,0.515625-0.2548828,0.8642578v0.0478516
				c0,0.3486328,0.0830078,0.6376953,0.2495117,0.8662109s0.3969727,0.3427734,0.6928711,0.3427734
				c0.1367188,0,0.2626953-0.0214844,0.375-0.0644531c0.1132813-0.0429688,0.2001953-0.0947266,0.2617188-0.1572266
				l0.0771484-0.4267578h0.2900391v0.5371094c-0.0878906,0.1113281-0.2197266,0.2109375-0.3945313,0.2988281
				c-0.1757813,0.0878906-0.3789063,0.1318359-0.609375,0.1318359c-0.3959961,0-0.7202148-0.1455078-0.9736328-0.4355469
				s-0.3798828-0.6542969-0.3798828-1.0927734v-0.0439453c0-0.4414063,0.1245117-0.8066406,0.3735352-1.0957031
				c0.2495117-0.2890625,0.5756836-0.4335938,0.9799805-0.4335938c0.2304688,0,0.4335938,0.0439453,0.609375,0.1328125
				c0.1748047,0.0888672,0.3066406,0.1894531,0.3945313,0.2998047V56.2119141z"/>
		</g>
		<path class="st6" d="M28.0601654,78.0837631c-0.1226978-0.0001907-0.1870785-0.0002899-0.1870785-0.0002899l-0.0450478-17.8655434
			c0,0-0.0000763-0.0304527-0.0001526-0.0609016c0.0378971,0.0000572,0.0757961,0.0001144,0.0757961,0.0001144l29.0553551,0.0446663
			c0,0,0.0166397,0.0000229,0.0461807,0.0000687c0.0061035,2.4208908,0.0442276,17.5403633,0.0442276,17.5403633
			s0.0004883,0.1930389,0.0009727,0.3860855c-0.0609856-0.0000916-0.1219749-0.0001831-0.1219749-0.0001831
			S30.5440922,78.0875854,28.0601654,78.0837631z"/>
		<line class="st6" x1="35.3068542" y1="60.2106361" x2="35.351902" y2="78.0761795"/>
		<line class="st6" x1="42.4136162" y1="60.0140495" x2="42.4586601" y2="77.8795929"/>
		<line class="st6" x1="49.5445595" y1="60.0140495" x2="49.5896072" y2="77.8795929"/>
		<path class="st2" d="M41.1603241,74.9196854c0,1.2273636-1.0018463,2.2224731-2.2397385,2.2224731
			s-2.2415428-0.9951096-2.2415428-2.2224731s1.0036507-2.2224731,2.2415428-2.2224731S41.1603241,73.6923218,41.1603241,74.9196854
			z"/>
		<ellipse class="st4" cx="38.9196854" cy="74.9196854" rx="1.5316002" ry="1.5185714"/>
		<path class="st2" d="M48.3603249,74.9196854c0,1.2273636-1.0018463,2.2224731-2.2397385,2.2224731
			s-2.2415428-0.9951096-2.2415428-2.2224731s1.0036507-2.2224731,2.2415428-2.2224731S48.3603249,73.6923218,48.3603249,74.9196854
			z"/>
		<ellipse class="st4" cx="46.1196861" cy="74.9196854" rx="1.5316002" ry="1.5185714"/>
		<path class="st2" d="M55.5420456,74.9196854c0,1.2273636-0.9936714,2.2224731-2.2214661,2.2224731
			s-2.2232552-0.9951096-2.2232552-2.2224731s0.9954605-2.2224731,2.2232552-2.2224731S55.5420456,73.6923218,55.5420456,74.9196854
			z"/>
		<ellipse class="st4" cx="53.3196869" cy="74.9196854" rx="1.5316002" ry="1.5185714"/>
		<g>
			<path class="st3" d="M31.6679688,69.4169922c-0.112793,0.3886719-0.2514648,0.671875-0.4155273,0.8496094
				c-0.1645508,0.1767578-0.3676758,0.265625-0.6088867,0.265625c-0.2734375,0-0.4995117-0.1083984-0.6782227-0.3251953
				c-0.1787109-0.2158203-0.2680664-0.4980469-0.2680664-0.8447266c0-0.2363281,0.0458984-0.4462891,0.1381836-0.6318359
				c0.0922852-0.1845703,0.2192383-0.328125,0.3813477-0.4296875s0.3393555-0.1523438,0.53125-0.1523438v0.4560547
				c-0.2104492,0-0.3759766,0.0654297-0.4960938,0.1982422c-0.1206055,0.1318359-0.1806641,0.3193359-0.1806641,0.5595703
				c0,0.2236328,0.0498047,0.3984375,0.1494141,0.5234375c0.0996094,0.1259766,0.2373047,0.1884766,0.4140625,0.1884766
				c0.1416016,0,0.2617188-0.0595703,0.359375-0.1787109s0.1875-0.3212891,0.2685547-0.6074219
				s0.1708984-0.5097656,0.2685547-0.6708984s0.2114258-0.28125,0.3417969-0.359375s0.2836914-0.1171875,0.4599609-0.1171875
				c0.28125,0,0.5063477,0.109375,0.6757813,0.3261719c0.1689453,0.2177734,0.2539063,0.5087891,0.2539063,0.8720703
				c0,0.2363281-0.0458984,0.4570313-0.137207,0.6621094c-0.0913086,0.2041016-0.2163086,0.3623047-0.3754883,0.4736328
				c-0.1586914,0.1113281-0.3388672,0.1660156-0.5410156,0.1660156v-0.4560547c0.2099609,0,0.3754883-0.0761719,0.4970703-0.2294922
				c0.121582-0.1542969,0.1821289-0.359375,0.1821289-0.6162109c0-0.2392578-0.0493164-0.4228516-0.1474609-0.5507813
				c-0.0986328-0.1269531-0.2329102-0.1914063-0.402832-0.1914063s-0.3017578,0.0595703-0.3945313,0.1777344
				S31.7587891,69.1064453,31.6679688,69.4169922z"/>
			<path class="st3" d="M32.1137695,65.0292969c0.3671875,0.0419922,0.6503906,0.1767578,0.8496094,0.4023438
				c0.1992188,0.2265625,0.2993164,0.5263672,0.2993164,0.9013672c0,0.40625-0.1469727,0.7324219-0.440918,0.9775391
				s-0.6875,0.3671875-1.1796875,0.3671875h-0.3339844c-0.3222656,0-0.605957-0.0566406-0.8505859-0.1708984
				s-0.4326172-0.2763672-0.5639648-0.4863281c-0.1308594-0.2089844-0.1962891-0.4521484-0.1962891-0.7275391
				c0-0.3652344,0.1030273-0.6582031,0.3085938-0.8789063s0.4907227-0.3486328,0.8544922-0.3847656v0.4560547
				c-0.2773438,0.0390625-0.4780273,0.1240234-0.6025391,0.2558594s-0.1865234,0.3154297-0.1865234,0.5517578
				c0,0.2900391,0.1083984,0.5175781,0.324707,0.6816406c0.2158203,0.1650391,0.5239258,0.2470703,0.9228516,0.2470703h0.3364258
				c0.3769531,0,0.6767578-0.078125,0.8989258-0.2333984c0.2226563-0.15625,0.3339844-0.375,0.3339844-0.6552734
				c0-0.2519531-0.0576172-0.4453125-0.1728516-0.5800781c-0.1147461-0.1347656-0.3154297-0.2236328-0.6015625-0.2675781V65.0292969
				z"/>
			<path class="st3" d="M32.8408203,63.9541016v-1.6308594h0.3740234v2.0869141h-3.4702148v-0.4560547H32.8408203z"/>
		</g>
		<g>
			<path class="st3" d="M39.0585938,69.4169922c-0.112793,0.3886719-0.2514648,0.671875-0.4155273,0.8496094
				c-0.1645508,0.1767578-0.3676758,0.265625-0.6088867,0.265625c-0.2734375,0-0.4995117-0.1083984-0.6782227-0.3251953
				c-0.1787109-0.2158203-0.2680664-0.4980469-0.2680664-0.8447266c0-0.2363281,0.0458984-0.4462891,0.1381836-0.6318359
				c0.0922852-0.1845703,0.2192383-0.328125,0.3813477-0.4296875s0.3393555-0.1523438,0.53125-0.1523438v0.4560547
				c-0.2104492,0-0.3759766,0.0654297-0.4960938,0.1982422c-0.1206055,0.1318359-0.1806641,0.3193359-0.1806641,0.5595703
				c0,0.2236328,0.0498047,0.3984375,0.1494141,0.5234375c0.0996094,0.1259766,0.2373047,0.1884766,0.4140625,0.1884766
				c0.1416016,0,0.2617188-0.0595703,0.359375-0.1787109s0.1875-0.3212891,0.2685547-0.6074219
				s0.1708984-0.5097656,0.2685547-0.6708984s0.2114258-0.28125,0.3417969-0.359375s0.2836914-0.1171875,0.4599609-0.1171875
				c0.28125,0,0.5063477,0.109375,0.6757813,0.3261719c0.1689453,0.2177734,0.2539063,0.5087891,0.2539063,0.8720703
				c0,0.2363281-0.0458984,0.4570313-0.137207,0.6621094c-0.0913086,0.2041016-0.2163086,0.3623047-0.3754883,0.4736328
				c-0.1586914,0.1113281-0.3388672,0.1660156-0.5410156,0.1660156v-0.4560547c0.2099609,0,0.3754883-0.0761719,0.4970703-0.2294922
				c0.121582-0.1542969,0.1821289-0.359375,0.1821289-0.6162109c0-0.2392578-0.0493164-0.4228516-0.1474609-0.5507813
				c-0.0986328-0.1269531-0.2329102-0.1914063-0.402832-0.1914063s-0.3017578,0.0595703-0.3945313,0.1777344
				S39.1494141,69.1064453,39.0585938,69.4169922z"/>
			<path class="st3" d="M40.6054688,67.5595703h-3.4702148v-0.9707031c0-0.2998047,0.0668945-0.5644531,0.2001953-0.7939453
				c0.1337891-0.2304688,0.3237305-0.4082031,0.5698242-0.5332031s0.5292969-0.1884766,0.8486328-0.1904297h0.2211914
				c0.3276367,0,0.6142578,0.0625,0.8603516,0.1884766c0.246582,0.125,0.4355469,0.3037109,0.5673828,0.5361328
				s0.199707,0.5029297,0.2026367,0.8115234V67.5595703z M37.5097656,67.1054688h2.7216797v-0.4765625
				c0-0.3496094-0.1098633-0.6220703-0.3291016-0.8164063c-0.2197266-0.1943359-0.5322266-0.2919922-0.9375-0.2919922h-0.203125
				c-0.394043,0-0.7006836,0.0917969-0.9194336,0.2753906s-0.3295898,0.4433594-0.3325195,0.7802734V67.1054688z"/>
			<path class="st3" d="M39.6972656,62.4863281v1.4414063l0.9082031,0.3232422V64.71875l-3.4702148-1.3134766v-0.3974609
				l3.4702148-1.3154297v0.4648438L39.6972656,62.4863281z M39.3232422,63.7900391v-1.1689453l-1.6230469,0.5859375
				L39.3232422,63.7900391z"/>
		</g>
		<g>
			<path class="st3" d="M47.1601563,69.2919922l-2.8632813-0.9833984V67.8125l3.4707031,1.2763672v0.4013672l-3.4707031,1.2734375
				v-0.4931641L47.1601563,69.2919922z"/>
			<path class="st3" d="M47.4550781,66.3945313c0-0.15625-0.0478516-0.2919922-0.1425781-0.4091797
				c-0.0957031-0.1162109-0.2148438-0.1806641-0.3574219-0.1933594v-0.4130859
				c0.1474609,0.0078125,0.2880859,0.0576172,0.421875,0.1503906c0.1328125,0.09375,0.2392578,0.2177734,0.3193359,0.3730469
				c0.0791016,0.1552734,0.1191406,0.3193359,0.1191406,0.4921875c0,0.3486328-0.1171875,0.625-0.3515625,0.8310547
				c-0.234375,0.2050781-0.5546875,0.3076172-0.9619141,0.3076172h-0.0742188c-0.2509766,0-0.4736328-0.0449219-0.6689453-0.1367188
				c-0.1953125-0.0908203-0.3476563-0.2226563-0.4550781-0.3935547c-0.1083984-0.1708984-0.1621094-0.3730469-0.1621094-0.6054688
				c0-0.2871094,0.0859375-0.5253906,0.2597656-0.7148438c0.1728516-0.1904297,0.3974609-0.2910156,0.6738281-0.3037109v0.4130859
				c-0.1669922,0.0126953-0.3037109,0.0751953-0.4111328,0.1875c-0.1074219,0.1132813-0.1601563,0.2519531-0.1601563,0.4179688
				c0,0.2216797,0.0800781,0.3935547,0.2412109,0.515625s0.3945313,0.1835938,0.7001953,0.1835938h0.0830078
				c0.296875,0,0.5263672-0.0605469,0.6865234-0.1826172C47.375,66.7929688,47.4550781,66.6201172,47.4550781,66.3945313z"/>
			<path class="st3" d="M47.4550781,63.8613281c0-0.15625-0.0478516-0.2919922-0.1425781-0.4091797
				c-0.0957031-0.1162109-0.2148438-0.1806641-0.3574219-0.1933594v-0.4130859
				c0.1474609,0.0078125,0.2880859,0.0576172,0.421875,0.1503906c0.1328125,0.09375,0.2392578,0.2177734,0.3193359,0.3730469
				c0.0791016,0.1552734,0.1191406,0.3193359,0.1191406,0.4921875c0,0.3486328-0.1171875,0.625-0.3515625,0.8310547
				C47.2294922,64.8974609,46.9091797,65,46.5019531,65h-0.0742188c-0.2509766,0-0.4736328-0.0449219-0.6689453-0.1367188
				c-0.1953125-0.0908203-0.3476563-0.2226563-0.4550781-0.3935547c-0.1083984-0.1708984-0.1621094-0.3730469-0.1621094-0.6054688
				c0-0.2871094,0.0859375-0.5253906,0.2597656-0.7148438c0.1728516-0.1904297,0.3974609-0.2910156,0.6738281-0.3037109v0.4130859
				c-0.1669922,0.0126953-0.3037109,0.0751953-0.4111328,0.1875c-0.1074219,0.1132813-0.1601563,0.2519531-0.1601563,0.4179688
				c0,0.2216797,0.0800781,0.3935547,0.2412109,0.515625s0.3945313,0.1835938,0.7001953,0.1835938h0.0830078
				c0.296875,0,0.5263672-0.0605469,0.6865234-0.1826172C47.375,64.2597656,47.4550781,64.0869141,47.4550781,63.8613281z"/>
		</g>
		<g>
			<path class="st3" d="M54.65625,67.890625c0.1679688,0.1162109,0.2939453,0.2792969,0.3779297,0.4882813
				c0.0830078,0.2080078,0.125,0.4511719,0.125,0.7285156c0,0.2802734-0.0664063,0.5292969-0.1992188,0.7470703
				c-0.1328125,0.2167969-0.3212891,0.3847656-0.5664063,0.5039063c-0.2441406,0.1191406-0.5283203,0.1806641-0.8505859,0.1835938
				h-0.3027344c-0.5224609,0-0.9277344-0.1210938-1.2148438-0.3632813C51.7373047,69.9375,51.59375,69.5976563,51.59375,69.1591797
				c0-0.359375,0.0927734-0.6484375,0.2773438-0.8671875c0.1855469-0.21875,0.4482422-0.3525391,0.7880859-0.4013672v0.453125
				c-0.4609375,0.0859375-0.6914063,0.3564453-0.6914063,0.8134766c0,0.3037109,0.1074219,0.5341797,0.3232422,0.6914063
				c0.2158203,0.15625,0.5273438,0.2353516,0.9365234,0.2373047h0.2832031c0.3896484,0,0.6992188-0.0888672,0.9296875-0.2646484
				c0.2294922-0.1767578,0.3447266-0.4150391,0.3447266-0.7158203c0-0.1708984-0.0195313-0.3193359-0.0576172-0.4472656
				c-0.0380859-0.1269531-0.1015625-0.2324219-0.1923828-0.3164063h-0.7773438v0.796875h-0.3740234V67.890625H54.65625z"/>
			<path class="st3" d="M55.1113281,64.4902344v0.4560547L52.4375,66.6787109h2.6738281v0.4560547h-3.4697266v-0.4560547
				l2.6855469-1.7363281h-2.6855469v-0.4521484H55.1113281z"/>
			<path class="st3" d="M55.1113281,63.6845703h-3.4697266v-0.9707031c0-0.2998047,0.0664063-0.5644531,0.2001953-0.7939453
				c0.1328125-0.2304688,0.3232422-0.4082031,0.5693359-0.5332031s0.5292969-0.1884766,0.8486328-0.1904297h0.2216797
				c0.3271484,0,0.6142578,0.0625,0.8603516,0.1884766c0.2460938,0.125,0.4355469,0.3037109,0.5673828,0.5361328
				s0.1992188,0.5029297,0.2021484,0.8115234V63.6845703z M52.015625,63.2304688h2.7216797v-0.4765625
				c0-0.3496094-0.109375-0.6220703-0.3291016-0.8164063s-0.5322266-0.2919922-0.9375-0.2919922h-0.203125
				c-0.3945313,0-0.7001953,0.0917969-0.9189453,0.2753906s-0.3300781,0.4433594-0.3330078,0.7802734V63.2304688z"/>
		</g>
	</g>
</g>
<g id="Слой_11">
	<g id="T">
	</g>
	<g id="H">
		<g>
			<path class="st3" d="M23.5566406,7.2387695v0.3720703l-0.4775391,0.0820313v3.3603516h0.5859375l-0.0585938,1.4970703h-0.5185547
				v-1.0458984h-3.0761719v1.0517578h-0.4921875l-0.0849609-1.5029297h0.3662109
				c0.1484375-0.171875,0.2851563-0.421875,0.4101563-0.75s0.1933594-0.7744141,0.2050781-1.3388672l0.0703125-1.2744141
				l-0.4511719-0.0791016V7.2387695h3.0439453H23.5566406z M20.9990234,8.9643555
				c-0.0175781,0.4648438-0.0761719,0.8740234-0.1757813,1.2275391s-0.2275391,0.640625-0.3837891,0.8613281h2.0625V7.6928711
				h-1.4355469L20.9990234,8.9643555z"/>
			<path class="st3" d="M26.2021484,11.5043945c-0.0175781-0.0859375-0.03125-0.1630859-0.0410156-0.2314453
				s-0.0166016-0.1367188-0.0205078-0.2050781c-0.1113281,0.1425781-0.25,0.2617188-0.4179688,0.3564453
				c-0.1660156,0.09375-0.3447266,0.1416016-0.5341797,0.1416016c-0.3300781,0-0.5810547-0.0810547-0.7529297-0.2412109
				c-0.171875-0.1621094-0.2578125-0.3886719-0.2578125-0.6816406c0-0.3007813,0.1210938-0.5322266,0.3652344-0.6953125
				c0.2421875-0.1630859,0.5761719-0.2451172,1-0.2451172h0.5947266V9.3334961c0-0.1855469-0.0585938-0.3330078-0.1757813-0.4404297
				c-0.1171875-0.109375-0.2802734-0.1630859-0.4892578-0.1630859c-0.1445313,0-0.2724609,0.0185547-0.3828125,0.0556641
				s-0.1992188,0.0878906-0.2675781,0.1523438l-0.0615234,0.3339844h-0.4453125V8.6567383
				c0.1445313-0.1152344,0.3193359-0.2070313,0.5244141-0.2773438c0.2050781-0.0683594,0.4277344-0.1035156,0.6679688-0.1035156
				c0.359375,0,0.6503906,0.0917969,0.8730469,0.2753906s0.3339844,0.4462891,0.3339844,0.7880859v1.5263672
				c0,0.0410156,0,0.0810547,0.0019531,0.1201172c0,0.0390625,0.0029297,0.078125,0.0068359,0.1171875l0.234375,0.0322266v0.3691406
				H26.2021484z M25.2734375,11.0825195c0.1914063,0,0.3662109-0.0458984,0.5244141-0.1376953
				s0.2714844-0.2021484,0.3398438-0.3310547v-0.5214844h-0.6152344c-0.2363281,0-0.4228516,0.0546875-0.5615234,0.1640625
				c-0.1367188,0.109375-0.2060547,0.2421875-0.2060547,0.3984375c0,0.1386719,0.0429688,0.2441406,0.1289063,0.3183594
				C24.9697266,11.0454102,25.0996094,11.0825195,25.2734375,11.0825195z"/>
			<path class="st3" d="M30.359375,8.3344727V9.277832h-0.4951172l-0.0439453-0.4951172H29.140625v2.2705078l0.4775391,0.0820313
				v0.3691406h-1.5322266v-0.3691406l0.4775391-0.0820313V8.7827148h-0.6679688L27.8515625,9.277832H27.359375V8.3344727H30.359375z
				"/>
			<path class="st3" d="M32.328125,8.331543v0.3691406l-0.4775391,0.0820313v0.4804688
				c0,0.2539063,0.0537109,0.4404297,0.1630859,0.5595703c0.1074219,0.1191406,0.2695313,0.1787109,0.484375,0.1787109
				c0.1289063,0,0.2519531-0.0068359,0.3691406-0.0224609c0.1171875-0.0136719,0.2333984-0.0361328,0.3486328-0.0654297v-1.125
				L32.7382813,8.706543V8.3344727h1.5322266V8.706543l-0.4775391,0.0820313v2.2646484l0.4775391,0.0820313v0.3691406h-1.5322266
				v-0.3691406l0.4775391-0.0820313v-0.6796875c-0.1132813,0.0292969-0.2285156,0.0507813-0.3457031,0.0644531
				s-0.2412109,0.0205078-0.3720703,0.0205078c-0.3828125,0-0.6826172-0.1005859-0.8994141-0.3017578
				s-0.3251953-0.4990234-0.3251953-0.8935547V8.7827148l-0.4775391-0.0820313V8.331543h1.0546875H32.328125z"/>
			<path class="st3" d="M36.3886719,8.3344727V8.706543l-0.4775391,0.0820313v1.7900391l0.0175781,0.0058594l1.3974609-2.25
				h0.5771484h0.4775391V8.706543l-0.4775391,0.0820313v2.2646484l0.4775391,0.0820313v0.3691406h-1.5322266v-0.3691406
				l0.4775391-0.0820313V9.2602539l-0.0175781-0.0058594l-1.3974609,2.25H34.859375v-0.3691406l0.4775391-0.0820313V8.7885742
				L34.859375,8.706543V8.3344727h1.0517578H36.3886719z"/>
			<path class="st3" d="M38.9492188,8.706543V8.3344727h1.5322266V8.706543l-0.4775391,0.0820313v0.8847656h0.3046875
				l0.6621094-0.8876953c0.1191406-0.1660156,0.2358398-0.2919922,0.3500977-0.3779297s0.2426758-0.1289063,0.3852539-0.1289063
				c0.0898438,0,0.1640625,0.0117188,0.2226563,0.0341797s0.125,0.0566406,0.1992188,0.1035156L42.0458984,8.809082
				c-0.0839844-0.0136719-0.1323242-0.0214844-0.1450195-0.0234375s-0.0385742-0.0029297-0.0776367-0.0029297
				c-0.0722656,0-0.1430664,0.0263672-0.2124023,0.0791016s-0.1303711,0.1152344-0.1831055,0.1875l-0.6123047,0.7939453
				l0.9990234,1.21875l0.4072266,0.0732422v0.3691406h-0.7705078l-1.0722656-1.3447266h-0.375v0.8935547l0.4775391,0.0820313
				v0.3691406h-1.5322266v-0.3691406l0.4775391-0.0820313V8.7885742L38.9492188,8.706543z"/>
			<path class="st3" d="M45.6787109,10.159668l-0.8203125,1.3447266h-0.8847656v-0.3691406l0.4511719-0.0644531l0.8232422-1.2246094
				l-0.5302734-0.796875c-0.0566406-0.0839844-0.1162109-0.1494141-0.1806641-0.1962891
				c-0.0625-0.046875-0.1347656-0.0703125-0.2148438-0.0703125c-0.0410156,0-0.0673828,0.0009766-0.0791016,0.0029297
				s-0.0595703,0.0097656-0.1435547,0.0234375l-0.0820313-0.3925781c0.0722656-0.046875,0.1376953-0.0810547,0.1962891-0.1035156
				s0.1337891-0.0341797,0.2255859-0.0341797c0.1464844,0,0.28125,0.0439453,0.4023438,0.1318359
				c0.1230469,0.0878906,0.2324219,0.2128906,0.3300781,0.375l0.5478516,0.8876953h0.3486328V8.7885742L45.5908203,8.706543
				V8.3344727h0.4775391h1.0546875V8.706543l-0.4775391,0.0820313v0.8847656h0.3779297l0.5478516-0.8876953
				c0.0957031-0.1621094,0.2041016-0.2871094,0.3271484-0.375c0.1210938-0.0878906,0.2578125-0.1318359,0.4082031-0.1318359
				c0.0898438,0,0.1640625,0.0117188,0.2246094,0.0351563c0.0585938,0.0234375,0.1240234,0.0576172,0.1943359,0.1025391
				L48.6464844,8.809082C48.5625,8.7954102,48.5136719,8.7875977,48.5019531,8.7856445
				c-0.0136719-0.0019531-0.0390625-0.0029297-0.078125-0.0029297c-0.0820313,0-0.1552734,0.0234375-0.2197266,0.0703125
				s-0.1230469,0.1123047-0.1757813,0.1962891l-0.5478516,0.8203125l0.8115234,1.2011719l0.4482422,0.0644531v0.3691406h-0.8847656
				l-0.8232422-1.3447266h-0.3867188v0.8935547l0.4775391,0.0820313v0.3691406h-1.5322266v-0.3691406l0.4775391-0.0820313V10.159668
				H45.6787109z"/>
			<path class="st3" d="M50.5712891,11.565918c-0.4414063,0-0.7919922-0.1464844-1.0537109-0.4404297
				c-0.2597656-0.2939453-0.390625-0.6757813-0.390625-1.1445313V9.8520508c0-0.4511719,0.1347656-0.8261719,0.4023438-1.1269531
				c0.2695313-0.2988281,0.5869141-0.4492188,0.9541016-0.4492188c0.4257813,0,0.7490234,0.1289063,0.9677734,0.3867188
				c0.2207031,0.2578125,0.3300781,0.6015625,0.3300781,1.03125v0.3603516h-2.0566406l-0.0087891,0.0146484
				c0.0058594,0.3046875,0.0830078,0.5546875,0.2314453,0.7519531c0.1484375,0.1953125,0.3564453,0.2939453,0.6240234,0.2939453
				c0.1953125,0,0.3662109-0.0283203,0.5146484-0.0830078c0.1464844-0.0566406,0.2744141-0.1328125,0.3818359-0.2304688
				l0.2255859,0.375c-0.1132813,0.109375-0.2636719,0.2021484-0.4492188,0.2773438
				C51.0566406,11.527832,50.8330078,11.565918,50.5712891,11.565918z M50.4833984,8.7299805
				c-0.1933594,0-0.3583984,0.0820313-0.4951172,0.2451172s-0.2207031,0.3671875-0.2519531,0.6132813l0.0058594,0.0146484h1.4619141
				V9.5268555c0-0.2265625-0.0605469-0.4160156-0.1816406-0.5683594S50.7216797,8.7299805,50.4833984,8.7299805z"/>
			<path class="st3" d="M53.7734375,11.1147461c0.1914063,0,0.359375-0.0585938,0.5058594-0.1767578
				c0.1445313-0.1181641,0.2177734-0.2636719,0.2177734-0.4355469h0.5185547l0.0058594,0.0175781
				c0.0097656,0.2734375-0.1113281,0.5166016-0.3652344,0.7285156c-0.2519531,0.2119141-0.546875,0.3173828-0.8828125,0.3173828
				c-0.4609375,0-0.8125-0.1503906-1.0566406-0.4511719c-0.2421875-0.3007813-0.3642578-0.6787109-0.3642578-1.1337891V9.8579102
				c0-0.4511719,0.1220703-0.828125,0.3662109-1.1289063c0.2441406-0.3027344,0.5957031-0.453125,1.0546875-0.453125
				c0.2539063,0,0.4824219,0.0419922,0.6835938,0.1259766c0.203125,0.0839844,0.3701172,0.1992188,0.5029297,0.3457031
				l0.0263672,0.703125h-0.4599609l-0.1259766-0.4980469c-0.0683594-0.0664063-0.15625-0.1201172-0.2636719-0.1611328
				s-0.2285156-0.0615234-0.3632813-0.0615234c-0.3027344,0-0.5195313,0.109375-0.6484375,0.3271484
				c-0.1308594,0.2177734-0.1953125,0.484375-0.1953125,0.8007813V9.980957c0,0.3242188,0.0644531,0.5947266,0.1933594,0.8105469
				S53.46875,11.1147461,53.7734375,11.1147461z"/>
			<path class="st3" d="M58.5517578,8.3344727V9.277832h-0.4951172l-0.0439453-0.4951172h-0.6796875v2.2705078l0.4775391,0.0820313
				v0.3691406h-1.5322266v-0.3691406l0.4775391-0.0820313V8.7827148h-0.6679688L56.0439453,9.277832h-0.4921875V8.3344727
				H58.5517578z"/>
			<path class="st3" d="M58.9384766,9.8901367c0-0.46875,0.1269531-0.8544922,0.3808594-1.1591797
				c0.2539063-0.3027344,0.5986328-0.4550781,1.0341797-0.4550781c0.4375,0,0.7832031,0.1513672,1.0390625,0.4541016
				c0.2539063,0.3027344,0.3818359,0.6894531,0.3818359,1.1601563v0.0644531c0,0.4726563-0.1269531,0.859375-0.3808594,1.1601563
				s-0.5986328,0.4511719-1.0341797,0.4511719c-0.4394531,0-0.7861328-0.1513672-1.0400391-0.4521484
				c-0.2539063-0.3027344-0.3808594-0.6884766-0.3808594-1.1591797V9.8901367z M59.515625,9.9545898
				c0,0.3359375,0.0703125,0.6132813,0.2128906,0.8320313c0.140625,0.21875,0.3515625,0.328125,0.6308594,0.328125
				c0.2734375,0,0.4814453-0.109375,0.6240234-0.328125s0.2138672-0.4960938,0.2138672-0.8320313V9.8901367
				c0-0.3320313-0.0712891-0.6083984-0.2138672-0.8291016s-0.3525391-0.3310547-0.6298828-0.3310547
				s-0.4863281,0.1103516-0.6269531,0.3310547S59.515625,9.5581055,59.515625,9.8901367V9.9545898z"/>
			<path class="st3" d="M64.0507813,8.3344727c0.4179688,0,0.7421875,0.0732422,0.9726563,0.21875
				s0.3457031,0.3632813,0.3457031,0.6542969c0,0.1484375-0.0449219,0.28125-0.1347656,0.3964844
				c-0.0898438,0.1171875-0.2167969,0.2050781-0.3808594,0.265625c0.1972656,0.0488281,0.3515625,0.140625,0.4628906,0.2734375
				c0.1113281,0.1347656,0.1669922,0.2871094,0.1669922,0.4589844c0,0.296875-0.1083984,0.5214844-0.3232422,0.6738281
				c-0.2167969,0.1523438-0.5185547,0.2285156-0.9072266,0.2285156h-1.9277344v-0.3691406l0.4775391-0.0820313V8.7885742
				L62.3251953,8.706543V8.3344727h0.4775391H64.0507813z M63.3798828,9.6733398h0.6738281
				c0.2441406,0,0.4287109-0.0361328,0.5517578-0.1083984c0.125-0.0722656,0.1865234-0.1816406,0.1865234-0.328125
				c0-0.1503906-0.0615234-0.2636719-0.1865234-0.3398438c-0.1230469-0.0761719-0.3085938-0.1142578-0.5546875-0.1142578h-0.6708984
				V9.6733398z M63.3798828,10.1157227v0.9433594h0.8730469c0.2148438,0,0.3769531-0.0400391,0.4863281-0.1210938
				s0.1640625-0.1982422,0.1640625-0.3505859c0-0.1503906-0.0546875-0.2666016-0.1640625-0.3486328
				s-0.2714844-0.1230469-0.4863281-0.1230469H63.3798828z"/>
		</g>
	</g>
</g>
<g id="Резистор">
	<g>
		<g id="XMLID_24_">
			<g>
				<rect x="60.9882469" y="71.4521866" class="st7" width="4.2572474" height="3.4358907"/>
			</g>
			<g>
			</g>
		</g>
		<g id="XMLID_23_">
			<g>
				<rect x="60.9475327" y="64.3237381" class="st7" width="4.2572474" height="3.4358907"/>
			</g>
			<g>
			</g>
		</g>
		<g id="XMLID_22_">
			<g>
				<rect x="61.298027" y="66.9931641" class="st8" width="3.6075966" height="5.1633434"/>
			</g>
			<g>
			</g>
		</g>
		<g>
			<path class="st9" d="M63.6455078,70.5146484v0.6962891h-0.1308594v-0.2675781h-0.8632813v0.2675781h-0.1171875
				c0-0.0361328-0.0029297-0.0751953-0.0087891-0.1162109C62.5195313,71.0527344,62.5107422,71.0214844,62.4990234,71
				c-0.0146484-0.0263672-0.0332031-0.046875-0.0546875-0.0625c-0.0224609-0.015625-0.0527344-0.0244141-0.0898438-0.0263672
				v-0.1337891h1.1601563v-0.2626953H63.6455078z"/>
			<path class="st9" d="M63.0019531,69.4941406c0.2304688,0,0.4003906,0.0361328,0.5087891,0.1083984
				c0.1074219,0.0722656,0.1621094,0.1845703,0.1621094,0.3369141c0,0.1542969-0.0546875,0.2675781-0.1640625,0.3388672
				c-0.1103516,0.0712891-0.2783203,0.1064453-0.5048828,0.1064453c-0.2294922,0-0.3984375-0.0361328-0.5068359-0.1083984
				c-0.109375-0.0712891-0.1640625-0.1835938-0.1640625-0.3369141c0-0.1542969,0.0556641-0.2666016,0.1660156-0.3378906
				C62.6103516,69.5302734,62.7773438,69.4941406,63.0019531,69.4941406z M63.3945313,69.7216797
				c-0.046875-0.0205078-0.1015625-0.0341797-0.1650391-0.0410156s-0.1386719-0.0107422-0.2275391-0.0107422
				c-0.0878906,0-0.1640625,0.0039063-0.2285156,0.0107422s-0.1191406,0.0214844-0.1640625,0.0419922
				c-0.0439453,0.0205078-0.078125,0.0478516-0.1005859,0.0830078c-0.0224609,0.0341797-0.0332031,0.0791016-0.0332031,0.1337891
				s0.0107422,0.0996094,0.0332031,0.1347656s0.0566406,0.0634766,0.1025391,0.0839844
				c0.0419922,0.0195313,0.0976563,0.0332031,0.1669922,0.0400391c0.0683594,0.0078125,0.1435547,0.0107422,0.2255859,0.0107422
				c0.0898438,0,0.1650391-0.0029297,0.2255859-0.0087891c0.0605469-0.0068359,0.1142578-0.0205078,0.1621094-0.0410156
				c0.0449219-0.0185547,0.0791016-0.0458984,0.1025391-0.0810547c0.0244141-0.0341797,0.0361328-0.0810547,0.0361328-0.1386719
				c0-0.0537109-0.0117188-0.0986328-0.0341797-0.1347656C63.4736328,69.7695313,63.4394531,69.7412109,63.3945313,69.7216797z"/>
			<path class="st9" d="M63.0019531,68.5458984c0.2304688,0,0.4003906,0.0361328,0.5087891,0.1083984
				c0.1074219,0.0722656,0.1621094,0.1845703,0.1621094,0.3369141c0,0.1542969-0.0546875,0.2666016-0.1640625,0.3378906
				c-0.1103516,0.0712891-0.2783203,0.1064453-0.5048828,0.1064453c-0.2294922,0-0.3984375-0.0351563-0.5068359-0.1074219
				c-0.109375-0.0722656-0.1640625-0.1845703-0.1640625-0.3369141c0-0.1542969,0.0556641-0.2675781,0.1660156-0.3388672
				C62.6103516,68.5810547,62.7773438,68.5458984,63.0019531,68.5458984z M63.3945313,68.7734375
				c-0.046875-0.0205078-0.1015625-0.0341797-0.1650391-0.0410156c-0.0634766-0.0078125-0.1386719-0.0107422-0.2275391-0.0107422
				c-0.0878906,0-0.1640625,0.0029297-0.2285156,0.0107422c-0.0644531,0.0068359-0.1191406,0.0205078-0.1640625,0.0419922
				c-0.0439453,0.0195313-0.078125,0.046875-0.1005859,0.0820313s-0.0332031,0.0800781-0.0332031,0.1347656
				c0,0.0537109,0.0107422,0.0986328,0.0332031,0.1337891c0.0224609,0.0361328,0.0566406,0.0634766,0.1025391,0.0849609
				c0.0419922,0.0195313,0.0976563,0.0322266,0.1669922,0.0400391c0.0683594,0.0068359,0.1435547,0.0107422,0.2255859,0.0107422
				c0.0898438,0,0.1650391-0.0029297,0.2255859-0.0097656c0.0605469-0.0058594,0.1142578-0.0195313,0.1621094-0.0410156
				c0.0449219-0.0185547,0.0791016-0.0458984,0.1025391-0.0800781c0.0244141-0.0351563,0.0361328-0.0810547,0.0361328-0.1386719
				c0-0.0546875-0.0117188-0.0996094-0.0341797-0.1347656C63.4736328,68.8203125,63.4394531,68.7929688,63.3945313,68.7734375z"/>
			<path class="st9" d="M63.6455078,67.5957031v0.8710938h-0.1806641c-0.0517578-0.0605469-0.1035156-0.1210938-0.1552734-0.1816406
				s-0.1035156-0.1171875-0.1542969-0.1699219c-0.1074219-0.1103516-0.1923828-0.1865234-0.2558594-0.2275391
				s-0.1308594-0.0615234-0.2041016-0.0615234c-0.0673828,0-0.1191406,0.0224609-0.1572266,0.0664063
				s-0.0566406,0.1054688-0.0566406,0.1845703c0,0.0527344,0.0087891,0.109375,0.0273438,0.1699219
				c0.0185547,0.0615234,0.046875,0.1210938,0.0849609,0.1796875v0.0087891h-0.1816406
				c-0.0195313-0.0410156-0.0380859-0.0957031-0.0546875-0.1640625c-0.0175781-0.0683594-0.0253906-0.1347656-0.0253906-0.1982422
				c0-0.1318359,0.0322266-0.2353516,0.0957031-0.3105469s0.1494141-0.1123047,0.2587891-0.1123047
				c0.0488281,0,0.0947266,0.0058594,0.1367188,0.0185547s0.0830078,0.0302734,0.1210938,0.0546875
				c0.0351563,0.0224609,0.0703125,0.0488281,0.1054688,0.0791016c0.0341797,0.0302734,0.0722656,0.0673828,0.1142578,0.1103516
				c0.0605469,0.0615234,0.1191406,0.125,0.1757813,0.1914063c0.0566406,0.0654297,0.109375,0.1269531,0.1582031,0.1835938
				v-0.6923828H63.6455078z"/>
		</g>
	</g>
	<g>
		<g id="XMLID_27_">
			<g>
				<rect x="20.9035454" y="71.4831696" class="st7" width="4.2572474" height="3.4358907"/>
			</g>
			<g>
			</g>
		</g>
		<g id="XMLID_26_">
			<g>
				<rect x="20.8628311" y="64.3547134" class="st7" width="4.2572474" height="3.4358907"/>
			</g>
			<g>
			</g>
		</g>
		<g id="XMLID_25_">
			<g>
				<rect x="21.2133236" y="67.0241394" class="st8" width="3.6075966" height="5.1633434"/>
			</g>
			<g>
			</g>
		</g>
		<g>
			<path class="st9" d="M23.5610352,70.5458984v0.6962891h-0.1313477v-0.2675781h-0.862793v0.2675781H22.449707
				c0-0.0361328-0.003418-0.0751953-0.0092773-0.1162109c-0.0058594-0.0419922-0.0146484-0.0732422-0.0263672-0.0947266
				c-0.0141602-0.0263672-0.0327148-0.046875-0.0546875-0.0625c-0.0224609-0.015625-0.0522461-0.0244141-0.0898438-0.0263672
				v-0.1337891h1.1601563v-0.2626953H23.5610352z"/>
			<path class="st9" d="M22.9169922,69.5253906c0.230957,0,0.4008789,0.0361328,0.5087891,0.1083984
				s0.1621094,0.1845703,0.1621094,0.3369141c0,0.1542969-0.0546875,0.2675781-0.1640625,0.3388672
				c-0.1098633,0.0712891-0.277832,0.1064453-0.5048828,0.1064453c-0.2290039,0-0.3979492-0.0361328-0.5068359-0.1083984
				c-0.109375-0.0712891-0.1640625-0.1835938-0.1640625-0.3369141c0-0.1542969,0.0556641-0.2666016,0.1665039-0.3378906
				S22.6928711,69.5253906,22.9169922,69.5253906z M23.3095703,69.7529297
				c-0.046875-0.0205078-0.1015625-0.0341797-0.1645508-0.0410156c-0.0634766-0.0068359-0.1391602-0.0107422-0.2280273-0.0107422
				c-0.0874023,0-0.1635742,0.0039063-0.2280273,0.0107422s-0.1191406,0.0214844-0.1640625,0.0419922
				c-0.0444336,0.0205078-0.078125,0.0478516-0.1005859,0.0830078c-0.0224609,0.0341797-0.0336914,0.0791016-0.0336914,0.1337891
				s0.0112305,0.0996094,0.0336914,0.1347656s0.0566406,0.0634766,0.1020508,0.0839844
				c0.0424805,0.0195313,0.0981445,0.0332031,0.1669922,0.0400391c0.0683594,0.0078125,0.1435547,0.0107422,0.2255859,0.0107422
				c0.0898438,0,0.1650391-0.0029297,0.2255859-0.0087891c0.0605469-0.0068359,0.1147461-0.0205078,0.1625977-0.0410156
				c0.0449219-0.0185547,0.0791016-0.0458984,0.1025391-0.0810547c0.0239258-0.0341797,0.0356445-0.0810547,0.0356445-0.1386719
				c0-0.0537109-0.0112305-0.0986328-0.0336914-0.1347656C23.3891602,69.8007813,23.3549805,69.7724609,23.3095703,69.7529297z"/>
			<path class="st9" d="M22.9169922,68.5771484c0.230957,0,0.4008789,0.0361328,0.5087891,0.1083984
				s0.1621094,0.1845703,0.1621094,0.3369141c0,0.1542969-0.0546875,0.2666016-0.1640625,0.3378906
				c-0.1098633,0.0712891-0.277832,0.1064453-0.5048828,0.1064453c-0.2290039,0-0.3979492-0.0351563-0.5068359-0.1074219
				c-0.109375-0.0722656-0.1640625-0.1845703-0.1640625-0.3369141c0-0.1542969,0.0556641-0.2675781,0.1665039-0.3388672
				S22.6928711,68.5771484,22.9169922,68.5771484z M23.3095703,68.8046875
				c-0.046875-0.0205078-0.1015625-0.0341797-0.1645508-0.0410156c-0.0634766-0.0078125-0.1391602-0.0107422-0.2280273-0.0107422
				c-0.0874023,0-0.1635742,0.0029297-0.2280273,0.0107422c-0.0644531,0.0068359-0.1191406,0.0205078-0.1640625,0.0419922
				c-0.0444336,0.0195313-0.078125,0.046875-0.1005859,0.0820313s-0.0336914,0.0800781-0.0336914,0.1347656
				c0,0.0537109,0.0112305,0.0986328,0.0336914,0.1337891c0.0224609,0.0361328,0.0566406,0.0634766,0.1020508,0.0849609
				c0.0424805,0.0195313,0.0981445,0.0322266,0.1669922,0.0400391c0.0683594,0.0068359,0.1435547,0.0107422,0.2255859,0.0107422
				c0.0898438,0,0.1650391-0.0029297,0.2255859-0.0097656c0.0605469-0.0058594,0.1147461-0.0195313,0.1625977-0.0410156
				c0.0449219-0.0185547,0.0791016-0.0458984,0.1025391-0.0800781c0.0239258-0.0351563,0.0356445-0.0810547,0.0356445-0.1386719
				c0-0.0546875-0.0112305-0.0996094-0.0336914-0.1347656C23.3891602,68.8515625,23.3549805,68.8242188,23.3095703,68.8046875z"/>
			<path class="st9" d="M23.5610352,67.6269531v0.8710938h-0.1806641c-0.0517578-0.0605469-0.1035156-0.1210938-0.1557617-0.1816406
				c-0.0517578-0.0605469-0.1030273-0.1171875-0.1542969-0.1699219c-0.1074219-0.1103516-0.1923828-0.1865234-0.2558594-0.2275391
				c-0.0629883-0.0410156-0.1308594-0.0615234-0.2041016-0.0615234c-0.0668945,0-0.1191406,0.0224609-0.1567383,0.0664063
				c-0.0380859,0.0439453-0.0566406,0.1054688-0.0566406,0.1845703c0,0.0527344,0.0087891,0.109375,0.0273438,0.1699219
				c0.0185547,0.0615234,0.046875,0.1210938,0.0849609,0.1796875v0.0087891h-0.1816406
				c-0.0200195-0.0410156-0.0385742-0.0957031-0.0551758-0.1640625c-0.0170898-0.0683594-0.0253906-0.1347656-0.0253906-0.1982422
				c0-0.1318359,0.0322266-0.2353516,0.0957031-0.3105469s0.1499023-0.1123047,0.2587891-0.1123047
				c0.0488281,0,0.0947266,0.0058594,0.137207,0.0185547c0.0419922,0.0126953,0.0825195,0.0302734,0.1206055,0.0546875
				c0.0356445,0.0224609,0.0708008,0.0488281,0.1054688,0.0791016c0.0341797,0.0302734,0.0727539,0.0673828,0.1147461,0.1103516
				c0.0605469,0.0615234,0.1191406,0.125,0.1757813,0.1914063c0.0566406,0.0654297,0.109375,0.1269531,0.1577148,0.1835938
				v-0.6923828H23.5610352z"/>
		</g>
	</g>
</g>
<g id="Микросхемы">
	<g>
		
			<rect x="58.3745079" y="34.1348" transform="matrix(-1 -1.224647e-16 1.224647e-16 -1 127.560318 82.2047272)" class="st8" width="10.8112955" height="13.9351263"/>
		<rect x="53.3076172" y="34.8494225" class="st1" width="5.0668931" height="1.7651168"/>
		<rect x="53.3076172" y="38.4904213" class="st1" width="5.0668931" height="1.7633286"/>
		<rect x="53.3076172" y="42.129631" class="st1" width="5.0668931" height="1.7633286"/>
		<rect x="53.3076172" y="45.7259674" class="st1" width="5.0668931" height="1.7633286"/>
		<rect x="69.1858063" y="45.7259674" class="st1" width="5.0668931" height="1.7633286"/>
		<rect x="69.1858063" y="42.0849686" class="st1" width="5.0668931" height="1.7651168"/>
		<rect x="69.1858063" y="38.4439697" class="st1" width="5.0668931" height="1.7651168"/>
		<rect x="69.1858063" y="34.8047562" class="st1" width="5.0668931" height="1.7633286"/>
		<g>
			<path class="st9" d="M66.3320313,37.1201172c-0.0820313,0-0.1572266-0.0136719-0.2265625-0.0419922
				s-0.1289063-0.0673828-0.1796875-0.1181641c-0.0644531-0.0625-0.1113281-0.1367188-0.1425781-0.2216797
				c-0.0322266-0.0859375-0.0478516-0.1933594-0.0478516-0.3242188v-0.2412109h-0.6835938v-0.2421875h1.8339844v0.4931641
				c0,0.109375-0.0087891,0.2021484-0.0283203,0.2773438c-0.0175781,0.0761719-0.046875,0.1435547-0.0859375,0.2021484
				c-0.046875,0.0683594-0.1054688,0.1220703-0.1757813,0.1601563
				C66.5263672,37.1015625,66.4384766,37.1201172,66.3320313,37.1201172z M66.3251953,36.8691406
				c0.0634766,0,0.1181641-0.0117188,0.1650391-0.0332031c0.046875-0.0224609,0.0859375-0.0556641,0.1152344-0.1005859
				c0.0253906-0.0390625,0.0429688-0.0830078,0.0546875-0.1337891c0.0107422-0.0498047,0.015625-0.1132813,0.015625-0.1894531
				v-0.2392578h-0.7324219v0.2041016c0,0.0976563,0.0087891,0.1767578,0.0273438,0.2373047
				c0.0175781,0.0615234,0.0449219,0.1113281,0.0839844,0.1494141s0.0800781,0.0654297,0.1240234,0.0810547
				S66.2714844,36.8691406,66.3251953,36.8691406z"/>
			<path class="st9" d="M65.1845703,38.8427734c-0.0195313-0.0449219-0.0380859-0.0849609-0.0556641-0.1210938
				c-0.0166016-0.0361328-0.0351563-0.0839844-0.0537109-0.1425781c-0.015625-0.0498047-0.0283203-0.1035156-0.0400391-0.1621094
				c-0.0117188-0.0576172-0.0166016-0.1220703-0.0166016-0.1923828c0-0.1318359,0.0185547-0.2509766,0.0556641-0.359375
				c0.0371094-0.1074219,0.0957031-0.2011719,0.1757813-0.28125c0.078125-0.078125,0.1777344-0.1396484,0.296875-0.1835938
				c0.1210938-0.0439453,0.2607422-0.0654297,0.4199219-0.0654297c0.1513672,0,0.2861328,0.0205078,0.4052734,0.0634766
				c0.1191406,0.0419922,0.2197266,0.1035156,0.3017578,0.1826172c0.0800781,0.078125,0.140625,0.1708984,0.1826172,0.2802734
				c0.0419922,0.1103516,0.0625,0.2314453,0.0625,0.3652344c0,0.0976563-0.0117188,0.1953125-0.0361328,0.2919922
				c-0.0234375,0.0976563-0.0644531,0.2060547-0.125,0.3242188H66.46875v-0.0175781
				c0.0839844-0.1005859,0.1455078-0.2001953,0.1835938-0.2988281c0.0390625-0.0976563,0.0585938-0.203125,0.0585938-0.3164063
				c0-0.0917969-0.015625-0.1748047-0.0449219-0.2480469s-0.0761719-0.1396484-0.1396484-0.1972656
				c-0.0615234-0.0566406-0.1396484-0.0996094-0.2333984-0.1308594c-0.09375-0.0322266-0.203125-0.0478516-0.3261719-0.0478516
				c-0.1289063,0-0.2402344,0.0175781-0.3320313,0.0527344c-0.09375,0.0341797-0.1689453,0.0791016-0.2265625,0.1337891
				c-0.0605469,0.0566406-0.1064453,0.1230469-0.1347656,0.1992188c-0.0292969,0.0761719-0.0449219,0.15625-0.0449219,0.2412109
				c0,0.1162109,0.0205078,0.2255859,0.0605469,0.3271484c0.0410156,0.1015625,0.1015625,0.1972656,0.1816406,0.2861328v0.0166016
				H65.1845703z"/>
			<path class="st9" d="M65.0517578,40.6196289v-0.2578125L65.5625,40.1835938v-0.7871094L65.0517578,39.21875v-0.2451172
				l1.8339844,0.6611328v0.3227539L65.0517578,40.6196289z M65.7724609,40.1088867l0.9003906-0.3188477l-0.9003906-0.3193359
				V40.1088867z"/>
			<path class="st9" d="M66.0791016,42.0761719c-0.1601563,0-0.3056641-0.0180664-0.4365234-0.0541992
				c-0.1308594-0.0366211-0.2412109-0.0913086-0.3339844-0.1645508c-0.0927734-0.0742188-0.1650391-0.1669922-0.2167969-0.2783203
				c-0.0507813-0.1118164-0.0761719-0.2426758-0.0761719-0.3930664c0-0.0424805,0.0019531-0.0825195,0.0078125-0.1201172
				c0.0039063-0.0371094,0.0117188-0.0708008,0.0214844-0.1000977h0.234375v0.012207
				c-0.0117188,0.0239258-0.0234375,0.0571289-0.0351563,0.1000977c-0.0107422,0.043457-0.015625,0.0913086-0.015625,0.1445313
				c0,0.1796875,0.0537109,0.3208008,0.1621094,0.4228516c0.109375,0.1020508,0.2597656,0.1616211,0.4511719,0.1777344
				c-0.046875-0.0756836-0.0791016-0.1469727-0.0996094-0.2138672c-0.0195313-0.0664063-0.0292969-0.1396484-0.0292969-0.2182617
				c0-0.0751953,0.0078125-0.1430664,0.0224609-0.2036133s0.0439453-0.121582,0.0869141-0.1826172
				c0.0488281-0.0712891,0.1132813-0.1254883,0.1904297-0.1616211s0.1689453-0.0541992,0.2763672-0.0541992
				c0.1875,0,0.3398438,0.0610352,0.4570313,0.1831055c0.1181641,0.1220703,0.1767578,0.2709961,0.1767578,0.4467773
				c0,0.0878906-0.0136719,0.1694336-0.0419922,0.2441406c-0.0273438,0.0751953-0.0683594,0.140625-0.1230469,0.1967773
				c-0.0683594,0.0693359-0.15625,0.1225586-0.2636719,0.1601563
				C66.3876953,42.0571289,66.2490234,42.0761719,66.0791016,42.0761719z M66.1318359,41.8295898
				c0.1279297,0,0.2294922-0.0131836,0.3066406-0.0390625c0.0771484-0.0263672,0.1376953-0.0620117,0.1806641-0.1079102
				c0.0361328-0.0380859,0.0625-0.0791016,0.0791016-0.1230469c0.015625-0.0439453,0.0244141-0.0917969,0.0244141-0.1430664
				c0-0.1171875-0.0371094-0.2099609-0.1113281-0.277832s-0.1777344-0.1020508-0.3125-0.1020508
				c-0.0771484,0-0.140625,0.0112305-0.1904297,0.0332031c-0.0488281,0.0219727-0.0927734,0.059082-0.1289063,0.1113281
				c-0.0263672,0.0366211-0.0419922,0.0766602-0.0517578,0.1206055c-0.0078125,0.0439453-0.0126953,0.0927734-0.0126953,0.1464844
				c0,0.0634766,0.0087891,0.1279297,0.0263672,0.1928711c0.0175781,0.0654297,0.0419922,0.1264648,0.0742188,0.1835938
				c0.0175781,0.0004883,0.0351563,0.0014648,0.0517578,0.0029297
				C66.0839844,41.8286133,66.1054688,41.8295898,66.1318359,41.8295898z"/>
			<path class="st9" d="M65.9355469,43.5087891c-0.0361328,0.0390625-0.0800781,0.0712891-0.1337891,0.0966797
				c-0.0537109,0.0249023-0.1220703,0.0375977-0.2070313,0.0375977c-0.0830078,0-0.1601563-0.0151367-0.2294922-0.0449219
				c-0.0703125-0.0302734-0.1308594-0.0727539-0.1835938-0.1269531c-0.0566406-0.0610352-0.0996094-0.1333008-0.1269531-0.2158203
				s-0.0410156-0.1733398-0.0410156-0.2714844c0-0.1010742,0.0117188-0.2001953,0.0361328-0.2983398
				c0.0244141-0.0976563,0.0507813-0.1777344,0.0791016-0.2402344h0.2578125v0.0180664
				c-0.0458984,0.0693359-0.0839844,0.1508789-0.1142578,0.2441406c-0.0302734,0.09375-0.0458984,0.184082-0.0458984,0.2714844
				c0,0.0512695,0.0087891,0.1054688,0.0253906,0.1635742c0.0175781,0.0576172,0.0429688,0.1044922,0.0771484,0.140625
				c0.0361328,0.0371094,0.0751953,0.0649414,0.1191406,0.0834961c0.0439453,0.0180664,0.0986328,0.0273438,0.1650391,0.0273438
				s0.1201172-0.0102539,0.1640625-0.03125c0.0429688-0.0205078,0.0761719-0.0493164,0.1015625-0.0859375
				s0.0429688-0.0810547,0.0517578-0.1333008c0.0087891-0.0517578,0.0146484-0.1079102,0.0146484-0.168457v-0.1098633h0.2041016
				v0.0854492c0,0.1240234,0.0263672,0.2226563,0.078125,0.2963867s0.1279297,0.1103516,0.2285156,0.1103516
				c0.0439453,0,0.0830078-0.0092773,0.1162109-0.027832c0.0332031-0.019043,0.0605469-0.0449219,0.0820313-0.0786133
				c0.0214844-0.034668,0.0361328-0.0722656,0.0449219-0.1123047c0.0078125-0.0395508,0.0117188-0.0849609,0.0117188-0.1352539
				c0-0.0776367-0.0136719-0.159668-0.0419922-0.2470703c-0.0283203-0.0869141-0.0673828-0.1689453-0.1181641-0.246582v-0.012207
				h0.2578125c0.0283203,0.0581055,0.0546875,0.1352539,0.0791016,0.2314453
				c0.0244141,0.0966797,0.0361328,0.1899414,0.0361328,0.2802734c0,0.0888672-0.0078125,0.1669922-0.0244141,0.234375
				c-0.0166016,0.0678711-0.0429688,0.1289063-0.0791016,0.1835938c-0.0390625,0.0585938-0.0869141,0.1030273-0.1425781,0.1328125
				c-0.0566406,0.0302734-0.1210938,0.0454102-0.1953125,0.0454102c-0.1025391,0-0.1914063-0.0356445-0.2675781-0.1069336
				s-0.1230469-0.1552734-0.1425781-0.2524414h-0.0175781c-0.0068359,0.0395508-0.0205078,0.0839844-0.0410156,0.1347656
				C65.9921875,43.4311523,65.9667969,43.4741211,65.9355469,43.5087891z"/>
			<path class="st9" d="M65.96875,45.2558594c-0.328125,0-0.5703125-0.0507813-0.7246094-0.1523438
				c-0.1542969-0.1025391-0.2304688-0.2617188-0.2304688-0.4765625c0-0.2177734,0.078125-0.3769531,0.234375-0.4775391
				s0.3955078-0.1508789,0.71875-0.1508789c0.3261719,0,0.5664063,0.050293,0.7226563,0.1518555
				c0.15625,0.1025391,0.2333984,0.2617188,0.2333984,0.4765625c0,0.21875-0.0791016,0.3779297-0.2373047,0.4785156
				S66.2890625,45.2558594,65.96875,45.2558594z M65.4101563,44.9355469c0.0664063,0.0273438,0.1445313,0.046875,0.234375,0.0576172
				s0.1982422,0.0146484,0.3242188,0.0146484c0.125,0,0.234375-0.0039063,0.3261719-0.0146484
				s0.1699219-0.0302734,0.234375-0.0595703c0.0625-0.0283203,0.1103516-0.0664063,0.1425781-0.1162109
				c0.03125-0.0498047,0.0478516-0.1123047,0.0478516-0.1904297c0-0.0761719-0.0166016-0.1396484-0.0478516-0.1894531
				c-0.0322266-0.0507813-0.0810547-0.0898438-0.1455078-0.1191406c-0.0615234-0.0273438-0.1396484-0.046875-0.2373047-0.0566406
				s-0.2050781-0.015625-0.3222656-0.015625c-0.1279297,0-0.2353516,0.0048828-0.3212891,0.0136719
				c-0.0869141,0.0087891-0.1630859,0.0273438-0.2314453,0.0566406c-0.0644531,0.0273438-0.1132813,0.0654297-0.1464844,0.1152344
				c-0.0341797,0.0488281-0.0507813,0.1142578-0.0507813,0.1953125c0,0.0761719,0.015625,0.140625,0.0478516,0.1914063
				C65.296875,44.8681641,65.3457031,44.9072266,65.4101563,44.9355469z"/>
			<path class="st9" d="M65.6464844,46.8759766c-0.1855469,0-0.3378906-0.0615234-0.4560547-0.1826172
				s-0.1767578-0.2714844-0.1767578-0.4472656c0-0.0898438,0.0136719-0.171875,0.0419922-0.2441406
				c0.0283203-0.0742188,0.0693359-0.1386719,0.1240234-0.1953125c0.0683594-0.0693359,0.1582031-0.1230469,0.2714844-0.1611328
				c0.1123047-0.0380859,0.2480469-0.0566406,0.40625-0.0566406c0.1621094,0,0.3066406,0.0166016,0.4316406,0.0517578
				c0.1269531,0.0351563,0.2382813,0.0898438,0.3359375,0.1660156c0.0917969,0.0712891,0.1650391,0.1640625,0.2167969,0.2773438
				c0.0527344,0.1123047,0.078125,0.2441406,0.078125,0.3945313c0,0.0488281-0.0019531,0.0888672-0.0058594,0.1210938
				c-0.0039063,0.0332031-0.0117188,0.0664063-0.0214844,0.0996094H66.65625v-0.0126953
				c0.0126953-0.0224609,0.0244141-0.0576172,0.0351563-0.1025391c0.0117188-0.046875,0.0175781-0.09375,0.0175781-0.1416016
				c0-0.1748047-0.0556641-0.3154297-0.1660156-0.4189453c-0.1113281-0.1035156-0.2597656-0.1650391-0.4472656-0.1816406
				c0.0410156,0.0683594,0.0732422,0.1347656,0.0947266,0.2011719c0.0224609,0.0664063,0.0322266,0.1435547,0.0322266,0.2304688
				c0,0.078125-0.0068359,0.1464844-0.0214844,0.2050781c-0.0136719,0.0585938-0.0429688,0.1191406-0.0859375,0.1816406
				c-0.0507813,0.0712891-0.1132813,0.125-0.1894531,0.1621094C65.8486328,46.8574219,65.7558594,46.8759766,65.6464844,46.8759766z
				 M65.6367188,46.6279297c0.0761719,0,0.1396484-0.0107422,0.1894531-0.0341797
				c0.0507813-0.0214844,0.09375-0.0585938,0.1308594-0.109375c0.0263672-0.0380859,0.0429688-0.0800781,0.0517578-0.125
				c0.0087891-0.0458984,0.0126953-0.09375,0.0126953-0.1425781c0-0.0693359-0.0087891-0.1337891-0.0253906-0.1933594
				c-0.015625-0.0595703-0.0410156-0.1210938-0.0761719-0.1835938c-0.0175781-0.0009766-0.0351563-0.0019531-0.0527344-0.0039063
				c-0.015625,0-0.0371094,0-0.0625,0c-0.1298828,0-0.2324219,0.0126953-0.3076172,0.0390625s-0.1337891,0.0625-0.1787109,0.109375
				c-0.0351563,0.0371094-0.0625,0.078125-0.078125,0.1210938c-0.0175781,0.0439453-0.0253906,0.0917969-0.0253906,0.1425781
				c0,0.1181641,0.0351563,0.2109375,0.1083984,0.2792969C65.3964844,46.59375,65.5,46.6279297,65.6367188,46.6279297z"/>
		</g>
	</g>
</g>
<g id="Конденсаторы">
	<g>
		<g id="XMLID_10_">
			<g>
				<rect x="53.7759895" y="27.2828484" class="st7" width="4.255477" height="3.4376609"/>
			</g>
			<g>
			</g>
		</g>
		<g id="XMLID_9_">
			<g>
				<rect x="53.7352753" y="20.1543941" class="st7" width="4.255477" height="3.4376609"/>
			</g>
			<g>
			</g>
		</g>
		<g id="XMLID_8_">
			<g>
				<rect x="54.0857697" y="22.8245983" class="st10" width="3.6058266" height="5.1633434"/>
			</g>
			<g>
			</g>
		</g>
	</g>
	<g>
		<g id="XMLID_13_">
			<g>
				<rect x="68.2875366" y="27.2828484" class="st7" width="4.255477" height="3.4376609"/>
			</g>
			<g>
			</g>
		</g>
		<g id="XMLID_12_">
			<g>
				<rect x="68.2468262" y="20.1543941" class="st7" width="4.255477" height="3.4376609"/>
			</g>
			<g>
			</g>
		</g>
		<g id="XMLID_11_">
			<g>
				<rect x="68.5973129" y="22.8245983" class="st10" width="3.6058266" height="5.1633434"/>
			</g>
			<g>
			</g>
		</g>
	</g>
	<g>
		<g id="XMLID_29_">
			<g>
				<rect x="22.7952461" y="27.2828484" class="st7" width="4.255477" height="3.4376609"/>
			</g>
			<g>
			</g>
		</g>
		<g id="XMLID_28_">
			<g>
				<rect x="22.7545319" y="20.1543941" class="st7" width="4.255477" height="3.4376609"/>
			</g>
			<g>
			</g>
		</g>
		<g id="XMLID_21_">
			<g>
				<rect x="23.1050262" y="22.8245983" class="st10" width="3.6058266" height="5.1633434"/>
			</g>
			<g>
			</g>
		</g>
	</g>
	<g>
		
			<rect x="36.7013397" y="37.5590553" transform="matrix(-1.836970e-16 1 -1 -1.836970e-16 83.4729919 -1.2682703)" class="st11" width="11.338583" height="7.0866141"/>
		<line class="st12" x1="38.8273239" y1="39.1181107" x2="45.9139404" y2="39.1181107"/>
		<radialGradient id="SVGID_1_" cx="42.3706322" cy="36.4445343" r="0.8798287" gradientUnits="userSpaceOnUse">
			<stop  offset="0.0833333" style="stop-color:#D76543;stop-opacity:0.7"/>
			<stop  offset="0.108146" style="stop-color:#C4684B;stop-opacity:0.7394914"/>
			<stop  offset="0.2212857" style="stop-color:#857073;stop-opacity:0.919562"/>
			<stop  offset="0.2718254" style="stop-color:#727183"/>
			<stop  offset="0.3281638" style="stop-color:#627391;stop-opacity:0.913078"/>
			<stop  offset="0.3827631" style="stop-color:#56739D;stop-opacity:0.8288389"/>
			<stop  offset="0.4305519" style="stop-color:#4F74A5;stop-opacity:0.7551076"/>
			<stop  offset="0.4662699" style="stop-color:#4C74A8;stop-opacity:0.7"/>
			<stop  offset="0.4741453" style="stop-color:#5074A3;stop-opacity:0.6929205"/>
			<stop  offset="0.5250289" style="stop-color:#6A728A;stop-opacity:0.6471797"/>
			<stop  offset="0.5757827" style="stop-color:#817077;stop-opacity:0.6015557"/>
			<stop  offset="0.6252708" style="stop-color:#976E67;stop-opacity:0.5570692"/>
			<stop  offset="0.6732208" style="stop-color:#AB6C5A;stop-opacity:0.5139656"/>
			<stop  offset="0.7192109" style="stop-color:#BA6A51;stop-opacity:0.4726238"/>
			<stop  offset="0.7624055" style="stop-color:#C4694C;stop-opacity:0.4337948"/>
			<stop  offset="0.8" style="stop-color:#C7684A;stop-opacity:0.4"/>
			<stop  offset="0.8366973" style="stop-color:#C5694A;stop-opacity:0.4183486"/>
			<stop  offset="0.8649297" style="stop-color:#BF6D4B;stop-opacity:0.4324648"/>
			<stop  offset="0.8903465" style="stop-color:#B5724D;stop-opacity:0.4451732"/>
			<stop  offset="0.9141181" style="stop-color:#A77A50;stop-opacity:0.4570591"/>
			<stop  offset="0.9367386" style="stop-color:#968454;stop-opacity:0.4683693"/>
			<stop  offset="0.9584945" style="stop-color:#858F59;stop-opacity:0.4792473"/>
			<stop  offset="0.9792564" style="stop-color:#739E5D;stop-opacity:0.4896282"/>
			<stop  offset="0.9992951" style="stop-color:#5EAE61;stop-opacity:0.4996476"/>
			<stop  offset="1" style="stop-color:#5DAF61;stop-opacity:0.5"/>
		</radialGradient>
		<circle class="st13" cx="42.3706322" cy="36.4445343" r="0.8798287"/>
		<radialGradient id="SVGID_2_" cx="42.3706322" cy="44.7344666" r="1.5949461" gradientUnits="userSpaceOnUse">
			<stop  offset="0.0833333" style="stop-color:#D76543;stop-opacity:0.7"/>
			<stop  offset="0.108146" style="stop-color:#C4684B;stop-opacity:0.7394914"/>
			<stop  offset="0.2212857" style="stop-color:#857073;stop-opacity:0.919562"/>
			<stop  offset="0.2718254" style="stop-color:#727183"/>
			<stop  offset="0.3281638" style="stop-color:#627391;stop-opacity:0.913078"/>
			<stop  offset="0.3827631" style="stop-color:#56739D;stop-opacity:0.8288389"/>
			<stop  offset="0.4305519" style="stop-color:#4F74A5;stop-opacity:0.7551076"/>
			<stop  offset="0.4662699" style="stop-color:#4C74A8;stop-opacity:0.7"/>
			<stop  offset="0.4741453" style="stop-color:#5074A3;stop-opacity:0.6929205"/>
			<stop  offset="0.5250289" style="stop-color:#6A728A;stop-opacity:0.6471797"/>
			<stop  offset="0.5757827" style="stop-color:#817077;stop-opacity:0.6015557"/>
			<stop  offset="0.6252708" style="stop-color:#976E67;stop-opacity:0.5570692"/>
			<stop  offset="0.6732208" style="stop-color:#AB6C5A;stop-opacity:0.5139656"/>
			<stop  offset="0.7192109" style="stop-color:#BA6A51;stop-opacity:0.4726238"/>
			<stop  offset="0.7624055" style="stop-color:#C4694C;stop-opacity:0.4337948"/>
			<stop  offset="0.8" style="stop-color:#C7684A;stop-opacity:0.4"/>
			<stop  offset="0.8366973" style="stop-color:#C5694A;stop-opacity:0.4183486"/>
			<stop  offset="0.8649297" style="stop-color:#BF6D4B;stop-opacity:0.4324648"/>
			<stop  offset="0.8903465" style="stop-color:#B5724D;stop-opacity:0.4451732"/>
			<stop  offset="0.9141181" style="stop-color:#A77A50;stop-opacity:0.4570591"/>
			<stop  offset="0.9367386" style="stop-color:#968454;stop-opacity:0.4683693"/>
			<stop  offset="0.9584945" style="stop-color:#858F59;stop-opacity:0.4792473"/>
			<stop  offset="0.9792564" style="stop-color:#739E5D;stop-opacity:0.4896282"/>
			<stop  offset="0.9992951" style="stop-color:#5EAE61;stop-opacity:0.4996476"/>
			<stop  offset="1" style="stop-color:#5DAF61;stop-opacity:0.5"/>
		</radialGradient>
		<circle class="st14" cx="42.3706322" cy="44.7344666" r="1.5949461"/>
	</g>
</g>
<g id="Резисторы">
	<g>
		<g id="XMLID_3_">
			<g>
				<rect x="38.2239075" y="20.1550426" class="st7" width="4.255477" height="3.4376609"/>
			</g>
			<g>
			</g>
		</g>
		<g id="XMLID_2_">
			<g>
				<rect x="38.2646217" y="27.2834988" class="st7" width="4.255477" height="3.4376609"/>
			</g>
			<g>
			</g>
		</g>
		<g id="XMLID_1_">
			<g>
				<rect x="38.5637817" y="22.888216" class="st8" width="3.6058266" height="5.1611581"/>
			</g>
			<g>
			</g>
		</g>
		<g>
			<path class="st9" d="M39.8217773,24.5283203V23.831543h0.1313477v0.2680664h0.862793V23.831543h0.1171875
				c0,0.0361328,0.003418,0.0751953,0.0092773,0.1166992s0.0146484,0.0727539,0.0263672,0.0942383
				c0.0141602,0.0263672,0.0327148,0.0473633,0.0546875,0.0625c0.0224609,0.015625,0.0522461,0.0244141,0.0898438,0.0263672
				v0.1342773H39.953125v0.2626953H39.8217773z"/>
			<path class="st9" d="M40.4658203,25.5483398c-0.230957,0-0.4008789-0.0361328-0.5087891-0.1083984
				s-0.1621094-0.1845703-0.1621094-0.3369141c0-0.1542969,0.0546875-0.2670898,0.1640625-0.3383789
				c0.1098633-0.0712891,0.277832-0.1064453,0.5048828-0.1064453c0.2290039,0,0.3979492,0.0356445,0.5068359,0.1079102
				c0.109375,0.0717773,0.1640625,0.184082,0.1640625,0.3369141c0,0.1542969-0.0556641,0.2670898-0.1665039,0.3383789
				S40.6899414,25.5483398,40.4658203,25.5483398z M40.0732422,25.3208008
				c0.046875,0.0205078,0.1015625,0.0341797,0.1645508,0.0410156c0.0634766,0.0073242,0.1391602,0.0107422,0.2280273,0.0107422
				c0.0874023,0,0.1635742-0.003418,0.2280273-0.0107422c0.0644531-0.0068359,0.1191406-0.0209961,0.1640625-0.0419922
				c0.0444336-0.0200195,0.078125-0.0473633,0.1005859-0.0825195c0.0224609-0.034668,0.0336914-0.0795898,0.0336914-0.1342773
				c0-0.0541992-0.0112305-0.0991211-0.0336914-0.1342773c-0.0224609-0.0356445-0.0566406-0.0634766-0.1020508-0.0844727
				c-0.0424805-0.0195313-0.0981445-0.0327148-0.1669922-0.0400391c-0.0683594-0.0073242-0.1435547-0.0107422-0.2255859-0.0107422
				c-0.0898438,0-0.1650391,0.0029297-0.2255859,0.0092773s-0.1147461,0.0200195-0.1625977,0.0410156
				c-0.0449219,0.0185547-0.0791016,0.0458984-0.1025391,0.0805664c-0.0239258,0.034668-0.0356445,0.0810547-0.0356445,0.1386719
				c0,0.0541992,0.0112305,0.0991211,0.0336914,0.1347656S40.027832,25.3012695,40.0732422,25.3208008z"/>
			<path class="st9" d="M40.4658203,26.496582c-0.230957,0-0.4008789-0.0361328-0.5087891-0.1083984
				s-0.1621094-0.1845703-0.1621094-0.3369141c0-0.1542969,0.0546875-0.2670898,0.1640625-0.3383789
				c0.1098633-0.0712891,0.277832-0.1064453,0.5048828-0.1064453c0.2290039,0,0.3979492,0.0356445,0.5068359,0.1079102
				c0.109375,0.0717773,0.1640625,0.184082,0.1640625,0.3369141c0,0.1542969-0.0556641,0.2670898-0.1665039,0.3383789
				S40.6899414,26.496582,40.4658203,26.496582z M40.0732422,26.269043c0.046875,0.0205078,0.1015625,0.0341797,0.1645508,0.0410156
				c0.0634766,0.0073242,0.1391602,0.0107422,0.2280273,0.0107422c0.0874023,0,0.1635742-0.003418,0.2280273-0.0107422
				c0.0644531-0.0068359,0.1191406-0.0209961,0.1640625-0.0419922c0.0444336-0.0200195,0.078125-0.0473633,0.1005859-0.0825195
				c0.0224609-0.034668,0.0336914-0.0795898,0.0336914-0.1342773c0-0.0541992-0.0112305-0.0991211-0.0336914-0.1342773
				c-0.0224609-0.0356445-0.0566406-0.0634766-0.1020508-0.0844727c-0.0424805-0.0195313-0.0981445-0.0327148-0.1669922-0.0400391
				c-0.0683594-0.0073242-0.1435547-0.0107422-0.2255859-0.0107422c-0.0898438,0-0.1650391,0.0029297-0.2255859,0.0092773
				s-0.1147461,0.0200195-0.1625977,0.0410156c-0.0449219,0.0185547-0.0791016,0.0458984-0.1025391,0.0805664
				c-0.0239258,0.034668-0.0356445,0.0810547-0.0356445,0.1386719c0,0.0541992,0.0112305,0.0991211,0.0336914,0.1347656
				S40.027832,26.2495117,40.0732422,26.269043z"/>
			<path class="st9" d="M39.8217773,27.4467773v-0.8710938h0.1806641c0.0517578,0.0605469,0.1035156,0.1210938,0.1557617,0.1821289
				C40.2099609,26.8183594,40.2612305,26.875,40.3125,26.9272461c0.1074219,0.1108398,0.1923828,0.1865234,0.2558594,0.2275391
				c0.0629883,0.0410156,0.1308594,0.0615234,0.2041016,0.0615234c0.0668945,0,0.1191406-0.0219727,0.1567383-0.0664063
				c0.0380859-0.0439453,0.0566406-0.1054688,0.0566406-0.1845703c0-0.0522461-0.0087891-0.1088867-0.0273438-0.1699219
				s-0.046875-0.1210938-0.0849609-0.1791992v-0.0087891h0.1816406c0.0200195,0.0410156,0.0385742,0.0957031,0.0551758,0.1640625
				c0.0170898,0.0683594,0.0253906,0.1342773,0.0253906,0.1982422c0,0.1318359-0.0322266,0.2353516-0.0957031,0.3105469
				c-0.0634766,0.074707-0.1499023,0.1123047-0.2587891,0.1123047c-0.0488281,0-0.0947266-0.0063477-0.137207-0.0185547
				c-0.0419922-0.0126953-0.0825195-0.0307617-0.1206055-0.0551758c-0.0356445-0.0224609-0.0708008-0.0488281-0.1054688-0.0791016
				c-0.0341797-0.0302734-0.0727539-0.0668945-0.1147461-0.1098633c-0.0605469-0.0620117-0.1191406-0.1254883-0.1757813-0.1914063
				c-0.0566406-0.0654297-0.109375-0.1269531-0.1577148-0.184082v0.6923828H39.8217773z"/>
		</g>
	</g>
	<g>
		<g id="XMLID_35_">
			<g>
				<rect x="46.4796829" y="20.1550426" class="st7" width="4.255477" height="3.4376609"/>
			</g>
			<g>
			</g>
		</g>
		<g id="XMLID_34_">
			<g>
				<rect x="46.5203934" y="27.2834988" class="st7" width="4.255477" height="3.4376609"/>
			</g>
			<g>
			</g>
		</g>
		<g id="XMLID_33_">
			<g>
				<rect x="46.8195534" y="22.888216" class="st8" width="3.6058266" height="5.1611581"/>
			</g>
			<g>
			</g>
		</g>
		<g>
			<path class="st9" d="M48.078125,24.5283203V23.831543h0.1308594v0.2680664h0.8632813V23.831543h0.1171875
				c0,0.0361328,0.0029297,0.0751953,0.0087891,0.1166992s0.0146484,0.0727539,0.0263672,0.0942383
				c0.0136719,0.0263672,0.0332031,0.0473633,0.0546875,0.0625c0.0224609,0.015625,0.0527344,0.0244141,0.0898438,0.0263672
				v0.1342773h-1.1601563v0.2626953H48.078125z"/>
			<path class="st9" d="M48.7216797,25.5483398c-0.2314453,0-0.4013672-0.0361328-0.5087891-0.1083984
				s-0.1621094-0.1845703-0.1621094-0.3369141c0-0.1542969,0.0546875-0.2670898,0.1640625-0.3383789
				s0.2773438-0.1064453,0.5048828-0.1064453c0.2294922,0,0.3974609,0.0356445,0.5068359,0.1079102
				c0.109375,0.0717773,0.1640625,0.184082,0.1640625,0.3369141c0,0.1542969-0.0556641,0.2670898-0.1660156,0.3383789
				C49.1132813,25.5126953,48.9453125,25.5483398,48.7216797,25.5483398z M48.3291016,25.3208008
				c0.046875,0.0205078,0.1015625,0.0341797,0.1650391,0.0410156c0.0625,0.0073242,0.1386719,0.0107422,0.2275391,0.0107422
				c0.0869141,0,0.1630859-0.003418,0.2275391-0.0107422c0.0644531-0.0068359,0.1191406-0.0209961,0.1640625-0.0419922
				c0.0449219-0.0200195,0.078125-0.0473633,0.1015625-0.0825195c0.0214844-0.034668,0.0332031-0.0795898,0.0332031-0.1342773
				c0-0.0541992-0.0117188-0.0991211-0.0332031-0.1342773c-0.0234375-0.0356445-0.0566406-0.0634766-0.1025391-0.0844727
				c-0.0419922-0.0195313-0.0986328-0.0327148-0.1669922-0.0400391s-0.1435547-0.0107422-0.2255859-0.0107422
				c-0.0898438,0-0.1650391,0.0029297-0.2255859,0.0092773s-0.1152344,0.0200195-0.1621094,0.0410156
				c-0.0449219,0.0185547-0.0800781,0.0458984-0.1035156,0.0805664s-0.0351563,0.0810547-0.0351563,0.1386719
				c0,0.0541992,0.0117188,0.0991211,0.0332031,0.1347656C48.25,25.2734375,48.2832031,25.3012695,48.3291016,25.3208008z"/>
			<path class="st9" d="M48.7216797,26.496582c-0.2314453,0-0.4013672-0.0361328-0.5087891-0.1083984
				s-0.1621094-0.1845703-0.1621094-0.3369141c0-0.1542969,0.0546875-0.2670898,0.1640625-0.3383789
				s0.2773438-0.1064453,0.5048828-0.1064453c0.2294922,0,0.3974609,0.0356445,0.5068359,0.1079102
				c0.109375,0.0717773,0.1640625,0.184082,0.1640625,0.3369141c0,0.1542969-0.0556641,0.2670898-0.1660156,0.3383789
				C49.1132813,26.4609375,48.9453125,26.496582,48.7216797,26.496582z M48.3291016,26.269043
				c0.046875,0.0205078,0.1015625,0.0341797,0.1650391,0.0410156c0.0625,0.0073242,0.1386719,0.0107422,0.2275391,0.0107422
				c0.0869141,0,0.1630859-0.003418,0.2275391-0.0107422c0.0644531-0.0068359,0.1191406-0.0209961,0.1640625-0.0419922
				c0.0449219-0.0200195,0.078125-0.0473633,0.1015625-0.0825195c0.0214844-0.034668,0.0332031-0.0795898,0.0332031-0.1342773
				c0-0.0541992-0.0117188-0.0991211-0.0332031-0.1342773c-0.0234375-0.0356445-0.0566406-0.0634766-0.1025391-0.0844727
				c-0.0419922-0.0195313-0.0986328-0.0327148-0.1669922-0.0400391s-0.1435547-0.0107422-0.2255859-0.0107422
				c-0.0898438,0-0.1650391,0.0029297-0.2255859,0.0092773s-0.1152344,0.0200195-0.1621094,0.0410156
				c-0.0449219,0.0185547-0.0800781,0.0458984-0.1035156,0.0805664s-0.0351563,0.0810547-0.0351563,0.1386719
				c0,0.0541992,0.0117188,0.0991211,0.0332031,0.1347656C48.25,26.2216797,48.2832031,26.2495117,48.3291016,26.269043z"/>
			<path class="st9" d="M48.078125,27.4467773v-0.8710938h0.1796875c0.0527344,0.0605469,0.1035156,0.1210938,0.15625,0.1821289
				c0.0517578,0.0605469,0.1035156,0.1171875,0.1542969,0.1694336c0.1074219,0.1108398,0.1923828,0.1865234,0.2558594,0.2275391
				c0.0625,0.0410156,0.1308594,0.0615234,0.2041016,0.0615234c0.0673828,0,0.1191406-0.0219727,0.1572266-0.0664063
				c0.0371094-0.0439453,0.0566406-0.1054688,0.0566406-0.1845703c0-0.0522461-0.0097656-0.1088867-0.0273438-0.1699219
				c-0.0195313-0.0610352-0.046875-0.1210938-0.0859375-0.1791992v-0.0087891h0.1816406
				c0.0205078,0.0410156,0.0390625,0.0957031,0.0556641,0.1640625s0.0253906,0.1342773,0.0253906,0.1982422
				c0,0.1318359-0.0322266,0.2353516-0.0957031,0.3105469c-0.0634766,0.074707-0.1494141,0.1123047-0.2587891,0.1123047
				c-0.0488281,0-0.0947266-0.0063477-0.1367188-0.0185547c-0.0429688-0.0126953-0.0830078-0.0307617-0.1210938-0.0551758
				c-0.0351563-0.0224609-0.0703125-0.0488281-0.1054688-0.0791016c-0.0341797-0.0302734-0.0722656-0.0668945-0.1152344-0.1098633
				c-0.0605469-0.0620117-0.1191406-0.1254883-0.1757813-0.1914063c-0.0566406-0.0654297-0.109375-0.1269531-0.1572266-0.184082
				v0.6923828H48.078125z"/>
		</g>
	</g>
	<g>
		<g id="XMLID_20_">
			<g>
				<rect x="60.9912262" y="20.1550426" class="st7" width="4.255477" height="3.4376609"/>
			</g>
			<g>
			</g>
		</g>
		<g id="XMLID_15_">
			<g>
				<rect x="61.0319405" y="27.2834988" class="st7" width="4.255477" height="3.4376609"/>
			</g>
			<g>
			</g>
		</g>
		<g id="XMLID_14_">
			<g>
				<rect x="61.3311005" y="22.888216" class="st8" width="3.6058266" height="5.1611581"/>
			</g>
			<g>
			</g>
		</g>
		<g>
			<path class="st9" d="M62.5898438,24.5283203V23.831543h0.1308594v0.2680664h0.8632813V23.831543h0.1171875
				c0,0.0361328,0.0029297,0.0751953,0.0087891,0.1166992s0.0146484,0.0727539,0.0263672,0.0942383
				c0.0136719,0.0263672,0.0332031,0.0473633,0.0546875,0.0625c0.0224609,0.015625,0.0527344,0.0244141,0.0898438,0.0263672
				v0.1342773h-1.1601563v0.2626953H62.5898438z"/>
			<path class="st9" d="M63.2333984,25.5483398c-0.2314453,0-0.4013672-0.0361328-0.5087891-0.1083984
				S62.5625,25.2553711,62.5625,25.1030273c0-0.1542969,0.0546875-0.2670898,0.1640625-0.3383789
				s0.2773438-0.1064453,0.5048828-0.1064453c0.2294922,0,0.3974609,0.0356445,0.5068359,0.1079102
				c0.109375,0.0717773,0.1640625,0.184082,0.1640625,0.3369141c0,0.1542969-0.0556641,0.2670898-0.1660156,0.3383789
				C63.625,25.5126953,63.4570313,25.5483398,63.2333984,25.5483398z M62.8408203,25.3208008
				c0.046875,0.0205078,0.1015625,0.0341797,0.1650391,0.0410156c0.0625,0.0073242,0.1386719,0.0107422,0.2275391,0.0107422
				c0.0869141,0,0.1630859-0.003418,0.2275391-0.0107422c0.0644531-0.0068359,0.1191406-0.0209961,0.1640625-0.0419922
				c0.0449219-0.0200195,0.078125-0.0473633,0.1015625-0.0825195c0.0214844-0.034668,0.0332031-0.0795898,0.0332031-0.1342773
				c0-0.0541992-0.0117188-0.0991211-0.0332031-0.1342773c-0.0234375-0.0356445-0.0566406-0.0634766-0.1025391-0.0844727
				c-0.0419922-0.0195313-0.0986328-0.0327148-0.1669922-0.0400391s-0.1435547-0.0107422-0.2255859-0.0107422
				c-0.0898438,0-0.1650391,0.0029297-0.2255859,0.0092773S62.890625,24.862793,62.84375,24.8837891
				c-0.0449219,0.0185547-0.0800781,0.0458984-0.1035156,0.0805664s-0.0351563,0.0810547-0.0351563,0.1386719
				c0,0.0541992,0.0117188,0.0991211,0.0332031,0.1347656C62.7617188,25.2734375,62.7949219,25.3012695,62.8408203,25.3208008z"/>
			<path class="st9" d="M63.2333984,26.496582c-0.2314453,0-0.4013672-0.0361328-0.5087891-0.1083984
				S62.5625,26.2036133,62.5625,26.0512695c0-0.1542969,0.0546875-0.2670898,0.1640625-0.3383789
				s0.2773438-0.1064453,0.5048828-0.1064453c0.2294922,0,0.3974609,0.0356445,0.5068359,0.1079102
				c0.109375,0.0717773,0.1640625,0.184082,0.1640625,0.3369141c0,0.1542969-0.0556641,0.2670898-0.1660156,0.3383789
				C63.625,26.4609375,63.4570313,26.496582,63.2333984,26.496582z M62.8408203,26.269043
				c0.046875,0.0205078,0.1015625,0.0341797,0.1650391,0.0410156c0.0625,0.0073242,0.1386719,0.0107422,0.2275391,0.0107422
				c0.0869141,0,0.1630859-0.003418,0.2275391-0.0107422c0.0644531-0.0068359,0.1191406-0.0209961,0.1640625-0.0419922
				c0.0449219-0.0200195,0.078125-0.0473633,0.1015625-0.0825195c0.0214844-0.034668,0.0332031-0.0795898,0.0332031-0.1342773
				c0-0.0541992-0.0117188-0.0991211-0.0332031-0.1342773c-0.0234375-0.0356445-0.0566406-0.0634766-0.1025391-0.0844727
				c-0.0419922-0.0195313-0.0986328-0.0327148-0.1669922-0.0400391s-0.1435547-0.0107422-0.2255859-0.0107422
				c-0.0898438,0-0.1650391,0.0029297-0.2255859,0.0092773s-0.1152344,0.0200195-0.1621094,0.0410156
				c-0.0449219,0.0185547-0.0800781,0.0458984-0.1035156,0.0805664s-0.0351563,0.0810547-0.0351563,0.1386719
				c0,0.0541992,0.0117188,0.0991211,0.0332031,0.1347656C62.7617188,26.2216797,62.7949219,26.2495117,62.8408203,26.269043z"/>
			<path class="st9" d="M62.5898438,27.4467773v-0.8710938h0.1796875c0.0527344,0.0605469,0.1035156,0.1210938,0.15625,0.1821289
				c0.0517578,0.0605469,0.1035156,0.1171875,0.1542969,0.1694336c0.1074219,0.1108398,0.1923828,0.1865234,0.2558594,0.2275391
				c0.0625,0.0410156,0.1308594,0.0615234,0.2041016,0.0615234c0.0673828,0,0.1191406-0.0219727,0.1572266-0.0664063
				c0.0371094-0.0439453,0.0566406-0.1054688,0.0566406-0.1845703c0-0.0522461-0.0097656-0.1088867-0.0273438-0.1699219
				c-0.0195313-0.0610352-0.046875-0.1210938-0.0859375-0.1791992v-0.0087891h0.1816406
				c0.0205078,0.0410156,0.0390625,0.0957031,0.0556641,0.1640625s0.0253906,0.1342773,0.0253906,0.1982422
				c0,0.1318359-0.0322266,0.2353516-0.0957031,0.3105469c-0.0634766,0.074707-0.1494141,0.1123047-0.2587891,0.1123047
				c-0.0488281,0-0.0947266-0.0063477-0.1367188-0.0185547c-0.0429688-0.0126953-0.0830078-0.0307617-0.1210938-0.0551758
				c-0.0351563-0.0224609-0.0703125-0.0488281-0.1054688-0.0791016c-0.0341797-0.0302734-0.0722656-0.0668945-0.1152344-0.1098633
				c-0.0605469-0.0620117-0.1191406-0.1254883-0.1757813-0.1914063c-0.0566406-0.0654297-0.109375-0.1269531-0.1572266-0.184082
				v0.6923828H62.5898438z"/>
		</g>
	</g>
</g>
<g id="Режим_изоляции">
	<g>
		<g id="XMLID_6_">
			<g>
				<rect x="13.5793686" y="21.1270485" class="st8" width="3.662437" height="8.5589418"/>
			</g>
			<g>
			</g>
		</g>
		<g id="XMLID_18_">
			<g>
				<rect x="10.5261469" y="24.730814" class="st1" width="2.9478152" height="1.6072793"/>
			</g>
			<g>
			</g>
		</g>
		<g id="XMLID_16_">
			<g>
				<rect x="17.241806" y="21.923481" class="st1" width="3.5123663" height="1.6811564"/>
			</g>
			<g>
			</g>
		</g>
		<g id="XMLID_17_">
			<g>
				<rect x="17.241806" y="27.4120159" class="st1" width="3.5123663" height="1.6811564"/>
			</g>
			<g>
			</g>
		</g>
		<g>
			<path class="st9" d="M15.6328125,27.347168c0.1845703,0,0.3359375,0.0610352,0.4521484,0.184082
				c0.1171875,0.1225586,0.1757813,0.2729492,0.1757813,0.4511719c0,0.090332-0.0136719,0.1723633-0.0419922,0.246582
				c-0.0273438,0.0737305-0.0683594,0.1391602-0.1230469,0.1958008c-0.0673828,0.0708008-0.1572266,0.125-0.2685547,0.1630859
				s-0.2460938,0.0571289-0.4033203,0.0571289c-0.1611328,0-0.3037109-0.0170898-0.4287109-0.0522461
				c-0.1240234-0.034668-0.2353516-0.090332-0.3320313-0.1669922c-0.0917969-0.0722656-0.1640625-0.1650391-0.2158203-0.2792969
				s-0.0771484-0.2470703-0.0771484-0.3994141c0-0.0483398,0.0019531-0.0888672,0.0058594-0.121582
				c0.0039063-0.0332031,0.0117188-0.0664063,0.0224609-0.1000977h0.2324219v0.0126953
				c-0.0117188,0.0229492-0.0234375,0.0576172-0.0341797,0.1040039s-0.0166016,0.09375-0.0166016,0.1420898
				c0,0.1767578,0.0546875,0.3173828,0.1640625,0.4223633c0.109375,0.1054688,0.2578125,0.1665039,0.4443359,0.1835938
				c-0.0419922-0.0688477-0.0732422-0.1367188-0.0947266-0.2036133s-0.0322266-0.1445313-0.0322266-0.2324219
				c0-0.078125,0.0068359-0.1464844,0.0214844-0.2060547c0.0136719-0.0595703,0.0429688-0.1206055,0.0859375-0.1831055
				c0.0498047-0.0722656,0.1123047-0.1264648,0.1875-0.1630859C15.4326172,27.3652344,15.5244141,27.347168,15.6328125,27.347168z
				 M15.6425781,27.597168c-0.0761719,0-0.1386719,0.0112305-0.1884766,0.0336914
				c-0.0488281,0.0224609-0.0927734,0.0595703-0.1289063,0.1113281c-0.0263672,0.0380859-0.0429688,0.0795898-0.0517578,0.1259766
				c-0.0078125,0.0458984-0.0117188,0.09375-0.0117188,0.144043c0,0.0698242,0.0078125,0.1347656,0.0244141,0.1943359
				c0.015625,0.0600586,0.0410156,0.121582,0.0751953,0.1850586c0.0185547,0.0014648,0.0351563,0.0029297,0.0517578,0.003418
				c0.0175781,0.0009766,0.0380859,0.0014648,0.0634766,0.0014648c0.1289063,0,0.2304688-0.0131836,0.3046875-0.0400391
				s0.1328125-0.0634766,0.1767578-0.1103516c0.0351563-0.0375977,0.0615234-0.0786133,0.078125-0.1225586
				s0.0253906-0.0917969,0.0253906-0.1435547c0-0.1191406-0.0361328-0.2124023-0.1083984-0.2807617
				S15.7773438,27.597168,15.6425781,27.597168z"/>
			<path class="st9" d="M15.6328125,25.7436523c0.1845703,0,0.3359375,0.0610352,0.4521484,0.184082
				c0.1171875,0.1225586,0.1757813,0.2729492,0.1757813,0.4511719c0,0.090332-0.0136719,0.1723633-0.0419922,0.246582
				c-0.0273438,0.0737305-0.0683594,0.1391602-0.1230469,0.1958008c-0.0673828,0.0708008-0.1572266,0.125-0.2685547,0.1630859
				s-0.2460938,0.0571289-0.4033203,0.0571289c-0.1611328,0-0.3037109-0.0170898-0.4287109-0.0522461
				c-0.1240234-0.034668-0.2353516-0.090332-0.3320313-0.1669922c-0.0917969-0.0722656-0.1640625-0.1650391-0.2158203-0.2792969
				s-0.0771484-0.2470703-0.0771484-0.3994141c0-0.0483398,0.0019531-0.0888672,0.0058594-0.121582
				c0.0039063-0.0332031,0.0117188-0.0664063,0.0224609-0.1000977h0.2324219v0.0126953
				c-0.0117188,0.0229492-0.0234375,0.0576172-0.0341797,0.1040039s-0.0166016,0.09375-0.0166016,0.1420898
				c0,0.1767578,0.0546875,0.3173828,0.1640625,0.4223633c0.109375,0.1054688,0.2578125,0.1665039,0.4443359,0.1835938
				c-0.0419922-0.0688477-0.0732422-0.1367188-0.0947266-0.2036133s-0.0322266-0.1445313-0.0322266-0.2324219
				c0-0.078125,0.0068359-0.1464844,0.0214844-0.2060547c0.0136719-0.0595703,0.0429688-0.1206055,0.0859375-0.1831055
				c0.0498047-0.0722656,0.1123047-0.1264648,0.1875-0.1630859C15.4326172,25.7617188,15.5244141,25.7436523,15.6328125,25.7436523z
				 M15.6425781,25.9936523c-0.0761719,0-0.1386719,0.0112305-0.1884766,0.0336914
				c-0.0488281,0.0224609-0.0927734,0.0595703-0.1289063,0.1113281c-0.0263672,0.0380859-0.0429688,0.0795898-0.0517578,0.1259766
				c-0.0078125,0.0458984-0.0117188,0.09375-0.0117188,0.144043c0,0.0698242,0.0078125,0.1347656,0.0244141,0.1943359
				c0.015625,0.0600586,0.0410156,0.121582,0.0751953,0.1850586c0.0185547,0.0014648,0.0351563,0.0029297,0.0517578,0.003418
				c0.0175781,0.0009766,0.0380859,0.0014648,0.0634766,0.0014648c0.1289063,0,0.2304688-0.0131836,0.3046875-0.0400391
				s0.1328125-0.0634766,0.1767578-0.1103516c0.0351563-0.0375977,0.0615234-0.0786133,0.078125-0.1225586
				s0.0253906-0.0917969,0.0253906-0.1435547c0-0.1191406-0.0361328-0.2124023-0.1083984-0.2807617
				S15.7773438,25.9936523,15.6425781,25.9936523z"/>
			<path class="st9" d="M16.2226563,24.1665039v1.2416992h-0.2548828c-0.0732422-0.0864258-0.1464844-0.1728516-0.2197266-0.2592773
				c-0.0742188-0.0869141-0.1464844-0.1674805-0.21875-0.2421875c-0.1513672-0.1577148-0.2724609-0.265625-0.3613281-0.3237305
				c-0.0888672-0.0585938-0.1855469-0.0874023-0.2890625-0.0874023c-0.09375,0-0.1679688,0.03125-0.2216797,0.0942383
				c-0.0527344,0.0625-0.0800781,0.1503906-0.0800781,0.2626953c0,0.074707,0.0136719,0.1557617,0.0390625,0.2426758
				c0.0263672,0.0869141,0.0664063,0.171875,0.1201172,0.2548828v0.0126953h-0.2568359
				c-0.0283203-0.0585938-0.0537109-0.1362305-0.078125-0.2338867c-0.0234375-0.097168-0.0351563-0.1914063-0.0351563-0.2822266
				c0-0.1884766,0.0449219-0.3354492,0.1347656-0.4423828s0.2119141-0.1601563,0.3662109-0.1601563
				c0.0693359,0,0.1337891,0.0087891,0.1933594,0.0263672s0.1162109,0.0439453,0.1708984,0.078125
				c0.0498047,0.0322266,0.0996094,0.0698242,0.1484375,0.112793s0.1035156,0.0957031,0.1621094,0.1572266
				c0.0859375,0.0878906,0.1689453,0.1787109,0.2490234,0.2719727c0.0800781,0.09375,0.1542969,0.1811523,0.2226563,0.2626953
				v-0.9868164H16.2226563z"/>
			<path class="st9" d="M16.2226563,22.2822266v0.3164063l-0.8095703,0.7255859l0.1923828,0.1821289h0.6171875v0.2441406h-1.8183594
				v-0.2441406h0.9492188l-0.9492188-0.8901367v-0.2958984l0.8544922,0.8193359L16.2226563,22.2822266z"/>
		</g>
	</g>
</g>
<g id="Слой_1">
	<g id="сглаживающий_конденсатор">
		
			<rect x="30.050806" y="20.1548271" transform="matrix(-1 -1.224647e-16 1.224647e-16 -1 65.315033 40.7645264)" class="st7" width="5.2134218" height="0.4548751"/>
		
			<rect x="30.050806" y="30.265625" transform="matrix(-1 -1.224647e-16 1.224647e-16 -1 65.315033 60.9861259)" class="st7" width="5.2134218" height="0.4548751"/>
		
			<rect x="30.050806" y="20.6097012" transform="matrix(-1 -1.224647e-16 1.224647e-16 -1 65.315033 50.8753281)" class="st15" width="5.2134218" height="9.6559238"/>
		
			<rect x="30.050806" y="20.6097012" transform="matrix(-1 -1.224647e-16 1.224647e-16 -1 65.315033 43.0460854)" class="st16" width="5.2134218" height="1.8266804"/>
		<g class="st17">
			<rect x="29.9872913" y="25.4980717" class="st18" width="2.1264513" height="6.5350118"/>
			<path class="st19" d="M30.4458008,26.6645508v-1.0356445h0.1445313l0.6074219,0.5473633
				c0.0927734,0.0810547,0.1669922,0.1367188,0.2246094,0.1674805s0.1171875,0.0463867,0.1787109,0.0463867
				c0.0820313,0,0.1503906-0.0249023,0.203125-0.0751953c0.0527344-0.0498047,0.0791016-0.1162109,0.0791016-0.199707
				c0-0.0996094-0.0283203-0.1772461-0.0849609-0.2329102c-0.0566406-0.0551758-0.1357422-0.0830078-0.2373047-0.0830078v-0.2006836
				c0.1455078,0,0.2626953,0.046875,0.3525391,0.140625s0.1347656,0.2192383,0.1347656,0.3759766
				c0,0.1469727-0.0380859,0.2631836-0.1152344,0.3486328s-0.1796875,0.1279297-0.3085938,0.1279297
				c-0.1552734,0-0.3408203-0.0991211-0.5556641-0.2973633l-0.4589844-0.4233398v0.793457H30.4458008z"/>
			<path class="st19" d="M30.4458008,27.9462891v-1.0356445h0.1445313l0.6074219,0.5473633
				c0.0927734,0.0810547,0.1669922,0.1367188,0.2246094,0.1674805s0.1171875,0.0463867,0.1787109,0.0463867
				c0.0820313,0,0.1503906-0.0249023,0.203125-0.0751953c0.0527344-0.0498047,0.0791016-0.1162109,0.0791016-0.199707
				c0-0.0996094-0.0283203-0.1772461-0.0849609-0.2329102c-0.0566406-0.0551758-0.1357422-0.0830078-0.2373047-0.0830078v-0.2006836
				c0.1455078,0,0.2626953,0.046875,0.3525391,0.140625s0.1347656,0.2192383,0.1347656,0.3759766
				c0,0.1469727-0.0380859,0.2631836-0.1152344,0.3486328s-0.1796875,0.1279297-0.3085938,0.1279297
				c-0.1552734,0-0.3408203-0.0991211-0.5556641-0.2973633l-0.4589844-0.4233398v0.793457H30.4458008z"/>
			<path class="st19" d="M32.027832,28.980957h-0.1708984v-0.0366211c-0.0029297-0.15625-0.0488281-0.2807617-0.1386719-0.3735352
				s-0.2158203-0.1464844-0.3789063-0.1606445c0.0957031,0.0830078,0.1435547,0.1967773,0.1435547,0.3408203
				c0,0.1376953-0.0488281,0.2475586-0.1455078,0.3295898c-0.0976563,0.0820313-0.2226563,0.1230469-0.3759766,0.1230469
				c-0.1630859,0-0.2929688-0.0444336-0.390625-0.1328125c-0.0976563-0.0888672-0.1464844-0.2075195-0.1464844-0.3569336
				c0-0.1508789,0.0576172-0.2739258,0.1738281-0.3676758c0.1162109-0.0942383,0.265625-0.1411133,0.4492188-0.1411133h0.0771484
				c0.2910156,0,0.5136719,0.0620117,0.6669922,0.1860352c0.1542969,0.1240234,0.2324219,0.3085938,0.2363281,0.5541992V28.980957z
				 M31.315918,28.7172852c0-0.0688477-0.0214844-0.1318359-0.0625-0.1899414s-0.0927734-0.0981445-0.1552734-0.1206055h-0.0732422
				c-0.1308594,0-0.2353516,0.0292969-0.3154297,0.0878906c-0.0791016,0.0585938-0.1191406,0.1318359-0.1191406,0.2192383
				c0,0.0908203,0.0332031,0.1616211,0.0996094,0.2133789s0.1542969,0.0776367,0.2617188,0.0776367
				c0.1083984,0,0.1962891-0.0258789,0.2636719-0.0786133C31.2817383,28.8740234,31.315918,28.8041992,31.315918,28.7172852z"/>
			<path class="st19" d="M30.9477539,31.2729492c-0.1679688-0.0195313-0.296875-0.0810547-0.3876953-0.1850586
				s-0.1357422-0.2416992-0.1357422-0.4140625c0-0.1870117,0.0664063-0.3364258,0.2001953-0.4492188
				c0.1347656-0.1123047,0.3134766-0.168457,0.5380859-0.168457h0.1513672c0.1474609,0,0.2763672,0.0258789,0.3876953,0.0786133
				c0.1113281,0.0522461,0.1972656,0.1269531,0.2568359,0.2231445s0.0898438,0.2075195,0.0898438,0.3344727
				c0,0.1679688-0.046875,0.3022461-0.140625,0.4038086c-0.09375,0.1010742-0.2236328,0.1601563-0.3896484,0.1767578v-0.2094727
				c0.1269531-0.0180664,0.2177734-0.0571289,0.2744141-0.1176758s0.0849609-0.1450195,0.0849609-0.253418
				c0-0.1333008-0.0488281-0.237793-0.1474609-0.3134766s-0.2382813-0.1132813-0.4199219-0.1132813h-0.1533203
				c-0.171875,0-0.3085938,0.0356445-0.4101563,0.1074219s-0.1523438,0.171875-0.1523438,0.3007813
				c0,0.1157227,0.0263672,0.2045898,0.0791016,0.2666016c0.0527344,0.0615234,0.1435547,0.1030273,0.2744141,0.1230469V31.2729492z
				"/>
		</g>
	</g>
	<g>
		<path class="st20" d="M14.0779963,45.6835213c0.4083414,0.0202866,0.0813265-8.4503746,0.2034197-8.427372
			c0,0,0.4726238-1.191864,0.9880362-1.1914558c1.1086321,0.0008774,1.5314322,0.9202309,1.5314322,0.9202309v5.7538605
			l0.0251465-6.6816978c0,0,0.074934-0.3570938,0.1143665-0.4670372c0.0994301-0.2772369,0.6099472-0.7966652,0.8863258-0.8170776
			c1.0089321-0.0745163,1.5239086,1.0761719,1.3948746,1.0883026v6.7806435c0,0-0.1194935-5.3640289,0-6.7806435
			c0.020422-0.2420807,0.6482334-0.5447121,0.8911705-0.5436287c0.2916145,0.0013046,0.9591637,0.2769432,1.0655289,0.5484695
			c0.1572819,0.4015083,0.2521114,1.9499435,0.2521114,1.9499435l-0.0825939,5.3828392l0.069643-4.5388298
			c0,0,0.0338535-0.3158188,0.3178215-0.5853996c0.2804317-0.2662201,0.5279217-0.4613762,0.8911705-0.4455833
			c0.4226398,0.0183716,0.8183804,0.197319,1.0122528,0.4213676c0.1792049,0.2070999,0.3173332,1.59338,0.2832813,1.9945717
			c0,0,0.1928196,6.5041199-0.2832813,8.6026039c-0.1531181,0.6748924-0.8490734,1.9361305-1.2495747,2.4700928
			c-0.359045,0.4786911-1.5280132,0.9633369-2.0923138,1.1623955c-0.5631752,0.1986618-1.7568035,0.4198112-2.3538513,0.4068375
			c-0.579834-0.0125961-1.7360935-0.2598076-2.2666721-0.4940186c-0.4481173-0.1978073-1.2591343-0.779911-1.5982943-1.1333351
			c-0.5177498-0.5395241-1.2214909-1.8823242-1.5982943-2.5282097c-0.5110178-0.875946-1.6707525-2.5908508-1.9179535-3.5743675
			c-0.0548983-0.2184219-0.0861855-0.6927872,0-0.9008598c0.1041918-0.2515411,0.5185452-0.6658936,0.7700872-0.7700844
			c0.164443-0.0681152,0.5475245-0.0681152,0.7119675,0c0.5102034,0.2113304,1.2277946,1.1223145,1.5619698,1.5619698
			C13.7509565,45.0390587,14.0779963,45.6835213,14.0779963,45.6835213z"/>
		<polygon class="st21" points="24.888279,45.7852287 22.4472466,45.7852287 22.4472466,43.7285004 24.888279,43.7285004 
			24.888279,42.9373589 26.7335815,44.7568665 24.888279,46.5989075 		"/>
		<polygon class="st21" points="11.4158888,49.1828995 13.4354191,47.811718 14.5907269,49.5133057 12.5711966,50.8844833 
			13.0155983,51.5390167 10.4668741,51.0702362 10.9588289,48.5097198 		"/>
		<polygon class="st21" points="13.4238806,39.191082 15.4320974,40.5787773 14.2628736,42.2708321 12.2546568,40.8831367 
			11.8049021,41.5340004 11.3211527,38.9880753 13.886446,38.5216751 		"/>
	</g>
	<g>
	</g>
	<g>
	</g>
	<g>
	</g>
	<g>
	</g>
	<g>
	</g>
</g>
</svg>
