<?xml version="1.0" encoding="utf-8"?>
<!-- Generator: Adobe Illustrator 22.1.0, SVG Export Plug-In . SVG Version: 6.00 Build 0)  -->
<svg version="1.1" xmlns="http://www.w3.org/2000/svg" xmlns:xlink="http://www.w3.org/1999/xlink" x="0px" y="0px"
	 viewBox="0 0 108.349205 72.2855835" style="enable-background:new 0 0 108.349205 72.2855835;" xml:space="preserve">
<style type="text/css">
	.st0{fill:#19191A;}
	.st1{fill:#9E9B9C;}
	.st2{fill:#CDC7BC;}
	.st3{fill:#907747;}
	.st4{fill:#363331;}
	.st5{fill:#B5B4B3;}
	.st6{fill:#CEC7BD;}
	.st7{fill:#918C84;}
	.st8{fill:#0D0E0F;}
	.st9{fill:#808080;}
	.st10{fill:#FFFFFF;}
	.st11{display:none;fill:#D2D94E;stroke:#EFE94A;stroke-width:0.25;stroke-miterlimit:10;}
	.st12{fill:#EBAD4F;}
	.st13{fill:#5DAF61;}
	.st14{opacity:0.37;fill:none;stroke:#FFFFFF;stroke-width:0.5;stroke-miterlimit:10;}
	.st15{fill:#BAAF98;}
	.st16{fill:#CEA158;}
	.st17{fill:#272624;}
	.st18{fill:#595651;}
	.st19{fill:#E39344;}
	.st20{fill:none;}
	.st21{fill:#999999;stroke:#0D0E0F;stroke-width:0.4;stroke-miterlimit:10;}
	.st22{fill:#E39344;stroke:#000000;stroke-width:0.25;stroke-miterlimit:10;}
	.st23{display:none;fill:#D2D94E;stroke:#EFE94A;stroke-width:0.1418359;stroke-miterlimit:10;}
	.st24{opacity:0.37;fill:none;stroke:#FFFFFF;stroke-width:0.2836718;stroke-miterlimit:10;}
	.st25{fill:none;stroke:#000000;stroke-width:0.25;stroke-miterlimit:10;}
</style>
<g id="Фон">
	<path class="st0" d="M6.3019605,72.2855835H108.349205V0H6.3019605V72.2855835z M20.6175728,63.7805786
		c0,2.4279175-1.9668579,4.3947754-4.3927002,4.3947754c-2.4259033,0-4.3947144-1.9668579-4.3947144-4.3947754
		c0-2.4258423,1.968811-4.3926392,4.3947144-4.3926392C18.6507149,59.3879395,20.6175728,61.3547363,20.6175728,63.7805786z
		 M16.2227974,12.897583c-2.4258423,0-4.3926392-1.9672241-4.3926392-4.3936768s1.9667969-4.3936768,4.3926392-4.3936768
		c2.4279175,0,4.3947754,1.9672241,4.3947754,4.3936768S18.6507149,12.897583,16.2227974,12.897583z"/>
	<path class="st1" d="M22.1836739,63.795166c0-3.300293-2.6751709-5.9754028-5.9754639-5.9754028
		c-3.300231,0-5.9754019,2.6751099-5.9754019,5.9754028s2.6751709,5.9754639,5.9754019,5.9754639
		C19.508503,69.7706299,22.1836739,67.095459,22.1836739,63.795166z M11.8145342,63.7962036
		c0-2.4279175,1.9667969-4.3947144,4.3926992-4.3947144c2.4279175,0,4.3947144,1.9667969,4.3947144,4.3947144
		c0,2.4258423-1.9667969,4.3927002-4.3947144,4.3927002C13.7813311,68.1889038,11.8145342,66.2220459,11.8145342,63.7962036z"/>
	<path class="st1" d="M22.1836739,8.5185022c0-3.2877808-2.6751709-5.9527588-5.9754639-5.9527588
		c-3.300231,0-5.9754019,2.664978-5.9754019,5.9527588c0,3.2877197,2.6751709,5.9527588,5.9754019,5.9527588
		C19.508503,14.471261,22.1836739,11.806222,22.1836739,8.5185022z M11.8145342,8.5195398
		c0-2.4279175,1.9667969-4.3947144,4.3926992-4.3947144c2.4279175,0,4.3947144,1.9667969,4.3947144,4.3947144
		c0,2.4258423-1.9667969,4.3926392-4.3947144,4.3926392C13.7813311,12.912179,11.8145342,10.9453821,11.8145342,8.5195398z"/>
</g>
<g id="Режим_изоляции">
	<g id="ГРУППА_3_">
		<g>
			<polygon class="st2" points="102.5456772,32.4667511 102.5456772,29.0290928 106.8011551,29.0290928 106.8011551,32.4667511 
				106.4913788,32.4667511 106.4913788,31.7622261 102.8855515,31.7622261 102.8855515,32.4667511 			"/>
			<polygon class="st2" points="102.5863953,39.5952072 102.5863953,36.157547 102.8855515,36.157547 102.8855515,36.9240303 
				106.4913788,36.9240303 106.4913788,36.157547 106.8418655,36.157547 106.8418655,39.5952072 			"/>
			<rect x="102.8855515" y="31.7622261" class="st3" width="3.6058266" height="0.7045258"/>
			<rect x="102.8855515" y="32.4667511" class="st3" width="3.6058266" height="3.6907945"/>
			<rect x="102.8855515" y="36.157547" class="st3" width="3.6058266" height="0.7664815"/>
		</g>
		<g>
		</g>
	</g>
	<g id="ГРУППА_8_">
		<g>
			<polygon class="st2" points="87.4560699,47.1711273 87.4560699,43.7334671 91.7115479,43.7334671 91.7115479,47.1711273 
				91.4017715,47.1711273 91.4017715,46.4666023 87.7959442,46.4666023 87.7959442,47.1711273 			"/>
			<polygon class="st2" points="87.496788,54.2995834 87.496788,50.8619194 87.7959442,50.8619194 87.7959442,51.6284027 
				91.4017715,51.6284027 91.4017715,50.8619194 91.7522659,50.8619194 91.7522659,54.2995834 			"/>
			<rect x="87.7959442" y="46.4666023" class="st3" width="3.6058266" height="0.7045258"/>
			<rect x="87.7959442" y="47.1711273" class="st3" width="3.6058266" height="3.6907945"/>
			<rect x="87.7959442" y="50.8619194" class="st3" width="3.6058266" height="0.7664815"/>
		</g>
		<g>
		</g>
	</g>
	<g>
		<g id="XMLID_117_">
			<g>
				<rect x="95.0271072" y="21.3436489" class="st2" width="4.255477" height="3.4358907"/>
			</g>
			<g>
			</g>
		</g>
		<g id="XMLID_116_">
			<g>
				<rect x="94.9863892" y="14.2134247" class="st2" width="4.255477" height="3.4376609"/>
			</g>
			<g>
			</g>
		</g>
		<g id="XMLID_115_">
			<g>
				<rect x="95.3368835" y="16.884737" class="st4" width="3.6058266" height="5.1633434"/>
			</g>
			<g>
			</g>
		</g>
		<g>
			<path class="st5" d="M97.321846,19.9370823v0.1914063h0.3623047v0.1660156H97.321846v0.6162109h-0.1992188l-0.7255859-0.6235352
				v-0.1586914h0.7861328v-0.1914063H97.321846z M97.1831741,20.2945042H96.603096l0.5800781,0.4985352V20.2945042z"/>
			<path class="st5" d="M96.5894241,19.0152073l1.0947266,0.5825195v0.1850586l-1.1357422-0.6201172v0.7329102h-0.1513672
				v-0.8803711H96.5894241z"/>
			<path class="st5" d="M97.6841507,18.143137v0.6967773h-0.1318359v-0.2680664h-0.8623047v0.2680664h-0.1171875
				c0-0.0361328-0.0039063-0.0751953-0.0097656-0.1166992s-0.0146484-0.0727539-0.0263672-0.0942383
				c-0.0136719-0.0263672-0.0322266-0.0473633-0.0546875-0.0625c-0.0224609-0.015625-0.0517578-0.0244141-0.0898438-0.0263672
				v-0.1342773h1.1601563V18.143137H97.6841507z"/>
		</g>
	</g>
	<g>
		<g id="XMLID_120_">
			<g>
				<rect x="87.4771271" y="14.2147264" class="st2" width="4.255477" height="3.4358907"/>
			</g>
			<g>
			</g>
		</g>
		<g id="XMLID_119_">
			<g>
				<rect x="87.5178375" y="21.3431816" class="st2" width="4.255477" height="3.4376609"/>
			</g>
			<g>
			</g>
		</g>
		<g id="XMLID_118_">
			<g>
				<rect x="87.8169937" y="16.9461861" class="st4" width="3.6058266" height="5.1633434"/>
			</g>
			<g>
			</g>
		</g>
		<g>
			<path class="st5" d="M90.3140335,20.5757542v0.6967773h-0.1318359v-0.2680664h-0.8623047v0.2680664h-0.1171875
				c0-0.0361328-0.0039063-0.0751953-0.0097656-0.1166992s-0.0146484-0.0727539-0.0263672-0.0942383
				c-0.0136719-0.0263672-0.0322266-0.0473633-0.0546875-0.0625c-0.0224609-0.015625-0.0517578-0.0244141-0.0898438-0.0263672
				v-0.1342773h1.1601563v-0.2626953H90.3140335z"/>
			<path class="st5" d="M89.6695023,19.5557346c0.2314453,0,0.4013672,0.0361328,0.5087891,0.1083984
				c0.1083984,0.0722656,0.1621094,0.1845703,0.1621094,0.3369141c0,0.1542969-0.0546875,0.2670898-0.1640625,0.3383789
				s-0.2773438,0.1064453-0.5048828,0.1064453c-0.2285156,0-0.3974609-0.0356445-0.5068359-0.1079102
				c-0.109375-0.0717773-0.1640625-0.184082-0.1640625-0.3369141c0-0.1542969,0.0556641-0.2670898,0.1669922-0.3383789
				C89.2779007,19.5913792,89.4458694,19.5557346,89.6695023,19.5557346z M90.0620804,19.7832737
				c-0.046875-0.0205078-0.1015625-0.0341797-0.1640625-0.0410156c-0.0634766-0.0073242-0.1396484-0.0107422-0.2285156-0.0107422
				c-0.0869141,0-0.1630859,0.003418-0.2275391,0.0107422c-0.0644531,0.0068359-0.1191406,0.0209961-0.1640625,0.0419922
				c-0.0449219,0.0200195-0.078125,0.0473633-0.1005859,0.0825195c-0.0224609,0.034668-0.0341797,0.0795898-0.0341797,0.1342773
				c0,0.0541992,0.0117188,0.0991211,0.0341797,0.1342773c0.0224609,0.0356445,0.0566406,0.0634766,0.1015625,0.0844727
				c0.0429688,0.0195313,0.0986328,0.0327148,0.1669922,0.0400391s0.1435547,0.0107422,0.2255859,0.0107422
				c0.0898438,0,0.1650391-0.0029297,0.2255859-0.0092773s0.1152344-0.0200195,0.1630859-0.0410156
				c0.0449219-0.0185547,0.0791016-0.0458984,0.1025391-0.0805664s0.0351563-0.0810547,0.0351563-0.1386719
				c0-0.0541992-0.0107422-0.0991211-0.0332031-0.1347656S90.1079788,19.8028049,90.0620804,19.7832737z"/>
			<path class="st5" d="M89.6695023,18.6070042c0.2314453,0,0.4013672,0.0361328,0.5087891,0.1083984
				c0.1083984,0.0722656,0.1621094,0.1845703,0.1621094,0.3369141c0,0.1542969-0.0546875,0.2670898-0.1640625,0.3383789
				s-0.2773438,0.1064453-0.5048828,0.1064453c-0.2285156,0-0.3974609-0.0356445-0.5068359-0.1079102
				c-0.109375-0.0717773-0.1640625-0.184082-0.1640625-0.3369141c0-0.1542969,0.0556641-0.2670898,0.1669922-0.3383789
				C89.2779007,18.6426487,89.4458694,18.6070042,89.6695023,18.6070042z M90.0620804,18.8345432
				c-0.046875-0.0205078-0.1015625-0.0341797-0.1640625-0.0410156c-0.0634766-0.0073242-0.1396484-0.0107422-0.2285156-0.0107422
				c-0.0869141,0-0.1630859,0.003418-0.2275391,0.0107422c-0.0644531,0.0068359-0.1191406,0.0209961-0.1640625,0.0419922
				c-0.0449219,0.0200195-0.078125,0.0473633-0.1005859,0.0825195c-0.0224609,0.034668-0.0341797,0.0795898-0.0341797,0.1342773
				c0,0.0541992,0.0117188,0.0991211,0.0341797,0.1342773c0.0224609,0.0356445,0.0566406,0.0634766,0.1015625,0.0844727
				c0.0429688,0.0195313,0.0986328,0.0327148,0.1669922,0.0400391s0.1435547,0.0107422,0.2255859,0.0107422
				c0.0898438,0,0.1650391-0.0029297,0.2255859-0.0092773s0.1152344-0.0200195,0.1630859-0.0410156
				c0.0449219-0.0185547,0.0791016-0.0458984,0.1025391-0.0805664s0.0351563-0.0810547,0.0351563-0.1386719
				c0-0.0541992-0.0107422-0.0991211-0.0332031-0.1347656S90.1079788,18.8540745,90.0620804,18.8345432z"/>
			<path class="st5" d="M90.3140335,17.6572971v0.8710938h-0.1806641c-0.0517578-0.0605469-0.1035156-0.1210938-0.15625-0.1821289
				c-0.0517578-0.0605469-0.1025391-0.1171875-0.1542969-0.1694336c-0.1074219-0.1108398-0.1923828-0.1865234-0.2558594-0.2275391
				c-0.0625-0.0410156-0.1308594-0.0615234-0.2041016-0.0615234c-0.0664063,0-0.1191406,0.0219727-0.15625,0.0664063
				c-0.0380859,0.0439453-0.0566406,0.1054688-0.0566406,0.1845703c0,0.0522461,0.0087891,0.1088867,0.0273438,0.1699219
				s0.046875,0.1210938,0.0849609,0.1791992v0.0087891h-0.1816406c-0.0205078-0.0410156-0.0390625-0.0957031-0.0556641-0.1640625
				s-0.0253906-0.1342773-0.0253906-0.1982422c0-0.1318359,0.0322266-0.2353516,0.0957031-0.3105469
				c0.0634766-0.074707,0.1503906-0.1123047,0.2587891-0.1123047c0.0488281,0,0.0947266,0.0063477,0.1376953,0.0185547
				c0.0419922,0.0126953,0.0820313,0.0307617,0.1201172,0.0551758c0.0361328,0.0224609,0.0712891,0.0488281,0.1054688,0.0791016
				s0.0732422,0.0668945,0.1152344,0.1098633c0.0605469,0.0620117,0.1191406,0.1254883,0.1757813,0.1914063
				c0.0566406,0.0654297,0.109375,0.1269531,0.1572266,0.184082v-0.6923828H90.3140335z"/>
		</g>
	</g>
	<g>
		<g id="XMLID_123_">
			<g>
				<rect x="87.4568405" y="29.0604095" class="st2" width="4.255477" height="3.4358907"/>
			</g>
			<g>
			</g>
		</g>
		<g id="XMLID_122_">
			<g>
				<rect x="87.497551" y="36.1888657" class="st2" width="4.255477" height="3.4376609"/>
			</g>
			<g>
			</g>
		</g>
		<g id="XMLID_121_">
			<g>
				<rect x="87.7967148" y="31.7918701" class="st4" width="3.6058266" height="5.1633434"/>
			</g>
			<g>
			</g>
		</g>
		<g>
			<path class="st5" d="M90.2935257,35.348217v0.8710938h-0.1806641c-0.0517578-0.0605469-0.1035156-0.1210938-0.1552734-0.1826172
				c-0.0517578-0.0605469-0.1035156-0.1171875-0.1542969-0.1689453c-0.1074219-0.1113281-0.1923828-0.1865234-0.2558594-0.2275391
				s-0.1308594-0.0615234-0.2041016-0.0615234c-0.0673828,0-0.1191406,0.0214844-0.1572266,0.0664063
				c-0.0380859,0.0439453-0.0566406,0.1054688-0.0566406,0.1845703c0,0.0517578,0.0087891,0.1083984,0.0273438,0.1699219
				c0.0185547,0.0605469,0.046875,0.1210938,0.0849609,0.1787109v0.0087891h-0.1816406
				c-0.0195313-0.0410156-0.0380859-0.0957031-0.0546875-0.1640625c-0.0175781-0.0683594-0.0253906-0.1337891-0.0253906-0.1982422
				c0-0.1318359,0.0322266-0.2353516,0.0957031-0.3105469c0.0634766-0.0742188,0.1494141-0.1123047,0.2587891-0.1123047
				c0.0488281,0,0.0947266,0.0068359,0.1367188,0.0185547c0.0419922,0.0126953,0.0830078,0.03125,0.1210938,0.0556641
				c0.0351563,0.0224609,0.0703125,0.0488281,0.1054688,0.0791016c0.0341797,0.0302734,0.0722656,0.0664063,0.1142578,0.109375
				c0.0605469,0.0625,0.1191406,0.1259766,0.1757813,0.1914063s0.109375,0.1269531,0.1582031,0.1845703V35.348217H90.2935257z"/>
			<path class="st5" d="M90.2935257,34.3999748v0.8710938h-0.1806641c-0.0517578-0.0605469-0.1035156-0.1210938-0.1552734-0.1826172
				c-0.0517578-0.0605469-0.1035156-0.1171875-0.1542969-0.1689453c-0.1074219-0.1113281-0.1923828-0.1865234-0.2558594-0.2275391
				s-0.1308594-0.0615234-0.2041016-0.0615234c-0.0673828,0-0.1191406,0.0214844-0.1572266,0.0664063
				c-0.0380859,0.0439453-0.0566406,0.1054688-0.0566406,0.1845703c0,0.0517578,0.0087891,0.1083984,0.0273438,0.1699219
				c0.0185547,0.0605469,0.046875,0.1210938,0.0849609,0.1787109v0.0087891h-0.1816406
				c-0.0195313-0.0410156-0.0380859-0.0957031-0.0546875-0.1640625c-0.0175781-0.0683594-0.0253906-0.1337891-0.0253906-0.1982422
				c0-0.1318359,0.0322266-0.2353516,0.0957031-0.3105469c0.0634766-0.0742188,0.1494141-0.1123047,0.2587891-0.1123047
				c0.0488281,0,0.0947266,0.0068359,0.1367188,0.0185547c0.0419922,0.0126953,0.0830078,0.03125,0.1210938,0.0556641
				c0.0351563,0.0224609,0.0703125,0.0488281,0.1054688,0.0791016c0.0341797,0.0302734,0.0722656,0.0664063,0.1142578,0.109375
				c0.0605469,0.0625,0.1191406,0.1259766,0.1757813,0.1914063s0.109375,0.1269531,0.1582031,0.1845703v-0.6923828H90.2935257z"/>
			<path class="st5" d="M89.649971,33.4527092c0.2304688,0,0.4003906,0.0361328,0.5087891,0.1083984
				c0.1074219,0.0722656,0.1621094,0.1845703,0.1621094,0.3369141c0,0.1542969-0.0546875,0.2666016-0.1640625,0.3378906
				c-0.1103516,0.0712891-0.2783203,0.1064453-0.5048828,0.1064453c-0.2294922,0-0.3984375-0.0351563-0.5068359-0.1074219
				c-0.109375-0.0722656-0.1640625-0.1845703-0.1640625-0.3369141c0-0.1542969,0.0556641-0.2675781,0.1660156-0.3388672
				C89.2583694,33.4878654,89.4253616,33.4527092,89.649971,33.4527092z M90.0425491,33.6802483
				c-0.046875-0.0205078-0.1015625-0.0341797-0.1650391-0.0410156c-0.0634766-0.0078125-0.1386719-0.0107422-0.2275391-0.0107422
				c-0.0878906,0-0.1640625,0.0029297-0.2285156,0.0107422c-0.0644531,0.0068359-0.1191406,0.0205078-0.1640625,0.0419922
				c-0.0439453,0.0195313-0.078125,0.046875-0.1005859,0.0820313s-0.0332031,0.0800781-0.0332031,0.1347656
				c0,0.0537109,0.0107422,0.0986328,0.0332031,0.1337891c0.0224609,0.0361328,0.0566406,0.0634766,0.1025391,0.0849609
				c0.0419922,0.0195313,0.0976563,0.0322266,0.1669922,0.0400391c0.0683594,0.0068359,0.1435547,0.0107422,0.2255859,0.0107422
				c0.0898438,0,0.1650391-0.0029297,0.2255859-0.0097656c0.0605469-0.0058594,0.1142578-0.0195313,0.1621094-0.0410156
				c0.0449219-0.0185547,0.0791016-0.0458984,0.1025391-0.0800781c0.0244141-0.0351563,0.0361328-0.0810547,0.0361328-0.1386719
				c0-0.0546875-0.0117188-0.0996094-0.0341797-0.1347656C90.1216507,33.7271233,90.087471,33.6997795,90.0425491,33.6802483z"/>
			<path class="st5" d="M90.2935257,32.5757561v0.6972656h-0.1308594V33.004467h-0.8632813v0.2685547h-0.1171875
				c0-0.0361328-0.0029297-0.0751953-0.0087891-0.1171875c-0.0058594-0.0410156-0.0146484-0.0722656-0.0263672-0.09375
				c-0.0146484-0.0263672-0.0332031-0.0478516-0.0546875-0.0625c-0.0224609-0.015625-0.0527344-0.0244141-0.0898438-0.0263672
				v-0.1347656h1.1601563v-0.2626953H90.2935257z"/>
		</g>
	</g>
	<g>
		<g id="XMLID_7_">
			<g>
				<rect x="94.9664001" y="29.0604095" class="st2" width="4.255477" height="3.4358907"/>
			</g>
			<g>
			</g>
		</g>
		<g id="XMLID_5_">
			<g>
				<rect x="95.0071106" y="36.1888657" class="st2" width="4.255477" height="3.4376609"/>
			</g>
			<g>
			</g>
		</g>
		<g id="XMLID_4_">
			<g>
				<rect x="95.3062744" y="31.7918701" class="st4" width="3.6058266" height="5.1633434"/>
			</g>
			<g>
			</g>
		</g>
		<g>
			<path class="st5" d="M97.8032913,35.348217v0.8710938h-0.1806641c-0.0517578-0.0605469-0.1035156-0.1210938-0.15625-0.1826172
				c-0.0517578-0.0605469-0.1025391-0.1171875-0.1542969-0.1689453c-0.1074219-0.1113281-0.1923828-0.1865234-0.2558594-0.2275391
				c-0.0625-0.0410156-0.1308594-0.0615234-0.2041016-0.0615234c-0.0664063,0-0.1191406,0.0214844-0.15625,0.0664063
				c-0.0380859,0.0439453-0.0566406,0.1054688-0.0566406,0.1845703c0,0.0517578,0.0087891,0.1083984,0.0273438,0.1699219
				c0.0185547,0.0605469,0.046875,0.1210938,0.0849609,0.1787109v0.0087891h-0.1816406
				c-0.0205078-0.0410156-0.0390625-0.0957031-0.0556641-0.1640625s-0.0253906-0.1337891-0.0253906-0.1982422
				c0-0.1318359,0.0322266-0.2353516,0.0957031-0.3105469c0.0634766-0.0742188,0.1503906-0.1123047,0.2587891-0.1123047
				c0.0488281,0,0.0947266,0.0068359,0.1376953,0.0185547c0.0419922,0.0126953,0.0820313,0.03125,0.1201172,0.0556641
				c0.0361328,0.0224609,0.0712891,0.0488281,0.1054688,0.0791016s0.0732422,0.0664063,0.1152344,0.109375
				c0.0605469,0.0625,0.1191406,0.1259766,0.1757813,0.1914063s0.109375,0.1269531,0.1572266,0.1845703V35.348217H97.8032913z"/>
			<path class="st5" d="M97.8032913,34.3999748v0.8710938h-0.1806641c-0.0517578-0.0605469-0.1035156-0.1210938-0.15625-0.1826172
				c-0.0517578-0.0605469-0.1025391-0.1171875-0.1542969-0.1689453c-0.1074219-0.1113281-0.1923828-0.1865234-0.2558594-0.2275391
				c-0.0625-0.0410156-0.1308594-0.0615234-0.2041016-0.0615234c-0.0664063,0-0.1191406,0.0214844-0.15625,0.0664063
				c-0.0380859,0.0439453-0.0566406,0.1054688-0.0566406,0.1845703c0,0.0517578,0.0087891,0.1083984,0.0273438,0.1699219
				c0.0185547,0.0605469,0.046875,0.1210938,0.0849609,0.1787109v0.0087891h-0.1816406
				c-0.0205078-0.0410156-0.0390625-0.0957031-0.0556641-0.1640625s-0.0253906-0.1337891-0.0253906-0.1982422
				c0-0.1318359,0.0322266-0.2353516,0.0957031-0.3105469c0.0634766-0.0742188,0.1503906-0.1123047,0.2587891-0.1123047
				c0.0488281,0,0.0947266,0.0068359,0.1376953,0.0185547c0.0419922,0.0126953,0.0820313,0.03125,0.1201172,0.0556641
				c0.0361328,0.0224609,0.0712891,0.0488281,0.1054688,0.0791016s0.0732422,0.0664063,0.1152344,0.109375
				c0.0605469,0.0625,0.1191406,0.1259766,0.1757813,0.1914063s0.109375,0.1269531,0.1572266,0.1845703v-0.6923828H97.8032913z"/>
			<path class="st5" d="M97.1587601,33.4527092c0.2314453,0,0.4013672,0.0361328,0.5087891,0.1083984
				c0.1083984,0.0722656,0.1621094,0.1845703,0.1621094,0.3369141c0,0.1542969-0.0546875,0.2666016-0.1640625,0.3378906
				s-0.2773438,0.1064453-0.5048828,0.1064453c-0.2285156,0-0.3974609-0.0351563-0.5068359-0.1074219
				s-0.1640625-0.1845703-0.1640625-0.3369141c0-0.1542969,0.0556641-0.2675781,0.1669922-0.3388672
				C96.7671585,33.4878654,96.9351273,33.4527092,97.1587601,33.4527092z M97.5513382,33.6802483
				c-0.046875-0.0205078-0.1015625-0.0341797-0.1640625-0.0410156c-0.0634766-0.0078125-0.1396484-0.0107422-0.2285156-0.0107422
				c-0.0869141,0-0.1630859,0.0029297-0.2275391,0.0107422c-0.0644531,0.0068359-0.1191406,0.0205078-0.1640625,0.0419922
				c-0.0449219,0.0195313-0.078125,0.046875-0.1005859,0.0820313s-0.0341797,0.0800781-0.0341797,0.1347656
				c0,0.0537109,0.0117188,0.0986328,0.0341797,0.1337891c0.0224609,0.0361328,0.0566406,0.0634766,0.1015625,0.0849609
				c0.0429688,0.0195313,0.0986328,0.0322266,0.1669922,0.0400391c0.0683594,0.0068359,0.1435547,0.0107422,0.2255859,0.0107422
				c0.0898438,0,0.1650391-0.0029297,0.2255859-0.0097656c0.0605469-0.0058594,0.1152344-0.0195313,0.1630859-0.0410156
				c0.0449219-0.0185547,0.0791016-0.0458984,0.1025391-0.0800781c0.0234375-0.0351563,0.0351563-0.0810547,0.0351563-0.1386719
				c0-0.0546875-0.0107422-0.0996094-0.0332031-0.1347656C97.6314163,33.7271233,97.5972366,33.6997795,97.5513382,33.6802483z"/>
			<path class="st5" d="M97.8032913,32.5757561v0.6972656h-0.1318359V33.004467h-0.8623047v0.2685547h-0.1171875
				c0-0.0361328-0.0039063-0.0751953-0.0097656-0.1171875c-0.0058594-0.0410156-0.0146484-0.0722656-0.0263672-0.09375
				c-0.0136719-0.0263672-0.0322266-0.0478516-0.0546875-0.0625c-0.0224609-0.015625-0.0517578-0.0244141-0.0898438-0.0263672
				v-0.1347656h1.1601563v-0.2626953H97.8032913z"/>
		</g>
	</g>
	<g>
		<path class="st6" d="M82.1117935,48.3071671c1.2273636,0,2.2224731,1.0018463,2.2224731,2.2397423
			c0,1.2378922-0.9951096,2.241539-2.2224731,2.241539s-2.2224731-1.0036469-2.2224731-2.241539
			C79.8893204,49.3090134,80.8844299,48.3071671,82.1117935,48.3071671z"/>
		<ellipse class="st7" cx="82.1117935" cy="50.5478096" rx="1.5185714" ry="1.5316002"/>
		<path class="st6" d="M82.1117935,41.0788231c1.2273636,0,2.2224731,1.0018463,2.2224731,2.2397385
			s-0.9951096,2.2415428-2.2224731,2.2415428s-2.2224731-1.0036507-2.2224731-2.2415428
			S80.8844299,41.0788231,82.1117935,41.0788231z"/>
		<ellipse class="st7" cx="82.1117935" cy="43.3194618" rx="1.5185714" ry="1.5316002"/>
		<path class="st6" d="M82.1117935,33.8788223c1.2273636,0,2.2224731,1.0018463,2.2224731,2.2397385
			s-0.9951096,2.2415428-2.2224731,2.2415428s-2.2224731-1.0036507-2.2224731-2.2415428
			S80.8844299,33.8788223,82.1117935,33.8788223z"/>
		<ellipse class="st7" cx="82.1117935" cy="36.1194611" rx="1.5185714" ry="1.5316002"/>
		<path class="st6" d="M80.482872,27.2913933c2.0229187-1.5395126,4.2713089,0.1709862,3.7840042,2.1831684
			c-0.1875381,0.7743721-0.8210754,1.4096432-1.5950546,1.5987854
			C80.6601868,31.5649414,78.9424744,29.3158798,80.482872,27.2913933z"/>
		<ellipse class="st7" cx="82.1117935" cy="28.9194622" rx="1.5185714" ry="1.5316002"/>
		<path class="st6" d="M80.482872,20.0913925c2.0229187-1.5395107,4.2713089,0.1709862,3.7840042,2.1831703
			c-0.1875381,0.7743702-0.8210754,1.4096413-1.5950546,1.5987835
			C80.6601868,24.3649426,78.9424744,22.1158791,80.482872,20.0913925z"/>
		<ellipse class="st7" cx="82.1117935" cy="21.7194633" rx="1.5185714" ry="1.5316002"/>
	</g>
	<g id="USB">
		
			<rect x="15.5890503" y="30.012228" transform="matrix(-1.836970e-16 1 -1 -1.836970e-16 48.7262802 16.1106777)" class="st1" width="1.4375" height="4.8125"/>
		
			<rect x="15.5890503" y="31.8749256" transform="matrix(-1.836970e-16 1 -1 -1.836970e-16 50.5889778 17.9733753)" class="st1" width="1.4375" height="4.8125"/>
		
			<rect x="15.5890503" y="33.7376213" transform="matrix(-1.836970e-16 1 -1 -1.836970e-16 52.4516716 19.8360729)" class="st1" width="1.4375" height="4.8125"/>
		
			<rect x="15.5890503" y="35.6003189" transform="matrix(-1.836970e-16 1 -1 -1.836970e-16 54.3143692 21.6987686)" class="st1" width="1.4375" height="4.8125"/>
		
			<rect x="15.5890503" y="37.4630165" transform="matrix(-1.836970e-16 1 -1 -1.836970e-16 56.1770668 23.5614662)" class="st1" width="1.4375" height="4.8125"/>
		<path class="st1" d="M12.5265512,22.4767952H6.5265508v7.5625h6.0000005V22.4767952z M7.1203017,23.4351082
			c0-0.385437,0.3125-0.697937,0.697937-0.697937c0.3854365,0,0.6979365,0.3125,0.6979365,0.697937
			s-0.3125,0.697937-0.6979365,0.697937C7.4328017,24.1330452,7.1203017,23.8205452,7.1203017,23.4351082z M10.7036753,23.4351082
			c0-0.385437,0.312439-0.697937,0.697876-0.697937s0.697937,0.3125,0.697937,0.697937s-0.3125,0.697937-0.697937,0.697937
			S10.7036753,23.8205452,10.7036753,23.4351082z"/>
		<path class="st1" d="M6.5265508,49.8109512h6.0000005v-7.5625H6.5265508V49.8109512z M11.9328003,48.8526382
			c0,0.385437-0.3125,0.697937-0.697937,0.697937s-0.697937-0.3125-0.697937-0.697937s0.3125-0.697937,0.697937-0.697937
			S11.9328003,48.4672012,11.9328003,48.8526382z M8.3494263,48.8526382c0,0.385437-0.312439,0.697937-0.697876,0.697937
			s-0.697937-0.3125-0.697937-0.697937s0.3125-0.697937,0.697937-0.697937S8.3494263,48.4672012,8.3494263,48.8526382z"/>
		
			<rect x="-0.0435238" y="29.5807095" transform="matrix(-1.836970e-16 1 -1 -1.836970e-16 46.0215874 26.2661152)" class="st8" width="19.8425198" height="13.1262817"/>
		<path class="st9" d="M1.6533203,46.8025131c0.0310059-0.0187988,0.0666504-0.0287476,0.1029053-0.0287476h14.486145
			c0.1096802,0,0.1985474-0.0888672,0.1985474-0.1985474v-1.057251c0-0.1096802-0.0888672-0.1985474-0.1985474-0.1985474H15.222168
			c-0.1096191,0-0.1985474-0.0888672-0.1985474-0.1985474v-1.0202637c0-0.1096802,0.0889282-0.1985474,0.1985474-0.1985474
			h1.0202026c0.1096802,0,0.1985474-0.0888672,0.1985474-0.1985474V28.5216885c0-0.1096802-0.0888672-0.1985474-0.1985474-0.1985474
			H15.222168c-0.1096191,0-0.1985474-0.0888672-0.1985474-0.1985474v-1.0202026
			c0-0.1096802,0.0889282-0.1985474,0.1985474-0.1985474h1.0237427c0.1068115-0.0021973,0.1928101-0.0881348,0.1950073-0.1950073
			v-1.0021362c-0.0021362-0.1065674-0.0879517-0.1922607-0.194458-0.1947632H1.7562256
			c-0.0362549,0-0.0718994-0.0099487-0.1029053-0.0287476L0,24.482687v0.5490112l1.4892578,0.9029541
			c0.312561,0.1895752,0.312561,0.6430664,0,0.8326416l-1.3936157,0.8449707C0.0362549,27.6482754,0,27.7126675,0,27.7820644
			v16.7235737c0,0.069397,0.0362549,0.1337891,0.0956421,0.1697998l1.3936157,0.8449707
			c0.312561,0.1895752,0.312561,0.6430664,0,0.8326416L0,47.2560043v0.5490112L1.6533203,46.8025131z M4.0229492,29.6955166
			c-0.3911743,0-0.708313-0.3171387-0.708313-0.708313v-0.567627c0-0.3911743,0.3171387-0.708313,0.708313-0.708313h3.4022827
			c0.3911743,0,0.708313,0.3171387,0.708313,0.708313v0.567627c0,0.3911743-0.3171387,0.708313-0.708313,0.708313H4.0229492z
			 M4.0229492,44.5764389c-0.3911743,0-0.708313-0.3171387-0.708313-0.708313v-0.567627
			c0-0.3911743,0.3171387-0.708313,0.708313-0.708313h3.4022827c0.3911743,0,0.708313,0.3171387,0.708313,0.708313v0.567627
			c0,0.3911743-0.3171387,0.708313-0.708313,0.708313H4.0229492z"/>
	</g>
	<g>
		
			<rect x="104.4744873" y="11.9294863" transform="matrix(6.123234e-17 -1 1 6.123234e-17 90.9374695 118.3526917)" class="st10" width="0.3411765" height="3.5562501"/>
		<g>
			<g id="XMLID_144_">
				<g>
					<rect x="102.5259628" y="14.2137232" class="st2" width="4.255477" height="3.4376609"/>
				</g>
				<g>
				</g>
			</g>
			<g id="XMLID_143_">
				<g>
					<rect x="102.5666809" y="21.3421783" class="st2" width="4.255477" height="3.4376609"/>
				</g>
				<g>
				</g>
			</g>
			<circle class="st11" cx="104.7764435" cy="19.5617275" r="0.5520833"/>
		</g>
		<path class="st12" d="M104.6741104,22.1731567c0.2929688-0.0003471,0.6022491,0.1414051,0.6939087,0.4296093
			c0.0212936,0.060648,1.4339752,0.060648,1.4339752,0.060648s0-0.7387772,0-1.4775543h-4.2557678
			c0,0.7387772,0,1.4775543,0,1.4775543s1.4126816,0,1.4339752-0.060648
			C104.0718613,22.3145618,104.3811417,22.1728096,104.6741104,22.1731567"/>
		<path class="st12" d="M104.6741104,22.4544067c0.2929688-0.0003471,0.6022491,0.1414051,0.6939087,0.4296093
			c0.0212936,0.060648,1.4339752,0.060648,1.4339752,0.060648s0-0.7387772,0-1.4775543h-4.2557678
			c0,0.7387772,0,1.4775543,0,1.4775543s1.4126816,0,1.4339752-0.060648
			C104.0718613,22.5958118,104.3811417,22.4540596,104.6741104,22.4544067"/>
		<path class="st12" d="M104.6741104,16.8830738c0.2929688,0.0003471,0.6022491-0.1414051,0.6939087-0.4296093
			c0.0212936-0.060648,1.4339752-0.060648,1.4339752-0.060648s0,0.7387772,0,1.4775543h-4.2557678
			c0-0.7387772,0-1.4775543,0-1.4775543s1.4126816,0,1.4339752,0.060648
			C104.0718613,16.7416687,104.3811417,16.8834209,104.6741104,16.8830738"/>
		
			<rect x="103.0163651" y="17.4002304" transform="matrix(6.123234e-17 -1 1 6.123234e-17 85.1459961 124.2022247)" class="st13" width="3.3154881" height="4.2557707"/>
		
			<rect x="103.0163651" y="17.4002304" transform="matrix(6.123234e-17 -1 1 6.123234e-17 85.1459961 124.2022247)" class="st14" width="3.3154881" height="4.2557707"/>
	</g>
	<g>
		
			<rect x="92.3465042" y="0.6853096" transform="matrix(6.123234e-17 -1 1 6.123234e-17 90.4564743 103.8743362)" class="st15" width="9.6378021" height="12.0472431"/>
		<g id="XMLID_45_">
			<g>
				<rect x="88.6610947" y="2.7491097" class="st2" width="2.4811695" height="1.7188299"/>
			</g>
			<g>
			</g>
		</g>
		<g id="XMLID_1_">
			<g>
				<rect x="88.6610947" y="8.9521646" class="st2" width="2.4811695" height="1.7188299"/>
			</g>
			<g>
			</g>
		</g>
		<g id="XMLID_3_">
			<g>
				<rect x="103.1886444" y="2.7491097" class="st2" width="2.4811695" height="1.7188299"/>
			</g>
			<g>
			</g>
		</g>
		<g id="XMLID_2_">
			<g>
				<rect x="103.1886444" y="9.1427889" class="st2" width="2.4811695" height="1.7188299"/>
			</g>
			<g>
			</g>
		</g>
		<path class="st16" d="M103.1890335,2.7469823v7.9239044c0,0.473278-0.3836746,0.856946-0.8569489,0.856946H91.9987335
			c-0.4732819,0-0.8569489-0.3836679-0.8569489-0.856946V2.7469823c0-0.4732778,0.383667-0.8569452,0.8569489-0.8569452h10.3333511
			C102.8053589,1.8900372,103.1890335,2.2737045,103.1890335,2.7469823z"/>
		<path class="st15" d="M91.4042053,11.527833h2.0121841c0.2261581,0,0.3463974-0.2669716,0.1965103-0.4363308l-2.0121841-2.2736778
			c-0.1601028-0.1809082-0.458931-0.0676661-0.458931,0.173913v2.2736778
			C91.1417847,11.4103441,91.2592773,11.527833,91.4042053,11.527833z"/>
		<path class="st15" d="M91.1417847,2.1524549v2.2736778c0,0.2415791,0.2988281,0.3548207,0.458931,0.1739125l2.0121841-2.2736778
			c0.1498871-0.1693585,0.0296478-0.4363302-0.1965103-0.4363302h-2.0121841
			C91.2592773,1.8900372,91.1417847,2.0075257,91.1417847,2.1524549z"/>
		<path class="st15" d="M102.9266129,1.8900372h-2.0121841c-0.2261581,0-0.3463974,0.2669717-0.1965179,0.4363302
			l2.0121918,2.2736778c0.1600952,0.1809082,0.458931,0.0676665,0.458931-0.1739125V2.1524549
			C103.1890335,2.0075257,103.0715408,1.8900372,102.9266129,1.8900372z"/>
		<path class="st15" d="M103.1890335,11.2654152V8.9917374c0-0.2415791-0.2988358-0.3548212-0.458931-0.173913l-2.0121918,2.2736778
			c-0.1498795,0.1693592-0.0296402,0.4363308,0.1965179,0.4363308h2.0121841
			C103.0715408,11.527833,103.1890335,11.4103441,103.1890335,11.2654152z"/>
		<path class="st17" d="M101.4173737,6.7089319v0.0000062c0,1.7539353-1.4350357,3.1889729-3.1889725,3.1889729h-2.1259918
			c-1.7539291,0-3.1889725-1.4350376-3.1889725-3.1889729V6.7089319c0-1.7539353,1.4350433-3.1889734,3.1889725-3.1889734h2.1259918
			C99.982338,3.5199585,101.4173737,4.9549966,101.4173737,6.7089319z"/>
	</g>
	<g id="ESP8266">
		<g>
			<rect x="28.549387" y="2.9492896" class="st18" width="46.9453125" height="69.1362305"/>
			<path class="st8" d="M75.2951279,3.1493037V71.885582H28.7490501V3.1493037h40.26157H75.2951279 M75.6951294,2.7493021
				h-6.6845093H28.3490486v69.5362778h47.3460808V2.7493021L75.6951294,2.7493021z"/>
		</g>
		<g>
			<g>
				
					<rect x="73.7991257" y="4.2796597" transform="matrix(-8.867858e-11 1 -1 -8.867858e-11 83.1127777 -67.2340927)" class="st2" width="2.7486296" height="7.3193626"/>
				<g>
					<path class="st19" d="M71.6392288,9.1885471V6.690012h3.7939453l-0.3125,0.3857422
						c-0.4042969,0.5-0.4042969,1.2265625,0,1.7275391l0.3125,0.3852539H71.6392288z"/>
					<path class="st8" d="M75.1713409,6.8150311l-0.1471329,0.181881c-0.4417496,0.5460777-0.4417496,1.3387794,0,1.8848572
						l0.1471405,0.1818924h-3.4076004V6.8150311H75.1713409 M75.6951294,6.5650311h-4.1813812v2.7486305h4.1813812
						l-0.4765472-0.5891228c-0.3704453-0.4579277-0.3704453-1.1124687,0-1.5703964L75.6951294,6.5650311L75.6951294,6.5650311z"/>
				</g>
			</g>
			<g>
				
					<rect x="73.7991257" y="10.0765104" transform="matrix(-8.867858e-11 1 -1 -8.867858e-11 88.9096298 -61.4372444)" class="st2" width="2.7486296" height="7.3193626"/>
				<g>
					<path class="st19" d="M71.6392288,14.9854221V12.486887h3.7939453l-0.3115234,0.3852539
						c-0.4052734,0.5004883-0.4052734,1.2275391-0.0009766,1.7280273l0.3125,0.3852539H71.6392288z"/>
					<path class="st8" d="M75.1713486,12.6118717l-0.1471405,0.1818924c-0.4417496,0.5460777-0.4417496,1.3387794,0,1.8848572
						l0.1471329,0.181881h-3.4075928v-2.2486305H75.1713486 M75.6951294,12.3618717h-4.1813812v2.7486305h4.1813812
						l-0.4765472-0.5891113c-0.3704453-0.4579277-0.3704453-1.1124687,0-1.5703964L75.6951294,12.3618717L75.6951294,12.3618717z"/>
				</g>
			</g>
			<g>
				
					<rect x="73.7991257" y="15.8733606" transform="matrix(-8.867858e-11 1 -1 -8.867858e-11 94.7064819 -55.6403961)" class="st2" width="2.7486296" height="7.3193626"/>
				<g>
					<path class="st19" d="M71.6392288,20.7822971V18.283762h3.7939453l-0.3115234,0.3852539
						c-0.4052734,0.5004883-0.4052734,1.2275391-0.0009766,1.7280273l0.3125,0.3852539H71.6392288z"/>
					<path class="st8" d="M75.1713409,18.4087238l-0.1471329,0.181881c-0.4417343,0.5460892-0.4417343,1.3387909,0,1.8848686
						l0.1471329,0.181881h-3.4075928v-2.2486305H75.1713409 M75.6951294,18.1587238h-4.1813812v2.7486305h4.1813812
						l-0.4765472-0.5891113c-0.3704453-0.4579277-0.3704453-1.1124687,0-1.5704079L75.6951294,18.1587238L75.6951294,18.1587238z"/>
				</g>
			</g>
			<g>
				
					<rect x="73.7991257" y="21.6702118" transform="matrix(-8.867858e-11 1 -1 -8.867858e-11 100.5033264 -49.843544)" class="st2" width="2.7486296" height="7.3193626"/>
				<g>
					<path class="st19" d="M71.6392288,26.5791721V24.080637h3.7939453l-0.3115234,0.3852539
						c-0.4052734,0.5004883-0.4052734,1.2275391-0.0009766,1.7280273l0.3125,0.3852539H71.6392288z"/>
					<path class="st8" d="M75.1713409,24.2055798l-0.1471329,0.181881c-0.4417343,0.5460777-0.4417343,1.3387794,0,1.8848686
						l0.1471329,0.181881h-3.4075928v-2.2486305H75.1713409 M75.6951294,23.9555798h-4.1813812v2.7486305h4.1813812
						l-0.4765472-0.5891113c-0.3704453-0.4579391-0.3704453-1.1124802,0-1.5704079L75.6951294,23.9555798L75.6951294,23.9555798z"/>
				</g>
			</g>
			<g>
				
					<rect x="73.7991257" y="27.467062" transform="matrix(-8.867858e-11 1 -1 -8.867858e-11 106.3001785 -44.0466957)" class="st2" width="2.7486296" height="7.3193626"/>
				<g>
					<path class="st19" d="M71.6392288,32.3765373V29.877512h3.7939453l-0.3115234,0.3852539
						c-0.4052734,0.5004883-0.4052734,1.2275391-0.0009766,1.7280273l0.3125,0.3857441H71.6392288z"/>
					<path class="st8" d="M75.1713409,30.0024319l-0.1471329,0.181881c-0.4417343,0.5460777-0.4417343,1.3387794,0,1.8848705
						l0.1471329,0.181881h-3.4075928v-2.2486324H75.1713409 M75.6951294,29.7524319h-4.1813812v2.7486324h4.1813812
						l-0.4765472-0.5891132c-0.3704453-0.4579391-0.3704453-1.1124802,0-1.5704079L75.6951294,29.7524319L75.6951294,29.7524319z"/>
				</g>
			</g>
			<g>
				
					<rect x="73.7991257" y="33.2639122" transform="matrix(-8.867858e-11 1 -1 -8.867858e-11 112.0970306 -38.2498436)" class="st2" width="2.7486296" height="7.3193626"/>
				<g>
					<path class="st19" d="M71.6392288,38.1724358v-2.4980469h3.7939453l-0.3115234,0.3847656
						c-0.4052734,0.5009766-0.4052734,1.2275391-0.0009766,1.7275391l0.3125,0.3857422H71.6392288z"/>
					<path class="st8" d="M75.1713409,35.7992821l-0.1471329,0.1818848c-0.4417496,0.5460815-0.4417496,1.3387756,0,1.8848572
						l0.1471329,0.1818848h-3.4075928v-2.2486267H75.1713409 M75.6951294,35.5492821h-4.1813812v2.7486267h4.1813812
						l-0.4765472-0.5891113c-0.3704453-0.4579315-0.3704453-1.1124725,0-1.5704041L75.6951294,35.5492821L75.6951294,35.5492821z"/>
				</g>
			</g>
			<g>
				
					<rect x="73.7991257" y="39.0607605" transform="matrix(-8.867858e-11 1 -1 -8.867858e-11 117.8938828 -32.4529953)" class="st2" width="2.7486296" height="7.3193626"/>
				<g>
					<path class="st19" d="M71.6392288,43.9693108v-2.4980469h3.7939453l-0.3115234,0.3847656
						c-0.4052734,0.5009766-0.4052734,1.2275391-0.0009766,1.7275391l0.3125,0.3857422H71.6392288z"/>
					<path class="st8" d="M75.1713409,41.5961342l-0.1471329,0.1818848c-0.4417496,0.5460815-0.4417496,1.3387756,0,1.8848572
						l0.1471329,0.1818848h-3.4075928v-2.2486267H75.1713409 M75.6951294,41.3461342h-4.1813812v2.7486267h4.1813812
						l-0.4765472-0.5891113c-0.3704453-0.4579315-0.3704453-1.1124725,0-1.5704041L75.6951294,41.3461342L75.6951294,41.3461342z"/>
				</g>
			</g>
			<g>
				
					<rect x="73.7991257" y="44.8576126" transform="matrix(-8.867858e-11 1 -1 -8.867858e-11 123.6907349 -26.6561432)" class="st2" width="2.7486296" height="7.3193626"/>
				<g>
					<path class="st19" d="M71.6392288,49.7661858v-2.4980469h3.7939453l-0.3115234,0.3847656
						c-0.4052734,0.5009766-0.4052734,1.2275391-0.0009766,1.7275391l0.3125,0.3857422H71.6392288z"/>
					<path class="st8" d="M75.1713409,47.3929787l-0.1471329,0.1818848c-0.4417343,0.5460739-0.4417343,1.3387833,0,1.8848648
						l0.1471329,0.1818848h-3.4075928v-2.2486343H75.1713409 M75.6951294,47.1429787h-4.1813812v2.7486343h4.1813812
						l-0.4765472-0.5891113c-0.3704453-0.4579391-0.3704453-1.1124725,0-1.5704117L75.6951294,47.1429787L75.6951294,47.1429787z"/>
				</g>
			</g>
			<g>
				
					<rect x="27.4964256" y="44.8576126" transform="matrix(8.867846e-11 -1 1 8.867846e-11 -19.646553 77.3880386)" class="st2" width="2.7486296" height="7.3193626"/>
				<g>
					<path class="st19" d="M28.6113987,49.7661858l0.3115234-0.3847656c0.4042969-0.5009766,0.4042969-1.2275391,0-1.7275391
						l-0.3115234-0.3857422h3.7939472v2.4980469H28.6113987z"/>
					<path class="st8" d="M32.280426,47.3929787v2.2486343h-3.4075813l0.147131-0.1818848
						c0.4417305-0.5460892,0.4417305-1.3387756,0-1.8848648l-0.147131-0.1818848H32.280426 M32.530426,47.1429787h-4.1813793
						l0.4765587,0.5891113c0.37043,0.4579391,0.37043,1.1124725,0,1.5704117l-0.4765587,0.5891113h4.1813793V47.1429787
						L32.530426,47.1429787z"/>
				</g>
			</g>
			<g>
				
					<rect x="27.4964256" y="39.0607605" transform="matrix(8.867846e-11 -1 1 8.867846e-11 -13.8497028 71.5911865)" class="st2" width="2.7486296" height="7.3193626"/>
				<g>
					<path class="st19" d="M28.6113987,43.9693108l0.3115234-0.3847656c0.4042969-0.5009766,0.4042969-1.2275391,0-1.7275391
						l-0.3115234-0.3857422h3.7939472v2.4980469H28.6113987z"/>
					<path class="st8" d="M32.280426,41.5961342v2.2486267h-3.4075813l0.147131-0.1818848
						c0.44174-0.5460815,0.44174-1.3387756,0-1.8848572l-0.147131-0.1818848H32.280426 M32.530426,41.3461342h-4.1813793
						l0.4765587,0.5891113c0.37043,0.4579315,0.37043,1.1124725,0,1.5704041l-0.4765587,0.5891113h4.1813793V41.3461342
						L32.530426,41.3461342z"/>
				</g>
			</g>
			<g>
				
					<rect x="27.4964256" y="33.2639122" transform="matrix(8.867846e-11 -1 1 8.867846e-11 -8.0528517 65.7943344)" class="st2" width="2.7486296" height="7.3193626"/>
				<g>
					<path class="st19" d="M28.6113987,38.1724358l0.3115234-0.3847656c0.4042969-0.5009766,0.4042969-1.2275391,0-1.7275391
						l-0.3115234-0.3857422h3.7939472v2.4980469H28.6113987z"/>
					<path class="st8" d="M32.280426,35.7992821v2.2486267h-3.4075813l0.147131-0.1818848
						c0.44174-0.5460815,0.44174-1.3387756,0-1.8848572l-0.147131-0.1818848H32.280426 M32.530426,35.5492821h-4.1813793
						l0.4765587,0.5891113c0.37043,0.4579315,0.37043,1.1124725,0,1.5704041l-0.4765587,0.5891113h4.1813793V35.5492821
						L32.530426,35.5492821z"/>
				</g>
			</g>
			<g>
				
					<rect x="27.4964256" y="27.467062" transform="matrix(8.867846e-11 -1 1 8.867846e-11 -2.2560017 59.9974823)" class="st2" width="2.7486296" height="7.3193626"/>
				<g>
					<path class="st19" d="M28.6109104,32.3765373l0.3120117-0.3857441c0.4047852-0.5004883,0.4047852-1.2275391,0-1.7280273
						l-0.3115234-0.3852539h3.7939472v2.4990253H28.6109104z"/>
					<path class="st8" d="M32.280426,30.0024319v2.2486324h-3.4075813l0.147131-0.181881
						c0.4417305-0.5460911,0.4417305-1.3387928,0-1.8848705l-0.147131-0.181881H32.280426 M32.530426,29.7524319h-4.1813793
						l0.4765587,0.5891113c0.37043,0.4579277,0.37043,1.1124687,0,1.5704079l-0.4765587,0.5891132h4.1813793V29.7524319
						L32.530426,29.7524319z"/>
				</g>
			</g>
			<g>
				
					<rect x="27.4964256" y="21.6702118" transform="matrix(8.867846e-11 -1 1 8.867846e-11 3.5408487 54.200634)" class="st2" width="2.7486296" height="7.3193626"/>
				<g>
					<path class="st19" d="M28.6113987,26.5791721l0.3115234-0.3852539c0.4047852-0.5004883,0.4047852-1.2275391,0-1.7280273
						l-0.3115234-0.3852539h3.7939472v2.4985352H28.6113987z"/>
					<path class="st8" d="M32.280426,24.2055798v2.2486305h-3.4075813l0.147131-0.181881
						c0.4417305-0.5460892,0.4417305-1.3387909,0-1.8848686l-0.147131-0.181881H32.280426 M32.530426,23.9555798h-4.1813793
						l0.4765587,0.5891113c0.37043,0.4579277,0.37043,1.1124687,0,1.5704079l-0.4765587,0.5891113h4.1813793V23.9555798
						L32.530426,23.9555798z"/>
				</g>
			</g>
			<g>
				
					<rect x="27.4964256" y="15.8733606" transform="matrix(8.867846e-11 -1 1 8.867846e-11 9.3376989 48.4037819)" class="st2" width="2.7486296" height="7.3193626"/>
				<g>
					<path class="st19" d="M28.6113987,20.7822971l0.3115234-0.3852539c0.4047852-0.5004883,0.4047852-1.2275391,0-1.7280273
						l-0.3115234-0.3852539h3.7939472v2.4985352H28.6113987z"/>
					<path class="st8" d="M32.280426,18.4087238v2.2486305h-3.4075813l0.147131-0.181881
						c0.4417305-0.5460777,0.4417305-1.3387794,0-1.8848686l-0.147131-0.181881H32.280426 M32.530426,18.1587238h-4.1813793
						l0.4765587,0.5891113c0.37043,0.4579391,0.37043,1.1124802,0,1.5704079l-0.4765587,0.5891113h4.1813793V18.1587238
						L32.530426,18.1587238z"/>
				</g>
			</g>
			<g>
				
					<rect x="27.4964256" y="10.0765104" transform="matrix(8.867846e-11 -1 1 8.867846e-11 15.1345491 42.6069336)" class="st2" width="2.7486296" height="7.3193626"/>
				<g>
					<path class="st19" d="M28.6113987,14.9854221l0.3115234-0.3852539c0.4047852-0.5004883,0.4047852-1.2275391,0-1.7280273
						l-0.3115234-0.3852539h3.7939472v2.4985352H28.6113987z"/>
					<path class="st8" d="M32.280426,12.6118717v2.2486305h-3.4075813l0.147131-0.181881
						c0.44174-0.5460777,0.44174-1.3387794,0-1.8848572l-0.1471367-0.1818924H32.280426 M32.530426,12.3618717h-4.1813793
						l0.4765587,0.5891228c0.37043,0.4579277,0.37043,1.1124687,0,1.5703964l-0.4765587,0.5891113h4.1813793V12.3618717
						L32.530426,12.3618717z"/>
				</g>
			</g>
			<g>
				
					<rect x="27.4964256" y="4.2796597" transform="matrix(8.867846e-11 -1 1 8.867846e-11 20.9314003 36.8100815)" class="st2" width="2.7486296" height="7.3193626"/>
				<g>
					<path class="st19" d="M28.6113987,9.1885471l0.3115234-0.3852539c0.4047852-0.5009766,0.4047852-1.2275391,0-1.7275391
						L28.6109104,6.690012h3.7944355v2.4985352H28.6113987z"/>
					<path class="st8" d="M32.280426,6.8150311v2.2486305H28.872839l0.1471367-0.1818924
						c0.44174-0.5460777,0.44174-1.3387794,0-1.8848572l-0.147131-0.181881H32.280426 M32.530426,6.5650311h-4.1813793
						l0.4765587,0.5891113c0.37043,0.4579277,0.37043,1.1124687,0,1.5703964l-0.4765587,0.5891228h4.1813793V6.5650311
						L32.530426,6.5650311z"/>
				</g>
			</g>
			<g>
				<rect x="35.8674545" y="0" class="st2" width="2.7486296" height="5.642385"/>
				<g>
					<path class="st19" d="M35.99226,5.5171604V3.010813l0.3857422,0.3120117
						c0.2436523,0.1972656,0.550293,0.3056641,0.8637695,0.3056641s0.6201172-0.1083984,0.8637695-0.3056641l0.3857422-0.3120117
						v2.5063474H35.99226z"/>
					<path class="st8" d="M36.1174507,3.2730811l0.1819,0.1471405c0.265831,0.2150307,0.6005211,0.3334503,0.942421,0.3334503
						c0.3419075,0,0.676609-0.1184196,0.9424286-0.3334503l0.181881-0.1471291v2.1192892h-2.2486305V3.2730811
						 M38.6160812,2.7493002l-0.5891113,0.4765511c-0.2289658,0.185215-0.5070801,0.2778206-0.7851982,0.2778206
						s-0.5562363-0.0926056-0.785202-0.2778206l-0.589119-0.4765511v2.8930814h2.7486305V2.7493002L38.6160812,2.7493002z"/>
				</g>
			</g>
			<g>
				<rect x="41.784996" y="0" class="st2" width="2.7486296" height="5.642385"/>
				<g>
					<path class="st19" d="M41.9102287,5.5171604V3.0113013l0.3852539,0.3115234
						c0.2436523,0.1972656,0.550293,0.3056641,0.8637695,0.3056641s0.6201172-0.1083984,0.8637695-0.3056641l0.3857422-0.3120117
						v2.5063474H41.9102287z"/>
					<path class="st8" d="M42.0349922,3.2730811l0.1819,0.1471405c0.265831,0.2150307,0.6005211,0.3334503,0.942421,0.3334503
						c0.3419075,0,0.676609-0.1184196,0.9424286-0.3334503l0.1818886-0.1471329v2.119293h-2.2486382V3.2730811
						 M44.5336304,2.7493002l-0.589119,0.4765511c-0.2289658,0.185215-0.5070801,0.2778206-0.7851982,0.2778206
						s-0.5562363-0.0926056-0.785202-0.2778206l-0.589119-0.4765511v2.8930814h2.7486382V2.7493002L44.5336304,2.7493002z"/>
				</g>
			</g>
			<g>
				<rect x="47.6941109" y="0" class="st2" width="2.7486296" height="5.642385"/>
				<g>
					<path class="st19" d="M47.8189201,5.5171604V3.010813l0.3857422,0.3120117
						c0.2436523,0.1972656,0.550293,0.3056641,0.8637695,0.3056641s0.6201172-0.1083984,0.8637695-0.3056641l0.3857422-0.3120117
						v2.5063474H47.8189201z"/>
					<path class="st8" d="M47.9441071,3.2730811l0.1819,0.1471405c0.265831,0.2150307,0.6005211,0.3334503,0.942421,0.3334503
						c0.3419075,0,0.676609-0.1184196,0.9424286-0.3334503l0.181881-0.1471291v2.1192892h-2.2486305V3.2730811
						 M50.4427376,2.7493002l-0.5891113,0.4765511c-0.2289658,0.185215-0.5070801,0.2778206-0.7851982,0.2778206
						s-0.5562363-0.0926056-0.785202-0.2778206l-0.589119-0.4765511v2.8930814h2.7486305V2.7493002L50.4427376,2.7493002z"/>
				</g>
			</g>
			<g>
				<rect x="53.6368065" y="0" class="st2" width="2.7486296" height="5.642385"/>
				<g>
					<path class="st19" d="M53.7617912,5.5171604V3.010813l0.3857422,0.3120117
						c0.2431641,0.1972656,0.550293,0.3056641,0.8637695,0.3056641s0.6201172-0.1083984,0.8642578-0.3056641l0.3847656-0.3115234
						v2.5058591H53.7617912z"/>
					<path class="st8" d="M53.8868103,3.2730887l0.1818886,0.1471329c0.265831,0.2150307,0.6005211,0.3334503,0.942421,0.3334503
						c0.3419113,0,0.6766014-0.1184196,0.94244-0.3334503l0.181881-0.1471291v2.1192892h-2.2486305V3.2730887 M56.3854408,2.7493002
						l-0.5891113,0.4765511c-0.2289696,0.185215-0.5070915,0.2778206-0.7852097,0.2778206s-0.5562363-0.0926056-0.7851982-0.2778206
						l-0.5891113-0.4765511v2.8930814h2.7486305V2.7493002L56.3854408,2.7493002z"/>
				</g>
			</g>
			<g>
				<rect x="59.5298691" y="0" class="st2" width="2.7486296" height="5.642385"/>
				<g>
					<path class="st19" d="M59.6548576,5.5171604V3.0113013l0.3847656,0.3115234
						c0.2441406,0.1972656,0.5507813,0.3056641,0.8642578,0.3056641s0.6201172-0.1083984,0.8642578-0.3056641l0.3857422-0.3120117
						v2.5063474H59.6548576z"/>
					<path class="st8" d="M59.7798653,3.2730887l0.1818924,0.1471329c0.2658272,0.2150307,0.6005173,0.3334503,0.9424286,0.3334503
						s0.676609-0.1184196,0.9424286-0.3334503l0.181881-0.1471291v2.1192892h-2.2486305V3.2730887 M62.2784958,2.7493002
						l-0.5891113,0.4765511c-0.2289619,0.185215-0.5070801,0.2778206-0.7851982,0.2778206s-0.5562401-0.0926056-0.7852097-0.2778206
						l-0.5891113-0.4765511v2.8930814h2.7486305V2.7493002L62.2784958,2.7493002z"/>
				</g>
			</g>
			<g>
				<rect x="65.4415588" y="0" class="st2" width="2.7486296" height="5.642385"/>
				<g>
					<path class="st19" d="M65.5669632,5.5171604V3.0113013l0.3847656,0.3115234
						c0.2441406,0.1972656,0.5507813,0.3056641,0.8642578,0.3056641s0.6201172-0.1083984,0.8642578-0.3056641l0.3847656-0.3115234
						v2.5058591H65.5669632z"/>
					<path class="st8" d="M65.6915512,3.2730887l0.1818924,0.1471329c0.265831,0.2150307,0.6005173,0.3334503,0.9424286,0.3334503
						s0.6766129-0.1184196,0.9424286-0.3334503l0.1818848-0.1471291v2.1192892h-2.2486343V3.2730887 M68.1901855,2.7493002
						l-0.5891113,0.4765511c-0.2289658,0.185215-0.5070801,0.2778206-0.785202,0.2778206
						c-0.2781143,0-0.5562363-0.0926056-0.7852097-0.2778206l-0.5891113-0.4765511v2.8930814h2.7486343V2.7493002
						L68.1901855,2.7493002z"/>
				</g>
			</g>
			<line class="st20" x1="71.1608124" y1="7.9393415" x2="71.1608124" y2="13.7369394"/>
		</g>
		<rect x="34.2784691" y="7.2699604" class="st21" width="35.4843597" height="43.5937386"/>
		<g>
			<path class="st10" d="M49.4014397,33.0454826l0.4125977-0.0595703l-0.371582-0.0888672l-2.1826172-0.6181641v-0.3481464
				l2.1826172-0.6035156l0.3779297-0.0859375l-0.4208984-0.0668945l-2.1396484-0.4853516v-0.4145508l3.1279297,0.7583008v0.3759766
				l-2.2792969,0.6445332l-0.2387695,0.0493164l0.2387695,0.0493164l2.2792969,0.6689453v0.375l-3.1279297,0.7568359v-0.4130859
				L49.4014397,33.0454826z"/>
			<path class="st10" d="M50.3877678,29.2642307v0.4125977h-3.1279297v-0.4125977H50.3877678z"/>
			<path class="st10" d="M49.2212639,27.6348362v1.0483398h-0.324707v-1.0483398H49.2212639z"/>
			<path class="st10" d="M49.0064201,25.3506565v1.3129883h1.3813477v0.4121094h-3.1279297v-1.9375h0.3369141v1.5253906h1.0722656
				v-1.3129883H49.0064201z"/>
			<path class="st10" d="M50.3877678,24.0913792v0.4125977h-3.1279297v-0.4125977H50.3877678z"/>
			<path class="st10" d="M54.2217522,35.9751701v1.3564453h1.1088867v-1.5751953h0.3369141v1.9873047h-3.1279297v-1.9658203
				h0.3369141v1.5537109h1.0078125v-1.3564453H54.2217522z"/>
			<path class="st10" d="M54.2730217,34.2114983c-0.1015625,0.3535156-0.2265625,0.6113281-0.3745117,0.7724609
				c-0.1484375,0.1611328-0.331543,0.2412109-0.5493164,0.2412109c-0.2460938,0-0.449707-0.0976563-0.6108398-0.2949219
				s-0.2416992-0.453125-0.2416992-0.7675781c0-0.2148438,0.0415039-0.4072266,0.1245117-0.5751953
				c0.0830078-0.1689453,0.1977539-0.2988281,0.34375-0.3916016c0.1459961-0.0917969,0.3056641-0.1386719,0.4790039-0.1386719
				v0.4150391c-0.1899414,0-0.3388672,0.0595703-0.4472656,0.1806641c-0.1083984,0.1201172-0.1630859,0.2900391-0.1630859,0.5097656
				c0,0.203125,0.0449219,0.3613281,0.1347656,0.4746094c0.0898438,0.1142578,0.2143555,0.171875,0.3735352,0.171875
				c0.1274414,0,0.2353516-0.0546875,0.3237305-0.1621094c0.0883789-0.109375,0.1689453-0.2929688,0.2421875-0.5527344
				s0.1538086-0.4628906,0.2416992-0.6103516c0.0883789-0.1464844,0.190918-0.2548828,0.3085938-0.3261719
				c0.1171875-0.0712891,0.2553711-0.1064453,0.4145508-0.1064453c0.2539063,0,0.4570313,0.0986328,0.609375,0.296875
				c0.1523438,0.1972656,0.2285156,0.4609375,0.2285156,0.7929688c0,0.2148438-0.0410156,0.4140625-0.1230469,0.6015625
				c-0.0830078,0.1855469-0.1953125,0.3291016-0.3388672,0.4296875c-0.1425781,0.1015625-0.3056641,0.1523438-0.487793,0.1523438
				v-0.4150391c0.1889648,0,0.3383789-0.0693359,0.4487305-0.2099609c0.109375-0.1386719,0.1640625-0.3261719,0.1640625-0.5585938
				c0-0.21875-0.0449219-0.3847656-0.1337891-0.5019531c-0.0878906-0.1152344-0.2089844-0.1738281-0.362793-0.1738281
				c-0.1533203,0-0.2719727,0.0546875-0.3554688,0.1621094C54.4375725,33.7349358,54.3550529,33.9292717,54.2730217,34.2114983z"/>
			<path class="st10" d="M54.4429436,32.0000725h1.2246094v0.4125977h-3.1279297v-1.1538105
				c0-0.3422852,0.0874023-0.6108398,0.2617188-0.8046875c0.1748047-0.1943359,0.40625-0.2910156,0.6943359-0.2910156
				c0.3037109,0,0.5371094,0.0947266,0.7011719,0.284668c0.1640625,0.1894531,0.2460938,0.4614258,0.2460938,0.8149414V32.0000725z
				 M54.1055412,32.0000725v-0.7412128c0-0.2207031-0.0517578-0.3896484-0.1557617-0.5073242
				c-0.1040039-0.1171875-0.2543945-0.1762695-0.4511719-0.1762695c-0.1865234,0-0.3354492,0.059082-0.4477539,0.1762695
				c-0.1118164,0.1176758-0.1699219,0.2788086-0.1743164,0.4833984v0.7651386H54.1055412z"/>
			<path class="st10" d="M53.3560295,27.7324924c0.1557617,0,0.2949219,0.0415039,0.4165039,0.1235352
				c0.1220703,0.0825195,0.2172852,0.1938477,0.2856445,0.3344727c0.0703125-0.1635742,0.1728516-0.2924805,0.3076172-0.3881836
				c0.1342773-0.0952148,0.2871094-0.1425781,0.4575195-0.1425781c0.2709961,0,0.4868164,0.0913086,0.6469727,0.2739258
				s0.2402344,0.4228516,0.2402344,0.7207031c0,0.3007813-0.0800781,0.5419922-0.2412109,0.7231445
				s-0.3769531,0.2714844-0.6459961,0.2714844c-0.1689453,0-0.3217773-0.0458984-0.4575195-0.1386719
				c-0.1362305-0.0922852-0.2392578-0.2202148-0.3095703-0.3833008c-0.0688477,0.1391602-0.1640625,0.2485352-0.2856445,0.3286133
				c-0.121582,0.0805664-0.2602539,0.1206055-0.4145508,0.1206055c-0.2636719,0-0.4726563-0.0844727-0.6274414-0.2539063
				c-0.1547852-0.1689453-0.2319336-0.3916016-0.2319336-0.6679688c0-0.2749023,0.0771484-0.4975586,0.2319336-0.6669922
				C52.8833733,27.8174534,53.0923576,27.7324924,53.3560295,27.7324924z M52.8228264,28.6543674
				c0,0.15625,0.0483398,0.2827148,0.1450195,0.3793945s0.2285156,0.1450195,0.3945313,0.1450195
				c0.1586914,0,0.2875977-0.0478516,0.3857422-0.1430664s0.1469727-0.222168,0.1469727-0.3813477
				s-0.0488281-0.2861328-0.1469727-0.3813477s-0.2270508-0.1430664-0.3857422-0.1430664
				c-0.1591797,0-0.2885742,0.0498047-0.3891602,0.1484375C52.8731194,28.3770237,52.8228264,28.502512,52.8228264,28.6543674z
				 M54.8145256,28.0571995c-0.1748047,0-0.3168945,0.0556641-0.4272461,0.1665039s-0.1655273,0.2558594-0.1655273,0.4350586
				s0.0541992,0.3227539,0.1630859,0.4306641c0.1088867,0.1083984,0.2524414,0.1621094,0.4296875,0.1621094
				c0.1777344,0,0.3178711-0.0527344,0.4194336-0.1577148c0.1015625-0.1054688,0.1523438-0.2519531,0.1523438-0.4394531
				c0-0.1860352-0.0507813-0.3320313-0.1533203-0.4384766C55.1304436,28.1099339,54.9907951,28.0571995,54.8145256,28.0571995z"/>
			<path class="st10" d="M55.6675529,24.9995823v2.0498047h-0.2851563l-1.2036133-1.0830078
				c-0.1821289-0.1601563-0.3300781-0.2709961-0.4438477-0.3320313c-0.1137695-0.0605469-0.2314453-0.0913086-0.3535156-0.0913086
				c-0.1630859,0-0.296875,0.0493164-0.4013672,0.1484375c-0.1044922,0.0986328-0.1572266,0.2304688-0.1572266,0.3950195
				c0,0.1977539,0.0566406,0.3515625,0.1689453,0.4609375c0.1123047,0.1098633,0.269043,0.1645508,0.4692383,0.1645508v0.3974609
				c-0.2875977,0-0.5205078-0.0927734-0.6982422-0.2783203c-0.1772461-0.1855469-0.2661133-0.4335938-0.2661133-0.7446289
				c0-0.2905273,0.0761719-0.5205078,0.2285156-0.6894531c0.152832-0.1689453,0.3554688-0.253418,0.609375-0.253418
				c0.3076172,0,0.6743164,0.1962891,1.0996094,0.5883789l0.9091797,0.8378906v-1.5703125H55.6675529z"/>
			<path class="st10" d="M52.5371819,22.908762h0.3374023v0.0732422c0.0058594,0.309082,0.0976563,0.5556641,0.2749023,0.7387695
				c0.1777344,0.1835938,0.4277344,0.2895508,0.75,0.3183594c-0.1889648-0.1650391-0.2836914-0.3896484-0.2836914-0.6748047
				c0-0.2719727,0.0961914-0.4892578,0.2880859-0.6518555s0.4394531-0.2441406,0.7431641-0.2441406
				c0.3222656,0,0.5800781,0.0878906,0.7734375,0.2631836c0.1933594,0.1757813,0.2900391,0.4106445,0.2900391,0.7060547
				c0,0.2993164-0.1142578,0.5419922-0.3447266,0.7280273c-0.2294922,0.1865234-0.5258789,0.2792969-0.8886719,0.2792969h-0.1523438
				c-0.5756836,0-1.015625-0.1225586-1.3203125-0.3681641c-0.3041992-0.2456055-0.4599609-0.6113281-0.4672852-1.097168V22.908762z
				 M53.9468498,23.4307346c0,0.1362305,0.0405273,0.2617188,0.1220703,0.3759766
				c0.0820313,0.1147461,0.184082,0.1943359,0.3076172,0.2387695h0.1459961c0.2578125,0,0.465332-0.0581055,0.6235352-0.1743164
				c0.1572266-0.1157227,0.2363281-0.2602539,0.2363281-0.4335938c0-0.1791992-0.0664063-0.3198242-0.1982422-0.4223633
				s-0.3041992-0.1538086-0.5175781-0.1538086c-0.2148438,0-0.3886719,0.0522461-0.5209961,0.1557617
				C54.0127678,23.1211643,53.9468498,23.2588596,53.9468498,23.4307346z"/>
			<path class="st10" d="M52.5371819,20.3277073h0.3374023v0.0732422c0.0058594,0.309082,0.0976563,0.5556641,0.2749023,0.7387695
				c0.1777344,0.1835938,0.4277344,0.2895508,0.75,0.3183594c-0.1889648-0.1650391-0.2836914-0.3896484-0.2836914-0.6748047
				c0-0.2719727,0.0961914-0.4892578,0.2880859-0.6518555s0.4394531-0.2441406,0.7431641-0.2441406
				c0.3222656,0,0.5800781,0.0878906,0.7734375,0.2631836c0.1933594,0.1757813,0.2900391,0.4106445,0.2900391,0.7060547
				c0,0.2993164-0.1142578,0.5419922-0.3447266,0.7280273c-0.2294922,0.1865234-0.5258789,0.2792969-0.8886719,0.2792969h-0.1523438
				c-0.5756836,0-1.015625-0.1225586-1.3203125-0.3681641c-0.3041992-0.2456055-0.4599609-0.6113281-0.4672852-1.097168V20.3277073z
				 M53.9468498,20.8496799c0,0.1362305,0.0405273,0.2617188,0.1220703,0.3759766
				c0.0820313,0.1147461,0.184082,0.1943359,0.3076172,0.2387695h0.1459961c0.2578125,0,0.465332-0.0581055,0.6235352-0.1743164
				c0.1572266-0.1157227,0.2363281-0.2602539,0.2363281-0.4335938c0-0.1791992-0.0664063-0.3198242-0.1982422-0.4223633
				s-0.3041992-0.1538086-0.5175781-0.1538086c-0.2148438,0-0.3886719,0.0522461-0.5209961,0.1557617
				C54.0127678,20.5401096,53.9468498,20.6778049,53.9468498,20.8496799z"/>
		</g>
		<g>
			<path class="st10" d="M39.6446037,45.0347404v1.4892578l0.9301758,0.3339844v0.4833984l-3.5546875-1.3574219v-0.4101563
				l3.5546875-1.359375v0.4804688L39.6446037,45.0347404z M39.2613029,46.3823967v-1.2089844l-1.6625977,0.6054688
				L39.2613029,46.3823967z"/>
			<path class="st10" d="M40.5747795,43.5073967v0.46875H37.020092v-0.46875H40.5747795z"/>
		</g>
		<polygon class="st22" points="35.3510094,71.0718002 35.3510094,69.2595444 44.2707329,69.2595444 44.2707329,58.5928764 
			49.9034615,58.5928764 49.9034615,69.2595444 51.7992935,69.2595444 51.7992935,58.5928764 57.4314041,58.5928764 
			57.4314041,69.2595444 59.2992935,69.2595444 59.2992935,58.5928764 64.9659653,58.5928764 64.9659653,69.2595444 
			66.8201294,69.2595444 66.8201294,54.9053764 44.2707329,54.9053764 44.2707329,53.1137085 66.8201294,53.1137085 
			66.8201294,51.6293335 68.7003403,51.6293335 68.7003403,71.0718002 63.0597115,71.0718002 63.0597115,60.4574585 
			61.1690865,60.4574585 61.1690865,71.0718002 55.5440865,71.0718002 55.5440865,60.4887085 53.6847115,60.4887085 
			53.6847115,71.0718002 48.0440865,71.0718002 48.0440865,60.4887085 46.1378365,60.4887085 46.1378365,71.0718002 
			35.4034615,71.0718002 		"/>
		<g>
			<g>
				<g id="XMLID_16_">
					<g>
						<rect x="31.2224655" y="53.0740433" class="st2" width="1.9493304" height="2.4143176"/>
					</g>
					<g>
					</g>
				</g>
				<g id="XMLID_6_">
					<g>
						<rect x="35.2667503" y="53.0509453" class="st2" width="1.9493304" height="2.4143176"/>
					</g>
					<g>
					</g>
				</g>
				<circle class="st23" cx="34.2558632" cy="54.2119026" r="0.3132209"/>
			</g>
			<path class="st12" d="M35.737442,54.2699585c-0.0001984-0.166214,0.0802269-0.3416824,0.2437363-0.3936844
				c0.0344086-0.0120773,0.0344086-0.8135567,0.0344086-0.8135567s-0.4191399,0-0.8382797,0v2.4144821
				c0.4191399,0,0.8382797,0,0.8382797,0s0-0.8014793-0.0344086-0.8135567
				C35.8176689,54.6116409,35.7372437,54.4361725,35.737442,54.2699585"/>
			<path class="st12" d="M35.897007,54.2699585c-0.0001945-0.166214,0.0802269-0.3416824,0.2437363-0.3936844
				c0.0344086-0.0120773,0.0344086-0.8135567,0.0344086-0.8135567s-0.4191399,0-0.8382797,0v2.4144821
				c0.4191399,0,0.8382797,0,0.8382797,0s0-0.8014793-0.0344086-0.8135567
				C35.9772339,54.6116409,35.8968124,54.4361725,35.897007,54.2699585"/>
			<path class="st12" d="M32.7361488,54.2699585c0.0001945-0.166214-0.0802269-0.3416824-0.2437363-0.3936844
				c-0.0344086-0.0120773-0.0344086-0.8135567-0.0344086-0.8135567s0.4191399,0,0.8382797,0v2.4144821
				c-0.4191399,0-0.8382797,0-0.8382797,0s0-0.8014793,0.0344086-0.8135567
				C32.6559219,54.6116409,32.7363434,54.4361725,32.7361488,54.2699585"/>
			
				<rect x="33.2962837" y="53.0627174" transform="matrix(-1 -1.224647e-16 1.224647e-16 -1 68.473587 108.539917)" class="st13" width="1.8810209" height="2.414484"/>
			
				<rect x="33.2962837" y="53.0627174" transform="matrix(-1 -1.224647e-16 1.224647e-16 -1 68.473587 108.539917)" class="st24" width="1.8810209" height="2.414484"/>
		</g>
	</g>
	<g>
		<g id="XMLID_15_">
			<g>
				<rect x="91.8084183" y="64.3100052" class="st1" width="2.6729815" height="1.1338588"/>
			</g>
			<g>
			</g>
		</g>
		<g id="XMLID_9_">
			<g>
				<rect x="91.8084183" y="62.8394127" class="st1" width="2.6729815" height="1.1338588"/>
			</g>
			<g>
			</g>
		</g>
		<g id="XMLID_10_">
			<g>
				<rect x="91.8084183" y="61.368824" class="st1" width="2.6729815" height="1.1338588"/>
			</g>
			<g>
			</g>
		</g>
		<g id="XMLID_12_">
			<g>
				<rect x="91.8084183" y="59.8982353" class="st1" width="2.6729815" height="1.1338588"/>
			</g>
			<g>
			</g>
		</g>
		<g id="XMLID_11_">
			<g>
				<rect x="91.8084183" y="58.4276505" class="st1" width="2.6729815" height="1.1338588"/>
			</g>
			<g>
			</g>
		</g>
		<g id="XMLID_21_">
			<g>
				<rect x="103.4501495" y="64.3100052" class="st1" width="2.674288" height="1.1338588"/>
			</g>
			<g>
			</g>
		</g>
		<g id="XMLID_20_">
			<g>
				<rect x="103.4501495" y="62.8394127" class="st1" width="2.674288" height="1.1338588"/>
			</g>
			<g>
			</g>
		</g>
		<g id="XMLID_19_">
			<g>
				<rect x="103.4501495" y="61.368824" class="st1" width="2.674288" height="1.1338588"/>
			</g>
			<g>
			</g>
		</g>
		<g id="XMLID_14_">
			<g>
				<rect x="103.4501495" y="59.8982353" class="st1" width="2.674288" height="1.1338588"/>
			</g>
			<g>
			</g>
		</g>
		<g id="XMLID_13_">
			<g>
				<rect x="103.4501495" y="58.4276505" class="st1" width="2.674288" height="1.1338588"/>
			</g>
			<g>
			</g>
		</g>
		<g id="XMLID_8_">
			<g>
				<path class="st4" d="M103.4508591,57.7149849v8.5164299c0,0.0558853-0.0463409,0.1006012-0.1016464,0.1006012h-8.7654572
					c-0.0568008,0-0.1016464-0.0447159-0.1016464-0.1006012v-8.5164299c0-0.0558891,0.0448456-0.1017189,0.1016464-0.1017189
					h8.7654572C103.4045181,57.613266,103.4508591,57.6590958,103.4508591,57.7149849z"/>
			</g>
			<g>
			</g>
		</g>
	</g>
	<g>
		<g id="XMLID_23_">
			<g>
				<rect x="102.7959137" y="48.3676758" class="st1" width="2.674288" height="1.3254764"/>
			</g>
			<g>
			</g>
		</g>
		<g id="XMLID_24_">
			<g>
				<rect x="102.7959137" y="45.6468124" class="st1" width="2.674288" height="1.3254764"/>
			</g>
			<g>
			</g>
		</g>
		<g id="XMLID_26_">
			<g>
				<rect x="102.7959137" y="51.0885353" class="st1" width="2.674288" height="1.3254764"/>
			</g>
			<g>
			</g>
		</g>
		<g id="XMLID_27_">
			<g>
				<rect x="96.238327" y="45.6468124" class="st1" width="2.674288" height="1.3254764"/>
			</g>
			<g>
			</g>
		</g>
		<g id="XMLID_25_">
			<g>
				<rect x="96.238327" y="51.0885353" class="st1" width="2.674288" height="1.3254764"/>
			</g>
			<g>
			</g>
		</g>
		<g id="XMLID_22_">
			<g>
				<path class="st4" d="M102.7963257,44.9779816v8.1054268c0,0.0358963-0.029129,0.0644035-0.0653763,0.0644035h-3.7537613
					c-0.0356064,0-0.0647354-0.0285072-0.0647354-0.0644035v-8.1054268c0-0.0359001,0.029129-0.0654602,0.0647354-0.0654602
					h3.7537613C102.7671967,44.9125214,102.7963257,44.9420815,102.7963257,44.9779816z"/>
			</g>
			<g>
				<path class="st25" d="M102.7309494,53.1478119h-3.7537613c-0.0356064,0-0.0647354-0.0285072-0.0647354-0.0644035v-8.1054268
					c0-0.0359001,0.029129-0.0654602,0.0647354-0.0654602h3.7537613c0.0362473,0,0.0653763,0.0295601,0.0653763,0.0654602v8.1054268
					C102.7963257,53.1193047,102.7671967,53.1478119,102.7309494,53.1478119z"/>
			</g>
		</g>
	</g>
	<g>
		<path class="st10" d="M84.7114944,8.8902073V9.558176h1.1503906v0.3769531h-2.84375V8.9937229
			c0-0.3203125,0.0732422-0.5664063,0.21875-0.7392578s0.3583984-0.2587891,0.6367188-0.2587891
			c0.1767578,0,0.3310547,0.0478516,0.4628906,0.1435547s0.2294922,0.2285156,0.2949219,0.3994141l1.2070313-0.6679688h0.0234375
			v0.4023438L84.7114944,8.8902073z M84.4048538,9.558176V8.9820042c0-0.1865234-0.0478516-0.3339844-0.1445313-0.4443359
			s-0.2255859-0.1650391-0.3876953-0.1650391c-0.1757813,0-0.3115234,0.0527344-0.4052734,0.1572266
			s-0.1416016,0.2558594-0.1425781,0.4541016V9.558176H84.4048538z"/>
		<path class="st10" d="M84.5474319,5.8628635v1.2324219h1.0078125V5.6636448h0.3066406v1.8066406h-2.84375V5.683176h0.3066406
			v1.4121094h0.9160156V5.8628635H84.5474319z"/>
		<path class="st10" d="M84.5943069,4.3589573c-0.0927734,0.3212891-0.2060547,0.5556641-0.3408203,0.7021484
			s-0.3007813,0.2197266-0.4990234,0.2197266c-0.2236328,0-0.4091797-0.0898438-0.5556641-0.2685547
			s-0.2197266-0.4121094-0.2197266-0.6982422c0-0.1953125,0.0380859-0.3691404,0.1132813-0.5224607
			s0.1796875-0.2714844,0.3125-0.3554688s0.2783203-0.1259766,0.4355469-0.1259766v0.3769531
			c-0.1728516,0-0.3076172,0.0546875-0.40625,0.1640625s-0.1484375,0.2636716-0.1484375,0.4628904
			c0,0.1845703,0.0410156,0.3291016,0.1220703,0.4326172c0.0820313,0.1035156,0.1953125,0.1552734,0.3398438,0.1552734
			c0.1162109,0,0.2138672-0.0488281,0.2939453-0.1474609c0.0810547-0.0986328,0.1542969-0.265625,0.2207031-0.5019531
			s0.1396484-0.4208982,0.2197266-0.5546873s0.1738281-0.2324219,0.2802734-0.296875S84.9946976,3.30427,85.1392288,3.30427
			c0.2304688,0,0.4150391,0.0898438,0.5537109,0.2695313s0.2080078,0.4199219,0.2080078,0.7207029
			c0,0.1953125-0.0371094,0.3779297-0.1123047,0.546875s-0.1777344,0.2998047-0.3076172,0.3916016
			S85.2027054,5.370676,85.0376663,5.370676V4.9937229c0.171875,0,0.3076172-0.0634766,0.4072266-0.1904297
			s0.1494141-0.296875,0.1494141-0.5087891c0-0.1982422-0.0400391-0.3496091-0.1210938-0.4550779
			s-0.1904297-0.1582031-0.3300781-0.1582031s-0.2470703,0.0488281-0.3232422,0.1464844S84.6685257,4.1021214,84.5943069,4.3589573z
			"/>
	</g>
	<g>
	</g>
	<g>
	</g>
	<g>
	</g>
	<g>
	</g>
	<g>
	</g>
	<g>
	</g>
</g>
</svg>
