<?xml version="1.0" encoding="utf-8"?>
<!-- Generator: Adobe Illustrator 22.1.0, SVG Export Plug-In . SVG Version: 6.00 Build 0)  -->
<svg version="1.1" id="Макет_TREMA" xmlns="http://www.w3.org/2000/svg" xmlns:xlink="http://www.w3.org/1999/xlink" x="0px"
	 y="0px" viewBox="0 0 85.0400009 85.0400009" style="enable-background:new 0 0 85.0400009 85.0400009;" xml:space="preserve">
<style type="text/css">
	.st0{fill:#19191A;}
	.st1{fill:#9E9B9C;}
	.st2{fill:#CEC7BD;}
	.st3{fill:#E5E4E0;}
	.st4{fill:#918C84;}
	.st5{fill:#151616;}
	.st6{fill:none;stroke:#F6F6F6;stroke-width:0.75;stroke-miterlimit:10;}
	.st7{fill:#CDC7BC;}
	.st8{fill:#C5B198;}
	.st9{fill:#4E8B5C;}
	.st10{fill:#CCCCCC;}
	.st11{opacity:0.5;fill:url(#SVGID_1_);}
	.st12{opacity:0.1;fill:#B3B3B3;}
	.st13{opacity:0.5;fill:url(#SVGID_2_);}
	.st14{fill:#B3B3B3;}
	.st15{fill:#363331;}
	.st16{fill:#FFFFFF;}
	.st17{fill:none;stroke:#E5E4E0;stroke-width:1.3;stroke-miterlimit:10;}
	.st18{fill:none;stroke:#E5E4E0;stroke-width:0.5;stroke-miterlimit:10;}
	.st19{fill:#E5E4E0;stroke:#E5E4E0;stroke-width:0.5;stroke-miterlimit:10;}
</style>
<g id="Креп._отверстия">
	<path class="st0" d="M-0.000304-0.000304v85.039978h85.039978V-0.000304H-0.000304z M9.921998,79.5114746
		c-2.427917,0-4.3947139-1.9667969-4.3947139-4.3927002c0-2.4279175,1.9667969-4.3947144,4.3947139-4.3947144
		c2.4258423,0,4.3926392,1.9667969,4.3926392,4.3947144C14.3146372,77.5446777,12.3478403,79.5114746,9.921998,79.5114746z
		 M9.921998,14.3146372c-2.427917,0-4.3947139-1.9667969-4.3947139-4.3927002c0-2.427917,1.9667969-4.3947139,4.3947139-4.3947139
		c2.4258423,0,4.3926392,1.9667969,4.3926392,4.3947139C14.3146372,12.3478403,12.3478403,14.3146372,9.921998,14.3146372z
		 M75.1188354,79.5114746c-2.4279175,0-4.3947144-1.9667969-4.3947144-4.3927002
		c0-2.4279175,1.9667969-4.3947144,4.3947144-4.3947144c2.4258423,0,4.3926392,1.9667969,4.3926392,4.3947144
		C79.5114746,77.5446777,77.5446777,79.5114746,75.1188354,79.5114746z M75.1188354,14.3146372
		c-2.4279175,0-4.3947144-1.9667969-4.3947144-4.3927002c0-2.427917,1.9667969-4.3947139,4.3947144-4.3947139
		c2.4258423,0,4.3926392,1.9667969,4.3926392,4.3947139C79.5114746,12.3478403,77.5446777,14.3146372,75.1188354,14.3146372z"/>
	<path class="st1" d="M9.9209604,3.9454968c-3.2877803,0-5.9527588,2.6751711-5.9527588,5.9754639
		c0,3.3002319,2.6649783,5.9754028,5.9527588,5.9754028c3.2877197,0,5.9527588-2.6751709,5.9527588-5.9754028
		C15.8737192,6.6206679,13.2086802,3.9454968,9.9209604,3.9454968z M9.921998,14.3146372
		c-2.427917,0-4.3947139-1.9667969-4.3947139-4.3927002c0-2.427917,1.9667969-4.3947139,4.3947139-4.3947139
		c2.4258423,0,4.3926392,1.9667969,4.3926392,4.3947139C14.3146372,12.3478403,12.3478403,14.3146372,9.921998,14.3146372z"/>
	<path class="st1" d="M75.1178055,3.9454968c-3.2877808,0-5.9527588,2.6751711-5.9527588,5.9754639
		c0,3.3002319,2.664978,5.9754028,5.9527588,5.9754028c3.2877197,0,5.9527588-2.6751709,5.9527588-5.9754028
		C81.0705643,6.6206679,78.4055252,3.9454968,75.1178055,3.9454968z M75.1188431,14.3146372
		c-2.4279175,0-4.3947144-1.9667969-4.3947144-4.3927002c0-2.427917,1.9667969-4.3947139,4.3947144-4.3947139
		c2.4258423,0,4.3926392,1.9667969,4.3926392,4.3947139C79.5114822,12.3478403,77.5446854,14.3146372,75.1188431,14.3146372z"/>
	<path class="st1" d="M9.9209604,69.1423721c-3.2877803,0-5.9527588,2.6751709-5.9527588,5.9754639
		c0,3.3002319,2.6649783,5.9754028,5.9527588,5.9754028c3.2877197,0,5.9527588-2.6751709,5.9527588-5.9754028
		C15.8737192,71.817543,13.2086802,69.1423721,9.9209604,69.1423721z M9.921998,79.5115128
		c-2.427917,0-4.3947139-1.9667969-4.3947139-4.3927002c0-2.4279175,1.9667969-4.3947144,4.3947139-4.3947144
		c2.4258423,0,4.3926392,1.9667969,4.3926392,4.3947144C14.3146372,77.5447159,12.3478403,79.5115128,9.921998,79.5115128z"/>
	<path class="st1" d="M75.1178055,69.1423721c-3.2877808,0-5.9527588,2.6751709-5.9527588,5.9754639
		c0,3.3002319,2.664978,5.9754028,5.9527588,5.9754028c3.2877197,0,5.9527588-2.6751709,5.9527588-5.9754028
		C81.0705643,71.817543,78.4055252,69.1423721,75.1178055,69.1423721z M75.1188431,79.5115128
		c-2.4279175,0-4.3947144-1.9667969-4.3947144-4.3927002c0-2.4279175,1.9667969-4.3947144,4.3947144-4.3947144
		c2.4258423,0,4.3926392,1.9667969,4.3926392,4.3947144C79.5114822,77.5447159,77.5446854,79.5115128,75.1188431,79.5115128z"/>
</g>
<g id="Слой_11">
	<g>
		<path class="st2" d="M30.3328495,74.9196472c0,1.2273636-1.0018463,2.2224808-2.2397404,2.2224808
			c-1.2378922,0-2.2415409-0.9951172-2.2415409-2.2224808c0-1.227356,1.0036488-2.2224731,2.2415409-2.2224731
			C29.3310032,72.6971741,30.3328495,73.6922913,30.3328495,74.9196472z"/>
		<g>
			<path class="st3" d="M35.7832031,80.0625c0.3588867,0,0.640625,0.0810547,0.8447266,0.2441406
				c0.2045898,0.1630859,0.3066406,0.3876953,0.3066406,0.6748047c0,0.1582031-0.0429688,0.2958984-0.128418,0.4121094
				s-0.2104492,0.2099609-0.3754883,0.2822266c0.1865234,0.0546875,0.3208008,0.1455078,0.402832,0.2724609
				c0.081543,0.1269531,0.1225586,0.2841797,0.1225586,0.4726563v0.1591797c0,0.0693359,0.0136719,0.1220703,0.0415039,0.1601563
				c0.0273438,0.0380859,0.0732422,0.0605469,0.1367188,0.0683594l0.078125,0.0107422v0.3789063h-0.328125
				c-0.2070313,0-0.3525391-0.0556641-0.4365234-0.1660156s-0.1259766-0.2529297-0.1259766-0.4287109v-0.1787109
				c0-0.1523438-0.0410156-0.2714844-0.1225586-0.3583984c-0.0820313-0.0869141-0.1972656-0.1328125-0.3466797-0.1367188h-0.519043
				v0.8271484l0.3388672,0.0644531v0.3769531h-1.3100586v-0.3769531l0.3369141-0.0644531v-2.2509766l-0.3369141-0.0644531V80.0625
				h0.3369141H35.7832031z M35.3334961,81.4453125h0.4389648c0.1762695,0,0.309082-0.0380859,0.3974609-0.1123047
				s0.1323242-0.1826172,0.1323242-0.3232422s-0.0439453-0.2529297-0.1313477-0.3369141
				c-0.0878906-0.0839844-0.2167969-0.1259766-0.3876953-0.1259766h-0.449707V81.4453125z"/>
			<path class="st3" d="M38.6938477,80.0625v0.3789063l-0.3388672,0.0644531v1.6367188
				c0,0.2070313,0.0561523,0.3613281,0.168457,0.4648438c0.1123047,0.1025391,0.2661133,0.1533203,0.4614258,0.1533203
				c0.1987305,0,0.3544922-0.0507813,0.4672852-0.1523438c0.112793-0.1025391,0.1694336-0.2578125,0.1694336-0.4658203v-1.6367188
				l-0.3369141-0.0644531V80.0625h1.3100586v0.3789063l-0.3388672,0.0644531v1.6367188
				c0,0.3525391-0.1166992,0.6230469-0.3505859,0.8144531s-0.5410156,0.2861328-0.9204102,0.2861328
				c-0.3779297,0-0.6831055-0.0947266-0.9155273-0.2861328s-0.3486328-0.4619141-0.3486328-0.8144531v-1.6367188
				l-0.3364258-0.0644531V80.0625h0.3364258h0.6342773H38.6938477z"/>
			<path class="st3" d="M43.1845703,81.0634766h-0.4760742l-0.0825195-0.4306641
				c-0.0546875-0.0341797-0.1352539-0.0644531-0.2407227-0.0898438c-0.105957-0.0263672-0.2182617-0.0390625-0.3369141-0.0390625
				c-0.1738281,0-0.3081055,0.0361328-0.402832,0.1083984c-0.0952148,0.0722656-0.1425781,0.1660156-0.1425781,0.28125
				c0,0.1064453,0.0498047,0.1933594,0.1489258,0.2617188s0.2705078,0.140625,0.5136719,0.2167969
				c0.3491211,0.0957031,0.6137695,0.2226563,0.7939453,0.3808594c0.1806641,0.1582031,0.2705078,0.3652344,0.2705078,0.6220703
				c0,0.2685547-0.1069336,0.4804688-0.3212891,0.6357422s-0.4970703,0.2324219-0.847168,0.2324219
				c-0.2509766,0-0.4770508-0.0390625-0.6791992-0.1181641c-0.2016602-0.0791016-0.3701172-0.1884766-0.5048828-0.3271484
				v-0.6552734h0.4907227l0.0673828,0.4462891c0.0639648,0.0517578,0.1503906,0.0947266,0.2597656,0.1279297
				c0.109375,0.0341797,0.2314453,0.0507813,0.3662109,0.0507813c0.1738281,0,0.3056641-0.0351563,0.3964844-0.1054688
				c0.090332-0.0703125,0.1357422-0.1650391,0.1357422-0.2822266c0-0.1210938-0.043457-0.2177734-0.1293945-0.2910156
				c-0.0864258-0.0732422-0.2373047-0.1416016-0.453125-0.2070313c-0.375-0.1074219-0.6586914-0.2353516-0.8515625-0.3828125
				c-0.1923828-0.1484375-0.2885742-0.3505859-0.2885742-0.6074219c0-0.2539063,0.1083984-0.4619141,0.3256836-0.6240234
				c0.2172852-0.1611328,0.4902344-0.2441406,0.8188477-0.2480469c0.2431641,0,0.4648438,0.0361328,0.6650391,0.109375
				c0.199707,0.0732422,0.3676758,0.1708984,0.5039063,0.2929688V81.0634766z"/>
			<path class="st3" d="M45.8828125,81.0634766h-0.4746094l-0.0839844-0.4306641
				c-0.0546875-0.0341797-0.1347656-0.0644531-0.2402344-0.0898438c-0.1054688-0.0263672-0.21875-0.0390625-0.3378906-0.0390625
				c-0.1738281,0-0.3066406,0.0361328-0.4023438,0.1083984c-0.0947266,0.0722656-0.1425781,0.1660156-0.1425781,0.28125
				c0,0.1064453,0.0507813,0.1933594,0.1494141,0.2617188s0.2705078,0.140625,0.5146484,0.2167969
				c0.3476563,0.0957031,0.6132813,0.2226563,0.7929688,0.3808594s0.2714844,0.3652344,0.2714844,0.6220703
				c0,0.2685547-0.1074219,0.4804688-0.3222656,0.6357422s-0.4960938,0.2324219-0.8476563,0.2324219
				c-0.25,0-0.4765625-0.0390625-0.6787109-0.1181641s-0.3706055-0.1884766-0.5053711-0.3271484v-0.6552734h0.4907227
				l0.0673828,0.4462891c0.0644531,0.0517578,0.1513672,0.0947266,0.2607422,0.1279297
				c0.109375,0.0341797,0.2304688,0.0507813,0.3652344,0.0507813c0.1738281,0,0.3066406-0.0351563,0.3964844-0.1054688
				s0.1367188-0.1650391,0.1367188-0.2822266c0-0.1210938-0.0429688-0.2177734-0.1308594-0.2910156
				c-0.0859375-0.0732422-0.2363281-0.1416016-0.4511719-0.2070313c-0.3759766-0.1074219-0.6601563-0.2353516-0.8530273-0.3828125
				c-0.1923828-0.1484375-0.2885742-0.3505859-0.2885742-0.6074219c0-0.2539063,0.1083984-0.4619141,0.3256836-0.6240234
				c0.2172852-0.1611328,0.4897461-0.2441406,0.8198242-0.2480469c0.2421875,0,0.4648438,0.0361328,0.6640625,0.109375
				s0.3671875,0.1708984,0.5039063,0.2929688V81.0634766z"/>
			<path class="st3" d="M46.1757813,80.4414063V80.0625h1.3105469v0.3789063l-0.3388672,0.0644531v2.2509766l0.3388672,0.0644531
				v0.3769531h-1.3105469v-0.3769531l0.3388672-0.0644531v-2.2509766L46.1757813,80.4414063z"/>
			<path class="st3" d="M47.6943359,82.8212891l0.2265625-0.0322266L48.8828125,80.0625h0.6494141l0.9560547,2.7265625
				l0.2255859,0.0322266v0.3769531h-1.0771484v-0.3769531l0.2197266-0.0390625l-0.1396484-0.4306641h-1.0253906
				l-0.1386719,0.4306641l0.2197266,0.0390625v0.3769531h-1.078125V82.8212891z M48.8417969,81.8886719h0.7255859
				l-0.3564453-1.1044922h-0.0126953L48.8417969,81.8886719z"/>
		</g>
		<ellipse class="st4" cx="28.0922089" cy="74.9196472" rx="1.5316002" ry="1.5185714"/>
		<rect x="16.7823105" y="60.4088974" class="st3" width="6.4364405" height="6.4364405"/>
		<g>
			<path class="st5" d="M20.0170898,61.3925781c0.5258789,0,0.9589844,0.1669922,1.2998047,0.5
				s0.5112305,0.7597656,0.5112305,1.28125v0.7060547c0,0.5234375-0.1704102,0.9501953-0.5112305,1.2822266
				c-0.3408203,0.3300781-0.7739258,0.4960938-1.2998047,0.4960938H18.081543v-0.5126953l0.4580078-0.0878906v-3.0615234
				l-0.4580078-0.0878906v-0.515625h0.4580078H20.0170898z M19.4023438,62.0517578v2.9501953h0.5703125
				c0.309082,0,0.5512695-0.1035156,0.7265625-0.3105469c0.1757813-0.2070313,0.2631836-0.4775391,0.2631836-0.8115234v-0.7119141
				c0-0.3300781-0.0874023-0.5986328-0.2631836-0.8056641c-0.175293-0.2070313-0.4174805-0.3105469-0.7265625-0.3105469H19.4023438z
				"/>
		</g>
		<line class="st6" x1="31.6250916" y1="78.8236237" x2="31.6250916" y2="60.4350204"/>
		<line class="st6" x1="53.4172287" y1="60.4350204" x2="53.4105301" y2="78.8236237"/>
		<line class="st6" x1="46.134697" y1="60.4397621" x2="46.134697" y2="78.7792892"/>
		<line class="st6" x1="38.8981552" y1="60.4238129" x2="38.8981552" y2="78.762291"/>
		<polyline class="st6" points="24.3885479,78.762291 24.3885479,60.4238129 24.3885479,60.4350204 60.6535873,60.4350204 
			60.6535873,60.4397621 60.6535873,78.7792892 60.6535873,78.8236237 24.3885479,78.8236237 		"/>
		<path class="st6" d="M45.590477,64.1339569"/>
		<path class="st2" d="M37.5611954,74.9196472c0,1.2273636-1.0018463,2.2224808-2.2397385,2.2224808
			s-2.2415428-0.9951172-2.2415428-2.2224808c0-1.227356,1.0036507-2.2224731,2.2415428-2.2224731
			S37.5611954,73.6922913,37.5611954,74.9196472z"/>
		<ellipse class="st4" cx="35.3205528" cy="74.9196472" rx="1.5316002" ry="1.5185714"/>
		<path class="st2" d="M44.7611961,74.9196472c0,1.2273636-1.0018463,2.2224808-2.2397385,2.2224808
			s-2.2415428-0.9951172-2.2415428-2.2224808c0-1.227356,1.0036507-2.2224731,2.2415428-2.2224731
			S44.7611961,73.6922913,44.7611961,74.9196472z"/>
		<ellipse class="st4" cx="42.5205536" cy="74.9196472" rx="1.5316002" ry="1.5185714"/>
		<path class="st2" d="M51.3486252,73.2907333c1.5395126,2.0229111-0.1709862,4.2713013-2.1831703,3.7839966
			c-0.7743721-0.1875305-1.4096413-0.8210754-1.5987854-1.5950546
			C47.0750771,73.4680405,49.3241386,71.7503281,51.3486252,73.2907333z"/>
		<ellipse class="st4" cx="49.7205544" cy="74.9196472" rx="1.5316002" ry="1.5185714"/>
		<path class="st2" d="M58.5486259,73.2907333c1.5395088,2.0229111-0.1709862,4.2713013-2.1831703,3.7839966
			c-0.7743721-0.1875305-1.4096413-0.8210754-1.5987854-1.5950546
			C54.275074,73.4680405,56.5241356,71.7503281,58.5486259,73.2907333z"/>
		<ellipse class="st4" cx="56.9205551" cy="74.9196472" rx="1.5316002" ry="1.5185714"/>
		<g>
			<path class="st3" d="M47.9189453,69.9638672c0-0.4677734,0.1425781-0.8447266,0.4287109-1.1289063
				c0.2851563-0.2851563,0.6542969-0.4267578,1.1064453-0.4267578h0.4863281c0.4541016,0,0.8232422,0.1416016,1.1074219,0.4267578
				c0.2841797,0.2841797,0.4257813,0.6611328,0.4257813,1.1289063v1.5019531h-0.3076172l-0.0683594-0.4013672h-2.7998047
				l-0.0683594,0.4013672h-0.3105469v-0.4013672V69.9638672z M48.2978516,70.5800781h2.7998047v-0.6162109
				c0-0.3310547-0.1083984-0.5927734-0.3251953-0.7841797c-0.2158203-0.1914063-0.4931641-0.2871094-0.8320313-0.2871094h-0.4902344
				c-0.3359375,0-0.6113281,0.0957031-0.828125,0.2871094s-0.3242188,0.453125-0.3242188,0.7841797V70.5800781z"/>
			<path class="st3" d="M49.7236328,64.7773438c0.5175781,0,0.9472656,0.1503906,1.2890625,0.4501953
				s0.5117188,0.6865234,0.5117188,1.1630859c0,0.4628906-0.1699219,0.8388672-0.5117188,1.1279297
				s-0.7714844,0.4335938-1.2890625,0.4335938H49.671875c-0.515625,0-0.9453125-0.1445313-1.2890625-0.4335938
				s-0.5146484-0.6650391-0.5146484-1.1279297c0-0.4765625,0.1708984-0.8632813,0.5146484-1.1630859
				s0.7734375-0.4501953,1.2890625-0.4501953H49.7236328z M49.6669922,65.2636719
				c-0.4130859,0-0.7509766,0.0996094-1.0117188,0.2988281c-0.2617188,0.1992188-0.3925781,0.4755859-0.3925781,0.828125
				c0,0.3378906,0.1318359,0.6015625,0.3935547,0.7919922c0.2617188,0.1894531,0.5986328,0.2841797,1.0107422,0.2841797h0.0566406
				c0.4160156,0,0.7548828-0.0947266,1.0166016-0.2841797c0.2607422-0.1904297,0.3916016-0.4541016,0.3916016-0.7919922
				c0-0.3574219-0.1298828-0.6347656-0.390625-0.8320313s-0.5996094-0.2949219-1.0175781-0.2949219H49.6669922z"/>
		</g>
		<g>
			<path class="st3" d="M41.0292969,70.3925781l0.0507813,0.3271484l2.3095703-0.8027344l0.2802734-0.0810547v-0.015625
				l-0.2802734-0.0800781l-2.3115234-0.8007813l-0.0488281,0.3222656H40.71875v-1.1298828h0.3105469l0.0390625,0.2880859
				l3.2050781,1.2011719v0.4160156l-3.2050781,1.2021484l-0.0390625,0.2861328H40.71875v-1.1328125H41.0292969z"/>
			<path class="st3" d="M41.8105469,65.0664063v0.3417969L41.3066406,65.5
				c-0.0761719,0.078125-0.1386719,0.1757813-0.1875,0.2900391s-0.0732422,0.2519531-0.0732422,0.4111328
				c0,0.3730469,0.1337891,0.6591797,0.4013672,0.859375s0.6074219,0.3007813,1.0195313,0.3007813h0.0566406
				c0.4111328,0,0.7519531-0.0976563,1.0214844-0.2949219c0.2695313-0.1953125,0.4042969-0.4677734,0.4042969-0.8164063
				c0-0.1621094-0.0253906-0.3095703-0.0761719-0.4433594C43.8222656,65.6738281,43.7607422,65.5722656,43.6875,65.5
				l-0.5029297-0.0917969v-0.3417969h0.6318359c0.1328125,0.1035156,0.25,0.2578125,0.3535156,0.4648438
				s0.1542969,0.4472656,0.1542969,0.71875c0,0.4667969-0.1699219,0.8496094-0.5117188,1.1484375
				s-0.7714844,0.4472656-1.2890625,0.4472656h-0.0517578c-0.5205078,0-0.9521484-0.1464844-1.2929688-0.4404297
				S40.6679688,66.7265625,40.6679688,66.25c0-0.2714844,0.0517578-0.5117188,0.1572266-0.71875
				c0.1044922-0.2070313,0.2226563-0.3613281,0.3525391-0.4648438H41.8105469z"/>
			<path class="st3" d="M41.8105469,61.8134766v0.3417969l-0.5039063,0.0908203
				c-0.0761719,0.0791016-0.1386719,0.1757813-0.1875,0.2910156s-0.0732422,0.2519531-0.0732422,0.4111328
				c0,0.3730469,0.1337891,0.6591797,0.4013672,0.859375s0.6074219,0.3007813,1.0195313,0.3007813h0.0566406
				c0.4111328,0,0.7519531-0.0986328,1.0214844-0.2939453c0.2695313-0.1972656,0.4042969-0.46875,0.4042969-0.8164063
				c0-0.1630859-0.0253906-0.3105469-0.0761719-0.4433594s-0.1123047-0.2363281-0.1855469-0.3085938l-0.5029297-0.0908203
				v-0.3417969h0.6318359c0.1328125,0.1025391,0.25,0.2587891,0.3535156,0.4658203
				c0.1035156,0.2060547,0.1542969,0.4453125,0.1542969,0.71875c0,0.4658203-0.1699219,0.8476563-0.5117188,1.1464844
				S43.0410156,64.59375,42.5234375,64.59375h-0.0517578c-0.5205078,0-0.9521484-0.1474609-1.2929688-0.4414063
				c-0.3408203-0.2929688-0.5107422-0.6787109-0.5107422-1.1542969c0-0.2734375,0.0517578-0.5126953,0.1572266-0.71875
				c0.1044922-0.2070313,0.2226563-0.3632813,0.3525391-0.4658203H41.8105469z"/>
		</g>
		<g>
			<path class="st3" d="M36.6713867,68.6113281c0.1083984,0.1054688,0.2119141,0.2607422,0.3085938,0.4658203
				c0.0966797,0.2060547,0.1445313,0.4716797,0.1445313,0.7998047c0,0.4804688-0.1660156,0.8710938-0.5,1.1738281
				s-0.7666016,0.4550781-1.2988281,0.4550781h-0.0585938c-0.5351563,0-0.96875-0.1503906-1.3007813-0.4501953
				s-0.4980469-0.6982422-0.4980469-1.1953125c0-0.2666016,0.0410156-0.4990234,0.1230469-0.7001953
				s0.1904297-0.3710938,0.3261719-0.5087891h0.6445313v0.3398438l-0.4912109,0.1181641
				c-0.0654297,0.0800781-0.1191406,0.1777344-0.1611328,0.2910156c-0.0419922,0.1152344-0.0634766,0.2519531-0.0634766,0.4101563
				c0,0.3886719,0.1318359,0.6865234,0.3945313,0.8955078c0.2626953,0.2099609,0.6035156,0.3134766,1.0214844,0.3134766h0.0634766
				c0.4248047,0,0.7685547-0.1005859,1.0302734-0.3037109c0.2617188-0.2021484,0.3935547-0.4814453,0.3935547-0.8388672
				c0-0.1953125-0.0205078-0.3554688-0.0615234-0.4794922c-0.0410156-0.125-0.0849609-0.2255859-0.1337891-0.2998047h-0.7792969
				l-0.0244141,0.5878906h-0.3544922v-1.0742188H36.6713867z"/>
			<path class="st3" d="M33.519043,64.5390625h0.3105469l0.0683594,0.4023438h3.1757813v0.484375l-2.7441406,1.7236328
				l0.0048828,0.0146484h2.3632813l0.0683594-0.4003906h0.3076172v1.2871094h-0.3076172l-0.0683594-0.4013672h-2.7998047
				l-0.0683594,0.4013672H33.519043v-0.4013672v-0.4853516l2.7421875-1.7236328l-0.0058594-0.0146484h-2.3574219
				l-0.0683594,0.4013672H33.519043v-0.8857422V64.5390625z"/>
			<path class="st3" d="M33.519043,62.7070313c0-0.4667969,0.1425781-0.84375,0.4287109-1.1289063
				c0.2851563-0.2851563,0.6542969-0.4277344,1.1064453-0.4277344h0.4863281c0.4541016,0,0.8232422,0.1425781,1.1074219,0.4277344
				s0.4257813,0.6621094,0.4257813,1.1289063v1.5019531h-0.3076172l-0.0683594-0.4003906h-2.7998047l-0.0683594,0.4003906H33.519043
				v-0.4003906V62.7070313z M33.8979492,63.3232422h2.7998047v-0.6162109c0-0.3310547-0.1083984-0.5927734-0.3251953-0.7832031
				c-0.2158203-0.1914063-0.4931641-0.2871094-0.8320313-0.2871094H35.050293c-0.3359375,0-0.6113281,0.0957031-0.828125,0.2871094
				c-0.2167969,0.1904297-0.3242188,0.4521484-0.3242188,0.7832031V63.3232422z"/>
		</g>
		<g>
			<path class="st3" d="M27.3823242,68.6855469v0.3417969l-0.5039063,0.0917969
				c-0.0761719,0.078125-0.1386719,0.1757813-0.1875,0.2910156c-0.0488281,0.1142578-0.0732422,0.2519531-0.0732422,0.4101563
				c0,0.3730469,0.1337891,0.6601563,0.4013672,0.859375c0.2675781,0.2011719,0.6074219,0.3007813,1.0195313,0.3007813h0.0566406
				c0.4111328,0,0.7519531-0.0976563,1.0214844-0.2939453s0.4042969-0.4677734,0.4042969-0.8164063
				c0-0.1630859-0.0253906-0.3095703-0.0761719-0.4433594c-0.0507813-0.1328125-0.1123047-0.2353516-0.1855469-0.3076172
				l-0.5029297-0.0917969v-0.3417969h0.6318359c0.1328125,0.1035156,0.25,0.2587891,0.3535156,0.4658203
				c0.1035156,0.2060547,0.1542969,0.4462891,0.1542969,0.71875c0,0.4658203-0.1699219,0.8486328-0.5117188,1.1474609
				s-0.7714844,0.4482422-1.2890625,0.4482422H28.043457c-0.5205078,0-0.9521484-0.1474609-1.2929688-0.4404297
				c-0.3408203-0.2939453-0.5107422-0.6796875-0.5107422-1.1552734c0-0.2724609,0.0517578-0.5126953,0.1572266-0.71875
				c0.1044922-0.2070313,0.2226563-0.3623047,0.3525391-0.4658203H27.3823242z"/>
			<path class="st3" d="M27.340332,65.6171875v0.3671875l-0.5078125,0.0917969
				c-0.0615234,0.0732422-0.1132813,0.171875-0.1533203,0.2949219c-0.0410156,0.1230469-0.0615234,0.265625-0.0615234,0.4277344
				c0,0.2578125,0.0537109,0.4560547,0.1621094,0.59375c0.1083984,0.1386719,0.25,0.2070313,0.4238281,0.2070313
				c0.1542969,0,0.2832031-0.0703125,0.3867188-0.2109375c0.1035156-0.1396484,0.1943359-0.3671875,0.2724609-0.6796875
				c0.0927734-0.3779297,0.2294922-0.6650391,0.4101563-0.8613281c0.1806641-0.1953125,0.4042969-0.2939453,0.671875-0.2939453
				c0.2861328,0,0.5166016,0.1181641,0.6904297,0.3525391c0.1738281,0.2363281,0.2607422,0.5449219,0.2607422,0.9257813
				c0,0.2753906-0.0439453,0.5195313-0.1337891,0.734375s-0.2070313,0.3886719-0.3515625,0.5234375h-0.6611328v-0.3652344
				l0.5097656-0.0927734c0.0761719-0.09375,0.1386719-0.2050781,0.1875-0.3349609s0.0742188-0.2851563,0.0742188-0.4648438
				c0-0.2451172-0.0517578-0.4384766-0.1542969-0.5800781c-0.1025391-0.1425781-0.2421875-0.2128906-0.4179688-0.2128906
				c-0.1621094,0-0.2988281,0.0605469-0.4082031,0.1835938c-0.1103516,0.1230469-0.2021484,0.3417969-0.2773438,0.6533203
				c-0.0898438,0.3789063-0.2216797,0.6748047-0.3955078,0.8886719s-0.3935547,0.3203125-0.6572266,0.3203125
				c-0.2773438,0-0.5097656-0.1191406-0.6943359-0.3564453c-0.1845703-0.2382813-0.2763672-0.5488281-0.2763672-0.9296875
				c0-0.25,0.0419922-0.4785156,0.1279297-0.6855469c0.0849609-0.2050781,0.1884766-0.3710938,0.3115234-0.4960938H27.340332z"/>
		</g>
		<g>
			<path class="st3" d="M56.1689453,68.8710938v0.3662109l-0.5078125,0.0908203
				c-0.0615234,0.0742188-0.1132813,0.1728516-0.1533203,0.2958984c-0.0410156,0.1230469-0.0615234,0.265625-0.0615234,0.4287109
				c0,0.2578125,0.0537109,0.4550781,0.1621094,0.59375c0.1083984,0.1367188,0.25,0.2060547,0.4238281,0.2060547
				c0.1542969,0,0.2832031-0.0693359,0.3867188-0.2099609s0.1943359-0.3671875,0.2724609-0.6816406
				c0.0927734-0.3769531,0.2294922-0.6640625,0.4101563-0.8603516s0.4042969-0.2939453,0.671875-0.2939453
				c0.2861328,0,0.5166016,0.1171875,0.6904297,0.3535156c0.1738281,0.2353516,0.2607422,0.5429688,0.2607422,0.9238281
				c0,0.2763672-0.0439453,0.5214844-0.1337891,0.7353516s-0.2070313,0.3886719-0.3515625,0.5234375H57.578125v-0.3642578
				l0.5097656-0.09375c0.0761719-0.09375,0.1386719-0.2050781,0.1875-0.3349609s0.0742188-0.2841797,0.0742188-0.4658203
				c0-0.2441406-0.0517578-0.4375-0.1542969-0.5800781c-0.1025391-0.140625-0.2421875-0.2128906-0.4179688-0.2128906
				c-0.1621094,0-0.2988281,0.0625-0.4082031,0.1855469c-0.1103516,0.1230469-0.2021484,0.3398438-0.2773438,0.6523438
				c-0.0898438,0.3789063-0.2216797,0.6757813-0.3955078,0.8886719s-0.3935547,0.3203125-0.6572266,0.3203125
				c-0.2773438,0-0.5097656-0.1191406-0.6943359-0.3574219s-0.2763672-0.546875-0.2763672-0.9277344
				c0-0.2519531,0.0419922-0.4804688,0.1279297-0.6855469c0.0849609-0.2070313,0.1884766-0.3720703,0.3115234-0.4960938H56.1689453z
				"/>
			<path class="st3" d="M56.2109375,65.6152344v0.3417969l-0.5039063,0.0917969
				c-0.0761719,0.078125-0.1386719,0.1757813-0.1875,0.2910156c-0.0488281,0.1142578-0.0732422,0.2519531-0.0732422,0.4101563
				c0,0.3730469,0.1337891,0.6601563,0.4013672,0.859375c0.2675781,0.2011719,0.6074219,0.3007813,1.0195313,0.3007813h0.0566406
				c0.4111328,0,0.7519531-0.0976563,1.0214844-0.2939453s0.4042969-0.4677734,0.4042969-0.8164063
				c0-0.1630859-0.0253906-0.3095703-0.0761719-0.4433594c-0.0507813-0.1328125-0.1123047-0.2353516-0.1855469-0.3076172
				l-0.5029297-0.0917969v-0.3417969h0.6318359c0.1328125,0.1035156,0.25,0.2587891,0.3535156,0.4658203
				c0.1035156,0.2060547,0.1542969,0.4462891,0.1542969,0.71875c0,0.4658203-0.1699219,0.8486328-0.5117188,1.1474609
				s-0.7714844,0.4482422-1.2890625,0.4482422h-0.0517578c-0.5205078,0-0.9521484-0.1474609-1.2929688-0.4404297
				c-0.3408203-0.2939453-0.5107422-0.6796875-0.5107422-1.1552734c0-0.2724609,0.0517578-0.5126953,0.1572266-0.71875
				c0.1044922-0.2070313,0.2226563-0.3623047,0.3525391-0.4658203H56.2109375z"/>
			<path class="st3" d="M58.3662109,65.1425781l-0.0683594-0.4013672h-2.7998047l-0.0683594,0.4013672h-0.3105469v-1.2871094
				h0.3105469l0.0683594,0.4003906h1.1933594v-0.3710938l-1.2285156-1.0019531l-0.0332031,0.2675781h-0.3105469v-1.1376953
				h0.3105469l0.0605469,0.3369141l1.3476563,1.0957031L58.3046875,62.25l0.0615234-0.3378906h0.3076172v1.1767578h-0.3076172
				l-0.0341797-0.2734375l-1.2617188,1.0224609v0.4179688h1.2275391l0.0683594-0.4003906h0.3076172v1.2871094H58.3662109z"/>
		</g>
	</g>
</g>
<g>
	<path class="st3" d="M27.4086914,51.1855469l0.3525391-0.0507813l1.5024414-4.2568359h1.0141602l1.4921875,4.2568359
		l0.3525391,0.0507813v0.5878906h-1.6821289v-0.5878906L30.7832031,51.125l-0.2172852-0.6728516H28.965332L28.7480469,51.125
		l0.3427734,0.0605469v0.5878906h-1.6821289V51.1855469z M29.1992188,49.7294922h1.1328125l-0.5561523-1.7255859h-0.0205078
		L29.1992188,49.7294922z"/>
	<path class="st3" d="M32.7431641,51.0136719c0.2260742-0.2333984,0.3789063-0.4619141,0.4580078-0.6875
		s0.1230469-0.546875,0.1323242-0.9638672l0.0068359-0.5341797l-0.519043-0.1005859v-0.5917969h3.2353516h0.5292969v0.5917969
		l-0.5292969,0.1005859v2.1923828h0.5322266l-0.0673828,1.8427734h-0.9228516v-1.0898438h-2.1635742v1.0898438h-0.9257813
		l-0.0849609-1.8496094H32.7431641z M34.3237305,49.3623047c-0.0180664,0.3613281-0.065918,0.6777344-0.1425781,0.9501953
		s-0.1787109,0.5078125-0.3051758,0.7050781h1.1972656v-2.0986328h-0.7460938L34.3237305,49.3623047z"/>
	<path class="st3" d="M39.3798828,51.7734375c-0.0273438-0.0605469-0.0507813-0.1220703-0.0712891-0.1865234
		c-0.0200195-0.0634766-0.0361328-0.1279297-0.0473633-0.1933594c-0.1176758,0.1347656-0.2607422,0.2431641-0.4291992,0.3261719
		s-0.3608398,0.125-0.578125,0.125c-0.359375,0-0.6450195-0.0976563-0.8564453-0.2910156
		c-0.2114258-0.1943359-0.3168945-0.4580078-0.3168945-0.7919922c0-0.3408203,0.1376953-0.6044922,0.4135742-0.7900391
		c0.2758789-0.1865234,0.6806641-0.2792969,1.2143555-0.2792969h0.5053711v-0.3564453
		c0-0.1748047-0.0507813-0.3105469-0.152832-0.4072266c-0.1015625-0.0957031-0.2519531-0.1445313-0.4511719-0.1445313
		c-0.112793,0-0.2133789,0.0126953-0.3017578,0.0390625c-0.0878906,0.0253906-0.1591797,0.0566406-0.2133789,0.0927734
		l-0.0644531,0.3896484h-0.7460938l0.003418-0.8066406c0.1806641-0.1210938,0.3881836-0.2236328,0.6220703-0.3066406
		s0.4887695-0.1240234,0.7646484-0.1240234c0.4545898,0,0.8237305,0.1103516,1.1074219,0.3310547
		s0.4257813,0.5351563,0.4257813,0.9433594v1.5029297c0,0.0556641,0.0004883,0.1083984,0.0014648,0.1582031
		c0.0014648,0.0488281,0.0053711,0.0957031,0.012207,0.140625l0.3017578,0.0410156v0.5878906H39.3798828z M38.5219727,51.1181641
		c0.1489258,0,0.284668-0.0322266,0.4067383-0.0957031c0.1220703-0.0644531,0.2172852-0.1445313,0.2851563-0.2412109v-0.5546875
		h-0.5053711c-0.2104492,0-0.3696289,0.0488281-0.4780273,0.1464844c-0.1088867,0.0976563-0.1630859,0.2148438-0.1630859,0.3515625
		c0,0.1230469,0.0400391,0.2197266,0.1206055,0.2890625C38.2680664,51.0830078,38.3793945,51.1181641,38.5219727,51.1181641z"/>
	<path class="st3" d="M40.9331055,51.1855469l0.5292969-0.1015625V48.828125l-0.5292969-0.1005859v-0.5917969h4.2504883v0.5917969
		l-0.5263672,0.1005859v2.2558594l0.5263672,0.1015625v0.5878906h-1.9438477v-0.5878906l0.4267578-0.1015625v-2.1884766H42.449707
		v2.1884766l0.4267578,0.1015625v0.5878906h-1.9433594V51.1855469z"/>
	<path class="st3" d="M49.4697266,48.1357422v1.2402344h-0.7597656l-0.0400391-0.4902344h-0.6279297v2.1982422l0.5253906,0.1015625
		v0.5878906h-2.0449219v-0.5878906l0.5263672-0.1015625v-2.1982422h-0.6142578l-0.0371094,0.4902344h-0.7597656v-1.2402344
		H49.4697266z"/>
	<path class="st3" d="M51.6376953,51.8447266c-0.5292969,0-0.9521484-0.1689453-1.2685547-0.5048828
		s-0.4746094-0.7636719-0.4746094-1.28125v-0.1347656c0-0.5400391,0.1494141-0.984375,0.4492188-1.3339844
		c0.2998047-0.3505859,0.7011719-0.5234375,1.2050781-0.5214844c0.4951172,0,0.8798828,0.1474609,1.1533203,0.4433594
		s0.4101563,0.6962891,0.4101563,1.2011719v0.5341797H50.921875l-0.0068359,0.0205078
		c0.0175781,0.2392578,0.0986328,0.4365234,0.2421875,0.5917969c0.1435547,0.1542969,0.3388672,0.2314453,0.5849609,0.2314453
		c0.2197266,0,0.4013672-0.0214844,0.5458984-0.0654297c0.1455078-0.0439453,0.3037109-0.1123047,0.4755859-0.2070313
		l0.2675781,0.6054688c-0.1513672,0.1191406-0.3476563,0.21875-0.5888672,0.2998047
		C52.2021484,51.8037109,51.9335938,51.8447266,51.6376953,51.8447266z M51.5488281,48.8251953
		c-0.1826172,0-0.3271484,0.0693359-0.4335938,0.2080078s-0.171875,0.3212891-0.1972656,0.5478516l0.0107422,0.0166016h1.2138672
		v-0.0869141c0-0.2089844-0.0488281-0.375-0.1474609-0.4990234C51.8964844,48.8867188,51.7480469,48.8251953,51.5488281,48.8251953z
		"/>
	<path class="st3" d="M53.5048828,48.7275391v-0.5917969h1.4384766l0.046875,0.4238281
		c0.109375-0.1572266,0.2392578-0.2783203,0.390625-0.3632813c0.1513672-0.0859375,0.3271484-0.1279297,0.5292969-0.1279297
		c0.4541016,0,0.8066406,0.1757813,1.0576172,0.5273438c0.2509766,0.3525391,0.3769531,0.8154297,0.3769531,1.3886719v0.0712891
		c0,0.5380859-0.1259766,0.9707031-0.3769531,1.2978516s-0.6015625,0.4912109-1.0507813,0.4912109
		c-0.1923828,0-0.3632813-0.0361328-0.5126953-0.1064453s-0.2763672-0.1738281-0.3828125-0.3105469v1.0517578l0.4775391,0.1015625
		v0.5917969h-1.9433594v-0.5917969l0.4785156-0.1015625V48.828125L53.5048828,48.7275391z M56.3544922,49.984375
		c0-0.3427734-0.0585938-0.6201172-0.1738281-0.8330078c-0.1152344-0.2138672-0.2910156-0.3203125-0.5283203-0.3203125
		c-0.1494141,0-0.2763672,0.0302734-0.3818359,0.0908203s-0.1884766,0.1474609-0.2490234,0.2597656v1.59375
		c0.0605469,0.1025391,0.1435547,0.1816406,0.2490234,0.2353516s0.234375,0.0800781,0.3886719,0.0800781
		c0.2392578,0,0.4150391-0.0927734,0.5273438-0.2792969c0.1113281-0.1855469,0.1679688-0.4375,0.1679688-0.7558594V49.984375z"/>
	<path class="st3" d="M25.9331055,54.1357422v1.2402344h-0.7592773l-0.0410156-0.4902344h-0.6274414v2.1982422l0.5258789,0.1015625
		v0.5878906h-2.0449219v-0.5878906l0.5253906-0.1015625v-2.1982422h-0.6137695l-0.0371094,0.4902344h-0.7597656v-1.2402344
		H25.9331055z"/>
	<path class="st3" d="M28.1000977,57.8447266c-0.5288086,0-0.9516602-0.1689453-1.2680664-0.5048828
		c-0.3168945-0.3359375-0.4750977-0.7636719-0.4750977-1.28125v-0.1347656c0-0.5400391,0.1499023-0.984375,0.449707-1.3339844
		c0.2993164-0.3505859,0.7011719-0.5234375,1.2055664-0.5214844c0.4951172,0,0.8793945,0.1474609,1.152832,0.4433594
		s0.4106445,0.6962891,0.4106445,1.2011719v0.5341797h-2.190918l-0.0068359,0.0205078
		c0.0180664,0.2392578,0.0986328,0.4365234,0.2426758,0.5917969c0.1435547,0.1542969,0.3383789,0.2314453,0.5849609,0.2314453
		c0.2192383,0,0.4013672-0.0214844,0.5458984-0.0654297s0.3027344-0.1123047,0.4746094-0.2070313l0.2680664,0.6054688
		c-0.1513672,0.1191406-0.3476563,0.21875-0.5883789,0.2998047C28.6650391,57.8037109,28.3964844,57.8447266,28.1000977,57.8447266z
		 M28.012207,54.8251953c-0.1831055,0-0.328125,0.0693359-0.434082,0.2080078
		c-0.1064453,0.1386719-0.171875,0.3212891-0.1967773,0.5478516l0.0102539,0.0166016h1.2138672v-0.0869141
		c0-0.2089844-0.0488281-0.375-0.1474609-0.4990234C28.3598633,54.8867188,28.2109375,54.8251953,28.012207,54.8251953z"/>
	<path class="st3" d="M29.9692383,54.7275391v-0.5917969h1.4379883l0.0473633,0.4238281
		c0.1083984-0.1572266,0.2382813-0.2783203,0.3901367-0.3632813c0.1513672-0.0859375,0.3276367-0.1279297,0.5288086-0.1279297
		c0.4545898,0,0.8071289,0.1757813,1.0581055,0.5273438c0.2509766,0.3525391,0.3764648,0.8154297,0.3764648,1.3886719v0.0712891
		c0,0.5380859-0.1254883,0.9707031-0.3764648,1.2978516s-0.6015625,0.4912109-1.0512695,0.4912109
		c-0.1923828,0-0.362793-0.0361328-0.512207-0.1064453c-0.1489258-0.0703125-0.2768555-0.1738281-0.3833008-0.3105469v1.0517578
		l0.4785156,0.1015625v0.5917969h-1.9433594v-0.5917969l0.4780273-0.1015625V54.828125L29.9692383,54.7275391z
		 M32.8178711,55.984375c0-0.3427734-0.0576172-0.6201172-0.1728516-0.8330078
		c-0.1152344-0.2138672-0.2919922-0.3203125-0.5292969-0.3203125c-0.1489258,0-0.2763672,0.0302734-0.3813477,0.0908203
		s-0.1884766,0.1474609-0.2495117,0.2597656v1.59375c0.0610352,0.1025391,0.1445313,0.1816406,0.2495117,0.2353516
		s0.234375,0.0800781,0.3881836,0.0800781c0.2397461,0,0.4155273-0.0927734,0.5273438-0.2792969
		c0.1118164-0.1855469,0.1679688-0.4375,0.1679688-0.7558594V55.984375z"/>
	<path class="st3" d="M37.0332031,56.6308594h0.0205078l0.9423828-2.4951172h1.2412109h0.5258789v0.5917969l-0.5258789,0.1005859
		v2.2558594l0.5258789,0.1015625v0.5878906h-1.8891602v-0.5878906l0.3730469-0.1015625v-1.4755859l-0.0200195-0.0039063
		l-0.8515625,2.1689453h-0.6645508l-0.8310547-2.1279297l-0.0200195,0.0029297v1.4355469l0.3764648,0.1015625v0.5878906H34.34375
		v-0.5878906l0.5292969-0.1015625V54.828125L34.34375,54.7275391v-0.5917969h0.5292969h1.2241211L37.0332031,56.6308594z"/>
	<path class="st3" d="M40.2314453,55.9208984c0-0.5419922,0.152832-0.9873047,0.4594727-1.3330078
		c0.3061523-0.3466797,0.7294922-0.5195313,1.2695313-0.5195313c0.5429688,0,0.9667969,0.1728516,1.2734375,0.5175781
		c0.3066406,0.3457031,0.4589844,0.7900391,0.4589844,1.3349609v0.0703125c0,0.546875-0.1523438,0.9931641-0.4589844,1.3369141
		s-0.7285156,0.5166016-1.265625,0.5166016c-0.5449219,0-0.9711914-0.1728516-1.2773438-0.5166016
		c-0.3066406-0.34375-0.4594727-0.7900391-0.4594727-1.3369141V55.9208984z M41.222168,55.9912109
		c0,0.3320313,0.0585938,0.5986328,0.1757813,0.7988281c0.1171875,0.2011719,0.3066406,0.3007813,0.5703125,0.3007813
		c0.2539063,0,0.4414063-0.1005859,0.5605469-0.3027344c0.1191406-0.2011719,0.1777344-0.4667969,0.1777344-0.796875v-0.0703125
		c0-0.3232422-0.0585938-0.5859375-0.1796875-0.7900391c-0.1191406-0.2041016-0.3085938-0.3056641-0.5664063-0.3056641
		s-0.4453125,0.1015625-0.5625,0.3056641s-0.1757813,0.4667969-0.1757813,0.7900391V55.9912109z"/>
	<path class="st3" d="M44.1992188,57.1855469l0.5292969-0.1015625V54.828125l-0.5292969-0.1005859v-0.5917969h4.25v0.5917969
		l-0.5263672,0.1005859v2.2558594l0.5263672,0.1015625v0.5878906h-1.9433594v-0.5878906l0.4267578-0.1015625v-2.1884766h-1.2167969
		v2.1884766l0.4267578,0.1015625v0.5878906h-1.9433594V57.1855469z"/>
	<path class="st3" d="M51.2675781,57.7734375c-0.0273438-0.0605469-0.0517578-0.1220703-0.0712891-0.1865234
		c-0.0205078-0.0634766-0.0361328-0.1279297-0.0478516-0.1933594c-0.1171875,0.1347656-0.2607422,0.2431641-0.4287109,0.3261719
		c-0.1689453,0.0830078-0.3613281,0.125-0.578125,0.125c-0.3603516,0-0.6455078-0.0976563-0.8564453-0.2910156
		c-0.2119141-0.1943359-0.3173828-0.4580078-0.3173828-0.7919922c0-0.3408203,0.1376953-0.6044922,0.4140625-0.7900391
		c0.2753906-0.1865234,0.6796875-0.2792969,1.2138672-0.2792969h0.5048828v-0.3564453
		c0-0.1748047-0.0507813-0.3105469-0.1523438-0.4072266c-0.1015625-0.0957031-0.2519531-0.1445313-0.4511719-0.1445313
		c-0.1132813,0-0.2138672,0.0126953-0.3017578,0.0390625c-0.0878906,0.0253906-0.1591797,0.0566406-0.2138672,0.0927734
		l-0.0644531,0.3896484h-0.7460938l0.0039063-0.8066406c0.1806641-0.1210938,0.3876953-0.2236328,0.6220703-0.3066406
		s0.4892578-0.1240234,0.7646484-0.1240234c0.4550781,0,0.8232422,0.1103516,1.1074219,0.3310547
		s0.4257813,0.5351563,0.4257813,0.9433594v1.5029297c0,0.0556641,0,0.1083984,0.0019531,0.1582031
		c0.0009766,0.0488281,0.0048828,0.0957031,0.0117188,0.140625l0.3017578,0.0410156v0.5878906H51.2675781z M50.4091797,57.1181641
		c0.1494141,0,0.2851563-0.0322266,0.4072266-0.0957031c0.1220703-0.0644531,0.2167969-0.1445313,0.2841797-0.2412109v-0.5546875
		h-0.5048828c-0.2099609,0-0.3701172,0.0488281-0.4785156,0.1464844s-0.1621094,0.2148438-0.1621094,0.3515625
		c0,0.1230469,0.0400391,0.2197266,0.1201172,0.2890625S50.2666016,57.1181641,50.4091797,57.1181641z"/>
	<path class="st3" d="M52.6708984,54.7275391v-0.5917969h1.4384766l0.046875,0.4238281
		c0.109375-0.1572266,0.2392578-0.2783203,0.390625-0.3632813c0.1513672-0.0859375,0.3271484-0.1279297,0.5292969-0.1279297
		c0.4541016,0,0.8066406,0.1757813,1.0576172,0.5273438c0.2509766,0.3525391,0.3769531,0.8154297,0.3769531,1.3886719v0.0712891
		c0,0.5380859-0.1259766,0.9707031-0.3769531,1.2978516s-0.6015625,0.4912109-1.0507813,0.4912109
		c-0.1923828,0-0.3632813-0.0361328-0.5126953-0.1064453s-0.2763672-0.1738281-0.3828125-0.3105469v1.0517578l0.4775391,0.1015625
		v0.5917969h-1.9433594v-0.5917969l0.4785156-0.1015625V54.828125L52.6708984,54.7275391z M55.5205078,55.984375
		c0-0.3427734-0.0585938-0.6201172-0.1738281-0.8330078c-0.1152344-0.2138672-0.2910156-0.3203125-0.5283203-0.3203125
		c-0.1494141,0-0.2763672,0.0302734-0.3818359,0.0908203s-0.1884766,0.1474609-0.2490234,0.2597656v1.59375
		c0.0605469,0.1025391,0.1435547,0.1816406,0.2490234,0.2353516s0.234375,0.0800781,0.3886719,0.0800781
		c0.2392578,0,0.4150391-0.0927734,0.5273438-0.2792969c0.1113281-0.1855469,0.1679688-0.4375,0.1679688-0.7558594V55.984375z"/>
	<path class="st3" d="M58.5654297,54.1357422v1.1728516h0.6884766c0.4970703,0,0.8867188,0.1103516,1.1679688,0.3320313
		c0.28125,0.2207031,0.4228516,0.5146484,0.4228516,0.8818359c0,0.3769531-0.1416016,0.6796875-0.4248047,0.9082031
		c-0.2822266,0.2285156-0.6708984,0.3427734-1.1660156,0.3427734h-2.2080078v-0.5878906l0.5292969-0.1015625V54.828125
		l-0.5292969-0.1005859v-0.5917969h0.5292969H58.5654297z M59.0947266,54.1357422v0.5917969l-0.5292969,0.1005859v-0.6923828
		H59.0947266z M58.5654297,56.0185547v1.0048828h0.6884766c0.203125,0,0.3544922-0.0449219,0.4541016-0.1357422
		s0.1494141-0.2099609,0.1494141-0.3583984c0-0.1523438-0.0488281-0.2753906-0.1474609-0.3701172
		c-0.0986328-0.09375-0.2509766-0.140625-0.4560547-0.140625H58.5654297z M60.8544922,54.7275391v-0.5917969h1.5195313v2.9482422
		l0.4746094,0.1015625v0.5878906h-1.9433594v-0.5878906l0.4785156-0.1015625V54.828125L60.8544922,54.7275391z"/>
</g>
<g>
	<path class="st3" d="M23.7070313,2.9570313v1.3261719h-0.7724609l-0.0410156-0.5571289h-0.9238281v3.5068359l0.5380859,0.1025391
		v0.5981445H20.425293V7.3354492l0.5380859-0.1025391V3.7260742h-0.9204102l-0.0415039,0.5571289h-0.769043V2.9570313H23.7070313z"
		/>
	<path class="st3" d="M26.2373047,6.1904297h-1.9443359v-0.769043h1.9443359V6.1904297z"/>
</g>
<g>
	<path class="st3" d="M63.2675781,2.9570313v1.3261719h-0.7734375L62.453125,3.7260742h-0.9238281v3.5068359l0.5390625,0.1025391
		v0.5981445h-2.0830078V7.3354492l0.5380859-0.1025391V3.7260742h-0.9208984l-0.0410156,0.5571289h-0.7695313V2.9570313H63.2675781z
		"/>
	<path class="st3" d="M65.7734375,5.1582031h1.2373047v0.8613281h-1.2373047v1.4150391h-0.9550781V6.0195313h-1.2480469V5.1582031
		h1.2480469V3.8115234h0.9550781V5.1582031z"/>
</g>
<g>
	<g id="XMLID_17_">
		<g>
			<rect x="29.4806461" y="39.0164337" class="st7" width="4.255477" height="3.4376609"/>
		</g>
		<g>
		</g>
	</g>
	<g id="XMLID_16_">
		<g>
			<rect x="29.4805012" y="31.8879776" class="st7" width="4.255477" height="3.4376609"/>
		</g>
		<g>
		</g>
	</g>
	<g id="XMLID_7_">
		<g>
			<rect x="29.4806156" y="34.0659142" class="st8" width="4.2568154" height="6.1479878"/>
		</g>
		<g>
		</g>
	</g>
</g>
<g>
	<rect x="28.87323" y="0.000304" class="st9" width="28.0473232" height="22.9606304"/>
	<circle class="st10" cx="49.7205544" cy="11.4806185" r="5.2440944"/>
	<linearGradient id="SVGID_1_" gradientUnits="userSpaceOnUse" x1="42.9003181" y1="22.9609337" x2="42.9003181" y2="20.6681194">
		<stop  offset="0" style="stop-color:#FFFFFF;stop-opacity:0.5"/>
		<stop  offset="1" style="stop-color:#000000;stop-opacity:0.5"/>
	</linearGradient>
	<rect x="28.9300442" y="20.6681194" class="st11" width="27.9405441" height="2.292815"/>
	<rect x="28.87323" y="0.000304" class="st12" width="28.0473232" height="1.855315"/>
	
		<linearGradient id="SVGID_2_" gradientUnits="userSpaceOnUse" x1="-21.5394344" y1="-98.6878052" x2="-21.5394344" y2="-100.9806213" gradientTransform="matrix(-1 0 0 -1 21.3858662 -96.8321838)">
		<stop  offset="0" style="stop-color:#FFFFFF;stop-opacity:0.5"/>
		<stop  offset="1" style="stop-color:#000000;stop-opacity:0.5"/>
	</linearGradient>
	<polygon class="st13" points="28.9300442,1.855619 56.9205551,1.855619 56.9205551,4.1484337 28.9300442,4.1484337 	"/>
	<g id="XMLID_8_">
		<g>
			<path class="st14" d="M39.7646866,8.1313c0.1338196,0.1516323,0.256279,0.3225241,0.3703384,0.498847
				c0.1194954,0.1847191,0.2251625,0.3664742,0.3140335,0.5590916l-0.0083961,0.0054312l-8.7237892,5.6433678
				c-0.147646-0.1545963-0.2701054-0.3254881-0.3895988-0.5102072c-0.1140633-0.1763229-0.2197285-0.358078-0.3031712-0.5422993
				l0.0083981-0.0054312L39.7646866,8.1313z"/>
			<path class="st10" d="M39.7646866,8.1313l-8.7321854,5.6487999l-0.0083981,0.0054312
				c-1.165741-2.3543882-0.3934937-5.2478523,1.8567219-6.703505C35.1394386,5.6209426,38.0951653,6.1028037,39.7646866,8.1313z"/>
			<path class="st10" d="M31.7168732,14.8380375l8.7237892-5.6433678c1.1603127,2.345993,0.3880653,5.2394571-1.8621521,6.6951094
				C36.336689,17.3400002,33.3809624,16.8581371,31.7168732,14.8380375z"/>
		</g>
		<g>
		</g>
	</g>
	<g id="XMLID_9_">
		<g>
			<path class="st14" d="M51.3587914,16.4701881c-0.2004356,0.0694733-0.4046783,0.1193142-0.6108284,0.159338
				c-0.2061539,0.0400238-0.4142075,0.0702305-0.6260757,0.0808048L48.1397438,6.5009675l-0.0019073-0.0098166
				c0.2004356-0.0694742,0.4046783-0.1193147,0.6108284-0.159339c0.2061501-0.0400238,0.4142075-0.0702314,0.6260757-0.0808053
				l0.0019073,0.0098166L51.3587914,16.4701881z"/>
			<path class="st10" d="M51.3587914,16.4701881L49.3766479,6.2608232l-0.0019073-0.0098166
				c2.6114235-0.1912179,5.0057869,1.5951848,5.5184746,4.2358766
				C55.4039993,13.1177568,53.852047,15.6703339,51.3587914,16.4701881z"/>
			<path class="st10" d="M48.1397438,6.5009675l1.9821434,10.2093639c-2.6114273,0.1912193-5.0057869-1.5951843-5.516571-4.226059
				c-0.5126877-2.6406908,1.0392647-5.1932678,3.5325203-5.9931211L48.1397438,6.5009675z"/>
		</g>
		<g>
		</g>
	</g>
</g>
<g>
	<g id="XMLID_11_">
		<g>
			<rect x="54.8199921" y="41.3972321" class="st1" width="5.0668936" height="1.765116"/>
		</g>
		<g>
		</g>
	</g>
	<g id="XMLID_10_">
		<g>
			<rect x="54.8199921" y="37.7580185" class="st1" width="5.0668936" height="1.7633294"/>
		</g>
		<g>
		</g>
	</g>
	<g id="XMLID_5_">
		<g>
			<rect x="54.8199921" y="34.1188087" class="st1" width="5.0668936" height="1.7633294"/>
		</g>
		<g>
		</g>
	</g>
	<g id="XMLID_4_">
		<g>
			<rect x="54.8199921" y="30.5224743" class="st1" width="5.0668936" height="1.7633294"/>
		</g>
		<g>
		</g>
	</g>
	<g id="XMLID_12_">
		<g>
			<rect x="38.941803" y="30.5224743" class="st1" width="5.0668936" height="1.7633294"/>
		</g>
		<g>
		</g>
	</g>
	<g id="XMLID_13_">
		<g>
			<rect x="38.941803" y="34.1616859" class="st1" width="5.0668936" height="1.765116"/>
		</g>
		<g>
		</g>
	</g>
	<g id="XMLID_14_">
		<g>
			<rect x="38.941803" y="37.8026848" class="st1" width="5.0668936" height="1.765116"/>
		</g>
		<g>
		</g>
	</g>
	<g id="XMLID_15_">
		<g>
			<rect x="38.941803" y="41.4436836" class="st1" width="5.0668936" height="1.7633294"/>
		</g>
		<g>
		</g>
	</g>
	<g id="XMLID_6_">
		<g>
			<rect x="43.7450981" y="29.9418106" class="st15" width="11.338583" height="14.4566927"/>
		</g>
		<g>
		</g>
	</g>
</g>
<g>
	<g>
		<path class="st3" d="M18.527832,40.440918c-0.0424805,0.5864258-0.2587891,1.0483398-0.6499023,1.3857422
			c-0.390625,0.3369141-0.9057617,0.5053711-1.5449219,0.5053711c-0.6992188,0-1.2490234-0.2353516-1.6499023-0.7060547
			s-0.6010742-1.1166992-0.6010742-1.9379883v-0.3334961c0-0.5244141,0.0922852-0.9863281,0.2768555-1.3857422
			c0.1850586-0.3999023,0.4492188-0.7060547,0.7924805-0.9199219c0.3432617-0.2133789,0.7421875-0.3203125,1.1967773-0.3203125
			c0.6293945,0,1.1362305,0.1689453,1.5205078,0.5058594c0.3847656,0.3369141,0.6069336,0.8105469,0.6669922,1.4194336h-1.1240234
			c-0.0273438-0.3520508-0.1254883-0.6074219-0.2939453-0.765625c-0.168457-0.1586914-0.425293-0.237793-0.7695313-0.237793
			c-0.3745117,0-0.6547852,0.1337891-0.8408203,0.4023438s-0.2817383,0.6850586-0.2866211,1.2490234v0.4121094
			c0,0.5893555,0.0893555,1.0200195,0.2675781,1.2924805c0.1787109,0.2719727,0.4599609,0.4082031,0.8447266,0.4082031
			c0.347168,0,0.605957-0.0791016,0.7773438-0.237793c0.1708984-0.1586914,0.269043-0.4038086,0.2939453-0.7358398H18.527832z"/>
	</g>
	<g>
		<path class="st16" d="M20.2162437,37.357151c0.2531319,0,0.4583282,0.2052078,0.4583282,0.4583397
			s-0.2051964,0.4583282-0.4583282,0.4583282c-0.25313,0-0.4583397-0.2051964-0.4583397-0.4583282
			S19.9631138,37.357151,20.2162437,37.357151 M20.2162437,36.7571526c-0.5835705,0-1.0583401,0.4747696-1.0583401,1.0583382
			s0.4747696,1.0583305,1.0583401,1.0583305c0.5835686,0,1.0583305-0.474762,1.0583305-1.0583305
			S20.7998123,36.7571526,20.2162437,36.7571526L20.2162437,36.7571526z"/>
	</g>
	<path class="st17" d="M8.6745749,35.3949776c0-1.0839157,0.8919268-1.9758415,1.9758415-1.9758415
		s1.9758415,0.8919258,1.9758415,1.9758415c0,0.0013847,0,6.53228,0,6.53228s0,0.9611893,0,1.7807884
		c0.7656908,0.5954056,1.25665,1.5258598,1.25665,2.5709839c0,1.8035545-1.4620705,3.265625-3.265625,3.265625
		s-3.265625-1.4620705-3.265625-3.265625c0-1.0751648,0.5195904-2.0289764,1.3229103-2.6219406c0-1.6550446,0-3.3100891,0-4.9651337
		"/>
	<line class="st17" x1="8.6745749" y1="35.3949776" x2="8.6745682" y2="38.6919556"/>
	<line class="st17" x1="10.6172829" y1="38.4096069" x2="10.6172829" y2="45.2801933"/>
	<g>
		<path class="st3" d="M10.6172829,45.5915718c0.3796005,0,0.6884308,0.3088303,0.6884308,0.6884308
			s-0.3088303,0.6884308-0.6884308,0.6884308s-0.6884308-0.3088303-0.6884308-0.6884308
			S10.2376823,45.5915718,10.6172829,45.5915718 M10.6172829,44.2915726c-1.0981808,0-1.98843,0.8902512-1.98843,1.98843
			s0.8902493,1.98843,1.98843,1.98843s1.98843-0.8902512,1.98843-1.98843S11.7154636,44.2915726,10.6172829,44.2915726
			L10.6172829,44.2915726z"/>
	</g>
	<line class="st18" x1="7.2628098" y1="41.7013359" x2="5.3863392" y2="41.7013359"/>
	<line class="st18" x1="7.2628098" y1="39.3671417" x2="5.3863392" y2="39.3671417"/>
	<line class="st18" x1="7.2628098" y1="37.0329514" x2="5.3863392" y2="37.0329514"/>
	<line class="st18" x1="7.2628098" y1="40.5342369" x2="3.5098686" y2="40.5342369"/>
	<line class="st19" x1="7.2628098" y1="42.8684311" x2="3.5098686" y2="42.8684311"/>
	<line class="st18" x1="7.2628098" y1="38.2000465" x2="3.5098686" y2="38.2000465"/>
	<line class="st19" x1="7.2628098" y1="35.8658562" x2="3.5098686" y2="35.8658562"/>
</g>
<g>
</g>
<g>
</g>
<g>
</g>
<g>
</g>
<g>
</g>
</svg>
