<?xml version="1.0" encoding="utf-8"?>
<!-- Generator: Adobe Illustrator 22.0.1, SVG Export Plug-In . SVG Version: 6.00 Build 0)  -->
<svg version="1.1" id="Слой_1" xmlns="http://www.w3.org/2000/svg" xmlns:xlink="http://www.w3.org/1999/xlink" x="0px" y="0px"
	 viewBox="0 0 212.6554718 61.0299988" style="enable-background:new 0 0 212.6554718 61.0299988;" xml:space="preserve">
<style type="text/css">
	.st0{fill:#0D0E0F;}
	.st1{fill:none;stroke:#0D0E0F;stroke-width:0.75;stroke-linecap:round;stroke-linejoin:round;stroke-miterlimit:10;}
	.st2{fill:#999999;}
	.st3{fill:#E5E4E0;}
	.st4{fill:#151616;}
	.st5{fill:none;stroke:#F6F6F6;stroke-width:0.75;stroke-miterlimit:10;}
	.st6{fill:#CEC7BD;}
	.st7{fill:#918C84;}
	.st8{fill:#CDC7BC;}
	.st9{fill:#363331;}
	.st10{fill:#B5B4B3;}
	.st11{fill:#9E9B9C;}
	.st12{fill:#808080;}
	.st13{fill:#313131;}
	.st14{fill:#666566;}
</style>
<g id="Конту">
	<g id="XMLID_1_">
		<g>
			<path class="st0" d="M114.6004715,57.875c0.7999954,0,1.4499969-0.6400032,1.4499969-1.4400024
				s-0.6500015-1.4500008-1.4499969-1.4500008c-0.8000031,0-1.4500046,0.6500015-1.4500046,1.4500008
				S113.8004684,57.875,114.6004715,57.875z M129.0804749,57.875c0.8000031,0,1.4499969-0.6400032,1.4499969-1.4400024
				s-0.6499939-1.4500008-1.4499969-1.4500008s-1.4500046,0.6500015-1.4500046,1.4500008S128.2804718,57.875,129.0804749,57.875z
				 M165.230484,57.875c0.7999878,0,1.4399872-0.6400032,1.4399872-1.4400024s-0.6399994-1.4500008-1.4399872-1.4500008
				c-0.8100128,0-1.4500122,0.6500015-1.4500122,1.4500008S164.4204712,57.875,165.230484,57.875z M172.4504852,57.875
				c0.7999878,0,1.4499969-0.6400032,1.4499969-1.4400024s-0.6500092-1.4500008-1.4499969-1.4500008
				c-0.8000031,0-1.4500122,0.6500015-1.4500122,1.4500008S171.6504822,57.875,172.4504852,57.875z M100.1704712,57.875
				c0.7999954,0,1.4499969-0.6400032,1.4499969-1.4400024s-0.6500015-1.4500008-1.4499969-1.4500008
				c-0.8000031,0-1.4500046,0.6500015-1.4500046,1.4500008S99.3704681,57.875,100.1704712,57.875z M85.7104721,57.875
				c0.7999954,0,1.4499969-0.6400032,1.4499969-1.4400024s-0.6500015-1.4500008-1.4499969-1.4500008
				c-0.8000031,0-1.4500046,0.6500015-1.4500046,1.4500008S84.9104691,57.875,85.7104721,57.875z M150.7704773,57.875
				c0.8000031,0,1.4499969-0.6400032,1.4499969-1.4400024s-0.6499939-1.4500008-1.4499969-1.4500008
				s-1.4499969,0.6500015-1.4499969,1.4500008S149.9704742,57.875,150.7704773,57.875z M143.5404816,57.875
				c0.8000031,0,1.4499969-0.6400032,1.4499969-1.4400024s-0.6499939-1.4500008-1.4499969-1.4500008
				s-1.4499969,0.6500015-1.4499969,1.4500008S142.7404785,57.875,143.5404816,57.875z M107.4004669,57.875
				c0.8000031,0,1.4500046-0.6400032,1.4500046-1.4400024s-0.6500015-1.4500008-1.4500046-1.4500008
				c-0.7999954,0-1.4499969,0.6500015-1.4499969,1.4500008S106.6004715,57.875,107.4004669,57.875z M179.680481,57.875
				c0.8000031,0,1.4499969-0.6400032,1.4499969-1.4400024s-0.6499939-1.4500008-1.4499969-1.4500008
				s-1.4499969,0.6500015-1.4499969,1.4500008S178.8804779,57.875,179.680481,57.875z M92.9104691,57.875
				c0.8000031,0,1.4500046-0.6400032,1.4500046-1.4400024s-0.6500015-1.4500008-1.4500046-1.4500008
				c-0.7999954,0-1.4499969,0.6500015-1.4499969,1.4500008S92.1104736,57.875,92.9104691,57.875z M121.8604736,57.875
				c0.7999954,0,1.4399948-0.6400032,1.4399948-1.4400024s-0.6399994-1.4500008-1.4399948-1.4500008
				c-0.8100052,0-1.4500046,0.6500015-1.4500046,1.4500008S121.0504684,57.875,121.8604736,57.875z M157.9704742,57.875
				c0.8000031,0,1.4499969-0.6400032,1.4499969-1.4400024s-0.6499939-1.4500008-1.4499969-1.4500008
				s-1.4499969,0.6500015-1.4499969,1.4500008S157.1704712,57.875,157.9704742,57.875z M192.4904785,39.8049965
				l19.7599945,10.6800003l-19.7999878,10.170002H21.4004707c-2.6400013,0-4.7800007-2.1800003-4.7800007-4.8800011v-12.75
				L16.660471,5.2449999c0-2.6899998,2.1399994-4.8699999,4.7799988-4.8699999h171.0500031l19.7899933,10.1599998
				l-19.7899933,10.3999996H78.6804733c-4.840004,0-8.75,4.2900009-8.75,9.5800018c0,5.2999973,3.909996,9.5799961,8.75,9.5799961
				L192.4904785,39.8049965z M136.2804718,57.875c0.8000031,0,1.4500122-0.6400032,1.4500122-1.4400024
				s-0.6500092-1.4500008-1.4500122-1.4500008c-0.7999878,0-1.4499969,0.6500015-1.4499969,1.4500008
				S135.480484,57.875,136.2804718,57.875z M189.9004822,10.7550001c0-1.1199999-0.9100037-2.0299997-2.0299988-2.0299997
				c-1.1200104,0-2.0299988,0.9099998-2.0299988,2.0299997c0,1.1300001,0.9099884,2.0299997,2.0299988,2.0299997
				C188.9904785,12.7849998,189.9004822,11.8850002,189.9004822,10.7550001z M189.9004822,50.9349976
				c0-1.1300011-0.9100037-2.0400009-2.0299988-2.0400009c-1.1200104,0-2.0299988,0.9099998-2.0299988,2.0400009
				c0,1.1199989,0.9099884,2.0299988,2.0299988,2.0299988C188.9904785,52.9649963,189.9004822,52.0549965,189.9004822,50.9349976z
				 M181.1304779,5.2550001c0-0.8000002-0.6499939-1.45-1.4499969-1.45s-1.4499969,0.6499999-1.4499969,1.45
				s0.6499939,1.4499998,1.4499969,1.4499998S181.1304779,6.0550003,181.1304779,5.2550001z M181.1304779,16.2550011
				c0-0.8000011-0.6499939-1.4500008-1.4499969-1.4500008s-1.4499969,0.6499996-1.4499969,1.4500008
				c0,0.7999992,0.6499939,1.4499989,1.4499969,1.4499989S181.1304779,17.0550003,181.1304779,16.2550011z M181.1304779,45.4349976
				c0-0.7999992-0.6499939-1.4500008-1.4499969-1.4500008s-1.4499969,0.6500015-1.4499969,1.4500008
				S178.8804779,46.875,179.680481,46.875S181.1304779,46.2349968,181.1304779,45.4349976z M173.9004822,5.2550001
				c0-0.8000002-0.6500092-1.45-1.4499969-1.45c-0.8000031,0-1.4500122,0.6499999-1.4500122,1.45
				s0.6500092,1.4499998,1.4500122,1.4499998C173.250473,6.7049999,173.9004822,6.0550003,173.9004822,5.2550001z
				 M173.9004822,16.2550011c0-0.8000011-0.6500092-1.4500008-1.4499969-1.4500008
				c-0.8000031,0-1.4500122,0.6499996-1.4500122,1.4500008c0,0.7999992,0.6500092,1.4499989,1.4500122,1.4499989
				C173.250473,17.7049999,173.9004822,17.0550003,173.9004822,16.2550011z M173.9004822,45.4349976
				c0-0.7999992-0.6500092-1.4500008-1.4499969-1.4500008c-0.8000031,0-1.4500122,0.6500015-1.4500122,1.4500008
				S171.6504822,46.875,172.4504852,46.875C173.250473,46.875,173.9004822,46.2349968,173.9004822,45.4349976z
				 M166.6704712,5.2550001c0-0.8000002-0.6399994-1.45-1.4399872-1.45c-0.8100128,0-1.4500122,0.6499999-1.4500122,1.45
				s0.6399994,1.4499998,1.4500122,1.4499998C166.0304718,6.7049999,166.6704712,6.0550003,166.6704712,5.2550001z
				 M166.6704712,16.2550011c0-0.8000011-0.6399994-1.4500008-1.4399872-1.4500008
				c-0.8100128,0-1.4500122,0.6499996-1.4500122,1.4500008c0,0.7999992,0.6399994,1.4499989,1.4500122,1.4499989
				C166.0304718,17.7049999,166.6704712,17.0550003,166.6704712,16.2550011z M166.6704712,45.4349976
				c0-0.7999992-0.6399994-1.4500008-1.4399872-1.4500008c-0.8100128,0-1.4500122,0.6500015-1.4500122,1.4500008
				S164.4204712,46.875,165.230484,46.875C166.0304718,46.875,166.6704712,46.2349968,166.6704712,45.4349976z
				 M159.4204712,5.2550001c0-0.8000002-0.6499939-1.45-1.4499969-1.45s-1.4499969,0.6499999-1.4499969,1.45
				s0.6499939,1.4499998,1.4499969,1.4499998S159.4204712,6.0550003,159.4204712,5.2550001z M159.4204712,16.2550011
				c0-0.8000011-0.6499939-1.4500008-1.4499969-1.4500008s-1.4499969,0.6499996-1.4499969,1.4500008
				c0,0.7999992,0.6499939,1.4499989,1.4499969,1.4499989S159.4204712,17.0550003,159.4204712,16.2550011z M159.4204712,45.4349976
				c0-0.7999992-0.6499939-1.4500008-1.4499969-1.4500008s-1.4499969,0.6500015-1.4499969,1.4500008
				S157.1704712,46.875,157.9704742,46.875S159.4204712,46.2349968,159.4204712,45.4349976z M152.2204742,5.2550001
				c0-0.8000002-0.6499939-1.45-1.4499969-1.45s-1.4499969,0.6499999-1.4499969,1.45s0.6499939,1.4499998,1.4499969,1.4499998
				S152.2204742,6.0550003,152.2204742,5.2550001z M152.2204742,16.2550011c0-0.8000011-0.6499939-1.4500008-1.4499969-1.4500008
				s-1.4499969,0.6499996-1.4499969,1.4500008c0,0.7999992,0.6499939,1.4499989,1.4499969,1.4499989
				S152.2204742,17.0550003,152.2204742,16.2550011z M152.2204742,45.4349976c0-0.7999992-0.6499939-1.4500008-1.4499969-1.4500008
				s-1.4499969,0.6500015-1.4499969,1.4500008S149.9704742,46.875,150.7704773,46.875
				S152.2204742,46.2349968,152.2204742,45.4349976z M144.9904785,5.2550001c0-0.8000002-0.6499939-1.45-1.4499969-1.45
				s-1.4499969,0.6499999-1.4499969,1.45s0.6499939,1.4499998,1.4499969,1.4499998S144.9904785,6.0550003,144.9904785,5.2550001z
				 M144.9904785,16.2550011c0-0.8000011-0.6499939-1.4500008-1.4499969-1.4500008s-1.4499969,0.6499996-1.4499969,1.4500008
				c0,0.7999992,0.6499939,1.4499989,1.4499969,1.4499989S144.9904785,17.0550003,144.9904785,16.2550011z M144.9904785,45.4349976
				c0-0.7999992-0.6499939-1.4500008-1.4499969-1.4500008s-1.4499969,0.6500015-1.4499969,1.4500008
				S142.7404785,46.875,143.5404816,46.875S144.9904785,46.2349968,144.9904785,45.4349976z M137.730484,5.2550001
				c0-0.8000002-0.6500092-1.45-1.4500122-1.45c-0.7999878,0-1.4499969,0.6499999-1.4499969,1.45
				s0.6500092,1.4499998,1.4499969,1.4499998C137.0804749,6.7049999,137.730484,6.0550003,137.730484,5.2550001z
				 M137.730484,16.2550011c0-0.8000011-0.6500092-1.4500008-1.4500122-1.4500008
				c-0.7999878,0-1.4499969,0.6499996-1.4499969,1.4500008c0,0.7999992,0.6500092,1.4499989,1.4499969,1.4499989
				C137.0804749,17.7049999,137.730484,17.0550003,137.730484,16.2550011z M137.730484,45.4349976
				c0-0.7999992-0.6500092-1.4500008-1.4500122-1.4500008c-0.7999878,0-1.4499969,0.6500015-1.4499969,1.4500008
				S135.480484,46.875,136.2804718,46.875C137.0804749,46.875,137.730484,46.2349968,137.730484,45.4349976z M130.5304718,5.2550001
				c0-0.8000002-0.6499939-1.45-1.4499969-1.45s-1.4500046,0.6499999-1.4500046,1.45s0.6500015,1.4499998,1.4500046,1.4499998
				S130.5304718,6.0550003,130.5304718,5.2550001z M130.5304718,16.2550011c0-0.8000011-0.6499939-1.4500008-1.4499969-1.4500008
				s-1.4500046,0.6499996-1.4500046,1.4500008c0,0.7999992,0.6500015,1.4499989,1.4500046,1.4499989
				S130.5304718,17.0550003,130.5304718,16.2550011z M130.5304718,45.4349976c0-0.7999992-0.6499939-1.4500008-1.4499969-1.4500008
				s-1.4500046,0.6500015-1.4500046,1.4500008S128.2804718,46.875,129.0804749,46.875
				S130.5304718,46.2349968,130.5304718,45.4349976z M123.3004684,5.2550001c0-0.8000002-0.6399994-1.45-1.4399948-1.45
				c-0.8100052,0-1.4500046,0.6499999-1.4500046,1.45s0.6399994,1.4499998,1.4500046,1.4499998
				C122.6604691,6.7049999,123.3004684,6.0550003,123.3004684,5.2550001z M123.3004684,16.2550011
				c0-0.8000011-0.6399994-1.4500008-1.4399948-1.4500008c-0.8100052,0-1.4500046,0.6499996-1.4500046,1.4500008
				c0,0.7999992,0.6399994,1.4499989,1.4500046,1.4499989C122.6604691,17.7049999,123.3004684,17.0550003,123.3004684,16.2550011z
				 M123.3004684,45.4349976c0-0.7999992-0.6399994-1.4500008-1.4399948-1.4500008
				c-0.8100052,0-1.4500046,0.6500015-1.4500046,1.4500008S121.0504684,46.875,121.8604736,46.875
				C122.6604691,46.875,123.3004684,46.2349968,123.3004684,45.4349976z M116.0504684,5.2550001
				c0-0.8000002-0.6500015-1.45-1.4499969-1.45c-0.8000031,0-1.4500046,0.6499999-1.4500046,1.45
				s0.6500015,1.4499998,1.4500046,1.4499998C115.4004669,6.7049999,116.0504684,6.0550003,116.0504684,5.2550001z
				 M116.0504684,16.2550011c0-0.8000011-0.6500015-1.4500008-1.4499969-1.4500008
				c-0.8000031,0-1.4500046,0.6499996-1.4500046,1.4500008c0,0.7999992,0.6500015,1.4499989,1.4500046,1.4499989
				C115.4004669,17.7049999,116.0504684,17.0550003,116.0504684,16.2550011z M116.0504684,45.4349976
				c0-0.7999992-0.6500015-1.4500008-1.4499969-1.4500008c-0.8000031,0-1.4500046,0.6500015-1.4500046,1.4500008
				S113.8004684,46.875,114.6004715,46.875C115.4004669,46.875,116.0504684,46.2349968,116.0504684,45.4349976z
				 M108.8504715,5.2550001c0-0.8000002-0.6500015-1.45-1.4500046-1.45c-0.7999954,0-1.4499969,0.6499999-1.4499969,1.45
				s0.6500015,1.4499998,1.4499969,1.4499998C108.20047,6.7049999,108.8504715,6.0550003,108.8504715,5.2550001z
				 M108.8504715,16.2550011c0-0.8000011-0.6500015-1.4500008-1.4500046-1.4500008
				c-0.7999954,0-1.4499969,0.6499996-1.4499969,1.4500008c0,0.7999992,0.6500015,1.4499989,1.4499969,1.4499989
				C108.20047,17.7049999,108.8504715,17.0550003,108.8504715,16.2550011z M108.8504715,45.4349976
				c0-0.7999992-0.6500015-1.4500008-1.4500046-1.4500008c-0.7999954,0-1.4499969,0.6500015-1.4499969,1.4500008
				S106.6004715,46.875,107.4004669,46.875C108.20047,46.875,108.8504715,46.2349968,108.8504715,45.4349976z
				 M101.6204681,5.2550001c0-0.8000002-0.6500015-1.45-1.4499969-1.45c-0.8000031,0-1.4500046,0.6499999-1.4500046,1.45
				s0.6500015,1.4499998,1.4500046,1.4499998C100.9704666,6.7049999,101.6204681,6.0550003,101.6204681,5.2550001z
				 M101.6204681,16.2550011c0-0.8000011-0.6500015-1.4500008-1.4499969-1.4500008
				c-0.8000031,0-1.4500046,0.6499996-1.4500046,1.4500008c0,0.7999992,0.6500015,1.4499989,1.4500046,1.4499989
				C100.9704666,17.7049999,101.6204681,17.0550003,101.6204681,16.2550011z M101.6204681,45.4349976
				c0-0.7999992-0.6500015-1.4500008-1.4499969-1.4500008c-0.8000031,0-1.4500046,0.6500015-1.4500046,1.4500008
				S99.3704681,46.875,100.1704712,46.875C100.9704666,46.875,101.6204681,46.2349968,101.6204681,45.4349976z
				 M94.3604736,5.2550001c0-0.8000002-0.6500015-1.45-1.4500046-1.45c-0.7999954,0-1.4499969,0.6499999-1.4499969,1.45
				s0.6500015,1.4499998,1.4499969,1.4499998C93.7104721,6.7049999,94.3604736,6.0550003,94.3604736,5.2550001z
				 M94.3604736,16.2550011c0-0.8000011-0.6500015-1.4500008-1.4500046-1.4500008
				c-0.7999954,0-1.4499969,0.6499996-1.4499969,1.4500008c0,0.7999992,0.6500015,1.4499989,1.4499969,1.4499989
				C93.7104721,17.7049999,94.3604736,17.0550003,94.3604736,16.2550011z M94.3604736,45.4349976
				c0-0.7999992-0.6500015-1.4500008-1.4500046-1.4500008c-0.7999954,0-1.4499969,0.6500015-1.4499969,1.4500008
				S92.1104736,46.875,92.9104691,46.875C93.7104721,46.875,94.3604736,46.2349968,94.3604736,45.4349976z M87.1604691,5.2550001
				c0-0.8000002-0.6500015-1.45-1.4499969-1.45c-0.8000031,0-1.4500046,0.6499999-1.4500046,1.45
				s0.6500015,1.4499998,1.4500046,1.4499998C86.5104675,6.7049999,87.1604691,6.0550003,87.1604691,5.2550001z
				 M87.1604691,16.2550011c0-0.8000011-0.6500015-1.4500008-1.4499969-1.4500008
				c-0.8000031,0-1.4500046,0.6499996-1.4500046,1.4500008c0,0.7999992,0.6500015,1.4499989,1.4500046,1.4499989
				C86.5104675,17.7049999,87.1604691,17.0550003,87.1604691,16.2550011z M87.1604691,45.4349976
				c0-0.7999992-0.6500015-1.4500008-1.4499969-1.4500008c-0.8000031,0-1.4500046,0.6500015-1.4500046,1.4500008
				S84.9104691,46.875,85.7104721,46.875C86.5104675,46.875,87.1604691,46.2349968,87.1604691,45.4349976z M31.1604691,10.165
				c0-2.4899998-2.0199986-4.5-4.4999981-4.5c-2.4899998,0-4.5,2.0100002-4.5,4.5c0,2.4800005,2.0100002,4.500001,4.5,4.500001
				C29.1404705,14.6650009,31.1604691,12.6450005,31.1604691,10.165z M31.120472,50.8549995
				c0-2.4799995-2.0100021-4.5-4.5000019-4.5c-2.4799995,0-4.5,2.0200005-4.5,4.5c0,2.4899979,2.0200005,4.5,4.5,4.5
				C29.1104698,55.3549995,31.120472,53.3449974,31.120472,50.8549995z"/>
		</g>
		<g>
			<path class="st1" d="M16.660471,5.2449999c0-2.6899998,2.1399994-4.8699999,4.7799988-4.8699999"/>
			<line class="st1" x1="21.4404697" y1="0.375" x2="192.4904785" y2="0.375"/>
			<line class="st1" x1="192.4904785" y1="20.9349995" x2="78.6804733" y2="20.9349995"/>
			<line class="st1" x1="192.4904785" y1="0.375" x2="212.2804718" y2="10.5349998"/>
			<line class="st1" x1="192.4904785" y1="20.9349995" x2="212.2804718" y2="10.5349998"/>
			<path class="st1" d="M69.9304733,30.5150013c0-5.2900009,3.909996-9.5800018,8.75-9.5800018"/>
			<line class="st1" x1="16.660471" y1="5.2449999" x2="16.62047" y2="43.0249977"/>
			<circle class="st1" cx="26.660471" cy="10.164999" r="4.499999"/>
			<path class="st1" d="M16.62047,55.7749977c0,2.7000008,2.1399994,4.8800011,4.7800007,4.8800011"/>
			<line class="st1" x1="21.4004707" y1="60.6549988" x2="192.4504852" y2="60.6549988"/>
			<line class="st1" x1="192.4904785" y1="39.8049965" x2="78.6804733" y2="40.0949974"/>
			<line class="st1" x1="192.4504852" y1="60.6549988" x2="212.250473" y2="50.4849968"/>
			<line class="st1" x1="192.4904785" y1="39.8049965" x2="212.250473" y2="50.4849968"/>
			<path class="st1" d="M69.9304733,30.5150013c0,5.2999973,3.909996,9.5799961,8.75,9.5799961"/>
			<line class="st1" x1="16.62047" y1="55.7749977" x2="16.62047" y2="43.0249977"/>
			<circle class="st1" cx="26.62047" cy="50.8549995" r="4.4999995"/>
		</g>
	</g>
</g>
<g id="Слой_14">
	<path class="st2" d="M83.1304245,0.3720911v20.5883179h109.3240433V0.3720911H83.1304245z M85.7137604,6.7077236
		c-0.800293,0-1.4490356-0.6487427-1.4490356-1.4489746c0-0.800293,0.6487427-1.4490359,1.4490356-1.4490359
		S87.162796,4.458456,87.162796,5.258749C87.162796,6.0589809,86.5140533,6.7077236,85.7137604,6.7077236z M92.9127731,6.7077236
		c-0.800293,0-1.4490356-0.6487427-1.4490356-1.4489746c0-0.800293,0.6487427-1.4490359,1.4490356-1.4490359
		s1.4490356,0.6487429,1.4490356,1.4490359C94.3618088,6.0589809,93.7130661,6.7077236,92.9127731,6.7077236z
		 M100.1704483,6.7077236c-0.8002319,0-1.4489746-0.6487427-1.4489746-1.4489746
		c0-0.800293,0.6487427-1.4490359,1.4489746-1.4490359c0.800293,0,1.4490356,0.6487429,1.4490356,1.4490359
		C101.6194839,6.0589809,100.9707413,6.7077236,100.1704483,6.7077236z M107.3987961,6.7077236
		c-0.800293,0-1.4490356-0.6487427-1.4490356-1.4489746c0-0.800293,0.6487427-1.4490359,1.4490356-1.4490359
		s1.4490356,0.6487429,1.4490356,1.4490359C108.8478317,6.0589809,108.1990891,6.7077236,107.3987961,6.7077236z
		 M114.5978088,6.7077236c-0.800293,0-1.4490356-0.6487427-1.4490356-1.4489746c0-0.800293,0.6487427-1.4490359,1.4490356-1.4490359
		s1.4490356,0.6487429,1.4490356,1.4490359C116.0468445,6.0589809,115.3981018,6.7077236,114.5978088,6.7077236z
		 M121.8554916,6.7077236c-0.8002319,0-1.4489746-0.6487427-1.4489746-1.4489746
		c0-0.800293,0.6487427-1.4490359,1.4489746-1.4490359c0.800293,0,1.4490356,0.6487429,1.4490356,1.4490359
		C123.3045273,6.0589809,122.6557846,6.7077236,121.8554916,6.7077236z M129.083847,6.7077236
		c-0.800293,0-1.4490433-0.6487427-1.4490433-1.4489746c0-0.800293,0.6487503-1.4490359,1.4490433-1.4490359
		s1.4490356,0.6487429,1.4490356,1.4490359C130.5328827,6.0589809,129.88414,6.7077236,129.083847,6.7077236z
		 M136.2828522,6.7077236c-0.800293,0-1.4490356-0.6487427-1.4490356-1.4489746c0-0.800293,0.6487427-1.4490359,1.4490356-1.4490359
		s1.4490356,0.6487429,1.4490356,1.4490359C137.7318878,6.0589809,137.0831451,6.7077236,136.2828522,6.7077236z
		 M143.5405426,6.7077236c-0.8002319,0-1.4489746-0.6487427-1.4489746-1.4489746
		c0-0.800293,0.6487427-1.4490359,1.4489746-1.4490359c0.800293,0,1.4490356,0.6487429,1.4490356,1.4490359
		C144.9895782,6.0589809,144.3408356,6.7077236,143.5405426,6.7077236z M150.7688904,6.7077236
		c-0.800293,0-1.4490356-0.6487427-1.4490356-1.4489746c0-0.800293,0.6487427-1.4490359,1.4490356-1.4490359
		s1.4490356,0.6487429,1.4490356,1.4490359C152.217926,6.0589809,151.5691833,6.7077236,150.7688904,6.7077236z
		 M157.9678955,6.7077236c-0.800293,0-1.4490356-0.6487427-1.4490356-1.4489746c0-0.800293,0.6487427-1.4490359,1.4490356-1.4490359
		s1.4490356,0.6487429,1.4490356,1.4490359C159.4169312,6.0589809,158.7681885,6.7077236,157.9678955,6.7077236z
		 M165.2255707,6.7077236c-0.8002319,0-1.4489746-0.6487427-1.4489746-1.4489746
		c0-0.800293,0.6487427-1.4490359,1.4489746-1.4490359c0.800293,0,1.4490356,0.6487429,1.4490356,1.4490359
		C166.6746063,6.0589809,166.0258636,6.7077236,165.2255707,6.7077236z M172.4539185,6.7077236
		c-0.800293,0-1.4490356-0.6487427-1.4490356-1.4489746c0-0.800293,0.6487427-1.4490359,1.4490356-1.4490359
		s1.4490356,0.6487429,1.4490356,1.4490359C173.9029541,6.0589809,173.2542114,6.7077236,172.4539185,6.7077236z
		 M179.6822662,6.7077236c-0.800293,0-1.4490356-0.6487427-1.4490356-1.4489746c0-0.800293,0.6487427-1.4490359,1.4490356-1.4490359
		s1.4490356,0.6487429,1.4490356,1.4490359C181.1313019,6.0589809,180.4825592,6.7077236,179.6822662,6.7077236z
		 M85.7137604,17.7076931c-0.800293,0-1.4490356-0.6487427-1.4490356-1.4489746c0-0.800293,0.6487427-1.4490356,1.4490356-1.4490356
		s1.4490356,0.6487427,1.4490356,1.4490356C87.162796,17.0589504,86.5140533,17.7076931,85.7137604,17.7076931z
		 M92.9127731,17.7076931c-0.800293,0-1.4490356-0.6487427-1.4490356-1.4489746c0-0.800293,0.6487427-1.4490356,1.4490356-1.4490356
		s1.4490356,0.6487427,1.4490356,1.4490356C94.3618088,17.0589504,93.7130661,17.7076931,92.9127731,17.7076931z
		 M100.1704483,17.7076931c-0.8002319,0-1.4489746-0.6487427-1.4489746-1.4489746
		c0-0.800293,0.6487427-1.4490356,1.4489746-1.4490356c0.800293,0,1.4490356,0.6487427,1.4490356,1.4490356
		C101.6194839,17.0589504,100.9707413,17.7076931,100.1704483,17.7076931z M107.3987961,17.7076931
		c-0.800293,0-1.4490356-0.6487427-1.4490356-1.4489746c0-0.800293,0.6487427-1.4490356,1.4490356-1.4490356
		s1.4490356,0.6487427,1.4490356,1.4490356C108.8478317,17.0589504,108.1990891,17.7076931,107.3987961,17.7076931z
		 M114.5978088,17.7076931c-0.800293,0-1.4490356-0.6487427-1.4490356-1.4489746
		c0-0.800293,0.6487427-1.4490356,1.4490356-1.4490356s1.4490356,0.6487427,1.4490356,1.4490356
		C116.0468445,17.0589504,115.3981018,17.7076931,114.5978088,17.7076931z M121.8554916,17.7076931
		c-0.8002319,0-1.4489746-0.6487427-1.4489746-1.4489746c0-0.800293,0.6487427-1.4490356,1.4489746-1.4490356
		c0.800293,0,1.4490356,0.6487427,1.4490356,1.4490356C123.3045273,17.0589504,122.6557846,17.7076931,121.8554916,17.7076931z
		 M129.083847,17.7076931c-0.800293,0-1.4490433-0.6487427-1.4490433-1.4489746c0-0.800293,0.6487503-1.4490356,1.4490433-1.4490356
		s1.4490356,0.6487427,1.4490356,1.4490356C130.5328827,17.0589504,129.88414,17.7076931,129.083847,17.7076931z
		 M136.2828522,17.7076931c-0.800293,0-1.4490356-0.6487427-1.4490356-1.4489746
		c0-0.800293,0.6487427-1.4490356,1.4490356-1.4490356s1.4490356,0.6487427,1.4490356,1.4490356
		C137.7318878,17.0589504,137.0831451,17.7076931,136.2828522,17.7076931z M143.5405426,17.7076931
		c-0.8002319,0-1.4489746-0.6487427-1.4489746-1.4489746c0-0.800293,0.6487427-1.4490356,1.4489746-1.4490356
		c0.800293,0,1.4490356,0.6487427,1.4490356,1.4490356C144.9895782,17.0589504,144.3408356,17.7076931,143.5405426,17.7076931z
		 M150.7688904,17.7076931c-0.800293,0-1.4490356-0.6487427-1.4490356-1.4489746
		c0-0.800293,0.6487427-1.4490356,1.4490356-1.4490356s1.4490356,0.6487427,1.4490356,1.4490356
		C152.217926,17.0589504,151.5691833,17.7076931,150.7688904,17.7076931z M157.9678955,17.7076931
		c-0.800293,0-1.4490356-0.6487427-1.4490356-1.4489746c0-0.800293,0.6487427-1.4490356,1.4490356-1.4490356
		s1.4490356,0.6487427,1.4490356,1.4490356C159.4169312,17.0589504,158.7681885,17.7076931,157.9678955,17.7076931z
		 M165.2255707,17.7076931c-0.8002319,0-1.4489746-0.6487427-1.4489746-1.4489746
		c0-0.800293,0.6487427-1.4490356,1.4489746-1.4490356c0.800293,0,1.4490356,0.6487427,1.4490356,1.4490356
		C166.6746063,17.0589504,166.0258636,17.7076931,165.2255707,17.7076931z M172.4539185,17.7076931
		c-0.800293,0-1.4490356-0.6487427-1.4490356-1.4489746c0-0.800293,0.6487427-1.4490356,1.4490356-1.4490356
		s1.4490356,0.6487427,1.4490356,1.4490356C173.9029541,17.0589504,173.2542114,17.7076931,172.4539185,17.7076931z
		 M179.6822662,17.7076931c-0.800293,0-1.4490356-0.6487427-1.4490356-1.4489746
		c0-0.800293,0.6487427-1.4490356,1.4490356-1.4490356s1.4490356,0.6487427,1.4490356,1.4490356
		C181.1313019,17.0589504,180.4825592,17.7076931,179.6822662,17.7076931z M189.9012604,10.758729
		c0,1.1218281-0.9094238,2.03125-2.03125,2.03125s-2.03125-0.9094219-2.03125-2.03125s0.9094238-2.03125,2.03125-2.03125
		S189.9012604,9.6368999,189.9012604,10.758729z"/>
	<path class="st2" d="M83.1304245,40.0995979v20.5883179h109.3240433V40.0995979H83.1304245z M85.7137604,46.8799629
		c-0.800293,0-1.4490356-0.6487427-1.4490356-1.4489746c0-0.800293,0.6487427-1.4490356,1.4490356-1.4490356
		s1.4490356,0.6487427,1.4490356,1.4490356C87.162796,46.2312202,86.5140533,46.8799629,85.7137604,46.8799629z
		 M92.9127731,46.8799629c-0.800293,0-1.4490356-0.6487427-1.4490356-1.4489746c0-0.800293,0.6487427-1.4490356,1.4490356-1.4490356
		s1.4490356,0.6487427,1.4490356,1.4490356C94.3618088,46.2312202,93.7130661,46.8799629,92.9127731,46.8799629z
		 M100.1704483,46.8799629c-0.8002319,0-1.4489746-0.6487427-1.4489746-1.4489746
		c0-0.800293,0.6487427-1.4490356,1.4489746-1.4490356c0.800293,0,1.4490356,0.6487427,1.4490356,1.4490356
		C101.6194839,46.2312202,100.9707413,46.8799629,100.1704483,46.8799629z M107.3987961,46.8799629
		c-0.800293,0-1.4490356-0.6487427-1.4490356-1.4489746c0-0.800293,0.6487427-1.4490356,1.4490356-1.4490356
		s1.4490356,0.6487427,1.4490356,1.4490356C108.8478317,46.2312202,108.1990891,46.8799629,107.3987961,46.8799629z
		 M114.5978088,46.8799629c-0.800293,0-1.4490356-0.6487427-1.4490356-1.4489746
		c0-0.800293,0.6487427-1.4490356,1.4490356-1.4490356s1.4490356,0.6487427,1.4490356,1.4490356
		C116.0468445,46.2312202,115.3981018,46.8799629,114.5978088,46.8799629z M121.8554916,46.8799629
		c-0.8002319,0-1.4489746-0.6487427-1.4489746-1.4489746c0-0.800293,0.6487427-1.4490356,1.4489746-1.4490356
		c0.800293,0,1.4490356,0.6487427,1.4490356,1.4490356C123.3045273,46.2312202,122.6557846,46.8799629,121.8554916,46.8799629z
		 M129.083847,46.8799629c-0.800293,0-1.4490433-0.6487427-1.4490433-1.4489746c0-0.800293,0.6487503-1.4490356,1.4490433-1.4490356
		s1.4490356,0.6487427,1.4490356,1.4490356C130.5328827,46.2312202,129.88414,46.8799629,129.083847,46.8799629z
		 M136.2828522,46.8799629c-0.800293,0-1.4490356-0.6487427-1.4490356-1.4489746
		c0-0.800293,0.6487427-1.4490356,1.4490356-1.4490356s1.4490356,0.6487427,1.4490356,1.4490356
		C137.7318878,46.2312202,137.0831451,46.8799629,136.2828522,46.8799629z M143.5405426,46.8799629
		c-0.8002319,0-1.4489746-0.6487427-1.4489746-1.4489746c0-0.800293,0.6487427-1.4490356,1.4489746-1.4490356
		c0.800293,0,1.4490356,0.6487427,1.4490356,1.4490356C144.9895782,46.2312202,144.3408356,46.8799629,143.5405426,46.8799629z
		 M150.7688904,46.8799629c-0.800293,0-1.4490356-0.6487427-1.4490356-1.4489746
		c0-0.800293,0.6487427-1.4490356,1.4490356-1.4490356s1.4490356,0.6487427,1.4490356,1.4490356
		C152.217926,46.2312202,151.5691833,46.8799629,150.7688904,46.8799629z M157.9678955,46.8799629
		c-0.800293,0-1.4490356-0.6487427-1.4490356-1.4489746c0-0.800293,0.6487427-1.4490356,1.4490356-1.4490356
		s1.4490356,0.6487427,1.4490356,1.4490356C159.4169312,46.2312202,158.7681885,46.8799629,157.9678955,46.8799629z
		 M165.2255707,46.8799629c-0.8002319,0-1.4489746-0.6487427-1.4489746-1.4489746
		c0-0.800293,0.6487427-1.4490356,1.4489746-1.4490356c0.800293,0,1.4490356,0.6487427,1.4490356,1.4490356
		C166.6746063,46.2312202,166.0258636,46.8799629,165.2255707,46.8799629z M172.4539185,46.8799629
		c-0.800293,0-1.4490356-0.6487427-1.4490356-1.4489746c0-0.800293,0.6487427-1.4490356,1.4490356-1.4490356
		s1.4490356,0.6487427,1.4490356,1.4490356C173.9029541,46.2312202,173.2542114,46.8799629,172.4539185,46.8799629z
		 M179.6822662,46.8799629c-0.800293,0-1.4490356-0.6487427-1.4490356-1.4489746
		c0-0.800293,0.6487427-1.4490356,1.4490356-1.4490356s1.4490356,0.6487427,1.4490356,1.4490356
		C181.1313019,46.2312202,180.4825592,46.8799629,179.6822662,46.8799629z M85.7137604,57.8799324
		c-0.800293,0-1.4490356-0.6487427-1.4490356-1.4489746c0-0.800293,0.6487427-1.4490356,1.4490356-1.4490356
		s1.4490356,0.6487427,1.4490356,1.4490356C87.162796,57.2311897,86.5140533,57.8799324,85.7137604,57.8799324z
		 M92.9127731,57.8799324c-0.800293,0-1.4490356-0.6487427-1.4490356-1.4489746c0-0.800293,0.6487427-1.4490356,1.4490356-1.4490356
		s1.4490356,0.6487427,1.4490356,1.4490356C94.3618088,57.2311897,93.7130661,57.8799324,92.9127731,57.8799324z
		 M100.1704483,57.8799324c-0.8002319,0-1.4489746-0.6487427-1.4489746-1.4489746
		c0-0.800293,0.6487427-1.4490356,1.4489746-1.4490356c0.800293,0,1.4490356,0.6487427,1.4490356,1.4490356
		C101.6194839,57.2311897,100.9707413,57.8799324,100.1704483,57.8799324z M107.3987961,57.8799324
		c-0.800293,0-1.4490356-0.6487427-1.4490356-1.4489746c0-0.800293,0.6487427-1.4490356,1.4490356-1.4490356
		s1.4490356,0.6487427,1.4490356,1.4490356C108.8478317,57.2311897,108.1990891,57.8799324,107.3987961,57.8799324z
		 M114.5978088,57.8799324c-0.800293,0-1.4490356-0.6487427-1.4490356-1.4489746
		c0-0.800293,0.6487427-1.4490356,1.4490356-1.4490356s1.4490356,0.6487427,1.4490356,1.4490356
		C116.0468445,57.2311897,115.3981018,57.8799324,114.5978088,57.8799324z M121.8554916,57.8799324
		c-0.8002319,0-1.4489746-0.6487427-1.4489746-1.4489746c0-0.800293,0.6487427-1.4490356,1.4489746-1.4490356
		c0.800293,0,1.4490356,0.6487427,1.4490356,1.4490356C123.3045273,57.2311897,122.6557846,57.8799324,121.8554916,57.8799324z
		 M129.083847,57.8799324c-0.800293,0-1.4490433-0.6487427-1.4490433-1.4489746c0-0.800293,0.6487503-1.4490356,1.4490433-1.4490356
		s1.4490356,0.6487427,1.4490356,1.4490356C130.5328827,57.2311897,129.88414,57.8799324,129.083847,57.8799324z
		 M136.2828522,57.8799324c-0.800293,0-1.4490356-0.6487427-1.4490356-1.4489746
		c0-0.800293,0.6487427-1.4490356,1.4490356-1.4490356s1.4490356,0.6487427,1.4490356,1.4490356
		C137.7318878,57.2311897,137.0831451,57.8799324,136.2828522,57.8799324z M143.5405426,57.8799324
		c-0.8002319,0-1.4489746-0.6487427-1.4489746-1.4489746c0-0.800293,0.6487427-1.4490356,1.4489746-1.4490356
		c0.800293,0,1.4490356,0.6487427,1.4490356,1.4490356C144.9895782,57.2311897,144.3408356,57.8799324,143.5405426,57.8799324z
		 M150.7688904,57.8799324c-0.800293,0-1.4490356-0.6487427-1.4490356-1.4489746
		c0-0.800293,0.6487427-1.4490356,1.4490356-1.4490356s1.4490356,0.6487427,1.4490356,1.4490356
		C152.217926,57.2311897,151.5691833,57.8799324,150.7688904,57.8799324z M157.9678955,57.8799324
		c-0.800293,0-1.4490356-0.6487427-1.4490356-1.4489746c0-0.800293,0.6487427-1.4490356,1.4490356-1.4490356
		s1.4490356,0.6487427,1.4490356,1.4490356C159.4169312,57.2311897,158.7681885,57.8799324,157.9678955,57.8799324z
		 M165.2255707,57.8799324c-0.8002319,0-1.4489746-0.6487427-1.4489746-1.4489746
		c0-0.800293,0.6487427-1.4490356,1.4489746-1.4490356c0.800293,0,1.4490356,0.6487427,1.4490356,1.4490356
		C166.6746063,57.2311897,166.0258636,57.8799324,165.2255707,57.8799324z M172.4539185,57.8799324
		c-0.800293,0-1.4490356-0.6487427-1.4490356-1.4489746c0-0.800293,0.6487427-1.4490356,1.4490356-1.4490356
		s1.4490356,0.6487427,1.4490356,1.4490356C173.9029541,57.2311897,173.2542114,57.8799324,172.4539185,57.8799324z
		 M179.6822662,57.8799324c-0.800293,0-1.4490356-0.6487427-1.4490356-1.4489746
		c0-0.800293,0.6487427-1.4490356,1.4490356-1.4490356s1.4490356,0.6487427,1.4490356,1.4490356
		C181.1313019,57.2311897,180.4825592,57.8799324,179.6822662,57.8799324z M189.9012604,50.9309692
		c0,1.1218262-0.9094238,2.03125-2.03125,2.03125s-2.03125-0.9094238-2.03125-2.03125c0-1.12183,0.9094238-2.03125,2.03125-2.03125
		S189.9012604,49.8091393,189.9012604,50.9309692z"/>
	<g>
		<path class="st3" d="M51.5547409,18.6295376h3.3256836v1.0966797c0,0.3642578-0.074707,0.6376953-0.2236328,0.8212891
			c-0.1494141,0.1835938-0.3701172,0.2753906-0.6625977,0.2753906c-0.1552734,0-0.2929688-0.0444336-0.4121094-0.1337891
			c-0.1196289-0.0888672-0.2124023-0.2104492-0.277832-0.3637695c-0.050293,0.1811523-0.1455078,0.3242188-0.2866211,0.4296875
			c-0.140625,0.1049805-0.3085938,0.1577148-0.503418,0.1577148c-0.2988281,0-0.5332031-0.0976563-0.7036133-0.2924805
			c-0.1704102-0.1953125-0.2558594-0.4707031-0.2558594-0.8271484V18.6295376z M53.110405,19.0719204h-1.1972656v0.7304688
			c0,0.2055664,0.0532227,0.3681641,0.1591797,0.4873047c0.1054688,0.1186523,0.2514648,0.1782227,0.4370117,0.1782227
			c0.4008789,0,0.6010742-0.2192383,0.6010742-0.6586914V19.0719204z M53.4619675,19.0719204v0.6679688
			c0,0.1938477,0.0478516,0.3486328,0.144043,0.4643555c0.0961914,0.1162109,0.2270508,0.1738281,0.3916016,0.1738281
			c0.1831055,0,0.3164063-0.0537109,0.3994141-0.1611328s0.125-0.2709961,0.125-0.4907227v-0.6542969H53.4619675z"/>
		<path class="st3" d="M54.0264206,23.5436001h-2.4716797v-0.4282227h2.1220703v-0.8476563l-0.925293-0.0507813
			c-0.4248047-0.027832-0.7285156-0.0996094-0.9111328-0.215332c-0.1826172-0.1162109-0.277832-0.2998047-0.2856445-0.5517578
			v-0.1704102h0.3725586l0.0087891,0.1220703c0.0151367,0.1381836,0.0947266,0.2373047,0.237793,0.296875
			c0.1430664,0.0600586,0.4077148,0.0986328,0.7949219,0.1152344l1.0576172,0.0463867V23.5436001z"/>
		<path class="st3" d="M51.5547409,25.7667446c0.0488281-0.0244141,0.1357422-0.0444336,0.2602539-0.0595703
			c-0.2041016-0.1982422-0.3061523-0.4350586-0.3061523-0.7099609c0-0.2456055,0.0693359-0.4472656,0.2070313-0.6044922
			c0.1376953-0.1577148,0.3125-0.2363281,0.5239258-0.2363281c0.2573242,0,0.4575195,0.0986328,0.5996094,0.2963867
			c0.1425781,0.1972656,0.2138672,0.4746094,0.2138672,0.8325195v0.4145508h0.1938477
			c0.1479492,0,0.265625-0.0444336,0.3530273-0.1333008c0.0874023-0.0893555,0.1313477-0.2207031,0.1313477-0.394043
			c0-0.1518555-0.0380859-0.2797852-0.1142578-0.3823242c-0.0761719-0.1030273-0.1679688-0.1542969-0.2763672-0.1542969v-0.4287109
			c0.1235352,0,0.2426758,0.0439453,0.3574219,0.1323242c0.1152344,0.0883789,0.2060547,0.2084961,0.2729492,0.359375
			c0.0668945,0.1513672,0.1005859,0.3178711,0.1005859,0.4990234c0,0.2871094-0.0712891,0.512207-0.2133789,0.6748047
			c-0.1425781,0.1630859-0.3383789,0.2475586-0.5883789,0.253418h-1.137207c-0.2270508,0-0.4077148,0.0292969-0.5415039,0.0878906
			h-0.0366211V25.7667446z M51.8770065,25.0597134c0,0.1333008,0.0341797,0.2602539,0.1025391,0.3798828
			c0.0683594,0.1201172,0.1577148,0.206543,0.2670898,0.2602539h0.5073242v-0.3339844
			c0-0.5219727-0.1513672-0.7832031-0.4545898-0.7832031c-0.1323242,0-0.2358398,0.0444336-0.3105469,0.1337891
			C51.9141159,24.8053188,51.8770065,24.9200649,51.8770065,25.0597134z"/>
		<path class="st3" d="M52.6284714,28.7823696v-0.2993164h-1.0737305v-0.4262695h1.0737305v-0.2993164l-1.0737305-0.6982422
			v-0.5390625l1.2792969,0.8916016l1.1923828-0.8061523v0.5161133l-1.0234375,0.6425781v0.2924805h1.0234375v0.4262695h-1.0234375
			v0.2900391l1.0234375,0.6474609v0.5161133l-1.1948242-0.8085938l-1.2768555,0.8916016v-0.5390625L52.6284714,28.7823696z"/>
		<path class="st3" d="M51.5547409,32.442524v-0.4257813h1.0551758v-1.1445293h-1.0551758v-0.4287109h2.4716797v0.4287109
			h-1.0712891v1.1445293h1.0712891v0.4257813H51.5547409z"/>
		<path class="st3" d="M52.81353,33.013813c0.2416992,0,0.4594727,0.0478516,0.652832,0.1435547
			s0.3427734,0.2294922,0.4477539,0.4013672c0.1054688,0.1708984,0.1577148,0.3662109,0.1577148,0.5859375
			c0,0.3398438-0.1162109,0.6142578-0.3496094,0.8232422c-0.2329102,0.2099609-0.5424805,0.3144531-0.9296875,0.3144531H52.763237
			c-0.2407227,0-0.456543-0.0458984-0.6479492-0.1386719c-0.190918-0.09375-0.3398438-0.2265625-0.4462891-0.3984375
			c-0.1064453-0.1728516-0.1601563-0.3720703-0.1601563-0.5957031c0-0.3378906,0.1166992-0.6123047,0.3496094-0.8212891
			c0.2329102-0.2099609,0.5415039-0.3144531,0.925293-0.3144531H52.81353z M52.763237,33.4415474
			c-0.2744141,0-0.4941406,0.0644531-0.6601563,0.1923828c-0.1660156,0.1289063-0.2490234,0.2998047-0.2490234,0.515625
			s0.0839844,0.3886719,0.2524414,0.515625c0.1679688,0.1279297,0.4038086,0.1914063,0.7070313,0.1914063
			c0.2709961,0,0.4907227-0.0654297,0.6586914-0.1943359c0.168457-0.1298828,0.2524414-0.3027344,0.2524414-0.5175781
			c0-0.2109375-0.0830078-0.3798828-0.2490234-0.5087891S53.072319,33.4415474,52.763237,33.4415474z"/>
		<path class="st3" d="M51.8540573,36.817524c0,0.1523438,0.0454102,0.2851563,0.1367188,0.3984375
			c0.0917969,0.1142578,0.2060547,0.1767578,0.3427734,0.1894531v0.4023438
			c-0.1416016-0.0068359-0.2763672-0.0566406-0.4042969-0.1464844c-0.1279297-0.0908203-0.2299805-0.2119141-0.3061523-0.3632813
			s-0.1142578-0.3115234-0.1142578-0.4804688c0-0.3388672,0.1123047-0.609375,0.3369141-0.8095703
			s0.5322266-0.3007813,0.921875-0.3007813h0.0708008c0.2407227,0,0.4545898,0.0449219,0.6420898,0.1337891
			c0.1870117,0.0888672,0.3325195,0.2167969,0.4360352,0.3837891c0.1035156,0.1660156,0.1552734,0.3632813,0.1552734,0.5908203
			c0,0.2792969-0.0830078,0.5117188-0.2490234,0.6962891c-0.1660156,0.1855469-0.3813477,0.2841797-0.6464844,0.2958984v-0.4023438
			c0.1601563-0.0126953,0.2915039-0.0732422,0.394043-0.1835938c0.1030273-0.109375,0.1542969-0.2451172,0.1542969-0.40625
			c0-0.2167969-0.0771484-0.3847656-0.2319336-0.5039063c-0.1542969-0.1191406-0.3779297-0.1787109-0.6704102-0.1787109h-0.0795898
			c-0.2851563,0-0.5043945,0.0595703-0.6582031,0.1777344S51.8540573,36.5977974,51.8540573,36.817524z"/>
		<path class="st3" d="M53.6836472,40.1397896v-0.8359375h-2.1289063v-0.4267578h2.1289063v-0.8203125h0.3427734v2.0830078
			H53.6836472z"/>
		<path class="st3" d="M53.1743698,41.0196724v0.6474609c-0.003418,0.2822266-0.0761719,0.5058594-0.2192383,0.6699219
			c-0.1435547,0.1640625-0.3374023,0.2470703-0.5825195,0.2470703c-0.2470703,0-0.4448242-0.0849609-0.5942383-0.2539063
			c-0.1489258-0.1689453-0.2236328-0.3964844-0.2236328-0.6816406v-1.0556641h2.4716797v0.4267578H53.1743698z
			 M52.829155,41.0196724h-0.9296875v0.6337891c0,0.1591797,0.0410156,0.2832031,0.1225586,0.3701172
			c0.0810547,0.0878906,0.1928711,0.1318359,0.3344727,0.1318359c0.137207,0,0.2495117-0.0429688,0.3369141-0.1279297
			s0.1328125-0.2050781,0.1357422-0.3583984V41.0196724z"/>
		<path class="st3" d="M46.9580612,25.7105923v-0.4262695h2.1220703v-1.1469727h-2.1220703v-0.4287109h2.4716797v2.0019531
			H46.9580612z"/>
		<path class="st3" d="M48.2168503,26.2818813c0.2416992,0,0.4594727,0.0483398,0.652832,0.144043
			c0.1933594,0.0961914,0.3427734,0.2294922,0.4477539,0.4008789c0.1054688,0.1713867,0.1577148,0.3666992,0.1577148,0.5864258
			c0,0.3393555-0.1162109,0.6137695-0.3496094,0.8237305c-0.2329102,0.2094727-0.5424805,0.3144531-0.9296875,0.3144531h-0.0292969
			c-0.2407227,0-0.456543-0.0463867-0.6479492-0.1396484c-0.190918-0.0927734-0.3398438-0.2255859-0.4462891-0.3984375
			s-0.1601563-0.3710938-0.1601563-0.5957031c0-0.3378906,0.1166992-0.6113281,0.3496094-0.8212891
			c0.2329102-0.2094727,0.5415039-0.3144531,0.925293-0.3144531H48.2168503z M48.1665573,26.7105923
			c-0.2744141,0-0.4941406,0.0639648-0.6601563,0.1923828c-0.1660156,0.1279297-0.2490234,0.2998047-0.2490234,0.5146484
			c0,0.2167969,0.0839844,0.3886719,0.2524414,0.5161133c0.1679688,0.1274414,0.4038086,0.1914063,0.7070313,0.1914063
			c0.2709961,0,0.4907227-0.0649414,0.6586914-0.1948242c0.168457-0.1298828,0.2524414-0.3022461,0.2524414-0.5170898
			c0-0.2104492-0.0830078-0.3803711-0.2490234-0.5092773S48.4756393,26.7105923,48.1665573,26.7105923z"/>
		<path class="st3" d="M46.9580612,30.9679165v-0.4282227h0.8955078c-0.0488281-0.1875-0.0732422-0.3793945-0.0732422-0.5761719
			c0-0.3115234,0.0791016-0.5493164,0.237793-0.7128906c0.1582031-0.1635742,0.3833008-0.2470703,0.6757813-0.25h0.737793v0.4262695
			h-0.7514648c-0.3686523,0.0078125-0.5527344,0.1865234-0.5527344,0.5366211c0,0.1967773,0.0244141,0.3886719,0.0732422,0.5761719
			h1.2290039v0.4282227H46.9580612z"/>
		<path class="st3" d="M46.9580612,31.6886196h2.4716797v0.9716778c0,0.3320313-0.0576172,0.5869141-0.1728516,0.7636719
			c-0.1147461,0.1777344-0.2832031,0.265625-0.5058594,0.265625c-0.1142578,0-0.2172852-0.0332031-0.3095703-0.1035156
			c-0.0917969-0.0683594-0.1625977-0.1699219-0.2109375-0.3056641c-0.0351563,0.1513672-0.1035156,0.2705078-0.2055664,0.3623047
			s-0.2241211,0.1367188-0.3657227,0.1367188c-0.2270508,0-0.4003906-0.0839844-0.5205078-0.2519531
			c-0.1206055-0.1679688-0.1806641-0.4052734-0.1806641-0.7128906V31.6886196z M48.0430222,32.1153755h-0.7446289v0.7041016
			c0,0.1787109,0.0327148,0.3115234,0.0981445,0.3994141c0.0654297,0.0888672,0.1577148,0.1328125,0.2763672,0.1328125
			c0.246582,0,0.3701172-0.1826172,0.3701172-0.5488281V32.1153755z M48.3809128,32.1153755v0.5498047
			c0,0.3994141,0.1157227,0.5986328,0.347168,0.5986328s0.3510742-0.1884766,0.3588867-0.5664063v-0.5820313H48.3809128z"/>
		<path class="st3" d="M48.5776901,34.8097115v0.6474609c-0.003418,0.2822266-0.0761719,0.5058594-0.2192383,0.6699219
			c-0.1435547,0.1640625-0.3374023,0.2470703-0.5825195,0.2470703c-0.2470703,0-0.4448242-0.0849609-0.5942383-0.2539063
			c-0.1489258-0.1689453-0.2236328-0.3964844-0.2236328-0.6816406v-1.0556641h2.4716797v0.4267578H48.5776901z
			 M46.9580612,37.2628365v-0.4287109h2.4716797v0.4287109H46.9580612z M48.2324753,34.8097115h-0.9296875v0.6337891
			c0,0.1591797,0.0410156,0.2832031,0.1225586,0.3701172c0.0810547,0.0878906,0.1928711,0.1318359,0.3344727,0.1318359
			c0.137207,0,0.2495117-0.0429688,0.3369141-0.1279297s0.1328125-0.2050781,0.1357422-0.3583984V34.8097115z"/>
	</g>
</g>
<g id="Колодка">
	<g>
		<path class="st3" d="M22.8042526,23.6637173c0,0.3588867-0.0810547,0.640625-0.2441406,0.8447266
			c-0.1630859,0.2045898-0.3876953,0.3066406-0.6748047,0.3066406c-0.1582031,0-0.2958984-0.0429688-0.4121094-0.128418
			s-0.2099609-0.2104492-0.2822266-0.3754883c-0.0546875,0.1865234-0.1455078,0.3208008-0.2724609,0.402832
			c-0.1269531,0.081543-0.2841797,0.1225586-0.4726563,0.1225586h-0.1591797c-0.0693359,0-0.1220703,0.0136719-0.1601563,0.0415039
			c-0.0380859,0.0273438-0.0605469,0.0732422-0.0683594,0.1367188l-0.0107422,0.078125h-0.3789063v-0.328125
			c0-0.2070313,0.0556641-0.3525391,0.1660156-0.4365234s0.2529297-0.1259766,0.4287109-0.1259766h0.1787109
			c0.1523438,0,0.2714844-0.0410156,0.3583984-0.1225586c0.0869141-0.0820313,0.1328125-0.1972656,0.1367188-0.3466797v-0.519043
			h-0.8271484l-0.0644531,0.3388672h-0.3769531v-1.3100586h0.3769531l0.0644531,0.3369141h2.2509766l0.0644531-0.3369141h0.3789063
			v0.3369141V23.6637173z M21.4214401,23.2140102v0.4389648c0,0.1762695,0.0380859,0.309082,0.1123047,0.3974609
			s0.1826172,0.1323242,0.3232422,0.1323242s0.2529297-0.0439453,0.3369141-0.1313477
			c0.0839844-0.0878906,0.1259766-0.2167969,0.1259766-0.3876953v-0.449707H21.4214401z"/>
		<path class="st3" d="M22.8042526,26.5743618h-0.3789063l-0.0644531-0.3388672h-1.6367188
			c-0.2070313,0-0.3613281,0.0561523-0.4648438,0.168457c-0.1025391,0.1123047-0.1533203,0.2661133-0.1533203,0.4614258
			c0,0.1987305,0.0507813,0.3544922,0.1523438,0.4672852c0.1025391,0.112793,0.2578125,0.1694336,0.4658203,0.1694336h1.6367188
			l0.0644531-0.3369141h0.3789063v1.3100586h-0.3789063l-0.0644531-0.3388672h-1.6367188
			c-0.3525391,0-0.6230469-0.1166992-0.8144531-0.3505859s-0.2861328-0.5410156-0.2861328-0.9204102
			c0-0.3779297,0.0947266-0.6831055,0.2861328-0.9155273s0.4619141-0.3486328,0.8144531-0.3486328h1.6367188l0.0644531-0.3364258
			h0.3789063v0.3364258v0.6342773V26.5743618z"/>
		<path class="st3" d="M21.8032761,31.0655727v-0.4765625l0.4306641-0.0825195
			c0.0341797-0.0546875,0.0644531-0.1352539,0.0898438-0.2407227c0.0263672-0.105957,0.0390625-0.2182617,0.0390625-0.3369141
			c0-0.1738281-0.0361328-0.3081055-0.1083984-0.402832c-0.0722656-0.0952148-0.1660156-0.1425781-0.28125-0.1425781
			c-0.1064453,0-0.1933594,0.0498047-0.2617188,0.1489258s-0.140625,0.2705078-0.2167969,0.5136719
			c-0.0957031,0.3491211-0.2226563,0.6137695-0.3808594,0.7939453c-0.1582031,0.1806641-0.3652344,0.2705078-0.6220703,0.2705078
			c-0.2685547,0-0.4804688-0.1069336-0.6357422-0.3212891s-0.2324219-0.4970703-0.2324219-0.847168
			c0-0.2509766,0.0390625-0.4770508,0.1181641-0.6791992c0.0791016-0.2016602,0.1884766-0.3701172,0.3271484-0.5048828h0.6552734
			v0.4907227l-0.4462891,0.0673828c-0.0517578,0.0639648-0.0947266,0.1503906-0.1279297,0.2597656
			c-0.0341797,0.109375-0.0507813,0.2314453-0.0507813,0.3662109c0,0.1738281,0.0351563,0.3056641,0.1054688,0.3964844
			c0.0703125,0.090332,0.1650391,0.1357422,0.2822266,0.1357422c0.1210938,0,0.2177734-0.043457,0.2910156-0.1293945
			c0.0732422-0.0864258,0.1416016-0.2373047,0.2070313-0.453125c0.1074219-0.375,0.2353516-0.6586914,0.3828125-0.8515625
			c0.1484375-0.1923828,0.3505859-0.2885742,0.6074219-0.2885742c0.2539063,0,0.4619141,0.1083984,0.6240234,0.3256836
			c0.1611328,0.2172852,0.2441406,0.4902344,0.2480469,0.8188477c0,0.2431641-0.0361328,0.4648438-0.109375,0.6650391
			c-0.0732422,0.199707-0.1708984,0.3676758-0.2929688,0.5043945H21.8032761z"/>
		<path class="st3" d="M21.8032761,33.7628365v-0.4746094l0.4306641-0.0839844
			c0.0341797-0.0546875,0.0644531-0.1347656,0.0898438-0.2402344c0.0263672-0.1054688,0.0390625-0.21875,0.0390625-0.3378906
			c0-0.1738281-0.0361328-0.3066406-0.1083984-0.4023438c-0.0722656-0.0947266-0.1660156-0.1416016-0.28125-0.1416016
			c-0.1064453,0-0.1933594,0.0498047-0.2617188,0.1484375s-0.140625,0.2705078-0.2167969,0.5146484
			c-0.0957031,0.3476563-0.2226563,0.6132813-0.3808594,0.7929688s-0.3652344,0.2714844-0.6220703,0.2714844
			c-0.2685547,0-0.4804688-0.1074219-0.6357422-0.3222656s-0.2324219-0.4960938-0.2324219-0.8476563
			c0-0.25,0.0390625-0.4765625,0.1181641-0.678709c0.0791016-0.2011719,0.1884766-0.3701172,0.3271484-0.5048828h0.6552734
			v0.4912109l-0.4462891,0.0673809c-0.0517578,0.0634766-0.0947266,0.1503906-0.1279297,0.2597656
			c-0.0341797,0.109375-0.0507813,0.2304688-0.0507813,0.3652344c0,0.1738281,0.0351563,0.3066406,0.1054688,0.3964844
			s0.1650391,0.1367188,0.2822266,0.1367188c0.1210938,0,0.2177734-0.0429688,0.2910156-0.1308594
			c0.0732422-0.0859375,0.1416016-0.2363281,0.2070313-0.4511719c0.1074219-0.3759766,0.2353516-0.6591778,0.3828125-0.8525372
			c0.1484375-0.1923828,0.3505859-0.2880859,0.6074219-0.2880859c0.2539063,0,0.4619141,0.1083984,0.6240234,0.3251953
			c0.1611328,0.2177734,0.2441406,0.4892559,0.2480469,0.819334c0,0.2421875-0.0361328,0.4648438-0.109375,0.6640625
			s-0.1708984,0.3671875-0.2929688,0.5039063H21.8032761z"/>
		<path class="st3" d="M22.4253464,34.0558052h0.3789063v1.3105469h-0.3789063l-0.0644531-0.3388672h-2.2509766
			l-0.0644531,0.3388672h-0.3769531v-1.3105469h0.3769531l0.0644531,0.3388672h2.2509766L22.4253464,34.0558052z"/>
		<path class="st3" d="M20.0454636,35.5743599l0.0322266,0.2265625l2.7265625,0.9619141v0.6494141l-2.7265625,0.9560547
			l-0.0322266,0.2255859h-0.3769531v-1.0771484h0.3769531l0.0390625,0.2197266l0.4306641-0.1396484v-1.0253906l-0.4306641-0.1386719
			l-0.0390625,0.2197266h-0.3769531v-1.078125H20.0454636z M20.9780807,36.7218208v0.7255859l1.1044922-0.3564453v-0.0126953
			L20.9780807,36.7218208z"/>
	</g>
	<rect x="40.9711342" y="27.9116039" class="st3" width="4.706789" height="4.7067871"/>
	<g>
		<path class="st4" d="M42.2544479,28.8185024l0.03125,0.2255859l2.7226563,1.0629883v0.3530273l-2.7226563,1.0439453
			l-0.03125,0.2236328h-0.2607422v-0.8730469h0.2607422l0.0390625,0.2294922l0.5556641-0.2001953V29.666647l-0.5556641-0.2070313
			l-0.0390625,0.2299805h-0.2607422v-0.8710938H42.2544479z M43.1899948,29.7936001v0.9648438l1.2949219-0.4716797v-0.0126953
			L43.1899948,29.7936001z"/>
	</g>
	<path class="st5" d="M24.1183605,19.6681957c0.0002022-0.0916138,0.0003071-0.1396847,0.0003071-0.1396847l15.5419617-0.0391426
		c0,0,0.0264893-0.0000668,0.0529785-0.0001335c-0.000061,0.0282974-0.0001221,0.0565948-0.0001221,0.0565948l-0.0478134,21.6945534
		c0,0-0.0000267,0.0124207-0.0000763,0.034481c-2.1060257,0.0053024-15.2590637,0.0384293-15.2590637,0.0384293
		s-0.1679382,0.0004234-0.3358765,0.000843c0.0001011-0.045536,0.0002022-0.0910721,0.0002022-0.0910721
		S24.1142731,21.5228519,24.1183605,19.6681957z"/>
	<line class="st5" x1="39.6815948" y1="34.0152245" x2="24.0876732" y2="34.0152245"/>
	<line class="st5" x1="39.6975441" y1="26.7786827" x2="24.1046772" y2="26.7786827"/>
	<path class="st5" d="M35.9874039,33.4710045"/>
	<path class="st5" d="M53.852951,33.4259567"/>
	<path class="st6" d="M27.9473133,25.4417229c-1.2273617,0-2.2224731-1.0018463-2.2224731-2.2397385
		s0.9951115-2.2415428,2.2224731-2.2415428c1.2273636,0,2.2224751,1.0036507,2.2224751,2.2415428
		S29.1746769,25.4417229,27.9473133,25.4417229z"/>
	<ellipse class="st7" cx="27.9473133" cy="23.2010822" rx="1.5185719" ry="1.531601"/>
	<path class="st6" d="M27.9473133,32.6417198c-1.2273617,0-2.2224731-1.0018444-2.2224731-2.2397366
		c0-1.2378902,0.9951115-2.2415409,2.2224731-2.2415409c1.2273636,0,2.2224751,1.0036507,2.2224751,2.2415409
		C30.1697884,31.6398754,29.1746769,32.6417198,27.9473133,32.6417198z"/>
	<ellipse class="st7" cx="27.9473133" cy="30.401083" rx="1.5185719" ry="1.531601"/>
	<path class="st6" d="M29.5762348,39.2291527c-2.022913,1.5395088-4.2713051-0.1709862-3.7840004-2.1831703
		c0.1875343-0.7743721,0.8210773-1.4096413,1.5950565-1.5987854C29.398922,34.9556007,31.1166344,37.2046623,29.5762348,39.2291527z
		"/>
	<ellipse class="st7" cx="27.9473133" cy="37.6010818" rx="1.5185719" ry="1.531601"/>
	<g>
		<path class="st3" d="M33.4771042,25.6686001c-0.1582031-0.152832-0.3076172-0.3779297-0.4482422-0.6757813
			s-0.2109375-0.6845703-0.2109375-1.1611328c0-0.6958008,0.2421875-1.2631836,0.7265625-1.7026367
			c0.4833984-0.4394531,1.1123047-0.6591797,1.8847656-0.6591797h0.0849609c0.7763672,0,1.40625,0.2172852,1.8876953,0.6518555
			c0.4824219,0.4345703,0.7236328,1.0131836,0.7236328,1.7348633c0,0.3862305-0.0605469,0.7246094-0.1796875,1.0166016
			s-0.2763672,0.5380859-0.4726563,0.737793h-0.9355469v-0.4931641l0.7119141-0.1713867
			c0.0947266-0.1166992,0.1728516-0.2578125,0.234375-0.4233398s0.0917969-0.3637695,0.0917969-0.5952148
			c0-0.5620117-0.1904297-0.9951172-0.5722656-1.2988281c-0.3808594-0.3037109-0.875-0.4555664-1.4824219-0.4555664h-0.0917969
			c-0.6171875,0-1.1152344,0.1469727-1.4951172,0.4414063c-0.3808594,0.2944336-0.5703125,0.699707-0.5703125,1.2167969
			c0,0.2832031,0.0292969,0.515625,0.0878906,0.6967773c0.0595703,0.1811523,0.1240234,0.3261719,0.1953125,0.4360352h1.1298828
			l0.0351563-0.8540039h0.5136719v1.5581055H33.4771042z"/>
	</g>
	<g>
		<path class="st3" d="M37.4917526,29.5860806l-0.0751953-0.4750977l-3.3515625,1.1650391l-0.4072266,0.1176758v0.0214844
			l0.4072266,0.1181641l3.3554688,1.1611328l0.0712891-0.46875h0.4492188v1.6406231h-0.4492188l-0.0566406-0.4179688
			l-4.6523438-1.7436504V30.100729l4.6523438-1.7436523l0.0566406-0.4145508h0.4492188v1.6435547H37.4917526z"/>
	</g>
	<g>
		<path class="st3" d="M36.4175339,39.3985786v-0.5322266l0.7373047-0.1328125
			c0.0898438-0.1074219,0.1640625-0.25,0.2236328-0.4287109c0.0585938-0.1787109,0.0878906-0.3857422,0.0878906-0.6220703
			c0-0.3740234-0.078125-0.6611328-0.2353516-0.8603516c-0.1572266-0.2001953-0.3623047-0.3007813-0.6142578-0.3007813
			c-0.2246094,0-0.4121094,0.1015625-0.5625,0.3056641c-0.1494141,0.2041016-0.28125,0.5332031-0.3945313,0.9882813
			c-0.1347656,0.5478516-0.3330078,0.9638672-0.5957031,1.2490234c-0.2617188,0.2841797-0.5869141,0.4267578-0.9736328,0.4267578
			c-0.4160156,0-0.75-0.1708984-1.0029297-0.5126953s-0.3789063-0.7890625-0.3789063-1.3417969
			c0-0.4003906,0.0644531-0.7558594,0.1943359-1.0664063c0.1298828-0.3115234,0.2998047-0.5644531,0.5107422-0.7597656h0.9599609
			v0.5292969l-0.7402344,0.1357422c-0.1113281,0.1357422-0.2021484,0.2978516-0.2734375,0.4853516
			c-0.0703125,0.1884766-0.1054688,0.4130859-0.1054688,0.6757813c0,0.3544922,0.0742188,0.6357422,0.2226563,0.8417969
			s0.3505859,0.3085938,0.6054688,0.3085938c0.2363281,0,0.4345703-0.0888672,0.59375-0.2675781
			s0.2939453-0.4951172,0.4023438-0.9472656c0.1298828-0.5507813,0.3212891-0.9804688,0.5742188-1.2900391
			c0.2519531-0.3095703,0.5703125-0.4648438,0.953125-0.4648438c0.4033203,0,0.7392578,0.1728516,1.0078125,0.5185547
			c0.2675781,0.3457031,0.4023438,0.7939453,0.4023438,1.3466797c0,0.3652344-0.0625,0.6962891-0.1865234,0.9951172
			c-0.1240234,0.2998047-0.2744141,0.5390625-0.4511719,0.7207031H36.4175339z"/>
	</g>
	<path class="st6" d="M197.1823425,12.4177771c-0.908783,0-1.6455994-0.7418022-1.6455994-1.6583805
		c0-0.9165792,0.7368164-1.6597166,1.6455994-1.6597166s1.6455994,0.7431374,1.6455994,1.6597166
		C198.8279419,11.6759748,198.0911255,12.4177771,197.1823425,12.4177771z"/>
	<ellipse class="st7" cx="197.1823425" cy="10.758729" rx="1.1244049" ry="1.1340504"/>
	<path class="st6" d="M197.1823425,52.5900154c-0.908783,0-1.6455994-0.7418022-1.6455994-1.6583786
		c0-0.9165802,0.7368164-1.6597176,1.6455994-1.6597176s1.6455994,0.7431374,1.6455994,1.6597176
		C198.8279419,51.8482132,198.0911255,52.5900154,197.1823425,52.5900154z"/>
	<ellipse class="st7" cx="197.1823425" cy="50.9309692" rx="1.1244049" ry="1.1340485"/>
</g>
<g id="Резисторы">
	<g id="R2">
		<g>
			<g id="XMLID_4_">
				<g>
					<rect x="49.9131584" y="48.7513771" class="st8" width="3.4376602" height="4.2554779"/>
				</g>
			</g>
			<g id="XMLID_3_">
				<g>
					<rect x="57.0416107" y="48.7106628" class="st8" width="3.4376602" height="4.2554779"/>
				</g>
			</g>
			<g id="XMLID_2_">
				<g>
					<rect x="52.6457558" y="49.0611534" class="st9" width="5.1633415" height="3.6058273"/>
				</g>
			</g>
			<g>
				<path class="st10" d="M54.2876511,51.4083443h-0.6967773v-0.1318359h0.2680664v-0.8623047h-0.2680664v-0.1171875
					c0.0361328,0,0.0751953-0.0039063,0.1166992-0.0097656s0.0727539-0.0146484,0.0942383-0.0263672
					c0.0263672-0.0136719,0.0473633-0.0322266,0.0625-0.0546875c0.015625-0.0224609,0.0244141-0.0517578,0.0263672-0.0898438
					h0.1342773v1.1601563h0.2626953V51.4083443z"/>
				<path class="st10" d="M55.3076706,50.763813c0,0.2314453-0.0361328,0.4013672-0.1083984,0.5087891
					c-0.0722656,0.1083984-0.1845703,0.1621094-0.3369141,0.1621094c-0.1542969,0-0.2670898-0.0546875-0.3383789-0.1640625
					s-0.1064453-0.2773438-0.1064453-0.5048828c0-0.2285156,0.0356445-0.3974609,0.1079102-0.5068359
					c0.0717773-0.109375,0.184082-0.1640625,0.3369141-0.1640625c0.1542969,0,0.2670898,0.0556641,0.3383789,0.1669922
					C55.2720261,50.3722115,55.3076706,50.5401802,55.3076706,50.763813z M55.0801315,51.1563911
					c0.0205078-0.046875,0.0341797-0.1015625,0.0410156-0.1640625c0.0073242-0.0634766,0.0107422-0.1396484,0.0107422-0.2285156
					c0-0.0869141-0.003418-0.1630859-0.0107422-0.2275391c-0.0068359-0.0644531-0.0209961-0.1191406-0.0419922-0.1640625
					c-0.0200195-0.0449219-0.0473633-0.078125-0.0825195-0.1005859c-0.034668-0.0224609-0.0795898-0.0341797-0.1342773-0.0341797
					c-0.0541992,0-0.0991211,0.0117188-0.1342773,0.0341797c-0.0356445,0.0224609-0.0634766,0.0566406-0.0844727,0.1015625
					c-0.0195313,0.0429688-0.0327148,0.0986328-0.0400391,0.1669922s-0.0107422,0.1435547-0.0107422,0.2255859
					c0,0.0898438,0.0029297,0.1650391,0.0092773,0.2255859s0.0200195,0.1152344,0.0410156,0.1630859
					c0.0185547,0.0449219,0.0458984,0.0791016,0.0805664,0.1025391s0.0810547,0.0351563,0.1386719,0.0351563
					c0.0541992,0,0.0991211-0.0107422,0.1347656-0.0332031S55.0606003,51.2022896,55.0801315,51.1563911z"/>
				<path class="st10" d="M56.2564011,50.763813c0,0.2314453-0.0361328,0.4013672-0.1083984,0.5087891
					c-0.0722656,0.1083984-0.1845703,0.1621094-0.3369141,0.1621094c-0.1542969,0-0.2670898-0.0546875-0.3383789-0.1640625
					s-0.1064453-0.2773438-0.1064453-0.5048828c0-0.2285156,0.0356445-0.3974609,0.1079102-0.5068359
					c0.0717773-0.109375,0.184082-0.1640625,0.3369141-0.1640625c0.1542969,0,0.2670898,0.0556641,0.3383789,0.1669922
					C56.2207565,50.3722115,56.2564011,50.5401802,56.2564011,50.763813z M56.028862,51.1563911
					c0.0205078-0.046875,0.0341797-0.1015625,0.0410156-0.1640625c0.0073242-0.0634766,0.0107422-0.1396484,0.0107422-0.2285156
					c0-0.0869141-0.003418-0.1630859-0.0107422-0.2275391c-0.0068359-0.0644531-0.0209961-0.1191406-0.0419922-0.1640625
					c-0.0200195-0.0449219-0.0473633-0.078125-0.0825195-0.1005859c-0.034668-0.0224609-0.0795898-0.0341797-0.1342773-0.0341797
					c-0.0541992,0-0.0991211,0.0117188-0.1342773,0.0341797c-0.0356445,0.0224609-0.0634766,0.0566406-0.0844727,0.1015625
					c-0.0195313,0.0429688-0.0327148,0.0986328-0.0400391,0.1669922s-0.0107422,0.1435547-0.0107422,0.2255859
					c0,0.0898438,0.0029297,0.1650391,0.0092773,0.2255859s0.0200195,0.1152344,0.0410156,0.1630859
					c0.0185547,0.0449219,0.0458984,0.0791016,0.0805664,0.1025391s0.0810547,0.0351563,0.1386719,0.0351563
					c0.0541992,0,0.0991211-0.0107422,0.1347656-0.0332031S56.0093307,51.2022896,56.028862,51.1563911z"/>
				<path class="st10" d="M57.2061081,51.4083443h-0.8710938v-0.1806641c0.0605469-0.0517578,0.1210938-0.1035156,0.1821289-0.15625
					c0.0605469-0.0517578,0.1171875-0.1025391,0.1694336-0.1542969c0.1108398-0.1074219,0.1865234-0.1923828,0.2275391-0.2558594
					c0.0410156-0.0625,0.0615234-0.1308594,0.0615234-0.2041016c0-0.0664063-0.0219727-0.1191406-0.0664063-0.15625
					c-0.0439453-0.0380859-0.1054688-0.0566406-0.1845703-0.0566406c-0.0522461,0-0.1088867,0.0087891-0.1699219,0.0273438
					s-0.1210938,0.046875-0.1791992,0.0849609h-0.0087891v-0.1816406c0.0410156-0.0205078,0.0957031-0.0390625,0.1640625-0.0556641
					s0.1342773-0.0253906,0.1982422-0.0253906c0.1318359,0,0.2353516,0.0322266,0.3105469,0.0957031
					c0.074707,0.0634766,0.1123047,0.1503906,0.1123047,0.2587891c0,0.0488281-0.0063477,0.0947266-0.0185547,0.1376953
					c-0.0126953,0.0419922-0.0307617,0.0820313-0.0551758,0.1201172c-0.0224609,0.0361328-0.0488281,0.0712891-0.0791016,0.1054688
					s-0.0668945,0.0732422-0.1098633,0.1152344c-0.0620117,0.0605469-0.1254883,0.1191406-0.1914063,0.1757813
					c-0.0654297,0.0566406-0.1269531,0.109375-0.184082,0.1572266h0.6923828V51.4083443z"/>
			</g>
		</g>
	</g>
	<g id="R1">
		<g>
			<g id="XMLID_12_">
				<g>
					<rect x="49.8821754" y="6.8953762" class="st8" width="3.4376602" height="4.255477"/>
				</g>
			</g>
			<g id="XMLID_11_">
				<g>
					<rect x="57.0106316" y="6.8546619" class="st8" width="3.4376602" height="4.255477"/>
				</g>
			</g>
			<g id="XMLID_10_">
				<g>
					<rect x="52.6147728" y="7.2051554" class="st9" width="5.1633415" height="3.6058264"/>
				</g>
			</g>
			<g>
				<path class="st10" d="M54.2564011,9.5519009h-0.6967773V9.4210415h0.2680664V8.5577602h-0.2680664V8.4405727
					c0.0361328,0,0.0751953-0.0029297,0.1166992-0.0087891s0.0727539-0.0146484,0.0942383-0.0263672
					c0.0263672-0.0146484,0.0473633-0.0332031,0.0625-0.0546875c0.015625-0.0224609,0.0244141-0.0527344,0.0263672-0.0898438
					h0.1342773v1.1601563h0.2626953V9.5519009z"/>
				<path class="st10" d="M55.2764206,8.9083462c0,0.2304688-0.0361328,0.4003906-0.1083984,0.5087891
					c-0.0722656,0.1074219-0.1845703,0.1621094-0.3369141,0.1621094c-0.1542969,0-0.2670898-0.0546875-0.3383789-0.1640625
					c-0.0712891-0.1103516-0.1064453-0.2783203-0.1064453-0.5048828c0-0.2294922,0.0356445-0.3984375,0.1079102-0.5068359
					c0.0717773-0.109375,0.184082-0.1640625,0.3369141-0.1640625c0.1542969,0,0.2670898,0.0556641,0.3383789,0.1660156
					C55.2407761,8.5167446,55.2764206,8.6837368,55.2764206,8.9083462z M55.0488815,9.3009243
					c0.0205078-0.046875,0.0341797-0.1015625,0.0410156-0.1650391c0.0073242-0.0634766,0.0107422-0.1386719,0.0107422-0.2275391
					c0-0.0878906-0.003418-0.1640625-0.0107422-0.2285156c-0.0068359-0.0644531-0.0209961-0.1191406-0.0419922-0.1640625
					c-0.0200195-0.0439453-0.0473633-0.078125-0.0825195-0.1005859c-0.034668-0.0224609-0.0795898-0.0332031-0.1342773-0.0332031
					c-0.0541992,0-0.0991211,0.0107422-0.1342773,0.0332031c-0.0356445,0.0224609-0.0634766,0.0566406-0.0844727,0.1025391
					c-0.0195313,0.0419922-0.0327148,0.0976563-0.0400391,0.1669922c-0.0073242,0.0683594-0.0107422,0.1435547-0.0107422,0.2255859
					c0,0.0898438,0.0029297,0.1650391,0.0092773,0.2255859s0.0200195,0.1142578,0.0410156,0.1621094
					c0.0185547,0.0449219,0.0458984,0.0791016,0.0805664,0.1025391c0.034668,0.0244141,0.0810547,0.0361328,0.1386719,0.0361328
					c0.0541992,0,0.0991211-0.0117188,0.1347656-0.0341797S55.0293503,9.3458462,55.0488815,9.3009243z"/>
				<path class="st10" d="M56.2251511,8.9083462c0,0.2304688-0.0361328,0.4003906-0.1083984,0.5087891
					c-0.0722656,0.1074219-0.1845703,0.1621094-0.3369141,0.1621094c-0.1542969,0-0.2670898-0.0546875-0.3383789-0.1640625
					c-0.0712891-0.1103516-0.1064453-0.2783203-0.1064453-0.5048828c0-0.2294922,0.0356445-0.3984375,0.1079102-0.5068359
					c0.0717773-0.109375,0.184082-0.1640625,0.3369141-0.1640625c0.1542969,0,0.2670898,0.0556641,0.3383789,0.1660156
					C56.1895065,8.5167446,56.2251511,8.6837368,56.2251511,8.9083462z M55.997612,9.3009243
					c0.0205078-0.046875,0.0341797-0.1015625,0.0410156-0.1650391c0.0073242-0.0634766,0.0107422-0.1386719,0.0107422-0.2275391
					c0-0.0878906-0.003418-0.1640625-0.0107422-0.2285156c-0.0068359-0.0644531-0.0209961-0.1191406-0.0419922-0.1640625
					c-0.0200195-0.0439453-0.0473633-0.078125-0.0825195-0.1005859c-0.034668-0.0224609-0.0795898-0.0332031-0.1342773-0.0332031
					c-0.0541992,0-0.0991211,0.0107422-0.1342773,0.0332031c-0.0356445,0.0224609-0.0634766,0.0566406-0.0844727,0.1025391
					c-0.0195313,0.0419922-0.0327148,0.0976563-0.0400391,0.1669922c-0.0073242,0.0683594-0.0107422,0.1435547-0.0107422,0.2255859
					c0,0.0898438,0.0029297,0.1650391,0.0092773,0.2255859s0.0200195,0.1142578,0.0410156,0.1621094
					c0.0185547,0.0449219,0.0458984,0.0791016,0.0805664,0.1025391c0.034668,0.0244141,0.0810547,0.0361328,0.1386719,0.0361328
					c0.0541992,0,0.0991211-0.0117188,0.1347656-0.0341797S55.9780807,9.3458462,55.997612,9.3009243z"/>
				<path class="st10" d="M57.1748581,9.5519009h-0.8710938V9.3712368c0.0605469-0.0517578,0.1210938-0.1035156,0.1821289-0.1552734
					c0.0605469-0.0517578,0.1171875-0.1035156,0.1694336-0.1542969c0.1108398-0.1074219,0.1865234-0.1923828,0.2275391-0.2558594
					s0.0615234-0.1308594,0.0615234-0.2041016c0-0.0673828-0.0219727-0.1191406-0.0664063-0.1572266
					c-0.0439453-0.0380859-0.1054688-0.0566406-0.1845703-0.0566406c-0.0522461,0-0.1088867,0.0087891-0.1699219,0.0273438
					s-0.1210938,0.046875-0.1791992,0.0849609h-0.0087891V8.3185024c0.0410156-0.0195313,0.0957031-0.0380859,0.1640625-0.0546875
					c0.0683594-0.0175781,0.1342773-0.0253906,0.1982422-0.0253906c0.1318359,0,0.2353516,0.0322266,0.3105469,0.0957031
					c0.074707,0.0634766,0.1123047,0.1494141,0.1123047,0.2587891c0,0.0488281-0.0063477,0.0947266-0.0185547,0.1367188
					c-0.0126953,0.0419922-0.0307617,0.0830078-0.0551758,0.1210938c-0.0224609,0.0351563-0.0488281,0.0703125-0.0791016,0.1054688
					c-0.0302734,0.0341797-0.0668945,0.0722656-0.1098633,0.1142578c-0.0620117,0.0605469-0.1254883,0.1191406-0.1914063,0.1757813
					c-0.0654297,0.0566406-0.1269531,0.109375-0.184082,0.1582031h0.6923828V9.5519009z"/>
			</g>
		</g>
	</g>
	<g>
		<g id="XMLID_6_">
			<g>
				<rect x="57.6851959" y="25.9849911" class="st9" width="3.6624374" height="8.5589409"/>
			</g>
		</g>
		<g id="XMLID_18_">
			<g>
				<rect x="54.6319733" y="29.5887566" class="st11" width="2.9478149" height="1.6072788"/>
			</g>
		</g>
		<g id="XMLID_16_">
			<g>
				<rect x="61.3476334" y="26.7814236" class="st11" width="3.5123672" height="1.6811562"/>
			</g>
		</g>
		<g id="XMLID_17_">
			<g>
				<rect x="61.3476334" y="32.2699547" class="st11" width="3.5123672" height="1.6811562"/>
			</g>
		</g>
		<g>
			<path class="st10" d="M59.8560104,31.2149868c0.1591797,0,0.2822266,0.0498047,0.3691406,0.1474609
				c0.0859375,0.0986328,0.1289063,0.2294922,0.1289063,0.3945313c0,0.0400391-0.0029297,0.0917969-0.0097656,0.1582031
				c-0.0068359,0.0654297-0.015625,0.1201153-0.0253906,0.1650372h-0.2255859v-0.0136719
				c0.0107422-0.0341797,0.0224609-0.0751934,0.0351563-0.1249981c0.0117188-0.0488281,0.0185547-0.0996094,0.0185547-0.1513672
				c0-0.0751953-0.0087891-0.1357422-0.0263672-0.1796875c-0.0166016-0.0449219-0.0410156-0.078125-0.0732422-0.0996094
				c-0.0322266-0.0224609-0.0722656-0.0361328-0.1191406-0.0419922c-0.0478516-0.0068359-0.1015625-0.0097656-0.1640625-0.0097656
				h-1.0615234v0.3876953h-0.1923828v-0.6318359H59.8560104z"/>
			<path class="st10" d="M59.4526901,29.7081509c0.0351563-0.0390625,0.0791016-0.0717773,0.1318359-0.097168
				c0.0537109-0.0253906,0.1220703-0.0380859,0.2050781-0.0380859c0.0839844,0,0.1591797,0.0151367,0.2285156,0.0454102
				c0.0693359,0.0307617,0.1298828,0.0732422,0.1806641,0.128418c0.0576172,0.0615234,0.0996094,0.1337891,0.1269531,0.2172852
				s0.0410156,0.1748047,0.0410156,0.2739258c0,0.1020508-0.0126953,0.2021484-0.0361328,0.3007813
				c-0.0244141,0.0986328-0.0507813,0.1791992-0.0791016,0.2426758h-0.2548828v-0.0185547
				c0.0458984-0.0698242,0.0830078-0.1518555,0.1132813-0.246582c0.0302734-0.0942383,0.0449219-0.1855469,0.0449219-0.2734375
				c0-0.0517578-0.0078125-0.1064453-0.0253906-0.1650391c-0.0166016-0.0581055-0.0419922-0.1054688-0.0751953-0.1416016
				c-0.0361328-0.0375977-0.0751953-0.065918-0.1191406-0.0844727c-0.0429688-0.0180664-0.0976563-0.0273438-0.1630859-0.0273438
				s-0.1191406,0.0102539-0.1621094,0.03125s-0.0761719,0.0498047-0.1005859,0.0869141
				c-0.0253906,0.0366211-0.0429688,0.081543-0.0517578,0.1342773c-0.0097656,0.0522461-0.0146484,0.1088867-0.0146484,0.1699219
				v0.1108398h-0.2021484v-0.0864258c0-0.1245117-0.0263672-0.2241211-0.078125-0.2983398
				c-0.0517578-0.074707-0.1269531-0.1118164-0.2265625-0.1118164c-0.0439453,0-0.0820313,0.0097656-0.1152344,0.0283203
				c-0.0332031,0.019043-0.0595703,0.0454102-0.0810547,0.0791016c-0.0214844,0.0351563-0.0361328,0.0727539-0.0439453,0.1132813
				c-0.0078125,0.0400391-0.0126953,0.0859375-0.0126953,0.1367188c0,0.078125,0.0146484,0.1611328,0.0419922,0.2485352
				c0.0273438,0.0878906,0.0664063,0.1708984,0.1171875,0.2490234v0.012207h-0.2548828
				c-0.0292969-0.0581055-0.0546875-0.1362305-0.0791016-0.2333984s-0.0361328-0.1914063-0.0361328-0.2827148
				c0-0.0893555,0.0078125-0.1679688,0.0244141-0.2363281s0.0419922-0.1298828,0.078125-0.1845703
				c0.0390625-0.0595703,0.0869141-0.1040039,0.1416016-0.1342773c0.0556641-0.0307617,0.1201172-0.0458984,0.1943359-0.0458984
				c0.1005859,0,0.1894531,0.0361328,0.2646484,0.1079102s0.1230469,0.1567383,0.1425781,0.2543945h0.0166016
				c0.0068359-0.0395508,0.0205078-0.0844727,0.0410156-0.1357422
				C59.3960495,29.7867641,59.4224167,29.7437954,59.4526901,29.7081509z"/>
			<path class="st10" d="M58.5103073,27.8390102l1.0205078,0.6450195h0.7978516v0.2441406h-0.7714844l-1.046875,0.6479492
				v-0.2700195l0.8134766-0.5009766l-0.8134766-0.5063477V27.8390102z"/>
		</g>
	</g>
</g>
<g id="Слой_13">
	<rect x="24.1183605" y="22.3506889" class="st12" width="3.8289547" height="1.7007866"/>
	<rect x="17.0078735" y="19.6681957" class="st13" width="7.110487" height="7.2141857"/>
	<rect x="17.0078735" y="20.5284634" class="st14" width="7.0968037" height="5.3488274"/>
	<rect x="24.1183605" y="36.7283325" class="st12" width="3.8289547" height="1.7007866"/>
	<rect x="17.0078735" y="33.9928665" class="st13" width="7.110487" height="7.163456"/>
	<rect x="17.0078735" y="34.906105" class="st14" width="7.0968037" height="5.3488274"/>
	<rect x="24.1183605" y="29.5648746" class="st12" width="3.8289547" height="1.7007866"/>
	<rect x="17.0078735" y="26.8823814" class="st13" width="7.110487" height="7.110487"/>
	<polygon class="st2" points="0.29063,31.6204166 17.0078735,31.6204166 17.0078735,29.6361656 0.29063,29.6361656 0,29.8279781 
		0,31.4131107 	"/>
	<polygon class="st2" points="0.29063,38.9954147 17.0078735,38.9954147 17.0078735,37.0111618 0.29063,37.0111618 0,37.2029762 
		0,38.7881088 	"/>
	<polygon class="st2" points="0.29063,24.1932087 17.0078735,24.1932087 17.0078735,22.2089577 0.29063,22.2089577 0,22.4007702 
		0,23.9859047 	"/>
	<rect x="17.0078735" y="27.7426491" class="st14" width="7.0968037" height="5.3488255"/>
</g>
</svg>
