<?xml version="1.0" encoding="utf-8"?>
<!-- Generator: Adobe Illustrator 22.0.1, SVG Export Plug-In . SVG Version: 6.00 Build 0)  -->
<svg version="1.1" id="Слой_2" xmlns="http://www.w3.org/2000/svg" xmlns:xlink="http://www.w3.org/1999/xlink" x="0px" y="0px"
	 viewBox="0 0 197.6990204 152.3669586" style="enable-background:new 0 0 197.6990204 152.3669586;" xml:space="preserve">
<style type="text/css">
	.st0{fill:#171818;stroke:#656565;stroke-width:1.1670001;stroke-miterlimit:10;}
	.st1{fill:#CCC6BC;}
	.st2{fill:#908B83;}
	.st3{fill:#4C4C4C;}
	.st4{fill:#E29244;stroke:#D66443;stroke-width:0.02;stroke-miterlimit:10;}
	.st5{fill:#EAAC4E;stroke:#D66443;stroke-width:0.02;stroke-miterlimit:10;}
	.st6{fill:none;stroke:#D66443;stroke-width:0.02;stroke-miterlimit:10;}
	.st7{fill:#E5E5E5;}
	.st8{fill:#CCC6BB;stroke:#CCC6BB;stroke-width:0.1;stroke-miterlimit:10;}
</style>
<path class="st0" d="M7.7835121,144.5834351v7.2000122h187.1999512V0.5835H12.1035194c0,0-3.8106689,3.8106079-4.2740479,4.2739868
	C7.7994423,4.887516,7.7835121,4.9035072,7.7835121,4.9035072v32.3999634L0.5835,44.5034828v92.8800049L7.7835121,144.5834351z
	 M159.8834839,144.5834351c0,2.4852905-2.0147095,4.5-4.5,4.5s-4.5-2.0147095-4.5-4.5c0-2.4852295,2.0147095-4.5,4.5-4.5
	S159.8834839,142.0982056,159.8834839,144.5834351z M151.7834473,3.2835124c2.4852905,0,4.5,2.0147092,4.5,4.5
	c0,2.4852295-2.0147095,4.499939-4.5,4.499939c-2.4852295,0-4.5-2.0147095-4.5-4.499939
	C147.2834473,5.2982216,149.2982178,3.2835124,151.7834473,3.2835124z M15.4276161,63.8330727
	c0.8468628,0,1.5316162,0.6806679,1.5316162,1.5185585s-0.6847534,1.5185547-1.5316162,1.5185547
	c-0.8450928,0-1.5316162-0.6806641-1.5316162-1.5185547S14.5825233,63.8330727,15.4276161,63.8330727z M15.4276161,71.002327
	c0.8468628,0,1.5316162,0.6807251,1.5316162,1.5186157s-0.6847534,1.5185547-1.5316162,1.5185547
	c-0.8450928,0-1.5316162-0.6806641-1.5316162-1.5185547S14.5825233,71.002327,15.4276161,71.002327z M15.4276161,78.1678543
	c0.8468628,0,1.5316162,0.6806641,1.5316162,1.5185547s-0.6847534,1.5185547-1.5316162,1.5185547
	c-0.8450928,0-1.5316162-0.6806641-1.5316162-1.5185547S14.5825233,78.1678543,15.4276161,78.1678543z M7.7835121,46.4834633
	c2.4852295,0,4.5,2.0147095,4.5,4.5s-2.0147705,4.5-4.5,4.5c-2.4852905,0-4.5-2.0147095-4.5-4.5
	S5.2982216,46.4834633,7.7835121,46.4834633z M8.262516,74.0394974c-0.8450928,0-1.5316162-0.6806641-1.5316162-1.5185547
	S7.4174232,71.002327,8.262516,71.002327c0.8468628,0,1.5316162,0.6807251,1.5316162,1.5186157
	S9.1093788,74.0394974,8.262516,74.0394974z M9.7941322,79.686409c0,0.8378906-0.6847534,1.5185547-1.5316162,1.5185547
	c-0.8450928,0-1.5316162-0.6806641-1.5316162-1.5185547s0.6865234-1.5185547,1.5316162-1.5185547
	C9.1093788,78.1678543,9.7941322,78.8485184,9.7941322,79.686409z M8.262516,66.8701859
	c-0.8450928,0-1.5316162-0.6806641-1.5316162-1.5185547s0.6865234-1.5185585,1.5316162-1.5185585
	c0.8468628,0,1.5316162,0.6806679,1.5316162,1.5185585S9.1093788,66.8701859,8.262516,66.8701859z M7.7835121,125.6834793
	c2.4852295,0,4.5,2.0147095,4.5,4.4999924c0,2.4852905-2.0147705,4.5-4.5,4.5c-2.4852905,0-4.5-2.0147095-4.5-4.5
	C3.2835121,127.6981888,5.2982216,125.6834793,7.7835121,125.6834793z"/>
<g>
	<path class="st1" d="M8.2616005,81.9088821c1.237915,0,2.2415771-0.9951172,2.2415771-2.2224731
		s-1.0036621-2.2224731-2.2415771-2.2224731c-1.237854,0-2.2397461,0.9951172-2.2397461,2.2224731
		S7.0237465,81.9088821,8.2616005,81.9088821z M8.262516,78.1678543c0.8468628,0,1.5316162,0.6806641,1.5316162,1.5185547
		s-0.6847534,1.5185547-1.5316162,1.5185547c-0.8450928,0-1.5316162-0.6806641-1.5316162-1.5185547
		S7.4174232,78.1678543,8.262516,78.1678543z"/>
	<path class="st1" d="M8.2616005,74.7434158c1.237915,0,2.2415771-0.9951172,2.2415771-2.2224731
		s-1.0036621-2.2224731-2.2415771-2.2224731c-1.237854,0-2.2397461,0.9951172-2.2397461,2.2224731
		S7.0237465,74.7434158,8.2616005,74.7434158z M8.262516,71.002327c0.8468628,0,1.5316162,0.6807251,1.5316162,1.5186157
		s-0.6847534,1.5185547-1.5316162,1.5185547c-0.8450928,0-1.5316162-0.6806641-1.5316162-1.5185547
		S7.4174232,71.002327,8.262516,71.002327z"/>
	<path class="st1" d="M8.2616005,67.5741043c1.237915,0,2.2415771-0.9951172,2.2415771-2.2224731
		s-1.0036621-2.222477-2.2415771-2.222477c-1.237854,0-2.2397461,0.995121-2.2397461,2.222477
		S7.0237465,67.5741043,8.2616005,67.5741043z M8.262516,63.8330727c0.8468628,0,1.5316162,0.6806679,1.5316162,1.5185585
		s-0.6847534,1.5185547-1.5316162,1.5185547c-0.8450928,0-1.5316162-0.6806641-1.5316162-1.5185547
		S7.4174232,63.8330727,8.262516,63.8330727z"/>
	<path class="st1" d="M15.4267006,81.9088821c1.237915,0,2.2415771-0.9951172,2.2415771-2.2224731
		s-1.0036621-2.2224731-2.2415771-2.2224731c-1.237854,0-2.2397461,0.9951172-2.2397461,2.2224731
		S14.1888466,81.9088821,15.4267006,81.9088821z M15.4276161,78.1678543c0.8468628,0,1.5316162,0.6806641,1.5316162,1.5185547
		s-0.6847534,1.5185547-1.5316162,1.5185547c-0.8450928,0-1.5316162-0.6806641-1.5316162-1.5185547
		S14.5825233,78.1678543,15.4276161,78.1678543z"/>
	<path class="st1" d="M15.4267006,74.7434158c1.237915,0,2.2415771-0.9951172,2.2415771-2.2224731
		s-1.0036621-2.2224731-2.2415771-2.2224731c-1.237854,0-2.2397461,0.9951172-2.2397461,2.2224731
		S14.1888466,74.7434158,15.4267006,74.7434158z M15.4276161,71.002327c0.8468628,0,1.5316162,0.6807251,1.5316162,1.5186157
		s-0.6847534,1.5185547-1.5316162,1.5185547c-0.8450928,0-1.5316162-0.6806641-1.5316162-1.5185547
		S14.5825233,71.002327,15.4276161,71.002327z"/>
	<path class="st1" d="M15.4267006,67.5741043c1.237915,0,2.2415771-0.9951172,2.2415771-2.2224731
		s-1.0036621-2.222477-2.2415771-2.222477c-1.237854,0-2.2397461,0.995121-2.2397461,2.222477
		S14.1888466,67.5741043,15.4267006,67.5741043z M15.4276161,63.8330727c0.8468628,0,1.5316162,0.6806679,1.5316162,1.5185585
		s-0.6847534,1.5185547-1.5316162,1.5185547c-0.8450928,0-1.5316162-0.6806641-1.5316162-1.5185547
		S14.5825233,63.8330727,15.4276161,63.8330727z"/>
</g>
<g>
	<g>
		<g>
			<path class="st1" d="M14.983511,5.5427885c1.2273617,0,2.2224751,1.0018463,2.2224751,2.2397385
				s-0.9951134,2.2415428-2.2224751,2.2415428s-2.2224741-1.0036507-2.2224741-2.2415428S13.7561483,5.5427885,14.983511,5.5427885z
				"/>
			<ellipse class="st2" cx="14.983511" cy="7.7834291" rx="1.5185714" ry="1.5316002"/>
		</g>
		<g>
			<path class="st1" d="M22.1774578,5.5427885c1.2273617,0,2.2224751,1.0018463,2.2224751,2.2397385
				s-0.9951134,2.2415428-2.2224751,2.2415428s-2.2224751-1.0036507-2.2224751-2.2415428S20.9500961,5.5427885,22.1774578,5.5427885
				z"/>
			<ellipse class="st2" cx="22.1774578" cy="7.7834291" rx="1.5185714" ry="1.5316002"/>
		</g>
		<g>
			<path class="st1" d="M29.3834267,5.5427885c1.2273636,0,2.2224751,1.0018463,2.2224751,2.2397385
				s-0.9951115,2.2415428-2.2224751,2.2415428c-1.2273617,0-2.2224731-1.0036507-2.2224731-2.2415428
				S28.156065,5.5427885,29.3834267,5.5427885z"/>
			<ellipse class="st2" cx="29.3834267" cy="7.7834291" rx="1.5185714" ry="1.5316002"/>
		</g>
		<g>
			<path class="st1" d="M36.5835037,5.5427885c1.2273636,0,2.222477,1.0018463,2.222477,2.2397385
				s-0.9951134,2.2415428-2.222477,2.2415428c-1.2273598,0-2.2224731-1.0036507-2.2224731-2.2415428
				S35.356144,5.5427885,36.5835037,5.5427885z"/>
			<ellipse class="st2" cx="36.5835037" cy="7.7834291" rx="1.5185714" ry="1.5316002"/>
		</g>
		<g>
			<path class="st1" d="M43.7835045,5.5427885c1.2273636,0,2.2224731,1.0018463,2.2224731,2.2397385
				s-0.9951096,2.2415428-2.2224731,2.2415428s-2.2224731-1.0036507-2.2224731-2.2415428S42.5561409,5.5427885,43.7835045,5.5427885
				z"/>
			<ellipse class="st2" cx="43.7835045" cy="7.7834291" rx="1.5185714" ry="1.5316002"/>
		</g>
		<g>
			<path class="st1" d="M50.9835052,5.5427885c1.2273598,0,2.2224731,1.0018463,2.2224731,2.2397385
				s-0.9951134,2.2415428-2.2224731,2.2415428c-1.2273636,0-2.2224731-1.0036507-2.2224731-2.2415428
				S49.7561417,5.5427885,50.9835052,5.5427885z"/>
			<ellipse class="st2" cx="50.9835052" cy="7.7834291" rx="1.5185714" ry="1.5316002"/>
		</g>
		<g>
			<path class="st1" d="M58.1775589,5.5427885c1.2273636,0,2.222477,1.0018463,2.222477,2.2397385
				s-0.9951134,2.2415428-2.222477,2.2415428c-1.2273598,0-2.2224731-1.0036507-2.2224731-2.2415428
				S56.9501991,5.5427885,58.1775589,5.5427885z"/>
			<ellipse class="st2" cx="58.1775589" cy="7.7834291" rx="1.5185714" ry="1.5316002"/>
		</g>
		<g>
			<path class="st1" d="M65.3835068,5.5427885c1.2273636,0,2.2224731,1.0018463,2.2224731,2.2397385
				s-0.9951096,2.2415428-2.2224731,2.2415428s-2.222477-1.0036507-2.222477-2.2415428S64.1561432,5.5427885,65.3835068,5.5427885z"
				/>
			<ellipse class="st2" cx="65.3835068" cy="7.7834291" rx="1.5185714" ry="1.5316002"/>
		</g>
	</g>
	<g id="Колодка_прав-верх">
		<g>
			<path class="st3" d="M15.0120211,11.5960274h0.0000076c1.9882231,0,3.5999956-1.6117735,3.5999956-3.5999966V7.9960237
				c0-1.9882231-1.6117725-3.5999961-3.5999956-3.5999961h-0.0000076c-1.9882231,0-3.5999966,1.611773-3.5999966,3.5999961
				v0.0000072C11.4120245,9.9842539,13.023798,11.5960274,15.0120211,11.5960274z"/>
		</g>
		<g>
			<path class="st3" d="M22.2120209,11.5960274h0.0000076c1.988224,0,3.5999966-1.6117735,3.5999966-3.5999966V7.9960237
				c0-1.9882231-1.6117725-3.5999961-3.5999966-3.5999961h-0.0000076c-1.9882221,0-3.5999966,1.611773-3.5999966,3.5999961
				v0.0000072C18.6120243,9.9842539,20.2237988,11.5960274,22.2120209,11.5960274z"/>
		</g>
		<g>
			<path class="st3" d="M29.4120216,11.5960274h0.0000076c1.9882221,0,3.5999947-1.6117735,3.5999947-3.5999966V7.9960237
				c0-1.9882231-1.6117725-3.5999961-3.5999947-3.5999961h-0.0000076c-1.988224,0-3.5999966,1.611773-3.5999966,3.5999961v0.0000072
				C25.8120251,9.9842539,27.4237976,11.5960274,29.4120216,11.5960274z"/>
		</g>
		<g>
			<path class="st3" d="M36.6120224,11.5960274H36.61203c1.9882202,0,3.5999947-1.6117735,3.5999947-3.5999966V7.9960237
				c0-1.9882231-1.6117744-3.5999961-3.5999947-3.5999961h-0.0000076c-1.988224,0-3.5999985,1.611773-3.5999985,3.5999961v0.0000072
				C33.0120239,9.9842539,34.6237984,11.5960274,36.6120224,11.5960274z"/>
		</g>
		<g>
			<path class="st3" d="M43.8120232,11.5960274h0.0000038c1.988224,0,3.5999985-1.6117735,3.5999985-3.5999966V7.9960237
				c0-1.9882231-1.6117744-3.5999961-3.5999985-3.5999961h-0.0000038c-1.988224,0-3.5999985,1.611773-3.5999985,3.5999961v0.0000072
				C40.2120247,9.9842539,41.8237991,11.5960274,43.8120232,11.5960274z"/>
		</g>
		<g>
			<path class="st3" d="M51.0120201,11.5960274h0.0000076c1.988224,0,3.5999985-1.6117735,3.5999985-3.5999966V7.9960237
				c0-1.9882231-1.6117744-3.5999961-3.5999985-3.5999961h-0.0000076c-1.9882202,0-3.5999947,1.611773-3.5999947,3.5999961
				v0.0000072C47.4120255,9.9842539,49.0237999,11.5960274,51.0120201,11.5960274z"/>
		</g>
		<g>
			<path class="st3" d="M58.2120209,11.5960274h0.0000076c1.988224,0,3.5999947-1.6117735,3.5999947-3.5999966V7.9960237
				c0-1.9882231-1.6117706-3.5999961-3.5999947-3.5999961h-0.0000076c-1.988224,0-3.5999947,1.611773-3.5999947,3.5999961v0.0000072
				C54.6120262,9.9842539,56.2237968,11.5960274,58.2120209,11.5960274z"/>
		</g>
		<g>
			<path class="st3" d="M65.4120178,11.5960274h0.0000076c1.9882278,0,3.5999985-1.6117735,3.5999985-3.5999966V7.9960237
				c0-1.9882231-1.6117706-3.5999961-3.5999985-3.5999961h-0.0000076c-1.9882202,0-3.5999947,1.611773-3.5999947,3.5999961
				v0.0000072C61.8120232,9.9842539,63.4237976,11.5960274,65.4120178,11.5960274z"/>
		</g>
	</g>
	
		<rect x="21.6414528" y="6.9508519" transform="matrix(6.123234e-17 -1 1 6.123234e-17 14.2087107 30.2080517)" class="st4" width="1.1338583" height="2.0976379"/>
	
		<rect x="21.9994259" y="7.2873659" transform="matrix(6.123234e-17 -1 1 6.123234e-17 14.2159977 30.2080517)" class="st5" width="0.4251969" height="1.4173229"/>
	<line class="st6" x1="21.1595631" y1="8.5665998" x2="21.5033627" y2="8.2086258"/>
	<line class="st6" x1="21.5033627" y1="7.7834291" x2="21.1595631" y2="7.4327416"/>
	<line class="st6" x1="22.9206867" y1="7.7834291" x2="23.2572002" y2="7.4327416"/>
	<line class="st6" x1="22.9206867" y1="8.2086258" x2="23.2572002" y2="8.5665998"/>
	
		<rect x="14.441452" y="6.9508519" transform="matrix(6.123234e-17 -1 1 6.123234e-17 7.0087104 23.0080528)" class="st4" width="1.1338583" height="2.0976379"/>
	
		<rect x="14.7994261" y="7.2873659" transform="matrix(6.123234e-17 -1 1 6.123234e-17 7.0159974 23.0080528)" class="st5" width="0.4251969" height="1.4173229"/>
	<line class="st6" x1="13.9595623" y1="8.5665998" x2="14.3033638" y2="8.2086258"/>
	<line class="st6" x1="14.3033638" y1="7.7834291" x2="13.9595623" y2="7.4327416"/>
	<line class="st6" x1="15.720686" y1="7.7834291" x2="16.0571995" y2="7.4327416"/>
	<line class="st6" x1="15.720686" y1="8.2086258" x2="16.0571995" y2="8.5665998"/>
	
		<rect x="28.8414516" y="6.9508519" transform="matrix(6.123234e-17 -1 1 6.123234e-17 21.4087105 37.4080505)" class="st4" width="1.1338583" height="2.0976379"/>
	
		<rect x="29.1994267" y="7.2873659" transform="matrix(6.123234e-17 -1 1 6.123234e-17 21.4159985 37.4080505)" class="st5" width="0.4251969" height="1.4173229"/>
	<line class="st6" x1="28.3595619" y1="8.5665998" x2="28.7033634" y2="8.2086258"/>
	<line class="st6" x1="28.7033634" y1="7.7834291" x2="28.3595619" y2="7.4327416"/>
	<line class="st6" x1="30.1206856" y1="7.7834291" x2="30.457201" y2="7.4327416"/>
	<line class="st6" x1="30.1206856" y1="8.2086258" x2="30.457201" y2="8.5665998"/>
	
		<rect x="36.0450974" y="6.947207" transform="matrix(6.123234e-17 -1 1 6.123234e-17 28.6159992 44.6080513)" class="st4" width="1.1338583" height="2.0976379"/>
	
		<rect x="36.4030685" y="7.283721" transform="matrix(6.123234e-17 -1 1 6.123234e-17 28.6232853 44.6080513)" class="st5" width="0.4251969" height="1.4173229"/>
	<line class="st6" x1="35.5632057" y1="8.5629549" x2="35.9070053" y2="8.2049809"/>
	<line class="st6" x1="35.9070053" y1="7.7797842" x2="35.5632057" y2="7.4290972"/>
	<line class="st6" x1="37.3243294" y1="7.7797842" x2="37.6608429" y2="7.4290972"/>
	<line class="st6" x1="37.3243294" y1="8.2049809" x2="37.6608429" y2="8.5629549"/>
	
		<rect x="43.2450943" y="6.9508519" transform="matrix(6.123234e-17 -1 1 6.123234e-17 35.812355 51.8116951)" class="st4" width="1.1338583" height="2.0976379"/>
	
		<rect x="43.6030693" y="7.2873659" transform="matrix(6.123234e-17 -1 1 6.123234e-17 35.8196411 51.8116951)" class="st5" width="0.4251969" height="1.4173229"/>
	<line class="st6" x1="42.7632065" y1="8.5665998" x2="43.1070061" y2="8.2086258"/>
	<line class="st6" x1="43.1070061" y1="7.7834291" x2="42.7632065" y2="7.4327416"/>
	<line class="st6" x1="44.5243301" y1="7.7834291" x2="44.8608437" y2="7.4327416"/>
	<line class="st6" x1="44.5243301" y1="8.2086258" x2="44.8608437" y2="8.5665998"/>
	
		<rect x="50.441452" y="6.9508519" transform="matrix(6.123234e-17 -1 1 6.123234e-17 43.008709 59.0080528)" class="st4" width="1.1338583" height="2.0976379"/>
	
		<rect x="50.799427" y="7.2873659" transform="matrix(6.123234e-17 -1 1 6.123234e-17 43.0159988 59.0080528)" class="st5" width="0.4251969" height="1.4173229"/>
	<line class="st6" x1="49.9595642" y1="8.5665998" x2="50.3033638" y2="8.2086258"/>
	<line class="st6" x1="50.3033638" y1="7.7834291" x2="49.9595642" y2="7.4327416"/>
	<line class="st6" x1="51.7206879" y1="7.7834291" x2="52.0572014" y2="7.4327416"/>
	<line class="st6" x1="51.7206879" y1="8.2086258" x2="52.0572014" y2="8.5665998"/>
	
		<rect x="57.6414528" y="6.9508519" transform="matrix(6.123234e-17 -1 1 6.123234e-17 50.2087097 66.2080536)" class="st4" width="1.1338583" height="2.0976379"/>
	
		<rect x="57.9994278" y="7.2873659" transform="matrix(6.123234e-17 -1 1 6.123234e-17 50.2159958 66.2080536)" class="st5" width="0.4251969" height="1.4173229"/>
	<line class="st6" x1="57.1595612" y1="8.5665998" x2="57.5033646" y2="8.2086258"/>
	<line class="st6" x1="57.5033646" y1="7.7834291" x2="57.1595612" y2="7.4327416"/>
	<line class="st6" x1="58.9206848" y1="7.7834291" x2="59.2571983" y2="7.4327416"/>
	<line class="st6" x1="58.9206848" y1="8.2086258" x2="59.2571983" y2="8.5665998"/>
	
		<rect x="64.8414536" y="6.9508519" transform="matrix(6.123234e-17 -1 1 6.123234e-17 57.4087105 73.4080505)" class="st4" width="1.1338583" height="2.0976379"/>
	
		<rect x="65.1994247" y="7.2873659" transform="matrix(6.123234e-17 -1 1 6.123234e-17 57.4159966 73.4080505)" class="st5" width="0.4251969" height="1.4173229"/>
	<line class="st6" x1="64.3595657" y1="8.5665998" x2="64.7033615" y2="8.2086258"/>
	<line class="st6" x1="64.7033615" y1="7.7834291" x2="64.3595657" y2="7.4327416"/>
	<line class="st6" x1="66.1206894" y1="7.7834291" x2="66.4571991" y2="7.4327416"/>
	<line class="st6" x1="66.1206894" y1="8.2086258" x2="66.4571991" y2="8.5665998"/>
</g>
<g>
	<g>
		<g>
			<path class="st1" d="M76.903511,5.5427885c1.2273636,0,2.2224731,1.0018463,2.2224731,2.2397385
				s-0.9951096,2.2415428-2.2224731,2.2415428s-2.2224731-1.0036507-2.2224731-2.2415428S75.6761475,5.5427885,76.903511,5.5427885z
				"/>
			<ellipse class="st2" cx="76.903511" cy="7.7834291" rx="1.5185714" ry="1.5316002"/>
		</g>
		<g>
			<path class="st1" d="M84.0974579,5.5427885c1.2273636,0,2.2224731,1.0018463,2.2224731,2.2397385
				s-0.9951096,2.2415428-2.2224731,2.2415428s-2.2224731-1.0036507-2.2224731-2.2415428S82.8700943,5.5427885,84.0974579,5.5427885
				z"/>
			<ellipse class="st2" cx="84.0974579" cy="7.7834291" rx="1.5185714" ry="1.5316002"/>
		</g>
		<g>
			<path class="st1" d="M91.3034286,5.5427885c1.2273636,0,2.2224731,1.0018463,2.2224731,2.2397385
				s-0.9951096,2.2415428-2.2224731,2.2415428s-2.2224731-1.0036507-2.2224731-2.2415428S90.0760651,5.5427885,91.3034286,5.5427885
				z"/>
			<ellipse class="st2" cx="91.3034286" cy="7.7834291" rx="1.5185714" ry="1.5316002"/>
		</g>
		<g>
			<path class="st1" d="M98.5035019,5.5427885c1.2273636,0,2.2224808,1.0018463,2.2224808,2.2397385
				s-0.9951172,2.2415428-2.2224808,2.2415428c-1.227356,0-2.2224731-1.0036507-2.2224731-2.2415428
				S97.2761459,5.5427885,98.5035019,5.5427885z"/>
			<ellipse class="st2" cx="98.5035019" cy="7.7834291" rx="1.5185714" ry="1.5316002"/>
		</g>
		<g>
			<path class="st1" d="M105.7035065,5.5427885c1.2273636,0,2.2224731,1.0018463,2.2224731,2.2397385
				s-0.9951096,2.2415428-2.2224731,2.2415428s-2.2224731-1.0036507-2.2224731-2.2415428
				S104.4761429,5.5427885,105.7035065,5.5427885z"/>
			<ellipse class="st2" cx="105.7035065" cy="7.7834291" rx="1.5185714" ry="1.5316002"/>
		</g>
		<g>
			<path class="st1" d="M112.9035034,5.5427885c1.2273636,0,2.2224731,1.0018463,2.2224731,2.2397385
				s-0.9951096,2.2415428-2.2224731,2.2415428s-2.2224731-1.0036507-2.2224731-2.2415428
				S111.6761398,5.5427885,112.9035034,5.5427885z"/>
			<ellipse class="st2" cx="112.9035034" cy="7.7834291" rx="1.5185714" ry="1.5316002"/>
		</g>
		<g>
			<path class="st1" d="M120.0975571,5.5427885c1.2273636,0,2.2224808,1.0018463,2.2224808,2.2397385
				s-0.9951172,2.2415428-2.2224808,2.2415428c-1.227356,0-2.2224731-1.0036507-2.2224731-2.2415428
				S118.8702011,5.5427885,120.0975571,5.5427885z"/>
			<ellipse class="st2" cx="120.0975571" cy="7.7834291" rx="1.5185714" ry="1.5316002"/>
		</g>
		<g>
			<path class="st1" d="M127.3035049,5.5427885c1.2273636,0,2.2224808,1.0018463,2.2224808,2.2397385
				s-0.9951172,2.2415428-2.2224808,2.2415428s-2.2224731-1.0036507-2.2224731-2.2415428
				S126.0761414,5.5427885,127.3035049,5.5427885z"/>
			<ellipse class="st2" cx="127.3035049" cy="7.7834291" rx="1.5185714" ry="1.5316002"/>
		</g>
		<g>
			<path class="st1" d="M134.4892578,5.5427885c1.227356,0,2.2224731,1.0018463,2.2224731,2.2397385
				s-0.9951172,2.2415428-2.2224731,2.2415428c-1.2273712,0-2.2224731-1.0036507-2.2224731-2.2415428
				S133.2618866,5.5427885,134.4892578,5.5427885z"/>
			<ellipse class="st2" cx="134.4892578" cy="7.7834291" rx="1.5185714" ry="1.5316002"/>
		</g>
		<g>
			<path class="st1" d="M141.7035065,5.5427885c1.2273712,0,2.2224731,1.0018463,2.2224731,2.2397385
				s-0.9951019,2.2415428-2.2224731,2.2415428c-1.227356,0-2.2224731-1.0036507-2.2224731-2.2415428
				S140.4761505,5.5427885,141.7035065,5.5427885z"/>
			<ellipse class="st2" cx="141.7035065" cy="7.7834291" rx="1.5185714" ry="1.5316002"/>
		</g>
	</g>
	<g id="Колодка_прав-ниж">
		<g>
			<path class="st3" d="M76.9320221,11.5960274h0.0000076c1.9882202,0,3.5999985-1.6117735,3.5999985-3.5999966V7.9960237
				c0-1.9882231-1.6117783-3.5999961-3.5999985-3.5999961h-0.0000076c-1.9882202,0-3.5999985,1.611773-3.5999985,3.5999961
				v0.0000072C73.3320236,9.9842539,74.9438019,11.5960274,76.9320221,11.5960274z"/>
		</g>
		<g>
			<path class="st3" d="M84.132019,11.5960274h0.0000076c1.9882278,0,3.5999985-1.6117735,3.5999985-3.5999966V7.9960237
				c0-1.9882231-1.6117706-3.5999961-3.5999985-3.5999961H84.132019c-1.9882202,0-3.5999908,1.611773-3.5999908,3.5999961v0.0000072
				C80.5320282,9.9842539,82.1437988,11.5960274,84.132019,11.5960274z"/>
		</g>
		<g>
			<path class="st3" d="M91.3320236,11.5960274h0.0000076c1.9882202,0,3.5999908-1.6117735,3.5999908-3.5999966V7.9960237
				c0-1.9882231-1.6117706-3.5999961-3.5999908-3.5999961h-0.0000076c-1.9882278,0-3.5999985,1.611773-3.5999985,3.5999961
				v0.0000072C87.7320251,9.9842539,89.3437958,11.5960274,91.3320236,11.5960274z"/>
		</g>
		<g>
			<path class="st3" d="M98.5320206,11.5960274h0.0000076c1.9882202,0,3.5999985-1.6117735,3.5999985-3.5999966V7.9960237
				c0-1.9882231-1.6117783-3.5999961-3.5999985-3.5999961h-0.0000076c-1.9882202,0-3.5999985,1.611773-3.5999985,3.5999961
				v0.0000072C94.9320221,9.9842539,96.5438004,11.5960274,98.5320206,11.5960274z"/>
		</g>
		<g>
			<path class="st3" d="M105.7320175,11.5960274h0.0000076c1.9882278,0,3.5999985-1.6117735,3.5999985-3.5999966V7.9960237
				c0-1.9882231-1.6117706-3.5999961-3.5999985-3.5999961h-0.0000076c-1.9882202,0-3.5999908,1.611773-3.5999908,3.5999961
				v0.0000072C102.1320267,9.9842539,103.7437973,11.5960274,105.7320175,11.5960274z"/>
		</g>
		<g>
			<path class="st3" d="M112.9320221,11.5960274h0.0000076c1.9882202,0,3.5999985-1.6117735,3.5999985-3.5999966V7.9960237
				c0-1.9882231-1.6117783-3.5999961-3.5999985-3.5999961h-0.0000076c-1.9882202,0-3.5999985,1.611773-3.5999985,3.5999961
				v0.0000072C109.3320236,9.9842539,110.9438019,11.5960274,112.9320221,11.5960274z"/>
		</g>
		<g>
			<path class="st3" d="M120.132019,11.5960274h0.0000076c1.9882278,0,3.5999985-1.6117735,3.5999985-3.5999966V7.9960237
				c0-1.9882231-1.6117706-3.5999961-3.5999985-3.5999961h-0.0000076c-1.9882202,0-3.5999908,1.611773-3.5999908,3.5999961
				v0.0000072C116.5320282,9.9842539,118.1437988,11.5960274,120.132019,11.5960274z"/>
		</g>
		<g>
			<path class="st3" d="M127.3320236,11.5960274h0.0000076c1.9882202,0,3.5999908-1.6117735,3.5999908-3.5999966V7.9960237
				c0-1.9882231-1.6117706-3.5999961-3.5999908-3.5999961h-0.0000076c-1.9882278,0-3.5999985,1.611773-3.5999985,3.5999961
				v0.0000072C123.7320251,9.9842539,125.3437958,11.5960274,127.3320236,11.5960274z"/>
		</g>
		<g>
			<path class="st3" d="M134.5320282,11.5960274L134.5320282,11.5960274c1.9882202,0,3.5999908-1.6117735,3.5999908-3.5999966
				V7.9960237c0-1.9882231-1.6117706-3.5999961-3.5999908-3.5999961l0,0c-1.9882355,0-3.6000061,1.611773-3.6000061,3.5999961
				v0.0000072C130.9320221,9.9842539,132.5437927,11.5960274,134.5320282,11.5960274z"/>
		</g>
		<g>
			<path class="st3" d="M141.7320251,11.5960274L141.7320251,11.5960274c1.9882202,0,3.6000061-1.6117735,3.6000061-3.5999966
				V7.9960237c0-1.9882231-1.6117859-3.5999961-3.6000061-3.5999961l0,0c-1.9882202,0-3.6000061,1.611773-3.6000061,3.5999961
				v0.0000072C138.132019,9.9842539,139.7438049,11.5960274,141.7320251,11.5960274z"/>
		</g>
	</g>
	
		<rect x="76.3614502" y="6.9508519" transform="matrix(6.123234e-17 -1 1 6.123234e-17 68.9287109 84.9280548)" class="st4" width="1.1338583" height="2.0976379"/>
	
		<rect x="76.719429" y="7.2873659" transform="matrix(6.123234e-17 -1 1 6.123234e-17 68.935997 84.9280548)" class="st5" width="0.4251969" height="1.4173229"/>
	<line class="st6" x1="75.8795624" y1="8.5665998" x2="76.2233658" y2="8.2086258"/>
	<line class="st6" x1="76.2233658" y1="7.7834291" x2="75.8795624" y2="7.4327416"/>
	<line class="st6" x1="77.640686" y1="7.7834291" x2="77.9772034" y2="7.4327416"/>
	<line class="st6" x1="77.640686" y1="8.2086258" x2="77.9772034" y2="8.5665998"/>
	
		<rect x="83.5614548" y="6.9508519" transform="matrix(6.123234e-17 -1 1 6.123234e-17 76.1287079 92.1280518)" class="st4" width="1.1338583" height="2.0976379"/>
	
		<rect x="83.919426" y="7.2873659" transform="matrix(6.123234e-17 -1 1 6.123234e-17 76.135994 92.1280518)" class="st5" width="0.4251969" height="1.4173229"/>
	<line class="st6" x1="83.0795593" y1="8.5665998" x2="83.4233627" y2="8.2086258"/>
	<line class="st6" x1="83.4233627" y1="7.7834291" x2="83.0795593" y2="7.4327416"/>
	<line class="st6" x1="84.840683" y1="7.7834291" x2="85.1772003" y2="7.4327416"/>
	<line class="st6" x1="84.840683" y1="8.2086258" x2="85.1772003" y2="8.5665998"/>
	
		<rect x="90.7614517" y="6.9508519" transform="matrix(6.123234e-17 -1 1 6.123234e-17 83.3287125 99.3280487)" class="st4" width="1.1338583" height="2.0976379"/>
	
		<rect x="91.1194229" y="7.2873659" transform="matrix(6.123234e-17 -1 1 6.123234e-17 83.3359985 99.3280487)" class="st5" width="0.4251969" height="1.4173229"/>
	<line class="st6" x1="90.2795639" y1="8.5665998" x2="90.6233597" y2="8.2086258"/>
	<line class="st6" x1="90.6233597" y1="7.7834291" x2="90.2795639" y2="7.4327416"/>
	<line class="st6" x1="92.0406876" y1="7.7834291" x2="92.3771973" y2="7.4327416"/>
	<line class="st6" x1="92.0406876" y1="8.2086258" x2="92.3771973" y2="8.5665998"/>
	
		<rect x="97.9614487" y="6.9508519" transform="matrix(6.123234e-17 -1 1 6.123234e-17 90.5287094 106.5280533)" class="st4" width="1.1338583" height="2.0976379"/>
	
		<rect x="98.3194275" y="7.2873659" transform="matrix(6.123234e-17 -1 1 6.123234e-17 90.5359955 106.5280533)" class="st5" width="0.4251969" height="1.4173229"/>
	<line class="st6" x1="97.4795609" y1="8.5665998" x2="97.8233643" y2="8.2086258"/>
	<line class="st6" x1="97.8233643" y1="7.7834291" x2="97.4795609" y2="7.4327416"/>
	<line class="st6" x1="99.2406845" y1="7.7834291" x2="99.5772018" y2="7.4327416"/>
	<line class="st6" x1="99.2406845" y1="8.2086258" x2="99.5772018" y2="8.5665998"/>
	
		<rect x="105.1614532" y="6.9508519" transform="matrix(6.123234e-17 -1 1 6.123234e-17 97.728714 113.7280502)" class="st4" width="1.1338583" height="2.0976379"/>
	
		<rect x="105.5194244" y="7.2873659" transform="matrix(6.123234e-17 -1 1 6.123234e-17 97.7360001 113.7280502)" class="st5" width="0.4251969" height="1.4173229"/>
	<line class="st6" x1="104.6795654" y1="8.5665998" x2="105.0233612" y2="8.2086258"/>
	<line class="st6" x1="105.0233612" y1="7.7834291" x2="104.6795654" y2="7.4327416"/>
	<line class="st6" x1="106.4406891" y1="7.7834291" x2="106.7771988" y2="7.4327416"/>
	<line class="st6" x1="106.4406891" y1="8.2086258" x2="106.7771988" y2="8.5665998"/>
	
		<rect x="112.3614502" y="6.9508519" transform="matrix(6.123234e-17 -1 1 6.123234e-17 104.9287109 120.9280548)" class="st4" width="1.1338583" height="2.0976379"/>
	
		<rect x="112.719429" y="7.2873659" transform="matrix(6.123234e-17 -1 1 6.123234e-17 104.935997 120.9280548)" class="st5" width="0.4251969" height="1.4173229"/>
	<line class="st6" x1="111.8795624" y1="8.5665998" x2="112.2233658" y2="8.2086258"/>
	<line class="st6" x1="112.2233658" y1="7.7834291" x2="111.8795624" y2="7.4327416"/>
	<line class="st6" x1="113.640686" y1="7.7834291" x2="113.9772034" y2="7.4327416"/>
	<line class="st6" x1="113.640686" y1="8.2086258" x2="113.9772034" y2="8.5665998"/>
	
		<rect x="119.5614548" y="6.9508519" transform="matrix(6.123234e-17 -1 1 6.123234e-17 112.1287079 128.1280518)" class="st4" width="1.1338583" height="2.0976379"/>
	
		<rect x="119.919426" y="7.2873659" transform="matrix(6.123234e-17 -1 1 6.123234e-17 112.135994 128.1280518)" class="st5" width="0.4251969" height="1.4173229"/>
	<line class="st6" x1="119.0795593" y1="8.5665998" x2="119.4233627" y2="8.2086258"/>
	<line class="st6" x1="119.4233627" y1="7.7834291" x2="119.0795593" y2="7.4327416"/>
	<line class="st6" x1="120.840683" y1="7.7834291" x2="121.1772003" y2="7.4327416"/>
	<line class="st6" x1="120.840683" y1="8.2086258" x2="121.1772003" y2="8.5665998"/>
	
		<rect x="126.7650986" y="6.9508519" transform="matrix(6.123234e-17 -1 1 6.123234e-17 119.3323517 135.3316956)" class="st4" width="1.1338583" height="2.0976379"/>
	
		<rect x="127.1230698" y="7.2873659" transform="matrix(6.123234e-17 -1 1 6.123234e-17 119.3396378 135.3316956)" class="st5" width="0.4251969" height="1.4173229"/>
	<line class="st6" x1="126.2832031" y1="8.5665998" x2="126.6270065" y2="8.2086258"/>
	<line class="st6" x1="126.6270065" y1="7.7834291" x2="126.2832031" y2="7.4327416"/>
	<line class="st6" x1="128.0443268" y1="7.7834291" x2="128.3808441" y2="7.4327416"/>
	<line class="st6" x1="128.0443268" y1="8.2086258" x2="128.3808441" y2="8.5665998"/>
	
		<rect x="133.9614563" y="6.9508519" transform="matrix(6.123234e-17 -1 1 6.123234e-17 126.5287094 142.5280457)" class="st4" width="1.1338583" height="2.0976379"/>
	
		<rect x="134.3194275" y="7.2873659" transform="matrix(6.123234e-17 -1 1 6.123234e-17 126.5359955 142.5280457)" class="st5" width="0.4251969" height="1.4173229"/>
	<line class="st6" x1="133.4795685" y1="8.5665998" x2="133.8233643" y2="8.2086258"/>
	<line class="st6" x1="133.8233643" y1="7.7834291" x2="133.4795685" y2="7.4327416"/>
	<line class="st6" x1="135.2406921" y1="7.7834291" x2="135.5771942" y2="7.4327416"/>
	<line class="st6" x1="135.2406921" y1="8.2086258" x2="135.5771942" y2="8.5665998"/>
	
		<rect x="141.1614532" y="6.9508519" transform="matrix(6.123234e-17 -1 1 6.123234e-17 133.728714 149.7280579)" class="st4" width="1.1338583" height="2.0976379"/>
	
		<rect x="141.5194244" y="7.2873659" transform="matrix(6.123234e-17 -1 1 6.123234e-17 133.7359924 149.7280579)" class="st5" width="0.4251969" height="1.4173229"/>
	<line class="st6" x1="140.6795654" y1="8.5665998" x2="141.0233612" y2="8.2086258"/>
	<line class="st6" x1="141.0233612" y1="7.7834291" x2="140.6795654" y2="7.4327416"/>
	<line class="st6" x1="142.4406891" y1="7.7834291" x2="142.7772064" y2="7.4327416"/>
	<line class="st6" x1="142.4406891" y1="8.2086258" x2="142.7772064" y2="8.5665998"/>
</g>
<g>
	<g>
		<g>
			<path class="st1" d="M65.3835144,142.3427887c1.2273636,0,2.2224808,1.0018463,2.2224808,2.2397308
				c0,1.2378998-0.9951172,2.2415466-2.2224808,2.2415466c-1.227356,0-2.2224731-1.0036469-2.2224731-2.2415466
				C63.1610413,143.344635,64.1561584,142.3427887,65.3835144,142.3427887z"/>
			<ellipse class="st2" cx="65.3835144" cy="144.5834351" rx="1.5185714" ry="1.5316002"/>
		</g>
		<g>
			<path class="st1" d="M72.5774612,142.3427887c1.2273636,0,2.2224808,1.0018463,2.2224808,2.2397308
				c0,1.2378998-0.9951172,2.2415466-2.2224808,2.2415466c-1.227356,0-2.2224731-1.0036469-2.2224731-2.2415466
				C70.3549881,143.344635,71.3501053,142.3427887,72.5774612,142.3427887z"/>
			<ellipse class="st2" cx="72.5774612" cy="144.5834351" rx="1.5185714" ry="1.5316002"/>
		</g>
		<g>
			<path class="st1" d="M79.783432,142.3427887c1.2273636,0,2.2224731,1.0018463,2.2224731,2.2397308
				c0,1.2378998-0.9951096,2.2415466-2.2224731,2.2415466s-2.2224731-1.0036469-2.2224731-2.2415466
				C77.5609589,143.344635,78.5560684,142.3427887,79.783432,142.3427887z"/>
			<ellipse class="st2" cx="79.783432" cy="144.5834351" rx="1.5185714" ry="1.5316002"/>
		</g>
		<g>
			<path class="st1" d="M86.9835129,142.3427887c1.2273636,0,2.2224731,1.0018463,2.2224731,2.2397308
				c0,1.2378998-0.9951096,2.2415466-2.2224731,2.2415466s-2.2224731-1.0036469-2.2224731-2.2415466
				C84.7610397,143.344635,85.7561493,142.3427887,86.9835129,142.3427887z"/>
			<ellipse class="st2" cx="86.9835129" cy="144.5834351" rx="1.5185714" ry="1.5316002"/>
		</g>
		<g>
			<path class="st1" d="M94.1835098,142.3427887c1.2273636,0,2.2224731,1.0018463,2.2224731,2.2397308
				c0,1.2378998-0.9951096,2.2415466-2.2224731,2.2415466s-2.2224731-1.0036469-2.2224731-2.2415466
				C91.9610367,143.344635,92.9561462,142.3427887,94.1835098,142.3427887z"/>
			<ellipse class="st2" cx="94.1835098" cy="144.5834351" rx="1.5185714" ry="1.5316002"/>
		</g>
		<g>
			<path class="st1" d="M101.3835144,142.3427887c1.227356,0,2.2224731,1.0018463,2.2224731,2.2397308
				c0,1.2378998-0.9951172,2.2415466-2.2224731,2.2415466c-1.2273636,0-2.2224808-1.0036469-2.2224808-2.2415466
				C99.1610336,143.344635,100.1561508,142.3427887,101.3835144,142.3427887z"/>
			<ellipse class="st2" cx="101.3835144" cy="144.5834351" rx="1.5185714" ry="1.5316002"/>
		</g>
		<g>
			<path class="st1" d="M108.5775681,142.3427887c1.2273636,0,2.2224731,1.0018463,2.2224731,2.2397308
				c0,1.2378998-0.9951096,2.2415466-2.2224731,2.2415466s-2.2224731-1.0036469-2.2224731-2.2415466
				C106.3550949,143.344635,107.3502045,142.3427887,108.5775681,142.3427887z"/>
			<ellipse class="st2" cx="108.5775681" cy="144.5834351" rx="1.5185714" ry="1.5316002"/>
		</g>
		<g>
			<path class="st1" d="M115.7835083,142.3427887c1.2273636,0,2.2224808,1.0018463,2.2224808,2.2397308
				c0,1.2378998-0.9951172,2.2415466-2.2224808,2.2415466c-1.227356,0-2.2224731-1.0036469-2.2224731-2.2415466
				C113.5610352,143.344635,114.5561523,142.3427887,115.7835083,142.3427887z"/>
			<ellipse class="st2" cx="115.7835083" cy="144.5834351" rx="1.5185714" ry="1.5316002"/>
		</g>
	</g>
	<g>
		<path class="st3" d="M65.4120178,148.3960266h0.0000076c1.9882278,0,3.5999985-1.6117706,3.5999985-3.5999908v-0.0000153
			c0-1.9882202-1.6117706-3.5999908-3.5999985-3.5999908h-0.0000076c-1.9882202,0-3.5999947,1.6117706-3.5999947,3.5999908
			v0.0000153C61.8120232,146.784256,63.4237976,148.3960266,65.4120178,148.3960266z"/>
	</g>
	<g>
		<path class="st3" d="M72.6120224,148.3960266H72.61203c1.9882202,0,3.5999985-1.6117706,3.5999985-3.5999908v-0.0000153
			c0-1.9882202-1.6117783-3.5999908-3.5999985-3.5999908h-0.0000076c-1.9882278,0-3.5999985,1.6117706-3.5999985,3.5999908
			v0.0000153C69.0120239,146.784256,70.6237946,148.3960266,72.6120224,148.3960266z"/>
	</g>
	<g>
		<path class="st3" d="M79.8120193,148.3960266h0.0000076c1.9882278,0,3.5999985-1.6117706,3.5999985-3.5999908v-0.0000153
			c0-1.9882202-1.6117706-3.5999908-3.5999985-3.5999908h-0.0000076c-1.9882202,0-3.5999908,1.6117706-3.5999908,3.5999908
			v0.0000153C76.2120285,146.784256,77.8237991,148.3960266,79.8120193,148.3960266z"/>
	</g>
	<g>
		<path class="st3" d="M87.0120239,148.3960266h0.0000076c1.9882202,0,3.5999908-1.6117706,3.5999908-3.5999908v-0.0000153
			c0-1.9882202-1.6117706-3.5999908-3.5999908-3.5999908h-0.0000076c-1.9882278,0-3.5999985,1.6117706-3.5999985,3.5999908
			v0.0000153C83.4120255,146.784256,85.0237961,148.3960266,87.0120239,148.3960266z"/>
	</g>
	<g>
		<path class="st3" d="M94.2120209,148.3960266h0.0000076c1.9882202,0,3.5999985-1.6117706,3.5999985-3.5999908v-0.0000153
			c0-1.9882202-1.6117783-3.5999908-3.5999985-3.5999908h-0.0000076c-1.9882202,0-3.5999985,1.6117706-3.5999985,3.5999908
			v0.0000153C90.6120224,146.784256,92.2238007,148.3960266,94.2120209,148.3960266z"/>
	</g>
	<g>
		<path class="st3" d="M101.4120178,148.3960266h0.0000076c1.9882278,0,3.5999985-1.6117706,3.5999985-3.5999908v-0.0000153
			c0-1.9882202-1.6117706-3.5999908-3.5999985-3.5999908h-0.0000076c-1.9882202,0-3.5999908,1.6117706-3.5999908,3.5999908
			v0.0000153C97.812027,146.784256,99.4237976,148.3960266,101.4120178,148.3960266z"/>
	</g>
	<g>
		<path class="st3" d="M108.6120224,148.3960266h0.0000076c1.9882202,0,3.5999985-1.6117706,3.5999985-3.5999908v-0.0000153
			c0-1.9882202-1.6117783-3.5999908-3.5999985-3.5999908h-0.0000076c-1.9882278,0-3.5999985,1.6117706-3.5999985,3.5999908
			v0.0000153C105.0120239,146.784256,106.6237946,148.3960266,108.6120224,148.3960266z"/>
	</g>
	<g>
		<path class="st3" d="M115.8120193,148.3960266h0.0000076c1.9882278,0,3.5999985-1.6117706,3.5999985-3.5999908v-0.0000153
			c0-1.9882202-1.6117706-3.5999908-3.5999985-3.5999908h-0.0000076c-1.9882202,0-3.5999908,1.6117706-3.5999908,3.5999908
			v0.0000153C112.2120285,146.784256,113.8237991,148.3960266,115.8120193,148.3960266z"/>
	</g>
	
		<rect x="64.8450928" y="143.7215576" transform="matrix(6.123234e-17 -1 1 6.123234e-17 -79.3583527 210.1824036)" class="st4" width="1.1338583" height="2.0976379"/>
	
		<rect x="65.2030716" y="144.058075" transform="matrix(6.123234e-17 -1 1 6.123234e-17 -79.3510666 210.1824036)" class="st5" width="0.4251969" height="1.4173229"/>
	<line class="st6" x1="64.363205" y1="145.3373108" x2="64.7070084" y2="144.9793396"/>
	<line class="st6" x1="64.7070084" y1="144.5541382" x2="64.363205" y2="144.2034454"/>
	<line class="st6" x1="66.1243286" y1="144.5541382" x2="66.4608459" y2="144.2034454"/>
	<line class="st6" x1="66.1243286" y1="144.9793396" x2="66.4608459" y2="145.3373108"/>
	
		<rect x="72.0414505" y="143.7508545" transform="matrix(6.123234e-17 -1 1 6.123234e-17 -72.1912918 217.4080505)" class="st4" width="1.1338583" height="2.0976379"/>
	
		<rect x="72.3994293" y="144.0873718" transform="matrix(6.123234e-17 -1 1 6.123234e-17 -72.1840057 217.4080505)" class="st5" width="0.4251969" height="1.4173229"/>
	<line class="st6" x1="71.5595627" y1="145.3666077" x2="71.9033661" y2="145.0086212"/>
	<line class="st6" x1="71.9033661" y1="144.5834351" x2="71.5595627" y2="144.2327423"/>
	<line class="st6" x1="73.3206863" y1="144.5834351" x2="73.6572037" y2="144.2327423"/>
	<line class="st6" x1="73.3206863" y1="145.0086212" x2="73.6572037" y2="145.3666077"/>
	
		<rect x="79.2414551" y="143.7508545" transform="matrix(6.123234e-17 -1 1 6.123234e-17 -64.9912872 224.6080475)" class="st4" width="1.1338583" height="2.0976379"/>
	
		<rect x="79.5994263" y="144.0873718" transform="matrix(6.123234e-17 -1 1 6.123234e-17 -64.9840012 224.6080475)" class="st5" width="0.4251969" height="1.4173229"/>
	<line class="st6" x1="78.7595596" y1="145.3666077" x2="79.103363" y2="145.0086212"/>
	<line class="st6" x1="79.103363" y1="144.5834351" x2="78.7595596" y2="144.2327423"/>
	<line class="st6" x1="80.5206833" y1="144.5834351" x2="80.8572006" y2="144.2327423"/>
	<line class="st6" x1="80.5206833" y1="145.0086212" x2="80.8572006" y2="145.3666077"/>
	
		<rect x="86.441452" y="143.7508545" transform="matrix(6.123234e-17 -1 1 6.123234e-17 -57.7912903 231.8080597)" class="st4" width="1.1338583" height="2.0976379"/>
	
		<rect x="86.7994232" y="144.0873718" transform="matrix(6.123234e-17 -1 1 6.123234e-17 -57.7840042 231.8080597)" class="st5" width="0.4251969" height="1.4173229"/>
	<line class="st6" x1="85.9595642" y1="145.3666077" x2="86.30336" y2="145.0086212"/>
	<line class="st6" x1="86.30336" y1="144.5834351" x2="85.9595642" y2="144.2327423"/>
	<line class="st6" x1="87.7206879" y1="144.5834351" x2="88.0571976" y2="144.2327423"/>
	<line class="st6" x1="87.7206879" y1="145.0086212" x2="88.0571976" y2="145.3666077"/>
	
		<rect x="93.641449" y="143.7508545" transform="matrix(6.123234e-17 -1 1 6.123234e-17 -50.5912895 239.0080566)" class="st4" width="1.1338583" height="2.0976379"/>
	
		<rect x="93.9994278" y="144.0873718" transform="matrix(6.123234e-17 -1 1 6.123234e-17 -50.5840034 239.0080566)" class="st5" width="0.4251969" height="1.4173229"/>
	<line class="st6" x1="93.1595612" y1="145.3666077" x2="93.5033646" y2="145.0086212"/>
	<line class="st6" x1="93.5033646" y1="144.5834351" x2="93.1595612" y2="144.2327423"/>
	<line class="st6" x1="94.9206848" y1="144.5834351" x2="95.2572021" y2="144.2327423"/>
	<line class="st6" x1="94.9206848" y1="145.0086212" x2="95.2572021" y2="145.3666077"/>
	
		<rect x="100.8414536" y="143.7508545" transform="matrix(6.123234e-17 -1 1 6.123234e-17 -43.3912888 246.2080536)" class="st4" width="1.1338583" height="2.0976379"/>
	
		<rect x="101.1994247" y="144.0873718" transform="matrix(6.123234e-17 -1 1 6.123234e-17 -43.3840027 246.2080536)" class="st5" width="0.4251969" height="1.4173229"/>
	<line class="st6" x1="100.3595657" y1="145.3666077" x2="100.7033615" y2="145.0086212"/>
	<line class="st6" x1="100.7033615" y1="144.5834351" x2="100.3595657" y2="144.2327423"/>
	<line class="st6" x1="102.1206894" y1="144.5834351" x2="102.4571991" y2="144.2327423"/>
	<line class="st6" x1="102.1206894" y1="145.0086212" x2="102.4571991" y2="145.3666077"/>
	
		<rect x="108.0414505" y="143.7508545" transform="matrix(6.123234e-17 -1 1 6.123234e-17 -36.191288 253.4080505)" class="st4" width="1.1338583" height="2.0976379"/>
	
		<rect x="108.3994293" y="144.0873718" transform="matrix(6.123234e-17 -1 1 6.123234e-17 -36.1840019 253.4080505)" class="st5" width="0.4251969" height="1.4173229"/>
	<line class="st6" x1="107.5595627" y1="145.3666077" x2="107.9033661" y2="145.0086212"/>
	<line class="st6" x1="107.9033661" y1="144.5834351" x2="107.5595627" y2="144.2327423"/>
	<line class="st6" x1="109.3206863" y1="144.5834351" x2="109.6572037" y2="144.2327423"/>
	<line class="st6" x1="109.3206863" y1="145.0086212" x2="109.6572037" y2="145.3666077"/>
	
		<rect x="115.2414551" y="143.7508545" transform="matrix(6.123234e-17 -1 1 6.123234e-17 -28.9912891 260.6080627)" class="st4" width="1.1338583" height="2.0976379"/>
	
		<rect x="115.5994263" y="144.0873718" transform="matrix(6.123234e-17 -1 1 6.123234e-17 -28.9840031 260.6080627)" class="st5" width="0.4251969" height="1.4173229"/>
	<line class="st6" x1="114.7595596" y1="145.3666077" x2="115.103363" y2="145.0086212"/>
	<line class="st6" x1="115.103363" y1="144.5834351" x2="114.7595596" y2="144.2327423"/>
	<line class="st6" x1="116.5206833" y1="144.5834351" x2="116.8572006" y2="144.2327423"/>
	<line class="st6" x1="116.5206833" y1="145.0086212" x2="116.8572006" y2="145.3666077"/>
</g>
<g>
	<g>
		<g>
			<path class="st1" d="M14.9835014,142.3427887c1.2273617,0,2.2224751,1.0018463,2.2224751,2.2397308
				c0,1.2378998-0.9951134,2.2415466-2.2224751,2.2415466s-2.2224741-1.0036469-2.2224741-2.2415466
				C12.7610273,143.344635,13.7561398,142.3427887,14.9835014,142.3427887z"/>
			<ellipse class="st2" cx="14.9835014" cy="144.5834351" rx="1.5185714" ry="1.5316002"/>
		</g>
		<g>
			<path class="st1" d="M22.1835098,142.3427887c1.2273617,0,2.2224731,1.0018463,2.2224731,2.2397308
				c0,1.2378998-0.9951115,2.2415466-2.2224731,2.2415466c-1.2273636,0-2.2224751-1.0036469-2.2224751-2.2415466
				C19.9610348,143.344635,20.9561462,142.3427887,22.1835098,142.3427887z"/>
			<ellipse class="st2" cx="22.1835098" cy="144.5834351" rx="1.5185714" ry="1.5316002"/>
		</g>
		<g>
			<path class="st1" d="M29.3835106,142.3427887c1.2273617,0,2.2224751,1.0018463,2.2224751,2.2397308
				c0,1.2378998-0.9951134,2.2415466-2.2224751,2.2415466s-2.2224731-1.0036469-2.2224731-2.2415466
				C27.1610374,143.344635,28.1561489,142.3427887,29.3835106,142.3427887z"/>
			<ellipse class="st2" cx="29.3835106" cy="144.5834351" rx="1.5185714" ry="1.5316002"/>
		</g>
		<g>
			<path class="st1" d="M36.5835876,142.3427887c1.2273636,0,2.222477,1.0018463,2.222477,2.2397308
				c0,1.2378998-0.9951134,2.2415466-2.222477,2.2415466c-1.2273598,0-2.2224731-1.0036469-2.2224731-2.2415466
				C34.3611145,143.344635,35.3562279,142.3427887,36.5835876,142.3427887z"/>
			<ellipse class="st2" cx="36.5835876" cy="144.5834351" rx="1.5185714" ry="1.5316002"/>
		</g>
		<g>
			<path class="st1" d="M43.7835121,142.3427887c1.2273598,0,2.2224731,1.0018463,2.2224731,2.2397308
				c0,1.2378998-0.9951134,2.2415466-2.2224731,2.2415466c-1.2273636,0-2.222477-1.0036469-2.222477-2.2415466
				C41.5610352,143.344635,42.5561485,142.3427887,43.7835121,142.3427887z"/>
			<ellipse class="st2" cx="43.7835121" cy="144.5834351" rx="1.5185714" ry="1.5316002"/>
		</g>
		<g>
			<path class="st1" d="M50.9835091,142.3427887c1.2273636,0,2.222477,1.0018463,2.222477,2.2397308
				c0,1.2378998-0.9951134,2.2415466-2.222477,2.2415466c-1.2273598,0-2.2224731-1.0036469-2.2224731-2.2415466
				C48.7610359,143.344635,49.7561493,142.3427887,50.9835091,142.3427887z"/>
			<ellipse class="st2" cx="50.9835091" cy="144.5834351" rx="1.5185714" ry="1.5316002"/>
		</g>
	</g>
	<g>
		<path class="st3" d="M15.0120211,148.3960266h0.0000076c1.9882231,0,3.5999956-1.6117706,3.5999956-3.5999908v-0.0000153
			c0-1.9882202-1.6117725-3.5999908-3.5999956-3.5999908h-0.0000076c-1.9882231,0-3.5999966,1.6117706-3.5999966,3.5999908
			v0.0000153C11.4120245,146.784256,13.023798,148.3960266,15.0120211,148.3960266z"/>
	</g>
	<g>
		<path class="st3" d="M22.2120209,148.3960266h0.0000076c1.988224,0,3.5999966-1.6117706,3.5999966-3.5999908v-0.0000153
			c0-1.9882202-1.6117725-3.5999908-3.5999966-3.5999908h-0.0000076c-1.9882221,0-3.5999966,1.6117706-3.5999966,3.5999908
			v0.0000153C18.6120243,146.784256,20.2237988,148.3960266,22.2120209,148.3960266z"/>
	</g>
	<g>
		<path class="st3" d="M29.4120216,148.3960266h0.0000076c1.9882221,0,3.5999947-1.6117706,3.5999947-3.5999908v-0.0000153
			c0-1.9882202-1.6117725-3.5999908-3.5999947-3.5999908h-0.0000076c-1.988224,0-3.5999966,1.6117706-3.5999966,3.5999908v0.0000153
			C25.8120251,146.784256,27.4237976,148.3960266,29.4120216,148.3960266z"/>
	</g>
	<g>
		<path class="st3" d="M36.6120224,148.3960266H36.61203c1.9882202,0,3.5999947-1.6117706,3.5999947-3.5999908v-0.0000153
			c0-1.9882202-1.6117744-3.5999908-3.5999947-3.5999908h-0.0000076c-1.988224,0-3.5999985,1.6117706-3.5999985,3.5999908v0.0000153
			C33.0120239,146.784256,34.6237984,148.3960266,36.6120224,148.3960266z"/>
	</g>
	<g>
		<path class="st3" d="M43.8120232,148.3960266h0.0000038c1.988224,0,3.5999985-1.6117706,3.5999985-3.5999908v-0.0000153
			c0-1.9882202-1.6117744-3.5999908-3.5999985-3.5999908h-0.0000038c-1.988224,0-3.5999985,1.6117706-3.5999985,3.5999908v0.0000153
			C40.2120247,146.784256,41.8237991,148.3960266,43.8120232,148.3960266z"/>
	</g>
	<g>
		<path class="st3" d="M51.0120201,148.3960266h0.0000076c1.988224,0,3.5999985-1.6117706,3.5999985-3.5999908v-0.0000153
			c0-1.9882202-1.6117744-3.5999908-3.5999985-3.5999908h-0.0000076c-1.9882202,0-3.5999947,1.6117706-3.5999947,3.5999908
			v0.0000153C47.4120255,146.784256,49.0237999,148.3960266,51.0120201,148.3960266z"/>
	</g>
	
		<rect x="50.445118" y="143.7472076" transform="matrix(6.123234e-17 -1 1 6.123234e-17 -93.7839813 195.808075)" class="st4" width="1.1338583" height="2.0976379"/>
	
		<rect x="50.803093" y="144.083725" transform="matrix(6.123234e-17 -1 1 6.123234e-17 -93.7766953 195.808075)" class="st5" width="0.4251969" height="1.4173229"/>
	<line class="st6" x1="49.9632301" y1="145.3629608" x2="50.3070297" y2="145.0049896"/>
	<line class="st6" x1="50.3070297" y1="144.5797882" x2="49.9632301" y2="144.2290955"/>
	<line class="st6" x1="51.7243538" y1="144.5797882" x2="52.0608673" y2="144.2290955"/>
	<line class="st6" x1="51.7243538" y1="145.0049896" x2="52.0608673" y2="145.3629608"/>
	
		<rect x="43.2414513" y="143.7508545" transform="matrix(6.123234e-17 -1 1 6.123234e-17 -100.9912872 188.6080475)" class="st4" width="1.1338583" height="2.0976379"/>
	
		<rect x="43.5994263" y="144.0873718" transform="matrix(6.123234e-17 -1 1 6.123234e-17 -100.9840012 188.6080475)" class="st5" width="0.4251969" height="1.4173229"/>
	<line class="st6" x1="42.7595634" y1="145.3666077" x2="43.103363" y2="145.0086212"/>
	<line class="st6" x1="43.103363" y1="144.5834351" x2="42.7595634" y2="144.2327423"/>
	<line class="st6" x1="44.5206871" y1="144.5834351" x2="44.8572006" y2="144.2327423"/>
	<line class="st6" x1="44.5206871" y1="145.0086212" x2="44.8572006" y2="145.3666077"/>
	
		<rect x="36.0414505" y="143.7508545" transform="matrix(6.123234e-17 -1 1 6.123234e-17 -108.1912918 181.4080505)" class="st4" width="1.1338583" height="2.0976379"/>
	
		<rect x="36.3994255" y="144.0873718" transform="matrix(6.123234e-17 -1 1 6.123234e-17 -108.1840057 181.4080505)" class="st5" width="0.4251969" height="1.4173229"/>
	<line class="st6" x1="35.5595627" y1="145.3666077" x2="35.9033623" y2="145.0086212"/>
	<line class="st6" x1="35.9033623" y1="144.5834351" x2="35.5595627" y2="144.2327423"/>
	<line class="st6" x1="37.3206863" y1="144.5834351" x2="37.6571999" y2="144.2327423"/>
	<line class="st6" x1="37.3206863" y1="145.0086212" x2="37.6571999" y2="145.3666077"/>
	
		<rect x="28.8414516" y="143.7508545" transform="matrix(6.123234e-17 -1 1 6.123234e-17 -115.3912888 174.2080536)" class="st4" width="1.1338583" height="2.0976379"/>
	
		<rect x="29.1994267" y="144.0873718" transform="matrix(6.123234e-17 -1 1 6.123234e-17 -115.3840027 174.2080536)" class="st5" width="0.4251969" height="1.4173229"/>
	<line class="st6" x1="28.3595619" y1="145.3666077" x2="28.7033634" y2="145.0086212"/>
	<line class="st6" x1="28.7033634" y1="144.5834351" x2="28.3595619" y2="144.2327423"/>
	<line class="st6" x1="30.1206856" y1="144.5834351" x2="30.457201" y2="144.2327423"/>
	<line class="st6" x1="30.1206856" y1="145.0086212" x2="30.457201" y2="145.3666077"/>
	
		<rect x="21.6451054" y="143.7472076" transform="matrix(6.123234e-17 -1 1 6.123234e-17 -122.583992 167.0080566)" class="st4" width="1.1338583" height="2.0976379"/>
	
		<rect x="22.0030804" y="144.083725" transform="matrix(6.123234e-17 -1 1 6.123234e-17 -122.5767059 167.0080566)" class="st5" width="0.4251969" height="1.4173229"/>
	<line class="st6" x1="21.1632156" y1="145.3629608" x2="21.5070171" y2="145.0049896"/>
	<line class="st6" x1="21.5070171" y1="144.5797882" x2="21.1632156" y2="144.2290955"/>
	<line class="st6" x1="22.9243393" y1="144.5797882" x2="23.2608528" y2="144.2290955"/>
	<line class="st6" x1="22.9243393" y1="145.0049896" x2="23.2608528" y2="145.3629608"/>
	
		<rect x="14.441452" y="143.7508545" transform="matrix(6.123234e-17 -1 1 6.123234e-17 -129.7912903 159.8080597)" class="st4" width="1.1338583" height="2.0976379"/>
	
		<rect x="14.7994261" y="144.0873718" transform="matrix(6.123234e-17 -1 1 6.123234e-17 -129.7839966 159.8080597)" class="st5" width="0.4251969" height="1.4173229"/>
	<line class="st6" x1="13.9595623" y1="145.3666077" x2="14.3033638" y2="145.0086212"/>
	<line class="st6" x1="14.3033638" y1="144.5834351" x2="13.9595623" y2="144.2327423"/>
	<line class="st6" x1="15.720686" y1="144.5834351" x2="16.0571995" y2="144.2327423"/>
	<line class="st6" x1="15.720686" y1="145.0086212" x2="16.0571995" y2="145.3666077"/>
</g>
<g>
	<g>
		<path class="st1" d="M126.6136551,141.8571167c1.2273636,0,2.2224808,1.0018463,2.2224808,2.2397461
			c0,1.2378845-0.9951172,2.2415466-2.2224808,2.2415466s-2.2224731-1.0036621-2.2224731-2.2415466
			C124.3911819,142.858963,125.3862915,141.8571167,126.6136551,141.8571167z"/>
		<ellipse class="st2" cx="126.6136551" cy="144.0977631" rx="1.5185714" ry="1.5316002"/>
	</g>
	<g>
		<path class="st1" d="M133.7774048,141.8571167c1.2273712,0,2.2224731,1.0018463,2.2224731,2.2397461
			c0,1.2378845-0.9951019,2.2415466-2.2224731,2.2415466c-1.227356,0-2.2224731-1.0036621-2.2224731-2.2415466
			C131.5549316,142.858963,132.5500488,141.8571167,133.7774048,141.8571167z"/>
		<ellipse class="st2" cx="133.7774048" cy="144.0977631" rx="1.5185714" ry="1.5316002"/>
	</g>
	<g>
		<path class="st1" d="M140.9487915,141.8571167c1.2273712,0,2.2224731,1.0018463,2.2224731,2.2397461
			c0,1.2378845-0.9951019,2.2415466-2.2224731,2.2415466c-1.227356,0-2.2224731-1.0036621-2.2224731-2.2415466
			C138.7263184,142.858963,139.7214355,141.8571167,140.9487915,141.8571167z"/>
		<ellipse class="st2" cx="140.9487915" cy="144.0977631" rx="1.5185714" ry="1.5316002"/>
	</g>
</g>
<g>
	<g>
		<path class="st1" d="M36.4581261,105.1118698c1.2273598,0,2.2224731,1.0018463,2.2224731,2.2397385
			s-0.9951134,2.2415466-2.2224731,2.2415466c-1.2273636,0-2.222477-1.0036545-2.222477-2.2415466
			S35.2307625,105.1118698,36.4581261,105.1118698z"/>
		<ellipse class="st2" cx="36.4581261" cy="107.3525085" rx="1.5185714" ry="1.5316002"/>
	</g>
	<g>
		<path class="st1" d="M43.6218796,105.1118698c1.2273598,0,2.2224731,1.0018463,2.2224731,2.2397385
			s-0.9951134,2.2415466-2.2224731,2.2415466c-1.2273636,0-2.2224731-1.0036545-2.2224731-2.2415466
			S42.394516,105.1118698,43.6218796,105.1118698z"/>
		<ellipse class="st2" cx="43.6218796" cy="107.3525085" rx="1.5185714" ry="1.5316002"/>
	</g>
	<g>
		<path class="st1" d="M50.7932625,105.1118698c1.2273636,0,2.222477,1.0018463,2.222477,2.2397385
			s-0.9951134,2.2415466-2.222477,2.2415466c-1.2273598,0-2.2224731-1.0036545-2.2224731-2.2415466
			S49.5659027,105.1118698,50.7932625,105.1118698z"/>
		<ellipse class="st2" cx="50.7932625" cy="107.3525085" rx="1.5185714" ry="1.5316002"/>
	</g>
	<g>
		<path class="st1" d="M36.4581261,97.9411163c1.2273598,0,2.2224731,1.0018463,2.2224731,2.2397385
			s-0.9951134,2.2415466-2.2224731,2.2415466c-1.2273636,0-2.222477-1.0036545-2.222477-2.2415466
			S35.2307625,97.9411163,36.4581261,97.9411163z"/>
		<ellipse class="st2" cx="36.4581261" cy="100.1817627" rx="1.5185714" ry="1.5316002"/>
	</g>
	<g>
		<path class="st1" d="M43.6218796,97.9411163c1.2273598,0,2.2224731,1.0018463,2.2224731,2.2397385
			s-0.9951134,2.2415466-2.2224731,2.2415466c-1.2273636,0-2.2224731-1.0036545-2.2224731-2.2415466
			S42.394516,97.9411163,43.6218796,97.9411163z"/>
		<ellipse class="st2" cx="43.6218796" cy="100.1817627" rx="1.5185714" ry="1.5316002"/>
	</g>
	<g>
		<path class="st1" d="M50.7932625,97.9411163c1.2273636,0,2.222477,1.0018463,2.222477,2.2397385
			s-0.9951134,2.2415466-2.222477,2.2415466c-1.2273598,0-2.2224731-1.0036545-2.2224731-2.2415466
			S49.5659027,97.9411163,50.7932625,97.9411163z"/>
		<ellipse class="st2" cx="50.7932625" cy="100.1817627" rx="1.5185714" ry="1.5316002"/>
	</g>
	<g>
		<path class="st1" d="M36.4581261,90.7694626c1.2273598,0,2.2224731,1.0018463,2.2224731,2.2397385
			s-0.9951134,2.2415466-2.2224731,2.2415466c-1.2273636,0-2.222477-1.0036545-2.222477-2.2415466
			S35.2307625,90.7694626,36.4581261,90.7694626z"/>
		<ellipse class="st2" cx="36.4581261" cy="93.0101089" rx="1.5185714" ry="1.5316002"/>
	</g>
	<g>
		<path class="st1" d="M43.6218796,90.7694626c1.2273598,0,2.2224731,1.0018463,2.2224731,2.2397385
			s-0.9951134,2.2415466-2.2224731,2.2415466c-1.2273636,0-2.2224731-1.0036545-2.2224731-2.2415466
			S42.394516,90.7694626,43.6218796,90.7694626z"/>
		<ellipse class="st2" cx="43.6218796" cy="93.0101089" rx="1.5185714" ry="1.5316002"/>
	</g>
	<g>
		<path class="st1" d="M50.7932625,90.7694626c1.2273636,0,2.222477,1.0018463,2.222477,2.2397385
			s-0.9951134,2.2415466-2.222477,2.2415466c-1.2273598,0-2.2224731-1.0036545-2.2224731-2.2415466
			S49.5659027,90.7694626,50.7932625,90.7694626z"/>
		<ellipse class="st2" cx="50.7932625" cy="93.0101089" rx="1.5185714" ry="1.5316002"/>
	</g>
	<g>
		<path class="st1" d="M36.4581261,83.5987167c1.2273598,0,2.2224731,1.0018463,2.2224731,2.2397385
			s-0.9951134,2.241539-2.2224731,2.241539c-1.2273636,0-2.222477-1.0036469-2.222477-2.241539
			S35.2307625,83.5987167,36.4581261,83.5987167z"/>
		<ellipse class="st2" cx="36.4581261" cy="85.8393555" rx="1.5185714" ry="1.5316002"/>
	</g>
	<g>
		<path class="st1" d="M43.6218796,83.5987167c1.2273598,0,2.2224731,1.0018463,2.2224731,2.2397385
			s-0.9951134,2.241539-2.2224731,2.241539c-1.2273636,0-2.2224731-1.0036469-2.2224731-2.241539
			S42.394516,83.5987167,43.6218796,83.5987167z"/>
		<ellipse class="st2" cx="43.6218796" cy="85.8393555" rx="1.5185714" ry="1.5316002"/>
	</g>
	<g>
		<path class="st1" d="M50.7932625,83.5987167c1.2273636,0,2.222477,1.0018463,2.222477,2.2397385
			s-0.9951134,2.241539-2.222477,2.241539c-1.2273598,0-2.2224731-1.0036469-2.2224731-2.241539
			S49.5659027,83.5987167,50.7932625,83.5987167z"/>
		<ellipse class="st2" cx="50.7932625" cy="85.8393555" rx="1.5185714" ry="1.5316002"/>
	</g>
	<g>
		<path class="st1" d="M36.4581261,68.5935898c1.2273598,0,2.2224731,1.0018463,2.2224731,2.2397385
			s-0.9951134,2.241539-2.2224731,2.241539c-1.2273636,0-2.222477-1.0036469-2.222477-2.241539
			S35.2307625,68.5935898,36.4581261,68.5935898z"/>
		<ellipse class="st2" cx="36.4581261" cy="70.8342285" rx="1.5185714" ry="1.5316002"/>
	</g>
	<g>
		<path class="st1" d="M43.6218796,68.5935898c1.2273598,0,2.2224731,1.0018463,2.2224731,2.2397385
			s-0.9951134,2.241539-2.2224731,2.241539c-1.2273636,0-2.2224731-1.0036469-2.2224731-2.241539
			S42.394516,68.5935898,43.6218796,68.5935898z"/>
		<ellipse class="st2" cx="43.6218796" cy="70.8342285" rx="1.5185714" ry="1.5316002"/>
	</g>
	<g>
		<path class="st1" d="M50.7932625,68.5935898c1.2273636,0,2.222477,1.0018463,2.222477,2.2397385
			s-0.9951134,2.241539-2.222477,2.241539c-1.2273598,0-2.2224731-1.0036469-2.2224731-2.241539
			S49.5659027,68.5935898,50.7932625,68.5935898z"/>
		<ellipse class="st2" cx="50.7932625" cy="70.8342285" rx="1.5185714" ry="1.5316002"/>
	</g>
	<g>
		<path class="st1" d="M36.4581261,61.4228363c1.2273598,0,2.2224731,1.0018463,2.2224731,2.2397385
			s-0.9951134,2.241539-2.2224731,2.241539c-1.2273636,0-2.222477-1.0036469-2.222477-2.241539
			S35.2307625,61.4228363,36.4581261,61.4228363z"/>
		<ellipse class="st2" cx="36.4581261" cy="63.6634789" rx="1.5185714" ry="1.5316002"/>
	</g>
	<g>
		<path class="st1" d="M43.6218796,61.4228363c1.2273598,0,2.2224731,1.0018463,2.2224731,2.2397385
			s-0.9951134,2.241539-2.2224731,2.241539c-1.2273636,0-2.2224731-1.0036469-2.2224731-2.241539
			S42.394516,61.4228363,43.6218796,61.4228363z"/>
		<ellipse class="st2" cx="43.6218796" cy="63.6634789" rx="1.5185714" ry="1.5316002"/>
	</g>
	<g>
		<path class="st1" d="M50.7932625,61.4228363c1.2273636,0,2.222477,1.0018463,2.222477,2.2397385
			s-0.9951134,2.241539-2.222477,2.241539c-1.2273598,0-2.2224731-1.0036469-2.2224731-2.241539
			S49.5659027,61.4228363,50.7932625,61.4228363z"/>
		<ellipse class="st2" cx="50.7932625" cy="63.6634789" rx="1.5185714" ry="1.5316002"/>
	</g>
	<g>
		<path class="st1" d="M36.4581261,54.2511826c1.2273598,0,2.2224731,1.0018463,2.2224731,2.2397385
			s-0.9951134,2.2415428-2.2224731,2.2415428c-1.2273636,0-2.222477-1.0036507-2.222477-2.2415428
			S35.2307625,54.2511826,36.4581261,54.2511826z"/>
		<ellipse class="st2" cx="36.4581261" cy="56.4918251" rx="1.5185714" ry="1.5316002"/>
	</g>
	<g>
		<path class="st1" d="M43.6218796,54.2511826c1.2273598,0,2.2224731,1.0018463,2.2224731,2.2397385
			s-0.9951134,2.2415428-2.2224731,2.2415428c-1.2273636,0-2.2224731-1.0036507-2.2224731-2.2415428
			S42.394516,54.2511826,43.6218796,54.2511826z"/>
		<ellipse class="st2" cx="43.6218796" cy="56.4918251" rx="1.5185714" ry="1.5316002"/>
	</g>
	<g>
		<path class="st1" d="M50.7932625,54.2511826c1.2273636,0,2.222477,1.0018463,2.222477,2.2397385
			s-0.9951134,2.2415428-2.222477,2.2415428c-1.2273598,0-2.2224731-1.0036507-2.2224731-2.2415428
			S49.5659027,54.2511826,50.7932625,54.2511826z"/>
		<ellipse class="st2" cx="50.7932625" cy="56.4918251" rx="1.5185714" ry="1.5316002"/>
	</g>
	<g>
		<path class="st1" d="M36.4581261,47.0804329c1.2273598,0,2.2224731,1.0018463,2.2224731,2.2397385
			s-0.9951134,2.241539-2.2224731,2.241539c-1.2273636,0-2.222477-1.0036469-2.222477-2.241539
			S35.2307625,47.0804329,36.4581261,47.0804329z"/>
		<ellipse class="st2" cx="36.4581261" cy="49.3210716" rx="1.5185714" ry="1.5316002"/>
	</g>
	<g>
		<path class="st1" d="M43.6218796,47.0804329c1.2273598,0,2.2224731,1.0018463,2.2224731,2.2397385
			s-0.9951134,2.241539-2.2224731,2.241539c-1.2273636,0-2.2224731-1.0036469-2.2224731-2.241539
			S42.394516,47.0804329,43.6218796,47.0804329z"/>
		<ellipse class="st2" cx="43.6218796" cy="49.3210716" rx="1.5185714" ry="1.5316002"/>
	</g>
	<g>
		<path class="st1" d="M50.7932625,47.0804329c1.2273636,0,2.222477,1.0018463,2.222477,2.2397385
			s-0.9951134,2.241539-2.222477,2.241539c-1.2273598,0-2.2224731-1.0036469-2.2224731-2.241539
			S49.5659027,47.0804329,50.7932625,47.0804329z"/>
		<ellipse class="st2" cx="50.7932625" cy="49.3210716" rx="1.5185714" ry="1.5316002"/>
	</g>
</g>
<g>
	<g>
		<path class="st1" d="M121.5631485,105.1118698c1.227356,0,2.2224731,1.0018463,2.2224731,2.2397385
			s-0.9951172,2.2415466-2.2224731,2.2415466c-1.2273636,0-2.2224808-1.0036545-2.2224808-2.2415466
			S120.3357849,105.1118698,121.5631485,105.1118698z"/>
		<ellipse class="st2" cx="121.5631485" cy="107.3525085" rx="1.5185714" ry="1.5316002"/>
	</g>
	<g>
		<path class="st1" d="M128.7268982,105.1118698c1.227356,0,2.2224731,1.0018463,2.2224731,2.2397385
			s-0.9951172,2.2415466-2.2224731,2.2415466c-1.2273636,0-2.2224731-1.0036545-2.2224731-2.2415466
			S127.4995346,105.1118698,128.7268982,105.1118698z"/>
		<ellipse class="st2" cx="128.7268982" cy="107.3525085" rx="1.5185714" ry="1.5316002"/>
	</g>
	<g>
		<path class="st1" d="M135.8982849,105.1118698c1.227356,0,2.2224731,1.0018463,2.2224731,2.2397385
			s-0.9951172,2.2415466-2.2224731,2.2415466s-2.2224731-1.0036545-2.2224731-2.2415466
			S134.670929,105.1118698,135.8982849,105.1118698z"/>
		<ellipse class="st2" cx="135.8982849" cy="107.3525085" rx="1.5185714" ry="1.5316002"/>
	</g>
	<g>
		<path class="st1" d="M121.5631485,97.9411163c1.227356,0,2.2224731,1.0018463,2.2224731,2.2397385
			s-0.9951172,2.2415466-2.2224731,2.2415466c-1.2273636,0-2.2224808-1.0036545-2.2224808-2.2415466
			S120.3357849,97.9411163,121.5631485,97.9411163z"/>
		<ellipse class="st2" cx="121.5631485" cy="100.1817627" rx="1.5185714" ry="1.5316002"/>
	</g>
	<g>
		<path class="st1" d="M128.7268982,97.9411163c1.227356,0,2.2224731,1.0018463,2.2224731,2.2397385
			s-0.9951172,2.2415466-2.2224731,2.2415466c-1.2273636,0-2.2224731-1.0036545-2.2224731-2.2415466
			S127.4995346,97.9411163,128.7268982,97.9411163z"/>
		<ellipse class="st2" cx="128.7268982" cy="100.1817627" rx="1.5185714" ry="1.5316002"/>
	</g>
	<g>
		<path class="st1" d="M135.8982849,97.9411163c1.227356,0,2.2224731,1.0018463,2.2224731,2.2397385
			s-0.9951172,2.2415466-2.2224731,2.2415466s-2.2224731-1.0036545-2.2224731-2.2415466
			S134.670929,97.9411163,135.8982849,97.9411163z"/>
		<ellipse class="st2" cx="135.8982849" cy="100.1817627" rx="1.5185714" ry="1.5316002"/>
	</g>
	<g>
		<path class="st1" d="M121.5631485,90.7694626c1.227356,0,2.2224731,1.0018463,2.2224731,2.2397385
			s-0.9951172,2.2415466-2.2224731,2.2415466c-1.2273636,0-2.2224808-1.0036545-2.2224808-2.2415466
			S120.3357849,90.7694626,121.5631485,90.7694626z"/>
		<ellipse class="st2" cx="121.5631485" cy="93.0101089" rx="1.5185714" ry="1.5316002"/>
	</g>
	<g>
		<path class="st1" d="M128.7268982,90.7694626c1.227356,0,2.2224731,1.0018463,2.2224731,2.2397385
			s-0.9951172,2.2415466-2.2224731,2.2415466c-1.2273636,0-2.2224731-1.0036545-2.2224731-2.2415466
			S127.4995346,90.7694626,128.7268982,90.7694626z"/>
		<ellipse class="st2" cx="128.7268982" cy="93.0101089" rx="1.5185714" ry="1.5316002"/>
	</g>
	<g>
		<path class="st1" d="M135.8982849,90.7694626c1.227356,0,2.2224731,1.0018463,2.2224731,2.2397385
			s-0.9951172,2.2415466-2.2224731,2.2415466s-2.2224731-1.0036545-2.2224731-2.2415466
			S134.670929,90.7694626,135.8982849,90.7694626z"/>
		<ellipse class="st2" cx="135.8982849" cy="93.0101089" rx="1.5185714" ry="1.5316002"/>
	</g>
	<g>
		<path class="st1" d="M121.5631485,83.5987167c1.227356,0,2.2224731,1.0018463,2.2224731,2.2397385
			s-0.9951172,2.241539-2.2224731,2.241539c-1.2273636,0-2.2224808-1.0036469-2.2224808-2.241539
			S120.3357849,83.5987167,121.5631485,83.5987167z"/>
		<ellipse class="st2" cx="121.5631485" cy="85.8393555" rx="1.5185714" ry="1.5316002"/>
	</g>
	<g>
		<path class="st1" d="M128.7268982,83.5987167c1.227356,0,2.2224731,1.0018463,2.2224731,2.2397385
			s-0.9951172,2.241539-2.2224731,2.241539c-1.2273636,0-2.2224731-1.0036469-2.2224731-2.241539
			S127.4995346,83.5987167,128.7268982,83.5987167z"/>
		<ellipse class="st2" cx="128.7268982" cy="85.8393555" rx="1.5185714" ry="1.5316002"/>
	</g>
	<g>
		<path class="st1" d="M135.8982849,83.5987167c1.227356,0,2.2224731,1.0018463,2.2224731,2.2397385
			s-0.9951172,2.241539-2.2224731,2.241539s-2.2224731-1.0036469-2.2224731-2.241539S134.670929,83.5987167,135.8982849,83.5987167z
			"/>
		<ellipse class="st2" cx="135.8982849" cy="85.8393555" rx="1.5185714" ry="1.5316002"/>
	</g>
	<g>
		<path class="st1" d="M121.5631485,68.5935898c1.227356,0,2.2224731,1.0018463,2.2224731,2.2397385
			s-0.9951172,2.241539-2.2224731,2.241539c-1.2273636,0-2.2224808-1.0036469-2.2224808-2.241539
			S120.3357849,68.5935898,121.5631485,68.5935898z"/>
		<ellipse class="st2" cx="121.5631485" cy="70.8342285" rx="1.5185714" ry="1.5316002"/>
	</g>
	<g>
		<path class="st1" d="M128.7268982,68.5935898c1.227356,0,2.2224731,1.0018463,2.2224731,2.2397385
			s-0.9951172,2.241539-2.2224731,2.241539c-1.2273636,0-2.2224731-1.0036469-2.2224731-2.241539
			S127.4995346,68.5935898,128.7268982,68.5935898z"/>
		<ellipse class="st2" cx="128.7268982" cy="70.8342285" rx="1.5185714" ry="1.5316002"/>
	</g>
	<g>
		<path class="st1" d="M135.8982849,68.5935898c1.227356,0,2.2224731,1.0018463,2.2224731,2.2397385
			s-0.9951172,2.241539-2.2224731,2.241539s-2.2224731-1.0036469-2.2224731-2.241539S134.670929,68.5935898,135.8982849,68.5935898z
			"/>
		<ellipse class="st2" cx="135.8982849" cy="70.8342285" rx="1.5185714" ry="1.5316002"/>
	</g>
	<g>
		<path class="st1" d="M121.5631485,61.4228363c1.227356,0,2.2224731,1.0018463,2.2224731,2.2397385
			s-0.9951172,2.241539-2.2224731,2.241539c-1.2273636,0-2.2224808-1.0036469-2.2224808-2.241539
			S120.3357849,61.4228363,121.5631485,61.4228363z"/>
		<ellipse class="st2" cx="121.5631485" cy="63.6634789" rx="1.5185714" ry="1.5316002"/>
	</g>
	<g>
		<path class="st1" d="M128.7268982,61.4228363c1.227356,0,2.2224731,1.0018463,2.2224731,2.2397385
			s-0.9951172,2.241539-2.2224731,2.241539c-1.2273636,0-2.2224731-1.0036469-2.2224731-2.241539
			S127.4995346,61.4228363,128.7268982,61.4228363z"/>
		<ellipse class="st2" cx="128.7268982" cy="63.6634789" rx="1.5185714" ry="1.5316002"/>
	</g>
	<g>
		<path class="st1" d="M135.8982849,61.4228363c1.227356,0,2.2224731,1.0018463,2.2224731,2.2397385
			s-0.9951172,2.241539-2.2224731,2.241539s-2.2224731-1.0036469-2.2224731-2.241539S134.670929,61.4228363,135.8982849,61.4228363z
			"/>
		<ellipse class="st2" cx="135.8982849" cy="63.6634789" rx="1.5185714" ry="1.5316002"/>
	</g>
	<g>
		<path class="st1" d="M121.5631485,54.2511826c1.227356,0,2.2224731,1.0018463,2.2224731,2.2397385
			s-0.9951172,2.2415428-2.2224731,2.2415428c-1.2273636,0-2.2224808-1.0036507-2.2224808-2.2415428
			S120.3357849,54.2511826,121.5631485,54.2511826z"/>
		<ellipse class="st2" cx="121.5631485" cy="56.4918251" rx="1.5185714" ry="1.5316002"/>
	</g>
	<g>
		<path class="st1" d="M128.7268982,54.2511826c1.227356,0,2.2224731,1.0018463,2.2224731,2.2397385
			s-0.9951172,2.2415428-2.2224731,2.2415428c-1.2273636,0-2.2224731-1.0036507-2.2224731-2.2415428
			S127.4995346,54.2511826,128.7268982,54.2511826z"/>
		<ellipse class="st2" cx="128.7268982" cy="56.4918251" rx="1.5185714" ry="1.5316002"/>
	</g>
	<g>
		<path class="st1" d="M135.8982849,54.2511826c1.227356,0,2.2224731,1.0018463,2.2224731,2.2397385
			s-0.9951172,2.2415428-2.2224731,2.2415428s-2.2224731-1.0036507-2.2224731-2.2415428
			S134.670929,54.2511826,135.8982849,54.2511826z"/>
		<ellipse class="st2" cx="135.8982849" cy="56.4918251" rx="1.5185714" ry="1.5316002"/>
	</g>
	<g>
		<path class="st1" d="M121.5631485,47.0804329c1.227356,0,2.2224731,1.0018463,2.2224731,2.2397385
			s-0.9951172,2.241539-2.2224731,2.241539c-1.2273636,0-2.2224808-1.0036469-2.2224808-2.241539
			S120.3357849,47.0804329,121.5631485,47.0804329z"/>
		<ellipse class="st2" cx="121.5631485" cy="49.3210716" rx="1.5185714" ry="1.5316002"/>
	</g>
	<g>
		<path class="st1" d="M128.7268982,47.0804329c1.227356,0,2.2224731,1.0018463,2.2224731,2.2397385
			s-0.9951172,2.241539-2.2224731,2.241539c-1.2273636,0-2.2224731-1.0036469-2.2224731-2.241539
			S127.4995346,47.0804329,128.7268982,47.0804329z"/>
		<ellipse class="st2" cx="128.7268982" cy="49.3210716" rx="1.5185714" ry="1.5316002"/>
	</g>
	<g>
		<path class="st1" d="M135.8982849,47.0804329c1.227356,0,2.2224731,1.0018463,2.2224731,2.2397385
			s-0.9951172,2.241539-2.2224731,2.241539s-2.2224731-1.0036469-2.2224731-2.241539S134.670929,47.0804329,135.8982849,47.0804329z
			"/>
		<ellipse class="st2" cx="135.8982849" cy="49.3210716" rx="1.5185714" ry="1.5316002"/>
	</g>
</g>
<g>
	<polyline class="st7" points="194.98349,122.5866623 194.98349,144.9803619 197.6990204,144.9803619 197.6990204,122.5866547 	"/>
	<polyline class="st7" points="197.6990204,122.5866547 197.6990204,120.6024094 194.98349,120.6024094 194.98349,122.5866623 	"/>
	<g id="Клеммник_2_">
		<g>
			<path class="st1" d="M173.2106934,135.3835602c1.2273712,0,2.2224731,1.1304932,2.2224731,2.3683929
				c0,1.2378845-0.9951019,2.1128845-2.2224731,2.1128845c-1.227356,0-2.2224731-1.0036469-2.2224731-2.2415314
				C170.9882202,136.3854065,171.9833374,135.3835602,173.2106934,135.3835602z"/>
			<ellipse class="st2" cx="173.2106934" cy="137.6242065" rx="1.5185714" ry="1.5316002"/>
		</g>
		<g>
			<path class="st1" d="M173.2106934,125.5900497c1.2273712,0,2.2224731,1.1305008,2.2224731,2.3683929
				s-0.9951019,2.1128922-2.2224731,2.1128922c-1.227356,0-2.2224731-1.0036469-2.2224731-2.2415466
				C170.9882202,126.5918961,171.9833374,125.5900497,173.2106934,125.5900497z"/>
			<ellipse class="st2" cx="173.2106934" cy="127.8306961" rx="1.5185714" ry="1.5316002"/>
		</g>
		<g>
			<path class="st1" d="M187.3073273,125.5900497c1.227356,0,2.2224731,1.1305008,2.2224731,2.3683929
				s-0.9951172,2.1128922-2.2224731,2.1128922s-2.2224731-1.0036469-2.2224731-2.2415466
				C185.0848541,126.5918961,186.0799713,125.5900497,187.3073273,125.5900497z"/>
			<ellipse class="st2" cx="187.3073273" cy="127.8306961" rx="1.5185714" ry="1.5316002"/>
		</g>
		<g>
			<path class="st1" d="M187.3073273,135.3835602c1.227356,0,2.2224731,1.1304932,2.2224731,2.3683929
				c0,1.2378845-0.9951172,2.1128845-2.2224731,2.1128845s-2.2224731-1.0036469-2.2224731-2.2415314
				C185.0848541,136.3854065,186.0799713,135.3835602,187.3073273,135.3835602z"/>
			<ellipse class="st2" cx="187.3073273" cy="137.6242065" rx="1.5185714" ry="1.5316002"/>
		</g>
		<path class="st8" d="M180.2306061,140.7151642c1.4799194,0,2.6796875-1.1997681,2.6796875-2.6796875
			c0-1.4799805-1.1997681-2.6796875-2.6796875-2.6796875c-1.4799805,0-2.6796875,1.199707-2.6796875,2.6796875
			C177.5509186,139.5153961,178.7506256,140.7151642,180.2306061,140.7151642z M180.2306061,139.8073273
			c-0.9785767,0-1.7719116-0.7932739-1.7719116-1.7718506c0-0.9786377,0.793335-1.7719116,1.7719116-1.7719116
			s1.7718506,0.7932739,1.7718506,1.7719116C182.0024567,139.0140533,181.2091827,139.8073273,180.2306061,139.8073273z"/>
		<path class="st8" d="M180.2306061,130.2269745c1.4799194,0,2.6796875-1.1997681,2.6796875-2.6796875
			c0-1.4799805-1.1997681-2.6796875-2.6796875-2.6796875c-1.4799805,0-2.6796875,1.199707-2.6796875,2.6796875
			C177.5509186,129.0272064,178.7506256,130.2269745,180.2306061,130.2269745z M180.2306061,129.3191376
			c-0.9785767,0-1.7719116-0.7932739-1.7719116-1.7718506c0-0.9786377,0.793335-1.7719116,1.7719116-1.7719116
			s1.7718506,0.7932739,1.7718506,1.7719116C182.0024567,128.5258636,181.2091827,129.3191376,180.2306061,129.3191376z"/>
		<circle class="st2" cx="180.2388458" cy="127.5472565" r="1.7718811"/>
		<circle class="st2" cx="180.2388458" cy="138.0354767" r="1.7718811"/>
	</g>
</g>
</svg>
